M48
; DRILL file {KiCad (6.0.4)} date Mon Mar 20 20:43:09 2023
; FORMAT={-:-/ absolute / inch / decimal}
; #@! TF.CreationDate,2023-03-20T20:43:09+01:00
; #@! TF.GenerationSoftware,Kicad,Pcbnew,(6.0.4)
; #@! TF.FileFunction,Plated,1,2,PTH
FMAT,2
INCH
; #@! TA.AperFunction,Plated,PTH,ViaDrill
T1C0.0157
; #@! TA.AperFunction,Plated,PTH,ComponentDrill
T2C0.0295
; #@! TA.AperFunction,Plated,PTH,ComponentDrill
T3C0.0394
; #@! TA.AperFunction,Plated,PTH,ComponentDrill
T4C0.0512
%
G90
G05
T1
X4.695Y-4.38
X4.715Y-3.34
X4.88Y-4.065
X4.92Y-4.555
X4.95Y-3.84
X4.995Y-3.655
X5.04Y-3.175
X5.19Y-4.18
X5.215Y-3.51
X5.22Y-3.73
X5.22Y-4.02
X5.24Y-4.54
X5.325Y-4.215
X5.42Y-3.68
X5.445Y-3.16
X5.535Y-3.48
X5.58Y-3.4784
X5.59Y-4.055
X5.595Y-3.865
X5.61Y-3.635
X5.62Y-3.56
X5.625Y-3.48
X5.685Y-4.195
X5.78Y-4.03
X5.8Y-4.355
X5.845Y-3.725
X5.88Y-4.345
X5.92Y-4.635
X5.965Y-3.93
X5.98Y-4.425
X6.025Y-3.51
X6.025Y-3.59
X6.025Y-3.98
X6.035Y-3.88
X6.045Y-3.32
X6.065Y-3.15
X6.25Y-4.115
X6.255Y-3.905
X6.33Y-3.15
X6.395Y-4.62
X6.59Y-3.865
X6.59Y-4.17
X6.63Y-3.45
T2
X5.795Y-4.2154
X5.795Y-4.5154
X5.885Y-4.215
X5.885Y-4.515
X5.975Y-4.215
X5.975Y-4.515
X6.06Y-4.2148
X6.06Y-4.5148
X6.1446Y-4.2148
X6.1446Y-4.5148
T3
X4.7047Y-3.578
X4.7047Y-3.678
X4.7047Y-3.778
X4.7047Y-3.878
X4.7047Y-3.978
X4.7047Y-4.078
X4.7047Y-4.178
X4.7047Y-4.278
X5.1083Y-3.5818
X5.1083Y-3.7818
X5.1083Y-3.8818
X5.1083Y-4.0818
X5.1098Y-3.9818
X5.3083Y-3.5818
X5.3083Y-3.7818
X5.3083Y-3.8818
X5.3083Y-4.0818
X5.3098Y-3.9818
X5.5133Y-3.5818
X5.5133Y-3.7818
X5.5133Y-3.8818
X5.5133Y-4.0818
X5.5148Y-3.9818
X5.7133Y-3.5818
X5.7133Y-3.7818
X5.7133Y-3.8818
X5.7133Y-4.0818
X5.7148Y-3.9818
X5.9133Y-3.5818
X5.9133Y-3.7818
X5.9133Y-3.8818
X5.9133Y-4.0818
X5.9148Y-3.9818
X6.1133Y-3.5818
X6.1133Y-3.7818
X6.1133Y-3.8818
X6.1133Y-4.0818
X6.1148Y-3.9818
X6.3583Y-3.578
X6.3583Y-3.678
X6.3583Y-3.778
X6.3583Y-3.878
X6.3583Y-3.978
X6.3583Y-4.078
X6.3583Y-4.178
X6.3583Y-4.278
T4
X4.9496Y-3.298
X5.1496Y-3.298
X5.3496Y-3.298
X5.4148Y-4.467
X5.5496Y-3.298
X5.6148Y-4.467
X5.7496Y-3.298
X5.9496Y-3.298
X6.1496Y-3.298
X6.3496Y-3.298
T0
M30
