M48
; DRILL file {KiCad (5.1.12)-1} date 02/01/22 13:32:42
; FORMAT={-:-/ absolute / inch / decimal}
; #@! TF.CreationDate,2022-02-01T13:32:42+01:00
; #@! TF.GenerationSoftware,Kicad,Pcbnew,(5.1.12)-1
; #@! TF.FileFunction,Plated,1,2,PTH
FMAT,2
INCH
T1C0.0157
T2C0.0276
T3C0.0295
T4C0.0315
T5C0.0394
T6C0.0512
%
G90
G05
T1
X4.705Y1.975
X4.75Y1.755
X4.845Y2.05
X4.87Y2.245
X4.89Y1.525
X4.915Y1.315
X4.92Y2.45
X4.975Y2.1
X5.015Y1.73
X5.1Y2.225
X5.115Y1.93
X5.155Y1.62
X5.21Y2.315
X5.335Y1.435
X5.405Y1.91
X5.425Y1.705
X5.44Y2.125
X5.525Y1.66
X5.55Y1.455
X5.575Y2.06
X5.595Y2.4
X5.605Y2.315
X5.745Y2.205
X5.76Y1.97
X5.865Y2.465
X5.89Y1.6
X5.915Y2.005
X5.98Y1.635
X5.985Y2.27
T2
X4.8213Y2.1462
X4.8213Y1.8462
X5.0188Y2.265
X5.1213Y2.1462
X5.1213Y1.8462
X5.3188Y2.265
X5.3213Y2.1462
X5.3213Y1.8462
X5.5213Y2.1462
X5.5213Y1.8462
T3
X4.705Y2.145
X4.705Y1.845
X4.7228Y1.6339
X4.7728Y1.6339
X4.8228Y1.6339
T4
X5.695Y2.15
X5.695Y1.85
X5.748Y2.3819
X5.748Y2.2835
X5.795Y2.15
X5.795Y1.85
X5.8416Y1.73
X5.895Y2.15
X5.895Y1.85
X5.94Y1.73
X5.995Y2.15
X5.995Y1.85
T5
X5.0038Y2.39
X5.1038Y2.39
X5.2038Y2.39
X5.3038Y2.39
X5.4588Y2.4619
X5.4588Y2.265
X5.6556Y2.3634
T6
X5.05Y1.54
X5.25Y1.54
X5.45Y1.54
X5.65Y1.54
T0
M30
