%TF.GenerationSoftware,KiCad,Pcbnew,(5.1.12)-1*%
%TF.CreationDate,2022-02-01T13:32:49+01:00*%
%TF.ProjectId,trainCatcherRelay,74726169-6e43-4617-9463-68657252656c,rev?*%
%TF.SameCoordinates,Original*%
%TF.FileFunction,Legend,Top*%
%TF.FilePolarity,Positive*%
%FSLAX46Y46*%
G04 Gerber Fmt 4.6, Leading zero omitted, Abs format (unit mm)*
G04 Created by KiCad (PCBNEW (5.1.12)-1) date 2022-02-01 13:32:49*
%MOMM*%
%LPD*%
G01*
G04 APERTURE LIST*
%ADD10C,0.150000*%
%ADD11C,0.075000*%
%ADD12C,0.120000*%
G04 APERTURE END LIST*
D10*
X139128714Y33361285D02*
X139509666Y33361285D01*
X139271571Y32694619D02*
X139271571Y33551761D01*
X139319190Y33647000D01*
X139414428Y33694619D01*
X139509666Y33694619D01*
X139843000Y32694619D02*
X139843000Y33361285D01*
X139843000Y33694619D02*
X139795380Y33647000D01*
X139843000Y33599380D01*
X139890619Y33647000D01*
X139843000Y33694619D01*
X139843000Y33599380D01*
X140223952Y32694619D02*
X140747761Y33361285D01*
X140223952Y33361285D02*
X140747761Y32694619D01*
X141509666Y32742238D02*
X141414428Y32694619D01*
X141223952Y32694619D01*
X141128714Y32742238D01*
X141081095Y32837476D01*
X141081095Y33218428D01*
X141128714Y33313666D01*
X141223952Y33361285D01*
X141414428Y33361285D01*
X141509666Y33313666D01*
X141557285Y33218428D01*
X141557285Y33123190D01*
X141081095Y33027952D01*
X142414428Y32694619D02*
X142414428Y33694619D01*
X142414428Y32742238D02*
X142319190Y32694619D01*
X142128714Y32694619D01*
X142033476Y32742238D01*
X141985857Y32789857D01*
X141938238Y32885095D01*
X141938238Y33170809D01*
X141985857Y33266047D01*
X142033476Y33313666D01*
X142128714Y33361285D01*
X142319190Y33361285D01*
X142414428Y33313666D01*
X127786190Y32742238D02*
X127881428Y32694619D01*
X128071904Y32694619D01*
X128167142Y32742238D01*
X128214761Y32837476D01*
X128214761Y32885095D01*
X128167142Y32980333D01*
X128071904Y33027952D01*
X127929047Y33027952D01*
X127833809Y33075571D01*
X127786190Y33170809D01*
X127786190Y33218428D01*
X127833809Y33313666D01*
X127929047Y33361285D01*
X128071904Y33361285D01*
X128167142Y33313666D01*
X128548095Y33361285D02*
X128738571Y32694619D01*
X128929047Y33170809D01*
X129119523Y32694619D01*
X129310000Y33361285D01*
X129690952Y32694619D02*
X129690952Y33361285D01*
X129690952Y33694619D02*
X129643333Y33647000D01*
X129690952Y33599380D01*
X129738571Y33647000D01*
X129690952Y33694619D01*
X129690952Y33599380D01*
X130024285Y33361285D02*
X130405238Y33361285D01*
X130167142Y33694619D02*
X130167142Y32837476D01*
X130214761Y32742238D01*
X130310000Y32694619D01*
X130405238Y32694619D01*
X131167142Y32742238D02*
X131071904Y32694619D01*
X130881428Y32694619D01*
X130786190Y32742238D01*
X130738571Y32789857D01*
X130690952Y32885095D01*
X130690952Y33170809D01*
X130738571Y33266047D01*
X130786190Y33313666D01*
X130881428Y33361285D01*
X131071904Y33361285D01*
X131167142Y33313666D01*
X131595714Y32694619D02*
X131595714Y33694619D01*
X132024285Y32694619D02*
X132024285Y33218428D01*
X131976666Y33313666D01*
X131881428Y33361285D01*
X131738571Y33361285D01*
X131643333Y33313666D01*
X131595714Y33266047D01*
X132881428Y32742238D02*
X132786190Y32694619D01*
X132595714Y32694619D01*
X132500476Y32742238D01*
X132452857Y32837476D01*
X132452857Y33218428D01*
X132500476Y33313666D01*
X132595714Y33361285D01*
X132786190Y33361285D01*
X132881428Y33313666D01*
X132929047Y33218428D01*
X132929047Y33123190D01*
X132452857Y33027952D01*
X133786190Y32694619D02*
X133786190Y33694619D01*
X133786190Y32742238D02*
X133690952Y32694619D01*
X133500476Y32694619D01*
X133405238Y32742238D01*
X133357619Y32789857D01*
X133310000Y32885095D01*
X133310000Y33170809D01*
X133357619Y33266047D01*
X133405238Y33313666D01*
X133500476Y33361285D01*
X133690952Y33361285D01*
X133786190Y33313666D01*
D11*
X127222238Y62718190D02*
X127460333Y62718190D01*
X127484142Y62956285D01*
X127460333Y62932476D01*
X127412714Y62908666D01*
X127293666Y62908666D01*
X127246047Y62932476D01*
X127222238Y62956285D01*
X127198428Y63003904D01*
X127198428Y63122952D01*
X127222238Y63170571D01*
X127246047Y63194380D01*
X127293666Y63218190D01*
X127412714Y63218190D01*
X127460333Y63194380D01*
X127484142Y63170571D01*
X127055571Y62718190D02*
X126888904Y63218190D01*
X126722238Y62718190D01*
X130047952Y62742000D02*
X130095571Y62718190D01*
X130167000Y62718190D01*
X130238428Y62742000D01*
X130286047Y62789619D01*
X130309857Y62837238D01*
X130333666Y62932476D01*
X130333666Y63003904D01*
X130309857Y63099142D01*
X130286047Y63146761D01*
X130238428Y63194380D01*
X130167000Y63218190D01*
X130119380Y63218190D01*
X130047952Y63194380D01*
X130024142Y63170571D01*
X130024142Y63003904D01*
X130119380Y63003904D01*
X129809857Y63218190D02*
X129809857Y62718190D01*
X129524142Y63218190D01*
X129524142Y62718190D01*
X129286047Y63218190D02*
X129286047Y62718190D01*
X129167000Y62718190D01*
X129095571Y62742000D01*
X129047952Y62789619D01*
X129024142Y62837238D01*
X129000333Y62932476D01*
X129000333Y63003904D01*
X129024142Y63099142D01*
X129047952Y63146761D01*
X129095571Y63194380D01*
X129167000Y63218190D01*
X129286047Y63218190D01*
X133016523Y63218190D02*
X133016523Y62884857D01*
X133016523Y62980095D02*
X132992714Y62932476D01*
X132968904Y62908666D01*
X132921285Y62884857D01*
X132873666Y62884857D01*
X132516523Y63194380D02*
X132564142Y63218190D01*
X132659380Y63218190D01*
X132707000Y63194380D01*
X132730809Y63146761D01*
X132730809Y62956285D01*
X132707000Y62908666D01*
X132659380Y62884857D01*
X132564142Y62884857D01*
X132516523Y62908666D01*
X132492714Y62956285D01*
X132492714Y63003904D01*
X132730809Y63051523D01*
X132302238Y63194380D02*
X132254619Y63218190D01*
X132159380Y63218190D01*
X132111761Y63194380D01*
X132087952Y63146761D01*
X132087952Y63122952D01*
X132111761Y63075333D01*
X132159380Y63051523D01*
X132230809Y63051523D01*
X132278428Y63027714D01*
X132302238Y62980095D01*
X132302238Y62956285D01*
X132278428Y62908666D01*
X132230809Y62884857D01*
X132159380Y62884857D01*
X132111761Y62908666D01*
X131683190Y63194380D02*
X131730809Y63218190D01*
X131826047Y63218190D01*
X131873666Y63194380D01*
X131897476Y63146761D01*
X131897476Y62956285D01*
X131873666Y62908666D01*
X131826047Y62884857D01*
X131730809Y62884857D01*
X131683190Y62908666D01*
X131659380Y62956285D01*
X131659380Y63003904D01*
X131897476Y63051523D01*
X131516523Y62884857D02*
X131326047Y62884857D01*
X131445095Y62718190D02*
X131445095Y63146761D01*
X131421285Y63194380D01*
X131373666Y63218190D01*
X131326047Y63218190D01*
X135211285Y63194380D02*
X135163666Y63218190D01*
X135068428Y63218190D01*
X135020809Y63194380D01*
X134997000Y63146761D01*
X134997000Y63122952D01*
X135020809Y63075333D01*
X135068428Y63051523D01*
X135139857Y63051523D01*
X135187476Y63027714D01*
X135211285Y62980095D01*
X135211285Y62956285D01*
X135187476Y62908666D01*
X135139857Y62884857D01*
X135068428Y62884857D01*
X135020809Y62908666D01*
X134592238Y63194380D02*
X134639857Y63218190D01*
X134735095Y63218190D01*
X134782714Y63194380D01*
X134806523Y63146761D01*
X134806523Y62956285D01*
X134782714Y62908666D01*
X134735095Y62884857D01*
X134639857Y62884857D01*
X134592238Y62908666D01*
X134568428Y62956285D01*
X134568428Y63003904D01*
X134806523Y63051523D01*
X134425571Y62884857D02*
X134235095Y62884857D01*
X134354142Y62718190D02*
X134354142Y63146761D01*
X134330333Y63194380D01*
X134282714Y63218190D01*
X134235095Y63218190D01*
D12*
%TO.C,J2*%
X125430000Y34216000D02*
X125930000Y34216000D01*
X125430000Y34956000D02*
X125430000Y34216000D01*
X142283000Y38093000D02*
X142236000Y38047000D01*
X144580000Y40391000D02*
X144545000Y40355000D01*
X142476000Y37877000D02*
X142441000Y37842000D01*
X144785000Y40185000D02*
X144738000Y40139000D01*
X137203000Y38093000D02*
X137156000Y38047000D01*
X139500000Y40391000D02*
X139465000Y40355000D01*
X137396000Y37877000D02*
X137361000Y37842000D01*
X139705000Y40185000D02*
X139658000Y40139000D01*
X132123000Y38093000D02*
X132076000Y38047000D01*
X134420000Y40391000D02*
X134385000Y40355000D01*
X132316000Y37877000D02*
X132281000Y37842000D01*
X134625000Y40185000D02*
X134578000Y40139000D01*
X146110000Y44377000D02*
X146110000Y34456000D01*
X125670000Y44377000D02*
X125670000Y34456000D01*
X125670000Y34456000D02*
X146110000Y34456000D01*
X125670000Y44377000D02*
X146110000Y44377000D01*
X125670000Y41417000D02*
X146110000Y41417000D01*
X125670000Y36516000D02*
X146110000Y36516000D01*
X125670000Y35016000D02*
X146110000Y35016000D01*
X145190000Y39116000D02*
G75*
G03*
X145190000Y39116000I-1680000J0D01*
G01*
X140110000Y39116000D02*
G75*
G03*
X140110000Y39116000I-1680000J0D01*
G01*
X135030000Y39116000D02*
G75*
G03*
X135030000Y39116000I-1680000J0D01*
G01*
X128298805Y37435747D02*
G75*
G02*
X127586000Y37581000I-28805J1680253D01*
G01*
X126734574Y38432958D02*
G75*
G02*
X126735000Y39800000I1535426J683042D01*
G01*
X127586958Y40651426D02*
G75*
G02*
X128954000Y40651000I683042J-1535426D01*
G01*
X129805426Y39799042D02*
G75*
G02*
X129805000Y38432000I-1535426J-683042D01*
G01*
X128953318Y37581244D02*
G75*
G02*
X128270000Y37436000I-683318J1534756D01*
G01*
%TO.C,U1*%
X143323000Y49800000D02*
X143323000Y48150000D01*
X143323000Y48150000D02*
X153603000Y48150000D01*
X153603000Y48150000D02*
X153603000Y53450000D01*
X153603000Y53450000D02*
X143323000Y53450000D01*
X143323000Y53450000D02*
X143323000Y51800000D01*
X143323000Y51800000D02*
G75*
G02*
X143323000Y49800000I0J-1000000D01*
G01*
%TO.C,RV1*%
X137443000Y63341000D02*
X138133000Y63341000D01*
X137443000Y63241000D02*
X137443000Y63341000D01*
X137443000Y56721000D02*
X137693000Y56721000D01*
X137443000Y56821000D02*
X137443000Y56721000D01*
X137243000Y56821000D02*
X137443000Y56821000D01*
X137443000Y58241000D02*
X137243000Y58241000D01*
X144463000Y62031000D02*
X144463000Y60541000D01*
X139173000Y63341000D02*
X143153000Y63341000D01*
X143153000Y56721000D02*
X139613000Y56721000D01*
X144463000Y59521000D02*
X144463000Y58031000D01*
X137243000Y63241000D02*
X137443000Y63241000D01*
X137243000Y61821000D02*
X137243000Y63241000D01*
X137443000Y61821000D02*
X137243000Y61821000D01*
X137443000Y58241000D02*
X137443000Y61821000D01*
X137243000Y56821000D02*
X137243000Y58241000D01*
X144463000Y58031000D02*
G75*
G02*
X143153000Y56721000I-1310000J0D01*
G01*
X143153000Y63341000D02*
G75*
G02*
X144463000Y62031000I0J-1310000D01*
G01*
%TO.C,R1*%
X129367000Y58451000D02*
X129367000Y56611000D01*
X129367000Y56611000D02*
X133207000Y56611000D01*
X133207000Y56611000D02*
X133207000Y58451000D01*
X133207000Y58451000D02*
X129367000Y58451000D01*
X128417000Y57531000D02*
X129367000Y57531000D01*
X134157000Y57531000D02*
X133207000Y57531000D01*
%TO.C,Q1*%
X119430000Y39650000D02*
X123030000Y39650000D01*
X123068478Y39661522D02*
G75*
G03*
X121230000Y44100000I-1838478J1838478D01*
G01*
X119391522Y39661522D02*
G75*
G02*
X121230000Y44100000I1838478J1838478D01*
G01*
%TO.C,K1*%
X120910000Y45353000D02*
X120910000Y46563000D01*
X122210000Y45353000D02*
X120910000Y45353000D01*
X121060000Y45513000D02*
X141650000Y45513000D01*
X141650000Y45513000D02*
X141650000Y55893000D01*
X141650000Y55893000D02*
X121060000Y55893000D01*
X121060000Y55893000D02*
X121060000Y45513000D01*
X121060000Y49193000D02*
X122100000Y49193000D01*
X122120000Y49193000D02*
X122120000Y52193000D01*
X122120000Y52193000D02*
X121060000Y52193000D01*
X122900000Y50363000D02*
X122900000Y49263000D01*
X122900000Y51063000D02*
X122900000Y52163000D01*
X123070000Y50363000D02*
X122670000Y51063000D01*
X122270000Y50363000D02*
X123470000Y50363000D01*
X123470000Y50363000D02*
X123470000Y51063000D01*
X123470000Y51063000D02*
X122270000Y51063000D01*
X122270000Y51063000D02*
X122270000Y50363000D01*
%TO.C,J3*%
X125766000Y62036000D02*
X125766000Y59376000D01*
X133446000Y62036000D02*
X125766000Y62036000D01*
X133446000Y59376000D02*
X125766000Y59376000D01*
X133446000Y62036000D02*
X133446000Y59376000D01*
X134716000Y62036000D02*
X136046000Y62036000D01*
X136046000Y62036000D02*
X136046000Y60706000D01*
%TO.C,D1*%
X120427000Y52313000D02*
X118587000Y52313000D01*
X118587000Y52313000D02*
X118587000Y49033000D01*
X118587000Y49033000D02*
X120427000Y49033000D01*
X120427000Y49033000D02*
X120427000Y52313000D01*
X119507000Y53493000D02*
X119507000Y52313000D01*
X119507000Y47853000D02*
X119507000Y49033000D01*
X120427000Y51737000D02*
X118587000Y51737000D01*
X120427000Y51617000D02*
X118587000Y51617000D01*
X120427000Y51857000D02*
X118587000Y51857000D01*
%TO.C,C2*%
X145080000Y58621000D02*
X145080000Y59879000D01*
X146920000Y58621000D02*
X146920000Y59879000D01*
%TO.C,C1*%
X148997000Y44862000D02*
X150255000Y44862000D01*
X148997000Y43022000D02*
X150255000Y43022000D01*
%TO.C,J2*%
D10*
X135556666Y45923619D02*
X135556666Y45209333D01*
X135509047Y45066476D01*
X135413809Y44971238D01*
X135270952Y44923619D01*
X135175714Y44923619D01*
X135985238Y45828380D02*
X136032857Y45876000D01*
X136128095Y45923619D01*
X136366190Y45923619D01*
X136461428Y45876000D01*
X136509047Y45828380D01*
X136556666Y45733142D01*
X136556666Y45637904D01*
X136509047Y45495047D01*
X135937619Y44923619D01*
X136556666Y44923619D01*
%TO.C,U1*%
X141775380Y50038095D02*
X142584904Y50038095D01*
X142680142Y50085714D01*
X142727761Y50133333D01*
X142775380Y50228571D01*
X142775380Y50419047D01*
X142727761Y50514285D01*
X142680142Y50561904D01*
X142584904Y50609523D01*
X141775380Y50609523D01*
X142775380Y51609523D02*
X142775380Y51038095D01*
X142775380Y51323809D02*
X141775380Y51323809D01*
X141918238Y51228571D01*
X142013476Y51133333D01*
X142061095Y51038095D01*
%TO.C,RV1*%
X140343761Y59618619D02*
X140010428Y60094809D01*
X139772333Y59618619D02*
X139772333Y60618619D01*
X140153285Y60618619D01*
X140248523Y60571000D01*
X140296142Y60523380D01*
X140343761Y60428142D01*
X140343761Y60285285D01*
X140296142Y60190047D01*
X140248523Y60142428D01*
X140153285Y60094809D01*
X139772333Y60094809D01*
X140629476Y60618619D02*
X140962809Y59618619D01*
X141296142Y60618619D01*
X142153285Y59618619D02*
X141581857Y59618619D01*
X141867571Y59618619D02*
X141867571Y60618619D01*
X141772333Y60475761D01*
X141677095Y60380523D01*
X141581857Y60332904D01*
%TO.C,R1*%
X125333333Y56658619D02*
X125000000Y57134809D01*
X124761904Y56658619D02*
X124761904Y57658619D01*
X125142857Y57658619D01*
X125238095Y57611000D01*
X125285714Y57563380D01*
X125333333Y57468142D01*
X125333333Y57325285D01*
X125285714Y57230047D01*
X125238095Y57182428D01*
X125142857Y57134809D01*
X124761904Y57134809D01*
X126285714Y56658619D02*
X125714285Y56658619D01*
X126000000Y56658619D02*
X126000000Y57658619D01*
X125904761Y57515761D01*
X125809523Y57420523D01*
X125714285Y57372904D01*
%TO.C,Q1*%
X125079619Y40769761D02*
X125032000Y40674523D01*
X124936761Y40579285D01*
X124793904Y40436428D01*
X124746285Y40341190D01*
X124746285Y40245952D01*
X124984380Y40293571D02*
X124936761Y40198333D01*
X124841523Y40103095D01*
X124651047Y40055476D01*
X124317714Y40055476D01*
X124127238Y40103095D01*
X124032000Y40198333D01*
X123984380Y40293571D01*
X123984380Y40484047D01*
X124032000Y40579285D01*
X124127238Y40674523D01*
X124317714Y40722142D01*
X124651047Y40722142D01*
X124841523Y40674523D01*
X124936761Y40579285D01*
X124984380Y40484047D01*
X124984380Y40293571D01*
X124984380Y41674523D02*
X124984380Y41103095D01*
X124984380Y41388809D02*
X123984380Y41388809D01*
X124127238Y41293571D01*
X124222476Y41198333D01*
X124270095Y41103095D01*
%TO.C,K1*%
X126436380Y49807904D02*
X125436380Y49807904D01*
X126436380Y50379333D02*
X125864952Y49950761D01*
X125436380Y50379333D02*
X126007809Y49807904D01*
X126436380Y51331714D02*
X126436380Y50760285D01*
X126436380Y51046000D02*
X125436380Y51046000D01*
X125579238Y50950761D01*
X125674476Y50855523D01*
X125722095Y50760285D01*
%TO.C,J3*%
X124126666Y62142619D02*
X124126666Y61428333D01*
X124079047Y61285476D01*
X123983809Y61190238D01*
X123840952Y61142619D01*
X123745714Y61142619D01*
X124507619Y62142619D02*
X125126666Y62142619D01*
X124793333Y61761666D01*
X124936190Y61761666D01*
X125031428Y61714047D01*
X125079047Y61666428D01*
X125126666Y61571190D01*
X125126666Y61333095D01*
X125079047Y61237857D01*
X125031428Y61190238D01*
X124936190Y61142619D01*
X124650476Y61142619D01*
X124555238Y61190238D01*
X124507619Y61237857D01*
%TO.C,D1*%
X118768904Y55808619D02*
X118768904Y56808619D01*
X119007000Y56808619D01*
X119149857Y56761000D01*
X119245095Y56665761D01*
X119292714Y56570523D01*
X119340333Y56380047D01*
X119340333Y56237190D01*
X119292714Y56046714D01*
X119245095Y55951476D01*
X119149857Y55856238D01*
X119007000Y55808619D01*
X118768904Y55808619D01*
X120292714Y55808619D02*
X119721285Y55808619D01*
X120007000Y55808619D02*
X120007000Y56808619D01*
X119911761Y56665761D01*
X119816523Y56570523D01*
X119721285Y56522904D01*
X121709380Y54221095D02*
X120709380Y54221095D01*
X121709380Y54792523D02*
X121137952Y54363952D01*
X120709380Y54792523D02*
X121280809Y54221095D01*
%TO.C,C2*%
X145579333Y62214857D02*
X145531714Y62167238D01*
X145388857Y62119619D01*
X145293619Y62119619D01*
X145150761Y62167238D01*
X145055523Y62262476D01*
X145007904Y62357714D01*
X144960285Y62548190D01*
X144960285Y62691047D01*
X145007904Y62881523D01*
X145055523Y62976761D01*
X145150761Y63072000D01*
X145293619Y63119619D01*
X145388857Y63119619D01*
X145531714Y63072000D01*
X145579333Y63024380D01*
X145960285Y63024380D02*
X146007904Y63072000D01*
X146103142Y63119619D01*
X146341238Y63119619D01*
X146436476Y63072000D01*
X146484095Y63024380D01*
X146531714Y62929142D01*
X146531714Y62833904D01*
X146484095Y62691047D01*
X145912666Y62119619D01*
X146531714Y62119619D01*
%TO.C,C1*%
X152868333Y43457857D02*
X152820714Y43410238D01*
X152677857Y43362619D01*
X152582619Y43362619D01*
X152439761Y43410238D01*
X152344523Y43505476D01*
X152296904Y43600714D01*
X152249285Y43791190D01*
X152249285Y43934047D01*
X152296904Y44124523D01*
X152344523Y44219761D01*
X152439761Y44315000D01*
X152582619Y44362619D01*
X152677857Y44362619D01*
X152820714Y44315000D01*
X152868333Y44267380D01*
X153820714Y43362619D02*
X153249285Y43362619D01*
X153535000Y43362619D02*
X153535000Y44362619D01*
X153439761Y44219761D01*
X153344523Y44124523D01*
X153249285Y44076904D01*
%TD*%
M02*
