%TF.GenerationSoftware,KiCad,Pcbnew,7.0.7*%
%TF.CreationDate,2023-10-05T20:18:13+02:00*%
%TF.ProjectId,_4mm_sleeper,5f346d6d-5f73-46c6-9565-7065722e6b69,rev?*%
%TF.SameCoordinates,Original*%
%TF.FileFunction,Profile,NP*%
%FSLAX46Y46*%
G04 Gerber Fmt 4.6, Leading zero omitted, Abs format (unit mm)*
G04 Created by KiCad (PCBNEW 7.0.7) date 2023-10-05 20:18:13*
%MOMM*%
%LPD*%
G01*
G04 APERTURE LIST*
%TA.AperFunction,Profile*%
%ADD10C,0.100000*%
%TD*%
G04 APERTURE END LIST*
D10*
X111600000Y-105400000D02*
X111600000Y-89300000D01*
X111600000Y-112300000D02*
X108400000Y-112300000D01*
X115600000Y-82300000D02*
X118800000Y-82300000D01*
X108400000Y-82300000D02*
X111600000Y-82300000D01*
X115600000Y-89300000D02*
X115600000Y-105400000D01*
X111600000Y-107800000D02*
X115600000Y-107800000D01*
X118100000Y-84500000D02*
G75*
G03*
X118100000Y-84500000I-800000J0D01*
G01*
X115600000Y-86900000D02*
X115600000Y-82300000D01*
X111600000Y-89300000D02*
X115600000Y-89300000D01*
X111600000Y-86900000D02*
X111600000Y-82300000D01*
X111600000Y-86900000D02*
X115600000Y-86900000D01*
X111600000Y-105400000D02*
X115600000Y-105400000D01*
X111600000Y-107800000D02*
X111600000Y-112300000D01*
X118100000Y-110100000D02*
G75*
G03*
X118100000Y-110100000I-800000J0D01*
G01*
X110800000Y-84500000D02*
G75*
G03*
X110800000Y-84500000I-800000J0D01*
G01*
X118800000Y-112300000D02*
X115600000Y-112300000D01*
X118800000Y-82300000D02*
X118800000Y-112300000D01*
X108400000Y-112300000D02*
X108400000Y-82300000D01*
X115600000Y-112300000D02*
X115600000Y-107800000D01*
X110800000Y-110100000D02*
G75*
G03*
X110800000Y-110100000I-800000J0D01*
G01*
M02*
