%TF.GenerationSoftware,KiCad,Pcbnew,7.0.7*%
%TF.CreationDate,2023-10-04T11:26:52+02:00*%
%TF.ProjectId,_4mm_sleeper,5f346d6d-5f73-46c6-9565-7065722e6b69,rev?*%
%TF.SameCoordinates,Original*%
%TF.FileFunction,Legend,Bot*%
%TF.FilePolarity,Positive*%
%FSLAX46Y46*%
G04 Gerber Fmt 4.6, Leading zero omitted, Abs format (unit mm)*
G04 Created by KiCad (PCBNEW 7.0.7) date 2023-10-04 11:26:52*
%MOMM*%
%LPD*%
G01*
G04 APERTURE LIST*
%ADD10C,0.150000*%
%ADD11C,0.075000*%
G04 APERTURE END LIST*
D10*
X117203152Y-90565350D02*
X117869819Y-90565350D01*
X116822200Y-90327255D02*
X117536485Y-90089160D01*
X117536485Y-90089160D02*
X117536485Y-90708207D01*
X117869819Y-91089160D02*
X117203152Y-91089160D01*
X117298390Y-91089160D02*
X117250771Y-91136779D01*
X117250771Y-91136779D02*
X117203152Y-91232017D01*
X117203152Y-91232017D02*
X117203152Y-91374874D01*
X117203152Y-91374874D02*
X117250771Y-91470112D01*
X117250771Y-91470112D02*
X117346009Y-91517731D01*
X117346009Y-91517731D02*
X117869819Y-91517731D01*
X117346009Y-91517731D02*
X117250771Y-91565350D01*
X117250771Y-91565350D02*
X117203152Y-91660588D01*
X117203152Y-91660588D02*
X117203152Y-91803445D01*
X117203152Y-91803445D02*
X117250771Y-91898684D01*
X117250771Y-91898684D02*
X117346009Y-91946303D01*
X117346009Y-91946303D02*
X117869819Y-91946303D01*
X117869819Y-92422493D02*
X117203152Y-92422493D01*
X117298390Y-92422493D02*
X117250771Y-92470112D01*
X117250771Y-92470112D02*
X117203152Y-92565350D01*
X117203152Y-92565350D02*
X117203152Y-92708207D01*
X117203152Y-92708207D02*
X117250771Y-92803445D01*
X117250771Y-92803445D02*
X117346009Y-92851064D01*
X117346009Y-92851064D02*
X117869819Y-92851064D01*
X117346009Y-92851064D02*
X117250771Y-92898683D01*
X117250771Y-92898683D02*
X117203152Y-92993921D01*
X117203152Y-92993921D02*
X117203152Y-93136778D01*
X117203152Y-93136778D02*
X117250771Y-93232017D01*
X117250771Y-93232017D02*
X117346009Y-93279636D01*
X117346009Y-93279636D02*
X117869819Y-93279636D01*
X117822200Y-94470112D02*
X117869819Y-94565350D01*
X117869819Y-94565350D02*
X117869819Y-94755826D01*
X117869819Y-94755826D02*
X117822200Y-94851064D01*
X117822200Y-94851064D02*
X117726961Y-94898683D01*
X117726961Y-94898683D02*
X117679342Y-94898683D01*
X117679342Y-94898683D02*
X117584104Y-94851064D01*
X117584104Y-94851064D02*
X117536485Y-94755826D01*
X117536485Y-94755826D02*
X117536485Y-94612969D01*
X117536485Y-94612969D02*
X117488866Y-94517731D01*
X117488866Y-94517731D02*
X117393628Y-94470112D01*
X117393628Y-94470112D02*
X117346009Y-94470112D01*
X117346009Y-94470112D02*
X117250771Y-94517731D01*
X117250771Y-94517731D02*
X117203152Y-94612969D01*
X117203152Y-94612969D02*
X117203152Y-94755826D01*
X117203152Y-94755826D02*
X117250771Y-94851064D01*
X117869819Y-95470112D02*
X117822200Y-95374874D01*
X117822200Y-95374874D02*
X117774580Y-95327255D01*
X117774580Y-95327255D02*
X117679342Y-95279636D01*
X117679342Y-95279636D02*
X117393628Y-95279636D01*
X117393628Y-95279636D02*
X117298390Y-95327255D01*
X117298390Y-95327255D02*
X117250771Y-95374874D01*
X117250771Y-95374874D02*
X117203152Y-95470112D01*
X117203152Y-95470112D02*
X117203152Y-95612969D01*
X117203152Y-95612969D02*
X117250771Y-95708207D01*
X117250771Y-95708207D02*
X117298390Y-95755826D01*
X117298390Y-95755826D02*
X117393628Y-95803445D01*
X117393628Y-95803445D02*
X117679342Y-95803445D01*
X117679342Y-95803445D02*
X117774580Y-95755826D01*
X117774580Y-95755826D02*
X117822200Y-95708207D01*
X117822200Y-95708207D02*
X117869819Y-95612969D01*
X117869819Y-95612969D02*
X117869819Y-95470112D01*
X117869819Y-96374874D02*
X117822200Y-96279636D01*
X117822200Y-96279636D02*
X117726961Y-96232017D01*
X117726961Y-96232017D02*
X116869819Y-96232017D01*
X117869819Y-97184398D02*
X116869819Y-97184398D01*
X117822200Y-97184398D02*
X117869819Y-97089160D01*
X117869819Y-97089160D02*
X117869819Y-96898684D01*
X117869819Y-96898684D02*
X117822200Y-96803446D01*
X117822200Y-96803446D02*
X117774580Y-96755827D01*
X117774580Y-96755827D02*
X117679342Y-96708208D01*
X117679342Y-96708208D02*
X117393628Y-96708208D01*
X117393628Y-96708208D02*
X117298390Y-96755827D01*
X117298390Y-96755827D02*
X117250771Y-96803446D01*
X117250771Y-96803446D02*
X117203152Y-96898684D01*
X117203152Y-96898684D02*
X117203152Y-97089160D01*
X117203152Y-97089160D02*
X117250771Y-97184398D01*
X117822200Y-98041541D02*
X117869819Y-97946303D01*
X117869819Y-97946303D02*
X117869819Y-97755827D01*
X117869819Y-97755827D02*
X117822200Y-97660589D01*
X117822200Y-97660589D02*
X117726961Y-97612970D01*
X117726961Y-97612970D02*
X117346009Y-97612970D01*
X117346009Y-97612970D02*
X117250771Y-97660589D01*
X117250771Y-97660589D02*
X117203152Y-97755827D01*
X117203152Y-97755827D02*
X117203152Y-97946303D01*
X117203152Y-97946303D02*
X117250771Y-98041541D01*
X117250771Y-98041541D02*
X117346009Y-98089160D01*
X117346009Y-98089160D02*
X117441247Y-98089160D01*
X117441247Y-98089160D02*
X117536485Y-97612970D01*
X117869819Y-98517732D02*
X117203152Y-98517732D01*
X117393628Y-98517732D02*
X117298390Y-98565351D01*
X117298390Y-98565351D02*
X117250771Y-98612970D01*
X117250771Y-98612970D02*
X117203152Y-98708208D01*
X117203152Y-98708208D02*
X117203152Y-98803446D01*
X117822200Y-99851066D02*
X117869819Y-99946304D01*
X117869819Y-99946304D02*
X117869819Y-100136780D01*
X117869819Y-100136780D02*
X117822200Y-100232018D01*
X117822200Y-100232018D02*
X117726961Y-100279637D01*
X117726961Y-100279637D02*
X117679342Y-100279637D01*
X117679342Y-100279637D02*
X117584104Y-100232018D01*
X117584104Y-100232018D02*
X117536485Y-100136780D01*
X117536485Y-100136780D02*
X117536485Y-99993923D01*
X117536485Y-99993923D02*
X117488866Y-99898685D01*
X117488866Y-99898685D02*
X117393628Y-99851066D01*
X117393628Y-99851066D02*
X117346009Y-99851066D01*
X117346009Y-99851066D02*
X117250771Y-99898685D01*
X117250771Y-99898685D02*
X117203152Y-99993923D01*
X117203152Y-99993923D02*
X117203152Y-100136780D01*
X117203152Y-100136780D02*
X117250771Y-100232018D01*
X117869819Y-100851066D02*
X117822200Y-100755828D01*
X117822200Y-100755828D02*
X117726961Y-100708209D01*
X117726961Y-100708209D02*
X116869819Y-100708209D01*
X117822200Y-101612971D02*
X117869819Y-101517733D01*
X117869819Y-101517733D02*
X117869819Y-101327257D01*
X117869819Y-101327257D02*
X117822200Y-101232019D01*
X117822200Y-101232019D02*
X117726961Y-101184400D01*
X117726961Y-101184400D02*
X117346009Y-101184400D01*
X117346009Y-101184400D02*
X117250771Y-101232019D01*
X117250771Y-101232019D02*
X117203152Y-101327257D01*
X117203152Y-101327257D02*
X117203152Y-101517733D01*
X117203152Y-101517733D02*
X117250771Y-101612971D01*
X117250771Y-101612971D02*
X117346009Y-101660590D01*
X117346009Y-101660590D02*
X117441247Y-101660590D01*
X117441247Y-101660590D02*
X117536485Y-101184400D01*
X117822200Y-102470114D02*
X117869819Y-102374876D01*
X117869819Y-102374876D02*
X117869819Y-102184400D01*
X117869819Y-102184400D02*
X117822200Y-102089162D01*
X117822200Y-102089162D02*
X117726961Y-102041543D01*
X117726961Y-102041543D02*
X117346009Y-102041543D01*
X117346009Y-102041543D02*
X117250771Y-102089162D01*
X117250771Y-102089162D02*
X117203152Y-102184400D01*
X117203152Y-102184400D02*
X117203152Y-102374876D01*
X117203152Y-102374876D02*
X117250771Y-102470114D01*
X117250771Y-102470114D02*
X117346009Y-102517733D01*
X117346009Y-102517733D02*
X117441247Y-102517733D01*
X117441247Y-102517733D02*
X117536485Y-102041543D01*
X117203152Y-102946305D02*
X118203152Y-102946305D01*
X117250771Y-102946305D02*
X117203152Y-103041543D01*
X117203152Y-103041543D02*
X117203152Y-103232019D01*
X117203152Y-103232019D02*
X117250771Y-103327257D01*
X117250771Y-103327257D02*
X117298390Y-103374876D01*
X117298390Y-103374876D02*
X117393628Y-103422495D01*
X117393628Y-103422495D02*
X117679342Y-103422495D01*
X117679342Y-103422495D02*
X117774580Y-103374876D01*
X117774580Y-103374876D02*
X117822200Y-103327257D01*
X117822200Y-103327257D02*
X117869819Y-103232019D01*
X117869819Y-103232019D02*
X117869819Y-103041543D01*
X117869819Y-103041543D02*
X117822200Y-102946305D01*
X117822200Y-104232019D02*
X117869819Y-104136781D01*
X117869819Y-104136781D02*
X117869819Y-103946305D01*
X117869819Y-103946305D02*
X117822200Y-103851067D01*
X117822200Y-103851067D02*
X117726961Y-103803448D01*
X117726961Y-103803448D02*
X117346009Y-103803448D01*
X117346009Y-103803448D02*
X117250771Y-103851067D01*
X117250771Y-103851067D02*
X117203152Y-103946305D01*
X117203152Y-103946305D02*
X117203152Y-104136781D01*
X117203152Y-104136781D02*
X117250771Y-104232019D01*
X117250771Y-104232019D02*
X117346009Y-104279638D01*
X117346009Y-104279638D02*
X117441247Y-104279638D01*
X117441247Y-104279638D02*
X117536485Y-103803448D01*
X117869819Y-104708210D02*
X117203152Y-104708210D01*
X117393628Y-104708210D02*
X117298390Y-104755829D01*
X117298390Y-104755829D02*
X117250771Y-104803448D01*
X117250771Y-104803448D02*
X117203152Y-104898686D01*
X117203152Y-104898686D02*
X117203152Y-104993924D01*
X109369819Y-90593922D02*
X109369819Y-91165350D01*
X110369819Y-90879636D02*
X109369819Y-90879636D01*
X110369819Y-91498684D02*
X109703152Y-91498684D01*
X109893628Y-91498684D02*
X109798390Y-91546303D01*
X109798390Y-91546303D02*
X109750771Y-91593922D01*
X109750771Y-91593922D02*
X109703152Y-91689160D01*
X109703152Y-91689160D02*
X109703152Y-91784398D01*
X110369819Y-92546303D02*
X109846009Y-92546303D01*
X109846009Y-92546303D02*
X109750771Y-92498684D01*
X109750771Y-92498684D02*
X109703152Y-92403446D01*
X109703152Y-92403446D02*
X109703152Y-92212970D01*
X109703152Y-92212970D02*
X109750771Y-92117732D01*
X110322200Y-92546303D02*
X110369819Y-92451065D01*
X110369819Y-92451065D02*
X110369819Y-92212970D01*
X110369819Y-92212970D02*
X110322200Y-92117732D01*
X110322200Y-92117732D02*
X110226961Y-92070113D01*
X110226961Y-92070113D02*
X110131723Y-92070113D01*
X110131723Y-92070113D02*
X110036485Y-92117732D01*
X110036485Y-92117732D02*
X109988866Y-92212970D01*
X109988866Y-92212970D02*
X109988866Y-92451065D01*
X109988866Y-92451065D02*
X109941247Y-92546303D01*
X110369819Y-93022494D02*
X109703152Y-93022494D01*
X109369819Y-93022494D02*
X109417438Y-92974875D01*
X109417438Y-92974875D02*
X109465057Y-93022494D01*
X109465057Y-93022494D02*
X109417438Y-93070113D01*
X109417438Y-93070113D02*
X109369819Y-93022494D01*
X109369819Y-93022494D02*
X109465057Y-93022494D01*
X109703152Y-93498684D02*
X110369819Y-93498684D01*
X109798390Y-93498684D02*
X109750771Y-93546303D01*
X109750771Y-93546303D02*
X109703152Y-93641541D01*
X109703152Y-93641541D02*
X109703152Y-93784398D01*
X109703152Y-93784398D02*
X109750771Y-93879636D01*
X109750771Y-93879636D02*
X109846009Y-93927255D01*
X109846009Y-93927255D02*
X110369819Y-93927255D01*
X109988866Y-94403446D02*
X109988866Y-95165351D01*
X110322200Y-95593922D02*
X110369819Y-95736779D01*
X110369819Y-95736779D02*
X110369819Y-95974874D01*
X110369819Y-95974874D02*
X110322200Y-96070112D01*
X110322200Y-96070112D02*
X110274580Y-96117731D01*
X110274580Y-96117731D02*
X110179342Y-96165350D01*
X110179342Y-96165350D02*
X110084104Y-96165350D01*
X110084104Y-96165350D02*
X109988866Y-96117731D01*
X109988866Y-96117731D02*
X109941247Y-96070112D01*
X109941247Y-96070112D02*
X109893628Y-95974874D01*
X109893628Y-95974874D02*
X109846009Y-95784398D01*
X109846009Y-95784398D02*
X109798390Y-95689160D01*
X109798390Y-95689160D02*
X109750771Y-95641541D01*
X109750771Y-95641541D02*
X109655533Y-95593922D01*
X109655533Y-95593922D02*
X109560295Y-95593922D01*
X109560295Y-95593922D02*
X109465057Y-95641541D01*
X109465057Y-95641541D02*
X109417438Y-95689160D01*
X109417438Y-95689160D02*
X109369819Y-95784398D01*
X109369819Y-95784398D02*
X109369819Y-96022493D01*
X109369819Y-96022493D02*
X109417438Y-96165350D01*
X110322200Y-97022493D02*
X110369819Y-96927255D01*
X110369819Y-96927255D02*
X110369819Y-96736779D01*
X110369819Y-96736779D02*
X110322200Y-96641541D01*
X110322200Y-96641541D02*
X110274580Y-96593922D01*
X110274580Y-96593922D02*
X110179342Y-96546303D01*
X110179342Y-96546303D02*
X109893628Y-96546303D01*
X109893628Y-96546303D02*
X109798390Y-96593922D01*
X109798390Y-96593922D02*
X109750771Y-96641541D01*
X109750771Y-96641541D02*
X109703152Y-96736779D01*
X109703152Y-96736779D02*
X109703152Y-96927255D01*
X109703152Y-96927255D02*
X109750771Y-97022493D01*
X110369819Y-97451065D02*
X109703152Y-97451065D01*
X109369819Y-97451065D02*
X109417438Y-97403446D01*
X109417438Y-97403446D02*
X109465057Y-97451065D01*
X109465057Y-97451065D02*
X109417438Y-97498684D01*
X109417438Y-97498684D02*
X109369819Y-97451065D01*
X109369819Y-97451065D02*
X109465057Y-97451065D01*
X110322200Y-98308207D02*
X110369819Y-98212969D01*
X110369819Y-98212969D02*
X110369819Y-98022493D01*
X110369819Y-98022493D02*
X110322200Y-97927255D01*
X110322200Y-97927255D02*
X110226961Y-97879636D01*
X110226961Y-97879636D02*
X109846009Y-97879636D01*
X109846009Y-97879636D02*
X109750771Y-97927255D01*
X109750771Y-97927255D02*
X109703152Y-98022493D01*
X109703152Y-98022493D02*
X109703152Y-98212969D01*
X109703152Y-98212969D02*
X109750771Y-98308207D01*
X109750771Y-98308207D02*
X109846009Y-98355826D01*
X109846009Y-98355826D02*
X109941247Y-98355826D01*
X109941247Y-98355826D02*
X110036485Y-97879636D01*
X109703152Y-98784398D02*
X110369819Y-98784398D01*
X109798390Y-98784398D02*
X109750771Y-98832017D01*
X109750771Y-98832017D02*
X109703152Y-98927255D01*
X109703152Y-98927255D02*
X109703152Y-99070112D01*
X109703152Y-99070112D02*
X109750771Y-99165350D01*
X109750771Y-99165350D02*
X109846009Y-99212969D01*
X109846009Y-99212969D02*
X110369819Y-99212969D01*
X110322200Y-100117731D02*
X110369819Y-100022493D01*
X110369819Y-100022493D02*
X110369819Y-99832017D01*
X110369819Y-99832017D02*
X110322200Y-99736779D01*
X110322200Y-99736779D02*
X110274580Y-99689160D01*
X110274580Y-99689160D02*
X110179342Y-99641541D01*
X110179342Y-99641541D02*
X109893628Y-99641541D01*
X109893628Y-99641541D02*
X109798390Y-99689160D01*
X109798390Y-99689160D02*
X109750771Y-99736779D01*
X109750771Y-99736779D02*
X109703152Y-99832017D01*
X109703152Y-99832017D02*
X109703152Y-100022493D01*
X109703152Y-100022493D02*
X109750771Y-100117731D01*
X110322200Y-100927255D02*
X110369819Y-100832017D01*
X110369819Y-100832017D02*
X110369819Y-100641541D01*
X110369819Y-100641541D02*
X110322200Y-100546303D01*
X110322200Y-100546303D02*
X110226961Y-100498684D01*
X110226961Y-100498684D02*
X109846009Y-100498684D01*
X109846009Y-100498684D02*
X109750771Y-100546303D01*
X109750771Y-100546303D02*
X109703152Y-100641541D01*
X109703152Y-100641541D02*
X109703152Y-100832017D01*
X109703152Y-100832017D02*
X109750771Y-100927255D01*
X109750771Y-100927255D02*
X109846009Y-100974874D01*
X109846009Y-100974874D02*
X109941247Y-100974874D01*
X109941247Y-100974874D02*
X110036485Y-100498684D01*
X110274580Y-101403446D02*
X110322200Y-101451065D01*
X110322200Y-101451065D02*
X110369819Y-101403446D01*
X110369819Y-101403446D02*
X110322200Y-101355827D01*
X110322200Y-101355827D02*
X110274580Y-101403446D01*
X110274580Y-101403446D02*
X110369819Y-101403446D01*
X110322200Y-102308207D02*
X110369819Y-102212969D01*
X110369819Y-102212969D02*
X110369819Y-102022493D01*
X110369819Y-102022493D02*
X110322200Y-101927255D01*
X110322200Y-101927255D02*
X110274580Y-101879636D01*
X110274580Y-101879636D02*
X110179342Y-101832017D01*
X110179342Y-101832017D02*
X109893628Y-101832017D01*
X109893628Y-101832017D02*
X109798390Y-101879636D01*
X109798390Y-101879636D02*
X109750771Y-101927255D01*
X109750771Y-101927255D02*
X109703152Y-102022493D01*
X109703152Y-102022493D02*
X109703152Y-102212969D01*
X109703152Y-102212969D02*
X109750771Y-102308207D01*
X110369819Y-102879636D02*
X110322200Y-102784398D01*
X110322200Y-102784398D02*
X110274580Y-102736779D01*
X110274580Y-102736779D02*
X110179342Y-102689160D01*
X110179342Y-102689160D02*
X109893628Y-102689160D01*
X109893628Y-102689160D02*
X109798390Y-102736779D01*
X109798390Y-102736779D02*
X109750771Y-102784398D01*
X109750771Y-102784398D02*
X109703152Y-102879636D01*
X109703152Y-102879636D02*
X109703152Y-103022493D01*
X109703152Y-103022493D02*
X109750771Y-103117731D01*
X109750771Y-103117731D02*
X109798390Y-103165350D01*
X109798390Y-103165350D02*
X109893628Y-103212969D01*
X109893628Y-103212969D02*
X110179342Y-103212969D01*
X110179342Y-103212969D02*
X110274580Y-103165350D01*
X110274580Y-103165350D02*
X110322200Y-103117731D01*
X110322200Y-103117731D02*
X110369819Y-103022493D01*
X110369819Y-103022493D02*
X110369819Y-102879636D01*
X110369819Y-103641541D02*
X109703152Y-103641541D01*
X109798390Y-103641541D02*
X109750771Y-103689160D01*
X109750771Y-103689160D02*
X109703152Y-103784398D01*
X109703152Y-103784398D02*
X109703152Y-103927255D01*
X109703152Y-103927255D02*
X109750771Y-104022493D01*
X109750771Y-104022493D02*
X109846009Y-104070112D01*
X109846009Y-104070112D02*
X110369819Y-104070112D01*
X109846009Y-104070112D02*
X109750771Y-104117731D01*
X109750771Y-104117731D02*
X109703152Y-104212969D01*
X109703152Y-104212969D02*
X109703152Y-104355826D01*
X109703152Y-104355826D02*
X109750771Y-104451065D01*
X109750771Y-104451065D02*
X109846009Y-104498684D01*
X109846009Y-104498684D02*
X110369819Y-104498684D01*
D11*
X110834909Y-85211246D02*
X111192052Y-85211246D01*
X111192052Y-85211246D02*
X111263480Y-85187437D01*
X111263480Y-85187437D02*
X111311100Y-85139818D01*
X111311100Y-85139818D02*
X111334909Y-85068389D01*
X111334909Y-85068389D02*
X111334909Y-85020770D01*
X111334909Y-85687436D02*
X111334909Y-85449341D01*
X111334909Y-85449341D02*
X110834909Y-85449341D01*
X111287290Y-86139817D02*
X111311100Y-86116008D01*
X111311100Y-86116008D02*
X111334909Y-86044579D01*
X111334909Y-86044579D02*
X111334909Y-85996960D01*
X111334909Y-85996960D02*
X111311100Y-85925532D01*
X111311100Y-85925532D02*
X111263480Y-85877913D01*
X111263480Y-85877913D02*
X111215861Y-85854103D01*
X111215861Y-85854103D02*
X111120623Y-85830294D01*
X111120623Y-85830294D02*
X111049195Y-85830294D01*
X111049195Y-85830294D02*
X110953957Y-85854103D01*
X110953957Y-85854103D02*
X110906338Y-85877913D01*
X110906338Y-85877913D02*
X110858719Y-85925532D01*
X110858719Y-85925532D02*
X110834909Y-85996960D01*
X110834909Y-85996960D02*
X110834909Y-86044579D01*
X110834909Y-86044579D02*
X110858719Y-86116008D01*
X110858719Y-86116008D02*
X110882528Y-86139817D01*
X110834909Y-86496960D02*
X111192052Y-86496960D01*
X111192052Y-86496960D02*
X111263480Y-86473151D01*
X111263480Y-86473151D02*
X111311100Y-86425532D01*
X111311100Y-86425532D02*
X111334909Y-86354103D01*
X111334909Y-86354103D02*
X111334909Y-86306484D01*
X111334909Y-86973150D02*
X111334909Y-86735055D01*
X111334909Y-86735055D02*
X110834909Y-86735055D01*
X111287290Y-87425531D02*
X111311100Y-87401722D01*
X111311100Y-87401722D02*
X111334909Y-87330293D01*
X111334909Y-87330293D02*
X111334909Y-87282674D01*
X111334909Y-87282674D02*
X111311100Y-87211246D01*
X111311100Y-87211246D02*
X111263480Y-87163627D01*
X111263480Y-87163627D02*
X111215861Y-87139817D01*
X111215861Y-87139817D02*
X111120623Y-87116008D01*
X111120623Y-87116008D02*
X111049195Y-87116008D01*
X111049195Y-87116008D02*
X110953957Y-87139817D01*
X110953957Y-87139817D02*
X110906338Y-87163627D01*
X110906338Y-87163627D02*
X110858719Y-87211246D01*
X110858719Y-87211246D02*
X110834909Y-87282674D01*
X110834909Y-87282674D02*
X110834909Y-87330293D01*
X110834909Y-87330293D02*
X110858719Y-87401722D01*
X110858719Y-87401722D02*
X110882528Y-87425531D01*
X110834909Y-87782674D02*
X111192052Y-87782674D01*
X111192052Y-87782674D02*
X111263480Y-87758865D01*
X111263480Y-87758865D02*
X111311100Y-87711246D01*
X111311100Y-87711246D02*
X111334909Y-87639817D01*
X111334909Y-87639817D02*
X111334909Y-87592198D01*
X111334909Y-88258864D02*
X111334909Y-88020769D01*
X111334909Y-88020769D02*
X110834909Y-88020769D01*
X111287290Y-88711245D02*
X111311100Y-88687436D01*
X111311100Y-88687436D02*
X111334909Y-88616007D01*
X111334909Y-88616007D02*
X111334909Y-88568388D01*
X111334909Y-88568388D02*
X111311100Y-88496960D01*
X111311100Y-88496960D02*
X111263480Y-88449341D01*
X111263480Y-88449341D02*
X111215861Y-88425531D01*
X111215861Y-88425531D02*
X111120623Y-88401722D01*
X111120623Y-88401722D02*
X111049195Y-88401722D01*
X111049195Y-88401722D02*
X110953957Y-88425531D01*
X110953957Y-88425531D02*
X110906338Y-88449341D01*
X110906338Y-88449341D02*
X110858719Y-88496960D01*
X110858719Y-88496960D02*
X110834909Y-88568388D01*
X110834909Y-88568388D02*
X110834909Y-88616007D01*
X110834909Y-88616007D02*
X110858719Y-88687436D01*
X110858719Y-88687436D02*
X110882528Y-88711245D01*
X110834909Y-89068388D02*
X111192052Y-89068388D01*
X111192052Y-89068388D02*
X111263480Y-89044579D01*
X111263480Y-89044579D02*
X111311100Y-88996960D01*
X111311100Y-88996960D02*
X111334909Y-88925531D01*
X111334909Y-88925531D02*
X111334909Y-88877912D01*
X111334909Y-89544578D02*
X111334909Y-89306483D01*
X111334909Y-89306483D02*
X110834909Y-89306483D01*
X111287290Y-89996959D02*
X111311100Y-89973150D01*
X111311100Y-89973150D02*
X111334909Y-89901721D01*
X111334909Y-89901721D02*
X111334909Y-89854102D01*
X111334909Y-89854102D02*
X111311100Y-89782674D01*
X111311100Y-89782674D02*
X111263480Y-89735055D01*
X111263480Y-89735055D02*
X111215861Y-89711245D01*
X111215861Y-89711245D02*
X111120623Y-89687436D01*
X111120623Y-89687436D02*
X111049195Y-89687436D01*
X111049195Y-89687436D02*
X110953957Y-89711245D01*
X110953957Y-89711245D02*
X110906338Y-89735055D01*
X110906338Y-89735055D02*
X110858719Y-89782674D01*
X110858719Y-89782674D02*
X110834909Y-89854102D01*
X110834909Y-89854102D02*
X110834909Y-89901721D01*
X110834909Y-89901721D02*
X110858719Y-89973150D01*
X110858719Y-89973150D02*
X110882528Y-89996959D01*
%LPC*%
%LPD*%
M02*
