%TF.GenerationSoftware,KiCad,Pcbnew,8.0.2*%
%TF.CreationDate,2024-12-30T14:19:07+01:00*%
%TF.ProjectId,MasterOfAccessories,4d617374-6572-44f6-9641-63636573736f,rev?*%
%TF.SameCoordinates,Original*%
%TF.FileFunction,Copper,L1,Top*%
%TF.FilePolarity,Positive*%
%FSLAX46Y46*%
G04 Gerber Fmt 4.6, Leading zero omitted, Abs format (unit mm)*
G04 Created by KiCad (PCBNEW 8.0.2) date 2024-12-30 14:19:07*
%MOMM*%
%LPD*%
G01*
G04 APERTURE LIST*
G04 Aperture macros list*
%AMRoundRect*
0 Rectangle with rounded corners*
0 $1 Rounding radius*
0 $2 $3 $4 $5 $6 $7 $8 $9 X,Y pos of 4 corners*
0 Add a 4 corners polygon primitive as box body*
4,1,4,$2,$3,$4,$5,$6,$7,$8,$9,$2,$3,0*
0 Add four circle primitives for the rounded corners*
1,1,$1+$1,$2,$3*
1,1,$1+$1,$4,$5*
1,1,$1+$1,$6,$7*
1,1,$1+$1,$8,$9*
0 Add four rect primitives between the rounded corners*
20,1,$1+$1,$2,$3,$4,$5,0*
20,1,$1+$1,$4,$5,$6,$7,0*
20,1,$1+$1,$6,$7,$8,$9,0*
20,1,$1+$1,$8,$9,$2,$3,0*%
%AMRotRect*
0 Rectangle, with rotation*
0 The origin of the aperture is its center*
0 $1 length*
0 $2 width*
0 $3 Rotation angle, in degrees counterclockwise*
0 Add horizontal line*
21,1,$1,$2,0,0,$3*%
G04 Aperture macros list end*
%TA.AperFunction,SMDPad,CuDef*%
%ADD10R,1.100000X1.800000*%
%TD*%
%TA.AperFunction,SMDPad,CuDef*%
%ADD11RoundRect,0.237500X0.250000X0.237500X-0.250000X0.237500X-0.250000X-0.237500X0.250000X-0.237500X0*%
%TD*%
%TA.AperFunction,SMDPad,CuDef*%
%ADD12RoundRect,0.250000X0.325000X0.450000X-0.325000X0.450000X-0.325000X-0.450000X0.325000X-0.450000X0*%
%TD*%
%TA.AperFunction,SMDPad,CuDef*%
%ADD13RotRect,1.600000X0.550000X225.000000*%
%TD*%
%TA.AperFunction,SMDPad,CuDef*%
%ADD14RotRect,1.600000X0.550000X135.000000*%
%TD*%
%TA.AperFunction,SMDPad,CuDef*%
%ADD15RoundRect,0.300000X-0.300000X0.400000X-0.300000X-0.400000X0.300000X-0.400000X0.300000X0.400000X0*%
%TD*%
%TA.AperFunction,SMDPad,CuDef*%
%ADD16RoundRect,0.155000X-0.155000X0.212500X-0.155000X-0.212500X0.155000X-0.212500X0.155000X0.212500X0*%
%TD*%
%TA.AperFunction,SMDPad,CuDef*%
%ADD17RoundRect,0.237500X0.237500X-0.250000X0.237500X0.250000X-0.237500X0.250000X-0.237500X-0.250000X0*%
%TD*%
%TA.AperFunction,SMDPad,CuDef*%
%ADD18RoundRect,0.150000X0.825000X0.150000X-0.825000X0.150000X-0.825000X-0.150000X0.825000X-0.150000X0*%
%TD*%
%TA.AperFunction,SMDPad,CuDef*%
%ADD19RoundRect,0.140000X0.170000X-0.140000X0.170000X0.140000X-0.170000X0.140000X-0.170000X-0.140000X0*%
%TD*%
%TA.AperFunction,ComponentPad*%
%ADD20RoundRect,0.875000X-0.875000X0.875000X-0.875000X-0.875000X0.875000X-0.875000X0.875000X0.875000X0*%
%TD*%
%TA.AperFunction,ComponentPad*%
%ADD21RoundRect,0.750000X-1.000000X0.750000X-1.000000X-0.750000X1.000000X-0.750000X1.000000X0.750000X0*%
%TD*%
%TA.AperFunction,ComponentPad*%
%ADD22R,3.500000X3.500000*%
%TD*%
%TA.AperFunction,SMDPad,CuDef*%
%ADD23RoundRect,0.160000X-0.197500X-0.160000X0.197500X-0.160000X0.197500X0.160000X-0.197500X0.160000X0*%
%TD*%
%TA.AperFunction,SMDPad,CuDef*%
%ADD24RoundRect,0.237500X-0.250000X-0.237500X0.250000X-0.237500X0.250000X0.237500X-0.250000X0.237500X0*%
%TD*%
%TA.AperFunction,SMDPad,CuDef*%
%ADD25RoundRect,0.150000X0.150000X-0.825000X0.150000X0.825000X-0.150000X0.825000X-0.150000X-0.825000X0*%
%TD*%
%TA.AperFunction,SMDPad,CuDef*%
%ADD26RoundRect,0.162500X1.012500X0.162500X-1.012500X0.162500X-1.012500X-0.162500X1.012500X-0.162500X0*%
%TD*%
%TA.AperFunction,SMDPad,CuDef*%
%ADD27RoundRect,0.225000X-0.225000X-0.250000X0.225000X-0.250000X0.225000X0.250000X-0.225000X0.250000X0*%
%TD*%
%TA.AperFunction,SMDPad,CuDef*%
%ADD28RoundRect,0.250000X0.650000X-0.325000X0.650000X0.325000X-0.650000X0.325000X-0.650000X-0.325000X0*%
%TD*%
%TA.AperFunction,SMDPad,CuDef*%
%ADD29RoundRect,0.112500X0.112500X-0.187500X0.112500X0.187500X-0.112500X0.187500X-0.112500X-0.187500X0*%
%TD*%
%TA.AperFunction,SMDPad,CuDef*%
%ADD30RoundRect,0.237500X-0.237500X0.250000X-0.237500X-0.250000X0.237500X-0.250000X0.237500X0.250000X0*%
%TD*%
%TA.AperFunction,ComponentPad*%
%ADD31O,1.700000X1.700000*%
%TD*%
%TA.AperFunction,ComponentPad*%
%ADD32R,1.700000X1.700000*%
%TD*%
%TA.AperFunction,SMDPad,CuDef*%
%ADD33RoundRect,0.225000X0.250000X-0.225000X0.250000X0.225000X-0.250000X0.225000X-0.250000X-0.225000X0*%
%TD*%
%TA.AperFunction,SMDPad,CuDef*%
%ADD34R,2.000000X1.700000*%
%TD*%
%TA.AperFunction,SMDPad,CuDef*%
%ADD35R,0.500000X2.000000*%
%TD*%
%TA.AperFunction,SMDPad,CuDef*%
%ADD36RoundRect,0.140000X0.140000X0.170000X-0.140000X0.170000X-0.140000X-0.170000X0.140000X-0.170000X0*%
%TD*%
%TA.AperFunction,SMDPad,CuDef*%
%ADD37RoundRect,0.225000X-0.250000X0.225000X-0.250000X-0.225000X0.250000X-0.225000X0.250000X0.225000X0*%
%TD*%
%TA.AperFunction,SMDPad,CuDef*%
%ADD38RoundRect,0.140000X-0.170000X0.140000X-0.170000X-0.140000X0.170000X-0.140000X0.170000X0.140000X0*%
%TD*%
%TA.AperFunction,SMDPad,CuDef*%
%ADD39RoundRect,0.375000X0.375000X-0.625000X0.375000X0.625000X-0.375000X0.625000X-0.375000X-0.625000X0*%
%TD*%
%TA.AperFunction,SMDPad,CuDef*%
%ADD40RoundRect,0.500000X1.400000X-0.500000X1.400000X0.500000X-1.400000X0.500000X-1.400000X-0.500000X0*%
%TD*%
%TA.AperFunction,SMDPad,CuDef*%
%ADD41RoundRect,0.225000X0.225000X0.250000X-0.225000X0.250000X-0.225000X-0.250000X0.225000X-0.250000X0*%
%TD*%
%TA.AperFunction,SMDPad,CuDef*%
%ADD42RoundRect,0.250000X0.350000X0.450000X-0.350000X0.450000X-0.350000X-0.450000X0.350000X-0.450000X0*%
%TD*%
%TA.AperFunction,SMDPad,CuDef*%
%ADD43RoundRect,0.200000X-0.275000X0.200000X-0.275000X-0.200000X0.275000X-0.200000X0.275000X0.200000X0*%
%TD*%
%TA.AperFunction,SMDPad,CuDef*%
%ADD44RoundRect,0.300000X-0.400000X-0.300000X0.400000X-0.300000X0.400000X0.300000X-0.400000X0.300000X0*%
%TD*%
%TA.AperFunction,SMDPad,CuDef*%
%ADD45RoundRect,0.140000X-0.021213X0.219203X-0.219203X0.021213X0.021213X-0.219203X0.219203X-0.021213X0*%
%TD*%
%TA.AperFunction,SMDPad,CuDef*%
%ADD46RoundRect,0.250000X0.650000X-0.350000X0.650000X0.350000X-0.650000X0.350000X-0.650000X-0.350000X0*%
%TD*%
%TA.AperFunction,SMDPad,CuDef*%
%ADD47RoundRect,0.150000X0.625000X-0.150000X0.625000X0.150000X-0.625000X0.150000X-0.625000X-0.150000X0*%
%TD*%
%TA.AperFunction,SMDPad,CuDef*%
%ADD48RoundRect,0.200000X0.275000X-0.200000X0.275000X0.200000X-0.275000X0.200000X-0.275000X-0.200000X0*%
%TD*%
%TA.AperFunction,ComponentPad*%
%ADD49RoundRect,0.250000X0.650000X1.550000X-0.650000X1.550000X-0.650000X-1.550000X0.650000X-1.550000X0*%
%TD*%
%TA.AperFunction,ComponentPad*%
%ADD50O,1.800000X3.600000*%
%TD*%
%TA.AperFunction,SMDPad,CuDef*%
%ADD51R,3.400000X5.000000*%
%TD*%
%TA.AperFunction,SMDPad,CuDef*%
%ADD52R,1.050000X0.450000*%
%TD*%
%TA.AperFunction,ComponentPad*%
%ADD53RoundRect,0.250000X1.550000X-0.650000X1.550000X0.650000X-1.550000X0.650000X-1.550000X-0.650000X0*%
%TD*%
%TA.AperFunction,ComponentPad*%
%ADD54O,3.600000X1.800000*%
%TD*%
%TA.AperFunction,ViaPad*%
%ADD55C,0.500000*%
%TD*%
%TA.AperFunction,Conductor*%
%ADD56C,0.250000*%
%TD*%
%TA.AperFunction,Conductor*%
%ADD57C,0.200000*%
%TD*%
%TA.AperFunction,Conductor*%
%ADD58C,0.450000*%
%TD*%
%TA.AperFunction,Conductor*%
%ADD59C,0.300000*%
%TD*%
%TA.AperFunction,Conductor*%
%ADD60C,1.000000*%
%TD*%
%TA.AperFunction,Conductor*%
%ADD61C,0.600000*%
%TD*%
%TA.AperFunction,Conductor*%
%ADD62C,0.400000*%
%TD*%
G04 APERTURE END LIST*
D10*
%TO.P,SW1001,1,A*%
%TO.N,GND*%
X230941000Y-115114000D03*
X230941000Y-108914000D03*
%TO.P,SW1001,2,B*%
%TO.N,/MCU/Switch*%
X234641000Y-115114000D03*
X234641000Y-108914000D03*
%TD*%
D11*
%TO.P,R1001,1*%
%TO.N,Net-(D1001-K)*%
X238285500Y-112841000D03*
%TO.P,R1001,2*%
%TO.N,GND*%
X236460500Y-112841000D03*
%TD*%
D12*
%TO.P,D1001,1,K*%
%TO.N,Net-(D1001-K)*%
X238525000Y-115000000D03*
%TO.P,D1001,2,A*%
%TO.N,/MCU/LED*%
X236475000Y-115000000D03*
%TD*%
D13*
%TO.P,U201,32,PD2*%
%TO.N,/DCC/DCC*%
X217351106Y-113985103D03*
%TO.P,U201,31,PD1*%
%TO.N,/MCU/S_Tx*%
X216785421Y-113419417D03*
%TO.P,U201,30,PD0*%
%TO.N,/MCU/S_Rx*%
X216219735Y-112853732D03*
%TO.P,U201,29,~{RESET}/PC6*%
%TO.N,/MCU/reset*%
X215654050Y-112288047D03*
%TO.P,U201,28,PC5*%
%TO.N,/EEPROM/SCL*%
X215088364Y-111722361D03*
%TO.P,U201,27,PC4*%
%TO.N,/EEPROM/SDA*%
X214522679Y-111156676D03*
%TO.P,U201,26,PC3*%
%TO.N,/Hbridge/IN.CS*%
X213956994Y-110590990D03*
%TO.P,U201,25,PC2*%
%TO.N,unconnected-(U201-PC2-Pad25)*%
X213391308Y-110025305D03*
D14*
%TO.P,U201,24,PC1*%
%TO.N,/MCU/Switch*%
X213391308Y-107974695D03*
%TO.P,U201,23,PC0*%
%TO.N,/MCU/LED*%
X213956994Y-107409010D03*
%TO.P,U201,22,ADC7*%
%TO.N,/MCU/POT*%
X214522679Y-106843324D03*
%TO.P,U201,21,GND*%
%TO.N,GND*%
X215088364Y-106277639D03*
%TO.P,U201,20,AREF*%
%TO.N,unconnected-(U201-AREF-Pad20)*%
X215654050Y-105711953D03*
%TO.P,U201,19,ADC6*%
%TO.N,/MCU/BUTTONS*%
X216219735Y-105146268D03*
%TO.P,U201,18,AVCC*%
%TO.N,+5V*%
X216785421Y-104580583D03*
%TO.P,U201,17,PB5*%
%TO.N,/MCU/SCK*%
X217351106Y-104014897D03*
D13*
%TO.P,U201,16,PB4*%
%TO.N,/MCU/MISO*%
X219401716Y-104014897D03*
%TO.P,U201,15,PB3*%
%TO.N,/MCU/MOSI*%
X219967401Y-104580583D03*
%TO.P,U201,14,PB2*%
%TO.N,unconnected-(U201-PB2-Pad14)*%
X220533087Y-105146268D03*
%TO.P,U201,13,PB1*%
%TO.N,/Hbridge/IN.B*%
X221098772Y-105711953D03*
%TO.P,U201,12,PB0*%
%TO.N,/Hbridge/IN.A*%
X221664458Y-106277639D03*
%TO.P,U201,11,PD7*%
%TO.N,/MCU/latch*%
X222230143Y-106843324D03*
%TO.P,U201,10,PD6*%
%TO.N,/MCU/clock*%
X222795828Y-107409010D03*
%TO.P,U201,9,PD5*%
%TO.N,unconnected-(U201-PD5-Pad9)*%
X223361514Y-107974695D03*
D14*
%TO.P,U201,8,XTAL2/PB7*%
%TO.N,/MCU/X2*%
X223361514Y-110025305D03*
%TO.P,U201,7,XTAL1/PB6*%
%TO.N,/MCU/X1*%
X222795828Y-110590990D03*
%TO.P,U201,6,VCC*%
%TO.N,+5V*%
X222230143Y-111156676D03*
%TO.P,U201,5,GND*%
%TO.N,GND*%
X221664458Y-111722361D03*
%TO.P,U201,4,VCC*%
%TO.N,+5V*%
X221098772Y-112288047D03*
%TO.P,U201,3,GND*%
%TO.N,GND*%
X220533087Y-112853732D03*
%TO.P,U201,2,PD4*%
%TO.N,/MCU/dataIn*%
X219967401Y-113419417D03*
%TO.P,U201,1,PD3*%
%TO.N,/MCU/dataOut*%
X219401716Y-113985103D03*
%TD*%
D15*
%TO.P,Y501,1,1*%
%TO.N,Net-(U501-XI)*%
X193865000Y-105775000D03*
%TO.P,Y501,2,GND*%
%TO.N,GND*%
X193865000Y-107975000D03*
%TO.P,Y501,3,3*%
%TO.N,Net-(U501-XO)*%
X195765000Y-107975000D03*
%TO.P,Y501,4,GND*%
%TO.N,GND*%
X195765000Y-105775000D03*
%TD*%
D16*
%TO.P,C405,1*%
%TO.N,+12V*%
X198882000Y-99127500D03*
%TO.P,C405,2*%
%TO.N,GND*%
X198882000Y-100262500D03*
%TD*%
D17*
%TO.P,R404,1*%
%TO.N,+5V*%
X216610000Y-99448000D03*
%TO.P,R404,2*%
%TO.N,Net-(U401-nFault)*%
X216610000Y-97623000D03*
%TD*%
D18*
%TO.P,U801,1,A0*%
%TO.N,GND*%
X194071000Y-114693000D03*
%TO.P,U801,2,A1*%
X194071000Y-113423000D03*
%TO.P,U801,3,A2*%
X194071000Y-112153000D03*
%TO.P,U801,4,GND*%
X194071000Y-110883000D03*
%TO.P,U801,5,SDA*%
%TO.N,/EEPROM/SDA*%
X189121000Y-110883000D03*
%TO.P,U801,6,SCL*%
%TO.N,/EEPROM/SCL*%
X189121000Y-112153000D03*
%TO.P,U801,7,WP*%
%TO.N,GND*%
X189121000Y-113423000D03*
%TO.P,U801,8,VCC*%
%TO.N,+5V*%
X189121000Y-114693000D03*
%TD*%
D19*
%TO.P,C505,1*%
%TO.N,GND*%
X190844000Y-106897000D03*
%TO.P,C505,2*%
%TO.N,Net-(U501-V3)*%
X190844000Y-105937000D03*
%TD*%
D20*
%TO.P,J301,3*%
%TO.N,N/C*%
X221300000Y-96472000D03*
D21*
%TO.P,J301,2*%
%TO.N,GND*%
X226000000Y-93472000D03*
D22*
%TO.P,J301,1*%
%TO.N,+12V*%
X226000000Y-99472000D03*
%TD*%
D23*
%TO.P,R201,1*%
%TO.N,+5V*%
X241066500Y-93472000D03*
%TO.P,R201,2*%
%TO.N,/MCU/reset*%
X242261500Y-93472000D03*
%TD*%
D24*
%TO.P,R701,1*%
%TO.N,+5V*%
X225274500Y-104263000D03*
%TO.P,R701,2*%
%TO.N,/MCU/BUTTONS*%
X227099500Y-104263000D03*
%TD*%
D25*
%TO.P,U501,1,GND*%
%TO.N,GND*%
X188555000Y-103475000D03*
%TO.P,U501,2,TXD*%
%TO.N,Net-(U501-TXD)*%
X189825000Y-103475000D03*
%TO.P,U501,3,RXD*%
%TO.N,Net-(U501-RXD)*%
X191095000Y-103475000D03*
%TO.P,U501,4,V3*%
%TO.N,Net-(U501-V3)*%
X192365000Y-103475000D03*
%TO.P,U501,5,UD+*%
%TO.N,Net-(J501-D+)*%
X193635000Y-103475000D03*
%TO.P,U501,6,UD-*%
%TO.N,Net-(J501-D-)*%
X194905000Y-103475000D03*
%TO.P,U501,7,XI*%
%TO.N,Net-(U501-XI)*%
X196175000Y-103475000D03*
%TO.P,U501,8,XO*%
%TO.N,Net-(U501-XO)*%
X197445000Y-103475000D03*
%TO.P,U501,9,~{CTS}*%
%TO.N,unconnected-(U501-~{CTS}-Pad9)*%
X197445000Y-98525000D03*
%TO.P,U501,10,~{DSR}*%
%TO.N,unconnected-(U501-~{DSR}-Pad10)*%
X196175000Y-98525000D03*
%TO.P,U501,11,~{RI}*%
%TO.N,unconnected-(U501-~{RI}-Pad11)*%
X194905000Y-98525000D03*
%TO.P,U501,12,~{DCD}*%
%TO.N,unconnected-(U501-~{DCD}-Pad12)*%
X193635000Y-98525000D03*
%TO.P,U501,13,~{DTR}*%
%TO.N,Net-(U501-~{DTR})*%
X192365000Y-98525000D03*
%TO.P,U501,14,~{RTS}*%
%TO.N,unconnected-(U501-~{RTS}-Pad14)*%
X191095000Y-98525000D03*
%TO.P,U501,15,R232*%
%TO.N,unconnected-(U501-R232-Pad15)*%
X189825000Y-98525000D03*
%TO.P,U501,16,VCC*%
%TO.N,+5V*%
X188555000Y-98525000D03*
%TD*%
D26*
%TO.P,U901,8,VCC*%
%TO.N,+5V*%
X241975000Y-104310000D03*
%TO.P,U901,7,EN*%
%TO.N,Net-(U901-EN)*%
X241975000Y-101770000D03*
%TO.P,U901,6,VO*%
%TO.N,/DCC/DCC*%
X241975000Y-99230000D03*
%TO.P,U901,5,GND*%
%TO.N,GND*%
X241975000Y-96690000D03*
%TO.P,U901,4*%
%TO.N,N/C*%
X251025000Y-96690000D03*
%TO.P,U901,3,C*%
%TO.N,Net-(D901-A)*%
X251025000Y-99230000D03*
%TO.P,U901,2,A*%
%TO.N,Net-(D901-K)*%
X251025000Y-101770000D03*
%TO.P,U901,1,NC*%
%TO.N,unconnected-(U901-NC-Pad1)*%
X251025000Y-104310000D03*
%TD*%
D27*
%TO.P,C401,1*%
%TO.N,+5V*%
X210172000Y-102485000D03*
%TO.P,C401,2*%
%TO.N,GND*%
X211722000Y-102485000D03*
%TD*%
D28*
%TO.P,C301,1*%
%TO.N,+12V*%
X209500000Y-114225000D03*
%TO.P,C301,2*%
%TO.N,GND*%
X209500000Y-111275000D03*
%TD*%
D29*
%TO.P,D901,1,K*%
%TO.N,Net-(D901-K)*%
X253500000Y-100550000D03*
%TO.P,D901,2,A*%
%TO.N,Net-(D901-A)*%
X253500000Y-98450000D03*
%TD*%
D30*
%TO.P,R403,1*%
%TO.N,Net-(R401-Pad1)*%
X214610000Y-97623000D03*
%TO.P,R403,2*%
%TO.N,GND*%
X214610000Y-99448000D03*
%TD*%
D16*
%TO.P,C404,1*%
%TO.N,Net-(U401-CPH)*%
X201295000Y-100520500D03*
%TO.P,C404,2*%
%TO.N,Net-(U401-CPL)*%
X201295000Y-101655500D03*
%TD*%
D31*
%TO.P,J601,6,Pin_6*%
%TO.N,+5V*%
X182598000Y-107500000D03*
%TO.P,J601,5,Pin_5*%
%TO.N,/MCU/dataOut*%
X182598000Y-104960000D03*
%TO.P,J601,4,Pin_4*%
%TO.N,/MCU/dataIn*%
X182598000Y-102420000D03*
%TO.P,J601,3,Pin_3*%
%TO.N,/MCU/clock*%
X182598000Y-99880000D03*
%TO.P,J601,2,Pin_2*%
%TO.N,/MCU/latch*%
X182598000Y-97340000D03*
D32*
%TO.P,J601,1,Pin_1*%
%TO.N,GND*%
X182598000Y-94800000D03*
%TD*%
D33*
%TO.P,C504,1*%
%TO.N,Net-(U501-XO)*%
X197448000Y-107827000D03*
%TO.P,C504,2*%
%TO.N,GND*%
X197448000Y-106277000D03*
%TD*%
%TO.P,C501,1*%
%TO.N,+5V*%
X186904000Y-99427000D03*
%TO.P,C501,2*%
%TO.N,GND*%
X186904000Y-97877000D03*
%TD*%
D34*
%TO.P,J501,6,Shield*%
%TO.N,GND*%
X186350000Y-89225000D03*
X186350000Y-94675000D03*
X195250000Y-89225000D03*
X195250000Y-94675000D03*
D35*
%TO.P,J501,5,GND*%
X189200000Y-94775000D03*
%TO.P,J501,4,ID*%
%TO.N,unconnected-(J501-ID-Pad4)*%
X190000000Y-94775000D03*
%TO.P,J501,3,D+*%
%TO.N,Net-(J501-D+)*%
X190800000Y-94775000D03*
%TO.P,J501,2,D-*%
%TO.N,Net-(J501-D-)*%
X191600000Y-94775000D03*
%TO.P,J501,1,VBUS*%
%TO.N,+5V*%
X192400000Y-94775000D03*
%TD*%
D36*
%TO.P,C402,1*%
%TO.N,+12V*%
X199960000Y-97995000D03*
%TO.P,C402,2*%
%TO.N,Net-(U401-VCP)*%
X199000000Y-97995000D03*
%TD*%
D37*
%TO.P,C502,1*%
%TO.N,+5V*%
X186904000Y-100925000D03*
%TO.P,C502,2*%
%TO.N,GND*%
X186904000Y-102475000D03*
%TD*%
D38*
%TO.P,C702,1*%
%TO.N,+5V*%
X222123000Y-101751000D03*
%TO.P,C702,2*%
%TO.N,/MCU/BUTTONS*%
X222123000Y-102711000D03*
%TD*%
D37*
%TO.P,C503,1*%
%TO.N,Net-(U501-XI)*%
X192275000Y-106354000D03*
%TO.P,C503,2*%
%TO.N,GND*%
X192275000Y-107904000D03*
%TD*%
D39*
%TO.P,U301,1,GND*%
%TO.N,GND*%
X202120000Y-113868000D03*
%TO.P,U301,2,VO*%
%TO.N,+5V*%
X204420000Y-113868000D03*
D40*
X204420000Y-107568000D03*
D39*
%TO.P,U301,3,VI*%
%TO.N,+12V*%
X206720000Y-113868000D03*
%TD*%
D30*
%TO.P,R401,1*%
%TO.N,Net-(R401-Pad1)*%
X210796000Y-97675000D03*
%TO.P,R401,2*%
%TO.N,GND*%
X210796000Y-99500000D03*
%TD*%
D33*
%TO.P,C203,1*%
%TO.N,GND*%
X228927411Y-113245000D03*
%TO.P,C203,2*%
%TO.N,/MCU/X2*%
X228927411Y-111695000D03*
%TD*%
D37*
%TO.P,C801,1*%
%TO.N,GND*%
X186944000Y-113267000D03*
%TO.P,C801,2*%
%TO.N,+5V*%
X186944000Y-114817000D03*
%TD*%
D32*
%TO.P,J201,1,Pin_1*%
%TO.N,GND*%
X255761000Y-100838000D03*
D31*
%TO.P,J201,2,Pin_2*%
%TO.N,+5V*%
X255761000Y-98298000D03*
%TO.P,J201,3,Pin_3*%
%TO.N,/MCU/SCK*%
X255761000Y-95758000D03*
%TO.P,J201,4,Pin_4*%
%TO.N,/MCU/MISO*%
X255761000Y-93218000D03*
%TO.P,J201,5,Pin_5*%
%TO.N,/MCU/MOSI*%
X255761000Y-90678000D03*
%TO.P,J201,6,Pin_6*%
%TO.N,/MCU/reset*%
X255761000Y-88138000D03*
%TD*%
D41*
%TO.P,C201,1*%
%TO.N,GND*%
X226781411Y-115232000D03*
%TO.P,C201,2*%
%TO.N,/MCU/X1*%
X225231411Y-115232000D03*
%TD*%
D37*
%TO.P,C302,1*%
%TO.N,+5V*%
X199848000Y-112864000D03*
%TO.P,C302,2*%
%TO.N,GND*%
X199848000Y-114414000D03*
%TD*%
D42*
%TO.P,R903,1*%
%TO.N,+5V*%
X233029000Y-105283000D03*
%TO.P,R903,2*%
%TO.N,/DCC/DCC*%
X231029000Y-105283000D03*
%TD*%
D28*
%TO.P,C403,1*%
%TO.N,+12V*%
X199000000Y-95725000D03*
%TO.P,C403,2*%
%TO.N,GND*%
X199000000Y-92775000D03*
%TD*%
D43*
%TO.P,R501,1*%
%TO.N,Net-(U501-TXD)*%
X186145000Y-106240000D03*
%TO.P,R501,2*%
%TO.N,/MCU/S_Rx*%
X186145000Y-107890000D03*
%TD*%
D44*
%TO.P,Y201,1,1*%
%TO.N,/MCU/X1*%
X224949411Y-113481000D03*
%TO.P,Y201,2,GND*%
%TO.N,GND*%
X227149411Y-113481000D03*
%TO.P,Y201,3,3*%
%TO.N,/MCU/X2*%
X227149411Y-111581000D03*
%TO.P,Y201,4,GND*%
%TO.N,GND*%
X224949411Y-111581000D03*
%TD*%
D45*
%TO.P,C202,1*%
%TO.N,+5V*%
X223339411Y-112470000D03*
%TO.P,C202,2*%
%TO.N,GND*%
X222660589Y-113148822D03*
%TD*%
D17*
%TO.P,R402,1*%
%TO.N,/Hbridge/IN.CS*%
X212610000Y-99500000D03*
%TO.P,R402,2*%
%TO.N,Net-(R401-Pad1)*%
X212610000Y-97675000D03*
%TD*%
%TO.P,R901,1*%
%TO.N,Net-(J901-Pin_2)*%
X253348000Y-104036500D03*
%TO.P,R901,2*%
%TO.N,Net-(D901-K)*%
X253348000Y-102211500D03*
%TD*%
D46*
%TO.P,J701,MP*%
%TO.N,N/C*%
X252375000Y-87700000D03*
X252375000Y-93300000D03*
D47*
%TO.P,J701,4,Pin_4*%
%TO.N,+5V*%
X248500000Y-89000000D03*
%TO.P,J701,3,Pin_3*%
%TO.N,/MCU/BUTTONS*%
X248500000Y-90000000D03*
%TO.P,J701,2,Pin_2*%
%TO.N,/MCU/POT*%
X248500000Y-91000000D03*
%TO.P,J701,1,Pin_1*%
%TO.N,GND*%
X248500000Y-92000000D03*
%TD*%
D38*
%TO.P,C701,1*%
%TO.N,+5V*%
X220980000Y-101751000D03*
%TO.P,C701,2*%
%TO.N,/MCU/POT*%
X220980000Y-102711000D03*
%TD*%
D37*
%TO.P,C506,1*%
%TO.N,Net-(U501-~{DTR})*%
X189320000Y-106277000D03*
%TO.P,C506,2*%
%TO.N,/MCU/reset*%
X189320000Y-107827000D03*
%TD*%
D42*
%TO.P,R902,1*%
%TO.N,+5V*%
X245521000Y-106934000D03*
%TO.P,R902,2*%
%TO.N,Net-(U901-EN)*%
X243521000Y-106934000D03*
%TD*%
D48*
%TO.P,R502,1*%
%TO.N,/MCU/S_Tx*%
X187669000Y-107890000D03*
%TO.P,R502,2*%
%TO.N,Net-(U501-RXD)*%
X187669000Y-106240000D03*
%TD*%
D49*
%TO.P,J401,1,Pin_1*%
%TO.N,+12V*%
X214195000Y-93932500D03*
D50*
%TO.P,J401,2,Pin_2*%
%TO.N,GND*%
X210695000Y-93932500D03*
%TO.P,J401,3,Pin_3*%
%TO.N,/Hbridge/OUT.A*%
X207195000Y-93932500D03*
%TO.P,J401,4,Pin_4*%
%TO.N,/Hbridge/OUT.B*%
X203695000Y-93932500D03*
%TD*%
D51*
%TO.P,U401,17,GND*%
%TO.N,GND*%
X205662600Y-99875000D03*
D52*
%TO.P,U401,16,Pmode*%
%TO.N,+5V*%
X202887600Y-102150000D03*
%TO.P,U401,15,GND*%
%TO.N,GND*%
X202887600Y-101500000D03*
%TO.P,U401,14,CPL*%
%TO.N,Net-(U401-CPL)*%
X202887600Y-100850000D03*
%TO.P,U401,13,CPH*%
%TO.N,Net-(U401-CPH)*%
X202887600Y-100200000D03*
%TO.P,U401,12,VCP*%
%TO.N,Net-(U401-VCP)*%
X202887600Y-99550000D03*
%TO.P,U401,11,VM*%
%TO.N,+12V*%
X202887600Y-98900000D03*
%TO.P,U401,10,OUT2*%
%TO.N,/Hbridge/OUT.B*%
X202887600Y-98250000D03*
%TO.P,U401,9,PGND*%
%TO.N,GND*%
X202887600Y-97600000D03*
%TO.P,U401,8,OUT1*%
%TO.N,/Hbridge/OUT.A*%
X208437600Y-97600000D03*
%TO.P,U401,7,Imode*%
%TO.N,GND*%
X208437600Y-98250000D03*
%TO.P,U401,6,Ipropi*%
%TO.N,/Hbridge/IN.CS*%
X208437600Y-98900000D03*
%TO.P,U401,5,Vref*%
%TO.N,+5V*%
X208437600Y-99550000D03*
%TO.P,U401,4,nFault*%
%TO.N,Net-(U401-nFault)*%
X208437600Y-100200000D03*
%TO.P,U401,3,nSleep*%
%TO.N,+5V*%
X208437600Y-100850000D03*
%TO.P,U401,2,IN2*%
%TO.N,/Hbridge/IN.B*%
X208437600Y-101500000D03*
%TO.P,U401,1,IN1*%
%TO.N,/Hbridge/IN.A*%
X208437600Y-102150000D03*
%TD*%
D53*
%TO.P,J901,1,Pin_1*%
%TO.N,Net-(D901-A)*%
X249500000Y-113500000D03*
D54*
%TO.P,J901,2,Pin_2*%
%TO.N,Net-(J901-Pin_2)*%
X249500000Y-110000000D03*
%TD*%
D55*
%TO.N,GND*%
X237490000Y-113919000D03*
X238125000Y-105410000D03*
X241554000Y-105537000D03*
X234823000Y-105791000D03*
X231140000Y-107188000D03*
X247142000Y-115697000D03*
X227203000Y-110236000D03*
X236601000Y-111506000D03*
X235204000Y-112268000D03*
X233934000Y-112014000D03*
X230759000Y-110490000D03*
X230886000Y-113157000D03*
%TO.N,/MCU/LED*%
X235712000Y-114046000D03*
X223774000Y-115443000D03*
X221622909Y-114673091D03*
X216773182Y-110347182D03*
%TO.N,/MCU/Switch*%
X234641000Y-113792000D03*
X222504000Y-115457000D03*
X220726000Y-114554000D03*
X216188127Y-110932237D03*
%TO.N,GND*%
X197231000Y-89154000D03*
X197104000Y-92583000D03*
X241918000Y-95631000D03*
X251189000Y-107569000D03*
X197358000Y-105156000D03*
X246617000Y-86868000D03*
X214503000Y-100711000D03*
X201422000Y-89408000D03*
X204343000Y-88011000D03*
X203454000Y-112395000D03*
X207264000Y-110744000D03*
X184023000Y-106172000D03*
X206883000Y-98171000D03*
X212471000Y-96393000D03*
X250808000Y-95631000D03*
X248395000Y-108077000D03*
X199009000Y-91186000D03*
X193421000Y-94615000D03*
X207772000Y-89789000D03*
X244712000Y-91694000D03*
X195707000Y-114808000D03*
X248776000Y-96393000D03*
X211709000Y-103505000D03*
X252205000Y-111760000D03*
X200025000Y-111633000D03*
X190881000Y-107823000D03*
X192278000Y-115062000D03*
X218313000Y-95631000D03*
X227584000Y-108966000D03*
X226060000Y-90805000D03*
X214249000Y-91313000D03*
X226060000Y-96012000D03*
X185293000Y-103632000D03*
X187579000Y-103632000D03*
X221869000Y-113792000D03*
X178943000Y-86614000D03*
X256142000Y-102743000D03*
X249157000Y-103378000D03*
X206883000Y-101854000D03*
X250554000Y-105410000D03*
X223393000Y-113919000D03*
X202057000Y-112141000D03*
X195834000Y-113411000D03*
X252205000Y-102870000D03*
X173990000Y-105283000D03*
X193167000Y-108839000D03*
X247506000Y-93091000D03*
X209423000Y-112395000D03*
X190500000Y-96901000D03*
X198501000Y-114935000D03*
X183896000Y-101219000D03*
X220599000Y-110744000D03*
X240665000Y-109728000D03*
X190881000Y-113411000D03*
X192659000Y-112141000D03*
X210693000Y-96520000D03*
X224536000Y-109728000D03*
X228854000Y-87376000D03*
X212471000Y-93980000D03*
X215265000Y-96393000D03*
X256142000Y-115570000D03*
X179197000Y-92710000D03*
X181483000Y-109855000D03*
X226060000Y-112522000D03*
X213233000Y-104013000D03*
X228981000Y-114554000D03*
X199898000Y-100457000D03*
X186309000Y-90805000D03*
X173736000Y-91821000D03*
X197358000Y-96901000D03*
X211074000Y-101727000D03*
X192659000Y-110871000D03*
X204343000Y-98171000D03*
X184023000Y-96520000D03*
X181610000Y-98552000D03*
X219456000Y-111887000D03*
X224028000Y-114554000D03*
X185674000Y-113284000D03*
X195199000Y-91059000D03*
X207772000Y-111379000D03*
X243950000Y-96647000D03*
X186817000Y-96520000D03*
X214122000Y-104902000D03*
X223520000Y-98298000D03*
X220218000Y-115316000D03*
X204343000Y-101854000D03*
X206883000Y-99187000D03*
X184531000Y-94742000D03*
X192532000Y-113411000D03*
X204343000Y-100076000D03*
X189230000Y-96520000D03*
X204343000Y-99187000D03*
X178816000Y-99822000D03*
X206883000Y-100076000D03*
X216027000Y-93218000D03*
X184023000Y-110998000D03*
X173228000Y-115443000D03*
X186309000Y-92964000D03*
X182499000Y-92964000D03*
X210820000Y-100457000D03*
X243315000Y-92583000D03*
X193040000Y-89281000D03*
X204343000Y-100965000D03*
X186944000Y-112141000D03*
X198755000Y-87122000D03*
X225806000Y-108077000D03*
X216154000Y-107061000D03*
X198755000Y-94234000D03*
X248522000Y-93091000D03*
X228727000Y-110490000D03*
X185674000Y-97917000D03*
X197231000Y-94742000D03*
X188468000Y-89281000D03*
X184404000Y-89281000D03*
X194818000Y-106934000D03*
X228092000Y-114935000D03*
X195707000Y-96520000D03*
X223139000Y-93345000D03*
X221869000Y-88138000D03*
X211328000Y-88138000D03*
X183388000Y-86995000D03*
X206883000Y-100965000D03*
X228981000Y-93345000D03*
X245601000Y-108458000D03*
X215646000Y-99441000D03*
X202819000Y-111633000D03*
X215646000Y-102616000D03*
X212979000Y-101473000D03*
X256396000Y-107823000D03*
X183769000Y-115697000D03*
X186690000Y-103759000D03*
X173609000Y-96012000D03*
X214503000Y-103759000D03*
X195199000Y-92837000D03*
%TO.N,+5V*%
X209669091Y-100875000D03*
X218769454Y-107263453D03*
X247950000Y-106045000D03*
X201803000Y-107692000D03*
X210172000Y-103555000D03*
X207163653Y-105537000D03*
X209677000Y-99775000D03*
X225933000Y-103505000D03*
X252672379Y-96098379D03*
X221996000Y-109474000D03*
X224028000Y-108839000D03*
X225933000Y-106934000D03*
X201930000Y-111018000D03*
X202887600Y-102616000D03*
X203580293Y-105029707D03*
X246800000Y-106553000D03*
X253896093Y-97703093D03*
X220916500Y-109156500D03*
%TO.N,+12V*%
X200865000Y-98900000D03*
X202057000Y-98900000D03*
%TO.N,/MCU/reset*%
X224028000Y-106807000D03*
X231068127Y-99496127D03*
X222124760Y-108645770D03*
X230241978Y-96362478D03*
%TO.N,/MCU/S_Tx*%
X187977409Y-108944591D03*
X187009091Y-109531909D03*
%TO.N,/MCU/MISO*%
X219770000Y-101711000D03*
X220324046Y-103261000D03*
%TO.N,Net-(U501-~{DTR})*%
X191765000Y-102235000D03*
X192365000Y-99822000D03*
%TO.N,Net-(J501-D-)*%
X194564000Y-102235000D03*
X194235000Y-99822000D03*
%TO.N,Net-(J501-D+)*%
X193421000Y-102235000D03*
X193259138Y-99909028D03*
%TO.N,/DCC/DCC*%
X229235000Y-108484000D03*
X229362000Y-107384000D03*
%TO.N,/Hbridge/OUT.A*%
X208915000Y-92325000D03*
X208915000Y-93976000D03*
X208788000Y-95881000D03*
X206502000Y-96516000D03*
X208437600Y-96897000D03*
%TO.N,/Hbridge/OUT.B*%
X204470000Y-96516000D03*
X201803000Y-94103000D03*
X201803000Y-96770000D03*
X201676000Y-98167000D03*
X202946000Y-96516000D03*
X201803000Y-92198000D03*
%TO.N,/MCU/clock*%
X188341000Y-100838000D03*
X211547248Y-106714752D03*
X217297000Y-109601000D03*
X185039000Y-100838000D03*
%TO.N,/MCU/latch*%
X216042670Y-109218999D03*
X187833000Y-100203000D03*
X212469381Y-106859937D03*
X185547000Y-100203000D03*
%TO.N,/Hbridge/IN.CS*%
X211963000Y-100250111D03*
X211963000Y-101350111D03*
X212221095Y-104135905D03*
X212923409Y-111430591D03*
X209873219Y-106737781D03*
X212467049Y-109924258D03*
%TO.N,/Hbridge/IN.B*%
X213838115Y-105760194D03*
X215519000Y-108119000D03*
%TO.N,/Hbridge/IN.A*%
X213106000Y-106310194D03*
X217066088Y-108373000D03*
%TO.N,/MCU/dataIn*%
X217297000Y-112014000D03*
X212452825Y-108186886D03*
X187833000Y-101473000D03*
X185547000Y-101473000D03*
%TO.N,/MCU/dataOut*%
X188468000Y-102023000D03*
X217877336Y-112576664D03*
X198374000Y-102715000D03*
X196882562Y-102075438D03*
X185491409Y-102306409D03*
X213045780Y-109345526D03*
%TO.N,/EEPROM/SCL*%
X211897406Y-113091594D03*
X214172409Y-112679591D03*
%TO.N,/EEPROM/SDA*%
X213741000Y-111883000D03*
X211325907Y-112520096D03*
%TO.N,/MCU/POT*%
X229145913Y-98589913D03*
X229193001Y-100805568D03*
X218411153Y-103980153D03*
X218411153Y-105660000D03*
%TO.N,/MCU/BUTTONS*%
X217136501Y-106156834D03*
X221996000Y-103374000D03*
X228643001Y-102456567D03*
X228200000Y-99535827D03*
%TO.N,GND*%
X218694000Y-110998000D03*
%TD*%
D56*
%TO.N,/MCU/reset*%
X254110000Y-86487000D02*
X255761000Y-88138000D01*
X245728000Y-89679000D02*
X248920000Y-86487000D01*
X245728000Y-91694000D02*
X245728000Y-89679000D01*
X248920000Y-86487000D02*
X254110000Y-86487000D01*
X243950000Y-93472000D02*
X245728000Y-91694000D01*
X242261500Y-93472000D02*
X243950000Y-93472000D01*
D57*
%TO.N,GND*%
X237490000Y-113870500D02*
X236460500Y-112841000D01*
X237490000Y-113919000D02*
X237490000Y-113870500D01*
%TO.N,/MCU/reset*%
X240689028Y-92837000D02*
X241626500Y-92837000D01*
X240287514Y-94790800D02*
X240287514Y-93238514D01*
X240287514Y-93238514D02*
X240689028Y-92837000D01*
X241626500Y-92837000D02*
X242261500Y-93472000D01*
X230504456Y-96100000D02*
X238978314Y-96100000D01*
X230241978Y-96362478D02*
X230504456Y-96100000D01*
X238978314Y-96100000D02*
X240287514Y-94790800D01*
%TO.N,/MCU/LED*%
X235712000Y-114046000D02*
X235712000Y-114237000D01*
X235712000Y-114237000D02*
X236475000Y-115000000D01*
X223267818Y-115443000D02*
X223774000Y-115443000D01*
X223203409Y-115378591D02*
X223267818Y-115443000D01*
X222497909Y-114673091D02*
X223203409Y-115378591D01*
X221622909Y-114673091D02*
X222497909Y-114673091D01*
X216662000Y-110236000D02*
X216773182Y-110347182D01*
X215900000Y-110236000D02*
X216662000Y-110236000D01*
X214630000Y-108966000D02*
X215900000Y-110236000D01*
X214630000Y-108082016D02*
X214630000Y-108966000D01*
X213956994Y-107409010D02*
X214630000Y-108082016D01*
%TO.N,/MCU/Switch*%
X215853876Y-110932237D02*
X213741000Y-108819361D01*
X216188127Y-110932237D02*
X215853876Y-110932237D01*
X213741000Y-108819361D02*
X213741000Y-108324387D01*
%TO.N,/MCU/clock*%
X218906782Y-109601000D02*
X220411782Y-108096000D01*
X222108838Y-108096000D02*
X222795828Y-107409010D01*
X217297000Y-109601000D02*
X218906782Y-109601000D01*
X220411782Y-108096000D02*
X222108838Y-108096000D01*
%TO.N,/MCU/latch*%
X221377467Y-107696000D02*
X222230143Y-106843324D01*
X218976097Y-108966000D02*
X220246097Y-107696000D01*
X216295669Y-108966000D02*
X218976097Y-108966000D01*
X220246097Y-107696000D02*
X221377467Y-107696000D01*
X216042670Y-109218999D02*
X216295669Y-108966000D01*
%TO.N,/Hbridge/IN.A*%
X220319411Y-107057000D02*
X220885097Y-107057000D01*
X220885097Y-107057000D02*
X221664458Y-106277639D01*
X217066088Y-108373000D02*
X219003411Y-108373000D01*
X219003411Y-108373000D02*
X220319411Y-107057000D01*
%TO.N,/Hbridge/IN.B*%
X218987725Y-107823000D02*
X221098772Y-105711953D01*
X216813838Y-107823000D02*
X218987725Y-107823000D01*
X216517838Y-108119000D02*
X216813838Y-107823000D01*
X215519000Y-108119000D02*
X216517838Y-108119000D01*
%TO.N,/MCU/POT*%
X215248355Y-107569000D02*
X214522679Y-106843324D01*
X215884182Y-107569000D02*
X215248355Y-107569000D01*
X215926182Y-107611000D02*
X215884182Y-107569000D01*
X216460153Y-107611000D02*
X215926182Y-107611000D01*
X218411153Y-105660000D02*
X216460153Y-107611000D01*
%TO.N,/MCU/Switch*%
X234641000Y-113792000D02*
X234641000Y-108914000D01*
X234641000Y-115114000D02*
X234641000Y-113792000D01*
X221629000Y-115457000D02*
X222504000Y-115457000D01*
X220726000Y-114554000D02*
X221629000Y-115457000D01*
%TO.N,/MCU/dataIn*%
X218561984Y-112014000D02*
X219967401Y-113419417D01*
X217297000Y-112014000D02*
X218561984Y-112014000D01*
%TO.N,/MCU/dataOut*%
X217877336Y-112576664D02*
X217877336Y-112576665D01*
X217877336Y-112576665D02*
X219285774Y-113985103D01*
%TO.N,+5V*%
X241975000Y-104310000D02*
X235034000Y-104310000D01*
D56*
X234922000Y-104422000D02*
X234061000Y-105283000D01*
D57*
X235034000Y-104310000D02*
X234922000Y-104422000D01*
%TO.N,/DCC/DCC*%
X241975000Y-99230000D02*
X240230000Y-99230000D01*
X240230000Y-99230000D02*
X239615000Y-98615000D01*
X230543000Y-104000000D02*
X231029000Y-104486000D01*
X230543000Y-100957000D02*
X230543000Y-104000000D01*
X232885000Y-98615000D02*
X230543000Y-100957000D01*
X231029000Y-104486000D02*
X231029000Y-105283000D01*
X239615000Y-98615000D02*
X232885000Y-98615000D01*
%TO.N,/MCU/POT*%
X239305040Y-96940000D02*
X241253040Y-94992000D01*
X231410040Y-96940000D02*
X239305040Y-96940000D01*
%TO.N,/MCU/BUTTONS*%
X230882274Y-96500000D02*
X239144000Y-96500000D01*
X229477137Y-97905137D02*
X230882274Y-96500000D01*
X239144000Y-96500000D02*
X240822000Y-94822000D01*
%TO.N,/MCU/POT*%
X231032960Y-96915000D02*
X231385040Y-96915000D01*
X229358047Y-98589913D02*
X231032960Y-96915000D01*
X229145913Y-98589913D02*
X229358047Y-98589913D01*
X231385040Y-96915000D02*
X231410040Y-96940000D01*
%TO.N,/MCU/MOSI*%
X256911000Y-91828000D02*
X255761000Y-90678000D01*
X256911000Y-96234346D02*
X256911000Y-91828000D01*
X256237346Y-96908000D02*
X256911000Y-96234346D01*
X253913368Y-96908000D02*
X256237346Y-96908000D01*
X252606368Y-98215000D02*
X253913368Y-96908000D01*
X231571436Y-98215000D02*
X252606368Y-98215000D01*
X229743000Y-100043436D02*
X231571436Y-98215000D01*
X229743000Y-103759000D02*
X229743000Y-100043436D01*
X227664000Y-105838000D02*
X229743000Y-103759000D01*
X222203592Y-104409000D02*
X223632592Y-105838000D01*
X221687496Y-104409000D02*
X222203592Y-104409000D01*
X220726000Y-103882000D02*
X221160496Y-103882000D01*
X221160496Y-103882000D02*
X221687496Y-104409000D01*
X223632592Y-105838000D02*
X227664000Y-105838000D01*
X220027417Y-104580583D02*
X220726000Y-103882000D01*
%TO.N,/MCU/SCK*%
X240395396Y-97790000D02*
X231395396Y-97790000D01*
%TO.N,/MCU/MISO*%
X240500000Y-97340000D02*
X231209000Y-97340000D01*
D56*
X240500000Y-97340000D02*
X252243932Y-97340000D01*
%TO.N,/MCU/BUTTONS*%
X240822000Y-94822000D02*
X241077000Y-94567000D01*
D57*
%TO.N,+5V*%
X230521000Y-106283000D02*
X232029000Y-106283000D01*
X229589818Y-107934000D02*
X229912000Y-107611818D01*
X226933000Y-107934000D02*
X229589818Y-107934000D01*
X232029000Y-106283000D02*
X233029000Y-105283000D01*
X225933000Y-106934000D02*
X226933000Y-107934000D01*
X229912000Y-107611818D02*
X229912000Y-106892000D01*
X229912000Y-106892000D02*
X230521000Y-106283000D01*
%TO.N,/DCC/DCC*%
X229362000Y-106553000D02*
X230632000Y-105283000D01*
X229362000Y-107384000D02*
X229362000Y-106553000D01*
X229702411Y-109006589D02*
X229702411Y-114904589D01*
X228600000Y-116007000D02*
X219373003Y-116007000D01*
X229235000Y-108539178D02*
X229702411Y-109006589D01*
X219373003Y-116007000D02*
X217351106Y-113985103D01*
X229235000Y-108484000D02*
X229235000Y-108539178D01*
X229702411Y-114904589D02*
X228600000Y-116007000D01*
%TO.N,Net-(D1001-K)*%
X238525000Y-115000000D02*
X238525000Y-113080500D01*
D56*
%TO.N,+5V*%
X234061000Y-105283000D02*
X233029000Y-105283000D01*
X242596000Y-107629100D02*
X242596000Y-104500000D01*
X242925900Y-107959000D02*
X242596000Y-107629100D01*
X242925900Y-107959000D02*
X244496000Y-107959000D01*
D57*
%TO.N,GND*%
X199848000Y-114414000D02*
X201574000Y-114414000D01*
X216154000Y-107061000D02*
X215871725Y-107061000D01*
X199327000Y-114935000D02*
X198501000Y-114935000D01*
X194818000Y-106722000D02*
X195765000Y-105775000D01*
X214376000Y-105156000D02*
X214122000Y-104902000D01*
X199848000Y-114414000D02*
X199327000Y-114935000D01*
D58*
X203935000Y-101500000D02*
X204343000Y-101092000D01*
X208437600Y-98250000D02*
X207287600Y-98250000D01*
D57*
X225119000Y-111581000D02*
X226060000Y-112522000D01*
X210796000Y-100433000D02*
X210820000Y-100457000D01*
D58*
X203925600Y-97663000D02*
X204216000Y-97663000D01*
D57*
X193865000Y-107887000D02*
X194818000Y-106934000D01*
X215871725Y-107061000D02*
X215088364Y-106277639D01*
D58*
X202887600Y-97600000D02*
X203862600Y-97600000D01*
D57*
X198501000Y-114935000D02*
X198247000Y-114935000D01*
D58*
X207287600Y-98250000D02*
X205662600Y-99875000D01*
X203862600Y-97600000D02*
X203925600Y-97663000D01*
D57*
X197448000Y-106277000D02*
X196267000Y-106277000D01*
X214376000Y-105565275D02*
X214376000Y-105156000D01*
X194818000Y-106934000D02*
X194818000Y-106722000D01*
X211722000Y-102375000D02*
X211074000Y-101727000D01*
D58*
X202887600Y-101500000D02*
X203935000Y-101500000D01*
D57*
X210796000Y-99500000D02*
X210796000Y-100433000D01*
X193167000Y-108673000D02*
X193865000Y-107975000D01*
X215088364Y-106277639D02*
X214376000Y-105565275D01*
X220686097Y-110744000D02*
X221664458Y-111722361D01*
X227019000Y-113481000D02*
X226060000Y-112522000D01*
X193167000Y-108839000D02*
X193167000Y-108673000D01*
X196267000Y-106277000D02*
X195765000Y-105775000D01*
X220599000Y-110744000D02*
X220686097Y-110744000D01*
%TO.N,Net-(U401-VCP)*%
X201346370Y-99550000D02*
X201196370Y-99700000D01*
X200533630Y-99700000D02*
X199000000Y-98166370D01*
X201196370Y-99700000D02*
X200533630Y-99700000D01*
X202887600Y-99550000D02*
X201346370Y-99550000D01*
%TO.N,/MCU/X1*%
X225231411Y-115232000D02*
X225231411Y-113763000D01*
X224001358Y-112532947D02*
X224949411Y-113481000D01*
X222795828Y-110590990D02*
X223949411Y-111744573D01*
X223949411Y-111744573D02*
X223949411Y-112129530D01*
X224001358Y-112181477D02*
X224001358Y-112532947D01*
X223949411Y-112129530D02*
X224001358Y-112181477D01*
D56*
%TO.N,+5V*%
X246178000Y-91880396D02*
X246178000Y-90041546D01*
D57*
X219066019Y-106966888D02*
X218769454Y-107263453D01*
X195575000Y-97579448D02*
X194445552Y-96450000D01*
X221424500Y-109791500D02*
X221424500Y-109664500D01*
X218638971Y-105110000D02*
X219066019Y-105537048D01*
D59*
X185713238Y-114817000D02*
X182499000Y-111602762D01*
D57*
X203224000Y-111018000D02*
X204420000Y-112214000D01*
X210862372Y-103555000D02*
X210172000Y-103555000D01*
D56*
X246178000Y-90041546D02*
X247219546Y-89000000D01*
D57*
X221335233Y-110261767D02*
X221178467Y-110105000D01*
X225933000Y-106934000D02*
X224028000Y-108839000D01*
D56*
X247950000Y-102870000D02*
X247950000Y-106045000D01*
X249895100Y-89620101D02*
X249895100Y-93321100D01*
D57*
X207163653Y-105637347D02*
X205233000Y-107568000D01*
X201930000Y-111018000D02*
X203224000Y-111018000D01*
X223339411Y-112265944D02*
X222230143Y-111156676D01*
X221488000Y-109474000D02*
X221361000Y-109601000D01*
D59*
X182499000Y-111602762D02*
X182499000Y-107599000D01*
D56*
X246800000Y-106553000D02*
X245902000Y-106553000D01*
D57*
X210172000Y-103555000D02*
X210172000Y-102485000D01*
X219837000Y-110359000D02*
X219837000Y-111026275D01*
D56*
X241711500Y-94117000D02*
X243941396Y-94117000D01*
D57*
X189121000Y-114693000D02*
X191500000Y-114693000D01*
X213783500Y-104309000D02*
X213317500Y-104775000D01*
D56*
X255166093Y-97703093D02*
X255761000Y-98298000D01*
D57*
X219066019Y-105537048D02*
X219066019Y-106966888D01*
X215991419Y-103786581D02*
X215991419Y-103469419D01*
X221178467Y-110105000D02*
X221178467Y-110037533D01*
X215991757Y-103786919D02*
X215673919Y-103786919D01*
X198619000Y-114093000D02*
X199848000Y-112864000D01*
X201930000Y-111018000D02*
X200084000Y-112864000D01*
X217314838Y-105110000D02*
X218638971Y-105110000D01*
X216785421Y-104580583D02*
X215995419Y-103790581D01*
D56*
X243941396Y-94117000D02*
X246178000Y-91880396D01*
D57*
X221335233Y-110261767D02*
X221335233Y-109956233D01*
X192847000Y-96450000D02*
X192400000Y-96003000D01*
X212082372Y-104775000D02*
X210862372Y-103555000D01*
X215995419Y-103790581D02*
X215832838Y-103628000D01*
X221996000Y-109474000D02*
X221488000Y-109474000D01*
X215995419Y-103790581D02*
X215991757Y-103786919D01*
X215991419Y-103469419D02*
X216610000Y-102850838D01*
X225274500Y-104263000D02*
X224635000Y-104263000D01*
X224635000Y-104263000D02*
X222123000Y-101751000D01*
X209669091Y-100875000D02*
X210172000Y-101377909D01*
X202887600Y-102150000D02*
X202011000Y-102150000D01*
X221424500Y-109664500D02*
X221361000Y-109601000D01*
X186904000Y-100925000D02*
X186904000Y-99427000D01*
X208437600Y-99550000D02*
X209452000Y-99550000D01*
X203580293Y-105029707D02*
X204420000Y-105869414D01*
X220091000Y-110105000D02*
X219837000Y-110359000D01*
X221178467Y-110037533D02*
X221297500Y-109918500D01*
X199120182Y-100965000D02*
X198247000Y-100965000D01*
D56*
X251542000Y-101120000D02*
X249700000Y-101120000D01*
D57*
X187960000Y-96516000D02*
X187960000Y-93722000D01*
X195834448Y-99800000D02*
X195575000Y-99540552D01*
X221424500Y-109791500D02*
X221297500Y-109918500D01*
D56*
X255761000Y-98298000D02*
X254911000Y-99148000D01*
X248500000Y-89000000D02*
X249274999Y-89000000D01*
D57*
X201927000Y-107568000D02*
X201803000Y-107692000D01*
D56*
X253896093Y-97703093D02*
X255166093Y-97703093D01*
D57*
X201676000Y-102485000D02*
X200640182Y-102485000D01*
D56*
X254911000Y-99148000D02*
X253514000Y-99148000D01*
D57*
X207163653Y-105537000D02*
X207163653Y-105637347D01*
D56*
X244496000Y-107959000D02*
X245521000Y-106934000D01*
D57*
X215995419Y-103790581D02*
X215991419Y-103786581D01*
D56*
X247219546Y-89000000D02*
X248500000Y-89000000D01*
D57*
X188555000Y-97111000D02*
X187960000Y-96516000D01*
X188555000Y-99427000D02*
X186904000Y-99427000D01*
X221742000Y-109474000D02*
X221424500Y-109791500D01*
X210172000Y-103628000D02*
X210172000Y-102485000D01*
X192400000Y-96003000D02*
X192400000Y-94775000D01*
X200640182Y-102485000D02*
X199120182Y-100965000D01*
X210172000Y-101377909D02*
X210172000Y-102485000D01*
X191500000Y-114693000D02*
X192100000Y-114093000D01*
X209669091Y-100875000D02*
X208462600Y-100875000D01*
X225274500Y-104163500D02*
X225933000Y-103505000D01*
X215673919Y-103786919D02*
X215151838Y-104309000D01*
X189121000Y-114693000D02*
X187068000Y-114693000D01*
X204420000Y-105869414D02*
X204420000Y-107568000D01*
X221996000Y-109474000D02*
X221742000Y-109474000D01*
X219837000Y-111026275D02*
X221098772Y-112288047D01*
X221178467Y-110105000D02*
X220091000Y-110105000D01*
X194445552Y-96450000D02*
X192847000Y-96450000D01*
X192400000Y-93575000D02*
X192400000Y-94775000D01*
X192100000Y-114093000D02*
X198619000Y-114093000D01*
X187960000Y-93722000D02*
X188595000Y-93087000D01*
D56*
X249274999Y-89000000D02*
X249895100Y-89620101D01*
D57*
X221335233Y-109956233D02*
X221297500Y-109918500D01*
X202887600Y-102150000D02*
X202887600Y-102616000D01*
X197082000Y-99800000D02*
X195834448Y-99800000D01*
X216785421Y-104580583D02*
X217314838Y-105110000D01*
X198247000Y-100965000D02*
X197082000Y-99800000D01*
X204420000Y-112214000D02*
X204420000Y-113868000D01*
X215151838Y-104309000D02*
X213783500Y-104309000D01*
X209452000Y-99550000D02*
X209677000Y-99775000D01*
D59*
X186944000Y-114817000D02*
X185713238Y-114817000D01*
D57*
X195575000Y-99540552D02*
X195575000Y-97579448D01*
D56*
X253514000Y-99148000D02*
X251542000Y-101120000D01*
D57*
X213317500Y-104775000D02*
X212082372Y-104775000D01*
X188595000Y-93087000D02*
X191912000Y-93087000D01*
X191912000Y-93087000D02*
X192400000Y-93575000D01*
D56*
X241066500Y-93472000D02*
X241711500Y-94117000D01*
D57*
X215832838Y-103628000D02*
X215673919Y-103786919D01*
X202011000Y-102150000D02*
X201676000Y-102485000D01*
D56*
X249895100Y-93321100D02*
X252672379Y-96098379D01*
D57*
X220980000Y-101751000D02*
X222123000Y-101751000D01*
X188555000Y-98525000D02*
X188555000Y-99427000D01*
X216610000Y-102850838D02*
X216610000Y-99448000D01*
X188555000Y-98525000D02*
X188555000Y-97111000D01*
D56*
X249700000Y-101120000D02*
X247950000Y-102870000D01*
D57*
X221361000Y-109601000D02*
X220916500Y-109156500D01*
X204420000Y-107568000D02*
X201927000Y-107568000D01*
X222230143Y-111156676D02*
X221335233Y-110261767D01*
X215832838Y-103628000D02*
X215991419Y-103469419D01*
%TO.N,/MCU/X2*%
X225927411Y-110359000D02*
X227149411Y-111581000D01*
X228927411Y-111695000D02*
X227263411Y-111695000D01*
X223695209Y-110359000D02*
X225927411Y-110359000D01*
D60*
%TO.N,+12V*%
X200487500Y-94237500D02*
X199000000Y-95725000D01*
X200737500Y-93987500D02*
X200487500Y-94237500D01*
X199980000Y-96705000D02*
X199980000Y-98015000D01*
D61*
X180340000Y-110363000D02*
X180340000Y-91563000D01*
X206172000Y-115900000D02*
X206720000Y-115352000D01*
D62*
X199960000Y-96685000D02*
X199000000Y-95725000D01*
X200865000Y-98900000D02*
X199960000Y-97995000D01*
D60*
X226000000Y-99500000D02*
X220315316Y-99500000D01*
D61*
X180340000Y-110363000D02*
X185877000Y-115900000D01*
D60*
X199000000Y-95725000D02*
X199980000Y-96705000D01*
D58*
X202887600Y-98900000D02*
X202057000Y-98900000D01*
D60*
X199980000Y-98015000D02*
X200865000Y-98900000D01*
X211510500Y-91248000D02*
X201409497Y-91248000D01*
D62*
X199960000Y-97995000D02*
X199960000Y-96685000D01*
D60*
X214195000Y-93932500D02*
X211510500Y-91248000D01*
D61*
X200737500Y-91919997D02*
X200737500Y-90576002D01*
X185877000Y-115900000D02*
X206172000Y-115900000D01*
D57*
X209500000Y-114225000D02*
X207077000Y-114225000D01*
D61*
X200737500Y-90576002D02*
X200684249Y-90522751D01*
D60*
X214747816Y-93932500D02*
X214195000Y-93932500D01*
D57*
X198420000Y-98598000D02*
X198420000Y-96305000D01*
D61*
X200684249Y-90522751D02*
X201409497Y-91248000D01*
D58*
X202887600Y-98900000D02*
X200865000Y-98900000D01*
D60*
X220315316Y-99500000D02*
X214747816Y-93932500D01*
D61*
X180340000Y-91563000D02*
X184785000Y-87118000D01*
D60*
X201409497Y-91248000D02*
X200737500Y-91919997D01*
D61*
X197279498Y-87118000D02*
X200684249Y-90522751D01*
X184785000Y-87118000D02*
X197279498Y-87118000D01*
D57*
X198420000Y-96305000D02*
X199000000Y-95725000D01*
X198882000Y-99060000D02*
X198420000Y-98598000D01*
D61*
X206720000Y-115352000D02*
X206720000Y-113868000D01*
D60*
X200737500Y-91919997D02*
X200737500Y-93987500D01*
D57*
%TO.N,/MCU/reset*%
X224597000Y-106238000D02*
X227829686Y-106238000D01*
X194764314Y-109343000D02*
X200152000Y-109343000D01*
X192646000Y-109343000D02*
X192786000Y-109483000D01*
X230143000Y-100421254D02*
X231068127Y-99496127D01*
X230143000Y-103924685D02*
X230143000Y-100421254D01*
X217617853Y-110280329D02*
X218793139Y-110280329D01*
X222085490Y-108606500D02*
X222124760Y-108645770D01*
X189320000Y-107827000D02*
X190836000Y-109343000D01*
X218793139Y-110280329D02*
X220466968Y-108606500D01*
X210652685Y-108868000D02*
X212001000Y-110216315D01*
X194624314Y-109483000D02*
X194764314Y-109343000D01*
X215654050Y-112288047D02*
X214681097Y-113261000D01*
X192786000Y-109483000D02*
X194624314Y-109483000D01*
X224028000Y-106807000D02*
X224597000Y-106238000D01*
X220466968Y-108606500D02*
X222085490Y-108606500D01*
X212001000Y-110216315D02*
X212001000Y-111286000D01*
X200152000Y-109343000D02*
X200627000Y-108868000D01*
X190836000Y-109343000D02*
X192646000Y-109343000D01*
X214681097Y-113261000D02*
X213976000Y-113261000D01*
X215654050Y-112244132D02*
X217617853Y-110280329D01*
X200627000Y-108868000D02*
X210652685Y-108868000D01*
X212001000Y-111286000D02*
X213976000Y-113261000D01*
X227829686Y-106238000D02*
X230143000Y-103924685D01*
%TO.N,Net-(U401-CPH)*%
X202887600Y-100200000D02*
X201615500Y-100200000D01*
X201615500Y-100200000D02*
X201295000Y-100520500D01*
%TO.N,/MCU/S_Rx*%
X200317686Y-109743000D02*
X200792686Y-109268000D01*
X211601000Y-111451686D02*
X213810314Y-113661000D01*
X194930000Y-109743000D02*
X200317686Y-109743000D01*
X186145000Y-107890000D02*
X187998000Y-109743000D01*
X194790000Y-109883000D02*
X194930000Y-109743000D01*
X213810314Y-113661000D02*
X215412467Y-113661000D01*
X187998000Y-109743000D02*
X192420000Y-109743000D01*
X192560000Y-109883000D02*
X194790000Y-109883000D01*
X211601000Y-110382000D02*
X211601000Y-111451686D01*
X215412467Y-113661000D02*
X216219735Y-112853732D01*
X192420000Y-109743000D02*
X192560000Y-109883000D01*
X210487000Y-109268000D02*
X211601000Y-110382000D01*
X200792686Y-109268000D02*
X210487000Y-109268000D01*
%TO.N,/MCU/S_Tx*%
X216035838Y-114169000D02*
X213752629Y-114169000D01*
X187977409Y-108944591D02*
X187669000Y-108636182D01*
X187620182Y-110143000D02*
X187009091Y-109531909D01*
X195419000Y-110143000D02*
X195279000Y-110283000D01*
X211201000Y-110617000D02*
X210252000Y-109668000D01*
X201008000Y-109668000D02*
X200533000Y-110143000D01*
X216785421Y-113419417D02*
X216035838Y-114169000D01*
X211201000Y-111617370D02*
X213752629Y-114169000D01*
X211201000Y-111617370D02*
X211201000Y-110617000D01*
X187669000Y-108636182D02*
X187669000Y-107890000D01*
X210252000Y-109668000D02*
X201008000Y-109668000D01*
X192393182Y-110283000D02*
X192253182Y-110143000D01*
X192253182Y-110143000D02*
X187620182Y-110143000D01*
X195279000Y-110283000D02*
X192393182Y-110283000D01*
X200533000Y-110143000D02*
X195419000Y-110143000D01*
%TO.N,Net-(U401-CPL)*%
X202887600Y-100850000D02*
X202100500Y-100850000D01*
X202100500Y-100850000D02*
X201295000Y-101655500D01*
%TO.N,Net-(U501-XI)*%
X194865000Y-104775000D02*
X195576000Y-104775000D01*
X193865000Y-105775000D02*
X192854000Y-105775000D01*
X192854000Y-105775000D02*
X192275000Y-106354000D01*
X195576000Y-104775000D02*
X196175000Y-104176000D01*
X193865000Y-105775000D02*
X194865000Y-104775000D01*
D56*
%TO.N,/MCU/MISO*%
X220155613Y-103261000D02*
X219401716Y-104014897D01*
X227361000Y-102289000D02*
X228075000Y-101575000D01*
X224268886Y-102289000D02*
X227361000Y-102289000D01*
X219770000Y-101353114D02*
X220427114Y-100696000D01*
X220427114Y-100696000D02*
X222675886Y-100696000D01*
X252243932Y-97340000D02*
X255761000Y-93822932D01*
X219770000Y-101711000D02*
X219770000Y-101353114D01*
X228075000Y-101575000D02*
X228075000Y-100474000D01*
X222675886Y-100696000D02*
X224268886Y-102289000D01*
X228075000Y-100474000D02*
X231209000Y-97340000D01*
X220324046Y-103261000D02*
X220155613Y-103261000D01*
%TO.N,/MCU/SCK*%
X228525000Y-100660396D02*
X228525000Y-101761396D01*
X231395396Y-97790000D02*
X228525000Y-100660396D01*
X220345000Y-101414510D02*
X220345000Y-102104000D01*
X222489490Y-101146000D02*
X220613510Y-101146000D01*
X224082490Y-102739000D02*
X222489490Y-101146000D01*
X220613510Y-101146000D02*
X220345000Y-101414510D01*
X254462328Y-95758000D02*
X252430328Y-97790000D01*
X255761000Y-95758000D02*
X254462328Y-95758000D01*
X228525000Y-101761396D02*
X227547396Y-102739000D01*
X217563237Y-104014897D02*
X219292133Y-102286000D01*
X220163000Y-102286000D02*
X219292133Y-102286000D01*
X227547396Y-102739000D02*
X224082490Y-102739000D01*
X252430328Y-97790000D02*
X240395396Y-97790000D01*
X220345000Y-102104000D02*
X220163000Y-102286000D01*
D57*
%TO.N,Net-(U501-XO)*%
X197445000Y-104166500D02*
X198223000Y-104944500D01*
X197448000Y-107827000D02*
X195913000Y-107827000D01*
X198223000Y-107052000D02*
X197448000Y-107827000D01*
X198223000Y-104944500D02*
X198223000Y-107052000D01*
%TO.N,Net-(U501-V3)*%
X192365000Y-103475000D02*
X192365000Y-104416000D01*
X192365000Y-104416000D02*
X190844000Y-105937000D01*
%TO.N,Net-(U501-~{DTR})*%
X191765000Y-104420552D02*
X191765000Y-102235000D01*
X191414552Y-104771000D02*
X191765000Y-104420552D01*
X192365000Y-98525000D02*
X192365000Y-99822000D01*
X191073866Y-104771000D02*
X191414552Y-104771000D01*
X189567866Y-106277000D02*
X191073866Y-104771000D01*
D56*
%TO.N,Net-(D901-A)*%
X247375000Y-101985000D02*
X250130000Y-99230000D01*
X252720000Y-99230000D02*
X253500000Y-98450000D01*
X248611000Y-113500000D02*
X247375000Y-112264000D01*
X251025000Y-99230000D02*
X252720000Y-99230000D01*
X247375000Y-112264000D02*
X247375000Y-101985000D01*
%TO.N,Net-(D901-K)*%
X253348000Y-100702000D02*
X253500000Y-100550000D01*
X252906500Y-101770000D02*
X253348000Y-102211500D01*
X253348000Y-102211500D02*
X253348000Y-100702000D01*
X251025000Y-101770000D02*
X252906500Y-101770000D01*
D57*
%TO.N,Net-(J501-D-)*%
X194564000Y-102235000D02*
X194691000Y-102362000D01*
X192475000Y-96850000D02*
X191600000Y-95975000D01*
X194691000Y-102362000D02*
X194691000Y-103261000D01*
X194235000Y-97509448D02*
X193575552Y-96850000D01*
X194235000Y-99822000D02*
X194235000Y-97509448D01*
X191600000Y-95975000D02*
X191600000Y-94775000D01*
X193575552Y-96850000D02*
X192475000Y-96850000D01*
X194691000Y-103261000D02*
X194905000Y-103475000D01*
%TO.N,Net-(J501-D+)*%
X190800000Y-95975000D02*
X190800000Y-94775000D01*
X193259138Y-99909028D02*
X193035000Y-99684890D01*
X193035000Y-99684890D02*
X193035000Y-97579448D01*
X192705552Y-97250000D02*
X192075000Y-97250000D01*
X193421000Y-102235000D02*
X193421000Y-102743000D01*
X192075000Y-97250000D02*
X190800000Y-95975000D01*
X193035000Y-97579448D02*
X192705552Y-97250000D01*
D56*
%TO.N,Net-(J901-Pin_2)*%
X249500000Y-110000000D02*
X249500000Y-107884500D01*
X249500000Y-107884500D02*
X253348000Y-104036500D01*
D57*
%TO.N,Net-(R401-Pad1)*%
X214610000Y-97623000D02*
X210848000Y-97623000D01*
%TO.N,Net-(U401-nFault)*%
X211735182Y-100800111D02*
X212564111Y-100800111D01*
X211443293Y-101092000D02*
X211735182Y-100800111D01*
X209896909Y-100325000D02*
X210663909Y-101092000D01*
X213995278Y-98410500D02*
X215822500Y-98410500D01*
X208562600Y-100325000D02*
X209896909Y-100325000D01*
X213385000Y-99979222D02*
X213385000Y-99020778D01*
X215822500Y-98410500D02*
X216610000Y-97623000D01*
X213385000Y-99020778D02*
X213995278Y-98410500D01*
X212564111Y-100800111D02*
X213385000Y-99979222D01*
X210663909Y-101092000D02*
X211443293Y-101092000D01*
%TO.N,Net-(U501-TXD)*%
X189484000Y-105025000D02*
X189825000Y-104684000D01*
X187360000Y-105025000D02*
X189484000Y-105025000D01*
X186145000Y-106240000D02*
X187360000Y-105025000D01*
X189825000Y-104684000D02*
X189825000Y-103475000D01*
%TO.N,Net-(U501-RXD)*%
X188484000Y-105425000D02*
X189719000Y-105425000D01*
X189719000Y-105425000D02*
X191095000Y-104049000D01*
X187669000Y-106240000D02*
X188484000Y-105425000D01*
D56*
%TO.N,Net-(U901-EN)*%
X243521000Y-103965000D02*
X243521000Y-106934000D01*
X241975000Y-102419000D02*
X243521000Y-103965000D01*
X241975000Y-101770000D02*
X241975000Y-102419000D01*
D62*
%TO.N,/Hbridge/OUT.A*%
X208754000Y-97625000D02*
X209042000Y-97625000D01*
X209042000Y-97625000D02*
X209042000Y-96135000D01*
X208437600Y-97600000D02*
X208437600Y-97024000D01*
X209042000Y-96135000D02*
X208788000Y-95881000D01*
%TO.N,/Hbridge/OUT.B*%
X201962600Y-98250000D02*
X201803000Y-98090400D01*
X202887600Y-98250000D02*
X201759000Y-98250000D01*
X202887600Y-98250000D02*
X201962600Y-98250000D01*
X201759000Y-98250000D02*
X201676000Y-98167000D01*
X201803000Y-98090400D02*
X201803000Y-96770000D01*
D57*
%TO.N,/MCU/clock*%
X182598000Y-99880000D02*
X184081000Y-99880000D01*
X184081000Y-99880000D02*
X185039000Y-100838000D01*
X211547248Y-106502620D02*
X210365628Y-105321000D01*
X188468000Y-100838000D02*
X188489028Y-100859028D01*
X211547248Y-106714752D02*
X211547248Y-106502620D01*
X210365628Y-105321000D02*
X209010496Y-105321000D01*
X188489028Y-100859028D02*
X197009656Y-100859028D01*
X198788810Y-101765000D02*
X200589810Y-103566000D01*
X207255496Y-103566000D02*
X209010496Y-105321000D01*
X188341000Y-100838000D02*
X188468000Y-100838000D01*
X197009656Y-100859028D02*
X197915628Y-101765000D01*
X197915628Y-101765000D02*
X198788810Y-101765000D01*
X200589810Y-103566000D02*
X207255496Y-103566000D01*
%TO.N,/MCU/latch*%
X187833000Y-100203000D02*
X191968182Y-100203000D01*
X207421182Y-103166000D02*
X209176182Y-104921000D01*
X194180972Y-100459028D02*
X194183000Y-100457000D01*
X200755496Y-103166000D02*
X207421182Y-103166000D01*
X210531314Y-104921000D02*
X212469381Y-106859067D01*
X198081314Y-101365000D02*
X198954496Y-101365000D01*
X185461000Y-100203000D02*
X185547000Y-100203000D01*
X212469381Y-106859067D02*
X212469381Y-106859937D01*
X198954496Y-101365000D02*
X200755496Y-103166000D01*
X197173314Y-100457000D02*
X198081314Y-101365000D01*
X192224210Y-100459028D02*
X194180972Y-100459028D01*
X191968182Y-100203000D02*
X192224210Y-100459028D01*
X194183000Y-100457000D02*
X197173314Y-100457000D01*
X209176182Y-104921000D02*
X210531314Y-104921000D01*
X182598000Y-97340000D02*
X185461000Y-100203000D01*
%TO.N,/Hbridge/IN.CS*%
X209718600Y-98548000D02*
X209366600Y-98900000D01*
X209873219Y-106950784D02*
X209873219Y-106737781D01*
X209366600Y-98900000D02*
X208437600Y-98900000D01*
X212467049Y-109924258D02*
X212467049Y-109544614D01*
X209873219Y-106950784D02*
X212467049Y-109544614D01*
X212472000Y-101859111D02*
X211963000Y-101350111D01*
X212923409Y-111430591D02*
X213117393Y-111430591D01*
X212472000Y-103885000D02*
X212472000Y-101859111D01*
X212610000Y-99500000D02*
X211658000Y-98548000D01*
X211658000Y-98548000D02*
X209718600Y-98548000D01*
X212221095Y-104135905D02*
X212472000Y-103885000D01*
X213117393Y-111430591D02*
X213956994Y-110590990D01*
X212610000Y-99603111D02*
X211963000Y-100250111D01*
%TO.N,/Hbridge/IN.B*%
X208837600Y-103073400D02*
X209422000Y-102489000D01*
X209422000Y-101722000D02*
X209200000Y-101500000D01*
X208837600Y-103451046D02*
X208837600Y-103073400D01*
X212501880Y-105760194D02*
X210846686Y-104105000D01*
X209491554Y-104105000D02*
X208837600Y-103451046D01*
X209422000Y-102489000D02*
X209422000Y-101722000D01*
X209491554Y-104105000D02*
X210846686Y-104105000D01*
X213838115Y-105760194D02*
X212501880Y-105760194D01*
X209200000Y-101500000D02*
X208437600Y-101500000D01*
%TO.N,/Hbridge/IN.A*%
X210697000Y-104521000D02*
X209341868Y-104521000D01*
X209341868Y-104521000D02*
X208437600Y-103616732D01*
X213106000Y-106310194D02*
X212486194Y-106310194D01*
X210697000Y-104521000D02*
X212486194Y-106310194D01*
X208437600Y-103616732D02*
X208437600Y-102150000D01*
%TO.N,/MCU/dataIn*%
X210199942Y-105721000D02*
X210997248Y-106518306D01*
X196843970Y-101259028D02*
X197749942Y-102165000D01*
X210997248Y-106518306D02*
X210997248Y-106942570D01*
X187833000Y-101473000D02*
X188762028Y-101473000D01*
X198623124Y-102165000D02*
X200424124Y-103966000D01*
X197749942Y-102165000D02*
X198623124Y-102165000D01*
X210997248Y-106942570D02*
X212241564Y-108186886D01*
X200424124Y-103966000D02*
X207089810Y-103966000D01*
X212241564Y-108186886D02*
X212452825Y-108186886D01*
X188762028Y-101473000D02*
X188976000Y-101259028D01*
X208844810Y-105721000D02*
X210199942Y-105721000D01*
X188976000Y-101259028D02*
X196843970Y-101259028D01*
X207089810Y-103966000D02*
X208844810Y-105721000D01*
X184600000Y-102420000D02*
X185547000Y-101473000D01*
%TO.N,/MCU/dataOut*%
X198374000Y-102715000D02*
X198607438Y-102715000D01*
X210597248Y-107108256D02*
X210597248Y-106683992D01*
X196469000Y-101661876D02*
X196882562Y-102075438D01*
X210597248Y-106683992D02*
X210034256Y-106121000D01*
X208679124Y-106121000D02*
X206924124Y-104366000D01*
X189141685Y-101659028D02*
X196469000Y-101659028D01*
X212833647Y-109345526D02*
X211510496Y-108022375D01*
X211510496Y-108021504D02*
X210597248Y-107108256D01*
X188777713Y-102023000D02*
X189088357Y-101712356D01*
X189088357Y-101712356D02*
X189141685Y-101659028D01*
X200258438Y-104366000D02*
X206924124Y-104366000D01*
X196469000Y-101659028D02*
X196469000Y-101661876D01*
X198607438Y-102715000D02*
X200258438Y-104366000D01*
X188468000Y-102023000D02*
X188777713Y-102023000D01*
X211510496Y-108022375D02*
X211510496Y-108021504D01*
X210034256Y-106121000D02*
X208679124Y-106121000D01*
X213045780Y-109345526D02*
X212833647Y-109345526D01*
%TO.N,/EEPROM/SCL*%
X196901000Y-110943000D02*
X200864372Y-110943000D01*
X215088364Y-111763636D02*
X214172409Y-112679591D01*
X195091000Y-112753000D02*
X196901000Y-110943000D01*
X192386000Y-112753000D02*
X195091000Y-112753000D01*
X191770000Y-112137000D02*
X192386000Y-112753000D01*
X208599594Y-113091594D02*
X211897406Y-113091594D01*
X205976000Y-110468000D02*
X208599594Y-113091594D01*
X200864372Y-110943000D02*
X201339372Y-110468000D01*
X189137000Y-112137000D02*
X191770000Y-112137000D01*
X201339372Y-110468000D02*
X205976000Y-110468000D01*
%TO.N,/EEPROM/SDA*%
X195402000Y-111483000D02*
X196342000Y-110543000D01*
X201173686Y-110068000D02*
X210052744Y-110068000D01*
X196342000Y-110543000D02*
X200698686Y-110543000D01*
X210700000Y-110715256D02*
X210700000Y-111894189D01*
X210700000Y-111894189D02*
X211325907Y-112520096D01*
X214467324Y-111156676D02*
X213741000Y-111883000D01*
X191278000Y-110883000D02*
X191878000Y-111483000D01*
X189121000Y-110883000D02*
X191278000Y-110883000D01*
X200698686Y-110543000D02*
X201173686Y-110068000D01*
X210052744Y-110068000D02*
X210700000Y-110715256D01*
X191878000Y-111483000D02*
X195402000Y-111483000D01*
%TO.N,/MCU/POT*%
X226678186Y-105250000D02*
X226490186Y-105438000D01*
X247436876Y-91000000D02*
X248500000Y-91000000D01*
X221853182Y-104009000D02*
X220980000Y-103135818D01*
X244335000Y-94992000D02*
X247053000Y-92274000D01*
X227366722Y-105250000D02*
X229193001Y-103423721D01*
X229193001Y-103423721D02*
X229193001Y-100805568D01*
X223798278Y-105438000D02*
X222369278Y-104009000D01*
X241253040Y-94992000D02*
X244335000Y-94992000D01*
X220980000Y-103135818D02*
X220980000Y-102711000D01*
X247053000Y-91383876D02*
X247436876Y-91000000D01*
X226678186Y-105250000D02*
X227366722Y-105250000D01*
X219680306Y-102711000D02*
X218411153Y-103980153D01*
X226490186Y-105438000D02*
X223798278Y-105438000D01*
X247053000Y-92274000D02*
X247053000Y-91383876D01*
X222369278Y-104009000D02*
X221853182Y-104009000D01*
X220980000Y-102711000D02*
X219680306Y-102711000D01*
%TO.N,/MCU/BUTTONS*%
X227099500Y-104263000D02*
X226324500Y-105038000D01*
D56*
X228200000Y-99535827D02*
X228200000Y-98933000D01*
X228643001Y-102456567D02*
X227099500Y-104000068D01*
D57*
X217136501Y-106156834D02*
X217136501Y-106063034D01*
X223963964Y-105038000D02*
X222299964Y-103374000D01*
X228200000Y-98758008D02*
X229052871Y-97905137D01*
X221996000Y-103374000D02*
X221996000Y-102838000D01*
X222299964Y-103374000D02*
X221996000Y-103374000D01*
X228200000Y-98933000D02*
X228200000Y-98758008D01*
X217136501Y-106063034D02*
X216219735Y-105146268D01*
X229052871Y-97905137D02*
X229477137Y-97905137D01*
X226324500Y-105038000D02*
X223963964Y-105038000D01*
%TO.N,/MCU/dataIn*%
X182598000Y-102420000D02*
X184600000Y-102420000D01*
%TO.N,/MCU/dataOut*%
X182837818Y-104960000D02*
X185491409Y-102306409D01*
D56*
%TO.N,/MCU/BUTTONS*%
X246628000Y-92066792D02*
X246628000Y-90805000D01*
X247433000Y-90000000D02*
X248500000Y-90000000D01*
X244127792Y-94567000D02*
X246628000Y-92066792D01*
X241077000Y-94567000D02*
X244127792Y-94567000D01*
X246628000Y-90805000D02*
X247433000Y-90000000D01*
%TD*%
%TA.AperFunction,Conductor*%
%TO.N,/Hbridge/OUT.B*%
G36*
X202539425Y-92018185D02*
G01*
X202585180Y-92070989D01*
X202595124Y-92140147D01*
X202572704Y-92195385D01*
X202497615Y-92298736D01*
X202397567Y-92495089D01*
X202329473Y-92704664D01*
X202295000Y-92922318D01*
X202295000Y-93432500D01*
X203361027Y-93432500D01*
X203326592Y-93452381D01*
X203214881Y-93564092D01*
X203135889Y-93700909D01*
X203095000Y-93853509D01*
X203095000Y-94011491D01*
X203135889Y-94164091D01*
X203214881Y-94300908D01*
X203326592Y-94412619D01*
X203463409Y-94491611D01*
X203616009Y-94532500D01*
X203773991Y-94532500D01*
X203926591Y-94491611D01*
X204063408Y-94412619D01*
X204175119Y-94300908D01*
X204195000Y-94266473D01*
X204195000Y-96142087D01*
X204232407Y-96129933D01*
X204232413Y-96129931D01*
X204428760Y-96029886D01*
X204607041Y-95900357D01*
X204766305Y-95741094D01*
X204768324Y-95743113D01*
X204816093Y-95710694D01*
X204885941Y-95708942D01*
X204945648Y-95745231D01*
X204976257Y-95808039D01*
X204978000Y-95828758D01*
X204978000Y-96900000D01*
X204958315Y-96967039D01*
X204905511Y-97012794D01*
X204854000Y-97024000D01*
X202692000Y-97024000D01*
X202692000Y-97050500D01*
X202672315Y-97117539D01*
X202619511Y-97163294D01*
X202568000Y-97174500D01*
X202342847Y-97174500D01*
X202284370Y-97186131D01*
X202284369Y-97186132D01*
X202218047Y-97230447D01*
X202173732Y-97296769D01*
X202173731Y-97296770D01*
X202162100Y-97355247D01*
X202162100Y-97488443D01*
X202142415Y-97555482D01*
X202112412Y-97587709D01*
X202005409Y-97667812D01*
X201919249Y-97782906D01*
X201919245Y-97782913D01*
X201869003Y-97917620D01*
X201869001Y-97917627D01*
X201862600Y-97977155D01*
X201862600Y-98025000D01*
X202331684Y-98025000D01*
X202341862Y-98025500D01*
X202342852Y-98025500D01*
X202640363Y-98025500D01*
X202692000Y-98039336D01*
X202692000Y-98424500D01*
X202231932Y-98424500D01*
X202196997Y-98419477D01*
X202128962Y-98399500D01*
X202128961Y-98399500D01*
X201985039Y-98399500D01*
X201985038Y-98399500D01*
X201917003Y-98419477D01*
X201882068Y-98424500D01*
X201546000Y-98424500D01*
X201478961Y-98404815D01*
X201433206Y-98352011D01*
X201422000Y-98300500D01*
X201422000Y-94942681D01*
X202295000Y-94942681D01*
X202329473Y-95160335D01*
X202397567Y-95369910D01*
X202497613Y-95566260D01*
X202627142Y-95744541D01*
X202782958Y-95900357D01*
X202961239Y-96029886D01*
X203157586Y-96129931D01*
X203157592Y-96129933D01*
X203194999Y-96142087D01*
X203195000Y-96142086D01*
X203195000Y-94432500D01*
X202295000Y-94432500D01*
X202295000Y-94942681D01*
X201422000Y-94942681D01*
X201422000Y-94320785D01*
X201431439Y-94273332D01*
X201432113Y-94271705D01*
X201459158Y-94206413D01*
X201474244Y-94130572D01*
X201488000Y-94061420D01*
X201488000Y-92282226D01*
X201507685Y-92215187D01*
X201524319Y-92194545D01*
X201684045Y-92034819D01*
X201745368Y-92001334D01*
X201771726Y-91998500D01*
X202472386Y-91998500D01*
X202539425Y-92018185D01*
G37*
%TD.AperFunction*%
%TA.AperFunction,Conductor*%
G36*
X204138039Y-93452185D02*
G01*
X204183794Y-93504989D01*
X204195000Y-93556500D01*
X204195000Y-93598526D01*
X204175119Y-93564092D01*
X204063408Y-93452381D01*
X204028973Y-93432500D01*
X204071000Y-93432500D01*
X204138039Y-93452185D01*
G37*
%TD.AperFunction*%
%TD*%
%TA.AperFunction,Conductor*%
%TO.N,GND*%
G36*
X248343139Y-86320185D02*
G01*
X248388894Y-86372989D01*
X248398838Y-86442147D01*
X248369813Y-86505703D01*
X248363781Y-86512181D01*
X245545372Y-89330590D01*
X245484049Y-89364075D01*
X245414357Y-89359091D01*
X245358424Y-89317219D01*
X245334752Y-89259094D01*
X245318838Y-89138214D01*
X245318838Y-89138211D01*
X245256054Y-88903900D01*
X245163224Y-88679788D01*
X245041936Y-88469711D01*
X244981018Y-88390321D01*
X244894266Y-88277263D01*
X244894260Y-88277256D01*
X244722743Y-88105739D01*
X244722736Y-88105733D01*
X244530293Y-87958067D01*
X244530292Y-87958066D01*
X244530289Y-87958064D01*
X244320212Y-87836776D01*
X244255924Y-87810147D01*
X244096104Y-87743947D01*
X243861785Y-87681161D01*
X243621289Y-87649500D01*
X243621288Y-87649500D01*
X243378712Y-87649500D01*
X243378711Y-87649500D01*
X243138214Y-87681161D01*
X242903895Y-87743947D01*
X242679794Y-87836773D01*
X242679785Y-87836777D01*
X242469706Y-87958067D01*
X242277263Y-88105733D01*
X242277256Y-88105739D01*
X242105739Y-88277256D01*
X242105733Y-88277263D01*
X241958067Y-88469706D01*
X241836777Y-88679785D01*
X241836773Y-88679794D01*
X241743947Y-88903895D01*
X241681161Y-89138214D01*
X241649500Y-89378711D01*
X241649500Y-89621288D01*
X241681161Y-89861785D01*
X241743947Y-90096104D01*
X241836773Y-90320205D01*
X241836777Y-90320214D01*
X241851049Y-90344934D01*
X241958064Y-90530289D01*
X241958066Y-90530292D01*
X241958067Y-90530293D01*
X242105733Y-90722736D01*
X242105739Y-90722743D01*
X242277256Y-90894260D01*
X242277262Y-90894265D01*
X242469711Y-91041936D01*
X242679788Y-91163224D01*
X242903900Y-91256054D01*
X243138211Y-91318838D01*
X243318586Y-91342584D01*
X243378711Y-91350500D01*
X243378712Y-91350500D01*
X243621289Y-91350500D01*
X243669388Y-91344167D01*
X243861789Y-91318838D01*
X244096100Y-91256054D01*
X244320212Y-91163224D01*
X244530289Y-91041936D01*
X244722738Y-90894265D01*
X244894265Y-90722738D01*
X245041936Y-90530289D01*
X245121113Y-90393149D01*
X245171680Y-90344934D01*
X245240287Y-90331712D01*
X245305152Y-90357680D01*
X245345680Y-90414594D01*
X245352500Y-90455150D01*
X245352500Y-91487100D01*
X245332815Y-91554139D01*
X245316181Y-91574781D01*
X243830782Y-93060181D01*
X243769459Y-93093666D01*
X243743101Y-93096500D01*
X242875397Y-93096500D01*
X242808358Y-93076815D01*
X242787720Y-93060185D01*
X242703294Y-92975759D01*
X242587433Y-92916725D01*
X242587431Y-92916724D01*
X242587428Y-92916723D01*
X242491307Y-92901500D01*
X242238044Y-92901500D01*
X242171005Y-92881815D01*
X242150363Y-92865181D01*
X241841713Y-92556531D01*
X241841708Y-92556527D01*
X241761790Y-92510387D01*
X241761789Y-92510386D01*
X241761788Y-92510386D01*
X241672644Y-92486500D01*
X240642884Y-92486500D01*
X240553740Y-92510386D01*
X240553737Y-92510387D01*
X240473819Y-92556527D01*
X240473814Y-92556531D01*
X240007045Y-93023300D01*
X240007041Y-93023305D01*
X239973155Y-93081999D01*
X239973155Y-93082000D01*
X239960900Y-93103224D01*
X239937014Y-93192370D01*
X239937014Y-94594256D01*
X239917329Y-94661295D01*
X239900695Y-94681937D01*
X238869451Y-95713181D01*
X238808128Y-95746666D01*
X238781770Y-95749500D01*
X230458312Y-95749500D01*
X230369168Y-95773386D01*
X230369165Y-95773387D01*
X230289247Y-95819527D01*
X230289242Y-95819531D01*
X230283115Y-95825659D01*
X230221792Y-95859144D01*
X230195434Y-95861978D01*
X230170014Y-95861978D01*
X230031927Y-95902523D01*
X229910851Y-95980334D01*
X229816600Y-96089105D01*
X229756812Y-96220021D01*
X229736331Y-96362478D01*
X229756812Y-96504934D01*
X229798137Y-96595421D01*
X229816601Y-96635851D01*
X229910850Y-96744621D01*
X229910852Y-96744622D01*
X229922101Y-96751852D01*
X229967856Y-96804656D01*
X229977799Y-96873815D01*
X229948773Y-96937370D01*
X229942742Y-96943848D01*
X229368274Y-97518318D01*
X229306951Y-97551803D01*
X229280593Y-97554637D01*
X229006727Y-97554637D01*
X228931865Y-97574696D01*
X228931864Y-97574696D01*
X228917585Y-97578521D01*
X228917584Y-97578522D01*
X228837662Y-97624664D01*
X228837657Y-97624668D01*
X228212181Y-98250145D01*
X228150858Y-98283630D01*
X228081166Y-98278646D01*
X228025233Y-98236774D01*
X228000816Y-98171310D01*
X228000500Y-98162464D01*
X228000500Y-97697323D01*
X228000499Y-97697321D01*
X227985967Y-97624264D01*
X227985966Y-97624260D01*
X227972213Y-97603677D01*
X227930601Y-97541399D01*
X227847740Y-97486034D01*
X227847739Y-97486033D01*
X227847735Y-97486032D01*
X227774677Y-97471500D01*
X227774674Y-97471500D01*
X224225326Y-97471500D01*
X224225323Y-97471500D01*
X224152264Y-97486032D01*
X224152260Y-97486033D01*
X224069399Y-97541399D01*
X224014033Y-97624260D01*
X224014032Y-97624264D01*
X223999500Y-97697321D01*
X223999500Y-98625500D01*
X223979815Y-98692539D01*
X223927011Y-98738294D01*
X223875500Y-98749500D01*
X220677546Y-98749500D01*
X220610507Y-98729815D01*
X220589865Y-98713181D01*
X220560865Y-98684181D01*
X220527380Y-98622858D01*
X220532364Y-98553166D01*
X220574236Y-98497233D01*
X220639700Y-98472816D01*
X220648546Y-98472500D01*
X222260936Y-98472500D01*
X222260948Y-98472500D01*
X222309226Y-98469624D01*
X222519259Y-98423934D01*
X222716848Y-98339321D01*
X222890758Y-98221616D01*
X222894848Y-98218848D01*
X222894849Y-98218846D01*
X222894855Y-98218843D01*
X223046843Y-98066855D01*
X223046912Y-98066754D01*
X223100544Y-97987511D01*
X223167321Y-97888848D01*
X223251934Y-97691259D01*
X223297624Y-97481226D01*
X223300500Y-97432948D01*
X223300500Y-95511052D01*
X223297624Y-95462774D01*
X223251934Y-95252741D01*
X223187344Y-95101909D01*
X223167322Y-95055154D01*
X223046848Y-94877151D01*
X223046840Y-94877142D01*
X222894857Y-94725159D01*
X222894848Y-94725151D01*
X222716845Y-94604677D01*
X222519260Y-94520066D01*
X222519249Y-94520063D01*
X222309231Y-94474377D01*
X222309230Y-94474376D01*
X222309226Y-94474376D01*
X222260948Y-94471500D01*
X220339052Y-94471500D01*
X220290774Y-94474376D01*
X220290769Y-94474376D01*
X220290768Y-94474377D01*
X220080750Y-94520063D01*
X220080739Y-94520066D01*
X219883154Y-94604677D01*
X219705151Y-94725151D01*
X219705142Y-94725159D01*
X219553159Y-94877142D01*
X219553151Y-94877151D01*
X219432677Y-95055154D01*
X219348066Y-95252739D01*
X219348063Y-95252750D01*
X219302377Y-95462768D01*
X219302376Y-95462774D01*
X219299500Y-95511052D01*
X219299500Y-95511064D01*
X219299500Y-97123454D01*
X219279815Y-97190493D01*
X219227011Y-97236248D01*
X219157853Y-97246192D01*
X219094297Y-97217167D01*
X219087819Y-97211135D01*
X215381818Y-93505134D01*
X215348333Y-93443811D01*
X215345499Y-93417453D01*
X215345499Y-92657803D01*
X223750000Y-92657803D01*
X223750000Y-93222000D01*
X224566988Y-93222000D01*
X224534075Y-93279007D01*
X224500000Y-93406174D01*
X224500000Y-93537826D01*
X224534075Y-93664993D01*
X224566988Y-93722000D01*
X223750001Y-93722000D01*
X223750001Y-94286197D01*
X223760400Y-94418332D01*
X223815377Y-94636519D01*
X223908428Y-94841374D01*
X223908431Y-94841380D01*
X224036559Y-95026323D01*
X224036569Y-95026335D01*
X224195664Y-95185430D01*
X224195676Y-95185440D01*
X224380619Y-95313568D01*
X224380625Y-95313571D01*
X224585480Y-95406622D01*
X224803667Y-95461599D01*
X224935810Y-95471999D01*
X225749999Y-95471999D01*
X225750000Y-95471998D01*
X225750000Y-93972000D01*
X226250000Y-93972000D01*
X226250000Y-95471999D01*
X227064182Y-95471999D01*
X227064197Y-95471998D01*
X227196332Y-95461599D01*
X227414519Y-95406622D01*
X227619374Y-95313571D01*
X227619380Y-95313568D01*
X227804323Y-95185440D01*
X227804335Y-95185430D01*
X227963430Y-95026335D01*
X227963440Y-95026323D01*
X228091568Y-94841380D01*
X228091571Y-94841374D01*
X228184622Y-94636519D01*
X228239599Y-94418332D01*
X228249999Y-94286196D01*
X228250000Y-94286184D01*
X228250000Y-93722000D01*
X227433012Y-93722000D01*
X227465925Y-93664993D01*
X227500000Y-93537826D01*
X227500000Y-93406174D01*
X227465925Y-93279007D01*
X227433012Y-93222000D01*
X228249999Y-93222000D01*
X228249999Y-92657817D01*
X228249998Y-92657802D01*
X228239599Y-92525667D01*
X228184622Y-92307480D01*
X228091571Y-92102625D01*
X228091568Y-92102619D01*
X227963440Y-91917676D01*
X227963430Y-91917664D01*
X227804335Y-91758569D01*
X227804323Y-91758559D01*
X227619380Y-91630431D01*
X227619374Y-91630428D01*
X227414519Y-91537377D01*
X227196332Y-91482400D01*
X227064196Y-91472000D01*
X226250000Y-91472000D01*
X226250000Y-92972000D01*
X225750000Y-92972000D01*
X225750000Y-91472000D01*
X224935817Y-91472000D01*
X224935802Y-91472001D01*
X224803667Y-91482400D01*
X224585480Y-91537377D01*
X224380625Y-91630428D01*
X224380619Y-91630431D01*
X224195676Y-91758559D01*
X224195664Y-91758569D01*
X224036569Y-91917664D01*
X224036559Y-91917676D01*
X223908431Y-92102619D01*
X223908428Y-92102625D01*
X223815377Y-92307480D01*
X223760400Y-92525667D01*
X223750000Y-92657803D01*
X215345499Y-92657803D01*
X215345499Y-92334629D01*
X215345498Y-92334623D01*
X215342580Y-92307480D01*
X215339091Y-92275017D01*
X215304600Y-92182543D01*
X215288797Y-92140171D01*
X215288793Y-92140164D01*
X215202547Y-92024955D01*
X215202544Y-92024952D01*
X215087335Y-91938706D01*
X215087328Y-91938702D01*
X214952482Y-91888408D01*
X214952483Y-91888408D01*
X214892883Y-91882001D01*
X214892881Y-91882000D01*
X214892873Y-91882000D01*
X214892864Y-91882000D01*
X213497129Y-91882000D01*
X213497123Y-91882001D01*
X213437515Y-91888409D01*
X213348127Y-91921748D01*
X213278436Y-91926732D01*
X213217114Y-91893247D01*
X211988921Y-90665052D01*
X211988914Y-90665046D01*
X211915229Y-90615812D01*
X211915229Y-90615813D01*
X211865991Y-90582913D01*
X211729417Y-90526343D01*
X211729407Y-90526340D01*
X211584420Y-90497500D01*
X211584418Y-90497500D01*
X201488884Y-90497500D01*
X201421845Y-90477815D01*
X201401203Y-90461181D01*
X201218774Y-90278752D01*
X201022264Y-90082241D01*
X197617513Y-86677490D01*
X197491983Y-86605016D01*
X197491984Y-86605016D01*
X197456980Y-86595637D01*
X197351973Y-86567500D01*
X184712525Y-86567500D01*
X184607517Y-86595637D01*
X184572514Y-86605016D01*
X184446986Y-86677489D01*
X184446983Y-86677491D01*
X179899491Y-91224983D01*
X179899489Y-91224986D01*
X179870439Y-91275304D01*
X179842036Y-91324500D01*
X179827016Y-91350515D01*
X179789500Y-91490525D01*
X179789500Y-110435475D01*
X179791151Y-110441636D01*
X179806566Y-110499166D01*
X179810580Y-110514144D01*
X179827016Y-110575485D01*
X179899490Y-110701015D01*
X182646235Y-113447760D01*
X185186295Y-115987819D01*
X185219780Y-116049142D01*
X185214796Y-116118834D01*
X185172924Y-116174767D01*
X185107460Y-116199184D01*
X185098614Y-116199500D01*
X172924500Y-116199500D01*
X172857461Y-116179815D01*
X172811706Y-116127011D01*
X172800500Y-116075500D01*
X172800500Y-112878711D01*
X174149500Y-112878711D01*
X174149500Y-113121288D01*
X174181038Y-113360853D01*
X174181162Y-113361789D01*
X174202680Y-113442094D01*
X174243947Y-113596104D01*
X174333593Y-113812527D01*
X174336776Y-113820212D01*
X174458064Y-114030289D01*
X174458066Y-114030292D01*
X174458067Y-114030293D01*
X174605733Y-114222736D01*
X174605739Y-114222743D01*
X174777256Y-114394260D01*
X174777263Y-114394266D01*
X174825515Y-114431291D01*
X174969711Y-114541936D01*
X175179788Y-114663224D01*
X175403900Y-114756054D01*
X175638211Y-114818838D01*
X175789567Y-114838764D01*
X175878711Y-114850500D01*
X175878712Y-114850500D01*
X176121289Y-114850500D01*
X176169388Y-114844167D01*
X176361789Y-114818838D01*
X176596100Y-114756054D01*
X176820212Y-114663224D01*
X177030289Y-114541936D01*
X177222738Y-114394265D01*
X177394265Y-114222738D01*
X177541936Y-114030289D01*
X177663224Y-113820212D01*
X177756054Y-113596100D01*
X177818838Y-113361789D01*
X177850500Y-113121288D01*
X177850500Y-112878712D01*
X177844595Y-112833862D01*
X177837934Y-112783265D01*
X177818838Y-112638211D01*
X177756054Y-112403900D01*
X177663224Y-112179788D01*
X177541936Y-111969711D01*
X177451022Y-111851229D01*
X177394266Y-111777263D01*
X177394260Y-111777256D01*
X177222743Y-111605739D01*
X177222736Y-111605733D01*
X177030293Y-111458067D01*
X177030292Y-111458066D01*
X177030289Y-111458064D01*
X176842093Y-111349409D01*
X176820214Y-111336777D01*
X176820205Y-111336773D01*
X176596104Y-111243947D01*
X176361785Y-111181161D01*
X176121289Y-111149500D01*
X176121288Y-111149500D01*
X175878712Y-111149500D01*
X175878711Y-111149500D01*
X175638214Y-111181161D01*
X175403895Y-111243947D01*
X175179794Y-111336773D01*
X175179785Y-111336777D01*
X174969706Y-111458067D01*
X174777263Y-111605733D01*
X174777256Y-111605739D01*
X174605739Y-111777256D01*
X174605733Y-111777263D01*
X174458067Y-111969706D01*
X174336777Y-112179785D01*
X174336773Y-112179794D01*
X174243947Y-112403895D01*
X174181161Y-112638214D01*
X174149500Y-112878711D01*
X172800500Y-112878711D01*
X172800500Y-89378711D01*
X174149500Y-89378711D01*
X174149500Y-89621288D01*
X174181161Y-89861785D01*
X174243947Y-90096104D01*
X174336773Y-90320205D01*
X174336777Y-90320214D01*
X174351049Y-90344934D01*
X174458064Y-90530289D01*
X174458066Y-90530292D01*
X174458067Y-90530293D01*
X174605733Y-90722736D01*
X174605739Y-90722743D01*
X174777256Y-90894260D01*
X174777262Y-90894265D01*
X174969711Y-91041936D01*
X175179788Y-91163224D01*
X175403900Y-91256054D01*
X175638211Y-91318838D01*
X175818586Y-91342584D01*
X175878711Y-91350500D01*
X175878712Y-91350500D01*
X176121289Y-91350500D01*
X176169388Y-91344167D01*
X176361789Y-91318838D01*
X176596100Y-91256054D01*
X176820212Y-91163224D01*
X177030289Y-91041936D01*
X177222738Y-90894265D01*
X177394265Y-90722738D01*
X177541936Y-90530289D01*
X177663224Y-90320212D01*
X177756054Y-90096100D01*
X177818838Y-89861789D01*
X177850500Y-89621288D01*
X177850500Y-89378712D01*
X177850475Y-89378525D01*
X177818838Y-89138214D01*
X177818838Y-89138211D01*
X177756054Y-88903900D01*
X177663224Y-88679788D01*
X177541936Y-88469711D01*
X177481018Y-88390321D01*
X177394266Y-88277263D01*
X177394260Y-88277256D01*
X177222743Y-88105739D01*
X177222736Y-88105733D01*
X177030293Y-87958067D01*
X177030292Y-87958066D01*
X177030289Y-87958064D01*
X176820212Y-87836776D01*
X176755924Y-87810147D01*
X176596104Y-87743947D01*
X176361785Y-87681161D01*
X176121289Y-87649500D01*
X176121288Y-87649500D01*
X175878712Y-87649500D01*
X175878711Y-87649500D01*
X175638214Y-87681161D01*
X175403895Y-87743947D01*
X175179794Y-87836773D01*
X175179785Y-87836777D01*
X174969706Y-87958067D01*
X174777263Y-88105733D01*
X174777256Y-88105739D01*
X174605739Y-88277256D01*
X174605733Y-88277263D01*
X174458067Y-88469706D01*
X174336777Y-88679785D01*
X174336773Y-88679794D01*
X174243947Y-88903895D01*
X174181161Y-89138214D01*
X174149500Y-89378711D01*
X172800500Y-89378711D01*
X172800500Y-86424500D01*
X172820185Y-86357461D01*
X172872989Y-86311706D01*
X172924500Y-86300500D01*
X248276100Y-86300500D01*
X248343139Y-86320185D01*
G37*
%TD.AperFunction*%
%TA.AperFunction,Conductor*%
G36*
X254453461Y-99543185D02*
G01*
X254499216Y-99595989D01*
X254509160Y-99665147D01*
X254485688Y-99721812D01*
X254467647Y-99745910D01*
X254467645Y-99745913D01*
X254417403Y-99880620D01*
X254417401Y-99880627D01*
X254411000Y-99940155D01*
X254411000Y-100588000D01*
X255327988Y-100588000D01*
X255295075Y-100645007D01*
X255261000Y-100772174D01*
X255261000Y-100903826D01*
X255295075Y-101030993D01*
X255327988Y-101088000D01*
X254411000Y-101088000D01*
X254411000Y-101735844D01*
X254417401Y-101795372D01*
X254417403Y-101795379D01*
X254467645Y-101930086D01*
X254467649Y-101930093D01*
X254553809Y-102045187D01*
X254553812Y-102045190D01*
X254668906Y-102131350D01*
X254668913Y-102131354D01*
X254803620Y-102181596D01*
X254803627Y-102181598D01*
X254863155Y-102187999D01*
X254863172Y-102188000D01*
X255511000Y-102188000D01*
X255511000Y-101271012D01*
X255568007Y-101303925D01*
X255695174Y-101338000D01*
X255826826Y-101338000D01*
X255953993Y-101303925D01*
X256011000Y-101271012D01*
X256011000Y-102188000D01*
X256658828Y-102188000D01*
X256658844Y-102187999D01*
X256718372Y-102181598D01*
X256718379Y-102181596D01*
X256853086Y-102131354D01*
X256853093Y-102131350D01*
X256968187Y-102045190D01*
X256976232Y-102034444D01*
X257032165Y-101992572D01*
X257101857Y-101987586D01*
X257163180Y-102021071D01*
X257196666Y-102082393D01*
X257199500Y-102108753D01*
X257199500Y-116075500D01*
X257179815Y-116142539D01*
X257127011Y-116188294D01*
X257075500Y-116199500D01*
X235560604Y-116199500D01*
X235493565Y-116179815D01*
X235447810Y-116127011D01*
X235437866Y-116057853D01*
X235438987Y-116051306D01*
X235439418Y-116049142D01*
X235441500Y-116038674D01*
X235441500Y-115669917D01*
X235461185Y-115602878D01*
X235513989Y-115557123D01*
X235583147Y-115547179D01*
X235646703Y-115576204D01*
X235681682Y-115626585D01*
X235706201Y-115692326D01*
X235706206Y-115692335D01*
X235792452Y-115807544D01*
X235792455Y-115807547D01*
X235907664Y-115893793D01*
X235907671Y-115893797D01*
X235952618Y-115910561D01*
X236042517Y-115944091D01*
X236102127Y-115950500D01*
X236847872Y-115950499D01*
X236907483Y-115944091D01*
X237042331Y-115893796D01*
X237157546Y-115807546D01*
X237243796Y-115692331D01*
X237294091Y-115557483D01*
X237300500Y-115497873D01*
X237300499Y-114502128D01*
X237294091Y-114442517D01*
X237289284Y-114429630D01*
X237243797Y-114307671D01*
X237243793Y-114307664D01*
X237157547Y-114192455D01*
X237157544Y-114192452D01*
X237042335Y-114106206D01*
X237042328Y-114106202D01*
X236907482Y-114055908D01*
X236907484Y-114055908D01*
X236867081Y-114051565D01*
X236802530Y-114024827D01*
X236762682Y-113967435D01*
X236760189Y-113897609D01*
X236795842Y-113837521D01*
X236854386Y-113807022D01*
X236860652Y-113805680D01*
X237024300Y-113751453D01*
X237024311Y-113751448D01*
X237171034Y-113660947D01*
X237171038Y-113660944D01*
X237292944Y-113539038D01*
X237292947Y-113539034D01*
X237383448Y-113392311D01*
X237383451Y-113392303D01*
X237393873Y-113360853D01*
X237433645Y-113303407D01*
X237498160Y-113276583D01*
X237566936Y-113288897D01*
X237610846Y-113325543D01*
X237686883Y-113427115D01*
X237789825Y-113504178D01*
X237799222Y-113511212D01*
X237878862Y-113540916D01*
X237930700Y-113560251D01*
X237988809Y-113566499D01*
X237988826Y-113566500D01*
X238050500Y-113566500D01*
X238117539Y-113586185D01*
X238163294Y-113638989D01*
X238174500Y-113690500D01*
X238174500Y-113939235D01*
X238154815Y-114006274D01*
X238102011Y-114052029D01*
X238093834Y-114055417D01*
X237957669Y-114106203D01*
X237957664Y-114106206D01*
X237842455Y-114192452D01*
X237842452Y-114192455D01*
X237756206Y-114307664D01*
X237756202Y-114307671D01*
X237705908Y-114442517D01*
X237702313Y-114475962D01*
X237699501Y-114502123D01*
X237699500Y-114502135D01*
X237699500Y-115497870D01*
X237699501Y-115497876D01*
X237705908Y-115557483D01*
X237756202Y-115692328D01*
X237756206Y-115692335D01*
X237842452Y-115807544D01*
X237842455Y-115807547D01*
X237957664Y-115893793D01*
X237957671Y-115893797D01*
X238002618Y-115910561D01*
X238092517Y-115944091D01*
X238152127Y-115950500D01*
X238897872Y-115950499D01*
X238957483Y-115944091D01*
X239092331Y-115893796D01*
X239207546Y-115807546D01*
X239293796Y-115692331D01*
X239344091Y-115557483D01*
X239350500Y-115497873D01*
X239350499Y-114502128D01*
X239344091Y-114442517D01*
X239339284Y-114429630D01*
X239293797Y-114307671D01*
X239293793Y-114307664D01*
X239207547Y-114192455D01*
X239207544Y-114192452D01*
X239092335Y-114106206D01*
X239092330Y-114106203D01*
X238956166Y-114055417D01*
X238900233Y-114013545D01*
X238875816Y-113948081D01*
X238875500Y-113939235D01*
X238875500Y-113479897D01*
X238895185Y-113412858D01*
X238900233Y-113405586D01*
X238903816Y-113400800D01*
X238968212Y-113314778D01*
X239017251Y-113183299D01*
X239018358Y-113173000D01*
X239023499Y-113125190D01*
X239023500Y-113125173D01*
X239023500Y-112878711D01*
X241149500Y-112878711D01*
X241149500Y-113121288D01*
X241181038Y-113360853D01*
X241181162Y-113361789D01*
X241202680Y-113442094D01*
X241243947Y-113596104D01*
X241333593Y-113812527D01*
X241336776Y-113820212D01*
X241458064Y-114030289D01*
X241458066Y-114030292D01*
X241458067Y-114030293D01*
X241605733Y-114222736D01*
X241605739Y-114222743D01*
X241777256Y-114394260D01*
X241777263Y-114394266D01*
X241825515Y-114431291D01*
X241969711Y-114541936D01*
X242179788Y-114663224D01*
X242403900Y-114756054D01*
X242638211Y-114818838D01*
X242789567Y-114838764D01*
X242878711Y-114850500D01*
X242878712Y-114850500D01*
X243121289Y-114850500D01*
X243169388Y-114844167D01*
X243361789Y-114818838D01*
X243596100Y-114756054D01*
X243820212Y-114663224D01*
X244030289Y-114541936D01*
X244222738Y-114394265D01*
X244394265Y-114222738D01*
X244541936Y-114030289D01*
X244663224Y-113820212D01*
X244756054Y-113596100D01*
X244818838Y-113361789D01*
X244850500Y-113121288D01*
X244850500Y-112878712D01*
X244844595Y-112833862D01*
X244837934Y-112783265D01*
X244818838Y-112638211D01*
X244756054Y-112403900D01*
X244663224Y-112179788D01*
X244541936Y-111969711D01*
X244451022Y-111851229D01*
X244394266Y-111777263D01*
X244394260Y-111777256D01*
X244222743Y-111605739D01*
X244222736Y-111605733D01*
X244030293Y-111458067D01*
X244030292Y-111458066D01*
X244030289Y-111458064D01*
X243842093Y-111349409D01*
X243820214Y-111336777D01*
X243820205Y-111336773D01*
X243596104Y-111243947D01*
X243361785Y-111181161D01*
X243121289Y-111149500D01*
X243121288Y-111149500D01*
X242878712Y-111149500D01*
X242878711Y-111149500D01*
X242638214Y-111181161D01*
X242403895Y-111243947D01*
X242179794Y-111336773D01*
X242179785Y-111336777D01*
X241969706Y-111458067D01*
X241777263Y-111605733D01*
X241777256Y-111605739D01*
X241605739Y-111777256D01*
X241605733Y-111777263D01*
X241458067Y-111969706D01*
X241336777Y-112179785D01*
X241336773Y-112179794D01*
X241243947Y-112403895D01*
X241181161Y-112638214D01*
X241149500Y-112878711D01*
X239023500Y-112878711D01*
X239023500Y-112556826D01*
X239023499Y-112556809D01*
X239017251Y-112498700D01*
X238985460Y-112413467D01*
X238968212Y-112367222D01*
X238966174Y-112364500D01*
X238940209Y-112329815D01*
X238884116Y-112254884D01*
X238797394Y-112189964D01*
X238771780Y-112170789D01*
X238771778Y-112170788D01*
X238745144Y-112160854D01*
X238640299Y-112121748D01*
X238582190Y-112115500D01*
X238582174Y-112115500D01*
X237988826Y-112115500D01*
X237988809Y-112115500D01*
X237930700Y-112121748D01*
X237799219Y-112170789D01*
X237686883Y-112254884D01*
X237610846Y-112356456D01*
X237554912Y-112398326D01*
X237485220Y-112403310D01*
X237423897Y-112369824D01*
X237393874Y-112321147D01*
X237383454Y-112289701D01*
X237383448Y-112289688D01*
X237292947Y-112142965D01*
X237292944Y-112142961D01*
X237171038Y-112021055D01*
X237171034Y-112021052D01*
X237024311Y-111930551D01*
X237024300Y-111930546D01*
X236860652Y-111876319D01*
X236759654Y-111866000D01*
X236710500Y-111866000D01*
X236710500Y-112967000D01*
X236690815Y-113034039D01*
X236638011Y-113079794D01*
X236586500Y-113091000D01*
X235473001Y-113091000D01*
X235473001Y-113127654D01*
X235483319Y-113228652D01*
X235537546Y-113392300D01*
X235537548Y-113392305D01*
X235549226Y-113411237D01*
X235567666Y-113478630D01*
X235546743Y-113545293D01*
X235507663Y-113578540D01*
X235509407Y-113581253D01*
X235501947Y-113586046D01*
X235501947Y-113586047D01*
X235458650Y-113613872D01*
X235380873Y-113663856D01*
X235380872Y-113663856D01*
X235380872Y-113663857D01*
X235357786Y-113690500D01*
X235341988Y-113708732D01*
X235283209Y-113746506D01*
X235213340Y-113746506D01*
X235154562Y-113708731D01*
X235131093Y-113657342D01*
X235128665Y-113658056D01*
X235126165Y-113649544D01*
X235121992Y-113640405D01*
X235066377Y-113518627D01*
X235066374Y-113518623D01*
X235021786Y-113467164D01*
X234992762Y-113403608D01*
X234991500Y-113385963D01*
X234991500Y-112554345D01*
X235473000Y-112554345D01*
X235473000Y-112591000D01*
X236210500Y-112591000D01*
X236210500Y-111866000D01*
X236210499Y-111865999D01*
X236161361Y-111866000D01*
X236161343Y-111866001D01*
X236060347Y-111876319D01*
X235896699Y-111930546D01*
X235896688Y-111930551D01*
X235749965Y-112021052D01*
X235749961Y-112021055D01*
X235628055Y-112142961D01*
X235628052Y-112142965D01*
X235537551Y-112289688D01*
X235537546Y-112289699D01*
X235483319Y-112453347D01*
X235473000Y-112554345D01*
X234991500Y-112554345D01*
X234991500Y-110188500D01*
X235011185Y-110121461D01*
X235063989Y-110075706D01*
X235115500Y-110064500D01*
X235215676Y-110064500D01*
X235215677Y-110064499D01*
X235288740Y-110049966D01*
X235371601Y-109994601D01*
X235426966Y-109911740D01*
X235441500Y-109838674D01*
X235441500Y-107989326D01*
X235441500Y-107989323D01*
X235441499Y-107989321D01*
X235426967Y-107916264D01*
X235426966Y-107916260D01*
X235405744Y-107884499D01*
X235371601Y-107833399D01*
X235288740Y-107778034D01*
X235288739Y-107778033D01*
X235288735Y-107778032D01*
X235215677Y-107763500D01*
X235215674Y-107763500D01*
X234066326Y-107763500D01*
X234066323Y-107763500D01*
X233993264Y-107778032D01*
X233993260Y-107778033D01*
X233910399Y-107833399D01*
X233855033Y-107916260D01*
X233850360Y-107927544D01*
X233848798Y-107926897D01*
X233823062Y-107976100D01*
X233762347Y-108010676D01*
X233733828Y-108014000D01*
X232107525Y-108014000D01*
X232040486Y-107994315D01*
X231994731Y-107941511D01*
X231987177Y-107913979D01*
X231986380Y-107914168D01*
X231984596Y-107906620D01*
X231934354Y-107771913D01*
X231934350Y-107771906D01*
X231848190Y-107656812D01*
X231848187Y-107656809D01*
X231733093Y-107570649D01*
X231733086Y-107570645D01*
X231598379Y-107520403D01*
X231598372Y-107520401D01*
X231538844Y-107514000D01*
X231191000Y-107514000D01*
X231191000Y-110314000D01*
X231367000Y-110314000D01*
X231434039Y-110333685D01*
X231479794Y-110386489D01*
X231491000Y-110438000D01*
X231491000Y-111014000D01*
X234101127Y-111014000D01*
X234140142Y-110992696D01*
X234209834Y-110997680D01*
X234265767Y-111039552D01*
X234290184Y-111105016D01*
X234290500Y-111113862D01*
X234290500Y-112914138D01*
X234270815Y-112981177D01*
X234218011Y-113026932D01*
X234148853Y-113036876D01*
X234098761Y-113014000D01*
X234091000Y-113014000D01*
X231491000Y-113014000D01*
X231491000Y-113590000D01*
X231471315Y-113657039D01*
X231418511Y-113702794D01*
X231367000Y-113714000D01*
X231191000Y-113714000D01*
X231191000Y-115240000D01*
X231171315Y-115307039D01*
X231118511Y-115352794D01*
X231067000Y-115364000D01*
X230815000Y-115364000D01*
X230747961Y-115344315D01*
X230702206Y-115291511D01*
X230691000Y-115240000D01*
X230691000Y-113714000D01*
X230343155Y-113714000D01*
X230283627Y-113720401D01*
X230283620Y-113720403D01*
X230220244Y-113744041D01*
X230150552Y-113749025D01*
X230089229Y-113715540D01*
X230055745Y-113654217D01*
X230052911Y-113627859D01*
X230052911Y-110400140D01*
X230072596Y-110333101D01*
X230125400Y-110287346D01*
X230194558Y-110277402D01*
X230220246Y-110283959D01*
X230283619Y-110307596D01*
X230283627Y-110307598D01*
X230343155Y-110313999D01*
X230343172Y-110314000D01*
X230691000Y-110314000D01*
X230691000Y-107514000D01*
X230386500Y-107514000D01*
X230319461Y-107494315D01*
X230273706Y-107441511D01*
X230262500Y-107390000D01*
X230262500Y-107088544D01*
X230282185Y-107021505D01*
X230298819Y-107000863D01*
X230629863Y-106669819D01*
X230691186Y-106636334D01*
X230717544Y-106633500D01*
X232075142Y-106633500D01*
X232075144Y-106633500D01*
X232164288Y-106609614D01*
X232182076Y-106599344D01*
X232244212Y-106563470D01*
X232537980Y-106269700D01*
X232599299Y-106236218D01*
X232627806Y-106233928D01*
X232627806Y-106233500D01*
X232631126Y-106233499D01*
X232631127Y-106233500D01*
X233426872Y-106233499D01*
X233486483Y-106227091D01*
X233621331Y-106176796D01*
X233736546Y-106090546D01*
X233822796Y-105975331D01*
X233873091Y-105840483D01*
X233879500Y-105780873D01*
X233879500Y-105780845D01*
X233879678Y-105777548D01*
X233880934Y-105777615D01*
X233899185Y-105715461D01*
X233951989Y-105669706D01*
X234003500Y-105658500D01*
X234110435Y-105658500D01*
X234110436Y-105658500D01*
X234158186Y-105645705D01*
X234205938Y-105632910D01*
X234291562Y-105583475D01*
X234361475Y-105513562D01*
X234361474Y-105513562D01*
X234420043Y-105454993D01*
X235178219Y-104696819D01*
X235239542Y-104663334D01*
X235265900Y-104660500D01*
X240519050Y-104660500D01*
X240586089Y-104680185D01*
X240619371Y-104711619D01*
X240624212Y-104718283D01*
X240716713Y-104810784D01*
X240716716Y-104810786D01*
X240716719Y-104810789D01*
X240833285Y-104870182D01*
X240833286Y-104870182D01*
X240833288Y-104870183D01*
X240833287Y-104870183D01*
X240876618Y-104877045D01*
X240929997Y-104885500D01*
X242096500Y-104885499D01*
X242163539Y-104905184D01*
X242209294Y-104957987D01*
X242220500Y-105009499D01*
X242220500Y-107678537D01*
X242229479Y-107712049D01*
X242229480Y-107712049D01*
X242229480Y-107712050D01*
X242243266Y-107763500D01*
X242246091Y-107774040D01*
X242295055Y-107858848D01*
X242295526Y-107859663D01*
X242295528Y-107859666D01*
X242467676Y-108031813D01*
X242625425Y-108189562D01*
X242695338Y-108259475D01*
X242770518Y-108302880D01*
X242780962Y-108308910D01*
X242828711Y-108321705D01*
X242828712Y-108321705D01*
X242838803Y-108324408D01*
X242876464Y-108334500D01*
X242876465Y-108334500D01*
X242876466Y-108334500D01*
X244545435Y-108334500D01*
X244545436Y-108334500D01*
X244593186Y-108321705D01*
X244640938Y-108308910D01*
X244726562Y-108259475D01*
X244796475Y-108189562D01*
X245065220Y-107920815D01*
X245126539Y-107887333D01*
X245152889Y-107884499D01*
X245918872Y-107884499D01*
X245978483Y-107878091D01*
X246113331Y-107827796D01*
X246228546Y-107741546D01*
X246314796Y-107626331D01*
X246365091Y-107491483D01*
X246371500Y-107431873D01*
X246371499Y-107099652D01*
X246391183Y-107032615D01*
X246443987Y-106986860D01*
X246513146Y-106976916D01*
X246562539Y-106995339D01*
X246589948Y-107012954D01*
X246728036Y-107053499D01*
X246728038Y-107053500D01*
X246875500Y-107053500D01*
X246942539Y-107073185D01*
X246988294Y-107125989D01*
X246999500Y-107177500D01*
X246999500Y-112313440D01*
X247007053Y-112341627D01*
X247025089Y-112408936D01*
X247025089Y-112408937D01*
X247029384Y-112416376D01*
X247074525Y-112494562D01*
X247074526Y-112494563D01*
X247074527Y-112494564D01*
X247413181Y-112833218D01*
X247446666Y-112894541D01*
X247449500Y-112920899D01*
X247449500Y-114197870D01*
X247449501Y-114197876D01*
X247455908Y-114257483D01*
X247506202Y-114392328D01*
X247506206Y-114392335D01*
X247592452Y-114507544D01*
X247592455Y-114507547D01*
X247707664Y-114593793D01*
X247707671Y-114593797D01*
X247842517Y-114644091D01*
X247842516Y-114644091D01*
X247849444Y-114644835D01*
X247902127Y-114650500D01*
X251097872Y-114650499D01*
X251157483Y-114644091D01*
X251292331Y-114593796D01*
X251407546Y-114507546D01*
X251493796Y-114392331D01*
X251544091Y-114257483D01*
X251550500Y-114197873D01*
X251550499Y-112802128D01*
X251544091Y-112742517D01*
X251543560Y-112741094D01*
X251493797Y-112607671D01*
X251493793Y-112607664D01*
X251407547Y-112492455D01*
X251407544Y-112492452D01*
X251292335Y-112406206D01*
X251292328Y-112406202D01*
X251157482Y-112355908D01*
X251157483Y-112355908D01*
X251097883Y-112349501D01*
X251097881Y-112349500D01*
X251097873Y-112349500D01*
X251097865Y-112349500D01*
X248042899Y-112349500D01*
X247975860Y-112329815D01*
X247955218Y-112313181D01*
X247786819Y-112144782D01*
X247753334Y-112083459D01*
X247750500Y-112057101D01*
X247750500Y-111048263D01*
X247770185Y-110981224D01*
X247822989Y-110935469D01*
X247892147Y-110925525D01*
X247947385Y-110947945D01*
X247976170Y-110968858D01*
X247997006Y-110983996D01*
X248102484Y-111037740D01*
X248158360Y-111066211D01*
X248158363Y-111066212D01*
X248244476Y-111094191D01*
X248330591Y-111122171D01*
X248413429Y-111135291D01*
X248509449Y-111150500D01*
X248509454Y-111150500D01*
X250490551Y-111150500D01*
X250577259Y-111136765D01*
X250669409Y-111122171D01*
X250835424Y-111068230D01*
X250841636Y-111066212D01*
X250841639Y-111066211D01*
X250844964Y-111064517D01*
X251002994Y-110983996D01*
X251149501Y-110877553D01*
X251277553Y-110749501D01*
X251383996Y-110602994D01*
X251466211Y-110441639D01*
X251522171Y-110269409D01*
X251540423Y-110154173D01*
X251550500Y-110090551D01*
X251550500Y-109909448D01*
X251529741Y-109778386D01*
X251522171Y-109730591D01*
X251480065Y-109601000D01*
X251466212Y-109558363D01*
X251466211Y-109558360D01*
X251432586Y-109492368D01*
X251383996Y-109397006D01*
X251333852Y-109327988D01*
X251277558Y-109250505D01*
X251277554Y-109250500D01*
X251149499Y-109122445D01*
X251149494Y-109122441D01*
X251002997Y-109016006D01*
X251002996Y-109016005D01*
X251002994Y-109016004D01*
X250935190Y-108981456D01*
X250841639Y-108933788D01*
X250841636Y-108933787D01*
X250669410Y-108877829D01*
X250490551Y-108849500D01*
X250490546Y-108849500D01*
X249999500Y-108849500D01*
X249932461Y-108829815D01*
X249886706Y-108777011D01*
X249875500Y-108725500D01*
X249875500Y-108091399D01*
X249895185Y-108024360D01*
X249911819Y-108003718D01*
X253104719Y-104810819D01*
X253166042Y-104777334D01*
X253192400Y-104774500D01*
X253632174Y-104774500D01*
X253632190Y-104774499D01*
X253690299Y-104768251D01*
X253719831Y-104757236D01*
X253821778Y-104719212D01*
X253934116Y-104635116D01*
X254018212Y-104522778D01*
X254067251Y-104391299D01*
X254067586Y-104388181D01*
X254073499Y-104333190D01*
X254073500Y-104333173D01*
X254073500Y-103739826D01*
X254073499Y-103739809D01*
X254067251Y-103681700D01*
X254052665Y-103642594D01*
X254018212Y-103550222D01*
X253934116Y-103437884D01*
X253836717Y-103364971D01*
X253821780Y-103353789D01*
X253821778Y-103353788D01*
X253795144Y-103343854D01*
X253690299Y-103304748D01*
X253632190Y-103298500D01*
X253632174Y-103298500D01*
X253063826Y-103298500D01*
X253063809Y-103298500D01*
X253005700Y-103304748D01*
X252874219Y-103353789D01*
X252761884Y-103437884D01*
X252677789Y-103550219D01*
X252628748Y-103681700D01*
X252622500Y-103739809D01*
X252622500Y-103869419D01*
X252602815Y-103936458D01*
X252550011Y-103982213D01*
X252480853Y-103992157D01*
X252417297Y-103963132D01*
X252388016Y-103925715D01*
X252382842Y-103915562D01*
X252375789Y-103901719D01*
X252375785Y-103901715D01*
X252375784Y-103901713D01*
X252283286Y-103809215D01*
X252283282Y-103809212D01*
X252283281Y-103809211D01*
X252166715Y-103749818D01*
X252166714Y-103749817D01*
X252166711Y-103749816D01*
X252166712Y-103749816D01*
X252070003Y-103734500D01*
X249979992Y-103734500D01*
X249979992Y-103734501D01*
X249883286Y-103749817D01*
X249883285Y-103749817D01*
X249831962Y-103775968D01*
X249766719Y-103809211D01*
X249766718Y-103809212D01*
X249766713Y-103809215D01*
X249674215Y-103901713D01*
X249674210Y-103901720D01*
X249614816Y-104018288D01*
X249599500Y-104114996D01*
X249599500Y-104505007D01*
X249614817Y-104601713D01*
X249614817Y-104601714D01*
X249634362Y-104640073D01*
X249674211Y-104718281D01*
X249674213Y-104718283D01*
X249674215Y-104718286D01*
X249766713Y-104810784D01*
X249766716Y-104810786D01*
X249766719Y-104810789D01*
X249883285Y-104870182D01*
X249883286Y-104870182D01*
X249883288Y-104870183D01*
X249883287Y-104870183D01*
X249926618Y-104877045D01*
X249979997Y-104885500D01*
X251668600Y-104885499D01*
X251735639Y-104905184D01*
X251781394Y-104957987D01*
X251791338Y-105027146D01*
X251762313Y-105090702D01*
X251756281Y-105097180D01*
X249269438Y-107584025D01*
X249199527Y-107653935D01*
X249199525Y-107653937D01*
X249199525Y-107653938D01*
X249197866Y-107656812D01*
X249150089Y-107739562D01*
X249150089Y-107739563D01*
X249140851Y-107774037D01*
X249140852Y-107774038D01*
X249126449Y-107827791D01*
X249126448Y-107827794D01*
X249124500Y-107835063D01*
X249124500Y-108725500D01*
X249104815Y-108792539D01*
X249052011Y-108838294D01*
X249000500Y-108849500D01*
X248509449Y-108849500D01*
X248330589Y-108877829D01*
X248158363Y-108933787D01*
X248158360Y-108933788D01*
X247997003Y-109016005D01*
X247947384Y-109052055D01*
X247881577Y-109075534D01*
X247813524Y-109059708D01*
X247764830Y-109009601D01*
X247750500Y-108951736D01*
X247750500Y-106669500D01*
X247770185Y-106602461D01*
X247822989Y-106556706D01*
X247874500Y-106545500D01*
X248021962Y-106545500D01*
X248021962Y-106545499D01*
X248140647Y-106510651D01*
X248160050Y-106504954D01*
X248160050Y-106504953D01*
X248160053Y-106504953D01*
X248281128Y-106427143D01*
X248375377Y-106318373D01*
X248435165Y-106187457D01*
X248455647Y-106045000D01*
X248435165Y-105902543D01*
X248375377Y-105771627D01*
X248355785Y-105749016D01*
X248326762Y-105685460D01*
X248325500Y-105667815D01*
X248325500Y-103076899D01*
X248345185Y-103009860D01*
X248361819Y-102989218D01*
X248868084Y-102482953D01*
X249398231Y-101952805D01*
X249459552Y-101919322D01*
X249529244Y-101924306D01*
X249585177Y-101966178D01*
X249608383Y-102021090D01*
X249614817Y-102061713D01*
X249614817Y-102061714D01*
X249634362Y-102100073D01*
X249674211Y-102178281D01*
X249674213Y-102178283D01*
X249674215Y-102178286D01*
X249766713Y-102270784D01*
X249766716Y-102270786D01*
X249766719Y-102270789D01*
X249883285Y-102330182D01*
X249883286Y-102330182D01*
X249883288Y-102330183D01*
X249883287Y-102330183D01*
X249926618Y-102337045D01*
X249979997Y-102345500D01*
X252070002Y-102345499D01*
X252070007Y-102345499D01*
X252070007Y-102345498D01*
X252166715Y-102330182D01*
X252283281Y-102270789D01*
X252323070Y-102231000D01*
X252372252Y-102181819D01*
X252433575Y-102148334D01*
X252459933Y-102145500D01*
X252498500Y-102145500D01*
X252565539Y-102165185D01*
X252611294Y-102217989D01*
X252622500Y-102269500D01*
X252622500Y-102508190D01*
X252628748Y-102566299D01*
X252659804Y-102649562D01*
X252677788Y-102697778D01*
X252761884Y-102810116D01*
X252811966Y-102847607D01*
X252857553Y-102881734D01*
X252874222Y-102894212D01*
X252966594Y-102928665D01*
X253005700Y-102943251D01*
X253063809Y-102949499D01*
X253063826Y-102949500D01*
X253632174Y-102949500D01*
X253632190Y-102949499D01*
X253690299Y-102943251D01*
X253704125Y-102938094D01*
X253821778Y-102894212D01*
X253934116Y-102810116D01*
X254018212Y-102697778D01*
X254067251Y-102566299D01*
X254068611Y-102553648D01*
X254073499Y-102508190D01*
X254073500Y-102508173D01*
X254073500Y-101914826D01*
X254073499Y-101914809D01*
X254067251Y-101856700D01*
X254044379Y-101795379D01*
X254018212Y-101725222D01*
X254007821Y-101711342D01*
X253982639Y-101677703D01*
X253934116Y-101612884D01*
X253821778Y-101528788D01*
X253821776Y-101528787D01*
X253821777Y-101528787D01*
X253804163Y-101522217D01*
X253748230Y-101480344D01*
X253723816Y-101414879D01*
X253723500Y-101406037D01*
X253723500Y-101164695D01*
X253743185Y-101097656D01*
X253793040Y-101053294D01*
X253826347Y-101037012D01*
X253912012Y-100951347D01*
X253965220Y-100842509D01*
X253975500Y-100771949D01*
X253975499Y-100328052D01*
X253974761Y-100322989D01*
X253968262Y-100278372D01*
X253965220Y-100257491D01*
X253912012Y-100148653D01*
X253912010Y-100148651D01*
X253912010Y-100148650D01*
X253826348Y-100062988D01*
X253717511Y-100009780D01*
X253699869Y-100007210D01*
X253646949Y-99999500D01*
X253646943Y-99999500D01*
X253492898Y-99999500D01*
X253425859Y-99979815D01*
X253380104Y-99927011D01*
X253370160Y-99857853D01*
X253399185Y-99794297D01*
X253405205Y-99787831D01*
X253633218Y-99559819D01*
X253694541Y-99526334D01*
X253720899Y-99523500D01*
X254386422Y-99523500D01*
X254453461Y-99543185D01*
G37*
%TD.AperFunction*%
%TA.AperFunction,Conductor*%
G36*
X218419744Y-113762147D02*
G01*
X218464091Y-113790648D01*
X219613261Y-114939818D01*
X219613264Y-114939820D01*
X219675207Y-114981209D01*
X219675209Y-114981209D01*
X219675211Y-114981210D01*
X219772945Y-115000651D01*
X219772947Y-115000651D01*
X219772949Y-115000651D01*
X219870686Y-114981210D01*
X219870688Y-114981209D01*
X219882273Y-114973468D01*
X219932630Y-114939820D01*
X220094225Y-114778224D01*
X220155543Y-114744742D01*
X220225235Y-114749726D01*
X220281169Y-114791597D01*
X220294695Y-114814394D01*
X220300621Y-114827370D01*
X220300623Y-114827373D01*
X220394872Y-114936143D01*
X220515947Y-115013953D01*
X220515950Y-115013954D01*
X220515949Y-115013954D01*
X220601117Y-115038961D01*
X220640409Y-115050498D01*
X220654036Y-115054499D01*
X220654038Y-115054500D01*
X220654039Y-115054500D01*
X220679456Y-115054500D01*
X220746495Y-115074185D01*
X220767137Y-115090819D01*
X221121137Y-115444819D01*
X221154622Y-115506142D01*
X221149638Y-115575834D01*
X221107766Y-115631767D01*
X221042302Y-115656184D01*
X221033456Y-115656500D01*
X219569547Y-115656500D01*
X219502508Y-115636815D01*
X219481866Y-115620181D01*
X218058212Y-114196527D01*
X218024727Y-114135204D01*
X218029711Y-114065512D01*
X218058212Y-114021165D01*
X218134649Y-113944728D01*
X218288731Y-113790646D01*
X218350052Y-113757163D01*
X218419744Y-113762147D01*
G37*
%TD.AperFunction*%
%TA.AperFunction,Conductor*%
G36*
X219405833Y-110265829D02*
G01*
X219461767Y-110307700D01*
X219486184Y-110373165D01*
X219486500Y-110382011D01*
X219486500Y-111072419D01*
X219504828Y-111140818D01*
X219508169Y-111153288D01*
X219510386Y-111161564D01*
X219556527Y-111241483D01*
X219556531Y-111241488D01*
X219844010Y-111528967D01*
X219877495Y-111590290D01*
X219872511Y-111659982D01*
X219844010Y-111704329D01*
X219790624Y-111757715D01*
X219790624Y-111757716D01*
X220540034Y-112507126D01*
X220583412Y-112519864D01*
X220604054Y-112536498D01*
X220850321Y-112782765D01*
X220883806Y-112844088D01*
X220884626Y-112851718D01*
X221629101Y-113596194D01*
X221629103Y-113596194D01*
X221680597Y-113544701D01*
X221680601Y-113544695D01*
X221719138Y-113496873D01*
X221776530Y-113457023D01*
X221846355Y-113454528D01*
X221906444Y-113490179D01*
X221917700Y-113504178D01*
X221919499Y-113506781D01*
X221933123Y-113522734D01*
X222572908Y-112882950D01*
X222634231Y-112849465D01*
X222703923Y-112854449D01*
X222748270Y-112882950D01*
X223406236Y-113540916D01*
X223479578Y-113407509D01*
X223519791Y-113250891D01*
X223519792Y-113250886D01*
X223519792Y-113119426D01*
X223539477Y-113052387D01*
X223570907Y-113019108D01*
X223615016Y-112987061D01*
X223699723Y-112902352D01*
X223761042Y-112868869D01*
X223830734Y-112873852D01*
X223875083Y-112902354D01*
X223968267Y-112995538D01*
X224001752Y-113056861D01*
X224003701Y-113098001D01*
X223998911Y-113137898D01*
X223998911Y-113824102D01*
X224002277Y-113852128D01*
X224009533Y-113912561D01*
X224009533Y-113912563D01*
X224009534Y-113912564D01*
X224023540Y-113948081D01*
X224065050Y-114053343D01*
X224156488Y-114173922D01*
X224277067Y-114265360D01*
X224277068Y-114265360D01*
X224277069Y-114265361D01*
X224417847Y-114320877D01*
X224506309Y-114331500D01*
X224709505Y-114331500D01*
X224776544Y-114351185D01*
X224822299Y-114403989D01*
X224832243Y-114473147D01*
X224803218Y-114536703D01*
X224782215Y-114553628D01*
X224783285Y-114555057D01*
X224666724Y-114642313D01*
X224584784Y-114751771D01*
X224561427Y-114814394D01*
X224542036Y-114866383D01*
X224536998Y-114879889D01*
X224530911Y-114936498D01*
X224530911Y-114936515D01*
X224530912Y-115530804D01*
X224529656Y-115530804D01*
X224514760Y-115593854D01*
X224464484Y-115642372D01*
X224407003Y-115656500D01*
X224392054Y-115656500D01*
X224325015Y-115636815D01*
X224279260Y-115584011D01*
X224269316Y-115514853D01*
X224269864Y-115511044D01*
X224279647Y-115443000D01*
X224259165Y-115300543D01*
X224199377Y-115169627D01*
X224105128Y-115060857D01*
X223984053Y-114983047D01*
X223984051Y-114983046D01*
X223984049Y-114983045D01*
X223984050Y-114983045D01*
X223845963Y-114942500D01*
X223845961Y-114942500D01*
X223702039Y-114942500D01*
X223702036Y-114942500D01*
X223563949Y-114983045D01*
X223563946Y-114983046D01*
X223489484Y-115030900D01*
X223422445Y-115050584D01*
X223355406Y-115030899D01*
X223334765Y-115014265D01*
X222713122Y-114392622D01*
X222713117Y-114392618D01*
X222633200Y-114346478D01*
X222633196Y-114346476D01*
X222627835Y-114345040D01*
X222627835Y-114345039D01*
X222559385Y-114326699D01*
X222544053Y-114322591D01*
X222544052Y-114322591D01*
X222036804Y-114322591D01*
X221969765Y-114302906D01*
X221955597Y-114292301D01*
X221954041Y-114290953D01*
X221954037Y-114290948D01*
X221832962Y-114213138D01*
X221832960Y-114213137D01*
X221832958Y-114213136D01*
X221832959Y-114213136D01*
X221694872Y-114172591D01*
X221694870Y-114172591D01*
X221550948Y-114172591D01*
X221550945Y-114172591D01*
X221412858Y-114213136D01*
X221297731Y-114287124D01*
X221230692Y-114306808D01*
X221163652Y-114287123D01*
X221136979Y-114264011D01*
X221117115Y-114241086D01*
X221088091Y-114177532D01*
X221098034Y-114108374D01*
X221143789Y-114055570D01*
X221159319Y-114047090D01*
X221177416Y-114038825D01*
X221177419Y-114038823D01*
X221224056Y-114001241D01*
X221224058Y-114001239D01*
X221275549Y-113949747D01*
X221275549Y-113949746D01*
X221202088Y-113876285D01*
X222286676Y-113876285D01*
X222302625Y-113889907D01*
X222302635Y-113889914D01*
X222444326Y-113967810D01*
X222444336Y-113967813D01*
X222600947Y-114008024D01*
X222600955Y-114008025D01*
X222762653Y-114008025D01*
X222762658Y-114008024D01*
X222919276Y-113967811D01*
X223052684Y-113894469D01*
X222660590Y-113502375D01*
X222660589Y-113502375D01*
X222286676Y-113876285D01*
X221202088Y-113876285D01*
X220533087Y-113207285D01*
X219437071Y-112111269D01*
X219383685Y-112164656D01*
X219322362Y-112198141D01*
X219252670Y-112193157D01*
X219208322Y-112164656D01*
X218777197Y-111733531D01*
X218777192Y-111733527D01*
X218697275Y-111687387D01*
X218697271Y-111687385D01*
X218691910Y-111685949D01*
X218691910Y-111685948D01*
X218623460Y-111667608D01*
X218608128Y-111663500D01*
X218608127Y-111663500D01*
X217710895Y-111663500D01*
X217643856Y-111643815D01*
X217629688Y-111633210D01*
X217628132Y-111631862D01*
X217628128Y-111631857D01*
X217507053Y-111554047D01*
X217507051Y-111554046D01*
X217507049Y-111554045D01*
X217507050Y-111554045D01*
X217368963Y-111513500D01*
X217368961Y-111513500D01*
X217225039Y-111513500D01*
X217225035Y-111513500D01*
X217203231Y-111519902D01*
X217133362Y-111519900D01*
X217074585Y-111482124D01*
X217045562Y-111418567D01*
X217055507Y-111349409D01*
X217080615Y-111313247D01*
X217726716Y-110667148D01*
X217788039Y-110633663D01*
X217814397Y-110630829D01*
X218839281Y-110630829D01*
X218839283Y-110630829D01*
X218928427Y-110606943D01*
X218930713Y-110605623D01*
X219008351Y-110560799D01*
X219274820Y-110294329D01*
X219336142Y-110260845D01*
X219405833Y-110265829D01*
G37*
%TD.AperFunction*%
%TA.AperFunction,Conductor*%
G36*
X229120450Y-113014685D02*
G01*
X229166205Y-113067489D01*
X229177411Y-113119000D01*
X229177411Y-114194999D01*
X229227911Y-114194999D01*
X229294950Y-114214684D01*
X229340705Y-114267488D01*
X229351911Y-114318999D01*
X229351911Y-114708045D01*
X229332226Y-114775084D01*
X229315592Y-114795726D01*
X228491137Y-115620181D01*
X228429814Y-115653666D01*
X228403456Y-115656500D01*
X227855411Y-115656500D01*
X227788372Y-115636815D01*
X227742617Y-115584011D01*
X227731411Y-115532500D01*
X227731411Y-115482000D01*
X226655411Y-115482000D01*
X226588372Y-115462315D01*
X226542617Y-115409511D01*
X226531411Y-115358000D01*
X226531411Y-115106000D01*
X226551096Y-115038961D01*
X226603900Y-114993206D01*
X226655411Y-114982000D01*
X227731410Y-114982000D01*
X227731410Y-114933692D01*
X227731409Y-114933677D01*
X227721266Y-114834392D01*
X227680652Y-114711827D01*
X227678250Y-114641999D01*
X227713982Y-114581957D01*
X227757404Y-114555781D01*
X227898713Y-114506336D01*
X228051359Y-114410422D01*
X228178833Y-114282948D01*
X228238610Y-114187814D01*
X228290944Y-114141523D01*
X228359998Y-114130874D01*
X228382608Y-114136080D01*
X228529804Y-114184855D01*
X228629094Y-114194999D01*
X228677410Y-114194998D01*
X228677411Y-114194998D01*
X228677411Y-113495000D01*
X228392411Y-113495000D01*
X228392411Y-113607000D01*
X228372726Y-113674039D01*
X228319922Y-113719794D01*
X228268411Y-113731000D01*
X227023411Y-113731000D01*
X226956372Y-113711315D01*
X226910617Y-113658511D01*
X226899411Y-113607000D01*
X226899411Y-113355000D01*
X226919096Y-113287961D01*
X226971900Y-113242206D01*
X227023411Y-113231000D01*
X227909411Y-113231000D01*
X227909411Y-113119000D01*
X227929096Y-113051961D01*
X227981900Y-113006206D01*
X228033411Y-112995000D01*
X229053411Y-112995000D01*
X229120450Y-113014685D01*
G37*
%TD.AperFunction*%
%TA.AperFunction,Conductor*%
G36*
X198786755Y-114431291D02*
G01*
X198844618Y-114470453D01*
X198872123Y-114534681D01*
X198873000Y-114549403D01*
X198873000Y-114687306D01*
X198873001Y-114687323D01*
X198883144Y-114786607D01*
X198936452Y-114947481D01*
X198936457Y-114947492D01*
X199025424Y-115091728D01*
X199025427Y-115091732D01*
X199071514Y-115137819D01*
X199104999Y-115199142D01*
X199100015Y-115268834D01*
X199058143Y-115324767D01*
X198992679Y-115349184D01*
X198983833Y-115349500D01*
X195569014Y-115349500D01*
X195501975Y-115329815D01*
X195456220Y-115277011D01*
X195446276Y-115207853D01*
X195462282Y-115162379D01*
X195497281Y-115103198D01*
X195543100Y-114945486D01*
X195543295Y-114943001D01*
X195543295Y-114943000D01*
X192598705Y-114943000D01*
X192598704Y-114943001D01*
X192598899Y-114945486D01*
X192644718Y-115103198D01*
X192679718Y-115162379D01*
X192696901Y-115230103D01*
X192674741Y-115296365D01*
X192620275Y-115340129D01*
X192572986Y-115349500D01*
X190305255Y-115349500D01*
X190238216Y-115329815D01*
X190192461Y-115277011D01*
X190182517Y-115207853D01*
X190211542Y-115144297D01*
X190217574Y-115137819D01*
X190275574Y-115079819D01*
X190336897Y-115046334D01*
X190363255Y-115043500D01*
X191546142Y-115043500D01*
X191546144Y-115043500D01*
X191635288Y-115019614D01*
X191645093Y-115013953D01*
X191667283Y-115001142D01*
X191667284Y-115001141D01*
X191715212Y-114973470D01*
X192208863Y-114479819D01*
X192270186Y-114446334D01*
X192296544Y-114443500D01*
X198665142Y-114443500D01*
X198665144Y-114443500D01*
X198716907Y-114429630D01*
X198786755Y-114431291D01*
G37*
%TD.AperFunction*%
%TA.AperFunction,Conductor*%
G36*
X194093188Y-87688185D02*
G01*
X194138943Y-87740989D01*
X194148887Y-87810147D01*
X194119862Y-87873703D01*
X194069482Y-87908682D01*
X194007913Y-87931645D01*
X194007906Y-87931649D01*
X193892812Y-88017809D01*
X193892809Y-88017812D01*
X193806649Y-88132906D01*
X193806645Y-88132913D01*
X193756403Y-88267620D01*
X193756401Y-88267627D01*
X193750000Y-88327155D01*
X193750000Y-88975000D01*
X196750000Y-88975000D01*
X196750000Y-88327172D01*
X196749999Y-88327155D01*
X196743598Y-88267627D01*
X196743596Y-88267620D01*
X196693354Y-88132913D01*
X196693350Y-88132906D01*
X196607190Y-88017812D01*
X196607187Y-88017809D01*
X196492093Y-87931649D01*
X196492086Y-87931645D01*
X196430518Y-87908682D01*
X196374584Y-87866811D01*
X196350167Y-87801346D01*
X196365019Y-87733073D01*
X196414424Y-87683668D01*
X196473851Y-87668500D01*
X197000111Y-87668500D01*
X197067150Y-87688185D01*
X197087792Y-87704819D01*
X200150681Y-90767708D01*
X200184166Y-90829031D01*
X200187000Y-90855389D01*
X200187000Y-91357766D01*
X200167315Y-91424805D01*
X200157922Y-91436460D01*
X200158417Y-91436866D01*
X200154549Y-91441578D01*
X200112242Y-91504895D01*
X200112243Y-91504896D01*
X200072415Y-91564503D01*
X200030811Y-91664944D01*
X199986970Y-91719347D01*
X199920675Y-91741412D01*
X199877247Y-91735197D01*
X199802701Y-91710495D01*
X199802690Y-91710493D01*
X199699986Y-91700000D01*
X199250000Y-91700000D01*
X199250000Y-93849999D01*
X199514270Y-93849999D01*
X199581309Y-93869684D01*
X199627064Y-93922488D01*
X199637008Y-93991646D01*
X199607983Y-94055202D01*
X199601951Y-94061680D01*
X198800449Y-94863181D01*
X198739126Y-94896666D01*
X198712768Y-94899500D01*
X198302129Y-94899500D01*
X198302123Y-94899501D01*
X198242516Y-94905908D01*
X198107671Y-94956202D01*
X198107664Y-94956206D01*
X197992455Y-95042452D01*
X197992452Y-95042455D01*
X197906206Y-95157664D01*
X197906202Y-95157671D01*
X197855910Y-95292513D01*
X197855909Y-95292517D01*
X197849500Y-95352127D01*
X197849500Y-95352134D01*
X197849500Y-95352135D01*
X197849500Y-96097870D01*
X197849501Y-96097876D01*
X197855908Y-96157483D01*
X197906202Y-96292328D01*
X197906203Y-96292329D01*
X197906204Y-96292331D01*
X197992452Y-96407543D01*
X197992451Y-96407543D01*
X197992452Y-96407544D01*
X197992454Y-96407546D01*
X198019812Y-96428026D01*
X198061681Y-96483956D01*
X198069500Y-96527291D01*
X198069500Y-97308745D01*
X198049815Y-97375784D01*
X197997011Y-97421539D01*
X197927853Y-97431483D01*
X197864297Y-97402458D01*
X197857819Y-97396426D01*
X197833347Y-97371954D01*
X197833344Y-97371952D01*
X197833342Y-97371950D01*
X197746287Y-97327593D01*
X197720301Y-97314352D01*
X197626524Y-97299500D01*
X197263482Y-97299500D01*
X197182519Y-97312323D01*
X197169696Y-97314354D01*
X197056658Y-97371950D01*
X197056657Y-97371951D01*
X197056652Y-97371954D01*
X196966954Y-97461652D01*
X196966949Y-97461659D01*
X196920483Y-97552852D01*
X196872508Y-97603648D01*
X196804687Y-97620442D01*
X196738552Y-97597904D01*
X196699516Y-97552852D01*
X196653050Y-97461658D01*
X196653047Y-97461655D01*
X196653045Y-97461652D01*
X196563347Y-97371954D01*
X196563344Y-97371952D01*
X196563342Y-97371950D01*
X196476287Y-97327593D01*
X196450301Y-97314352D01*
X196356524Y-97299500D01*
X195993482Y-97299500D01*
X195932852Y-97309103D01*
X195899696Y-97314354D01*
X195899694Y-97314354D01*
X195890058Y-97315881D01*
X195889803Y-97314271D01*
X195831080Y-97315943D01*
X195774935Y-97283701D01*
X194727915Y-96236681D01*
X194694430Y-96175358D01*
X194699414Y-96105666D01*
X194741286Y-96049733D01*
X194806750Y-96025316D01*
X194815596Y-96025000D01*
X195000000Y-96025000D01*
X195500000Y-96025000D01*
X196297828Y-96025000D01*
X196297844Y-96024999D01*
X196357372Y-96018598D01*
X196357379Y-96018596D01*
X196492086Y-95968354D01*
X196492093Y-95968350D01*
X196607187Y-95882190D01*
X196607190Y-95882187D01*
X196693350Y-95767093D01*
X196693354Y-95767086D01*
X196743596Y-95632379D01*
X196743598Y-95632372D01*
X196749999Y-95572844D01*
X196750000Y-95572827D01*
X196750000Y-94925000D01*
X195500000Y-94925000D01*
X195500000Y-96025000D01*
X195000000Y-96025000D01*
X195000000Y-94925000D01*
X193750000Y-94925000D01*
X193750000Y-95572844D01*
X193756401Y-95632372D01*
X193756403Y-95632379D01*
X193806645Y-95767086D01*
X193806649Y-95767093D01*
X193892809Y-95882187D01*
X193898441Y-95887819D01*
X193931926Y-95949142D01*
X193926942Y-96018834D01*
X193885070Y-96074767D01*
X193819606Y-96099184D01*
X193810760Y-96099500D01*
X193043544Y-96099500D01*
X192976505Y-96079815D01*
X192955863Y-96063181D01*
X192909246Y-96016564D01*
X192875761Y-95955241D01*
X192880745Y-95885549D01*
X192882368Y-95881426D01*
X192885967Y-95872737D01*
X192900499Y-95799678D01*
X192900500Y-95799676D01*
X192900500Y-93777155D01*
X193750000Y-93777155D01*
X193750000Y-94425000D01*
X195000000Y-94425000D01*
X195500000Y-94425000D01*
X196750000Y-94425000D01*
X196750000Y-93777172D01*
X196749999Y-93777155D01*
X196743598Y-93717627D01*
X196743596Y-93717620D01*
X196693354Y-93582913D01*
X196693350Y-93582906D01*
X196607190Y-93467812D01*
X196607187Y-93467809D01*
X196492093Y-93381649D01*
X196492086Y-93381645D01*
X196357379Y-93331403D01*
X196357372Y-93331401D01*
X196297844Y-93325000D01*
X195500000Y-93325000D01*
X195500000Y-94425000D01*
X195000000Y-94425000D01*
X195000000Y-93325000D01*
X194202155Y-93325000D01*
X194142627Y-93331401D01*
X194142620Y-93331403D01*
X194007913Y-93381645D01*
X194007906Y-93381649D01*
X193892812Y-93467809D01*
X193892809Y-93467812D01*
X193806649Y-93582906D01*
X193806645Y-93582913D01*
X193756403Y-93717620D01*
X193756401Y-93717627D01*
X193750000Y-93777155D01*
X192900500Y-93777155D01*
X192900500Y-93750323D01*
X192900499Y-93750321D01*
X192885967Y-93677264D01*
X192885966Y-93677260D01*
X192885028Y-93675856D01*
X192830601Y-93594399D01*
X192830599Y-93594398D01*
X192830599Y-93594397D01*
X192793228Y-93569427D01*
X192748422Y-93515815D01*
X192742346Y-93498428D01*
X192726614Y-93439712D01*
X192716714Y-93422565D01*
X192680470Y-93359788D01*
X192470668Y-93149986D01*
X197600001Y-93149986D01*
X197610494Y-93252697D01*
X197665641Y-93419119D01*
X197665643Y-93419124D01*
X197757684Y-93568345D01*
X197881654Y-93692315D01*
X198030875Y-93784356D01*
X198030880Y-93784358D01*
X198197302Y-93839505D01*
X198197309Y-93839506D01*
X198300019Y-93849999D01*
X198749999Y-93849999D01*
X198750000Y-93849998D01*
X198750000Y-93025000D01*
X197600001Y-93025000D01*
X197600001Y-93149986D01*
X192470668Y-93149986D01*
X192127212Y-92806530D01*
X192127211Y-92806529D01*
X192127208Y-92806527D01*
X192047290Y-92760387D01*
X192047289Y-92760386D01*
X192047288Y-92760386D01*
X191958144Y-92736500D01*
X191958143Y-92736500D01*
X189292606Y-92736500D01*
X189225567Y-92716815D01*
X189179812Y-92664011D01*
X189169868Y-92594853D01*
X189189504Y-92543609D01*
X189265080Y-92430501D01*
X189265080Y-92430500D01*
X189265084Y-92430495D01*
X189321658Y-92293913D01*
X189341129Y-92196030D01*
X189350500Y-92148920D01*
X192249499Y-92148920D01*
X192278340Y-92293907D01*
X192278343Y-92293917D01*
X192334912Y-92430488D01*
X192334919Y-92430501D01*
X192417048Y-92553415D01*
X192417051Y-92553419D01*
X192521580Y-92657948D01*
X192521584Y-92657951D01*
X192644498Y-92740080D01*
X192644511Y-92740087D01*
X192781082Y-92796656D01*
X192781087Y-92796658D01*
X192781091Y-92796658D01*
X192781092Y-92796659D01*
X192926079Y-92825500D01*
X192926082Y-92825500D01*
X193073920Y-92825500D01*
X193171462Y-92806096D01*
X193218913Y-92796658D01*
X193355495Y-92740084D01*
X193478416Y-92657951D01*
X193582951Y-92553416D01*
X193665084Y-92430495D01*
X193677710Y-92400013D01*
X197600000Y-92400013D01*
X197600000Y-92525000D01*
X198750000Y-92525000D01*
X198750000Y-91700000D01*
X198300028Y-91700000D01*
X198300012Y-91700001D01*
X198197302Y-91710494D01*
X198030880Y-91765641D01*
X198030875Y-91765643D01*
X197881654Y-91857684D01*
X197757684Y-91981654D01*
X197665643Y-92130875D01*
X197665641Y-92130880D01*
X197610494Y-92297302D01*
X197610493Y-92297309D01*
X197600000Y-92400013D01*
X193677710Y-92400013D01*
X193721658Y-92293913D01*
X193741129Y-92196030D01*
X193750500Y-92148920D01*
X193750500Y-92001079D01*
X193721659Y-91856092D01*
X193721658Y-91856091D01*
X193721658Y-91856087D01*
X193707741Y-91822489D01*
X193665087Y-91719511D01*
X193665080Y-91719498D01*
X193582951Y-91596584D01*
X193582948Y-91596580D01*
X193478419Y-91492051D01*
X193478415Y-91492048D01*
X193355501Y-91409919D01*
X193355488Y-91409912D01*
X193218917Y-91353343D01*
X193218907Y-91353340D01*
X193073920Y-91324500D01*
X193073918Y-91324500D01*
X192926082Y-91324500D01*
X192926080Y-91324500D01*
X192781092Y-91353340D01*
X192781082Y-91353343D01*
X192644511Y-91409912D01*
X192644498Y-91409919D01*
X192521584Y-91492048D01*
X192521580Y-91492051D01*
X192417051Y-91596580D01*
X192417048Y-91596584D01*
X192334919Y-91719498D01*
X192334912Y-91719511D01*
X192278343Y-91856082D01*
X192278340Y-91856092D01*
X192249500Y-92001079D01*
X192249500Y-92001082D01*
X192249500Y-92148918D01*
X192249500Y-92148920D01*
X192249499Y-92148920D01*
X189350500Y-92148920D01*
X189350500Y-92001079D01*
X189321659Y-91856092D01*
X189321658Y-91856091D01*
X189321658Y-91856087D01*
X189307741Y-91822489D01*
X189265087Y-91719511D01*
X189265080Y-91719498D01*
X189182951Y-91596584D01*
X189182948Y-91596580D01*
X189078419Y-91492051D01*
X189078415Y-91492048D01*
X188955501Y-91409919D01*
X188955488Y-91409912D01*
X188818917Y-91353343D01*
X188818907Y-91353340D01*
X188673920Y-91324500D01*
X188673918Y-91324500D01*
X188526082Y-91324500D01*
X188526080Y-91324500D01*
X188381092Y-91353340D01*
X188381082Y-91353343D01*
X188244511Y-91409912D01*
X188244498Y-91409919D01*
X188121584Y-91492048D01*
X188121580Y-91492051D01*
X188017051Y-91596580D01*
X188017048Y-91596584D01*
X187934919Y-91719498D01*
X187934912Y-91719511D01*
X187878343Y-91856082D01*
X187878340Y-91856092D01*
X187849500Y-92001079D01*
X187849500Y-92001082D01*
X187849500Y-92148918D01*
X187849500Y-92148920D01*
X187849499Y-92148920D01*
X187878340Y-92293907D01*
X187878343Y-92293917D01*
X187934912Y-92430488D01*
X187934919Y-92430501D01*
X188017048Y-92553415D01*
X188017051Y-92553419D01*
X188121580Y-92657948D01*
X188121584Y-92657951D01*
X188239802Y-92736942D01*
X188284607Y-92790554D01*
X188293314Y-92859879D01*
X188263160Y-92922906D01*
X188258592Y-92927725D01*
X187789637Y-93396679D01*
X187728314Y-93430164D01*
X187658622Y-93425180D01*
X187627644Y-93408264D01*
X187592089Y-93381647D01*
X187592086Y-93381645D01*
X187457379Y-93331403D01*
X187457372Y-93331401D01*
X187397844Y-93325000D01*
X186600000Y-93325000D01*
X186600000Y-96025000D01*
X187397828Y-96025000D01*
X187397844Y-96024999D01*
X187465087Y-96017769D01*
X187465233Y-96019132D01*
X187526757Y-96022432D01*
X187583427Y-96063300D01*
X187609007Y-96128319D01*
X187609500Y-96139367D01*
X187609500Y-96562143D01*
X187628886Y-96634497D01*
X187628895Y-96634527D01*
X187628896Y-96634530D01*
X187629250Y-96635851D01*
X187633386Y-96651288D01*
X187679527Y-96731208D01*
X187679531Y-96731213D01*
X188155781Y-97207463D01*
X188189266Y-97268786D01*
X188184282Y-97338478D01*
X188155782Y-97382825D01*
X188076951Y-97461656D01*
X188071217Y-97469550D01*
X188070134Y-97468763D01*
X188029095Y-97512212D01*
X187961274Y-97529004D01*
X187895140Y-97506463D01*
X187851691Y-97451746D01*
X187848884Y-97444122D01*
X187815547Y-97343518D01*
X187815542Y-97343507D01*
X187726575Y-97199271D01*
X187726572Y-97199267D01*
X187606732Y-97079427D01*
X187606728Y-97079424D01*
X187462492Y-96990457D01*
X187462481Y-96990452D01*
X187301606Y-96937144D01*
X187202322Y-96927000D01*
X187154000Y-96927000D01*
X187154000Y-98003000D01*
X187134315Y-98070039D01*
X187081511Y-98115794D01*
X187030000Y-98127000D01*
X185929001Y-98127000D01*
X185929001Y-98150322D01*
X185939144Y-98249607D01*
X185992452Y-98410481D01*
X185992457Y-98410492D01*
X186081424Y-98554728D01*
X186081427Y-98554732D01*
X186201266Y-98674571D01*
X186259268Y-98710347D01*
X186305992Y-98762295D01*
X186317215Y-98831258D01*
X186293439Y-98890195D01*
X186232374Y-98971769D01*
X186232372Y-98971773D01*
X186232372Y-98971774D01*
X186184588Y-99099886D01*
X186184587Y-99099889D01*
X186178500Y-99156498D01*
X186178500Y-99697481D01*
X186178501Y-99697490D01*
X186184587Y-99754114D01*
X186221557Y-99853231D01*
X186232372Y-99882226D01*
X186314313Y-99991687D01*
X186370852Y-100034011D01*
X186427921Y-100076733D01*
X186469792Y-100132667D01*
X186474776Y-100202359D01*
X186441291Y-100263682D01*
X186427921Y-100275267D01*
X186314313Y-100360313D01*
X186253593Y-100441425D01*
X186197659Y-100483296D01*
X186167147Y-100485477D01*
X186190915Y-100537518D01*
X186185266Y-100590075D01*
X186186372Y-100590337D01*
X186184587Y-100597887D01*
X186178500Y-100654498D01*
X186178500Y-101105049D01*
X186158815Y-101172088D01*
X186106011Y-101217843D01*
X186036853Y-101227787D01*
X185973297Y-101198762D01*
X185960787Y-101186251D01*
X185878129Y-101090858D01*
X185878128Y-101090857D01*
X185757053Y-101013047D01*
X185757050Y-101013045D01*
X185632196Y-100976385D01*
X185573418Y-100938611D01*
X185544393Y-100875055D01*
X185544393Y-100839759D01*
X185544647Y-100838000D01*
X185544394Y-100836242D01*
X185544647Y-100834484D01*
X185544647Y-100829131D01*
X185545416Y-100829131D01*
X185554334Y-100767086D01*
X185600086Y-100714279D01*
X185632197Y-100699614D01*
X185757050Y-100662954D01*
X185757050Y-100662953D01*
X185757053Y-100662953D01*
X185878128Y-100585143D01*
X185972377Y-100476373D01*
X185972377Y-100476372D01*
X185974464Y-100473964D01*
X186033241Y-100436189D01*
X186056485Y-100436189D01*
X186033160Y-100393471D01*
X186031588Y-100349467D01*
X186032165Y-100345457D01*
X186052647Y-100203000D01*
X186032165Y-100060543D01*
X185972377Y-99929627D01*
X185878128Y-99820857D01*
X185757053Y-99743047D01*
X185757051Y-99743046D01*
X185757049Y-99743045D01*
X185757050Y-99743045D01*
X185618963Y-99702500D01*
X185618961Y-99702500D01*
X185507543Y-99702500D01*
X185440504Y-99682815D01*
X185419862Y-99666181D01*
X183646576Y-97892895D01*
X183613091Y-97831572D01*
X183618075Y-97761880D01*
X183623248Y-97749961D01*
X183628582Y-97739250D01*
X183667156Y-97603677D01*
X185929000Y-97603677D01*
X185929000Y-97627000D01*
X186654000Y-97627000D01*
X186654000Y-96927000D01*
X186653999Y-96926999D01*
X186605693Y-96927000D01*
X186605675Y-96927001D01*
X186506392Y-96937144D01*
X186345518Y-96990452D01*
X186345507Y-96990457D01*
X186201271Y-97079424D01*
X186201267Y-97079427D01*
X186081427Y-97199267D01*
X186081424Y-97199271D01*
X185992457Y-97343507D01*
X185992452Y-97343518D01*
X185939144Y-97504393D01*
X185929000Y-97603677D01*
X183667156Y-97603677D01*
X183684397Y-97543083D01*
X183703215Y-97340000D01*
X183700481Y-97310500D01*
X183684397Y-97136917D01*
X183668039Y-97079427D01*
X183628582Y-96940750D01*
X183628352Y-96940289D01*
X183569666Y-96822431D01*
X183537673Y-96758179D01*
X183462367Y-96658457D01*
X183414762Y-96595418D01*
X183264041Y-96458019D01*
X183264039Y-96458017D01*
X183137111Y-96379427D01*
X183090475Y-96327399D01*
X183079371Y-96258417D01*
X183107324Y-96194383D01*
X183165459Y-96155627D01*
X183202388Y-96150000D01*
X183495828Y-96150000D01*
X183495844Y-96149999D01*
X183555372Y-96143598D01*
X183555379Y-96143596D01*
X183690086Y-96093354D01*
X183690093Y-96093350D01*
X183805187Y-96007190D01*
X183805190Y-96007187D01*
X183891350Y-95892093D01*
X183891354Y-95892086D01*
X183941596Y-95757379D01*
X183941598Y-95757372D01*
X183947999Y-95697844D01*
X183948000Y-95697827D01*
X183948000Y-95572844D01*
X184850000Y-95572844D01*
X184856401Y-95632372D01*
X184856403Y-95632379D01*
X184906645Y-95767086D01*
X184906649Y-95767093D01*
X184992809Y-95882187D01*
X184992812Y-95882190D01*
X185107906Y-95968350D01*
X185107913Y-95968354D01*
X185242620Y-96018596D01*
X185242627Y-96018598D01*
X185302155Y-96024999D01*
X185302172Y-96025000D01*
X186100000Y-96025000D01*
X186100000Y-94925000D01*
X184850000Y-94925000D01*
X184850000Y-95572844D01*
X183948000Y-95572844D01*
X183948000Y-95050000D01*
X183031012Y-95050000D01*
X183063925Y-94992993D01*
X183098000Y-94865826D01*
X183098000Y-94734174D01*
X183063925Y-94607007D01*
X183031012Y-94550000D01*
X183948000Y-94550000D01*
X183948000Y-93902172D01*
X183947999Y-93902155D01*
X183941598Y-93842627D01*
X183941596Y-93842620D01*
X183917179Y-93777155D01*
X184850000Y-93777155D01*
X184850000Y-94425000D01*
X186100000Y-94425000D01*
X186100000Y-93325000D01*
X185302155Y-93325000D01*
X185242627Y-93331401D01*
X185242620Y-93331403D01*
X185107913Y-93381645D01*
X185107906Y-93381649D01*
X184992812Y-93467809D01*
X184992809Y-93467812D01*
X184906649Y-93582906D01*
X184906645Y-93582913D01*
X184856403Y-93717620D01*
X184856401Y-93717627D01*
X184850000Y-93777155D01*
X183917179Y-93777155D01*
X183891354Y-93707913D01*
X183891350Y-93707906D01*
X183805190Y-93592812D01*
X183805187Y-93592809D01*
X183690093Y-93506649D01*
X183690086Y-93506645D01*
X183555379Y-93456403D01*
X183555372Y-93456401D01*
X183495844Y-93450000D01*
X182848000Y-93450000D01*
X182848000Y-94366988D01*
X182790993Y-94334075D01*
X182663826Y-94300000D01*
X182532174Y-94300000D01*
X182405007Y-94334075D01*
X182348000Y-94366988D01*
X182348000Y-93450000D01*
X181700155Y-93450000D01*
X181640627Y-93456401D01*
X181640620Y-93456403D01*
X181505913Y-93506645D01*
X181505906Y-93506649D01*
X181390812Y-93592809D01*
X181390809Y-93592812D01*
X181304649Y-93707906D01*
X181304645Y-93707913D01*
X181254403Y-93842620D01*
X181254401Y-93842627D01*
X181248000Y-93902155D01*
X181248000Y-94550000D01*
X182164988Y-94550000D01*
X182132075Y-94607007D01*
X182098000Y-94734174D01*
X182098000Y-94865826D01*
X182132075Y-94992993D01*
X182164988Y-95050000D01*
X181248000Y-95050000D01*
X181248000Y-95697844D01*
X181254401Y-95757372D01*
X181254403Y-95757379D01*
X181304645Y-95892086D01*
X181304649Y-95892093D01*
X181390809Y-96007187D01*
X181390812Y-96007190D01*
X181505906Y-96093350D01*
X181505913Y-96093354D01*
X181640620Y-96143596D01*
X181640627Y-96143598D01*
X181700155Y-96149999D01*
X181700172Y-96150000D01*
X181993612Y-96150000D01*
X182060651Y-96169685D01*
X182106406Y-96222489D01*
X182116350Y-96291647D01*
X182087325Y-96355203D01*
X182058889Y-96379427D01*
X181931960Y-96458017D01*
X181931958Y-96458019D01*
X181781237Y-96595418D01*
X181658327Y-96758178D01*
X181567422Y-96940739D01*
X181567417Y-96940752D01*
X181511602Y-97136917D01*
X181492785Y-97339999D01*
X181492785Y-97340000D01*
X181511602Y-97543082D01*
X181567417Y-97739247D01*
X181567422Y-97739260D01*
X181658327Y-97921821D01*
X181781237Y-98084581D01*
X181910588Y-98202499D01*
X181928513Y-98218840D01*
X181931958Y-98221980D01*
X181931960Y-98221982D01*
X182023476Y-98278646D01*
X182105363Y-98329348D01*
X182295544Y-98403024D01*
X182496024Y-98440500D01*
X182496026Y-98440500D01*
X182699974Y-98440500D01*
X182699976Y-98440500D01*
X182900456Y-98403024D01*
X183016037Y-98358247D01*
X183085658Y-98352385D01*
X183147399Y-98385094D01*
X183148511Y-98386193D01*
X184069279Y-99306961D01*
X184080138Y-99317819D01*
X184113623Y-99379142D01*
X184108639Y-99448833D01*
X184066767Y-99504767D01*
X184001303Y-99529184D01*
X183992457Y-99529500D01*
X183729635Y-99529500D01*
X183662596Y-99509815D01*
X183618635Y-99460772D01*
X183545148Y-99313191D01*
X183537673Y-99298179D01*
X183462021Y-99198000D01*
X183414762Y-99135418D01*
X183264041Y-98998019D01*
X183264039Y-98998017D01*
X183090642Y-98890655D01*
X183090635Y-98890651D01*
X182937322Y-98831258D01*
X182900456Y-98816976D01*
X182699976Y-98779500D01*
X182496024Y-98779500D01*
X182295544Y-98816976D01*
X182295541Y-98816976D01*
X182295541Y-98816977D01*
X182105364Y-98890651D01*
X182105357Y-98890655D01*
X181931960Y-98998017D01*
X181931958Y-98998019D01*
X181781237Y-99135418D01*
X181658327Y-99298178D01*
X181567422Y-99480739D01*
X181567417Y-99480752D01*
X181511602Y-99676917D01*
X181492785Y-99879999D01*
X181492785Y-99880000D01*
X181511602Y-100083082D01*
X181567417Y-100279247D01*
X181567422Y-100279260D01*
X181658327Y-100461821D01*
X181781237Y-100624581D01*
X181931958Y-100761980D01*
X181931960Y-100761982D01*
X182016858Y-100814548D01*
X182105363Y-100869348D01*
X182295544Y-100943024D01*
X182496024Y-100980500D01*
X182496026Y-100980500D01*
X182699974Y-100980500D01*
X182699976Y-100980500D01*
X182900456Y-100943024D01*
X183090637Y-100869348D01*
X183264041Y-100761981D01*
X183414764Y-100624579D01*
X183537673Y-100461821D01*
X183588218Y-100360313D01*
X183618635Y-100299228D01*
X183666138Y-100247991D01*
X183729635Y-100230500D01*
X183884456Y-100230500D01*
X183951495Y-100250185D01*
X183972137Y-100266819D01*
X184502495Y-100797177D01*
X184535980Y-100858500D01*
X184537552Y-100867210D01*
X184553834Y-100980456D01*
X184610735Y-101105049D01*
X184613623Y-101111373D01*
X184707872Y-101220143D01*
X184828947Y-101297953D01*
X184828950Y-101297954D01*
X184828949Y-101297954D01*
X184935633Y-101329279D01*
X184994412Y-101367053D01*
X185023437Y-101430608D01*
X185013494Y-101499767D01*
X184988380Y-101535937D01*
X184491137Y-102033181D01*
X184429814Y-102066666D01*
X184403456Y-102069500D01*
X183729635Y-102069500D01*
X183662596Y-102049815D01*
X183618635Y-102000772D01*
X183557495Y-101877987D01*
X183537673Y-101838179D01*
X183451827Y-101724500D01*
X183414762Y-101675418D01*
X183264041Y-101538019D01*
X183264039Y-101538017D01*
X183090642Y-101430655D01*
X183090635Y-101430651D01*
X182968391Y-101383294D01*
X182900456Y-101356976D01*
X182699976Y-101319500D01*
X182496024Y-101319500D01*
X182295544Y-101356976D01*
X182295541Y-101356976D01*
X182295541Y-101356977D01*
X182105364Y-101430651D01*
X182105357Y-101430655D01*
X181931960Y-101538017D01*
X181931958Y-101538019D01*
X181781237Y-101675418D01*
X181658327Y-101838178D01*
X181567422Y-102020739D01*
X181567417Y-102020752D01*
X181511602Y-102216917D01*
X181492785Y-102419999D01*
X181492785Y-102420000D01*
X181511602Y-102623082D01*
X181567417Y-102819247D01*
X181567422Y-102819260D01*
X181658327Y-103001821D01*
X181781237Y-103164581D01*
X181931958Y-103301980D01*
X181931960Y-103301982D01*
X182028162Y-103361547D01*
X182105363Y-103409348D01*
X182295544Y-103483024D01*
X182496024Y-103520500D01*
X182496026Y-103520500D01*
X182699974Y-103520500D01*
X182699976Y-103520500D01*
X182900456Y-103483024D01*
X183090637Y-103409348D01*
X183264041Y-103301981D01*
X183392122Y-103185219D01*
X183414762Y-103164581D01*
X183414764Y-103164579D01*
X183537673Y-103001821D01*
X183595579Y-102885530D01*
X183618635Y-102839228D01*
X183666138Y-102787991D01*
X183729635Y-102770500D01*
X184232275Y-102770500D01*
X184299314Y-102790185D01*
X184345069Y-102842989D01*
X184355013Y-102912147D01*
X184325988Y-102975703D01*
X184319956Y-102982181D01*
X183308835Y-103993300D01*
X183247512Y-104026785D01*
X183177820Y-104021801D01*
X183155877Y-104011046D01*
X183090642Y-103970655D01*
X183090635Y-103970651D01*
X182988649Y-103931142D01*
X182900456Y-103896976D01*
X182699976Y-103859500D01*
X182496024Y-103859500D01*
X182295544Y-103896976D01*
X182295541Y-103896976D01*
X182295541Y-103896977D01*
X182105364Y-103970651D01*
X182105357Y-103970655D01*
X181931960Y-104078017D01*
X181931958Y-104078019D01*
X181781237Y-104215418D01*
X181658327Y-104378178D01*
X181567422Y-104560739D01*
X181567417Y-104560752D01*
X181511602Y-104756917D01*
X181492785Y-104959999D01*
X181492785Y-104960000D01*
X181511602Y-105163082D01*
X181567417Y-105359247D01*
X181567422Y-105359260D01*
X181658327Y-105541821D01*
X181781237Y-105704581D01*
X181931958Y-105841980D01*
X181931960Y-105841982D01*
X182013531Y-105892488D01*
X182105363Y-105949348D01*
X182295544Y-106023024D01*
X182496024Y-106060500D01*
X182496026Y-106060500D01*
X182699974Y-106060500D01*
X182699976Y-106060500D01*
X182900456Y-106023024D01*
X183090637Y-105949348D01*
X183264041Y-105841981D01*
X183406281Y-105712312D01*
X183414762Y-105704581D01*
X183416787Y-105701900D01*
X183537673Y-105541821D01*
X183628582Y-105359250D01*
X183684397Y-105163083D01*
X183703215Y-104960000D01*
X183703028Y-104957987D01*
X183686460Y-104779185D01*
X183684397Y-104756917D01*
X183671597Y-104711930D01*
X183672183Y-104642066D01*
X183703180Y-104590318D01*
X185450271Y-102843228D01*
X185511594Y-102809743D01*
X185537952Y-102806909D01*
X185563371Y-102806909D01*
X185563371Y-102806908D01*
X185701462Y-102766362D01*
X185746839Y-102737199D01*
X185813874Y-102717516D01*
X185880914Y-102737200D01*
X185926670Y-102790003D01*
X185937234Y-102828912D01*
X185939144Y-102847607D01*
X185992452Y-103008481D01*
X185992457Y-103008492D01*
X186081424Y-103152728D01*
X186081427Y-103152732D01*
X186201267Y-103272572D01*
X186201271Y-103272575D01*
X186345507Y-103361542D01*
X186345518Y-103361547D01*
X186506393Y-103414855D01*
X186605683Y-103424999D01*
X186653999Y-103424998D01*
X186654000Y-103424998D01*
X186654000Y-102349000D01*
X186673685Y-102281961D01*
X186726489Y-102236206D01*
X186778000Y-102225000D01*
X187030000Y-102225000D01*
X187097039Y-102244685D01*
X187142794Y-102297489D01*
X187154000Y-102349000D01*
X187154000Y-103424999D01*
X187202308Y-103424999D01*
X187202322Y-103424998D01*
X187301607Y-103414855D01*
X187462481Y-103361547D01*
X187462492Y-103361542D01*
X187606728Y-103272575D01*
X187606732Y-103272572D01*
X187617986Y-103261319D01*
X187679309Y-103227834D01*
X187705667Y-103225000D01*
X188681000Y-103225000D01*
X188748039Y-103244685D01*
X188793794Y-103297489D01*
X188805000Y-103349000D01*
X188805000Y-103601000D01*
X188785315Y-103668039D01*
X188732511Y-103713794D01*
X188681000Y-103725000D01*
X187755000Y-103725000D01*
X187755000Y-104365649D01*
X187757899Y-104402487D01*
X187790850Y-104515905D01*
X187790650Y-104585775D01*
X187752707Y-104644445D01*
X187689069Y-104673288D01*
X187671773Y-104674500D01*
X187313856Y-104674500D01*
X187224711Y-104698386D01*
X187144787Y-104744531D01*
X187144784Y-104744533D01*
X186336137Y-105553181D01*
X186274814Y-105586666D01*
X186248456Y-105589500D01*
X185815730Y-105589500D01*
X185785300Y-105592353D01*
X185785298Y-105592353D01*
X185657119Y-105637206D01*
X185657117Y-105637207D01*
X185547850Y-105717850D01*
X185467207Y-105827117D01*
X185467206Y-105827119D01*
X185422353Y-105955298D01*
X185422353Y-105955300D01*
X185419500Y-105985730D01*
X185419500Y-106494269D01*
X185422353Y-106524699D01*
X185422353Y-106524701D01*
X185465803Y-106648870D01*
X185467207Y-106652882D01*
X185547850Y-106762150D01*
X185657118Y-106842793D01*
X185699845Y-106857744D01*
X185785299Y-106887646D01*
X185815730Y-106890500D01*
X185815734Y-106890500D01*
X186474270Y-106890500D01*
X186504699Y-106887646D01*
X186504701Y-106887646D01*
X186583887Y-106859937D01*
X186632882Y-106842793D01*
X186742150Y-106762150D01*
X186807231Y-106673966D01*
X186862877Y-106631718D01*
X186932533Y-106626259D01*
X186994082Y-106659326D01*
X187006763Y-106673959D01*
X187071850Y-106762150D01*
X187181118Y-106842793D01*
X187223845Y-106857744D01*
X187309299Y-106887646D01*
X187339730Y-106890500D01*
X187339734Y-106890500D01*
X187998270Y-106890500D01*
X188028699Y-106887646D01*
X188028701Y-106887646D01*
X188107887Y-106859937D01*
X188156882Y-106842793D01*
X188266150Y-106762150D01*
X188346793Y-106652882D01*
X188365126Y-106600488D01*
X188405847Y-106543713D01*
X188470800Y-106517966D01*
X188539362Y-106531422D01*
X188589764Y-106579810D01*
X188598348Y-106598110D01*
X188648371Y-106732225D01*
X188660679Y-106748666D01*
X188730313Y-106841687D01*
X188839774Y-106923628D01*
X188872458Y-106935818D01*
X188928390Y-106977687D01*
X188952808Y-107043151D01*
X188937957Y-107111424D01*
X188888552Y-107160830D01*
X188872461Y-107168179D01*
X188839774Y-107180371D01*
X188730313Y-107262313D01*
X188648373Y-107371771D01*
X188644528Y-107382081D01*
X188603722Y-107491486D01*
X188600587Y-107499890D01*
X188599071Y-107506305D01*
X188564493Y-107567019D01*
X188502580Y-107599400D01*
X188432988Y-107593168D01*
X188377814Y-107550301D01*
X188361358Y-107518742D01*
X188346793Y-107477118D01*
X188266150Y-107367850D01*
X188156882Y-107287207D01*
X188156880Y-107287206D01*
X188028700Y-107242353D01*
X187998270Y-107239500D01*
X187998266Y-107239500D01*
X187339734Y-107239500D01*
X187339730Y-107239500D01*
X187309300Y-107242353D01*
X187309298Y-107242353D01*
X187181119Y-107287206D01*
X187181117Y-107287207D01*
X187109736Y-107339889D01*
X187071850Y-107367850D01*
X187037530Y-107414353D01*
X187006770Y-107456031D01*
X186951123Y-107498281D01*
X186881467Y-107503740D01*
X186819917Y-107470672D01*
X186807230Y-107456031D01*
X186742150Y-107367850D01*
X186632882Y-107287207D01*
X186632880Y-107287206D01*
X186504700Y-107242353D01*
X186474270Y-107239500D01*
X186474266Y-107239500D01*
X185815734Y-107239500D01*
X185815730Y-107239500D01*
X185785300Y-107242353D01*
X185785298Y-107242353D01*
X185657119Y-107287206D01*
X185657117Y-107287207D01*
X185547850Y-107367850D01*
X185467207Y-107477117D01*
X185467206Y-107477119D01*
X185422353Y-107605298D01*
X185422353Y-107605300D01*
X185419500Y-107635730D01*
X185419500Y-108144269D01*
X185422353Y-108174699D01*
X185422353Y-108174701D01*
X185467206Y-108302880D01*
X185467207Y-108302882D01*
X185547850Y-108412150D01*
X185657118Y-108492793D01*
X185679901Y-108500765D01*
X185785299Y-108537646D01*
X185815730Y-108540500D01*
X185815734Y-108540500D01*
X186248456Y-108540500D01*
X186315495Y-108560185D01*
X186336137Y-108576819D01*
X186709856Y-108950538D01*
X186743341Y-109011861D01*
X186738357Y-109081553D01*
X186696485Y-109137486D01*
X186689217Y-109142533D01*
X186677964Y-109149764D01*
X186583714Y-109258535D01*
X186583713Y-109258537D01*
X186523925Y-109389452D01*
X186503444Y-109531909D01*
X186523925Y-109674365D01*
X186546690Y-109724212D01*
X186583714Y-109805282D01*
X186677963Y-109914052D01*
X186799038Y-109991862D01*
X186799041Y-109991863D01*
X186799040Y-109991863D01*
X186855702Y-110008500D01*
X186937048Y-110032385D01*
X186937127Y-110032408D01*
X186937129Y-110032409D01*
X186937130Y-110032409D01*
X186962547Y-110032409D01*
X187029586Y-110052094D01*
X187050228Y-110068728D01*
X187404970Y-110423470D01*
X187453021Y-110451212D01*
X187453022Y-110451213D01*
X187484888Y-110469611D01*
X187484889Y-110469611D01*
X187484894Y-110469614D01*
X187574038Y-110493500D01*
X187783255Y-110493500D01*
X187850294Y-110513185D01*
X187896049Y-110565989D01*
X187905993Y-110635147D01*
X187905728Y-110636898D01*
X187895500Y-110701475D01*
X187895500Y-111064517D01*
X187905921Y-111130313D01*
X187910354Y-111158304D01*
X187967950Y-111271342D01*
X187967952Y-111271344D01*
X187967954Y-111271347D01*
X188057652Y-111361045D01*
X188057654Y-111361046D01*
X188057658Y-111361050D01*
X188148851Y-111407515D01*
X188199647Y-111455490D01*
X188216442Y-111523311D01*
X188193904Y-111589446D01*
X188148852Y-111628484D01*
X188057658Y-111674950D01*
X188057657Y-111674951D01*
X188057652Y-111674954D01*
X187967954Y-111764652D01*
X187967951Y-111764657D01*
X187967950Y-111764658D01*
X187956982Y-111786184D01*
X187910352Y-111877698D01*
X187895500Y-111971475D01*
X187895500Y-112334518D01*
X187908004Y-112413467D01*
X187899048Y-112482760D01*
X187854051Y-112536212D01*
X187787299Y-112556850D01*
X187719985Y-112538124D01*
X187697849Y-112520544D01*
X187646732Y-112469427D01*
X187646728Y-112469424D01*
X187502492Y-112380457D01*
X187502481Y-112380452D01*
X187341606Y-112327144D01*
X187242322Y-112317000D01*
X187194000Y-112317000D01*
X187194000Y-113017000D01*
X187838000Y-113017000D01*
X187905039Y-113036685D01*
X187950794Y-113089489D01*
X187962000Y-113141000D01*
X187962000Y-113173000D01*
X190593295Y-113173000D01*
X190593295Y-113172998D01*
X190593100Y-113170513D01*
X190547281Y-113012801D01*
X190463685Y-112871447D01*
X190463678Y-112871438D01*
X190347561Y-112755321D01*
X190347553Y-112755315D01*
X190304507Y-112729858D01*
X190256824Y-112678789D01*
X190244320Y-112610048D01*
X190269153Y-112549848D01*
X190268314Y-112549238D01*
X190270839Y-112545761D01*
X190270965Y-112545458D01*
X190271465Y-112544900D01*
X190276032Y-112538615D01*
X190279518Y-112535926D01*
X190279990Y-112535401D01*
X190280994Y-112534398D01*
X190281214Y-112534618D01*
X190331361Y-112495949D01*
X190376350Y-112487500D01*
X191573456Y-112487500D01*
X191640495Y-112507185D01*
X191661137Y-112523819D01*
X192170788Y-113033470D01*
X192250016Y-113079212D01*
X192250712Y-113079614D01*
X192339856Y-113103500D01*
X192339857Y-113103500D01*
X192339858Y-113103500D01*
X192480220Y-113103500D01*
X192547259Y-113123185D01*
X192571275Y-113143328D01*
X192598704Y-113173000D01*
X193821000Y-113173000D01*
X193854181Y-113139819D01*
X193915504Y-113106334D01*
X193941862Y-113103500D01*
X194200138Y-113103500D01*
X194267177Y-113123185D01*
X194287819Y-113139819D01*
X194321000Y-113173000D01*
X195543295Y-113173000D01*
X195543295Y-113172998D01*
X195543100Y-113170513D01*
X195497280Y-113012799D01*
X195482918Y-112988513D01*
X195465735Y-112920789D01*
X195487895Y-112854526D01*
X195501958Y-112837723D01*
X197009863Y-111329819D01*
X197071186Y-111296334D01*
X197097544Y-111293500D01*
X200859456Y-111293500D01*
X200926495Y-111313185D01*
X200972250Y-111365989D01*
X200982194Y-111435147D01*
X200953169Y-111498703D01*
X200947142Y-111505175D01*
X200788817Y-111663500D01*
X200315836Y-112136480D01*
X200254513Y-112169965D01*
X200207918Y-112169551D01*
X200207825Y-112170417D01*
X200143493Y-112163500D01*
X199552518Y-112163500D01*
X199552509Y-112163501D01*
X199495885Y-112169587D01*
X199367773Y-112217372D01*
X199258313Y-112299313D01*
X199176373Y-112408771D01*
X199166886Y-112434207D01*
X199128840Y-112536212D01*
X199128587Y-112536889D01*
X199122500Y-112593498D01*
X199122500Y-113042455D01*
X199102815Y-113109494D01*
X199086181Y-113130136D01*
X198510137Y-113706181D01*
X198448814Y-113739666D01*
X198422456Y-113742500D01*
X195661780Y-113742500D01*
X195594741Y-113722815D01*
X195570725Y-113702672D01*
X195543296Y-113673000D01*
X194321000Y-113673000D01*
X194287819Y-113706181D01*
X194226496Y-113739666D01*
X194200138Y-113742500D01*
X193941862Y-113742500D01*
X193874823Y-113722815D01*
X193854181Y-113706181D01*
X193821000Y-113673000D01*
X192598704Y-113673000D01*
X192571275Y-113702672D01*
X192511314Y-113738538D01*
X192480220Y-113742500D01*
X192053856Y-113742500D01*
X191983062Y-113761469D01*
X191983061Y-113761469D01*
X191964714Y-113766384D01*
X191964713Y-113766385D01*
X191884791Y-113812527D01*
X191884786Y-113812531D01*
X191391137Y-114306181D01*
X191329814Y-114339666D01*
X191303456Y-114342500D01*
X190375024Y-114342500D01*
X190307985Y-114322815D01*
X190262230Y-114270011D01*
X190252286Y-114200853D01*
X190281311Y-114137297D01*
X190311904Y-114111768D01*
X190347549Y-114090687D01*
X190347561Y-114090678D01*
X190463678Y-113974561D01*
X190463685Y-113974552D01*
X190547281Y-113833198D01*
X190593100Y-113675486D01*
X190593295Y-113673001D01*
X190593295Y-113673000D01*
X187727000Y-113673000D01*
X187659961Y-113653315D01*
X187614206Y-113600511D01*
X187603000Y-113549000D01*
X187603000Y-113517000D01*
X185969001Y-113517000D01*
X185969001Y-113540322D01*
X185979144Y-113639607D01*
X186032452Y-113800481D01*
X186032457Y-113800492D01*
X186121424Y-113944728D01*
X186121427Y-113944732D01*
X186241266Y-114064571D01*
X186299268Y-114100347D01*
X186345992Y-114152295D01*
X186357215Y-114221258D01*
X186333439Y-114280195D01*
X186268602Y-114366809D01*
X186212669Y-114408681D01*
X186169334Y-114416500D01*
X185930493Y-114416500D01*
X185863454Y-114396815D01*
X185842812Y-114380181D01*
X184456308Y-112993677D01*
X185969000Y-112993677D01*
X185969000Y-113017000D01*
X186694000Y-113017000D01*
X186694000Y-112317000D01*
X186693999Y-112316999D01*
X186645693Y-112317000D01*
X186645675Y-112317001D01*
X186546392Y-112327144D01*
X186385518Y-112380452D01*
X186385507Y-112380457D01*
X186241271Y-112469424D01*
X186241267Y-112469427D01*
X186121427Y-112589267D01*
X186121424Y-112589271D01*
X186032457Y-112733507D01*
X186032452Y-112733518D01*
X185979144Y-112894393D01*
X185969000Y-112993677D01*
X184456308Y-112993677D01*
X182935819Y-111473188D01*
X182902334Y-111411865D01*
X182899500Y-111385507D01*
X182899500Y-108648336D01*
X182919185Y-108581297D01*
X182971989Y-108535542D01*
X182978689Y-108532716D01*
X183090637Y-108489348D01*
X183264041Y-108381981D01*
X183414764Y-108244579D01*
X183537673Y-108081821D01*
X183628582Y-107899250D01*
X183684397Y-107703083D01*
X183703215Y-107500000D01*
X183703204Y-107499886D01*
X183684397Y-107296917D01*
X183675871Y-107266953D01*
X183628582Y-107100750D01*
X183628036Y-107099654D01*
X183567211Y-106977500D01*
X183537673Y-106918179D01*
X183420452Y-106762953D01*
X183414762Y-106755418D01*
X183264041Y-106618019D01*
X183264039Y-106618017D01*
X183090642Y-106510655D01*
X183090635Y-106510651D01*
X182945172Y-106454299D01*
X182900456Y-106436976D01*
X182699976Y-106399500D01*
X182496024Y-106399500D01*
X182295544Y-106436976D01*
X182295541Y-106436976D01*
X182295541Y-106436977D01*
X182105364Y-106510651D01*
X182105357Y-106510655D01*
X181931960Y-106618017D01*
X181931958Y-106618019D01*
X181781237Y-106755418D01*
X181658327Y-106918178D01*
X181567422Y-107100739D01*
X181567417Y-107100752D01*
X181511602Y-107296917D01*
X181492785Y-107499999D01*
X181492785Y-107500000D01*
X181511602Y-107703082D01*
X181567417Y-107899247D01*
X181567422Y-107899260D01*
X181654504Y-108074143D01*
X181658327Y-108081821D01*
X181781236Y-108244579D01*
X181931959Y-108381981D01*
X182039778Y-108448739D01*
X182086413Y-108500765D01*
X182098500Y-108554165D01*
X182098500Y-111043613D01*
X182078815Y-111110652D01*
X182026011Y-111156407D01*
X181956853Y-111166351D01*
X181893297Y-111137326D01*
X181886819Y-111131294D01*
X180926819Y-110171294D01*
X180893334Y-110109971D01*
X180890500Y-110083613D01*
X180890500Y-91842387D01*
X180910185Y-91775348D01*
X180926819Y-91754706D01*
X182558681Y-90122844D01*
X184850000Y-90122844D01*
X184856401Y-90182372D01*
X184856403Y-90182379D01*
X184906645Y-90317086D01*
X184906649Y-90317093D01*
X184992809Y-90432187D01*
X184992812Y-90432190D01*
X185107906Y-90518350D01*
X185107913Y-90518354D01*
X185242620Y-90568596D01*
X185242627Y-90568598D01*
X185302155Y-90574999D01*
X185302172Y-90575000D01*
X186100000Y-90575000D01*
X186600000Y-90575000D01*
X187397828Y-90575000D01*
X187397844Y-90574999D01*
X187457372Y-90568598D01*
X187457379Y-90568596D01*
X187592086Y-90518354D01*
X187592093Y-90518350D01*
X187707187Y-90432190D01*
X187707190Y-90432187D01*
X187793350Y-90317093D01*
X187793354Y-90317086D01*
X187843596Y-90182379D01*
X187843598Y-90182372D01*
X187849999Y-90122844D01*
X193750000Y-90122844D01*
X193756401Y-90182372D01*
X193756403Y-90182379D01*
X193806645Y-90317086D01*
X193806649Y-90317093D01*
X193892809Y-90432187D01*
X193892812Y-90432190D01*
X194007906Y-90518350D01*
X194007913Y-90518354D01*
X194142620Y-90568596D01*
X194142627Y-90568598D01*
X194202155Y-90574999D01*
X194202172Y-90575000D01*
X195000000Y-90575000D01*
X195500000Y-90575000D01*
X196297828Y-90575000D01*
X196297844Y-90574999D01*
X196357372Y-90568598D01*
X196357379Y-90568596D01*
X196492086Y-90518354D01*
X196492093Y-90518350D01*
X196607187Y-90432190D01*
X196607190Y-90432187D01*
X196693350Y-90317093D01*
X196693354Y-90317086D01*
X196743596Y-90182379D01*
X196743598Y-90182372D01*
X196749999Y-90122844D01*
X196750000Y-90122827D01*
X196750000Y-89475000D01*
X195500000Y-89475000D01*
X195500000Y-90575000D01*
X195000000Y-90575000D01*
X195000000Y-89475000D01*
X193750000Y-89475000D01*
X193750000Y-90122844D01*
X187849999Y-90122844D01*
X187850000Y-90122827D01*
X187850000Y-89475000D01*
X186600000Y-89475000D01*
X186600000Y-90575000D01*
X186100000Y-90575000D01*
X186100000Y-89475000D01*
X184850000Y-89475000D01*
X184850000Y-90122844D01*
X182558681Y-90122844D01*
X182819740Y-89861785D01*
X184746778Y-87934746D01*
X184808099Y-87901263D01*
X184877791Y-87906247D01*
X184933724Y-87948119D01*
X184958141Y-88013583D01*
X184943289Y-88081856D01*
X184933724Y-88096739D01*
X184906649Y-88132906D01*
X184906645Y-88132913D01*
X184856403Y-88267620D01*
X184856401Y-88267627D01*
X184850000Y-88327155D01*
X184850000Y-88975000D01*
X187850000Y-88975000D01*
X187850000Y-88327172D01*
X187849999Y-88327155D01*
X187843598Y-88267627D01*
X187843596Y-88267620D01*
X187793354Y-88132913D01*
X187793350Y-88132906D01*
X187707190Y-88017812D01*
X187707187Y-88017809D01*
X187592093Y-87931649D01*
X187592086Y-87931645D01*
X187530518Y-87908682D01*
X187474584Y-87866811D01*
X187450167Y-87801346D01*
X187465019Y-87733073D01*
X187514424Y-87683668D01*
X187573851Y-87668500D01*
X194026149Y-87668500D01*
X194093188Y-87688185D01*
G37*
%TD.AperFunction*%
%TA.AperFunction,Conductor*%
G36*
X203094495Y-111388185D02*
G01*
X203115137Y-111404819D01*
X204033181Y-112322862D01*
X204066666Y-112384185D01*
X204069500Y-112410543D01*
X204069500Y-112495976D01*
X204049815Y-112563015D01*
X203997011Y-112608770D01*
X203955230Y-112619594D01*
X203946371Y-112620291D01*
X203794614Y-112664380D01*
X203794609Y-112664382D01*
X203658583Y-112744827D01*
X203658574Y-112744834D01*
X203546834Y-112856574D01*
X203546830Y-112856580D01*
X203518039Y-112905263D01*
X203466969Y-112952946D01*
X203398228Y-112965449D01*
X203333638Y-112938803D01*
X203300219Y-112897236D01*
X203236607Y-112768974D01*
X203117367Y-112620633D01*
X203117366Y-112620632D01*
X202969025Y-112501392D01*
X202969022Y-112501390D01*
X202798523Y-112416831D01*
X202613824Y-112370897D01*
X202571097Y-112368000D01*
X202370000Y-112368000D01*
X202370000Y-113994000D01*
X202350315Y-114061039D01*
X202297511Y-114106794D01*
X202246000Y-114118000D01*
X201994000Y-114118000D01*
X201926961Y-114098315D01*
X201881206Y-114045511D01*
X201870000Y-113994000D01*
X201870000Y-112368000D01*
X201668903Y-112368000D01*
X201626175Y-112370897D01*
X201441476Y-112416831D01*
X201296484Y-112488740D01*
X201227679Y-112500892D01*
X201163227Y-112473915D01*
X201123592Y-112416376D01*
X201121356Y-112346542D01*
X201153707Y-112289973D01*
X201888862Y-111554819D01*
X201950185Y-111521334D01*
X201976543Y-111518500D01*
X202001962Y-111518500D01*
X202001962Y-111518499D01*
X202140053Y-111477953D01*
X202261128Y-111400143D01*
X202261136Y-111400133D01*
X202262688Y-111398790D01*
X202264572Y-111397929D01*
X202268589Y-111395348D01*
X202268960Y-111395925D01*
X202326243Y-111369763D01*
X202343895Y-111368500D01*
X203027456Y-111368500D01*
X203094495Y-111388185D01*
G37*
%TD.AperFunction*%
%TA.AperFunction,Conductor*%
G36*
X226251210Y-112154866D02*
G01*
X226292821Y-112189964D01*
X226356488Y-112273921D01*
X226364406Y-112279926D01*
X226405928Y-112336119D01*
X226410479Y-112405841D01*
X226376613Y-112466954D01*
X226355452Y-112483722D01*
X226247464Y-112551575D01*
X226119988Y-112679051D01*
X226024071Y-112831702D01*
X226024071Y-112831703D01*
X226021842Y-112838073D01*
X225981116Y-112894846D01*
X225916162Y-112920589D01*
X225847601Y-112907127D01*
X225806000Y-112872035D01*
X225742333Y-112788077D01*
X225734416Y-112782074D01*
X225692893Y-112725882D01*
X225688341Y-112656161D01*
X225722205Y-112595047D01*
X225743370Y-112578276D01*
X225851356Y-112510424D01*
X225851359Y-112510422D01*
X225978833Y-112382948D01*
X226074747Y-112230301D01*
X226076975Y-112223936D01*
X226117695Y-112167160D01*
X226182648Y-112141411D01*
X226251210Y-112154866D01*
G37*
%TD.AperFunction*%
%TA.AperFunction,Conductor*%
G36*
X208141502Y-110438185D02*
G01*
X208187257Y-110490989D01*
X208197201Y-110560147D01*
X208180002Y-110607596D01*
X208165645Y-110630871D01*
X208165641Y-110630880D01*
X208110494Y-110797302D01*
X208110493Y-110797309D01*
X208100000Y-110900013D01*
X208100000Y-111025000D01*
X209626000Y-111025000D01*
X209693039Y-111044685D01*
X209738794Y-111097489D01*
X209750000Y-111149000D01*
X209750000Y-112349999D01*
X210199972Y-112349999D01*
X210199986Y-112349998D01*
X210302697Y-112339505D01*
X210469120Y-112284358D01*
X210475671Y-112281304D01*
X210477043Y-112284247D01*
X210530440Y-112269560D01*
X210597131Y-112290394D01*
X210615990Y-112305861D01*
X210789402Y-112479273D01*
X210822887Y-112540596D01*
X210824459Y-112549305D01*
X210828393Y-112576664D01*
X210831036Y-112595047D01*
X210831669Y-112599445D01*
X210821726Y-112668603D01*
X210775972Y-112721408D01*
X210708933Y-112741094D01*
X208796138Y-112741094D01*
X208729099Y-112721409D01*
X208708457Y-112704775D01*
X208537649Y-112533967D01*
X208504164Y-112472644D01*
X208509148Y-112402952D01*
X208551020Y-112347019D01*
X208616484Y-112322602D01*
X208664335Y-112328580D01*
X208697305Y-112339505D01*
X208697309Y-112339506D01*
X208800019Y-112349999D01*
X209249999Y-112349999D01*
X209250000Y-112349998D01*
X209250000Y-111525000D01*
X208100001Y-111525000D01*
X208100001Y-111649986D01*
X208110494Y-111752698D01*
X208121418Y-111785665D01*
X208123820Y-111855493D01*
X208088088Y-111915535D01*
X208025567Y-111946727D01*
X207956108Y-111939166D01*
X207916031Y-111912349D01*
X206633863Y-110630181D01*
X206600378Y-110568858D01*
X206605362Y-110499166D01*
X206647234Y-110443233D01*
X206712698Y-110418816D01*
X206721544Y-110418500D01*
X208074463Y-110418500D01*
X208141502Y-110438185D01*
G37*
%TD.AperFunction*%
%TA.AperFunction,Conductor*%
G36*
X192547259Y-111853185D02*
G01*
X192571275Y-111873328D01*
X192598704Y-111903000D01*
X193821000Y-111903000D01*
X193854181Y-111869819D01*
X193915504Y-111836334D01*
X193941862Y-111833500D01*
X194197000Y-111833500D01*
X194264039Y-111853185D01*
X194309794Y-111905989D01*
X194321000Y-111957500D01*
X194321000Y-112278500D01*
X194301315Y-112345539D01*
X194248511Y-112391294D01*
X194197000Y-112402500D01*
X192582544Y-112402500D01*
X192515505Y-112382815D01*
X192494863Y-112366181D01*
X192173863Y-112045181D01*
X192140378Y-111983858D01*
X192145362Y-111914166D01*
X192187234Y-111858233D01*
X192252698Y-111833816D01*
X192261544Y-111833500D01*
X192480220Y-111833500D01*
X192547259Y-111853185D01*
G37*
%TD.AperFunction*%
%TA.AperFunction,Conductor*%
G36*
X221707792Y-111427988D02*
G01*
X221752139Y-111456489D01*
X221930330Y-111634680D01*
X221963815Y-111696003D01*
X221958831Y-111765695D01*
X221930330Y-111810042D01*
X221734814Y-112005558D01*
X221673491Y-112039043D01*
X221603799Y-112034059D01*
X221559452Y-112005558D01*
X221381261Y-111827367D01*
X221347776Y-111766044D01*
X221352760Y-111696352D01*
X221381261Y-111652005D01*
X221576777Y-111456489D01*
X221638100Y-111423004D01*
X221707792Y-111427988D01*
G37*
%TD.AperFunction*%
%TA.AperFunction,Conductor*%
G36*
X225976333Y-107488861D02*
G01*
X226020680Y-107517362D01*
X226717788Y-108214470D01*
X226717790Y-108214471D01*
X226717794Y-108214474D01*
X226776185Y-108248186D01*
X226776186Y-108248186D01*
X226797712Y-108260614D01*
X226886856Y-108284500D01*
X226886857Y-108284500D01*
X226979144Y-108284500D01*
X228614933Y-108284500D01*
X228681972Y-108304185D01*
X228727727Y-108356989D01*
X228737670Y-108426146D01*
X228734959Y-108445011D01*
X228729353Y-108484000D01*
X228749834Y-108626456D01*
X228795067Y-108725500D01*
X228809623Y-108757373D01*
X228903872Y-108866143D01*
X229024947Y-108943953D01*
X229024950Y-108943954D01*
X229024949Y-108943954D01*
X229163252Y-108984563D01*
X229215999Y-109015859D01*
X229315592Y-109115452D01*
X229349077Y-109176775D01*
X229351911Y-109203133D01*
X229351911Y-110870590D01*
X229332226Y-110937629D01*
X229279422Y-110983384D01*
X229226217Y-110993487D01*
X229226217Y-110994500D01*
X228631929Y-110994500D01*
X228631920Y-110994501D01*
X228575296Y-111000587D01*
X228447184Y-111048372D01*
X228337721Y-111130315D01*
X228303192Y-111176441D01*
X228247258Y-111218312D01*
X228177567Y-111223296D01*
X228116244Y-111189810D01*
X228088573Y-111147623D01*
X228033772Y-111008658D01*
X228033771Y-111008657D01*
X228033771Y-111008656D01*
X227942333Y-110888077D01*
X227821754Y-110796639D01*
X227680972Y-110741122D01*
X227635337Y-110735642D01*
X227592513Y-110730500D01*
X227592508Y-110730500D01*
X226845955Y-110730500D01*
X226778916Y-110710815D01*
X226758274Y-110694181D01*
X226142624Y-110078531D01*
X226142619Y-110078527D01*
X226062699Y-110032386D01*
X226062696Y-110032385D01*
X226059389Y-110031498D01*
X226059389Y-110031499D01*
X226023111Y-110021778D01*
X225973555Y-110008500D01*
X225973554Y-110008500D01*
X224139240Y-110008500D01*
X224072201Y-109988815D01*
X224051559Y-109972181D01*
X223167059Y-109087681D01*
X223133574Y-109026358D01*
X223138558Y-108956666D01*
X223167059Y-108912319D01*
X223311742Y-108767636D01*
X223373065Y-108734151D01*
X223442757Y-108739135D01*
X223498690Y-108781007D01*
X223522161Y-108837670D01*
X223542834Y-108981456D01*
X223598769Y-109103935D01*
X223602623Y-109112373D01*
X223696872Y-109221143D01*
X223817947Y-109298953D01*
X223817950Y-109298954D01*
X223817949Y-109298954D01*
X223956036Y-109339499D01*
X223956038Y-109339500D01*
X223956039Y-109339500D01*
X224099962Y-109339500D01*
X224099962Y-109339499D01*
X224207121Y-109308035D01*
X224238050Y-109298954D01*
X224238050Y-109298953D01*
X224238053Y-109298953D01*
X224359128Y-109221143D01*
X224453377Y-109112373D01*
X224513165Y-108981457D01*
X224529447Y-108868208D01*
X224558470Y-108804656D01*
X224564489Y-108798191D01*
X225845322Y-107517359D01*
X225906641Y-107483877D01*
X225976333Y-107488861D01*
G37*
%TD.AperFunction*%
%TA.AperFunction,Conductor*%
G36*
X192123677Y-110513185D02*
G01*
X192144319Y-110529819D01*
X192177970Y-110563470D01*
X192253268Y-110606943D01*
X192253274Y-110606947D01*
X192257891Y-110609613D01*
X192257893Y-110609613D01*
X192257894Y-110609614D01*
X192347038Y-110633500D01*
X192347040Y-110633500D01*
X194197000Y-110633500D01*
X194264039Y-110653185D01*
X194309794Y-110705989D01*
X194321000Y-110757500D01*
X194321000Y-111008500D01*
X194301315Y-111075539D01*
X194248511Y-111121294D01*
X194197000Y-111132500D01*
X192074544Y-111132500D01*
X192007505Y-111112815D01*
X191986863Y-111096181D01*
X191595863Y-110705181D01*
X191562378Y-110643858D01*
X191567362Y-110574166D01*
X191609234Y-110518233D01*
X191674698Y-110493816D01*
X191683544Y-110493500D01*
X192056638Y-110493500D01*
X192123677Y-110513185D01*
G37*
%TD.AperFunction*%
%TA.AperFunction,Conductor*%
G36*
X220860518Y-110475185D02*
G01*
X220906273Y-110527989D01*
X220916217Y-110597147D01*
X220887192Y-110660703D01*
X220881160Y-110667181D01*
X220515055Y-111033286D01*
X220453732Y-111066771D01*
X220384040Y-111061787D01*
X220339693Y-111033286D01*
X220223819Y-110917412D01*
X220190334Y-110856089D01*
X220187500Y-110829731D01*
X220187500Y-110579500D01*
X220207185Y-110512461D01*
X220259989Y-110466706D01*
X220311500Y-110455500D01*
X220793479Y-110455500D01*
X220860518Y-110475185D01*
G37*
%TD.AperFunction*%
%TA.AperFunction,Conductor*%
G36*
X191037039Y-106666685D02*
G01*
X191082794Y-106719489D01*
X191094000Y-106771000D01*
X191094000Y-107675789D01*
X191114913Y-107674144D01*
X191203521Y-107648402D01*
X191273390Y-107648601D01*
X191282460Y-107654000D01*
X193170638Y-107654000D01*
X193237677Y-107673685D01*
X193258319Y-107690319D01*
X193293000Y-107725000D01*
X193991000Y-107725000D01*
X194058039Y-107744685D01*
X194103794Y-107797489D01*
X194115000Y-107849000D01*
X194115000Y-108101000D01*
X194095315Y-108168039D01*
X194042511Y-108213794D01*
X193991000Y-108225000D01*
X192844362Y-108225000D01*
X192777323Y-108205315D01*
X192756681Y-108188681D01*
X192722000Y-108154000D01*
X191300001Y-108154000D01*
X191300001Y-108177322D01*
X191310144Y-108276607D01*
X191363452Y-108437481D01*
X191363457Y-108437492D01*
X191452424Y-108581728D01*
X191452427Y-108581732D01*
X191572267Y-108701572D01*
X191572271Y-108701575D01*
X191671793Y-108762962D01*
X191718518Y-108814910D01*
X191729739Y-108883873D01*
X191701896Y-108947955D01*
X191643827Y-108986810D01*
X191606696Y-108992500D01*
X191032544Y-108992500D01*
X190965505Y-108972815D01*
X190944863Y-108956181D01*
X190081818Y-108093136D01*
X190048333Y-108031813D01*
X190045499Y-108005455D01*
X190045499Y-107612959D01*
X190065184Y-107545920D01*
X190117988Y-107500165D01*
X190187146Y-107490221D01*
X190250702Y-107519246D01*
X190257180Y-107525278D01*
X190278616Y-107546714D01*
X190278625Y-107546721D01*
X190417804Y-107629031D01*
X190573089Y-107674145D01*
X190594000Y-107675789D01*
X190594000Y-106771000D01*
X190613685Y-106703961D01*
X190666489Y-106658206D01*
X190718000Y-106647000D01*
X190970000Y-106647000D01*
X191037039Y-106666685D01*
G37*
%TD.AperFunction*%
%TA.AperFunction,Conductor*%
G36*
X216625031Y-106329116D02*
G01*
X216680964Y-106370988D01*
X216694491Y-106393787D01*
X216711121Y-106430203D01*
X216711124Y-106430207D01*
X216805373Y-106538977D01*
X216805375Y-106538978D01*
X216816624Y-106546208D01*
X216862379Y-106599012D01*
X216872322Y-106668171D01*
X216843296Y-106731726D01*
X216837265Y-106738204D01*
X216351290Y-107224181D01*
X216289967Y-107257666D01*
X216263609Y-107260500D01*
X216243343Y-107260500D01*
X216176304Y-107240815D01*
X216130549Y-107188011D01*
X216120605Y-107118853D01*
X216149630Y-107055297D01*
X216155662Y-107048819D01*
X216235874Y-106968606D01*
X216235878Y-106968602D01*
X216273455Y-106921971D01*
X216273460Y-106921964D01*
X216333182Y-106791191D01*
X216333184Y-106791183D01*
X216353644Y-106648870D01*
X216343512Y-106578391D01*
X216353456Y-106509233D01*
X216378566Y-106473067D01*
X216494018Y-106357615D01*
X216555339Y-106324132D01*
X216625031Y-106329116D01*
G37*
%TD.AperFunction*%
%TA.AperFunction,Conductor*%
G36*
X194750951Y-106547794D02*
G01*
X194767723Y-106568959D01*
X194835577Y-106676948D01*
X194963051Y-106804422D01*
X195115700Y-106900337D01*
X195122065Y-106902565D01*
X195178841Y-106943287D01*
X195204588Y-107008240D01*
X195191131Y-107076801D01*
X195156036Y-107118409D01*
X195072078Y-107182076D01*
X195066072Y-107189997D01*
X195009878Y-107231519D01*
X194940157Y-107236069D01*
X194879044Y-107202202D01*
X194862276Y-107181041D01*
X194794422Y-107073051D01*
X194666948Y-106945577D01*
X194514298Y-106849661D01*
X194507928Y-106847432D01*
X194451154Y-106806708D01*
X194425411Y-106741754D01*
X194438870Y-106673193D01*
X194473962Y-106631590D01*
X194557922Y-106567922D01*
X194563924Y-106560006D01*
X194620116Y-106518483D01*
X194689837Y-106513930D01*
X194750951Y-106547794D01*
G37*
%TD.AperFunction*%
%TA.AperFunction,Conductor*%
G36*
X214988548Y-104679185D02*
G01*
X215034303Y-104731989D01*
X215044247Y-104801147D01*
X215015222Y-104864703D01*
X215009190Y-104871182D01*
X214892937Y-104987434D01*
X214831614Y-105020918D01*
X214787611Y-105022490D01*
X214717134Y-105012358D01*
X214717133Y-105012358D01*
X214574819Y-105032818D01*
X214574811Y-105032820D01*
X214444038Y-105092542D01*
X214444031Y-105092547D01*
X214397401Y-105130124D01*
X214397395Y-105130129D01*
X214345901Y-105181622D01*
X214345901Y-105181623D01*
X215354236Y-106189958D01*
X215387721Y-106251281D01*
X215382737Y-106320973D01*
X215354236Y-106365320D01*
X215176045Y-106543511D01*
X215114722Y-106576996D01*
X215045030Y-106572012D01*
X215000683Y-106543511D01*
X214371763Y-105914591D01*
X214338278Y-105853268D01*
X214336706Y-105809267D01*
X214343762Y-105760194D01*
X214323280Y-105617737D01*
X214263492Y-105486821D01*
X214169243Y-105378051D01*
X214048168Y-105300241D01*
X214048166Y-105300240D01*
X214048164Y-105300239D01*
X214048165Y-105300239D01*
X213910078Y-105259694D01*
X213910076Y-105259694D01*
X213766154Y-105259694D01*
X213766151Y-105259694D01*
X213628064Y-105300239D01*
X213506991Y-105378048D01*
X213506989Y-105378049D01*
X213506987Y-105378051D01*
X213506985Y-105378052D01*
X213505427Y-105379404D01*
X213503542Y-105380264D01*
X213499526Y-105382846D01*
X213499154Y-105382268D01*
X213441872Y-105408431D01*
X213424220Y-105409694D01*
X212698424Y-105409694D01*
X212631385Y-105390009D01*
X212610743Y-105373375D01*
X212574549Y-105337181D01*
X212541064Y-105275858D01*
X212546048Y-105206166D01*
X212587920Y-105150233D01*
X212653384Y-105125816D01*
X212662230Y-105125500D01*
X213363642Y-105125500D01*
X213363644Y-105125500D01*
X213452788Y-105101614D01*
X213477234Y-105087500D01*
X213532712Y-105055470D01*
X213892363Y-104695819D01*
X213953686Y-104662334D01*
X213980044Y-104659500D01*
X214921509Y-104659500D01*
X214988548Y-104679185D01*
G37*
%TD.AperFunction*%
%TA.AperFunction,Conductor*%
G36*
X196881445Y-104402094D02*
G01*
X196920482Y-104447145D01*
X196959020Y-104522778D01*
X196966951Y-104538343D01*
X196966954Y-104538347D01*
X197056652Y-104628045D01*
X197056654Y-104628046D01*
X197056658Y-104628050D01*
X197169692Y-104685644D01*
X197169698Y-104685647D01*
X197263475Y-104700499D01*
X197263481Y-104700500D01*
X197431954Y-104700499D01*
X197498994Y-104720183D01*
X197519636Y-104736818D01*
X197836181Y-105053363D01*
X197869666Y-105114686D01*
X197872500Y-105141044D01*
X197872500Y-105203000D01*
X197852815Y-105270039D01*
X197800011Y-105315794D01*
X197748500Y-105327000D01*
X197698000Y-105327000D01*
X197698000Y-106403000D01*
X197678315Y-106470039D01*
X197625511Y-106515794D01*
X197574000Y-106527000D01*
X197322000Y-106527000D01*
X197254961Y-106507315D01*
X197209206Y-106454511D01*
X197198000Y-106403000D01*
X197198000Y-105327000D01*
X197197999Y-105326999D01*
X197149693Y-105327000D01*
X197149675Y-105327001D01*
X197050390Y-105337144D01*
X197017548Y-105348027D01*
X196947719Y-105350428D01*
X196887678Y-105314696D01*
X196856486Y-105252175D01*
X196855325Y-105244204D01*
X196849877Y-105195858D01*
X196790336Y-105025698D01*
X196694422Y-104873051D01*
X196594063Y-104772692D01*
X196560578Y-104711369D01*
X196565562Y-104641677D01*
X196594063Y-104597330D01*
X196653045Y-104538347D01*
X196653050Y-104538342D01*
X196699516Y-104447145D01*
X196747490Y-104396352D01*
X196815311Y-104379557D01*
X196881445Y-104402094D01*
G37*
%TD.AperFunction*%
%TA.AperFunction,Conductor*%
G36*
X215909365Y-98780685D02*
G01*
X215955120Y-98833489D01*
X215965064Y-98902647D01*
X215943860Y-98953835D01*
X215944040Y-98953934D01*
X215943125Y-98955608D01*
X215941592Y-98959311D01*
X215939790Y-98961717D01*
X215890748Y-99093200D01*
X215884500Y-99151309D01*
X215884500Y-99744690D01*
X215890748Y-99802799D01*
X215939789Y-99934280D01*
X215949421Y-99947146D01*
X216023884Y-100046616D01*
X216136222Y-100130712D01*
X216136226Y-100130714D01*
X216178832Y-100146605D01*
X216234766Y-100188476D01*
X216259184Y-100253940D01*
X216259500Y-100262787D01*
X216259500Y-102654294D01*
X216239815Y-102721333D01*
X216223181Y-102741975D01*
X215710949Y-103254207D01*
X215710947Y-103254207D01*
X215710948Y-103254208D01*
X215658012Y-103307144D01*
X215600185Y-103364970D01*
X215600184Y-103364971D01*
X215552369Y-103412787D01*
X215552366Y-103412788D01*
X215552367Y-103412789D01*
X215505157Y-103459999D01*
X215441266Y-103523889D01*
X215441264Y-103523891D01*
X215042975Y-103922181D01*
X214981652Y-103955666D01*
X214955294Y-103958500D01*
X213737354Y-103958500D01*
X213678716Y-103974212D01*
X213678715Y-103974211D01*
X213648216Y-103982384D01*
X213648209Y-103982387D01*
X213568291Y-104028527D01*
X213568286Y-104028531D01*
X213208637Y-104388181D01*
X213147314Y-104421666D01*
X213120956Y-104424500D01*
X212828352Y-104424500D01*
X212761313Y-104404815D01*
X212715558Y-104352011D01*
X212705614Y-104282854D01*
X212713075Y-104230962D01*
X212722542Y-104165115D01*
X212748792Y-104107633D01*
X212747522Y-104106659D01*
X212752466Y-104100214D01*
X212752469Y-104100212D01*
X212798614Y-104020288D01*
X212799897Y-104015500D01*
X212801091Y-104011046D01*
X212805919Y-103993024D01*
X212822500Y-103931144D01*
X212822500Y-101812967D01*
X212798614Y-101723823D01*
X212791408Y-101711342D01*
X212752470Y-101643899D01*
X212499503Y-101390932D01*
X212466018Y-101329609D01*
X212464446Y-101320895D01*
X212464245Y-101319500D01*
X212460329Y-101292255D01*
X212470274Y-101223096D01*
X212516030Y-101170294D01*
X212583067Y-101150611D01*
X212610253Y-101150611D01*
X212610255Y-101150611D01*
X212699399Y-101126725D01*
X212706627Y-101122552D01*
X212779323Y-101080581D01*
X213658029Y-100201873D01*
X213719352Y-100168389D01*
X213789043Y-100173373D01*
X213833391Y-100201874D01*
X213911961Y-100280444D01*
X213911965Y-100280447D01*
X214058688Y-100370948D01*
X214058699Y-100370953D01*
X214222347Y-100425180D01*
X214323352Y-100435499D01*
X214360000Y-100435499D01*
X214860000Y-100435499D01*
X214896640Y-100435499D01*
X214896654Y-100435498D01*
X214997652Y-100425180D01*
X215161300Y-100370953D01*
X215161311Y-100370948D01*
X215308034Y-100280447D01*
X215308038Y-100280444D01*
X215429944Y-100158538D01*
X215429947Y-100158534D01*
X215520448Y-100011811D01*
X215520453Y-100011800D01*
X215574680Y-99848152D01*
X215584999Y-99747154D01*
X215585000Y-99747141D01*
X215585000Y-99698000D01*
X214860000Y-99698000D01*
X214860000Y-100435499D01*
X214360000Y-100435499D01*
X214360000Y-99322000D01*
X214379685Y-99254961D01*
X214432489Y-99209206D01*
X214484000Y-99198000D01*
X215584999Y-99198000D01*
X215584999Y-99148860D01*
X215584998Y-99148845D01*
X215574680Y-99047847D01*
X215533643Y-98924004D01*
X215531241Y-98854176D01*
X215566973Y-98794134D01*
X215629493Y-98762941D01*
X215651349Y-98761000D01*
X215842326Y-98761000D01*
X215909365Y-98780685D01*
G37*
%TD.AperFunction*%
%TA.AperFunction,Conductor*%
G36*
X211915039Y-102254685D02*
G01*
X211960794Y-102307489D01*
X211972000Y-102359000D01*
X211972000Y-103459999D01*
X211991635Y-103479634D01*
X211991805Y-103479684D01*
X211992583Y-103480582D01*
X212008319Y-103496318D01*
X212007193Y-103497443D01*
X212037560Y-103532488D01*
X212047504Y-103601646D01*
X212018479Y-103665202D01*
X211991805Y-103688314D01*
X211960441Y-103708471D01*
X211889968Y-103753761D01*
X211822523Y-103831597D01*
X211763745Y-103869371D01*
X211693875Y-103869371D01*
X211641129Y-103838075D01*
X211455208Y-103652154D01*
X211421723Y-103590831D01*
X211426707Y-103521139D01*
X211455206Y-103476793D01*
X211472000Y-103459998D01*
X211472000Y-102359000D01*
X211491685Y-102291961D01*
X211544489Y-102246206D01*
X211596000Y-102235000D01*
X211848000Y-102235000D01*
X211915039Y-102254685D01*
G37*
%TD.AperFunction*%
%TA.AperFunction,Conductor*%
G36*
X199600089Y-99282406D02*
G01*
X199651140Y-99313191D01*
X200253161Y-99915212D01*
X200318418Y-99980469D01*
X200318421Y-99980470D01*
X200318424Y-99980473D01*
X200398336Y-100026611D01*
X200398337Y-100026611D01*
X200398342Y-100026614D01*
X200487486Y-100050500D01*
X200625044Y-100050500D01*
X200692083Y-100070185D01*
X200737838Y-100122989D01*
X200747782Y-100192147D01*
X200747517Y-100193898D01*
X200734500Y-100276084D01*
X200734500Y-100764916D01*
X200734499Y-100764916D01*
X200749537Y-100859863D01*
X200749538Y-100859866D01*
X200749539Y-100859868D01*
X200803285Y-100965350D01*
X200807855Y-100974319D01*
X200807858Y-100974323D01*
X200833854Y-101000319D01*
X200867339Y-101061642D01*
X200862355Y-101131334D01*
X200833854Y-101175681D01*
X200807858Y-101201676D01*
X200807855Y-101201680D01*
X200749537Y-101316136D01*
X200734500Y-101411083D01*
X200734500Y-101784274D01*
X200714815Y-101851313D01*
X200662011Y-101897068D01*
X200592853Y-101907012D01*
X200529297Y-101877987D01*
X200522819Y-101871955D01*
X199616214Y-100965350D01*
X199582729Y-100904027D01*
X199587713Y-100834335D01*
X199597163Y-100814548D01*
X199642907Y-100737197D01*
X199642908Y-100737194D01*
X199689077Y-100578283D01*
X199689078Y-100578277D01*
X199691999Y-100541157D01*
X199692000Y-100541142D01*
X199692000Y-100512500D01*
X198756000Y-100512500D01*
X198688961Y-100492815D01*
X198643206Y-100440011D01*
X198632000Y-100388500D01*
X198632000Y-100136500D01*
X198651685Y-100069461D01*
X198704489Y-100023706D01*
X198756000Y-100012500D01*
X199692000Y-100012500D01*
X199692000Y-99983857D01*
X199691999Y-99983842D01*
X199689078Y-99946722D01*
X199689077Y-99946716D01*
X199642908Y-99787805D01*
X199642907Y-99787802D01*
X199558666Y-99645357D01*
X199558660Y-99645349D01*
X199465672Y-99552361D01*
X199432187Y-99491038D01*
X199430880Y-99445282D01*
X199440986Y-99381474D01*
X199470915Y-99318340D01*
X199530226Y-99281408D01*
X199600089Y-99282406D01*
G37*
%TD.AperFunction*%
%TA.AperFunction,Conductor*%
G36*
X211032703Y-101462185D02*
G01*
X211078458Y-101514989D01*
X211088402Y-101584147D01*
X211059377Y-101647703D01*
X211049346Y-101657291D01*
X211049375Y-101657320D01*
X210924427Y-101782267D01*
X210924424Y-101782270D01*
X210888649Y-101840270D01*
X210836701Y-101886993D01*
X210767738Y-101898214D01*
X210708802Y-101874438D01*
X210627230Y-101813374D01*
X210627223Y-101813370D01*
X210603165Y-101804397D01*
X210547232Y-101762525D01*
X210522816Y-101697060D01*
X210522500Y-101688216D01*
X210522500Y-101566500D01*
X210542185Y-101499461D01*
X210594989Y-101453706D01*
X210646500Y-101442500D01*
X210965664Y-101442500D01*
X211032703Y-101462185D01*
G37*
%TD.AperFunction*%
%TA.AperFunction,Conductor*%
G36*
X210989039Y-99269685D02*
G01*
X211034794Y-99322489D01*
X211046000Y-99374000D01*
X211046000Y-100487499D01*
X211082640Y-100487499D01*
X211082654Y-100487498D01*
X211183652Y-100477180D01*
X211253504Y-100454034D01*
X211323332Y-100451632D01*
X211383374Y-100487364D01*
X211414567Y-100549884D01*
X211407007Y-100619343D01*
X211380190Y-100659420D01*
X211334431Y-100705180D01*
X211273108Y-100738666D01*
X211246749Y-100741500D01*
X210860453Y-100741500D01*
X210793414Y-100721815D01*
X210772772Y-100705181D01*
X210582319Y-100514728D01*
X210548834Y-100453405D01*
X210546000Y-100427047D01*
X210546000Y-99374000D01*
X210565685Y-99306961D01*
X210618489Y-99261206D01*
X210670000Y-99250000D01*
X210922000Y-99250000D01*
X210989039Y-99269685D01*
G37*
%TD.AperFunction*%
%TA.AperFunction,Conductor*%
G36*
X212300203Y-93099516D02*
G01*
X212306681Y-93105548D01*
X213008181Y-93807048D01*
X213041666Y-93868371D01*
X213044500Y-93894729D01*
X213044500Y-95530370D01*
X213044501Y-95530376D01*
X213050908Y-95589983D01*
X213101202Y-95724828D01*
X213101206Y-95724835D01*
X213187452Y-95840044D01*
X213187455Y-95840047D01*
X213302664Y-95926293D01*
X213302671Y-95926297D01*
X213437517Y-95976591D01*
X213437516Y-95976591D01*
X213444444Y-95977335D01*
X213497127Y-95983000D01*
X214892872Y-95982999D01*
X214952483Y-95976591D01*
X215087331Y-95926296D01*
X215202546Y-95840046D01*
X215284372Y-95730739D01*
X215340305Y-95688870D01*
X215409997Y-95683886D01*
X215471319Y-95717371D01*
X216427267Y-96673319D01*
X216460752Y-96734642D01*
X216455768Y-96804334D01*
X216413896Y-96860267D01*
X216348432Y-96884684D01*
X216339586Y-96885000D01*
X216325809Y-96885000D01*
X216267700Y-96891248D01*
X216136219Y-96940289D01*
X216023884Y-97024384D01*
X215939789Y-97136719D01*
X215890748Y-97268200D01*
X215884500Y-97326309D01*
X215884500Y-97801456D01*
X215864815Y-97868495D01*
X215848181Y-97889137D01*
X215713637Y-98023681D01*
X215652314Y-98057166D01*
X215625956Y-98060000D01*
X215458460Y-98060000D01*
X215391421Y-98040315D01*
X215345666Y-97987511D01*
X215335170Y-97922748D01*
X215335499Y-97919681D01*
X215335500Y-97919673D01*
X215335500Y-97326326D01*
X215335499Y-97326309D01*
X215329251Y-97268200D01*
X215310216Y-97217167D01*
X215280212Y-97136722D01*
X215196116Y-97024384D01*
X215101152Y-96953294D01*
X215083780Y-96940289D01*
X215083778Y-96940288D01*
X215048154Y-96927001D01*
X214952299Y-96891248D01*
X214894190Y-96885000D01*
X214894174Y-96885000D01*
X214325826Y-96885000D01*
X214325809Y-96885000D01*
X214267700Y-96891248D01*
X214136219Y-96940289D01*
X214023884Y-97024384D01*
X213939789Y-97136719D01*
X213939788Y-97136722D01*
X213919231Y-97191835D01*
X213877361Y-97247767D01*
X213811897Y-97272184D01*
X213803051Y-97272500D01*
X213397555Y-97272500D01*
X213330516Y-97252815D01*
X213284761Y-97200011D01*
X213281374Y-97191835D01*
X213280214Y-97188727D01*
X213280212Y-97188722D01*
X213256665Y-97157267D01*
X213196116Y-97076384D01*
X213115276Y-97015867D01*
X213083780Y-96992289D01*
X213083778Y-96992288D01*
X213039336Y-96975712D01*
X212952299Y-96943248D01*
X212894190Y-96937000D01*
X212894174Y-96937000D01*
X212325826Y-96937000D01*
X212325809Y-96937000D01*
X212267700Y-96943248D01*
X212136219Y-96992289D01*
X212023884Y-97076384D01*
X211939787Y-97188722D01*
X211939785Y-97188727D01*
X211938626Y-97191835D01*
X211936638Y-97194490D01*
X211935537Y-97196507D01*
X211935247Y-97196348D01*
X211896754Y-97247768D01*
X211831289Y-97272184D01*
X211822445Y-97272500D01*
X211583555Y-97272500D01*
X211516516Y-97252815D01*
X211470761Y-97200011D01*
X211467374Y-97191835D01*
X211466214Y-97188727D01*
X211466212Y-97188722D01*
X211442665Y-97157267D01*
X211382116Y-97076384D01*
X211301276Y-97015867D01*
X211269780Y-96992289D01*
X211269778Y-96992288D01*
X211225336Y-96975712D01*
X211138299Y-96943248D01*
X211080190Y-96937000D01*
X211080174Y-96937000D01*
X210511826Y-96937000D01*
X210511809Y-96937000D01*
X210453700Y-96943248D01*
X210322219Y-96992289D01*
X210259212Y-97039457D01*
X210209884Y-97076384D01*
X210209883Y-97076385D01*
X210202785Y-97081699D01*
X210201587Y-97080098D01*
X210150358Y-97108072D01*
X210080666Y-97103088D01*
X210024733Y-97061216D01*
X210000316Y-96995752D01*
X210000000Y-96986906D01*
X210000000Y-96249399D01*
X210019685Y-96182360D01*
X210072489Y-96136605D01*
X210141647Y-96126661D01*
X210162318Y-96131468D01*
X210367163Y-96198026D01*
X210444999Y-96210354D01*
X210445000Y-96210354D01*
X210445000Y-94480982D01*
X210463409Y-94491611D01*
X210616009Y-94532500D01*
X210773991Y-94532500D01*
X210926591Y-94491611D01*
X210945000Y-94480982D01*
X210945000Y-96210354D01*
X211022834Y-96198026D01*
X211022837Y-96198026D01*
X211232410Y-96129932D01*
X211428760Y-96029886D01*
X211607041Y-95900357D01*
X211762857Y-95744541D01*
X211892386Y-95566260D01*
X211992432Y-95369910D01*
X212060526Y-95160335D01*
X212095000Y-94942681D01*
X212095000Y-94182500D01*
X211243482Y-94182500D01*
X211254111Y-94164091D01*
X211295000Y-94011491D01*
X211295000Y-93853509D01*
X211254111Y-93700909D01*
X211243482Y-93682500D01*
X212095000Y-93682500D01*
X212095000Y-93193229D01*
X212114685Y-93126190D01*
X212167489Y-93080435D01*
X212236647Y-93070491D01*
X212300203Y-93099516D01*
G37*
%TD.AperFunction*%
%TA.AperFunction,Conductor*%
G36*
X189393039Y-94544685D02*
G01*
X189438794Y-94597489D01*
X189450000Y-94649000D01*
X189450000Y-96275000D01*
X189497828Y-96275000D01*
X189497844Y-96274999D01*
X189557372Y-96268598D01*
X189557379Y-96268596D01*
X189692086Y-96218354D01*
X189692093Y-96218350D01*
X189807185Y-96132191D01*
X189807190Y-96132186D01*
X189849859Y-96075189D01*
X189905793Y-96033318D01*
X189949126Y-96025500D01*
X190274675Y-96025500D01*
X190327853Y-96014922D01*
X190397444Y-96021149D01*
X190452622Y-96064011D01*
X190471818Y-96104438D01*
X190473385Y-96110284D01*
X190473387Y-96110290D01*
X190519527Y-96190208D01*
X190519531Y-96190213D01*
X191425262Y-97095944D01*
X191458747Y-97157267D01*
X191453763Y-97226959D01*
X191411891Y-97282892D01*
X191346427Y-97307309D01*
X191318183Y-97306098D01*
X191276524Y-97299500D01*
X190913482Y-97299500D01*
X190832519Y-97312323D01*
X190819696Y-97314354D01*
X190706658Y-97371950D01*
X190706657Y-97371951D01*
X190706652Y-97371954D01*
X190616954Y-97461652D01*
X190616949Y-97461659D01*
X190570483Y-97552852D01*
X190522508Y-97603648D01*
X190454687Y-97620442D01*
X190388552Y-97597904D01*
X190349516Y-97552852D01*
X190303050Y-97461658D01*
X190303047Y-97461655D01*
X190303045Y-97461652D01*
X190213347Y-97371954D01*
X190213344Y-97371952D01*
X190213342Y-97371950D01*
X190126287Y-97327593D01*
X190100301Y-97314352D01*
X190006524Y-97299500D01*
X189643482Y-97299500D01*
X189562519Y-97312323D01*
X189549696Y-97314354D01*
X189436658Y-97371950D01*
X189436657Y-97371951D01*
X189436652Y-97371954D01*
X189346954Y-97461652D01*
X189346949Y-97461659D01*
X189300483Y-97552852D01*
X189252508Y-97603648D01*
X189184687Y-97620442D01*
X189118552Y-97597904D01*
X189079516Y-97552852D01*
X189033050Y-97461658D01*
X189033047Y-97461655D01*
X189033045Y-97461652D01*
X188941819Y-97370426D01*
X188908334Y-97309103D01*
X188905500Y-97282745D01*
X188905500Y-97064858D01*
X188905500Y-97064856D01*
X188881614Y-96975712D01*
X188878209Y-96969815D01*
X188875142Y-96964502D01*
X188866261Y-96949120D01*
X188835470Y-96895788D01*
X188346819Y-96407137D01*
X188313334Y-96345814D01*
X188310500Y-96319456D01*
X188310500Y-96127627D01*
X188330185Y-96060588D01*
X188382989Y-96014833D01*
X188452147Y-96004889D01*
X188515703Y-96033914D01*
X188533766Y-96053316D01*
X188592809Y-96132187D01*
X188592812Y-96132190D01*
X188707906Y-96218350D01*
X188707913Y-96218354D01*
X188842620Y-96268596D01*
X188842627Y-96268598D01*
X188902155Y-96274999D01*
X188902172Y-96275000D01*
X188950000Y-96275000D01*
X188950000Y-94649000D01*
X188969685Y-94581961D01*
X189022489Y-94536206D01*
X189074000Y-94525000D01*
X189326000Y-94525000D01*
X189393039Y-94544685D01*
G37*
%TD.AperFunction*%
%TA.AperFunction,Conductor*%
G36*
X248693039Y-91769685D02*
G01*
X248738794Y-91822489D01*
X248750000Y-91874000D01*
X248750000Y-92800000D01*
X249190634Y-92800000D01*
X249190649Y-92799999D01*
X249227489Y-92797100D01*
X249227495Y-92797099D01*
X249361005Y-92758311D01*
X249430874Y-92758510D01*
X249489544Y-92796452D01*
X249518388Y-92860091D01*
X249519600Y-92877387D01*
X249519600Y-93271664D01*
X249519600Y-93370536D01*
X249520475Y-93373802D01*
X249532618Y-93419119D01*
X249545190Y-93466039D01*
X249563884Y-93498417D01*
X249594625Y-93551662D01*
X249594626Y-93551663D01*
X249594627Y-93551664D01*
X251945781Y-95902819D01*
X251979266Y-95964142D01*
X251974282Y-96033834D01*
X251932410Y-96089767D01*
X251866946Y-96114184D01*
X251858100Y-96114500D01*
X249979992Y-96114500D01*
X249979992Y-96114501D01*
X249883286Y-96129817D01*
X249883285Y-96129817D01*
X249805345Y-96169530D01*
X249766719Y-96189211D01*
X249766718Y-96189212D01*
X249766713Y-96189215D01*
X249674215Y-96281713D01*
X249674210Y-96281720D01*
X249614816Y-96398288D01*
X249600912Y-96486082D01*
X249599500Y-96494997D01*
X249599500Y-96673319D01*
X249599501Y-96840500D01*
X249579817Y-96907539D01*
X249527013Y-96953294D01*
X249475501Y-96964500D01*
X243723974Y-96964500D01*
X243656935Y-96944815D01*
X243651229Y-96940000D01*
X240303087Y-96940000D01*
X240294758Y-96949120D01*
X240235014Y-96985348D01*
X240203195Y-96989500D01*
X240050584Y-96989500D01*
X239983545Y-96969815D01*
X239937790Y-96917011D01*
X239927846Y-96847853D01*
X239956871Y-96784297D01*
X239962903Y-96777819D01*
X240113179Y-96627543D01*
X240264404Y-96476317D01*
X240325725Y-96442834D01*
X240352083Y-96440000D01*
X241725000Y-96440000D01*
X242225000Y-96440000D01*
X243646915Y-96440000D01*
X243646914Y-96439999D01*
X243643935Y-96407207D01*
X243643932Y-96407197D01*
X243596072Y-96253607D01*
X243512836Y-96115919D01*
X243399080Y-96002163D01*
X243261396Y-95918929D01*
X243107792Y-95871065D01*
X243041043Y-95865000D01*
X242225000Y-95865000D01*
X242225000Y-96440000D01*
X241725000Y-96440000D01*
X241725000Y-95865000D01*
X241175083Y-95865000D01*
X241108044Y-95845315D01*
X241062289Y-95792511D01*
X241052345Y-95723353D01*
X241081370Y-95659797D01*
X241087388Y-95653333D01*
X241361903Y-95378819D01*
X241423226Y-95345334D01*
X241449584Y-95342500D01*
X244381142Y-95342500D01*
X244381144Y-95342500D01*
X244470288Y-95318614D01*
X244493520Y-95305201D01*
X244550212Y-95272470D01*
X247226543Y-92596138D01*
X247287862Y-92562656D01*
X247357554Y-92567640D01*
X247401901Y-92596141D01*
X247473438Y-92667678D01*
X247473447Y-92667685D01*
X247614803Y-92751282D01*
X247614806Y-92751283D01*
X247772504Y-92797099D01*
X247772510Y-92797100D01*
X247809350Y-92799999D01*
X247809366Y-92800000D01*
X248250000Y-92800000D01*
X248250000Y-91874000D01*
X248269685Y-91806961D01*
X248322489Y-91761206D01*
X248374000Y-91750000D01*
X248626000Y-91750000D01*
X248693039Y-91769685D01*
G37*
%TD.AperFunction*%
%TD*%
%TA.AperFunction,Conductor*%
%TO.N,/Hbridge/OUT.A*%
G36*
X209239039Y-92018185D02*
G01*
X209284794Y-92070989D01*
X209296000Y-92122500D01*
X209296000Y-96787110D01*
X209276315Y-96854149D01*
X209223511Y-96899904D01*
X209154353Y-96909848D01*
X209128667Y-96903292D01*
X209069979Y-96881403D01*
X209069972Y-96881401D01*
X209010444Y-96875000D01*
X208662600Y-96875000D01*
X208662600Y-97656414D01*
X208642915Y-97723453D01*
X208590111Y-97769208D01*
X208520953Y-97779152D01*
X208506513Y-97776191D01*
X208500201Y-97774500D01*
X208336600Y-97774500D01*
X208269561Y-97754815D01*
X208223806Y-97702011D01*
X208212600Y-97650500D01*
X208212600Y-96875000D01*
X207864755Y-96875000D01*
X207805227Y-96881401D01*
X207805220Y-96881403D01*
X207670513Y-96931645D01*
X207670510Y-96931647D01*
X207580182Y-96999267D01*
X207514718Y-97023684D01*
X207505871Y-97024000D01*
X206118000Y-97024000D01*
X206050961Y-97004315D01*
X206005206Y-96951511D01*
X205994000Y-96900000D01*
X205994000Y-95910761D01*
X206013685Y-95843722D01*
X206066489Y-95797967D01*
X206135647Y-95788023D01*
X206199203Y-95817048D01*
X206205681Y-95823080D01*
X206282958Y-95900357D01*
X206461239Y-96029886D01*
X206657586Y-96129931D01*
X206657592Y-96129933D01*
X206694999Y-96142087D01*
X207695000Y-96142087D01*
X207732407Y-96129933D01*
X207732413Y-96129931D01*
X207928760Y-96029886D01*
X208107041Y-95900357D01*
X208262857Y-95744541D01*
X208392386Y-95566260D01*
X208492432Y-95369910D01*
X208560526Y-95160335D01*
X208595000Y-94942681D01*
X208595000Y-94432500D01*
X207695000Y-94432500D01*
X207695000Y-96142087D01*
X206694999Y-96142087D01*
X206695000Y-96142086D01*
X206695000Y-94266473D01*
X206714881Y-94300908D01*
X206826592Y-94412619D01*
X206963409Y-94491611D01*
X207116009Y-94532500D01*
X207273991Y-94532500D01*
X207426591Y-94491611D01*
X207563408Y-94412619D01*
X207675119Y-94300908D01*
X207754111Y-94164091D01*
X207795000Y-94011491D01*
X207795000Y-93853509D01*
X207754111Y-93700909D01*
X207675119Y-93564092D01*
X207563408Y-93452381D01*
X207528973Y-93432500D01*
X208595000Y-93432500D01*
X208595000Y-92922318D01*
X208560526Y-92704664D01*
X208492432Y-92495089D01*
X208392384Y-92298736D01*
X208317296Y-92195385D01*
X208293816Y-92129579D01*
X208309642Y-92061525D01*
X208359747Y-92012830D01*
X208417614Y-91998500D01*
X209172000Y-91998500D01*
X209239039Y-92018185D01*
G37*
%TD.AperFunction*%
%TA.AperFunction,Conductor*%
G36*
X206826592Y-93452381D02*
G01*
X206714881Y-93564092D01*
X206695000Y-93598526D01*
X206695000Y-93556500D01*
X206714685Y-93489461D01*
X206767489Y-93443706D01*
X206819000Y-93432500D01*
X206861027Y-93432500D01*
X206826592Y-93452381D01*
G37*
%TD.AperFunction*%
%TD*%
M02*
