M48
; DRILL file {KiCad 8.0.2} date 2024-12-30T14:19:07+0100
; FORMAT={-:-/ absolute / inch / decimal}
; #@! TF.CreationDate,2024-12-30T14:19:07+01:00
; #@! TF.GenerationSoftware,Kicad,Pcbnew,8.0.2
; #@! TF.FileFunction,Plated,1,2,PTH
FMAT,2
INCH
; #@! TA.AperFunction,Plated,PTH,ViaDrill
T1C0.0118
; #@! TA.AperFunction,Plated,PTH,ComponentDrill
T2C0.0394
; #@! TA.AperFunction,Plated,PTH,ComponentDrill
T3C0.0472
%
G90
G05
T1
X6.82Y-4.545
X6.835Y-3.78
X6.84Y-3.615
X6.85Y-4.145
X7.04Y-3.93
X7.045Y-3.41
X7.055Y-3.65
X7.145Y-4.325
X7.15Y-3.88
X7.185Y-3.66
X7.22Y-3.425
X7.235Y-4.555
X7.24Y-3.985
X7.245Y-3.8
X7.245Y-4.18
X7.245Y-4.37
X7.26Y-3.515
X7.265Y-3.73
X7.285Y-3.97
X7.295Y-4.08
X7.3028Y-4.0278
X7.305Y-3.945
X7.305Y-3.995
X7.31Y-3.855
X7.31Y-4.46
X7.335Y-3.575
X7.335Y-3.66
X7.35Y-4.085
X7.355Y-3.8
X7.36Y-4.415
X7.3626Y-4.3123
X7.385Y-4.08
X7.395Y-3.945
X7.395Y-3.995
X7.4007Y-4.2892
X7.415Y-3.97
X7.42Y-3.515
X7.42Y-4.0167
X7.45Y-3.8
X7.5Y-3.815
X7.515Y-4.245
X7.515Y-4.465
X7.5498Y-4.025
X7.57Y-4.53
X7.5734Y-3.93
X7.58Y-4.465
X7.585Y-4.365
X7.585Y-4.415
X7.6Y-3.515
X7.605Y-4.285
X7.6086Y-3.9334
X7.615Y-3.725
X7.615Y-4.025
X7.647Y-3.93
X7.66Y-4.025
X7.67Y-4.21
X7.685Y-3.585
X7.685Y-3.655
X7.705Y-3.8
X7.705Y-4.52
X7.71Y-4.465
X7.7513Y-4.0187
X7.76Y-3.645
X7.765Y-3.51
X7.765Y-3.73
X7.77Y-3.815
X7.77Y-4.14
X7.81Y-4.0439
X7.815Y-4.525
X7.825Y-3.43
X7.825Y-3.71
X7.835Y-3.59
X7.87Y-3.955
X7.875Y-4.395
X7.9081Y-3.8937
X7.93Y-3.52
X7.94Y-3.8648
X7.945Y-3.6298
X7.945Y-3.7048
X7.945Y-3.8098
X7.945Y-4.2398
X7.95Y-4.3708
X7.955Y-3.8937
X7.955Y-4.415
X7.985Y-4.395
X7.9877Y-4.04
X7.99Y-3.7998
X8.01Y-4.425
X8.015Y-4.135
X8.045Y-3.465
X8.045Y-3.865
X8.045Y-3.905
X8.045Y-3.94
X8.045Y-3.975
X8.045Y-4.01
X8.05Y-3.7998
X8.13Y-3.7998
X8.145Y-3.865
X8.145Y-3.905
X8.145Y-3.94
X8.145Y-3.975
X8.145Y-4.01
X8.156Y-4.155
X8.16Y-4.36
X8.18Y-3.535
X8.18Y-4.385
X8.2062Y-3.8148
X8.22Y-3.7748
X8.225Y-3.6348
X8.225Y-3.6998
X8.245Y-4.425
X8.2547Y-3.9715
X8.255Y-3.9281
X8.2627Y-4.2023
X8.2745Y-4.077
X8.295Y-3.8
X8.3Y-3.955
X8.31Y-4.005
X8.3199Y-4.4299
X8.32Y-3.47
X8.3286Y-4.2014
X8.335Y-4.075
X8.3424Y-4.4524
X8.345Y-3.9469
X8.345Y-3.9902
X8.3552Y-4.0998
X8.3643Y-4.2593
X8.3648Y-4.3277
X8.3649Y-4.2071
X8.365Y-3.7
X8.365Y-3.795
X8.3828Y-4.387
X8.385Y-3.995
X8.3876Y-4.3049
X8.39Y-4.1854
X8.395Y-4.095
X8.415Y-4.4048
X8.4188Y-4.1638
X8.43Y-4.13
X8.432Y-4.4362
X8.435Y-3.595
X8.445Y-3.965
X8.445Y-4.085
X8.475Y-3.795
X8.485Y-4.2567
X8.49Y-3.915
X8.49Y-4.04
X8.505Y-3.67
X8.5056Y-4.3
X8.51Y-4.215
X8.5113Y-4.3674
X8.5344Y-4.3444
X8.5459Y-4.2667
X8.5487Y-4.1794
X8.555Y-4.315
X8.555Y-4.41
X8.5778Y-4.4322
X8.595Y-3.765
X8.5989Y-4.0937
X8.5989Y-4.1598
X8.61Y-4.37
X8.613Y-4.223
X8.64Y-4.405
X8.6524Y-4.0044
X8.67Y-4.54
X8.6742Y-4.0654
X8.685Y-4.36
X8.69Y-4.51
X8.6975Y-4.2975
X8.7253Y-4.5147
X8.735Y-3.47
X8.735Y-4.48
X8.74Y-4.0698
X8.74Y-4.31
X8.7451Y-4.2774
X8.76Y-4.5456
X8.785Y-3.675
X8.795Y-4.485
X8.8Y-3.87
X8.81Y-4.545
X8.82Y-4.205
X8.82Y-4.285
X8.82Y-4.51
X8.84Y-4.32
X8.89Y-4.255
X8.895Y-4.075
X8.895Y-4.21
X8.9Y-3.575
X8.9Y-3.78
X8.9Y-4.43
X8.945Y-4.34
X8.96Y-4.29
X8.98Y-4.525
X8.9843Y-3.9187
X9.0017Y-4.0337
X9.005Y-4.35
X9.01Y-3.44
X9.015Y-3.675
X9.015Y-4.51
X9.0215Y-3.8815
X9.0233Y-3.9687
X9.025Y-4.271
X9.03Y-4.2277
X9.0646Y-3.7938
X9.085Y-4.35
X9.09Y-4.455
X9.0972Y-3.9172
X9.1Y-4.22
X9.21Y-4.41
X9.2378Y-4.48
X9.245Y-4.165
X9.26Y-4.42
X9.28Y-4.49
X9.315Y-4.39
X9.35Y-4.485
X9.375Y-4.15
X9.475Y-4.32
X9.51Y-4.155
X9.5243Y-3.765
X9.5793Y-3.645
X9.6043Y-3.805
X9.6343Y-3.61
X9.6693Y-4.27
X9.7093Y-3.42
X9.7165Y-4.195
X9.73Y-4.555
X9.7443Y-3.665
X9.7618Y-4.175
X9.7793Y-4.255
X9.7843Y-3.665
X9.7943Y-3.795
X9.8093Y-4.07
X9.8643Y-4.15
X9.8743Y-3.765
X9.8893Y-4.235
X9.9293Y-4.05
X9.9293Y-4.4
X9.9477Y-3.7834
X9.9959Y-3.8466
X10.0843Y-4.045
X10.0843Y-4.55
X10.0943Y-4.245
T2
X7.1889Y-3.7323
X7.1889Y-3.8323
X7.1889Y-3.9323
X7.1889Y-4.0323
X7.1889Y-4.1323
X7.1889Y-4.2323
X10.0693Y-3.47
X10.0693Y-3.57
X10.0693Y-3.67
X10.0693Y-3.77
X10.0693Y-3.87
X10.0693Y-3.97
T3
X8.0195Y-3.6981
X8.1573Y-3.6981
X8.2951Y-3.6981
X8.4329Y-3.6981
X9.8228Y-4.3307
X9.8228Y-4.4685
T2
G00X8.7126Y-3.7587
M15
G01X8.7126Y-3.8375
M16
G05
G00X8.937Y-3.68
M15
G01X8.8583Y-3.68
M16
G05
G00X8.937Y-3.9162
M15
G01X8.8583Y-3.9162
M16
G05
M30
