%TF.GenerationSoftware,KiCad,Pcbnew,8.0.2*%
%TF.CreationDate,2024-12-30T14:19:07+01:00*%
%TF.ProjectId,MasterOfAccessories,4d617374-6572-44f6-9641-63636573736f,rev?*%
%TF.SameCoordinates,Original*%
%TF.FileFunction,Copper,L2,Bot*%
%TF.FilePolarity,Positive*%
%FSLAX46Y46*%
G04 Gerber Fmt 4.6, Leading zero omitted, Abs format (unit mm)*
G04 Created by KiCad (PCBNEW 8.0.2) date 2024-12-30 14:19:07*
%MOMM*%
%LPD*%
G01*
G04 APERTURE LIST*
G04 Aperture macros list*
%AMRoundRect*
0 Rectangle with rounded corners*
0 $1 Rounding radius*
0 $2 $3 $4 $5 $6 $7 $8 $9 X,Y pos of 4 corners*
0 Add a 4 corners polygon primitive as box body*
4,1,4,$2,$3,$4,$5,$6,$7,$8,$9,$2,$3,0*
0 Add four circle primitives for the rounded corners*
1,1,$1+$1,$2,$3*
1,1,$1+$1,$4,$5*
1,1,$1+$1,$6,$7*
1,1,$1+$1,$8,$9*
0 Add four rect primitives between the rounded corners*
20,1,$1+$1,$2,$3,$4,$5,0*
20,1,$1+$1,$4,$5,$6,$7,0*
20,1,$1+$1,$6,$7,$8,$9,0*
20,1,$1+$1,$8,$9,$2,$3,0*%
G04 Aperture macros list end*
%TA.AperFunction,ComponentPad*%
%ADD10RoundRect,0.875000X-0.875000X0.875000X-0.875000X-0.875000X0.875000X-0.875000X0.875000X0.875000X0*%
%TD*%
%TA.AperFunction,ComponentPad*%
%ADD11RoundRect,0.750000X-1.000000X0.750000X-1.000000X-0.750000X1.000000X-0.750000X1.000000X0.750000X0*%
%TD*%
%TA.AperFunction,ComponentPad*%
%ADD12R,3.500000X3.500000*%
%TD*%
%TA.AperFunction,ComponentPad*%
%ADD13O,1.700000X1.700000*%
%TD*%
%TA.AperFunction,ComponentPad*%
%ADD14R,1.700000X1.700000*%
%TD*%
%TA.AperFunction,ComponentPad*%
%ADD15RoundRect,0.250000X0.650000X1.550000X-0.650000X1.550000X-0.650000X-1.550000X0.650000X-1.550000X0*%
%TD*%
%TA.AperFunction,ComponentPad*%
%ADD16O,1.800000X3.600000*%
%TD*%
%TA.AperFunction,ComponentPad*%
%ADD17RoundRect,0.250000X1.550000X-0.650000X1.550000X0.650000X-1.550000X0.650000X-1.550000X-0.650000X0*%
%TD*%
%TA.AperFunction,ComponentPad*%
%ADD18O,3.600000X1.800000*%
%TD*%
%TA.AperFunction,ViaPad*%
%ADD19C,0.500000*%
%TD*%
%TA.AperFunction,Conductor*%
%ADD20C,0.200000*%
%TD*%
%TA.AperFunction,Conductor*%
%ADD21C,0.250000*%
%TD*%
%TA.AperFunction,Conductor*%
%ADD22C,0.450000*%
%TD*%
G04 APERTURE END LIST*
D10*
%TO.P,J301,3*%
%TO.N,N/C*%
X221300000Y-96472000D03*
D11*
%TO.P,J301,2*%
%TO.N,GND*%
X226000000Y-93472000D03*
D12*
%TO.P,J301,1*%
%TO.N,+12V*%
X226000000Y-99472000D03*
%TD*%
D13*
%TO.P,J601,6,Pin_6*%
%TO.N,+5V*%
X182598000Y-107500000D03*
%TO.P,J601,5,Pin_5*%
%TO.N,/MCU/dataOut*%
X182598000Y-104960000D03*
%TO.P,J601,4,Pin_4*%
%TO.N,/MCU/dataIn*%
X182598000Y-102420000D03*
%TO.P,J601,3,Pin_3*%
%TO.N,/MCU/clock*%
X182598000Y-99880000D03*
%TO.P,J601,2,Pin_2*%
%TO.N,/MCU/latch*%
X182598000Y-97340000D03*
D14*
%TO.P,J601,1,Pin_1*%
%TO.N,GND*%
X182598000Y-94800000D03*
%TD*%
%TO.P,J201,1,Pin_1*%
%TO.N,GND*%
X255761000Y-100838000D03*
D13*
%TO.P,J201,2,Pin_2*%
%TO.N,+5V*%
X255761000Y-98298000D03*
%TO.P,J201,3,Pin_3*%
%TO.N,/MCU/SCK*%
X255761000Y-95758000D03*
%TO.P,J201,4,Pin_4*%
%TO.N,/MCU/MISO*%
X255761000Y-93218000D03*
%TO.P,J201,5,Pin_5*%
%TO.N,/MCU/MOSI*%
X255761000Y-90678000D03*
%TO.P,J201,6,Pin_6*%
%TO.N,/MCU/reset*%
X255761000Y-88138000D03*
%TD*%
D15*
%TO.P,J401,1,Pin_1*%
%TO.N,+12V*%
X214195000Y-93932500D03*
D16*
%TO.P,J401,2,Pin_2*%
%TO.N,GND*%
X210695000Y-93932500D03*
%TO.P,J401,3,Pin_3*%
%TO.N,/Hbridge/OUT.A*%
X207195000Y-93932500D03*
%TO.P,J401,4,Pin_4*%
%TO.N,/Hbridge/OUT.B*%
X203695000Y-93932500D03*
%TD*%
D17*
%TO.P,J901,1,Pin_1*%
%TO.N,Net-(D901-A)*%
X249500000Y-113500000D03*
D18*
%TO.P,J901,2,Pin_2*%
%TO.N,Net-(J901-Pin_2)*%
X249500000Y-110000000D03*
%TD*%
D19*
%TO.N,GND*%
X237490000Y-113919000D03*
X238125000Y-105410000D03*
X241554000Y-105537000D03*
X234823000Y-105791000D03*
X231140000Y-107188000D03*
X247142000Y-115697000D03*
X227203000Y-110236000D03*
X236601000Y-111506000D03*
X235204000Y-112268000D03*
X233934000Y-112014000D03*
X230759000Y-110490000D03*
X230886000Y-113157000D03*
%TO.N,/MCU/LED*%
X235712000Y-114046000D03*
X223774000Y-115443000D03*
X221622909Y-114673091D03*
X216773182Y-110347182D03*
%TO.N,/MCU/Switch*%
X234641000Y-113792000D03*
X222504000Y-115457000D03*
X220726000Y-114554000D03*
X216188127Y-110932237D03*
%TO.N,GND*%
X197231000Y-89154000D03*
X197104000Y-92583000D03*
X241918000Y-95631000D03*
X251189000Y-107569000D03*
X197358000Y-105156000D03*
X246617000Y-86868000D03*
X214503000Y-100711000D03*
X201422000Y-89408000D03*
X204343000Y-88011000D03*
X203454000Y-112395000D03*
X207264000Y-110744000D03*
X184023000Y-106172000D03*
X206883000Y-98171000D03*
X212471000Y-96393000D03*
X250808000Y-95631000D03*
X248395000Y-108077000D03*
X199009000Y-91186000D03*
X193421000Y-94615000D03*
X207772000Y-89789000D03*
X244712000Y-91694000D03*
X195707000Y-114808000D03*
X248776000Y-96393000D03*
X211709000Y-103505000D03*
X252205000Y-111760000D03*
X200025000Y-111633000D03*
X190881000Y-107823000D03*
X192278000Y-115062000D03*
X218313000Y-95631000D03*
X227584000Y-108966000D03*
X226060000Y-90805000D03*
X214249000Y-91313000D03*
X226060000Y-96012000D03*
X185293000Y-103632000D03*
X187579000Y-103632000D03*
X221869000Y-113792000D03*
X178943000Y-86614000D03*
X256142000Y-102743000D03*
X249157000Y-103378000D03*
X206883000Y-101854000D03*
X250554000Y-105410000D03*
X223393000Y-113919000D03*
X202057000Y-112141000D03*
X195834000Y-113411000D03*
X252205000Y-102870000D03*
X173990000Y-105283000D03*
X193167000Y-108839000D03*
X247506000Y-93091000D03*
X209423000Y-112395000D03*
X190500000Y-96901000D03*
X198501000Y-114935000D03*
X183896000Y-101219000D03*
X220599000Y-110744000D03*
X240665000Y-109728000D03*
X190881000Y-113411000D03*
X192659000Y-112141000D03*
X210693000Y-96520000D03*
X224536000Y-109728000D03*
X228854000Y-87376000D03*
X212471000Y-93980000D03*
X215265000Y-96393000D03*
X256142000Y-115570000D03*
X179197000Y-92710000D03*
X181483000Y-109855000D03*
X226060000Y-112522000D03*
X213233000Y-104013000D03*
X228981000Y-114554000D03*
X199898000Y-100457000D03*
X186309000Y-90805000D03*
X173736000Y-91821000D03*
X197358000Y-96901000D03*
X211074000Y-101727000D03*
X192659000Y-110871000D03*
X204343000Y-98171000D03*
X184023000Y-96520000D03*
X181610000Y-98552000D03*
X219456000Y-111887000D03*
X224028000Y-114554000D03*
X185674000Y-113284000D03*
X195199000Y-91059000D03*
X207772000Y-111379000D03*
X243950000Y-96647000D03*
X186817000Y-96520000D03*
X214122000Y-104902000D03*
X223520000Y-98298000D03*
X220218000Y-115316000D03*
X204343000Y-101854000D03*
X206883000Y-99187000D03*
X184531000Y-94742000D03*
X192532000Y-113411000D03*
X204343000Y-100076000D03*
X189230000Y-96520000D03*
X204343000Y-99187000D03*
X178816000Y-99822000D03*
X206883000Y-100076000D03*
X216027000Y-93218000D03*
X184023000Y-110998000D03*
X173228000Y-115443000D03*
X186309000Y-92964000D03*
X182499000Y-92964000D03*
X210820000Y-100457000D03*
X243315000Y-92583000D03*
X193040000Y-89281000D03*
X204343000Y-100965000D03*
X186944000Y-112141000D03*
X198755000Y-87122000D03*
X225806000Y-108077000D03*
X216154000Y-107061000D03*
X198755000Y-94234000D03*
X248522000Y-93091000D03*
X228727000Y-110490000D03*
X185674000Y-97917000D03*
X197231000Y-94742000D03*
X188468000Y-89281000D03*
X184404000Y-89281000D03*
X194818000Y-106934000D03*
X228092000Y-114935000D03*
X195707000Y-96520000D03*
X223139000Y-93345000D03*
X221869000Y-88138000D03*
X211328000Y-88138000D03*
X183388000Y-86995000D03*
X206883000Y-100965000D03*
X228981000Y-93345000D03*
X245601000Y-108458000D03*
X215646000Y-99441000D03*
X202819000Y-111633000D03*
X215646000Y-102616000D03*
X212979000Y-101473000D03*
X256396000Y-107823000D03*
X183769000Y-115697000D03*
X186690000Y-103759000D03*
X173609000Y-96012000D03*
X214503000Y-103759000D03*
X195199000Y-92837000D03*
%TO.N,+5V*%
X209669091Y-100875000D03*
X218769454Y-107263453D03*
X247950000Y-106045000D03*
X201803000Y-107692000D03*
X210172000Y-103555000D03*
X207163653Y-105537000D03*
X209677000Y-99775000D03*
X225933000Y-103505000D03*
X252672379Y-96098379D03*
X221996000Y-109474000D03*
X224028000Y-108839000D03*
X225933000Y-106934000D03*
X201930000Y-111018000D03*
X202887600Y-102616000D03*
X203580293Y-105029707D03*
X246800000Y-106553000D03*
X253896093Y-97703093D03*
X220916500Y-109156500D03*
%TO.N,+12V*%
X200865000Y-98900000D03*
X202057000Y-98900000D03*
%TO.N,/MCU/reset*%
X224028000Y-106807000D03*
X231068127Y-99496127D03*
X222124760Y-108645770D03*
X230241978Y-96362478D03*
%TO.N,/MCU/S_Tx*%
X187977409Y-108944591D03*
X187009091Y-109531909D03*
%TO.N,/MCU/MISO*%
X219770000Y-101711000D03*
X220324046Y-103261000D03*
%TO.N,Net-(U501-~{DTR})*%
X191765000Y-102235000D03*
X192365000Y-99822000D03*
%TO.N,Net-(J501-D-)*%
X194564000Y-102235000D03*
X194235000Y-99822000D03*
%TO.N,Net-(J501-D+)*%
X193421000Y-102235000D03*
X193259138Y-99909028D03*
%TO.N,/DCC/DCC*%
X229235000Y-108484000D03*
X229362000Y-107384000D03*
%TO.N,/Hbridge/OUT.A*%
X208915000Y-92325000D03*
X208915000Y-93976000D03*
X208788000Y-95881000D03*
X206502000Y-96516000D03*
X208437600Y-96897000D03*
%TO.N,/Hbridge/OUT.B*%
X204470000Y-96516000D03*
X201803000Y-94103000D03*
X201803000Y-96770000D03*
X201676000Y-98167000D03*
X202946000Y-96516000D03*
X201803000Y-92198000D03*
%TO.N,/MCU/clock*%
X188341000Y-100838000D03*
X211547248Y-106714752D03*
X217297000Y-109601000D03*
X185039000Y-100838000D03*
%TO.N,/MCU/latch*%
X216042670Y-109218999D03*
X187833000Y-100203000D03*
X212469381Y-106859937D03*
X185547000Y-100203000D03*
%TO.N,/Hbridge/IN.CS*%
X211963000Y-100250111D03*
X211963000Y-101350111D03*
X212221095Y-104135905D03*
X212923409Y-111430591D03*
X209873219Y-106737781D03*
X212467049Y-109924258D03*
%TO.N,/Hbridge/IN.B*%
X213838115Y-105760194D03*
X215519000Y-108119000D03*
%TO.N,/Hbridge/IN.A*%
X213106000Y-106310194D03*
X217066088Y-108373000D03*
%TO.N,/MCU/dataIn*%
X217297000Y-112014000D03*
X212452825Y-108186886D03*
X187833000Y-101473000D03*
X185547000Y-101473000D03*
%TO.N,/MCU/dataOut*%
X188468000Y-102023000D03*
X217877336Y-112576664D03*
X198374000Y-102715000D03*
X196882562Y-102075438D03*
X185491409Y-102306409D03*
X213045780Y-109345526D03*
%TO.N,/EEPROM/SCL*%
X211897406Y-113091594D03*
X214172409Y-112679591D03*
%TO.N,/EEPROM/SDA*%
X213741000Y-111883000D03*
X211325907Y-112520096D03*
%TO.N,/MCU/POT*%
X229145913Y-98589913D03*
X229193001Y-100805568D03*
X218411153Y-103980153D03*
X218411153Y-105660000D03*
%TO.N,/MCU/BUTTONS*%
X217136501Y-106156834D03*
X221996000Y-103374000D03*
X228643001Y-102456567D03*
X228200000Y-99535827D03*
%TO.N,GND*%
X218694000Y-110998000D03*
%TD*%
D20*
%TO.N,/MCU/LED*%
X234908000Y-113242000D02*
X235712000Y-114046000D01*
X233934000Y-115678000D02*
X233934000Y-113721182D01*
X234413182Y-113242000D02*
X234908000Y-113242000D01*
X233934000Y-113721182D02*
X234413182Y-113242000D01*
X224009000Y-115678000D02*
X233934000Y-115678000D01*
X223774000Y-115443000D02*
X224009000Y-115678000D01*
X220310343Y-113572657D02*
X220522475Y-113572657D01*
X217084868Y-110347182D02*
X220310343Y-113572657D01*
X220522475Y-113572657D02*
X221622909Y-114673091D01*
X216773182Y-110347182D02*
X217084868Y-110347182D01*
%TO.N,/MCU/clock*%
X212054813Y-107222317D02*
X211547248Y-106714752D01*
X212054813Y-107223187D02*
X212054813Y-107222317D01*
X212241563Y-107409937D02*
X212054813Y-107223187D01*
X212453695Y-107409937D02*
X212241563Y-107409937D01*
X214512758Y-109469000D02*
X212453695Y-107409937D01*
X215814852Y-109768999D02*
X215514853Y-109469000D01*
X217297000Y-109601000D02*
X216438487Y-109601000D01*
X216270488Y-109768999D02*
X215814852Y-109768999D01*
X216438487Y-109601000D02*
X216270488Y-109768999D01*
X215514853Y-109469000D02*
X214512758Y-109469000D01*
%TO.N,/MCU/Switch*%
X216852500Y-111315500D02*
X217487500Y-111315500D01*
X217487500Y-111315500D02*
X220726000Y-114554000D01*
X216188127Y-111032127D02*
X216535000Y-111379000D01*
X216188127Y-110932237D02*
X216188127Y-111032127D01*
X216535000Y-111379000D02*
X216789000Y-111379000D01*
X216789000Y-111379000D02*
X216852500Y-111315500D01*
%TO.N,/Hbridge/IN.A*%
X217066088Y-108373000D02*
X216770088Y-108669000D01*
X213106000Y-106830386D02*
X213106000Y-106310194D01*
X216770088Y-108669000D02*
X214944614Y-108669000D01*
X214944614Y-108669000D02*
X213106000Y-106830386D01*
%TO.N,/MCU/latch*%
X214678444Y-109069000D02*
X212469381Y-106859937D01*
X215892671Y-109069000D02*
X214678444Y-109069000D01*
X216042670Y-109218999D02*
X215892671Y-109069000D01*
%TO.N,/Hbridge/IN.B*%
X213838115Y-106438115D02*
X213838115Y-105760194D01*
X215519000Y-108119000D02*
X213838115Y-106438115D01*
%TO.N,/MCU/Switch*%
X234569000Y-113864000D02*
X234641000Y-113792000D01*
X234569000Y-115951000D02*
X234569000Y-113864000D01*
X223125000Y-116078000D02*
X234442000Y-116078000D01*
X234442000Y-116078000D02*
X234569000Y-115951000D01*
X222504000Y-115457000D02*
X223125000Y-116078000D01*
%TO.N,/MCU/dataIn*%
X212664958Y-108186886D02*
X212452825Y-108186886D01*
X217297000Y-112014000D02*
X216492072Y-112014000D01*
X216492072Y-112014000D02*
X212664958Y-108186886D01*
%TO.N,/MCU/dataOut*%
X216276918Y-112576664D02*
X213045780Y-109345526D01*
X217877336Y-112576664D02*
X216276918Y-112576664D01*
%TO.N,/MCU/reset*%
X231068127Y-99496127D02*
X231068127Y-97188627D01*
%TO.N,/DCC/DCC*%
X229362000Y-108357000D02*
X229235000Y-108484000D01*
X229362000Y-107384000D02*
X229362000Y-108357000D01*
%TO.N,+5V*%
X220916500Y-109156500D02*
X219023453Y-107263453D01*
X209145653Y-103555000D02*
X207163653Y-105537000D01*
X221996000Y-109474000D02*
X223393000Y-109474000D01*
X203580293Y-105029707D02*
X202887600Y-104337014D01*
D21*
X252672379Y-96479379D02*
X253896093Y-97703093D01*
D20*
X219023453Y-107263453D02*
X218769454Y-107263453D01*
X209677000Y-99775000D02*
X209677000Y-100867091D01*
X201803000Y-110891000D02*
X201930000Y-111018000D01*
X209677000Y-100867091D02*
X209669091Y-100875000D01*
D21*
X247950000Y-106045000D02*
X247308000Y-106045000D01*
X247308000Y-106045000D02*
X246800000Y-106553000D01*
D20*
X202887600Y-104337014D02*
X202887600Y-102616000D01*
X201803000Y-107692000D02*
X201803000Y-110891000D01*
X225933000Y-103505000D02*
X225933000Y-106934000D01*
X223393000Y-109474000D02*
X224028000Y-108839000D01*
D21*
X252672379Y-96098379D02*
X252672379Y-96479379D01*
D20*
X210172000Y-103555000D02*
X209145653Y-103555000D01*
D22*
%TO.N,+12V*%
X202057000Y-98900000D02*
X200865000Y-98900000D01*
D20*
%TO.N,/MCU/reset*%
X222312530Y-108458000D02*
X222377000Y-108458000D01*
X222377000Y-108458000D02*
X224028000Y-106807000D01*
X222124760Y-108645770D02*
X222312530Y-108458000D01*
X231068127Y-97188627D02*
X230241978Y-96362478D01*
%TO.N,/MCU/S_Tx*%
X187009091Y-109531909D02*
X187390091Y-109531909D01*
X187390091Y-109531909D02*
X187977409Y-108944591D01*
D21*
%TO.N,/MCU/MISO*%
X219770000Y-101711000D02*
X219770000Y-102706954D01*
X219770000Y-102706954D02*
X220324046Y-103261000D01*
D20*
%TO.N,Net-(U501-~{DTR})*%
X192365000Y-99822000D02*
X192365000Y-101635000D01*
X192365000Y-101635000D02*
X191765000Y-102235000D01*
%TO.N,Net-(J501-D-)*%
X194564000Y-102235000D02*
X194235000Y-101906000D01*
X194235000Y-101906000D02*
X194235000Y-99822000D01*
%TO.N,Net-(J501-D+)*%
X193421000Y-102235000D02*
X193259138Y-102073138D01*
X193259138Y-102073138D02*
X193259138Y-99909028D01*
%TO.N,/MCU/clock*%
X185039000Y-100838000D02*
X188341000Y-100838000D01*
%TO.N,/MCU/latch*%
X185547000Y-100203000D02*
X187833000Y-100203000D01*
%TO.N,/Hbridge/IN.CS*%
X211963000Y-100250111D02*
X211963000Y-101223111D01*
X209873219Y-106737781D02*
X212221095Y-104389905D01*
X212467049Y-110974231D02*
X212467049Y-109924258D01*
X212467049Y-110974231D02*
X212923409Y-111430591D01*
X211963000Y-101223111D02*
X211836000Y-101350111D01*
X212221095Y-104389905D02*
X212221095Y-104135905D01*
%TO.N,/MCU/dataIn*%
X185547000Y-101473000D02*
X187833000Y-101473000D01*
%TO.N,/MCU/dataOut*%
X185774818Y-102023000D02*
X188468000Y-102023000D01*
X196882562Y-102075438D02*
X197734438Y-102075438D01*
X197734438Y-102075438D02*
X198374000Y-102715000D01*
X185491409Y-102306409D02*
X185774818Y-102023000D01*
%TO.N,/EEPROM/SCL*%
X214172409Y-112679591D02*
X213760406Y-113091594D01*
X213760406Y-113091594D02*
X211897406Y-113091594D01*
%TO.N,/EEPROM/SDA*%
X213103904Y-112520096D02*
X211325907Y-112520096D01*
X213741000Y-111883000D02*
X213103904Y-112520096D01*
%TO.N,/MCU/POT*%
X229193001Y-100805568D02*
X229193001Y-98637001D01*
X218411153Y-105660000D02*
X218411153Y-103980153D01*
X229193001Y-98637001D02*
X229145913Y-98589913D01*
%TO.N,/MCU/BUTTONS*%
X221474971Y-103374000D02*
X218638971Y-106210000D01*
D21*
X228643001Y-99978828D02*
X228200000Y-99535827D01*
X228618001Y-101043741D02*
X228618001Y-100567395D01*
D20*
X217189667Y-106210000D02*
X217136501Y-106156834D01*
D21*
X228643001Y-100542395D02*
X228643001Y-99978828D01*
D20*
X218638971Y-106210000D02*
X217189667Y-106210000D01*
X221996000Y-103374000D02*
X221474971Y-103374000D01*
D21*
X228618001Y-100567395D02*
X228643001Y-100542395D01*
X228643001Y-102456567D02*
X228643001Y-101068741D01*
X228643001Y-101068741D02*
X228618001Y-101043741D01*
%TD*%
%TA.AperFunction,Conductor*%
%TO.N,/Hbridge/OUT.B*%
G36*
X202698278Y-91836685D02*
G01*
X202744033Y-91889489D01*
X202753977Y-91958647D01*
X202724952Y-92022203D01*
X202718920Y-92028681D01*
X202627142Y-92120458D01*
X202497613Y-92298739D01*
X202397567Y-92495089D01*
X202329473Y-92704664D01*
X202295000Y-92922318D01*
X202295000Y-93432500D01*
X203361027Y-93432500D01*
X203326592Y-93452381D01*
X203214881Y-93564092D01*
X203135889Y-93700909D01*
X203095000Y-93853509D01*
X203095000Y-94011491D01*
X203135889Y-94164091D01*
X203214881Y-94300908D01*
X203326592Y-94412619D01*
X203463409Y-94491611D01*
X203616009Y-94532500D01*
X203773991Y-94532500D01*
X203926591Y-94491611D01*
X204063408Y-94412619D01*
X204175119Y-94300908D01*
X204195000Y-94266473D01*
X204195000Y-96142087D01*
X204232407Y-96129933D01*
X204232413Y-96129931D01*
X204428760Y-96029886D01*
X204607041Y-95900357D01*
X204766305Y-95741094D01*
X204768324Y-95743113D01*
X204816093Y-95710694D01*
X204885941Y-95708942D01*
X204945648Y-95745231D01*
X204976257Y-95808039D01*
X204978000Y-95828758D01*
X204978000Y-96900000D01*
X204958315Y-96967039D01*
X204905511Y-97012794D01*
X204854000Y-97024000D01*
X202692000Y-97024000D01*
X202692000Y-98424000D01*
X202672315Y-98491039D01*
X202619511Y-98536794D01*
X202568000Y-98548000D01*
X202469164Y-98548000D01*
X202402125Y-98528315D01*
X202388317Y-98517979D01*
X202388129Y-98517858D01*
X202388128Y-98517857D01*
X202267053Y-98440047D01*
X202267051Y-98440046D01*
X202267049Y-98440045D01*
X202267050Y-98440045D01*
X202128963Y-98399500D01*
X202128961Y-98399500D01*
X201985039Y-98399500D01*
X201985038Y-98399500D01*
X201917003Y-98419477D01*
X201882068Y-98424500D01*
X201546000Y-98424500D01*
X201478961Y-98404815D01*
X201433206Y-98352011D01*
X201422000Y-98300500D01*
X201422000Y-94942681D01*
X202295000Y-94942681D01*
X202329473Y-95160335D01*
X202397567Y-95369910D01*
X202497613Y-95566260D01*
X202627142Y-95744541D01*
X202782958Y-95900357D01*
X202961239Y-96029886D01*
X203157586Y-96129931D01*
X203157592Y-96129933D01*
X203194999Y-96142087D01*
X203195000Y-96142086D01*
X203195000Y-94432500D01*
X202295000Y-94432500D01*
X202295000Y-94942681D01*
X201422000Y-94942681D01*
X201422000Y-91941000D01*
X201441685Y-91873961D01*
X201494489Y-91828206D01*
X201546000Y-91817000D01*
X202631239Y-91817000D01*
X202698278Y-91836685D01*
G37*
%TD.AperFunction*%
%TA.AperFunction,Conductor*%
G36*
X204138039Y-93452185D02*
G01*
X204183794Y-93504989D01*
X204195000Y-93556500D01*
X204195000Y-93598526D01*
X204175119Y-93564092D01*
X204063408Y-93452381D01*
X204028973Y-93432500D01*
X204071000Y-93432500D01*
X204138039Y-93452185D01*
G37*
%TD.AperFunction*%
%TD*%
%TA.AperFunction,Conductor*%
%TO.N,GND*%
G36*
X257142539Y-86320185D02*
G01*
X257188294Y-86372989D01*
X257199500Y-86424500D01*
X257199500Y-99567246D01*
X257179815Y-99634285D01*
X257127011Y-99680040D01*
X257057853Y-99689984D01*
X256994297Y-99660959D01*
X256976234Y-99641558D01*
X256968187Y-99630809D01*
X256853093Y-99544649D01*
X256853086Y-99544645D01*
X256718379Y-99494403D01*
X256718372Y-99494401D01*
X256658844Y-99488000D01*
X256365388Y-99488000D01*
X256298349Y-99468315D01*
X256252594Y-99415511D01*
X256242650Y-99346353D01*
X256271675Y-99282797D01*
X256300111Y-99258573D01*
X256427039Y-99179982D01*
X256427038Y-99179982D01*
X256427041Y-99179981D01*
X256577764Y-99042579D01*
X256700673Y-98879821D01*
X256791582Y-98697250D01*
X256847397Y-98501083D01*
X256866215Y-98298000D01*
X256847397Y-98094917D01*
X256791582Y-97898750D01*
X256789031Y-97893627D01*
X256734870Y-97784857D01*
X256700673Y-97716179D01*
X256577764Y-97553421D01*
X256577762Y-97553418D01*
X256427041Y-97416019D01*
X256427039Y-97416017D01*
X256253642Y-97308655D01*
X256253635Y-97308651D01*
X256155155Y-97270500D01*
X256063456Y-97234976D01*
X255862976Y-97197500D01*
X255659024Y-97197500D01*
X255458544Y-97234976D01*
X255458541Y-97234976D01*
X255458541Y-97234977D01*
X255268364Y-97308651D01*
X255268357Y-97308655D01*
X255094960Y-97416017D01*
X255094958Y-97416019D01*
X254944237Y-97553418D01*
X254821327Y-97716178D01*
X254730422Y-97898739D01*
X254730417Y-97898752D01*
X254674602Y-98094917D01*
X254655785Y-98297999D01*
X254655785Y-98298000D01*
X254674602Y-98501082D01*
X254730417Y-98697247D01*
X254730422Y-98697260D01*
X254821327Y-98879821D01*
X254944237Y-99042581D01*
X255094958Y-99179980D01*
X255094960Y-99179982D01*
X255221889Y-99258573D01*
X255268525Y-99310601D01*
X255279629Y-99379583D01*
X255251676Y-99443617D01*
X255193541Y-99482373D01*
X255156612Y-99488000D01*
X254863155Y-99488000D01*
X254803627Y-99494401D01*
X254803620Y-99494403D01*
X254668913Y-99544645D01*
X254668906Y-99544649D01*
X254553812Y-99630809D01*
X254553809Y-99630812D01*
X254467649Y-99745906D01*
X254467645Y-99745913D01*
X254417403Y-99880620D01*
X254417401Y-99880627D01*
X254411000Y-99940155D01*
X254411000Y-100588000D01*
X255327988Y-100588000D01*
X255295075Y-100645007D01*
X255261000Y-100772174D01*
X255261000Y-100903826D01*
X255295075Y-101030993D01*
X255327988Y-101088000D01*
X254411000Y-101088000D01*
X254411000Y-101735844D01*
X254417401Y-101795372D01*
X254417403Y-101795379D01*
X254467645Y-101930086D01*
X254467649Y-101930093D01*
X254553809Y-102045187D01*
X254553812Y-102045190D01*
X254668906Y-102131350D01*
X254668913Y-102131354D01*
X254803620Y-102181596D01*
X254803627Y-102181598D01*
X254863155Y-102187999D01*
X254863172Y-102188000D01*
X255511000Y-102188000D01*
X255511000Y-101271012D01*
X255568007Y-101303925D01*
X255695174Y-101338000D01*
X255826826Y-101338000D01*
X255953993Y-101303925D01*
X256011000Y-101271012D01*
X256011000Y-102188000D01*
X256658828Y-102188000D01*
X256658844Y-102187999D01*
X256718372Y-102181598D01*
X256718379Y-102181596D01*
X256853086Y-102131354D01*
X256853093Y-102131350D01*
X256968187Y-102045190D01*
X256976232Y-102034444D01*
X257032165Y-101992572D01*
X257101857Y-101987586D01*
X257163180Y-102021071D01*
X257196666Y-102082393D01*
X257199500Y-102108753D01*
X257199500Y-116075500D01*
X257179815Y-116142539D01*
X257127011Y-116188294D01*
X257075500Y-116199500D01*
X235026879Y-116199500D01*
X234959840Y-116179815D01*
X234914085Y-116127011D01*
X234904141Y-116057853D01*
X234907104Y-116043408D01*
X234911256Y-116027908D01*
X234919500Y-115997144D01*
X234919500Y-114275673D01*
X234939185Y-114208634D01*
X234966561Y-114181260D01*
X234965426Y-114179950D01*
X234972124Y-114174145D01*
X234972128Y-114174143D01*
X235011012Y-114129267D01*
X235069787Y-114091493D01*
X235139657Y-114091492D01*
X235198436Y-114129266D01*
X235221909Y-114180656D01*
X235224335Y-114179944D01*
X235226834Y-114188455D01*
X235238107Y-114213138D01*
X235286623Y-114319373D01*
X235380872Y-114428143D01*
X235501947Y-114505953D01*
X235501950Y-114505954D01*
X235501949Y-114505954D01*
X235640036Y-114546499D01*
X235640038Y-114546500D01*
X235640039Y-114546500D01*
X235783962Y-114546500D01*
X235783962Y-114546499D01*
X235897450Y-114513177D01*
X235922050Y-114505954D01*
X235922050Y-114505953D01*
X235922053Y-114505953D01*
X236043128Y-114428143D01*
X236137377Y-114319373D01*
X236197165Y-114188457D01*
X236217647Y-114046000D01*
X236197165Y-113903543D01*
X236137377Y-113772627D01*
X236043128Y-113663857D01*
X235922053Y-113586047D01*
X235922051Y-113586046D01*
X235922049Y-113586045D01*
X235922050Y-113586045D01*
X235783963Y-113545500D01*
X235783961Y-113545500D01*
X235758544Y-113545500D01*
X235691505Y-113525815D01*
X235670863Y-113509181D01*
X235123213Y-112961531D01*
X235123208Y-112961527D01*
X235043290Y-112915387D01*
X235043289Y-112915386D01*
X235043288Y-112915386D01*
X234954144Y-112891500D01*
X234367038Y-112891500D01*
X234367036Y-112891500D01*
X234323082Y-112903277D01*
X234323082Y-112903278D01*
X234277894Y-112915386D01*
X234277893Y-112915386D01*
X234277891Y-112915387D01*
X234197973Y-112961527D01*
X234197968Y-112961531D01*
X233653531Y-113505968D01*
X233653529Y-113505971D01*
X233631397Y-113544305D01*
X233627217Y-113551547D01*
X233617365Y-113568611D01*
X233617363Y-113568613D01*
X233607387Y-113585891D01*
X233583500Y-113675038D01*
X233583500Y-115203500D01*
X233563815Y-115270539D01*
X233511011Y-115316294D01*
X233459500Y-115327500D01*
X224351165Y-115327500D01*
X224284126Y-115307815D01*
X224238371Y-115255011D01*
X224199379Y-115169630D01*
X224199376Y-115169626D01*
X224105128Y-115060857D01*
X223984053Y-114983047D01*
X223984051Y-114983046D01*
X223984049Y-114983045D01*
X223984050Y-114983045D01*
X223845963Y-114942500D01*
X223845961Y-114942500D01*
X223702039Y-114942500D01*
X223702036Y-114942500D01*
X223563949Y-114983045D01*
X223442873Y-115060856D01*
X223348623Y-115169626D01*
X223348622Y-115169628D01*
X223288834Y-115300543D01*
X223268074Y-115444939D01*
X223239049Y-115508495D01*
X223180271Y-115546269D01*
X223110401Y-115546269D01*
X223057655Y-115514973D01*
X223040503Y-115497821D01*
X223007018Y-115436498D01*
X223005449Y-115427805D01*
X222989165Y-115314543D01*
X222929377Y-115183627D01*
X222835128Y-115074857D01*
X222714053Y-114997047D01*
X222714051Y-114997046D01*
X222714049Y-114997045D01*
X222714050Y-114997045D01*
X222575963Y-114956500D01*
X222575961Y-114956500D01*
X222432039Y-114956500D01*
X222432036Y-114956500D01*
X222293949Y-114997045D01*
X222293943Y-114997048D01*
X222268800Y-115013206D01*
X222201760Y-115032889D01*
X222134722Y-115013203D01*
X222088968Y-114960397D01*
X222079027Y-114891238D01*
X222088969Y-114857381D01*
X222108074Y-114815548D01*
X222128556Y-114673091D01*
X222108074Y-114530634D01*
X222048286Y-114399718D01*
X221954037Y-114290948D01*
X221832962Y-114213138D01*
X221832960Y-114213137D01*
X221832958Y-114213136D01*
X221832959Y-114213136D01*
X221694872Y-114172591D01*
X221694870Y-114172591D01*
X221669453Y-114172591D01*
X221602414Y-114152906D01*
X221581772Y-114136272D01*
X220737688Y-113292188D01*
X220737683Y-113292184D01*
X220657765Y-113246044D01*
X220657764Y-113246043D01*
X220657763Y-113246043D01*
X220568619Y-113222157D01*
X220568618Y-113222157D01*
X220506887Y-113222157D01*
X220439848Y-113202472D01*
X220419206Y-113185838D01*
X220112079Y-112878711D01*
X241149500Y-112878711D01*
X241149500Y-113121288D01*
X241181161Y-113361785D01*
X241243947Y-113596104D01*
X241317066Y-113772628D01*
X241336776Y-113820212D01*
X241458064Y-114030289D01*
X241458066Y-114030292D01*
X241458067Y-114030293D01*
X241605733Y-114222736D01*
X241605739Y-114222743D01*
X241777256Y-114394260D01*
X241777263Y-114394266D01*
X241784370Y-114399719D01*
X241969711Y-114541936D01*
X242179788Y-114663224D01*
X242403900Y-114756054D01*
X242638211Y-114818838D01*
X242818586Y-114842584D01*
X242878711Y-114850500D01*
X242878712Y-114850500D01*
X243121289Y-114850500D01*
X243169388Y-114844167D01*
X243361789Y-114818838D01*
X243596100Y-114756054D01*
X243820212Y-114663224D01*
X244030289Y-114541936D01*
X244222738Y-114394265D01*
X244394265Y-114222738D01*
X244541936Y-114030289D01*
X244663224Y-113820212D01*
X244756054Y-113596100D01*
X244818838Y-113361789D01*
X244850500Y-113121288D01*
X244850500Y-112878712D01*
X244840419Y-112802135D01*
X247449500Y-112802135D01*
X247449500Y-114197870D01*
X247449501Y-114197876D01*
X247455908Y-114257483D01*
X247506202Y-114392328D01*
X247506206Y-114392335D01*
X247592452Y-114507544D01*
X247592455Y-114507547D01*
X247707664Y-114593793D01*
X247707671Y-114593797D01*
X247842517Y-114644091D01*
X247842516Y-114644091D01*
X247849444Y-114644835D01*
X247902127Y-114650500D01*
X251097872Y-114650499D01*
X251157483Y-114644091D01*
X251292331Y-114593796D01*
X251407546Y-114507546D01*
X251493796Y-114392331D01*
X251544091Y-114257483D01*
X251550500Y-114197873D01*
X251550499Y-112802128D01*
X251544091Y-112742517D01*
X251543560Y-112741094D01*
X251493797Y-112607671D01*
X251493793Y-112607664D01*
X251407547Y-112492455D01*
X251407544Y-112492452D01*
X251292335Y-112406206D01*
X251292328Y-112406202D01*
X251157482Y-112355908D01*
X251157483Y-112355908D01*
X251097883Y-112349501D01*
X251097881Y-112349500D01*
X251097873Y-112349500D01*
X251097864Y-112349500D01*
X247902129Y-112349500D01*
X247902123Y-112349501D01*
X247842516Y-112355908D01*
X247707671Y-112406202D01*
X247707664Y-112406206D01*
X247592455Y-112492452D01*
X247592452Y-112492455D01*
X247506206Y-112607664D01*
X247506202Y-112607671D01*
X247455908Y-112742517D01*
X247450431Y-112793467D01*
X247449501Y-112802123D01*
X247449500Y-112802135D01*
X244840419Y-112802135D01*
X244818838Y-112638211D01*
X244756054Y-112403900D01*
X244663224Y-112179788D01*
X244541936Y-111969711D01*
X244475400Y-111883000D01*
X244394266Y-111777263D01*
X244394260Y-111777256D01*
X244222743Y-111605739D01*
X244222736Y-111605733D01*
X244030293Y-111458067D01*
X244030292Y-111458066D01*
X244030289Y-111458064D01*
X243820212Y-111336776D01*
X243756559Y-111310410D01*
X243596104Y-111243947D01*
X243478944Y-111212554D01*
X243361789Y-111181162D01*
X243361788Y-111181161D01*
X243361785Y-111181161D01*
X243121289Y-111149500D01*
X243121288Y-111149500D01*
X242878712Y-111149500D01*
X242878711Y-111149500D01*
X242638214Y-111181161D01*
X242403895Y-111243947D01*
X242179794Y-111336773D01*
X242179785Y-111336777D01*
X241969706Y-111458067D01*
X241777263Y-111605733D01*
X241777256Y-111605739D01*
X241605739Y-111777256D01*
X241605733Y-111777263D01*
X241458067Y-111969706D01*
X241336777Y-112179785D01*
X241336773Y-112179794D01*
X241243947Y-112403895D01*
X241181161Y-112638214D01*
X241149500Y-112878711D01*
X220112079Y-112878711D01*
X217486354Y-110252986D01*
X217452869Y-110191663D01*
X217457853Y-110121971D01*
X217499725Y-110066038D01*
X217506996Y-110060989D01*
X217507051Y-110060953D01*
X217507053Y-110060953D01*
X217628128Y-109983143D01*
X217722377Y-109874373D01*
X217782165Y-109743457D01*
X217802647Y-109601000D01*
X217782165Y-109458543D01*
X217722377Y-109327627D01*
X217628128Y-109218857D01*
X217507053Y-109141047D01*
X217507051Y-109141046D01*
X217507049Y-109141045D01*
X217507050Y-109141045D01*
X217368963Y-109100500D01*
X217368961Y-109100500D01*
X217227398Y-109100500D01*
X217160359Y-109080815D01*
X217114604Y-109028011D01*
X217104660Y-108958853D01*
X217133685Y-108895297D01*
X217192463Y-108857523D01*
X217192464Y-108857523D01*
X217276138Y-108832954D01*
X217276138Y-108832953D01*
X217276141Y-108832953D01*
X217397216Y-108755143D01*
X217491465Y-108646373D01*
X217551253Y-108515457D01*
X217571735Y-108373000D01*
X217551253Y-108230543D01*
X217491465Y-108099627D01*
X217397216Y-107990857D01*
X217276141Y-107913047D01*
X217276139Y-107913046D01*
X217276137Y-107913045D01*
X217276138Y-107913045D01*
X217138051Y-107872500D01*
X217138049Y-107872500D01*
X216994127Y-107872500D01*
X216994124Y-107872500D01*
X216856037Y-107913045D01*
X216734961Y-107990856D01*
X216640711Y-108099626D01*
X216640710Y-108099628D01*
X216577239Y-108238610D01*
X216575781Y-108237944D01*
X216543467Y-108288219D01*
X216479909Y-108317239D01*
X216462271Y-108318500D01*
X216139067Y-108318500D01*
X216072028Y-108298815D01*
X216026273Y-108246011D01*
X216016329Y-108176853D01*
X216024647Y-108119000D01*
X216004165Y-107976543D01*
X215944377Y-107845627D01*
X215850128Y-107736857D01*
X215729053Y-107659047D01*
X215729051Y-107659046D01*
X215729049Y-107659045D01*
X215729050Y-107659045D01*
X215590963Y-107618500D01*
X215590961Y-107618500D01*
X215565543Y-107618500D01*
X215498504Y-107598815D01*
X215477862Y-107582181D01*
X214224934Y-106329252D01*
X214191449Y-106267929D01*
X214188615Y-106241571D01*
X214188615Y-106166229D01*
X214191374Y-106156834D01*
X216630854Y-106156834D01*
X216651335Y-106299290D01*
X216706691Y-106420500D01*
X216711124Y-106430207D01*
X216805373Y-106538977D01*
X216926448Y-106616787D01*
X216926451Y-106616788D01*
X216926450Y-106616788D01*
X217064537Y-106657333D01*
X217064539Y-106657334D01*
X217064540Y-106657334D01*
X217208463Y-106657334D01*
X217208463Y-106657333D01*
X217346554Y-106616787D01*
X217358416Y-106609164D01*
X217403509Y-106580185D01*
X217470548Y-106560500D01*
X218524543Y-106560500D01*
X218591582Y-106580185D01*
X218637337Y-106632989D01*
X218647281Y-106702147D01*
X218618256Y-106765703D01*
X218566950Y-106798674D01*
X218567471Y-106799814D01*
X218559545Y-106803433D01*
X218559478Y-106803477D01*
X218559477Y-106803477D01*
X218559403Y-106803498D01*
X218438327Y-106881309D01*
X218344077Y-106990079D01*
X218344076Y-106990081D01*
X218284288Y-107120996D01*
X218263807Y-107263453D01*
X218284288Y-107405909D01*
X218344076Y-107536824D01*
X218344077Y-107536826D01*
X218438326Y-107645596D01*
X218559401Y-107723406D01*
X218559404Y-107723407D01*
X218559403Y-107723407D01*
X218697490Y-107763952D01*
X218697492Y-107763953D01*
X218697493Y-107763953D01*
X218841415Y-107763953D01*
X218915268Y-107742268D01*
X218985135Y-107742268D01*
X219037882Y-107773564D01*
X220379995Y-109115677D01*
X220413480Y-109177000D01*
X220415052Y-109185710D01*
X220431334Y-109298956D01*
X220479556Y-109404545D01*
X220491123Y-109429873D01*
X220585372Y-109538643D01*
X220706447Y-109616453D01*
X220706450Y-109616454D01*
X220706449Y-109616454D01*
X220813607Y-109647917D01*
X220823716Y-109650886D01*
X220844536Y-109656999D01*
X220844538Y-109657000D01*
X220844539Y-109657000D01*
X220988462Y-109657000D01*
X220988462Y-109656999D01*
X221095621Y-109625535D01*
X221126550Y-109616454D01*
X221126550Y-109616453D01*
X221126553Y-109616453D01*
X221247628Y-109538643D01*
X221285973Y-109494389D01*
X221344748Y-109456617D01*
X221414618Y-109456617D01*
X221473396Y-109494390D01*
X221502422Y-109557946D01*
X221510834Y-109616456D01*
X221537281Y-109674365D01*
X221570623Y-109747373D01*
X221664872Y-109856143D01*
X221785947Y-109933953D01*
X221785950Y-109933954D01*
X221785949Y-109933954D01*
X221924036Y-109974499D01*
X221924038Y-109974500D01*
X221924039Y-109974500D01*
X222067962Y-109974500D01*
X222067962Y-109974499D01*
X222206053Y-109933953D01*
X222244184Y-109909448D01*
X247449500Y-109909448D01*
X247449500Y-110090551D01*
X247477829Y-110269410D01*
X247533787Y-110441636D01*
X247533788Y-110441639D01*
X247616006Y-110602997D01*
X247722441Y-110749494D01*
X247722445Y-110749499D01*
X247850500Y-110877554D01*
X247850505Y-110877558D01*
X247925765Y-110932237D01*
X247997006Y-110983996D01*
X248102484Y-111037740D01*
X248158360Y-111066211D01*
X248158363Y-111066212D01*
X248244476Y-111094191D01*
X248330591Y-111122171D01*
X248413429Y-111135291D01*
X248509449Y-111150500D01*
X248509454Y-111150500D01*
X250490551Y-111150500D01*
X250577259Y-111136765D01*
X250669409Y-111122171D01*
X250841639Y-111066211D01*
X251002994Y-110983996D01*
X251149501Y-110877553D01*
X251277553Y-110749501D01*
X251383996Y-110602994D01*
X251466211Y-110441639D01*
X251522171Y-110269409D01*
X251545523Y-110121971D01*
X251550500Y-110090551D01*
X251550500Y-109909448D01*
X251534001Y-109805280D01*
X251522171Y-109730591D01*
X251466211Y-109558361D01*
X251466211Y-109558360D01*
X251427002Y-109481410D01*
X251383996Y-109397006D01*
X251333590Y-109327628D01*
X251277558Y-109250505D01*
X251277554Y-109250500D01*
X251149499Y-109122445D01*
X251149494Y-109122441D01*
X251002997Y-109016006D01*
X251002996Y-109016005D01*
X251002994Y-109016004D01*
X250941164Y-108984500D01*
X250841639Y-108933788D01*
X250841636Y-108933787D01*
X250669410Y-108877829D01*
X250490551Y-108849500D01*
X250490546Y-108849500D01*
X248509454Y-108849500D01*
X248509449Y-108849500D01*
X248330589Y-108877829D01*
X248158363Y-108933787D01*
X248158360Y-108933788D01*
X247997002Y-109016006D01*
X247850505Y-109122441D01*
X247850500Y-109122445D01*
X247722445Y-109250500D01*
X247722441Y-109250505D01*
X247616006Y-109397002D01*
X247533788Y-109558360D01*
X247533787Y-109558363D01*
X247477829Y-109730589D01*
X247449500Y-109909448D01*
X222244184Y-109909448D01*
X222327128Y-109856143D01*
X222327136Y-109856133D01*
X222328688Y-109854790D01*
X222330572Y-109853929D01*
X222334589Y-109851348D01*
X222334960Y-109851925D01*
X222392243Y-109825763D01*
X222409895Y-109824500D01*
X223439142Y-109824500D01*
X223439144Y-109824500D01*
X223528288Y-109800614D01*
X223548456Y-109788970D01*
X223608212Y-109754470D01*
X223986863Y-109375819D01*
X224048186Y-109342334D01*
X224074544Y-109339500D01*
X224099962Y-109339500D01*
X224099962Y-109339499D01*
X224207121Y-109308035D01*
X224238050Y-109298954D01*
X224238050Y-109298953D01*
X224238053Y-109298953D01*
X224359128Y-109221143D01*
X224453377Y-109112373D01*
X224513165Y-108981457D01*
X224533647Y-108839000D01*
X224513165Y-108696543D01*
X224453377Y-108565627D01*
X224382647Y-108484000D01*
X228729353Y-108484000D01*
X228749834Y-108626456D01*
X228809622Y-108757371D01*
X228809623Y-108757373D01*
X228903872Y-108866143D01*
X229024947Y-108943953D01*
X229024950Y-108943954D01*
X229024949Y-108943954D01*
X229075692Y-108958853D01*
X229152675Y-108981457D01*
X229163036Y-108984499D01*
X229163038Y-108984500D01*
X229163039Y-108984500D01*
X229306962Y-108984500D01*
X229306962Y-108984499D01*
X229426264Y-108949470D01*
X229445050Y-108943954D01*
X229445050Y-108943953D01*
X229445053Y-108943953D01*
X229566128Y-108866143D01*
X229660377Y-108757373D01*
X229720165Y-108626457D01*
X229740647Y-108484000D01*
X229720165Y-108341543D01*
X229717666Y-108333032D01*
X229720004Y-108332345D01*
X229712500Y-108297783D01*
X229712500Y-107790035D01*
X229732185Y-107722996D01*
X229742782Y-107708837D01*
X229787377Y-107657373D01*
X229847165Y-107526457D01*
X229867647Y-107384000D01*
X229847165Y-107241543D01*
X229787377Y-107110627D01*
X229693128Y-107001857D01*
X229572053Y-106924047D01*
X229572051Y-106924046D01*
X229572049Y-106924045D01*
X229572050Y-106924045D01*
X229433963Y-106883500D01*
X229433961Y-106883500D01*
X229290039Y-106883500D01*
X229290036Y-106883500D01*
X229151949Y-106924045D01*
X229030873Y-107001856D01*
X229030872Y-107001856D01*
X229030872Y-107001857D01*
X229018290Y-107016377D01*
X228936623Y-107110626D01*
X228936622Y-107110628D01*
X228876834Y-107241543D01*
X228856353Y-107384000D01*
X228876834Y-107526456D01*
X228936622Y-107657371D01*
X228936623Y-107657373D01*
X228981213Y-107708833D01*
X229010238Y-107772388D01*
X229011500Y-107790035D01*
X229011500Y-107964979D01*
X228991815Y-108032018D01*
X228954540Y-108069294D01*
X228903873Y-108101856D01*
X228903866Y-108101862D01*
X228809625Y-108210622D01*
X228809622Y-108210628D01*
X228749834Y-108341543D01*
X228729353Y-108484000D01*
X224382647Y-108484000D01*
X224359128Y-108456857D01*
X224238053Y-108379047D01*
X224238051Y-108379046D01*
X224238049Y-108379045D01*
X224238050Y-108379045D01*
X224099963Y-108338500D01*
X224099961Y-108338500D01*
X223956039Y-108338500D01*
X223956036Y-108338500D01*
X223817949Y-108379045D01*
X223696873Y-108456856D01*
X223602623Y-108565626D01*
X223602622Y-108565628D01*
X223542834Y-108696543D01*
X223526552Y-108809788D01*
X223497526Y-108873343D01*
X223491496Y-108879821D01*
X223284135Y-109087182D01*
X223222815Y-109120666D01*
X223196456Y-109123500D01*
X222644583Y-109123500D01*
X222577544Y-109103815D01*
X222531789Y-109051011D01*
X222521845Y-108981853D01*
X222546682Y-108927465D01*
X222545342Y-108926604D01*
X222550132Y-108919148D01*
X222550137Y-108919143D01*
X222609925Y-108788227D01*
X222615380Y-108750279D01*
X222644403Y-108686724D01*
X222650423Y-108680257D01*
X223986863Y-107343819D01*
X224048186Y-107310334D01*
X224074544Y-107307500D01*
X224099962Y-107307500D01*
X224099962Y-107307499D01*
X224238053Y-107266953D01*
X224359128Y-107189143D01*
X224453377Y-107080373D01*
X224513165Y-106949457D01*
X224533647Y-106807000D01*
X224513165Y-106664543D01*
X224453377Y-106533627D01*
X224359128Y-106424857D01*
X224238053Y-106347047D01*
X224238051Y-106347046D01*
X224238049Y-106347045D01*
X224238050Y-106347045D01*
X224099963Y-106306500D01*
X224099961Y-106306500D01*
X223956039Y-106306500D01*
X223956036Y-106306500D01*
X223817949Y-106347045D01*
X223696873Y-106424856D01*
X223602623Y-106533626D01*
X223602622Y-106533628D01*
X223542834Y-106664543D01*
X223526552Y-106777788D01*
X223497526Y-106841343D01*
X223491495Y-106847821D01*
X222242658Y-108096658D01*
X222187075Y-108128751D01*
X222177241Y-108131386D01*
X222169731Y-108134497D01*
X222168775Y-108132190D01*
X222119968Y-108145270D01*
X222052796Y-108145270D01*
X221914709Y-108185815D01*
X221793633Y-108263626D01*
X221699383Y-108372396D01*
X221699382Y-108372398D01*
X221639594Y-108503313D01*
X221619113Y-108645770D01*
X221639594Y-108788226D01*
X221699385Y-108919147D01*
X221700813Y-108921370D01*
X221701556Y-108923901D01*
X221703067Y-108927210D01*
X221702591Y-108927427D01*
X221720493Y-108988411D01*
X221700804Y-109055449D01*
X221670935Y-109085317D01*
X221671572Y-109086052D01*
X221664869Y-109091859D01*
X221626528Y-109136108D01*
X221567750Y-109173882D01*
X221497880Y-109173882D01*
X221439102Y-109136108D01*
X221410077Y-109072552D01*
X221410077Y-109072551D01*
X221409991Y-109071956D01*
X221401665Y-109014043D01*
X221341877Y-108883127D01*
X221247628Y-108774357D01*
X221126553Y-108696547D01*
X221126551Y-108696546D01*
X221126549Y-108696545D01*
X221126550Y-108696545D01*
X220988463Y-108656000D01*
X220988461Y-108656000D01*
X220963044Y-108656000D01*
X220896005Y-108636315D01*
X220875363Y-108619681D01*
X219238666Y-106982984D01*
X219238661Y-106982980D01*
X219156701Y-106935661D01*
X219124988Y-106909476D01*
X219100583Y-106881311D01*
X219100581Y-106881309D01*
X219015095Y-106826371D01*
X218979507Y-106803500D01*
X218979505Y-106803499D01*
X218979503Y-106803498D01*
X218979504Y-106803498D01*
X218841417Y-106762953D01*
X218832638Y-106761691D01*
X218832964Y-106759418D01*
X218777963Y-106743268D01*
X218732208Y-106690464D01*
X218722264Y-106621306D01*
X218751289Y-106557750D01*
X218783004Y-106531565D01*
X218791725Y-106526530D01*
X218854183Y-106490470D01*
X221547729Y-103796923D01*
X221609050Y-103763440D01*
X221678742Y-103768424D01*
X221702443Y-103780288D01*
X221753899Y-103813357D01*
X221785948Y-103833954D01*
X221924036Y-103874499D01*
X221924038Y-103874500D01*
X221924039Y-103874500D01*
X222067962Y-103874500D01*
X222067962Y-103874499D01*
X222175121Y-103843035D01*
X222206050Y-103833954D01*
X222206050Y-103833953D01*
X222206053Y-103833953D01*
X222327128Y-103756143D01*
X222421377Y-103647373D01*
X222481165Y-103516457D01*
X222482812Y-103505000D01*
X225427353Y-103505000D01*
X225447834Y-103647456D01*
X225496383Y-103753761D01*
X225507623Y-103778373D01*
X225552213Y-103829833D01*
X225581238Y-103893388D01*
X225582500Y-103911035D01*
X225582500Y-106527963D01*
X225562815Y-106595002D01*
X225552214Y-106609164D01*
X225507625Y-106660623D01*
X225507622Y-106660628D01*
X225447834Y-106791543D01*
X225427353Y-106934000D01*
X225447834Y-107076456D01*
X225500374Y-107191500D01*
X225507623Y-107207373D01*
X225601872Y-107316143D01*
X225722947Y-107393953D01*
X225722950Y-107393954D01*
X225722949Y-107393954D01*
X225861036Y-107434499D01*
X225861038Y-107434500D01*
X225861039Y-107434500D01*
X226004962Y-107434500D01*
X226004962Y-107434499D01*
X226143053Y-107393953D01*
X226264128Y-107316143D01*
X226358377Y-107207373D01*
X226418165Y-107076457D01*
X226438647Y-106934000D01*
X226418165Y-106791543D01*
X226358377Y-106660627D01*
X226352052Y-106653327D01*
X226313786Y-106609164D01*
X226288138Y-106553000D01*
X246294353Y-106553000D01*
X246314834Y-106695456D01*
X246369754Y-106815712D01*
X246374623Y-106826373D01*
X246468872Y-106935143D01*
X246589947Y-107012953D01*
X246589950Y-107012954D01*
X246589949Y-107012954D01*
X246728036Y-107053499D01*
X246728038Y-107053500D01*
X246728039Y-107053500D01*
X246871962Y-107053500D01*
X246871962Y-107053499D01*
X247010053Y-107012953D01*
X247131128Y-106935143D01*
X247225377Y-106826373D01*
X247234225Y-106807000D01*
X247238274Y-106798132D01*
X247285165Y-106695457D01*
X247295509Y-106623504D01*
X247324533Y-106559950D01*
X247330567Y-106553469D01*
X247427220Y-106456818D01*
X247488543Y-106423334D01*
X247514900Y-106420500D01*
X247572126Y-106420500D01*
X247639165Y-106440185D01*
X247639166Y-106440185D01*
X247739947Y-106504953D01*
X247739948Y-106504953D01*
X247739949Y-106504954D01*
X247830580Y-106531565D01*
X247855823Y-106538977D01*
X247878036Y-106545499D01*
X247878038Y-106545500D01*
X247878039Y-106545500D01*
X248021962Y-106545500D01*
X248021962Y-106545499D01*
X248160053Y-106504953D01*
X248281128Y-106427143D01*
X248375377Y-106318373D01*
X248435165Y-106187457D01*
X248455647Y-106045000D01*
X248435165Y-105902543D01*
X248375377Y-105771627D01*
X248281128Y-105662857D01*
X248160053Y-105585047D01*
X248160051Y-105585046D01*
X248160049Y-105585045D01*
X248160050Y-105585045D01*
X248021963Y-105544500D01*
X248021961Y-105544500D01*
X247878039Y-105544500D01*
X247878036Y-105544500D01*
X247739949Y-105585045D01*
X247739948Y-105585046D01*
X247639166Y-105649815D01*
X247572126Y-105669500D01*
X247258563Y-105669500D01*
X247221405Y-105679456D01*
X247221405Y-105679457D01*
X247163062Y-105695090D01*
X247163061Y-105695090D01*
X247163059Y-105695091D01*
X247077436Y-105744526D01*
X247077437Y-105744526D01*
X246805602Y-106016360D01*
X246744279Y-106049845D01*
X246735571Y-106051416D01*
X246728041Y-106052498D01*
X246589949Y-106093045D01*
X246468873Y-106170856D01*
X246374623Y-106279626D01*
X246374622Y-106279628D01*
X246314834Y-106410543D01*
X246294353Y-106553000D01*
X226288138Y-106553000D01*
X226284762Y-106545608D01*
X226283500Y-106527963D01*
X226283500Y-103911035D01*
X226303185Y-103843996D01*
X226313782Y-103829837D01*
X226358377Y-103778373D01*
X226418165Y-103647457D01*
X226438647Y-103505000D01*
X226418165Y-103362543D01*
X226358377Y-103231627D01*
X226264128Y-103122857D01*
X226143053Y-103045047D01*
X226143051Y-103045046D01*
X226143049Y-103045045D01*
X226143050Y-103045045D01*
X226004963Y-103004500D01*
X226004961Y-103004500D01*
X225861039Y-103004500D01*
X225861036Y-103004500D01*
X225722949Y-103045045D01*
X225601873Y-103122856D01*
X225507623Y-103231626D01*
X225507622Y-103231628D01*
X225447834Y-103362543D01*
X225427353Y-103505000D01*
X222482812Y-103505000D01*
X222501647Y-103374000D01*
X222481165Y-103231543D01*
X222421377Y-103100627D01*
X222327128Y-102991857D01*
X222206053Y-102914047D01*
X222206051Y-102914046D01*
X222206049Y-102914045D01*
X222206050Y-102914045D01*
X222067963Y-102873500D01*
X222067961Y-102873500D01*
X221924039Y-102873500D01*
X221924036Y-102873500D01*
X221785949Y-102914045D01*
X221664876Y-102991854D01*
X221664874Y-102991855D01*
X221664872Y-102991857D01*
X221664870Y-102991858D01*
X221663312Y-102993210D01*
X221661427Y-102994070D01*
X221657411Y-102996652D01*
X221657039Y-102996074D01*
X221599757Y-103022237D01*
X221582105Y-103023500D01*
X221428825Y-103023500D01*
X221355867Y-103043048D01*
X221355868Y-103043049D01*
X221339684Y-103047385D01*
X221339680Y-103047387D01*
X221259762Y-103093527D01*
X221259757Y-103093531D01*
X221037867Y-103315421D01*
X220976544Y-103348906D01*
X220906852Y-103343922D01*
X220850919Y-103302050D01*
X220827448Y-103245387D01*
X220821569Y-103204500D01*
X220809211Y-103118543D01*
X220749423Y-102987627D01*
X220655174Y-102878857D01*
X220534099Y-102801047D01*
X220534097Y-102801046D01*
X220534095Y-102801045D01*
X220534096Y-102801045D01*
X220396011Y-102760500D01*
X220388475Y-102759417D01*
X220324920Y-102730391D01*
X220318443Y-102724360D01*
X220181819Y-102587736D01*
X220148334Y-102526413D01*
X220145500Y-102500055D01*
X220145500Y-102088183D01*
X220165185Y-102021144D01*
X220175783Y-102006985D01*
X220195377Y-101984373D01*
X220255165Y-101853457D01*
X220275647Y-101711000D01*
X220255165Y-101568543D01*
X220195377Y-101437627D01*
X220101128Y-101328857D01*
X219980053Y-101251047D01*
X219980051Y-101251046D01*
X219980049Y-101251045D01*
X219980050Y-101251045D01*
X219841963Y-101210500D01*
X219841961Y-101210500D01*
X219698039Y-101210500D01*
X219698036Y-101210500D01*
X219559949Y-101251045D01*
X219438873Y-101328856D01*
X219344623Y-101437626D01*
X219344622Y-101437628D01*
X219284834Y-101568543D01*
X219264353Y-101711000D01*
X219284834Y-101853456D01*
X219344622Y-101984371D01*
X219344623Y-101984373D01*
X219364212Y-102006980D01*
X219393238Y-102070534D01*
X219394500Y-102088183D01*
X219394500Y-102756386D01*
X219394501Y-102756395D01*
X219395770Y-102761129D01*
X219395771Y-102761142D01*
X219395774Y-102761142D01*
X219395774Y-102761143D01*
X219397173Y-102766363D01*
X219420090Y-102851893D01*
X219420093Y-102851898D01*
X219457402Y-102916520D01*
X219469522Y-102937511D01*
X219469528Y-102937520D01*
X219793478Y-103261469D01*
X219826963Y-103322792D01*
X219828535Y-103331502D01*
X219838880Y-103403454D01*
X219838881Y-103403458D01*
X219890486Y-103516456D01*
X219898669Y-103534373D01*
X219992918Y-103643143D01*
X220113993Y-103720953D01*
X220113996Y-103720954D01*
X220113995Y-103720954D01*
X220221153Y-103752417D01*
X220225731Y-103753762D01*
X220252082Y-103761499D01*
X220252084Y-103761500D01*
X220292427Y-103761500D01*
X220359466Y-103781185D01*
X220405221Y-103833989D01*
X220415165Y-103903147D01*
X220386140Y-103966703D01*
X220380112Y-103973175D01*
X220018179Y-104335109D01*
X218991118Y-105362169D01*
X218929795Y-105395654D01*
X218860103Y-105390670D01*
X218809722Y-105355688D01*
X218791938Y-105335163D01*
X218762915Y-105271607D01*
X218761653Y-105253963D01*
X218761653Y-104386188D01*
X218781338Y-104319149D01*
X218791935Y-104304990D01*
X218836530Y-104253526D01*
X218896318Y-104122610D01*
X218916800Y-103980153D01*
X218896318Y-103837696D01*
X218836530Y-103706780D01*
X218742281Y-103598010D01*
X218621206Y-103520200D01*
X218621204Y-103520199D01*
X218621202Y-103520198D01*
X218621203Y-103520198D01*
X218483116Y-103479653D01*
X218483114Y-103479653D01*
X218339192Y-103479653D01*
X218339189Y-103479653D01*
X218201102Y-103520198D01*
X218080026Y-103598009D01*
X217985776Y-103706779D01*
X217985775Y-103706781D01*
X217925987Y-103837696D01*
X217905506Y-103980153D01*
X217925987Y-104122609D01*
X217934144Y-104140470D01*
X217985776Y-104253526D01*
X218030366Y-104304986D01*
X218059391Y-104368541D01*
X218060653Y-104386188D01*
X218060653Y-105253963D01*
X218040968Y-105321002D01*
X218030367Y-105335164D01*
X217985778Y-105386623D01*
X217985775Y-105386628D01*
X217925987Y-105517543D01*
X217916282Y-105585047D01*
X217905506Y-105660000D01*
X217911916Y-105704581D01*
X217913824Y-105717853D01*
X217903880Y-105787012D01*
X217858125Y-105839816D01*
X217791086Y-105859500D01*
X217597745Y-105859500D01*
X217530706Y-105839815D01*
X217504032Y-105816703D01*
X217467629Y-105774691D01*
X217346554Y-105696881D01*
X217346552Y-105696880D01*
X217346550Y-105696879D01*
X217346551Y-105696879D01*
X217208464Y-105656334D01*
X217208462Y-105656334D01*
X217064540Y-105656334D01*
X217064537Y-105656334D01*
X216926450Y-105696879D01*
X216805374Y-105774690D01*
X216711124Y-105883460D01*
X216711123Y-105883462D01*
X216651335Y-106014377D01*
X216630854Y-106156834D01*
X214191374Y-106156834D01*
X214208300Y-106099190D01*
X214218897Y-106085031D01*
X214263492Y-106033567D01*
X214323280Y-105902651D01*
X214343762Y-105760194D01*
X214323280Y-105617737D01*
X214263492Y-105486821D01*
X214169243Y-105378051D01*
X214048168Y-105300241D01*
X214048166Y-105300240D01*
X214048164Y-105300239D01*
X214048165Y-105300239D01*
X213910078Y-105259694D01*
X213910076Y-105259694D01*
X213766154Y-105259694D01*
X213766151Y-105259694D01*
X213628064Y-105300239D01*
X213506988Y-105378050D01*
X213412738Y-105486820D01*
X213412737Y-105486822D01*
X213352949Y-105617737D01*
X213339746Y-105709571D01*
X213310721Y-105773127D01*
X213251943Y-105810901D01*
X213186747Y-105810901D01*
X213186740Y-105810956D01*
X213186363Y-105810901D01*
X213182075Y-105810901D01*
X213177961Y-105809694D01*
X213034039Y-105809694D01*
X213034036Y-105809694D01*
X212895949Y-105850239D01*
X212774873Y-105928050D01*
X212680623Y-106036820D01*
X212680622Y-106036822D01*
X212620834Y-106167737D01*
X212608564Y-106253084D01*
X212579539Y-106316640D01*
X212520761Y-106354414D01*
X212485826Y-106359437D01*
X212397417Y-106359437D01*
X212259330Y-106399982D01*
X212141913Y-106475441D01*
X212074873Y-106495125D01*
X212007834Y-106475440D01*
X211979529Y-106447132D01*
X211978433Y-106448082D01*
X211971590Y-106440185D01*
X211878376Y-106332609D01*
X211757301Y-106254799D01*
X211757299Y-106254798D01*
X211757297Y-106254797D01*
X211757298Y-106254797D01*
X211619211Y-106214252D01*
X211619209Y-106214252D01*
X211475287Y-106214252D01*
X211475284Y-106214252D01*
X211337197Y-106254797D01*
X211216121Y-106332608D01*
X211121871Y-106441378D01*
X211121870Y-106441380D01*
X211062082Y-106572295D01*
X211041601Y-106714752D01*
X211062082Y-106857208D01*
X211119521Y-106982980D01*
X211121871Y-106988125D01*
X211216120Y-107096895D01*
X211337195Y-107174705D01*
X211337198Y-107174706D01*
X211337197Y-107174706D01*
X211394394Y-107191500D01*
X211448446Y-107207371D01*
X211475284Y-107215251D01*
X211475286Y-107215252D01*
X211475287Y-107215252D01*
X211500704Y-107215252D01*
X211567743Y-107234937D01*
X211588385Y-107251571D01*
X211765723Y-107428908D01*
X211771934Y-107435990D01*
X211774342Y-107438398D01*
X211774343Y-107438399D01*
X211961094Y-107625149D01*
X212026351Y-107690406D01*
X212026354Y-107690408D01*
X212032800Y-107695354D01*
X212031934Y-107696482D01*
X212074098Y-107740708D01*
X212087317Y-107809316D01*
X212061345Y-107874179D01*
X212057593Y-107878722D01*
X212027450Y-107913509D01*
X212027447Y-107913514D01*
X211967659Y-108044429D01*
X211947178Y-108186886D01*
X211967659Y-108329342D01*
X212020064Y-108444091D01*
X212027448Y-108460259D01*
X212121697Y-108569029D01*
X212242772Y-108646839D01*
X212242775Y-108646840D01*
X212242774Y-108646840D01*
X212339375Y-108675204D01*
X212378609Y-108686724D01*
X212380861Y-108687385D01*
X212380863Y-108687386D01*
X212380864Y-108687386D01*
X212524786Y-108687386D01*
X212566274Y-108675204D01*
X212636143Y-108675204D01*
X212688890Y-108706500D01*
X212746545Y-108764155D01*
X212780030Y-108825478D01*
X212775046Y-108895170D01*
X212733174Y-108951103D01*
X212725906Y-108956150D01*
X212714653Y-108963381D01*
X212620403Y-109072152D01*
X212620402Y-109072154D01*
X212560614Y-109203069D01*
X212544176Y-109317405D01*
X212515151Y-109380961D01*
X212456373Y-109418735D01*
X212421438Y-109423758D01*
X212395085Y-109423758D01*
X212256998Y-109464303D01*
X212135922Y-109542114D01*
X212041672Y-109650884D01*
X212041671Y-109650886D01*
X211981883Y-109781801D01*
X211961402Y-109924258D01*
X211981883Y-110066714D01*
X212005989Y-110119498D01*
X212041672Y-110197631D01*
X212086262Y-110249091D01*
X212115287Y-110312646D01*
X212116549Y-110330293D01*
X212116549Y-111020377D01*
X212126507Y-111057538D01*
X212126508Y-111057542D01*
X212140433Y-111109516D01*
X212140434Y-111109517D01*
X212186576Y-111189439D01*
X212186580Y-111189444D01*
X212386904Y-111389768D01*
X212420389Y-111451091D01*
X212421961Y-111459801D01*
X212438243Y-111573047D01*
X212498031Y-111703962D01*
X212498032Y-111703964D01*
X212592281Y-111812734D01*
X212713356Y-111890544D01*
X212713359Y-111890545D01*
X212713358Y-111890545D01*
X212836216Y-111926619D01*
X212894995Y-111964393D01*
X212924020Y-112027948D01*
X212914077Y-112097107D01*
X212868322Y-112149911D01*
X212801283Y-112169596D01*
X211739802Y-112169596D01*
X211672763Y-112149911D01*
X211658595Y-112139306D01*
X211657039Y-112137958D01*
X211657035Y-112137953D01*
X211535960Y-112060143D01*
X211535958Y-112060142D01*
X211535956Y-112060141D01*
X211535957Y-112060141D01*
X211397870Y-112019596D01*
X211397868Y-112019596D01*
X211253946Y-112019596D01*
X211253943Y-112019596D01*
X211115856Y-112060141D01*
X210994780Y-112137952D01*
X210900530Y-112246722D01*
X210900529Y-112246724D01*
X210840741Y-112377639D01*
X210820260Y-112520096D01*
X210840741Y-112662552D01*
X210897867Y-112787638D01*
X210900530Y-112793469D01*
X210994779Y-112902239D01*
X211115854Y-112980049D01*
X211115857Y-112980050D01*
X211115856Y-112980050D01*
X211253943Y-113020595D01*
X211253945Y-113020596D01*
X211274104Y-113020596D01*
X211341143Y-113040281D01*
X211386898Y-113093085D01*
X211396842Y-113126949D01*
X211412240Y-113234050D01*
X211470576Y-113361785D01*
X211472029Y-113364967D01*
X211566278Y-113473737D01*
X211687353Y-113551547D01*
X211687356Y-113551548D01*
X211687355Y-113551548D01*
X211794513Y-113583011D01*
X211804329Y-113585894D01*
X211825442Y-113592093D01*
X211825444Y-113592094D01*
X211825445Y-113592094D01*
X211969368Y-113592094D01*
X211969368Y-113592093D01*
X212107459Y-113551547D01*
X212228534Y-113473737D01*
X212228542Y-113473727D01*
X212230094Y-113472384D01*
X212231978Y-113471523D01*
X212235995Y-113468942D01*
X212236366Y-113469519D01*
X212293649Y-113443357D01*
X212311301Y-113442094D01*
X213806548Y-113442094D01*
X213806550Y-113442094D01*
X213895694Y-113418208D01*
X213910157Y-113409857D01*
X213910159Y-113409857D01*
X213910159Y-113409856D01*
X213975618Y-113372064D01*
X214131272Y-113216410D01*
X214192595Y-113182925D01*
X214218953Y-113180091D01*
X214244371Y-113180091D01*
X214244371Y-113180090D01*
X214382462Y-113139544D01*
X214503537Y-113061734D01*
X214597786Y-112952964D01*
X214657574Y-112822048D01*
X214678056Y-112679591D01*
X214657574Y-112537134D01*
X214597786Y-112406218D01*
X214503537Y-112297448D01*
X214382462Y-112219638D01*
X214382460Y-112219637D01*
X214382458Y-112219636D01*
X214382459Y-112219636D01*
X214303758Y-112196528D01*
X214244979Y-112158754D01*
X214215954Y-112095198D01*
X214224713Y-112034271D01*
X214223667Y-112033964D01*
X214225804Y-112026686D01*
X214225896Y-112026045D01*
X214226165Y-112025457D01*
X214246647Y-111883000D01*
X214226165Y-111740543D01*
X214166377Y-111609627D01*
X214072128Y-111500857D01*
X213951053Y-111423047D01*
X213951051Y-111423046D01*
X213951049Y-111423045D01*
X213951050Y-111423045D01*
X213812963Y-111382500D01*
X213812961Y-111382500D01*
X213669039Y-111382500D01*
X213669035Y-111382500D01*
X213569448Y-111411741D01*
X213499578Y-111411741D01*
X213440800Y-111373966D01*
X213411777Y-111310412D01*
X213408574Y-111288134D01*
X213348786Y-111157218D01*
X213254537Y-111048448D01*
X213133462Y-110970638D01*
X213133460Y-110970637D01*
X213133458Y-110970636D01*
X213133459Y-110970636D01*
X212995372Y-110930091D01*
X212995370Y-110930091D01*
X212969953Y-110930091D01*
X212902914Y-110910406D01*
X212882272Y-110893772D01*
X212853868Y-110865368D01*
X212820383Y-110804045D01*
X212817549Y-110777687D01*
X212817549Y-110330293D01*
X212837234Y-110263254D01*
X212847831Y-110249095D01*
X212892426Y-110197631D01*
X212952214Y-110066715D01*
X212957068Y-110032950D01*
X212986091Y-109969395D01*
X213044869Y-109931620D01*
X213114738Y-109931618D01*
X213167487Y-109962915D01*
X216061706Y-112857134D01*
X216121230Y-112891500D01*
X216121232Y-112891501D01*
X216141627Y-112903277D01*
X216141629Y-112903277D01*
X216141630Y-112903278D01*
X216230774Y-112927164D01*
X217463441Y-112927164D01*
X217530480Y-112946849D01*
X217544648Y-112957454D01*
X217546202Y-112958801D01*
X217546208Y-112958807D01*
X217667283Y-113036617D01*
X217667286Y-113036618D01*
X217667285Y-113036618D01*
X217805372Y-113077163D01*
X217805374Y-113077164D01*
X217805375Y-113077164D01*
X217949298Y-113077164D01*
X217949298Y-113077163D01*
X218056457Y-113045699D01*
X218087386Y-113036618D01*
X218087386Y-113036617D01*
X218087389Y-113036617D01*
X218208464Y-112958807D01*
X218302713Y-112850037D01*
X218302716Y-112850029D01*
X218307014Y-112843343D01*
X218359815Y-112797585D01*
X218428973Y-112787638D01*
X218492531Y-112816660D01*
X218499014Y-112822696D01*
X220189495Y-114513177D01*
X220222980Y-114574500D01*
X220224552Y-114583210D01*
X220240834Y-114696456D01*
X220268051Y-114756052D01*
X220300623Y-114827373D01*
X220394872Y-114936143D01*
X220515947Y-115013953D01*
X220515950Y-115013954D01*
X220515949Y-115013954D01*
X220654036Y-115054499D01*
X220654038Y-115054500D01*
X220654039Y-115054500D01*
X220797962Y-115054500D01*
X220797962Y-115054499D01*
X220936050Y-115013954D01*
X220936051Y-115013954D01*
X220937220Y-115013203D01*
X221051179Y-114939966D01*
X221118215Y-114920282D01*
X221185255Y-114939966D01*
X221211928Y-114963078D01*
X221291781Y-115055234D01*
X221412856Y-115133044D01*
X221412859Y-115133045D01*
X221412858Y-115133045D01*
X221520016Y-115164508D01*
X221537444Y-115169626D01*
X221550945Y-115173590D01*
X221550947Y-115173591D01*
X221550948Y-115173591D01*
X221694871Y-115173591D01*
X221694871Y-115173590D01*
X221832959Y-115133045D01*
X221832960Y-115133045D01*
X221858104Y-115116886D01*
X221925143Y-115097201D01*
X221992183Y-115116885D01*
X222037938Y-115169689D01*
X222047882Y-115238847D01*
X222037939Y-115272712D01*
X222018834Y-115314545D01*
X221998353Y-115457000D01*
X222018834Y-115599456D01*
X222072229Y-115716373D01*
X222078623Y-115730373D01*
X222172872Y-115839143D01*
X222293947Y-115916953D01*
X222293950Y-115916954D01*
X222293949Y-115916954D01*
X222428710Y-115956523D01*
X222487489Y-115994297D01*
X222516514Y-116057852D01*
X222506571Y-116127011D01*
X222460816Y-116179815D01*
X222393777Y-116199500D01*
X172924500Y-116199500D01*
X172857461Y-116179815D01*
X172811706Y-116127011D01*
X172800500Y-116075500D01*
X172800500Y-112878711D01*
X174149500Y-112878711D01*
X174149500Y-113121288D01*
X174181161Y-113361785D01*
X174243947Y-113596104D01*
X174317066Y-113772628D01*
X174336776Y-113820212D01*
X174458064Y-114030289D01*
X174458066Y-114030292D01*
X174458067Y-114030293D01*
X174605733Y-114222736D01*
X174605739Y-114222743D01*
X174777256Y-114394260D01*
X174777263Y-114394266D01*
X174784370Y-114399719D01*
X174969711Y-114541936D01*
X175179788Y-114663224D01*
X175403900Y-114756054D01*
X175638211Y-114818838D01*
X175818586Y-114842584D01*
X175878711Y-114850500D01*
X175878712Y-114850500D01*
X176121289Y-114850500D01*
X176169388Y-114844167D01*
X176361789Y-114818838D01*
X176596100Y-114756054D01*
X176820212Y-114663224D01*
X177030289Y-114541936D01*
X177222738Y-114394265D01*
X177394265Y-114222738D01*
X177541936Y-114030289D01*
X177663224Y-113820212D01*
X177756054Y-113596100D01*
X177818838Y-113361789D01*
X177850500Y-113121288D01*
X177850500Y-112878712D01*
X177818838Y-112638211D01*
X177756054Y-112403900D01*
X177663224Y-112179788D01*
X177541936Y-111969711D01*
X177475400Y-111883000D01*
X177394266Y-111777263D01*
X177394260Y-111777256D01*
X177222743Y-111605739D01*
X177222736Y-111605733D01*
X177030293Y-111458067D01*
X177030292Y-111458066D01*
X177030289Y-111458064D01*
X176820212Y-111336776D01*
X176756559Y-111310410D01*
X176596104Y-111243947D01*
X176478944Y-111212554D01*
X176361789Y-111181162D01*
X176361788Y-111181161D01*
X176361785Y-111181161D01*
X176121289Y-111149500D01*
X176121288Y-111149500D01*
X175878712Y-111149500D01*
X175878711Y-111149500D01*
X175638214Y-111181161D01*
X175403895Y-111243947D01*
X175179794Y-111336773D01*
X175179785Y-111336777D01*
X174969706Y-111458067D01*
X174777263Y-111605733D01*
X174777256Y-111605739D01*
X174605739Y-111777256D01*
X174605733Y-111777263D01*
X174458067Y-111969706D01*
X174336777Y-112179785D01*
X174336773Y-112179794D01*
X174243947Y-112403895D01*
X174181161Y-112638214D01*
X174149500Y-112878711D01*
X172800500Y-112878711D01*
X172800500Y-109531909D01*
X186503444Y-109531909D01*
X186523925Y-109674365D01*
X186572990Y-109781801D01*
X186583714Y-109805282D01*
X186677963Y-109914052D01*
X186799038Y-109991862D01*
X186799041Y-109991863D01*
X186799040Y-109991863D01*
X186937127Y-110032408D01*
X186937129Y-110032409D01*
X186937130Y-110032409D01*
X187081053Y-110032409D01*
X187081053Y-110032408D01*
X187219144Y-109991862D01*
X187340219Y-109914052D01*
X187340227Y-109914042D01*
X187341779Y-109912699D01*
X187343663Y-109911838D01*
X187347680Y-109909257D01*
X187348051Y-109909834D01*
X187405334Y-109883672D01*
X187422986Y-109882409D01*
X187436233Y-109882409D01*
X187436235Y-109882409D01*
X187525379Y-109858523D01*
X187545888Y-109846682D01*
X187605303Y-109812379D01*
X187936272Y-109481410D01*
X187997595Y-109447925D01*
X188023953Y-109445091D01*
X188049371Y-109445091D01*
X188049371Y-109445090D01*
X188187462Y-109404544D01*
X188308537Y-109326734D01*
X188402786Y-109217964D01*
X188462574Y-109087048D01*
X188483056Y-108944591D01*
X188462574Y-108802134D01*
X188402786Y-108671218D01*
X188308537Y-108562448D01*
X188187462Y-108484638D01*
X188187460Y-108484637D01*
X188187458Y-108484636D01*
X188187459Y-108484636D01*
X188049372Y-108444091D01*
X188049370Y-108444091D01*
X187905448Y-108444091D01*
X187905445Y-108444091D01*
X187767358Y-108484636D01*
X187646282Y-108562447D01*
X187646281Y-108562447D01*
X187646281Y-108562448D01*
X187643526Y-108565628D01*
X187552032Y-108671217D01*
X187552031Y-108671219D01*
X187492243Y-108802134D01*
X187475961Y-108915379D01*
X187446935Y-108978934D01*
X187440904Y-108985412D01*
X187372117Y-109054199D01*
X187310794Y-109087684D01*
X187241102Y-109082700D01*
X187224785Y-109074532D01*
X187219140Y-109071954D01*
X187081054Y-109031409D01*
X187081052Y-109031409D01*
X186937130Y-109031409D01*
X186937127Y-109031409D01*
X186799040Y-109071954D01*
X186677964Y-109149765D01*
X186583714Y-109258535D01*
X186583713Y-109258537D01*
X186523925Y-109389452D01*
X186503444Y-109531909D01*
X172800500Y-109531909D01*
X172800500Y-107499999D01*
X181492785Y-107499999D01*
X181492785Y-107500000D01*
X181511602Y-107703082D01*
X181567417Y-107899247D01*
X181567422Y-107899260D01*
X181658327Y-108081821D01*
X181781237Y-108244581D01*
X181931958Y-108381980D01*
X181931960Y-108381982D01*
X182031141Y-108443392D01*
X182105363Y-108489348D01*
X182295544Y-108563024D01*
X182496024Y-108600500D01*
X182496026Y-108600500D01*
X182699974Y-108600500D01*
X182699976Y-108600500D01*
X182900456Y-108563024D01*
X183090637Y-108489348D01*
X183264041Y-108381981D01*
X183414764Y-108244579D01*
X183537673Y-108081821D01*
X183628582Y-107899250D01*
X183684397Y-107703083D01*
X183685424Y-107692000D01*
X201297353Y-107692000D01*
X201317834Y-107834456D01*
X201377443Y-107964979D01*
X201377623Y-107965373D01*
X201422213Y-108016833D01*
X201451238Y-108080388D01*
X201452500Y-108098035D01*
X201452500Y-110831783D01*
X201444995Y-110866345D01*
X201447334Y-110867032D01*
X201444834Y-110875543D01*
X201424353Y-111018000D01*
X201444834Y-111160456D01*
X201482964Y-111243947D01*
X201504623Y-111291373D01*
X201598872Y-111400143D01*
X201719947Y-111477953D01*
X201719950Y-111477954D01*
X201719949Y-111477954D01*
X201858036Y-111518499D01*
X201858038Y-111518500D01*
X201858039Y-111518500D01*
X202001962Y-111518500D01*
X202001962Y-111518499D01*
X202140053Y-111477953D01*
X202261128Y-111400143D01*
X202355377Y-111291373D01*
X202415165Y-111160457D01*
X202435647Y-111018000D01*
X202415165Y-110875543D01*
X202355377Y-110744627D01*
X202355375Y-110744625D01*
X202355374Y-110744622D01*
X202261133Y-110635862D01*
X202261130Y-110635859D01*
X202261128Y-110635857D01*
X202237686Y-110620791D01*
X202210460Y-110603294D01*
X202164705Y-110550489D01*
X202153500Y-110498979D01*
X202153500Y-108098035D01*
X202173185Y-108030996D01*
X202183782Y-108016837D01*
X202228377Y-107965373D01*
X202288165Y-107834457D01*
X202308647Y-107692000D01*
X202288165Y-107549543D01*
X202228377Y-107418627D01*
X202134128Y-107309857D01*
X202013053Y-107232047D01*
X202013051Y-107232046D01*
X202013049Y-107232045D01*
X202013050Y-107232045D01*
X201874963Y-107191500D01*
X201874961Y-107191500D01*
X201731039Y-107191500D01*
X201731036Y-107191500D01*
X201592949Y-107232045D01*
X201471873Y-107309856D01*
X201377623Y-107418626D01*
X201377622Y-107418628D01*
X201317834Y-107549543D01*
X201297353Y-107692000D01*
X183685424Y-107692000D01*
X183703215Y-107500000D01*
X183694496Y-107405910D01*
X183684397Y-107296917D01*
X183675871Y-107266953D01*
X183628582Y-107100750D01*
X183626662Y-107096895D01*
X183553247Y-106949456D01*
X183537673Y-106918179D01*
X183419499Y-106761691D01*
X183414762Y-106755418D01*
X183395415Y-106737781D01*
X209367572Y-106737781D01*
X209388053Y-106880237D01*
X209434977Y-106982984D01*
X209447842Y-107011154D01*
X209542091Y-107119924D01*
X209663166Y-107197734D01*
X209663169Y-107197735D01*
X209663168Y-107197735D01*
X209770326Y-107229198D01*
X209789869Y-107234937D01*
X209801255Y-107238280D01*
X209801257Y-107238281D01*
X209801258Y-107238281D01*
X209945181Y-107238281D01*
X209945181Y-107238280D01*
X210083272Y-107197734D01*
X210204347Y-107119924D01*
X210298596Y-107011154D01*
X210358384Y-106880238D01*
X210374666Y-106766989D01*
X210403689Y-106703437D01*
X210409708Y-106696972D01*
X212501565Y-104605117D01*
X212545140Y-104529641D01*
X212558803Y-104510454D01*
X212646472Y-104409278D01*
X212706260Y-104278362D01*
X212726742Y-104135905D01*
X212706260Y-103993448D01*
X212646472Y-103862532D01*
X212552223Y-103753762D01*
X212431148Y-103675952D01*
X212431146Y-103675951D01*
X212431144Y-103675950D01*
X212431145Y-103675950D01*
X212293058Y-103635405D01*
X212293056Y-103635405D01*
X212149134Y-103635405D01*
X212149131Y-103635405D01*
X212011044Y-103675950D01*
X211889968Y-103753761D01*
X211795718Y-103862531D01*
X211795717Y-103862533D01*
X211735929Y-103993448D01*
X211715448Y-104135905D01*
X211735930Y-104278366D01*
X211738133Y-104285868D01*
X211738131Y-104355738D01*
X211706836Y-104408480D01*
X209914356Y-106200962D01*
X209853033Y-106234447D01*
X209826675Y-106237281D01*
X209801255Y-106237281D01*
X209663168Y-106277826D01*
X209542092Y-106355637D01*
X209447842Y-106464407D01*
X209447841Y-106464409D01*
X209388053Y-106595324D01*
X209367572Y-106737781D01*
X183395415Y-106737781D01*
X183264041Y-106618019D01*
X183264039Y-106618017D01*
X183090642Y-106510655D01*
X183090635Y-106510651D01*
X182971269Y-106464409D01*
X182900456Y-106436976D01*
X182699976Y-106399500D01*
X182496024Y-106399500D01*
X182295544Y-106436976D01*
X182295541Y-106436976D01*
X182295541Y-106436977D01*
X182105364Y-106510651D01*
X182105357Y-106510655D01*
X181931960Y-106618017D01*
X181931958Y-106618019D01*
X181781237Y-106755418D01*
X181658327Y-106918178D01*
X181567422Y-107100739D01*
X181567417Y-107100752D01*
X181511602Y-107296917D01*
X181492785Y-107499999D01*
X172800500Y-107499999D01*
X172800500Y-104959999D01*
X181492785Y-104959999D01*
X181492785Y-104960000D01*
X181511602Y-105163082D01*
X181567417Y-105359247D01*
X181567422Y-105359260D01*
X181658327Y-105541821D01*
X181781237Y-105704581D01*
X181931958Y-105841980D01*
X181931960Y-105841982D01*
X181998953Y-105883462D01*
X182105363Y-105949348D01*
X182295544Y-106023024D01*
X182496024Y-106060500D01*
X182496026Y-106060500D01*
X182699974Y-106060500D01*
X182699976Y-106060500D01*
X182900456Y-106023024D01*
X183090637Y-105949348D01*
X183264041Y-105841981D01*
X183414764Y-105704579D01*
X183537673Y-105541821D01*
X183540074Y-105537000D01*
X206658006Y-105537000D01*
X206678487Y-105679456D01*
X206721266Y-105773127D01*
X206738276Y-105810373D01*
X206832525Y-105919143D01*
X206953600Y-105996953D01*
X206953603Y-105996954D01*
X206953602Y-105996954D01*
X207060760Y-106028417D01*
X207078297Y-106033567D01*
X207091689Y-106037499D01*
X207091691Y-106037500D01*
X207091692Y-106037500D01*
X207235615Y-106037500D01*
X207235615Y-106037499D01*
X207373706Y-105996953D01*
X207494781Y-105919143D01*
X207589030Y-105810373D01*
X207648818Y-105679457D01*
X207665100Y-105566208D01*
X207694123Y-105502656D01*
X207700142Y-105496191D01*
X209254515Y-103941819D01*
X209315838Y-103908334D01*
X209342196Y-103905500D01*
X209758105Y-103905500D01*
X209825144Y-103925185D01*
X209839312Y-103935790D01*
X209840866Y-103937137D01*
X209840872Y-103937143D01*
X209961947Y-104014953D01*
X209961950Y-104014954D01*
X209961949Y-104014954D01*
X210100036Y-104055499D01*
X210100038Y-104055500D01*
X210100039Y-104055500D01*
X210243962Y-104055500D01*
X210243962Y-104055499D01*
X210382053Y-104014953D01*
X210503128Y-103937143D01*
X210597377Y-103828373D01*
X210657165Y-103697457D01*
X210677647Y-103555000D01*
X210657165Y-103412543D01*
X210597377Y-103281627D01*
X210503128Y-103172857D01*
X210382053Y-103095047D01*
X210382051Y-103095046D01*
X210382049Y-103095045D01*
X210382050Y-103095045D01*
X210243963Y-103054500D01*
X210243961Y-103054500D01*
X210100039Y-103054500D01*
X210100036Y-103054500D01*
X209961949Y-103095045D01*
X209840876Y-103172854D01*
X209840874Y-103172855D01*
X209840872Y-103172857D01*
X209840870Y-103172858D01*
X209839312Y-103174210D01*
X209837427Y-103175070D01*
X209833411Y-103177652D01*
X209833039Y-103177074D01*
X209775757Y-103203237D01*
X209758105Y-103204500D01*
X209099509Y-103204500D01*
X209015726Y-103226948D01*
X209015727Y-103226949D01*
X209010368Y-103228385D01*
X209010365Y-103228386D01*
X208930444Y-103274528D01*
X208930438Y-103274533D01*
X207204790Y-105000181D01*
X207143467Y-105033666D01*
X207117109Y-105036500D01*
X207091689Y-105036500D01*
X206953602Y-105077045D01*
X206832526Y-105154856D01*
X206738276Y-105263626D01*
X206738275Y-105263628D01*
X206678487Y-105394543D01*
X206658006Y-105537000D01*
X183540074Y-105537000D01*
X183628582Y-105359250D01*
X183684397Y-105163083D01*
X183703215Y-104960000D01*
X183684397Y-104756917D01*
X183628582Y-104560750D01*
X183624338Y-104552227D01*
X183540152Y-104383158D01*
X183537673Y-104378179D01*
X183414764Y-104215421D01*
X183414762Y-104215418D01*
X183264041Y-104078019D01*
X183264039Y-104078017D01*
X183090642Y-103970655D01*
X183090635Y-103970651D01*
X182973272Y-103925185D01*
X182900456Y-103896976D01*
X182699976Y-103859500D01*
X182496024Y-103859500D01*
X182295544Y-103896976D01*
X182295541Y-103896976D01*
X182295541Y-103896977D01*
X182105364Y-103970651D01*
X182105357Y-103970655D01*
X181931960Y-104078017D01*
X181931958Y-104078019D01*
X181781237Y-104215418D01*
X181658327Y-104378178D01*
X181567422Y-104560739D01*
X181567417Y-104560752D01*
X181511602Y-104756917D01*
X181492785Y-104959999D01*
X172800500Y-104959999D01*
X172800500Y-102419999D01*
X181492785Y-102419999D01*
X181492785Y-102420000D01*
X181511602Y-102623082D01*
X181567417Y-102819247D01*
X181567422Y-102819260D01*
X181658327Y-103001821D01*
X181781237Y-103164581D01*
X181931958Y-103301980D01*
X181931960Y-103301982D01*
X182029770Y-103362543D01*
X182105363Y-103409348D01*
X182295544Y-103483024D01*
X182496024Y-103520500D01*
X182496026Y-103520500D01*
X182699974Y-103520500D01*
X182699976Y-103520500D01*
X182900456Y-103483024D01*
X183090637Y-103409348D01*
X183264041Y-103301981D01*
X183404199Y-103174210D01*
X183414762Y-103164581D01*
X183414764Y-103164579D01*
X183537673Y-103001821D01*
X183628582Y-102819250D01*
X183684397Y-102623083D01*
X183703215Y-102420000D01*
X183697924Y-102362905D01*
X183684397Y-102216917D01*
X183683709Y-102214500D01*
X183628582Y-102020750D01*
X183612068Y-101987586D01*
X183573007Y-101909139D01*
X183537673Y-101838179D01*
X183457238Y-101731666D01*
X183414762Y-101675418D01*
X183264041Y-101538019D01*
X183264039Y-101538017D01*
X183090642Y-101430655D01*
X183090635Y-101430651D01*
X182948272Y-101375500D01*
X182900456Y-101356976D01*
X182699976Y-101319500D01*
X182496024Y-101319500D01*
X182295544Y-101356976D01*
X182295541Y-101356976D01*
X182295541Y-101356977D01*
X182105364Y-101430651D01*
X182105357Y-101430655D01*
X181931960Y-101538017D01*
X181931958Y-101538019D01*
X181781237Y-101675418D01*
X181658327Y-101838178D01*
X181567422Y-102020739D01*
X181567417Y-102020752D01*
X181511602Y-102216917D01*
X181492785Y-102419999D01*
X172800500Y-102419999D01*
X172800500Y-99879999D01*
X181492785Y-99879999D01*
X181492785Y-99880000D01*
X181511602Y-100083082D01*
X181567417Y-100279247D01*
X181567422Y-100279260D01*
X181658327Y-100461821D01*
X181781237Y-100624581D01*
X181931958Y-100761980D01*
X181931960Y-100761982D01*
X182031141Y-100823392D01*
X182105363Y-100869348D01*
X182295544Y-100943024D01*
X182496024Y-100980500D01*
X182496026Y-100980500D01*
X182699974Y-100980500D01*
X182699976Y-100980500D01*
X182900456Y-100943024D01*
X183090637Y-100869348D01*
X183141266Y-100838000D01*
X184533353Y-100838000D01*
X184553834Y-100980456D01*
X184608335Y-101099795D01*
X184613623Y-101111373D01*
X184707872Y-101220143D01*
X184828947Y-101297953D01*
X184828950Y-101297954D01*
X184828949Y-101297954D01*
X184953802Y-101334614D01*
X185012581Y-101372388D01*
X185041606Y-101435944D01*
X185041607Y-101471232D01*
X185041353Y-101473000D01*
X185046025Y-101505495D01*
X185061834Y-101615456D01*
X185121036Y-101745087D01*
X185121623Y-101746373D01*
X185142345Y-101770288D01*
X185147662Y-101776424D01*
X185176686Y-101839980D01*
X185166742Y-101909139D01*
X185147662Y-101938828D01*
X185066032Y-102033036D01*
X185066031Y-102033037D01*
X185006243Y-102163952D01*
X184985762Y-102306409D01*
X185006243Y-102448865D01*
X185053078Y-102551417D01*
X185066032Y-102579782D01*
X185160281Y-102688552D01*
X185281356Y-102766362D01*
X185281359Y-102766363D01*
X185281358Y-102766363D01*
X185419445Y-102806908D01*
X185419447Y-102806909D01*
X185419448Y-102806909D01*
X185563371Y-102806909D01*
X185563371Y-102806908D01*
X185701462Y-102766362D01*
X185822537Y-102688552D01*
X185916786Y-102579782D01*
X185976574Y-102448866D01*
X185976574Y-102448864D01*
X185977888Y-102445988D01*
X186023643Y-102393184D01*
X186090682Y-102373500D01*
X188054105Y-102373500D01*
X188121144Y-102393185D01*
X188135312Y-102403790D01*
X188136866Y-102405137D01*
X188136872Y-102405143D01*
X188257947Y-102482953D01*
X188257950Y-102482954D01*
X188257949Y-102482954D01*
X188396036Y-102523499D01*
X188396038Y-102523500D01*
X188396039Y-102523500D01*
X188539962Y-102523500D01*
X188539962Y-102523499D01*
X188678053Y-102482953D01*
X188799128Y-102405143D01*
X188893377Y-102296373D01*
X188921405Y-102235000D01*
X191259353Y-102235000D01*
X191279834Y-102377456D01*
X191318562Y-102462257D01*
X191339623Y-102508373D01*
X191433872Y-102617143D01*
X191554947Y-102694953D01*
X191554950Y-102694954D01*
X191554949Y-102694954D01*
X191655099Y-102724360D01*
X191674096Y-102729938D01*
X191693036Y-102735499D01*
X191693038Y-102735500D01*
X191693039Y-102735500D01*
X191836962Y-102735500D01*
X191836962Y-102735499D01*
X191975053Y-102694953D01*
X192096128Y-102617143D01*
X192190377Y-102508373D01*
X192250165Y-102377457D01*
X192266447Y-102264208D01*
X192295470Y-102200656D01*
X192301488Y-102194192D01*
X192645470Y-101850212D01*
X192668649Y-101810065D01*
X192677251Y-101795166D01*
X192727818Y-101746951D01*
X192796425Y-101733727D01*
X192861289Y-101759695D01*
X192901818Y-101816609D01*
X192908638Y-101857166D01*
X192908638Y-102119283D01*
X192917253Y-102151434D01*
X192920216Y-102201170D01*
X192915353Y-102234998D01*
X192915353Y-102234999D01*
X192935834Y-102377456D01*
X192974562Y-102462257D01*
X192995623Y-102508373D01*
X193089872Y-102617143D01*
X193210947Y-102694953D01*
X193210950Y-102694954D01*
X193210949Y-102694954D01*
X193311099Y-102724360D01*
X193330096Y-102729938D01*
X193349036Y-102735499D01*
X193349038Y-102735500D01*
X193349039Y-102735500D01*
X193492962Y-102735500D01*
X193492962Y-102735499D01*
X193631053Y-102694953D01*
X193752128Y-102617143D01*
X193846377Y-102508373D01*
X193879706Y-102435392D01*
X193925461Y-102382590D01*
X193992500Y-102362905D01*
X194059540Y-102382590D01*
X194105293Y-102435392D01*
X194138623Y-102508373D01*
X194232872Y-102617143D01*
X194353947Y-102694953D01*
X194353950Y-102694954D01*
X194353949Y-102694954D01*
X194454099Y-102724360D01*
X194473096Y-102729938D01*
X194492036Y-102735499D01*
X194492038Y-102735500D01*
X194492039Y-102735500D01*
X194635962Y-102735500D01*
X194635962Y-102735499D01*
X194774053Y-102694953D01*
X194895128Y-102617143D01*
X194989377Y-102508373D01*
X195049165Y-102377457D01*
X195069647Y-102235000D01*
X195049165Y-102092543D01*
X195041353Y-102075438D01*
X196376915Y-102075438D01*
X196397396Y-102217894D01*
X196449899Y-102332857D01*
X196457185Y-102348811D01*
X196551434Y-102457581D01*
X196672509Y-102535391D01*
X196672512Y-102535392D01*
X196672511Y-102535392D01*
X196810598Y-102575937D01*
X196810600Y-102575938D01*
X196810601Y-102575938D01*
X196954524Y-102575938D01*
X196954524Y-102575937D01*
X197092615Y-102535391D01*
X197213690Y-102457581D01*
X197213698Y-102457571D01*
X197215250Y-102456228D01*
X197217134Y-102455367D01*
X197221151Y-102452786D01*
X197221522Y-102453363D01*
X197278805Y-102427201D01*
X197296457Y-102425938D01*
X197537894Y-102425938D01*
X197604933Y-102445623D01*
X197625575Y-102462257D01*
X197837495Y-102674177D01*
X197870980Y-102735500D01*
X197872552Y-102744210D01*
X197888834Y-102857456D01*
X197933380Y-102954996D01*
X197948623Y-102988373D01*
X198042872Y-103097143D01*
X198163947Y-103174953D01*
X198163950Y-103174954D01*
X198163949Y-103174954D01*
X198302036Y-103215499D01*
X198302038Y-103215500D01*
X198302039Y-103215500D01*
X198445962Y-103215500D01*
X198445962Y-103215499D01*
X198574861Y-103177652D01*
X198584050Y-103174954D01*
X198584050Y-103174953D01*
X198584053Y-103174953D01*
X198705128Y-103097143D01*
X198799377Y-102988373D01*
X198859165Y-102857457D01*
X198879647Y-102715000D01*
X198865413Y-102616000D01*
X202381953Y-102616000D01*
X202402434Y-102758456D01*
X202447647Y-102857456D01*
X202462223Y-102889373D01*
X202506813Y-102940833D01*
X202535838Y-103004388D01*
X202537100Y-103022035D01*
X202537100Y-104383158D01*
X202544099Y-104409276D01*
X202560986Y-104472301D01*
X202560987Y-104472304D01*
X202607127Y-104552222D01*
X202607131Y-104552227D01*
X203043788Y-104988884D01*
X203077273Y-105050207D01*
X203078845Y-105058917D01*
X203095127Y-105172163D01*
X203153619Y-105300241D01*
X203154916Y-105303080D01*
X203249165Y-105411850D01*
X203370240Y-105489660D01*
X203370243Y-105489661D01*
X203370242Y-105489661D01*
X203508329Y-105530206D01*
X203508331Y-105530207D01*
X203508332Y-105530207D01*
X203652255Y-105530207D01*
X203652255Y-105530206D01*
X203790346Y-105489660D01*
X203911421Y-105411850D01*
X204005670Y-105303080D01*
X204065458Y-105172164D01*
X204085940Y-105029707D01*
X204065458Y-104887250D01*
X204005670Y-104756334D01*
X203911421Y-104647564D01*
X203790346Y-104569754D01*
X203790344Y-104569753D01*
X203790342Y-104569752D01*
X203790343Y-104569752D01*
X203652256Y-104529207D01*
X203652254Y-104529207D01*
X203626837Y-104529207D01*
X203559798Y-104509522D01*
X203539156Y-104492888D01*
X203274419Y-104228151D01*
X203240934Y-104166828D01*
X203238100Y-104140470D01*
X203238100Y-103022035D01*
X203257785Y-102954996D01*
X203268382Y-102940837D01*
X203312977Y-102889373D01*
X203372765Y-102758457D01*
X203393247Y-102616000D01*
X203372765Y-102473543D01*
X203312977Y-102342627D01*
X203218728Y-102233857D01*
X203097653Y-102156047D01*
X203097651Y-102156046D01*
X203097649Y-102156045D01*
X203097650Y-102156045D01*
X202959563Y-102115500D01*
X202959561Y-102115500D01*
X202815639Y-102115500D01*
X202815636Y-102115500D01*
X202677549Y-102156045D01*
X202556473Y-102233856D01*
X202556472Y-102233856D01*
X202556472Y-102233857D01*
X202555482Y-102235000D01*
X202462223Y-102342626D01*
X202462222Y-102342628D01*
X202402434Y-102473543D01*
X202381953Y-102616000D01*
X198865413Y-102616000D01*
X198859165Y-102572543D01*
X198799377Y-102441627D01*
X198705128Y-102332857D01*
X198584053Y-102255047D01*
X198584051Y-102255046D01*
X198584049Y-102255045D01*
X198584050Y-102255045D01*
X198445963Y-102214500D01*
X198445961Y-102214500D01*
X198420543Y-102214500D01*
X198353504Y-102194815D01*
X198332862Y-102178181D01*
X198147253Y-101992572D01*
X197949650Y-101794968D01*
X197949649Y-101794967D01*
X197949646Y-101794965D01*
X197869726Y-101748824D01*
X197861144Y-101746524D01*
X197861143Y-101746524D01*
X197813383Y-101733727D01*
X197780582Y-101724938D01*
X197780581Y-101724938D01*
X197296457Y-101724938D01*
X197229418Y-101705253D01*
X197215250Y-101694648D01*
X197213694Y-101693300D01*
X197213690Y-101693295D01*
X197092615Y-101615485D01*
X197092613Y-101615484D01*
X197092611Y-101615483D01*
X197092612Y-101615483D01*
X196954525Y-101574938D01*
X196954523Y-101574938D01*
X196810601Y-101574938D01*
X196810598Y-101574938D01*
X196672511Y-101615483D01*
X196551435Y-101693294D01*
X196551434Y-101693294D01*
X196551434Y-101693295D01*
X196550262Y-101694648D01*
X196457185Y-101802064D01*
X196457184Y-101802066D01*
X196397396Y-101932981D01*
X196376915Y-102075438D01*
X195041353Y-102075438D01*
X194989377Y-101961627D01*
X194895128Y-101852857D01*
X194774053Y-101775047D01*
X194774050Y-101775045D01*
X194674565Y-101745834D01*
X194615787Y-101708060D01*
X194586762Y-101644504D01*
X194585500Y-101626857D01*
X194585500Y-100228035D01*
X194605185Y-100160996D01*
X194615782Y-100146837D01*
X194660377Y-100095373D01*
X194720165Y-99964457D01*
X194740647Y-99822000D01*
X194720165Y-99679543D01*
X194660377Y-99548627D01*
X194566128Y-99439857D01*
X194445053Y-99362047D01*
X194445051Y-99362046D01*
X194445049Y-99362045D01*
X194445050Y-99362045D01*
X194306963Y-99321500D01*
X194306961Y-99321500D01*
X194163039Y-99321500D01*
X194163036Y-99321500D01*
X194024949Y-99362045D01*
X193903873Y-99439856D01*
X193903872Y-99439856D01*
X193903872Y-99439857D01*
X193813074Y-99544645D01*
X193803815Y-99555330D01*
X193801197Y-99553062D01*
X193760945Y-99587917D01*
X193691784Y-99597837D01*
X193628238Y-99568790D01*
X193615767Y-99556315D01*
X193590266Y-99526885D01*
X193590265Y-99526884D01*
X193590264Y-99526883D01*
X193499129Y-99468315D01*
X193469191Y-99449075D01*
X193469189Y-99449074D01*
X193469187Y-99449073D01*
X193469188Y-99449073D01*
X193331101Y-99408528D01*
X193331099Y-99408528D01*
X193187177Y-99408528D01*
X193187174Y-99408528D01*
X193049087Y-99449073D01*
X192920549Y-99531680D01*
X192918977Y-99529234D01*
X192868772Y-99552150D01*
X192799615Y-99542193D01*
X192757436Y-99510611D01*
X192749651Y-99501627D01*
X192696128Y-99439857D01*
X192575053Y-99362047D01*
X192575051Y-99362046D01*
X192575049Y-99362045D01*
X192575050Y-99362045D01*
X192436963Y-99321500D01*
X192436961Y-99321500D01*
X192293039Y-99321500D01*
X192293036Y-99321500D01*
X192154949Y-99362045D01*
X192033873Y-99439856D01*
X191939623Y-99548626D01*
X191939622Y-99548628D01*
X191879834Y-99679543D01*
X191859353Y-99822000D01*
X191879834Y-99964456D01*
X191919580Y-100051485D01*
X191939623Y-100095373D01*
X191984213Y-100146833D01*
X192013238Y-100210388D01*
X192014500Y-100228035D01*
X192014500Y-101438456D01*
X191994815Y-101505495D01*
X191978181Y-101526137D01*
X191806137Y-101698181D01*
X191744814Y-101731666D01*
X191718456Y-101734500D01*
X191693036Y-101734500D01*
X191554949Y-101775045D01*
X191433873Y-101852856D01*
X191339623Y-101961626D01*
X191339622Y-101961628D01*
X191279834Y-102092543D01*
X191259353Y-102235000D01*
X188921405Y-102235000D01*
X188953165Y-102165457D01*
X188973647Y-102023000D01*
X188953165Y-101880543D01*
X188893377Y-101749627D01*
X188799128Y-101640857D01*
X188678053Y-101563047D01*
X188678050Y-101563045D01*
X188566430Y-101530271D01*
X188507652Y-101492497D01*
X188478627Y-101428941D01*
X188488571Y-101359782D01*
X188534326Y-101306979D01*
X188549865Y-101298495D01*
X188551046Y-101297954D01*
X188551053Y-101297953D01*
X188672128Y-101220143D01*
X188766377Y-101111373D01*
X188826165Y-100980457D01*
X188846647Y-100838000D01*
X188826165Y-100695543D01*
X188766377Y-100564627D01*
X188672128Y-100455857D01*
X188551053Y-100378047D01*
X188551050Y-100378045D01*
X188426196Y-100341385D01*
X188367418Y-100303611D01*
X188338393Y-100240055D01*
X188338393Y-100204759D01*
X188338647Y-100203000D01*
X188318165Y-100060543D01*
X188258377Y-99929627D01*
X188164128Y-99820857D01*
X188043053Y-99743047D01*
X188043051Y-99743046D01*
X188043049Y-99743045D01*
X188043050Y-99743045D01*
X187904963Y-99702500D01*
X187904961Y-99702500D01*
X187761039Y-99702500D01*
X187761036Y-99702500D01*
X187622949Y-99743045D01*
X187501876Y-99820854D01*
X187501874Y-99820855D01*
X187501872Y-99820857D01*
X187501870Y-99820858D01*
X187500312Y-99822210D01*
X187498427Y-99823070D01*
X187494411Y-99825652D01*
X187494039Y-99825074D01*
X187436757Y-99851237D01*
X187419105Y-99852500D01*
X185960895Y-99852500D01*
X185893856Y-99832815D01*
X185879688Y-99822210D01*
X185878132Y-99820862D01*
X185878128Y-99820857D01*
X185757053Y-99743047D01*
X185757051Y-99743046D01*
X185757049Y-99743045D01*
X185757050Y-99743045D01*
X185618963Y-99702500D01*
X185618961Y-99702500D01*
X185475039Y-99702500D01*
X185475036Y-99702500D01*
X185336949Y-99743045D01*
X185215873Y-99820856D01*
X185215872Y-99820856D01*
X185215872Y-99820857D01*
X185212218Y-99825074D01*
X185121623Y-99929626D01*
X185121622Y-99929628D01*
X185061834Y-100060543D01*
X185041353Y-100203000D01*
X185041607Y-100204766D01*
X185041353Y-100206531D01*
X185041353Y-100211868D01*
X185040586Y-100211868D01*
X185031660Y-100273924D01*
X184985903Y-100326726D01*
X184953803Y-100341385D01*
X184828949Y-100378045D01*
X184707873Y-100455856D01*
X184613623Y-100564626D01*
X184613622Y-100564628D01*
X184553834Y-100695543D01*
X184533353Y-100838000D01*
X183141266Y-100838000D01*
X183264041Y-100761981D01*
X183392356Y-100645007D01*
X183414762Y-100624581D01*
X183425851Y-100609897D01*
X183537673Y-100461821D01*
X183628582Y-100279250D01*
X183684397Y-100083083D01*
X183703215Y-99880000D01*
X183698125Y-99825074D01*
X183684397Y-99676917D01*
X183628582Y-99480750D01*
X183622390Y-99468315D01*
X183568433Y-99359954D01*
X183537673Y-99298179D01*
X183468580Y-99206685D01*
X183414762Y-99135418D01*
X183264041Y-98998019D01*
X183264039Y-98998017D01*
X183105735Y-98900000D01*
X200359353Y-98900000D01*
X200379834Y-99042456D01*
X200438672Y-99171291D01*
X200439623Y-99173373D01*
X200533872Y-99282143D01*
X200654947Y-99359953D01*
X200654950Y-99359954D01*
X200654949Y-99359954D01*
X200793036Y-99400499D01*
X200793038Y-99400500D01*
X200793039Y-99400500D01*
X200936961Y-99400500D01*
X201004997Y-99380523D01*
X201039932Y-99375500D01*
X201882068Y-99375500D01*
X201917003Y-99380523D01*
X201985038Y-99400500D01*
X201985039Y-99400500D01*
X202128962Y-99400500D01*
X202128962Y-99400499D01*
X202236121Y-99369035D01*
X202267050Y-99359954D01*
X202267050Y-99359953D01*
X202267053Y-99359953D01*
X202388128Y-99282143D01*
X202388136Y-99282133D01*
X202390265Y-99280290D01*
X202392843Y-99279112D01*
X202395589Y-99277348D01*
X202395842Y-99277742D01*
X202453820Y-99251263D01*
X202471472Y-99250000D01*
X203835000Y-99250000D01*
X203835000Y-97660000D01*
X203854685Y-97592961D01*
X203907489Y-97547206D01*
X203959000Y-97536000D01*
X207394000Y-97536000D01*
X207461039Y-97555685D01*
X207506794Y-97608489D01*
X207518000Y-97660000D01*
X207518000Y-99187000D01*
X209252726Y-99187000D01*
X209319765Y-99206685D01*
X209365520Y-99259489D01*
X209375464Y-99328647D01*
X209346439Y-99392202D01*
X209251625Y-99501622D01*
X209251622Y-99501628D01*
X209191834Y-99632543D01*
X209171353Y-99775000D01*
X209191834Y-99917456D01*
X209227991Y-99996627D01*
X209251623Y-100048373D01*
X209296213Y-100099833D01*
X209325238Y-100163388D01*
X209326500Y-100181035D01*
X209326500Y-100459837D01*
X209306815Y-100526876D01*
X209296216Y-100541035D01*
X209280395Y-100559295D01*
X209243714Y-100601626D01*
X209243713Y-100601628D01*
X209183925Y-100732543D01*
X209163444Y-100875000D01*
X209183925Y-101017456D01*
X209226816Y-101111373D01*
X209243714Y-101148373D01*
X209337963Y-101257143D01*
X209459038Y-101334953D01*
X209459041Y-101334954D01*
X209459040Y-101334954D01*
X209554657Y-101363029D01*
X209586531Y-101372388D01*
X209597127Y-101375499D01*
X209597129Y-101375500D01*
X209597130Y-101375500D01*
X209741053Y-101375500D01*
X209741053Y-101375499D01*
X209879144Y-101334953D01*
X210000219Y-101257143D01*
X210094468Y-101148373D01*
X210154256Y-101017457D01*
X210174738Y-100875000D01*
X210154256Y-100732543D01*
X210094468Y-100601627D01*
X210057786Y-100559293D01*
X210028762Y-100495739D01*
X210027500Y-100478092D01*
X210027500Y-100250111D01*
X211457353Y-100250111D01*
X211477834Y-100392567D01*
X211532077Y-100511340D01*
X211537623Y-100523484D01*
X211582213Y-100574944D01*
X211611238Y-100638499D01*
X211612500Y-100656146D01*
X211612500Y-100944074D01*
X211592815Y-101011113D01*
X211582214Y-101025275D01*
X211537625Y-101076734D01*
X211537622Y-101076739D01*
X211477834Y-101207654D01*
X211457353Y-101350111D01*
X211477834Y-101492567D01*
X211533957Y-101615456D01*
X211537623Y-101623484D01*
X211631872Y-101732254D01*
X211752947Y-101810064D01*
X211752950Y-101810065D01*
X211752949Y-101810065D01*
X211848699Y-101838179D01*
X211889680Y-101850212D01*
X211891036Y-101850610D01*
X211891038Y-101850611D01*
X211891039Y-101850611D01*
X212034962Y-101850611D01*
X212034962Y-101850610D01*
X212173053Y-101810064D01*
X212294128Y-101732254D01*
X212388377Y-101623484D01*
X212448165Y-101492568D01*
X212468647Y-101350111D01*
X212448165Y-101207654D01*
X212388377Y-101076738D01*
X212388374Y-101076734D01*
X212343786Y-101025275D01*
X212314762Y-100961719D01*
X212313500Y-100944074D01*
X212313500Y-100656146D01*
X212333185Y-100589107D01*
X212343782Y-100574948D01*
X212388377Y-100523484D01*
X212448165Y-100392568D01*
X212468647Y-100250111D01*
X212448165Y-100107654D01*
X212388377Y-99976738D01*
X212294128Y-99867968D01*
X212173053Y-99790158D01*
X212173051Y-99790157D01*
X212173049Y-99790156D01*
X212173050Y-99790156D01*
X212034963Y-99749611D01*
X212034961Y-99749611D01*
X211891039Y-99749611D01*
X211891036Y-99749611D01*
X211752949Y-99790156D01*
X211631873Y-99867967D01*
X211537623Y-99976737D01*
X211537622Y-99976739D01*
X211477834Y-100107654D01*
X211457353Y-100250111D01*
X210027500Y-100250111D01*
X210027500Y-100181035D01*
X210047185Y-100113996D01*
X210057782Y-100099837D01*
X210102377Y-100048373D01*
X210162165Y-99917457D01*
X210182647Y-99775000D01*
X210162165Y-99632543D01*
X210102377Y-99501627D01*
X210008128Y-99392857D01*
X210007305Y-99392328D01*
X210006665Y-99391590D01*
X210001423Y-99387047D01*
X210002076Y-99386293D01*
X209961552Y-99339524D01*
X209951609Y-99270366D01*
X209980635Y-99206810D01*
X209986667Y-99200332D01*
X209999999Y-99187000D01*
X210000000Y-99187000D01*
X210000000Y-96249399D01*
X210019685Y-96182360D01*
X210072489Y-96136605D01*
X210141647Y-96126661D01*
X210162318Y-96131468D01*
X210367163Y-96198026D01*
X210444999Y-96210354D01*
X210445000Y-96210354D01*
X210445000Y-94480982D01*
X210463409Y-94491611D01*
X210616009Y-94532500D01*
X210773991Y-94532500D01*
X210926591Y-94491611D01*
X210945000Y-94480982D01*
X210945000Y-96210354D01*
X211022834Y-96198026D01*
X211022837Y-96198026D01*
X211232410Y-96129932D01*
X211428760Y-96029886D01*
X211607041Y-95900357D01*
X211762857Y-95744541D01*
X211892386Y-95566260D01*
X211992432Y-95369910D01*
X212060526Y-95160335D01*
X212095000Y-94942681D01*
X212095000Y-94182500D01*
X211243482Y-94182500D01*
X211254111Y-94164091D01*
X211295000Y-94011491D01*
X211295000Y-93853509D01*
X211254111Y-93700909D01*
X211243482Y-93682500D01*
X212095000Y-93682500D01*
X212095000Y-92922318D01*
X212060526Y-92704664D01*
X211992432Y-92495089D01*
X211910676Y-92334635D01*
X213044500Y-92334635D01*
X213044500Y-95530370D01*
X213044501Y-95530376D01*
X213050908Y-95589983D01*
X213101202Y-95724828D01*
X213101206Y-95724835D01*
X213187452Y-95840044D01*
X213187455Y-95840047D01*
X213302664Y-95926293D01*
X213302671Y-95926297D01*
X213437517Y-95976591D01*
X213437516Y-95976591D01*
X213444444Y-95977335D01*
X213497127Y-95983000D01*
X214892872Y-95982999D01*
X214952483Y-95976591D01*
X215087331Y-95926296D01*
X215202546Y-95840046D01*
X215288796Y-95724831D01*
X215339091Y-95589983D01*
X215345500Y-95530373D01*
X215345500Y-95511052D01*
X219299500Y-95511052D01*
X219299500Y-97432948D01*
X219302376Y-97481226D01*
X219302376Y-97481230D01*
X219302377Y-97481231D01*
X219348063Y-97691249D01*
X219348066Y-97691260D01*
X219432677Y-97888845D01*
X219553151Y-98066848D01*
X219553159Y-98066857D01*
X219705142Y-98218840D01*
X219705151Y-98218848D01*
X219788856Y-98275500D01*
X219883152Y-98339321D01*
X219883153Y-98339321D01*
X219883154Y-98339322D01*
X219981946Y-98381627D01*
X220080741Y-98423934D01*
X220290774Y-98469624D01*
X220339052Y-98472500D01*
X220339064Y-98472500D01*
X222260936Y-98472500D01*
X222260948Y-98472500D01*
X222309226Y-98469624D01*
X222519259Y-98423934D01*
X222716848Y-98339321D01*
X222894855Y-98218843D01*
X223046843Y-98066855D01*
X223167321Y-97888848D01*
X223249338Y-97697321D01*
X223999500Y-97697321D01*
X223999500Y-101246678D01*
X224014032Y-101319735D01*
X224014033Y-101319739D01*
X224023972Y-101334614D01*
X224069399Y-101402601D01*
X224121822Y-101437628D01*
X224152260Y-101457966D01*
X224152264Y-101457967D01*
X224225321Y-101472499D01*
X224225324Y-101472500D01*
X224225326Y-101472500D01*
X227774676Y-101472500D01*
X227774677Y-101472499D01*
X227847740Y-101457966D01*
X227930601Y-101402601D01*
X227985966Y-101319740D01*
X228000500Y-101246674D01*
X228000500Y-101131888D01*
X228020185Y-101064849D01*
X228072989Y-101019094D01*
X228142147Y-101009150D01*
X228205703Y-101038175D01*
X228243477Y-101096953D01*
X228244265Y-101099760D01*
X228257291Y-101148373D01*
X228263276Y-101170709D01*
X228267501Y-101202802D01*
X228267501Y-102079382D01*
X228247816Y-102146421D01*
X228237216Y-102160583D01*
X228217624Y-102183194D01*
X228217623Y-102183195D01*
X228157835Y-102314110D01*
X228137354Y-102456567D01*
X228157835Y-102599023D01*
X228201646Y-102694953D01*
X228217624Y-102729940D01*
X228311873Y-102838710D01*
X228432948Y-102916520D01*
X228432951Y-102916521D01*
X228432950Y-102916521D01*
X228571037Y-102957066D01*
X228571039Y-102957067D01*
X228571040Y-102957067D01*
X228714963Y-102957067D01*
X228714963Y-102957066D01*
X228853054Y-102916520D01*
X228974129Y-102838710D01*
X229068378Y-102729940D01*
X229128166Y-102599024D01*
X229148648Y-102456567D01*
X229128166Y-102314110D01*
X229068378Y-102183194D01*
X229048786Y-102160583D01*
X229019763Y-102097027D01*
X229018501Y-102079382D01*
X229018501Y-101430068D01*
X229038186Y-101363029D01*
X229090990Y-101317274D01*
X229142501Y-101306068D01*
X229264963Y-101306068D01*
X229264963Y-101306067D01*
X229403054Y-101265521D01*
X229524129Y-101187711D01*
X229618378Y-101078941D01*
X229678166Y-100948025D01*
X229698648Y-100805568D01*
X229678166Y-100663111D01*
X229618378Y-100532195D01*
X229618375Y-100532191D01*
X229573787Y-100480732D01*
X229544763Y-100417176D01*
X229543501Y-100399531D01*
X229543501Y-98941605D01*
X229563186Y-98874566D01*
X229569221Y-98866504D01*
X229571281Y-98863295D01*
X229571290Y-98863286D01*
X229631078Y-98732370D01*
X229651560Y-98589913D01*
X229631078Y-98447456D01*
X229571290Y-98316540D01*
X229477041Y-98207770D01*
X229355966Y-98129960D01*
X229355964Y-98129959D01*
X229355962Y-98129958D01*
X229355963Y-98129958D01*
X229217876Y-98089413D01*
X229217874Y-98089413D01*
X229073952Y-98089413D01*
X229073949Y-98089413D01*
X228935862Y-98129958D01*
X228814786Y-98207769D01*
X228720536Y-98316539D01*
X228720535Y-98316541D01*
X228660747Y-98447456D01*
X228640266Y-98589913D01*
X228660747Y-98732369D01*
X228720535Y-98863284D01*
X228720538Y-98863290D01*
X228812214Y-98969090D01*
X228841239Y-99032646D01*
X228842501Y-99050292D01*
X228842501Y-99180571D01*
X228822816Y-99247610D01*
X228770012Y-99293365D01*
X228700854Y-99303309D01*
X228637298Y-99274284D01*
X228624788Y-99261774D01*
X228590977Y-99222754D01*
X228531128Y-99153684D01*
X228410053Y-99075874D01*
X228410051Y-99075873D01*
X228410049Y-99075872D01*
X228410050Y-99075872D01*
X228271963Y-99035327D01*
X228271961Y-99035327D01*
X228128039Y-99035327D01*
X228124500Y-99035327D01*
X228057461Y-99015642D01*
X228011706Y-98962838D01*
X228000500Y-98911327D01*
X228000500Y-97697323D01*
X228000499Y-97697321D01*
X227985967Y-97624264D01*
X227985966Y-97624260D01*
X227965053Y-97592961D01*
X227930601Y-97541399D01*
X227847740Y-97486034D01*
X227847739Y-97486033D01*
X227847735Y-97486032D01*
X227774677Y-97471500D01*
X227774674Y-97471500D01*
X224225326Y-97471500D01*
X224225323Y-97471500D01*
X224152264Y-97486032D01*
X224152260Y-97486033D01*
X224069399Y-97541399D01*
X224014033Y-97624260D01*
X224014032Y-97624264D01*
X223999500Y-97697321D01*
X223249338Y-97697321D01*
X223251934Y-97691259D01*
X223297624Y-97481226D01*
X223300500Y-97432948D01*
X223300500Y-96362478D01*
X229736331Y-96362478D01*
X229756812Y-96504934D01*
X229811335Y-96624320D01*
X229816601Y-96635851D01*
X229910850Y-96744621D01*
X230031925Y-96822431D01*
X230031928Y-96822432D01*
X230031927Y-96822432D01*
X230170014Y-96862977D01*
X230170016Y-96862978D01*
X230170017Y-96862978D01*
X230195434Y-96862978D01*
X230262473Y-96882663D01*
X230283115Y-96899297D01*
X230681308Y-97297490D01*
X230714793Y-97358813D01*
X230717627Y-97385171D01*
X230717627Y-99090090D01*
X230697942Y-99157129D01*
X230687341Y-99171291D01*
X230642752Y-99222750D01*
X230642749Y-99222755D01*
X230582961Y-99353670D01*
X230562480Y-99496127D01*
X230582961Y-99638583D01*
X230630668Y-99743045D01*
X230642750Y-99769500D01*
X230736999Y-99878270D01*
X230858074Y-99956080D01*
X230858077Y-99956081D01*
X230858076Y-99956081D01*
X230996163Y-99996626D01*
X230996165Y-99996627D01*
X230996166Y-99996627D01*
X231140089Y-99996627D01*
X231140089Y-99996626D01*
X231278180Y-99956080D01*
X231399255Y-99878270D01*
X231493504Y-99769500D01*
X231553292Y-99638584D01*
X231573774Y-99496127D01*
X231553292Y-99353670D01*
X231493504Y-99222754D01*
X231479689Y-99206810D01*
X231448913Y-99171291D01*
X231419889Y-99107735D01*
X231418627Y-99090090D01*
X231418627Y-97142485D01*
X231418627Y-97142483D01*
X231394741Y-97053339D01*
X231373472Y-97016500D01*
X231348597Y-96973415D01*
X230778481Y-96403299D01*
X230744996Y-96341976D01*
X230743427Y-96333283D01*
X230727143Y-96220021D01*
X230671590Y-96098379D01*
X252166732Y-96098379D01*
X252187213Y-96240835D01*
X252237366Y-96350652D01*
X252247002Y-96371752D01*
X252266591Y-96394359D01*
X252295617Y-96457913D01*
X252296879Y-96475562D01*
X252296879Y-96528814D01*
X252322284Y-96623627D01*
X252322470Y-96624320D01*
X252360694Y-96690526D01*
X252360695Y-96690526D01*
X252371907Y-96709945D01*
X253365525Y-97703562D01*
X253399010Y-97764885D01*
X253400582Y-97773595D01*
X253410927Y-97845547D01*
X253410928Y-97845551D01*
X253432884Y-97893627D01*
X253470716Y-97976466D01*
X253564965Y-98085236D01*
X253686040Y-98163046D01*
X253686043Y-98163047D01*
X253686042Y-98163047D01*
X253824129Y-98203592D01*
X253824131Y-98203593D01*
X253824132Y-98203593D01*
X253968055Y-98203593D01*
X253968055Y-98203592D01*
X254106146Y-98163046D01*
X254227221Y-98085236D01*
X254321470Y-97976466D01*
X254381258Y-97845550D01*
X254401740Y-97703093D01*
X254381258Y-97560636D01*
X254321470Y-97429720D01*
X254227221Y-97320950D01*
X254106146Y-97243140D01*
X254106144Y-97243139D01*
X254106142Y-97243138D01*
X254106143Y-97243138D01*
X253968058Y-97202593D01*
X253960522Y-97201510D01*
X253896967Y-97172484D01*
X253890490Y-97166453D01*
X253158017Y-96433980D01*
X253124532Y-96372657D01*
X253129516Y-96302965D01*
X253132899Y-96294799D01*
X253157544Y-96240836D01*
X253178026Y-96098379D01*
X253157544Y-95955922D01*
X253097756Y-95825006D01*
X253039695Y-95757999D01*
X254655785Y-95757999D01*
X254655785Y-95758000D01*
X254674602Y-95961082D01*
X254730417Y-96157247D01*
X254730422Y-96157260D01*
X254821327Y-96339821D01*
X254944237Y-96502581D01*
X255094958Y-96639980D01*
X255094960Y-96639982D01*
X255176592Y-96690526D01*
X255268363Y-96747348D01*
X255458544Y-96821024D01*
X255659024Y-96858500D01*
X255659026Y-96858500D01*
X255862974Y-96858500D01*
X255862976Y-96858500D01*
X256063456Y-96821024D01*
X256253637Y-96747348D01*
X256427041Y-96639981D01*
X256577764Y-96502579D01*
X256700673Y-96339821D01*
X256791582Y-96157250D01*
X256847397Y-95961083D01*
X256866215Y-95758000D01*
X256866157Y-95757379D01*
X256847397Y-95554917D01*
X256840414Y-95530376D01*
X256791582Y-95358750D01*
X256700673Y-95176179D01*
X256577764Y-95013421D01*
X256577762Y-95013418D01*
X256427041Y-94876019D01*
X256427039Y-94876017D01*
X256253642Y-94768655D01*
X256253635Y-94768651D01*
X256141347Y-94725151D01*
X256063456Y-94694976D01*
X255862976Y-94657500D01*
X255659024Y-94657500D01*
X255458544Y-94694976D01*
X255458541Y-94694976D01*
X255458541Y-94694977D01*
X255268364Y-94768651D01*
X255268357Y-94768655D01*
X255094960Y-94876017D01*
X255094958Y-94876019D01*
X254944237Y-95013418D01*
X254821327Y-95176178D01*
X254730422Y-95358739D01*
X254730417Y-95358752D01*
X254674602Y-95554917D01*
X254655785Y-95757999D01*
X253039695Y-95757999D01*
X253003507Y-95716236D01*
X252882432Y-95638426D01*
X252882430Y-95638425D01*
X252882428Y-95638424D01*
X252882429Y-95638424D01*
X252744342Y-95597879D01*
X252744340Y-95597879D01*
X252600418Y-95597879D01*
X252600415Y-95597879D01*
X252462328Y-95638424D01*
X252341252Y-95716235D01*
X252341251Y-95716235D01*
X252341251Y-95716236D01*
X252333800Y-95724835D01*
X252247002Y-95825005D01*
X252247001Y-95825007D01*
X252187213Y-95955922D01*
X252166732Y-96098379D01*
X230671590Y-96098379D01*
X230667355Y-96089105D01*
X230573106Y-95980335D01*
X230452031Y-95902525D01*
X230452029Y-95902524D01*
X230452027Y-95902523D01*
X230452028Y-95902523D01*
X230313941Y-95861978D01*
X230313939Y-95861978D01*
X230170017Y-95861978D01*
X230170014Y-95861978D01*
X230031927Y-95902523D01*
X229910851Y-95980334D01*
X229816600Y-96089105D01*
X229756812Y-96220021D01*
X229736331Y-96362478D01*
X223300500Y-96362478D01*
X223300500Y-95511052D01*
X223297624Y-95462774D01*
X223251934Y-95252741D01*
X223167321Y-95055152D01*
X223077910Y-94923046D01*
X223046848Y-94877151D01*
X223046840Y-94877142D01*
X222894857Y-94725159D01*
X222894848Y-94725151D01*
X222716845Y-94604677D01*
X222519260Y-94520066D01*
X222519249Y-94520063D01*
X222309231Y-94474377D01*
X222309230Y-94474376D01*
X222309226Y-94474376D01*
X222260948Y-94471500D01*
X220339052Y-94471500D01*
X220290774Y-94474376D01*
X220290769Y-94474376D01*
X220290768Y-94474377D01*
X220080750Y-94520063D01*
X220080739Y-94520066D01*
X219883154Y-94604677D01*
X219705151Y-94725151D01*
X219705142Y-94725159D01*
X219553159Y-94877142D01*
X219553151Y-94877151D01*
X219432677Y-95055154D01*
X219348066Y-95252739D01*
X219348063Y-95252750D01*
X219302377Y-95462768D01*
X219302376Y-95462774D01*
X219299500Y-95511052D01*
X215345500Y-95511052D01*
X215345499Y-92657803D01*
X223750000Y-92657803D01*
X223750000Y-93222000D01*
X224566988Y-93222000D01*
X224534075Y-93279007D01*
X224500000Y-93406174D01*
X224500000Y-93537826D01*
X224534075Y-93664993D01*
X224566988Y-93722000D01*
X223750001Y-93722000D01*
X223750001Y-94286197D01*
X223760400Y-94418332D01*
X223815377Y-94636519D01*
X223908428Y-94841374D01*
X223908431Y-94841380D01*
X224036559Y-95026323D01*
X224036569Y-95026335D01*
X224195664Y-95185430D01*
X224195676Y-95185440D01*
X224380619Y-95313568D01*
X224380625Y-95313571D01*
X224585480Y-95406622D01*
X224803667Y-95461599D01*
X224935810Y-95471999D01*
X225749999Y-95471999D01*
X225750000Y-95471998D01*
X225750000Y-93972000D01*
X226250000Y-93972000D01*
X226250000Y-95471999D01*
X227064182Y-95471999D01*
X227064197Y-95471998D01*
X227196332Y-95461599D01*
X227414519Y-95406622D01*
X227619374Y-95313571D01*
X227619380Y-95313568D01*
X227804323Y-95185440D01*
X227804335Y-95185430D01*
X227963430Y-95026335D01*
X227963440Y-95026323D01*
X228091568Y-94841380D01*
X228091571Y-94841374D01*
X228184622Y-94636519D01*
X228239599Y-94418332D01*
X228249999Y-94286196D01*
X228250000Y-94286184D01*
X228250000Y-93722000D01*
X227433012Y-93722000D01*
X227465925Y-93664993D01*
X227500000Y-93537826D01*
X227500000Y-93406174D01*
X227465925Y-93279007D01*
X227433012Y-93222000D01*
X228249999Y-93222000D01*
X228249999Y-93217999D01*
X254655785Y-93217999D01*
X254655785Y-93218000D01*
X254674602Y-93421082D01*
X254730417Y-93617247D01*
X254730422Y-93617260D01*
X254821327Y-93799821D01*
X254944237Y-93962581D01*
X255094958Y-94099980D01*
X255094960Y-94099982D01*
X255194141Y-94161392D01*
X255268363Y-94207348D01*
X255458544Y-94281024D01*
X255659024Y-94318500D01*
X255659026Y-94318500D01*
X255862974Y-94318500D01*
X255862976Y-94318500D01*
X256063456Y-94281024D01*
X256253637Y-94207348D01*
X256427041Y-94099981D01*
X256577764Y-93962579D01*
X256700673Y-93799821D01*
X256791582Y-93617250D01*
X256847397Y-93421083D01*
X256866215Y-93218000D01*
X256847397Y-93014917D01*
X256791582Y-92818750D01*
X256700673Y-92636179D01*
X256577764Y-92473421D01*
X256577762Y-92473418D01*
X256427041Y-92336019D01*
X256427039Y-92336017D01*
X256253642Y-92228655D01*
X256253635Y-92228651D01*
X256134615Y-92182543D01*
X256063456Y-92154976D01*
X255862976Y-92117500D01*
X255659024Y-92117500D01*
X255458544Y-92154976D01*
X255458541Y-92154976D01*
X255458541Y-92154977D01*
X255268364Y-92228651D01*
X255268357Y-92228655D01*
X255094960Y-92336017D01*
X255094958Y-92336019D01*
X254944237Y-92473418D01*
X254821327Y-92636178D01*
X254730422Y-92818739D01*
X254730417Y-92818752D01*
X254674602Y-93014917D01*
X254655785Y-93217999D01*
X228249999Y-93217999D01*
X228249999Y-92657817D01*
X228249998Y-92657802D01*
X228239599Y-92525667D01*
X228184622Y-92307480D01*
X228091571Y-92102625D01*
X228091568Y-92102619D01*
X227963440Y-91917676D01*
X227963430Y-91917664D01*
X227804335Y-91758569D01*
X227804323Y-91758559D01*
X227619380Y-91630431D01*
X227619374Y-91630428D01*
X227414519Y-91537377D01*
X227196332Y-91482400D01*
X227064196Y-91472000D01*
X226250000Y-91472000D01*
X226250000Y-92972000D01*
X225750000Y-92972000D01*
X225750000Y-91472000D01*
X224935817Y-91472000D01*
X224935802Y-91472001D01*
X224803667Y-91482400D01*
X224585480Y-91537377D01*
X224380625Y-91630428D01*
X224380619Y-91630431D01*
X224195676Y-91758559D01*
X224195664Y-91758569D01*
X224036569Y-91917664D01*
X224036559Y-91917676D01*
X223908431Y-92102619D01*
X223908428Y-92102625D01*
X223815377Y-92307480D01*
X223760400Y-92525667D01*
X223750000Y-92657803D01*
X215345499Y-92657803D01*
X215345499Y-92334628D01*
X215339091Y-92275017D01*
X215304600Y-92182543D01*
X215288797Y-92140171D01*
X215288793Y-92140164D01*
X215202547Y-92024955D01*
X215202544Y-92024952D01*
X215087335Y-91938706D01*
X215087328Y-91938702D01*
X214952482Y-91888408D01*
X214952483Y-91888408D01*
X214892883Y-91882001D01*
X214892881Y-91882000D01*
X214892873Y-91882000D01*
X214892864Y-91882000D01*
X213497129Y-91882000D01*
X213497123Y-91882001D01*
X213437516Y-91888408D01*
X213302671Y-91938702D01*
X213302664Y-91938706D01*
X213187455Y-92024952D01*
X213187452Y-92024955D01*
X213101206Y-92140164D01*
X213101202Y-92140171D01*
X213050908Y-92275017D01*
X213045535Y-92325000D01*
X213044501Y-92334623D01*
X213044500Y-92334635D01*
X211910676Y-92334635D01*
X211892386Y-92298739D01*
X211762857Y-92120458D01*
X211607041Y-91964642D01*
X211428760Y-91835113D01*
X211232410Y-91735067D01*
X211022836Y-91666973D01*
X210945000Y-91654644D01*
X210945000Y-93384017D01*
X210926591Y-93373389D01*
X210773991Y-93332500D01*
X210616009Y-93332500D01*
X210463409Y-93373389D01*
X210445000Y-93384017D01*
X210445000Y-91654644D01*
X210367164Y-91666973D01*
X210367161Y-91666973D01*
X210162318Y-91733531D01*
X210092477Y-91735526D01*
X210032644Y-91699445D01*
X210001816Y-91636744D01*
X210000000Y-91615600D01*
X210000000Y-91250000D01*
X201000000Y-91250000D01*
X201000000Y-98275500D01*
X200980315Y-98342539D01*
X200927511Y-98388294D01*
X200876000Y-98399500D01*
X200793036Y-98399500D01*
X200654949Y-98440045D01*
X200533873Y-98517856D01*
X200439623Y-98626626D01*
X200439622Y-98626628D01*
X200379834Y-98757543D01*
X200359353Y-98900000D01*
X183105735Y-98900000D01*
X183090642Y-98890655D01*
X183090635Y-98890651D01*
X182995546Y-98853814D01*
X182900456Y-98816976D01*
X182699976Y-98779500D01*
X182496024Y-98779500D01*
X182295544Y-98816976D01*
X182295541Y-98816976D01*
X182295541Y-98816977D01*
X182105364Y-98890651D01*
X182105357Y-98890655D01*
X181931960Y-98998017D01*
X181931958Y-98998019D01*
X181781237Y-99135418D01*
X181658327Y-99298178D01*
X181567422Y-99480739D01*
X181567417Y-99480752D01*
X181511602Y-99676917D01*
X181492785Y-99879999D01*
X172800500Y-99879999D01*
X172800500Y-93902155D01*
X181248000Y-93902155D01*
X181248000Y-94550000D01*
X182164988Y-94550000D01*
X182132075Y-94607007D01*
X182098000Y-94734174D01*
X182098000Y-94865826D01*
X182132075Y-94992993D01*
X182164988Y-95050000D01*
X181248000Y-95050000D01*
X181248000Y-95697844D01*
X181254401Y-95757372D01*
X181254403Y-95757379D01*
X181304645Y-95892086D01*
X181304649Y-95892093D01*
X181390809Y-96007187D01*
X181390812Y-96007190D01*
X181505906Y-96093350D01*
X181505913Y-96093354D01*
X181640620Y-96143596D01*
X181640627Y-96143598D01*
X181700155Y-96149999D01*
X181700172Y-96150000D01*
X181993612Y-96150000D01*
X182060651Y-96169685D01*
X182106406Y-96222489D01*
X182116350Y-96291647D01*
X182087325Y-96355203D01*
X182058889Y-96379427D01*
X181931960Y-96458017D01*
X181931958Y-96458019D01*
X181781237Y-96595418D01*
X181658327Y-96758178D01*
X181567422Y-96940739D01*
X181567417Y-96940752D01*
X181511602Y-97136917D01*
X181492785Y-97339999D01*
X181492785Y-97340000D01*
X181511602Y-97543082D01*
X181567417Y-97739247D01*
X181567422Y-97739260D01*
X181658327Y-97921821D01*
X181781237Y-98084581D01*
X181911787Y-98203592D01*
X181928513Y-98218840D01*
X181931958Y-98221980D01*
X181931960Y-98221982D01*
X182018395Y-98275500D01*
X182105363Y-98329348D01*
X182295544Y-98403024D01*
X182496024Y-98440500D01*
X182496026Y-98440500D01*
X182699974Y-98440500D01*
X182699976Y-98440500D01*
X182900456Y-98403024D01*
X183090637Y-98329348D01*
X183264041Y-98221981D01*
X183414764Y-98084579D01*
X183537673Y-97921821D01*
X183628582Y-97739250D01*
X183684397Y-97543083D01*
X183703215Y-97340000D01*
X183684397Y-97136917D01*
X183628582Y-96940750D01*
X183607366Y-96898143D01*
X183568965Y-96821022D01*
X183537673Y-96758179D01*
X183445294Y-96635849D01*
X183414762Y-96595418D01*
X183264041Y-96458019D01*
X183264039Y-96458017D01*
X183137111Y-96379427D01*
X183090475Y-96327399D01*
X183079371Y-96258417D01*
X183107324Y-96194383D01*
X183165459Y-96155627D01*
X183202388Y-96150000D01*
X183495828Y-96150000D01*
X183495844Y-96149999D01*
X183555372Y-96143598D01*
X183555379Y-96143596D01*
X183690086Y-96093354D01*
X183690093Y-96093350D01*
X183805187Y-96007190D01*
X183805190Y-96007187D01*
X183891350Y-95892093D01*
X183891354Y-95892086D01*
X183941596Y-95757379D01*
X183941598Y-95757372D01*
X183947999Y-95697844D01*
X183948000Y-95697827D01*
X183948000Y-95050000D01*
X183031012Y-95050000D01*
X183063925Y-94992993D01*
X183098000Y-94865826D01*
X183098000Y-94734174D01*
X183063925Y-94607007D01*
X183031012Y-94550000D01*
X183948000Y-94550000D01*
X183948000Y-93902172D01*
X183947999Y-93902155D01*
X183941598Y-93842627D01*
X183941596Y-93842620D01*
X183891354Y-93707913D01*
X183891350Y-93707906D01*
X183805190Y-93592812D01*
X183805187Y-93592809D01*
X183690093Y-93506649D01*
X183690086Y-93506645D01*
X183555379Y-93456403D01*
X183555372Y-93456401D01*
X183495844Y-93450000D01*
X182848000Y-93450000D01*
X182848000Y-94366988D01*
X182790993Y-94334075D01*
X182663826Y-94300000D01*
X182532174Y-94300000D01*
X182405007Y-94334075D01*
X182348000Y-94366988D01*
X182348000Y-93450000D01*
X181700155Y-93450000D01*
X181640627Y-93456401D01*
X181640620Y-93456403D01*
X181505913Y-93506645D01*
X181505906Y-93506649D01*
X181390812Y-93592809D01*
X181390809Y-93592812D01*
X181304649Y-93707906D01*
X181304645Y-93707913D01*
X181254403Y-93842620D01*
X181254401Y-93842627D01*
X181248000Y-93902155D01*
X172800500Y-93902155D01*
X172800500Y-92148920D01*
X187849499Y-92148920D01*
X187878340Y-92293907D01*
X187878343Y-92293917D01*
X187934912Y-92430488D01*
X187934919Y-92430501D01*
X188017048Y-92553415D01*
X188017051Y-92553419D01*
X188121580Y-92657948D01*
X188121584Y-92657951D01*
X188244498Y-92740080D01*
X188244511Y-92740087D01*
X188381082Y-92796656D01*
X188381087Y-92796658D01*
X188381091Y-92796658D01*
X188381092Y-92796659D01*
X188526079Y-92825500D01*
X188526082Y-92825500D01*
X188673920Y-92825500D01*
X188771462Y-92806096D01*
X188818913Y-92796658D01*
X188955495Y-92740084D01*
X189078416Y-92657951D01*
X189182951Y-92553416D01*
X189265084Y-92430495D01*
X189321658Y-92293913D01*
X189340737Y-92198000D01*
X189350500Y-92148920D01*
X192249499Y-92148920D01*
X192278340Y-92293907D01*
X192278343Y-92293917D01*
X192334912Y-92430488D01*
X192334919Y-92430501D01*
X192417048Y-92553415D01*
X192417051Y-92553419D01*
X192521580Y-92657948D01*
X192521584Y-92657951D01*
X192644498Y-92740080D01*
X192644511Y-92740087D01*
X192781082Y-92796656D01*
X192781087Y-92796658D01*
X192781091Y-92796658D01*
X192781092Y-92796659D01*
X192926079Y-92825500D01*
X192926082Y-92825500D01*
X193073920Y-92825500D01*
X193171462Y-92806096D01*
X193218913Y-92796658D01*
X193355495Y-92740084D01*
X193478416Y-92657951D01*
X193582951Y-92553416D01*
X193665084Y-92430495D01*
X193721658Y-92293913D01*
X193740737Y-92198000D01*
X193750500Y-92148920D01*
X193750500Y-92001079D01*
X193721659Y-91856092D01*
X193721658Y-91856091D01*
X193721658Y-91856087D01*
X193704994Y-91815857D01*
X193665087Y-91719511D01*
X193665080Y-91719498D01*
X193582951Y-91596584D01*
X193582948Y-91596580D01*
X193478419Y-91492051D01*
X193478415Y-91492048D01*
X193355501Y-91409919D01*
X193355488Y-91409912D01*
X193218917Y-91353343D01*
X193218907Y-91353340D01*
X193073920Y-91324500D01*
X193073918Y-91324500D01*
X192926082Y-91324500D01*
X192926080Y-91324500D01*
X192781092Y-91353340D01*
X192781082Y-91353343D01*
X192644511Y-91409912D01*
X192644498Y-91409919D01*
X192521584Y-91492048D01*
X192521580Y-91492051D01*
X192417051Y-91596580D01*
X192417048Y-91596584D01*
X192334919Y-91719498D01*
X192334912Y-91719511D01*
X192278343Y-91856082D01*
X192278340Y-91856092D01*
X192249500Y-92001079D01*
X192249500Y-92001082D01*
X192249500Y-92148918D01*
X192249500Y-92148920D01*
X192249499Y-92148920D01*
X189350500Y-92148920D01*
X189350500Y-92001079D01*
X189321659Y-91856092D01*
X189321658Y-91856091D01*
X189321658Y-91856087D01*
X189304994Y-91815857D01*
X189265087Y-91719511D01*
X189265080Y-91719498D01*
X189182951Y-91596584D01*
X189182948Y-91596580D01*
X189078419Y-91492051D01*
X189078415Y-91492048D01*
X188955501Y-91409919D01*
X188955488Y-91409912D01*
X188818917Y-91353343D01*
X188818907Y-91353340D01*
X188673920Y-91324500D01*
X188673918Y-91324500D01*
X188526082Y-91324500D01*
X188526080Y-91324500D01*
X188381092Y-91353340D01*
X188381082Y-91353343D01*
X188244511Y-91409912D01*
X188244498Y-91409919D01*
X188121584Y-91492048D01*
X188121580Y-91492051D01*
X188017051Y-91596580D01*
X188017048Y-91596584D01*
X187934919Y-91719498D01*
X187934912Y-91719511D01*
X187878343Y-91856082D01*
X187878340Y-91856092D01*
X187849500Y-92001079D01*
X187849500Y-92001082D01*
X187849500Y-92148918D01*
X187849500Y-92148920D01*
X187849499Y-92148920D01*
X172800500Y-92148920D01*
X172800500Y-89378711D01*
X174149500Y-89378711D01*
X174149500Y-89621288D01*
X174181161Y-89861785D01*
X174243947Y-90096104D01*
X174319597Y-90278739D01*
X174336776Y-90320212D01*
X174458064Y-90530289D01*
X174458066Y-90530292D01*
X174458067Y-90530293D01*
X174605733Y-90722736D01*
X174605739Y-90722743D01*
X174777256Y-90894260D01*
X174777262Y-90894265D01*
X174969711Y-91041936D01*
X175179788Y-91163224D01*
X175403900Y-91256054D01*
X175638211Y-91318838D01*
X175818586Y-91342584D01*
X175878711Y-91350500D01*
X175878712Y-91350500D01*
X176121289Y-91350500D01*
X176169388Y-91344167D01*
X176361789Y-91318838D01*
X176596100Y-91256054D01*
X176820212Y-91163224D01*
X177030289Y-91041936D01*
X177222738Y-90894265D01*
X177394265Y-90722738D01*
X177541936Y-90530289D01*
X177663224Y-90320212D01*
X177756054Y-90096100D01*
X177818838Y-89861789D01*
X177850500Y-89621288D01*
X177850500Y-89378712D01*
X177850500Y-89378711D01*
X241649500Y-89378711D01*
X241649500Y-89621288D01*
X241681161Y-89861785D01*
X241743947Y-90096104D01*
X241819597Y-90278739D01*
X241836776Y-90320212D01*
X241958064Y-90530289D01*
X241958066Y-90530292D01*
X241958067Y-90530293D01*
X242105733Y-90722736D01*
X242105739Y-90722743D01*
X242277256Y-90894260D01*
X242277262Y-90894265D01*
X242469711Y-91041936D01*
X242679788Y-91163224D01*
X242903900Y-91256054D01*
X243138211Y-91318838D01*
X243318586Y-91342584D01*
X243378711Y-91350500D01*
X243378712Y-91350500D01*
X243621289Y-91350500D01*
X243669388Y-91344167D01*
X243861789Y-91318838D01*
X244096100Y-91256054D01*
X244320212Y-91163224D01*
X244530289Y-91041936D01*
X244722738Y-90894265D01*
X244894265Y-90722738D01*
X244928594Y-90677999D01*
X254655785Y-90677999D01*
X254655785Y-90678000D01*
X254674602Y-90881082D01*
X254730417Y-91077247D01*
X254730422Y-91077260D01*
X254821327Y-91259821D01*
X254944237Y-91422581D01*
X255094958Y-91559980D01*
X255094960Y-91559982D01*
X255154075Y-91596584D01*
X255268363Y-91667348D01*
X255458544Y-91741024D01*
X255659024Y-91778500D01*
X255659026Y-91778500D01*
X255862974Y-91778500D01*
X255862976Y-91778500D01*
X256063456Y-91741024D01*
X256253637Y-91667348D01*
X256427041Y-91559981D01*
X256577764Y-91422579D01*
X256700673Y-91259821D01*
X256791582Y-91077250D01*
X256847397Y-90881083D01*
X256866215Y-90678000D01*
X256847397Y-90474917D01*
X256791582Y-90278750D01*
X256700673Y-90096179D01*
X256577764Y-89933421D01*
X256577762Y-89933418D01*
X256427041Y-89796019D01*
X256427039Y-89796017D01*
X256253642Y-89688655D01*
X256253635Y-89688651D01*
X256079749Y-89621288D01*
X256063456Y-89614976D01*
X255862976Y-89577500D01*
X255659024Y-89577500D01*
X255458544Y-89614976D01*
X255458541Y-89614976D01*
X255458541Y-89614977D01*
X255268364Y-89688651D01*
X255268357Y-89688655D01*
X255094960Y-89796017D01*
X255094958Y-89796019D01*
X254944237Y-89933418D01*
X254821327Y-90096178D01*
X254730422Y-90278739D01*
X254730417Y-90278752D01*
X254674602Y-90474917D01*
X254655785Y-90677999D01*
X244928594Y-90677999D01*
X245041936Y-90530289D01*
X245163224Y-90320212D01*
X245256054Y-90096100D01*
X245318838Y-89861789D01*
X245350500Y-89621288D01*
X245350500Y-89378712D01*
X245318838Y-89138211D01*
X245256054Y-88903900D01*
X245163224Y-88679788D01*
X245041936Y-88469711D01*
X244981018Y-88390321D01*
X244894266Y-88277263D01*
X244894260Y-88277256D01*
X244755003Y-88137999D01*
X254655785Y-88137999D01*
X254655785Y-88138000D01*
X254674602Y-88341082D01*
X254730417Y-88537247D01*
X254730422Y-88537260D01*
X254821327Y-88719821D01*
X254944237Y-88882581D01*
X255094958Y-89019980D01*
X255094960Y-89019982D01*
X255194141Y-89081392D01*
X255268363Y-89127348D01*
X255458544Y-89201024D01*
X255659024Y-89238500D01*
X255659026Y-89238500D01*
X255862974Y-89238500D01*
X255862976Y-89238500D01*
X256063456Y-89201024D01*
X256253637Y-89127348D01*
X256427041Y-89019981D01*
X256577764Y-88882579D01*
X256700673Y-88719821D01*
X256791582Y-88537250D01*
X256847397Y-88341083D01*
X256866215Y-88138000D01*
X256847397Y-87934917D01*
X256791582Y-87738750D01*
X256700673Y-87556179D01*
X256577764Y-87393421D01*
X256577762Y-87393418D01*
X256427041Y-87256019D01*
X256427039Y-87256017D01*
X256253642Y-87148655D01*
X256253635Y-87148651D01*
X256158546Y-87111814D01*
X256063456Y-87074976D01*
X255862976Y-87037500D01*
X255659024Y-87037500D01*
X255458544Y-87074976D01*
X255458541Y-87074976D01*
X255458541Y-87074977D01*
X255268364Y-87148651D01*
X255268357Y-87148655D01*
X255094960Y-87256017D01*
X255094958Y-87256019D01*
X254944237Y-87393418D01*
X254821327Y-87556178D01*
X254730422Y-87738739D01*
X254730417Y-87738752D01*
X254674602Y-87934917D01*
X254655785Y-88137999D01*
X244755003Y-88137999D01*
X244722743Y-88105739D01*
X244722736Y-88105733D01*
X244530293Y-87958067D01*
X244530292Y-87958066D01*
X244530289Y-87958064D01*
X244320212Y-87836776D01*
X244320205Y-87836773D01*
X244096104Y-87743947D01*
X243861785Y-87681161D01*
X243621289Y-87649500D01*
X243621288Y-87649500D01*
X243378712Y-87649500D01*
X243378711Y-87649500D01*
X243138214Y-87681161D01*
X242903895Y-87743947D01*
X242679794Y-87836773D01*
X242679785Y-87836777D01*
X242469706Y-87958067D01*
X242277263Y-88105733D01*
X242277256Y-88105739D01*
X242105739Y-88277256D01*
X242105733Y-88277263D01*
X241958067Y-88469706D01*
X241836777Y-88679785D01*
X241836773Y-88679794D01*
X241743947Y-88903895D01*
X241681161Y-89138214D01*
X241649500Y-89378711D01*
X177850500Y-89378711D01*
X177818838Y-89138211D01*
X177756054Y-88903900D01*
X177663224Y-88679788D01*
X177541936Y-88469711D01*
X177481018Y-88390321D01*
X177394266Y-88277263D01*
X177394260Y-88277256D01*
X177222743Y-88105739D01*
X177222736Y-88105733D01*
X177030293Y-87958067D01*
X177030292Y-87958066D01*
X177030289Y-87958064D01*
X176820212Y-87836776D01*
X176820205Y-87836773D01*
X176596104Y-87743947D01*
X176361785Y-87681161D01*
X176121289Y-87649500D01*
X176121288Y-87649500D01*
X175878712Y-87649500D01*
X175878711Y-87649500D01*
X175638214Y-87681161D01*
X175403895Y-87743947D01*
X175179794Y-87836773D01*
X175179785Y-87836777D01*
X174969706Y-87958067D01*
X174777263Y-88105733D01*
X174777256Y-88105739D01*
X174605739Y-88277256D01*
X174605733Y-88277263D01*
X174458067Y-88469706D01*
X174336777Y-88679785D01*
X174336773Y-88679794D01*
X174243947Y-88903895D01*
X174181161Y-89138214D01*
X174149500Y-89378711D01*
X172800500Y-89378711D01*
X172800500Y-86424500D01*
X172820185Y-86357461D01*
X172872989Y-86311706D01*
X172924500Y-86300500D01*
X257075500Y-86300500D01*
X257142539Y-86320185D01*
G37*
%TD.AperFunction*%
%TD*%
%TA.AperFunction,Conductor*%
%TO.N,/Hbridge/OUT.A*%
G36*
X209239039Y-91836685D02*
G01*
X209284794Y-91889489D01*
X209296000Y-91941000D01*
X209296000Y-97662000D01*
X209276315Y-97729039D01*
X209223511Y-97774794D01*
X209172000Y-97786000D01*
X208023000Y-97786000D01*
X207955961Y-97766315D01*
X207910206Y-97713511D01*
X207899000Y-97662000D01*
X207899000Y-97024000D01*
X206118000Y-97024000D01*
X206050961Y-97004315D01*
X206005206Y-96951511D01*
X205994000Y-96900000D01*
X205994000Y-95910761D01*
X206013685Y-95843722D01*
X206066489Y-95797967D01*
X206135647Y-95788023D01*
X206199203Y-95817048D01*
X206205681Y-95823080D01*
X206282958Y-95900357D01*
X206461239Y-96029886D01*
X206657586Y-96129931D01*
X206657592Y-96129933D01*
X206694999Y-96142087D01*
X207695000Y-96142087D01*
X207732407Y-96129933D01*
X207732413Y-96129931D01*
X207928760Y-96029886D01*
X208107041Y-95900357D01*
X208262857Y-95744541D01*
X208392386Y-95566260D01*
X208492432Y-95369910D01*
X208560526Y-95160335D01*
X208595000Y-94942681D01*
X208595000Y-94432500D01*
X207695000Y-94432500D01*
X207695000Y-96142087D01*
X206694999Y-96142087D01*
X206695000Y-96142086D01*
X206695000Y-94266473D01*
X206714881Y-94300908D01*
X206826592Y-94412619D01*
X206963409Y-94491611D01*
X207116009Y-94532500D01*
X207273991Y-94532500D01*
X207426591Y-94491611D01*
X207563408Y-94412619D01*
X207675119Y-94300908D01*
X207754111Y-94164091D01*
X207795000Y-94011491D01*
X207795000Y-93853509D01*
X207754111Y-93700909D01*
X207675119Y-93564092D01*
X207563408Y-93452381D01*
X207528973Y-93432500D01*
X208595000Y-93432500D01*
X208595000Y-92922318D01*
X208560526Y-92704664D01*
X208492432Y-92495089D01*
X208392386Y-92298739D01*
X208262857Y-92120458D01*
X208171080Y-92028681D01*
X208137595Y-91967358D01*
X208142579Y-91897666D01*
X208184451Y-91841733D01*
X208249915Y-91817316D01*
X208258761Y-91817000D01*
X209172000Y-91817000D01*
X209239039Y-91836685D01*
G37*
%TD.AperFunction*%
%TA.AperFunction,Conductor*%
G36*
X206826592Y-93452381D02*
G01*
X206714881Y-93564092D01*
X206695000Y-93598526D01*
X206695000Y-93556500D01*
X206714685Y-93489461D01*
X206767489Y-93443706D01*
X206819000Y-93432500D01*
X206861027Y-93432500D01*
X206826592Y-93452381D01*
G37*
%TD.AperFunction*%
%TD*%
M02*
