%TF.GenerationSoftware,KiCad,Pcbnew,8.0.2*%
%TF.CreationDate,2024-10-04T23:09:32+02:00*%
%TF.ProjectId,OSSD_CDU,4f535344-5f43-4445-952e-6b696361645f,rev?*%
%TF.SameCoordinates,Original*%
%TF.FileFunction,Legend,Top*%
%TF.FilePolarity,Positive*%
%FSLAX46Y46*%
G04 Gerber Fmt 4.6, Leading zero omitted, Abs format (unit mm)*
G04 Created by KiCad (PCBNEW 8.0.2) date 2024-10-04 23:09:32*
%MOMM*%
%LPD*%
G01*
G04 APERTURE LIST*
G04 Aperture macros list*
%AMRoundRect*
0 Rectangle with rounded corners*
0 $1 Rounding radius*
0 $2 $3 $4 $5 $6 $7 $8 $9 X,Y pos of 4 corners*
0 Add a 4 corners polygon primitive as box body*
4,1,4,$2,$3,$4,$5,$6,$7,$8,$9,$2,$3,0*
0 Add four circle primitives for the rounded corners*
1,1,$1+$1,$2,$3*
1,1,$1+$1,$4,$5*
1,1,$1+$1,$6,$7*
1,1,$1+$1,$8,$9*
0 Add four rect primitives between the rounded corners*
20,1,$1+$1,$2,$3,$4,$5,0*
20,1,$1+$1,$4,$5,$6,$7,0*
20,1,$1+$1,$6,$7,$8,$9,0*
20,1,$1+$1,$8,$9,$2,$3,0*%
G04 Aperture macros list end*
%ADD10C,0.075000*%
%ADD11C,0.120000*%
%ADD12C,0.100000*%
%ADD13RoundRect,0.250000X0.400000X0.750000X-0.400000X0.750000X-0.400000X-0.750000X0.400000X-0.750000X0*%
%ADD14RoundRect,0.250000X0.750000X0.750000X-0.750000X0.750000X-0.750000X-0.750000X0.750000X-0.750000X0*%
%ADD15RoundRect,0.250000X0.450000X-0.350000X0.450000X0.350000X-0.450000X0.350000X-0.450000X-0.350000X0*%
%ADD16RoundRect,0.250000X0.350000X0.450000X-0.350000X0.450000X-0.350000X-0.450000X0.350000X-0.450000X0*%
%ADD17RoundRect,0.250000X-0.350000X-0.450000X0.350000X-0.450000X0.350000X0.450000X-0.350000X0.450000X0*%
%ADD18RoundRect,0.150000X-0.587500X-0.150000X0.587500X-0.150000X0.587500X0.150000X-0.587500X0.150000X0*%
%ADD19C,2.200000*%
%ADD20O,1.800000X3.600000*%
%ADD21RoundRect,0.250000X0.650000X1.550000X-0.650000X1.550000X-0.650000X-1.550000X0.650000X-1.550000X0*%
%ADD22RoundRect,0.250000X1.000000X0.650000X-1.000000X0.650000X-1.000000X-0.650000X1.000000X-0.650000X0*%
%ADD23RoundRect,0.250000X-1.000000X-0.650000X1.000000X-0.650000X1.000000X0.650000X-1.000000X0.650000X0*%
%ADD24RoundRect,0.250000X0.650000X-1.000000X0.650000X1.000000X-0.650000X1.000000X-0.650000X-1.000000X0*%
%ADD25RoundRect,0.250000X-0.650000X1.000000X-0.650000X-1.000000X0.650000X-1.000000X0.650000X1.000000X0*%
%ADD26RoundRect,0.249999X4.150001X4.550001X-4.150001X4.550001X-4.150001X-4.550001X4.150001X-4.550001X0*%
%ADD27RoundRect,0.249999X-4.150001X-4.550001X4.150001X-4.550001X4.150001X4.550001X-4.150001X4.550001X0*%
%ADD28RoundRect,0.250000X0.550000X-1.500000X0.550000X1.500000X-0.550000X1.500000X-0.550000X-1.500000X0*%
%ADD29RoundRect,0.150000X0.650000X0.150000X-0.650000X0.150000X-0.650000X-0.150000X0.650000X-0.150000X0*%
G04 APERTURE END LIST*
D10*
X151935618Y-102078590D02*
X152102284Y-102316685D01*
X152221332Y-102078590D02*
X152221332Y-102578590D01*
X152221332Y-102578590D02*
X152030856Y-102578590D01*
X152030856Y-102578590D02*
X151983237Y-102554780D01*
X151983237Y-102554780D02*
X151959427Y-102530971D01*
X151959427Y-102530971D02*
X151935618Y-102483352D01*
X151935618Y-102483352D02*
X151935618Y-102411923D01*
X151935618Y-102411923D02*
X151959427Y-102364304D01*
X151959427Y-102364304D02*
X151983237Y-102340495D01*
X151983237Y-102340495D02*
X152030856Y-102316685D01*
X152030856Y-102316685D02*
X152221332Y-102316685D01*
X151792760Y-102578590D02*
X151626094Y-102078590D01*
X151626094Y-102078590D02*
X151459427Y-102578590D01*
X151030856Y-102078590D02*
X151316570Y-102078590D01*
X151173713Y-102078590D02*
X151173713Y-102578590D01*
X151173713Y-102578590D02*
X151221332Y-102507161D01*
X151221332Y-102507161D02*
X151268951Y-102459542D01*
X151268951Y-102459542D02*
X151316570Y-102435733D01*
X169463409Y-103341333D02*
X169225314Y-103507999D01*
X169463409Y-103627047D02*
X168963409Y-103627047D01*
X168963409Y-103627047D02*
X168963409Y-103436571D01*
X168963409Y-103436571D02*
X168987219Y-103388952D01*
X168987219Y-103388952D02*
X169011028Y-103365142D01*
X169011028Y-103365142D02*
X169058647Y-103341333D01*
X169058647Y-103341333D02*
X169130076Y-103341333D01*
X169130076Y-103341333D02*
X169177695Y-103365142D01*
X169177695Y-103365142D02*
X169201504Y-103388952D01*
X169201504Y-103388952D02*
X169225314Y-103436571D01*
X169225314Y-103436571D02*
X169225314Y-103627047D01*
X169177695Y-103055618D02*
X169153885Y-103103237D01*
X169153885Y-103103237D02*
X169130076Y-103127047D01*
X169130076Y-103127047D02*
X169082457Y-103150856D01*
X169082457Y-103150856D02*
X169058647Y-103150856D01*
X169058647Y-103150856D02*
X169011028Y-103127047D01*
X169011028Y-103127047D02*
X168987219Y-103103237D01*
X168987219Y-103103237D02*
X168963409Y-103055618D01*
X168963409Y-103055618D02*
X168963409Y-102960380D01*
X168963409Y-102960380D02*
X168987219Y-102912761D01*
X168987219Y-102912761D02*
X169011028Y-102888952D01*
X169011028Y-102888952D02*
X169058647Y-102865142D01*
X169058647Y-102865142D02*
X169082457Y-102865142D01*
X169082457Y-102865142D02*
X169130076Y-102888952D01*
X169130076Y-102888952D02*
X169153885Y-102912761D01*
X169153885Y-102912761D02*
X169177695Y-102960380D01*
X169177695Y-102960380D02*
X169177695Y-103055618D01*
X169177695Y-103055618D02*
X169201504Y-103103237D01*
X169201504Y-103103237D02*
X169225314Y-103127047D01*
X169225314Y-103127047D02*
X169272933Y-103150856D01*
X169272933Y-103150856D02*
X169368171Y-103150856D01*
X169368171Y-103150856D02*
X169415790Y-103127047D01*
X169415790Y-103127047D02*
X169439600Y-103103237D01*
X169439600Y-103103237D02*
X169463409Y-103055618D01*
X169463409Y-103055618D02*
X169463409Y-102960380D01*
X169463409Y-102960380D02*
X169439600Y-102912761D01*
X169439600Y-102912761D02*
X169415790Y-102888952D01*
X169415790Y-102888952D02*
X169368171Y-102865142D01*
X169368171Y-102865142D02*
X169272933Y-102865142D01*
X169272933Y-102865142D02*
X169225314Y-102888952D01*
X169225314Y-102888952D02*
X169201504Y-102912761D01*
X169201504Y-102912761D02*
X169177695Y-102960380D01*
X167431409Y-103341333D02*
X167193314Y-103507999D01*
X167431409Y-103627047D02*
X166931409Y-103627047D01*
X166931409Y-103627047D02*
X166931409Y-103436571D01*
X166931409Y-103436571D02*
X166955219Y-103388952D01*
X166955219Y-103388952D02*
X166979028Y-103365142D01*
X166979028Y-103365142D02*
X167026647Y-103341333D01*
X167026647Y-103341333D02*
X167098076Y-103341333D01*
X167098076Y-103341333D02*
X167145695Y-103365142D01*
X167145695Y-103365142D02*
X167169504Y-103388952D01*
X167169504Y-103388952D02*
X167193314Y-103436571D01*
X167193314Y-103436571D02*
X167193314Y-103627047D01*
X166931409Y-103174666D02*
X166931409Y-102841333D01*
X166931409Y-102841333D02*
X167431409Y-103055618D01*
X165427409Y-103389269D02*
X165189314Y-103555935D01*
X165427409Y-103674983D02*
X164927409Y-103674983D01*
X164927409Y-103674983D02*
X164927409Y-103484507D01*
X164927409Y-103484507D02*
X164951219Y-103436888D01*
X164951219Y-103436888D02*
X164975028Y-103413078D01*
X164975028Y-103413078D02*
X165022647Y-103389269D01*
X165022647Y-103389269D02*
X165094076Y-103389269D01*
X165094076Y-103389269D02*
X165141695Y-103413078D01*
X165141695Y-103413078D02*
X165165504Y-103436888D01*
X165165504Y-103436888D02*
X165189314Y-103484507D01*
X165189314Y-103484507D02*
X165189314Y-103674983D01*
X164927409Y-102960697D02*
X164927409Y-103055935D01*
X164927409Y-103055935D02*
X164951219Y-103103554D01*
X164951219Y-103103554D02*
X164975028Y-103127364D01*
X164975028Y-103127364D02*
X165046457Y-103174983D01*
X165046457Y-103174983D02*
X165141695Y-103198792D01*
X165141695Y-103198792D02*
X165332171Y-103198792D01*
X165332171Y-103198792D02*
X165379790Y-103174983D01*
X165379790Y-103174983D02*
X165403600Y-103151173D01*
X165403600Y-103151173D02*
X165427409Y-103103554D01*
X165427409Y-103103554D02*
X165427409Y-103008316D01*
X165427409Y-103008316D02*
X165403600Y-102960697D01*
X165403600Y-102960697D02*
X165379790Y-102936888D01*
X165379790Y-102936888D02*
X165332171Y-102913078D01*
X165332171Y-102913078D02*
X165213123Y-102913078D01*
X165213123Y-102913078D02*
X165165504Y-102936888D01*
X165165504Y-102936888D02*
X165141695Y-102960697D01*
X165141695Y-102960697D02*
X165117885Y-103008316D01*
X165117885Y-103008316D02*
X165117885Y-103103554D01*
X165117885Y-103103554D02*
X165141695Y-103151173D01*
X165141695Y-103151173D02*
X165165504Y-103174983D01*
X165165504Y-103174983D02*
X165213123Y-103198792D01*
X163367409Y-103341333D02*
X163129314Y-103507999D01*
X163367409Y-103627047D02*
X162867409Y-103627047D01*
X162867409Y-103627047D02*
X162867409Y-103436571D01*
X162867409Y-103436571D02*
X162891219Y-103388952D01*
X162891219Y-103388952D02*
X162915028Y-103365142D01*
X162915028Y-103365142D02*
X162962647Y-103341333D01*
X162962647Y-103341333D02*
X163034076Y-103341333D01*
X163034076Y-103341333D02*
X163081695Y-103365142D01*
X163081695Y-103365142D02*
X163105504Y-103388952D01*
X163105504Y-103388952D02*
X163129314Y-103436571D01*
X163129314Y-103436571D02*
X163129314Y-103627047D01*
X162867409Y-102888952D02*
X162867409Y-103127047D01*
X162867409Y-103127047D02*
X163105504Y-103150856D01*
X163105504Y-103150856D02*
X163081695Y-103127047D01*
X163081695Y-103127047D02*
X163057885Y-103079428D01*
X163057885Y-103079428D02*
X163057885Y-102960380D01*
X163057885Y-102960380D02*
X163081695Y-102912761D01*
X163081695Y-102912761D02*
X163105504Y-102888952D01*
X163105504Y-102888952D02*
X163153123Y-102865142D01*
X163153123Y-102865142D02*
X163272171Y-102865142D01*
X163272171Y-102865142D02*
X163319790Y-102888952D01*
X163319790Y-102888952D02*
X163343600Y-102912761D01*
X163343600Y-102912761D02*
X163367409Y-102960380D01*
X163367409Y-102960380D02*
X163367409Y-103079428D01*
X163367409Y-103079428D02*
X163343600Y-103127047D01*
X163343600Y-103127047D02*
X163319790Y-103150856D01*
X152953409Y-103341333D02*
X152715314Y-103507999D01*
X152953409Y-103627047D02*
X152453409Y-103627047D01*
X152453409Y-103627047D02*
X152453409Y-103436571D01*
X152453409Y-103436571D02*
X152477219Y-103388952D01*
X152477219Y-103388952D02*
X152501028Y-103365142D01*
X152501028Y-103365142D02*
X152548647Y-103341333D01*
X152548647Y-103341333D02*
X152620076Y-103341333D01*
X152620076Y-103341333D02*
X152667695Y-103365142D01*
X152667695Y-103365142D02*
X152691504Y-103388952D01*
X152691504Y-103388952D02*
X152715314Y-103436571D01*
X152715314Y-103436571D02*
X152715314Y-103627047D01*
X152620076Y-102912761D02*
X152953409Y-102912761D01*
X152429600Y-103031809D02*
X152786742Y-103150856D01*
X152786742Y-103150856D02*
X152786742Y-102841333D01*
X150176333Y-103725590D02*
X150342999Y-103963685D01*
X150462047Y-103725590D02*
X150462047Y-104225590D01*
X150462047Y-104225590D02*
X150271571Y-104225590D01*
X150271571Y-104225590D02*
X150223952Y-104201780D01*
X150223952Y-104201780D02*
X150200142Y-104177971D01*
X150200142Y-104177971D02*
X150176333Y-104130352D01*
X150176333Y-104130352D02*
X150176333Y-104058923D01*
X150176333Y-104058923D02*
X150200142Y-104011304D01*
X150200142Y-104011304D02*
X150223952Y-103987495D01*
X150223952Y-103987495D02*
X150271571Y-103963685D01*
X150271571Y-103963685D02*
X150462047Y-103963685D01*
X150009666Y-104225590D02*
X149700142Y-104225590D01*
X149700142Y-104225590D02*
X149866809Y-104035114D01*
X149866809Y-104035114D02*
X149795380Y-104035114D01*
X149795380Y-104035114D02*
X149747761Y-104011304D01*
X149747761Y-104011304D02*
X149723952Y-103987495D01*
X149723952Y-103987495D02*
X149700142Y-103939876D01*
X149700142Y-103939876D02*
X149700142Y-103820828D01*
X149700142Y-103820828D02*
X149723952Y-103773209D01*
X149723952Y-103773209D02*
X149747761Y-103749400D01*
X149747761Y-103749400D02*
X149795380Y-103725590D01*
X149795380Y-103725590D02*
X149938237Y-103725590D01*
X149938237Y-103725590D02*
X149985856Y-103749400D01*
X149985856Y-103749400D02*
X150009666Y-103773209D01*
X151319333Y-92422590D02*
X151485999Y-92660685D01*
X151605047Y-92422590D02*
X151605047Y-92922590D01*
X151605047Y-92922590D02*
X151414571Y-92922590D01*
X151414571Y-92922590D02*
X151366952Y-92898780D01*
X151366952Y-92898780D02*
X151343142Y-92874971D01*
X151343142Y-92874971D02*
X151319333Y-92827352D01*
X151319333Y-92827352D02*
X151319333Y-92755923D01*
X151319333Y-92755923D02*
X151343142Y-92708304D01*
X151343142Y-92708304D02*
X151366952Y-92684495D01*
X151366952Y-92684495D02*
X151414571Y-92660685D01*
X151414571Y-92660685D02*
X151605047Y-92660685D01*
X151128856Y-92874971D02*
X151105047Y-92898780D01*
X151105047Y-92898780D02*
X151057428Y-92922590D01*
X151057428Y-92922590D02*
X150938380Y-92922590D01*
X150938380Y-92922590D02*
X150890761Y-92898780D01*
X150890761Y-92898780D02*
X150866952Y-92874971D01*
X150866952Y-92874971D02*
X150843142Y-92827352D01*
X150843142Y-92827352D02*
X150843142Y-92779733D01*
X150843142Y-92779733D02*
X150866952Y-92708304D01*
X150866952Y-92708304D02*
X151152666Y-92422590D01*
X151152666Y-92422590D02*
X150843142Y-92422590D01*
X151829666Y-92386409D02*
X151663000Y-92148314D01*
X151543952Y-92386409D02*
X151543952Y-91886409D01*
X151543952Y-91886409D02*
X151734428Y-91886409D01*
X151734428Y-91886409D02*
X151782047Y-91910219D01*
X151782047Y-91910219D02*
X151805857Y-91934028D01*
X151805857Y-91934028D02*
X151829666Y-91981647D01*
X151829666Y-91981647D02*
X151829666Y-92053076D01*
X151829666Y-92053076D02*
X151805857Y-92100695D01*
X151805857Y-92100695D02*
X151782047Y-92124504D01*
X151782047Y-92124504D02*
X151734428Y-92148314D01*
X151734428Y-92148314D02*
X151543952Y-92148314D01*
X152305857Y-92386409D02*
X152020143Y-92386409D01*
X152163000Y-92386409D02*
X152163000Y-91886409D01*
X152163000Y-91886409D02*
X152115381Y-91957838D01*
X152115381Y-91957838D02*
X152067762Y-92005457D01*
X152067762Y-92005457D02*
X152020143Y-92029266D01*
X161242380Y-101408028D02*
X161194761Y-101384219D01*
X161194761Y-101384219D02*
X161147142Y-101336600D01*
X161147142Y-101336600D02*
X161075714Y-101265171D01*
X161075714Y-101265171D02*
X161028095Y-101241361D01*
X161028095Y-101241361D02*
X160980476Y-101241361D01*
X161004285Y-101360409D02*
X160956666Y-101336600D01*
X160956666Y-101336600D02*
X160909047Y-101288980D01*
X160909047Y-101288980D02*
X160885238Y-101193742D01*
X160885238Y-101193742D02*
X160885238Y-101027076D01*
X160885238Y-101027076D02*
X160909047Y-100931838D01*
X160909047Y-100931838D02*
X160956666Y-100884219D01*
X160956666Y-100884219D02*
X161004285Y-100860409D01*
X161004285Y-100860409D02*
X161099523Y-100860409D01*
X161099523Y-100860409D02*
X161147142Y-100884219D01*
X161147142Y-100884219D02*
X161194761Y-100931838D01*
X161194761Y-100931838D02*
X161218571Y-101027076D01*
X161218571Y-101027076D02*
X161218571Y-101193742D01*
X161218571Y-101193742D02*
X161194761Y-101288980D01*
X161194761Y-101288980D02*
X161147142Y-101336600D01*
X161147142Y-101336600D02*
X161099523Y-101360409D01*
X161099523Y-101360409D02*
X161004285Y-101360409D01*
X161385238Y-100860409D02*
X161694762Y-100860409D01*
X161694762Y-100860409D02*
X161528095Y-101050885D01*
X161528095Y-101050885D02*
X161599524Y-101050885D01*
X161599524Y-101050885D02*
X161647143Y-101074695D01*
X161647143Y-101074695D02*
X161670952Y-101098504D01*
X161670952Y-101098504D02*
X161694762Y-101146123D01*
X161694762Y-101146123D02*
X161694762Y-101265171D01*
X161694762Y-101265171D02*
X161670952Y-101312790D01*
X161670952Y-101312790D02*
X161647143Y-101336600D01*
X161647143Y-101336600D02*
X161599524Y-101360409D01*
X161599524Y-101360409D02*
X161456667Y-101360409D01*
X161456667Y-101360409D02*
X161409048Y-101336600D01*
X161409048Y-101336600D02*
X161385238Y-101312790D01*
X157178380Y-101408028D02*
X157130761Y-101384219D01*
X157130761Y-101384219D02*
X157083142Y-101336600D01*
X157083142Y-101336600D02*
X157011714Y-101265171D01*
X157011714Y-101265171D02*
X156964095Y-101241361D01*
X156964095Y-101241361D02*
X156916476Y-101241361D01*
X156940285Y-101360409D02*
X156892666Y-101336600D01*
X156892666Y-101336600D02*
X156845047Y-101288980D01*
X156845047Y-101288980D02*
X156821238Y-101193742D01*
X156821238Y-101193742D02*
X156821238Y-101027076D01*
X156821238Y-101027076D02*
X156845047Y-100931838D01*
X156845047Y-100931838D02*
X156892666Y-100884219D01*
X156892666Y-100884219D02*
X156940285Y-100860409D01*
X156940285Y-100860409D02*
X157035523Y-100860409D01*
X157035523Y-100860409D02*
X157083142Y-100884219D01*
X157083142Y-100884219D02*
X157130761Y-100931838D01*
X157130761Y-100931838D02*
X157154571Y-101027076D01*
X157154571Y-101027076D02*
X157154571Y-101193742D01*
X157154571Y-101193742D02*
X157130761Y-101288980D01*
X157130761Y-101288980D02*
X157083142Y-101336600D01*
X157083142Y-101336600D02*
X157035523Y-101360409D01*
X157035523Y-101360409D02*
X156940285Y-101360409D01*
X157345048Y-100908028D02*
X157368857Y-100884219D01*
X157368857Y-100884219D02*
X157416476Y-100860409D01*
X157416476Y-100860409D02*
X157535524Y-100860409D01*
X157535524Y-100860409D02*
X157583143Y-100884219D01*
X157583143Y-100884219D02*
X157606952Y-100908028D01*
X157606952Y-100908028D02*
X157630762Y-100955647D01*
X157630762Y-100955647D02*
X157630762Y-101003266D01*
X157630762Y-101003266D02*
X157606952Y-101074695D01*
X157606952Y-101074695D02*
X157321238Y-101360409D01*
X157321238Y-101360409D02*
X157630762Y-101360409D01*
X150320380Y-103424028D02*
X150272761Y-103400219D01*
X150272761Y-103400219D02*
X150225142Y-103352600D01*
X150225142Y-103352600D02*
X150153714Y-103281171D01*
X150153714Y-103281171D02*
X150106095Y-103257361D01*
X150106095Y-103257361D02*
X150058476Y-103257361D01*
X150082285Y-103376409D02*
X150034666Y-103352600D01*
X150034666Y-103352600D02*
X149987047Y-103304980D01*
X149987047Y-103304980D02*
X149963238Y-103209742D01*
X149963238Y-103209742D02*
X149963238Y-103043076D01*
X149963238Y-103043076D02*
X149987047Y-102947838D01*
X149987047Y-102947838D02*
X150034666Y-102900219D01*
X150034666Y-102900219D02*
X150082285Y-102876409D01*
X150082285Y-102876409D02*
X150177523Y-102876409D01*
X150177523Y-102876409D02*
X150225142Y-102900219D01*
X150225142Y-102900219D02*
X150272761Y-102947838D01*
X150272761Y-102947838D02*
X150296571Y-103043076D01*
X150296571Y-103043076D02*
X150296571Y-103209742D01*
X150296571Y-103209742D02*
X150272761Y-103304980D01*
X150272761Y-103304980D02*
X150225142Y-103352600D01*
X150225142Y-103352600D02*
X150177523Y-103376409D01*
X150177523Y-103376409D02*
X150082285Y-103376409D01*
X150772762Y-103376409D02*
X150487048Y-103376409D01*
X150629905Y-103376409D02*
X150629905Y-102876409D01*
X150629905Y-102876409D02*
X150582286Y-102947838D01*
X150582286Y-102947838D02*
X150534667Y-102995457D01*
X150534667Y-102995457D02*
X150487048Y-103019266D01*
X162916666Y-101455090D02*
X162916666Y-101097947D01*
X162916666Y-101097947D02*
X162940475Y-101026519D01*
X162940475Y-101026519D02*
X162988094Y-100978900D01*
X162988094Y-100978900D02*
X163059523Y-100955090D01*
X163059523Y-100955090D02*
X163107142Y-100955090D01*
X162416666Y-100955090D02*
X162702380Y-100955090D01*
X162559523Y-100955090D02*
X162559523Y-101455090D01*
X162559523Y-101455090D02*
X162607142Y-101383661D01*
X162607142Y-101383661D02*
X162654761Y-101336042D01*
X162654761Y-101336042D02*
X162702380Y-101312233D01*
X150869047Y-132272590D02*
X150869047Y-132772590D01*
X150869047Y-132772590D02*
X150749999Y-132772590D01*
X150749999Y-132772590D02*
X150678571Y-132748780D01*
X150678571Y-132748780D02*
X150630952Y-132701161D01*
X150630952Y-132701161D02*
X150607142Y-132653542D01*
X150607142Y-132653542D02*
X150583333Y-132558304D01*
X150583333Y-132558304D02*
X150583333Y-132486876D01*
X150583333Y-132486876D02*
X150607142Y-132391638D01*
X150607142Y-132391638D02*
X150630952Y-132344019D01*
X150630952Y-132344019D02*
X150678571Y-132296400D01*
X150678571Y-132296400D02*
X150749999Y-132272590D01*
X150749999Y-132272590D02*
X150869047Y-132272590D01*
X150154761Y-132772590D02*
X150249999Y-132772590D01*
X150249999Y-132772590D02*
X150297618Y-132748780D01*
X150297618Y-132748780D02*
X150321428Y-132724971D01*
X150321428Y-132724971D02*
X150369047Y-132653542D01*
X150369047Y-132653542D02*
X150392856Y-132558304D01*
X150392856Y-132558304D02*
X150392856Y-132367828D01*
X150392856Y-132367828D02*
X150369047Y-132320209D01*
X150369047Y-132320209D02*
X150345237Y-132296400D01*
X150345237Y-132296400D02*
X150297618Y-132272590D01*
X150297618Y-132272590D02*
X150202380Y-132272590D01*
X150202380Y-132272590D02*
X150154761Y-132296400D01*
X150154761Y-132296400D02*
X150130952Y-132320209D01*
X150130952Y-132320209D02*
X150107142Y-132367828D01*
X150107142Y-132367828D02*
X150107142Y-132486876D01*
X150107142Y-132486876D02*
X150130952Y-132534495D01*
X150130952Y-132534495D02*
X150154761Y-132558304D01*
X150154761Y-132558304D02*
X150202380Y-132582114D01*
X150202380Y-132582114D02*
X150297618Y-132582114D01*
X150297618Y-132582114D02*
X150345237Y-132558304D01*
X150345237Y-132558304D02*
X150369047Y-132534495D01*
X150369047Y-132534495D02*
X150392856Y-132486876D01*
X174130952Y-127727409D02*
X174130952Y-127227409D01*
X174130952Y-127227409D02*
X174250000Y-127227409D01*
X174250000Y-127227409D02*
X174321428Y-127251219D01*
X174321428Y-127251219D02*
X174369047Y-127298838D01*
X174369047Y-127298838D02*
X174392857Y-127346457D01*
X174392857Y-127346457D02*
X174416666Y-127441695D01*
X174416666Y-127441695D02*
X174416666Y-127513123D01*
X174416666Y-127513123D02*
X174392857Y-127608361D01*
X174392857Y-127608361D02*
X174369047Y-127655980D01*
X174369047Y-127655980D02*
X174321428Y-127703600D01*
X174321428Y-127703600D02*
X174250000Y-127727409D01*
X174250000Y-127727409D02*
X174130952Y-127727409D01*
X174869047Y-127227409D02*
X174630952Y-127227409D01*
X174630952Y-127227409D02*
X174607143Y-127465504D01*
X174607143Y-127465504D02*
X174630952Y-127441695D01*
X174630952Y-127441695D02*
X174678571Y-127417885D01*
X174678571Y-127417885D02*
X174797619Y-127417885D01*
X174797619Y-127417885D02*
X174845238Y-127441695D01*
X174845238Y-127441695D02*
X174869047Y-127465504D01*
X174869047Y-127465504D02*
X174892857Y-127513123D01*
X174892857Y-127513123D02*
X174892857Y-127632171D01*
X174892857Y-127632171D02*
X174869047Y-127679790D01*
X174869047Y-127679790D02*
X174845238Y-127703600D01*
X174845238Y-127703600D02*
X174797619Y-127727409D01*
X174797619Y-127727409D02*
X174678571Y-127727409D01*
X174678571Y-127727409D02*
X174630952Y-127703600D01*
X174630952Y-127703600D02*
X174607143Y-127679790D01*
X174090409Y-97504047D02*
X173590409Y-97504047D01*
X173590409Y-97504047D02*
X173590409Y-97384999D01*
X173590409Y-97384999D02*
X173614219Y-97313571D01*
X173614219Y-97313571D02*
X173661838Y-97265952D01*
X173661838Y-97265952D02*
X173709457Y-97242142D01*
X173709457Y-97242142D02*
X173804695Y-97218333D01*
X173804695Y-97218333D02*
X173876123Y-97218333D01*
X173876123Y-97218333D02*
X173971361Y-97242142D01*
X173971361Y-97242142D02*
X174018980Y-97265952D01*
X174018980Y-97265952D02*
X174066600Y-97313571D01*
X174066600Y-97313571D02*
X174090409Y-97384999D01*
X174090409Y-97384999D02*
X174090409Y-97504047D01*
X173757076Y-96789761D02*
X174090409Y-96789761D01*
X173566600Y-96908809D02*
X173923742Y-97027856D01*
X173923742Y-97027856D02*
X173923742Y-96718333D01*
X177826590Y-96701952D02*
X178326590Y-96701952D01*
X178326590Y-96701952D02*
X178326590Y-96821000D01*
X178326590Y-96821000D02*
X178302780Y-96892428D01*
X178302780Y-96892428D02*
X178255161Y-96940047D01*
X178255161Y-96940047D02*
X178207542Y-96963857D01*
X178207542Y-96963857D02*
X178112304Y-96987666D01*
X178112304Y-96987666D02*
X178040876Y-96987666D01*
X178040876Y-96987666D02*
X177945638Y-96963857D01*
X177945638Y-96963857D02*
X177898019Y-96940047D01*
X177898019Y-96940047D02*
X177850400Y-96892428D01*
X177850400Y-96892428D02*
X177826590Y-96821000D01*
X177826590Y-96821000D02*
X177826590Y-96701952D01*
X178326590Y-97154333D02*
X178326590Y-97463857D01*
X178326590Y-97463857D02*
X178136114Y-97297190D01*
X178136114Y-97297190D02*
X178136114Y-97368619D01*
X178136114Y-97368619D02*
X178112304Y-97416238D01*
X178112304Y-97416238D02*
X178088495Y-97440047D01*
X178088495Y-97440047D02*
X178040876Y-97463857D01*
X178040876Y-97463857D02*
X177921828Y-97463857D01*
X177921828Y-97463857D02*
X177874209Y-97440047D01*
X177874209Y-97440047D02*
X177850400Y-97416238D01*
X177850400Y-97416238D02*
X177826590Y-97368619D01*
X177826590Y-97368619D02*
X177826590Y-97225762D01*
X177826590Y-97225762D02*
X177850400Y-97178143D01*
X177850400Y-97178143D02*
X177874209Y-97154333D01*
X174001952Y-98505409D02*
X174001952Y-98005409D01*
X174001952Y-98005409D02*
X174121000Y-98005409D01*
X174121000Y-98005409D02*
X174192428Y-98029219D01*
X174192428Y-98029219D02*
X174240047Y-98076838D01*
X174240047Y-98076838D02*
X174263857Y-98124457D01*
X174263857Y-98124457D02*
X174287666Y-98219695D01*
X174287666Y-98219695D02*
X174287666Y-98291123D01*
X174287666Y-98291123D02*
X174263857Y-98386361D01*
X174263857Y-98386361D02*
X174240047Y-98433980D01*
X174240047Y-98433980D02*
X174192428Y-98481600D01*
X174192428Y-98481600D02*
X174121000Y-98505409D01*
X174121000Y-98505409D02*
X174001952Y-98505409D01*
X174478143Y-98053028D02*
X174501952Y-98029219D01*
X174501952Y-98029219D02*
X174549571Y-98005409D01*
X174549571Y-98005409D02*
X174668619Y-98005409D01*
X174668619Y-98005409D02*
X174716238Y-98029219D01*
X174716238Y-98029219D02*
X174740047Y-98053028D01*
X174740047Y-98053028D02*
X174763857Y-98100647D01*
X174763857Y-98100647D02*
X174763857Y-98148266D01*
X174763857Y-98148266D02*
X174740047Y-98219695D01*
X174740047Y-98219695D02*
X174454333Y-98505409D01*
X174454333Y-98505409D02*
X174763857Y-98505409D01*
X178027409Y-98719047D02*
X177527409Y-98719047D01*
X177527409Y-98719047D02*
X177527409Y-98599999D01*
X177527409Y-98599999D02*
X177551219Y-98528571D01*
X177551219Y-98528571D02*
X177598838Y-98480952D01*
X177598838Y-98480952D02*
X177646457Y-98457142D01*
X177646457Y-98457142D02*
X177741695Y-98433333D01*
X177741695Y-98433333D02*
X177813123Y-98433333D01*
X177813123Y-98433333D02*
X177908361Y-98457142D01*
X177908361Y-98457142D02*
X177955980Y-98480952D01*
X177955980Y-98480952D02*
X178003600Y-98528571D01*
X178003600Y-98528571D02*
X178027409Y-98599999D01*
X178027409Y-98599999D02*
X178027409Y-98719047D01*
X178027409Y-97957142D02*
X178027409Y-98242856D01*
X178027409Y-98099999D02*
X177527409Y-98099999D01*
X177527409Y-98099999D02*
X177598838Y-98147618D01*
X177598838Y-98147618D02*
X177646457Y-98195237D01*
X177646457Y-98195237D02*
X177670266Y-98242856D01*
X150083333Y-127870209D02*
X150107142Y-127846400D01*
X150107142Y-127846400D02*
X150178571Y-127822590D01*
X150178571Y-127822590D02*
X150226190Y-127822590D01*
X150226190Y-127822590D02*
X150297618Y-127846400D01*
X150297618Y-127846400D02*
X150345237Y-127894019D01*
X150345237Y-127894019D02*
X150369047Y-127941638D01*
X150369047Y-127941638D02*
X150392856Y-128036876D01*
X150392856Y-128036876D02*
X150392856Y-128108304D01*
X150392856Y-128108304D02*
X150369047Y-128203542D01*
X150369047Y-128203542D02*
X150345237Y-128251161D01*
X150345237Y-128251161D02*
X150297618Y-128298780D01*
X150297618Y-128298780D02*
X150226190Y-128322590D01*
X150226190Y-128322590D02*
X150178571Y-128322590D01*
X150178571Y-128322590D02*
X150107142Y-128298780D01*
X150107142Y-128298780D02*
X150083333Y-128274971D01*
X149916666Y-128322590D02*
X149607142Y-128322590D01*
X149607142Y-128322590D02*
X149773809Y-128132114D01*
X149773809Y-128132114D02*
X149702380Y-128132114D01*
X149702380Y-128132114D02*
X149654761Y-128108304D01*
X149654761Y-128108304D02*
X149630952Y-128084495D01*
X149630952Y-128084495D02*
X149607142Y-128036876D01*
X149607142Y-128036876D02*
X149607142Y-127917828D01*
X149607142Y-127917828D02*
X149630952Y-127870209D01*
X149630952Y-127870209D02*
X149654761Y-127846400D01*
X149654761Y-127846400D02*
X149702380Y-127822590D01*
X149702380Y-127822590D02*
X149845237Y-127822590D01*
X149845237Y-127822590D02*
X149892856Y-127846400D01*
X149892856Y-127846400D02*
X149916666Y-127870209D01*
X174416666Y-107129790D02*
X174392857Y-107153600D01*
X174392857Y-107153600D02*
X174321428Y-107177409D01*
X174321428Y-107177409D02*
X174273809Y-107177409D01*
X174273809Y-107177409D02*
X174202381Y-107153600D01*
X174202381Y-107153600D02*
X174154762Y-107105980D01*
X174154762Y-107105980D02*
X174130952Y-107058361D01*
X174130952Y-107058361D02*
X174107143Y-106963123D01*
X174107143Y-106963123D02*
X174107143Y-106891695D01*
X174107143Y-106891695D02*
X174130952Y-106796457D01*
X174130952Y-106796457D02*
X174154762Y-106748838D01*
X174154762Y-106748838D02*
X174202381Y-106701219D01*
X174202381Y-106701219D02*
X174273809Y-106677409D01*
X174273809Y-106677409D02*
X174321428Y-106677409D01*
X174321428Y-106677409D02*
X174392857Y-106701219D01*
X174392857Y-106701219D02*
X174416666Y-106725028D01*
X174607143Y-106725028D02*
X174630952Y-106701219D01*
X174630952Y-106701219D02*
X174678571Y-106677409D01*
X174678571Y-106677409D02*
X174797619Y-106677409D01*
X174797619Y-106677409D02*
X174845238Y-106701219D01*
X174845238Y-106701219D02*
X174869047Y-106725028D01*
X174869047Y-106725028D02*
X174892857Y-106772647D01*
X174892857Y-106772647D02*
X174892857Y-106820266D01*
X174892857Y-106820266D02*
X174869047Y-106891695D01*
X174869047Y-106891695D02*
X174583333Y-107177409D01*
X174583333Y-107177409D02*
X174892857Y-107177409D01*
X141117790Y-95185333D02*
X141141600Y-95209142D01*
X141141600Y-95209142D02*
X141165409Y-95280571D01*
X141165409Y-95280571D02*
X141165409Y-95328190D01*
X141165409Y-95328190D02*
X141141600Y-95399618D01*
X141141600Y-95399618D02*
X141093980Y-95447237D01*
X141093980Y-95447237D02*
X141046361Y-95471047D01*
X141046361Y-95471047D02*
X140951123Y-95494856D01*
X140951123Y-95494856D02*
X140879695Y-95494856D01*
X140879695Y-95494856D02*
X140784457Y-95471047D01*
X140784457Y-95471047D02*
X140736838Y-95447237D01*
X140736838Y-95447237D02*
X140689219Y-95399618D01*
X140689219Y-95399618D02*
X140665409Y-95328190D01*
X140665409Y-95328190D02*
X140665409Y-95280571D01*
X140665409Y-95280571D02*
X140689219Y-95209142D01*
X140689219Y-95209142D02*
X140713028Y-95185333D01*
X141165409Y-94709142D02*
X141165409Y-94994856D01*
X141165409Y-94851999D02*
X140665409Y-94851999D01*
X140665409Y-94851999D02*
X140736838Y-94899618D01*
X140736838Y-94899618D02*
X140784457Y-94947237D01*
X140784457Y-94947237D02*
X140808266Y-94994856D01*
X143636952Y-107095590D02*
X143636952Y-106690828D01*
X143636952Y-106690828D02*
X143613142Y-106643209D01*
X143613142Y-106643209D02*
X143589333Y-106619400D01*
X143589333Y-106619400D02*
X143541714Y-106595590D01*
X143541714Y-106595590D02*
X143446476Y-106595590D01*
X143446476Y-106595590D02*
X143398857Y-106619400D01*
X143398857Y-106619400D02*
X143375047Y-106643209D01*
X143375047Y-106643209D02*
X143351238Y-106690828D01*
X143351238Y-106690828D02*
X143351238Y-107095590D01*
X142851237Y-106595590D02*
X143136951Y-106595590D01*
X142994094Y-106595590D02*
X142994094Y-107095590D01*
X142994094Y-107095590D02*
X143041713Y-107024161D01*
X143041713Y-107024161D02*
X143089332Y-106976542D01*
X143089332Y-106976542D02*
X143136951Y-106952733D01*
D11*
%TO.C,RV1*%
X149268000Y-100426000D02*
X149268000Y-95686000D01*
X149578000Y-100426000D02*
X149268000Y-100426000D01*
X150378000Y-95686000D02*
X149268000Y-95686000D01*
X151878000Y-100426000D02*
X151398000Y-100426000D01*
X154008000Y-95686000D02*
X152908000Y-95686000D01*
X154008000Y-100426000D02*
X153698000Y-100426000D01*
X154008000Y-100426000D02*
X154008000Y-95686000D01*
%TO.C,R8*%
X171296000Y-103760064D02*
X171296000Y-103305936D01*
X169826000Y-103760064D02*
X169826000Y-103305936D01*
%TO.C,R7*%
X169264000Y-103760064D02*
X169264000Y-103305936D01*
X167794000Y-103760064D02*
X167794000Y-103305936D01*
%TO.C,R6*%
X167232000Y-103760064D02*
X167232000Y-103305936D01*
X165762000Y-103760064D02*
X165762000Y-103305936D01*
%TO.C,R5*%
X165200000Y-103760064D02*
X165200000Y-103305936D01*
X163730000Y-103760064D02*
X163730000Y-103305936D01*
%TO.C,R4*%
X154786000Y-103760064D02*
X154786000Y-103305936D01*
X153316000Y-103760064D02*
X153316000Y-103305936D01*
%TO.C,R3*%
X150595064Y-101893000D02*
X150140936Y-101893000D01*
X150595064Y-103363000D02*
X150140936Y-103363000D01*
%TO.C,R2*%
X151738064Y-92060000D02*
X151283936Y-92060000D01*
X151738064Y-90590000D02*
X151283936Y-90590000D01*
%TO.C,R1*%
X151410936Y-94219000D02*
X151865064Y-94219000D01*
X151410936Y-92749000D02*
X151865064Y-92749000D01*
%TO.C,Q3*%
X160127500Y-102023000D02*
X159887500Y-101693000D01*
X160367500Y-101693000D01*
X160127500Y-102023000D01*
G36*
X160127500Y-102023000D02*
G01*
X159887500Y-101693000D01*
X160367500Y-101693000D01*
X160127500Y-102023000D01*
G37*
X161290000Y-105093000D02*
X161940000Y-105093000D01*
X161290000Y-105093000D02*
X160640000Y-105093000D01*
X161290000Y-101973000D02*
X161940000Y-101973000D01*
X161290000Y-101973000D02*
X160640000Y-101973000D01*
%TO.C,Q2*%
X156063500Y-102023000D02*
X155823500Y-101693000D01*
X156303500Y-101693000D01*
X156063500Y-102023000D01*
G36*
X156063500Y-102023000D02*
G01*
X155823500Y-101693000D01*
X156303500Y-101693000D01*
X156063500Y-102023000D01*
G37*
X157226000Y-105093000D02*
X157876000Y-105093000D01*
X157226000Y-105093000D02*
X156576000Y-105093000D01*
X157226000Y-101973000D02*
X157876000Y-101973000D01*
X157226000Y-101973000D02*
X156576000Y-101973000D01*
%TO.C,Q1*%
X149205500Y-104039000D02*
X148965500Y-103709000D01*
X149445500Y-103709000D01*
X149205500Y-104039000D01*
G36*
X149205500Y-104039000D02*
G01*
X148965500Y-103709000D01*
X149445500Y-103709000D01*
X149205500Y-104039000D01*
G37*
X150368000Y-107109000D02*
X151018000Y-107109000D01*
X150368000Y-107109000D02*
X149718000Y-107109000D01*
X150368000Y-103989000D02*
X151018000Y-103989000D01*
X150368000Y-103989000D02*
X149718000Y-103989000D01*
D12*
%TO.C,J2*%
X155350000Y-128650000D02*
X155350000Y-136550000D01*
X155350000Y-128650000D02*
X170150000Y-128650000D01*
X170150000Y-128650000D02*
X170150000Y-136550000D01*
X170150000Y-136550000D02*
X155350000Y-136550000D01*
D11*
%TO.C,J1*%
X154940000Y-90072500D02*
X154940000Y-99492500D01*
X154940000Y-99492500D02*
X156450000Y-99492500D01*
X159950000Y-99492500D02*
X158550000Y-99492500D01*
X163450000Y-99492500D02*
X162050000Y-99492500D01*
X166950000Y-99492500D02*
X165550000Y-99492500D01*
X167700000Y-100782500D02*
X168000000Y-100182500D01*
X168000000Y-100182500D02*
X168300000Y-100782500D01*
X168300000Y-100782500D02*
X167700000Y-100782500D01*
X170560000Y-90072500D02*
X154940000Y-90072500D01*
X170560000Y-93382500D02*
X154940000Y-93382500D01*
X170560000Y-99492500D02*
X169050000Y-99492500D01*
X170560000Y-99492500D02*
X170560000Y-90072500D01*
%TO.C,D6*%
X154010000Y-131650000D02*
X154010000Y-128350000D01*
X154010000Y-131650000D02*
X148500000Y-131650000D01*
X154010000Y-128350000D02*
X148500000Y-128350000D01*
%TO.C,D5*%
X170990000Y-128350000D02*
X170990000Y-131650000D01*
X170990000Y-128350000D02*
X176500000Y-128350000D01*
X170990000Y-131650000D02*
X176500000Y-131650000D01*
%TO.C,D4*%
X175767000Y-104931000D02*
X175767000Y-99421000D01*
X172467000Y-104931000D02*
X172467000Y-99421000D01*
X172467000Y-104931000D02*
X175767000Y-104931000D01*
%TO.C,D3*%
X176277000Y-97911000D02*
X176277000Y-103421000D01*
X179577000Y-97911000D02*
X179577000Y-103421000D01*
X179577000Y-97911000D02*
X176277000Y-97911000D01*
%TO.C,D2*%
X172467000Y-90482000D02*
X172467000Y-95992000D01*
X175767000Y-90482000D02*
X175767000Y-95992000D01*
X175767000Y-90482000D02*
X172467000Y-90482000D01*
%TO.C,D1*%
X179577000Y-97510000D02*
X179577000Y-92000000D01*
X176277000Y-97510000D02*
X176277000Y-92000000D01*
X176277000Y-97510000D02*
X179577000Y-97510000D01*
%TO.C,C3*%
X162100000Y-124810000D02*
X159850000Y-124810000D01*
X160975000Y-125935000D02*
X160975000Y-123685000D01*
X159610000Y-126045563D02*
X159610000Y-122560000D01*
X159610000Y-126045563D02*
X158545563Y-127110000D01*
X159610000Y-108954437D02*
X159610000Y-112440000D01*
X159610000Y-108954437D02*
X158545563Y-107890000D01*
X158545563Y-127110000D02*
X140390000Y-127110000D01*
X158545563Y-107890000D02*
X140390000Y-107890000D01*
X140390000Y-127110000D02*
X140390000Y-122560000D01*
X140390000Y-107890000D02*
X140390000Y-112440000D01*
%TO.C,C2*%
X162400000Y-110190000D02*
X164650000Y-110190000D01*
X163525000Y-109065000D02*
X163525000Y-111315000D01*
X164890000Y-108954437D02*
X164890000Y-112440000D01*
X164890000Y-108954437D02*
X165954437Y-107890000D01*
X164890000Y-126045563D02*
X164890000Y-122560000D01*
X164890000Y-126045563D02*
X165954437Y-127110000D01*
X165954437Y-107890000D02*
X184110000Y-107890000D01*
X165954437Y-127110000D02*
X184110000Y-127110000D01*
X184110000Y-107890000D02*
X184110000Y-112440000D01*
X184110000Y-127110000D02*
X184110000Y-122560000D01*
%TO.C,C1*%
X148698000Y-91692000D02*
X146348000Y-91692000D01*
X141878000Y-91692000D02*
X144228000Y-91692000D01*
X148698000Y-97447563D02*
X148698000Y-91692000D01*
X141878000Y-97447563D02*
X141878000Y-91692000D01*
X147633563Y-98512000D02*
X148698000Y-97447563D01*
X147633563Y-98512000D02*
X146348000Y-98512000D01*
X142942437Y-98512000D02*
X141878000Y-97447563D01*
X142942437Y-98512000D02*
X144228000Y-98512000D01*
X143046750Y-99145750D02*
X143834250Y-99145750D01*
X143440500Y-99539500D02*
X143440500Y-98752000D01*
%TO.C,U1*%
X147016000Y-106058000D02*
X146536000Y-106058000D01*
X146776000Y-105728000D01*
X147016000Y-106058000D01*
G36*
X147016000Y-106058000D02*
G01*
X146536000Y-106058000D01*
X146776000Y-105728000D01*
X147016000Y-106058000D01*
G37*
X140506000Y-100538000D02*
X140506000Y-100798000D01*
X140506000Y-105988000D02*
X140506000Y-105728000D01*
X143256000Y-100538000D02*
X140506000Y-100538000D01*
X143256000Y-100538000D02*
X146006000Y-100538000D01*
X143256000Y-105988000D02*
X140506000Y-105988000D01*
X143256000Y-105988000D02*
X146006000Y-105988000D01*
X146006000Y-100538000D02*
X146006000Y-100798000D01*
X146006000Y-105988000D02*
X146006000Y-105728000D01*
%TD*%
%LPC*%
D13*
%TO.C,RV1*%
X150488000Y-100056000D03*
D14*
X151638000Y-96056000D03*
D13*
X152788000Y-100056000D03*
%TD*%
D15*
%TO.C,R8*%
X170561000Y-102533000D03*
X170561000Y-104533000D03*
%TD*%
%TO.C,R7*%
X168529000Y-102533000D03*
X168529000Y-104533000D03*
%TD*%
%TO.C,R6*%
X166497000Y-102533000D03*
X166497000Y-104533000D03*
%TD*%
%TO.C,R5*%
X164465000Y-102533000D03*
X164465000Y-104533000D03*
%TD*%
%TO.C,R4*%
X154051000Y-102533000D03*
X154051000Y-104533000D03*
%TD*%
D16*
%TO.C,R3*%
X149368000Y-102628000D03*
X151368000Y-102628000D03*
%TD*%
%TO.C,R2*%
X152511000Y-91325000D03*
X150511000Y-91325000D03*
%TD*%
D17*
%TO.C,R1*%
X152638000Y-93484000D03*
X150638000Y-93484000D03*
%TD*%
D18*
%TO.C,Q3*%
X162227500Y-103533000D03*
X160352500Y-104483000D03*
X160352500Y-102583000D03*
%TD*%
%TO.C,Q2*%
X158163500Y-103533000D03*
X156288500Y-104483000D03*
X156288500Y-102583000D03*
%TD*%
%TO.C,Q1*%
X151305500Y-105549000D03*
X149430500Y-106499000D03*
X149430500Y-104599000D03*
%TD*%
D19*
%TO.C,J2*%
X168000000Y-130500000D03*
X168000000Y-133000000D03*
X164500000Y-130500000D03*
X164500000Y-133000000D03*
X161000000Y-130500000D03*
X161000000Y-133000000D03*
X157500000Y-130500000D03*
X157500000Y-133000000D03*
%TD*%
D20*
%TO.C,J1*%
X157500000Y-98182500D03*
X161000000Y-98182500D03*
X164500000Y-98182500D03*
D21*
X168000000Y-98182500D03*
%TD*%
D22*
%TO.C,D6*%
X152500000Y-130000000D03*
X148500000Y-130000000D03*
%TD*%
D23*
%TO.C,D5*%
X172500000Y-130000000D03*
X176500000Y-130000000D03*
%TD*%
D24*
%TO.C,D4*%
X174117000Y-99421000D03*
X174117000Y-103421000D03*
%TD*%
D25*
%TO.C,D3*%
X177927000Y-103421000D03*
X177927000Y-99421000D03*
%TD*%
%TO.C,D2*%
X174117000Y-95992000D03*
X174117000Y-91992000D03*
%TD*%
D24*
%TO.C,D1*%
X177927000Y-92000000D03*
X177927000Y-96000000D03*
%TD*%
D26*
%TO.C,C3*%
X156750000Y-117500000D03*
X143250000Y-117500000D03*
%TD*%
D27*
%TO.C,C2*%
X167750000Y-117500000D03*
X181250000Y-117500000D03*
%TD*%
D28*
%TO.C,C1*%
X145288000Y-92402000D03*
X145288000Y-97802000D03*
%TD*%
D29*
%TO.C,U1*%
X139656000Y-105168000D03*
X139656000Y-103898000D03*
X139656000Y-102628000D03*
X139656000Y-101358000D03*
X146856000Y-101358000D03*
X146856000Y-102628000D03*
X146856000Y-103898000D03*
X146856000Y-105168000D03*
%TD*%
%LPD*%
M02*
