%TF.GenerationSoftware,KiCad,Pcbnew,8.0.2*%
%TF.CreationDate,2024-09-21T14:57:53+02:00*%
%TF.ProjectId,FY_entry,46595f65-6e74-4727-992e-6b696361645f,rev?*%
%TF.SameCoordinates,Original*%
%TF.FileFunction,Copper,L4,Bot*%
%TF.FilePolarity,Positive*%
%FSLAX46Y46*%
G04 Gerber Fmt 4.6, Leading zero omitted, Abs format (unit mm)*
G04 Created by KiCad (PCBNEW 8.0.2) date 2024-09-21 14:57:53*
%MOMM*%
%LPD*%
G01*
G04 APERTURE LIST*
G04 Aperture macros list*
%AMRoundRect*
0 Rectangle with rounded corners*
0 $1 Rounding radius*
0 $2 $3 $4 $5 $6 $7 $8 $9 X,Y pos of 4 corners*
0 Add a 4 corners polygon primitive as box body*
4,1,4,$2,$3,$4,$5,$6,$7,$8,$9,$2,$3,0*
0 Add four circle primitives for the rounded corners*
1,1,$1+$1,$2,$3*
1,1,$1+$1,$4,$5*
1,1,$1+$1,$6,$7*
1,1,$1+$1,$8,$9*
0 Add four rect primitives between the rounded corners*
20,1,$1+$1,$2,$3,$4,$5,0*
20,1,$1+$1,$4,$5,$6,$7,0*
20,1,$1+$1,$6,$7,$8,$9,0*
20,1,$1+$1,$8,$9,$2,$3,0*%
G04 Aperture macros list end*
%TA.AperFunction,ComponentPad*%
%ADD10RoundRect,0.250000X-1.550000X0.650000X-1.550000X-0.650000X1.550000X-0.650000X1.550000X0.650000X0*%
%TD*%
%TA.AperFunction,ComponentPad*%
%ADD11O,3.600000X1.800000*%
%TD*%
%TA.AperFunction,ComponentPad*%
%ADD12R,2.400000X1.600000*%
%TD*%
%TA.AperFunction,ComponentPad*%
%ADD13O,2.400000X1.600000*%
%TD*%
%TA.AperFunction,ComponentPad*%
%ADD14C,1.400000*%
%TD*%
%TA.AperFunction,ComponentPad*%
%ADD15O,1.400000X1.400000*%
%TD*%
%TA.AperFunction,ComponentPad*%
%ADD16R,1.050000X1.500000*%
%TD*%
%TA.AperFunction,ComponentPad*%
%ADD17O,1.050000X1.500000*%
%TD*%
%TA.AperFunction,ComponentPad*%
%ADD18C,1.520000*%
%TD*%
%TA.AperFunction,ComponentPad*%
%ADD19R,1.520000X1.520000*%
%TD*%
%TA.AperFunction,ComponentPad*%
%ADD20RoundRect,0.250000X1.550000X-0.650000X1.550000X0.650000X-1.550000X0.650000X-1.550000X-0.650000X0*%
%TD*%
%TA.AperFunction,ComponentPad*%
%ADD21R,1.800000X1.800000*%
%TD*%
%TA.AperFunction,ComponentPad*%
%ADD22O,1.800000X1.800000*%
%TD*%
%TA.AperFunction,ComponentPad*%
%ADD23C,1.600000*%
%TD*%
%TA.AperFunction,ComponentPad*%
%ADD24O,1.600000X1.600000*%
%TD*%
%TA.AperFunction,ComponentPad*%
%ADD25R,1.600000X1.600000*%
%TD*%
%TA.AperFunction,ViaPad*%
%ADD26C,0.800000*%
%TD*%
%TA.AperFunction,Conductor*%
%ADD27C,0.250000*%
%TD*%
G04 APERTURE END LIST*
D10*
%TO.P,J901,1,Pin_1*%
%TO.N,/DCC/ring_right*%
X39000000Y-96000000D03*
D11*
%TO.P,J901,2,Pin_2*%
%TO.N,/DCC/ring_left*%
X39000000Y-99500000D03*
%TO.P,J901,3,Pin_3*%
%TO.N,/atmega/occupied8*%
X39000000Y-103000000D03*
%TO.P,J901,4,Pin_4*%
%TO.N,GND*%
X39000000Y-106500000D03*
%TD*%
D10*
%TO.P,J701,1,Pin_1*%
%TO.N,/DCC/ring_right*%
X39000000Y-79000000D03*
D11*
%TO.P,J701,2,Pin_2*%
%TO.N,/DCC/ring_left*%
X39000000Y-82500000D03*
%TO.P,J701,3,Pin_3*%
%TO.N,/atmega/occupied6*%
X39000000Y-86000000D03*
%TO.P,J701,4,Pin_4*%
%TO.N,GND*%
X39000000Y-89500000D03*
%TD*%
D10*
%TO.P,J501,1,Pin_1*%
%TO.N,/DCC/ring_right*%
X39000000Y-62000000D03*
D11*
%TO.P,J501,2,Pin_2*%
%TO.N,/DCC/ring_left*%
X39000000Y-65500000D03*
%TO.P,J501,3,Pin_3*%
%TO.N,/atmega/occupied4*%
X39000000Y-69000000D03*
%TO.P,J501,4,Pin_4*%
%TO.N,GND*%
X39000000Y-72500000D03*
%TD*%
D10*
%TO.P,J301,1,Pin_1*%
%TO.N,/DCC/ring_right*%
X39000000Y-45000000D03*
D11*
%TO.P,J301,2,Pin_2*%
%TO.N,/DCC/ring_left*%
X39000000Y-48500000D03*
%TO.P,J301,3,Pin_3*%
%TO.N,/atmega/occupied2*%
X39000000Y-52000000D03*
%TO.P,J301,4,Pin_4*%
%TO.N,GND*%
X39000000Y-55500000D03*
%TD*%
D12*
%TO.P,U1301,1,GND*%
%TO.N,GND*%
X59380000Y-79880000D03*
D13*
%TO.P,U1301,2,+*%
%TO.N,Net-(U1301-+)*%
X59380000Y-82420000D03*
%TO.P,U1301,3,-*%
%TO.N,Net-(U1301--)*%
X59380000Y-84960000D03*
%TO.P,U1301,4,V-*%
%TO.N,GND*%
X59380000Y-87500000D03*
%TO.P,U1301,5,BAL*%
%TO.N,unconnected-(U1301-BAL-Pad5)*%
X67000000Y-87500000D03*
%TO.P,U1301,6,STRB*%
%TO.N,unconnected-(U1301-STRB-Pad6)*%
X67000000Y-84960000D03*
%TO.P,U1301,7*%
%TO.N,/Lnet/Lnet_Rx*%
X67000000Y-82420000D03*
%TO.P,U1301,8,V+*%
%TO.N,+5V*%
X67000000Y-79880000D03*
%TD*%
D14*
%TO.P,R1306,1*%
%TO.N,Net-(U1301-+)*%
X59277000Y-74410000D03*
D15*
%TO.P,R1306,2*%
%TO.N,/Lnet/Lnet_Rx*%
X66897000Y-74410000D03*
%TD*%
D14*
%TO.P,R1305,1*%
%TO.N,Net-(Q1301-B)*%
X59277000Y-72124000D03*
D15*
%TO.P,R1305,2*%
%TO.N,/Lnet/Lnet_Tx*%
X66897000Y-72124000D03*
%TD*%
D14*
%TO.P,R1303,1*%
%TO.N,+5V*%
X67127000Y-90907000D03*
D15*
%TO.P,R1303,2*%
%TO.N,Net-(U1301--)*%
X59507000Y-90907000D03*
%TD*%
%TO.P,R1302,2*%
%TO.N,GND*%
X67127000Y-95758000D03*
D14*
%TO.P,R1302,1*%
%TO.N,Net-(U1301-+)*%
X59507000Y-95758000D03*
%TD*%
%TO.P,R1301,1*%
%TO.N,Net-(Q1301-C)*%
X67127000Y-98044000D03*
D15*
%TO.P,R1301,2*%
%TO.N,Net-(U1301-+)*%
X59507000Y-98044000D03*
%TD*%
D16*
%TO.P,Q1301,1,C*%
%TO.N,Net-(Q1301-C)*%
X61690000Y-64920000D03*
D17*
%TO.P,Q1301,2,B*%
%TO.N,Net-(Q1301-B)*%
X62960000Y-64920000D03*
%TO.P,Q1301,3,E*%
%TO.N,GND*%
X64230000Y-64920000D03*
%TD*%
D18*
%TO.P,J1301,6*%
%TO.N,railsyncA*%
X71210000Y-56350000D03*
%TO.P,J1301,5*%
%TO.N,GND*%
X72480000Y-58890000D03*
%TO.P,J1301,4*%
%TO.N,Net-(Q1301-C)*%
X73750000Y-56350000D03*
%TO.P,J1301,3*%
X75020000Y-58890000D03*
%TO.P,J1301,2*%
%TO.N,GND*%
X76290000Y-56350000D03*
D19*
%TO.P,J1301,1*%
%TO.N,railsyncB*%
X77560000Y-58890000D03*
%TD*%
D20*
%TO.P,J1201,1,Pin_1*%
%TO.N,/DCC/ring_left*%
X80500000Y-81195000D03*
D11*
%TO.P,J1201,2,Pin_2*%
%TO.N,/DCC/ring_right*%
X80500000Y-77695000D03*
%TD*%
D20*
%TO.P,J1101,1,Pin_1*%
%TO.N,GND*%
X80567500Y-98695000D03*
D11*
%TO.P,J1101,2,Pin_2*%
%TO.N,/atmega/upline*%
X80567500Y-95195000D03*
%TO.P,J1101,3,Pin_3*%
%TO.N,/DCC/ring_left*%
X80567500Y-91695000D03*
%TO.P,J1101,4,Pin_4*%
%TO.N,/DCC/ring_right*%
X80567500Y-88195000D03*
%TD*%
D10*
%TO.P,J801,1,Pin_1*%
%TO.N,/DCC/ring_right*%
X32000000Y-96000000D03*
D11*
%TO.P,J801,2,Pin_2*%
%TO.N,/DCC/ring_left*%
X32000000Y-99500000D03*
%TO.P,J801,3,Pin_3*%
%TO.N,/atmega/occupied7*%
X32000000Y-103000000D03*
%TO.P,J801,4,Pin_4*%
%TO.N,GND*%
X32000000Y-106500000D03*
%TD*%
D10*
%TO.P,J601,1,Pin_1*%
%TO.N,/DCC/ring_right*%
X32000000Y-79000000D03*
D11*
%TO.P,J601,2,Pin_2*%
%TO.N,/DCC/ring_left*%
X32000000Y-82500000D03*
%TO.P,J601,3,Pin_3*%
%TO.N,/atmega/occupied5*%
X32000000Y-86000000D03*
%TO.P,J601,4,Pin_4*%
%TO.N,GND*%
X32000000Y-89500000D03*
%TD*%
D10*
%TO.P,J401,1,Pin_1*%
%TO.N,/DCC/ring_right*%
X32000000Y-62000000D03*
D11*
%TO.P,J401,2,Pin_2*%
%TO.N,/DCC/ring_left*%
X32000000Y-65500000D03*
%TO.P,J401,3,Pin_3*%
%TO.N,/atmega/occupied3*%
X32000000Y-69000000D03*
%TO.P,J401,4,Pin_4*%
%TO.N,GND*%
X32000000Y-72500000D03*
%TD*%
D10*
%TO.P,J201,1,Pin_1*%
%TO.N,/DCC/ring_right*%
X32000000Y-45000000D03*
D11*
%TO.P,J201,2,Pin_2*%
%TO.N,/DCC/ring_left*%
X32000000Y-48500000D03*
%TO.P,J201,3,Pin_3*%
%TO.N,/atmega/occupied1*%
X32000000Y-52000000D03*
%TO.P,J201,4,Pin_4*%
%TO.N,GND*%
X32000000Y-55500000D03*
%TD*%
D21*
%TO.P,D1302,1,K*%
%TO.N,+12V*%
X80250000Y-71810000D03*
D22*
%TO.P,D1302,2,A*%
%TO.N,railsyncA*%
X80250000Y-64190000D03*
%TD*%
D21*
%TO.P,D1301,1,K*%
%TO.N,+12V*%
X76000000Y-71810000D03*
D22*
%TO.P,D1301,2,A*%
%TO.N,railsyncB*%
X76000000Y-64190000D03*
%TD*%
D23*
%TO.P,C1301,1*%
%TO.N,+5V*%
X66909000Y-76910000D03*
%TO.P,C1301,2*%
%TO.N,GND*%
X64409000Y-76910000D03*
%TD*%
D24*
%TO.P,A1001,30,VIN*%
%TO.N,+12V*%
X70820000Y-69780000D03*
%TO.P,A1001,29,GND*%
%TO.N,GND*%
X70820000Y-72320000D03*
%TO.P,A1001,28,~{RESET}*%
%TO.N,unconnected-(A1001-~{RESET}-Pad28)*%
X70820000Y-74860000D03*
%TO.P,A1001,27,+5V*%
%TO.N,+5V*%
X70820000Y-77400000D03*
%TO.P,A1001,26,A7*%
%TO.N,unconnected-(A1001-A7-Pad26)*%
X70820000Y-79940000D03*
%TO.P,A1001,25,A6*%
%TO.N,unconnected-(A1001-A6-Pad25)*%
X70820000Y-82480000D03*
%TO.P,A1001,24,A5*%
%TO.N,unconnected-(A1001-A5-Pad24)*%
X70820000Y-85020000D03*
%TO.P,A1001,23,A4*%
%TO.N,unconnected-(A1001-A4-Pad23)*%
X70820000Y-87560000D03*
%TO.P,A1001,22,A3*%
%TO.N,unconnected-(A1001-A3-Pad22)*%
X70820000Y-90100000D03*
%TO.P,A1001,21,A2*%
%TO.N,unconnected-(A1001-A2-Pad21)*%
X70820000Y-92640000D03*
%TO.P,A1001,20,A1*%
%TO.N,unconnected-(A1001-A1-Pad20)*%
X70820000Y-95180000D03*
%TO.P,A1001,19,A0*%
%TO.N,Net-(A1001-A0)*%
X70820000Y-97720000D03*
%TO.P,A1001,18,AREF*%
%TO.N,unconnected-(A1001-AREF-Pad18)*%
X70820000Y-100260000D03*
%TO.P,A1001,17,3V3*%
%TO.N,unconnected-(A1001-3V3-Pad17)*%
X70820000Y-102800000D03*
%TO.P,A1001,16,D13*%
%TO.N,unconnected-(A1001-D13-Pad16)*%
X70820000Y-105340000D03*
%TO.P,A1001,15,D12*%
%TO.N,/atmega/upline*%
X55580000Y-105340000D03*
%TO.P,A1001,14,D11*%
%TO.N,/atmega/occupied7*%
X55580000Y-102800000D03*
%TO.P,A1001,13,D10*%
%TO.N,/atmega/occupied8*%
X55580000Y-100260000D03*
%TO.P,A1001,12,D9*%
%TO.N,/Lnet/Lnet_Tx*%
X55580000Y-97720000D03*
%TO.P,A1001,11,D8*%
%TO.N,/Lnet/Lnet_Rx*%
X55580000Y-95180000D03*
%TO.P,A1001,10,D7*%
%TO.N,/atmega/occupied6*%
X55580000Y-92640000D03*
%TO.P,A1001,9,D6*%
%TO.N,/atmega/occupied5*%
X55580000Y-90100000D03*
%TO.P,A1001,8,D5*%
%TO.N,/atmega/occupied4*%
X55580000Y-87560000D03*
%TO.P,A1001,7,D4*%
%TO.N,/atmega/occupied3*%
X55580000Y-85020000D03*
%TO.P,A1001,6,D3*%
%TO.N,/atmega/occupied2*%
X55580000Y-82480000D03*
%TO.P,A1001,5,D2*%
%TO.N,/atmega/occupied1*%
X55580000Y-79940000D03*
%TO.P,A1001,4,GND*%
%TO.N,GND*%
X55580000Y-77400000D03*
%TO.P,A1001,3,~{RESET}*%
%TO.N,unconnected-(A1001-~{RESET}-Pad3)*%
X55580000Y-74860000D03*
%TO.P,A1001,2,D0/RX*%
%TO.N,unconnected-(A1001-D0{slash}RX-Pad2)*%
X55580000Y-72320000D03*
D25*
%TO.P,A1001,1,D1/TX*%
%TO.N,unconnected-(A1001-D1{slash}TX-Pad1)*%
X55580000Y-69780000D03*
%TD*%
D14*
%TO.P,R1304,1*%
%TO.N,GND*%
X67127000Y-93345000D03*
D15*
%TO.P,R1304,2*%
%TO.N,Net-(U1301--)*%
X59507000Y-93345000D03*
%TD*%
D18*
%TO.P,J1302,6*%
%TO.N,railsyncA*%
X55740000Y-56350000D03*
%TO.P,J1302,5*%
%TO.N,GND*%
X57010000Y-58890000D03*
%TO.P,J1302,4*%
%TO.N,Net-(Q1301-C)*%
X58280000Y-56350000D03*
%TO.P,J1302,3*%
X59550000Y-58890000D03*
%TO.P,J1302,2*%
%TO.N,GND*%
X60820000Y-56350000D03*
D19*
%TO.P,J1302,1*%
%TO.N,railsyncB*%
X62090000Y-58890000D03*
%TD*%
D26*
%TO.N,GND*%
X65405000Y-89535000D03*
X76000000Y-68000000D03*
X76327000Y-85344000D03*
X86233000Y-97409000D03*
X86614000Y-88011000D03*
X86701613Y-80235517D03*
X86106000Y-73660000D03*
X28829000Y-59563000D03*
X28829000Y-75311000D03*
X28702000Y-80137000D03*
X28702000Y-92837000D03*
X28575000Y-107061000D03*
X35306000Y-107188000D03*
X34798000Y-92075000D03*
X42545000Y-95758000D03*
X42799000Y-88011000D03*
X53467000Y-92710000D03*
X52324000Y-98679000D03*
X63317000Y-98044000D03*
X58801000Y-100330000D03*
X68326000Y-100584000D03*
X68072000Y-104902000D03*
X57912000Y-105156000D03*
X42672000Y-107696000D03*
X45339000Y-103251000D03*
X52451000Y-103886000D03*
X54991000Y-107823000D03*
X63246000Y-108077000D03*
X72263000Y-108077000D03*
X81026000Y-105664000D03*
X72898000Y-105156000D03*
X72771000Y-100584000D03*
X74549000Y-102108000D03*
X76708000Y-99060000D03*
X73152000Y-95504000D03*
X73025000Y-83947000D03*
X73406000Y-74549000D03*
X68707000Y-75819000D03*
X64516000Y-74549000D03*
X61468000Y-73152000D03*
X68072000Y-69596000D03*
X64516000Y-67691000D03*
X72009000Y-62611000D03*
X66548000Y-62357000D03*
X72337535Y-52459175D03*
X85852000Y-63373000D03*
X84455000Y-54229000D03*
X72263000Y-45847000D03*
X60071000Y-47879000D03*
X58928000Y-61976000D03*
X43688000Y-57658000D03*
X51435000Y-65151000D03*
X54102000Y-61849000D03*
X47371000Y-54864000D03*
X42799000Y-43688000D03*
X35433000Y-43561000D03*
X28448000Y-43815000D03*
X35179000Y-58801000D03*
X35306000Y-65786000D03*
X35306000Y-69723000D03*
X50419000Y-76327000D03*
X53213000Y-87376000D03*
%TO.N,/Lnet/Lnet_Rx*%
X64492653Y-94384347D03*
X63467347Y-95409653D03*
%TO.N,/Lnet/Lnet_Tx*%
X61196653Y-71229653D03*
X58986847Y-69781847D03*
%TD*%
D27*
%TO.N,/Lnet/Lnet_Rx*%
X63467347Y-95409653D02*
X64492653Y-94384347D01*
%TO.N,/Lnet/Lnet_Tx*%
X60434653Y-71229653D02*
X61196653Y-71229653D01*
X58986847Y-69781847D02*
X60434653Y-71229653D01*
%TD*%
%TA.AperFunction,Conductor*%
%TO.N,GND*%
G36*
X88642539Y-42320185D02*
G01*
X88688294Y-42372989D01*
X88699500Y-42424500D01*
X88699500Y-109075500D01*
X88679815Y-109142539D01*
X88627011Y-109188294D01*
X88575500Y-109199500D01*
X27424500Y-109199500D01*
X27357461Y-109179815D01*
X27311706Y-109127011D01*
X27300500Y-109075500D01*
X27300500Y-106250000D01*
X29722145Y-106250000D01*
X31451518Y-106250000D01*
X31440889Y-106268409D01*
X31400000Y-106421009D01*
X31400000Y-106578991D01*
X31440889Y-106731591D01*
X31451518Y-106750000D01*
X29722145Y-106750000D01*
X29734473Y-106827835D01*
X29734473Y-106827838D01*
X29802567Y-107037410D01*
X29902613Y-107233760D01*
X30032142Y-107412041D01*
X30187958Y-107567857D01*
X30366239Y-107697386D01*
X30562589Y-107797432D01*
X30772164Y-107865526D01*
X30989819Y-107900000D01*
X31750000Y-107900000D01*
X31750000Y-107048482D01*
X31768409Y-107059111D01*
X31921009Y-107100000D01*
X32078991Y-107100000D01*
X32231591Y-107059111D01*
X32250000Y-107048482D01*
X32250000Y-107900000D01*
X33010181Y-107900000D01*
X33227835Y-107865526D01*
X33437410Y-107797432D01*
X33633760Y-107697386D01*
X33812041Y-107567857D01*
X33967857Y-107412041D01*
X34097386Y-107233760D01*
X34197432Y-107037410D01*
X34265526Y-106827838D01*
X34265526Y-106827835D01*
X34277855Y-106750000D01*
X32548482Y-106750000D01*
X32559111Y-106731591D01*
X32600000Y-106578991D01*
X32600000Y-106421009D01*
X32559111Y-106268409D01*
X32548482Y-106250000D01*
X34277855Y-106250000D01*
X36722145Y-106250000D01*
X38451518Y-106250000D01*
X38440889Y-106268409D01*
X38400000Y-106421009D01*
X38400000Y-106578991D01*
X38440889Y-106731591D01*
X38451518Y-106750000D01*
X36722145Y-106750000D01*
X36734473Y-106827835D01*
X36734473Y-106827838D01*
X36802567Y-107037410D01*
X36902613Y-107233760D01*
X37032142Y-107412041D01*
X37187958Y-107567857D01*
X37366239Y-107697386D01*
X37562589Y-107797432D01*
X37772164Y-107865526D01*
X37989819Y-107900000D01*
X38750000Y-107900000D01*
X38750000Y-107048482D01*
X38768409Y-107059111D01*
X38921009Y-107100000D01*
X39078991Y-107100000D01*
X39231591Y-107059111D01*
X39250000Y-107048482D01*
X39250000Y-107900000D01*
X40010181Y-107900000D01*
X40227835Y-107865526D01*
X40437410Y-107797432D01*
X40633760Y-107697386D01*
X40812041Y-107567857D01*
X40967857Y-107412041D01*
X41097386Y-107233760D01*
X41197432Y-107037410D01*
X41265526Y-106827838D01*
X41265526Y-106827835D01*
X41277855Y-106750000D01*
X39548482Y-106750000D01*
X39559111Y-106731591D01*
X39600000Y-106578991D01*
X39600000Y-106421009D01*
X39559111Y-106268409D01*
X39548482Y-106250000D01*
X41277855Y-106250000D01*
X41265526Y-106172164D01*
X41265526Y-106172161D01*
X41197432Y-105962589D01*
X41154694Y-105878711D01*
X46649500Y-105878711D01*
X46649500Y-106121288D01*
X46681161Y-106361785D01*
X46743947Y-106596104D01*
X46800068Y-106731591D01*
X46836776Y-106820212D01*
X46958064Y-107030289D01*
X46958066Y-107030292D01*
X46958067Y-107030293D01*
X47105733Y-107222736D01*
X47105739Y-107222743D01*
X47277256Y-107394260D01*
X47277262Y-107394265D01*
X47469711Y-107541936D01*
X47679788Y-107663224D01*
X47903900Y-107756054D01*
X48138211Y-107818838D01*
X48318586Y-107842584D01*
X48378711Y-107850500D01*
X48378712Y-107850500D01*
X48621289Y-107850500D01*
X48669388Y-107844167D01*
X48861789Y-107818838D01*
X49096100Y-107756054D01*
X49320212Y-107663224D01*
X49530289Y-107541936D01*
X49722738Y-107394265D01*
X49894265Y-107222738D01*
X50041936Y-107030289D01*
X50163224Y-106820212D01*
X50256054Y-106596100D01*
X50318838Y-106361789D01*
X50350500Y-106121288D01*
X50350500Y-105878712D01*
X50318838Y-105638211D01*
X50256054Y-105403900D01*
X50163224Y-105179788D01*
X50041936Y-104969711D01*
X49894265Y-104777262D01*
X49894260Y-104777256D01*
X49722743Y-104605739D01*
X49722736Y-104605733D01*
X49530293Y-104458067D01*
X49530292Y-104458066D01*
X49530289Y-104458064D01*
X49358661Y-104358974D01*
X49320214Y-104336777D01*
X49320205Y-104336773D01*
X49096104Y-104243947D01*
X48861785Y-104181161D01*
X48621289Y-104149500D01*
X48621288Y-104149500D01*
X48378712Y-104149500D01*
X48378711Y-104149500D01*
X48138214Y-104181161D01*
X47903895Y-104243947D01*
X47679794Y-104336773D01*
X47679785Y-104336777D01*
X47469706Y-104458067D01*
X47277263Y-104605733D01*
X47277256Y-104605739D01*
X47105739Y-104777256D01*
X47105733Y-104777263D01*
X46958067Y-104969706D01*
X46836777Y-105179785D01*
X46836773Y-105179794D01*
X46743947Y-105403895D01*
X46681161Y-105638214D01*
X46649500Y-105878711D01*
X41154694Y-105878711D01*
X41097386Y-105766239D01*
X40967857Y-105587958D01*
X40812041Y-105432142D01*
X40633760Y-105302613D01*
X40437410Y-105202567D01*
X40227835Y-105134473D01*
X40010181Y-105100000D01*
X39250000Y-105100000D01*
X39250000Y-105951517D01*
X39231591Y-105940889D01*
X39078991Y-105900000D01*
X38921009Y-105900000D01*
X38768409Y-105940889D01*
X38750000Y-105951517D01*
X38750000Y-105100000D01*
X37989819Y-105100000D01*
X37772164Y-105134473D01*
X37562589Y-105202567D01*
X37366239Y-105302613D01*
X37187958Y-105432142D01*
X37032142Y-105587958D01*
X36902613Y-105766239D01*
X36802567Y-105962589D01*
X36734473Y-106172161D01*
X36734473Y-106172164D01*
X36722145Y-106250000D01*
X34277855Y-106250000D01*
X34265526Y-106172164D01*
X34265526Y-106172161D01*
X34197432Y-105962589D01*
X34097386Y-105766239D01*
X33967857Y-105587958D01*
X33812041Y-105432142D01*
X33633760Y-105302613D01*
X33437410Y-105202567D01*
X33227835Y-105134473D01*
X33010181Y-105100000D01*
X32250000Y-105100000D01*
X32250000Y-105951517D01*
X32231591Y-105940889D01*
X32078991Y-105900000D01*
X31921009Y-105900000D01*
X31768409Y-105940889D01*
X31750000Y-105951517D01*
X31750000Y-105100000D01*
X30989819Y-105100000D01*
X30772164Y-105134473D01*
X30562589Y-105202567D01*
X30366239Y-105302613D01*
X30187958Y-105432142D01*
X30032142Y-105587958D01*
X29902613Y-105766239D01*
X29802567Y-105962589D01*
X29734473Y-106172161D01*
X29734473Y-106172164D01*
X29722145Y-106250000D01*
X27300500Y-106250000D01*
X27300500Y-102889778D01*
X29699500Y-102889778D01*
X29699500Y-103110221D01*
X29733985Y-103327952D01*
X29802103Y-103537603D01*
X29802104Y-103537606D01*
X29902187Y-103734025D01*
X30031752Y-103912358D01*
X30031756Y-103912363D01*
X30187636Y-104068243D01*
X30187641Y-104068247D01*
X30343056Y-104181161D01*
X30365978Y-104197815D01*
X30494375Y-104263237D01*
X30562393Y-104297895D01*
X30562396Y-104297896D01*
X30667221Y-104331955D01*
X30772049Y-104366015D01*
X30989778Y-104400500D01*
X30989779Y-104400500D01*
X33010221Y-104400500D01*
X33010222Y-104400500D01*
X33227951Y-104366015D01*
X33437606Y-104297895D01*
X33634022Y-104197815D01*
X33812365Y-104068242D01*
X33968242Y-103912365D01*
X34097815Y-103734022D01*
X34197895Y-103537606D01*
X34266015Y-103327951D01*
X34300500Y-103110222D01*
X34300500Y-102889778D01*
X36699500Y-102889778D01*
X36699500Y-103110221D01*
X36733985Y-103327952D01*
X36802103Y-103537603D01*
X36802104Y-103537606D01*
X36902187Y-103734025D01*
X37031752Y-103912358D01*
X37031756Y-103912363D01*
X37187636Y-104068243D01*
X37187641Y-104068247D01*
X37343056Y-104181161D01*
X37365978Y-104197815D01*
X37494375Y-104263237D01*
X37562393Y-104297895D01*
X37562396Y-104297896D01*
X37667221Y-104331955D01*
X37772049Y-104366015D01*
X37989778Y-104400500D01*
X37989779Y-104400500D01*
X40010221Y-104400500D01*
X40010222Y-104400500D01*
X40227951Y-104366015D01*
X40437606Y-104297895D01*
X40634022Y-104197815D01*
X40812365Y-104068242D01*
X40968242Y-103912365D01*
X41097815Y-103734022D01*
X41197895Y-103537606D01*
X41266015Y-103327951D01*
X41300500Y-103110222D01*
X41300500Y-102889778D01*
X41266015Y-102672049D01*
X41197895Y-102462394D01*
X41197895Y-102462393D01*
X41163237Y-102394375D01*
X41097815Y-102265978D01*
X41011567Y-102147267D01*
X40968247Y-102087641D01*
X40968243Y-102087636D01*
X40812363Y-101931756D01*
X40812358Y-101931752D01*
X40634025Y-101802187D01*
X40634024Y-101802186D01*
X40634022Y-101802185D01*
X40571096Y-101770122D01*
X40437606Y-101702104D01*
X40437603Y-101702103D01*
X40227952Y-101633985D01*
X40119086Y-101616742D01*
X40010222Y-101599500D01*
X37989778Y-101599500D01*
X37917201Y-101610995D01*
X37772047Y-101633985D01*
X37562396Y-101702103D01*
X37562393Y-101702104D01*
X37365974Y-101802187D01*
X37187641Y-101931752D01*
X37187636Y-101931756D01*
X37031756Y-102087636D01*
X37031752Y-102087641D01*
X36902187Y-102265974D01*
X36802104Y-102462393D01*
X36802103Y-102462396D01*
X36733985Y-102672047D01*
X36699500Y-102889778D01*
X34300500Y-102889778D01*
X34266015Y-102672049D01*
X34197895Y-102462394D01*
X34197895Y-102462393D01*
X34163237Y-102394375D01*
X34097815Y-102265978D01*
X34011567Y-102147267D01*
X33968247Y-102087641D01*
X33968243Y-102087636D01*
X33812363Y-101931756D01*
X33812358Y-101931752D01*
X33634025Y-101802187D01*
X33634024Y-101802186D01*
X33634022Y-101802185D01*
X33571096Y-101770122D01*
X33437606Y-101702104D01*
X33437603Y-101702103D01*
X33227952Y-101633985D01*
X33119086Y-101616742D01*
X33010222Y-101599500D01*
X30989778Y-101599500D01*
X30917201Y-101610995D01*
X30772047Y-101633985D01*
X30562396Y-101702103D01*
X30562393Y-101702104D01*
X30365974Y-101802187D01*
X30187641Y-101931752D01*
X30187636Y-101931756D01*
X30031756Y-102087636D01*
X30031752Y-102087641D01*
X29902187Y-102265974D01*
X29802104Y-102462393D01*
X29802103Y-102462396D01*
X29733985Y-102672047D01*
X29699500Y-102889778D01*
X27300500Y-102889778D01*
X27300500Y-99389778D01*
X29699500Y-99389778D01*
X29699500Y-99610222D01*
X29708037Y-99664124D01*
X29733985Y-99827952D01*
X29802103Y-100037603D01*
X29802104Y-100037606D01*
X29902187Y-100234025D01*
X30031752Y-100412358D01*
X30031756Y-100412363D01*
X30187636Y-100568243D01*
X30187641Y-100568247D01*
X30343192Y-100681260D01*
X30365978Y-100697815D01*
X30494375Y-100763237D01*
X30562393Y-100797895D01*
X30562396Y-100797896D01*
X30667221Y-100831955D01*
X30772049Y-100866015D01*
X30989778Y-100900500D01*
X30989779Y-100900500D01*
X33010221Y-100900500D01*
X33010222Y-100900500D01*
X33227951Y-100866015D01*
X33437606Y-100797895D01*
X33634022Y-100697815D01*
X33812365Y-100568242D01*
X33968242Y-100412365D01*
X34097815Y-100234022D01*
X34197895Y-100037606D01*
X34266015Y-99827951D01*
X34300500Y-99610222D01*
X34300500Y-99389778D01*
X36699500Y-99389778D01*
X36699500Y-99610222D01*
X36708037Y-99664124D01*
X36733985Y-99827952D01*
X36802103Y-100037603D01*
X36802104Y-100037606D01*
X36902187Y-100234025D01*
X37031752Y-100412358D01*
X37031756Y-100412363D01*
X37187636Y-100568243D01*
X37187641Y-100568247D01*
X37343192Y-100681260D01*
X37365978Y-100697815D01*
X37494375Y-100763237D01*
X37562393Y-100797895D01*
X37562396Y-100797896D01*
X37667221Y-100831955D01*
X37772049Y-100866015D01*
X37989778Y-100900500D01*
X37989779Y-100900500D01*
X40010221Y-100900500D01*
X40010222Y-100900500D01*
X40227951Y-100866015D01*
X40437606Y-100797895D01*
X40634022Y-100697815D01*
X40812365Y-100568242D01*
X40968242Y-100412365D01*
X41097815Y-100234022D01*
X41197895Y-100037606D01*
X41266015Y-99827951D01*
X41300500Y-99610222D01*
X41300500Y-99389778D01*
X41266015Y-99172049D01*
X41212103Y-99006123D01*
X41197896Y-98962396D01*
X41197895Y-98962393D01*
X41140916Y-98850568D01*
X41097815Y-98765978D01*
X40988857Y-98616009D01*
X40968247Y-98587641D01*
X40968243Y-98587636D01*
X40812363Y-98431756D01*
X40812358Y-98431752D01*
X40634025Y-98302187D01*
X40634024Y-98302186D01*
X40634022Y-98302185D01*
X40562093Y-98265535D01*
X40437606Y-98202104D01*
X40437603Y-98202103D01*
X40227952Y-98133985D01*
X40119086Y-98116742D01*
X40010222Y-98099500D01*
X37989778Y-98099500D01*
X37917201Y-98110995D01*
X37772047Y-98133985D01*
X37562396Y-98202103D01*
X37562393Y-98202104D01*
X37365974Y-98302187D01*
X37187641Y-98431752D01*
X37187636Y-98431756D01*
X37031756Y-98587636D01*
X37031752Y-98587641D01*
X36902187Y-98765974D01*
X36802104Y-98962393D01*
X36802103Y-98962396D01*
X36733985Y-99172047D01*
X36720062Y-99259953D01*
X36699500Y-99389778D01*
X34300500Y-99389778D01*
X34266015Y-99172049D01*
X34212103Y-99006123D01*
X34197896Y-98962396D01*
X34197895Y-98962393D01*
X34140916Y-98850568D01*
X34097815Y-98765978D01*
X33988857Y-98616009D01*
X33968247Y-98587641D01*
X33968243Y-98587636D01*
X33812363Y-98431756D01*
X33812358Y-98431752D01*
X33634025Y-98302187D01*
X33634024Y-98302186D01*
X33634022Y-98302185D01*
X33562093Y-98265535D01*
X33437606Y-98202104D01*
X33437603Y-98202103D01*
X33227952Y-98133985D01*
X33119086Y-98116742D01*
X33010222Y-98099500D01*
X30989778Y-98099500D01*
X30917201Y-98110995D01*
X30772047Y-98133985D01*
X30562396Y-98202103D01*
X30562393Y-98202104D01*
X30365974Y-98302187D01*
X30187641Y-98431752D01*
X30187636Y-98431756D01*
X30031756Y-98587636D01*
X30031752Y-98587641D01*
X29902187Y-98765974D01*
X29802104Y-98962393D01*
X29802103Y-98962396D01*
X29733985Y-99172047D01*
X29720062Y-99259953D01*
X29699500Y-99389778D01*
X27300500Y-99389778D01*
X27300500Y-95299983D01*
X29699500Y-95299983D01*
X29699500Y-96700001D01*
X29699501Y-96700018D01*
X29710000Y-96802796D01*
X29710001Y-96802799D01*
X29760140Y-96954105D01*
X29765186Y-96969334D01*
X29857288Y-97118656D01*
X29981344Y-97242712D01*
X30130666Y-97334814D01*
X30297203Y-97389999D01*
X30399991Y-97400500D01*
X33600008Y-97400499D01*
X33702797Y-97389999D01*
X33869334Y-97334814D01*
X34018656Y-97242712D01*
X34142712Y-97118656D01*
X34234814Y-96969334D01*
X34289999Y-96802797D01*
X34300500Y-96700009D01*
X34300499Y-95299992D01*
X34300498Y-95299983D01*
X36699500Y-95299983D01*
X36699500Y-96700001D01*
X36699501Y-96700018D01*
X36710000Y-96802796D01*
X36710001Y-96802799D01*
X36760140Y-96954105D01*
X36765186Y-96969334D01*
X36857288Y-97118656D01*
X36981344Y-97242712D01*
X37130666Y-97334814D01*
X37297203Y-97389999D01*
X37399991Y-97400500D01*
X40600008Y-97400499D01*
X40702797Y-97389999D01*
X40869334Y-97334814D01*
X41018656Y-97242712D01*
X41142712Y-97118656D01*
X41234814Y-96969334D01*
X41289999Y-96802797D01*
X41300500Y-96700009D01*
X41300499Y-95299992D01*
X41294931Y-95245489D01*
X41289999Y-95197203D01*
X41289998Y-95197200D01*
X41280486Y-95168495D01*
X41234814Y-95030666D01*
X41142712Y-94881344D01*
X41018656Y-94757288D01*
X40892051Y-94679198D01*
X40869336Y-94665187D01*
X40869331Y-94665185D01*
X40845816Y-94657393D01*
X40702797Y-94610001D01*
X40702795Y-94610000D01*
X40600010Y-94599500D01*
X37399998Y-94599500D01*
X37399981Y-94599501D01*
X37297203Y-94610000D01*
X37297200Y-94610001D01*
X37130668Y-94665185D01*
X37130663Y-94665187D01*
X36981342Y-94757289D01*
X36857289Y-94881342D01*
X36765187Y-95030663D01*
X36765185Y-95030668D01*
X36761639Y-95041369D01*
X36710001Y-95197203D01*
X36710001Y-95197204D01*
X36710000Y-95197204D01*
X36699500Y-95299983D01*
X34300498Y-95299983D01*
X34294931Y-95245489D01*
X34289999Y-95197203D01*
X34289998Y-95197200D01*
X34280486Y-95168495D01*
X34234814Y-95030666D01*
X34142712Y-94881344D01*
X34018656Y-94757288D01*
X33892051Y-94679198D01*
X33869336Y-94665187D01*
X33869331Y-94665185D01*
X33845816Y-94657393D01*
X33702797Y-94610001D01*
X33702795Y-94610000D01*
X33600010Y-94599500D01*
X30399998Y-94599500D01*
X30399981Y-94599501D01*
X30297203Y-94610000D01*
X30297200Y-94610001D01*
X30130668Y-94665185D01*
X30130663Y-94665187D01*
X29981342Y-94757289D01*
X29857289Y-94881342D01*
X29765187Y-95030663D01*
X29765185Y-95030668D01*
X29761639Y-95041369D01*
X29710001Y-95197203D01*
X29710001Y-95197204D01*
X29710000Y-95197204D01*
X29699500Y-95299983D01*
X27300500Y-95299983D01*
X27300500Y-89250000D01*
X29722145Y-89250000D01*
X31451518Y-89250000D01*
X31440889Y-89268409D01*
X31400000Y-89421009D01*
X31400000Y-89578991D01*
X31440889Y-89731591D01*
X31451518Y-89750000D01*
X29722145Y-89750000D01*
X29734473Y-89827835D01*
X29734473Y-89827838D01*
X29802567Y-90037410D01*
X29902613Y-90233760D01*
X30032142Y-90412041D01*
X30187958Y-90567857D01*
X30366239Y-90697386D01*
X30562589Y-90797432D01*
X30772164Y-90865526D01*
X30989819Y-90900000D01*
X31750000Y-90900000D01*
X31750000Y-90048482D01*
X31768409Y-90059111D01*
X31921009Y-90100000D01*
X32078991Y-90100000D01*
X32231591Y-90059111D01*
X32250000Y-90048482D01*
X32250000Y-90900000D01*
X33010181Y-90900000D01*
X33227835Y-90865526D01*
X33437410Y-90797432D01*
X33633760Y-90697386D01*
X33812041Y-90567857D01*
X33967857Y-90412041D01*
X34097386Y-90233760D01*
X34197432Y-90037410D01*
X34265526Y-89827838D01*
X34265526Y-89827835D01*
X34277855Y-89750000D01*
X32548482Y-89750000D01*
X32559111Y-89731591D01*
X32600000Y-89578991D01*
X32600000Y-89421009D01*
X32559111Y-89268409D01*
X32548482Y-89250000D01*
X34277855Y-89250000D01*
X36722145Y-89250000D01*
X38451518Y-89250000D01*
X38440889Y-89268409D01*
X38400000Y-89421009D01*
X38400000Y-89578991D01*
X38440889Y-89731591D01*
X38451518Y-89750000D01*
X36722145Y-89750000D01*
X36734473Y-89827835D01*
X36734473Y-89827838D01*
X36802567Y-90037410D01*
X36902613Y-90233760D01*
X37032142Y-90412041D01*
X37187958Y-90567857D01*
X37366239Y-90697386D01*
X37562589Y-90797432D01*
X37772164Y-90865526D01*
X37989819Y-90900000D01*
X38750000Y-90900000D01*
X38750000Y-90048482D01*
X38768409Y-90059111D01*
X38921009Y-90100000D01*
X39078991Y-90100000D01*
X39231591Y-90059111D01*
X39250000Y-90048482D01*
X39250000Y-90900000D01*
X40010181Y-90900000D01*
X40227835Y-90865526D01*
X40437410Y-90797432D01*
X40633760Y-90697386D01*
X40812041Y-90567857D01*
X40967857Y-90412041D01*
X41097386Y-90233760D01*
X41197432Y-90037410D01*
X41265526Y-89827838D01*
X41265526Y-89827835D01*
X41277855Y-89750000D01*
X39548482Y-89750000D01*
X39559111Y-89731591D01*
X39600000Y-89578991D01*
X39600000Y-89421009D01*
X39559111Y-89268409D01*
X39548482Y-89250000D01*
X41277855Y-89250000D01*
X41265526Y-89172164D01*
X41265526Y-89172161D01*
X41197432Y-88962589D01*
X41097386Y-88766239D01*
X40967857Y-88587958D01*
X40812041Y-88432142D01*
X40633760Y-88302613D01*
X40437410Y-88202567D01*
X40227835Y-88134473D01*
X40010181Y-88100000D01*
X39250000Y-88100000D01*
X39250000Y-88951517D01*
X39231591Y-88940889D01*
X39078991Y-88900000D01*
X38921009Y-88900000D01*
X38768409Y-88940889D01*
X38750000Y-88951517D01*
X38750000Y-88100000D01*
X37989819Y-88100000D01*
X37772164Y-88134473D01*
X37562589Y-88202567D01*
X37366239Y-88302613D01*
X37187958Y-88432142D01*
X37032142Y-88587958D01*
X36902613Y-88766239D01*
X36802567Y-88962589D01*
X36734473Y-89172161D01*
X36734473Y-89172164D01*
X36722145Y-89250000D01*
X34277855Y-89250000D01*
X34265526Y-89172164D01*
X34265526Y-89172161D01*
X34197432Y-88962589D01*
X34097386Y-88766239D01*
X33967857Y-88587958D01*
X33812041Y-88432142D01*
X33633760Y-88302613D01*
X33437410Y-88202567D01*
X33227835Y-88134473D01*
X33010181Y-88100000D01*
X32250000Y-88100000D01*
X32250000Y-88951517D01*
X32231591Y-88940889D01*
X32078991Y-88900000D01*
X31921009Y-88900000D01*
X31768409Y-88940889D01*
X31750000Y-88951517D01*
X31750000Y-88100000D01*
X30989819Y-88100000D01*
X30772164Y-88134473D01*
X30562589Y-88202567D01*
X30366239Y-88302613D01*
X30187958Y-88432142D01*
X30032142Y-88587958D01*
X29902613Y-88766239D01*
X29802567Y-88962589D01*
X29734473Y-89172161D01*
X29734473Y-89172164D01*
X29722145Y-89250000D01*
X27300500Y-89250000D01*
X27300500Y-85889778D01*
X29699500Y-85889778D01*
X29699500Y-86110221D01*
X29733985Y-86327952D01*
X29802103Y-86537603D01*
X29802104Y-86537606D01*
X29902187Y-86734025D01*
X30031752Y-86912358D01*
X30031756Y-86912363D01*
X30187636Y-87068243D01*
X30187641Y-87068247D01*
X30268865Y-87127259D01*
X30365978Y-87197815D01*
X30494375Y-87263237D01*
X30562393Y-87297895D01*
X30562396Y-87297896D01*
X30667221Y-87331955D01*
X30772049Y-87366015D01*
X30989778Y-87400500D01*
X30989779Y-87400500D01*
X33010221Y-87400500D01*
X33010222Y-87400500D01*
X33227951Y-87366015D01*
X33437606Y-87297895D01*
X33634022Y-87197815D01*
X33812365Y-87068242D01*
X33968242Y-86912365D01*
X34097815Y-86734022D01*
X34197895Y-86537606D01*
X34266015Y-86327951D01*
X34300500Y-86110222D01*
X34300500Y-85889778D01*
X36699500Y-85889778D01*
X36699500Y-86110221D01*
X36733985Y-86327952D01*
X36802103Y-86537603D01*
X36802104Y-86537606D01*
X36902187Y-86734025D01*
X37031752Y-86912358D01*
X37031756Y-86912363D01*
X37187636Y-87068243D01*
X37187641Y-87068247D01*
X37268865Y-87127259D01*
X37365978Y-87197815D01*
X37494375Y-87263237D01*
X37562393Y-87297895D01*
X37562396Y-87297896D01*
X37667221Y-87331955D01*
X37772049Y-87366015D01*
X37989778Y-87400500D01*
X37989779Y-87400500D01*
X40010221Y-87400500D01*
X40010222Y-87400500D01*
X40227951Y-87366015D01*
X40437606Y-87297895D01*
X40634022Y-87197815D01*
X40812365Y-87068242D01*
X40968242Y-86912365D01*
X41097815Y-86734022D01*
X41197895Y-86537606D01*
X41266015Y-86327951D01*
X41300500Y-86110222D01*
X41300500Y-85889778D01*
X41266015Y-85672049D01*
X41199228Y-85466496D01*
X41197896Y-85462396D01*
X41197895Y-85462393D01*
X41163237Y-85394375D01*
X41097815Y-85265978D01*
X41081260Y-85243192D01*
X40968247Y-85087641D01*
X40968243Y-85087636D01*
X40812363Y-84931756D01*
X40812358Y-84931752D01*
X40634025Y-84802187D01*
X40634024Y-84802186D01*
X40634022Y-84802185D01*
X40571096Y-84770122D01*
X40437606Y-84702104D01*
X40437603Y-84702103D01*
X40227952Y-84633985D01*
X40119086Y-84616742D01*
X40010222Y-84599500D01*
X37989778Y-84599500D01*
X37917201Y-84610995D01*
X37772047Y-84633985D01*
X37562396Y-84702103D01*
X37562393Y-84702104D01*
X37365974Y-84802187D01*
X37187641Y-84931752D01*
X37187636Y-84931756D01*
X37031756Y-85087636D01*
X37031752Y-85087641D01*
X36902187Y-85265974D01*
X36802104Y-85462393D01*
X36802103Y-85462396D01*
X36733985Y-85672047D01*
X36699500Y-85889778D01*
X34300500Y-85889778D01*
X34266015Y-85672049D01*
X34199228Y-85466496D01*
X34197896Y-85462396D01*
X34197895Y-85462393D01*
X34163237Y-85394375D01*
X34097815Y-85265978D01*
X34081260Y-85243192D01*
X33968247Y-85087641D01*
X33968243Y-85087636D01*
X33812363Y-84931756D01*
X33812358Y-84931752D01*
X33634025Y-84802187D01*
X33634024Y-84802186D01*
X33634022Y-84802185D01*
X33571096Y-84770122D01*
X33437606Y-84702104D01*
X33437603Y-84702103D01*
X33227952Y-84633985D01*
X33119086Y-84616742D01*
X33010222Y-84599500D01*
X30989778Y-84599500D01*
X30917201Y-84610995D01*
X30772047Y-84633985D01*
X30562396Y-84702103D01*
X30562393Y-84702104D01*
X30365974Y-84802187D01*
X30187641Y-84931752D01*
X30187636Y-84931756D01*
X30031756Y-85087636D01*
X30031752Y-85087641D01*
X29902187Y-85265974D01*
X29802104Y-85462393D01*
X29802103Y-85462396D01*
X29733985Y-85672047D01*
X29699500Y-85889778D01*
X27300500Y-85889778D01*
X27300500Y-82389778D01*
X29699500Y-82389778D01*
X29699500Y-82610221D01*
X29733985Y-82827952D01*
X29802103Y-83037603D01*
X29802104Y-83037606D01*
X29902187Y-83234025D01*
X30031752Y-83412358D01*
X30031756Y-83412363D01*
X30187636Y-83568243D01*
X30187641Y-83568247D01*
X30256885Y-83618555D01*
X30365978Y-83697815D01*
X30466467Y-83749017D01*
X30562393Y-83797895D01*
X30562396Y-83797896D01*
X30623856Y-83817865D01*
X30772049Y-83866015D01*
X30989778Y-83900500D01*
X30989779Y-83900500D01*
X33010221Y-83900500D01*
X33010222Y-83900500D01*
X33227951Y-83866015D01*
X33437606Y-83797895D01*
X33634022Y-83697815D01*
X33812365Y-83568242D01*
X33968242Y-83412365D01*
X34097815Y-83234022D01*
X34197895Y-83037606D01*
X34266015Y-82827951D01*
X34300500Y-82610222D01*
X34300500Y-82389778D01*
X36699500Y-82389778D01*
X36699500Y-82610221D01*
X36733985Y-82827952D01*
X36802103Y-83037603D01*
X36802104Y-83037606D01*
X36902187Y-83234025D01*
X37031752Y-83412358D01*
X37031756Y-83412363D01*
X37187636Y-83568243D01*
X37187641Y-83568247D01*
X37256885Y-83618555D01*
X37365978Y-83697815D01*
X37466467Y-83749017D01*
X37562393Y-83797895D01*
X37562396Y-83797896D01*
X37623856Y-83817865D01*
X37772049Y-83866015D01*
X37989778Y-83900500D01*
X37989779Y-83900500D01*
X40010221Y-83900500D01*
X40010222Y-83900500D01*
X40227951Y-83866015D01*
X40437606Y-83797895D01*
X40634022Y-83697815D01*
X40812365Y-83568242D01*
X40968242Y-83412365D01*
X41097815Y-83234022D01*
X41197895Y-83037606D01*
X41266015Y-82827951D01*
X41300500Y-82610222D01*
X41300500Y-82389778D01*
X41266015Y-82172049D01*
X41209398Y-81997796D01*
X41197896Y-81962396D01*
X41197895Y-81962393D01*
X41163237Y-81894375D01*
X41097815Y-81765978D01*
X41006911Y-81640858D01*
X40968247Y-81587641D01*
X40968243Y-81587636D01*
X40812363Y-81431756D01*
X40812358Y-81431752D01*
X40634025Y-81302187D01*
X40634024Y-81302186D01*
X40634022Y-81302185D01*
X40552182Y-81260485D01*
X40437606Y-81202104D01*
X40437603Y-81202103D01*
X40227952Y-81133985D01*
X40119086Y-81116742D01*
X40010222Y-81099500D01*
X37989778Y-81099500D01*
X37917201Y-81110995D01*
X37772047Y-81133985D01*
X37562396Y-81202103D01*
X37562393Y-81202104D01*
X37365974Y-81302187D01*
X37187641Y-81431752D01*
X37187636Y-81431756D01*
X37031756Y-81587636D01*
X37031752Y-81587641D01*
X36902187Y-81765974D01*
X36802104Y-81962393D01*
X36802103Y-81962396D01*
X36733985Y-82172047D01*
X36699500Y-82389778D01*
X34300500Y-82389778D01*
X34266015Y-82172049D01*
X34209398Y-81997796D01*
X34197896Y-81962396D01*
X34197895Y-81962393D01*
X34163237Y-81894375D01*
X34097815Y-81765978D01*
X34006911Y-81640858D01*
X33968247Y-81587641D01*
X33968243Y-81587636D01*
X33812363Y-81431756D01*
X33812358Y-81431752D01*
X33634025Y-81302187D01*
X33634024Y-81302186D01*
X33634022Y-81302185D01*
X33552182Y-81260485D01*
X33437606Y-81202104D01*
X33437603Y-81202103D01*
X33227952Y-81133985D01*
X33119086Y-81116742D01*
X33010222Y-81099500D01*
X30989778Y-81099500D01*
X30917201Y-81110995D01*
X30772047Y-81133985D01*
X30562396Y-81202103D01*
X30562393Y-81202104D01*
X30365974Y-81302187D01*
X30187641Y-81431752D01*
X30187636Y-81431756D01*
X30031756Y-81587636D01*
X30031752Y-81587641D01*
X29902187Y-81765974D01*
X29802104Y-81962393D01*
X29802103Y-81962396D01*
X29733985Y-82172047D01*
X29699500Y-82389778D01*
X27300500Y-82389778D01*
X27300500Y-78299983D01*
X29699500Y-78299983D01*
X29699500Y-79700001D01*
X29699501Y-79700018D01*
X29710000Y-79802796D01*
X29710001Y-79802799D01*
X29765185Y-79969331D01*
X29765187Y-79969336D01*
X29800069Y-80025888D01*
X29857288Y-80118656D01*
X29981344Y-80242712D01*
X30130666Y-80334814D01*
X30297203Y-80389999D01*
X30399991Y-80400500D01*
X33600008Y-80400499D01*
X33702797Y-80389999D01*
X33869334Y-80334814D01*
X34018656Y-80242712D01*
X34142712Y-80118656D01*
X34234814Y-79969334D01*
X34289999Y-79802797D01*
X34300500Y-79700009D01*
X34300499Y-78299992D01*
X34300498Y-78299983D01*
X36699500Y-78299983D01*
X36699500Y-79700001D01*
X36699501Y-79700018D01*
X36710000Y-79802796D01*
X36710001Y-79802799D01*
X36765185Y-79969331D01*
X36765187Y-79969336D01*
X36800069Y-80025888D01*
X36857288Y-80118656D01*
X36981344Y-80242712D01*
X37130666Y-80334814D01*
X37297203Y-80389999D01*
X37399991Y-80400500D01*
X40600008Y-80400499D01*
X40702797Y-80389999D01*
X40869334Y-80334814D01*
X41018656Y-80242712D01*
X41142712Y-80118656D01*
X41234814Y-79969334D01*
X41289999Y-79802797D01*
X41300500Y-79700009D01*
X41300499Y-78299992D01*
X41289999Y-78197203D01*
X41234814Y-78030666D01*
X41142712Y-77881344D01*
X41018656Y-77757288D01*
X40869334Y-77665186D01*
X40702797Y-77610001D01*
X40702795Y-77610000D01*
X40600010Y-77599500D01*
X37399998Y-77599500D01*
X37399981Y-77599501D01*
X37297203Y-77610000D01*
X37297200Y-77610001D01*
X37130668Y-77665185D01*
X37130663Y-77665187D01*
X36981342Y-77757289D01*
X36857289Y-77881342D01*
X36765187Y-78030663D01*
X36765185Y-78030668D01*
X36757957Y-78052482D01*
X36710001Y-78197203D01*
X36710001Y-78197204D01*
X36710000Y-78197204D01*
X36699500Y-78299983D01*
X34300498Y-78299983D01*
X34289999Y-78197203D01*
X34234814Y-78030666D01*
X34142712Y-77881344D01*
X34018656Y-77757288D01*
X33869334Y-77665186D01*
X33702797Y-77610001D01*
X33702795Y-77610000D01*
X33600010Y-77599500D01*
X30399998Y-77599500D01*
X30399981Y-77599501D01*
X30297203Y-77610000D01*
X30297200Y-77610001D01*
X30130668Y-77665185D01*
X30130663Y-77665187D01*
X29981342Y-77757289D01*
X29857289Y-77881342D01*
X29765187Y-78030663D01*
X29765185Y-78030668D01*
X29757957Y-78052482D01*
X29710001Y-78197203D01*
X29710001Y-78197204D01*
X29710000Y-78197204D01*
X29699500Y-78299983D01*
X27300500Y-78299983D01*
X27300500Y-72250000D01*
X29722145Y-72250000D01*
X31451518Y-72250000D01*
X31440889Y-72268409D01*
X31400000Y-72421009D01*
X31400000Y-72578991D01*
X31440889Y-72731591D01*
X31451518Y-72750000D01*
X29722145Y-72750000D01*
X29734473Y-72827835D01*
X29734473Y-72827838D01*
X29802567Y-73037410D01*
X29902613Y-73233760D01*
X30032142Y-73412041D01*
X30187958Y-73567857D01*
X30366239Y-73697386D01*
X30562589Y-73797432D01*
X30772164Y-73865526D01*
X30989819Y-73900000D01*
X31750000Y-73900000D01*
X31750000Y-73048482D01*
X31768409Y-73059111D01*
X31921009Y-73100000D01*
X32078991Y-73100000D01*
X32231591Y-73059111D01*
X32250000Y-73048482D01*
X32250000Y-73900000D01*
X33010181Y-73900000D01*
X33227835Y-73865526D01*
X33437410Y-73797432D01*
X33633760Y-73697386D01*
X33812041Y-73567857D01*
X33967857Y-73412041D01*
X34097386Y-73233760D01*
X34197432Y-73037410D01*
X34265526Y-72827838D01*
X34265526Y-72827835D01*
X34277855Y-72750000D01*
X32548482Y-72750000D01*
X32559111Y-72731591D01*
X32600000Y-72578991D01*
X32600000Y-72421009D01*
X32559111Y-72268409D01*
X32548482Y-72250000D01*
X34277855Y-72250000D01*
X36722145Y-72250000D01*
X38451518Y-72250000D01*
X38440889Y-72268409D01*
X38400000Y-72421009D01*
X38400000Y-72578991D01*
X38440889Y-72731591D01*
X38451518Y-72750000D01*
X36722145Y-72750000D01*
X36734473Y-72827835D01*
X36734473Y-72827838D01*
X36802567Y-73037410D01*
X36902613Y-73233760D01*
X37032142Y-73412041D01*
X37187958Y-73567857D01*
X37366239Y-73697386D01*
X37562589Y-73797432D01*
X37772164Y-73865526D01*
X37989819Y-73900000D01*
X38750000Y-73900000D01*
X38750000Y-73048482D01*
X38768409Y-73059111D01*
X38921009Y-73100000D01*
X39078991Y-73100000D01*
X39231591Y-73059111D01*
X39250000Y-73048482D01*
X39250000Y-73900000D01*
X40010181Y-73900000D01*
X40227835Y-73865526D01*
X40437410Y-73797432D01*
X40633760Y-73697386D01*
X40812041Y-73567857D01*
X40967857Y-73412041D01*
X41097386Y-73233760D01*
X41197432Y-73037410D01*
X41265526Y-72827838D01*
X41265526Y-72827835D01*
X41277855Y-72750000D01*
X39548482Y-72750000D01*
X39559111Y-72731591D01*
X39600000Y-72578991D01*
X39600000Y-72421009D01*
X39572934Y-72319998D01*
X54274532Y-72319998D01*
X54274532Y-72320001D01*
X54294364Y-72546686D01*
X54294366Y-72546697D01*
X54353258Y-72766488D01*
X54353261Y-72766497D01*
X54449431Y-72972732D01*
X54449432Y-72972734D01*
X54579954Y-73159141D01*
X54740858Y-73320045D01*
X54740861Y-73320047D01*
X54927266Y-73450568D01*
X54984681Y-73477341D01*
X54985275Y-73477618D01*
X55037714Y-73523791D01*
X55056866Y-73590984D01*
X55036650Y-73657865D01*
X54985275Y-73702382D01*
X54927267Y-73729431D01*
X54927265Y-73729432D01*
X54740858Y-73859954D01*
X54579954Y-74020858D01*
X54449432Y-74207265D01*
X54449431Y-74207267D01*
X54353261Y-74413502D01*
X54353258Y-74413511D01*
X54294366Y-74633302D01*
X54294364Y-74633313D01*
X54274532Y-74859998D01*
X54274532Y-74860001D01*
X54294364Y-75086686D01*
X54294366Y-75086697D01*
X54353258Y-75306488D01*
X54353261Y-75306497D01*
X54449431Y-75512732D01*
X54449432Y-75512734D01*
X54579954Y-75699141D01*
X54740858Y-75860045D01*
X54740861Y-75860047D01*
X54927266Y-75990568D01*
X54985865Y-76017893D01*
X55038305Y-76064065D01*
X55057457Y-76131258D01*
X55037242Y-76198139D01*
X54985867Y-76242657D01*
X54927515Y-76269867D01*
X54741179Y-76400342D01*
X54580342Y-76561179D01*
X54449865Y-76747517D01*
X54353734Y-76953673D01*
X54353730Y-76953682D01*
X54301127Y-77149999D01*
X54301128Y-77150000D01*
X55146988Y-77150000D01*
X55114075Y-77207007D01*
X55080000Y-77334174D01*
X55080000Y-77465826D01*
X55114075Y-77592993D01*
X55146988Y-77650000D01*
X54301128Y-77650000D01*
X54353730Y-77846317D01*
X54353734Y-77846326D01*
X54449865Y-78052482D01*
X54580342Y-78238820D01*
X54741179Y-78399657D01*
X54927518Y-78530134D01*
X54927520Y-78530135D01*
X54985865Y-78557342D01*
X55038305Y-78603514D01*
X55057457Y-78670707D01*
X55037242Y-78737589D01*
X54985867Y-78782105D01*
X54927268Y-78809431D01*
X54927264Y-78809433D01*
X54740858Y-78939954D01*
X54579954Y-79100858D01*
X54449432Y-79287265D01*
X54449431Y-79287267D01*
X54353261Y-79493502D01*
X54353258Y-79493511D01*
X54294366Y-79713302D01*
X54294364Y-79713313D01*
X54274532Y-79939998D01*
X54274532Y-79940001D01*
X54294364Y-80166686D01*
X54294366Y-80166697D01*
X54353258Y-80386488D01*
X54353261Y-80386497D01*
X54449431Y-80592732D01*
X54449432Y-80592734D01*
X54579954Y-80779141D01*
X54740858Y-80940045D01*
X54740861Y-80940047D01*
X54927266Y-81070568D01*
X54985275Y-81097618D01*
X55037714Y-81143791D01*
X55056866Y-81210984D01*
X55036650Y-81277865D01*
X54985275Y-81322382D01*
X54927267Y-81349431D01*
X54927265Y-81349432D01*
X54740858Y-81479954D01*
X54579954Y-81640858D01*
X54449432Y-81827265D01*
X54449431Y-81827267D01*
X54353261Y-82033502D01*
X54353258Y-82033511D01*
X54294366Y-82253302D01*
X54294364Y-82253313D01*
X54274532Y-82479998D01*
X54274532Y-82480001D01*
X54294364Y-82706686D01*
X54294366Y-82706697D01*
X54353258Y-82926488D01*
X54353261Y-82926497D01*
X54449431Y-83132732D01*
X54449432Y-83132734D01*
X54579954Y-83319141D01*
X54740858Y-83480045D01*
X54740861Y-83480047D01*
X54927266Y-83610568D01*
X54985275Y-83637618D01*
X55037714Y-83683791D01*
X55056866Y-83750984D01*
X55036650Y-83817865D01*
X54985275Y-83862382D01*
X54927267Y-83889431D01*
X54927265Y-83889432D01*
X54740858Y-84019954D01*
X54579954Y-84180858D01*
X54449432Y-84367265D01*
X54449431Y-84367267D01*
X54353261Y-84573502D01*
X54353258Y-84573511D01*
X54294366Y-84793302D01*
X54294364Y-84793313D01*
X54274532Y-85019998D01*
X54274532Y-85020001D01*
X54294364Y-85246686D01*
X54294366Y-85246697D01*
X54353258Y-85466488D01*
X54353261Y-85466497D01*
X54449431Y-85672732D01*
X54449432Y-85672734D01*
X54579954Y-85859141D01*
X54740858Y-86020045D01*
X54740861Y-86020047D01*
X54927266Y-86150568D01*
X54964156Y-86167770D01*
X54985275Y-86177618D01*
X55037714Y-86223791D01*
X55056866Y-86290984D01*
X55036650Y-86357865D01*
X54985275Y-86402382D01*
X54927267Y-86429431D01*
X54927265Y-86429432D01*
X54740858Y-86559954D01*
X54579954Y-86720858D01*
X54449432Y-86907265D01*
X54449431Y-86907267D01*
X54353261Y-87113502D01*
X54353258Y-87113511D01*
X54294366Y-87333302D01*
X54294364Y-87333313D01*
X54274532Y-87559998D01*
X54274532Y-87560001D01*
X54294364Y-87786686D01*
X54294366Y-87786697D01*
X54353258Y-88006488D01*
X54353261Y-88006497D01*
X54449431Y-88212732D01*
X54449432Y-88212734D01*
X54579954Y-88399141D01*
X54740858Y-88560045D01*
X54740861Y-88560047D01*
X54927266Y-88690568D01*
X54985275Y-88717618D01*
X55037714Y-88763791D01*
X55056866Y-88830984D01*
X55036650Y-88897865D01*
X54985275Y-88942382D01*
X54927267Y-88969431D01*
X54927265Y-88969432D01*
X54740858Y-89099954D01*
X54579954Y-89260858D01*
X54449432Y-89447265D01*
X54449431Y-89447267D01*
X54353261Y-89653502D01*
X54353258Y-89653511D01*
X54294366Y-89873302D01*
X54294364Y-89873313D01*
X54274532Y-90099998D01*
X54274532Y-90100001D01*
X54294364Y-90326686D01*
X54294366Y-90326697D01*
X54353258Y-90546488D01*
X54353261Y-90546497D01*
X54449431Y-90752732D01*
X54449432Y-90752734D01*
X54579954Y-90939141D01*
X54740858Y-91100045D01*
X54740861Y-91100047D01*
X54927266Y-91230568D01*
X54985275Y-91257618D01*
X55037714Y-91303791D01*
X55056866Y-91370984D01*
X55036650Y-91437865D01*
X54985275Y-91482382D01*
X54927267Y-91509431D01*
X54927265Y-91509432D01*
X54740858Y-91639954D01*
X54579954Y-91800858D01*
X54449432Y-91987265D01*
X54449431Y-91987267D01*
X54353261Y-92193502D01*
X54353258Y-92193511D01*
X54294366Y-92413302D01*
X54294364Y-92413313D01*
X54274532Y-92639998D01*
X54274532Y-92640001D01*
X54294364Y-92866686D01*
X54294366Y-92866697D01*
X54353258Y-93086488D01*
X54353261Y-93086497D01*
X54449431Y-93292732D01*
X54449432Y-93292734D01*
X54579954Y-93479141D01*
X54740858Y-93640045D01*
X54740861Y-93640047D01*
X54927266Y-93770568D01*
X54985275Y-93797618D01*
X55037714Y-93843791D01*
X55056866Y-93910984D01*
X55036650Y-93977865D01*
X54985275Y-94022382D01*
X54927267Y-94049431D01*
X54927265Y-94049432D01*
X54740858Y-94179954D01*
X54579954Y-94340858D01*
X54449432Y-94527265D01*
X54449431Y-94527267D01*
X54353261Y-94733502D01*
X54353258Y-94733511D01*
X54294366Y-94953302D01*
X54294364Y-94953313D01*
X54274532Y-95179998D01*
X54274532Y-95180001D01*
X54294364Y-95406686D01*
X54294366Y-95406697D01*
X54353258Y-95626488D01*
X54353261Y-95626497D01*
X54449431Y-95832732D01*
X54449432Y-95832734D01*
X54579954Y-96019141D01*
X54740858Y-96180045D01*
X54740861Y-96180047D01*
X54927266Y-96310568D01*
X54985275Y-96337618D01*
X55037714Y-96383791D01*
X55056866Y-96450984D01*
X55036650Y-96517865D01*
X54985275Y-96562382D01*
X54927267Y-96589431D01*
X54927265Y-96589432D01*
X54740858Y-96719954D01*
X54579954Y-96880858D01*
X54449432Y-97067265D01*
X54449431Y-97067267D01*
X54353261Y-97273502D01*
X54353258Y-97273511D01*
X54294366Y-97493302D01*
X54294364Y-97493313D01*
X54274532Y-97719998D01*
X54274532Y-97720001D01*
X54294364Y-97946686D01*
X54294366Y-97946697D01*
X54353258Y-98166488D01*
X54353261Y-98166497D01*
X54449431Y-98372732D01*
X54449432Y-98372734D01*
X54579954Y-98559141D01*
X54740858Y-98720045D01*
X54740861Y-98720047D01*
X54927266Y-98850568D01*
X54985275Y-98877618D01*
X55037714Y-98923791D01*
X55056866Y-98990984D01*
X55036650Y-99057865D01*
X54985275Y-99102382D01*
X54927267Y-99129431D01*
X54927265Y-99129432D01*
X54740858Y-99259954D01*
X54579954Y-99420858D01*
X54449432Y-99607265D01*
X54449431Y-99607267D01*
X54353261Y-99813502D01*
X54353258Y-99813511D01*
X54294366Y-100033302D01*
X54294364Y-100033313D01*
X54274532Y-100259998D01*
X54274532Y-100260001D01*
X54294364Y-100486686D01*
X54294366Y-100486697D01*
X54353258Y-100706488D01*
X54353261Y-100706497D01*
X54449431Y-100912732D01*
X54449432Y-100912734D01*
X54579954Y-101099141D01*
X54740858Y-101260045D01*
X54740861Y-101260047D01*
X54927266Y-101390568D01*
X54985275Y-101417618D01*
X55037714Y-101463791D01*
X55056866Y-101530984D01*
X55036650Y-101597865D01*
X54985275Y-101642382D01*
X54927267Y-101669431D01*
X54927265Y-101669432D01*
X54740858Y-101799954D01*
X54579954Y-101960858D01*
X54449432Y-102147265D01*
X54449431Y-102147267D01*
X54353261Y-102353502D01*
X54353258Y-102353511D01*
X54294366Y-102573302D01*
X54294364Y-102573313D01*
X54274532Y-102799998D01*
X54274532Y-102800001D01*
X54294364Y-103026686D01*
X54294366Y-103026697D01*
X54353258Y-103246488D01*
X54353261Y-103246497D01*
X54449431Y-103452732D01*
X54449432Y-103452734D01*
X54579954Y-103639141D01*
X54740858Y-103800045D01*
X54740861Y-103800047D01*
X54927266Y-103930568D01*
X54985275Y-103957618D01*
X55037714Y-104003791D01*
X55056866Y-104070984D01*
X55036650Y-104137865D01*
X54985275Y-104182382D01*
X54927267Y-104209431D01*
X54927265Y-104209432D01*
X54740858Y-104339954D01*
X54579954Y-104500858D01*
X54449432Y-104687265D01*
X54449431Y-104687267D01*
X54353261Y-104893502D01*
X54353258Y-104893511D01*
X54294366Y-105113302D01*
X54294364Y-105113313D01*
X54274532Y-105339998D01*
X54274532Y-105340001D01*
X54294364Y-105566686D01*
X54294366Y-105566697D01*
X54353258Y-105786488D01*
X54353261Y-105786497D01*
X54449431Y-105992732D01*
X54449432Y-105992734D01*
X54579954Y-106179141D01*
X54740858Y-106340045D01*
X54740861Y-106340047D01*
X54927266Y-106470568D01*
X55133504Y-106566739D01*
X55353308Y-106625635D01*
X55515230Y-106639801D01*
X55579998Y-106645468D01*
X55580000Y-106645468D01*
X55580002Y-106645468D01*
X55636673Y-106640509D01*
X55806692Y-106625635D01*
X56026496Y-106566739D01*
X56232734Y-106470568D01*
X56419139Y-106340047D01*
X56580047Y-106179139D01*
X56710568Y-105992734D01*
X56806739Y-105786496D01*
X56865635Y-105566692D01*
X56885468Y-105340000D01*
X56865635Y-105113308D01*
X56806739Y-104893504D01*
X56710568Y-104687266D01*
X56580047Y-104500861D01*
X56580045Y-104500858D01*
X56419141Y-104339954D01*
X56232734Y-104209432D01*
X56232728Y-104209429D01*
X56174725Y-104182382D01*
X56122285Y-104136210D01*
X56103133Y-104069017D01*
X56123348Y-104002135D01*
X56174725Y-103957618D01*
X56232734Y-103930568D01*
X56419139Y-103800047D01*
X56580047Y-103639139D01*
X56710568Y-103452734D01*
X56806739Y-103246496D01*
X56865635Y-103026692D01*
X56885468Y-102800000D01*
X56865635Y-102573308D01*
X56806739Y-102353504D01*
X56710568Y-102147266D01*
X56580047Y-101960861D01*
X56580045Y-101960858D01*
X56419141Y-101799954D01*
X56232734Y-101669432D01*
X56232728Y-101669429D01*
X56174725Y-101642382D01*
X56122285Y-101596210D01*
X56103133Y-101529017D01*
X56123348Y-101462135D01*
X56174725Y-101417618D01*
X56232734Y-101390568D01*
X56419139Y-101260047D01*
X56580047Y-101099139D01*
X56710568Y-100912734D01*
X56806739Y-100706496D01*
X56865635Y-100486692D01*
X56885468Y-100260000D01*
X56883195Y-100234025D01*
X56866011Y-100037606D01*
X56865635Y-100033308D01*
X56806739Y-99813504D01*
X56710568Y-99607266D01*
X56580047Y-99420861D01*
X56580045Y-99420858D01*
X56419141Y-99259954D01*
X56232734Y-99129432D01*
X56232728Y-99129429D01*
X56174725Y-99102382D01*
X56122285Y-99056210D01*
X56103133Y-98989017D01*
X56123348Y-98922135D01*
X56174725Y-98877618D01*
X56232734Y-98850568D01*
X56419139Y-98720047D01*
X56580047Y-98559139D01*
X56710568Y-98372734D01*
X56806739Y-98166496D01*
X56865635Y-97946692D01*
X56885468Y-97720000D01*
X56865635Y-97493308D01*
X56806739Y-97273504D01*
X56710568Y-97067266D01*
X56583032Y-96885124D01*
X56580045Y-96880858D01*
X56419141Y-96719954D01*
X56232734Y-96589432D01*
X56232728Y-96589429D01*
X56205038Y-96576517D01*
X56174724Y-96562381D01*
X56122285Y-96516210D01*
X56103133Y-96449017D01*
X56123348Y-96382135D01*
X56174725Y-96337618D01*
X56232734Y-96310568D01*
X56419139Y-96180047D01*
X56580047Y-96019139D01*
X56710568Y-95832734D01*
X56806739Y-95626496D01*
X56865635Y-95406692D01*
X56885468Y-95180000D01*
X56884461Y-95168495D01*
X56872403Y-95030666D01*
X56865635Y-94953308D01*
X56806739Y-94733504D01*
X56710568Y-94527266D01*
X56580047Y-94340861D01*
X56580045Y-94340858D01*
X56419141Y-94179954D01*
X56232734Y-94049432D01*
X56232728Y-94049429D01*
X56174725Y-94022382D01*
X56122285Y-93976210D01*
X56103133Y-93909017D01*
X56123348Y-93842135D01*
X56174725Y-93797618D01*
X56232734Y-93770568D01*
X56419139Y-93640047D01*
X56580047Y-93479139D01*
X56710568Y-93292734D01*
X56806739Y-93086496D01*
X56865635Y-92866692D01*
X56885468Y-92640000D01*
X56865635Y-92413308D01*
X56817216Y-92232606D01*
X56806741Y-92193511D01*
X56806738Y-92193502D01*
X56766634Y-92107500D01*
X56710568Y-91987266D01*
X56580047Y-91800861D01*
X56580045Y-91800858D01*
X56419141Y-91639954D01*
X56232734Y-91509432D01*
X56232728Y-91509429D01*
X56174725Y-91482382D01*
X56122285Y-91436210D01*
X56103133Y-91369017D01*
X56123348Y-91302135D01*
X56174725Y-91257618D01*
X56232734Y-91230568D01*
X56419139Y-91100047D01*
X56580047Y-90939139D01*
X56602551Y-90906999D01*
X58301357Y-90906999D01*
X58301357Y-90907000D01*
X58321884Y-91128535D01*
X58321885Y-91128537D01*
X58382769Y-91342523D01*
X58382775Y-91342538D01*
X58481938Y-91541683D01*
X58481943Y-91541691D01*
X58616020Y-91719238D01*
X58780437Y-91869123D01*
X58780439Y-91869125D01*
X58969595Y-91986245D01*
X58969601Y-91986248D01*
X59031875Y-92010373D01*
X59087277Y-92052946D01*
X59110867Y-92118713D01*
X59095156Y-92186794D01*
X59045132Y-92235572D01*
X59031875Y-92241627D01*
X58969601Y-92265751D01*
X58969595Y-92265754D01*
X58780439Y-92382874D01*
X58780437Y-92382876D01*
X58616020Y-92532761D01*
X58481943Y-92710308D01*
X58481938Y-92710316D01*
X58382775Y-92909461D01*
X58382769Y-92909476D01*
X58321885Y-93123462D01*
X58321884Y-93123464D01*
X58301357Y-93344999D01*
X58301357Y-93345000D01*
X58321884Y-93566535D01*
X58321885Y-93566537D01*
X58382769Y-93780523D01*
X58382775Y-93780538D01*
X58481938Y-93979683D01*
X58481943Y-93979691D01*
X58616020Y-94157238D01*
X58780437Y-94307123D01*
X58780439Y-94307125D01*
X58969595Y-94424245D01*
X58969601Y-94424248D01*
X58999609Y-94435873D01*
X59055011Y-94478446D01*
X59078601Y-94544213D01*
X59062890Y-94612293D01*
X59012866Y-94661072D01*
X58999609Y-94667127D01*
X58969601Y-94678751D01*
X58969595Y-94678754D01*
X58780439Y-94795874D01*
X58780437Y-94795876D01*
X58616020Y-94945761D01*
X58481943Y-95123308D01*
X58481938Y-95123316D01*
X58382775Y-95322461D01*
X58382769Y-95322476D01*
X58321885Y-95536462D01*
X58321884Y-95536464D01*
X58301357Y-95757999D01*
X58301357Y-95758000D01*
X58321884Y-95979535D01*
X58321885Y-95979537D01*
X58382769Y-96193523D01*
X58382775Y-96193538D01*
X58481938Y-96392683D01*
X58481943Y-96392691D01*
X58616020Y-96570238D01*
X58758364Y-96700001D01*
X58780250Y-96719953D01*
X58780437Y-96720123D01*
X58780439Y-96720125D01*
X58902292Y-96795573D01*
X58948928Y-96847601D01*
X58960032Y-96916582D01*
X58932079Y-96980617D01*
X58902292Y-97006427D01*
X58780439Y-97081874D01*
X58780437Y-97081876D01*
X58616020Y-97231761D01*
X58481943Y-97409308D01*
X58481938Y-97409316D01*
X58382775Y-97608461D01*
X58382769Y-97608476D01*
X58321885Y-97822462D01*
X58321884Y-97822464D01*
X58301357Y-98043999D01*
X58301357Y-98044000D01*
X58321884Y-98265535D01*
X58321885Y-98265537D01*
X58382769Y-98479523D01*
X58382775Y-98479538D01*
X58481938Y-98678683D01*
X58481943Y-98678691D01*
X58616020Y-98856238D01*
X58780437Y-99006123D01*
X58780439Y-99006125D01*
X58969595Y-99123245D01*
X58969596Y-99123245D01*
X58969599Y-99123247D01*
X59177060Y-99203618D01*
X59395757Y-99244500D01*
X59395759Y-99244500D01*
X59618241Y-99244500D01*
X59618243Y-99244500D01*
X59836940Y-99203618D01*
X60044401Y-99123247D01*
X60233562Y-99006124D01*
X60397981Y-98856236D01*
X60532058Y-98678689D01*
X60631229Y-98479528D01*
X60692115Y-98265536D01*
X60712643Y-98044000D01*
X60712643Y-98043999D01*
X65921357Y-98043999D01*
X65921357Y-98044000D01*
X65941884Y-98265535D01*
X65941885Y-98265537D01*
X66002769Y-98479523D01*
X66002775Y-98479538D01*
X66101938Y-98678683D01*
X66101943Y-98678691D01*
X66236020Y-98856238D01*
X66400437Y-99006123D01*
X66400439Y-99006125D01*
X66589595Y-99123245D01*
X66589596Y-99123245D01*
X66589599Y-99123247D01*
X66797060Y-99203618D01*
X67015757Y-99244500D01*
X67015759Y-99244500D01*
X67238241Y-99244500D01*
X67238243Y-99244500D01*
X67456940Y-99203618D01*
X67664401Y-99123247D01*
X67853562Y-99006124D01*
X68017981Y-98856236D01*
X68152058Y-98678689D01*
X68251229Y-98479528D01*
X68312115Y-98265536D01*
X68332643Y-98044000D01*
X68312115Y-97822464D01*
X68251229Y-97608472D01*
X68251224Y-97608461D01*
X68152061Y-97409316D01*
X68152056Y-97409308D01*
X68017979Y-97231761D01*
X67853562Y-97081876D01*
X67853560Y-97081874D01*
X67731233Y-97006133D01*
X67684597Y-96954105D01*
X67673493Y-96885124D01*
X67701446Y-96821089D01*
X67731233Y-96795279D01*
X67853258Y-96719724D01*
X67853260Y-96719722D01*
X68017608Y-96569900D01*
X68151631Y-96392425D01*
X68250760Y-96193349D01*
X68303495Y-96008000D01*
X67371975Y-96008000D01*
X67407070Y-95972905D01*
X67453148Y-95893095D01*
X67477000Y-95804078D01*
X67477000Y-95711922D01*
X67453148Y-95622905D01*
X67407070Y-95543095D01*
X67371975Y-95508000D01*
X68303495Y-95508000D01*
X68250760Y-95322650D01*
X68151631Y-95123574D01*
X68017608Y-94946099D01*
X67853261Y-94796278D01*
X67664179Y-94679202D01*
X67664171Y-94679198D01*
X67633006Y-94667125D01*
X67577605Y-94624552D01*
X67554015Y-94558785D01*
X67569727Y-94490705D01*
X67619751Y-94441926D01*
X67633009Y-94435872D01*
X67664171Y-94423800D01*
X67664181Y-94423795D01*
X67780326Y-94351879D01*
X67127001Y-93698553D01*
X67127000Y-93698553D01*
X66473672Y-94351879D01*
X66473672Y-94351880D01*
X66589821Y-94423797D01*
X66589822Y-94423798D01*
X66620991Y-94435873D01*
X66676393Y-94478446D01*
X66699983Y-94544213D01*
X66684272Y-94612293D01*
X66634248Y-94661072D01*
X66620991Y-94667127D01*
X66589822Y-94679201D01*
X66589820Y-94679202D01*
X66400738Y-94796278D01*
X66236391Y-94946099D01*
X66102368Y-95123574D01*
X66003239Y-95322650D01*
X65950505Y-95508000D01*
X66882025Y-95508000D01*
X66846930Y-95543095D01*
X66800852Y-95622905D01*
X66777000Y-95711922D01*
X66777000Y-95804078D01*
X66800852Y-95893095D01*
X66846930Y-95972905D01*
X66882025Y-96008000D01*
X65950505Y-96008000D01*
X66003239Y-96193349D01*
X66102368Y-96392425D01*
X66236391Y-96569900D01*
X66400738Y-96719721D01*
X66522767Y-96795279D01*
X66569402Y-96847307D01*
X66580506Y-96916289D01*
X66552553Y-96980323D01*
X66522767Y-97006133D01*
X66400436Y-97081877D01*
X66236020Y-97231761D01*
X66101943Y-97409308D01*
X66101938Y-97409316D01*
X66002775Y-97608461D01*
X66002769Y-97608476D01*
X65941885Y-97822462D01*
X65941884Y-97822464D01*
X65921357Y-98043999D01*
X60712643Y-98043999D01*
X60692115Y-97822464D01*
X60631229Y-97608472D01*
X60631224Y-97608461D01*
X60532061Y-97409316D01*
X60532056Y-97409308D01*
X60397979Y-97231761D01*
X60233562Y-97081876D01*
X60233560Y-97081874D01*
X60111707Y-97006427D01*
X60065071Y-96954400D01*
X60053967Y-96885418D01*
X60081920Y-96821384D01*
X60111707Y-96795573D01*
X60233560Y-96720125D01*
X60233559Y-96720125D01*
X60233562Y-96720124D01*
X60397981Y-96570236D01*
X60532058Y-96392689D01*
X60631229Y-96193528D01*
X60692115Y-95979536D01*
X60712643Y-95758000D01*
X60692115Y-95536464D01*
X60656034Y-95409653D01*
X62561887Y-95409653D01*
X62581673Y-95597909D01*
X62581674Y-95597912D01*
X62640165Y-95777930D01*
X62640168Y-95777937D01*
X62734814Y-95941869D01*
X62821434Y-96038070D01*
X62861476Y-96082541D01*
X63014612Y-96193801D01*
X63014617Y-96193804D01*
X63187539Y-96270795D01*
X63187544Y-96270797D01*
X63372701Y-96310153D01*
X63372702Y-96310153D01*
X63561991Y-96310153D01*
X63561993Y-96310153D01*
X63747150Y-96270797D01*
X63920077Y-96193804D01*
X64073218Y-96082541D01*
X64199880Y-95941869D01*
X64294526Y-95777937D01*
X64353021Y-95597909D01*
X64370668Y-95429999D01*
X64397251Y-95365388D01*
X64406297Y-95355292D01*
X64440428Y-95321163D01*
X64501752Y-95287680D01*
X64528107Y-95284847D01*
X64587297Y-95284847D01*
X64587299Y-95284847D01*
X64772456Y-95245491D01*
X64945383Y-95168498D01*
X65098524Y-95057235D01*
X65225186Y-94916563D01*
X65319832Y-94752631D01*
X65378327Y-94572603D01*
X65398113Y-94384347D01*
X65378327Y-94196091D01*
X65319832Y-94016063D01*
X65225186Y-93852131D01*
X65098524Y-93711459D01*
X65098523Y-93711458D01*
X64945387Y-93600198D01*
X64945382Y-93600195D01*
X64772460Y-93523204D01*
X64772455Y-93523202D01*
X64626654Y-93492212D01*
X64587299Y-93483847D01*
X64398007Y-93483847D01*
X64365550Y-93490745D01*
X64212850Y-93523202D01*
X64212845Y-93523204D01*
X64039923Y-93600195D01*
X64039918Y-93600198D01*
X63886782Y-93711458D01*
X63760119Y-93852132D01*
X63665474Y-94016062D01*
X63665471Y-94016069D01*
X63612222Y-94179954D01*
X63606979Y-94196091D01*
X63589332Y-94363997D01*
X63562747Y-94428611D01*
X63553696Y-94438711D01*
X63519575Y-94472833D01*
X63458254Y-94506319D01*
X63431894Y-94509153D01*
X63372701Y-94509153D01*
X63340244Y-94516051D01*
X63187544Y-94548508D01*
X63187539Y-94548510D01*
X63014617Y-94625501D01*
X63014612Y-94625504D01*
X62861476Y-94736764D01*
X62734813Y-94877438D01*
X62640168Y-95041368D01*
X62640165Y-95041375D01*
X62581674Y-95221393D01*
X62581673Y-95221397D01*
X62561887Y-95409653D01*
X60656034Y-95409653D01*
X60631229Y-95322472D01*
X60631224Y-95322461D01*
X60532061Y-95123316D01*
X60532056Y-95123308D01*
X60397979Y-94945761D01*
X60233562Y-94795876D01*
X60233560Y-94795874D01*
X60044404Y-94678754D01*
X60044395Y-94678750D01*
X60014391Y-94667127D01*
X59958989Y-94624555D01*
X59935398Y-94558788D01*
X59951109Y-94490708D01*
X60001132Y-94441928D01*
X60014391Y-94435873D01*
X60033136Y-94428611D01*
X60044401Y-94424247D01*
X60233562Y-94307124D01*
X60397981Y-94157236D01*
X60532058Y-93979689D01*
X60631229Y-93780528D01*
X60692115Y-93566536D01*
X60712643Y-93345000D01*
X60712643Y-93344999D01*
X65921859Y-93344999D01*
X65921859Y-93345000D01*
X65942378Y-93566439D01*
X66003240Y-93780350D01*
X66102369Y-93979428D01*
X66118137Y-94000308D01*
X66118138Y-94000308D01*
X66773447Y-93345000D01*
X66727369Y-93298922D01*
X66777000Y-93298922D01*
X66777000Y-93391078D01*
X66800852Y-93480095D01*
X66846930Y-93559905D01*
X66912095Y-93625070D01*
X66991905Y-93671148D01*
X67080922Y-93695000D01*
X67173078Y-93695000D01*
X67262095Y-93671148D01*
X67341905Y-93625070D01*
X67407070Y-93559905D01*
X67453148Y-93480095D01*
X67477000Y-93391078D01*
X67477000Y-93344999D01*
X67480553Y-93344999D01*
X67480553Y-93345000D01*
X68135861Y-94000308D01*
X68151631Y-93979425D01*
X68151633Y-93979422D01*
X68250759Y-93780350D01*
X68311621Y-93566439D01*
X68332141Y-93345000D01*
X68332141Y-93344999D01*
X68311621Y-93123560D01*
X68250759Y-92909649D01*
X68151635Y-92710580D01*
X68151630Y-92710572D01*
X68135860Y-92689690D01*
X67480553Y-93344999D01*
X67477000Y-93344999D01*
X67477000Y-93298922D01*
X67453148Y-93209905D01*
X67407070Y-93130095D01*
X67341905Y-93064930D01*
X67262095Y-93018852D01*
X67173078Y-92995000D01*
X67080922Y-92995000D01*
X66991905Y-93018852D01*
X66912095Y-93064930D01*
X66846930Y-93130095D01*
X66800852Y-93209905D01*
X66777000Y-93298922D01*
X66727369Y-93298922D01*
X66118138Y-92689691D01*
X66118137Y-92689691D01*
X66102368Y-92710574D01*
X66003240Y-92909649D01*
X65942378Y-93123560D01*
X65921859Y-93344999D01*
X60712643Y-93344999D01*
X60692115Y-93123464D01*
X60631229Y-92909472D01*
X60622935Y-92892815D01*
X60532061Y-92710316D01*
X60532056Y-92710308D01*
X60397979Y-92532761D01*
X60233562Y-92382876D01*
X60233560Y-92382874D01*
X60044404Y-92265754D01*
X60044398Y-92265752D01*
X59982123Y-92241626D01*
X59926723Y-92199054D01*
X59903132Y-92133287D01*
X59918843Y-92065207D01*
X59968867Y-92016428D01*
X59982119Y-92010374D01*
X60044401Y-91986247D01*
X60233562Y-91869124D01*
X60397981Y-91719236D01*
X60532058Y-91541689D01*
X60631229Y-91342528D01*
X60692115Y-91128536D01*
X60712643Y-90907000D01*
X60712643Y-90906999D01*
X65921357Y-90906999D01*
X65921357Y-90907000D01*
X65941884Y-91128535D01*
X65941885Y-91128537D01*
X66002769Y-91342523D01*
X66002775Y-91342538D01*
X66101938Y-91541683D01*
X66101943Y-91541691D01*
X66236020Y-91719238D01*
X66400437Y-91869123D01*
X66400439Y-91869125D01*
X66589595Y-91986245D01*
X66589597Y-91986246D01*
X66589599Y-91986247D01*
X66652565Y-92010640D01*
X66707967Y-92053212D01*
X66731558Y-92118979D01*
X66715847Y-92187060D01*
X66665824Y-92235839D01*
X66652567Y-92241893D01*
X66589830Y-92266197D01*
X66589823Y-92266201D01*
X66473671Y-92338119D01*
X67127000Y-92991447D01*
X67127001Y-92991447D01*
X67780327Y-92338119D01*
X67664178Y-92266202D01*
X67664171Y-92266198D01*
X67601432Y-92241893D01*
X67546031Y-92199320D01*
X67522441Y-92133553D01*
X67538153Y-92065473D01*
X67588177Y-92016694D01*
X67601425Y-92010643D01*
X67664401Y-91986247D01*
X67853562Y-91869124D01*
X68017981Y-91719236D01*
X68152058Y-91541689D01*
X68251229Y-91342528D01*
X68312115Y-91128536D01*
X68332643Y-90907000D01*
X68312115Y-90685464D01*
X68251229Y-90471472D01*
X68221636Y-90412041D01*
X68152061Y-90272316D01*
X68152056Y-90272308D01*
X68017979Y-90094761D01*
X67853562Y-89944876D01*
X67853560Y-89944874D01*
X67664404Y-89827754D01*
X67664398Y-89827752D01*
X67456940Y-89747382D01*
X67238243Y-89706500D01*
X67015757Y-89706500D01*
X66797060Y-89747382D01*
X66665864Y-89798207D01*
X66589601Y-89827752D01*
X66589595Y-89827754D01*
X66400439Y-89944874D01*
X66400437Y-89944876D01*
X66236020Y-90094761D01*
X66101943Y-90272308D01*
X66101938Y-90272316D01*
X66002775Y-90471461D01*
X66002769Y-90471476D01*
X65941885Y-90685462D01*
X65941884Y-90685464D01*
X65921357Y-90906999D01*
X60712643Y-90906999D01*
X60692115Y-90685464D01*
X60631229Y-90471472D01*
X60601636Y-90412041D01*
X60532061Y-90272316D01*
X60532056Y-90272308D01*
X60397979Y-90094761D01*
X60233562Y-89944876D01*
X60233560Y-89944874D01*
X60044404Y-89827754D01*
X60044398Y-89827752D01*
X59836940Y-89747382D01*
X59618243Y-89706500D01*
X59395757Y-89706500D01*
X59177060Y-89747382D01*
X59045864Y-89798207D01*
X58969601Y-89827752D01*
X58969595Y-89827754D01*
X58780439Y-89944874D01*
X58780437Y-89944876D01*
X58616020Y-90094761D01*
X58481943Y-90272308D01*
X58481938Y-90272316D01*
X58382775Y-90471461D01*
X58382769Y-90471476D01*
X58321885Y-90685462D01*
X58321884Y-90685464D01*
X58301357Y-90906999D01*
X56602551Y-90906999D01*
X56710568Y-90752734D01*
X56806739Y-90546496D01*
X56865635Y-90326692D01*
X56885468Y-90100000D01*
X56865635Y-89873308D01*
X56806739Y-89653504D01*
X56710568Y-89447266D01*
X56580047Y-89260861D01*
X56580045Y-89260858D01*
X56419141Y-89099954D01*
X56232734Y-88969432D01*
X56232728Y-88969429D01*
X56174725Y-88942382D01*
X56122285Y-88896210D01*
X56103133Y-88829017D01*
X56123348Y-88762135D01*
X56174725Y-88717618D01*
X56232734Y-88690568D01*
X56419139Y-88560047D01*
X56580047Y-88399139D01*
X56710568Y-88212734D01*
X56806739Y-88006496D01*
X56865635Y-87786692D01*
X56885468Y-87560000D01*
X56865635Y-87333308D01*
X56806739Y-87113504D01*
X56710568Y-86907266D01*
X56612839Y-86767693D01*
X56580045Y-86720858D01*
X56419141Y-86559954D01*
X56232734Y-86429432D01*
X56232728Y-86429429D01*
X56174725Y-86402382D01*
X56122285Y-86356210D01*
X56103133Y-86289017D01*
X56123348Y-86222135D01*
X56174725Y-86177618D01*
X56195844Y-86167770D01*
X56232734Y-86150568D01*
X56419139Y-86020047D01*
X56580047Y-85859139D01*
X56710568Y-85672734D01*
X56806739Y-85466496D01*
X56865635Y-85246692D01*
X56885468Y-85020000D01*
X56865635Y-84793308D01*
X56806739Y-84573504D01*
X56710568Y-84367266D01*
X56580047Y-84180861D01*
X56580045Y-84180858D01*
X56419141Y-84019954D01*
X56232734Y-83889432D01*
X56232728Y-83889429D01*
X56174725Y-83862382D01*
X56122285Y-83816210D01*
X56103133Y-83749017D01*
X56123348Y-83682135D01*
X56174725Y-83637618D01*
X56232734Y-83610568D01*
X56419139Y-83480047D01*
X56580047Y-83319139D01*
X56710568Y-83132734D01*
X56806739Y-82926496D01*
X56865635Y-82706692D01*
X56885468Y-82480000D01*
X56871264Y-82317648D01*
X57679500Y-82317648D01*
X57679500Y-82522351D01*
X57711522Y-82724534D01*
X57774781Y-82919223D01*
X57867715Y-83101613D01*
X57988028Y-83267213D01*
X58132786Y-83411971D01*
X58287749Y-83524556D01*
X58298390Y-83532287D01*
X58389840Y-83578883D01*
X58391080Y-83579515D01*
X58441876Y-83627490D01*
X58458671Y-83695311D01*
X58436134Y-83761446D01*
X58391080Y-83800485D01*
X58298386Y-83847715D01*
X58132786Y-83968028D01*
X57988028Y-84112786D01*
X57867715Y-84278386D01*
X57774781Y-84460776D01*
X57711522Y-84655465D01*
X57688284Y-84802187D01*
X57679500Y-84857648D01*
X57679500Y-85062352D01*
X57683505Y-85087636D01*
X57711522Y-85264534D01*
X57774781Y-85459223D01*
X57867715Y-85641613D01*
X57988028Y-85807213D01*
X58132786Y-85951971D01*
X58287749Y-86064556D01*
X58298390Y-86072287D01*
X58370424Y-86108990D01*
X58391629Y-86119795D01*
X58442425Y-86167770D01*
X58459220Y-86235591D01*
X58436682Y-86301726D01*
X58391629Y-86340765D01*
X58298650Y-86388140D01*
X58133105Y-86508417D01*
X58133104Y-86508417D01*
X57988417Y-86653104D01*
X57988417Y-86653105D01*
X57868140Y-86818650D01*
X57775244Y-87000970D01*
X57712009Y-87195586D01*
X57703391Y-87250000D01*
X59064314Y-87250000D01*
X59059920Y-87254394D01*
X59007259Y-87345606D01*
X58980000Y-87447339D01*
X58980000Y-87552661D01*
X59007259Y-87654394D01*
X59059920Y-87745606D01*
X59064314Y-87750000D01*
X57703391Y-87750000D01*
X57712009Y-87804413D01*
X57775244Y-87999029D01*
X57868140Y-88181349D01*
X57988417Y-88346894D01*
X57988417Y-88346895D01*
X58133104Y-88491582D01*
X58298650Y-88611859D01*
X58480968Y-88704755D01*
X58675582Y-88767990D01*
X58877683Y-88800000D01*
X59130000Y-88800000D01*
X59130000Y-87815686D01*
X59134394Y-87820080D01*
X59225606Y-87872741D01*
X59327339Y-87900000D01*
X59432661Y-87900000D01*
X59534394Y-87872741D01*
X59625606Y-87820080D01*
X59630000Y-87815686D01*
X59630000Y-88800000D01*
X59882317Y-88800000D01*
X60084417Y-88767990D01*
X60279031Y-88704755D01*
X60461349Y-88611859D01*
X60626894Y-88491582D01*
X60626895Y-88491582D01*
X60771582Y-88346895D01*
X60771582Y-88346894D01*
X60891859Y-88181349D01*
X60984755Y-87999029D01*
X61047990Y-87804413D01*
X61056609Y-87750000D01*
X59695686Y-87750000D01*
X59700080Y-87745606D01*
X59752741Y-87654394D01*
X59780000Y-87552661D01*
X59780000Y-87447339D01*
X59752741Y-87345606D01*
X59700080Y-87254394D01*
X59695686Y-87250000D01*
X61056609Y-87250000D01*
X61047990Y-87195586D01*
X60984755Y-87000970D01*
X60891859Y-86818650D01*
X60771582Y-86653105D01*
X60771582Y-86653104D01*
X60626895Y-86508417D01*
X60461349Y-86388140D01*
X60368370Y-86340765D01*
X60317574Y-86292790D01*
X60300779Y-86224969D01*
X60323316Y-86158835D01*
X60368370Y-86119795D01*
X60387160Y-86110221D01*
X60461610Y-86072287D01*
X60533516Y-86020045D01*
X60627213Y-85951971D01*
X60627215Y-85951968D01*
X60627219Y-85951966D01*
X60771966Y-85807219D01*
X60771968Y-85807215D01*
X60771971Y-85807213D01*
X60869674Y-85672734D01*
X60892287Y-85641610D01*
X60985220Y-85459219D01*
X61048477Y-85264534D01*
X61080500Y-85062352D01*
X61080500Y-84857648D01*
X61048477Y-84655466D01*
X61041497Y-84633985D01*
X60985218Y-84460776D01*
X60937572Y-84367267D01*
X60892287Y-84278390D01*
X60821429Y-84180861D01*
X60771971Y-84112786D01*
X60627213Y-83968028D01*
X60461614Y-83847715D01*
X60403030Y-83817865D01*
X60368917Y-83800483D01*
X60318123Y-83752511D01*
X60301328Y-83684690D01*
X60323865Y-83618555D01*
X60368917Y-83579516D01*
X60461610Y-83532287D01*
X60533516Y-83480045D01*
X60627213Y-83411971D01*
X60627215Y-83411968D01*
X60627219Y-83411966D01*
X60771966Y-83267219D01*
X60771968Y-83267215D01*
X60771971Y-83267213D01*
X60869674Y-83132734D01*
X60892287Y-83101610D01*
X60985220Y-82919219D01*
X61048477Y-82724534D01*
X61080500Y-82522352D01*
X61080500Y-82317648D01*
X61048477Y-82115466D01*
X60985220Y-81920781D01*
X60985218Y-81920778D01*
X60985218Y-81920776D01*
X60937572Y-81827267D01*
X60892287Y-81738390D01*
X60821429Y-81640861D01*
X60771971Y-81572786D01*
X60627217Y-81428032D01*
X60627212Y-81428028D01*
X60590325Y-81401228D01*
X60547659Y-81345898D01*
X60541680Y-81276285D01*
X60574286Y-81214490D01*
X60635124Y-81180133D01*
X60649956Y-81177620D01*
X60687379Y-81173596D01*
X60822086Y-81123354D01*
X60822093Y-81123350D01*
X60937187Y-81037190D01*
X60937190Y-81037187D01*
X61023350Y-80922093D01*
X61023354Y-80922086D01*
X61073596Y-80787379D01*
X61073598Y-80787372D01*
X61079999Y-80727844D01*
X61080000Y-80727827D01*
X61080000Y-80130000D01*
X59695686Y-80130000D01*
X59700080Y-80125606D01*
X59752741Y-80034394D01*
X59780000Y-79932661D01*
X59780000Y-79827339D01*
X59766685Y-79777648D01*
X65299500Y-79777648D01*
X65299500Y-79982351D01*
X65331522Y-80184534D01*
X65394781Y-80379223D01*
X65487715Y-80561613D01*
X65608028Y-80727213D01*
X65752786Y-80871971D01*
X65907749Y-80984556D01*
X65918390Y-80992287D01*
X66006511Y-81037187D01*
X66011080Y-81039515D01*
X66061876Y-81087490D01*
X66078671Y-81155311D01*
X66056134Y-81221446D01*
X66011080Y-81260485D01*
X65918386Y-81307715D01*
X65752786Y-81428028D01*
X65608028Y-81572786D01*
X65487715Y-81738386D01*
X65394781Y-81920776D01*
X65331522Y-82115465D01*
X65299500Y-82317648D01*
X65299500Y-82522351D01*
X65331522Y-82724534D01*
X65394781Y-82919223D01*
X65487715Y-83101613D01*
X65608028Y-83267213D01*
X65752786Y-83411971D01*
X65907749Y-83524556D01*
X65918390Y-83532287D01*
X66009840Y-83578883D01*
X66011080Y-83579515D01*
X66061876Y-83627490D01*
X66078671Y-83695311D01*
X66056134Y-83761446D01*
X66011080Y-83800485D01*
X65918386Y-83847715D01*
X65752786Y-83968028D01*
X65608028Y-84112786D01*
X65487715Y-84278386D01*
X65394781Y-84460776D01*
X65331522Y-84655465D01*
X65308284Y-84802187D01*
X65299500Y-84857648D01*
X65299500Y-85062352D01*
X65303505Y-85087636D01*
X65331522Y-85264534D01*
X65394781Y-85459223D01*
X65487715Y-85641613D01*
X65608028Y-85807213D01*
X65752786Y-85951971D01*
X65907749Y-86064556D01*
X65918390Y-86072287D01*
X65992840Y-86110221D01*
X66011080Y-86119515D01*
X66061876Y-86167490D01*
X66078671Y-86235311D01*
X66056134Y-86301446D01*
X66011080Y-86340485D01*
X65918386Y-86387715D01*
X65752786Y-86508028D01*
X65608028Y-86652786D01*
X65487715Y-86818386D01*
X65394781Y-87000776D01*
X65331522Y-87195465D01*
X65299500Y-87397648D01*
X65299500Y-87602351D01*
X65331522Y-87804534D01*
X65394781Y-87999223D01*
X65458691Y-88124653D01*
X65463695Y-88134473D01*
X65487715Y-88181613D01*
X65608028Y-88347213D01*
X65752786Y-88491971D01*
X65907749Y-88604556D01*
X65918390Y-88612287D01*
X66034607Y-88671503D01*
X66100776Y-88705218D01*
X66100778Y-88705218D01*
X66100781Y-88705220D01*
X66205137Y-88739127D01*
X66295465Y-88768477D01*
X66396557Y-88784488D01*
X66497648Y-88800500D01*
X66497649Y-88800500D01*
X67502351Y-88800500D01*
X67502352Y-88800500D01*
X67704534Y-88768477D01*
X67899219Y-88705220D01*
X68081610Y-88612287D01*
X68204570Y-88522952D01*
X68247213Y-88491971D01*
X68247215Y-88491968D01*
X68247219Y-88491966D01*
X68391966Y-88347219D01*
X68391968Y-88347215D01*
X68391971Y-88347213D01*
X68489674Y-88212734D01*
X68512287Y-88181610D01*
X68605220Y-87999219D01*
X68668477Y-87804534D01*
X68700500Y-87602352D01*
X68700500Y-87397648D01*
X68682284Y-87282636D01*
X68668477Y-87195465D01*
X68605218Y-87000776D01*
X68557572Y-86907267D01*
X68512287Y-86818390D01*
X68441429Y-86720861D01*
X68391971Y-86652786D01*
X68247213Y-86508028D01*
X68081614Y-86387715D01*
X68023030Y-86357865D01*
X67988917Y-86340483D01*
X67938123Y-86292511D01*
X67921328Y-86224690D01*
X67943865Y-86158555D01*
X67988917Y-86119516D01*
X68081610Y-86072287D01*
X68153516Y-86020045D01*
X68247213Y-85951971D01*
X68247215Y-85951968D01*
X68247219Y-85951966D01*
X68391966Y-85807219D01*
X68391968Y-85807215D01*
X68391971Y-85807213D01*
X68489674Y-85672734D01*
X68512287Y-85641610D01*
X68605220Y-85459219D01*
X68668477Y-85264534D01*
X68700500Y-85062352D01*
X68700500Y-84857648D01*
X68668477Y-84655466D01*
X68661497Y-84633985D01*
X68605218Y-84460776D01*
X68557572Y-84367267D01*
X68512287Y-84278390D01*
X68441429Y-84180861D01*
X68391971Y-84112786D01*
X68247213Y-83968028D01*
X68081614Y-83847715D01*
X68023030Y-83817865D01*
X67988917Y-83800483D01*
X67938123Y-83752511D01*
X67921328Y-83684690D01*
X67943865Y-83618555D01*
X67988917Y-83579516D01*
X68081610Y-83532287D01*
X68153516Y-83480045D01*
X68247213Y-83411971D01*
X68247215Y-83411968D01*
X68247219Y-83411966D01*
X68391966Y-83267219D01*
X68391968Y-83267215D01*
X68391971Y-83267213D01*
X68489674Y-83132734D01*
X68512287Y-83101610D01*
X68605220Y-82919219D01*
X68668477Y-82724534D01*
X68700500Y-82522352D01*
X68700500Y-82317648D01*
X68668477Y-82115466D01*
X68605220Y-81920781D01*
X68605218Y-81920778D01*
X68605218Y-81920776D01*
X68557572Y-81827267D01*
X68512287Y-81738390D01*
X68441429Y-81640861D01*
X68391971Y-81572786D01*
X68247213Y-81428028D01*
X68081614Y-81307715D01*
X68019929Y-81276285D01*
X67988917Y-81260483D01*
X67938123Y-81212511D01*
X67921328Y-81144690D01*
X67943865Y-81078555D01*
X67988917Y-81039516D01*
X68081610Y-80992287D01*
X68178225Y-80922093D01*
X68247213Y-80871971D01*
X68247215Y-80871968D01*
X68247219Y-80871966D01*
X68391966Y-80727219D01*
X68391968Y-80727215D01*
X68391971Y-80727213D01*
X68489674Y-80592734D01*
X68512287Y-80561610D01*
X68605220Y-80379219D01*
X68668477Y-80184534D01*
X68700500Y-79982352D01*
X68700500Y-79777648D01*
X68688202Y-79700001D01*
X68668477Y-79575465D01*
X68605218Y-79380776D01*
X68557572Y-79287267D01*
X68512287Y-79198390D01*
X68441429Y-79100861D01*
X68391971Y-79032786D01*
X68247213Y-78888028D01*
X68081613Y-78767715D01*
X68081612Y-78767714D01*
X68081610Y-78767713D01*
X67993487Y-78722812D01*
X67899223Y-78674781D01*
X67704534Y-78611522D01*
X67529995Y-78583878D01*
X67502352Y-78579500D01*
X66497648Y-78579500D01*
X66473329Y-78583351D01*
X66295465Y-78611522D01*
X66100776Y-78674781D01*
X65918386Y-78767715D01*
X65752786Y-78888028D01*
X65608028Y-79032786D01*
X65487715Y-79198386D01*
X65394781Y-79380776D01*
X65331522Y-79575465D01*
X65299500Y-79777648D01*
X59766685Y-79777648D01*
X59752741Y-79725606D01*
X59700080Y-79634394D01*
X59695686Y-79630000D01*
X61080000Y-79630000D01*
X61080000Y-79032172D01*
X61079999Y-79032155D01*
X61073598Y-78972627D01*
X61073596Y-78972620D01*
X61023354Y-78837913D01*
X61023350Y-78837906D01*
X60937190Y-78722812D01*
X60937187Y-78722809D01*
X60822093Y-78636649D01*
X60822086Y-78636645D01*
X60687379Y-78586403D01*
X60687372Y-78586401D01*
X60627844Y-78580000D01*
X59630000Y-78580000D01*
X59630000Y-79564314D01*
X59625606Y-79559920D01*
X59534394Y-79507259D01*
X59432661Y-79480000D01*
X59327339Y-79480000D01*
X59225606Y-79507259D01*
X59134394Y-79559920D01*
X59130000Y-79564314D01*
X59130000Y-78580000D01*
X58132155Y-78580000D01*
X58072627Y-78586401D01*
X58072620Y-78586403D01*
X57937913Y-78636645D01*
X57937906Y-78636649D01*
X57822812Y-78722809D01*
X57822809Y-78722812D01*
X57736649Y-78837906D01*
X57736645Y-78837913D01*
X57686403Y-78972620D01*
X57686401Y-78972627D01*
X57680000Y-79032155D01*
X57680000Y-79630000D01*
X59064314Y-79630000D01*
X59059920Y-79634394D01*
X59007259Y-79725606D01*
X58980000Y-79827339D01*
X58980000Y-79932661D01*
X59007259Y-80034394D01*
X59059920Y-80125606D01*
X59064314Y-80130000D01*
X57680000Y-80130000D01*
X57680000Y-80727844D01*
X57686401Y-80787372D01*
X57686403Y-80787379D01*
X57736645Y-80922086D01*
X57736649Y-80922093D01*
X57822809Y-81037187D01*
X57822812Y-81037190D01*
X57937906Y-81123350D01*
X57937913Y-81123354D01*
X58072620Y-81173596D01*
X58110043Y-81177620D01*
X58174595Y-81204358D01*
X58214443Y-81261750D01*
X58216937Y-81331576D01*
X58181285Y-81391665D01*
X58169675Y-81401227D01*
X58132789Y-81428026D01*
X58132782Y-81428032D01*
X57988028Y-81572786D01*
X57867715Y-81738386D01*
X57774781Y-81920776D01*
X57711522Y-82115465D01*
X57679500Y-82317648D01*
X56871264Y-82317648D01*
X56865635Y-82253308D01*
X56806739Y-82033504D01*
X56710568Y-81827266D01*
X56580047Y-81640861D01*
X56580045Y-81640858D01*
X56419141Y-81479954D01*
X56232734Y-81349432D01*
X56232728Y-81349429D01*
X56174725Y-81322382D01*
X56122285Y-81276210D01*
X56103133Y-81209017D01*
X56123348Y-81142135D01*
X56174725Y-81097618D01*
X56232734Y-81070568D01*
X56419139Y-80940047D01*
X56580047Y-80779139D01*
X56710568Y-80592734D01*
X56806739Y-80386496D01*
X56865635Y-80166692D01*
X56885468Y-79940000D01*
X56865635Y-79713308D01*
X56806739Y-79493504D01*
X56710568Y-79287266D01*
X56580047Y-79100861D01*
X56580045Y-79100858D01*
X56419141Y-78939954D01*
X56232734Y-78809432D01*
X56232732Y-78809431D01*
X56174725Y-78782382D01*
X56174132Y-78782105D01*
X56121694Y-78735934D01*
X56102542Y-78668740D01*
X56122758Y-78601859D01*
X56174134Y-78557341D01*
X56232484Y-78530132D01*
X56418820Y-78399657D01*
X56579657Y-78238820D01*
X56710134Y-78052482D01*
X56806265Y-77846326D01*
X56806269Y-77846317D01*
X56858872Y-77650000D01*
X56013012Y-77650000D01*
X56045925Y-77592993D01*
X56080000Y-77465826D01*
X56080000Y-77334174D01*
X56045925Y-77207007D01*
X56013012Y-77150000D01*
X56858872Y-77150000D01*
X56858872Y-77149999D01*
X56806269Y-76953682D01*
X56806265Y-76953673D01*
X56785899Y-76909997D01*
X63104034Y-76909997D01*
X63104034Y-76910002D01*
X63123858Y-77136599D01*
X63123860Y-77136610D01*
X63182730Y-77356317D01*
X63182735Y-77356331D01*
X63278863Y-77562478D01*
X63329974Y-77635472D01*
X64009000Y-76956446D01*
X64009000Y-76962661D01*
X64036259Y-77064394D01*
X64088920Y-77155606D01*
X64163394Y-77230080D01*
X64254606Y-77282741D01*
X64356339Y-77310000D01*
X64362553Y-77310000D01*
X63683526Y-77989025D01*
X63756513Y-78040132D01*
X63756521Y-78040136D01*
X63962668Y-78136264D01*
X63962682Y-78136269D01*
X64182389Y-78195139D01*
X64182400Y-78195141D01*
X64408998Y-78214966D01*
X64409002Y-78214966D01*
X64635599Y-78195141D01*
X64635610Y-78195139D01*
X64855317Y-78136269D01*
X64855331Y-78136264D01*
X65061478Y-78040136D01*
X65134471Y-77989024D01*
X64455447Y-77310000D01*
X64461661Y-77310000D01*
X64563394Y-77282741D01*
X64654606Y-77230080D01*
X64729080Y-77155606D01*
X64781741Y-77064394D01*
X64809000Y-76962661D01*
X64809000Y-76956447D01*
X65488024Y-77635471D01*
X65539134Y-77562481D01*
X65546340Y-77547028D01*
X65592511Y-77494587D01*
X65659704Y-77475433D01*
X65726585Y-77495646D01*
X65771105Y-77547022D01*
X65778430Y-77562730D01*
X65778432Y-77562734D01*
X65908954Y-77749141D01*
X66069858Y-77910045D01*
X66069861Y-77910047D01*
X66256266Y-78040568D01*
X66462504Y-78136739D01*
X66682308Y-78195635D01*
X66844230Y-78209801D01*
X66908998Y-78215468D01*
X66909000Y-78215468D01*
X66909002Y-78215468D01*
X66965673Y-78210509D01*
X67135692Y-78195635D01*
X67355496Y-78136739D01*
X67561734Y-78040568D01*
X67748139Y-77910047D01*
X67909047Y-77749139D01*
X68039568Y-77562734D01*
X68135739Y-77356496D01*
X68194635Y-77136692D01*
X68214468Y-76910000D01*
X68194635Y-76683308D01*
X68135739Y-76463504D01*
X68039568Y-76257266D01*
X67909047Y-76070861D01*
X67909045Y-76070858D01*
X67748141Y-75909954D01*
X67635343Y-75830973D01*
X67561734Y-75779432D01*
X67438559Y-75721994D01*
X67427667Y-75716915D01*
X67375228Y-75670742D01*
X67356077Y-75603548D01*
X67376293Y-75536667D01*
X67429459Y-75491333D01*
X67434080Y-75489406D01*
X67434396Y-75489248D01*
X67434401Y-75489247D01*
X67623562Y-75372124D01*
X67787981Y-75222236D01*
X67922058Y-75044689D01*
X68021229Y-74845528D01*
X68082115Y-74631536D01*
X68102643Y-74410000D01*
X68082115Y-74188464D01*
X68021229Y-73974472D01*
X68021224Y-73974461D01*
X67922061Y-73775316D01*
X67922056Y-73775308D01*
X67787979Y-73597761D01*
X67623562Y-73447876D01*
X67623560Y-73447874D01*
X67501707Y-73372427D01*
X67455071Y-73320400D01*
X67443967Y-73251418D01*
X67471920Y-73187384D01*
X67501707Y-73161573D01*
X67623560Y-73086125D01*
X67623559Y-73086125D01*
X67623562Y-73086124D01*
X67787981Y-72936236D01*
X67922058Y-72758689D01*
X68021229Y-72559528D01*
X68082115Y-72345536D01*
X68102643Y-72124000D01*
X68099799Y-72093313D01*
X68082115Y-71902464D01*
X68082114Y-71902462D01*
X68073925Y-71873682D01*
X68021229Y-71688472D01*
X68010795Y-71667517D01*
X67922061Y-71489316D01*
X67922056Y-71489308D01*
X67787979Y-71311761D01*
X67623562Y-71161876D01*
X67623560Y-71161874D01*
X67434404Y-71044754D01*
X67434398Y-71044752D01*
X67425738Y-71041397D01*
X67226940Y-70964382D01*
X67008243Y-70923500D01*
X66785757Y-70923500D01*
X66567060Y-70964382D01*
X66457724Y-71006739D01*
X66359601Y-71044752D01*
X66359595Y-71044754D01*
X66170439Y-71161874D01*
X66170437Y-71161876D01*
X66006020Y-71311761D01*
X65871943Y-71489308D01*
X65871938Y-71489316D01*
X65772775Y-71688461D01*
X65772769Y-71688476D01*
X65711885Y-71902462D01*
X65711884Y-71902464D01*
X65691357Y-72123999D01*
X65691357Y-72124000D01*
X65711884Y-72345535D01*
X65711885Y-72345537D01*
X65772769Y-72559523D01*
X65772775Y-72559538D01*
X65871938Y-72758683D01*
X65871943Y-72758691D01*
X66006020Y-72936238D01*
X66170437Y-73086123D01*
X66170439Y-73086125D01*
X66292292Y-73161573D01*
X66338928Y-73213601D01*
X66350032Y-73282582D01*
X66322079Y-73346617D01*
X66292292Y-73372427D01*
X66170439Y-73447874D01*
X66170437Y-73447876D01*
X66006020Y-73597761D01*
X65871943Y-73775308D01*
X65871938Y-73775316D01*
X65772775Y-73974461D01*
X65772769Y-73974476D01*
X65711885Y-74188462D01*
X65711884Y-74188464D01*
X65691357Y-74409999D01*
X65691357Y-74410000D01*
X65711884Y-74631535D01*
X65711885Y-74631537D01*
X65772769Y-74845523D01*
X65772775Y-74845538D01*
X65871938Y-75044683D01*
X65871943Y-75044691D01*
X66006020Y-75222238D01*
X66170437Y-75372123D01*
X66170439Y-75372125D01*
X66359595Y-75489245D01*
X66359607Y-75489251D01*
X66371828Y-75493985D01*
X66427230Y-75536556D01*
X66450822Y-75602323D01*
X66435112Y-75670403D01*
X66385089Y-75719183D01*
X66379441Y-75721994D01*
X66256267Y-75779431D01*
X66256265Y-75779432D01*
X66069858Y-75909954D01*
X65908954Y-76070858D01*
X65778432Y-76257265D01*
X65778429Y-76257270D01*
X65771104Y-76272979D01*
X65724929Y-76325417D01*
X65657735Y-76344566D01*
X65590855Y-76324347D01*
X65546341Y-76272973D01*
X65539133Y-76257515D01*
X65539132Y-76257513D01*
X65488025Y-76184526D01*
X64809000Y-76863551D01*
X64809000Y-76857339D01*
X64781741Y-76755606D01*
X64729080Y-76664394D01*
X64654606Y-76589920D01*
X64563394Y-76537259D01*
X64461661Y-76510000D01*
X64455448Y-76510000D01*
X65134472Y-75830974D01*
X65061478Y-75779863D01*
X64855331Y-75683735D01*
X64855317Y-75683730D01*
X64635610Y-75624860D01*
X64635599Y-75624858D01*
X64409002Y-75605034D01*
X64408998Y-75605034D01*
X64182400Y-75624858D01*
X64182389Y-75624860D01*
X63962682Y-75683730D01*
X63962673Y-75683734D01*
X63756516Y-75779866D01*
X63756512Y-75779868D01*
X63683526Y-75830973D01*
X63683526Y-75830974D01*
X64362553Y-76510000D01*
X64356339Y-76510000D01*
X64254606Y-76537259D01*
X64163394Y-76589920D01*
X64088920Y-76664394D01*
X64036259Y-76755606D01*
X64009000Y-76857339D01*
X64009000Y-76863552D01*
X63329974Y-76184526D01*
X63329973Y-76184526D01*
X63278868Y-76257512D01*
X63278866Y-76257516D01*
X63182734Y-76463673D01*
X63182730Y-76463682D01*
X63123860Y-76683389D01*
X63123858Y-76683400D01*
X63104034Y-76909997D01*
X56785899Y-76909997D01*
X56710134Y-76747517D01*
X56579657Y-76561179D01*
X56418820Y-76400342D01*
X56232482Y-76269865D01*
X56174133Y-76242657D01*
X56121694Y-76196484D01*
X56102542Y-76129291D01*
X56122758Y-76062410D01*
X56174129Y-76017895D01*
X56232734Y-75990568D01*
X56419139Y-75860047D01*
X56580047Y-75699139D01*
X56710568Y-75512734D01*
X56806739Y-75306496D01*
X56865635Y-75086692D01*
X56885468Y-74860000D01*
X56884201Y-74845523D01*
X56865635Y-74633313D01*
X56865635Y-74633308D01*
X56806739Y-74413504D01*
X56710568Y-74207266D01*
X56580047Y-74020861D01*
X56580045Y-74020858D01*
X56419141Y-73859954D01*
X56232734Y-73729432D01*
X56232728Y-73729429D01*
X56174725Y-73702382D01*
X56122285Y-73656210D01*
X56103133Y-73589017D01*
X56123348Y-73522135D01*
X56174725Y-73477618D01*
X56175319Y-73477341D01*
X56232734Y-73450568D01*
X56419139Y-73320047D01*
X56580047Y-73159139D01*
X56710568Y-72972734D01*
X56806739Y-72766496D01*
X56865635Y-72546692D01*
X56885468Y-72320000D01*
X56868320Y-72123999D01*
X58071357Y-72123999D01*
X58071357Y-72124000D01*
X58091884Y-72345535D01*
X58091885Y-72345537D01*
X58152769Y-72559523D01*
X58152775Y-72559538D01*
X58251938Y-72758683D01*
X58251943Y-72758691D01*
X58386020Y-72936238D01*
X58550437Y-73086123D01*
X58550439Y-73086125D01*
X58672292Y-73161573D01*
X58718928Y-73213601D01*
X58730032Y-73282582D01*
X58702079Y-73346617D01*
X58672292Y-73372427D01*
X58550439Y-73447874D01*
X58550437Y-73447876D01*
X58386020Y-73597761D01*
X58251943Y-73775308D01*
X58251938Y-73775316D01*
X58152775Y-73974461D01*
X58152769Y-73974476D01*
X58091885Y-74188462D01*
X58091884Y-74188464D01*
X58071357Y-74409999D01*
X58071357Y-74410000D01*
X58091884Y-74631535D01*
X58091885Y-74631537D01*
X58152769Y-74845523D01*
X58152775Y-74845538D01*
X58251938Y-75044683D01*
X58251943Y-75044691D01*
X58386020Y-75222238D01*
X58550437Y-75372123D01*
X58550439Y-75372125D01*
X58739595Y-75489245D01*
X58739596Y-75489245D01*
X58739599Y-75489247D01*
X58947060Y-75569618D01*
X59165757Y-75610500D01*
X59165759Y-75610500D01*
X59388241Y-75610500D01*
X59388243Y-75610500D01*
X59606940Y-75569618D01*
X59814401Y-75489247D01*
X60003562Y-75372124D01*
X60167981Y-75222236D01*
X60302058Y-75044689D01*
X60401229Y-74845528D01*
X60462115Y-74631536D01*
X60482643Y-74410000D01*
X60462115Y-74188464D01*
X60401229Y-73974472D01*
X60401224Y-73974461D01*
X60302061Y-73775316D01*
X60302056Y-73775308D01*
X60167979Y-73597761D01*
X60003562Y-73447876D01*
X60003560Y-73447874D01*
X59881707Y-73372427D01*
X59835071Y-73320400D01*
X59823967Y-73251418D01*
X59851920Y-73187384D01*
X59881707Y-73161573D01*
X60003560Y-73086125D01*
X60003559Y-73086125D01*
X60003562Y-73086124D01*
X60167981Y-72936236D01*
X60302058Y-72758689D01*
X60401229Y-72559528D01*
X60462115Y-72345536D01*
X60482643Y-72124000D01*
X60479799Y-72093313D01*
X60478112Y-72075101D01*
X60491527Y-72006531D01*
X60539884Y-71956100D01*
X60607830Y-71939817D01*
X60673793Y-71962854D01*
X60674271Y-71963199D01*
X60733913Y-72006531D01*
X60743923Y-72013804D01*
X60916845Y-72090795D01*
X60916850Y-72090797D01*
X61102007Y-72130153D01*
X61102008Y-72130153D01*
X61291297Y-72130153D01*
X61291299Y-72130153D01*
X61476456Y-72090797D01*
X61649383Y-72013804D01*
X61802524Y-71902541D01*
X61929186Y-71761869D01*
X62023832Y-71597937D01*
X62082327Y-71417909D01*
X62102113Y-71229653D01*
X62082327Y-71041397D01*
X62023832Y-70861369D01*
X61929186Y-70697437D01*
X61802524Y-70556765D01*
X61796592Y-70552455D01*
X61649387Y-70445504D01*
X61649382Y-70445501D01*
X61476460Y-70368510D01*
X61476455Y-70368508D01*
X61330654Y-70337518D01*
X61291299Y-70329153D01*
X61102007Y-70329153D01*
X61069550Y-70336051D01*
X60916850Y-70368508D01*
X60916845Y-70368510D01*
X60743923Y-70445501D01*
X60743921Y-70445503D01*
X60708646Y-70471131D01*
X60642840Y-70494609D01*
X60574786Y-70478782D01*
X60548082Y-70458492D01*
X59925807Y-69836217D01*
X59895109Y-69779998D01*
X69514532Y-69779998D01*
X69514532Y-69780001D01*
X69534364Y-70006686D01*
X69534366Y-70006697D01*
X69593258Y-70226488D01*
X69593261Y-70226497D01*
X69689431Y-70432732D01*
X69689432Y-70432734D01*
X69819954Y-70619141D01*
X69980858Y-70780045D01*
X69980861Y-70780047D01*
X70167266Y-70910568D01*
X70225865Y-70937893D01*
X70278305Y-70984065D01*
X70297457Y-71051258D01*
X70277242Y-71118139D01*
X70225867Y-71162657D01*
X70167515Y-71189867D01*
X69981179Y-71320342D01*
X69820342Y-71481179D01*
X69689865Y-71667517D01*
X69593734Y-71873673D01*
X69593730Y-71873682D01*
X69541127Y-72069999D01*
X69541128Y-72070000D01*
X70386988Y-72070000D01*
X70354075Y-72127007D01*
X70320000Y-72254174D01*
X70320000Y-72385826D01*
X70354075Y-72512993D01*
X70386988Y-72570000D01*
X69541128Y-72570000D01*
X69593730Y-72766317D01*
X69593734Y-72766326D01*
X69689865Y-72972482D01*
X69820342Y-73158820D01*
X69981179Y-73319657D01*
X70167518Y-73450134D01*
X70167520Y-73450135D01*
X70225865Y-73477342D01*
X70278305Y-73523514D01*
X70297457Y-73590707D01*
X70277242Y-73657589D01*
X70225867Y-73702105D01*
X70167268Y-73729431D01*
X70167264Y-73729433D01*
X69980858Y-73859954D01*
X69819954Y-74020858D01*
X69689432Y-74207265D01*
X69689431Y-74207267D01*
X69593261Y-74413502D01*
X69593258Y-74413511D01*
X69534366Y-74633302D01*
X69534364Y-74633313D01*
X69514532Y-74859998D01*
X69514532Y-74860001D01*
X69534364Y-75086686D01*
X69534366Y-75086697D01*
X69593258Y-75306488D01*
X69593261Y-75306497D01*
X69689431Y-75512732D01*
X69689432Y-75512734D01*
X69819954Y-75699141D01*
X69980858Y-75860045D01*
X69980861Y-75860047D01*
X70167266Y-75990568D01*
X70225275Y-76017618D01*
X70277714Y-76063791D01*
X70296866Y-76130984D01*
X70276650Y-76197865D01*
X70225275Y-76242382D01*
X70167267Y-76269431D01*
X70167265Y-76269432D01*
X69980858Y-76399954D01*
X69819954Y-76560858D01*
X69689432Y-76747265D01*
X69689431Y-76747267D01*
X69593261Y-76953502D01*
X69593258Y-76953511D01*
X69534366Y-77173302D01*
X69534364Y-77173313D01*
X69514532Y-77399998D01*
X69514532Y-77400001D01*
X69534364Y-77626686D01*
X69534366Y-77626697D01*
X69593258Y-77846488D01*
X69593261Y-77846497D01*
X69689431Y-78052732D01*
X69689432Y-78052734D01*
X69819954Y-78239141D01*
X69980858Y-78400045D01*
X69980861Y-78400047D01*
X70167266Y-78530568D01*
X70224681Y-78557341D01*
X70225275Y-78557618D01*
X70277714Y-78603791D01*
X70296866Y-78670984D01*
X70276650Y-78737865D01*
X70225275Y-78782382D01*
X70167267Y-78809431D01*
X70167265Y-78809432D01*
X69980858Y-78939954D01*
X69819954Y-79100858D01*
X69689432Y-79287265D01*
X69689431Y-79287267D01*
X69593261Y-79493502D01*
X69593258Y-79493511D01*
X69534366Y-79713302D01*
X69534364Y-79713313D01*
X69514532Y-79939998D01*
X69514532Y-79940001D01*
X69534364Y-80166686D01*
X69534366Y-80166697D01*
X69593258Y-80386488D01*
X69593261Y-80386497D01*
X69689431Y-80592732D01*
X69689432Y-80592734D01*
X69819954Y-80779141D01*
X69980858Y-80940045D01*
X69980861Y-80940047D01*
X70167266Y-81070568D01*
X70225275Y-81097618D01*
X70277714Y-81143791D01*
X70296866Y-81210984D01*
X70276650Y-81277865D01*
X70225275Y-81322382D01*
X70167267Y-81349431D01*
X70167265Y-81349432D01*
X69980858Y-81479954D01*
X69819954Y-81640858D01*
X69689432Y-81827265D01*
X69689431Y-81827267D01*
X69593261Y-82033502D01*
X69593258Y-82033511D01*
X69534366Y-82253302D01*
X69534364Y-82253313D01*
X69514532Y-82479998D01*
X69514532Y-82480001D01*
X69534364Y-82706686D01*
X69534366Y-82706697D01*
X69593258Y-82926488D01*
X69593261Y-82926497D01*
X69689431Y-83132732D01*
X69689432Y-83132734D01*
X69819954Y-83319141D01*
X69980858Y-83480045D01*
X69980861Y-83480047D01*
X70167266Y-83610568D01*
X70225275Y-83637618D01*
X70277714Y-83683791D01*
X70296866Y-83750984D01*
X70276650Y-83817865D01*
X70225275Y-83862382D01*
X70167267Y-83889431D01*
X70167265Y-83889432D01*
X69980858Y-84019954D01*
X69819954Y-84180858D01*
X69689432Y-84367265D01*
X69689431Y-84367267D01*
X69593261Y-84573502D01*
X69593258Y-84573511D01*
X69534366Y-84793302D01*
X69534364Y-84793313D01*
X69514532Y-85019998D01*
X69514532Y-85020001D01*
X69534364Y-85246686D01*
X69534366Y-85246697D01*
X69593258Y-85466488D01*
X69593261Y-85466497D01*
X69689431Y-85672732D01*
X69689432Y-85672734D01*
X69819954Y-85859141D01*
X69980858Y-86020045D01*
X69980861Y-86020047D01*
X70167266Y-86150568D01*
X70204156Y-86167770D01*
X70225275Y-86177618D01*
X70277714Y-86223791D01*
X70296866Y-86290984D01*
X70276650Y-86357865D01*
X70225275Y-86402382D01*
X70167267Y-86429431D01*
X70167265Y-86429432D01*
X69980858Y-86559954D01*
X69819954Y-86720858D01*
X69689432Y-86907265D01*
X69689431Y-86907267D01*
X69593261Y-87113502D01*
X69593258Y-87113511D01*
X69534366Y-87333302D01*
X69534364Y-87333313D01*
X69514532Y-87559998D01*
X69514532Y-87560001D01*
X69534364Y-87786686D01*
X69534366Y-87786697D01*
X69593258Y-88006488D01*
X69593261Y-88006497D01*
X69689431Y-88212732D01*
X69689432Y-88212734D01*
X69819954Y-88399141D01*
X69980858Y-88560045D01*
X69980861Y-88560047D01*
X70167266Y-88690568D01*
X70225275Y-88717618D01*
X70277714Y-88763791D01*
X70296866Y-88830984D01*
X70276650Y-88897865D01*
X70225275Y-88942382D01*
X70167267Y-88969431D01*
X70167265Y-88969432D01*
X69980858Y-89099954D01*
X69819954Y-89260858D01*
X69689432Y-89447265D01*
X69689431Y-89447267D01*
X69593261Y-89653502D01*
X69593258Y-89653511D01*
X69534366Y-89873302D01*
X69534364Y-89873313D01*
X69514532Y-90099998D01*
X69514532Y-90100001D01*
X69534364Y-90326686D01*
X69534366Y-90326697D01*
X69593258Y-90546488D01*
X69593261Y-90546497D01*
X69689431Y-90752732D01*
X69689432Y-90752734D01*
X69819954Y-90939141D01*
X69980858Y-91100045D01*
X69980861Y-91100047D01*
X70167266Y-91230568D01*
X70225275Y-91257618D01*
X70277714Y-91303791D01*
X70296866Y-91370984D01*
X70276650Y-91437865D01*
X70225275Y-91482382D01*
X70167267Y-91509431D01*
X70167265Y-91509432D01*
X69980858Y-91639954D01*
X69819954Y-91800858D01*
X69689432Y-91987265D01*
X69689431Y-91987267D01*
X69593261Y-92193502D01*
X69593258Y-92193511D01*
X69534366Y-92413302D01*
X69534364Y-92413313D01*
X69514532Y-92639998D01*
X69514532Y-92640001D01*
X69534364Y-92866686D01*
X69534366Y-92866697D01*
X69593258Y-93086488D01*
X69593261Y-93086497D01*
X69689431Y-93292732D01*
X69689432Y-93292734D01*
X69819954Y-93479141D01*
X69980858Y-93640045D01*
X69980861Y-93640047D01*
X70167266Y-93770568D01*
X70225275Y-93797618D01*
X70277714Y-93843791D01*
X70296866Y-93910984D01*
X70276650Y-93977865D01*
X70225275Y-94022382D01*
X70167267Y-94049431D01*
X70167265Y-94049432D01*
X69980858Y-94179954D01*
X69819954Y-94340858D01*
X69689432Y-94527265D01*
X69689431Y-94527267D01*
X69593261Y-94733502D01*
X69593258Y-94733511D01*
X69534366Y-94953302D01*
X69534364Y-94953313D01*
X69514532Y-95179998D01*
X69514532Y-95180001D01*
X69534364Y-95406686D01*
X69534366Y-95406697D01*
X69593258Y-95626488D01*
X69593261Y-95626497D01*
X69689431Y-95832732D01*
X69689432Y-95832734D01*
X69819954Y-96019141D01*
X69980858Y-96180045D01*
X69980861Y-96180047D01*
X70167266Y-96310568D01*
X70225275Y-96337618D01*
X70277714Y-96383791D01*
X70296866Y-96450984D01*
X70276650Y-96517865D01*
X70225275Y-96562382D01*
X70167267Y-96589431D01*
X70167265Y-96589432D01*
X69980858Y-96719954D01*
X69819954Y-96880858D01*
X69689432Y-97067265D01*
X69689431Y-97067267D01*
X69593261Y-97273502D01*
X69593258Y-97273511D01*
X69534366Y-97493302D01*
X69534364Y-97493313D01*
X69514532Y-97719998D01*
X69514532Y-97720001D01*
X69534364Y-97946686D01*
X69534366Y-97946697D01*
X69593258Y-98166488D01*
X69593261Y-98166497D01*
X69689431Y-98372732D01*
X69689432Y-98372734D01*
X69819954Y-98559141D01*
X69980858Y-98720045D01*
X69980861Y-98720047D01*
X70167266Y-98850568D01*
X70225275Y-98877618D01*
X70277714Y-98923791D01*
X70296866Y-98990984D01*
X70276650Y-99057865D01*
X70225275Y-99102382D01*
X70167267Y-99129431D01*
X70167265Y-99129432D01*
X69980858Y-99259954D01*
X69819954Y-99420858D01*
X69689432Y-99607265D01*
X69689431Y-99607267D01*
X69593261Y-99813502D01*
X69593258Y-99813511D01*
X69534366Y-100033302D01*
X69534364Y-100033313D01*
X69514532Y-100259998D01*
X69514532Y-100260001D01*
X69534364Y-100486686D01*
X69534366Y-100486697D01*
X69593258Y-100706488D01*
X69593261Y-100706497D01*
X69689431Y-100912732D01*
X69689432Y-100912734D01*
X69819954Y-101099141D01*
X69980858Y-101260045D01*
X69980861Y-101260047D01*
X70167266Y-101390568D01*
X70225275Y-101417618D01*
X70277714Y-101463791D01*
X70296866Y-101530984D01*
X70276650Y-101597865D01*
X70225275Y-101642382D01*
X70167267Y-101669431D01*
X70167265Y-101669432D01*
X69980858Y-101799954D01*
X69819954Y-101960858D01*
X69689432Y-102147265D01*
X69689431Y-102147267D01*
X69593261Y-102353502D01*
X69593258Y-102353511D01*
X69534366Y-102573302D01*
X69534364Y-102573313D01*
X69514532Y-102799998D01*
X69514532Y-102800001D01*
X69534364Y-103026686D01*
X69534366Y-103026697D01*
X69593258Y-103246488D01*
X69593261Y-103246497D01*
X69689431Y-103452732D01*
X69689432Y-103452734D01*
X69819954Y-103639141D01*
X69980858Y-103800045D01*
X69980861Y-103800047D01*
X70167266Y-103930568D01*
X70225275Y-103957618D01*
X70277714Y-104003791D01*
X70296866Y-104070984D01*
X70276650Y-104137865D01*
X70225275Y-104182382D01*
X70167267Y-104209431D01*
X70167265Y-104209432D01*
X69980858Y-104339954D01*
X69819954Y-104500858D01*
X69689432Y-104687265D01*
X69689431Y-104687267D01*
X69593261Y-104893502D01*
X69593258Y-104893511D01*
X69534366Y-105113302D01*
X69534364Y-105113313D01*
X69514532Y-105339998D01*
X69514532Y-105340001D01*
X69534364Y-105566686D01*
X69534366Y-105566697D01*
X69593258Y-105786488D01*
X69593261Y-105786497D01*
X69689431Y-105992732D01*
X69689432Y-105992734D01*
X69819954Y-106179141D01*
X69980858Y-106340045D01*
X69980861Y-106340047D01*
X70167266Y-106470568D01*
X70373504Y-106566739D01*
X70593308Y-106625635D01*
X70755230Y-106639801D01*
X70819998Y-106645468D01*
X70820000Y-106645468D01*
X70820002Y-106645468D01*
X70876673Y-106640509D01*
X71046692Y-106625635D01*
X71266496Y-106566739D01*
X71472734Y-106470568D01*
X71659139Y-106340047D01*
X71820047Y-106179139D01*
X71950568Y-105992734D01*
X72003738Y-105878711D01*
X83649500Y-105878711D01*
X83649500Y-106121288D01*
X83681161Y-106361785D01*
X83743947Y-106596104D01*
X83800068Y-106731591D01*
X83836776Y-106820212D01*
X83958064Y-107030289D01*
X83958066Y-107030292D01*
X83958067Y-107030293D01*
X84105733Y-107222736D01*
X84105739Y-107222743D01*
X84277256Y-107394260D01*
X84277262Y-107394265D01*
X84469711Y-107541936D01*
X84679788Y-107663224D01*
X84903900Y-107756054D01*
X85138211Y-107818838D01*
X85318586Y-107842584D01*
X85378711Y-107850500D01*
X85378712Y-107850500D01*
X85621289Y-107850500D01*
X85669388Y-107844167D01*
X85861789Y-107818838D01*
X86096100Y-107756054D01*
X86320212Y-107663224D01*
X86530289Y-107541936D01*
X86722738Y-107394265D01*
X86894265Y-107222738D01*
X87041936Y-107030289D01*
X87163224Y-106820212D01*
X87256054Y-106596100D01*
X87318838Y-106361789D01*
X87350500Y-106121288D01*
X87350500Y-105878712D01*
X87318838Y-105638211D01*
X87256054Y-105403900D01*
X87163224Y-105179788D01*
X87041936Y-104969711D01*
X86894265Y-104777262D01*
X86894260Y-104777256D01*
X86722743Y-104605739D01*
X86722736Y-104605733D01*
X86530293Y-104458067D01*
X86530292Y-104458066D01*
X86530289Y-104458064D01*
X86358661Y-104358974D01*
X86320214Y-104336777D01*
X86320205Y-104336773D01*
X86096104Y-104243947D01*
X85861785Y-104181161D01*
X85621289Y-104149500D01*
X85621288Y-104149500D01*
X85378712Y-104149500D01*
X85378711Y-104149500D01*
X85138214Y-104181161D01*
X84903895Y-104243947D01*
X84679794Y-104336773D01*
X84679785Y-104336777D01*
X84469706Y-104458067D01*
X84277263Y-104605733D01*
X84277256Y-104605739D01*
X84105739Y-104777256D01*
X84105733Y-104777263D01*
X83958067Y-104969706D01*
X83836777Y-105179785D01*
X83836773Y-105179794D01*
X83743947Y-105403895D01*
X83681161Y-105638214D01*
X83649500Y-105878711D01*
X72003738Y-105878711D01*
X72046739Y-105786496D01*
X72105635Y-105566692D01*
X72125468Y-105340000D01*
X72105635Y-105113308D01*
X72046739Y-104893504D01*
X71950568Y-104687266D01*
X71820047Y-104500861D01*
X71820045Y-104500858D01*
X71659141Y-104339954D01*
X71472734Y-104209432D01*
X71472728Y-104209429D01*
X71414725Y-104182382D01*
X71362285Y-104136210D01*
X71343133Y-104069017D01*
X71363348Y-104002135D01*
X71414725Y-103957618D01*
X71472734Y-103930568D01*
X71659139Y-103800047D01*
X71820047Y-103639139D01*
X71950568Y-103452734D01*
X72046739Y-103246496D01*
X72105635Y-103026692D01*
X72125468Y-102800000D01*
X72105635Y-102573308D01*
X72046739Y-102353504D01*
X71950568Y-102147266D01*
X71820047Y-101960861D01*
X71820045Y-101960858D01*
X71659141Y-101799954D01*
X71472734Y-101669432D01*
X71472728Y-101669429D01*
X71414725Y-101642382D01*
X71362285Y-101596210D01*
X71343133Y-101529017D01*
X71363348Y-101462135D01*
X71414725Y-101417618D01*
X71472734Y-101390568D01*
X71659139Y-101260047D01*
X71820047Y-101099139D01*
X71950568Y-100912734D01*
X72046739Y-100706496D01*
X72105635Y-100486692D01*
X72125468Y-100260000D01*
X72123195Y-100234025D01*
X72106011Y-100037606D01*
X72105635Y-100033308D01*
X72046739Y-99813504D01*
X71950568Y-99607266D01*
X71820047Y-99420861D01*
X71820045Y-99420858D01*
X71659141Y-99259954D01*
X71472734Y-99129432D01*
X71472728Y-99129429D01*
X71414725Y-99102382D01*
X71362285Y-99056210D01*
X71343133Y-98989017D01*
X71363348Y-98922135D01*
X71414725Y-98877618D01*
X71472734Y-98850568D01*
X71659139Y-98720047D01*
X71820047Y-98559139D01*
X71950568Y-98372734D01*
X72046739Y-98166496D01*
X72092687Y-97995013D01*
X78267500Y-97995013D01*
X78267500Y-98445000D01*
X80019018Y-98445000D01*
X80008389Y-98463409D01*
X79967500Y-98616009D01*
X79967500Y-98773991D01*
X80008389Y-98926591D01*
X80019018Y-98945000D01*
X78267501Y-98945000D01*
X78267501Y-99394986D01*
X78277994Y-99497697D01*
X78333141Y-99664119D01*
X78333143Y-99664124D01*
X78425184Y-99813345D01*
X78549154Y-99937315D01*
X78698375Y-100029356D01*
X78698380Y-100029358D01*
X78864802Y-100084505D01*
X78864809Y-100084506D01*
X78967519Y-100094999D01*
X80317499Y-100094999D01*
X80317500Y-100094998D01*
X80317500Y-99243482D01*
X80335909Y-99254111D01*
X80488509Y-99295000D01*
X80646491Y-99295000D01*
X80799091Y-99254111D01*
X80817500Y-99243482D01*
X80817500Y-100094999D01*
X82167472Y-100094999D01*
X82167486Y-100094998D01*
X82270197Y-100084505D01*
X82436619Y-100029358D01*
X82436624Y-100029356D01*
X82585845Y-99937315D01*
X82709815Y-99813345D01*
X82801856Y-99664124D01*
X82801858Y-99664119D01*
X82857005Y-99497697D01*
X82857006Y-99497690D01*
X82867499Y-99394986D01*
X82867500Y-99394973D01*
X82867500Y-98945000D01*
X81115982Y-98945000D01*
X81126611Y-98926591D01*
X81167500Y-98773991D01*
X81167500Y-98616009D01*
X81126611Y-98463409D01*
X81115982Y-98445000D01*
X82867499Y-98445000D01*
X82867499Y-97995028D01*
X82867498Y-97995013D01*
X82857005Y-97892302D01*
X82801858Y-97725880D01*
X82801856Y-97725875D01*
X82709815Y-97576654D01*
X82585845Y-97452684D01*
X82436624Y-97360643D01*
X82436619Y-97360641D01*
X82270197Y-97305494D01*
X82270190Y-97305493D01*
X82167486Y-97295000D01*
X80817500Y-97295000D01*
X80817500Y-98146517D01*
X80799091Y-98135889D01*
X80646491Y-98095000D01*
X80488509Y-98095000D01*
X80335909Y-98135889D01*
X80317500Y-98146517D01*
X80317500Y-97295000D01*
X78967528Y-97295000D01*
X78967512Y-97295001D01*
X78864802Y-97305494D01*
X78698380Y-97360641D01*
X78698375Y-97360643D01*
X78549154Y-97452684D01*
X78425184Y-97576654D01*
X78333143Y-97725875D01*
X78333141Y-97725880D01*
X78277994Y-97892302D01*
X78277993Y-97892309D01*
X78267500Y-97995013D01*
X72092687Y-97995013D01*
X72105635Y-97946692D01*
X72125468Y-97720000D01*
X72105635Y-97493308D01*
X72046739Y-97273504D01*
X71950568Y-97067266D01*
X71823032Y-96885124D01*
X71820045Y-96880858D01*
X71659141Y-96719954D01*
X71472734Y-96589432D01*
X71472728Y-96589429D01*
X71445038Y-96576517D01*
X71414724Y-96562381D01*
X71362285Y-96516210D01*
X71343133Y-96449017D01*
X71363348Y-96382135D01*
X71414725Y-96337618D01*
X71472734Y-96310568D01*
X71659139Y-96180047D01*
X71820047Y-96019139D01*
X71950568Y-95832734D01*
X72046739Y-95626496D01*
X72105635Y-95406692D01*
X72125468Y-95180000D01*
X72124461Y-95168495D01*
X72117137Y-95084778D01*
X78267000Y-95084778D01*
X78267000Y-95305222D01*
X78276529Y-95365388D01*
X78301485Y-95522952D01*
X78369603Y-95732603D01*
X78369604Y-95732606D01*
X78469687Y-95929025D01*
X78599252Y-96107358D01*
X78599256Y-96107363D01*
X78755136Y-96263243D01*
X78755141Y-96263247D01*
X78857505Y-96337618D01*
X78933478Y-96392815D01*
X79045709Y-96450000D01*
X79129893Y-96492895D01*
X79129896Y-96492896D01*
X79201651Y-96516210D01*
X79339549Y-96561015D01*
X79557278Y-96595500D01*
X79557279Y-96595500D01*
X81577721Y-96595500D01*
X81577722Y-96595500D01*
X81795451Y-96561015D01*
X82005106Y-96492895D01*
X82201522Y-96392815D01*
X82379865Y-96263242D01*
X82535742Y-96107365D01*
X82665315Y-95929022D01*
X82765395Y-95732606D01*
X82833515Y-95522951D01*
X82868000Y-95305222D01*
X82868000Y-95084778D01*
X82833515Y-94867049D01*
X82791184Y-94736765D01*
X82765396Y-94657396D01*
X82765395Y-94657393D01*
X82715152Y-94558788D01*
X82665315Y-94460978D01*
X82586051Y-94351880D01*
X82535747Y-94282641D01*
X82535743Y-94282636D01*
X82379863Y-94126756D01*
X82379858Y-94126752D01*
X82201525Y-93997187D01*
X82201524Y-93997186D01*
X82201522Y-93997185D01*
X82138596Y-93965122D01*
X82005106Y-93897104D01*
X82005103Y-93897103D01*
X81795452Y-93828985D01*
X81686586Y-93811742D01*
X81577722Y-93794500D01*
X79557278Y-93794500D01*
X79484701Y-93805995D01*
X79339547Y-93828985D01*
X79129896Y-93897103D01*
X79129893Y-93897104D01*
X78933474Y-93997187D01*
X78755141Y-94126752D01*
X78755136Y-94126756D01*
X78599256Y-94282636D01*
X78599252Y-94282641D01*
X78469687Y-94460974D01*
X78369604Y-94657393D01*
X78369603Y-94657396D01*
X78301485Y-94867047D01*
X78275570Y-95030668D01*
X78267000Y-95084778D01*
X72117137Y-95084778D01*
X72112403Y-95030666D01*
X72105635Y-94953308D01*
X72046739Y-94733504D01*
X71950568Y-94527266D01*
X71820047Y-94340861D01*
X71820045Y-94340858D01*
X71659141Y-94179954D01*
X71472734Y-94049432D01*
X71472728Y-94049429D01*
X71414725Y-94022382D01*
X71362285Y-93976210D01*
X71343133Y-93909017D01*
X71363348Y-93842135D01*
X71414725Y-93797618D01*
X71472734Y-93770568D01*
X71659139Y-93640047D01*
X71820047Y-93479139D01*
X71950568Y-93292734D01*
X72046739Y-93086496D01*
X72105635Y-92866692D01*
X72125468Y-92640000D01*
X72105635Y-92413308D01*
X72057216Y-92232606D01*
X72046741Y-92193511D01*
X72046738Y-92193502D01*
X72006634Y-92107500D01*
X71950568Y-91987266D01*
X71820047Y-91800861D01*
X71820045Y-91800858D01*
X71659141Y-91639954D01*
X71580341Y-91584778D01*
X78267000Y-91584778D01*
X78267000Y-91805221D01*
X78301485Y-92022952D01*
X78369603Y-92232603D01*
X78369604Y-92232606D01*
X78423367Y-92338119D01*
X78461678Y-92413308D01*
X78469687Y-92429025D01*
X78599252Y-92607358D01*
X78599256Y-92607363D01*
X78755136Y-92763243D01*
X78755141Y-92763247D01*
X78897529Y-92866697D01*
X78933478Y-92892815D01*
X79061875Y-92958237D01*
X79129893Y-92992895D01*
X79129896Y-92992896D01*
X79234721Y-93026955D01*
X79339549Y-93061015D01*
X79557278Y-93095500D01*
X79557279Y-93095500D01*
X81577721Y-93095500D01*
X81577722Y-93095500D01*
X81795451Y-93061015D01*
X82005106Y-92992895D01*
X82201522Y-92892815D01*
X82379865Y-92763242D01*
X82535742Y-92607365D01*
X82665315Y-92429022D01*
X82765395Y-92232606D01*
X82833515Y-92022951D01*
X82868000Y-91805222D01*
X82868000Y-91584778D01*
X82833515Y-91367049D01*
X82765395Y-91157394D01*
X82765395Y-91157393D01*
X82730737Y-91089375D01*
X82665315Y-90960978D01*
X82621012Y-90900000D01*
X82535747Y-90782641D01*
X82535743Y-90782636D01*
X82379863Y-90626756D01*
X82379858Y-90626752D01*
X82201525Y-90497187D01*
X82201524Y-90497186D01*
X82201522Y-90497185D01*
X82138596Y-90465122D01*
X82005106Y-90397104D01*
X82005103Y-90397103D01*
X81795452Y-90328985D01*
X81686586Y-90311742D01*
X81577722Y-90294500D01*
X79557278Y-90294500D01*
X79484701Y-90305995D01*
X79339547Y-90328985D01*
X79129896Y-90397103D01*
X79129893Y-90397104D01*
X78933474Y-90497187D01*
X78755141Y-90626752D01*
X78755136Y-90626756D01*
X78599256Y-90782636D01*
X78599252Y-90782641D01*
X78469687Y-90960974D01*
X78369604Y-91157393D01*
X78369603Y-91157396D01*
X78301485Y-91367047D01*
X78267000Y-91584778D01*
X71580341Y-91584778D01*
X71472734Y-91509432D01*
X71472728Y-91509429D01*
X71414725Y-91482382D01*
X71362285Y-91436210D01*
X71343133Y-91369017D01*
X71363348Y-91302135D01*
X71414725Y-91257618D01*
X71472734Y-91230568D01*
X71659139Y-91100047D01*
X71820047Y-90939139D01*
X71950568Y-90752734D01*
X72046739Y-90546496D01*
X72105635Y-90326692D01*
X72125468Y-90100000D01*
X72105635Y-89873308D01*
X72046739Y-89653504D01*
X71950568Y-89447266D01*
X71820047Y-89260861D01*
X71820045Y-89260858D01*
X71659141Y-89099954D01*
X71472734Y-88969432D01*
X71472728Y-88969429D01*
X71414725Y-88942382D01*
X71362285Y-88896210D01*
X71343133Y-88829017D01*
X71363348Y-88762135D01*
X71414725Y-88717618D01*
X71472734Y-88690568D01*
X71659139Y-88560047D01*
X71820047Y-88399139D01*
X71950568Y-88212734D01*
X72010235Y-88084778D01*
X78267000Y-88084778D01*
X78267000Y-88305221D01*
X78301485Y-88522952D01*
X78369603Y-88732603D01*
X78369604Y-88732606D01*
X78437622Y-88866096D01*
X78454897Y-88900000D01*
X78469687Y-88929025D01*
X78599252Y-89107358D01*
X78599256Y-89107363D01*
X78755136Y-89263243D01*
X78755141Y-89263247D01*
X78910692Y-89376260D01*
X78933478Y-89392815D01*
X79040341Y-89447265D01*
X79129893Y-89492895D01*
X79129896Y-89492896D01*
X79234721Y-89526955D01*
X79339549Y-89561015D01*
X79557278Y-89595500D01*
X79557279Y-89595500D01*
X81577721Y-89595500D01*
X81577722Y-89595500D01*
X81795451Y-89561015D01*
X82005106Y-89492895D01*
X82201522Y-89392815D01*
X82379865Y-89263242D01*
X82535742Y-89107365D01*
X82665315Y-88929022D01*
X82765395Y-88732606D01*
X82833515Y-88522951D01*
X82868000Y-88305222D01*
X82868000Y-88084778D01*
X82833515Y-87867049D01*
X82765395Y-87657394D01*
X82765395Y-87657393D01*
X82712030Y-87552661D01*
X82665315Y-87460978D01*
X82648760Y-87438192D01*
X82535747Y-87282641D01*
X82535743Y-87282636D01*
X82379863Y-87126756D01*
X82379858Y-87126752D01*
X82201525Y-86997187D01*
X82201524Y-86997186D01*
X82201522Y-86997185D01*
X82138596Y-86965122D01*
X82005106Y-86897104D01*
X82005103Y-86897103D01*
X81795452Y-86828985D01*
X81686586Y-86811742D01*
X81577722Y-86794500D01*
X79557278Y-86794500D01*
X79484701Y-86805995D01*
X79339547Y-86828985D01*
X79129896Y-86897103D01*
X79129893Y-86897104D01*
X78933474Y-86997187D01*
X78755141Y-87126752D01*
X78755136Y-87126756D01*
X78599256Y-87282636D01*
X78599252Y-87282641D01*
X78469687Y-87460974D01*
X78369604Y-87657393D01*
X78369603Y-87657396D01*
X78301485Y-87867047D01*
X78267000Y-88084778D01*
X72010235Y-88084778D01*
X72046739Y-88006496D01*
X72105635Y-87786692D01*
X72125468Y-87560000D01*
X72105635Y-87333308D01*
X72046739Y-87113504D01*
X71950568Y-86907266D01*
X71852839Y-86767693D01*
X71820045Y-86720858D01*
X71659141Y-86559954D01*
X71472734Y-86429432D01*
X71472728Y-86429429D01*
X71414725Y-86402382D01*
X71362285Y-86356210D01*
X71343133Y-86289017D01*
X71363348Y-86222135D01*
X71414725Y-86177618D01*
X71435844Y-86167770D01*
X71472734Y-86150568D01*
X71659139Y-86020047D01*
X71820047Y-85859139D01*
X71950568Y-85672734D01*
X72046739Y-85466496D01*
X72105635Y-85246692D01*
X72125468Y-85020000D01*
X72105635Y-84793308D01*
X72046739Y-84573504D01*
X71950568Y-84367266D01*
X71820047Y-84180861D01*
X71820045Y-84180858D01*
X71659141Y-84019954D01*
X71472734Y-83889432D01*
X71472728Y-83889429D01*
X71414725Y-83862382D01*
X71362285Y-83816210D01*
X71343133Y-83749017D01*
X71363348Y-83682135D01*
X71414725Y-83637618D01*
X71472734Y-83610568D01*
X71659139Y-83480047D01*
X71820047Y-83319139D01*
X71950568Y-83132734D01*
X72046739Y-82926496D01*
X72105635Y-82706692D01*
X72125468Y-82480000D01*
X72105635Y-82253308D01*
X72046739Y-82033504D01*
X71950568Y-81827266D01*
X71820047Y-81640861D01*
X71820045Y-81640858D01*
X71659141Y-81479954D01*
X71472734Y-81349432D01*
X71472728Y-81349429D01*
X71414725Y-81322382D01*
X71362285Y-81276210D01*
X71343133Y-81209017D01*
X71363348Y-81142135D01*
X71414725Y-81097618D01*
X71472734Y-81070568D01*
X71659139Y-80940047D01*
X71820047Y-80779139D01*
X71950568Y-80592734D01*
X71996150Y-80494983D01*
X78199500Y-80494983D01*
X78199500Y-81895001D01*
X78199501Y-81895018D01*
X78210000Y-81997796D01*
X78210001Y-81997799D01*
X78265185Y-82164331D01*
X78265187Y-82164336D01*
X78300069Y-82220888D01*
X78357288Y-82313656D01*
X78481344Y-82437712D01*
X78630666Y-82529814D01*
X78797203Y-82584999D01*
X78899991Y-82595500D01*
X82100008Y-82595499D01*
X82202797Y-82584999D01*
X82369334Y-82529814D01*
X82518656Y-82437712D01*
X82642712Y-82313656D01*
X82734814Y-82164334D01*
X82789999Y-81997797D01*
X82800500Y-81895009D01*
X82800499Y-80494992D01*
X82789999Y-80392203D01*
X82734814Y-80225666D01*
X82642712Y-80076344D01*
X82518656Y-79952288D01*
X82369334Y-79860186D01*
X82202797Y-79805001D01*
X82202795Y-79805000D01*
X82100010Y-79794500D01*
X78899998Y-79794500D01*
X78899981Y-79794501D01*
X78797203Y-79805000D01*
X78797200Y-79805001D01*
X78630668Y-79860185D01*
X78630663Y-79860187D01*
X78481342Y-79952289D01*
X78357289Y-80076342D01*
X78265187Y-80225663D01*
X78265185Y-80225668D01*
X78256214Y-80252741D01*
X78210001Y-80392203D01*
X78210001Y-80392204D01*
X78210000Y-80392204D01*
X78199500Y-80494983D01*
X71996150Y-80494983D01*
X72046739Y-80386496D01*
X72105635Y-80166692D01*
X72125468Y-79940000D01*
X72105635Y-79713308D01*
X72046739Y-79493504D01*
X71950568Y-79287266D01*
X71820047Y-79100861D01*
X71820045Y-79100858D01*
X71659141Y-78939954D01*
X71472734Y-78809432D01*
X71472728Y-78809429D01*
X71414725Y-78782382D01*
X71362285Y-78736210D01*
X71343133Y-78669017D01*
X71363348Y-78602135D01*
X71414725Y-78557618D01*
X71415319Y-78557341D01*
X71472734Y-78530568D01*
X71659139Y-78400047D01*
X71820047Y-78239139D01*
X71950568Y-78052734D01*
X72046739Y-77846496D01*
X72105635Y-77626692D01*
X72109302Y-77584778D01*
X78199500Y-77584778D01*
X78199500Y-77805222D01*
X78211556Y-77881342D01*
X78233985Y-78022952D01*
X78302103Y-78232603D01*
X78302104Y-78232606D01*
X78336440Y-78299992D01*
X78387421Y-78400047D01*
X78402187Y-78429025D01*
X78531752Y-78607358D01*
X78531756Y-78607363D01*
X78687636Y-78763243D01*
X78687641Y-78763247D01*
X78790411Y-78837913D01*
X78865978Y-78892815D01*
X78958491Y-78939953D01*
X79062393Y-78992895D01*
X79062396Y-78992896D01*
X79167221Y-79026955D01*
X79272049Y-79061015D01*
X79489778Y-79095500D01*
X79489779Y-79095500D01*
X81510221Y-79095500D01*
X81510222Y-79095500D01*
X81727951Y-79061015D01*
X81937606Y-78992895D01*
X82134022Y-78892815D01*
X82312365Y-78763242D01*
X82468242Y-78607365D01*
X82597815Y-78429022D01*
X82697895Y-78232606D01*
X82766015Y-78022951D01*
X82800500Y-77805222D01*
X82800500Y-77584778D01*
X82766015Y-77367049D01*
X82714015Y-77207007D01*
X82697896Y-77157396D01*
X82697895Y-77157393D01*
X82663237Y-77089375D01*
X82597815Y-76960978D01*
X82553512Y-76900000D01*
X82468247Y-76782641D01*
X82468243Y-76782636D01*
X82312363Y-76626756D01*
X82312358Y-76626752D01*
X82134025Y-76497187D01*
X82134024Y-76497186D01*
X82134022Y-76497185D01*
X82067916Y-76463502D01*
X81937606Y-76397104D01*
X81937603Y-76397103D01*
X81727952Y-76328985D01*
X81619086Y-76311742D01*
X81510222Y-76294500D01*
X79489778Y-76294500D01*
X79417201Y-76305995D01*
X79272047Y-76328985D01*
X79062396Y-76397103D01*
X79062393Y-76397104D01*
X78865974Y-76497187D01*
X78687641Y-76626752D01*
X78687636Y-76626756D01*
X78531756Y-76782636D01*
X78531752Y-76782641D01*
X78402187Y-76960974D01*
X78302104Y-77157393D01*
X78302103Y-77157396D01*
X78233985Y-77367047D01*
X78202992Y-77562730D01*
X78199500Y-77584778D01*
X72109302Y-77584778D01*
X72125468Y-77400000D01*
X72121647Y-77356331D01*
X72105635Y-77173313D01*
X72105635Y-77173308D01*
X72046739Y-76953504D01*
X71950568Y-76747266D01*
X71820047Y-76560861D01*
X71820045Y-76560858D01*
X71659141Y-76399954D01*
X71472734Y-76269432D01*
X71472728Y-76269429D01*
X71414725Y-76242382D01*
X71362285Y-76196210D01*
X71343133Y-76129017D01*
X71363348Y-76062135D01*
X71414725Y-76017618D01*
X71472734Y-75990568D01*
X71659139Y-75860047D01*
X71820047Y-75699139D01*
X71950568Y-75512734D01*
X72046739Y-75306496D01*
X72105635Y-75086692D01*
X72125468Y-74860000D01*
X72124201Y-74845523D01*
X72105635Y-74633313D01*
X72105635Y-74633308D01*
X72046739Y-74413504D01*
X71950568Y-74207266D01*
X71820047Y-74020861D01*
X71820045Y-74020858D01*
X71659141Y-73859954D01*
X71472734Y-73729432D01*
X71472732Y-73729431D01*
X71414725Y-73702382D01*
X71414132Y-73702105D01*
X71361694Y-73655934D01*
X71342542Y-73588740D01*
X71362758Y-73521859D01*
X71414134Y-73477341D01*
X71472484Y-73450132D01*
X71658820Y-73319657D01*
X71819657Y-73158820D01*
X71950134Y-72972482D01*
X72046265Y-72766326D01*
X72046269Y-72766317D01*
X72098872Y-72570000D01*
X71253012Y-72570000D01*
X71285925Y-72512993D01*
X71320000Y-72385826D01*
X71320000Y-72254174D01*
X71285925Y-72127007D01*
X71253012Y-72070000D01*
X72098872Y-72070000D01*
X72098872Y-72069999D01*
X72046269Y-71873682D01*
X72046265Y-71873673D01*
X71950134Y-71667517D01*
X71819657Y-71481179D01*
X71658820Y-71320342D01*
X71472482Y-71189865D01*
X71414133Y-71162657D01*
X71361694Y-71116484D01*
X71342542Y-71049291D01*
X71362758Y-70982410D01*
X71414129Y-70937895D01*
X71472734Y-70910568D01*
X71541904Y-70862135D01*
X74599500Y-70862135D01*
X74599500Y-72757870D01*
X74599501Y-72757876D01*
X74605908Y-72817483D01*
X74656202Y-72952328D01*
X74656206Y-72952335D01*
X74742452Y-73067544D01*
X74742455Y-73067547D01*
X74857664Y-73153793D01*
X74857671Y-73153797D01*
X74992517Y-73204091D01*
X74992516Y-73204091D01*
X74999444Y-73204835D01*
X75052127Y-73210500D01*
X76947872Y-73210499D01*
X77007483Y-73204091D01*
X77142331Y-73153796D01*
X77257546Y-73067546D01*
X77343796Y-72952331D01*
X77394091Y-72817483D01*
X77400500Y-72757873D01*
X77400499Y-70862135D01*
X78849500Y-70862135D01*
X78849500Y-72757870D01*
X78849501Y-72757876D01*
X78855908Y-72817483D01*
X78906202Y-72952328D01*
X78906206Y-72952335D01*
X78992452Y-73067544D01*
X78992455Y-73067547D01*
X79107664Y-73153793D01*
X79107671Y-73153797D01*
X79242517Y-73204091D01*
X79242516Y-73204091D01*
X79249444Y-73204835D01*
X79302127Y-73210500D01*
X81197872Y-73210499D01*
X81257483Y-73204091D01*
X81392331Y-73153796D01*
X81507546Y-73067546D01*
X81593796Y-72952331D01*
X81644091Y-72817483D01*
X81650500Y-72757873D01*
X81650499Y-70862128D01*
X81644091Y-70802517D01*
X81635710Y-70780047D01*
X81593797Y-70667671D01*
X81593793Y-70667664D01*
X81507547Y-70552455D01*
X81507544Y-70552452D01*
X81392335Y-70466206D01*
X81392328Y-70466202D01*
X81257482Y-70415908D01*
X81257483Y-70415908D01*
X81197883Y-70409501D01*
X81197881Y-70409500D01*
X81197873Y-70409500D01*
X81197864Y-70409500D01*
X79302129Y-70409500D01*
X79302123Y-70409501D01*
X79242516Y-70415908D01*
X79107671Y-70466202D01*
X79107664Y-70466206D01*
X78992455Y-70552452D01*
X78992452Y-70552455D01*
X78906206Y-70667664D01*
X78906202Y-70667671D01*
X78855908Y-70802517D01*
X78849581Y-70861369D01*
X78849501Y-70862123D01*
X78849500Y-70862135D01*
X77400499Y-70862135D01*
X77400499Y-70862128D01*
X77394091Y-70802517D01*
X77385710Y-70780047D01*
X77343797Y-70667671D01*
X77343793Y-70667664D01*
X77257547Y-70552455D01*
X77257544Y-70552452D01*
X77142335Y-70466206D01*
X77142328Y-70466202D01*
X77007482Y-70415908D01*
X77007483Y-70415908D01*
X76947883Y-70409501D01*
X76947881Y-70409500D01*
X76947873Y-70409500D01*
X76947864Y-70409500D01*
X75052129Y-70409500D01*
X75052123Y-70409501D01*
X74992516Y-70415908D01*
X74857671Y-70466202D01*
X74857664Y-70466206D01*
X74742455Y-70552452D01*
X74742452Y-70552455D01*
X74656206Y-70667664D01*
X74656202Y-70667671D01*
X74605908Y-70802517D01*
X74599581Y-70861369D01*
X74599501Y-70862123D01*
X74599500Y-70862135D01*
X71541904Y-70862135D01*
X71659139Y-70780047D01*
X71820047Y-70619139D01*
X71950568Y-70432734D01*
X72046739Y-70226496D01*
X72105635Y-70006692D01*
X72125468Y-69780000D01*
X72105635Y-69553308D01*
X72046739Y-69333504D01*
X71950568Y-69127266D01*
X71820047Y-68940861D01*
X71820045Y-68940858D01*
X71659141Y-68779954D01*
X71472734Y-68649432D01*
X71472732Y-68649431D01*
X71266497Y-68553261D01*
X71266488Y-68553258D01*
X71046697Y-68494366D01*
X71046693Y-68494365D01*
X71046692Y-68494365D01*
X71046691Y-68494364D01*
X71046686Y-68494364D01*
X70820002Y-68474532D01*
X70819998Y-68474532D01*
X70593313Y-68494364D01*
X70593302Y-68494366D01*
X70373511Y-68553258D01*
X70373502Y-68553261D01*
X70167267Y-68649431D01*
X70167265Y-68649432D01*
X69980858Y-68779954D01*
X69819954Y-68940858D01*
X69689432Y-69127265D01*
X69689431Y-69127267D01*
X69593261Y-69333502D01*
X69593258Y-69333511D01*
X69534366Y-69553302D01*
X69534364Y-69553313D01*
X69514532Y-69779998D01*
X59895109Y-69779998D01*
X59892322Y-69774894D01*
X59890170Y-69761518D01*
X59872521Y-69593591D01*
X59814026Y-69413563D01*
X59719380Y-69249631D01*
X59592718Y-69108959D01*
X59592717Y-69108958D01*
X59439581Y-68997698D01*
X59439576Y-68997695D01*
X59266654Y-68920704D01*
X59266649Y-68920702D01*
X59120848Y-68889712D01*
X59081493Y-68881347D01*
X58892201Y-68881347D01*
X58859744Y-68888245D01*
X58707044Y-68920702D01*
X58707039Y-68920704D01*
X58534117Y-68997695D01*
X58534112Y-68997698D01*
X58380976Y-69108958D01*
X58254313Y-69249632D01*
X58159668Y-69413562D01*
X58159665Y-69413569D01*
X58114260Y-69553313D01*
X58101173Y-69593591D01*
X58081387Y-69781847D01*
X58101173Y-69970103D01*
X58101174Y-69970106D01*
X58159665Y-70150124D01*
X58159668Y-70150131D01*
X58254314Y-70314063D01*
X58340246Y-70409500D01*
X58380976Y-70454735D01*
X58534112Y-70565995D01*
X58534117Y-70565998D01*
X58707039Y-70642989D01*
X58707044Y-70642991D01*
X58892201Y-70682347D01*
X58951395Y-70682347D01*
X59018434Y-70702032D01*
X59039076Y-70718666D01*
X59065258Y-70744848D01*
X59098743Y-70806171D01*
X59093759Y-70875863D01*
X59051887Y-70931796D01*
X59000363Y-70954417D01*
X58947071Y-70964379D01*
X58947062Y-70964381D01*
X58947060Y-70964382D01*
X58837724Y-71006739D01*
X58739601Y-71044752D01*
X58739595Y-71044754D01*
X58550439Y-71161874D01*
X58550437Y-71161876D01*
X58386020Y-71311761D01*
X58251943Y-71489308D01*
X58251938Y-71489316D01*
X58152775Y-71688461D01*
X58152769Y-71688476D01*
X58091885Y-71902462D01*
X58091884Y-71902464D01*
X58071357Y-72123999D01*
X56868320Y-72123999D01*
X56865635Y-72093308D01*
X56806739Y-71873504D01*
X56710568Y-71667266D01*
X56580047Y-71480861D01*
X56580045Y-71480858D01*
X56419143Y-71319956D01*
X56407439Y-71311761D01*
X56394535Y-71302725D01*
X56350912Y-71248149D01*
X56343719Y-71178650D01*
X56375241Y-71116296D01*
X56435471Y-71080882D01*
X56452404Y-71077861D01*
X56487483Y-71074091D01*
X56622331Y-71023796D01*
X56737546Y-70937546D01*
X56823796Y-70822331D01*
X56874091Y-70687483D01*
X56880500Y-70627873D01*
X56880499Y-68932128D01*
X56874091Y-68872517D01*
X56839567Y-68779954D01*
X56823797Y-68737671D01*
X56823793Y-68737664D01*
X56737547Y-68622455D01*
X56737544Y-68622452D01*
X56622335Y-68536206D01*
X56622328Y-68536202D01*
X56487482Y-68485908D01*
X56487483Y-68485908D01*
X56427883Y-68479501D01*
X56427881Y-68479500D01*
X56427873Y-68479500D01*
X56427864Y-68479500D01*
X54732129Y-68479500D01*
X54732123Y-68479501D01*
X54672516Y-68485908D01*
X54537671Y-68536202D01*
X54537664Y-68536206D01*
X54422455Y-68622452D01*
X54422452Y-68622455D01*
X54336206Y-68737664D01*
X54336202Y-68737671D01*
X54285908Y-68872517D01*
X54280728Y-68920702D01*
X54279501Y-68932123D01*
X54279500Y-68932135D01*
X54279500Y-70627870D01*
X54279501Y-70627876D01*
X54285908Y-70687483D01*
X54336202Y-70822328D01*
X54336206Y-70822335D01*
X54422452Y-70937544D01*
X54422455Y-70937547D01*
X54537664Y-71023793D01*
X54537671Y-71023797D01*
X54582618Y-71040561D01*
X54672517Y-71074091D01*
X54707596Y-71077862D01*
X54772144Y-71104599D01*
X54811993Y-71161991D01*
X54814488Y-71231816D01*
X54778836Y-71291905D01*
X54765464Y-71302725D01*
X54740858Y-71319954D01*
X54579954Y-71480858D01*
X54449432Y-71667265D01*
X54449431Y-71667267D01*
X54353261Y-71873502D01*
X54353258Y-71873511D01*
X54294366Y-72093302D01*
X54294364Y-72093313D01*
X54274532Y-72319998D01*
X39572934Y-72319998D01*
X39559111Y-72268409D01*
X39548482Y-72250000D01*
X41277855Y-72250000D01*
X41265526Y-72172164D01*
X41265526Y-72172161D01*
X41197432Y-71962589D01*
X41097386Y-71766239D01*
X40967857Y-71587958D01*
X40812041Y-71432142D01*
X40633760Y-71302613D01*
X40437410Y-71202567D01*
X40227835Y-71134473D01*
X40010181Y-71100000D01*
X39250000Y-71100000D01*
X39250000Y-71951517D01*
X39231591Y-71940889D01*
X39078991Y-71900000D01*
X38921009Y-71900000D01*
X38768409Y-71940889D01*
X38750000Y-71951517D01*
X38750000Y-71100000D01*
X37989819Y-71100000D01*
X37772164Y-71134473D01*
X37562589Y-71202567D01*
X37366239Y-71302613D01*
X37187958Y-71432142D01*
X37032142Y-71587958D01*
X36902613Y-71766239D01*
X36802567Y-71962589D01*
X36734473Y-72172161D01*
X36734473Y-72172164D01*
X36722145Y-72250000D01*
X34277855Y-72250000D01*
X34265526Y-72172164D01*
X34265526Y-72172161D01*
X34197432Y-71962589D01*
X34097386Y-71766239D01*
X33967857Y-71587958D01*
X33812041Y-71432142D01*
X33633760Y-71302613D01*
X33437410Y-71202567D01*
X33227835Y-71134473D01*
X33010181Y-71100000D01*
X32250000Y-71100000D01*
X32250000Y-71951517D01*
X32231591Y-71940889D01*
X32078991Y-71900000D01*
X31921009Y-71900000D01*
X31768409Y-71940889D01*
X31750000Y-71951517D01*
X31750000Y-71100000D01*
X30989819Y-71100000D01*
X30772164Y-71134473D01*
X30562589Y-71202567D01*
X30366239Y-71302613D01*
X30187958Y-71432142D01*
X30032142Y-71587958D01*
X29902613Y-71766239D01*
X29802567Y-71962589D01*
X29734473Y-72172161D01*
X29734473Y-72172164D01*
X29722145Y-72250000D01*
X27300500Y-72250000D01*
X27300500Y-68889778D01*
X29699500Y-68889778D01*
X29699500Y-69110221D01*
X29733985Y-69327952D01*
X29802103Y-69537603D01*
X29802104Y-69537606D01*
X29902187Y-69734025D01*
X30031752Y-69912358D01*
X30031756Y-69912363D01*
X30187636Y-70068243D01*
X30187641Y-70068247D01*
X30300346Y-70150131D01*
X30365978Y-70197815D01*
X30494375Y-70263237D01*
X30562393Y-70297895D01*
X30562396Y-70297896D01*
X30658598Y-70329153D01*
X30772049Y-70366015D01*
X30989778Y-70400500D01*
X30989779Y-70400500D01*
X33010221Y-70400500D01*
X33010222Y-70400500D01*
X33227951Y-70366015D01*
X33437606Y-70297895D01*
X33634022Y-70197815D01*
X33812365Y-70068242D01*
X33968242Y-69912365D01*
X34097815Y-69734022D01*
X34197895Y-69537606D01*
X34266015Y-69327951D01*
X34300500Y-69110222D01*
X34300500Y-68889778D01*
X36699500Y-68889778D01*
X36699500Y-69110221D01*
X36733985Y-69327952D01*
X36802103Y-69537603D01*
X36802104Y-69537606D01*
X36902187Y-69734025D01*
X37031752Y-69912358D01*
X37031756Y-69912363D01*
X37187636Y-70068243D01*
X37187641Y-70068247D01*
X37300346Y-70150131D01*
X37365978Y-70197815D01*
X37494375Y-70263237D01*
X37562393Y-70297895D01*
X37562396Y-70297896D01*
X37658598Y-70329153D01*
X37772049Y-70366015D01*
X37989778Y-70400500D01*
X37989779Y-70400500D01*
X40010221Y-70400500D01*
X40010222Y-70400500D01*
X40227951Y-70366015D01*
X40437606Y-70297895D01*
X40634022Y-70197815D01*
X40812365Y-70068242D01*
X40968242Y-69912365D01*
X41097815Y-69734022D01*
X41197895Y-69537606D01*
X41266015Y-69327951D01*
X41300500Y-69110222D01*
X41300500Y-68889778D01*
X41266015Y-68672049D01*
X41208283Y-68494364D01*
X41197896Y-68462396D01*
X41197895Y-68462393D01*
X41163237Y-68394375D01*
X41097815Y-68265978D01*
X41081260Y-68243192D01*
X40968247Y-68087641D01*
X40968243Y-68087636D01*
X40812363Y-67931756D01*
X40812358Y-67931752D01*
X40634025Y-67802187D01*
X40634024Y-67802186D01*
X40634022Y-67802185D01*
X40571096Y-67770122D01*
X40437606Y-67702104D01*
X40437603Y-67702103D01*
X40227952Y-67633985D01*
X40119086Y-67616742D01*
X40010222Y-67599500D01*
X37989778Y-67599500D01*
X37917201Y-67610995D01*
X37772047Y-67633985D01*
X37562396Y-67702103D01*
X37562393Y-67702104D01*
X37365974Y-67802187D01*
X37187641Y-67931752D01*
X37187636Y-67931756D01*
X37031756Y-68087636D01*
X37031752Y-68087641D01*
X36902187Y-68265974D01*
X36802104Y-68462393D01*
X36802103Y-68462396D01*
X36733985Y-68672047D01*
X36699500Y-68889778D01*
X34300500Y-68889778D01*
X34266015Y-68672049D01*
X34208283Y-68494364D01*
X34197896Y-68462396D01*
X34197895Y-68462393D01*
X34163237Y-68394375D01*
X34097815Y-68265978D01*
X34081260Y-68243192D01*
X33968247Y-68087641D01*
X33968243Y-68087636D01*
X33812363Y-67931756D01*
X33812358Y-67931752D01*
X33634025Y-67802187D01*
X33634024Y-67802186D01*
X33634022Y-67802185D01*
X33571096Y-67770122D01*
X33437606Y-67702104D01*
X33437603Y-67702103D01*
X33227952Y-67633985D01*
X33119086Y-67616742D01*
X33010222Y-67599500D01*
X30989778Y-67599500D01*
X30917201Y-67610995D01*
X30772047Y-67633985D01*
X30562396Y-67702103D01*
X30562393Y-67702104D01*
X30365974Y-67802187D01*
X30187641Y-67931752D01*
X30187636Y-67931756D01*
X30031756Y-68087636D01*
X30031752Y-68087641D01*
X29902187Y-68265974D01*
X29802104Y-68462393D01*
X29802103Y-68462396D01*
X29733985Y-68672047D01*
X29699500Y-68889778D01*
X27300500Y-68889778D01*
X27300500Y-65389778D01*
X29699500Y-65389778D01*
X29699500Y-65610221D01*
X29733985Y-65827952D01*
X29802103Y-66037603D01*
X29802104Y-66037606D01*
X29902187Y-66234025D01*
X30031752Y-66412358D01*
X30031756Y-66412363D01*
X30187636Y-66568243D01*
X30187641Y-66568247D01*
X30343192Y-66681260D01*
X30365978Y-66697815D01*
X30494375Y-66763237D01*
X30562393Y-66797895D01*
X30562396Y-66797896D01*
X30667221Y-66831955D01*
X30772049Y-66866015D01*
X30989778Y-66900500D01*
X30989779Y-66900500D01*
X33010221Y-66900500D01*
X33010222Y-66900500D01*
X33227951Y-66866015D01*
X33437606Y-66797895D01*
X33634022Y-66697815D01*
X33812365Y-66568242D01*
X33968242Y-66412365D01*
X34097815Y-66234022D01*
X34197895Y-66037606D01*
X34266015Y-65827951D01*
X34300500Y-65610222D01*
X34300500Y-65389778D01*
X36699500Y-65389778D01*
X36699500Y-65610221D01*
X36733985Y-65827952D01*
X36802103Y-66037603D01*
X36802104Y-66037606D01*
X36902187Y-66234025D01*
X37031752Y-66412358D01*
X37031756Y-66412363D01*
X37187636Y-66568243D01*
X37187641Y-66568247D01*
X37343192Y-66681260D01*
X37365978Y-66697815D01*
X37494375Y-66763237D01*
X37562393Y-66797895D01*
X37562396Y-66797896D01*
X37667221Y-66831955D01*
X37772049Y-66866015D01*
X37989778Y-66900500D01*
X37989779Y-66900500D01*
X40010221Y-66900500D01*
X40010222Y-66900500D01*
X40227951Y-66866015D01*
X40437606Y-66797895D01*
X40634022Y-66697815D01*
X40812365Y-66568242D01*
X40968242Y-66412365D01*
X41097815Y-66234022D01*
X41197895Y-66037606D01*
X41266015Y-65827951D01*
X41300500Y-65610222D01*
X41300500Y-65389778D01*
X41266015Y-65172049D01*
X41197895Y-64962394D01*
X41197895Y-64962393D01*
X41151138Y-64870630D01*
X41097815Y-64765978D01*
X41042429Y-64689745D01*
X40968247Y-64587641D01*
X40968243Y-64587636D01*
X40812363Y-64431756D01*
X40812358Y-64431752D01*
X40634025Y-64302187D01*
X40634024Y-64302186D01*
X40634022Y-64302185D01*
X40571096Y-64270122D01*
X40437606Y-64202104D01*
X40437603Y-64202103D01*
X40227952Y-64133985D01*
X40153135Y-64122135D01*
X60664500Y-64122135D01*
X60664500Y-65717870D01*
X60664501Y-65717876D01*
X60670908Y-65777483D01*
X60721202Y-65912328D01*
X60721206Y-65912335D01*
X60807452Y-66027544D01*
X60807455Y-66027547D01*
X60922664Y-66113793D01*
X60922671Y-66113797D01*
X61057517Y-66164091D01*
X61057516Y-66164091D01*
X61064444Y-66164835D01*
X61117127Y-66170500D01*
X62262872Y-66170499D01*
X62322483Y-66164091D01*
X62457331Y-66113796D01*
X62458430Y-66112972D01*
X62459717Y-66112492D01*
X62465112Y-66109547D01*
X62465535Y-66110322D01*
X62523887Y-66088552D01*
X62580198Y-66097673D01*
X62660873Y-66131091D01*
X62826777Y-66164091D01*
X62858992Y-66170499D01*
X62858996Y-66170500D01*
X62858997Y-66170500D01*
X63061004Y-66170500D01*
X63061005Y-66170499D01*
X63259127Y-66131091D01*
X63445756Y-66053786D01*
X63526562Y-65999792D01*
X63593234Y-65978917D01*
X63660614Y-65997401D01*
X63664340Y-65999795D01*
X63744479Y-66053343D01*
X63744486Y-66053347D01*
X63931016Y-66130609D01*
X63931025Y-66130612D01*
X63980000Y-66140353D01*
X63980000Y-65285865D01*
X63982383Y-65261671D01*
X63985500Y-65246002D01*
X63985500Y-65205830D01*
X63999745Y-65220075D01*
X64085255Y-65269444D01*
X64180630Y-65295000D01*
X64279370Y-65295000D01*
X64374745Y-65269444D01*
X64460255Y-65220075D01*
X64480000Y-65200330D01*
X64480000Y-66140352D01*
X64528974Y-66130612D01*
X64528983Y-66130609D01*
X64715513Y-66053347D01*
X64715526Y-66053340D01*
X64883399Y-65941170D01*
X64883403Y-65941167D01*
X65026167Y-65798403D01*
X65026170Y-65798399D01*
X65138340Y-65630526D01*
X65138347Y-65630513D01*
X65215609Y-65443983D01*
X65215612Y-65443974D01*
X65254999Y-65245958D01*
X65255000Y-65245955D01*
X65255000Y-65170000D01*
X64510330Y-65170000D01*
X64530075Y-65150255D01*
X64579444Y-65064745D01*
X64605000Y-64969370D01*
X64605000Y-64870630D01*
X64579444Y-64775255D01*
X64530075Y-64689745D01*
X64510330Y-64670000D01*
X65255000Y-64670000D01*
X65255000Y-64594045D01*
X65254999Y-64594041D01*
X65215612Y-64396025D01*
X65215609Y-64396016D01*
X65138347Y-64209486D01*
X65138340Y-64209473D01*
X65125324Y-64189993D01*
X74594700Y-64189993D01*
X74594700Y-64190006D01*
X74613864Y-64421297D01*
X74613866Y-64421308D01*
X74670842Y-64646300D01*
X74764075Y-64858848D01*
X74891016Y-65053147D01*
X74891019Y-65053151D01*
X74891021Y-65053153D01*
X75048216Y-65223913D01*
X75048219Y-65223915D01*
X75048222Y-65223918D01*
X75231365Y-65366464D01*
X75231371Y-65366468D01*
X75231374Y-65366470D01*
X75435497Y-65476936D01*
X75549487Y-65516068D01*
X75655015Y-65552297D01*
X75655017Y-65552297D01*
X75655019Y-65552298D01*
X75883951Y-65590500D01*
X75883952Y-65590500D01*
X76116048Y-65590500D01*
X76116049Y-65590500D01*
X76344981Y-65552298D01*
X76564503Y-65476936D01*
X76768626Y-65366470D01*
X76951784Y-65223913D01*
X77108979Y-65053153D01*
X77235924Y-64858849D01*
X77329157Y-64646300D01*
X77386134Y-64421305D01*
X77388229Y-64396025D01*
X77405300Y-64190006D01*
X77405300Y-64189993D01*
X78844700Y-64189993D01*
X78844700Y-64190006D01*
X78863864Y-64421297D01*
X78863866Y-64421308D01*
X78920842Y-64646300D01*
X79014075Y-64858848D01*
X79141016Y-65053147D01*
X79141019Y-65053151D01*
X79141021Y-65053153D01*
X79298216Y-65223913D01*
X79298219Y-65223915D01*
X79298222Y-65223918D01*
X79481365Y-65366464D01*
X79481371Y-65366468D01*
X79481374Y-65366470D01*
X79685497Y-65476936D01*
X79799487Y-65516068D01*
X79905015Y-65552297D01*
X79905017Y-65552297D01*
X79905019Y-65552298D01*
X80133951Y-65590500D01*
X80133952Y-65590500D01*
X80366048Y-65590500D01*
X80366049Y-65590500D01*
X80594981Y-65552298D01*
X80814503Y-65476936D01*
X81018626Y-65366470D01*
X81201784Y-65223913D01*
X81358979Y-65053153D01*
X81485924Y-64858849D01*
X81579157Y-64646300D01*
X81636134Y-64421305D01*
X81638229Y-64396025D01*
X81655300Y-64190006D01*
X81655300Y-64189993D01*
X81636135Y-63958702D01*
X81636133Y-63958691D01*
X81579157Y-63733699D01*
X81485924Y-63521151D01*
X81358983Y-63326852D01*
X81358980Y-63326849D01*
X81358979Y-63326847D01*
X81201784Y-63156087D01*
X81201779Y-63156083D01*
X81201777Y-63156081D01*
X81018634Y-63013535D01*
X81018628Y-63013531D01*
X80814504Y-62903064D01*
X80814495Y-62903061D01*
X80594984Y-62827702D01*
X80423282Y-62799050D01*
X80366049Y-62789500D01*
X80133951Y-62789500D01*
X80088164Y-62797140D01*
X79905015Y-62827702D01*
X79685504Y-62903061D01*
X79685495Y-62903064D01*
X79481371Y-63013531D01*
X79481365Y-63013535D01*
X79298222Y-63156081D01*
X79298219Y-63156084D01*
X79141016Y-63326852D01*
X79014075Y-63521151D01*
X78920842Y-63733699D01*
X78863866Y-63958691D01*
X78863864Y-63958702D01*
X78844700Y-64189993D01*
X77405300Y-64189993D01*
X77386135Y-63958702D01*
X77386133Y-63958691D01*
X77329157Y-63733699D01*
X77235924Y-63521151D01*
X77108983Y-63326852D01*
X77108980Y-63326849D01*
X77108979Y-63326847D01*
X76951784Y-63156087D01*
X76951779Y-63156083D01*
X76951777Y-63156081D01*
X76768634Y-63013535D01*
X76768628Y-63013531D01*
X76564504Y-62903064D01*
X76564495Y-62903061D01*
X76344984Y-62827702D01*
X76173282Y-62799050D01*
X76116049Y-62789500D01*
X75883951Y-62789500D01*
X75838164Y-62797140D01*
X75655015Y-62827702D01*
X75435504Y-62903061D01*
X75435495Y-62903064D01*
X75231371Y-63013531D01*
X75231365Y-63013535D01*
X75048222Y-63156081D01*
X75048219Y-63156084D01*
X74891016Y-63326852D01*
X74764075Y-63521151D01*
X74670842Y-63733699D01*
X74613866Y-63958691D01*
X74613864Y-63958702D01*
X74594700Y-64189993D01*
X65125324Y-64189993D01*
X65026170Y-64041600D01*
X65026167Y-64041596D01*
X64883403Y-63898832D01*
X64883399Y-63898829D01*
X64715526Y-63786659D01*
X64715513Y-63786652D01*
X64528984Y-63709390D01*
X64528977Y-63709388D01*
X64480000Y-63699645D01*
X64480000Y-64639670D01*
X64460255Y-64619925D01*
X64374745Y-64570556D01*
X64279370Y-64545000D01*
X64180630Y-64545000D01*
X64085255Y-64570556D01*
X63999745Y-64619925D01*
X63985500Y-64634170D01*
X63985500Y-64593996D01*
X63985499Y-64593995D01*
X63982383Y-64578326D01*
X63980000Y-64554134D01*
X63980000Y-63699646D01*
X63979999Y-63699645D01*
X63931022Y-63709388D01*
X63931015Y-63709390D01*
X63744481Y-63786654D01*
X63744479Y-63786655D01*
X63664337Y-63840204D01*
X63597660Y-63861081D01*
X63530280Y-63842596D01*
X63526558Y-63840204D01*
X63445754Y-63786212D01*
X63259127Y-63708909D01*
X63259119Y-63708907D01*
X63061007Y-63669500D01*
X63061003Y-63669500D01*
X62858997Y-63669500D01*
X62858992Y-63669500D01*
X62660880Y-63708907D01*
X62660868Y-63708910D01*
X62580198Y-63742325D01*
X62510729Y-63749794D01*
X62465342Y-63730036D01*
X62465114Y-63730454D01*
X62460447Y-63727905D01*
X62458432Y-63727028D01*
X62457331Y-63726204D01*
X62457330Y-63726203D01*
X62457328Y-63726202D01*
X62322482Y-63675908D01*
X62322483Y-63675908D01*
X62262883Y-63669501D01*
X62262881Y-63669500D01*
X62262873Y-63669500D01*
X62262864Y-63669500D01*
X61117129Y-63669500D01*
X61117123Y-63669501D01*
X61057516Y-63675908D01*
X60922671Y-63726202D01*
X60922664Y-63726206D01*
X60807455Y-63812452D01*
X60807452Y-63812455D01*
X60721206Y-63927664D01*
X60721202Y-63927671D01*
X60670908Y-64062517D01*
X60664501Y-64122116D01*
X60664500Y-64122135D01*
X40153135Y-64122135D01*
X40119086Y-64116742D01*
X40010222Y-64099500D01*
X37989778Y-64099500D01*
X37917201Y-64110995D01*
X37772047Y-64133985D01*
X37562396Y-64202103D01*
X37562393Y-64202104D01*
X37365974Y-64302187D01*
X37187641Y-64431752D01*
X37187636Y-64431756D01*
X37031756Y-64587636D01*
X37031752Y-64587641D01*
X36902187Y-64765974D01*
X36802104Y-64962393D01*
X36802103Y-64962396D01*
X36733985Y-65172047D01*
X36699500Y-65389778D01*
X34300500Y-65389778D01*
X34266015Y-65172049D01*
X34197895Y-64962394D01*
X34197895Y-64962393D01*
X34151138Y-64870630D01*
X34097815Y-64765978D01*
X34042429Y-64689745D01*
X33968247Y-64587641D01*
X33968243Y-64587636D01*
X33812363Y-64431756D01*
X33812358Y-64431752D01*
X33634025Y-64302187D01*
X33634024Y-64302186D01*
X33634022Y-64302185D01*
X33571096Y-64270122D01*
X33437606Y-64202104D01*
X33437603Y-64202103D01*
X33227952Y-64133985D01*
X33119086Y-64116742D01*
X33010222Y-64099500D01*
X30989778Y-64099500D01*
X30917201Y-64110995D01*
X30772047Y-64133985D01*
X30562396Y-64202103D01*
X30562393Y-64202104D01*
X30365974Y-64302187D01*
X30187641Y-64431752D01*
X30187636Y-64431756D01*
X30031756Y-64587636D01*
X30031752Y-64587641D01*
X29902187Y-64765974D01*
X29802104Y-64962393D01*
X29802103Y-64962396D01*
X29733985Y-65172047D01*
X29699500Y-65389778D01*
X27300500Y-65389778D01*
X27300500Y-61299983D01*
X29699500Y-61299983D01*
X29699500Y-62700001D01*
X29699501Y-62700018D01*
X29710000Y-62802796D01*
X29710001Y-62802799D01*
X29743225Y-62903061D01*
X29765186Y-62969334D01*
X29857288Y-63118656D01*
X29981344Y-63242712D01*
X30130666Y-63334814D01*
X30297203Y-63389999D01*
X30399991Y-63400500D01*
X33600008Y-63400499D01*
X33702797Y-63389999D01*
X33869334Y-63334814D01*
X34018656Y-63242712D01*
X34142712Y-63118656D01*
X34234814Y-62969334D01*
X34289999Y-62802797D01*
X34300500Y-62700009D01*
X34300499Y-61299992D01*
X34300498Y-61299983D01*
X36699500Y-61299983D01*
X36699500Y-62700001D01*
X36699501Y-62700018D01*
X36710000Y-62802796D01*
X36710001Y-62802799D01*
X36743225Y-62903061D01*
X36765186Y-62969334D01*
X36857288Y-63118656D01*
X36981344Y-63242712D01*
X37130666Y-63334814D01*
X37297203Y-63389999D01*
X37399991Y-63400500D01*
X40600008Y-63400499D01*
X40702797Y-63389999D01*
X40869334Y-63334814D01*
X41018656Y-63242712D01*
X41142712Y-63118656D01*
X41234814Y-62969334D01*
X41289999Y-62802797D01*
X41300500Y-62700009D01*
X41300499Y-61299992D01*
X41289999Y-61197203D01*
X41234814Y-61030666D01*
X41142712Y-60881344D01*
X41018656Y-60757288D01*
X40869334Y-60665186D01*
X40702797Y-60610001D01*
X40702795Y-60610000D01*
X40600010Y-60599500D01*
X37399998Y-60599500D01*
X37399981Y-60599501D01*
X37297203Y-60610000D01*
X37297200Y-60610001D01*
X37130668Y-60665185D01*
X37130663Y-60665187D01*
X36981342Y-60757289D01*
X36857289Y-60881342D01*
X36765187Y-61030663D01*
X36765186Y-61030666D01*
X36710001Y-61197203D01*
X36710001Y-61197204D01*
X36710000Y-61197204D01*
X36699500Y-61299983D01*
X34300498Y-61299983D01*
X34289999Y-61197203D01*
X34234814Y-61030666D01*
X34142712Y-60881344D01*
X34018656Y-60757288D01*
X33869334Y-60665186D01*
X33702797Y-60610001D01*
X33702795Y-60610000D01*
X33600010Y-60599500D01*
X30399998Y-60599500D01*
X30399981Y-60599501D01*
X30297203Y-60610000D01*
X30297200Y-60610001D01*
X30130668Y-60665185D01*
X30130663Y-60665187D01*
X29981342Y-60757289D01*
X29857289Y-60881342D01*
X29765187Y-61030663D01*
X29765186Y-61030666D01*
X29710001Y-61197203D01*
X29710001Y-61197204D01*
X29710000Y-61197204D01*
X29699500Y-61299983D01*
X27300500Y-61299983D01*
X27300500Y-55250000D01*
X29722145Y-55250000D01*
X31451518Y-55250000D01*
X31440889Y-55268409D01*
X31400000Y-55421009D01*
X31400000Y-55578991D01*
X31440889Y-55731591D01*
X31451518Y-55750000D01*
X29722145Y-55750000D01*
X29734473Y-55827835D01*
X29734473Y-55827838D01*
X29802567Y-56037410D01*
X29902613Y-56233760D01*
X30032142Y-56412041D01*
X30187958Y-56567857D01*
X30366239Y-56697386D01*
X30562589Y-56797432D01*
X30772164Y-56865526D01*
X30989819Y-56900000D01*
X31750000Y-56900000D01*
X31750000Y-56048482D01*
X31768409Y-56059111D01*
X31921009Y-56100000D01*
X32078991Y-56100000D01*
X32231591Y-56059111D01*
X32250000Y-56048482D01*
X32250000Y-56900000D01*
X33010181Y-56900000D01*
X33227835Y-56865526D01*
X33437410Y-56797432D01*
X33633760Y-56697386D01*
X33812041Y-56567857D01*
X33967857Y-56412041D01*
X34097386Y-56233760D01*
X34197432Y-56037410D01*
X34265526Y-55827838D01*
X34265526Y-55827835D01*
X34277855Y-55750000D01*
X32548482Y-55750000D01*
X32559111Y-55731591D01*
X32600000Y-55578991D01*
X32600000Y-55421009D01*
X32559111Y-55268409D01*
X32548482Y-55250000D01*
X34277855Y-55250000D01*
X36722145Y-55250000D01*
X38451518Y-55250000D01*
X38440889Y-55268409D01*
X38400000Y-55421009D01*
X38400000Y-55578991D01*
X38440889Y-55731591D01*
X38451518Y-55750000D01*
X36722145Y-55750000D01*
X36734473Y-55827835D01*
X36734473Y-55827838D01*
X36802567Y-56037410D01*
X36902613Y-56233760D01*
X37032142Y-56412041D01*
X37187958Y-56567857D01*
X37366239Y-56697386D01*
X37562589Y-56797432D01*
X37772164Y-56865526D01*
X37989819Y-56900000D01*
X38750000Y-56900000D01*
X38750000Y-56048482D01*
X38768409Y-56059111D01*
X38921009Y-56100000D01*
X39078991Y-56100000D01*
X39231591Y-56059111D01*
X39250000Y-56048482D01*
X39250000Y-56900000D01*
X40010181Y-56900000D01*
X40227835Y-56865526D01*
X40437410Y-56797432D01*
X40633760Y-56697386D01*
X40812041Y-56567857D01*
X40967857Y-56412041D01*
X41012934Y-56349998D01*
X54474685Y-56349998D01*
X54474685Y-56350001D01*
X54493907Y-56569714D01*
X54493909Y-56569724D01*
X54550990Y-56782755D01*
X54550995Y-56782769D01*
X54644203Y-56982654D01*
X54644207Y-56982662D01*
X54770712Y-57163330D01*
X54926669Y-57319287D01*
X55107337Y-57445792D01*
X55107339Y-57445793D01*
X55107342Y-57445795D01*
X55197536Y-57487853D01*
X55307230Y-57539004D01*
X55307232Y-57539004D01*
X55307237Y-57539007D01*
X55520280Y-57596092D01*
X55677135Y-57609815D01*
X55739998Y-57615315D01*
X55740000Y-57615315D01*
X55740002Y-57615315D01*
X55802865Y-57609815D01*
X55959720Y-57596092D01*
X56172763Y-57539007D01*
X56372658Y-57445795D01*
X56553329Y-57319288D01*
X56709288Y-57163329D01*
X56835795Y-56982658D01*
X56897618Y-56850076D01*
X56943790Y-56797637D01*
X57010983Y-56778485D01*
X57077864Y-56798700D01*
X57122382Y-56850077D01*
X57184203Y-56982654D01*
X57184207Y-56982662D01*
X57310712Y-57163330D01*
X57466669Y-57319287D01*
X57647337Y-57445792D01*
X57647339Y-57445793D01*
X57647342Y-57445795D01*
X57737536Y-57487853D01*
X57847230Y-57539004D01*
X57847232Y-57539004D01*
X57847237Y-57539007D01*
X58060280Y-57596092D01*
X58217135Y-57609815D01*
X58279998Y-57615315D01*
X58280000Y-57615315D01*
X58280002Y-57615315D01*
X58342865Y-57609815D01*
X58499720Y-57596092D01*
X58712763Y-57539007D01*
X58912658Y-57445795D01*
X59093329Y-57319288D01*
X59249288Y-57163329D01*
X59375795Y-56982658D01*
X59437895Y-56849481D01*
X59484064Y-56797047D01*
X59551258Y-56777894D01*
X59618139Y-56798109D01*
X59662657Y-56849485D01*
X59724638Y-56982402D01*
X59769694Y-57046750D01*
X60440000Y-56376445D01*
X60440000Y-56400028D01*
X60465896Y-56496675D01*
X60515924Y-56583325D01*
X60586675Y-56654076D01*
X60673325Y-56704104D01*
X60769972Y-56730000D01*
X60793553Y-56730000D01*
X60123247Y-57400304D01*
X60187593Y-57445359D01*
X60387406Y-57538533D01*
X60387412Y-57538536D01*
X60600365Y-57595597D01*
X60600373Y-57595598D01*
X60819995Y-57614812D01*
X60833143Y-57613662D01*
X60901644Y-57627426D01*
X60951829Y-57676039D01*
X60967765Y-57744067D01*
X60944393Y-57809912D01*
X60943223Y-57811501D01*
X60886204Y-57887668D01*
X60886202Y-57887671D01*
X60835908Y-58022517D01*
X60829501Y-58082116D01*
X60829501Y-58082123D01*
X60829500Y-58082135D01*
X60829500Y-58126423D01*
X60809815Y-58193462D01*
X60757011Y-58239217D01*
X60687853Y-58249161D01*
X60624297Y-58220136D01*
X60603925Y-58197546D01*
X60519286Y-58076668D01*
X60363330Y-57920712D01*
X60182662Y-57794207D01*
X60182654Y-57794203D01*
X59982769Y-57700995D01*
X59982755Y-57700990D01*
X59769724Y-57643909D01*
X59769722Y-57643908D01*
X59769720Y-57643908D01*
X59769718Y-57643907D01*
X59769714Y-57643907D01*
X59550002Y-57624685D01*
X59549998Y-57624685D01*
X59330285Y-57643907D01*
X59330275Y-57643909D01*
X59117244Y-57700990D01*
X59117235Y-57700994D01*
X58917344Y-57794204D01*
X58917342Y-57794205D01*
X58736668Y-57920713D01*
X58580713Y-58076668D01*
X58454205Y-58257342D01*
X58454204Y-58257344D01*
X58392106Y-58390515D01*
X58345934Y-58442954D01*
X58278740Y-58462106D01*
X58211859Y-58441890D01*
X58167342Y-58390515D01*
X58105360Y-58257595D01*
X58105359Y-58257593D01*
X58060304Y-58193248D01*
X58060304Y-58193247D01*
X57390000Y-58863551D01*
X57390000Y-58839972D01*
X57364104Y-58743325D01*
X57314076Y-58656675D01*
X57243325Y-58585924D01*
X57156675Y-58535896D01*
X57060028Y-58510000D01*
X57036447Y-58510000D01*
X57706751Y-57839694D01*
X57642402Y-57794638D01*
X57442593Y-57701466D01*
X57442587Y-57701463D01*
X57229634Y-57644402D01*
X57229626Y-57644401D01*
X57010002Y-57625187D01*
X57009998Y-57625187D01*
X56790373Y-57644401D01*
X56790366Y-57644402D01*
X56577404Y-57701466D01*
X56377594Y-57794640D01*
X56313248Y-57839694D01*
X56983554Y-58510000D01*
X56959972Y-58510000D01*
X56863325Y-58535896D01*
X56776675Y-58585924D01*
X56705924Y-58656675D01*
X56655896Y-58743325D01*
X56630000Y-58839972D01*
X56630000Y-58863554D01*
X55959694Y-58193248D01*
X55914640Y-58257594D01*
X55821466Y-58457404D01*
X55764402Y-58670366D01*
X55764401Y-58670373D01*
X55745187Y-58889998D01*
X55745187Y-58890001D01*
X55764401Y-59109626D01*
X55764402Y-59109634D01*
X55821463Y-59322587D01*
X55821466Y-59322593D01*
X55914638Y-59522402D01*
X55959694Y-59586750D01*
X56630000Y-58916445D01*
X56630000Y-58940028D01*
X56655896Y-59036675D01*
X56705924Y-59123325D01*
X56776675Y-59194076D01*
X56863325Y-59244104D01*
X56959972Y-59270000D01*
X56983553Y-59270000D01*
X56313247Y-59940304D01*
X56377593Y-59985359D01*
X56577406Y-60078533D01*
X56577412Y-60078536D01*
X56790365Y-60135597D01*
X56790373Y-60135598D01*
X57009998Y-60154813D01*
X57010002Y-60154813D01*
X57229626Y-60135598D01*
X57229634Y-60135597D01*
X57442587Y-60078536D01*
X57442598Y-60078532D01*
X57642402Y-59985362D01*
X57642410Y-59985358D01*
X57706751Y-59940305D01*
X57706751Y-59940304D01*
X57036448Y-59270000D01*
X57060028Y-59270000D01*
X57156675Y-59244104D01*
X57243325Y-59194076D01*
X57314076Y-59123325D01*
X57364104Y-59036675D01*
X57390000Y-58940028D01*
X57390000Y-58916447D01*
X58060304Y-59586751D01*
X58060305Y-59586751D01*
X58105358Y-59522410D01*
X58105362Y-59522402D01*
X58167342Y-59389486D01*
X58213514Y-59337046D01*
X58280707Y-59317894D01*
X58347588Y-59338109D01*
X58392106Y-59389486D01*
X58454203Y-59522654D01*
X58454207Y-59522662D01*
X58580712Y-59703330D01*
X58736669Y-59859287D01*
X58917337Y-59985792D01*
X58917339Y-59985793D01*
X58917342Y-59985795D01*
X58963990Y-60007547D01*
X59117230Y-60079004D01*
X59117232Y-60079004D01*
X59117237Y-60079007D01*
X59330280Y-60136092D01*
X59487222Y-60149822D01*
X59549998Y-60155315D01*
X59550000Y-60155315D01*
X59550002Y-60155315D01*
X59605059Y-60150498D01*
X59769720Y-60136092D01*
X59982763Y-60079007D01*
X60182658Y-59985795D01*
X60363329Y-59859288D01*
X60519288Y-59703329D01*
X60603928Y-59582449D01*
X60658501Y-59538828D01*
X60727999Y-59531634D01*
X60790354Y-59563156D01*
X60825769Y-59623386D01*
X60829500Y-59653573D01*
X60829500Y-59697868D01*
X60829501Y-59697876D01*
X60835908Y-59757483D01*
X60886202Y-59892328D01*
X60886206Y-59892335D01*
X60972452Y-60007544D01*
X60972455Y-60007547D01*
X61087664Y-60093793D01*
X61087671Y-60093797D01*
X61222517Y-60144091D01*
X61222516Y-60144091D01*
X61229444Y-60144835D01*
X61282127Y-60150500D01*
X62897872Y-60150499D01*
X62957483Y-60144091D01*
X63092331Y-60093796D01*
X63207546Y-60007546D01*
X63293796Y-59892331D01*
X63344091Y-59757483D01*
X63350500Y-59697873D01*
X63350499Y-58082128D01*
X63344091Y-58022517D01*
X63306120Y-57920712D01*
X63293797Y-57887671D01*
X63293793Y-57887664D01*
X63207547Y-57772455D01*
X63207544Y-57772452D01*
X63092335Y-57686206D01*
X63092328Y-57686202D01*
X62957482Y-57635908D01*
X62957483Y-57635908D01*
X62897883Y-57629501D01*
X62897881Y-57629500D01*
X62897873Y-57629500D01*
X62897865Y-57629500D01*
X61582703Y-57629500D01*
X61515664Y-57609815D01*
X61469909Y-57557011D01*
X61459965Y-57487853D01*
X61488990Y-57424297D01*
X61511581Y-57403924D01*
X61516750Y-57400304D01*
X60846448Y-56730000D01*
X60870028Y-56730000D01*
X60966675Y-56704104D01*
X61053325Y-56654076D01*
X61124076Y-56583325D01*
X61174104Y-56496675D01*
X61200000Y-56400028D01*
X61200000Y-56376447D01*
X61870304Y-57046751D01*
X61870305Y-57046751D01*
X61915358Y-56982410D01*
X61915362Y-56982402D01*
X62008532Y-56782598D01*
X62008536Y-56782587D01*
X62065597Y-56569634D01*
X62065598Y-56569626D01*
X62084813Y-56350001D01*
X62084813Y-56349998D01*
X69944685Y-56349998D01*
X69944685Y-56350001D01*
X69963907Y-56569714D01*
X69963909Y-56569724D01*
X70020990Y-56782755D01*
X70020995Y-56782769D01*
X70114203Y-56982654D01*
X70114207Y-56982662D01*
X70240712Y-57163330D01*
X70396669Y-57319287D01*
X70577337Y-57445792D01*
X70577339Y-57445793D01*
X70577342Y-57445795D01*
X70667536Y-57487853D01*
X70777230Y-57539004D01*
X70777232Y-57539004D01*
X70777237Y-57539007D01*
X70990280Y-57596092D01*
X71147135Y-57609815D01*
X71209998Y-57615315D01*
X71210000Y-57615315D01*
X71210002Y-57615315D01*
X71272865Y-57609815D01*
X71429720Y-57596092D01*
X71642763Y-57539007D01*
X71842658Y-57445795D01*
X72023329Y-57319288D01*
X72179288Y-57163329D01*
X72305795Y-56982658D01*
X72367618Y-56850076D01*
X72413790Y-56797637D01*
X72480983Y-56778485D01*
X72547864Y-56798700D01*
X72592382Y-56850077D01*
X72654203Y-56982654D01*
X72654207Y-56982662D01*
X72780712Y-57163330D01*
X72936669Y-57319287D01*
X73117337Y-57445792D01*
X73117339Y-57445793D01*
X73117342Y-57445795D01*
X73207536Y-57487853D01*
X73317230Y-57539004D01*
X73317232Y-57539004D01*
X73317237Y-57539007D01*
X73530280Y-57596092D01*
X73687135Y-57609815D01*
X73749998Y-57615315D01*
X73750000Y-57615315D01*
X73750002Y-57615315D01*
X73812865Y-57609815D01*
X73969720Y-57596092D01*
X74182763Y-57539007D01*
X74382658Y-57445795D01*
X74563329Y-57319288D01*
X74719288Y-57163329D01*
X74845795Y-56982658D01*
X74907895Y-56849481D01*
X74954064Y-56797047D01*
X75021258Y-56777894D01*
X75088139Y-56798109D01*
X75132657Y-56849485D01*
X75194638Y-56982402D01*
X75239694Y-57046750D01*
X75910000Y-56376445D01*
X75910000Y-56400028D01*
X75935896Y-56496675D01*
X75985924Y-56583325D01*
X76056675Y-56654076D01*
X76143325Y-56704104D01*
X76239972Y-56730000D01*
X76263553Y-56730000D01*
X75593247Y-57400304D01*
X75657593Y-57445359D01*
X75857406Y-57538533D01*
X75857412Y-57538536D01*
X76070365Y-57595597D01*
X76070373Y-57595598D01*
X76289995Y-57614812D01*
X76303143Y-57613662D01*
X76371644Y-57627426D01*
X76421829Y-57676039D01*
X76437765Y-57744067D01*
X76414393Y-57809912D01*
X76413223Y-57811501D01*
X76356204Y-57887668D01*
X76356202Y-57887671D01*
X76305908Y-58022517D01*
X76299501Y-58082116D01*
X76299501Y-58082123D01*
X76299500Y-58082135D01*
X76299500Y-58126423D01*
X76279815Y-58193462D01*
X76227011Y-58239217D01*
X76157853Y-58249161D01*
X76094297Y-58220136D01*
X76073925Y-58197546D01*
X75989286Y-58076668D01*
X75833330Y-57920712D01*
X75652662Y-57794207D01*
X75652654Y-57794203D01*
X75452769Y-57700995D01*
X75452755Y-57700990D01*
X75239724Y-57643909D01*
X75239722Y-57643908D01*
X75239720Y-57643908D01*
X75239718Y-57643907D01*
X75239714Y-57643907D01*
X75020002Y-57624685D01*
X75019998Y-57624685D01*
X74800285Y-57643907D01*
X74800275Y-57643909D01*
X74587244Y-57700990D01*
X74587235Y-57700994D01*
X74387344Y-57794204D01*
X74387342Y-57794205D01*
X74206668Y-57920713D01*
X74050713Y-58076668D01*
X73924205Y-58257342D01*
X73924204Y-58257344D01*
X73862106Y-58390515D01*
X73815934Y-58442954D01*
X73748740Y-58462106D01*
X73681859Y-58441890D01*
X73637342Y-58390515D01*
X73575360Y-58257595D01*
X73575359Y-58257593D01*
X73530304Y-58193248D01*
X73530304Y-58193247D01*
X72860000Y-58863551D01*
X72860000Y-58839972D01*
X72834104Y-58743325D01*
X72784076Y-58656675D01*
X72713325Y-58585924D01*
X72626675Y-58535896D01*
X72530028Y-58510000D01*
X72506447Y-58510000D01*
X73176751Y-57839694D01*
X73112402Y-57794638D01*
X72912593Y-57701466D01*
X72912587Y-57701463D01*
X72699634Y-57644402D01*
X72699626Y-57644401D01*
X72480002Y-57625187D01*
X72479998Y-57625187D01*
X72260373Y-57644401D01*
X72260366Y-57644402D01*
X72047404Y-57701466D01*
X71847594Y-57794640D01*
X71783248Y-57839694D01*
X72453554Y-58510000D01*
X72429972Y-58510000D01*
X72333325Y-58535896D01*
X72246675Y-58585924D01*
X72175924Y-58656675D01*
X72125896Y-58743325D01*
X72100000Y-58839972D01*
X72100000Y-58863554D01*
X71429694Y-58193248D01*
X71384640Y-58257594D01*
X71291466Y-58457404D01*
X71234402Y-58670366D01*
X71234401Y-58670373D01*
X71215187Y-58889998D01*
X71215187Y-58890001D01*
X71234401Y-59109626D01*
X71234402Y-59109634D01*
X71291463Y-59322587D01*
X71291466Y-59322593D01*
X71384638Y-59522402D01*
X71429694Y-59586750D01*
X72100000Y-58916445D01*
X72100000Y-58940028D01*
X72125896Y-59036675D01*
X72175924Y-59123325D01*
X72246675Y-59194076D01*
X72333325Y-59244104D01*
X72429972Y-59270000D01*
X72453553Y-59270000D01*
X71783247Y-59940304D01*
X71847593Y-59985359D01*
X72047406Y-60078533D01*
X72047412Y-60078536D01*
X72260365Y-60135597D01*
X72260373Y-60135598D01*
X72479998Y-60154813D01*
X72480002Y-60154813D01*
X72699626Y-60135598D01*
X72699634Y-60135597D01*
X72912587Y-60078536D01*
X72912598Y-60078532D01*
X73112402Y-59985362D01*
X73112410Y-59985358D01*
X73176751Y-59940305D01*
X73176751Y-59940304D01*
X72506448Y-59270000D01*
X72530028Y-59270000D01*
X72626675Y-59244104D01*
X72713325Y-59194076D01*
X72784076Y-59123325D01*
X72834104Y-59036675D01*
X72860000Y-58940028D01*
X72860000Y-58916447D01*
X73530304Y-59586751D01*
X73530305Y-59586751D01*
X73575358Y-59522410D01*
X73575362Y-59522402D01*
X73637342Y-59389486D01*
X73683514Y-59337046D01*
X73750707Y-59317894D01*
X73817588Y-59338109D01*
X73862106Y-59389486D01*
X73924203Y-59522654D01*
X73924207Y-59522662D01*
X74050712Y-59703330D01*
X74206669Y-59859287D01*
X74387337Y-59985792D01*
X74387339Y-59985793D01*
X74387342Y-59985795D01*
X74433990Y-60007547D01*
X74587230Y-60079004D01*
X74587232Y-60079004D01*
X74587237Y-60079007D01*
X74800280Y-60136092D01*
X74957222Y-60149822D01*
X75019998Y-60155315D01*
X75020000Y-60155315D01*
X75020002Y-60155315D01*
X75075059Y-60150498D01*
X75239720Y-60136092D01*
X75452763Y-60079007D01*
X75652658Y-59985795D01*
X75833329Y-59859288D01*
X75989288Y-59703329D01*
X76073928Y-59582449D01*
X76128501Y-59538828D01*
X76197999Y-59531634D01*
X76260354Y-59563156D01*
X76295769Y-59623386D01*
X76299500Y-59653573D01*
X76299500Y-59697868D01*
X76299501Y-59697876D01*
X76305908Y-59757483D01*
X76356202Y-59892328D01*
X76356206Y-59892335D01*
X76442452Y-60007544D01*
X76442455Y-60007547D01*
X76557664Y-60093793D01*
X76557671Y-60093797D01*
X76692517Y-60144091D01*
X76692516Y-60144091D01*
X76699444Y-60144835D01*
X76752127Y-60150500D01*
X78367872Y-60150499D01*
X78427483Y-60144091D01*
X78562331Y-60093796D01*
X78677546Y-60007546D01*
X78763796Y-59892331D01*
X78814091Y-59757483D01*
X78820500Y-59697873D01*
X78820499Y-58082128D01*
X78814091Y-58022517D01*
X78776120Y-57920712D01*
X78763797Y-57887671D01*
X78763793Y-57887664D01*
X78677547Y-57772455D01*
X78677544Y-57772452D01*
X78562335Y-57686206D01*
X78562328Y-57686202D01*
X78427482Y-57635908D01*
X78427483Y-57635908D01*
X78367883Y-57629501D01*
X78367881Y-57629500D01*
X78367873Y-57629500D01*
X78367865Y-57629500D01*
X77052703Y-57629500D01*
X76985664Y-57609815D01*
X76939909Y-57557011D01*
X76929965Y-57487853D01*
X76958990Y-57424297D01*
X76981581Y-57403924D01*
X76986750Y-57400304D01*
X76316448Y-56730000D01*
X76340028Y-56730000D01*
X76436675Y-56704104D01*
X76523325Y-56654076D01*
X76594076Y-56583325D01*
X76644104Y-56496675D01*
X76670000Y-56400028D01*
X76670000Y-56376447D01*
X77340304Y-57046751D01*
X77340305Y-57046751D01*
X77385358Y-56982410D01*
X77385362Y-56982402D01*
X77478532Y-56782598D01*
X77478536Y-56782587D01*
X77535597Y-56569634D01*
X77535598Y-56569626D01*
X77554813Y-56350001D01*
X77554813Y-56349998D01*
X77535598Y-56130373D01*
X77535597Y-56130366D01*
X77478533Y-55917404D01*
X77385360Y-55717595D01*
X77385359Y-55717593D01*
X77340304Y-55653248D01*
X77340304Y-55653247D01*
X76670000Y-56323551D01*
X76670000Y-56299972D01*
X76644104Y-56203325D01*
X76594076Y-56116675D01*
X76523325Y-56045924D01*
X76436675Y-55995896D01*
X76340028Y-55970000D01*
X76316447Y-55970000D01*
X76986751Y-55299694D01*
X76922402Y-55254638D01*
X76722593Y-55161466D01*
X76722587Y-55161463D01*
X76509634Y-55104402D01*
X76509626Y-55104401D01*
X76290002Y-55085187D01*
X76289998Y-55085187D01*
X76070373Y-55104401D01*
X76070366Y-55104402D01*
X75857404Y-55161466D01*
X75657594Y-55254640D01*
X75593248Y-55299694D01*
X76263554Y-55970000D01*
X76239972Y-55970000D01*
X76143325Y-55995896D01*
X76056675Y-56045924D01*
X75985924Y-56116675D01*
X75935896Y-56203325D01*
X75910000Y-56299972D01*
X75910000Y-56323554D01*
X75239694Y-55653248D01*
X75194640Y-55717594D01*
X75132657Y-55850515D01*
X75086484Y-55902954D01*
X75019290Y-55922106D01*
X74952409Y-55901890D01*
X74907894Y-55850515D01*
X74845795Y-55717343D01*
X74719288Y-55536671D01*
X74719286Y-55536668D01*
X74563330Y-55380712D01*
X74382662Y-55254207D01*
X74382654Y-55254203D01*
X74182769Y-55160995D01*
X74182755Y-55160990D01*
X73969724Y-55103909D01*
X73969722Y-55103908D01*
X73969720Y-55103908D01*
X73969718Y-55103907D01*
X73969714Y-55103907D01*
X73750002Y-55084685D01*
X73749998Y-55084685D01*
X73530285Y-55103907D01*
X73530275Y-55103909D01*
X73317244Y-55160990D01*
X73317235Y-55160994D01*
X73117344Y-55254204D01*
X73117342Y-55254205D01*
X72936668Y-55380713D01*
X72780713Y-55536668D01*
X72654205Y-55717342D01*
X72654204Y-55717344D01*
X72592382Y-55849923D01*
X72546210Y-55902362D01*
X72479016Y-55921514D01*
X72412135Y-55901298D01*
X72367618Y-55849923D01*
X72312439Y-55731591D01*
X72305795Y-55717343D01*
X72179288Y-55536671D01*
X72179286Y-55536668D01*
X72023330Y-55380712D01*
X71842662Y-55254207D01*
X71842654Y-55254203D01*
X71642769Y-55160995D01*
X71642755Y-55160990D01*
X71429724Y-55103909D01*
X71429722Y-55103908D01*
X71429720Y-55103908D01*
X71429718Y-55103907D01*
X71429714Y-55103907D01*
X71210002Y-55084685D01*
X71209998Y-55084685D01*
X70990285Y-55103907D01*
X70990275Y-55103909D01*
X70777244Y-55160990D01*
X70777235Y-55160994D01*
X70577344Y-55254204D01*
X70577342Y-55254205D01*
X70396668Y-55380713D01*
X70240713Y-55536668D01*
X70114205Y-55717342D01*
X70114204Y-55717344D01*
X70020994Y-55917235D01*
X70020990Y-55917244D01*
X69963909Y-56130275D01*
X69963907Y-56130285D01*
X69944685Y-56349998D01*
X62084813Y-56349998D01*
X62065598Y-56130373D01*
X62065597Y-56130366D01*
X62008533Y-55917404D01*
X61915360Y-55717595D01*
X61915359Y-55717593D01*
X61870304Y-55653248D01*
X61870304Y-55653247D01*
X61200000Y-56323551D01*
X61200000Y-56299972D01*
X61174104Y-56203325D01*
X61124076Y-56116675D01*
X61053325Y-56045924D01*
X60966675Y-55995896D01*
X60870028Y-55970000D01*
X60846447Y-55970000D01*
X61516751Y-55299694D01*
X61452402Y-55254638D01*
X61252593Y-55161466D01*
X61252587Y-55161463D01*
X61039634Y-55104402D01*
X61039626Y-55104401D01*
X60820002Y-55085187D01*
X60819998Y-55085187D01*
X60600373Y-55104401D01*
X60600366Y-55104402D01*
X60387404Y-55161466D01*
X60187594Y-55254640D01*
X60123248Y-55299694D01*
X60793554Y-55970000D01*
X60769972Y-55970000D01*
X60673325Y-55995896D01*
X60586675Y-56045924D01*
X60515924Y-56116675D01*
X60465896Y-56203325D01*
X60440000Y-56299972D01*
X60440000Y-56323554D01*
X59769694Y-55653248D01*
X59724640Y-55717594D01*
X59662657Y-55850515D01*
X59616484Y-55902954D01*
X59549290Y-55922106D01*
X59482409Y-55901890D01*
X59437894Y-55850515D01*
X59375795Y-55717343D01*
X59249288Y-55536671D01*
X59249286Y-55536668D01*
X59093330Y-55380712D01*
X58912662Y-55254207D01*
X58912654Y-55254203D01*
X58712769Y-55160995D01*
X58712755Y-55160990D01*
X58499724Y-55103909D01*
X58499722Y-55103908D01*
X58499720Y-55103908D01*
X58499718Y-55103907D01*
X58499714Y-55103907D01*
X58280002Y-55084685D01*
X58279998Y-55084685D01*
X58060285Y-55103907D01*
X58060275Y-55103909D01*
X57847244Y-55160990D01*
X57847235Y-55160994D01*
X57647344Y-55254204D01*
X57647342Y-55254205D01*
X57466668Y-55380713D01*
X57310713Y-55536668D01*
X57184205Y-55717342D01*
X57184204Y-55717344D01*
X57122382Y-55849923D01*
X57076210Y-55902362D01*
X57009016Y-55921514D01*
X56942135Y-55901298D01*
X56897618Y-55849923D01*
X56842439Y-55731591D01*
X56835795Y-55717343D01*
X56709288Y-55536671D01*
X56709286Y-55536668D01*
X56553330Y-55380712D01*
X56372662Y-55254207D01*
X56372654Y-55254203D01*
X56172769Y-55160995D01*
X56172755Y-55160990D01*
X55959724Y-55103909D01*
X55959722Y-55103908D01*
X55959720Y-55103908D01*
X55959718Y-55103907D01*
X55959714Y-55103907D01*
X55740002Y-55084685D01*
X55739998Y-55084685D01*
X55520285Y-55103907D01*
X55520275Y-55103909D01*
X55307244Y-55160990D01*
X55307235Y-55160994D01*
X55107344Y-55254204D01*
X55107342Y-55254205D01*
X54926668Y-55380713D01*
X54770713Y-55536668D01*
X54644205Y-55717342D01*
X54644204Y-55717344D01*
X54550994Y-55917235D01*
X54550990Y-55917244D01*
X54493909Y-56130275D01*
X54493907Y-56130285D01*
X54474685Y-56349998D01*
X41012934Y-56349998D01*
X41097386Y-56233760D01*
X41197432Y-56037410D01*
X41265526Y-55827838D01*
X41265526Y-55827835D01*
X41277855Y-55750000D01*
X39548482Y-55750000D01*
X39559111Y-55731591D01*
X39600000Y-55578991D01*
X39600000Y-55421009D01*
X39559111Y-55268409D01*
X39548482Y-55250000D01*
X41277855Y-55250000D01*
X41265526Y-55172164D01*
X41265526Y-55172161D01*
X41197432Y-54962589D01*
X41097386Y-54766239D01*
X40967857Y-54587958D01*
X40812041Y-54432142D01*
X40633760Y-54302613D01*
X40437410Y-54202567D01*
X40227835Y-54134473D01*
X40010181Y-54100000D01*
X39250000Y-54100000D01*
X39250000Y-54951517D01*
X39231591Y-54940889D01*
X39078991Y-54900000D01*
X38921009Y-54900000D01*
X38768409Y-54940889D01*
X38750000Y-54951517D01*
X38750000Y-54100000D01*
X37989819Y-54100000D01*
X37772164Y-54134473D01*
X37562589Y-54202567D01*
X37366239Y-54302613D01*
X37187958Y-54432142D01*
X37032142Y-54587958D01*
X36902613Y-54766239D01*
X36802567Y-54962589D01*
X36734473Y-55172161D01*
X36734473Y-55172164D01*
X36722145Y-55250000D01*
X34277855Y-55250000D01*
X34265526Y-55172164D01*
X34265526Y-55172161D01*
X34197432Y-54962589D01*
X34097386Y-54766239D01*
X33967857Y-54587958D01*
X33812041Y-54432142D01*
X33633760Y-54302613D01*
X33437410Y-54202567D01*
X33227835Y-54134473D01*
X33010181Y-54100000D01*
X32250000Y-54100000D01*
X32250000Y-54951517D01*
X32231591Y-54940889D01*
X32078991Y-54900000D01*
X31921009Y-54900000D01*
X31768409Y-54940889D01*
X31750000Y-54951517D01*
X31750000Y-54100000D01*
X30989819Y-54100000D01*
X30772164Y-54134473D01*
X30562589Y-54202567D01*
X30366239Y-54302613D01*
X30187958Y-54432142D01*
X30032142Y-54587958D01*
X29902613Y-54766239D01*
X29802567Y-54962589D01*
X29734473Y-55172161D01*
X29734473Y-55172164D01*
X29722145Y-55250000D01*
X27300500Y-55250000D01*
X27300500Y-51889778D01*
X29699500Y-51889778D01*
X29699500Y-52110221D01*
X29733985Y-52327952D01*
X29802103Y-52537603D01*
X29802104Y-52537606D01*
X29902187Y-52734025D01*
X30031752Y-52912358D01*
X30031756Y-52912363D01*
X30187636Y-53068243D01*
X30187641Y-53068247D01*
X30343192Y-53181260D01*
X30365978Y-53197815D01*
X30494375Y-53263237D01*
X30562393Y-53297895D01*
X30562396Y-53297896D01*
X30667221Y-53331955D01*
X30772049Y-53366015D01*
X30989778Y-53400500D01*
X30989779Y-53400500D01*
X33010221Y-53400500D01*
X33010222Y-53400500D01*
X33227951Y-53366015D01*
X33437606Y-53297895D01*
X33634022Y-53197815D01*
X33812365Y-53068242D01*
X33968242Y-52912365D01*
X34097815Y-52734022D01*
X34197895Y-52537606D01*
X34266015Y-52327951D01*
X34300500Y-52110222D01*
X34300500Y-51889778D01*
X36699500Y-51889778D01*
X36699500Y-52110221D01*
X36733985Y-52327952D01*
X36802103Y-52537603D01*
X36802104Y-52537606D01*
X36902187Y-52734025D01*
X37031752Y-52912358D01*
X37031756Y-52912363D01*
X37187636Y-53068243D01*
X37187641Y-53068247D01*
X37343192Y-53181260D01*
X37365978Y-53197815D01*
X37494375Y-53263237D01*
X37562393Y-53297895D01*
X37562396Y-53297896D01*
X37667221Y-53331955D01*
X37772049Y-53366015D01*
X37989778Y-53400500D01*
X37989779Y-53400500D01*
X40010221Y-53400500D01*
X40010222Y-53400500D01*
X40227951Y-53366015D01*
X40437606Y-53297895D01*
X40634022Y-53197815D01*
X40812365Y-53068242D01*
X40968242Y-52912365D01*
X41097815Y-52734022D01*
X41197895Y-52537606D01*
X41266015Y-52327951D01*
X41300500Y-52110222D01*
X41300500Y-51889778D01*
X41266015Y-51672049D01*
X41197895Y-51462394D01*
X41197895Y-51462393D01*
X41163237Y-51394375D01*
X41097815Y-51265978D01*
X41078399Y-51239254D01*
X40968247Y-51087641D01*
X40968243Y-51087636D01*
X40812363Y-50931756D01*
X40812358Y-50931752D01*
X40634025Y-50802187D01*
X40634024Y-50802186D01*
X40634022Y-50802185D01*
X40571096Y-50770122D01*
X40437606Y-50702104D01*
X40437603Y-50702103D01*
X40227952Y-50633985D01*
X40119086Y-50616742D01*
X40010222Y-50599500D01*
X37989778Y-50599500D01*
X37917201Y-50610995D01*
X37772047Y-50633985D01*
X37562396Y-50702103D01*
X37562393Y-50702104D01*
X37365974Y-50802187D01*
X37187641Y-50931752D01*
X37187636Y-50931756D01*
X37031756Y-51087636D01*
X37031752Y-51087641D01*
X36902187Y-51265974D01*
X36802104Y-51462393D01*
X36802103Y-51462396D01*
X36733985Y-51672047D01*
X36699500Y-51889778D01*
X34300500Y-51889778D01*
X34266015Y-51672049D01*
X34197895Y-51462394D01*
X34197895Y-51462393D01*
X34163237Y-51394375D01*
X34097815Y-51265978D01*
X34078399Y-51239254D01*
X33968247Y-51087641D01*
X33968243Y-51087636D01*
X33812363Y-50931756D01*
X33812358Y-50931752D01*
X33634025Y-50802187D01*
X33634024Y-50802186D01*
X33634022Y-50802185D01*
X33571096Y-50770122D01*
X33437606Y-50702104D01*
X33437603Y-50702103D01*
X33227952Y-50633985D01*
X33119086Y-50616742D01*
X33010222Y-50599500D01*
X30989778Y-50599500D01*
X30917201Y-50610995D01*
X30772047Y-50633985D01*
X30562396Y-50702103D01*
X30562393Y-50702104D01*
X30365974Y-50802187D01*
X30187641Y-50931752D01*
X30187636Y-50931756D01*
X30031756Y-51087636D01*
X30031752Y-51087641D01*
X29902187Y-51265974D01*
X29802104Y-51462393D01*
X29802103Y-51462396D01*
X29733985Y-51672047D01*
X29699500Y-51889778D01*
X27300500Y-51889778D01*
X27300500Y-48389778D01*
X29699500Y-48389778D01*
X29699500Y-48610221D01*
X29733985Y-48827952D01*
X29802103Y-49037603D01*
X29802104Y-49037606D01*
X29902187Y-49234025D01*
X30031752Y-49412358D01*
X30031756Y-49412363D01*
X30187636Y-49568243D01*
X30187641Y-49568247D01*
X30343192Y-49681260D01*
X30365978Y-49697815D01*
X30494375Y-49763237D01*
X30562393Y-49797895D01*
X30562396Y-49797896D01*
X30667221Y-49831955D01*
X30772049Y-49866015D01*
X30989778Y-49900500D01*
X30989779Y-49900500D01*
X33010221Y-49900500D01*
X33010222Y-49900500D01*
X33227951Y-49866015D01*
X33437606Y-49797895D01*
X33634022Y-49697815D01*
X33812365Y-49568242D01*
X33968242Y-49412365D01*
X34097815Y-49234022D01*
X34197895Y-49037606D01*
X34266015Y-48827951D01*
X34300500Y-48610222D01*
X34300500Y-48389778D01*
X36699500Y-48389778D01*
X36699500Y-48610221D01*
X36733985Y-48827952D01*
X36802103Y-49037603D01*
X36802104Y-49037606D01*
X36902187Y-49234025D01*
X37031752Y-49412358D01*
X37031756Y-49412363D01*
X37187636Y-49568243D01*
X37187641Y-49568247D01*
X37343192Y-49681260D01*
X37365978Y-49697815D01*
X37494375Y-49763237D01*
X37562393Y-49797895D01*
X37562396Y-49797896D01*
X37667221Y-49831955D01*
X37772049Y-49866015D01*
X37989778Y-49900500D01*
X37989779Y-49900500D01*
X40010221Y-49900500D01*
X40010222Y-49900500D01*
X40158184Y-49877065D01*
X51964500Y-49877065D01*
X51964500Y-50122934D01*
X51991227Y-50325939D01*
X51996591Y-50366677D01*
X52060222Y-50604152D01*
X52060225Y-50604162D01*
X52100795Y-50702105D01*
X52154306Y-50831292D01*
X52277233Y-51044208D01*
X52277235Y-51044211D01*
X52277236Y-51044212D01*
X52426897Y-51239254D01*
X52426903Y-51239261D01*
X52600738Y-51413096D01*
X52600744Y-51413101D01*
X52795792Y-51562767D01*
X53008708Y-51685694D01*
X53235847Y-51779778D01*
X53473323Y-51843409D01*
X53717073Y-51875500D01*
X53717080Y-51875500D01*
X53962920Y-51875500D01*
X53962927Y-51875500D01*
X54206677Y-51843409D01*
X54444153Y-51779778D01*
X54671292Y-51685694D01*
X54884208Y-51562767D01*
X55079256Y-51413101D01*
X55253101Y-51239256D01*
X55402767Y-51044208D01*
X55525694Y-50831292D01*
X55619778Y-50604153D01*
X55683409Y-50366677D01*
X55715500Y-50122927D01*
X55715500Y-49877073D01*
X55715499Y-49877065D01*
X62124500Y-49877065D01*
X62124500Y-50122934D01*
X62151227Y-50325939D01*
X62156591Y-50366677D01*
X62220222Y-50604152D01*
X62220225Y-50604162D01*
X62260795Y-50702105D01*
X62314306Y-50831292D01*
X62437233Y-51044208D01*
X62437235Y-51044211D01*
X62437236Y-51044212D01*
X62586897Y-51239254D01*
X62586903Y-51239261D01*
X62760738Y-51413096D01*
X62760744Y-51413101D01*
X62955792Y-51562767D01*
X63168708Y-51685694D01*
X63395847Y-51779778D01*
X63633323Y-51843409D01*
X63877073Y-51875500D01*
X63877080Y-51875500D01*
X64122920Y-51875500D01*
X64122927Y-51875500D01*
X64366677Y-51843409D01*
X64604153Y-51779778D01*
X64831292Y-51685694D01*
X65044208Y-51562767D01*
X65239256Y-51413101D01*
X65413101Y-51239256D01*
X65562767Y-51044208D01*
X65685694Y-50831292D01*
X65779778Y-50604153D01*
X65843409Y-50366677D01*
X65875500Y-50122927D01*
X65875500Y-49877073D01*
X65875499Y-49877065D01*
X67434500Y-49877065D01*
X67434500Y-50122934D01*
X67461227Y-50325939D01*
X67466591Y-50366677D01*
X67530222Y-50604152D01*
X67530225Y-50604162D01*
X67570795Y-50702105D01*
X67624306Y-50831292D01*
X67747233Y-51044208D01*
X67747235Y-51044211D01*
X67747236Y-51044212D01*
X67896897Y-51239254D01*
X67896903Y-51239261D01*
X68070738Y-51413096D01*
X68070744Y-51413101D01*
X68265792Y-51562767D01*
X68478708Y-51685694D01*
X68705847Y-51779778D01*
X68943323Y-51843409D01*
X69187073Y-51875500D01*
X69187080Y-51875500D01*
X69432920Y-51875500D01*
X69432927Y-51875500D01*
X69676677Y-51843409D01*
X69914153Y-51779778D01*
X70141292Y-51685694D01*
X70354208Y-51562767D01*
X70549256Y-51413101D01*
X70723101Y-51239256D01*
X70872767Y-51044208D01*
X70995694Y-50831292D01*
X71089778Y-50604153D01*
X71153409Y-50366677D01*
X71185500Y-50122927D01*
X71185500Y-49877073D01*
X71185499Y-49877065D01*
X77594500Y-49877065D01*
X77594500Y-50122934D01*
X77621227Y-50325939D01*
X77626591Y-50366677D01*
X77690222Y-50604152D01*
X77690225Y-50604162D01*
X77730795Y-50702105D01*
X77784306Y-50831292D01*
X77907233Y-51044208D01*
X77907235Y-51044211D01*
X77907236Y-51044212D01*
X78056897Y-51239254D01*
X78056903Y-51239261D01*
X78230738Y-51413096D01*
X78230744Y-51413101D01*
X78425792Y-51562767D01*
X78638708Y-51685694D01*
X78865847Y-51779778D01*
X79103323Y-51843409D01*
X79347073Y-51875500D01*
X79347080Y-51875500D01*
X79592920Y-51875500D01*
X79592927Y-51875500D01*
X79836677Y-51843409D01*
X80074153Y-51779778D01*
X80301292Y-51685694D01*
X80514208Y-51562767D01*
X80709256Y-51413101D01*
X80883101Y-51239256D01*
X81032767Y-51044208D01*
X81155694Y-50831292D01*
X81249778Y-50604153D01*
X81313409Y-50366677D01*
X81345500Y-50122927D01*
X81345500Y-49877073D01*
X81313409Y-49633323D01*
X81249778Y-49395847D01*
X81155694Y-49168708D01*
X81032767Y-48955792D01*
X80883101Y-48760744D01*
X80883096Y-48760738D01*
X80709261Y-48586903D01*
X80709254Y-48586897D01*
X80514212Y-48437236D01*
X80514211Y-48437235D01*
X80514208Y-48437233D01*
X80301292Y-48314306D01*
X80301285Y-48314303D01*
X80074162Y-48220225D01*
X80074155Y-48220223D01*
X80074153Y-48220222D01*
X79836677Y-48156591D01*
X79795939Y-48151227D01*
X79592934Y-48124500D01*
X79592927Y-48124500D01*
X79347073Y-48124500D01*
X79347065Y-48124500D01*
X79115059Y-48155045D01*
X79103323Y-48156591D01*
X79045633Y-48172049D01*
X78865847Y-48220222D01*
X78865837Y-48220225D01*
X78638714Y-48314303D01*
X78638705Y-48314307D01*
X78425787Y-48437236D01*
X78230745Y-48586897D01*
X78230738Y-48586903D01*
X78056903Y-48760738D01*
X78056897Y-48760745D01*
X77907236Y-48955787D01*
X77784307Y-49168705D01*
X77784303Y-49168714D01*
X77690225Y-49395837D01*
X77690222Y-49395847D01*
X77626592Y-49633320D01*
X77626590Y-49633331D01*
X77594500Y-49877065D01*
X71185499Y-49877065D01*
X71153409Y-49633323D01*
X71089778Y-49395847D01*
X70995694Y-49168708D01*
X70872767Y-48955792D01*
X70723101Y-48760744D01*
X70723096Y-48760738D01*
X70549261Y-48586903D01*
X70549254Y-48586897D01*
X70354212Y-48437236D01*
X70354211Y-48437235D01*
X70354208Y-48437233D01*
X70141292Y-48314306D01*
X70141285Y-48314303D01*
X69914162Y-48220225D01*
X69914155Y-48220223D01*
X69914153Y-48220222D01*
X69676677Y-48156591D01*
X69635939Y-48151227D01*
X69432934Y-48124500D01*
X69432927Y-48124500D01*
X69187073Y-48124500D01*
X69187065Y-48124500D01*
X68955059Y-48155045D01*
X68943323Y-48156591D01*
X68885633Y-48172049D01*
X68705847Y-48220222D01*
X68705837Y-48220225D01*
X68478714Y-48314303D01*
X68478705Y-48314307D01*
X68265787Y-48437236D01*
X68070745Y-48586897D01*
X68070738Y-48586903D01*
X67896903Y-48760738D01*
X67896897Y-48760745D01*
X67747236Y-48955787D01*
X67624307Y-49168705D01*
X67624303Y-49168714D01*
X67530225Y-49395837D01*
X67530222Y-49395847D01*
X67466592Y-49633320D01*
X67466590Y-49633331D01*
X67434500Y-49877065D01*
X65875499Y-49877065D01*
X65843409Y-49633323D01*
X65779778Y-49395847D01*
X65685694Y-49168708D01*
X65562767Y-48955792D01*
X65413101Y-48760744D01*
X65413096Y-48760738D01*
X65239261Y-48586903D01*
X65239254Y-48586897D01*
X65044212Y-48437236D01*
X65044211Y-48437235D01*
X65044208Y-48437233D01*
X64831292Y-48314306D01*
X64831285Y-48314303D01*
X64604162Y-48220225D01*
X64604155Y-48220223D01*
X64604153Y-48220222D01*
X64366677Y-48156591D01*
X64325939Y-48151227D01*
X64122934Y-48124500D01*
X64122927Y-48124500D01*
X63877073Y-48124500D01*
X63877065Y-48124500D01*
X63645059Y-48155045D01*
X63633323Y-48156591D01*
X63575633Y-48172049D01*
X63395847Y-48220222D01*
X63395837Y-48220225D01*
X63168714Y-48314303D01*
X63168705Y-48314307D01*
X62955787Y-48437236D01*
X62760745Y-48586897D01*
X62760738Y-48586903D01*
X62586903Y-48760738D01*
X62586897Y-48760745D01*
X62437236Y-48955787D01*
X62314307Y-49168705D01*
X62314303Y-49168714D01*
X62220225Y-49395837D01*
X62220222Y-49395847D01*
X62156592Y-49633320D01*
X62156590Y-49633331D01*
X62124500Y-49877065D01*
X55715499Y-49877065D01*
X55683409Y-49633323D01*
X55619778Y-49395847D01*
X55525694Y-49168708D01*
X55402767Y-48955792D01*
X55253101Y-48760744D01*
X55253096Y-48760738D01*
X55079261Y-48586903D01*
X55079254Y-48586897D01*
X54884212Y-48437236D01*
X54884211Y-48437235D01*
X54884208Y-48437233D01*
X54671292Y-48314306D01*
X54671285Y-48314303D01*
X54444162Y-48220225D01*
X54444155Y-48220223D01*
X54444153Y-48220222D01*
X54206677Y-48156591D01*
X54165939Y-48151227D01*
X53962934Y-48124500D01*
X53962927Y-48124500D01*
X53717073Y-48124500D01*
X53717065Y-48124500D01*
X53485059Y-48155045D01*
X53473323Y-48156591D01*
X53415633Y-48172049D01*
X53235847Y-48220222D01*
X53235837Y-48220225D01*
X53008714Y-48314303D01*
X53008705Y-48314307D01*
X52795787Y-48437236D01*
X52600745Y-48586897D01*
X52600738Y-48586903D01*
X52426903Y-48760738D01*
X52426897Y-48760745D01*
X52277236Y-48955787D01*
X52154307Y-49168705D01*
X52154303Y-49168714D01*
X52060225Y-49395837D01*
X52060222Y-49395847D01*
X51996592Y-49633320D01*
X51996590Y-49633331D01*
X51964500Y-49877065D01*
X40158184Y-49877065D01*
X40227951Y-49866015D01*
X40437606Y-49797895D01*
X40634022Y-49697815D01*
X40812365Y-49568242D01*
X40968242Y-49412365D01*
X41097815Y-49234022D01*
X41197895Y-49037606D01*
X41266015Y-48827951D01*
X41300500Y-48610222D01*
X41300500Y-48389778D01*
X41266015Y-48172049D01*
X41197895Y-47962394D01*
X41197895Y-47962393D01*
X41163237Y-47894375D01*
X41097815Y-47765978D01*
X41081260Y-47743192D01*
X40968247Y-47587641D01*
X40968243Y-47587636D01*
X40812363Y-47431756D01*
X40812358Y-47431752D01*
X40634025Y-47302187D01*
X40634024Y-47302186D01*
X40634022Y-47302185D01*
X40543482Y-47256052D01*
X40437606Y-47202104D01*
X40437603Y-47202103D01*
X40227952Y-47133985D01*
X40119086Y-47116742D01*
X40010222Y-47099500D01*
X37989778Y-47099500D01*
X37917201Y-47110995D01*
X37772047Y-47133985D01*
X37562396Y-47202103D01*
X37562393Y-47202104D01*
X37365974Y-47302187D01*
X37187641Y-47431752D01*
X37187636Y-47431756D01*
X37031756Y-47587636D01*
X37031752Y-47587641D01*
X36902187Y-47765974D01*
X36802104Y-47962393D01*
X36802103Y-47962396D01*
X36733985Y-48172047D01*
X36699500Y-48389778D01*
X34300500Y-48389778D01*
X34266015Y-48172049D01*
X34197895Y-47962394D01*
X34197895Y-47962393D01*
X34163237Y-47894375D01*
X34097815Y-47765978D01*
X34081260Y-47743192D01*
X33968247Y-47587641D01*
X33968243Y-47587636D01*
X33812363Y-47431756D01*
X33812358Y-47431752D01*
X33634025Y-47302187D01*
X33634024Y-47302186D01*
X33634022Y-47302185D01*
X33543482Y-47256052D01*
X33437606Y-47202104D01*
X33437603Y-47202103D01*
X33227952Y-47133985D01*
X33119086Y-47116742D01*
X33010222Y-47099500D01*
X30989778Y-47099500D01*
X30917201Y-47110995D01*
X30772047Y-47133985D01*
X30562396Y-47202103D01*
X30562393Y-47202104D01*
X30365974Y-47302187D01*
X30187641Y-47431752D01*
X30187636Y-47431756D01*
X30031756Y-47587636D01*
X30031752Y-47587641D01*
X29902187Y-47765974D01*
X29802104Y-47962393D01*
X29802103Y-47962396D01*
X29733985Y-48172047D01*
X29699500Y-48389778D01*
X27300500Y-48389778D01*
X27300500Y-44299983D01*
X29699500Y-44299983D01*
X29699500Y-45700001D01*
X29699501Y-45700018D01*
X29710000Y-45802796D01*
X29710001Y-45802799D01*
X29729549Y-45861789D01*
X29765186Y-45969334D01*
X29857288Y-46118656D01*
X29981344Y-46242712D01*
X30130666Y-46334814D01*
X30297203Y-46389999D01*
X30399991Y-46400500D01*
X33600008Y-46400499D01*
X33702797Y-46389999D01*
X33869334Y-46334814D01*
X34018656Y-46242712D01*
X34142712Y-46118656D01*
X34234814Y-45969334D01*
X34289999Y-45802797D01*
X34300500Y-45700009D01*
X34300499Y-44299992D01*
X34300498Y-44299983D01*
X36699500Y-44299983D01*
X36699500Y-45700001D01*
X36699501Y-45700018D01*
X36710000Y-45802796D01*
X36710001Y-45802799D01*
X36729549Y-45861789D01*
X36765186Y-45969334D01*
X36857288Y-46118656D01*
X36981344Y-46242712D01*
X37130666Y-46334814D01*
X37297203Y-46389999D01*
X37399991Y-46400500D01*
X40600008Y-46400499D01*
X40702797Y-46389999D01*
X40869334Y-46334814D01*
X41018656Y-46242712D01*
X41142712Y-46118656D01*
X41234814Y-45969334D01*
X41289999Y-45802797D01*
X41300500Y-45700009D01*
X41300500Y-45378711D01*
X46149500Y-45378711D01*
X46149500Y-45621288D01*
X46181161Y-45861785D01*
X46243947Y-46096104D01*
X46336773Y-46320205D01*
X46336776Y-46320212D01*
X46458064Y-46530289D01*
X46458066Y-46530292D01*
X46458067Y-46530293D01*
X46605733Y-46722736D01*
X46605739Y-46722743D01*
X46777256Y-46894260D01*
X46777262Y-46894265D01*
X46969711Y-47041936D01*
X47179788Y-47163224D01*
X47403900Y-47256054D01*
X47638211Y-47318838D01*
X47818586Y-47342584D01*
X47878711Y-47350500D01*
X47878712Y-47350500D01*
X48121289Y-47350500D01*
X48169388Y-47344167D01*
X48361789Y-47318838D01*
X48596100Y-47256054D01*
X48820212Y-47163224D01*
X49030289Y-47041936D01*
X49222738Y-46894265D01*
X49394265Y-46722738D01*
X49541936Y-46530289D01*
X49663224Y-46320212D01*
X49756054Y-46096100D01*
X49818838Y-45861789D01*
X49850500Y-45621288D01*
X49850500Y-45378712D01*
X49850500Y-45378711D01*
X83649500Y-45378711D01*
X83649500Y-45621288D01*
X83681161Y-45861785D01*
X83743947Y-46096104D01*
X83836773Y-46320205D01*
X83836776Y-46320212D01*
X83958064Y-46530289D01*
X83958066Y-46530292D01*
X83958067Y-46530293D01*
X84105733Y-46722736D01*
X84105739Y-46722743D01*
X84277256Y-46894260D01*
X84277262Y-46894265D01*
X84469711Y-47041936D01*
X84679788Y-47163224D01*
X84903900Y-47256054D01*
X85138211Y-47318838D01*
X85318586Y-47342584D01*
X85378711Y-47350500D01*
X85378712Y-47350500D01*
X85621289Y-47350500D01*
X85669388Y-47344167D01*
X85861789Y-47318838D01*
X86096100Y-47256054D01*
X86320212Y-47163224D01*
X86530289Y-47041936D01*
X86722738Y-46894265D01*
X86894265Y-46722738D01*
X87041936Y-46530289D01*
X87163224Y-46320212D01*
X87256054Y-46096100D01*
X87318838Y-45861789D01*
X87350500Y-45621288D01*
X87350500Y-45378712D01*
X87318838Y-45138211D01*
X87256054Y-44903900D01*
X87163224Y-44679788D01*
X87041936Y-44469711D01*
X86911706Y-44299991D01*
X86894266Y-44277263D01*
X86894260Y-44277256D01*
X86722743Y-44105739D01*
X86722736Y-44105733D01*
X86530293Y-43958067D01*
X86530292Y-43958066D01*
X86530289Y-43958064D01*
X86320212Y-43836776D01*
X86320205Y-43836773D01*
X86096104Y-43743947D01*
X85861785Y-43681161D01*
X85621289Y-43649500D01*
X85621288Y-43649500D01*
X85378712Y-43649500D01*
X85378711Y-43649500D01*
X85138214Y-43681161D01*
X84903895Y-43743947D01*
X84679794Y-43836773D01*
X84679785Y-43836777D01*
X84469706Y-43958067D01*
X84277263Y-44105733D01*
X84277256Y-44105739D01*
X84105739Y-44277256D01*
X84105733Y-44277263D01*
X83958067Y-44469706D01*
X83836777Y-44679785D01*
X83836773Y-44679794D01*
X83743947Y-44903895D01*
X83681161Y-45138214D01*
X83649500Y-45378711D01*
X49850500Y-45378711D01*
X49818838Y-45138211D01*
X49756054Y-44903900D01*
X49663224Y-44679788D01*
X49541936Y-44469711D01*
X49411706Y-44299991D01*
X49394266Y-44277263D01*
X49394260Y-44277256D01*
X49222743Y-44105739D01*
X49222736Y-44105733D01*
X49030293Y-43958067D01*
X49030292Y-43958066D01*
X49030289Y-43958064D01*
X48820212Y-43836776D01*
X48820205Y-43836773D01*
X48596104Y-43743947D01*
X48361785Y-43681161D01*
X48121289Y-43649500D01*
X48121288Y-43649500D01*
X47878712Y-43649500D01*
X47878711Y-43649500D01*
X47638214Y-43681161D01*
X47403895Y-43743947D01*
X47179794Y-43836773D01*
X47179785Y-43836777D01*
X46969706Y-43958067D01*
X46777263Y-44105733D01*
X46777256Y-44105739D01*
X46605739Y-44277256D01*
X46605733Y-44277263D01*
X46458067Y-44469706D01*
X46336777Y-44679785D01*
X46336773Y-44679794D01*
X46243947Y-44903895D01*
X46181161Y-45138214D01*
X46149500Y-45378711D01*
X41300500Y-45378711D01*
X41300499Y-44299992D01*
X41298176Y-44277256D01*
X41289999Y-44197203D01*
X41289998Y-44197200D01*
X41234814Y-44030666D01*
X41142712Y-43881344D01*
X41018656Y-43757288D01*
X40925888Y-43700069D01*
X40869336Y-43665187D01*
X40869331Y-43665185D01*
X40867862Y-43664698D01*
X40702797Y-43610001D01*
X40702795Y-43610000D01*
X40600010Y-43599500D01*
X37399998Y-43599500D01*
X37399981Y-43599501D01*
X37297203Y-43610000D01*
X37297200Y-43610001D01*
X37130668Y-43665185D01*
X37130663Y-43665187D01*
X36981342Y-43757289D01*
X36857289Y-43881342D01*
X36765187Y-44030663D01*
X36765186Y-44030666D01*
X36710001Y-44197203D01*
X36710001Y-44197204D01*
X36710000Y-44197204D01*
X36699500Y-44299983D01*
X34300498Y-44299983D01*
X34298176Y-44277256D01*
X34289999Y-44197203D01*
X34289998Y-44197200D01*
X34234814Y-44030666D01*
X34142712Y-43881344D01*
X34018656Y-43757288D01*
X33925888Y-43700069D01*
X33869336Y-43665187D01*
X33869331Y-43665185D01*
X33867862Y-43664698D01*
X33702797Y-43610001D01*
X33702795Y-43610000D01*
X33600010Y-43599500D01*
X30399998Y-43599500D01*
X30399981Y-43599501D01*
X30297203Y-43610000D01*
X30297200Y-43610001D01*
X30130668Y-43665185D01*
X30130663Y-43665187D01*
X29981342Y-43757289D01*
X29857289Y-43881342D01*
X29765187Y-44030663D01*
X29765186Y-44030666D01*
X29710001Y-44197203D01*
X29710001Y-44197204D01*
X29710000Y-44197204D01*
X29699500Y-44299983D01*
X27300500Y-44299983D01*
X27300500Y-42424500D01*
X27320185Y-42357461D01*
X27372989Y-42311706D01*
X27424500Y-42300500D01*
X88575500Y-42300500D01*
X88642539Y-42320185D01*
G37*
%TD.AperFunction*%
%TD*%
M02*
