%TF.GenerationSoftware,KiCad,Pcbnew,8.0.2*%
%TF.CreationDate,2024-12-14T13:14:23+01:00*%
%TF.ProjectId,OS-servoDriver_relay,4f532d73-6572-4766-9f44-72697665725f,rev?*%
%TF.SameCoordinates,Original*%
%TF.FileFunction,Soldermask,Bot*%
%TF.FilePolarity,Negative*%
%FSLAX46Y46*%
G04 Gerber Fmt 4.6, Leading zero omitted, Abs format (unit mm)*
G04 Created by KiCad (PCBNEW 8.0.2) date 2024-12-14 13:14:23*
%MOMM*%
%LPD*%
G01*
G04 APERTURE LIST*
G04 Aperture macros list*
%AMRoundRect*
0 Rectangle with rounded corners*
0 $1 Rounding radius*
0 $2 $3 $4 $5 $6 $7 $8 $9 X,Y pos of 4 corners*
0 Add a 4 corners polygon primitive as box body*
4,1,4,$2,$3,$4,$5,$6,$7,$8,$9,$2,$3,0*
0 Add four circle primitives for the rounded corners*
1,1,$1+$1,$2,$3*
1,1,$1+$1,$4,$5*
1,1,$1+$1,$6,$7*
1,1,$1+$1,$8,$9*
0 Add four rect primitives between the rounded corners*
20,1,$1+$1,$2,$3,$4,$5,0*
20,1,$1+$1,$4,$5,$6,$7,0*
20,1,$1+$1,$6,$7,$8,$9,0*
20,1,$1+$1,$8,$9,$2,$3,0*%
G04 Aperture macros list end*
%ADD10C,3.200000*%
%ADD11R,2.600000X2.600000*%
%ADD12C,2.600000*%
%ADD13R,1.700000X1.700000*%
%ADD14O,1.700000X1.700000*%
%ADD15RoundRect,0.250000X0.650000X1.550000X-0.650000X1.550000X-0.650000X-1.550000X0.650000X-1.550000X0*%
%ADD16O,1.800000X3.600000*%
%ADD17RoundRect,0.250000X1.550000X-0.650000X1.550000X0.650000X-1.550000X0.650000X-1.550000X-0.650000X0*%
%ADD18O,3.600000X1.800000*%
G04 APERTURE END LIST*
D10*
%TO.C,REF\u002A\u002A*%
X245500000Y-106000000D03*
%TD*%
D11*
%TO.C,J103*%
X197358000Y-153289000D03*
D12*
X202438000Y-153289000D03*
X207518000Y-153289000D03*
%TD*%
D13*
%TO.C,J901*%
X236220000Y-150749000D03*
D14*
X238760000Y-150749000D03*
X236220000Y-153289000D03*
X238760000Y-153289000D03*
X236220000Y-155829000D03*
X238760000Y-155829000D03*
%TD*%
D13*
%TO.C,J701*%
X188849000Y-150749000D03*
D14*
X191389000Y-150749000D03*
X188849000Y-153289000D03*
X191389000Y-153289000D03*
X188849000Y-155829000D03*
X191389000Y-155829000D03*
%TD*%
D10*
%TO.C,REF\u002A\u002A*%
X174500000Y-157500000D03*
%TD*%
D13*
%TO.C,J201*%
X213487000Y-104394000D03*
D14*
X216027000Y-104394000D03*
X218567000Y-104394000D03*
X221107000Y-104394000D03*
X223647000Y-104394000D03*
X226187000Y-104394000D03*
%TD*%
D15*
%TO.C,J102*%
X206700000Y-110628500D03*
D16*
X203200000Y-110628500D03*
%TD*%
D13*
%TO.C,J801*%
X228727000Y-150749000D03*
D14*
X231267000Y-150749000D03*
X228727000Y-153289000D03*
X231267000Y-153289000D03*
X228727000Y-155829000D03*
X231267000Y-155829000D03*
%TD*%
D17*
%TO.C,J101*%
X240919000Y-127623000D03*
D18*
X240919000Y-124123000D03*
X240919000Y-120623000D03*
X240919000Y-117123000D03*
%TD*%
D10*
%TO.C,REF\u002A\u002A*%
X245500000Y-157500000D03*
%TD*%
D11*
%TO.C,J104*%
X212598000Y-153289000D03*
D12*
X217678000Y-153289000D03*
X222758000Y-153289000D03*
%TD*%
D10*
%TO.C,REF\u002A\u002A*%
X174500000Y-106000000D03*
%TD*%
M02*
