%TF.GenerationSoftware,KiCad,Pcbnew,8.0.2*%
%TF.CreationDate,2024-12-14T13:14:23+01:00*%
%TF.ProjectId,OS-servoDriver_relay,4f532d73-6572-4766-9f44-72697665725f,rev?*%
%TF.SameCoordinates,Original*%
%TF.FileFunction,Copper,L2,Bot*%
%TF.FilePolarity,Positive*%
%FSLAX46Y46*%
G04 Gerber Fmt 4.6, Leading zero omitted, Abs format (unit mm)*
G04 Created by KiCad (PCBNEW 8.0.2) date 2024-12-14 13:14:23*
%MOMM*%
%LPD*%
G01*
G04 APERTURE LIST*
G04 Aperture macros list*
%AMRoundRect*
0 Rectangle with rounded corners*
0 $1 Rounding radius*
0 $2 $3 $4 $5 $6 $7 $8 $9 X,Y pos of 4 corners*
0 Add a 4 corners polygon primitive as box body*
4,1,4,$2,$3,$4,$5,$6,$7,$8,$9,$2,$3,0*
0 Add four circle primitives for the rounded corners*
1,1,$1+$1,$2,$3*
1,1,$1+$1,$4,$5*
1,1,$1+$1,$6,$7*
1,1,$1+$1,$8,$9*
0 Add four rect primitives between the rounded corners*
20,1,$1+$1,$2,$3,$4,$5,0*
20,1,$1+$1,$4,$5,$6,$7,0*
20,1,$1+$1,$6,$7,$8,$9,0*
20,1,$1+$1,$8,$9,$2,$3,0*%
G04 Aperture macros list end*
%TA.AperFunction,ComponentPad*%
%ADD10R,2.600000X2.600000*%
%TD*%
%TA.AperFunction,ComponentPad*%
%ADD11C,2.600000*%
%TD*%
%TA.AperFunction,ComponentPad*%
%ADD12R,1.700000X1.700000*%
%TD*%
%TA.AperFunction,ComponentPad*%
%ADD13O,1.700000X1.700000*%
%TD*%
%TA.AperFunction,ComponentPad*%
%ADD14RoundRect,0.250000X0.650000X1.550000X-0.650000X1.550000X-0.650000X-1.550000X0.650000X-1.550000X0*%
%TD*%
%TA.AperFunction,ComponentPad*%
%ADD15O,1.800000X3.600000*%
%TD*%
%TA.AperFunction,ComponentPad*%
%ADD16RoundRect,0.250000X1.550000X-0.650000X1.550000X0.650000X-1.550000X0.650000X-1.550000X-0.650000X0*%
%TD*%
%TA.AperFunction,ComponentPad*%
%ADD17O,3.600000X1.800000*%
%TD*%
%TA.AperFunction,ViaPad*%
%ADD18C,0.500000*%
%TD*%
%TA.AperFunction,ViaPad*%
%ADD19C,0.800000*%
%TD*%
%TA.AperFunction,Conductor*%
%ADD20C,0.200000*%
%TD*%
%TA.AperFunction,Conductor*%
%ADD21C,0.500000*%
%TD*%
%TA.AperFunction,Conductor*%
%ADD22C,0.700000*%
%TD*%
G04 APERTURE END LIST*
D10*
%TO.P,J103,1,Pin_1*%
%TO.N,/servo1-2/FROG1*%
X197358000Y-153289000D03*
D11*
%TO.P,J103,2,Pin_2*%
%TO.N,/servo1-2/FROG2*%
X202438000Y-153289000D03*
%TO.P,J103,3,Pin_3*%
%TO.N,/servo3-4/FROG1*%
X207518000Y-153289000D03*
%TD*%
D12*
%TO.P,J901,1,Pin_1*%
%TO.N,/atmega/bus3.pin1*%
X236220000Y-150749000D03*
D13*
%TO.P,J901,2,Pin_2*%
%TO.N,/atmega/bus3.pin2*%
X238760000Y-150749000D03*
%TO.P,J901,3,Pin_3*%
%TO.N,+5VA*%
X236220000Y-153289000D03*
%TO.P,J901,4,Pin_4*%
X238760000Y-153289000D03*
%TO.P,J901,5,Pin_5*%
%TO.N,GND*%
X236220000Y-155829000D03*
%TO.P,J901,6,Pin_6*%
X238760000Y-155829000D03*
%TD*%
D12*
%TO.P,J701,1,Pin_1*%
%TO.N,/atmega/bus1.pin1*%
X188849000Y-150749000D03*
D13*
%TO.P,J701,2,Pin_2*%
%TO.N,/atmega/bus1.pin2*%
X191389000Y-150749000D03*
%TO.P,J701,3,Pin_3*%
%TO.N,+5VA*%
X188849000Y-153289000D03*
%TO.P,J701,4,Pin_4*%
X191389000Y-153289000D03*
%TO.P,J701,5,Pin_5*%
%TO.N,GND*%
X188849000Y-155829000D03*
%TO.P,J701,6,Pin_6*%
X191389000Y-155829000D03*
%TD*%
D12*
%TO.P,J201,1,Pin_1*%
%TO.N,GND*%
X213487000Y-104394000D03*
D13*
%TO.P,J201,2,Pin_2*%
%TO.N,+5V*%
X216027000Y-104394000D03*
%TO.P,J201,3,Pin_3*%
%TO.N,/atmega/LED*%
X218567000Y-104394000D03*
%TO.P,J201,4,Pin_4*%
%TO.N,/atmega/MISO*%
X221107000Y-104394000D03*
%TO.P,J201,5,Pin_5*%
%TO.N,/atmega/MOSI*%
X223647000Y-104394000D03*
%TO.P,J201,6,Pin_6*%
%TO.N,/atmega/reset*%
X226187000Y-104394000D03*
%TD*%
D14*
%TO.P,J102,1,Pin_1*%
%TO.N,/servo1-2/DCC_B*%
X206700000Y-110628500D03*
D15*
%TO.P,J102,2,Pin_2*%
%TO.N,/servo1-2/DCC_A*%
X203200000Y-110628500D03*
%TD*%
D12*
%TO.P,J801,1,Pin_1*%
%TO.N,/atmega/bus2.pin1*%
X228727000Y-150749000D03*
D13*
%TO.P,J801,2,Pin_2*%
%TO.N,/atmega/bus2.pin2*%
X231267000Y-150749000D03*
%TO.P,J801,3,Pin_3*%
%TO.N,+5VA*%
X228727000Y-153289000D03*
%TO.P,J801,4,Pin_4*%
X231267000Y-153289000D03*
%TO.P,J801,5,Pin_5*%
%TO.N,GND*%
X228727000Y-155829000D03*
%TO.P,J801,6,Pin_6*%
X231267000Y-155829000D03*
%TD*%
D16*
%TO.P,J101,1,Pin_1*%
%TO.N,/DCC/DCC_B*%
X240919000Y-127623000D03*
D17*
%TO.P,J101,2,Pin_2*%
%TO.N,/DCC/DCC_A*%
X240919000Y-124123000D03*
%TO.P,J101,3,Pin_3*%
%TO.N,/D_bridge/AC_2*%
X240919000Y-120623000D03*
%TO.P,J101,4,Pin_4*%
%TO.N,/D_bridge/AC_1*%
X240919000Y-117123000D03*
%TD*%
D10*
%TO.P,J104,1,Pin_1*%
%TO.N,/servo3-4/FROG2*%
X212598000Y-153289000D03*
D11*
%TO.P,J104,2,Pin_2*%
%TO.N,/servo5-6/FROG1*%
X217678000Y-153289000D03*
%TO.P,J104,3,Pin_3*%
%TO.N,/servo5-6/FROG2*%
X222758000Y-153289000D03*
%TD*%
D18*
%TO.N,GND*%
X182499000Y-104013000D03*
X193421000Y-103759000D03*
X202311000Y-104267000D03*
X210820000Y-104267000D03*
X193548000Y-130810000D03*
X195072000Y-126619000D03*
X189357000Y-128905000D03*
X191008000Y-127000000D03*
X198120000Y-120269000D03*
X198120000Y-116586000D03*
X200914000Y-117221000D03*
X204470000Y-116205000D03*
X202057000Y-119126000D03*
X203962000Y-117729000D03*
X211709000Y-123825000D03*
X202819000Y-123952000D03*
X201422000Y-120777000D03*
X204724000Y-129032000D03*
X210312000Y-129667000D03*
X216027000Y-128905000D03*
X224663000Y-130937000D03*
X230378000Y-127762000D03*
X234315000Y-126873000D03*
X234442000Y-124333000D03*
X232537000Y-126365000D03*
X230505000Y-124333000D03*
X229489000Y-119507000D03*
X230886000Y-120777000D03*
X230505000Y-118745000D03*
X234442000Y-118618000D03*
X234315000Y-120777000D03*
X232537000Y-118618000D03*
X187198000Y-159512000D03*
X195199000Y-159893000D03*
X199009000Y-157861000D03*
X200152000Y-159639000D03*
X204724000Y-157988000D03*
X205486000Y-159512000D03*
X210693000Y-159766000D03*
X209296000Y-158115000D03*
X220853000Y-159512000D03*
X219329000Y-157861000D03*
X214249000Y-157988000D03*
X215900000Y-159639000D03*
X240919000Y-150749000D03*
X237617000Y-160147000D03*
X237109000Y-157988000D03*
X233553000Y-157861000D03*
X232918000Y-160147000D03*
X225806000Y-159766000D03*
%TO.N,Net-(D804-A)*%
X230886000Y-159704000D03*
X231521000Y-158304000D03*
X234569000Y-154305000D03*
X234103000Y-150749000D03*
X234188000Y-148590000D03*
X235500000Y-146939000D03*
%TO.N,Net-(D803-A)*%
X226708025Y-158228975D03*
X228727000Y-158115000D03*
X233807000Y-153989000D03*
X233553000Y-151596000D03*
%TO.N,Net-(D704-A)*%
X214757000Y-154339000D03*
X214757000Y-155739000D03*
%TO.N,Net-(D703-A)*%
X210058000Y-155739000D03*
X210058000Y-154339000D03*
X213973644Y-140335000D03*
X214209335Y-135675665D03*
%TO.N,Net-(D602-A)*%
X203073000Y-139450000D03*
X203073000Y-137350000D03*
X203073000Y-143250000D03*
X203073000Y-144653000D03*
X204597000Y-155739000D03*
X204597000Y-154339000D03*
%TO.N,Net-(D601-A)*%
X195453000Y-154339000D03*
X195453000Y-155739000D03*
X195961000Y-147639000D03*
X195834000Y-145477000D03*
X191643000Y-133477000D03*
X192750000Y-134239000D03*
%TO.N,/atmega/bus2.relay2*%
X219710000Y-132588000D03*
X218186000Y-131826000D03*
%TO.N,GND*%
X241554000Y-151765000D03*
D19*
X184150000Y-120685583D03*
D18*
X183642000Y-149987000D03*
X174117000Y-153162000D03*
X220125657Y-114646343D03*
X177927000Y-103886000D03*
D19*
X217805000Y-122428000D03*
D18*
X180857000Y-111633000D03*
X187198000Y-134620000D03*
X172212000Y-131572000D03*
X211201000Y-118745000D03*
X248000000Y-150000000D03*
X184912000Y-116078000D03*
X186690000Y-123063000D03*
X222042500Y-121158000D03*
X182499000Y-121031000D03*
X192913000Y-133096000D03*
X191897000Y-120904000D03*
X174117000Y-113792000D03*
X227711000Y-135255000D03*
X241681000Y-156464000D03*
X172339000Y-121158000D03*
X188214000Y-123952000D03*
X200025000Y-131318000D03*
D19*
X186400311Y-118739580D03*
D18*
X182753000Y-124460000D03*
X185928000Y-127127000D03*
X173990000Y-135001000D03*
X173990000Y-118110000D03*
X188214000Y-125095000D03*
X240538000Y-134366000D03*
X229235000Y-134366000D03*
X186055000Y-156845000D03*
X194691000Y-157099000D03*
X228092000Y-136271000D03*
X174244000Y-128397000D03*
D19*
X219837000Y-126873000D03*
D18*
X182499000Y-119507000D03*
X191389000Y-108839000D03*
X195707000Y-135636000D03*
X193167000Y-120904000D03*
X195072000Y-107696000D03*
X183515000Y-116586000D03*
X221107000Y-156083000D03*
X224409000Y-158242000D03*
X188976000Y-108458000D03*
X174117000Y-124333000D03*
D19*
X218821000Y-126873000D03*
D18*
X188595000Y-121031000D03*
X179578000Y-145542000D03*
X201041000Y-156591000D03*
X190246000Y-117094000D03*
X213914500Y-118872000D03*
D19*
X218821000Y-122428000D03*
D18*
X225298000Y-135763000D03*
X193421000Y-135890000D03*
X180721000Y-149098000D03*
D19*
X225679000Y-125349000D03*
D18*
X179451000Y-116078000D03*
X237871000Y-135255000D03*
D19*
X217805000Y-126873000D03*
D18*
X215045657Y-113757343D03*
X235966000Y-135763000D03*
X225552000Y-153797000D03*
X245000000Y-149000000D03*
X182499000Y-115443000D03*
X193675000Y-106934000D03*
X184877113Y-114046000D03*
X211836000Y-156845000D03*
X188595000Y-136271000D03*
X172339000Y-142367000D03*
D19*
X223169657Y-117544343D03*
D18*
X238252000Y-136271000D03*
X174244000Y-139065000D03*
X184658000Y-152781000D03*
X190373000Y-120777000D03*
X189611000Y-107188000D03*
X188214000Y-122682000D03*
X216916000Y-133604000D03*
D19*
X212344000Y-122301000D03*
X224155000Y-126746000D03*
D18*
X174498000Y-109855000D03*
X196977000Y-131318000D03*
X172212000Y-151638000D03*
X239395000Y-134493000D03*
X173863000Y-145034000D03*
X179451000Y-124206000D03*
X248412000Y-131191000D03*
X184912000Y-126746000D03*
X190119000Y-109601000D03*
D19*
X214376000Y-121412000D03*
D18*
X172339000Y-112014000D03*
X188849000Y-119888000D03*
D19*
X219837000Y-122428000D03*
D18*
X240411000Y-149225000D03*
X206629000Y-133731000D03*
X182372000Y-117094000D03*
X225332657Y-116297343D03*
X247523000Y-141478000D03*
X176022000Y-151638000D03*
X185420000Y-135636000D03*
X197485000Y-134620000D03*
X246634000Y-145796000D03*
X241000000Y-159500000D03*
D19*
%TO.N,VCC*%
X225425000Y-123754950D03*
X214630000Y-124079000D03*
X223137450Y-123754950D03*
%TO.N,+5VA*%
X179705000Y-137287000D03*
X233045000Y-138176000D03*
X225806000Y-138176000D03*
X182880000Y-138430000D03*
X222377000Y-138199502D03*
X191262000Y-138684000D03*
X194056000Y-138811000D03*
X236220000Y-138176000D03*
D18*
%TO.N,/atmega/LED*%
X185547000Y-107442000D03*
X187960000Y-108839000D03*
%TO.N,/DCC/DCC_B*%
X219609748Y-113765252D03*
X221622909Y-113657091D03*
%TO.N,/atmega/reset*%
X197320843Y-109534157D03*
X193865500Y-111042733D03*
%TO.N,/DCC/DCC_TTL*%
X211328000Y-107941000D03*
X199529513Y-109286008D03*
X209288091Y-107688091D03*
X193167000Y-111506000D03*
%TO.N,/atmega/bus2.pin1*%
X202634950Y-131186050D03*
X201230000Y-131191000D03*
X195710000Y-118618000D03*
X193610000Y-118618000D03*
%TO.N,/atmega/bus2.pin2*%
X195961000Y-117856000D03*
X201206909Y-130390091D03*
X205105000Y-130800000D03*
X193610000Y-117714907D03*
%TO.N,/atmega/bus3.pin1*%
X205717034Y-114830966D03*
X227118000Y-124714000D03*
X227118000Y-121920000D03*
X199797788Y-113040762D03*
%TO.N,/atmega/bus3.pin2*%
X206570676Y-113844858D03*
X228261000Y-121920000D03*
X228218000Y-124714000D03*
X225298000Y-118410000D03*
X199136000Y-112490762D03*
X221742000Y-117776000D03*
%TO.N,/atmega/bus1.pin2*%
X186473450Y-130466450D03*
X184785000Y-129032000D03*
D19*
%TO.N,/servo1-2/FROG1*%
X192899500Y-143637000D03*
X191135000Y-143637000D03*
%TO.N,/servo5-6/FROG2*%
X241681000Y-142621000D03*
X246571500Y-142621000D03*
%TO.N,/servo5-6/FROG1*%
X224917000Y-147701000D03*
X227457000Y-145321657D03*
D18*
%TO.N,/atmega/bus1.relay1*%
X184665909Y-128135091D03*
X184531000Y-131572000D03*
%TO.N,/atmega/bus1.relay2*%
X187071000Y-129916450D03*
X185420000Y-128524000D03*
%TO.N,/atmega/bus2.relay1*%
X196469000Y-117221000D03*
X200914000Y-129413000D03*
X202630000Y-129840091D03*
X193750000Y-116801000D03*
%TO.N,/atmega/bus2.relay2*%
X202692000Y-129032000D03*
X197104000Y-124968000D03*
X200787000Y-128524000D03*
X194323025Y-116218025D03*
X196977000Y-116586000D03*
X197108337Y-121490000D03*
%TO.N,/atmega/bus3.relay1*%
X204216000Y-114107750D03*
X226568000Y-123952000D03*
X226568000Y-122511500D03*
X200715527Y-112123023D03*
X195961000Y-106934000D03*
X198191409Y-109291409D03*
%TO.N,/atmega/bus3.relay2*%
X196476909Y-106291091D03*
X201048349Y-111370530D03*
X205007916Y-113876220D03*
X227711000Y-122511500D03*
X227668000Y-124079000D03*
X198834318Y-108648500D03*
D19*
%TO.N,/servo1-2/DCC_B*%
X189230000Y-140335000D03*
X235649500Y-139192000D03*
X222916250Y-139192000D03*
X188722000Y-137795000D03*
X233553000Y-139065000D03*
X225298000Y-139192000D03*
X195961000Y-140335000D03*
%TO.N,/servo1-2/DCC_A*%
X194945000Y-146050000D03*
X212217000Y-145796000D03*
X217551000Y-145923000D03*
X220980000Y-144800000D03*
X229281016Y-144699016D03*
X201168000Y-145796000D03*
X237871000Y-144526000D03*
X199136000Y-145796000D03*
X191389000Y-146050000D03*
X233426000Y-143637000D03*
D18*
%TO.N,+5V*%
X216027000Y-107541000D03*
X214630000Y-149372581D03*
X241360216Y-130974971D03*
X198200000Y-149860000D03*
X228494262Y-119866738D03*
X201168000Y-149843000D03*
X230124000Y-114719480D03*
X240411000Y-130048000D03*
X192532000Y-109942733D03*
X184103700Y-107230109D03*
X184150000Y-104930000D03*
X210312000Y-149479000D03*
X228768000Y-125476000D03*
X230632000Y-116459000D03*
X192024000Y-111887000D03*
X198374000Y-115240975D03*
%TD*%
D20*
%TO.N,Net-(D804-A)*%
X231521000Y-159069000D02*
X230886000Y-159704000D01*
X231521000Y-158304000D02*
X231521000Y-159069000D01*
X234103000Y-150749000D02*
X234569000Y-151215000D01*
X234569000Y-151215000D02*
X234569000Y-154305000D01*
X234188000Y-148251000D02*
X234188000Y-148590000D01*
X235500000Y-146939000D02*
X234188000Y-148251000D01*
D21*
%TO.N,/servo5-6/FROG2*%
X241681000Y-142621000D02*
X246571500Y-142621000D01*
D20*
%TO.N,Net-(D803-A)*%
X226822000Y-158115000D02*
X226708025Y-158228975D01*
X228727000Y-158115000D02*
X226822000Y-158115000D01*
X233553000Y-153735000D02*
X233807000Y-153989000D01*
X233553000Y-151596000D02*
X233553000Y-153735000D01*
D21*
%TO.N,/servo1-2/DCC_A*%
X236982000Y-143637000D02*
X237871000Y-144526000D01*
X233426000Y-143637000D02*
X236982000Y-143637000D01*
%TO.N,/servo1-2/DCC_B*%
X233680000Y-139192000D02*
X235649500Y-139192000D01*
X233553000Y-139065000D02*
X233680000Y-139192000D01*
%TO.N,+5VA*%
X233045000Y-138176000D02*
X236220000Y-138176000D01*
D20*
%TO.N,Net-(D704-A)*%
X214757000Y-154339000D02*
X214757000Y-155739000D01*
%TO.N,+5V*%
X210418419Y-149372581D02*
X210312000Y-149479000D01*
X214630000Y-149372581D02*
X210418419Y-149372581D01*
D21*
%TO.N,/servo1-2/DCC_B*%
X222916250Y-139192000D02*
X225298000Y-139192000D01*
D20*
%TO.N,Net-(D703-A)*%
X210058000Y-154339000D02*
X210058000Y-155739000D01*
X214209335Y-135675665D02*
X214209335Y-140099309D01*
X214209335Y-140099309D02*
X213973644Y-140335000D01*
%TO.N,Net-(D602-A)*%
X203073000Y-137350000D02*
X203073000Y-139450000D01*
X203073000Y-144653000D02*
X203073000Y-143250000D01*
%TO.N,+5V*%
X201151000Y-149860000D02*
X198200000Y-149860000D01*
X201168000Y-149843000D02*
X201151000Y-149860000D01*
%TO.N,Net-(D602-A)*%
X204597000Y-155739000D02*
X204597000Y-154339000D01*
%TO.N,Net-(D601-A)*%
X195453000Y-154339000D02*
X195453000Y-155739000D01*
X195834000Y-147512000D02*
X195961000Y-147639000D01*
X195834000Y-145477000D02*
X195834000Y-147512000D01*
X191988000Y-133477000D02*
X192750000Y-134239000D01*
X191643000Y-133477000D02*
X191988000Y-133477000D01*
D21*
%TO.N,+5VA*%
X191262000Y-138684000D02*
X193929000Y-138684000D01*
X193929000Y-138684000D02*
X194056000Y-138811000D01*
D20*
%TO.N,+5V*%
X240411000Y-130048000D02*
X240433245Y-130048000D01*
X240433245Y-130048000D02*
X241360216Y-130974971D01*
%TO.N,/atmega/bus2.relay2*%
X219710000Y-132588000D02*
X218948000Y-132588000D01*
X218948000Y-132588000D02*
X218186000Y-131826000D01*
D22*
%TO.N,VCC*%
X223137450Y-123754950D02*
X225425000Y-123754950D01*
X214630000Y-124079000D02*
X222813400Y-124079000D01*
X222813400Y-124079000D02*
X223137450Y-123754950D01*
D21*
%TO.N,+5VA*%
X181737000Y-137287000D02*
X179705000Y-137287000D01*
X225782498Y-138199502D02*
X225806000Y-138176000D01*
X222377000Y-138199502D02*
X225782498Y-138199502D01*
X182880000Y-138430000D02*
X181737000Y-137287000D01*
D20*
%TO.N,/atmega/LED*%
X186563000Y-107442000D02*
X187960000Y-108839000D01*
X185547000Y-107442000D02*
X186563000Y-107442000D01*
%TO.N,/DCC/DCC_B*%
X221514748Y-113765252D02*
X219609748Y-113765252D01*
X221622909Y-113657091D02*
X221514748Y-113765252D01*
%TO.N,/atmega/reset*%
X197320843Y-109534157D02*
X195374076Y-109534157D01*
X195374076Y-109534157D02*
X193865500Y-111042733D01*
%TO.N,/DCC/DCC_TTL*%
X209423000Y-107823000D02*
X209288091Y-107688091D01*
X197093025Y-110084157D02*
X198731364Y-110084157D01*
X211210000Y-107823000D02*
X209423000Y-107823000D01*
X211328000Y-107941000D02*
X211210000Y-107823000D01*
X198731364Y-110084157D02*
X199529513Y-109286008D01*
X195704051Y-109982000D02*
X196990868Y-109982000D01*
X193253733Y-111592733D02*
X194093318Y-111592733D01*
X194093318Y-111592733D02*
X195704051Y-109982000D01*
X193167000Y-111506000D02*
X193253733Y-111592733D01*
X196990868Y-109982000D02*
X197093025Y-110084157D01*
%TO.N,/atmega/bus2.pin1*%
X202634950Y-131186050D02*
X201234950Y-131186050D01*
X201234950Y-131186050D02*
X201230000Y-131191000D01*
X195710000Y-118618000D02*
X193610000Y-118618000D01*
%TO.N,/atmega/bus2.pin2*%
X204695091Y-130390091D02*
X201206909Y-130390091D01*
X193751093Y-117856000D02*
X195961000Y-117856000D01*
X193610000Y-117714907D02*
X193751093Y-117856000D01*
X205105000Y-130800000D02*
X204695091Y-130390091D01*
%TO.N,/atmega/bus3.pin1*%
X202226000Y-114046000D02*
X201295000Y-114046000D01*
X205359000Y-115189000D02*
X203369000Y-115189000D01*
X200289762Y-113040762D02*
X199797788Y-113040762D01*
X205717034Y-114830966D02*
X205359000Y-115189000D01*
X201295000Y-114046000D02*
X200289762Y-113040762D01*
X203369000Y-115189000D02*
X202226000Y-114046000D01*
X227118000Y-124714000D02*
X227118000Y-121920000D01*
%TO.N,/atmega/bus3.pin2*%
X206570676Y-113844858D02*
X205817096Y-113844858D01*
X202391686Y-113646000D02*
X201460686Y-113646000D01*
X225298000Y-118410000D02*
X222376000Y-118410000D01*
X205004204Y-114657750D02*
X203403436Y-114657750D01*
X228218000Y-124714000D02*
X228261000Y-124671000D01*
X228261000Y-124671000D02*
X228261000Y-121920000D01*
X201460686Y-113646000D02*
X200305448Y-112490762D01*
X200305448Y-112490762D02*
X199136000Y-112490762D01*
X222376000Y-118410000D02*
X221742000Y-117776000D01*
X205817096Y-113844858D02*
X205004204Y-114657750D01*
X203403436Y-114657750D02*
X202391686Y-113646000D01*
%TO.N,/atmega/bus1.pin2*%
X186219450Y-130466450D02*
X186473450Y-130466450D01*
X184785000Y-129032000D02*
X186219450Y-130466450D01*
D21*
%TO.N,/servo1-2/FROG1*%
X192899500Y-143637000D02*
X191135000Y-143637000D01*
%TO.N,/servo5-6/FROG1*%
X224917000Y-147701000D02*
X225077657Y-147701000D01*
X225077657Y-147701000D02*
X227457000Y-145321657D01*
D20*
%TO.N,/atmega/bus1.relay1*%
X184665909Y-128135091D02*
X184235000Y-128566000D01*
X184235000Y-128566000D02*
X184235000Y-131276000D01*
X184235000Y-131276000D02*
X184531000Y-131572000D01*
%TO.N,/atmega/bus1.relay2*%
X185420000Y-128524000D02*
X186812450Y-129916450D01*
X186812450Y-129916450D02*
X187071000Y-129916450D01*
%TO.N,/atmega/bus2.relay1*%
X194170000Y-117221000D02*
X193750000Y-116801000D01*
X202630000Y-129840091D02*
X201341091Y-129840091D01*
X201341091Y-129840091D02*
X200914000Y-129413000D01*
X196469000Y-117221000D02*
X194170000Y-117221000D01*
%TO.N,/atmega/bus2.relay2*%
X196977000Y-116586000D02*
X196850000Y-116459000D01*
X194564000Y-116459000D02*
X194323025Y-116218025D01*
X196850000Y-116459000D02*
X194564000Y-116459000D01*
X197104000Y-121494337D02*
X197108337Y-121490000D01*
X197104000Y-124968000D02*
X197104000Y-121494337D01*
X202692000Y-129032000D02*
X202184000Y-128524000D01*
X202184000Y-128524000D02*
X200787000Y-128524000D01*
%TO.N,/atmega/bus3.relay1*%
X200715527Y-112323527D02*
X200715527Y-112123023D01*
X198191409Y-109164409D02*
X198191409Y-109291409D01*
X201638000Y-113246000D02*
X200715527Y-112323527D01*
X204216000Y-114107750D02*
X203354250Y-113246000D01*
X226568000Y-123952000D02*
X226568000Y-122511500D01*
X203354250Y-113246000D02*
X201638000Y-113246000D01*
X195961000Y-106934000D02*
X198191409Y-109164409D01*
%TO.N,/atmega/bus3.relay2*%
X196476909Y-106291091D02*
X198834318Y-108648500D01*
X227668000Y-124079000D02*
X227668000Y-122554500D01*
X203977696Y-112846000D02*
X205007916Y-113876220D01*
X227668000Y-122554500D02*
X227711000Y-122511500D01*
X201048349Y-111370530D02*
X201048349Y-111678027D01*
X201873000Y-112846000D02*
X203977696Y-112846000D01*
X201048349Y-111678027D02*
X201265527Y-111895205D01*
X201265527Y-111895205D02*
X201265527Y-112238527D01*
X201265527Y-112238527D02*
X201873000Y-112846000D01*
D21*
%TO.N,/servo1-2/DCC_B*%
X188722000Y-137795000D02*
X188722000Y-139827000D01*
X189230000Y-140335000D02*
X195961000Y-140335000D01*
X188722000Y-139827000D02*
X189230000Y-140335000D01*
%TO.N,/servo1-2/DCC_A*%
X201168000Y-145796000D02*
X199136000Y-145796000D01*
X221308343Y-144471657D02*
X229053657Y-144471657D01*
X212217000Y-145796000D02*
X217424000Y-145796000D01*
X229053657Y-144471657D02*
X229281016Y-144699016D01*
X217424000Y-145796000D02*
X217551000Y-145923000D01*
X194945000Y-146050000D02*
X191389000Y-146050000D01*
X220980000Y-144800000D02*
X221308343Y-144471657D01*
D20*
%TO.N,+5V*%
X228768000Y-125263000D02*
X228811000Y-125220000D01*
X228768000Y-125476000D02*
X228768000Y-125263000D01*
X192532000Y-111379000D02*
X192024000Y-111887000D01*
X230632000Y-115227480D02*
X230124000Y-114719480D01*
X184150000Y-107183809D02*
X184150000Y-104930000D01*
X228811000Y-125220000D02*
X228811000Y-120183476D01*
X228811000Y-120183476D02*
X228494262Y-119866738D01*
X192690866Y-112553866D02*
X195611866Y-112553866D01*
X184103700Y-107230109D02*
X184150000Y-107183809D01*
X192024000Y-111887000D02*
X192690866Y-112553866D01*
X216027000Y-107541000D02*
X216027000Y-104394000D01*
X230632000Y-116459000D02*
X230632000Y-115227480D01*
X195611866Y-112553866D02*
X198298975Y-115240975D01*
X192532000Y-109942733D02*
X192532000Y-111379000D01*
X198298975Y-115240975D02*
X198374000Y-115240975D01*
%TD*%
%TA.AperFunction,Conductor*%
%TO.N,GND*%
G36*
X190923075Y-155636007D02*
G01*
X190889000Y-155763174D01*
X190889000Y-155894826D01*
X190923075Y-156021993D01*
X190955988Y-156079000D01*
X189282012Y-156079000D01*
X189314925Y-156021993D01*
X189349000Y-155894826D01*
X189349000Y-155763174D01*
X189314925Y-155636007D01*
X189282012Y-155579000D01*
X190955988Y-155579000D01*
X190923075Y-155636007D01*
G37*
%TD.AperFunction*%
%TA.AperFunction,Conductor*%
G36*
X230801075Y-155636007D02*
G01*
X230767000Y-155763174D01*
X230767000Y-155894826D01*
X230801075Y-156021993D01*
X230833988Y-156079000D01*
X229160012Y-156079000D01*
X229192925Y-156021993D01*
X229227000Y-155894826D01*
X229227000Y-155763174D01*
X229192925Y-155636007D01*
X229160012Y-155579000D01*
X230833988Y-155579000D01*
X230801075Y-155636007D01*
G37*
%TD.AperFunction*%
%TA.AperFunction,Conductor*%
G36*
X238294075Y-155636007D02*
G01*
X238260000Y-155763174D01*
X238260000Y-155894826D01*
X238294075Y-156021993D01*
X238326988Y-156079000D01*
X236653012Y-156079000D01*
X236685925Y-156021993D01*
X236720000Y-155894826D01*
X236720000Y-155763174D01*
X236685925Y-155636007D01*
X236653012Y-155579000D01*
X238326988Y-155579000D01*
X238294075Y-155636007D01*
G37*
%TD.AperFunction*%
%TA.AperFunction,Conductor*%
G36*
X212607708Y-102820185D02*
G01*
X212653463Y-102872989D01*
X212663407Y-102942147D01*
X212634382Y-103005703D01*
X212575604Y-103043477D01*
X212553925Y-103047789D01*
X212529627Y-103050401D01*
X212529620Y-103050403D01*
X212394913Y-103100645D01*
X212394906Y-103100649D01*
X212279812Y-103186809D01*
X212279809Y-103186812D01*
X212193649Y-103301906D01*
X212193645Y-103301913D01*
X212143403Y-103436620D01*
X212143401Y-103436627D01*
X212137000Y-103496155D01*
X212137000Y-104144000D01*
X213053988Y-104144000D01*
X213021075Y-104201007D01*
X212987000Y-104328174D01*
X212987000Y-104459826D01*
X213021075Y-104586993D01*
X213053988Y-104644000D01*
X212137000Y-104644000D01*
X212137000Y-105291844D01*
X212143401Y-105351372D01*
X212143403Y-105351379D01*
X212193645Y-105486086D01*
X212193649Y-105486093D01*
X212279809Y-105601187D01*
X212279812Y-105601190D01*
X212394906Y-105687350D01*
X212394913Y-105687354D01*
X212529620Y-105737596D01*
X212529627Y-105737598D01*
X212589155Y-105743999D01*
X212589172Y-105744000D01*
X213237000Y-105744000D01*
X213237000Y-104827012D01*
X213294007Y-104859925D01*
X213421174Y-104894000D01*
X213552826Y-104894000D01*
X213679993Y-104859925D01*
X213737000Y-104827012D01*
X213737000Y-105744000D01*
X214384828Y-105744000D01*
X214384844Y-105743999D01*
X214444372Y-105737598D01*
X214444379Y-105737596D01*
X214579086Y-105687354D01*
X214579093Y-105687350D01*
X214694187Y-105601190D01*
X214694190Y-105601187D01*
X214780350Y-105486093D01*
X214780354Y-105486086D01*
X214830596Y-105351379D01*
X214830598Y-105351372D01*
X214836999Y-105291844D01*
X214837000Y-105291827D01*
X214837000Y-105000312D01*
X214856685Y-104933273D01*
X214909489Y-104887518D01*
X214978647Y-104877574D01*
X215042203Y-104906599D01*
X215072000Y-104945041D01*
X215087325Y-104975819D01*
X215210237Y-105138581D01*
X215360958Y-105275980D01*
X215360960Y-105275982D01*
X215429449Y-105318388D01*
X215534363Y-105383348D01*
X215534368Y-105383349D01*
X215534370Y-105383351D01*
X215564801Y-105395139D01*
X215597292Y-105407726D01*
X215652694Y-105450298D01*
X215676286Y-105516064D01*
X215676500Y-105523353D01*
X215676500Y-107134963D01*
X215656815Y-107202002D01*
X215646214Y-107216164D01*
X215601625Y-107267623D01*
X215601622Y-107267628D01*
X215541834Y-107398543D01*
X215521353Y-107541000D01*
X215541834Y-107683456D01*
X215600624Y-107812185D01*
X215601623Y-107814373D01*
X215695872Y-107923143D01*
X215816947Y-108000953D01*
X215816950Y-108000954D01*
X215816949Y-108000954D01*
X215955036Y-108041499D01*
X215955038Y-108041500D01*
X215955039Y-108041500D01*
X216098962Y-108041500D01*
X216098962Y-108041499D01*
X216237053Y-108000953D01*
X216358128Y-107923143D01*
X216452377Y-107814373D01*
X216512165Y-107683457D01*
X216532647Y-107541000D01*
X216512165Y-107398543D01*
X216452377Y-107267627D01*
X216452374Y-107267623D01*
X216407786Y-107216164D01*
X216378762Y-107152608D01*
X216377500Y-107134963D01*
X216377500Y-105878711D01*
X243649500Y-105878711D01*
X243649500Y-106121288D01*
X243681161Y-106361785D01*
X243743947Y-106596104D01*
X243770674Y-106660628D01*
X243836776Y-106820212D01*
X243958064Y-107030289D01*
X243958066Y-107030292D01*
X243958067Y-107030293D01*
X244105733Y-107222736D01*
X244105739Y-107222743D01*
X244277256Y-107394260D01*
X244277263Y-107394266D01*
X244353566Y-107452815D01*
X244469711Y-107541936D01*
X244679788Y-107663224D01*
X244903900Y-107756054D01*
X245138211Y-107818838D01*
X245318586Y-107842584D01*
X245378711Y-107850500D01*
X245378712Y-107850500D01*
X245621289Y-107850500D01*
X245669388Y-107844167D01*
X245861789Y-107818838D01*
X246096100Y-107756054D01*
X246320212Y-107663224D01*
X246530289Y-107541936D01*
X246722738Y-107394265D01*
X246894265Y-107222738D01*
X247041936Y-107030289D01*
X247163224Y-106820212D01*
X247256054Y-106596100D01*
X247318838Y-106361789D01*
X247350500Y-106121288D01*
X247350500Y-105878712D01*
X247318838Y-105638211D01*
X247256054Y-105403900D01*
X247163224Y-105179788D01*
X247041936Y-104969711D01*
X246957694Y-104859925D01*
X246894266Y-104777263D01*
X246894260Y-104777256D01*
X246722743Y-104605739D01*
X246722736Y-104605733D01*
X246530293Y-104458067D01*
X246530292Y-104458066D01*
X246530289Y-104458064D01*
X246320212Y-104336776D01*
X246299445Y-104328174D01*
X246096104Y-104243947D01*
X245861785Y-104181161D01*
X245621289Y-104149500D01*
X245621288Y-104149500D01*
X245378712Y-104149500D01*
X245378711Y-104149500D01*
X245138214Y-104181161D01*
X244903895Y-104243947D01*
X244679794Y-104336773D01*
X244679785Y-104336777D01*
X244469706Y-104458067D01*
X244277263Y-104605733D01*
X244277256Y-104605739D01*
X244105739Y-104777256D01*
X244105733Y-104777263D01*
X243958067Y-104969706D01*
X243836777Y-105179785D01*
X243836773Y-105179794D01*
X243743947Y-105403895D01*
X243681161Y-105638214D01*
X243649500Y-105878711D01*
X216377500Y-105878711D01*
X216377500Y-105523353D01*
X216397185Y-105456314D01*
X216449989Y-105410559D01*
X216456699Y-105407729D01*
X216519637Y-105383348D01*
X216693041Y-105275981D01*
X216843764Y-105138579D01*
X216966673Y-104975821D01*
X217057582Y-104793250D01*
X217113397Y-104597083D01*
X217132215Y-104394000D01*
X217132215Y-104393999D01*
X217461785Y-104393999D01*
X217461785Y-104394000D01*
X217480602Y-104597082D01*
X217536417Y-104793247D01*
X217536422Y-104793260D01*
X217627327Y-104975821D01*
X217750237Y-105138581D01*
X217900958Y-105275980D01*
X217900960Y-105275982D01*
X217969449Y-105318388D01*
X218074363Y-105383348D01*
X218264544Y-105457024D01*
X218465024Y-105494500D01*
X218465026Y-105494500D01*
X218668974Y-105494500D01*
X218668976Y-105494500D01*
X218869456Y-105457024D01*
X219059637Y-105383348D01*
X219233041Y-105275981D01*
X219383764Y-105138579D01*
X219506673Y-104975821D01*
X219597582Y-104793250D01*
X219653397Y-104597083D01*
X219672215Y-104394000D01*
X219672215Y-104393999D01*
X220001785Y-104393999D01*
X220001785Y-104394000D01*
X220020602Y-104597082D01*
X220076417Y-104793247D01*
X220076422Y-104793260D01*
X220167327Y-104975821D01*
X220290237Y-105138581D01*
X220440958Y-105275980D01*
X220440960Y-105275982D01*
X220509449Y-105318388D01*
X220614363Y-105383348D01*
X220804544Y-105457024D01*
X221005024Y-105494500D01*
X221005026Y-105494500D01*
X221208974Y-105494500D01*
X221208976Y-105494500D01*
X221409456Y-105457024D01*
X221599637Y-105383348D01*
X221773041Y-105275981D01*
X221923764Y-105138579D01*
X222046673Y-104975821D01*
X222137582Y-104793250D01*
X222193397Y-104597083D01*
X222212215Y-104394000D01*
X222212215Y-104393999D01*
X222541785Y-104393999D01*
X222541785Y-104394000D01*
X222560602Y-104597082D01*
X222616417Y-104793247D01*
X222616422Y-104793260D01*
X222707327Y-104975821D01*
X222830237Y-105138581D01*
X222980958Y-105275980D01*
X222980960Y-105275982D01*
X223049449Y-105318388D01*
X223154363Y-105383348D01*
X223344544Y-105457024D01*
X223545024Y-105494500D01*
X223545026Y-105494500D01*
X223748974Y-105494500D01*
X223748976Y-105494500D01*
X223949456Y-105457024D01*
X224139637Y-105383348D01*
X224313041Y-105275981D01*
X224463764Y-105138579D01*
X224586673Y-104975821D01*
X224677582Y-104793250D01*
X224733397Y-104597083D01*
X224752215Y-104394000D01*
X224752215Y-104393999D01*
X225081785Y-104393999D01*
X225081785Y-104394000D01*
X225100602Y-104597082D01*
X225156417Y-104793247D01*
X225156422Y-104793260D01*
X225247327Y-104975821D01*
X225370237Y-105138581D01*
X225520958Y-105275980D01*
X225520960Y-105275982D01*
X225589449Y-105318388D01*
X225694363Y-105383348D01*
X225884544Y-105457024D01*
X226085024Y-105494500D01*
X226085026Y-105494500D01*
X226288974Y-105494500D01*
X226288976Y-105494500D01*
X226489456Y-105457024D01*
X226679637Y-105383348D01*
X226853041Y-105275981D01*
X227003764Y-105138579D01*
X227126673Y-104975821D01*
X227217582Y-104793250D01*
X227273397Y-104597083D01*
X227292215Y-104394000D01*
X227286115Y-104328174D01*
X227273397Y-104190917D01*
X227260048Y-104144000D01*
X227217582Y-103994750D01*
X227217159Y-103993901D01*
X227138225Y-103835379D01*
X227126673Y-103812179D01*
X227003764Y-103649421D01*
X227003762Y-103649418D01*
X226853041Y-103512019D01*
X226853039Y-103512017D01*
X226679642Y-103404655D01*
X226679635Y-103404651D01*
X226584546Y-103367814D01*
X226489456Y-103330976D01*
X226288976Y-103293500D01*
X226085024Y-103293500D01*
X225884544Y-103330976D01*
X225884541Y-103330976D01*
X225884541Y-103330977D01*
X225694364Y-103404651D01*
X225694357Y-103404655D01*
X225520960Y-103512017D01*
X225520958Y-103512019D01*
X225370237Y-103649418D01*
X225247327Y-103812178D01*
X225156422Y-103994739D01*
X225156417Y-103994752D01*
X225100602Y-104190917D01*
X225081785Y-104393999D01*
X224752215Y-104393999D01*
X224746115Y-104328174D01*
X224733397Y-104190917D01*
X224720048Y-104144000D01*
X224677582Y-103994750D01*
X224677159Y-103993901D01*
X224598225Y-103835379D01*
X224586673Y-103812179D01*
X224463764Y-103649421D01*
X224463762Y-103649418D01*
X224313041Y-103512019D01*
X224313039Y-103512017D01*
X224139642Y-103404655D01*
X224139635Y-103404651D01*
X224044546Y-103367814D01*
X223949456Y-103330976D01*
X223748976Y-103293500D01*
X223545024Y-103293500D01*
X223344544Y-103330976D01*
X223344541Y-103330976D01*
X223344541Y-103330977D01*
X223154364Y-103404651D01*
X223154357Y-103404655D01*
X222980960Y-103512017D01*
X222980958Y-103512019D01*
X222830237Y-103649418D01*
X222707327Y-103812178D01*
X222616422Y-103994739D01*
X222616417Y-103994752D01*
X222560602Y-104190917D01*
X222541785Y-104393999D01*
X222212215Y-104393999D01*
X222206115Y-104328174D01*
X222193397Y-104190917D01*
X222180048Y-104144000D01*
X222137582Y-103994750D01*
X222137159Y-103993901D01*
X222058225Y-103835379D01*
X222046673Y-103812179D01*
X221923764Y-103649421D01*
X221923762Y-103649418D01*
X221773041Y-103512019D01*
X221773039Y-103512017D01*
X221599642Y-103404655D01*
X221599635Y-103404651D01*
X221504546Y-103367814D01*
X221409456Y-103330976D01*
X221208976Y-103293500D01*
X221005024Y-103293500D01*
X220804544Y-103330976D01*
X220804541Y-103330976D01*
X220804541Y-103330977D01*
X220614364Y-103404651D01*
X220614357Y-103404655D01*
X220440960Y-103512017D01*
X220440958Y-103512019D01*
X220290237Y-103649418D01*
X220167327Y-103812178D01*
X220076422Y-103994739D01*
X220076417Y-103994752D01*
X220020602Y-104190917D01*
X220001785Y-104393999D01*
X219672215Y-104393999D01*
X219666115Y-104328174D01*
X219653397Y-104190917D01*
X219640048Y-104144000D01*
X219597582Y-103994750D01*
X219597159Y-103993901D01*
X219518225Y-103835379D01*
X219506673Y-103812179D01*
X219383764Y-103649421D01*
X219383762Y-103649418D01*
X219233041Y-103512019D01*
X219233039Y-103512017D01*
X219059642Y-103404655D01*
X219059635Y-103404651D01*
X218964546Y-103367814D01*
X218869456Y-103330976D01*
X218668976Y-103293500D01*
X218465024Y-103293500D01*
X218264544Y-103330976D01*
X218264541Y-103330976D01*
X218264541Y-103330977D01*
X218074364Y-103404651D01*
X218074357Y-103404655D01*
X217900960Y-103512017D01*
X217900958Y-103512019D01*
X217750237Y-103649418D01*
X217627327Y-103812178D01*
X217536422Y-103994739D01*
X217536417Y-103994752D01*
X217480602Y-104190917D01*
X217461785Y-104393999D01*
X217132215Y-104393999D01*
X217126115Y-104328174D01*
X217113397Y-104190917D01*
X217100048Y-104144000D01*
X217057582Y-103994750D01*
X217057159Y-103993901D01*
X216978225Y-103835379D01*
X216966673Y-103812179D01*
X216843764Y-103649421D01*
X216843762Y-103649418D01*
X216693041Y-103512019D01*
X216693039Y-103512017D01*
X216519642Y-103404655D01*
X216519635Y-103404651D01*
X216424546Y-103367814D01*
X216329456Y-103330976D01*
X216128976Y-103293500D01*
X215925024Y-103293500D01*
X215724544Y-103330976D01*
X215724541Y-103330976D01*
X215724541Y-103330977D01*
X215534364Y-103404651D01*
X215534357Y-103404655D01*
X215360960Y-103512017D01*
X215360958Y-103512019D01*
X215210237Y-103649418D01*
X215087328Y-103812176D01*
X215072000Y-103842960D01*
X215024496Y-103894196D01*
X214956833Y-103911617D01*
X214890493Y-103889691D01*
X214846538Y-103835379D01*
X214837000Y-103787687D01*
X214837000Y-103496172D01*
X214836999Y-103496155D01*
X214830598Y-103436627D01*
X214830596Y-103436620D01*
X214780354Y-103301913D01*
X214780350Y-103301906D01*
X214694190Y-103186812D01*
X214694187Y-103186809D01*
X214579093Y-103100649D01*
X214579086Y-103100645D01*
X214444379Y-103050403D01*
X214444372Y-103050401D01*
X214420075Y-103047789D01*
X214355524Y-103021051D01*
X214315676Y-102963658D01*
X214313183Y-102893833D01*
X214348836Y-102833744D01*
X214411316Y-102802470D01*
X214433331Y-102800500D01*
X248575500Y-102800500D01*
X248642539Y-102820185D01*
X248688294Y-102872989D01*
X248699500Y-102924500D01*
X248699500Y-160575500D01*
X248679815Y-160642539D01*
X248627011Y-160688294D01*
X248575500Y-160699500D01*
X171424500Y-160699500D01*
X171357461Y-160679815D01*
X171311706Y-160627011D01*
X171300500Y-160575500D01*
X171300500Y-159704000D01*
X230380353Y-159704000D01*
X230400834Y-159846456D01*
X230460622Y-159977371D01*
X230460623Y-159977373D01*
X230554872Y-160086143D01*
X230675947Y-160163953D01*
X230675950Y-160163954D01*
X230675949Y-160163954D01*
X230814036Y-160204499D01*
X230814038Y-160204500D01*
X230814039Y-160204500D01*
X230957962Y-160204500D01*
X230957962Y-160204499D01*
X231096053Y-160163953D01*
X231217128Y-160086143D01*
X231311377Y-159977373D01*
X231371165Y-159846457D01*
X231387447Y-159733208D01*
X231416470Y-159669656D01*
X231422488Y-159663192D01*
X231801470Y-159284212D01*
X231847614Y-159204288D01*
X231871500Y-159115143D01*
X231871500Y-159022856D01*
X231871500Y-158710035D01*
X231891185Y-158642996D01*
X231901782Y-158628837D01*
X231946377Y-158577373D01*
X232006165Y-158446457D01*
X232026647Y-158304000D01*
X232006165Y-158161543D01*
X231946377Y-158030627D01*
X231852128Y-157921857D01*
X231731053Y-157844047D01*
X231731051Y-157844046D01*
X231731049Y-157844045D01*
X231731050Y-157844045D01*
X231592963Y-157803500D01*
X231592961Y-157803500D01*
X231449039Y-157803500D01*
X231449036Y-157803500D01*
X231310949Y-157844045D01*
X231189873Y-157921856D01*
X231095623Y-158030626D01*
X231095622Y-158030628D01*
X231035834Y-158161543D01*
X231015353Y-158304000D01*
X231035834Y-158446456D01*
X231074120Y-158530289D01*
X231095623Y-158577373D01*
X231140213Y-158628833D01*
X231169238Y-158692388D01*
X231170500Y-158710035D01*
X231170500Y-158872456D01*
X231150815Y-158939495D01*
X231134181Y-158960137D01*
X230927137Y-159167181D01*
X230865814Y-159200666D01*
X230839456Y-159203500D01*
X230814036Y-159203500D01*
X230675949Y-159244045D01*
X230554873Y-159321856D01*
X230460623Y-159430626D01*
X230460622Y-159430628D01*
X230400834Y-159561543D01*
X230380353Y-159704000D01*
X171300500Y-159704000D01*
X171300500Y-157378711D01*
X172649500Y-157378711D01*
X172649500Y-157621288D01*
X172681161Y-157861785D01*
X172743947Y-158096104D01*
X172810782Y-158257457D01*
X172836776Y-158320212D01*
X172958064Y-158530289D01*
X172958066Y-158530292D01*
X172958067Y-158530293D01*
X173105733Y-158722736D01*
X173105739Y-158722743D01*
X173277256Y-158894260D01*
X173277262Y-158894265D01*
X173469711Y-159041936D01*
X173679788Y-159163224D01*
X173903900Y-159256054D01*
X174138211Y-159318838D01*
X174318586Y-159342584D01*
X174378711Y-159350500D01*
X174378712Y-159350500D01*
X174621289Y-159350500D01*
X174669388Y-159344167D01*
X174861789Y-159318838D01*
X175096100Y-159256054D01*
X175320212Y-159163224D01*
X175530289Y-159041936D01*
X175722738Y-158894265D01*
X175894265Y-158722738D01*
X176041936Y-158530289D01*
X176163224Y-158320212D01*
X176201016Y-158228975D01*
X226202378Y-158228975D01*
X226222859Y-158371431D01*
X226257123Y-158446457D01*
X226282648Y-158502348D01*
X226376897Y-158611118D01*
X226497972Y-158688928D01*
X226497975Y-158688929D01*
X226497974Y-158688929D01*
X226636061Y-158729474D01*
X226636063Y-158729475D01*
X226636064Y-158729475D01*
X226779987Y-158729475D01*
X226779987Y-158729474D01*
X226918078Y-158688928D01*
X227039153Y-158611118D01*
X227128247Y-158508296D01*
X227187025Y-158470523D01*
X227221960Y-158465500D01*
X228313105Y-158465500D01*
X228380144Y-158485185D01*
X228394312Y-158495790D01*
X228395866Y-158497137D01*
X228395872Y-158497143D01*
X228516947Y-158574953D01*
X228516950Y-158574954D01*
X228516949Y-158574954D01*
X228655036Y-158615499D01*
X228655038Y-158615500D01*
X228655039Y-158615500D01*
X228798962Y-158615500D01*
X228798962Y-158615499D01*
X228937053Y-158574953D01*
X229058128Y-158497143D01*
X229152377Y-158388373D01*
X229212165Y-158257457D01*
X229232647Y-158115000D01*
X229212165Y-157972543D01*
X229152377Y-157841627D01*
X229058128Y-157732857D01*
X228937053Y-157655047D01*
X228937051Y-157655046D01*
X228937049Y-157655045D01*
X228937050Y-157655045D01*
X228798963Y-157614500D01*
X228798961Y-157614500D01*
X228655039Y-157614500D01*
X228655036Y-157614500D01*
X228516949Y-157655045D01*
X228395876Y-157732854D01*
X228395874Y-157732855D01*
X228395872Y-157732857D01*
X228395870Y-157732858D01*
X228394312Y-157734210D01*
X228392427Y-157735070D01*
X228388411Y-157737652D01*
X228388039Y-157737074D01*
X228330757Y-157763237D01*
X228313105Y-157764500D01*
X226920505Y-157764500D01*
X226885570Y-157759477D01*
X226779987Y-157728475D01*
X226779986Y-157728475D01*
X226636064Y-157728475D01*
X226636061Y-157728475D01*
X226497974Y-157769020D01*
X226376898Y-157846831D01*
X226282648Y-157955601D01*
X226282647Y-157955603D01*
X226222859Y-158086518D01*
X226202378Y-158228975D01*
X176201016Y-158228975D01*
X176256054Y-158096100D01*
X176318838Y-157861789D01*
X176350500Y-157621288D01*
X176350500Y-157378712D01*
X176350500Y-157378711D01*
X243649500Y-157378711D01*
X243649500Y-157621288D01*
X243681161Y-157861785D01*
X243743947Y-158096104D01*
X243810782Y-158257457D01*
X243836776Y-158320212D01*
X243958064Y-158530289D01*
X243958066Y-158530292D01*
X243958067Y-158530293D01*
X244105733Y-158722736D01*
X244105739Y-158722743D01*
X244277256Y-158894260D01*
X244277262Y-158894265D01*
X244469711Y-159041936D01*
X244679788Y-159163224D01*
X244903900Y-159256054D01*
X245138211Y-159318838D01*
X245318586Y-159342584D01*
X245378711Y-159350500D01*
X245378712Y-159350500D01*
X245621289Y-159350500D01*
X245669388Y-159344167D01*
X245861789Y-159318838D01*
X246096100Y-159256054D01*
X246320212Y-159163224D01*
X246530289Y-159041936D01*
X246722738Y-158894265D01*
X246894265Y-158722738D01*
X247041936Y-158530289D01*
X247163224Y-158320212D01*
X247256054Y-158096100D01*
X247318838Y-157861789D01*
X247350500Y-157621288D01*
X247350500Y-157378712D01*
X247318838Y-157138211D01*
X247256054Y-156903900D01*
X247163224Y-156679788D01*
X247041936Y-156469711D01*
X246907818Y-156294925D01*
X246894266Y-156277263D01*
X246894260Y-156277256D01*
X246722743Y-156105739D01*
X246722736Y-156105733D01*
X246530293Y-155958067D01*
X246530292Y-155958066D01*
X246530289Y-155958064D01*
X246320212Y-155836776D01*
X246320205Y-155836773D01*
X246096104Y-155743947D01*
X245861785Y-155681161D01*
X245621289Y-155649500D01*
X245621288Y-155649500D01*
X245378712Y-155649500D01*
X245378711Y-155649500D01*
X245138214Y-155681161D01*
X244903895Y-155743947D01*
X244679794Y-155836773D01*
X244679785Y-155836777D01*
X244469706Y-155958067D01*
X244277263Y-156105733D01*
X244277256Y-156105739D01*
X244105739Y-156277256D01*
X244105733Y-156277263D01*
X243958067Y-156469706D01*
X243836777Y-156679785D01*
X243836773Y-156679794D01*
X243743947Y-156903895D01*
X243681161Y-157138214D01*
X243649500Y-157378711D01*
X176350500Y-157378711D01*
X176318838Y-157138211D01*
X176256054Y-156903900D01*
X176163224Y-156679788D01*
X176041936Y-156469711D01*
X175907818Y-156294925D01*
X175894266Y-156277263D01*
X175894260Y-156277256D01*
X175722743Y-156105739D01*
X175722736Y-156105733D01*
X175530293Y-155958067D01*
X175530292Y-155958066D01*
X175530289Y-155958064D01*
X175320212Y-155836776D01*
X175320205Y-155836773D01*
X175096104Y-155743947D01*
X174861785Y-155681161D01*
X174621289Y-155649500D01*
X174621288Y-155649500D01*
X174378712Y-155649500D01*
X174378711Y-155649500D01*
X174138214Y-155681161D01*
X173903895Y-155743947D01*
X173679794Y-155836773D01*
X173679785Y-155836777D01*
X173469706Y-155958067D01*
X173277263Y-156105733D01*
X173277256Y-156105739D01*
X173105739Y-156277256D01*
X173105733Y-156277263D01*
X172958067Y-156469706D01*
X172836777Y-156679785D01*
X172836773Y-156679794D01*
X172743947Y-156903895D01*
X172681161Y-157138214D01*
X172649500Y-157378711D01*
X171300500Y-157378711D01*
X171300500Y-155578999D01*
X187518364Y-155578999D01*
X187518364Y-155579000D01*
X188415988Y-155579000D01*
X188383075Y-155636007D01*
X188349000Y-155763174D01*
X188349000Y-155894826D01*
X188383075Y-156021993D01*
X188415988Y-156079000D01*
X187518364Y-156079000D01*
X187575567Y-156292486D01*
X187575570Y-156292492D01*
X187675399Y-156506578D01*
X187810894Y-156700082D01*
X187977917Y-156867105D01*
X188171421Y-157002600D01*
X188385507Y-157102429D01*
X188385516Y-157102433D01*
X188599000Y-157159634D01*
X188599000Y-156262012D01*
X188656007Y-156294925D01*
X188783174Y-156329000D01*
X188914826Y-156329000D01*
X189041993Y-156294925D01*
X189099000Y-156262012D01*
X189099000Y-157159633D01*
X189312483Y-157102433D01*
X189312492Y-157102429D01*
X189526578Y-157002600D01*
X189720082Y-156867105D01*
X189887105Y-156700082D01*
X190017425Y-156513968D01*
X190072002Y-156470344D01*
X190141501Y-156463151D01*
X190203855Y-156494673D01*
X190220575Y-156513968D01*
X190350894Y-156700082D01*
X190517917Y-156867105D01*
X190711421Y-157002600D01*
X190925507Y-157102429D01*
X190925516Y-157102433D01*
X191139000Y-157159634D01*
X191139000Y-156262012D01*
X191196007Y-156294925D01*
X191323174Y-156329000D01*
X191454826Y-156329000D01*
X191581993Y-156294925D01*
X191639000Y-156262012D01*
X191639000Y-157159633D01*
X191852483Y-157102433D01*
X191852492Y-157102429D01*
X192066578Y-157002600D01*
X192260082Y-156867105D01*
X192427105Y-156700082D01*
X192562600Y-156506578D01*
X192662429Y-156292492D01*
X192662432Y-156292486D01*
X192719636Y-156079000D01*
X191822012Y-156079000D01*
X191854925Y-156021993D01*
X191889000Y-155894826D01*
X191889000Y-155763174D01*
X191854925Y-155636007D01*
X191822012Y-155579000D01*
X192719636Y-155579000D01*
X192719635Y-155578999D01*
X192662432Y-155365513D01*
X192662429Y-155365507D01*
X192562600Y-155151422D01*
X192562599Y-155151420D01*
X192427113Y-154957926D01*
X192427108Y-154957920D01*
X192260082Y-154790894D01*
X192066578Y-154655399D01*
X191852492Y-154555570D01*
X191852477Y-154555564D01*
X191813414Y-154545097D01*
X191753754Y-154508732D01*
X191723226Y-154445885D01*
X191731521Y-154376509D01*
X191762492Y-154339000D01*
X194947353Y-154339000D01*
X194967834Y-154481456D01*
X195027622Y-154612371D01*
X195027623Y-154612373D01*
X195072213Y-154663833D01*
X195101238Y-154727388D01*
X195102500Y-154745035D01*
X195102500Y-155332963D01*
X195082815Y-155400002D01*
X195072214Y-155414164D01*
X195027625Y-155465623D01*
X195027622Y-155465628D01*
X194967834Y-155596543D01*
X194947353Y-155739000D01*
X194967834Y-155881456D01*
X195002822Y-155958067D01*
X195027623Y-156012373D01*
X195121872Y-156121143D01*
X195242947Y-156198953D01*
X195242950Y-156198954D01*
X195242949Y-156198954D01*
X195381036Y-156239499D01*
X195381038Y-156239500D01*
X195381039Y-156239500D01*
X195524962Y-156239500D01*
X195524962Y-156239499D01*
X195663053Y-156198953D01*
X195784128Y-156121143D01*
X195878377Y-156012373D01*
X195938165Y-155881457D01*
X195958647Y-155739000D01*
X195938165Y-155596543D01*
X195878377Y-155465627D01*
X195878374Y-155465623D01*
X195833786Y-155414164D01*
X195804762Y-155350608D01*
X195803500Y-155332963D01*
X195803500Y-154944879D01*
X195823185Y-154877840D01*
X195875989Y-154832085D01*
X195945147Y-154822141D01*
X195951692Y-154823262D01*
X196033323Y-154839500D01*
X196033326Y-154839500D01*
X198682676Y-154839500D01*
X198682677Y-154839499D01*
X198755740Y-154824966D01*
X198838601Y-154769601D01*
X198893966Y-154686740D01*
X198908500Y-154613674D01*
X198908500Y-153289000D01*
X200882706Y-153289000D01*
X200901853Y-153532297D01*
X200901853Y-153532300D01*
X200901854Y-153532302D01*
X200939294Y-153688250D01*
X200958830Y-153769619D01*
X201052222Y-153995089D01*
X201179737Y-154203173D01*
X201179738Y-154203176D01*
X201179741Y-154203179D01*
X201338241Y-154388759D01*
X201446777Y-154481457D01*
X201523823Y-154547261D01*
X201523825Y-154547261D01*
X201537375Y-154555565D01*
X201731910Y-154674777D01*
X201957381Y-154768169D01*
X201957378Y-154768169D01*
X201957384Y-154768170D01*
X201957388Y-154768172D01*
X202194698Y-154825146D01*
X202438000Y-154844294D01*
X202681302Y-154825146D01*
X202918612Y-154768172D01*
X203144089Y-154674777D01*
X203352179Y-154547259D01*
X203537759Y-154388759D01*
X203580257Y-154339000D01*
X204091353Y-154339000D01*
X204111834Y-154481456D01*
X204171622Y-154612371D01*
X204171623Y-154612373D01*
X204216213Y-154663833D01*
X204245238Y-154727388D01*
X204246500Y-154745035D01*
X204246500Y-155332963D01*
X204226815Y-155400002D01*
X204216214Y-155414164D01*
X204171625Y-155465623D01*
X204171622Y-155465628D01*
X204111834Y-155596543D01*
X204091353Y-155739000D01*
X204111834Y-155881456D01*
X204146822Y-155958067D01*
X204171623Y-156012373D01*
X204265872Y-156121143D01*
X204386947Y-156198953D01*
X204386950Y-156198954D01*
X204386949Y-156198954D01*
X204525036Y-156239499D01*
X204525038Y-156239500D01*
X204525039Y-156239500D01*
X204668962Y-156239500D01*
X204668962Y-156239499D01*
X204807053Y-156198953D01*
X204928128Y-156121143D01*
X205022377Y-156012373D01*
X205082165Y-155881457D01*
X205102647Y-155739000D01*
X205082165Y-155596543D01*
X205022377Y-155465627D01*
X205022374Y-155465623D01*
X204977786Y-155414164D01*
X204948762Y-155350608D01*
X204947500Y-155332963D01*
X204947500Y-154745035D01*
X204967185Y-154677996D01*
X204977782Y-154663837D01*
X205022377Y-154612373D01*
X205082165Y-154481457D01*
X205102647Y-154339000D01*
X205082165Y-154196543D01*
X205022377Y-154065627D01*
X204928128Y-153956857D01*
X204807053Y-153879047D01*
X204807051Y-153879046D01*
X204807049Y-153879045D01*
X204807050Y-153879045D01*
X204668963Y-153838500D01*
X204668961Y-153838500D01*
X204525039Y-153838500D01*
X204525036Y-153838500D01*
X204386949Y-153879045D01*
X204265873Y-153956856D01*
X204171623Y-154065626D01*
X204171622Y-154065628D01*
X204111834Y-154196543D01*
X204091353Y-154339000D01*
X203580257Y-154339000D01*
X203696259Y-154203179D01*
X203823777Y-153995089D01*
X203917172Y-153769612D01*
X203974146Y-153532302D01*
X203993294Y-153289000D01*
X205962706Y-153289000D01*
X205981853Y-153532297D01*
X205981853Y-153532300D01*
X205981854Y-153532302D01*
X206019294Y-153688250D01*
X206038830Y-153769619D01*
X206132222Y-153995089D01*
X206259737Y-154203173D01*
X206259738Y-154203176D01*
X206259741Y-154203179D01*
X206418241Y-154388759D01*
X206526777Y-154481457D01*
X206603823Y-154547261D01*
X206603825Y-154547261D01*
X206617375Y-154555565D01*
X206811910Y-154674777D01*
X207037381Y-154768169D01*
X207037378Y-154768169D01*
X207037384Y-154768170D01*
X207037388Y-154768172D01*
X207274698Y-154825146D01*
X207518000Y-154844294D01*
X207761302Y-154825146D01*
X207998612Y-154768172D01*
X208224089Y-154674777D01*
X208432179Y-154547259D01*
X208617759Y-154388759D01*
X208660257Y-154339000D01*
X209552353Y-154339000D01*
X209572834Y-154481456D01*
X209632622Y-154612371D01*
X209632623Y-154612373D01*
X209677213Y-154663833D01*
X209706238Y-154727388D01*
X209707500Y-154745035D01*
X209707500Y-155332963D01*
X209687815Y-155400002D01*
X209677214Y-155414164D01*
X209632625Y-155465623D01*
X209632622Y-155465628D01*
X209572834Y-155596543D01*
X209552353Y-155739000D01*
X209572834Y-155881456D01*
X209607822Y-155958067D01*
X209632623Y-156012373D01*
X209726872Y-156121143D01*
X209847947Y-156198953D01*
X209847950Y-156198954D01*
X209847949Y-156198954D01*
X209986036Y-156239499D01*
X209986038Y-156239500D01*
X209986039Y-156239500D01*
X210129962Y-156239500D01*
X210129962Y-156239499D01*
X210268053Y-156198953D01*
X210389128Y-156121143D01*
X210483377Y-156012373D01*
X210543165Y-155881457D01*
X210563647Y-155739000D01*
X210543165Y-155596543D01*
X210483377Y-155465627D01*
X210483374Y-155465623D01*
X210438786Y-155414164D01*
X210409762Y-155350608D01*
X210408500Y-155332963D01*
X210408500Y-154745035D01*
X210428185Y-154677996D01*
X210438782Y-154663837D01*
X210483377Y-154612373D01*
X210543165Y-154481457D01*
X210563647Y-154339000D01*
X210543165Y-154196543D01*
X210483377Y-154065627D01*
X210389128Y-153956857D01*
X210268053Y-153879047D01*
X210268051Y-153879046D01*
X210268049Y-153879045D01*
X210268050Y-153879045D01*
X210129963Y-153838500D01*
X210129961Y-153838500D01*
X209986039Y-153838500D01*
X209986036Y-153838500D01*
X209847949Y-153879045D01*
X209726873Y-153956856D01*
X209632623Y-154065626D01*
X209632622Y-154065628D01*
X209572834Y-154196543D01*
X209552353Y-154339000D01*
X208660257Y-154339000D01*
X208776259Y-154203179D01*
X208903777Y-153995089D01*
X208997172Y-153769612D01*
X209054146Y-153532302D01*
X209073294Y-153289000D01*
X209054146Y-153045698D01*
X208997172Y-152808388D01*
X208997169Y-152808380D01*
X208903777Y-152582910D01*
X208776262Y-152374826D01*
X208776261Y-152374823D01*
X208712061Y-152299655D01*
X208617759Y-152189241D01*
X208495063Y-152084449D01*
X208432176Y-152030738D01*
X208432173Y-152030737D01*
X208323793Y-151964321D01*
X211047500Y-151964321D01*
X211047500Y-154613678D01*
X211062032Y-154686735D01*
X211062033Y-154686739D01*
X211062034Y-154686740D01*
X211117399Y-154769601D01*
X211171127Y-154805500D01*
X211200260Y-154824966D01*
X211200264Y-154824967D01*
X211273321Y-154839499D01*
X211273324Y-154839500D01*
X211273326Y-154839500D01*
X213922676Y-154839500D01*
X213922677Y-154839499D01*
X213995740Y-154824966D01*
X214078601Y-154769601D01*
X214133966Y-154686740D01*
X214133966Y-154686738D01*
X214138640Y-154675456D01*
X214140310Y-154676147D01*
X214165851Y-154627310D01*
X214226564Y-154592730D01*
X214296334Y-154596464D01*
X214348803Y-154632200D01*
X214376212Y-154663832D01*
X214405238Y-154727387D01*
X214406500Y-154745035D01*
X214406500Y-155332963D01*
X214386815Y-155400002D01*
X214376214Y-155414164D01*
X214331625Y-155465623D01*
X214331622Y-155465628D01*
X214271834Y-155596543D01*
X214251353Y-155739000D01*
X214271834Y-155881456D01*
X214306822Y-155958067D01*
X214331623Y-156012373D01*
X214425872Y-156121143D01*
X214546947Y-156198953D01*
X214546950Y-156198954D01*
X214546949Y-156198954D01*
X214685036Y-156239499D01*
X214685038Y-156239500D01*
X214685039Y-156239500D01*
X214828962Y-156239500D01*
X214828962Y-156239499D01*
X214967053Y-156198953D01*
X215088128Y-156121143D01*
X215182377Y-156012373D01*
X215242165Y-155881457D01*
X215262647Y-155739000D01*
X215242165Y-155596543D01*
X215234153Y-155578999D01*
X227396364Y-155578999D01*
X227396364Y-155579000D01*
X228293988Y-155579000D01*
X228261075Y-155636007D01*
X228227000Y-155763174D01*
X228227000Y-155894826D01*
X228261075Y-156021993D01*
X228293988Y-156079000D01*
X227396364Y-156079000D01*
X227453567Y-156292486D01*
X227453570Y-156292492D01*
X227553399Y-156506578D01*
X227688894Y-156700082D01*
X227855917Y-156867105D01*
X228049421Y-157002600D01*
X228263507Y-157102429D01*
X228263516Y-157102433D01*
X228477000Y-157159634D01*
X228477000Y-156262012D01*
X228534007Y-156294925D01*
X228661174Y-156329000D01*
X228792826Y-156329000D01*
X228919993Y-156294925D01*
X228977000Y-156262012D01*
X228977000Y-157159633D01*
X229190483Y-157102433D01*
X229190492Y-157102429D01*
X229404578Y-157002600D01*
X229598082Y-156867105D01*
X229765105Y-156700082D01*
X229895425Y-156513968D01*
X229950002Y-156470344D01*
X230019501Y-156463151D01*
X230081855Y-156494673D01*
X230098575Y-156513968D01*
X230228894Y-156700082D01*
X230395917Y-156867105D01*
X230589421Y-157002600D01*
X230803507Y-157102429D01*
X230803516Y-157102433D01*
X231017000Y-157159634D01*
X231017000Y-156262012D01*
X231074007Y-156294925D01*
X231201174Y-156329000D01*
X231332826Y-156329000D01*
X231459993Y-156294925D01*
X231517000Y-156262012D01*
X231517000Y-157159633D01*
X231730483Y-157102433D01*
X231730492Y-157102429D01*
X231944578Y-157002600D01*
X232138082Y-156867105D01*
X232305105Y-156700082D01*
X232440600Y-156506578D01*
X232540429Y-156292492D01*
X232540432Y-156292486D01*
X232597636Y-156079000D01*
X231700012Y-156079000D01*
X231732925Y-156021993D01*
X231767000Y-155894826D01*
X231767000Y-155763174D01*
X231732925Y-155636007D01*
X231700012Y-155579000D01*
X232597636Y-155579000D01*
X232597635Y-155578999D01*
X232540432Y-155365513D01*
X232540429Y-155365507D01*
X232440600Y-155151422D01*
X232440599Y-155151420D01*
X232305113Y-154957926D01*
X232305108Y-154957920D01*
X232138082Y-154790894D01*
X231944578Y-154655399D01*
X231730492Y-154555570D01*
X231730477Y-154555564D01*
X231691414Y-154545097D01*
X231631754Y-154508732D01*
X231601226Y-154445885D01*
X231609521Y-154376509D01*
X231654007Y-154322632D01*
X231678710Y-154309698D01*
X231759637Y-154278348D01*
X231933041Y-154170981D01*
X232083764Y-154033579D01*
X232206673Y-153870821D01*
X232297582Y-153688250D01*
X232353397Y-153492083D01*
X232372215Y-153289000D01*
X232353397Y-153085917D01*
X232297582Y-152889750D01*
X232206673Y-152707179D01*
X232083764Y-152544421D01*
X232083762Y-152544418D01*
X231933041Y-152407019D01*
X231933039Y-152407017D01*
X231759642Y-152299655D01*
X231759635Y-152299651D01*
X231664546Y-152262814D01*
X231569456Y-152225976D01*
X231368976Y-152188500D01*
X231165024Y-152188500D01*
X230964544Y-152225976D01*
X230964541Y-152225976D01*
X230964541Y-152225977D01*
X230774364Y-152299651D01*
X230774357Y-152299655D01*
X230600960Y-152407017D01*
X230600958Y-152407019D01*
X230450237Y-152544418D01*
X230327327Y-152707178D01*
X230236422Y-152889739D01*
X230236417Y-152889752D01*
X230180602Y-153085917D01*
X230161785Y-153288999D01*
X230161785Y-153289000D01*
X230180602Y-153492082D01*
X230236417Y-153688247D01*
X230236422Y-153688260D01*
X230327327Y-153870821D01*
X230450237Y-154033581D01*
X230600958Y-154170980D01*
X230600960Y-154170982D01*
X230700141Y-154232392D01*
X230774363Y-154278348D01*
X230855283Y-154309696D01*
X230910685Y-154352269D01*
X230934276Y-154418035D01*
X230918565Y-154486116D01*
X230868542Y-154534895D01*
X230842586Y-154545097D01*
X230803519Y-154555565D01*
X230803507Y-154555570D01*
X230589422Y-154655399D01*
X230589420Y-154655400D01*
X230395926Y-154790886D01*
X230395920Y-154790891D01*
X230228891Y-154957920D01*
X230228890Y-154957922D01*
X230098575Y-155144031D01*
X230043998Y-155187655D01*
X229974499Y-155194848D01*
X229912145Y-155163326D01*
X229895425Y-155144031D01*
X229765109Y-154957922D01*
X229765108Y-154957920D01*
X229598082Y-154790894D01*
X229404578Y-154655399D01*
X229190492Y-154555570D01*
X229190477Y-154555564D01*
X229151414Y-154545097D01*
X229091754Y-154508732D01*
X229061226Y-154445885D01*
X229069521Y-154376509D01*
X229114007Y-154322632D01*
X229138710Y-154309698D01*
X229219637Y-154278348D01*
X229393041Y-154170981D01*
X229543764Y-154033579D01*
X229666673Y-153870821D01*
X229757582Y-153688250D01*
X229813397Y-153492083D01*
X229832215Y-153289000D01*
X229813397Y-153085917D01*
X229757582Y-152889750D01*
X229666673Y-152707179D01*
X229543764Y-152544421D01*
X229543762Y-152544418D01*
X229393041Y-152407019D01*
X229393039Y-152407017D01*
X229219642Y-152299655D01*
X229219635Y-152299651D01*
X229124546Y-152262814D01*
X229029456Y-152225976D01*
X228828976Y-152188500D01*
X228625024Y-152188500D01*
X228424544Y-152225976D01*
X228424541Y-152225976D01*
X228424541Y-152225977D01*
X228234364Y-152299651D01*
X228234357Y-152299655D01*
X228060960Y-152407017D01*
X228060958Y-152407019D01*
X227910237Y-152544418D01*
X227787327Y-152707178D01*
X227696422Y-152889739D01*
X227696417Y-152889752D01*
X227640602Y-153085917D01*
X227621785Y-153288999D01*
X227621785Y-153289000D01*
X227640602Y-153492082D01*
X227696417Y-153688247D01*
X227696422Y-153688260D01*
X227787327Y-153870821D01*
X227910237Y-154033581D01*
X228060958Y-154170980D01*
X228060960Y-154170982D01*
X228160141Y-154232392D01*
X228234363Y-154278348D01*
X228315283Y-154309696D01*
X228370685Y-154352269D01*
X228394276Y-154418035D01*
X228378565Y-154486116D01*
X228328542Y-154534895D01*
X228302586Y-154545097D01*
X228263519Y-154555565D01*
X228263507Y-154555570D01*
X228049422Y-154655399D01*
X228049420Y-154655400D01*
X227855926Y-154790886D01*
X227855920Y-154790891D01*
X227688891Y-154957920D01*
X227688886Y-154957926D01*
X227553400Y-155151420D01*
X227553399Y-155151422D01*
X227453570Y-155365507D01*
X227453567Y-155365513D01*
X227396364Y-155578999D01*
X215234153Y-155578999D01*
X215182377Y-155465627D01*
X215182374Y-155465623D01*
X215137786Y-155414164D01*
X215108762Y-155350608D01*
X215107500Y-155332963D01*
X215107500Y-154745035D01*
X215127185Y-154677996D01*
X215137782Y-154663837D01*
X215182377Y-154612373D01*
X215242165Y-154481457D01*
X215262647Y-154339000D01*
X215242165Y-154196543D01*
X215182377Y-154065627D01*
X215088128Y-153956857D01*
X214967053Y-153879047D01*
X214967051Y-153879046D01*
X214967049Y-153879045D01*
X214967050Y-153879045D01*
X214828963Y-153838500D01*
X214828961Y-153838500D01*
X214685039Y-153838500D01*
X214685036Y-153838500D01*
X214546949Y-153879045D01*
X214425873Y-153956856D01*
X214366213Y-154025708D01*
X214307435Y-154063482D01*
X214237565Y-154063482D01*
X214178787Y-154025708D01*
X214149762Y-153962152D01*
X214148500Y-153944505D01*
X214148500Y-153289000D01*
X216122706Y-153289000D01*
X216141853Y-153532297D01*
X216141853Y-153532300D01*
X216141854Y-153532302D01*
X216179294Y-153688250D01*
X216198830Y-153769619D01*
X216292222Y-153995089D01*
X216419737Y-154203173D01*
X216419738Y-154203176D01*
X216419741Y-154203179D01*
X216578241Y-154388759D01*
X216686777Y-154481457D01*
X216763823Y-154547261D01*
X216763825Y-154547261D01*
X216777375Y-154555565D01*
X216971910Y-154674777D01*
X217197381Y-154768169D01*
X217197378Y-154768169D01*
X217197384Y-154768170D01*
X217197388Y-154768172D01*
X217434698Y-154825146D01*
X217678000Y-154844294D01*
X217921302Y-154825146D01*
X218158612Y-154768172D01*
X218384089Y-154674777D01*
X218592179Y-154547259D01*
X218777759Y-154388759D01*
X218936259Y-154203179D01*
X219063777Y-153995089D01*
X219157172Y-153769612D01*
X219214146Y-153532302D01*
X219233294Y-153289000D01*
X221202706Y-153289000D01*
X221221853Y-153532297D01*
X221221853Y-153532300D01*
X221221854Y-153532302D01*
X221259294Y-153688250D01*
X221278830Y-153769619D01*
X221372222Y-153995089D01*
X221499737Y-154203173D01*
X221499738Y-154203176D01*
X221499741Y-154203179D01*
X221658241Y-154388759D01*
X221766777Y-154481457D01*
X221843823Y-154547261D01*
X221843825Y-154547261D01*
X221857375Y-154555565D01*
X222051910Y-154674777D01*
X222277381Y-154768169D01*
X222277378Y-154768169D01*
X222277384Y-154768170D01*
X222277388Y-154768172D01*
X222514698Y-154825146D01*
X222758000Y-154844294D01*
X223001302Y-154825146D01*
X223238612Y-154768172D01*
X223464089Y-154674777D01*
X223672179Y-154547259D01*
X223857759Y-154388759D01*
X224016259Y-154203179D01*
X224143777Y-153995089D01*
X224237172Y-153769612D01*
X224294146Y-153532302D01*
X224313294Y-153289000D01*
X224294146Y-153045698D01*
X224237172Y-152808388D01*
X224237169Y-152808380D01*
X224143777Y-152582910D01*
X224016262Y-152374826D01*
X224016261Y-152374823D01*
X223952061Y-152299655D01*
X223857759Y-152189241D01*
X223735063Y-152084449D01*
X223672176Y-152030738D01*
X223672173Y-152030737D01*
X223464089Y-151903222D01*
X223238618Y-151809830D01*
X223238621Y-151809830D01*
X223112705Y-151779600D01*
X223001302Y-151752854D01*
X223001300Y-151752853D01*
X223001297Y-151752853D01*
X222758000Y-151733706D01*
X222514702Y-151752853D01*
X222513952Y-151753033D01*
X222279667Y-151809281D01*
X222277380Y-151809830D01*
X222051910Y-151903222D01*
X221843826Y-152030737D01*
X221843823Y-152030738D01*
X221658241Y-152189241D01*
X221499738Y-152374823D01*
X221499737Y-152374826D01*
X221372222Y-152582910D01*
X221278830Y-152808380D01*
X221221853Y-153045702D01*
X221202706Y-153289000D01*
X219233294Y-153289000D01*
X219214146Y-153045698D01*
X219157172Y-152808388D01*
X219157169Y-152808380D01*
X219063777Y-152582910D01*
X218936262Y-152374826D01*
X218936261Y-152374823D01*
X218872061Y-152299655D01*
X218777759Y-152189241D01*
X218655063Y-152084449D01*
X218592176Y-152030738D01*
X218592173Y-152030737D01*
X218384089Y-151903222D01*
X218158618Y-151809830D01*
X218158621Y-151809830D01*
X218032705Y-151779600D01*
X217921302Y-151752854D01*
X217921300Y-151752853D01*
X217921297Y-151752853D01*
X217678000Y-151733706D01*
X217434702Y-151752853D01*
X217433952Y-151753033D01*
X217199667Y-151809281D01*
X217197380Y-151809830D01*
X216971910Y-151903222D01*
X216763826Y-152030737D01*
X216763823Y-152030738D01*
X216578241Y-152189241D01*
X216419738Y-152374823D01*
X216419737Y-152374826D01*
X216292222Y-152582910D01*
X216198830Y-152808380D01*
X216141853Y-153045702D01*
X216122706Y-153289000D01*
X214148500Y-153289000D01*
X214148500Y-151964323D01*
X214148499Y-151964321D01*
X214133967Y-151891264D01*
X214133966Y-151891260D01*
X214106063Y-151849500D01*
X214078601Y-151808399D01*
X213995740Y-151753034D01*
X213995739Y-151753033D01*
X213995735Y-151753032D01*
X213922677Y-151738500D01*
X213922674Y-151738500D01*
X211273326Y-151738500D01*
X211273323Y-151738500D01*
X211200264Y-151753032D01*
X211200260Y-151753033D01*
X211117399Y-151808399D01*
X211062033Y-151891260D01*
X211062032Y-151891264D01*
X211047500Y-151964321D01*
X208323793Y-151964321D01*
X208224089Y-151903222D01*
X207998618Y-151809830D01*
X207998621Y-151809830D01*
X207872705Y-151779600D01*
X207761302Y-151752854D01*
X207761300Y-151752853D01*
X207761297Y-151752853D01*
X207518000Y-151733706D01*
X207274702Y-151752853D01*
X207273952Y-151753033D01*
X207039667Y-151809281D01*
X207037380Y-151809830D01*
X206811910Y-151903222D01*
X206603826Y-152030737D01*
X206603823Y-152030738D01*
X206418241Y-152189241D01*
X206259738Y-152374823D01*
X206259737Y-152374826D01*
X206132222Y-152582910D01*
X206038830Y-152808380D01*
X205981853Y-153045702D01*
X205962706Y-153289000D01*
X203993294Y-153289000D01*
X203974146Y-153045698D01*
X203917172Y-152808388D01*
X203917169Y-152808380D01*
X203823777Y-152582910D01*
X203696262Y-152374826D01*
X203696261Y-152374823D01*
X203632061Y-152299655D01*
X203537759Y-152189241D01*
X203415063Y-152084449D01*
X203352176Y-152030738D01*
X203352173Y-152030737D01*
X203144089Y-151903222D01*
X202918618Y-151809830D01*
X202918621Y-151809830D01*
X202792705Y-151779600D01*
X202681302Y-151752854D01*
X202681300Y-151752853D01*
X202681297Y-151752853D01*
X202438000Y-151733706D01*
X202194702Y-151752853D01*
X202193952Y-151753033D01*
X201959667Y-151809281D01*
X201957380Y-151809830D01*
X201731910Y-151903222D01*
X201523826Y-152030737D01*
X201523823Y-152030738D01*
X201338241Y-152189241D01*
X201179738Y-152374823D01*
X201179737Y-152374826D01*
X201052222Y-152582910D01*
X200958830Y-152808380D01*
X200901853Y-153045702D01*
X200882706Y-153289000D01*
X198908500Y-153289000D01*
X198908500Y-151964326D01*
X198908500Y-151964323D01*
X198908499Y-151964321D01*
X198893967Y-151891264D01*
X198893966Y-151891260D01*
X198866063Y-151849500D01*
X198838601Y-151808399D01*
X198755740Y-151753034D01*
X198755739Y-151753033D01*
X198755735Y-151753032D01*
X198682677Y-151738500D01*
X198682674Y-151738500D01*
X196033326Y-151738500D01*
X196033323Y-151738500D01*
X195960264Y-151753032D01*
X195960260Y-151753033D01*
X195877399Y-151808399D01*
X195822033Y-151891260D01*
X195822032Y-151891264D01*
X195807500Y-151964321D01*
X195807500Y-153755815D01*
X195787815Y-153822854D01*
X195735011Y-153868609D01*
X195665853Y-153878553D01*
X195648566Y-153874792D01*
X195524964Y-153838500D01*
X195524961Y-153838500D01*
X195381039Y-153838500D01*
X195381036Y-153838500D01*
X195242949Y-153879045D01*
X195121873Y-153956856D01*
X195027623Y-154065626D01*
X195027622Y-154065628D01*
X194967834Y-154196543D01*
X194947353Y-154339000D01*
X191762492Y-154339000D01*
X191776007Y-154322632D01*
X191800710Y-154309698D01*
X191881637Y-154278348D01*
X192055041Y-154170981D01*
X192205764Y-154033579D01*
X192328673Y-153870821D01*
X192419582Y-153688250D01*
X192475397Y-153492083D01*
X192494215Y-153289000D01*
X192475397Y-153085917D01*
X192419582Y-152889750D01*
X192328673Y-152707179D01*
X192205764Y-152544421D01*
X192205762Y-152544418D01*
X192055041Y-152407019D01*
X192055039Y-152407017D01*
X191881642Y-152299655D01*
X191881635Y-152299651D01*
X191786546Y-152262814D01*
X191691456Y-152225976D01*
X191490976Y-152188500D01*
X191287024Y-152188500D01*
X191086544Y-152225976D01*
X191086541Y-152225976D01*
X191086541Y-152225977D01*
X190896364Y-152299651D01*
X190896357Y-152299655D01*
X190722960Y-152407017D01*
X190722958Y-152407019D01*
X190572237Y-152544418D01*
X190449327Y-152707178D01*
X190358422Y-152889739D01*
X190358417Y-152889752D01*
X190302602Y-153085917D01*
X190283785Y-153288999D01*
X190283785Y-153289000D01*
X190302602Y-153492082D01*
X190358417Y-153688247D01*
X190358422Y-153688260D01*
X190449327Y-153870821D01*
X190572237Y-154033581D01*
X190722958Y-154170980D01*
X190722960Y-154170982D01*
X190822141Y-154232392D01*
X190896363Y-154278348D01*
X190977283Y-154309696D01*
X191032685Y-154352269D01*
X191056276Y-154418035D01*
X191040565Y-154486116D01*
X190990542Y-154534895D01*
X190964586Y-154545097D01*
X190925519Y-154555565D01*
X190925507Y-154555570D01*
X190711422Y-154655399D01*
X190711420Y-154655400D01*
X190517926Y-154790886D01*
X190517920Y-154790891D01*
X190350891Y-154957920D01*
X190350890Y-154957922D01*
X190220575Y-155144031D01*
X190165998Y-155187655D01*
X190096499Y-155194848D01*
X190034145Y-155163326D01*
X190017425Y-155144031D01*
X189887109Y-154957922D01*
X189887108Y-154957920D01*
X189720082Y-154790894D01*
X189526578Y-154655399D01*
X189312492Y-154555570D01*
X189312477Y-154555564D01*
X189273414Y-154545097D01*
X189213754Y-154508732D01*
X189183226Y-154445885D01*
X189191521Y-154376509D01*
X189236007Y-154322632D01*
X189260710Y-154309698D01*
X189341637Y-154278348D01*
X189515041Y-154170981D01*
X189665764Y-154033579D01*
X189788673Y-153870821D01*
X189879582Y-153688250D01*
X189935397Y-153492083D01*
X189954215Y-153289000D01*
X189935397Y-153085917D01*
X189879582Y-152889750D01*
X189788673Y-152707179D01*
X189665764Y-152544421D01*
X189665762Y-152544418D01*
X189515041Y-152407019D01*
X189515039Y-152407017D01*
X189341642Y-152299655D01*
X189341635Y-152299651D01*
X189246546Y-152262814D01*
X189151456Y-152225976D01*
X188950976Y-152188500D01*
X188747024Y-152188500D01*
X188546544Y-152225976D01*
X188546541Y-152225976D01*
X188546541Y-152225977D01*
X188356364Y-152299651D01*
X188356357Y-152299655D01*
X188182960Y-152407017D01*
X188182958Y-152407019D01*
X188032237Y-152544418D01*
X187909327Y-152707178D01*
X187818422Y-152889739D01*
X187818417Y-152889752D01*
X187762602Y-153085917D01*
X187743785Y-153288999D01*
X187743785Y-153289000D01*
X187762602Y-153492082D01*
X187818417Y-153688247D01*
X187818422Y-153688260D01*
X187909327Y-153870821D01*
X188032237Y-154033581D01*
X188182958Y-154170980D01*
X188182960Y-154170982D01*
X188282141Y-154232392D01*
X188356363Y-154278348D01*
X188437283Y-154309696D01*
X188492685Y-154352269D01*
X188516276Y-154418035D01*
X188500565Y-154486116D01*
X188450542Y-154534895D01*
X188424586Y-154545097D01*
X188385519Y-154555565D01*
X188385507Y-154555570D01*
X188171422Y-154655399D01*
X188171420Y-154655400D01*
X187977926Y-154790886D01*
X187977920Y-154790891D01*
X187810891Y-154957920D01*
X187810886Y-154957926D01*
X187675400Y-155151420D01*
X187675399Y-155151422D01*
X187575570Y-155365507D01*
X187575567Y-155365513D01*
X187518364Y-155578999D01*
X171300500Y-155578999D01*
X171300500Y-149874321D01*
X187748500Y-149874321D01*
X187748500Y-151623678D01*
X187763032Y-151696735D01*
X187763033Y-151696739D01*
X187763034Y-151696740D01*
X187818399Y-151779601D01*
X187901260Y-151834966D01*
X187901264Y-151834967D01*
X187974321Y-151849499D01*
X187974324Y-151849500D01*
X187974326Y-151849500D01*
X189723676Y-151849500D01*
X189723677Y-151849499D01*
X189796740Y-151834966D01*
X189879601Y-151779601D01*
X189934966Y-151696740D01*
X189949500Y-151623674D01*
X189949500Y-150748999D01*
X190283785Y-150748999D01*
X190283785Y-150749000D01*
X190302602Y-150952082D01*
X190358417Y-151148247D01*
X190358422Y-151148260D01*
X190449327Y-151330821D01*
X190572237Y-151493581D01*
X190722958Y-151630980D01*
X190722960Y-151630982D01*
X190772575Y-151661702D01*
X190896363Y-151738348D01*
X191086544Y-151812024D01*
X191287024Y-151849500D01*
X191287026Y-151849500D01*
X191490974Y-151849500D01*
X191490976Y-151849500D01*
X191691456Y-151812024D01*
X191881637Y-151738348D01*
X192055041Y-151630981D01*
X192205764Y-151493579D01*
X192328673Y-151330821D01*
X192419582Y-151148250D01*
X192475397Y-150952083D01*
X192494215Y-150749000D01*
X192475397Y-150545917D01*
X192419582Y-150349750D01*
X192416469Y-150343499D01*
X192363613Y-150237348D01*
X192328673Y-150167179D01*
X192205764Y-150004421D01*
X192205762Y-150004418D01*
X192055041Y-149867019D01*
X192055039Y-149867017D01*
X192043706Y-149860000D01*
X197694353Y-149860000D01*
X197714834Y-150002456D01*
X197766858Y-150116371D01*
X197774623Y-150133373D01*
X197868872Y-150242143D01*
X197989947Y-150319953D01*
X197989950Y-150319954D01*
X197989949Y-150319954D01*
X198128036Y-150360499D01*
X198128038Y-150360500D01*
X198128039Y-150360500D01*
X198271962Y-150360500D01*
X198271962Y-150360499D01*
X198410053Y-150319953D01*
X198531128Y-150242143D01*
X198531136Y-150242133D01*
X198532688Y-150240790D01*
X198534572Y-150239929D01*
X198538589Y-150237348D01*
X198538960Y-150237925D01*
X198596243Y-150211763D01*
X198613895Y-150210500D01*
X200777677Y-150210500D01*
X200844715Y-150230183D01*
X200957947Y-150302953D01*
X200957950Y-150302954D01*
X200957949Y-150302954D01*
X201096036Y-150343499D01*
X201096038Y-150343500D01*
X201096039Y-150343500D01*
X201239962Y-150343500D01*
X201239962Y-150343499D01*
X201378053Y-150302953D01*
X201499128Y-150225143D01*
X201593377Y-150116373D01*
X201653165Y-149985457D01*
X201673647Y-149843000D01*
X201653165Y-149700543D01*
X201593377Y-149569627D01*
X201514849Y-149479000D01*
X209806353Y-149479000D01*
X209826834Y-149621456D01*
X209886622Y-149752371D01*
X209886623Y-149752373D01*
X209980872Y-149861143D01*
X210101947Y-149938953D01*
X210101950Y-149938954D01*
X210101949Y-149938954D01*
X210240036Y-149979499D01*
X210240038Y-149979500D01*
X210240039Y-149979500D01*
X210383962Y-149979500D01*
X210383962Y-149979499D01*
X210522053Y-149938953D01*
X210622623Y-149874321D01*
X227626500Y-149874321D01*
X227626500Y-151623678D01*
X227641032Y-151696735D01*
X227641033Y-151696739D01*
X227641034Y-151696740D01*
X227696399Y-151779601D01*
X227779260Y-151834966D01*
X227779264Y-151834967D01*
X227852321Y-151849499D01*
X227852324Y-151849500D01*
X227852326Y-151849500D01*
X229601676Y-151849500D01*
X229601677Y-151849499D01*
X229674740Y-151834966D01*
X229757601Y-151779601D01*
X229812966Y-151696740D01*
X229827500Y-151623674D01*
X229827500Y-150748999D01*
X230161785Y-150748999D01*
X230161785Y-150749000D01*
X230180602Y-150952082D01*
X230236417Y-151148247D01*
X230236422Y-151148260D01*
X230327327Y-151330821D01*
X230450237Y-151493581D01*
X230600958Y-151630980D01*
X230600960Y-151630982D01*
X230650575Y-151661702D01*
X230774363Y-151738348D01*
X230964544Y-151812024D01*
X231165024Y-151849500D01*
X231165026Y-151849500D01*
X231368974Y-151849500D01*
X231368976Y-151849500D01*
X231569456Y-151812024D01*
X231759637Y-151738348D01*
X231933041Y-151630981D01*
X231971413Y-151596000D01*
X233047353Y-151596000D01*
X233067834Y-151738456D01*
X233111910Y-151834967D01*
X233127623Y-151869373D01*
X233172213Y-151920833D01*
X233201238Y-151984388D01*
X233202500Y-152002035D01*
X233202500Y-153781143D01*
X233224441Y-153863028D01*
X233224441Y-153863031D01*
X233224442Y-153863031D01*
X233224443Y-153863035D01*
X233225936Y-153868609D01*
X233226387Y-153870290D01*
X233272527Y-153950208D01*
X233277476Y-153956657D01*
X233275819Y-153957928D01*
X233303980Y-154009500D01*
X233305552Y-154018210D01*
X233321834Y-154131456D01*
X233381622Y-154262371D01*
X233381623Y-154262373D01*
X233475872Y-154371143D01*
X233596947Y-154448953D01*
X233596950Y-154448954D01*
X233596949Y-154448954D01*
X233735036Y-154489499D01*
X233735038Y-154489500D01*
X233735039Y-154489500D01*
X233878962Y-154489500D01*
X233878962Y-154489499D01*
X233918846Y-154477788D01*
X233973448Y-154461757D01*
X234043317Y-154461757D01*
X234102095Y-154499532D01*
X234121176Y-154529222D01*
X234129414Y-154547261D01*
X234143623Y-154578373D01*
X234237872Y-154687143D01*
X234358947Y-154764953D01*
X234358950Y-154764954D01*
X234358949Y-154764954D01*
X234497036Y-154805499D01*
X234497038Y-154805500D01*
X234497039Y-154805500D01*
X234640962Y-154805500D01*
X234640962Y-154805499D01*
X234779053Y-154764953D01*
X234900128Y-154687143D01*
X234994377Y-154578373D01*
X235054165Y-154447457D01*
X235074647Y-154305000D01*
X235054165Y-154162543D01*
X234994377Y-154031627D01*
X234994374Y-154031623D01*
X234949786Y-153980164D01*
X234920762Y-153916608D01*
X234919500Y-153898963D01*
X234919500Y-153628513D01*
X234939185Y-153561474D01*
X234991989Y-153515719D01*
X235061147Y-153505775D01*
X235124703Y-153534800D01*
X235162477Y-153593578D01*
X235162746Y-153594509D01*
X235172421Y-153628513D01*
X235189417Y-153688247D01*
X235189422Y-153688260D01*
X235280327Y-153870821D01*
X235403237Y-154033581D01*
X235553958Y-154170980D01*
X235553960Y-154170982D01*
X235653141Y-154232392D01*
X235727363Y-154278348D01*
X235808283Y-154309696D01*
X235863685Y-154352269D01*
X235887276Y-154418035D01*
X235871565Y-154486116D01*
X235821542Y-154534895D01*
X235795586Y-154545097D01*
X235756519Y-154555565D01*
X235756507Y-154555570D01*
X235542422Y-154655399D01*
X235542420Y-154655400D01*
X235348926Y-154790886D01*
X235348920Y-154790891D01*
X235181891Y-154957920D01*
X235181886Y-154957926D01*
X235046400Y-155151420D01*
X235046399Y-155151422D01*
X234946570Y-155365507D01*
X234946567Y-155365513D01*
X234889364Y-155578999D01*
X234889364Y-155579000D01*
X235786988Y-155579000D01*
X235754075Y-155636007D01*
X235720000Y-155763174D01*
X235720000Y-155894826D01*
X235754075Y-156021993D01*
X235786988Y-156079000D01*
X234889364Y-156079000D01*
X234946567Y-156292486D01*
X234946570Y-156292492D01*
X235046399Y-156506578D01*
X235181894Y-156700082D01*
X235348917Y-156867105D01*
X235542421Y-157002600D01*
X235756507Y-157102429D01*
X235756516Y-157102433D01*
X235970000Y-157159634D01*
X235970000Y-156262012D01*
X236027007Y-156294925D01*
X236154174Y-156329000D01*
X236285826Y-156329000D01*
X236412993Y-156294925D01*
X236470000Y-156262012D01*
X236470000Y-157159633D01*
X236683483Y-157102433D01*
X236683492Y-157102429D01*
X236897578Y-157002600D01*
X237091082Y-156867105D01*
X237258105Y-156700082D01*
X237388425Y-156513968D01*
X237443002Y-156470344D01*
X237512501Y-156463151D01*
X237574855Y-156494673D01*
X237591575Y-156513968D01*
X237721894Y-156700082D01*
X237888917Y-156867105D01*
X238082421Y-157002600D01*
X238296507Y-157102429D01*
X238296516Y-157102433D01*
X238510000Y-157159634D01*
X238510000Y-156262012D01*
X238567007Y-156294925D01*
X238694174Y-156329000D01*
X238825826Y-156329000D01*
X238952993Y-156294925D01*
X239010000Y-156262012D01*
X239010000Y-157159633D01*
X239223483Y-157102433D01*
X239223492Y-157102429D01*
X239437578Y-157002600D01*
X239631082Y-156867105D01*
X239798105Y-156700082D01*
X239933600Y-156506578D01*
X240033429Y-156292492D01*
X240033432Y-156292486D01*
X240090636Y-156079000D01*
X239193012Y-156079000D01*
X239225925Y-156021993D01*
X239260000Y-155894826D01*
X239260000Y-155763174D01*
X239225925Y-155636007D01*
X239193012Y-155579000D01*
X240090636Y-155579000D01*
X240090635Y-155578999D01*
X240033432Y-155365513D01*
X240033429Y-155365507D01*
X239933600Y-155151422D01*
X239933599Y-155151420D01*
X239798113Y-154957926D01*
X239798108Y-154957920D01*
X239631082Y-154790894D01*
X239437578Y-154655399D01*
X239223492Y-154555570D01*
X239223477Y-154555564D01*
X239184414Y-154545097D01*
X239124754Y-154508732D01*
X239094226Y-154445885D01*
X239102521Y-154376509D01*
X239147007Y-154322632D01*
X239171710Y-154309698D01*
X239252637Y-154278348D01*
X239426041Y-154170981D01*
X239576764Y-154033579D01*
X239699673Y-153870821D01*
X239790582Y-153688250D01*
X239846397Y-153492083D01*
X239865215Y-153289000D01*
X239846397Y-153085917D01*
X239790582Y-152889750D01*
X239699673Y-152707179D01*
X239576764Y-152544421D01*
X239576762Y-152544418D01*
X239426041Y-152407019D01*
X239426039Y-152407017D01*
X239252642Y-152299655D01*
X239252635Y-152299651D01*
X239157546Y-152262814D01*
X239062456Y-152225976D01*
X238861976Y-152188500D01*
X238658024Y-152188500D01*
X238457544Y-152225976D01*
X238457541Y-152225976D01*
X238457541Y-152225977D01*
X238267364Y-152299651D01*
X238267357Y-152299655D01*
X238093960Y-152407017D01*
X238093958Y-152407019D01*
X237943237Y-152544418D01*
X237820327Y-152707178D01*
X237729422Y-152889739D01*
X237729417Y-152889752D01*
X237673602Y-153085917D01*
X237654785Y-153288999D01*
X237654785Y-153289000D01*
X237673602Y-153492082D01*
X237729417Y-153688247D01*
X237729422Y-153688260D01*
X237820327Y-153870821D01*
X237943237Y-154033581D01*
X238093958Y-154170980D01*
X238093960Y-154170982D01*
X238193141Y-154232392D01*
X238267363Y-154278348D01*
X238348283Y-154309696D01*
X238403685Y-154352269D01*
X238427276Y-154418035D01*
X238411565Y-154486116D01*
X238361542Y-154534895D01*
X238335586Y-154545097D01*
X238296519Y-154555565D01*
X238296507Y-154555570D01*
X238082422Y-154655399D01*
X238082420Y-154655400D01*
X237888926Y-154790886D01*
X237888920Y-154790891D01*
X237721891Y-154957920D01*
X237721890Y-154957922D01*
X237591575Y-155144031D01*
X237536998Y-155187655D01*
X237467499Y-155194848D01*
X237405145Y-155163326D01*
X237388425Y-155144031D01*
X237258109Y-154957922D01*
X237258108Y-154957920D01*
X237091082Y-154790894D01*
X236897578Y-154655399D01*
X236683492Y-154555570D01*
X236683477Y-154555564D01*
X236644414Y-154545097D01*
X236584754Y-154508732D01*
X236554226Y-154445885D01*
X236562521Y-154376509D01*
X236607007Y-154322632D01*
X236631710Y-154309698D01*
X236712637Y-154278348D01*
X236886041Y-154170981D01*
X237036764Y-154033579D01*
X237159673Y-153870821D01*
X237250582Y-153688250D01*
X237306397Y-153492083D01*
X237325215Y-153289000D01*
X237306397Y-153085917D01*
X237250582Y-152889750D01*
X237159673Y-152707179D01*
X237036764Y-152544421D01*
X237036762Y-152544418D01*
X236886041Y-152407019D01*
X236886039Y-152407017D01*
X236712642Y-152299655D01*
X236712635Y-152299651D01*
X236617546Y-152262814D01*
X236522456Y-152225976D01*
X236321976Y-152188500D01*
X236118024Y-152188500D01*
X235917544Y-152225976D01*
X235917541Y-152225976D01*
X235917541Y-152225977D01*
X235727364Y-152299651D01*
X235727357Y-152299655D01*
X235553960Y-152407017D01*
X235553958Y-152407019D01*
X235403237Y-152544418D01*
X235280327Y-152707178D01*
X235189422Y-152889739D01*
X235189417Y-152889752D01*
X235162766Y-152983421D01*
X235125486Y-153042514D01*
X235062177Y-153072071D01*
X234992937Y-153062709D01*
X234939751Y-153017399D01*
X234919504Y-152950527D01*
X234919500Y-152949486D01*
X234919500Y-151784440D01*
X234939185Y-151717401D01*
X234991989Y-151671646D01*
X235061147Y-151661702D01*
X235124703Y-151690727D01*
X235146599Y-151715546D01*
X235189399Y-151779601D01*
X235272260Y-151834966D01*
X235272264Y-151834967D01*
X235345321Y-151849499D01*
X235345324Y-151849500D01*
X235345326Y-151849500D01*
X237094676Y-151849500D01*
X237094677Y-151849499D01*
X237167740Y-151834966D01*
X237250601Y-151779601D01*
X237305966Y-151696740D01*
X237320500Y-151623674D01*
X237320500Y-150748999D01*
X237654785Y-150748999D01*
X237654785Y-150749000D01*
X237673602Y-150952082D01*
X237729417Y-151148247D01*
X237729422Y-151148260D01*
X237820327Y-151330821D01*
X237943237Y-151493581D01*
X238093958Y-151630980D01*
X238093960Y-151630982D01*
X238143575Y-151661702D01*
X238267363Y-151738348D01*
X238457544Y-151812024D01*
X238658024Y-151849500D01*
X238658026Y-151849500D01*
X238861974Y-151849500D01*
X238861976Y-151849500D01*
X239062456Y-151812024D01*
X239252637Y-151738348D01*
X239426041Y-151630981D01*
X239576764Y-151493579D01*
X239699673Y-151330821D01*
X239790582Y-151148250D01*
X239846397Y-150952083D01*
X239865215Y-150749000D01*
X239846397Y-150545917D01*
X239790582Y-150349750D01*
X239787469Y-150343499D01*
X239734613Y-150237348D01*
X239699673Y-150167179D01*
X239576764Y-150004421D01*
X239576762Y-150004418D01*
X239426041Y-149867019D01*
X239426039Y-149867017D01*
X239252642Y-149759655D01*
X239252635Y-149759651D01*
X239100058Y-149700543D01*
X239062456Y-149685976D01*
X238861976Y-149648500D01*
X238658024Y-149648500D01*
X238457544Y-149685976D01*
X238457541Y-149685976D01*
X238457541Y-149685977D01*
X238267364Y-149759651D01*
X238267357Y-149759655D01*
X238093960Y-149867017D01*
X238093958Y-149867019D01*
X237943237Y-150004418D01*
X237820327Y-150167178D01*
X237729422Y-150349739D01*
X237729417Y-150349752D01*
X237673602Y-150545917D01*
X237654785Y-150748999D01*
X237320500Y-150748999D01*
X237320500Y-149874326D01*
X237320500Y-149874323D01*
X237320499Y-149874321D01*
X237305967Y-149801264D01*
X237305966Y-149801260D01*
X237250601Y-149718399D01*
X237167740Y-149663034D01*
X237167739Y-149663033D01*
X237167735Y-149663032D01*
X237094677Y-149648500D01*
X237094674Y-149648500D01*
X235345326Y-149648500D01*
X235345323Y-149648500D01*
X235272264Y-149663032D01*
X235272260Y-149663033D01*
X235189399Y-149718399D01*
X235134033Y-149801260D01*
X235134032Y-149801264D01*
X235119500Y-149874321D01*
X235119500Y-151004719D01*
X235099815Y-151071758D01*
X235047011Y-151117513D01*
X234977853Y-151127457D01*
X234914297Y-151098432D01*
X234888114Y-151066720D01*
X234862510Y-151022374D01*
X234862508Y-151022372D01*
X234849470Y-150999788D01*
X234849468Y-150999786D01*
X234849467Y-150999784D01*
X234849466Y-150999783D01*
X234639503Y-150789821D01*
X234606018Y-150728498D01*
X234604449Y-150719805D01*
X234588165Y-150606543D01*
X234528377Y-150475627D01*
X234434128Y-150366857D01*
X234313053Y-150289047D01*
X234313051Y-150289046D01*
X234313049Y-150289045D01*
X234313050Y-150289045D01*
X234174963Y-150248500D01*
X234174961Y-150248500D01*
X234031039Y-150248500D01*
X234031036Y-150248500D01*
X233892949Y-150289045D01*
X233771873Y-150366856D01*
X233677623Y-150475626D01*
X233677622Y-150475628D01*
X233617834Y-150606543D01*
X233597353Y-150749000D01*
X233617834Y-150891456D01*
X233630865Y-150919988D01*
X233640809Y-150989146D01*
X233611784Y-151052702D01*
X233553007Y-151090477D01*
X233518071Y-151095500D01*
X233481036Y-151095500D01*
X233342949Y-151136045D01*
X233221873Y-151213856D01*
X233127623Y-151322626D01*
X233127622Y-151322628D01*
X233067834Y-151453543D01*
X233047353Y-151596000D01*
X231971413Y-151596000D01*
X232083764Y-151493579D01*
X232206673Y-151330821D01*
X232297582Y-151148250D01*
X232353397Y-150952083D01*
X232372215Y-150749000D01*
X232353397Y-150545917D01*
X232297582Y-150349750D01*
X232294469Y-150343499D01*
X232241613Y-150237348D01*
X232206673Y-150167179D01*
X232083764Y-150004421D01*
X232083762Y-150004418D01*
X231933041Y-149867019D01*
X231933039Y-149867017D01*
X231759642Y-149759655D01*
X231759635Y-149759651D01*
X231607058Y-149700543D01*
X231569456Y-149685976D01*
X231368976Y-149648500D01*
X231165024Y-149648500D01*
X230964544Y-149685976D01*
X230964541Y-149685976D01*
X230964541Y-149685977D01*
X230774364Y-149759651D01*
X230774357Y-149759655D01*
X230600960Y-149867017D01*
X230600958Y-149867019D01*
X230450237Y-150004418D01*
X230327327Y-150167178D01*
X230236422Y-150349739D01*
X230236417Y-150349752D01*
X230180602Y-150545917D01*
X230161785Y-150748999D01*
X229827500Y-150748999D01*
X229827500Y-149874326D01*
X229827500Y-149874323D01*
X229827499Y-149874321D01*
X229812967Y-149801264D01*
X229812966Y-149801260D01*
X229757601Y-149718399D01*
X229674740Y-149663034D01*
X229674739Y-149663033D01*
X229674735Y-149663032D01*
X229601677Y-149648500D01*
X229601674Y-149648500D01*
X227852326Y-149648500D01*
X227852323Y-149648500D01*
X227779264Y-149663032D01*
X227779260Y-149663033D01*
X227696399Y-149718399D01*
X227641033Y-149801260D01*
X227641032Y-149801264D01*
X227626500Y-149874321D01*
X210622623Y-149874321D01*
X210643128Y-149861143D01*
X210725675Y-149765878D01*
X210784453Y-149728104D01*
X210819388Y-149723081D01*
X214216105Y-149723081D01*
X214283144Y-149742766D01*
X214297312Y-149753371D01*
X214298866Y-149754718D01*
X214298872Y-149754724D01*
X214419947Y-149832534D01*
X214419950Y-149832535D01*
X214419949Y-149832535D01*
X214513489Y-149860000D01*
X214537393Y-149867019D01*
X214558036Y-149873080D01*
X214558038Y-149873081D01*
X214558039Y-149873081D01*
X214701962Y-149873081D01*
X214701962Y-149873080D01*
X214840053Y-149832534D01*
X214961128Y-149754724D01*
X215055377Y-149645954D01*
X215115165Y-149515038D01*
X215135647Y-149372581D01*
X215115165Y-149230124D01*
X215055377Y-149099208D01*
X214961128Y-148990438D01*
X214840053Y-148912628D01*
X214840051Y-148912627D01*
X214840049Y-148912626D01*
X214840050Y-148912626D01*
X214701963Y-148872081D01*
X214701961Y-148872081D01*
X214558039Y-148872081D01*
X214558036Y-148872081D01*
X214419949Y-148912626D01*
X214298876Y-148990435D01*
X214298874Y-148990436D01*
X214298872Y-148990438D01*
X214298870Y-148990439D01*
X214297312Y-148991791D01*
X214295427Y-148992651D01*
X214291411Y-148995233D01*
X214291039Y-148994655D01*
X214233757Y-149020818D01*
X214216105Y-149022081D01*
X210550215Y-149022081D01*
X210515281Y-149017058D01*
X210383963Y-148978500D01*
X210383961Y-148978500D01*
X210240039Y-148978500D01*
X210240036Y-148978500D01*
X210101949Y-149019045D01*
X209980873Y-149096856D01*
X209886623Y-149205626D01*
X209886622Y-149205628D01*
X209826834Y-149336543D01*
X209806353Y-149479000D01*
X201514849Y-149479000D01*
X201499128Y-149460857D01*
X201378053Y-149383047D01*
X201378051Y-149383046D01*
X201378049Y-149383045D01*
X201378050Y-149383045D01*
X201239963Y-149342500D01*
X201239961Y-149342500D01*
X201096039Y-149342500D01*
X201096036Y-149342500D01*
X200957949Y-149383045D01*
X200836870Y-149460857D01*
X200831806Y-149466703D01*
X200773027Y-149504477D01*
X200738093Y-149509500D01*
X198613895Y-149509500D01*
X198546856Y-149489815D01*
X198532688Y-149479210D01*
X198531132Y-149477862D01*
X198531128Y-149477857D01*
X198410053Y-149400047D01*
X198410051Y-149400046D01*
X198410049Y-149400045D01*
X198410050Y-149400045D01*
X198271963Y-149359500D01*
X198271961Y-149359500D01*
X198128039Y-149359500D01*
X198128036Y-149359500D01*
X197989949Y-149400045D01*
X197868873Y-149477856D01*
X197774623Y-149586626D01*
X197774622Y-149586628D01*
X197714834Y-149717543D01*
X197694353Y-149860000D01*
X192043706Y-149860000D01*
X191881642Y-149759655D01*
X191881635Y-149759651D01*
X191729058Y-149700543D01*
X191691456Y-149685976D01*
X191490976Y-149648500D01*
X191287024Y-149648500D01*
X191086544Y-149685976D01*
X191086541Y-149685976D01*
X191086541Y-149685977D01*
X190896364Y-149759651D01*
X190896357Y-149759655D01*
X190722960Y-149867017D01*
X190722958Y-149867019D01*
X190572237Y-150004418D01*
X190449327Y-150167178D01*
X190358422Y-150349739D01*
X190358417Y-150349752D01*
X190302602Y-150545917D01*
X190283785Y-150748999D01*
X189949500Y-150748999D01*
X189949500Y-149874326D01*
X189949500Y-149874323D01*
X189949499Y-149874321D01*
X189934967Y-149801264D01*
X189934966Y-149801260D01*
X189879601Y-149718399D01*
X189796740Y-149663034D01*
X189796739Y-149663033D01*
X189796735Y-149663032D01*
X189723677Y-149648500D01*
X189723674Y-149648500D01*
X187974326Y-149648500D01*
X187974323Y-149648500D01*
X187901264Y-149663032D01*
X187901260Y-149663033D01*
X187818399Y-149718399D01*
X187763033Y-149801260D01*
X187763032Y-149801264D01*
X187748500Y-149874321D01*
X171300500Y-149874321D01*
X171300500Y-148590000D01*
X233682353Y-148590000D01*
X233702834Y-148732456D01*
X233762622Y-148863371D01*
X233762623Y-148863373D01*
X233856872Y-148972143D01*
X233977947Y-149049953D01*
X233977950Y-149049954D01*
X233977949Y-149049954D01*
X234116036Y-149090499D01*
X234116038Y-149090500D01*
X234116039Y-149090500D01*
X234259962Y-149090500D01*
X234259962Y-149090499D01*
X234398053Y-149049953D01*
X234519128Y-148972143D01*
X234613377Y-148863373D01*
X234673165Y-148732457D01*
X234693647Y-148590000D01*
X234673165Y-148447543D01*
X234650607Y-148398150D01*
X234640664Y-148328994D01*
X234669688Y-148265438D01*
X234675706Y-148258974D01*
X235458863Y-147475819D01*
X235520186Y-147442334D01*
X235546544Y-147439500D01*
X235571962Y-147439500D01*
X235571962Y-147439499D01*
X235710053Y-147398953D01*
X235831128Y-147321143D01*
X235925377Y-147212373D01*
X235985165Y-147081457D01*
X236005647Y-146939000D01*
X235985165Y-146796543D01*
X235925377Y-146665627D01*
X235831128Y-146556857D01*
X235710053Y-146479047D01*
X235710051Y-146479046D01*
X235710049Y-146479045D01*
X235710050Y-146479045D01*
X235571963Y-146438500D01*
X235571961Y-146438500D01*
X235428039Y-146438500D01*
X235428036Y-146438500D01*
X235289949Y-146479045D01*
X235168873Y-146556856D01*
X235074623Y-146665626D01*
X235074622Y-146665628D01*
X235014834Y-146796543D01*
X234998552Y-146909788D01*
X234969526Y-146973343D01*
X234963495Y-146979821D01*
X233907531Y-148035786D01*
X233907527Y-148035791D01*
X233871062Y-148098952D01*
X233871062Y-148098953D01*
X233861386Y-148115711D01*
X233835397Y-148212706D01*
X233832230Y-148211857D01*
X233810151Y-148261763D01*
X233809196Y-148262878D01*
X233762623Y-148316627D01*
X233762622Y-148316628D01*
X233702834Y-148447543D01*
X233682353Y-148590000D01*
X171300500Y-148590000D01*
X171300500Y-146049999D01*
X190733722Y-146049999D01*
X190733722Y-146050000D01*
X190752762Y-146206818D01*
X190801485Y-146335287D01*
X190808780Y-146354523D01*
X190898517Y-146484530D01*
X191016760Y-146589283D01*
X191016762Y-146589284D01*
X191156634Y-146662696D01*
X191310014Y-146700500D01*
X191310015Y-146700500D01*
X191467985Y-146700500D01*
X191621365Y-146662696D01*
X191761233Y-146589287D01*
X191761234Y-146589285D01*
X191761240Y-146589283D01*
X191769818Y-146581683D01*
X191833050Y-146551963D01*
X191852044Y-146550500D01*
X194481956Y-146550500D01*
X194548995Y-146570185D01*
X194564179Y-146581681D01*
X194572760Y-146589283D01*
X194572762Y-146589284D01*
X194572766Y-146589287D01*
X194712634Y-146662696D01*
X194866014Y-146700500D01*
X194866015Y-146700500D01*
X195023985Y-146700500D01*
X195177365Y-146662696D01*
X195301874Y-146597348D01*
X195370382Y-146583622D01*
X195435435Y-146609114D01*
X195476380Y-146665730D01*
X195483500Y-146707144D01*
X195483500Y-147452783D01*
X195475995Y-147487345D01*
X195478334Y-147488032D01*
X195475834Y-147496543D01*
X195455353Y-147639000D01*
X195475834Y-147781456D01*
X195510708Y-147857818D01*
X195535623Y-147912373D01*
X195629872Y-148021143D01*
X195750947Y-148098953D01*
X195750950Y-148098954D01*
X195750949Y-148098954D01*
X195858107Y-148130417D01*
X195875511Y-148135528D01*
X195889036Y-148139499D01*
X195889038Y-148139500D01*
X195889039Y-148139500D01*
X196032962Y-148139500D01*
X196032962Y-148139499D01*
X196171053Y-148098953D01*
X196292128Y-148021143D01*
X196386377Y-147912373D01*
X196446165Y-147781457D01*
X196466647Y-147639000D01*
X196446165Y-147496543D01*
X196386377Y-147365627D01*
X196386375Y-147365625D01*
X196386374Y-147365622D01*
X196292133Y-147256862D01*
X196292130Y-147256859D01*
X196292128Y-147256857D01*
X196268686Y-147241791D01*
X196241460Y-147224294D01*
X196195705Y-147171489D01*
X196184500Y-147119979D01*
X196184500Y-145883035D01*
X196204185Y-145815996D01*
X196214782Y-145801837D01*
X196219841Y-145795999D01*
X198480722Y-145795999D01*
X198480722Y-145796000D01*
X198499762Y-145952818D01*
X198536619Y-146050000D01*
X198555780Y-146100523D01*
X198645517Y-146230530D01*
X198763760Y-146335283D01*
X198763762Y-146335284D01*
X198903634Y-146408696D01*
X199057014Y-146446500D01*
X199057015Y-146446500D01*
X199214985Y-146446500D01*
X199368365Y-146408696D01*
X199508233Y-146335287D01*
X199508234Y-146335285D01*
X199508240Y-146335283D01*
X199516818Y-146327683D01*
X199580050Y-146297963D01*
X199599044Y-146296500D01*
X200704956Y-146296500D01*
X200771995Y-146316185D01*
X200787179Y-146327681D01*
X200795760Y-146335283D01*
X200795762Y-146335284D01*
X200795766Y-146335287D01*
X200935634Y-146408696D01*
X201089014Y-146446500D01*
X201089015Y-146446500D01*
X201246985Y-146446500D01*
X201400365Y-146408696D01*
X201497854Y-146357529D01*
X201540240Y-146335283D01*
X201658483Y-146230530D01*
X201748220Y-146100523D01*
X201804237Y-145952818D01*
X201823278Y-145796000D01*
X201823278Y-145795999D01*
X211561722Y-145795999D01*
X211561722Y-145796000D01*
X211580762Y-145952818D01*
X211617619Y-146050000D01*
X211636780Y-146100523D01*
X211726517Y-146230530D01*
X211844760Y-146335283D01*
X211844762Y-146335284D01*
X211984634Y-146408696D01*
X212138014Y-146446500D01*
X212138015Y-146446500D01*
X212295985Y-146446500D01*
X212449365Y-146408696D01*
X212589233Y-146335287D01*
X212589234Y-146335285D01*
X212589240Y-146335283D01*
X212597818Y-146327683D01*
X212661050Y-146297963D01*
X212680044Y-146296500D01*
X216953311Y-146296500D01*
X217020350Y-146316185D01*
X217055361Y-146350060D01*
X217060515Y-146357528D01*
X217060517Y-146357530D01*
X217178760Y-146462283D01*
X217178762Y-146462284D01*
X217318634Y-146535696D01*
X217472014Y-146573500D01*
X217472015Y-146573500D01*
X217629985Y-146573500D01*
X217783365Y-146535696D01*
X217880852Y-146484530D01*
X217923240Y-146462283D01*
X218041483Y-146357530D01*
X218131220Y-146227523D01*
X218187237Y-146079818D01*
X218206278Y-145923000D01*
X218202658Y-145893182D01*
X218187237Y-145766181D01*
X218139072Y-145639182D01*
X218131220Y-145618477D01*
X218041483Y-145488470D01*
X217923240Y-145383717D01*
X217923238Y-145383716D01*
X217923237Y-145383715D01*
X217783365Y-145310303D01*
X217629986Y-145272500D01*
X217629985Y-145272500D01*
X217472015Y-145272500D01*
X217393315Y-145291897D01*
X217363642Y-145295500D01*
X212680044Y-145295500D01*
X212613005Y-145275815D01*
X212597820Y-145264318D01*
X212589240Y-145256717D01*
X212589238Y-145256716D01*
X212589237Y-145256715D01*
X212589233Y-145256712D01*
X212449365Y-145183303D01*
X212295986Y-145145500D01*
X212295985Y-145145500D01*
X212138015Y-145145500D01*
X212138014Y-145145500D01*
X211984634Y-145183303D01*
X211844762Y-145256715D01*
X211784273Y-145310303D01*
X211740011Y-145349516D01*
X211726516Y-145361471D01*
X211636781Y-145491475D01*
X211636780Y-145491476D01*
X211580762Y-145639181D01*
X211561722Y-145795999D01*
X201823278Y-145795999D01*
X201819658Y-145766182D01*
X201804237Y-145639181D01*
X201769670Y-145548037D01*
X201748220Y-145491477D01*
X201658483Y-145361470D01*
X201540240Y-145256717D01*
X201540238Y-145256716D01*
X201540237Y-145256715D01*
X201400365Y-145183303D01*
X201246986Y-145145500D01*
X201246985Y-145145500D01*
X201089015Y-145145500D01*
X201089014Y-145145500D01*
X200935634Y-145183303D01*
X200795766Y-145256712D01*
X200795762Y-145256715D01*
X200795760Y-145256717D01*
X200787181Y-145264316D01*
X200723950Y-145294037D01*
X200704956Y-145295500D01*
X199599044Y-145295500D01*
X199532005Y-145275815D01*
X199516820Y-145264318D01*
X199508240Y-145256717D01*
X199508238Y-145256716D01*
X199508237Y-145256715D01*
X199508233Y-145256712D01*
X199368365Y-145183303D01*
X199214986Y-145145500D01*
X199214985Y-145145500D01*
X199057015Y-145145500D01*
X199057014Y-145145500D01*
X198903634Y-145183303D01*
X198763762Y-145256715D01*
X198703273Y-145310303D01*
X198659011Y-145349516D01*
X198645516Y-145361471D01*
X198555781Y-145491475D01*
X198555780Y-145491476D01*
X198499762Y-145639181D01*
X198480722Y-145795999D01*
X196219841Y-145795999D01*
X196259377Y-145750373D01*
X196319165Y-145619457D01*
X196339647Y-145477000D01*
X196319165Y-145334543D01*
X196259377Y-145203627D01*
X196165128Y-145094857D01*
X196044053Y-145017047D01*
X196044051Y-145017046D01*
X196044049Y-145017045D01*
X196044050Y-145017045D01*
X195905963Y-144976500D01*
X195905961Y-144976500D01*
X195762039Y-144976500D01*
X195762036Y-144976500D01*
X195623949Y-145017045D01*
X195502873Y-145094856D01*
X195408623Y-145203626D01*
X195408622Y-145203628D01*
X195348834Y-145334544D01*
X195348833Y-145334546D01*
X195347978Y-145340497D01*
X195318949Y-145404051D01*
X195260169Y-145441822D01*
X195190299Y-145441818D01*
X195181267Y-145438784D01*
X195177362Y-145437303D01*
X195023986Y-145399500D01*
X195023985Y-145399500D01*
X194866015Y-145399500D01*
X194866014Y-145399500D01*
X194712634Y-145437303D01*
X194572766Y-145510712D01*
X194572762Y-145510715D01*
X194572760Y-145510717D01*
X194564181Y-145518316D01*
X194500950Y-145548037D01*
X194481956Y-145549500D01*
X191852044Y-145549500D01*
X191785005Y-145529815D01*
X191769820Y-145518318D01*
X191761240Y-145510717D01*
X191761238Y-145510716D01*
X191761237Y-145510715D01*
X191761233Y-145510712D01*
X191621365Y-145437303D01*
X191467986Y-145399500D01*
X191467985Y-145399500D01*
X191310015Y-145399500D01*
X191310014Y-145399500D01*
X191156634Y-145437303D01*
X191016762Y-145510715D01*
X190898516Y-145615471D01*
X190808781Y-145745475D01*
X190808780Y-145745476D01*
X190752762Y-145893181D01*
X190733722Y-146049999D01*
X171300500Y-146049999D01*
X171300500Y-143636999D01*
X190479722Y-143636999D01*
X190479722Y-143637000D01*
X190498762Y-143793818D01*
X190530189Y-143876683D01*
X190554780Y-143941523D01*
X190644517Y-144071530D01*
X190762760Y-144176283D01*
X190762762Y-144176284D01*
X190902634Y-144249696D01*
X191056014Y-144287500D01*
X191056015Y-144287500D01*
X191213985Y-144287500D01*
X191367365Y-144249696D01*
X191507233Y-144176287D01*
X191507234Y-144176285D01*
X191507240Y-144176283D01*
X191515818Y-144168683D01*
X191579050Y-144138963D01*
X191598044Y-144137500D01*
X192436456Y-144137500D01*
X192503495Y-144157185D01*
X192518679Y-144168681D01*
X192527260Y-144176283D01*
X192527262Y-144176284D01*
X192527266Y-144176287D01*
X192667134Y-144249696D01*
X192820514Y-144287500D01*
X192820515Y-144287500D01*
X192978485Y-144287500D01*
X193131865Y-144249696D01*
X193185635Y-144221475D01*
X193271740Y-144176283D01*
X193389983Y-144071530D01*
X193479720Y-143941523D01*
X193535737Y-143793818D01*
X193554778Y-143637000D01*
X193547230Y-143574832D01*
X193535737Y-143480181D01*
X193502467Y-143392456D01*
X193479720Y-143332477D01*
X193422790Y-143250000D01*
X202567353Y-143250000D01*
X202587834Y-143392456D01*
X202627898Y-143480182D01*
X202647623Y-143523373D01*
X202692213Y-143574833D01*
X202721238Y-143638388D01*
X202722500Y-143656035D01*
X202722500Y-144246963D01*
X202702815Y-144314002D01*
X202692214Y-144328164D01*
X202647625Y-144379623D01*
X202647622Y-144379628D01*
X202587834Y-144510543D01*
X202567353Y-144653000D01*
X202587834Y-144795456D01*
X202647622Y-144926371D01*
X202647623Y-144926373D01*
X202741872Y-145035143D01*
X202862947Y-145112953D01*
X202862950Y-145112954D01*
X202862949Y-145112954D01*
X203001036Y-145153499D01*
X203001038Y-145153500D01*
X203001039Y-145153500D01*
X203144962Y-145153500D01*
X203144962Y-145153499D01*
X203283053Y-145112953D01*
X203404128Y-145035143D01*
X203498377Y-144926373D01*
X203556091Y-144799999D01*
X220324722Y-144799999D01*
X220324722Y-144800000D01*
X220343762Y-144956818D01*
X220386863Y-145070464D01*
X220399780Y-145104523D01*
X220489517Y-145234530D01*
X220607760Y-145339283D01*
X220607762Y-145339284D01*
X220747634Y-145412696D01*
X220901014Y-145450500D01*
X220901015Y-145450500D01*
X221058985Y-145450500D01*
X221212365Y-145412696D01*
X221228836Y-145404051D01*
X221352240Y-145339283D01*
X221470483Y-145234530D01*
X221560220Y-145104523D01*
X221580069Y-145052184D01*
X221622248Y-144996483D01*
X221687845Y-144972426D01*
X221696011Y-144972157D01*
X226714192Y-144972157D01*
X226781231Y-144991842D01*
X226826986Y-145044646D01*
X226836930Y-145113804D01*
X226830134Y-145140127D01*
X226820764Y-145164832D01*
X226820762Y-145164839D01*
X226814139Y-145219385D01*
X226786516Y-145283562D01*
X226778724Y-145292117D01*
X225056661Y-147014181D01*
X224995338Y-147047666D01*
X224968980Y-147050500D01*
X224838014Y-147050500D01*
X224684634Y-147088303D01*
X224544762Y-147161715D01*
X224426516Y-147266471D01*
X224336781Y-147396475D01*
X224336780Y-147396476D01*
X224280762Y-147544181D01*
X224261722Y-147700999D01*
X224261722Y-147701000D01*
X224280762Y-147857818D01*
X224326838Y-147979309D01*
X224336780Y-148005523D01*
X224426517Y-148135530D01*
X224544760Y-148240283D01*
X224544762Y-148240284D01*
X224684634Y-148313696D01*
X224838014Y-148351500D01*
X224838015Y-148351500D01*
X224995985Y-148351500D01*
X225149365Y-148313696D01*
X225289240Y-148240283D01*
X225407483Y-148135530D01*
X225497220Y-148005523D01*
X225497723Y-148004196D01*
X225498749Y-148002609D01*
X225500707Y-147998879D01*
X225501045Y-147999056D01*
X225525984Y-147960486D01*
X226506649Y-146979821D01*
X227482783Y-146003687D01*
X227540787Y-145970973D01*
X227689365Y-145934353D01*
X227829240Y-145860940D01*
X227947483Y-145756187D01*
X228037220Y-145626180D01*
X228093237Y-145478475D01*
X228112278Y-145321657D01*
X228111070Y-145311712D01*
X228108691Y-145292117D01*
X228093237Y-145164839D01*
X228093236Y-145164836D01*
X228093236Y-145164835D01*
X228083866Y-145140127D01*
X228078499Y-145070464D01*
X228111647Y-145008958D01*
X228172786Y-144975137D01*
X228199808Y-144972157D01*
X228614054Y-144972157D01*
X228681093Y-144991842D01*
X228716104Y-145025717D01*
X228729170Y-145044646D01*
X228790533Y-145133546D01*
X228908776Y-145238299D01*
X228908778Y-145238300D01*
X229048650Y-145311712D01*
X229202030Y-145349516D01*
X229202031Y-145349516D01*
X229360001Y-145349516D01*
X229513381Y-145311712D01*
X229547057Y-145294037D01*
X229653256Y-145238299D01*
X229771499Y-145133546D01*
X229861236Y-145003539D01*
X229917253Y-144855834D01*
X229936294Y-144699016D01*
X229929515Y-144643181D01*
X229917253Y-144542197D01*
X229896008Y-144486180D01*
X229861236Y-144394493D01*
X229771499Y-144264486D01*
X229653256Y-144159733D01*
X229653254Y-144159732D01*
X229653253Y-144159731D01*
X229513381Y-144086319D01*
X229360002Y-144048516D01*
X229360001Y-144048516D01*
X229354981Y-144048516D01*
X229292981Y-144031903D01*
X229246845Y-144005266D01*
X229246844Y-144005265D01*
X229246843Y-144005265D01*
X229119549Y-143971157D01*
X221374235Y-143971157D01*
X221242450Y-143971157D01*
X221115155Y-144005265D01*
X221001029Y-144071157D01*
X221001025Y-144071160D01*
X220954217Y-144117968D01*
X220896212Y-144150683D01*
X220747633Y-144187304D01*
X220607762Y-144260715D01*
X220489516Y-144365471D01*
X220399781Y-144495475D01*
X220399780Y-144495476D01*
X220343762Y-144643181D01*
X220324722Y-144799999D01*
X203556091Y-144799999D01*
X203558165Y-144795457D01*
X203578647Y-144653000D01*
X203558165Y-144510543D01*
X203498377Y-144379627D01*
X203498374Y-144379623D01*
X203453786Y-144328164D01*
X203424762Y-144264608D01*
X203423500Y-144246963D01*
X203423500Y-143656035D01*
X203429090Y-143636999D01*
X232770722Y-143636999D01*
X232770722Y-143637000D01*
X232789762Y-143793818D01*
X232821189Y-143876683D01*
X232845780Y-143941523D01*
X232935517Y-144071530D01*
X233053760Y-144176283D01*
X233053762Y-144176284D01*
X233193634Y-144249696D01*
X233347014Y-144287500D01*
X233347015Y-144287500D01*
X233504985Y-144287500D01*
X233658365Y-144249696D01*
X233798233Y-144176287D01*
X233798234Y-144176285D01*
X233798240Y-144176283D01*
X233806818Y-144168683D01*
X233870050Y-144138963D01*
X233889044Y-144137500D01*
X236723324Y-144137500D01*
X236790363Y-144157185D01*
X236811005Y-144173819D01*
X237192724Y-144555538D01*
X237226209Y-144616861D01*
X237228139Y-144628271D01*
X237234762Y-144682816D01*
X237234763Y-144682821D01*
X237277481Y-144795456D01*
X237290780Y-144830523D01*
X237380517Y-144960530D01*
X237498760Y-145065283D01*
X237498762Y-145065284D01*
X237638634Y-145138696D01*
X237792014Y-145176500D01*
X237792015Y-145176500D01*
X237949985Y-145176500D01*
X238103365Y-145138696D01*
X238150792Y-145113804D01*
X238243240Y-145065283D01*
X238361483Y-144960530D01*
X238451220Y-144830523D01*
X238507237Y-144682818D01*
X238526278Y-144526000D01*
X238507237Y-144369182D01*
X238505829Y-144365470D01*
X238467577Y-144264608D01*
X238451220Y-144221477D01*
X238361483Y-144091470D01*
X238243240Y-143986717D01*
X238243238Y-143986716D01*
X238243237Y-143986715D01*
X238103366Y-143913304D01*
X237954787Y-143876683D01*
X237896781Y-143843967D01*
X237289316Y-143236502D01*
X237289314Y-143236500D01*
X237230372Y-143202470D01*
X237175187Y-143170608D01*
X237108292Y-143152684D01*
X237047892Y-143136500D01*
X237047891Y-143136500D01*
X233889044Y-143136500D01*
X233822005Y-143116815D01*
X233806820Y-143105318D01*
X233798240Y-143097717D01*
X233798238Y-143097716D01*
X233798237Y-143097715D01*
X233798233Y-143097712D01*
X233658365Y-143024303D01*
X233504986Y-142986500D01*
X233504985Y-142986500D01*
X233347015Y-142986500D01*
X233347014Y-142986500D01*
X233193634Y-143024303D01*
X233053762Y-143097715D01*
X232935516Y-143202471D01*
X232845781Y-143332475D01*
X232845780Y-143332476D01*
X232789762Y-143480181D01*
X232770722Y-143636999D01*
X203429090Y-143636999D01*
X203443185Y-143588996D01*
X203453782Y-143574837D01*
X203498377Y-143523373D01*
X203558165Y-143392457D01*
X203578647Y-143250000D01*
X203558165Y-143107543D01*
X203498377Y-142976627D01*
X203404128Y-142867857D01*
X203283053Y-142790047D01*
X203283051Y-142790046D01*
X203283049Y-142790045D01*
X203283050Y-142790045D01*
X203144963Y-142749500D01*
X203144961Y-142749500D01*
X203001039Y-142749500D01*
X203001036Y-142749500D01*
X202862949Y-142790045D01*
X202741873Y-142867856D01*
X202647623Y-142976626D01*
X202647622Y-142976628D01*
X202587834Y-143107543D01*
X202567353Y-143250000D01*
X193422790Y-143250000D01*
X193389983Y-143202470D01*
X193271740Y-143097717D01*
X193271738Y-143097716D01*
X193271737Y-143097715D01*
X193131865Y-143024303D01*
X192978486Y-142986500D01*
X192978485Y-142986500D01*
X192820515Y-142986500D01*
X192820514Y-142986500D01*
X192667134Y-143024303D01*
X192527266Y-143097712D01*
X192527262Y-143097715D01*
X192527260Y-143097717D01*
X192518681Y-143105316D01*
X192455450Y-143135037D01*
X192436456Y-143136500D01*
X191598044Y-143136500D01*
X191531005Y-143116815D01*
X191515820Y-143105318D01*
X191507240Y-143097717D01*
X191507238Y-143097716D01*
X191507237Y-143097715D01*
X191507233Y-143097712D01*
X191367365Y-143024303D01*
X191213986Y-142986500D01*
X191213985Y-142986500D01*
X191056015Y-142986500D01*
X191056014Y-142986500D01*
X190902634Y-143024303D01*
X190762762Y-143097715D01*
X190644516Y-143202471D01*
X190554781Y-143332475D01*
X190554780Y-143332476D01*
X190498762Y-143480181D01*
X190479722Y-143636999D01*
X171300500Y-143636999D01*
X171300500Y-142620999D01*
X241025722Y-142620999D01*
X241025722Y-142621000D01*
X241044762Y-142777818D01*
X241078910Y-142867857D01*
X241100780Y-142925523D01*
X241190517Y-143055530D01*
X241308760Y-143160283D01*
X241308762Y-143160284D01*
X241448634Y-143233696D01*
X241602014Y-143271500D01*
X241602015Y-143271500D01*
X241759985Y-143271500D01*
X241913365Y-143233696D01*
X242053233Y-143160287D01*
X242053234Y-143160285D01*
X242053240Y-143160283D01*
X242061818Y-143152683D01*
X242125050Y-143122963D01*
X242144044Y-143121500D01*
X246108456Y-143121500D01*
X246175495Y-143141185D01*
X246190679Y-143152681D01*
X246199260Y-143160283D01*
X246199262Y-143160284D01*
X246199266Y-143160287D01*
X246339134Y-143233696D01*
X246492514Y-143271500D01*
X246492515Y-143271500D01*
X246650485Y-143271500D01*
X246803865Y-143233696D01*
X246943740Y-143160283D01*
X247061983Y-143055530D01*
X247151720Y-142925523D01*
X247207737Y-142777818D01*
X247226778Y-142621000D01*
X247207737Y-142464182D01*
X247151720Y-142316477D01*
X247061983Y-142186470D01*
X246943740Y-142081717D01*
X246943738Y-142081716D01*
X246943737Y-142081715D01*
X246803865Y-142008303D01*
X246650486Y-141970500D01*
X246650485Y-141970500D01*
X246492515Y-141970500D01*
X246492514Y-141970500D01*
X246339134Y-142008303D01*
X246199266Y-142081712D01*
X246199262Y-142081715D01*
X246199260Y-142081717D01*
X246190681Y-142089316D01*
X246127450Y-142119037D01*
X246108456Y-142120500D01*
X242144044Y-142120500D01*
X242077005Y-142100815D01*
X242061820Y-142089318D01*
X242053240Y-142081717D01*
X242053238Y-142081716D01*
X242053237Y-142081715D01*
X242053233Y-142081712D01*
X241913365Y-142008303D01*
X241759986Y-141970500D01*
X241759985Y-141970500D01*
X241602015Y-141970500D01*
X241602014Y-141970500D01*
X241448634Y-142008303D01*
X241308762Y-142081715D01*
X241190516Y-142186471D01*
X241100781Y-142316475D01*
X241100780Y-142316476D01*
X241044762Y-142464181D01*
X241025722Y-142620999D01*
X171300500Y-142620999D01*
X171300500Y-137286999D01*
X179049722Y-137286999D01*
X179049722Y-137287000D01*
X179068762Y-137443818D01*
X179114078Y-137563304D01*
X179124780Y-137591523D01*
X179214517Y-137721530D01*
X179332760Y-137826283D01*
X179332762Y-137826284D01*
X179472634Y-137899696D01*
X179626014Y-137937500D01*
X179626015Y-137937500D01*
X179783985Y-137937500D01*
X179937365Y-137899696D01*
X180077233Y-137826287D01*
X180077234Y-137826285D01*
X180077240Y-137826283D01*
X180085818Y-137818683D01*
X180149050Y-137788963D01*
X180168044Y-137787500D01*
X181478324Y-137787500D01*
X181545363Y-137807185D01*
X181566005Y-137823819D01*
X182201724Y-138459538D01*
X182235209Y-138520861D01*
X182237139Y-138532271D01*
X182243762Y-138586816D01*
X182243763Y-138586821D01*
X182299780Y-138734523D01*
X182389517Y-138864530D01*
X182507760Y-138969283D01*
X182507762Y-138969284D01*
X182647634Y-139042696D01*
X182801014Y-139080500D01*
X182801015Y-139080500D01*
X182958985Y-139080500D01*
X183112365Y-139042696D01*
X183252240Y-138969283D01*
X183370483Y-138864530D01*
X183460220Y-138734523D01*
X183516237Y-138586818D01*
X183535278Y-138430000D01*
X183529144Y-138379477D01*
X183516237Y-138273181D01*
X183488294Y-138199502D01*
X183460220Y-138125477D01*
X183370483Y-137995470D01*
X183252240Y-137890717D01*
X183252238Y-137890716D01*
X183252237Y-137890715D01*
X183112366Y-137817304D01*
X183021870Y-137794999D01*
X188066722Y-137794999D01*
X188066722Y-137795000D01*
X188085762Y-137951818D01*
X188141780Y-138099523D01*
X188141780Y-138099524D01*
X188199550Y-138183217D01*
X188221433Y-138249571D01*
X188221500Y-138253657D01*
X188221500Y-139761108D01*
X188221500Y-139892892D01*
X188226072Y-139909954D01*
X188255608Y-140020187D01*
X188288554Y-140077250D01*
X188321500Y-140134314D01*
X188321502Y-140134316D01*
X188551724Y-140364538D01*
X188585209Y-140425861D01*
X188587139Y-140437271D01*
X188593762Y-140491816D01*
X188593763Y-140491821D01*
X188637966Y-140608373D01*
X188649780Y-140639523D01*
X188739517Y-140769530D01*
X188857760Y-140874283D01*
X188857762Y-140874284D01*
X188997634Y-140947696D01*
X189151014Y-140985500D01*
X189151015Y-140985500D01*
X189308985Y-140985500D01*
X189462365Y-140947696D01*
X189602233Y-140874287D01*
X189602234Y-140874285D01*
X189602240Y-140874283D01*
X189610818Y-140866683D01*
X189674050Y-140836963D01*
X189693044Y-140835500D01*
X195497956Y-140835500D01*
X195564995Y-140855185D01*
X195580179Y-140866681D01*
X195588760Y-140874283D01*
X195588762Y-140874284D01*
X195588766Y-140874287D01*
X195728634Y-140947696D01*
X195882014Y-140985500D01*
X195882015Y-140985500D01*
X196039985Y-140985500D01*
X196193365Y-140947696D01*
X196333240Y-140874283D01*
X196451483Y-140769530D01*
X196541220Y-140639523D01*
X196597237Y-140491818D01*
X196616278Y-140335000D01*
X213467997Y-140335000D01*
X213488478Y-140477456D01*
X213548266Y-140608371D01*
X213548267Y-140608373D01*
X213642516Y-140717143D01*
X213763591Y-140794953D01*
X213763594Y-140794954D01*
X213763593Y-140794954D01*
X213901680Y-140835499D01*
X213901682Y-140835500D01*
X213901683Y-140835500D01*
X214045606Y-140835500D01*
X214045606Y-140835499D01*
X214183697Y-140794953D01*
X214304772Y-140717143D01*
X214399021Y-140608373D01*
X214458809Y-140477457D01*
X214476324Y-140355630D01*
X214491674Y-140311281D01*
X214535949Y-140234597D01*
X214551065Y-140178182D01*
X214559835Y-140145453D01*
X214559835Y-138199501D01*
X221721722Y-138199501D01*
X221721722Y-138199502D01*
X221740762Y-138356320D01*
X221768706Y-138430000D01*
X221796780Y-138504025D01*
X221886517Y-138634032D01*
X222004760Y-138738785D01*
X222004762Y-138738786D01*
X222144634Y-138812198D01*
X222151252Y-138813829D01*
X222209876Y-138828278D01*
X222270257Y-138863433D01*
X222302046Y-138925653D01*
X222296144Y-138992645D01*
X222280013Y-139035178D01*
X222280013Y-139035180D01*
X222260972Y-139191999D01*
X222260972Y-139192000D01*
X222280012Y-139348818D01*
X222336030Y-139496523D01*
X222425767Y-139626530D01*
X222544010Y-139731283D01*
X222544012Y-139731284D01*
X222683884Y-139804696D01*
X222837264Y-139842500D01*
X222837265Y-139842500D01*
X222995235Y-139842500D01*
X223148615Y-139804696D01*
X223288483Y-139731287D01*
X223288484Y-139731285D01*
X223288490Y-139731283D01*
X223297068Y-139723683D01*
X223360300Y-139693963D01*
X223379294Y-139692500D01*
X224834956Y-139692500D01*
X224901995Y-139712185D01*
X224917179Y-139723681D01*
X224925760Y-139731283D01*
X224925762Y-139731284D01*
X224925766Y-139731287D01*
X225065634Y-139804696D01*
X225219014Y-139842500D01*
X225219015Y-139842500D01*
X225376985Y-139842500D01*
X225530365Y-139804696D01*
X225547482Y-139795712D01*
X225670240Y-139731283D01*
X225788483Y-139626530D01*
X225878220Y-139496523D01*
X225934237Y-139348818D01*
X225953278Y-139192000D01*
X225951411Y-139176627D01*
X225934237Y-139035182D01*
X225934235Y-139035178D01*
X225907281Y-138964106D01*
X225901915Y-138894447D01*
X225935062Y-138832941D01*
X225993551Y-138799741D01*
X226005585Y-138796775D01*
X226038363Y-138788697D01*
X226038365Y-138788696D01*
X226133461Y-138738785D01*
X226178240Y-138715283D01*
X226296483Y-138610530D01*
X226386220Y-138480523D01*
X226442237Y-138332818D01*
X226461278Y-138176000D01*
X226461278Y-138175999D01*
X232389722Y-138175999D01*
X232389722Y-138176000D01*
X232408762Y-138332818D01*
X232445619Y-138430000D01*
X232464780Y-138480523D01*
X232554517Y-138610530D01*
X232672760Y-138715283D01*
X232672762Y-138715284D01*
X232812635Y-138788696D01*
X232821159Y-138790797D01*
X232881540Y-138825952D01*
X232913330Y-138888170D01*
X232914582Y-138926140D01*
X232897722Y-139064999D01*
X232897722Y-139065000D01*
X232916762Y-139221818D01*
X232972780Y-139369523D01*
X233062517Y-139499530D01*
X233180760Y-139604283D01*
X233180762Y-139604284D01*
X233320634Y-139677696D01*
X233474014Y-139715500D01*
X233474015Y-139715500D01*
X233631985Y-139715500D01*
X233710684Y-139696102D01*
X233740358Y-139692500D01*
X235186456Y-139692500D01*
X235253495Y-139712185D01*
X235268679Y-139723681D01*
X235277260Y-139731283D01*
X235277262Y-139731284D01*
X235277266Y-139731287D01*
X235417134Y-139804696D01*
X235570514Y-139842500D01*
X235570515Y-139842500D01*
X235728485Y-139842500D01*
X235881865Y-139804696D01*
X235898982Y-139795712D01*
X236021740Y-139731283D01*
X236139983Y-139626530D01*
X236229720Y-139496523D01*
X236285737Y-139348818D01*
X236304778Y-139192000D01*
X236302911Y-139176627D01*
X236285737Y-139035182D01*
X236285735Y-139035178D01*
X236264124Y-138978195D01*
X236258758Y-138908535D01*
X236291905Y-138847029D01*
X236350391Y-138813829D01*
X236452365Y-138788696D01*
X236592240Y-138715283D01*
X236710483Y-138610530D01*
X236800220Y-138480523D01*
X236856237Y-138332818D01*
X236875278Y-138176000D01*
X236873799Y-138163815D01*
X236856237Y-138019181D01*
X236809132Y-137894977D01*
X236800220Y-137871477D01*
X236710483Y-137741470D01*
X236592240Y-137636717D01*
X236592238Y-137636716D01*
X236592237Y-137636715D01*
X236452365Y-137563303D01*
X236298986Y-137525500D01*
X236298985Y-137525500D01*
X236141015Y-137525500D01*
X236141014Y-137525500D01*
X235987634Y-137563303D01*
X235847766Y-137636712D01*
X235847762Y-137636715D01*
X235847760Y-137636717D01*
X235839181Y-137644316D01*
X235775950Y-137674037D01*
X235756956Y-137675500D01*
X233508044Y-137675500D01*
X233441005Y-137655815D01*
X233425820Y-137644318D01*
X233417240Y-137636717D01*
X233417238Y-137636716D01*
X233417237Y-137636715D01*
X233417233Y-137636712D01*
X233277365Y-137563303D01*
X233123986Y-137525500D01*
X233123985Y-137525500D01*
X232966015Y-137525500D01*
X232966014Y-137525500D01*
X232812634Y-137563303D01*
X232672762Y-137636715D01*
X232554516Y-137741471D01*
X232464781Y-137871475D01*
X232464780Y-137871476D01*
X232408762Y-138019181D01*
X232389722Y-138175999D01*
X226461278Y-138175999D01*
X226459799Y-138163815D01*
X226442237Y-138019181D01*
X226395132Y-137894977D01*
X226386220Y-137871477D01*
X226296483Y-137741470D01*
X226178240Y-137636717D01*
X226178238Y-137636716D01*
X226178237Y-137636715D01*
X226038365Y-137563303D01*
X225884986Y-137525500D01*
X225884985Y-137525500D01*
X225727015Y-137525500D01*
X225727014Y-137525500D01*
X225573634Y-137563303D01*
X225433761Y-137636715D01*
X225433759Y-137636717D01*
X225398653Y-137667818D01*
X225335420Y-137697539D01*
X225316427Y-137699002D01*
X222840044Y-137699002D01*
X222773005Y-137679317D01*
X222757820Y-137667820D01*
X222749240Y-137660219D01*
X222749238Y-137660218D01*
X222749237Y-137660217D01*
X222749233Y-137660214D01*
X222609365Y-137586805D01*
X222455986Y-137549002D01*
X222455985Y-137549002D01*
X222298015Y-137549002D01*
X222298014Y-137549002D01*
X222144634Y-137586805D01*
X222004762Y-137660217D01*
X221886516Y-137764973D01*
X221796781Y-137894977D01*
X221740762Y-138042683D01*
X221721722Y-138199501D01*
X214559835Y-138199501D01*
X214559835Y-136081700D01*
X214579520Y-136014661D01*
X214590117Y-136000502D01*
X214634712Y-135949038D01*
X214694500Y-135818122D01*
X214714982Y-135675665D01*
X214694500Y-135533208D01*
X214634712Y-135402292D01*
X214540463Y-135293522D01*
X214419388Y-135215712D01*
X214419386Y-135215711D01*
X214419384Y-135215710D01*
X214419385Y-135215710D01*
X214281298Y-135175165D01*
X214281296Y-135175165D01*
X214137374Y-135175165D01*
X214137371Y-135175165D01*
X213999284Y-135215710D01*
X213878208Y-135293521D01*
X213783958Y-135402291D01*
X213783957Y-135402293D01*
X213724169Y-135533208D01*
X213703688Y-135675665D01*
X213724169Y-135818121D01*
X213783957Y-135949036D01*
X213783958Y-135949038D01*
X213828548Y-136000498D01*
X213857573Y-136064053D01*
X213858835Y-136081700D01*
X213858835Y-139754255D01*
X213839150Y-139821294D01*
X213786346Y-139867049D01*
X213769771Y-139873232D01*
X213763592Y-139875046D01*
X213642517Y-139952856D01*
X213548267Y-140061626D01*
X213548266Y-140061628D01*
X213488478Y-140192543D01*
X213467997Y-140335000D01*
X196616278Y-140335000D01*
X196613792Y-140314521D01*
X196597237Y-140178181D01*
X196553034Y-140061628D01*
X196541220Y-140030477D01*
X196451483Y-139900470D01*
X196333240Y-139795717D01*
X196333238Y-139795716D01*
X196333237Y-139795715D01*
X196193365Y-139722303D01*
X196039986Y-139684500D01*
X196039985Y-139684500D01*
X195882015Y-139684500D01*
X195882014Y-139684500D01*
X195728634Y-139722303D01*
X195588766Y-139795712D01*
X195588762Y-139795715D01*
X195588760Y-139795717D01*
X195580181Y-139803316D01*
X195516950Y-139833037D01*
X195497956Y-139834500D01*
X189693044Y-139834500D01*
X189626005Y-139814815D01*
X189610820Y-139803318D01*
X189602240Y-139795717D01*
X189602238Y-139795716D01*
X189602237Y-139795715D01*
X189602233Y-139795712D01*
X189462366Y-139722304D01*
X189316825Y-139686432D01*
X189256445Y-139651276D01*
X189224656Y-139589057D01*
X189222500Y-139566035D01*
X189222500Y-138683999D01*
X190606722Y-138683999D01*
X190606722Y-138684000D01*
X190625762Y-138840818D01*
X190677864Y-138978198D01*
X190681780Y-138988523D01*
X190771517Y-139118530D01*
X190889760Y-139223283D01*
X190889762Y-139223284D01*
X191029634Y-139296696D01*
X191183014Y-139334500D01*
X191183015Y-139334500D01*
X191340985Y-139334500D01*
X191494365Y-139296696D01*
X191634233Y-139223287D01*
X191634234Y-139223285D01*
X191634240Y-139223283D01*
X191642818Y-139215683D01*
X191706050Y-139185963D01*
X191725044Y-139184500D01*
X193458311Y-139184500D01*
X193525350Y-139204185D01*
X193560361Y-139238060D01*
X193565515Y-139245528D01*
X193565517Y-139245530D01*
X193683760Y-139350283D01*
X193683762Y-139350284D01*
X193823634Y-139423696D01*
X193977014Y-139461500D01*
X193977015Y-139461500D01*
X194134985Y-139461500D01*
X194288365Y-139423696D01*
X194428240Y-139350283D01*
X194546483Y-139245530D01*
X194636220Y-139115523D01*
X194692237Y-138967818D01*
X194711278Y-138811000D01*
X194695858Y-138683999D01*
X194692237Y-138654181D01*
X194644072Y-138527182D01*
X194636220Y-138506477D01*
X194546483Y-138376470D01*
X194428240Y-138271717D01*
X194428238Y-138271716D01*
X194428237Y-138271715D01*
X194288365Y-138198303D01*
X194134986Y-138160500D01*
X194134985Y-138160500D01*
X193977015Y-138160500D01*
X193898315Y-138179897D01*
X193868642Y-138183500D01*
X191725044Y-138183500D01*
X191658005Y-138163815D01*
X191642820Y-138152318D01*
X191634240Y-138144717D01*
X191634238Y-138144716D01*
X191634237Y-138144715D01*
X191634233Y-138144712D01*
X191494365Y-138071303D01*
X191340986Y-138033500D01*
X191340985Y-138033500D01*
X191183015Y-138033500D01*
X191183014Y-138033500D01*
X191029634Y-138071303D01*
X190889762Y-138144715D01*
X190771516Y-138249471D01*
X190681781Y-138379475D01*
X190681780Y-138379476D01*
X190625762Y-138527181D01*
X190606722Y-138683999D01*
X189222500Y-138683999D01*
X189222500Y-138253657D01*
X189242185Y-138186618D01*
X189244450Y-138183217D01*
X189260130Y-138160500D01*
X189302220Y-138099523D01*
X189358237Y-137951818D01*
X189377278Y-137795000D01*
X189370779Y-137741471D01*
X189358237Y-137638181D01*
X189336992Y-137582164D01*
X189302220Y-137490477D01*
X189212483Y-137360470D01*
X189200665Y-137350000D01*
X202567353Y-137350000D01*
X202587834Y-137492456D01*
X202620190Y-137563304D01*
X202647623Y-137623373D01*
X202692213Y-137674833D01*
X202721238Y-137738388D01*
X202722500Y-137756035D01*
X202722500Y-139043963D01*
X202702815Y-139111002D01*
X202692214Y-139125164D01*
X202647625Y-139176623D01*
X202647622Y-139176628D01*
X202587834Y-139307543D01*
X202567353Y-139450000D01*
X202587834Y-139592456D01*
X202644027Y-139715500D01*
X202647623Y-139723373D01*
X202741872Y-139832143D01*
X202862947Y-139909953D01*
X202862950Y-139909954D01*
X202862949Y-139909954D01*
X203001036Y-139950499D01*
X203001038Y-139950500D01*
X203001039Y-139950500D01*
X203144962Y-139950500D01*
X203144962Y-139950499D01*
X203283053Y-139909953D01*
X203404128Y-139832143D01*
X203498377Y-139723373D01*
X203558165Y-139592457D01*
X203578647Y-139450000D01*
X203558165Y-139307543D01*
X203498377Y-139176627D01*
X203498374Y-139176623D01*
X203453786Y-139125164D01*
X203424762Y-139061608D01*
X203423500Y-139043963D01*
X203423500Y-137756035D01*
X203443185Y-137688996D01*
X203453782Y-137674837D01*
X203498377Y-137623373D01*
X203558165Y-137492457D01*
X203578647Y-137350000D01*
X203558165Y-137207543D01*
X203498377Y-137076627D01*
X203404128Y-136967857D01*
X203283053Y-136890047D01*
X203283051Y-136890046D01*
X203283049Y-136890045D01*
X203283050Y-136890045D01*
X203144963Y-136849500D01*
X203144961Y-136849500D01*
X203001039Y-136849500D01*
X203001036Y-136849500D01*
X202862949Y-136890045D01*
X202741873Y-136967856D01*
X202647623Y-137076626D01*
X202647622Y-137076628D01*
X202587834Y-137207543D01*
X202567353Y-137350000D01*
X189200665Y-137350000D01*
X189094240Y-137255717D01*
X189094238Y-137255716D01*
X189094237Y-137255715D01*
X188954365Y-137182303D01*
X188800986Y-137144500D01*
X188800985Y-137144500D01*
X188643015Y-137144500D01*
X188643014Y-137144500D01*
X188489634Y-137182303D01*
X188349762Y-137255715D01*
X188231516Y-137360471D01*
X188141781Y-137490475D01*
X188141780Y-137490476D01*
X188085762Y-137638181D01*
X188066722Y-137794999D01*
X183021870Y-137794999D01*
X182963787Y-137780683D01*
X182905781Y-137747967D01*
X182044316Y-136886502D01*
X182044314Y-136886500D01*
X181980228Y-136849500D01*
X181930187Y-136820608D01*
X181866539Y-136803554D01*
X181802892Y-136786500D01*
X181802891Y-136786500D01*
X180168044Y-136786500D01*
X180101005Y-136766815D01*
X180085820Y-136755318D01*
X180077240Y-136747717D01*
X180077238Y-136747716D01*
X180077237Y-136747715D01*
X180077233Y-136747712D01*
X179937365Y-136674303D01*
X179783986Y-136636500D01*
X179783985Y-136636500D01*
X179626015Y-136636500D01*
X179626014Y-136636500D01*
X179472634Y-136674303D01*
X179332762Y-136747715D01*
X179253931Y-136817552D01*
X179217870Y-136849500D01*
X179214516Y-136852471D01*
X179124781Y-136982475D01*
X179124780Y-136982476D01*
X179068762Y-137130181D01*
X179049722Y-137286999D01*
X171300500Y-137286999D01*
X171300500Y-133477000D01*
X191137353Y-133477000D01*
X191157834Y-133619456D01*
X191195614Y-133702181D01*
X191217623Y-133750373D01*
X191311872Y-133859143D01*
X191432947Y-133936953D01*
X191432950Y-133936954D01*
X191432949Y-133936954D01*
X191571036Y-133977499D01*
X191571038Y-133977500D01*
X191571039Y-133977500D01*
X191714961Y-133977500D01*
X191853053Y-133936953D01*
X191853054Y-133936952D01*
X191859158Y-133935160D01*
X191929028Y-133935160D01*
X191981774Y-133966456D01*
X192213495Y-134198177D01*
X192246980Y-134259500D01*
X192248552Y-134268210D01*
X192264834Y-134381456D01*
X192324622Y-134512371D01*
X192324623Y-134512373D01*
X192418872Y-134621143D01*
X192539947Y-134698953D01*
X192539950Y-134698954D01*
X192539949Y-134698954D01*
X192678036Y-134739499D01*
X192678038Y-134739500D01*
X192678039Y-134739500D01*
X192821962Y-134739500D01*
X192821962Y-134739499D01*
X192960053Y-134698953D01*
X193081128Y-134621143D01*
X193175377Y-134512373D01*
X193235165Y-134381457D01*
X193255647Y-134239000D01*
X193235165Y-134096543D01*
X193175377Y-133965627D01*
X193081128Y-133856857D01*
X192960053Y-133779047D01*
X192960051Y-133779046D01*
X192960049Y-133779045D01*
X192960050Y-133779045D01*
X192821963Y-133738500D01*
X192821961Y-133738500D01*
X192796544Y-133738500D01*
X192729505Y-133718815D01*
X192708863Y-133702181D01*
X192203213Y-133196531D01*
X192203208Y-133196527D01*
X192123291Y-133150387D01*
X192123287Y-133150385D01*
X192117926Y-133148949D01*
X192117926Y-133148948D01*
X192044897Y-133129381D01*
X192034144Y-133126500D01*
X192034143Y-133126500D01*
X192027679Y-133124768D01*
X191978566Y-133098703D01*
X191974127Y-133094856D01*
X191901145Y-133047954D01*
X191853053Y-133017047D01*
X191853051Y-133017046D01*
X191853049Y-133017045D01*
X191853050Y-133017045D01*
X191714963Y-132976500D01*
X191714961Y-132976500D01*
X191571039Y-132976500D01*
X191571036Y-132976500D01*
X191432949Y-133017045D01*
X191311873Y-133094856D01*
X191311872Y-133094856D01*
X191311872Y-133094857D01*
X191299290Y-133109377D01*
X191217623Y-133203626D01*
X191217622Y-133203628D01*
X191157834Y-133334543D01*
X191137353Y-133477000D01*
X171300500Y-133477000D01*
X171300500Y-128519856D01*
X183884500Y-128519856D01*
X183884500Y-131322144D01*
X183896264Y-131366047D01*
X183905693Y-131401237D01*
X183905702Y-131401268D01*
X183908386Y-131411290D01*
X183954527Y-131491208D01*
X183954531Y-131491213D01*
X183994495Y-131531177D01*
X184027980Y-131592500D01*
X184029552Y-131601210D01*
X184045834Y-131714456D01*
X184100754Y-131834712D01*
X184105623Y-131845373D01*
X184199872Y-131954143D01*
X184320947Y-132031953D01*
X184320950Y-132031954D01*
X184320949Y-132031954D01*
X184459036Y-132072499D01*
X184459038Y-132072500D01*
X184459039Y-132072500D01*
X184602962Y-132072500D01*
X184602962Y-132072499D01*
X184741053Y-132031953D01*
X184862128Y-131954143D01*
X184956377Y-131845373D01*
X184965224Y-131826000D01*
X217680353Y-131826000D01*
X217700834Y-131968456D01*
X217729833Y-132031953D01*
X217760623Y-132099373D01*
X217854872Y-132208143D01*
X217975947Y-132285953D01*
X217975950Y-132285954D01*
X217975949Y-132285954D01*
X218114036Y-132326499D01*
X218114038Y-132326500D01*
X218114039Y-132326500D01*
X218139456Y-132326500D01*
X218206495Y-132346185D01*
X218227137Y-132362819D01*
X218732788Y-132868470D01*
X218812712Y-132914614D01*
X218901856Y-132938500D01*
X218901857Y-132938500D01*
X218994144Y-132938500D01*
X219296105Y-132938500D01*
X219363144Y-132958185D01*
X219377312Y-132968790D01*
X219378866Y-132970137D01*
X219378872Y-132970143D01*
X219499947Y-133047953D01*
X219499950Y-133047954D01*
X219499949Y-133047954D01*
X219638036Y-133088499D01*
X219638038Y-133088500D01*
X219638039Y-133088500D01*
X219781962Y-133088500D01*
X219781962Y-133088499D01*
X219920053Y-133047953D01*
X220041128Y-132970143D01*
X220135377Y-132861373D01*
X220195165Y-132730457D01*
X220215647Y-132588000D01*
X220195165Y-132445543D01*
X220135377Y-132314627D01*
X220041128Y-132205857D01*
X219920053Y-132128047D01*
X219920051Y-132128046D01*
X219920049Y-132128045D01*
X219920050Y-132128045D01*
X219781963Y-132087500D01*
X219781961Y-132087500D01*
X219638039Y-132087500D01*
X219638036Y-132087500D01*
X219499949Y-132128045D01*
X219378876Y-132205854D01*
X219378874Y-132205855D01*
X219378872Y-132205857D01*
X219378870Y-132205858D01*
X219377312Y-132207210D01*
X219375427Y-132208070D01*
X219371411Y-132210652D01*
X219371039Y-132210074D01*
X219313757Y-132236237D01*
X219296105Y-132237500D01*
X219144544Y-132237500D01*
X219077505Y-132217815D01*
X219056863Y-132201181D01*
X218722503Y-131866821D01*
X218689018Y-131805498D01*
X218687449Y-131796805D01*
X218671165Y-131683543D01*
X218611377Y-131552627D01*
X218517128Y-131443857D01*
X218396053Y-131366047D01*
X218396051Y-131366046D01*
X218396049Y-131366045D01*
X218396050Y-131366045D01*
X218257963Y-131325500D01*
X218257961Y-131325500D01*
X218114039Y-131325500D01*
X218114036Y-131325500D01*
X217975949Y-131366045D01*
X217854873Y-131443856D01*
X217760623Y-131552626D01*
X217760622Y-131552628D01*
X217700834Y-131683543D01*
X217680353Y-131826000D01*
X184965224Y-131826000D01*
X185016165Y-131714457D01*
X185036647Y-131572000D01*
X185016165Y-131429543D01*
X184956377Y-131298627D01*
X184862128Y-131189857D01*
X184827581Y-131167655D01*
X184741051Y-131112045D01*
X184674565Y-131092524D01*
X184615787Y-131054750D01*
X184586762Y-130991194D01*
X184585500Y-130973547D01*
X184585500Y-129656500D01*
X184605185Y-129589461D01*
X184657989Y-129543706D01*
X184709500Y-129532500D01*
X184713039Y-129532500D01*
X184738456Y-129532500D01*
X184805495Y-129552185D01*
X184826137Y-129568819D01*
X186004238Y-130746920D01*
X186054151Y-130775737D01*
X186054153Y-130775738D01*
X186086205Y-130794244D01*
X186117915Y-130820426D01*
X186142322Y-130848593D01*
X186263397Y-130926403D01*
X186263400Y-130926404D01*
X186263399Y-130926404D01*
X186370557Y-130957867D01*
X186399132Y-130966258D01*
X186401486Y-130966949D01*
X186401488Y-130966950D01*
X186401489Y-130966950D01*
X186545412Y-130966950D01*
X186545412Y-130966949D01*
X186683503Y-130926403D01*
X186804578Y-130848593D01*
X186898827Y-130739823D01*
X186958615Y-130608907D01*
X186970923Y-130523303D01*
X186999948Y-130459747D01*
X187058726Y-130421973D01*
X187093661Y-130416950D01*
X187142962Y-130416950D01*
X187142962Y-130416949D01*
X187281053Y-130376403D01*
X187402128Y-130298593D01*
X187496377Y-130189823D01*
X187556165Y-130058907D01*
X187576647Y-129916450D01*
X187556165Y-129773993D01*
X187496377Y-129643077D01*
X187402128Y-129534307D01*
X187281053Y-129456497D01*
X187281051Y-129456496D01*
X187281049Y-129456495D01*
X187281050Y-129456495D01*
X187142963Y-129415950D01*
X187142961Y-129415950D01*
X186999039Y-129415950D01*
X186999035Y-129415950D01*
X186921668Y-129438667D01*
X186851798Y-129438667D01*
X186799053Y-129407371D01*
X185956503Y-128564821D01*
X185934213Y-128524000D01*
X200281353Y-128524000D01*
X200301834Y-128666456D01*
X200350720Y-128773499D01*
X200361623Y-128797373D01*
X200455872Y-128906143D01*
X200455874Y-128906144D01*
X200455874Y-128906145D01*
X200486470Y-128925807D01*
X200532226Y-128978610D01*
X200542170Y-129047768D01*
X200513146Y-129111324D01*
X200488625Y-129139622D01*
X200488622Y-129139628D01*
X200428834Y-129270543D01*
X200408353Y-129413000D01*
X200428834Y-129555456D01*
X200488622Y-129686371D01*
X200488623Y-129686373D01*
X200582872Y-129795143D01*
X200703947Y-129872953D01*
X200703950Y-129872954D01*
X200703949Y-129872954D01*
X200749044Y-129886195D01*
X200807822Y-129923969D01*
X200836848Y-129987524D01*
X200826905Y-130056683D01*
X200807825Y-130086373D01*
X200781532Y-130116717D01*
X200781531Y-130116719D01*
X200721743Y-130247634D01*
X200701262Y-130390091D01*
X200721743Y-130532547D01*
X200749273Y-130592828D01*
X200781532Y-130663464D01*
X200814574Y-130701597D01*
X200832832Y-130722668D01*
X200861856Y-130786224D01*
X200851912Y-130855382D01*
X200832831Y-130885072D01*
X200804625Y-130917622D01*
X200804622Y-130917628D01*
X200744834Y-131048543D01*
X200724353Y-131191000D01*
X200744834Y-131333456D01*
X200802361Y-131459421D01*
X200804623Y-131464373D01*
X200898872Y-131573143D01*
X201019947Y-131650953D01*
X201019950Y-131650954D01*
X201019949Y-131650954D01*
X201158036Y-131691499D01*
X201158038Y-131691500D01*
X201158039Y-131691500D01*
X201301962Y-131691500D01*
X201301962Y-131691499D01*
X201440053Y-131650953D01*
X201561128Y-131573143D01*
X201561134Y-131573135D01*
X201567828Y-131567337D01*
X201570187Y-131570059D01*
X201614596Y-131541554D01*
X201649465Y-131536550D01*
X202221055Y-131536550D01*
X202288094Y-131556235D01*
X202302262Y-131566840D01*
X202303816Y-131568187D01*
X202303822Y-131568193D01*
X202424897Y-131646003D01*
X202424900Y-131646004D01*
X202424899Y-131646004D01*
X202562986Y-131686549D01*
X202562988Y-131686550D01*
X202562989Y-131686550D01*
X202706912Y-131686550D01*
X202706912Y-131686549D01*
X202845003Y-131646003D01*
X202966078Y-131568193D01*
X203060327Y-131459423D01*
X203120115Y-131328507D01*
X203140597Y-131186050D01*
X203120115Y-131043593D01*
X203085113Y-130966950D01*
X203061892Y-130916103D01*
X203051948Y-130846944D01*
X203080973Y-130783388D01*
X203139751Y-130745614D01*
X203174686Y-130740591D01*
X204483364Y-130740591D01*
X204550403Y-130760276D01*
X204596158Y-130813080D01*
X204606102Y-130846944D01*
X204619834Y-130942456D01*
X204666023Y-131043593D01*
X204679623Y-131073373D01*
X204773872Y-131182143D01*
X204894947Y-131259953D01*
X204894950Y-131259954D01*
X204894949Y-131259954D01*
X205002107Y-131291417D01*
X205026663Y-131298628D01*
X205033036Y-131300499D01*
X205033038Y-131300500D01*
X205033039Y-131300500D01*
X205176962Y-131300500D01*
X205176962Y-131300499D01*
X205315053Y-131259953D01*
X205436128Y-131182143D01*
X205530377Y-131073373D01*
X205590165Y-130942457D01*
X205610647Y-130800000D01*
X205590165Y-130657543D01*
X205530377Y-130526627D01*
X205436128Y-130417857D01*
X205315053Y-130340047D01*
X205315051Y-130340046D01*
X205315049Y-130340045D01*
X205315050Y-130340045D01*
X205176963Y-130299500D01*
X205176961Y-130299500D01*
X205151544Y-130299500D01*
X205084505Y-130279815D01*
X205063863Y-130263181D01*
X204910304Y-130109622D01*
X204910299Y-130109618D01*
X204830377Y-130063476D01*
X204830375Y-130063475D01*
X204813325Y-130058907D01*
X204813324Y-130058906D01*
X204813324Y-130058907D01*
X204772618Y-130048000D01*
X239905353Y-130048000D01*
X239925834Y-130190456D01*
X239975634Y-130299500D01*
X239985623Y-130321373D01*
X240079872Y-130430143D01*
X240200947Y-130507953D01*
X240200950Y-130507954D01*
X240200949Y-130507954D01*
X240339036Y-130548499D01*
X240339038Y-130548500D01*
X240339039Y-130548500D01*
X240386701Y-130548500D01*
X240453740Y-130568185D01*
X240474382Y-130584819D01*
X240823711Y-130934148D01*
X240857196Y-130995471D01*
X240858768Y-131004181D01*
X240875050Y-131117427D01*
X240934838Y-131248342D01*
X240934839Y-131248344D01*
X241029088Y-131357114D01*
X241150163Y-131434924D01*
X241150166Y-131434925D01*
X241150165Y-131434925D01*
X241288252Y-131475470D01*
X241288254Y-131475471D01*
X241288255Y-131475471D01*
X241432178Y-131475471D01*
X241432178Y-131475470D01*
X241570269Y-131434924D01*
X241691344Y-131357114D01*
X241785593Y-131248344D01*
X241845381Y-131117428D01*
X241865863Y-130974971D01*
X241845381Y-130832514D01*
X241785593Y-130701598D01*
X241691344Y-130592828D01*
X241570269Y-130515018D01*
X241570267Y-130515017D01*
X241570265Y-130515016D01*
X241570266Y-130515016D01*
X241432179Y-130474471D01*
X241432177Y-130474471D01*
X241406760Y-130474471D01*
X241339721Y-130454786D01*
X241319079Y-130438152D01*
X240943767Y-130062840D01*
X240910282Y-130001517D01*
X240908712Y-129992818D01*
X240896165Y-129905543D01*
X240881281Y-129872953D01*
X240836377Y-129774628D01*
X240836376Y-129774626D01*
X240835828Y-129773993D01*
X240742128Y-129665857D01*
X240621053Y-129588047D01*
X240621051Y-129588046D01*
X240621049Y-129588045D01*
X240621050Y-129588045D01*
X240482963Y-129547500D01*
X240482961Y-129547500D01*
X240339039Y-129547500D01*
X240339036Y-129547500D01*
X240200949Y-129588045D01*
X240079873Y-129665856D01*
X239985623Y-129774626D01*
X239985622Y-129774628D01*
X239925834Y-129905543D01*
X239905353Y-130048000D01*
X204772618Y-130048000D01*
X204741235Y-130039591D01*
X204741234Y-130039591D01*
X203250067Y-130039591D01*
X203183028Y-130019906D01*
X203137273Y-129967102D01*
X203127329Y-129897944D01*
X203130922Y-129872953D01*
X203135647Y-129840091D01*
X203115165Y-129697634D01*
X203055377Y-129566718D01*
X203055375Y-129566716D01*
X203055374Y-129566713D01*
X203043511Y-129553023D01*
X203014486Y-129489468D01*
X203024430Y-129420309D01*
X203043507Y-129390624D01*
X203117377Y-129305373D01*
X203177165Y-129174457D01*
X203197647Y-129032000D01*
X203177165Y-128889543D01*
X203117377Y-128758627D01*
X203023128Y-128649857D01*
X202902053Y-128572047D01*
X202902051Y-128572046D01*
X202902049Y-128572045D01*
X202902050Y-128572045D01*
X202763963Y-128531500D01*
X202763961Y-128531500D01*
X202738544Y-128531500D01*
X202671505Y-128511815D01*
X202650863Y-128495181D01*
X202399213Y-128243531D01*
X202399208Y-128243527D01*
X202319291Y-128197387D01*
X202319287Y-128197385D01*
X202313926Y-128195949D01*
X202313926Y-128195948D01*
X202245476Y-128177608D01*
X202230144Y-128173500D01*
X202230143Y-128173500D01*
X201200895Y-128173500D01*
X201133856Y-128153815D01*
X201119688Y-128143210D01*
X201118132Y-128141862D01*
X201118128Y-128141857D01*
X200997053Y-128064047D01*
X200997051Y-128064046D01*
X200997049Y-128064045D01*
X200997050Y-128064045D01*
X200858963Y-128023500D01*
X200858961Y-128023500D01*
X200715039Y-128023500D01*
X200715036Y-128023500D01*
X200576949Y-128064045D01*
X200455873Y-128141856D01*
X200361623Y-128250626D01*
X200361622Y-128250628D01*
X200301834Y-128381543D01*
X200281353Y-128524000D01*
X185934213Y-128524000D01*
X185923018Y-128503498D01*
X185921449Y-128494805D01*
X185905165Y-128381543D01*
X185845377Y-128250627D01*
X185751128Y-128141857D01*
X185630053Y-128064047D01*
X185630051Y-128064046D01*
X185630049Y-128064045D01*
X185630050Y-128064045D01*
X185491963Y-128023500D01*
X185491961Y-128023500D01*
X185348039Y-128023500D01*
X185289884Y-128040575D01*
X185220014Y-128040574D01*
X185161237Y-128002798D01*
X185142157Y-127973109D01*
X185091286Y-127861719D01*
X185091285Y-127861717D01*
X184997037Y-127752948D01*
X184875962Y-127675138D01*
X184875960Y-127675137D01*
X184875958Y-127675136D01*
X184875959Y-127675136D01*
X184737872Y-127634591D01*
X184737870Y-127634591D01*
X184593948Y-127634591D01*
X184593945Y-127634591D01*
X184455858Y-127675136D01*
X184334782Y-127752947D01*
X184240532Y-127861717D01*
X184240531Y-127861719D01*
X184180743Y-127992634D01*
X184164461Y-128105879D01*
X184135435Y-128169434D01*
X184129405Y-128175912D01*
X183954528Y-128350789D01*
X183921232Y-128408463D01*
X183921230Y-128408466D01*
X183908386Y-128430709D01*
X183888883Y-128503498D01*
X183884500Y-128519856D01*
X171300500Y-128519856D01*
X171300500Y-126925135D01*
X238868500Y-126925135D01*
X238868500Y-128320870D01*
X238868501Y-128320876D01*
X238874908Y-128380483D01*
X238925202Y-128515328D01*
X238925206Y-128515335D01*
X239011452Y-128630544D01*
X239011455Y-128630547D01*
X239126664Y-128716793D01*
X239126671Y-128716797D01*
X239261517Y-128767091D01*
X239261516Y-128767091D01*
X239268444Y-128767835D01*
X239321127Y-128773500D01*
X242516872Y-128773499D01*
X242576483Y-128767091D01*
X242711331Y-128716796D01*
X242826546Y-128630546D01*
X242912796Y-128515331D01*
X242963091Y-128380483D01*
X242969500Y-128320873D01*
X242969499Y-126925128D01*
X242963091Y-126865517D01*
X242912796Y-126730669D01*
X242912795Y-126730668D01*
X242912793Y-126730664D01*
X242826547Y-126615455D01*
X242826544Y-126615452D01*
X242711335Y-126529206D01*
X242711328Y-126529202D01*
X242576482Y-126478908D01*
X242576483Y-126478908D01*
X242516883Y-126472501D01*
X242516881Y-126472500D01*
X242516873Y-126472500D01*
X242516864Y-126472500D01*
X239321129Y-126472500D01*
X239321123Y-126472501D01*
X239261516Y-126478908D01*
X239126671Y-126529202D01*
X239126664Y-126529206D01*
X239011455Y-126615452D01*
X239011452Y-126615455D01*
X238925206Y-126730664D01*
X238925202Y-126730671D01*
X238874908Y-126865517D01*
X238868501Y-126925116D01*
X238868501Y-126925123D01*
X238868500Y-126925135D01*
X171300500Y-126925135D01*
X171300500Y-124968000D01*
X196598353Y-124968000D01*
X196618834Y-125110456D01*
X196658729Y-125197812D01*
X196678623Y-125241373D01*
X196772872Y-125350143D01*
X196893947Y-125427953D01*
X196893950Y-125427954D01*
X196893949Y-125427954D01*
X197032036Y-125468499D01*
X197032038Y-125468500D01*
X197032039Y-125468500D01*
X197175962Y-125468500D01*
X197175962Y-125468499D01*
X197314053Y-125427953D01*
X197435128Y-125350143D01*
X197529377Y-125241373D01*
X197589165Y-125110457D01*
X197609647Y-124968000D01*
X197589165Y-124825543D01*
X197529377Y-124694627D01*
X197529374Y-124694623D01*
X197484786Y-124643164D01*
X197455762Y-124579608D01*
X197454500Y-124561963D01*
X197454500Y-124078999D01*
X213974722Y-124078999D01*
X213974722Y-124079000D01*
X213993762Y-124235818D01*
X214039133Y-124355450D01*
X214049780Y-124383523D01*
X214139517Y-124513530D01*
X214257760Y-124618283D01*
X214257762Y-124618284D01*
X214397634Y-124691696D01*
X214551014Y-124729500D01*
X214551015Y-124729500D01*
X214708985Y-124729500D01*
X214862365Y-124691696D01*
X214869377Y-124689037D01*
X214870069Y-124690862D01*
X214916166Y-124679500D01*
X222726731Y-124679500D01*
X222726747Y-124679501D01*
X222734343Y-124679501D01*
X222892454Y-124679501D01*
X222892457Y-124679501D01*
X223045185Y-124638577D01*
X223095304Y-124609639D01*
X223182116Y-124559520D01*
X223293920Y-124447716D01*
X223293920Y-124447714D01*
X223304128Y-124437507D01*
X223304130Y-124437503D01*
X223349866Y-124391768D01*
X223411189Y-124358284D01*
X223437546Y-124355450D01*
X225138834Y-124355450D01*
X225184930Y-124366812D01*
X225185623Y-124364987D01*
X225192634Y-124367646D01*
X225346014Y-124405450D01*
X225346015Y-124405450D01*
X225503985Y-124405450D01*
X225657365Y-124367646D01*
X225666150Y-124363035D01*
X225797240Y-124294233D01*
X225915483Y-124189480D01*
X225918219Y-124185516D01*
X225972499Y-124141525D01*
X226041948Y-124133864D01*
X226104514Y-124164965D01*
X226133064Y-124204442D01*
X226142623Y-124225373D01*
X226236872Y-124334143D01*
X226357947Y-124411953D01*
X226357950Y-124411954D01*
X226357949Y-124411954D01*
X226496036Y-124452499D01*
X226496038Y-124452500D01*
X226506847Y-124452500D01*
X226573886Y-124472185D01*
X226619641Y-124524989D01*
X226629585Y-124594147D01*
X226622538Y-124643164D01*
X226612353Y-124714000D01*
X226614078Y-124725997D01*
X226632834Y-124856456D01*
X226692622Y-124987371D01*
X226692623Y-124987373D01*
X226786872Y-125096143D01*
X226907947Y-125173953D01*
X226907950Y-125173954D01*
X226907949Y-125173954D01*
X227046036Y-125214499D01*
X227046038Y-125214500D01*
X227046039Y-125214500D01*
X227189962Y-125214500D01*
X227189962Y-125214499D01*
X227328053Y-125173953D01*
X227449128Y-125096143D01*
X227543377Y-124987373D01*
X227555206Y-124961470D01*
X227600960Y-124908668D01*
X227668000Y-124888983D01*
X227735039Y-124908667D01*
X227780793Y-124961470D01*
X227792623Y-124987373D01*
X227886872Y-125096143D01*
X228007947Y-125173953D01*
X228007950Y-125173954D01*
X228007949Y-125173954D01*
X228146036Y-125214499D01*
X228146038Y-125214500D01*
X228156847Y-125214500D01*
X228223886Y-125234185D01*
X228269641Y-125286989D01*
X228279585Y-125356147D01*
X228262353Y-125475999D01*
X228282834Y-125618456D01*
X228342622Y-125749371D01*
X228342623Y-125749373D01*
X228436872Y-125858143D01*
X228557947Y-125935953D01*
X228557950Y-125935954D01*
X228557949Y-125935954D01*
X228696036Y-125976499D01*
X228696038Y-125976500D01*
X228696039Y-125976500D01*
X228839962Y-125976500D01*
X228839962Y-125976499D01*
X228978053Y-125935953D01*
X229099128Y-125858143D01*
X229193377Y-125749373D01*
X229253165Y-125618457D01*
X229273647Y-125476000D01*
X229253165Y-125333543D01*
X229193377Y-125202627D01*
X229191781Y-125200785D01*
X229190770Y-125198572D01*
X229188584Y-125195170D01*
X229189073Y-125194855D01*
X229162761Y-125137227D01*
X229161500Y-125119589D01*
X229161500Y-124032448D01*
X238868500Y-124032448D01*
X238868500Y-124213551D01*
X238896829Y-124392410D01*
X238952787Y-124564636D01*
X238952788Y-124564639D01*
X239008664Y-124674300D01*
X239028892Y-124713999D01*
X239035006Y-124725997D01*
X239141441Y-124872494D01*
X239141445Y-124872499D01*
X239269500Y-125000554D01*
X239269505Y-125000558D01*
X239397287Y-125093396D01*
X239416006Y-125106996D01*
X239521484Y-125160740D01*
X239577360Y-125189211D01*
X239577363Y-125189212D01*
X239655191Y-125214499D01*
X239749591Y-125245171D01*
X239832429Y-125258291D01*
X239928449Y-125273500D01*
X239928454Y-125273500D01*
X241909551Y-125273500D01*
X241996259Y-125259765D01*
X242088409Y-125245171D01*
X242260639Y-125189211D01*
X242421994Y-125106996D01*
X242568501Y-125000553D01*
X242696553Y-124872501D01*
X242802996Y-124725994D01*
X242885211Y-124564639D01*
X242941171Y-124392409D01*
X242956720Y-124294234D01*
X242969500Y-124213551D01*
X242969500Y-124032448D01*
X242952035Y-123922182D01*
X242941171Y-123853591D01*
X242885211Y-123681361D01*
X242885211Y-123681360D01*
X242842803Y-123598132D01*
X242802996Y-123520006D01*
X242764585Y-123467137D01*
X242696558Y-123373505D01*
X242696554Y-123373500D01*
X242568499Y-123245445D01*
X242568494Y-123245441D01*
X242421997Y-123139006D01*
X242421996Y-123139005D01*
X242421994Y-123139004D01*
X242370300Y-123112664D01*
X242260639Y-123056788D01*
X242260636Y-123056787D01*
X242088410Y-123000829D01*
X241909551Y-122972500D01*
X241909546Y-122972500D01*
X239928454Y-122972500D01*
X239928449Y-122972500D01*
X239749589Y-123000829D01*
X239577363Y-123056787D01*
X239577360Y-123056788D01*
X239416002Y-123139006D01*
X239269505Y-123245441D01*
X239269500Y-123245445D01*
X239141445Y-123373500D01*
X239141441Y-123373505D01*
X239035006Y-123520002D01*
X238952788Y-123681360D01*
X238952787Y-123681363D01*
X238896829Y-123853589D01*
X238868500Y-124032448D01*
X229161500Y-124032448D01*
X229161500Y-120532448D01*
X238868500Y-120532448D01*
X238868500Y-120713551D01*
X238896829Y-120892410D01*
X238952787Y-121064636D01*
X238952788Y-121064639D01*
X239008664Y-121174300D01*
X239030231Y-121216627D01*
X239035006Y-121225997D01*
X239141441Y-121372494D01*
X239141445Y-121372499D01*
X239269500Y-121500554D01*
X239269505Y-121500558D01*
X239397287Y-121593396D01*
X239416006Y-121606996D01*
X239493784Y-121646626D01*
X239577360Y-121689211D01*
X239577363Y-121689212D01*
X239663476Y-121717191D01*
X239749591Y-121745171D01*
X239832429Y-121758291D01*
X239928449Y-121773500D01*
X239928454Y-121773500D01*
X241909551Y-121773500D01*
X241996259Y-121759765D01*
X242088409Y-121745171D01*
X242260639Y-121689211D01*
X242421994Y-121606996D01*
X242568501Y-121500553D01*
X242696553Y-121372501D01*
X242802996Y-121225994D01*
X242885211Y-121064639D01*
X242941171Y-120892409D01*
X242955765Y-120800259D01*
X242969500Y-120713551D01*
X242969500Y-120532448D01*
X242943332Y-120367238D01*
X242941171Y-120353591D01*
X242885211Y-120181361D01*
X242885211Y-120181360D01*
X242856740Y-120125484D01*
X242802996Y-120020006D01*
X242765404Y-119968265D01*
X242696558Y-119873505D01*
X242696554Y-119873500D01*
X242568499Y-119745445D01*
X242568494Y-119745441D01*
X242421997Y-119639006D01*
X242421996Y-119639005D01*
X242421994Y-119639004D01*
X242370300Y-119612664D01*
X242260639Y-119556788D01*
X242260636Y-119556787D01*
X242088410Y-119500829D01*
X241909551Y-119472500D01*
X241909546Y-119472500D01*
X239928454Y-119472500D01*
X239928449Y-119472500D01*
X239749589Y-119500829D01*
X239577363Y-119556787D01*
X239577360Y-119556788D01*
X239416002Y-119639006D01*
X239269505Y-119745441D01*
X239269500Y-119745445D01*
X239141445Y-119873500D01*
X239141441Y-119873505D01*
X239035006Y-120020002D01*
X238952788Y-120181360D01*
X238952787Y-120181363D01*
X238896829Y-120353589D01*
X238868500Y-120532448D01*
X229161500Y-120532448D01*
X229161500Y-120137334D01*
X229161500Y-120137332D01*
X229137614Y-120048188D01*
X229110962Y-120002026D01*
X229091470Y-119968264D01*
X229030765Y-119907559D01*
X228997280Y-119846236D01*
X228995711Y-119837543D01*
X228979427Y-119724281D01*
X228919639Y-119593365D01*
X228825390Y-119484595D01*
X228704315Y-119406785D01*
X228704313Y-119406784D01*
X228704311Y-119406783D01*
X228704312Y-119406783D01*
X228566225Y-119366238D01*
X228566223Y-119366238D01*
X228422301Y-119366238D01*
X228422298Y-119366238D01*
X228284211Y-119406783D01*
X228163135Y-119484594D01*
X228068885Y-119593364D01*
X228068884Y-119593366D01*
X228009096Y-119724281D01*
X227988615Y-119866738D01*
X228009096Y-120009194D01*
X228067616Y-120137332D01*
X228068885Y-120140111D01*
X228163134Y-120248881D01*
X228284209Y-120326691D01*
X228371435Y-120352302D01*
X228430212Y-120390075D01*
X228459238Y-120453630D01*
X228460500Y-120471279D01*
X228460500Y-121295500D01*
X228440815Y-121362539D01*
X228388011Y-121408294D01*
X228336500Y-121419500D01*
X228189036Y-121419500D01*
X228050949Y-121460045D01*
X227929873Y-121537856D01*
X227835623Y-121646626D01*
X227835622Y-121646628D01*
X227802294Y-121719606D01*
X227756539Y-121772410D01*
X227689499Y-121792094D01*
X227622460Y-121772409D01*
X227576706Y-121719606D01*
X227543377Y-121646628D01*
X227543376Y-121646626D01*
X227449128Y-121537857D01*
X227328053Y-121460047D01*
X227328051Y-121460046D01*
X227328049Y-121460045D01*
X227328050Y-121460045D01*
X227189963Y-121419500D01*
X227189961Y-121419500D01*
X227046039Y-121419500D01*
X227046036Y-121419500D01*
X226907949Y-121460045D01*
X226786873Y-121537856D01*
X226692623Y-121646626D01*
X226692622Y-121646628D01*
X226632834Y-121777543D01*
X226620251Y-121865063D01*
X226616519Y-121891030D01*
X226614561Y-121904646D01*
X226585536Y-121968202D01*
X226526759Y-122005977D01*
X226504730Y-122009144D01*
X226504816Y-122009738D01*
X226496036Y-122011000D01*
X226357949Y-122051545D01*
X226236873Y-122129356D01*
X226142623Y-122238126D01*
X226142622Y-122238128D01*
X226082834Y-122369043D01*
X226062353Y-122511500D01*
X226082834Y-122653956D01*
X226142622Y-122784871D01*
X226142623Y-122784873D01*
X226187213Y-122836333D01*
X226216238Y-122899888D01*
X226217500Y-122917535D01*
X226217500Y-123360037D01*
X226197815Y-123427076D01*
X226145011Y-123472831D01*
X226075853Y-123482775D01*
X226012297Y-123453750D01*
X225991450Y-123430477D01*
X225952121Y-123373500D01*
X225915483Y-123320420D01*
X225797240Y-123215667D01*
X225797238Y-123215666D01*
X225797237Y-123215665D01*
X225657365Y-123142253D01*
X225503986Y-123104450D01*
X225503985Y-123104450D01*
X225346015Y-123104450D01*
X225346014Y-123104450D01*
X225192634Y-123142253D01*
X225185623Y-123144913D01*
X225184930Y-123143087D01*
X225138834Y-123154450D01*
X223423616Y-123154450D01*
X223377519Y-123143087D01*
X223376827Y-123144913D01*
X223369815Y-123142253D01*
X223216436Y-123104450D01*
X223216435Y-123104450D01*
X223058465Y-123104450D01*
X223058464Y-123104450D01*
X222905084Y-123142253D01*
X222765212Y-123215665D01*
X222646966Y-123320421D01*
X222574822Y-123424940D01*
X222520539Y-123468930D01*
X222472772Y-123478500D01*
X214916166Y-123478500D01*
X214870069Y-123467137D01*
X214869377Y-123468963D01*
X214862365Y-123466303D01*
X214708986Y-123428500D01*
X214708985Y-123428500D01*
X214551015Y-123428500D01*
X214551014Y-123428500D01*
X214397634Y-123466303D01*
X214257762Y-123539715D01*
X214139516Y-123644471D01*
X214049781Y-123774475D01*
X214049780Y-123774476D01*
X213993762Y-123922181D01*
X213974722Y-124078999D01*
X197454500Y-124078999D01*
X197454500Y-121901040D01*
X197474185Y-121834001D01*
X197484782Y-121819843D01*
X197533714Y-121763373D01*
X197593502Y-121632457D01*
X197613984Y-121490000D01*
X197593502Y-121347543D01*
X197533714Y-121216627D01*
X197439465Y-121107857D01*
X197318390Y-121030047D01*
X197318388Y-121030046D01*
X197318386Y-121030045D01*
X197318387Y-121030045D01*
X197180300Y-120989500D01*
X197180298Y-120989500D01*
X197036376Y-120989500D01*
X197036373Y-120989500D01*
X196898286Y-121030045D01*
X196777210Y-121107856D01*
X196682960Y-121216626D01*
X196682959Y-121216628D01*
X196623171Y-121347543D01*
X196602690Y-121490000D01*
X196623171Y-121632456D01*
X196649091Y-121689211D01*
X196682960Y-121763373D01*
X196723213Y-121809828D01*
X196752238Y-121873383D01*
X196753500Y-121891030D01*
X196753500Y-124561963D01*
X196733815Y-124629002D01*
X196723214Y-124643164D01*
X196678625Y-124694623D01*
X196678622Y-124694628D01*
X196618834Y-124825543D01*
X196598353Y-124968000D01*
X171300500Y-124968000D01*
X171300500Y-117714907D01*
X193104353Y-117714907D01*
X193124834Y-117857363D01*
X193184622Y-117988278D01*
X193184625Y-117988284D01*
X193268647Y-118085251D01*
X193297672Y-118148807D01*
X193287728Y-118217965D01*
X193268648Y-118247655D01*
X193184623Y-118344627D01*
X193184622Y-118344628D01*
X193124834Y-118475543D01*
X193104353Y-118618000D01*
X193124834Y-118760456D01*
X193174841Y-118869953D01*
X193184623Y-118891373D01*
X193278872Y-119000143D01*
X193399947Y-119077953D01*
X193399950Y-119077954D01*
X193399949Y-119077954D01*
X193538036Y-119118499D01*
X193538038Y-119118500D01*
X193538039Y-119118500D01*
X193681962Y-119118500D01*
X193681962Y-119118499D01*
X193820053Y-119077953D01*
X193941128Y-119000143D01*
X193941136Y-119000133D01*
X193942688Y-118998790D01*
X193944572Y-118997929D01*
X193948589Y-118995348D01*
X193948960Y-118995925D01*
X194006243Y-118969763D01*
X194023895Y-118968500D01*
X195296105Y-118968500D01*
X195363144Y-118988185D01*
X195377312Y-118998790D01*
X195378866Y-119000137D01*
X195378872Y-119000143D01*
X195499947Y-119077953D01*
X195499950Y-119077954D01*
X195499949Y-119077954D01*
X195638036Y-119118499D01*
X195638038Y-119118500D01*
X195638039Y-119118500D01*
X195781962Y-119118500D01*
X195781962Y-119118499D01*
X195920053Y-119077953D01*
X196041128Y-119000143D01*
X196135377Y-118891373D01*
X196195165Y-118760457D01*
X196215647Y-118618000D01*
X196195165Y-118475543D01*
X196177982Y-118437919D01*
X196168039Y-118368763D01*
X196197063Y-118305207D01*
X196223735Y-118282096D01*
X196292128Y-118238143D01*
X196386377Y-118129373D01*
X196446165Y-117998457D01*
X196466647Y-117856000D01*
X196466394Y-117854242D01*
X196466647Y-117852484D01*
X196466647Y-117847131D01*
X196467416Y-117847131D01*
X196476334Y-117785086D01*
X196484206Y-117776000D01*
X221236353Y-117776000D01*
X221256834Y-117918456D01*
X221308723Y-118032074D01*
X221316623Y-118049373D01*
X221410872Y-118158143D01*
X221531947Y-118235953D01*
X221531950Y-118235954D01*
X221531949Y-118235954D01*
X221670036Y-118276499D01*
X221670038Y-118276500D01*
X221670039Y-118276500D01*
X221695456Y-118276500D01*
X221762495Y-118296185D01*
X221783137Y-118312819D01*
X222095531Y-118625212D01*
X222160788Y-118690469D01*
X222160791Y-118690470D01*
X222160794Y-118690473D01*
X222240706Y-118736611D01*
X222240707Y-118736611D01*
X222240712Y-118736614D01*
X222329856Y-118760500D01*
X224884105Y-118760500D01*
X224951144Y-118780185D01*
X224965312Y-118790790D01*
X224966866Y-118792137D01*
X224966872Y-118792143D01*
X225087947Y-118869953D01*
X225087950Y-118869954D01*
X225087949Y-118869954D01*
X225226036Y-118910499D01*
X225226038Y-118910500D01*
X225226039Y-118910500D01*
X225369962Y-118910500D01*
X225369962Y-118910499D01*
X225508053Y-118869953D01*
X225629128Y-118792143D01*
X225723377Y-118683373D01*
X225783165Y-118552457D01*
X225803647Y-118410000D01*
X225783165Y-118267543D01*
X225723377Y-118136627D01*
X225629128Y-118027857D01*
X225508053Y-117950047D01*
X225508051Y-117950046D01*
X225508049Y-117950045D01*
X225508050Y-117950045D01*
X225369963Y-117909500D01*
X225369961Y-117909500D01*
X225226039Y-117909500D01*
X225226036Y-117909500D01*
X225087949Y-117950045D01*
X224966876Y-118027854D01*
X224966874Y-118027855D01*
X224966872Y-118027857D01*
X224966870Y-118027858D01*
X224965312Y-118029210D01*
X224963427Y-118030070D01*
X224959411Y-118032652D01*
X224959039Y-118032074D01*
X224901757Y-118058237D01*
X224884105Y-118059500D01*
X222572543Y-118059500D01*
X222505504Y-118039815D01*
X222484862Y-118023181D01*
X222278503Y-117816821D01*
X222245018Y-117755498D01*
X222243449Y-117746805D01*
X222227165Y-117633543D01*
X222167377Y-117502627D01*
X222073128Y-117393857D01*
X221952053Y-117316047D01*
X221952051Y-117316046D01*
X221952049Y-117316045D01*
X221952050Y-117316045D01*
X221813963Y-117275500D01*
X221813961Y-117275500D01*
X221670039Y-117275500D01*
X221670036Y-117275500D01*
X221531949Y-117316045D01*
X221410873Y-117393856D01*
X221316623Y-117502626D01*
X221316622Y-117502628D01*
X221256834Y-117633543D01*
X221236353Y-117776000D01*
X196484206Y-117776000D01*
X196522086Y-117732279D01*
X196554197Y-117717614D01*
X196679050Y-117680954D01*
X196679050Y-117680953D01*
X196679053Y-117680953D01*
X196800128Y-117603143D01*
X196894377Y-117494373D01*
X196954165Y-117363457D01*
X196974647Y-117221000D01*
X196974394Y-117219242D01*
X196974647Y-117217484D01*
X196974647Y-117212131D01*
X196975416Y-117212131D01*
X196984334Y-117150086D01*
X197030086Y-117097279D01*
X197062197Y-117082614D01*
X197187050Y-117045954D01*
X197187050Y-117045953D01*
X197187053Y-117045953D01*
X197208067Y-117032448D01*
X238868500Y-117032448D01*
X238868500Y-117213551D01*
X238896829Y-117392410D01*
X238952787Y-117564636D01*
X238952788Y-117564639D01*
X239008664Y-117674300D01*
X239032714Y-117721500D01*
X239035006Y-117725997D01*
X239141441Y-117872494D01*
X239141445Y-117872499D01*
X239269500Y-118000554D01*
X239269505Y-118000558D01*
X239350633Y-118059500D01*
X239416006Y-118106996D01*
X239516387Y-118158143D01*
X239577360Y-118189211D01*
X239577363Y-118189212D01*
X239630572Y-118206500D01*
X239749591Y-118245171D01*
X239832429Y-118258291D01*
X239928449Y-118273500D01*
X239928454Y-118273500D01*
X241909551Y-118273500D01*
X241996259Y-118259765D01*
X242088409Y-118245171D01*
X242260639Y-118189211D01*
X242421994Y-118106996D01*
X242568501Y-118000553D01*
X242696553Y-117872501D01*
X242802996Y-117725994D01*
X242885211Y-117564639D01*
X242941171Y-117392409D01*
X242955994Y-117298823D01*
X242969500Y-117213551D01*
X242969500Y-117032448D01*
X242943849Y-116870500D01*
X242941171Y-116853591D01*
X242911102Y-116761047D01*
X242885212Y-116681363D01*
X242885211Y-116681360D01*
X242856740Y-116625484D01*
X242802996Y-116520006D01*
X242747443Y-116443543D01*
X242696558Y-116373505D01*
X242696554Y-116373500D01*
X242568499Y-116245445D01*
X242568494Y-116245441D01*
X242421997Y-116139006D01*
X242421996Y-116139005D01*
X242421994Y-116139004D01*
X242352269Y-116103477D01*
X242260639Y-116056788D01*
X242260636Y-116056787D01*
X242088410Y-116000829D01*
X241909551Y-115972500D01*
X241909546Y-115972500D01*
X239928454Y-115972500D01*
X239928449Y-115972500D01*
X239749589Y-116000829D01*
X239577363Y-116056787D01*
X239577360Y-116056788D01*
X239416002Y-116139006D01*
X239269505Y-116245441D01*
X239269500Y-116245445D01*
X239141445Y-116373500D01*
X239141441Y-116373505D01*
X239035006Y-116520002D01*
X238952788Y-116681360D01*
X238952787Y-116681363D01*
X238896829Y-116853589D01*
X238868500Y-117032448D01*
X197208067Y-117032448D01*
X197308128Y-116968143D01*
X197402377Y-116859373D01*
X197462165Y-116728457D01*
X197482647Y-116586000D01*
X197462165Y-116443543D01*
X197402377Y-116312627D01*
X197308128Y-116203857D01*
X197187053Y-116126047D01*
X197187051Y-116126046D01*
X197187049Y-116126045D01*
X197187050Y-116126045D01*
X197048963Y-116085500D01*
X197048961Y-116085500D01*
X196905039Y-116085500D01*
X196905038Y-116085500D01*
X196873997Y-116094614D01*
X196843813Y-116103477D01*
X196808880Y-116108500D01*
X194902919Y-116108500D01*
X194835880Y-116088815D01*
X194790125Y-116036012D01*
X194748402Y-115944653D01*
X194748401Y-115944651D01*
X194654153Y-115835882D01*
X194533078Y-115758072D01*
X194533076Y-115758071D01*
X194533074Y-115758070D01*
X194533075Y-115758070D01*
X194394988Y-115717525D01*
X194394986Y-115717525D01*
X194251064Y-115717525D01*
X194251061Y-115717525D01*
X194112974Y-115758070D01*
X193991898Y-115835881D01*
X193897648Y-115944651D01*
X193897647Y-115944653D01*
X193837859Y-116075568D01*
X193820811Y-116194147D01*
X193791786Y-116257703D01*
X193733008Y-116295477D01*
X193698073Y-116300500D01*
X193678036Y-116300500D01*
X193539949Y-116341045D01*
X193418873Y-116418856D01*
X193324623Y-116527626D01*
X193324622Y-116527628D01*
X193264834Y-116658543D01*
X193244353Y-116801000D01*
X193264834Y-116943456D01*
X193324622Y-117074371D01*
X193324623Y-117074373D01*
X193358358Y-117113306D01*
X193387382Y-117176862D01*
X193377438Y-117246021D01*
X193331684Y-117298823D01*
X193278874Y-117332762D01*
X193184623Y-117441533D01*
X193184622Y-117441535D01*
X193124834Y-117572450D01*
X193104353Y-117714907D01*
X171300500Y-117714907D01*
X171300500Y-111887000D01*
X191518353Y-111887000D01*
X191538834Y-112029456D01*
X191598622Y-112160371D01*
X191598623Y-112160373D01*
X191692872Y-112269143D01*
X191813947Y-112346953D01*
X191813950Y-112346954D01*
X191813949Y-112346954D01*
X191952036Y-112387499D01*
X191952038Y-112387500D01*
X191952039Y-112387500D01*
X191977456Y-112387500D01*
X192044495Y-112407185D01*
X192065137Y-112423819D01*
X192475654Y-112834336D01*
X192542458Y-112872905D01*
X192555578Y-112880480D01*
X192644722Y-112904366D01*
X195415322Y-112904366D01*
X195482361Y-112924051D01*
X195503003Y-112940685D01*
X197850094Y-115287776D01*
X197883579Y-115349099D01*
X197885150Y-115357807D01*
X197888834Y-115383426D01*
X197888836Y-115383436D01*
X197945700Y-115507947D01*
X197948623Y-115514348D01*
X198042872Y-115623118D01*
X198163947Y-115700928D01*
X198163950Y-115700929D01*
X198163949Y-115700929D01*
X198302036Y-115741474D01*
X198302038Y-115741475D01*
X198302039Y-115741475D01*
X198445962Y-115741475D01*
X198445962Y-115741474D01*
X198584053Y-115700928D01*
X198705128Y-115623118D01*
X198799377Y-115514348D01*
X198859165Y-115383432D01*
X198879647Y-115240975D01*
X198859165Y-115098518D01*
X198799377Y-114967602D01*
X198705128Y-114858832D01*
X198584053Y-114781022D01*
X198584051Y-114781021D01*
X198584049Y-114781020D01*
X198584050Y-114781020D01*
X198445963Y-114740475D01*
X198445961Y-114740475D01*
X198345519Y-114740475D01*
X198278480Y-114720790D01*
X198257838Y-114704156D01*
X196044444Y-112490762D01*
X198630353Y-112490762D01*
X198650834Y-112633218D01*
X198710622Y-112764133D01*
X198710623Y-112764135D01*
X198804872Y-112872905D01*
X198925947Y-112950715D01*
X198925950Y-112950716D01*
X198925949Y-112950716D01*
X199064036Y-112991261D01*
X199064038Y-112991262D01*
X199177577Y-112991262D01*
X199244616Y-113010947D01*
X199290371Y-113063751D01*
X199300315Y-113097615D01*
X199312622Y-113183218D01*
X199368375Y-113305297D01*
X199372411Y-113314135D01*
X199466660Y-113422905D01*
X199587735Y-113500715D01*
X199587738Y-113500716D01*
X199587737Y-113500716D01*
X199725824Y-113541261D01*
X199725826Y-113541262D01*
X199725827Y-113541262D01*
X199869750Y-113541262D01*
X199869750Y-113541261D01*
X200007841Y-113500715D01*
X200073653Y-113458419D01*
X200140689Y-113438735D01*
X200207729Y-113458419D01*
X200228372Y-113475054D01*
X201079788Y-114326470D01*
X201079790Y-114326471D01*
X201079794Y-114326474D01*
X201156938Y-114371013D01*
X201156944Y-114371016D01*
X201159709Y-114372613D01*
X201159711Y-114372613D01*
X201159712Y-114372614D01*
X201248856Y-114396500D01*
X202029456Y-114396500D01*
X202096495Y-114416185D01*
X202117137Y-114432819D01*
X203153788Y-115469470D01*
X203220436Y-115507949D01*
X203233712Y-115515614D01*
X203322856Y-115539500D01*
X203322858Y-115539500D01*
X205405142Y-115539500D01*
X205405144Y-115539500D01*
X205494288Y-115515614D01*
X205507564Y-115507949D01*
X205574212Y-115469470D01*
X205675897Y-115367785D01*
X205737220Y-115334300D01*
X205763578Y-115331466D01*
X205788996Y-115331466D01*
X205788996Y-115331465D01*
X205927087Y-115290919D01*
X206048162Y-115213109D01*
X206142411Y-115104339D01*
X206202199Y-114973423D01*
X206222681Y-114830966D01*
X206206652Y-114719480D01*
X229618353Y-114719480D01*
X229638834Y-114861936D01*
X229698622Y-114992851D01*
X229698623Y-114992853D01*
X229792872Y-115101623D01*
X229913947Y-115179433D01*
X229913950Y-115179434D01*
X229913949Y-115179434D01*
X230052036Y-115219979D01*
X230052038Y-115219980D01*
X230052039Y-115219980D01*
X230077456Y-115219980D01*
X230144495Y-115239665D01*
X230165137Y-115256299D01*
X230245181Y-115336343D01*
X230278666Y-115397666D01*
X230281500Y-115424024D01*
X230281500Y-116052963D01*
X230261815Y-116120002D01*
X230251214Y-116134164D01*
X230206625Y-116185623D01*
X230206622Y-116185628D01*
X230146834Y-116316543D01*
X230126353Y-116459000D01*
X230146834Y-116601456D01*
X230183326Y-116681360D01*
X230206623Y-116732373D01*
X230300872Y-116841143D01*
X230421947Y-116918953D01*
X230421950Y-116918954D01*
X230421949Y-116918954D01*
X230560036Y-116959499D01*
X230560038Y-116959500D01*
X230560039Y-116959500D01*
X230703962Y-116959500D01*
X230703962Y-116959499D01*
X230842053Y-116918953D01*
X230963128Y-116841143D01*
X231057377Y-116732373D01*
X231117165Y-116601457D01*
X231137647Y-116459000D01*
X231117165Y-116316543D01*
X231057377Y-116185627D01*
X231057374Y-116185623D01*
X231012786Y-116134164D01*
X230983762Y-116070608D01*
X230982500Y-116052963D01*
X230982500Y-115181338D01*
X230982500Y-115181336D01*
X230958614Y-115092192D01*
X230932828Y-115047530D01*
X230932828Y-115047529D01*
X230932826Y-115047527D01*
X230912471Y-115012270D01*
X230912467Y-115012265D01*
X230660503Y-114760301D01*
X230627018Y-114698978D01*
X230625449Y-114690285D01*
X230609165Y-114577023D01*
X230549377Y-114446107D01*
X230455128Y-114337337D01*
X230334053Y-114259527D01*
X230334051Y-114259526D01*
X230334049Y-114259525D01*
X230334050Y-114259525D01*
X230195963Y-114218980D01*
X230195961Y-114218980D01*
X230052039Y-114218980D01*
X230052036Y-114218980D01*
X229913949Y-114259525D01*
X229792873Y-114337336D01*
X229698623Y-114446106D01*
X229698622Y-114446108D01*
X229638834Y-114577023D01*
X229618353Y-114719480D01*
X206206652Y-114719480D01*
X206202199Y-114688509D01*
X206142411Y-114557593D01*
X206048162Y-114448823D01*
X206009028Y-114423673D01*
X205963274Y-114370870D01*
X205953330Y-114301711D01*
X205982355Y-114238155D01*
X206041133Y-114200381D01*
X206076068Y-114195358D01*
X206156781Y-114195358D01*
X206223820Y-114215043D01*
X206237988Y-114225648D01*
X206239542Y-114226995D01*
X206239548Y-114227001D01*
X206360623Y-114304811D01*
X206360626Y-114304812D01*
X206360625Y-114304812D01*
X206498712Y-114345357D01*
X206498714Y-114345358D01*
X206498715Y-114345358D01*
X206642638Y-114345358D01*
X206642638Y-114345357D01*
X206749797Y-114313893D01*
X206780726Y-114304812D01*
X206780726Y-114304811D01*
X206780729Y-114304811D01*
X206901804Y-114227001D01*
X206996053Y-114118231D01*
X207055841Y-113987315D01*
X207076323Y-113844858D01*
X207064878Y-113765252D01*
X219104101Y-113765252D01*
X219124582Y-113907708D01*
X219134974Y-113930462D01*
X219184371Y-114038625D01*
X219278620Y-114147395D01*
X219399695Y-114225205D01*
X219399698Y-114225206D01*
X219399697Y-114225206D01*
X219537784Y-114265751D01*
X219537786Y-114265752D01*
X219537787Y-114265752D01*
X219681710Y-114265752D01*
X219681710Y-114265751D01*
X219813678Y-114227003D01*
X219819798Y-114225206D01*
X219819798Y-114225205D01*
X219819801Y-114225205D01*
X219940876Y-114147395D01*
X219940884Y-114147385D01*
X219942436Y-114146042D01*
X219944320Y-114145181D01*
X219948337Y-114142600D01*
X219948708Y-114143177D01*
X220005991Y-114117015D01*
X220023643Y-114115752D01*
X221390627Y-114115752D01*
X221425561Y-114120775D01*
X221550945Y-114157590D01*
X221550947Y-114157591D01*
X221550948Y-114157591D01*
X221694871Y-114157591D01*
X221694871Y-114157590D01*
X221820255Y-114120775D01*
X221832959Y-114117045D01*
X221832959Y-114117044D01*
X221832962Y-114117044D01*
X221954037Y-114039234D01*
X222048286Y-113930464D01*
X222108074Y-113799548D01*
X222128556Y-113657091D01*
X222108074Y-113514634D01*
X222048286Y-113383718D01*
X221954037Y-113274948D01*
X221832962Y-113197138D01*
X221832960Y-113197137D01*
X221832958Y-113197136D01*
X221832959Y-113197136D01*
X221694872Y-113156591D01*
X221694870Y-113156591D01*
X221550948Y-113156591D01*
X221550945Y-113156591D01*
X221412858Y-113197136D01*
X221291782Y-113274947D01*
X221291781Y-113274947D01*
X221291781Y-113274948D01*
X221221520Y-113356035D01*
X221207725Y-113371955D01*
X221148947Y-113409729D01*
X221114012Y-113414752D01*
X220023643Y-113414752D01*
X219956604Y-113395067D01*
X219942436Y-113384462D01*
X219940880Y-113383114D01*
X219940876Y-113383109D01*
X219819801Y-113305299D01*
X219819799Y-113305298D01*
X219819797Y-113305297D01*
X219819798Y-113305297D01*
X219681711Y-113264752D01*
X219681709Y-113264752D01*
X219537787Y-113264752D01*
X219537784Y-113264752D01*
X219399697Y-113305297D01*
X219278621Y-113383108D01*
X219278620Y-113383108D01*
X219278620Y-113383109D01*
X219277448Y-113384462D01*
X219184371Y-113491878D01*
X219184370Y-113491880D01*
X219124582Y-113622795D01*
X219104101Y-113765252D01*
X207064878Y-113765252D01*
X207055841Y-113702401D01*
X206996053Y-113571485D01*
X206901804Y-113462715D01*
X206780729Y-113384905D01*
X206780727Y-113384904D01*
X206780725Y-113384903D01*
X206780726Y-113384903D01*
X206642639Y-113344358D01*
X206642637Y-113344358D01*
X206498715Y-113344358D01*
X206498712Y-113344358D01*
X206360625Y-113384903D01*
X206239552Y-113462712D01*
X206239550Y-113462713D01*
X206239548Y-113462715D01*
X206239546Y-113462716D01*
X206237988Y-113464068D01*
X206236103Y-113464928D01*
X206232087Y-113467510D01*
X206231715Y-113466932D01*
X206174433Y-113493095D01*
X206156781Y-113494358D01*
X205770952Y-113494358D01*
X205695284Y-113514632D01*
X205695281Y-113514634D01*
X205681808Y-113518244D01*
X205681807Y-113518244D01*
X205681805Y-113518245D01*
X205601887Y-113564385D01*
X205601881Y-113564390D01*
X205587879Y-113578392D01*
X205526555Y-113611876D01*
X205456864Y-113606890D01*
X205406487Y-113571911D01*
X205339045Y-113494078D01*
X205339044Y-113494077D01*
X205217969Y-113416267D01*
X205217967Y-113416266D01*
X205217965Y-113416265D01*
X205217966Y-113416265D01*
X205079879Y-113375720D01*
X205079877Y-113375720D01*
X205054460Y-113375720D01*
X204987421Y-113356035D01*
X204966779Y-113339401D01*
X204192909Y-112565531D01*
X204192901Y-112565525D01*
X204112988Y-112519388D01*
X204112980Y-112519384D01*
X204111522Y-112518994D01*
X204111513Y-112518992D01*
X204102117Y-112516474D01*
X204042458Y-112480107D01*
X204011931Y-112417259D01*
X204020228Y-112347883D01*
X204046530Y-112309023D01*
X204077553Y-112278001D01*
X204183996Y-112131494D01*
X204266211Y-111970139D01*
X204322171Y-111797909D01*
X204340847Y-111679993D01*
X204350500Y-111619051D01*
X204350500Y-109637948D01*
X204334019Y-109533897D01*
X204322171Y-109459091D01*
X204266211Y-109286861D01*
X204266211Y-109286860D01*
X204225796Y-109207543D01*
X204183996Y-109125506D01*
X204146722Y-109074202D01*
X204115069Y-109030635D01*
X205549500Y-109030635D01*
X205549500Y-112226370D01*
X205549501Y-112226376D01*
X205555908Y-112285983D01*
X205606202Y-112420828D01*
X205606206Y-112420835D01*
X205692452Y-112536044D01*
X205692455Y-112536047D01*
X205807664Y-112622293D01*
X205807671Y-112622297D01*
X205942517Y-112672591D01*
X205942516Y-112672591D01*
X205949444Y-112673335D01*
X206002127Y-112679000D01*
X207397872Y-112678999D01*
X207457483Y-112672591D01*
X207592331Y-112622296D01*
X207707546Y-112536046D01*
X207793796Y-112420831D01*
X207844091Y-112285983D01*
X207850500Y-112226373D01*
X207850499Y-109030628D01*
X207844091Y-108971017D01*
X207811374Y-108883299D01*
X207793797Y-108836171D01*
X207793793Y-108836164D01*
X207707547Y-108720955D01*
X207707544Y-108720952D01*
X207592335Y-108634706D01*
X207592328Y-108634702D01*
X207457482Y-108584408D01*
X207457483Y-108584408D01*
X207397883Y-108578001D01*
X207397881Y-108578000D01*
X207397873Y-108578000D01*
X207397864Y-108578000D01*
X206002129Y-108578000D01*
X206002123Y-108578001D01*
X205942516Y-108584408D01*
X205807671Y-108634702D01*
X205807664Y-108634706D01*
X205692455Y-108720952D01*
X205692452Y-108720955D01*
X205606206Y-108836164D01*
X205606202Y-108836171D01*
X205555908Y-108971017D01*
X205551434Y-109012635D01*
X205549501Y-109030623D01*
X205549500Y-109030635D01*
X204115069Y-109030635D01*
X204077558Y-108979005D01*
X204077554Y-108979000D01*
X203949499Y-108850945D01*
X203949494Y-108850941D01*
X203802997Y-108744506D01*
X203802996Y-108744505D01*
X203802994Y-108744504D01*
X203741202Y-108713019D01*
X203641639Y-108662288D01*
X203641636Y-108662287D01*
X203469410Y-108606329D01*
X203290551Y-108578000D01*
X203290546Y-108578000D01*
X203109454Y-108578000D01*
X203109449Y-108578000D01*
X202930589Y-108606329D01*
X202758363Y-108662287D01*
X202758360Y-108662288D01*
X202597002Y-108744506D01*
X202450505Y-108850941D01*
X202450500Y-108850945D01*
X202322445Y-108979000D01*
X202322441Y-108979005D01*
X202216006Y-109125502D01*
X202133788Y-109286860D01*
X202133787Y-109286863D01*
X202077829Y-109459089D01*
X202049500Y-109637948D01*
X202049500Y-111619051D01*
X202077829Y-111797910D01*
X202133787Y-111970136D01*
X202133788Y-111970139D01*
X202183826Y-112068341D01*
X202210441Y-112120577D01*
X202216006Y-112131497D01*
X202322441Y-112277994D01*
X202322445Y-112277999D01*
X202328265Y-112283819D01*
X202361750Y-112345142D01*
X202356766Y-112414834D01*
X202314894Y-112470767D01*
X202249430Y-112495184D01*
X202240584Y-112495500D01*
X202069544Y-112495500D01*
X202002505Y-112475815D01*
X201981863Y-112459181D01*
X201652346Y-112129664D01*
X201618861Y-112068341D01*
X201616027Y-112041983D01*
X201616027Y-111849063D01*
X201616027Y-111849061D01*
X201592141Y-111759917D01*
X201581150Y-111740880D01*
X201545997Y-111679993D01*
X201545947Y-111679943D01*
X201545919Y-111679891D01*
X201541051Y-111673548D01*
X201542040Y-111672788D01*
X201512462Y-111618620D01*
X201517446Y-111548928D01*
X201520827Y-111540766D01*
X201533514Y-111512987D01*
X201553996Y-111370530D01*
X201533514Y-111228073D01*
X201473726Y-111097157D01*
X201379477Y-110988387D01*
X201258402Y-110910577D01*
X201258400Y-110910576D01*
X201258398Y-110910575D01*
X201258399Y-110910575D01*
X201120312Y-110870030D01*
X201120310Y-110870030D01*
X200976388Y-110870030D01*
X200976385Y-110870030D01*
X200838298Y-110910575D01*
X200717222Y-110988386D01*
X200622972Y-111097156D01*
X200622971Y-111097158D01*
X200563183Y-111228073D01*
X200542702Y-111370530D01*
X200563183Y-111512984D01*
X200564946Y-111518986D01*
X200564948Y-111588855D01*
X200527176Y-111647635D01*
X200512296Y-111657284D01*
X200512934Y-111658276D01*
X200505474Y-111663069D01*
X200505474Y-111663070D01*
X200489170Y-111673548D01*
X200384400Y-111740879D01*
X200290150Y-111849649D01*
X200290149Y-111849651D01*
X200230361Y-111980566D01*
X200222693Y-112033908D01*
X200193669Y-112097464D01*
X200134891Y-112135239D01*
X200099955Y-112140262D01*
X199549895Y-112140262D01*
X199482856Y-112120577D01*
X199468688Y-112109972D01*
X199467132Y-112108624D01*
X199467128Y-112108619D01*
X199346053Y-112030809D01*
X199346051Y-112030808D01*
X199346049Y-112030807D01*
X199346050Y-112030807D01*
X199207963Y-111990262D01*
X199207961Y-111990262D01*
X199064039Y-111990262D01*
X199064036Y-111990262D01*
X198925949Y-112030807D01*
X198804873Y-112108618D01*
X198710623Y-112217388D01*
X198710622Y-112217390D01*
X198650834Y-112348305D01*
X198630353Y-112490762D01*
X196044444Y-112490762D01*
X195827079Y-112273397D01*
X195827074Y-112273393D01*
X195747156Y-112227253D01*
X195747155Y-112227252D01*
X195747154Y-112227252D01*
X195658010Y-112203366D01*
X195658009Y-112203366D01*
X193427210Y-112203366D01*
X193360171Y-112183681D01*
X193314416Y-112130877D01*
X193304472Y-112061719D01*
X193333497Y-111998163D01*
X193369761Y-111971015D01*
X193369590Y-111970749D01*
X193373317Y-111968353D01*
X193375697Y-111966572D01*
X193377050Y-111965953D01*
X193377053Y-111965953D01*
X193381774Y-111962918D01*
X193448812Y-111943233D01*
X194139460Y-111943233D01*
X194139462Y-111943233D01*
X194228606Y-111919347D01*
X194248587Y-111907811D01*
X194248588Y-111907811D01*
X194308523Y-111873207D01*
X194308522Y-111873207D01*
X194308530Y-111873203D01*
X195812914Y-110368819D01*
X195874237Y-110335334D01*
X195900595Y-110332500D01*
X196794324Y-110332500D01*
X196861363Y-110352185D01*
X196871099Y-110360030D01*
X196871368Y-110359681D01*
X196877816Y-110364629D01*
X196917775Y-110387699D01*
X196957737Y-110410771D01*
X197046881Y-110434657D01*
X197046883Y-110434657D01*
X198777506Y-110434657D01*
X198777508Y-110434657D01*
X198866652Y-110410771D01*
X198946576Y-110364627D01*
X199488376Y-109822827D01*
X199549699Y-109789342D01*
X199576057Y-109786508D01*
X199601475Y-109786508D01*
X199601475Y-109786507D01*
X199739566Y-109745961D01*
X199860641Y-109668151D01*
X199954890Y-109559381D01*
X200014678Y-109428465D01*
X200035160Y-109286008D01*
X200014678Y-109143551D01*
X199954890Y-109012635D01*
X199860641Y-108903865D01*
X199739566Y-108826055D01*
X199739564Y-108826054D01*
X199739562Y-108826053D01*
X199739563Y-108826053D01*
X199601476Y-108785508D01*
X199601474Y-108785508D01*
X199463370Y-108785508D01*
X199396331Y-108765823D01*
X199350576Y-108713019D01*
X199342574Y-108657369D01*
X199339965Y-108657369D01*
X199339965Y-108648500D01*
X199319483Y-108506043D01*
X199259695Y-108375128D01*
X199259694Y-108375126D01*
X199165446Y-108266357D01*
X199044371Y-108188547D01*
X199044369Y-108188546D01*
X199044367Y-108188545D01*
X199044368Y-108188545D01*
X198906281Y-108148000D01*
X198906279Y-108148000D01*
X198880862Y-108148000D01*
X198813823Y-108128315D01*
X198793181Y-108111681D01*
X198369591Y-107688091D01*
X208782444Y-107688091D01*
X208802925Y-107830547D01*
X208835536Y-107901953D01*
X208862714Y-107961464D01*
X208956963Y-108070234D01*
X209078038Y-108148044D01*
X209078041Y-108148045D01*
X209078040Y-108148045D01*
X209164734Y-108173500D01*
X209215980Y-108188547D01*
X209216127Y-108188590D01*
X209216129Y-108188591D01*
X209216130Y-108188591D01*
X209360052Y-108188591D01*
X209394341Y-108178523D01*
X209429276Y-108173500D01*
X210810577Y-108173500D01*
X210877616Y-108193185D01*
X210904290Y-108216297D01*
X210996872Y-108323143D01*
X211117947Y-108400953D01*
X211117950Y-108400954D01*
X211117949Y-108400954D01*
X211256036Y-108441499D01*
X211256038Y-108441500D01*
X211256039Y-108441500D01*
X211399962Y-108441500D01*
X211399962Y-108441499D01*
X211538053Y-108400953D01*
X211659128Y-108323143D01*
X211753377Y-108214373D01*
X211813165Y-108083457D01*
X211833647Y-107941000D01*
X211813165Y-107798543D01*
X211753377Y-107667627D01*
X211659128Y-107558857D01*
X211538053Y-107481047D01*
X211538051Y-107481046D01*
X211538049Y-107481045D01*
X211538050Y-107481045D01*
X211399963Y-107440500D01*
X211399961Y-107440500D01*
X211256039Y-107440500D01*
X211256038Y-107440500D01*
X211164163Y-107467477D01*
X211129228Y-107472500D01*
X209818311Y-107472500D01*
X209751272Y-107452815D01*
X209719598Y-107421141D01*
X209719276Y-107421421D01*
X209715362Y-107416904D01*
X209713993Y-107415535D01*
X209713468Y-107414718D01*
X209695746Y-107394266D01*
X209619219Y-107305948D01*
X209498144Y-107228138D01*
X209498142Y-107228137D01*
X209498140Y-107228136D01*
X209498141Y-107228136D01*
X209360054Y-107187591D01*
X209360052Y-107187591D01*
X209216130Y-107187591D01*
X209216127Y-107187591D01*
X209078040Y-107228136D01*
X208956964Y-107305947D01*
X208862714Y-107414717D01*
X208862713Y-107414719D01*
X208802925Y-107545634D01*
X208782444Y-107688091D01*
X198369591Y-107688091D01*
X197013412Y-106331912D01*
X196979927Y-106270589D01*
X196978358Y-106261896D01*
X196962074Y-106148634D01*
X196902286Y-106017718D01*
X196808037Y-105908948D01*
X196686962Y-105831138D01*
X196686960Y-105831137D01*
X196686958Y-105831136D01*
X196686959Y-105831136D01*
X196548872Y-105790591D01*
X196548870Y-105790591D01*
X196404948Y-105790591D01*
X196404945Y-105790591D01*
X196266858Y-105831136D01*
X196145782Y-105908947D01*
X196051532Y-106017717D01*
X196051531Y-106017719D01*
X195991743Y-106148634D01*
X195971262Y-106291091D01*
X195972286Y-106298214D01*
X195962342Y-106367372D01*
X195916587Y-106420176D01*
X195884483Y-106434837D01*
X195750948Y-106474045D01*
X195629873Y-106551856D01*
X195535623Y-106660626D01*
X195535622Y-106660628D01*
X195475834Y-106791543D01*
X195455353Y-106934000D01*
X195475834Y-107076456D01*
X195523676Y-107181213D01*
X195535623Y-107207373D01*
X195629872Y-107316143D01*
X195750947Y-107393953D01*
X195750950Y-107393954D01*
X195750949Y-107393954D01*
X195889036Y-107434499D01*
X195889038Y-107434500D01*
X195889039Y-107434500D01*
X195914456Y-107434500D01*
X195981495Y-107454185D01*
X196002137Y-107470819D01*
X197353294Y-108821976D01*
X197386779Y-108883299D01*
X197381795Y-108952991D01*
X197339923Y-109008924D01*
X197274459Y-109033341D01*
X197265613Y-109033657D01*
X197248879Y-109033657D01*
X197110792Y-109074202D01*
X196989719Y-109152011D01*
X196989717Y-109152012D01*
X196989715Y-109152014D01*
X196989713Y-109152015D01*
X196988155Y-109153367D01*
X196986270Y-109154227D01*
X196982254Y-109156809D01*
X196981882Y-109156231D01*
X196924600Y-109182394D01*
X196906948Y-109183657D01*
X195327932Y-109183657D01*
X195244149Y-109206105D01*
X195244150Y-109206106D01*
X195238788Y-109207542D01*
X195238784Y-109207544D01*
X195158867Y-109253684D01*
X195158862Y-109253688D01*
X193906637Y-110505914D01*
X193845314Y-110539399D01*
X193818956Y-110542233D01*
X193793536Y-110542233D01*
X193655449Y-110582778D01*
X193534373Y-110660589D01*
X193440123Y-110769359D01*
X193440122Y-110769361D01*
X193380335Y-110900274D01*
X193380334Y-110900279D01*
X193380296Y-110900546D01*
X193380184Y-110900791D01*
X193377835Y-110908790D01*
X193376685Y-110908452D01*
X193351270Y-110964102D01*
X193292492Y-111001875D01*
X193247830Y-111005070D01*
X193247830Y-111005500D01*
X193241834Y-111005500D01*
X193239919Y-111005637D01*
X193238966Y-111005500D01*
X193238961Y-111005500D01*
X193095039Y-111005500D01*
X193095036Y-111005500D01*
X193041434Y-111021239D01*
X192971565Y-111021239D01*
X192912787Y-110983464D01*
X192883762Y-110919908D01*
X192882500Y-110902262D01*
X192882500Y-110348768D01*
X192902185Y-110281729D01*
X192912782Y-110267570D01*
X192957377Y-110216106D01*
X193017165Y-110085190D01*
X193037647Y-109942733D01*
X193017165Y-109800276D01*
X192957377Y-109669360D01*
X192863128Y-109560590D01*
X192742053Y-109482780D01*
X192742051Y-109482779D01*
X192742049Y-109482778D01*
X192742050Y-109482778D01*
X192603963Y-109442233D01*
X192603961Y-109442233D01*
X192460039Y-109442233D01*
X192460036Y-109442233D01*
X192321949Y-109482778D01*
X192200873Y-109560589D01*
X192106623Y-109669359D01*
X192106622Y-109669361D01*
X192046834Y-109800276D01*
X192026353Y-109942733D01*
X192046834Y-110085189D01*
X192106622Y-110216104D01*
X192106623Y-110216106D01*
X192151213Y-110267566D01*
X192180238Y-110331121D01*
X192181500Y-110348768D01*
X192181500Y-111182456D01*
X192161815Y-111249495D01*
X192145181Y-111270137D01*
X192065137Y-111350181D01*
X192003814Y-111383666D01*
X191977456Y-111386500D01*
X191952036Y-111386500D01*
X191813949Y-111427045D01*
X191692873Y-111504856D01*
X191598623Y-111613626D01*
X191598622Y-111613628D01*
X191538834Y-111744543D01*
X191518353Y-111887000D01*
X171300500Y-111887000D01*
X171300500Y-105878711D01*
X172649500Y-105878711D01*
X172649500Y-106121288D01*
X172681161Y-106361785D01*
X172743947Y-106596104D01*
X172770674Y-106660628D01*
X172836776Y-106820212D01*
X172958064Y-107030289D01*
X172958066Y-107030292D01*
X172958067Y-107030293D01*
X173105733Y-107222736D01*
X173105739Y-107222743D01*
X173277256Y-107394260D01*
X173277263Y-107394266D01*
X173353566Y-107452815D01*
X173469711Y-107541936D01*
X173679788Y-107663224D01*
X173903900Y-107756054D01*
X174138211Y-107818838D01*
X174318586Y-107842584D01*
X174378711Y-107850500D01*
X174378712Y-107850500D01*
X174621289Y-107850500D01*
X174669388Y-107844167D01*
X174861789Y-107818838D01*
X175096100Y-107756054D01*
X175320212Y-107663224D01*
X175530289Y-107541936D01*
X175722738Y-107394265D01*
X175886894Y-107230109D01*
X183598053Y-107230109D01*
X183618534Y-107372565D01*
X183661880Y-107467477D01*
X183678323Y-107503482D01*
X183772572Y-107612252D01*
X183893647Y-107690062D01*
X183893650Y-107690063D01*
X183893649Y-107690063D01*
X184031736Y-107730608D01*
X184031738Y-107730609D01*
X184031739Y-107730609D01*
X184175662Y-107730609D01*
X184175662Y-107730608D01*
X184313753Y-107690062D01*
X184434828Y-107612252D01*
X184529077Y-107503482D01*
X184557155Y-107442000D01*
X185041353Y-107442000D01*
X185061834Y-107584456D01*
X185110064Y-107690062D01*
X185121623Y-107715373D01*
X185215872Y-107824143D01*
X185336947Y-107901953D01*
X185336950Y-107901954D01*
X185336949Y-107901954D01*
X185409114Y-107923143D01*
X185469930Y-107941000D01*
X185475036Y-107942499D01*
X185475038Y-107942500D01*
X185475039Y-107942500D01*
X185618962Y-107942500D01*
X185618962Y-107942499D01*
X185757053Y-107901953D01*
X185878128Y-107824143D01*
X185878136Y-107824133D01*
X185879688Y-107822790D01*
X185881572Y-107821929D01*
X185885589Y-107819348D01*
X185885960Y-107819925D01*
X185943243Y-107793763D01*
X185960895Y-107792500D01*
X186366456Y-107792500D01*
X186433495Y-107812185D01*
X186454137Y-107828819D01*
X187423495Y-108798176D01*
X187456980Y-108859499D01*
X187458552Y-108868210D01*
X187474834Y-108981456D01*
X187526183Y-109093893D01*
X187534623Y-109112373D01*
X187628872Y-109221143D01*
X187749947Y-109298953D01*
X187749950Y-109298954D01*
X187749949Y-109298954D01*
X187888036Y-109339499D01*
X187888038Y-109339500D01*
X187888039Y-109339500D01*
X188031962Y-109339500D01*
X188031962Y-109339499D01*
X188170053Y-109298953D01*
X188291128Y-109221143D01*
X188385377Y-109112373D01*
X188445165Y-108981457D01*
X188465647Y-108839000D01*
X188445165Y-108696543D01*
X188385377Y-108565627D01*
X188291128Y-108456857D01*
X188170053Y-108379047D01*
X188170051Y-108379046D01*
X188170049Y-108379045D01*
X188170050Y-108379045D01*
X188031963Y-108338500D01*
X188031961Y-108338500D01*
X188006543Y-108338500D01*
X187939504Y-108318815D01*
X187918862Y-108302181D01*
X186778213Y-107161531D01*
X186778208Y-107161527D01*
X186698291Y-107115387D01*
X186698287Y-107115385D01*
X186692926Y-107113949D01*
X186692926Y-107113948D01*
X186624476Y-107095608D01*
X186609144Y-107091500D01*
X186609143Y-107091500D01*
X185960895Y-107091500D01*
X185893856Y-107071815D01*
X185879688Y-107061210D01*
X185878132Y-107059862D01*
X185878128Y-107059857D01*
X185757053Y-106982047D01*
X185757051Y-106982046D01*
X185757049Y-106982045D01*
X185757050Y-106982045D01*
X185618963Y-106941500D01*
X185618961Y-106941500D01*
X185475039Y-106941500D01*
X185475036Y-106941500D01*
X185336949Y-106982045D01*
X185215873Y-107059856D01*
X185121623Y-107168626D01*
X185121622Y-107168628D01*
X185061834Y-107299543D01*
X185041353Y-107442000D01*
X184557155Y-107442000D01*
X184588865Y-107372566D01*
X184609347Y-107230109D01*
X184588865Y-107087652D01*
X184529077Y-106956736D01*
X184529074Y-106956733D01*
X184524282Y-106949275D01*
X184525978Y-106948184D01*
X184501761Y-106895145D01*
X184500500Y-106877506D01*
X184500500Y-105336035D01*
X184520185Y-105268996D01*
X184530782Y-105254837D01*
X184575377Y-105203373D01*
X184635165Y-105072457D01*
X184655647Y-104930000D01*
X184635165Y-104787543D01*
X184575377Y-104656627D01*
X184481128Y-104547857D01*
X184360053Y-104470047D01*
X184360051Y-104470046D01*
X184360049Y-104470045D01*
X184360050Y-104470045D01*
X184221963Y-104429500D01*
X184221961Y-104429500D01*
X184078039Y-104429500D01*
X184078036Y-104429500D01*
X183939949Y-104470045D01*
X183818873Y-104547856D01*
X183724623Y-104656626D01*
X183724622Y-104656628D01*
X183664834Y-104787543D01*
X183644353Y-104930000D01*
X183664834Y-105072456D01*
X183713852Y-105179788D01*
X183724623Y-105203373D01*
X183769213Y-105254833D01*
X183798238Y-105318388D01*
X183799500Y-105336035D01*
X183799500Y-106770639D01*
X183779815Y-106837678D01*
X183769214Y-106851841D01*
X183678323Y-106956736D01*
X183678322Y-106956737D01*
X183618534Y-107087652D01*
X183598053Y-107230109D01*
X175886894Y-107230109D01*
X175894265Y-107222738D01*
X176041936Y-107030289D01*
X176163224Y-106820212D01*
X176256054Y-106596100D01*
X176318838Y-106361789D01*
X176350500Y-106121288D01*
X176350500Y-105878712D01*
X176318838Y-105638211D01*
X176256054Y-105403900D01*
X176163224Y-105179788D01*
X176041936Y-104969711D01*
X175957694Y-104859925D01*
X175894266Y-104777263D01*
X175894260Y-104777256D01*
X175722743Y-104605739D01*
X175722736Y-104605733D01*
X175530293Y-104458067D01*
X175530292Y-104458066D01*
X175530289Y-104458064D01*
X175320212Y-104336776D01*
X175299445Y-104328174D01*
X175096104Y-104243947D01*
X174861785Y-104181161D01*
X174621289Y-104149500D01*
X174621288Y-104149500D01*
X174378712Y-104149500D01*
X174378711Y-104149500D01*
X174138214Y-104181161D01*
X173903895Y-104243947D01*
X173679794Y-104336773D01*
X173679785Y-104336777D01*
X173469706Y-104458067D01*
X173277263Y-104605733D01*
X173277256Y-104605739D01*
X173105739Y-104777256D01*
X173105733Y-104777263D01*
X172958067Y-104969706D01*
X172836777Y-105179785D01*
X172836773Y-105179794D01*
X172743947Y-105403895D01*
X172681161Y-105638214D01*
X172649500Y-105878711D01*
X171300500Y-105878711D01*
X171300500Y-102924500D01*
X171320185Y-102857461D01*
X171372989Y-102811706D01*
X171424500Y-102800500D01*
X212540669Y-102800500D01*
X212607708Y-102820185D01*
G37*
%TD.AperFunction*%
%TD*%
M02*
