%TF.GenerationSoftware,KiCad,Pcbnew,7.0.5*%
%TF.CreationDate,2023-08-19T22:28:29+02:00*%
%TF.ProjectId,programmer,70726f67-7261-46d6-9d65-722e6b696361,rev?*%
%TF.SameCoordinates,Original*%
%TF.FileFunction,Paste,Top*%
%TF.FilePolarity,Positive*%
%FSLAX46Y46*%
G04 Gerber Fmt 4.6, Leading zero omitted, Abs format (unit mm)*
G04 Created by KiCad (PCBNEW 7.0.5) date 2023-08-19 22:28:29*
%MOMM*%
%LPD*%
G01*
G04 APERTURE LIST*
G04 Aperture macros list*
%AMRoundRect*
0 Rectangle with rounded corners*
0 $1 Rounding radius*
0 $2 $3 $4 $5 $6 $7 $8 $9 X,Y pos of 4 corners*
0 Add a 4 corners polygon primitive as box body*
4,1,4,$2,$3,$4,$5,$6,$7,$8,$9,$2,$3,0*
0 Add four circle primitives for the rounded corners*
1,1,$1+$1,$2,$3*
1,1,$1+$1,$4,$5*
1,1,$1+$1,$6,$7*
1,1,$1+$1,$8,$9*
0 Add four rect primitives between the rounded corners*
20,1,$1+$1,$2,$3,$4,$5,0*
20,1,$1+$1,$4,$5,$6,$7,0*
20,1,$1+$1,$6,$7,$8,$9,0*
20,1,$1+$1,$8,$9,$2,$3,0*%
%AMRotRect*
0 Rectangle, with rotation*
0 The origin of the aperture is its center*
0 $1 length*
0 $2 width*
0 $3 Rotation angle, in degrees counterclockwise*
0 Add horizontal line*
21,1,$1,$2,0,0,$3*%
G04 Aperture macros list end*
%ADD10RoundRect,0.237500X0.237500X-0.300000X0.237500X0.300000X-0.237500X0.300000X-0.237500X-0.300000X0*%
%ADD11RoundRect,0.237500X-0.237500X0.300000X-0.237500X-0.300000X0.237500X-0.300000X0.237500X0.300000X0*%
%ADD12RoundRect,0.300000X-0.400000X-0.300000X0.400000X-0.300000X0.400000X0.300000X-0.400000X0.300000X0*%
%ADD13RoundRect,0.237500X-0.250000X-0.237500X0.250000X-0.237500X0.250000X0.237500X-0.250000X0.237500X0*%
%ADD14RoundRect,0.237500X-0.300000X-0.237500X0.300000X-0.237500X0.300000X0.237500X-0.300000X0.237500X0*%
%ADD15RoundRect,0.160000X-0.160000X0.197500X-0.160000X-0.197500X0.160000X-0.197500X0.160000X0.197500X0*%
%ADD16RoundRect,0.237500X0.044194X0.380070X-0.380070X-0.044194X-0.044194X-0.380070X0.380070X0.044194X0*%
%ADD17RoundRect,0.300000X0.400000X0.300000X-0.400000X0.300000X-0.400000X-0.300000X0.400000X-0.300000X0*%
%ADD18RoundRect,0.250000X0.337500X0.475000X-0.337500X0.475000X-0.337500X-0.475000X0.337500X-0.475000X0*%
%ADD19RoundRect,0.250000X0.350000X0.450000X-0.350000X0.450000X-0.350000X-0.450000X0.350000X-0.450000X0*%
%ADD20RoundRect,0.237500X0.300000X0.237500X-0.300000X0.237500X-0.300000X-0.237500X0.300000X-0.237500X0*%
%ADD21RoundRect,0.150000X-0.825000X-0.150000X0.825000X-0.150000X0.825000X0.150000X-0.825000X0.150000X0*%
%ADD22R,0.500000X2.000000*%
%ADD23R,2.000000X1.700000*%
%ADD24RotRect,1.600000X0.550000X135.000000*%
%ADD25RotRect,1.600000X0.550000X225.000000*%
%ADD26RoundRect,0.200000X0.200000X0.275000X-0.200000X0.275000X-0.200000X-0.275000X0.200000X-0.275000X0*%
%ADD27RoundRect,0.237500X0.250000X0.237500X-0.250000X0.237500X-0.250000X-0.237500X0.250000X-0.237500X0*%
%ADD28RoundRect,0.250000X0.475000X-0.337500X0.475000X0.337500X-0.475000X0.337500X-0.475000X-0.337500X0*%
G04 APERTURE END LIST*
D10*
%TO.C,C7*%
X80389000Y-80354500D03*
X80389000Y-78629500D03*
%TD*%
D11*
%TO.C,C9*%
X94742000Y-74775000D03*
X94742000Y-76500000D03*
%TD*%
D12*
%TO.C,Y1*%
X97282000Y-60198000D03*
X99482000Y-60198000D03*
X99482000Y-58298000D03*
X97282000Y-58298000D03*
%TD*%
D13*
%TO.C,R5*%
X82421000Y-73777000D03*
X84246000Y-73777000D03*
%TD*%
D14*
%TO.C,C8*%
X82471000Y-75428000D03*
X84196000Y-75428000D03*
%TD*%
D15*
%TO.C,R2*%
X84582000Y-49567500D03*
X84582000Y-50762500D03*
%TD*%
D16*
%TO.C,C2*%
X95478880Y-59588120D03*
X94259120Y-60807880D03*
%TD*%
D17*
%TO.C,Y2*%
X84367000Y-78603000D03*
X82167000Y-78603000D03*
X82167000Y-80503000D03*
X84367000Y-80503000D03*
%TD*%
D18*
%TO.C,C1*%
X99419500Y-62169000D03*
X97344500Y-62169000D03*
%TD*%
D19*
%TO.C,R3*%
X93075000Y-64262000D03*
X91075000Y-64262000D03*
%TD*%
D20*
%TO.C,C5*%
X92362500Y-69205000D03*
X90637500Y-69205000D03*
%TD*%
D21*
%TO.C,U3*%
X86679000Y-71501000D03*
X86679000Y-72771000D03*
X86679000Y-74041000D03*
X86679000Y-75311000D03*
X86679000Y-76581000D03*
X86679000Y-77851000D03*
X86679000Y-79121000D03*
X86679000Y-80391000D03*
X91629000Y-80391000D03*
X91629000Y-79121000D03*
X91629000Y-77851000D03*
X91629000Y-76581000D03*
X91629000Y-75311000D03*
X91629000Y-74041000D03*
X91629000Y-72771000D03*
X91629000Y-71501000D03*
%TD*%
D22*
%TO.C,J1*%
X84400000Y-82966000D03*
X85200000Y-82966000D03*
X86000000Y-82966000D03*
X86800000Y-82966000D03*
X87600000Y-82966000D03*
D23*
X81550000Y-83066000D03*
X81550000Y-88516000D03*
X90450000Y-83066000D03*
X90450000Y-88516000D03*
%TD*%
D24*
%TO.C,U2*%
X91322305Y-59849103D03*
X91887990Y-59283417D03*
X92453676Y-58717732D03*
X93019361Y-58152047D03*
X93585047Y-57586361D03*
X94150732Y-57020676D03*
X94716417Y-56454990D03*
X95282103Y-55889305D03*
D25*
X95282103Y-53838695D03*
X94716417Y-53273010D03*
X94150732Y-52707324D03*
X93585047Y-52141639D03*
X93019361Y-51575953D03*
X92453676Y-51010268D03*
X91887990Y-50444583D03*
X91322305Y-49878897D03*
D24*
X89271695Y-49878897D03*
X88706010Y-50444583D03*
X88140324Y-51010268D03*
X87574639Y-51575953D03*
X87008953Y-52141639D03*
X86443268Y-52707324D03*
X85877583Y-53273010D03*
X85311897Y-53838695D03*
D25*
X85311897Y-55889305D03*
X85877583Y-56454990D03*
X86443268Y-57020676D03*
X87008953Y-57586361D03*
X87574639Y-58152047D03*
X88140324Y-58717732D03*
X88706010Y-59283417D03*
X89271695Y-59849103D03*
%TD*%
D20*
%TO.C,C6*%
X84146000Y-77079000D03*
X82421000Y-77079000D03*
%TD*%
D26*
%TO.C,C4*%
X92298500Y-67427000D03*
X90648500Y-67427000D03*
%TD*%
D27*
%TO.C,R4*%
X84269500Y-72126000D03*
X82444500Y-72126000D03*
%TD*%
D28*
%TO.C,C3*%
X101557000Y-60539500D03*
X101557000Y-58464500D03*
%TD*%
M02*
