%TF.GenerationSoftware,KiCad,Pcbnew,8.0.2*%
%TF.CreationDate,2024-05-20T23:24:51+02:00*%
%TF.ProjectId,S88_UNO_SHIELD,5338385f-554e-44f5-9f53-4849454c442e,rev?*%
%TF.SameCoordinates,Original*%
%TF.FileFunction,Soldermask,Bot*%
%TF.FilePolarity,Negative*%
%FSLAX46Y46*%
G04 Gerber Fmt 4.6, Leading zero omitted, Abs format (unit mm)*
G04 Created by KiCad (PCBNEW 8.0.2) date 2024-05-20 23:24:51*
%MOMM*%
%LPD*%
G01*
G04 APERTURE LIST*
G04 Aperture macros list*
%AMHorizOval*
0 Thick line with rounded ends*
0 $1 width*
0 $2 $3 position (X,Y) of the first rounded end (center of the circle)*
0 $4 $5 position (X,Y) of the second rounded end (center of the circle)*
0 Add line between two ends*
20,1,$1,$2,$3,$4,$5,0*
0 Add two circle primitives to create the rounded ends*
1,1,$1,$2,$3*
1,1,$1,$4,$5*%
G04 Aperture macros list end*
%ADD10R,1.600000X1.600000*%
%ADD11O,1.600000X1.600000*%
%ADD12C,1.400000*%
%ADD13HorizOval,1.400000X0.000000X0.000000X0.000000X0.000000X0*%
%ADD14R,2.600000X2.600000*%
%ADD15C,2.600000*%
%ADD16HorizOval,1.400000X0.000000X0.000000X0.000000X0.000000X0*%
%ADD17C,3.200000*%
%ADD18R,1.500000X1.500000*%
%ADD19C,1.500000*%
G04 APERTURE END LIST*
D10*
%TO.C,U702*%
X60800000Y-112781000D03*
D11*
X60800000Y-110241000D03*
X53180000Y-110241000D03*
X53180000Y-112781000D03*
%TD*%
D10*
%TO.C,U1402*%
X74841000Y-79756000D03*
D11*
X74841000Y-82296000D03*
X82461000Y-82296000D03*
X82461000Y-79756000D03*
%TD*%
D12*
%TO.C,R1301*%
X67368506Y-79411639D03*
D13*
X63477000Y-82677000D03*
%TD*%
D14*
%TO.C,J301*%
X34925000Y-110871000D03*
D15*
X34925000Y-115951000D03*
X34925000Y-121031000D03*
%TD*%
D10*
%TO.C,U1602*%
X74841000Y-89916000D03*
D11*
X74841000Y-92456000D03*
X82461000Y-92456000D03*
X82461000Y-89916000D03*
%TD*%
D10*
%TO.C,U1502*%
X74841000Y-84836000D03*
D11*
X74841000Y-87376000D03*
X82461000Y-87376000D03*
X82461000Y-84836000D03*
%TD*%
D12*
%TO.C,R2001*%
X68272494Y-113125361D03*
D16*
X72164000Y-109860000D03*
%TD*%
D10*
%TO.C,U2002*%
X74841000Y-110236000D03*
D11*
X74841000Y-112776000D03*
X82461000Y-112776000D03*
X82461000Y-110236000D03*
%TD*%
D14*
%TO.C,J402*%
X100203000Y-105791000D03*
D15*
X100203000Y-100711000D03*
X100203000Y-95631000D03*
%TD*%
D10*
%TO.C,U602*%
X60800000Y-117861000D03*
D11*
X60800000Y-115321000D03*
X53180000Y-115321000D03*
X53180000Y-117861000D03*
%TD*%
D10*
%TO.C,U1302*%
X60800000Y-82301000D03*
D11*
X60800000Y-79761000D03*
X53180000Y-79761000D03*
X53180000Y-82301000D03*
%TD*%
D14*
%TO.C,J303*%
X34925000Y-80391000D03*
D15*
X34925000Y-85471000D03*
X34925000Y-90551000D03*
%TD*%
D12*
%TO.C,R601*%
X67368506Y-114971639D03*
D13*
X63477000Y-118237000D03*
%TD*%
D10*
%TO.C,U802*%
X60800000Y-107701000D03*
D11*
X60800000Y-105161000D03*
X53180000Y-105161000D03*
X53180000Y-107701000D03*
%TD*%
D14*
%TO.C,J302*%
X34925000Y-95631000D03*
D15*
X34925000Y-100711000D03*
X34925000Y-105791000D03*
%TD*%
D14*
%TO.C,J401*%
X100203000Y-90551000D03*
D15*
X100203000Y-85471000D03*
X100203000Y-80391000D03*
%TD*%
D12*
%TO.C,R1401*%
X68272494Y-82645361D03*
D16*
X72164000Y-79380000D03*
%TD*%
D12*
%TO.C,R1701*%
X68272494Y-97885361D03*
D16*
X72164000Y-94620000D03*
%TD*%
D12*
%TO.C,R701*%
X67368506Y-109891639D03*
D13*
X63477000Y-113157000D03*
%TD*%
D10*
%TO.C,U1702*%
X74841000Y-94996000D03*
D11*
X74841000Y-97536000D03*
X82461000Y-97536000D03*
X82461000Y-94996000D03*
%TD*%
D17*
%TO.C,J502*%
X67655500Y-64536000D03*
X56225500Y-64536000D03*
D18*
X66385500Y-70886000D03*
D19*
X65115500Y-73426000D03*
X63845500Y-70886000D03*
X62575500Y-73426000D03*
X61305500Y-70886000D03*
X60035500Y-73426000D03*
X58765500Y-70886000D03*
X57495500Y-73426000D03*
%TD*%
D12*
%TO.C,R1501*%
X68272494Y-87725361D03*
D16*
X72164000Y-84460000D03*
%TD*%
D12*
%TO.C,R1801*%
X68272494Y-102965361D03*
D16*
X72164000Y-99700000D03*
%TD*%
D10*
%TO.C,U1902*%
X74841000Y-105156000D03*
D11*
X74841000Y-107696000D03*
X82461000Y-107696000D03*
X82461000Y-105156000D03*
%TD*%
D12*
%TO.C,R2101*%
X68272494Y-118205361D03*
D16*
X72164000Y-114940000D03*
%TD*%
D12*
%TO.C,R1001*%
X67368506Y-94651639D03*
D13*
X63477000Y-97917000D03*
%TD*%
D14*
%TO.C,J403*%
X100203000Y-121031000D03*
D15*
X100203000Y-115951000D03*
X100203000Y-110871000D03*
%TD*%
D12*
%TO.C,R1101*%
X67368506Y-89571639D03*
D13*
X63477000Y-92837000D03*
%TD*%
D10*
%TO.C,U2102*%
X74841000Y-115316000D03*
D11*
X74841000Y-117856000D03*
X82461000Y-117856000D03*
X82461000Y-115316000D03*
%TD*%
D17*
%TO.C,J501*%
X99786500Y-64536000D03*
X88356500Y-64536000D03*
D18*
X98516500Y-70886000D03*
D19*
X97246500Y-73426000D03*
X95976500Y-70886000D03*
X94706500Y-73426000D03*
X93436500Y-70886000D03*
X92166500Y-73426000D03*
X90896500Y-70886000D03*
X89626500Y-73426000D03*
%TD*%
D10*
%TO.C,U1102*%
X60800000Y-92461000D03*
D11*
X60800000Y-89921000D03*
X53180000Y-89921000D03*
X53180000Y-92461000D03*
%TD*%
D10*
%TO.C,U1002*%
X60800000Y-97541000D03*
D11*
X60800000Y-95001000D03*
X53180000Y-95001000D03*
X53180000Y-97541000D03*
%TD*%
D12*
%TO.C,R901*%
X67368506Y-99731639D03*
D13*
X63477000Y-102997000D03*
%TD*%
D12*
%TO.C,R1601*%
X68272494Y-92805361D03*
D16*
X72164000Y-89540000D03*
%TD*%
D12*
%TO.C,R801*%
X67368506Y-104811639D03*
D13*
X63477000Y-108077000D03*
%TD*%
D12*
%TO.C,R1201*%
X67368506Y-84491639D03*
D13*
X63477000Y-87757000D03*
%TD*%
D10*
%TO.C,U1202*%
X60800000Y-87381000D03*
D11*
X60800000Y-84841000D03*
X53180000Y-84841000D03*
X53180000Y-87381000D03*
%TD*%
D10*
%TO.C,U902*%
X60800000Y-102621000D03*
D11*
X60800000Y-100081000D03*
X53180000Y-100081000D03*
X53180000Y-102621000D03*
%TD*%
D12*
%TO.C,R1901*%
X68272494Y-108045361D03*
D16*
X72164000Y-104780000D03*
%TD*%
D10*
%TO.C,U1802*%
X74841000Y-100076000D03*
D11*
X74841000Y-102616000D03*
X82461000Y-102616000D03*
X82461000Y-100076000D03*
%TD*%
D10*
%TO.C,A201*%
X43434000Y-87122000D03*
D11*
X43434000Y-89662000D03*
X43434000Y-92202000D03*
X43434000Y-94742000D03*
X43434000Y-97282000D03*
X43434000Y-99822000D03*
X43434000Y-102362000D03*
X43434000Y-104902000D03*
X43434000Y-109982000D03*
X43434000Y-112522000D03*
X43434000Y-115062000D03*
X43434000Y-117602000D03*
X43434000Y-120142000D03*
X43434000Y-122682000D03*
X91694000Y-122682000D03*
X91694000Y-120142000D03*
X91694000Y-117602000D03*
X91694000Y-115062000D03*
X91694000Y-112522000D03*
X91694000Y-109982000D03*
X91694000Y-107442000D03*
X91694000Y-104902000D03*
X91694000Y-100842000D03*
X91694000Y-98302000D03*
X91694000Y-95762000D03*
X91694000Y-93222000D03*
X91694000Y-90682000D03*
X91694000Y-88142000D03*
X91694000Y-85602000D03*
X91694000Y-83062000D03*
X91694000Y-80522000D03*
X91694000Y-77982000D03*
%TD*%
M02*
