%TF.GenerationSoftware,KiCad,Pcbnew,8.0.8*%
%TF.CreationDate,2025-02-01T23:36:58+01:00*%
%TF.ProjectId,pointControlPulse,706f696e-7443-46f6-9e74-726f6c50756c,rev?*%
%TF.SameCoordinates,Original*%
%TF.FileFunction,Copper,L1,Top*%
%TF.FilePolarity,Positive*%
%FSLAX46Y46*%
G04 Gerber Fmt 4.6, Leading zero omitted, Abs format (unit mm)*
G04 Created by KiCad (PCBNEW 8.0.8) date 2025-02-01 23:36:58*
%MOMM*%
%LPD*%
G01*
G04 APERTURE LIST*
G04 Aperture macros list*
%AMRoundRect*
0 Rectangle with rounded corners*
0 $1 Rounding radius*
0 $2 $3 $4 $5 $6 $7 $8 $9 X,Y pos of 4 corners*
0 Add a 4 corners polygon primitive as box body*
4,1,4,$2,$3,$4,$5,$6,$7,$8,$9,$2,$3,0*
0 Add four circle primitives for the rounded corners*
1,1,$1+$1,$2,$3*
1,1,$1+$1,$4,$5*
1,1,$1+$1,$6,$7*
1,1,$1+$1,$8,$9*
0 Add four rect primitives between the rounded corners*
20,1,$1+$1,$2,$3,$4,$5,0*
20,1,$1+$1,$4,$5,$6,$7,0*
20,1,$1+$1,$6,$7,$8,$9,0*
20,1,$1+$1,$8,$9,$2,$3,0*%
G04 Aperture macros list end*
%TA.AperFunction,ComponentPad*%
%ADD10R,1.500000X1.500000*%
%TD*%
%TA.AperFunction,ComponentPad*%
%ADD11O,1.500000X1.500000*%
%TD*%
%TA.AperFunction,ComponentPad*%
%ADD12R,1.800000X1.800000*%
%TD*%
%TA.AperFunction,ComponentPad*%
%ADD13C,1.800000*%
%TD*%
%TA.AperFunction,ComponentPad*%
%ADD14O,5.000000X3.200000*%
%TD*%
%TA.AperFunction,ComponentPad*%
%ADD15C,1.400000*%
%TD*%
%TA.AperFunction,ComponentPad*%
%ADD16O,1.400000X1.400000*%
%TD*%
%TA.AperFunction,ComponentPad*%
%ADD17RoundRect,0.250000X0.650000X1.550000X-0.650000X1.550000X-0.650000X-1.550000X0.650000X-1.550000X0*%
%TD*%
%TA.AperFunction,ComponentPad*%
%ADD18O,1.800000X3.600000*%
%TD*%
%TA.AperFunction,ViaPad*%
%ADD19C,0.800000*%
%TD*%
%TA.AperFunction,Conductor*%
%ADD20C,0.200000*%
%TD*%
%TA.AperFunction,Conductor*%
%ADD21C,1.000000*%
%TD*%
G04 APERTURE END LIST*
D10*
%TO.P,D8,1,K*%
%TO.N,Net-(D6-A)*%
X156591000Y-107447000D03*
D11*
%TO.P,D8,2,A*%
%TO.N,GND*%
X156591000Y-99827000D03*
%TD*%
D10*
%TO.P,D1,1,K*%
%TO.N,Net-(D1-K)*%
X154305000Y-107447000D03*
D11*
%TO.P,D1,2,A*%
%TO.N,GND*%
X154305000Y-99827000D03*
%TD*%
D12*
%TO.P,D3,1,K*%
%TO.N,GND*%
X170725000Y-107000000D03*
D13*
%TO.P,D3,2,A*%
%TO.N,Net-(D1-K)*%
X173265000Y-107000000D03*
%TD*%
D14*
%TO.P,SW1,1,A*%
%TO.N,/coil L*%
X164500000Y-107950000D03*
%TO.P,SW1,2,B*%
%TO.N,GND*%
X164500000Y-103500000D03*
%TO.P,SW1,3,C*%
%TO.N,/coil R*%
X164500000Y-99050000D03*
%TD*%
D12*
%TO.P,D6,1,K*%
%TO.N,GND*%
X170850000Y-100000000D03*
D13*
%TO.P,D6,2,A*%
%TO.N,Net-(D6-A)*%
X173390000Y-100000000D03*
%TD*%
D15*
%TO.P,R2,1*%
%TO.N,/coil R*%
X158750000Y-99822000D03*
D16*
%TO.P,R2,2*%
%TO.N,Net-(D6-A)*%
X158750000Y-107442000D03*
%TD*%
D15*
%TO.P,R1,1*%
%TO.N,/coil L*%
X152019000Y-99822000D03*
D16*
%TO.P,R1,2*%
%TO.N,Net-(D1-K)*%
X152019000Y-107442000D03*
%TD*%
D17*
%TO.P,J3,1,Pin_1*%
%TO.N,GND*%
X157607000Y-115323500D03*
D18*
%TO.P,J3,2,Pin_2*%
%TO.N,VCC*%
X154107000Y-115323500D03*
%TD*%
D17*
%TO.P,J2,1,Pin_1*%
%TO.N,/coil R*%
X168000000Y-115316000D03*
D18*
%TO.P,J2,2,Pin_2*%
%TO.N,VCC*%
X164500000Y-115316000D03*
%TO.P,J2,3,Pin_3*%
%TO.N,/coil L*%
X161000000Y-115316000D03*
%TD*%
D19*
%TO.N,VCC*%
X159800000Y-112014000D03*
X162941000Y-112014000D03*
%TD*%
D20*
%TO.N,Net-(D1-K)*%
X152781000Y-108971000D02*
X154305000Y-107447000D01*
X152019000Y-107442000D02*
X154300000Y-107442000D01*
X168877244Y-117423500D02*
X153364500Y-117423500D01*
X153364500Y-117423500D02*
X152781000Y-116840000D01*
X173265000Y-107000000D02*
X173265000Y-113035744D01*
X173265000Y-113035744D02*
X168877244Y-117423500D01*
X152781000Y-116840000D02*
X152781000Y-108971000D01*
X154300000Y-107442000D02*
X154305000Y-107447000D01*
D21*
%TO.N,VCC*%
X154107000Y-115323500D02*
X154107000Y-114323500D01*
X164500000Y-113573000D02*
X162941000Y-112014000D01*
X154107000Y-114323500D02*
X156416500Y-112014000D01*
X156416500Y-112014000D02*
X159800000Y-112014000D01*
X164500000Y-115316000D02*
X164500000Y-113573000D01*
D20*
%TO.N,Net-(D6-A)*%
X158745000Y-107447000D02*
X158750000Y-107442000D01*
X173390000Y-100000000D02*
X170540000Y-97150000D01*
X150900000Y-99441000D02*
X150900000Y-101756000D01*
X153191000Y-97150000D02*
X150900000Y-99441000D01*
X170540000Y-97150000D02*
X153191000Y-97150000D01*
X156591000Y-107447000D02*
X158745000Y-107447000D01*
X150900000Y-101756000D02*
X156591000Y-107447000D01*
%TO.N,/coil L*%
X157427000Y-100877000D02*
X164500000Y-107950000D01*
D21*
X161000000Y-115316000D02*
X161000000Y-110500000D01*
X161000000Y-110500000D02*
X163550000Y-107950000D01*
X163550000Y-107950000D02*
X164500000Y-107950000D01*
D20*
X153074000Y-100877000D02*
X157427000Y-100877000D01*
X152019000Y-99822000D02*
X153074000Y-100877000D01*
D21*
%TO.N,/coil R*%
X168148000Y-111000000D02*
X168000000Y-111148000D01*
X168000000Y-111148000D02*
X168000000Y-115316000D01*
X168148000Y-111000000D02*
X168148000Y-111379000D01*
D20*
X159522000Y-99050000D02*
X158750000Y-99822000D01*
X164500000Y-99050000D02*
X159522000Y-99050000D01*
D21*
X168148000Y-101981000D02*
X168148000Y-111000000D01*
X165217000Y-99050000D02*
X168148000Y-101981000D01*
X164500000Y-99050000D02*
X165217000Y-99050000D01*
%TD*%
M02*
