%TF.GenerationSoftware,KiCad,Pcbnew,8.0.8*%
%TF.CreationDate,2025-02-01T23:36:58+01:00*%
%TF.ProjectId,pointControlPulse,706f696e-7443-46f6-9e74-726f6c50756c,rev?*%
%TF.SameCoordinates,Original*%
%TF.FileFunction,Legend,Bot*%
%TF.FilePolarity,Positive*%
%FSLAX46Y46*%
G04 Gerber Fmt 4.6, Leading zero omitted, Abs format (unit mm)*
G04 Created by KiCad (PCBNEW 8.0.8) date 2025-02-01 23:36:58*
%MOMM*%
%LPD*%
G01*
G04 APERTURE LIST*
G04 Aperture macros list*
%AMRoundRect*
0 Rectangle with rounded corners*
0 $1 Rounding radius*
0 $2 $3 $4 $5 $6 $7 $8 $9 X,Y pos of 4 corners*
0 Add a 4 corners polygon primitive as box body*
4,1,4,$2,$3,$4,$5,$6,$7,$8,$9,$2,$3,0*
0 Add four circle primitives for the rounded corners*
1,1,$1+$1,$2,$3*
1,1,$1+$1,$4,$5*
1,1,$1+$1,$6,$7*
1,1,$1+$1,$8,$9*
0 Add four rect primitives between the rounded corners*
20,1,$1+$1,$2,$3,$4,$5,0*
20,1,$1+$1,$4,$5,$6,$7,0*
20,1,$1+$1,$6,$7,$8,$9,0*
20,1,$1+$1,$8,$9,$2,$3,0*%
G04 Aperture macros list end*
%ADD10C,0.150000*%
%ADD11C,0.120000*%
%ADD12R,1.500000X1.500000*%
%ADD13O,1.500000X1.500000*%
%ADD14R,1.800000X1.800000*%
%ADD15C,1.800000*%
%ADD16O,5.000000X3.200000*%
%ADD17C,1.400000*%
%ADD18O,1.400000X1.400000*%
%ADD19RoundRect,0.250000X0.650000X1.550000X-0.650000X1.550000X-0.650000X-1.550000X0.650000X-1.550000X0*%
%ADD20O,1.800000X3.600000*%
G04 APERTURE END LIST*
D10*
X167941190Y-110566200D02*
X168036428Y-110613819D01*
X168036428Y-110613819D02*
X168226904Y-110613819D01*
X168226904Y-110613819D02*
X168322142Y-110566200D01*
X168322142Y-110566200D02*
X168369761Y-110518580D01*
X168369761Y-110518580D02*
X168417380Y-110423342D01*
X168417380Y-110423342D02*
X168417380Y-110137628D01*
X168417380Y-110137628D02*
X168369761Y-110042390D01*
X168369761Y-110042390D02*
X168322142Y-109994771D01*
X168322142Y-109994771D02*
X168226904Y-109947152D01*
X168226904Y-109947152D02*
X168036428Y-109947152D01*
X168036428Y-109947152D02*
X167941190Y-109994771D01*
X167369761Y-110613819D02*
X167464999Y-110566200D01*
X167464999Y-110566200D02*
X167512618Y-110518580D01*
X167512618Y-110518580D02*
X167560237Y-110423342D01*
X167560237Y-110423342D02*
X167560237Y-110137628D01*
X167560237Y-110137628D02*
X167512618Y-110042390D01*
X167512618Y-110042390D02*
X167464999Y-109994771D01*
X167464999Y-109994771D02*
X167369761Y-109947152D01*
X167369761Y-109947152D02*
X167226904Y-109947152D01*
X167226904Y-109947152D02*
X167131666Y-109994771D01*
X167131666Y-109994771D02*
X167084047Y-110042390D01*
X167084047Y-110042390D02*
X167036428Y-110137628D01*
X167036428Y-110137628D02*
X167036428Y-110423342D01*
X167036428Y-110423342D02*
X167084047Y-110518580D01*
X167084047Y-110518580D02*
X167131666Y-110566200D01*
X167131666Y-110566200D02*
X167226904Y-110613819D01*
X167226904Y-110613819D02*
X167369761Y-110613819D01*
X166607856Y-110613819D02*
X166607856Y-109947152D01*
X166607856Y-109613819D02*
X166655475Y-109661438D01*
X166655475Y-109661438D02*
X166607856Y-109709057D01*
X166607856Y-109709057D02*
X166560237Y-109661438D01*
X166560237Y-109661438D02*
X166607856Y-109613819D01*
X166607856Y-109613819D02*
X166607856Y-109709057D01*
X165988809Y-110613819D02*
X166084047Y-110566200D01*
X166084047Y-110566200D02*
X166131666Y-110470961D01*
X166131666Y-110470961D02*
X166131666Y-109613819D01*
X164845951Y-110232866D02*
X164084047Y-110232866D01*
X164464999Y-110613819D02*
X164464999Y-109851914D01*
X162417380Y-110566200D02*
X162512618Y-110613819D01*
X162512618Y-110613819D02*
X162703094Y-110613819D01*
X162703094Y-110613819D02*
X162798332Y-110566200D01*
X162798332Y-110566200D02*
X162845951Y-110518580D01*
X162845951Y-110518580D02*
X162893570Y-110423342D01*
X162893570Y-110423342D02*
X162893570Y-110137628D01*
X162893570Y-110137628D02*
X162845951Y-110042390D01*
X162845951Y-110042390D02*
X162798332Y-109994771D01*
X162798332Y-109994771D02*
X162703094Y-109947152D01*
X162703094Y-109947152D02*
X162512618Y-109947152D01*
X162512618Y-109947152D02*
X162417380Y-109994771D01*
X161845951Y-110613819D02*
X161941189Y-110566200D01*
X161941189Y-110566200D02*
X161988808Y-110518580D01*
X161988808Y-110518580D02*
X162036427Y-110423342D01*
X162036427Y-110423342D02*
X162036427Y-110137628D01*
X162036427Y-110137628D02*
X161988808Y-110042390D01*
X161988808Y-110042390D02*
X161941189Y-109994771D01*
X161941189Y-109994771D02*
X161845951Y-109947152D01*
X161845951Y-109947152D02*
X161703094Y-109947152D01*
X161703094Y-109947152D02*
X161607856Y-109994771D01*
X161607856Y-109994771D02*
X161560237Y-110042390D01*
X161560237Y-110042390D02*
X161512618Y-110137628D01*
X161512618Y-110137628D02*
X161512618Y-110423342D01*
X161512618Y-110423342D02*
X161560237Y-110518580D01*
X161560237Y-110518580D02*
X161607856Y-110566200D01*
X161607856Y-110566200D02*
X161703094Y-110613819D01*
X161703094Y-110613819D02*
X161845951Y-110613819D01*
X161084046Y-110613819D02*
X161084046Y-109947152D01*
X161084046Y-109613819D02*
X161131665Y-109661438D01*
X161131665Y-109661438D02*
X161084046Y-109709057D01*
X161084046Y-109709057D02*
X161036427Y-109661438D01*
X161036427Y-109661438D02*
X161084046Y-109613819D01*
X161084046Y-109613819D02*
X161084046Y-109709057D01*
X160464999Y-110613819D02*
X160560237Y-110566200D01*
X160560237Y-110566200D02*
X160607856Y-110470961D01*
X160607856Y-110470961D02*
X160607856Y-109613819D01*
X157460744Y-109359819D02*
X157365506Y-109359819D01*
X157365506Y-109359819D02*
X157270268Y-109407438D01*
X157270268Y-109407438D02*
X157222649Y-109455057D01*
X157222649Y-109455057D02*
X157175030Y-109550295D01*
X157175030Y-109550295D02*
X157127411Y-109740771D01*
X157127411Y-109740771D02*
X157127411Y-109978866D01*
X157127411Y-109978866D02*
X157175030Y-110169342D01*
X157175030Y-110169342D02*
X157222649Y-110264580D01*
X157222649Y-110264580D02*
X157270268Y-110312200D01*
X157270268Y-110312200D02*
X157365506Y-110359819D01*
X157365506Y-110359819D02*
X157460744Y-110359819D01*
X157460744Y-110359819D02*
X157555982Y-110312200D01*
X157555982Y-110312200D02*
X157603601Y-110264580D01*
X157603601Y-110264580D02*
X157651220Y-110169342D01*
X157651220Y-110169342D02*
X157698839Y-109978866D01*
X157698839Y-109978866D02*
X157698839Y-109740771D01*
X157698839Y-109740771D02*
X157651220Y-109550295D01*
X157651220Y-109550295D02*
X157603601Y-109455057D01*
X157603601Y-109455057D02*
X157555982Y-109407438D01*
X157555982Y-109407438D02*
X157460744Y-109359819D01*
X160953220Y-102186931D02*
X160953220Y-101186931D01*
X160953220Y-101186931D02*
X160572268Y-101186931D01*
X160572268Y-101186931D02*
X160477030Y-101234550D01*
X160477030Y-101234550D02*
X160429411Y-101282169D01*
X160429411Y-101282169D02*
X160381792Y-101377407D01*
X160381792Y-101377407D02*
X160381792Y-101520264D01*
X160381792Y-101520264D02*
X160429411Y-101615502D01*
X160429411Y-101615502D02*
X160477030Y-101663121D01*
X160477030Y-101663121D02*
X160572268Y-101710740D01*
X160572268Y-101710740D02*
X160953220Y-101710740D01*
X159810363Y-102186931D02*
X159905601Y-102139312D01*
X159905601Y-102139312D02*
X159953220Y-102091692D01*
X159953220Y-102091692D02*
X160000839Y-101996454D01*
X160000839Y-101996454D02*
X160000839Y-101710740D01*
X160000839Y-101710740D02*
X159953220Y-101615502D01*
X159953220Y-101615502D02*
X159905601Y-101567883D01*
X159905601Y-101567883D02*
X159810363Y-101520264D01*
X159810363Y-101520264D02*
X159667506Y-101520264D01*
X159667506Y-101520264D02*
X159572268Y-101567883D01*
X159572268Y-101567883D02*
X159524649Y-101615502D01*
X159524649Y-101615502D02*
X159477030Y-101710740D01*
X159477030Y-101710740D02*
X159477030Y-101996454D01*
X159477030Y-101996454D02*
X159524649Y-102091692D01*
X159524649Y-102091692D02*
X159572268Y-102139312D01*
X159572268Y-102139312D02*
X159667506Y-102186931D01*
X159667506Y-102186931D02*
X159810363Y-102186931D01*
X159048458Y-102186931D02*
X159048458Y-101520264D01*
X159048458Y-101186931D02*
X159096077Y-101234550D01*
X159096077Y-101234550D02*
X159048458Y-101282169D01*
X159048458Y-101282169D02*
X159000839Y-101234550D01*
X159000839Y-101234550D02*
X159048458Y-101186931D01*
X159048458Y-101186931D02*
X159048458Y-101282169D01*
X158572268Y-101520264D02*
X158572268Y-102186931D01*
X158572268Y-101615502D02*
X158524649Y-101567883D01*
X158524649Y-101567883D02*
X158429411Y-101520264D01*
X158429411Y-101520264D02*
X158286554Y-101520264D01*
X158286554Y-101520264D02*
X158191316Y-101567883D01*
X158191316Y-101567883D02*
X158143697Y-101663121D01*
X158143697Y-101663121D02*
X158143697Y-102186931D01*
X157810363Y-101520264D02*
X157429411Y-101520264D01*
X157667506Y-101186931D02*
X157667506Y-102044073D01*
X157667506Y-102044073D02*
X157619887Y-102139312D01*
X157619887Y-102139312D02*
X157524649Y-102186931D01*
X157524649Y-102186931D02*
X157429411Y-102186931D01*
X155762744Y-102091692D02*
X155810363Y-102139312D01*
X155810363Y-102139312D02*
X155953220Y-102186931D01*
X155953220Y-102186931D02*
X156048458Y-102186931D01*
X156048458Y-102186931D02*
X156191315Y-102139312D01*
X156191315Y-102139312D02*
X156286553Y-102044073D01*
X156286553Y-102044073D02*
X156334172Y-101948835D01*
X156334172Y-101948835D02*
X156381791Y-101758359D01*
X156381791Y-101758359D02*
X156381791Y-101615502D01*
X156381791Y-101615502D02*
X156334172Y-101425026D01*
X156334172Y-101425026D02*
X156286553Y-101329788D01*
X156286553Y-101329788D02*
X156191315Y-101234550D01*
X156191315Y-101234550D02*
X156048458Y-101186931D01*
X156048458Y-101186931D02*
X155953220Y-101186931D01*
X155953220Y-101186931D02*
X155810363Y-101234550D01*
X155810363Y-101234550D02*
X155762744Y-101282169D01*
X155191315Y-102186931D02*
X155286553Y-102139312D01*
X155286553Y-102139312D02*
X155334172Y-102091692D01*
X155334172Y-102091692D02*
X155381791Y-101996454D01*
X155381791Y-101996454D02*
X155381791Y-101710740D01*
X155381791Y-101710740D02*
X155334172Y-101615502D01*
X155334172Y-101615502D02*
X155286553Y-101567883D01*
X155286553Y-101567883D02*
X155191315Y-101520264D01*
X155191315Y-101520264D02*
X155048458Y-101520264D01*
X155048458Y-101520264D02*
X154953220Y-101567883D01*
X154953220Y-101567883D02*
X154905601Y-101615502D01*
X154905601Y-101615502D02*
X154857982Y-101710740D01*
X154857982Y-101710740D02*
X154857982Y-101996454D01*
X154857982Y-101996454D02*
X154905601Y-102091692D01*
X154905601Y-102091692D02*
X154953220Y-102139312D01*
X154953220Y-102139312D02*
X155048458Y-102186931D01*
X155048458Y-102186931D02*
X155191315Y-102186931D01*
X154429410Y-101520264D02*
X154429410Y-102186931D01*
X154429410Y-101615502D02*
X154381791Y-101567883D01*
X154381791Y-101567883D02*
X154286553Y-101520264D01*
X154286553Y-101520264D02*
X154143696Y-101520264D01*
X154143696Y-101520264D02*
X154048458Y-101567883D01*
X154048458Y-101567883D02*
X154000839Y-101663121D01*
X154000839Y-101663121D02*
X154000839Y-102186931D01*
X153667505Y-101520264D02*
X153286553Y-101520264D01*
X153524648Y-101186931D02*
X153524648Y-102044073D01*
X153524648Y-102044073D02*
X153477029Y-102139312D01*
X153477029Y-102139312D02*
X153381791Y-102186931D01*
X153381791Y-102186931D02*
X153286553Y-102186931D01*
X152953219Y-102186931D02*
X152953219Y-101520264D01*
X152953219Y-101710740D02*
X152905600Y-101615502D01*
X152905600Y-101615502D02*
X152857981Y-101567883D01*
X152857981Y-101567883D02*
X152762743Y-101520264D01*
X152762743Y-101520264D02*
X152667505Y-101520264D01*
X152191314Y-102186931D02*
X152286552Y-102139312D01*
X152286552Y-102139312D02*
X152334171Y-102091692D01*
X152334171Y-102091692D02*
X152381790Y-101996454D01*
X152381790Y-101996454D02*
X152381790Y-101710740D01*
X152381790Y-101710740D02*
X152334171Y-101615502D01*
X152334171Y-101615502D02*
X152286552Y-101567883D01*
X152286552Y-101567883D02*
X152191314Y-101520264D01*
X152191314Y-101520264D02*
X152048457Y-101520264D01*
X152048457Y-101520264D02*
X151953219Y-101567883D01*
X151953219Y-101567883D02*
X151905600Y-101615502D01*
X151905600Y-101615502D02*
X151857981Y-101710740D01*
X151857981Y-101710740D02*
X151857981Y-101996454D01*
X151857981Y-101996454D02*
X151905600Y-102091692D01*
X151905600Y-102091692D02*
X151953219Y-102139312D01*
X151953219Y-102139312D02*
X152048457Y-102186931D01*
X152048457Y-102186931D02*
X152191314Y-102186931D01*
X151286552Y-102186931D02*
X151381790Y-102139312D01*
X151381790Y-102139312D02*
X151429409Y-102044073D01*
X151429409Y-102044073D02*
X151429409Y-101186931D01*
X160953220Y-103796875D02*
X160953220Y-102796875D01*
X160953220Y-102796875D02*
X160572268Y-102796875D01*
X160572268Y-102796875D02*
X160477030Y-102844494D01*
X160477030Y-102844494D02*
X160429411Y-102892113D01*
X160429411Y-102892113D02*
X160381792Y-102987351D01*
X160381792Y-102987351D02*
X160381792Y-103130208D01*
X160381792Y-103130208D02*
X160429411Y-103225446D01*
X160429411Y-103225446D02*
X160477030Y-103273065D01*
X160477030Y-103273065D02*
X160572268Y-103320684D01*
X160572268Y-103320684D02*
X160953220Y-103320684D01*
X159524649Y-103130208D02*
X159524649Y-103796875D01*
X159953220Y-103130208D02*
X159953220Y-103654017D01*
X159953220Y-103654017D02*
X159905601Y-103749256D01*
X159905601Y-103749256D02*
X159810363Y-103796875D01*
X159810363Y-103796875D02*
X159667506Y-103796875D01*
X159667506Y-103796875D02*
X159572268Y-103749256D01*
X159572268Y-103749256D02*
X159524649Y-103701636D01*
X158905601Y-103796875D02*
X159000839Y-103749256D01*
X159000839Y-103749256D02*
X159048458Y-103654017D01*
X159048458Y-103654017D02*
X159048458Y-102796875D01*
X158572267Y-103749256D02*
X158477029Y-103796875D01*
X158477029Y-103796875D02*
X158286553Y-103796875D01*
X158286553Y-103796875D02*
X158191315Y-103749256D01*
X158191315Y-103749256D02*
X158143696Y-103654017D01*
X158143696Y-103654017D02*
X158143696Y-103606398D01*
X158143696Y-103606398D02*
X158191315Y-103511160D01*
X158191315Y-103511160D02*
X158286553Y-103463541D01*
X158286553Y-103463541D02*
X158429410Y-103463541D01*
X158429410Y-103463541D02*
X158524648Y-103415922D01*
X158524648Y-103415922D02*
X158572267Y-103320684D01*
X158572267Y-103320684D02*
X158572267Y-103273065D01*
X158572267Y-103273065D02*
X158524648Y-103177827D01*
X158524648Y-103177827D02*
X158429410Y-103130208D01*
X158429410Y-103130208D02*
X158286553Y-103130208D01*
X158286553Y-103130208D02*
X158191315Y-103177827D01*
X157334172Y-103749256D02*
X157429410Y-103796875D01*
X157429410Y-103796875D02*
X157619886Y-103796875D01*
X157619886Y-103796875D02*
X157715124Y-103749256D01*
X157715124Y-103749256D02*
X157762743Y-103654017D01*
X157762743Y-103654017D02*
X157762743Y-103273065D01*
X157762743Y-103273065D02*
X157715124Y-103177827D01*
X157715124Y-103177827D02*
X157619886Y-103130208D01*
X157619886Y-103130208D02*
X157429410Y-103130208D01*
X157429410Y-103130208D02*
X157334172Y-103177827D01*
X157334172Y-103177827D02*
X157286553Y-103273065D01*
X157286553Y-103273065D02*
X157286553Y-103368303D01*
X157286553Y-103368303D02*
X157762743Y-103463541D01*
X161048458Y-104740152D02*
X160857982Y-105406819D01*
X160857982Y-105406819D02*
X160667506Y-104930628D01*
X160667506Y-104930628D02*
X160477030Y-105406819D01*
X160477030Y-105406819D02*
X160286554Y-104740152D01*
X158810363Y-104883009D02*
X159143696Y-104883009D01*
X159143696Y-105406819D02*
X159143696Y-104406819D01*
X159143696Y-104406819D02*
X158667506Y-104406819D01*
X157905601Y-105359200D02*
X158000839Y-105406819D01*
X158000839Y-105406819D02*
X158191315Y-105406819D01*
X158191315Y-105406819D02*
X158286553Y-105359200D01*
X158286553Y-105359200D02*
X158334172Y-105263961D01*
X158334172Y-105263961D02*
X158334172Y-104883009D01*
X158334172Y-104883009D02*
X158286553Y-104787771D01*
X158286553Y-104787771D02*
X158191315Y-104740152D01*
X158191315Y-104740152D02*
X158000839Y-104740152D01*
X158000839Y-104740152D02*
X157905601Y-104787771D01*
X157905601Y-104787771D02*
X157857982Y-104883009D01*
X157857982Y-104883009D02*
X157857982Y-104978247D01*
X157857982Y-104978247D02*
X158334172Y-105073485D01*
X157048458Y-105359200D02*
X157143696Y-105406819D01*
X157143696Y-105406819D02*
X157334172Y-105406819D01*
X157334172Y-105406819D02*
X157429410Y-105359200D01*
X157429410Y-105359200D02*
X157477029Y-105263961D01*
X157477029Y-105263961D02*
X157477029Y-104883009D01*
X157477029Y-104883009D02*
X157429410Y-104787771D01*
X157429410Y-104787771D02*
X157334172Y-104740152D01*
X157334172Y-104740152D02*
X157143696Y-104740152D01*
X157143696Y-104740152D02*
X157048458Y-104787771D01*
X157048458Y-104787771D02*
X157000839Y-104883009D01*
X157000839Y-104883009D02*
X157000839Y-104978247D01*
X157000839Y-104978247D02*
X157477029Y-105073485D01*
X156143696Y-105406819D02*
X156143696Y-104406819D01*
X156143696Y-105359200D02*
X156238934Y-105406819D01*
X156238934Y-105406819D02*
X156429410Y-105406819D01*
X156429410Y-105406819D02*
X156524648Y-105359200D01*
X156524648Y-105359200D02*
X156572267Y-105311580D01*
X156572267Y-105311580D02*
X156619886Y-105216342D01*
X156619886Y-105216342D02*
X156619886Y-104930628D01*
X156619886Y-104930628D02*
X156572267Y-104835390D01*
X156572267Y-104835390D02*
X156524648Y-104787771D01*
X156524648Y-104787771D02*
X156429410Y-104740152D01*
X156429410Y-104740152D02*
X156238934Y-104740152D01*
X156238934Y-104740152D02*
X156143696Y-104787771D01*
X155667505Y-105406819D02*
X155667505Y-104406819D01*
X155667505Y-104787771D02*
X155572267Y-104740152D01*
X155572267Y-104740152D02*
X155381791Y-104740152D01*
X155381791Y-104740152D02*
X155286553Y-104787771D01*
X155286553Y-104787771D02*
X155238934Y-104835390D01*
X155238934Y-104835390D02*
X155191315Y-104930628D01*
X155191315Y-104930628D02*
X155191315Y-105216342D01*
X155191315Y-105216342D02*
X155238934Y-105311580D01*
X155238934Y-105311580D02*
X155286553Y-105359200D01*
X155286553Y-105359200D02*
X155381791Y-105406819D01*
X155381791Y-105406819D02*
X155572267Y-105406819D01*
X155572267Y-105406819D02*
X155667505Y-105359200D01*
X154334172Y-105406819D02*
X154334172Y-104883009D01*
X154334172Y-104883009D02*
X154381791Y-104787771D01*
X154381791Y-104787771D02*
X154477029Y-104740152D01*
X154477029Y-104740152D02*
X154667505Y-104740152D01*
X154667505Y-104740152D02*
X154762743Y-104787771D01*
X154334172Y-105359200D02*
X154429410Y-105406819D01*
X154429410Y-105406819D02*
X154667505Y-105406819D01*
X154667505Y-105406819D02*
X154762743Y-105359200D01*
X154762743Y-105359200D02*
X154810362Y-105263961D01*
X154810362Y-105263961D02*
X154810362Y-105168723D01*
X154810362Y-105168723D02*
X154762743Y-105073485D01*
X154762743Y-105073485D02*
X154667505Y-105025866D01*
X154667505Y-105025866D02*
X154429410Y-105025866D01*
X154429410Y-105025866D02*
X154334172Y-104978247D01*
X153429410Y-105359200D02*
X153524648Y-105406819D01*
X153524648Y-105406819D02*
X153715124Y-105406819D01*
X153715124Y-105406819D02*
X153810362Y-105359200D01*
X153810362Y-105359200D02*
X153857981Y-105311580D01*
X153857981Y-105311580D02*
X153905600Y-105216342D01*
X153905600Y-105216342D02*
X153905600Y-104930628D01*
X153905600Y-104930628D02*
X153857981Y-104835390D01*
X153857981Y-104835390D02*
X153810362Y-104787771D01*
X153810362Y-104787771D02*
X153715124Y-104740152D01*
X153715124Y-104740152D02*
X153524648Y-104740152D01*
X153524648Y-104740152D02*
X153429410Y-104787771D01*
X153000838Y-105406819D02*
X153000838Y-104406819D01*
X152905600Y-105025866D02*
X152619886Y-105406819D01*
X152619886Y-104740152D02*
X153000838Y-105121104D01*
X161477077Y-96913819D02*
X160905649Y-96913819D01*
X161191363Y-97913819D02*
X161191363Y-96913819D01*
X160572315Y-97913819D02*
X160572315Y-97247152D01*
X160572315Y-97437628D02*
X160524696Y-97342390D01*
X160524696Y-97342390D02*
X160477077Y-97294771D01*
X160477077Y-97294771D02*
X160381839Y-97247152D01*
X160381839Y-97247152D02*
X160286601Y-97247152D01*
X159524696Y-97913819D02*
X159524696Y-97390009D01*
X159524696Y-97390009D02*
X159572315Y-97294771D01*
X159572315Y-97294771D02*
X159667553Y-97247152D01*
X159667553Y-97247152D02*
X159858029Y-97247152D01*
X159858029Y-97247152D02*
X159953267Y-97294771D01*
X159524696Y-97866200D02*
X159619934Y-97913819D01*
X159619934Y-97913819D02*
X159858029Y-97913819D01*
X159858029Y-97913819D02*
X159953267Y-97866200D01*
X159953267Y-97866200D02*
X160000886Y-97770961D01*
X160000886Y-97770961D02*
X160000886Y-97675723D01*
X160000886Y-97675723D02*
X159953267Y-97580485D01*
X159953267Y-97580485D02*
X159858029Y-97532866D01*
X159858029Y-97532866D02*
X159619934Y-97532866D01*
X159619934Y-97532866D02*
X159524696Y-97485247D01*
X159048505Y-97913819D02*
X159048505Y-97247152D01*
X159048505Y-96913819D02*
X159096124Y-96961438D01*
X159096124Y-96961438D02*
X159048505Y-97009057D01*
X159048505Y-97009057D02*
X159000886Y-96961438D01*
X159000886Y-96961438D02*
X159048505Y-96913819D01*
X159048505Y-96913819D02*
X159048505Y-97009057D01*
X158572315Y-97247152D02*
X158572315Y-97913819D01*
X158572315Y-97342390D02*
X158524696Y-97294771D01*
X158524696Y-97294771D02*
X158429458Y-97247152D01*
X158429458Y-97247152D02*
X158286601Y-97247152D01*
X158286601Y-97247152D02*
X158191363Y-97294771D01*
X158191363Y-97294771D02*
X158143744Y-97390009D01*
X158143744Y-97390009D02*
X158143744Y-97913819D01*
X157667553Y-97532866D02*
X156905649Y-97532866D01*
X156477077Y-97866200D02*
X156334220Y-97913819D01*
X156334220Y-97913819D02*
X156096125Y-97913819D01*
X156096125Y-97913819D02*
X156000887Y-97866200D01*
X156000887Y-97866200D02*
X155953268Y-97818580D01*
X155953268Y-97818580D02*
X155905649Y-97723342D01*
X155905649Y-97723342D02*
X155905649Y-97628104D01*
X155905649Y-97628104D02*
X155953268Y-97532866D01*
X155953268Y-97532866D02*
X156000887Y-97485247D01*
X156000887Y-97485247D02*
X156096125Y-97437628D01*
X156096125Y-97437628D02*
X156286601Y-97390009D01*
X156286601Y-97390009D02*
X156381839Y-97342390D01*
X156381839Y-97342390D02*
X156429458Y-97294771D01*
X156429458Y-97294771D02*
X156477077Y-97199533D01*
X156477077Y-97199533D02*
X156477077Y-97104295D01*
X156477077Y-97104295D02*
X156429458Y-97009057D01*
X156429458Y-97009057D02*
X156381839Y-96961438D01*
X156381839Y-96961438D02*
X156286601Y-96913819D01*
X156286601Y-96913819D02*
X156048506Y-96913819D01*
X156048506Y-96913819D02*
X155905649Y-96961438D01*
X155048506Y-97866200D02*
X155143744Y-97913819D01*
X155143744Y-97913819D02*
X155334220Y-97913819D01*
X155334220Y-97913819D02*
X155429458Y-97866200D01*
X155429458Y-97866200D02*
X155477077Y-97818580D01*
X155477077Y-97818580D02*
X155524696Y-97723342D01*
X155524696Y-97723342D02*
X155524696Y-97437628D01*
X155524696Y-97437628D02*
X155477077Y-97342390D01*
X155477077Y-97342390D02*
X155429458Y-97294771D01*
X155429458Y-97294771D02*
X155334220Y-97247152D01*
X155334220Y-97247152D02*
X155143744Y-97247152D01*
X155143744Y-97247152D02*
X155048506Y-97294771D01*
X154619934Y-97913819D02*
X154619934Y-97247152D01*
X154619934Y-96913819D02*
X154667553Y-96961438D01*
X154667553Y-96961438D02*
X154619934Y-97009057D01*
X154619934Y-97009057D02*
X154572315Y-96961438D01*
X154572315Y-96961438D02*
X154619934Y-96913819D01*
X154619934Y-96913819D02*
X154619934Y-97009057D01*
X153762792Y-97866200D02*
X153858030Y-97913819D01*
X153858030Y-97913819D02*
X154048506Y-97913819D01*
X154048506Y-97913819D02*
X154143744Y-97866200D01*
X154143744Y-97866200D02*
X154191363Y-97770961D01*
X154191363Y-97770961D02*
X154191363Y-97390009D01*
X154191363Y-97390009D02*
X154143744Y-97294771D01*
X154143744Y-97294771D02*
X154048506Y-97247152D01*
X154048506Y-97247152D02*
X153858030Y-97247152D01*
X153858030Y-97247152D02*
X153762792Y-97294771D01*
X153762792Y-97294771D02*
X153715173Y-97390009D01*
X153715173Y-97390009D02*
X153715173Y-97485247D01*
X153715173Y-97485247D02*
X154191363Y-97580485D01*
X153286601Y-97247152D02*
X153286601Y-97913819D01*
X153286601Y-97342390D02*
X153238982Y-97294771D01*
X153238982Y-97294771D02*
X153143744Y-97247152D01*
X153143744Y-97247152D02*
X153000887Y-97247152D01*
X153000887Y-97247152D02*
X152905649Y-97294771D01*
X152905649Y-97294771D02*
X152858030Y-97390009D01*
X152858030Y-97390009D02*
X152858030Y-97913819D01*
X151953268Y-97866200D02*
X152048506Y-97913819D01*
X152048506Y-97913819D02*
X152238982Y-97913819D01*
X152238982Y-97913819D02*
X152334220Y-97866200D01*
X152334220Y-97866200D02*
X152381839Y-97818580D01*
X152381839Y-97818580D02*
X152429458Y-97723342D01*
X152429458Y-97723342D02*
X152429458Y-97437628D01*
X152429458Y-97437628D02*
X152381839Y-97342390D01*
X152381839Y-97342390D02*
X152334220Y-97294771D01*
X152334220Y-97294771D02*
X152238982Y-97247152D01*
X152238982Y-97247152D02*
X152048506Y-97247152D01*
X152048506Y-97247152D02*
X151953268Y-97294771D01*
X151143744Y-97866200D02*
X151238982Y-97913819D01*
X151238982Y-97913819D02*
X151429458Y-97913819D01*
X151429458Y-97913819D02*
X151524696Y-97866200D01*
X151524696Y-97866200D02*
X151572315Y-97770961D01*
X151572315Y-97770961D02*
X151572315Y-97390009D01*
X151572315Y-97390009D02*
X151524696Y-97294771D01*
X151524696Y-97294771D02*
X151429458Y-97247152D01*
X151429458Y-97247152D02*
X151238982Y-97247152D01*
X151238982Y-97247152D02*
X151143744Y-97294771D01*
X151143744Y-97294771D02*
X151096125Y-97390009D01*
X151096125Y-97390009D02*
X151096125Y-97485247D01*
X151096125Y-97485247D02*
X151572315Y-97580485D01*
X154015887Y-109836009D02*
X153873030Y-109883628D01*
X153873030Y-109883628D02*
X153825411Y-109931247D01*
X153825411Y-109931247D02*
X153777792Y-110026485D01*
X153777792Y-110026485D02*
X153777792Y-110169342D01*
X153777792Y-110169342D02*
X153825411Y-110264580D01*
X153825411Y-110264580D02*
X153873030Y-110312200D01*
X153873030Y-110312200D02*
X153968268Y-110359819D01*
X153968268Y-110359819D02*
X154349220Y-110359819D01*
X154349220Y-110359819D02*
X154349220Y-109359819D01*
X154349220Y-109359819D02*
X154015887Y-109359819D01*
X154015887Y-109359819D02*
X153920649Y-109407438D01*
X153920649Y-109407438D02*
X153873030Y-109455057D01*
X153873030Y-109455057D02*
X153825411Y-109550295D01*
X153825411Y-109550295D02*
X153825411Y-109645533D01*
X153825411Y-109645533D02*
X153873030Y-109740771D01*
X153873030Y-109740771D02*
X153920649Y-109788390D01*
X153920649Y-109788390D02*
X154015887Y-109836009D01*
X154015887Y-109836009D02*
X154349220Y-109836009D01*
D11*
%TO.C,J3*%
X151547000Y-110963500D02*
X151547000Y-118433500D01*
X151547000Y-118433500D02*
X160167000Y-118433500D01*
X152607000Y-111923500D02*
X155607000Y-111923500D01*
X152607000Y-113273500D02*
X153357000Y-113273500D01*
X152607000Y-117573500D02*
X152607000Y-113273500D01*
X152857000Y-112923500D02*
X152607000Y-111923500D01*
X153357000Y-112923500D02*
X152857000Y-112923500D01*
X153357000Y-113273500D02*
X153357000Y-112923500D01*
X153357000Y-117573500D02*
X152607000Y-117573500D01*
X154857000Y-112923500D02*
X154857000Y-113273500D01*
X154857000Y-113273500D02*
X155607000Y-113273500D01*
X155357000Y-112923500D02*
X154857000Y-112923500D01*
X155607000Y-111923500D02*
X155357000Y-112923500D01*
X155607000Y-113273500D02*
X155607000Y-117573500D01*
X155607000Y-117573500D02*
X154857000Y-117573500D01*
X156107000Y-111923500D02*
X159107000Y-111923500D01*
X156107000Y-113273500D02*
X156857000Y-113273500D01*
X156107000Y-117573500D02*
X156107000Y-113273500D01*
X156357000Y-112923500D02*
X156107000Y-111923500D01*
X156857000Y-112923500D02*
X156357000Y-112923500D01*
X156857000Y-113273500D02*
X156857000Y-112923500D01*
X156857000Y-117573500D02*
X156107000Y-117573500D01*
X158357000Y-112923500D02*
X158357000Y-113273500D01*
X158357000Y-113273500D02*
X159107000Y-113273500D01*
X158557000Y-110573500D02*
X160557000Y-110573500D01*
X158857000Y-112923500D02*
X158357000Y-112923500D01*
X159107000Y-111923500D02*
X158857000Y-112923500D01*
X159107000Y-113273500D02*
X159107000Y-117573500D01*
X159107000Y-117573500D02*
X158357000Y-117573500D01*
X160167000Y-110963500D02*
X151547000Y-110963500D01*
X160167000Y-118433500D02*
X160167000Y-110963500D01*
X160557000Y-110573500D02*
X160557000Y-111823500D01*
X153357353Y-117573344D02*
G75*
G02*
X154857000Y-117573500I749647J-1700156D01*
G01*
X156857353Y-117573344D02*
G75*
G02*
X158357000Y-117573500I749647J-1700156D01*
G01*
%TO.C,J2*%
X158440000Y-110956000D02*
X158440000Y-118426000D01*
X158440000Y-118426000D02*
X170560000Y-118426000D01*
X159500000Y-111916000D02*
X162500000Y-111916000D01*
X159500000Y-113266000D02*
X160250000Y-113266000D01*
X159500000Y-117566000D02*
X159500000Y-113266000D01*
X159750000Y-112916000D02*
X159500000Y-111916000D01*
X160250000Y-112916000D02*
X159750000Y-112916000D01*
X160250000Y-113266000D02*
X160250000Y-112916000D01*
X160250000Y-117566000D02*
X159500000Y-117566000D01*
X161750000Y-112916000D02*
X161750000Y-113266000D01*
X161750000Y-113266000D02*
X162500000Y-113266000D01*
X162250000Y-112916000D02*
X161750000Y-112916000D01*
X162500000Y-111916000D02*
X162250000Y-112916000D01*
X162500000Y-113266000D02*
X162500000Y-117566000D01*
X162500000Y-117566000D02*
X161750000Y-117566000D01*
X163000000Y-111916000D02*
X166000000Y-111916000D01*
X163000000Y-113266000D02*
X163750000Y-113266000D01*
X163000000Y-117566000D02*
X163000000Y-113266000D01*
X163250000Y-112916000D02*
X163000000Y-111916000D01*
X163750000Y-112916000D02*
X163250000Y-112916000D01*
X163750000Y-113266000D02*
X163750000Y-112916000D01*
X163750000Y-117566000D02*
X163000000Y-117566000D01*
X165250000Y-112916000D02*
X165250000Y-113266000D01*
X165250000Y-113266000D02*
X166000000Y-113266000D01*
X165750000Y-112916000D02*
X165250000Y-112916000D01*
X166000000Y-111916000D02*
X165750000Y-112916000D01*
X166000000Y-113266000D02*
X166000000Y-117566000D01*
X166000000Y-117566000D02*
X165250000Y-117566000D01*
X166500000Y-111916000D02*
X169500000Y-111916000D01*
X166500000Y-113266000D02*
X167250000Y-113266000D01*
X166500000Y-117566000D02*
X166500000Y-113266000D01*
X166750000Y-112916000D02*
X166500000Y-111916000D01*
X167250000Y-112916000D02*
X166750000Y-112916000D01*
X167250000Y-113266000D02*
X167250000Y-112916000D01*
X167250000Y-117566000D02*
X166500000Y-117566000D01*
X168750000Y-112916000D02*
X168750000Y-113266000D01*
X168750000Y-113266000D02*
X169500000Y-113266000D01*
X168950000Y-110566000D02*
X170950000Y-110566000D01*
X169250000Y-112916000D02*
X168750000Y-112916000D01*
X169500000Y-111916000D02*
X169250000Y-112916000D01*
X169500000Y-113266000D02*
X169500000Y-117566000D01*
X169500000Y-117566000D02*
X168750000Y-117566000D01*
X170560000Y-110956000D02*
X158440000Y-110956000D01*
X170560000Y-118426000D02*
X170560000Y-110956000D01*
X170950000Y-110566000D02*
X170950000Y-111816000D01*
X160250353Y-117565844D02*
G75*
G02*
X161750000Y-117566000I749647J-1700156D01*
G01*
X163750353Y-117565844D02*
G75*
G02*
X165250000Y-117566000I749647J-1700156D01*
G01*
X167250353Y-117565844D02*
G75*
G02*
X168750000Y-117566000I749647J-1700156D01*
G01*
%TD*%
%LPC*%
D12*
%TO.C,D8*%
X156591000Y-107447000D03*
D13*
X156591000Y-99827000D03*
%TD*%
D12*
%TO.C,D1*%
X154305000Y-107447000D03*
D13*
X154305000Y-99827000D03*
%TD*%
D14*
%TO.C,D3*%
X170725000Y-107000000D03*
D15*
X173265000Y-107000000D03*
%TD*%
D16*
%TO.C,SW1*%
X164500000Y-107950000D03*
X164500000Y-103500000D03*
X164500000Y-99050000D03*
%TD*%
D14*
%TO.C,D6*%
X170850000Y-100000000D03*
D15*
X173390000Y-100000000D03*
%TD*%
D17*
%TO.C,R2*%
X158750000Y-99822000D03*
D18*
X158750000Y-107442000D03*
%TD*%
D17*
%TO.C,R1*%
X152019000Y-99822000D03*
D18*
X152019000Y-107442000D03*
%TD*%
D19*
%TO.C,J3*%
X157607000Y-115323500D03*
D20*
X154107000Y-115323500D03*
%TD*%
D19*
%TO.C,J2*%
X168000000Y-115316000D03*
D20*
X164500000Y-115316000D03*
X161000000Y-115316000D03*
%TD*%
%LPD*%
M02*
