%TF.GenerationSoftware,KiCad,Pcbnew,7.0.7*%
%TF.CreationDate,2024-02-24T14:04:37+01:00*%
%TF.ProjectId,Xnet,586e6574-2e6b-4696-9361-645f70636258,rev?*%
%TF.SameCoordinates,Original*%
%TF.FileFunction,Legend,Bot*%
%TF.FilePolarity,Positive*%
%FSLAX46Y46*%
G04 Gerber Fmt 4.6, Leading zero omitted, Abs format (unit mm)*
G04 Created by KiCad (PCBNEW 7.0.7) date 2024-02-24 14:04:37*
%MOMM*%
%LPD*%
G01*
G04 APERTURE LIST*
%ADD10C,0.150000*%
%ADD11C,1.600000*%
%ADD12C,3.200000*%
%ADD13C,1.400000*%
%ADD14O,1.400000X1.400000*%
%ADD15R,1.700000X1.700000*%
%ADD16O,1.700000X1.700000*%
%ADD17C,3.250000*%
%ADD18R,1.520000X1.520000*%
%ADD19C,1.520000*%
%ADD20R,1.600000X1.600000*%
%ADD21O,1.600000X1.600000*%
G04 APERTURE END LIST*
D10*
X155454819Y-88809523D02*
X156454819Y-89476189D01*
X155454819Y-89476189D02*
X156454819Y-88809523D01*
X155788152Y-89857142D02*
X156454819Y-89857142D01*
X155883390Y-89857142D02*
X155835771Y-89904761D01*
X155835771Y-89904761D02*
X155788152Y-89999999D01*
X155788152Y-89999999D02*
X155788152Y-90142856D01*
X155788152Y-90142856D02*
X155835771Y-90238094D01*
X155835771Y-90238094D02*
X155931009Y-90285713D01*
X155931009Y-90285713D02*
X156454819Y-90285713D01*
X156407200Y-91142856D02*
X156454819Y-91047618D01*
X156454819Y-91047618D02*
X156454819Y-90857142D01*
X156454819Y-90857142D02*
X156407200Y-90761904D01*
X156407200Y-90761904D02*
X156311961Y-90714285D01*
X156311961Y-90714285D02*
X155931009Y-90714285D01*
X155931009Y-90714285D02*
X155835771Y-90761904D01*
X155835771Y-90761904D02*
X155788152Y-90857142D01*
X155788152Y-90857142D02*
X155788152Y-91047618D01*
X155788152Y-91047618D02*
X155835771Y-91142856D01*
X155835771Y-91142856D02*
X155931009Y-91190475D01*
X155931009Y-91190475D02*
X156026247Y-91190475D01*
X156026247Y-91190475D02*
X156121485Y-90714285D01*
X155788152Y-91476190D02*
X155788152Y-91857142D01*
X155454819Y-91619047D02*
X156311961Y-91619047D01*
X156311961Y-91619047D02*
X156407200Y-91666666D01*
X156407200Y-91666666D02*
X156454819Y-91761904D01*
X156454819Y-91761904D02*
X156454819Y-91857142D01*
X156454819Y-92952381D02*
X155788152Y-92952381D01*
X155454819Y-92952381D02*
X155502438Y-92904762D01*
X155502438Y-92904762D02*
X155550057Y-92952381D01*
X155550057Y-92952381D02*
X155502438Y-93000000D01*
X155502438Y-93000000D02*
X155454819Y-92952381D01*
X155454819Y-92952381D02*
X155550057Y-92952381D01*
X155788152Y-93428571D02*
X156454819Y-93428571D01*
X155883390Y-93428571D02*
X155835771Y-93476190D01*
X155835771Y-93476190D02*
X155788152Y-93571428D01*
X155788152Y-93571428D02*
X155788152Y-93714285D01*
X155788152Y-93714285D02*
X155835771Y-93809523D01*
X155835771Y-93809523D02*
X155931009Y-93857142D01*
X155931009Y-93857142D02*
X156454819Y-93857142D01*
X155788152Y-94190476D02*
X155788152Y-94571428D01*
X155454819Y-94333333D02*
X156311961Y-94333333D01*
X156311961Y-94333333D02*
X156407200Y-94380952D01*
X156407200Y-94380952D02*
X156454819Y-94476190D01*
X156454819Y-94476190D02*
X156454819Y-94571428D01*
X156407200Y-95285714D02*
X156454819Y-95190476D01*
X156454819Y-95190476D02*
X156454819Y-95000000D01*
X156454819Y-95000000D02*
X156407200Y-94904762D01*
X156407200Y-94904762D02*
X156311961Y-94857143D01*
X156311961Y-94857143D02*
X155931009Y-94857143D01*
X155931009Y-94857143D02*
X155835771Y-94904762D01*
X155835771Y-94904762D02*
X155788152Y-95000000D01*
X155788152Y-95000000D02*
X155788152Y-95190476D01*
X155788152Y-95190476D02*
X155835771Y-95285714D01*
X155835771Y-95285714D02*
X155931009Y-95333333D01*
X155931009Y-95333333D02*
X156026247Y-95333333D01*
X156026247Y-95333333D02*
X156121485Y-94857143D01*
X156454819Y-95761905D02*
X155788152Y-95761905D01*
X155978628Y-95761905D02*
X155883390Y-95809524D01*
X155883390Y-95809524D02*
X155835771Y-95857143D01*
X155835771Y-95857143D02*
X155788152Y-95952381D01*
X155788152Y-95952381D02*
X155788152Y-96047619D01*
X155788152Y-96238096D02*
X155788152Y-96619048D01*
X156454819Y-96380953D02*
X155597676Y-96380953D01*
X155597676Y-96380953D02*
X155502438Y-96428572D01*
X155502438Y-96428572D02*
X155454819Y-96523810D01*
X155454819Y-96523810D02*
X155454819Y-96619048D01*
X156454819Y-97380953D02*
X155931009Y-97380953D01*
X155931009Y-97380953D02*
X155835771Y-97333334D01*
X155835771Y-97333334D02*
X155788152Y-97238096D01*
X155788152Y-97238096D02*
X155788152Y-97047620D01*
X155788152Y-97047620D02*
X155835771Y-96952382D01*
X156407200Y-97380953D02*
X156454819Y-97285715D01*
X156454819Y-97285715D02*
X156454819Y-97047620D01*
X156454819Y-97047620D02*
X156407200Y-96952382D01*
X156407200Y-96952382D02*
X156311961Y-96904763D01*
X156311961Y-96904763D02*
X156216723Y-96904763D01*
X156216723Y-96904763D02*
X156121485Y-96952382D01*
X156121485Y-96952382D02*
X156073866Y-97047620D01*
X156073866Y-97047620D02*
X156073866Y-97285715D01*
X156073866Y-97285715D02*
X156026247Y-97380953D01*
X156407200Y-98285715D02*
X156454819Y-98190477D01*
X156454819Y-98190477D02*
X156454819Y-98000001D01*
X156454819Y-98000001D02*
X156407200Y-97904763D01*
X156407200Y-97904763D02*
X156359580Y-97857144D01*
X156359580Y-97857144D02*
X156264342Y-97809525D01*
X156264342Y-97809525D02*
X155978628Y-97809525D01*
X155978628Y-97809525D02*
X155883390Y-97857144D01*
X155883390Y-97857144D02*
X155835771Y-97904763D01*
X155835771Y-97904763D02*
X155788152Y-98000001D01*
X155788152Y-98000001D02*
X155788152Y-98190477D01*
X155788152Y-98190477D02*
X155835771Y-98285715D01*
X156407200Y-99095239D02*
X156454819Y-99000001D01*
X156454819Y-99000001D02*
X156454819Y-98809525D01*
X156454819Y-98809525D02*
X156407200Y-98714287D01*
X156407200Y-98714287D02*
X156311961Y-98666668D01*
X156311961Y-98666668D02*
X155931009Y-98666668D01*
X155931009Y-98666668D02*
X155835771Y-98714287D01*
X155835771Y-98714287D02*
X155788152Y-98809525D01*
X155788152Y-98809525D02*
X155788152Y-99000001D01*
X155788152Y-99000001D02*
X155835771Y-99095239D01*
X155835771Y-99095239D02*
X155931009Y-99142858D01*
X155931009Y-99142858D02*
X156026247Y-99142858D01*
X156026247Y-99142858D02*
X156121485Y-98666668D01*
%TO.C,G\u002A\u002A\u002A*%
G36*
X156378200Y-107132826D02*
G01*
X155637769Y-107132826D01*
X155637769Y-106971863D01*
X156378200Y-106971863D01*
X156378200Y-107132826D01*
G37*
G36*
X156378200Y-110223321D02*
G01*
X155637769Y-110223321D01*
X155637769Y-110062357D01*
X156378200Y-110062357D01*
X156378200Y-110223321D01*
G37*
G36*
X155497959Y-106988960D02*
G01*
X155508999Y-107048206D01*
X155503300Y-107102503D01*
X155467248Y-107151043D01*
X155397528Y-107144930D01*
X155365565Y-107120949D01*
X155352714Y-107065189D01*
X155378361Y-107008943D01*
X155436565Y-106977672D01*
X155453786Y-106975792D01*
X155497959Y-106988960D01*
G37*
G36*
X155497959Y-110079454D02*
G01*
X155508999Y-110138700D01*
X155503300Y-110192998D01*
X155467248Y-110241537D01*
X155397528Y-110235424D01*
X155365565Y-110211443D01*
X155352714Y-110155683D01*
X155378361Y-110099438D01*
X155436565Y-110068167D01*
X155453786Y-110066286D01*
X155497959Y-110079454D01*
G37*
G36*
X155986965Y-108100117D02*
G01*
X156009353Y-108125621D01*
X156020841Y-108191732D01*
X156024081Y-108310219D01*
X156022672Y-108409649D01*
X156015260Y-108479547D01*
X155998166Y-108509049D01*
X155967744Y-108511155D01*
X155961014Y-108509287D01*
X155922266Y-108466717D01*
X155900600Y-108387263D01*
X155895599Y-108290825D01*
X155906845Y-108197303D01*
X155933919Y-108126597D01*
X155976406Y-108098606D01*
X155986965Y-108100117D01*
G37*
G36*
X155431105Y-104801077D02*
G01*
X155457408Y-104851474D01*
X155470522Y-104952064D01*
X155480334Y-105104690D01*
X156378200Y-105104690D01*
X156378200Y-105265653D01*
X155476806Y-105265653D01*
X155476806Y-105410520D01*
X155476782Y-105420927D01*
X155471683Y-105506549D01*
X155452657Y-105545908D01*
X155412421Y-105555387D01*
X155393024Y-105553924D01*
X155372129Y-105541418D01*
X155358945Y-105507082D01*
X155351709Y-105440278D01*
X155348660Y-105330368D01*
X155348036Y-105166714D01*
X155348161Y-105086750D01*
X155349892Y-104948072D01*
X155354863Y-104859099D01*
X155364589Y-104809665D01*
X155380588Y-104789601D01*
X155404373Y-104788740D01*
X155431105Y-104801077D01*
G37*
G36*
X156378200Y-105732446D02*
G01*
X156377549Y-105757846D01*
X156367539Y-105789037D01*
X156334440Y-105805462D01*
X156264488Y-105811849D01*
X156143919Y-105812928D01*
X156111100Y-105813180D01*
X155950385Y-105825900D01*
X155843818Y-105860305D01*
X155784752Y-105919830D01*
X155766540Y-106007909D01*
X155766013Y-106029717D01*
X155749633Y-106087127D01*
X155702155Y-106102662D01*
X155674259Y-106095621D01*
X155641074Y-106047033D01*
X155639196Y-105967524D01*
X155671095Y-105875197D01*
X155687977Y-105832634D01*
X155671095Y-105812928D01*
X155649174Y-105792940D01*
X155637769Y-105732446D01*
X155637769Y-105651965D01*
X156378200Y-105651965D01*
X156378200Y-105732446D01*
G37*
G36*
X156166703Y-112034760D02*
G01*
X156220957Y-112062270D01*
X156280323Y-112116435D01*
X156312169Y-112150524D01*
X156364144Y-112236930D01*
X156378200Y-112341993D01*
X156364981Y-112443265D01*
X156324764Y-112534669D01*
X156267108Y-112589623D01*
X156201773Y-112594178D01*
X156174932Y-112582547D01*
X156162129Y-112559116D01*
X156196759Y-112513841D01*
X156197642Y-112512857D01*
X156241772Y-112423161D01*
X156242246Y-112321639D01*
X156198841Y-112237661D01*
X156186043Y-112227095D01*
X156103032Y-112196074D01*
X155994878Y-112187495D01*
X155890078Y-112201357D01*
X155817129Y-112237661D01*
X155816260Y-112238538D01*
X155773442Y-112322943D01*
X155774500Y-112424501D01*
X155819211Y-112513841D01*
X155843557Y-112542199D01*
X155852981Y-112572895D01*
X155814197Y-112594178D01*
X155756548Y-112592791D01*
X155697368Y-112543105D01*
X155654371Y-112456146D01*
X155637769Y-112346264D01*
X155652527Y-112232557D01*
X155713042Y-112128926D01*
X155823108Y-112063239D01*
X155985733Y-112032787D01*
X156094215Y-112027277D01*
X156166703Y-112034760D01*
G37*
G36*
X156166703Y-109362770D02*
G01*
X156220957Y-109390280D01*
X156280323Y-109444446D01*
X156312169Y-109478534D01*
X156364144Y-109564940D01*
X156378200Y-109670003D01*
X156364981Y-109771275D01*
X156324764Y-109862679D01*
X156267108Y-109917633D01*
X156201773Y-109922188D01*
X156174932Y-109910558D01*
X156162129Y-109887126D01*
X156196759Y-109841851D01*
X156197642Y-109840868D01*
X156241772Y-109751171D01*
X156242246Y-109649649D01*
X156198841Y-109565671D01*
X156195116Y-109562192D01*
X156119813Y-109527932D01*
X156007985Y-109515082D01*
X155998249Y-109515171D01*
X155888454Y-109529974D01*
X155817129Y-109565671D01*
X155816260Y-109566548D01*
X155773442Y-109650954D01*
X155774500Y-109752511D01*
X155819211Y-109841851D01*
X155843557Y-109870209D01*
X155852981Y-109900905D01*
X155814197Y-109922188D01*
X155756548Y-109920801D01*
X155697368Y-109871115D01*
X155654371Y-109784156D01*
X155637769Y-109674274D01*
X155652527Y-109560567D01*
X155713042Y-109456936D01*
X155823108Y-109391249D01*
X155985733Y-109360798D01*
X156094215Y-109355287D01*
X156166703Y-109362770D01*
G37*
G36*
X156253657Y-106182003D02*
G01*
X156326932Y-106236948D01*
X156349617Y-106284663D01*
X156367821Y-106388945D01*
X156371021Y-106545680D01*
X156366149Y-106784512D01*
X156069661Y-106773561D01*
X155996881Y-106770250D01*
X155842138Y-106754811D01*
X155738404Y-106724703D01*
X155676130Y-106673475D01*
X155645768Y-106594680D01*
X155637769Y-106481868D01*
X155638364Y-106446977D01*
X155655257Y-106314367D01*
X155693209Y-106229277D01*
X155749250Y-106199240D01*
X155753278Y-106199425D01*
X155776184Y-106217254D01*
X155782973Y-106273069D01*
X155775480Y-106379462D01*
X155768689Y-106477753D01*
X155775964Y-106551550D01*
X155801951Y-106588221D01*
X155848663Y-106610829D01*
X155905832Y-106609270D01*
X155923486Y-106570601D01*
X156058870Y-106570601D01*
X156070273Y-106608887D01*
X156110009Y-106617744D01*
X156147033Y-106612337D01*
X156210799Y-106579113D01*
X156236034Y-106537093D01*
X156248708Y-106458413D01*
X156235887Y-106382789D01*
X156198977Y-106338822D01*
X156141434Y-106336629D01*
X156096669Y-106388387D01*
X156066989Y-106499800D01*
X156058870Y-106570601D01*
X155923486Y-106570601D01*
X155927683Y-106561407D01*
X155933723Y-106499152D01*
X155960717Y-106388947D01*
X156000608Y-106285085D01*
X156043690Y-106216422D01*
X156066887Y-106197590D01*
X156141434Y-106173421D01*
X156157537Y-106168200D01*
X156253657Y-106182003D01*
G37*
G36*
X156272052Y-108596370D02*
G01*
X156328086Y-108653044D01*
X156359597Y-108725638D01*
X156376193Y-108849005D01*
X156366535Y-108981557D01*
X156330471Y-109095495D01*
X156275535Y-109164082D01*
X156173564Y-109223825D01*
X156071135Y-109242490D01*
X155971193Y-109216714D01*
X155882305Y-109136108D01*
X155796699Y-108995972D01*
X155753443Y-108918456D01*
X155673245Y-108819034D01*
X155596183Y-108781960D01*
X155523550Y-108808126D01*
X155520703Y-108810675D01*
X155490818Y-108869134D01*
X155477888Y-108952637D01*
X155483439Y-109032611D01*
X155508999Y-109080482D01*
X155539789Y-109121334D01*
X155528914Y-109170182D01*
X155477939Y-109193156D01*
X155477335Y-109193154D01*
X155408240Y-109163476D01*
X155363771Y-109080450D01*
X155348036Y-108951711D01*
X155359551Y-108844455D01*
X155409279Y-108724950D01*
X155488715Y-108646375D01*
X155587357Y-108614297D01*
X155694707Y-108634285D01*
X155800264Y-108711905D01*
X155816568Y-108730088D01*
X155877866Y-108811908D01*
X155913566Y-108880917D01*
X155924271Y-108910849D01*
X155983964Y-109002818D01*
X156062595Y-109055341D01*
X156145370Y-109061853D01*
X156217493Y-109015788D01*
X156224264Y-109005829D01*
X156242002Y-108924991D01*
X156233359Y-108802936D01*
X156199064Y-108653929D01*
X156195068Y-108605892D01*
X156222510Y-108580688D01*
X156272052Y-108596370D01*
G37*
G36*
X156378200Y-107406464D02*
G01*
X156376724Y-107439791D01*
X156363601Y-107466645D01*
X156325642Y-107480689D01*
X156249664Y-107486073D01*
X156122485Y-107486946D01*
X156083304Y-107487042D01*
X155966262Y-107490230D01*
X155893461Y-107500709D01*
X155848920Y-107522217D01*
X155816654Y-107558494D01*
X155805399Y-107575851D01*
X155771399Y-107665380D01*
X155775444Y-107743275D01*
X155817462Y-107789331D01*
X155823840Y-107791288D01*
X155889366Y-107800219D01*
X155995739Y-107806499D01*
X156123292Y-107808872D01*
X156228007Y-107809326D01*
X156313522Y-107813432D01*
X156358257Y-107825359D01*
X156375415Y-107849277D01*
X156378200Y-107889354D01*
X156378194Y-107894524D01*
X156374987Y-107931024D01*
X156357328Y-107953284D01*
X156312734Y-107964826D01*
X156228722Y-107969170D01*
X156092808Y-107969835D01*
X155928568Y-107963925D01*
X155790150Y-107939865D01*
X155700519Y-107893361D01*
X155652213Y-107820257D01*
X155637769Y-107716396D01*
X155638050Y-107701952D01*
X155651219Y-107612795D01*
X155678010Y-107553745D01*
X155702107Y-107517832D01*
X155678010Y-107496335D01*
X155652507Y-107469250D01*
X155637769Y-107403781D01*
X155638988Y-107374057D01*
X155649787Y-107350608D01*
X155681124Y-107336379D01*
X155743962Y-107329067D01*
X155849262Y-107326370D01*
X156007985Y-107325982D01*
X156378200Y-107325982D01*
X156378200Y-107406464D01*
G37*
G36*
X156110586Y-110397139D02*
G01*
X156223779Y-110430456D01*
X156304705Y-110495586D01*
X156314820Y-110508536D01*
X156355354Y-110597069D01*
X156375154Y-110707304D01*
X156375338Y-110822384D01*
X156357024Y-110925454D01*
X156321331Y-110999657D01*
X156269376Y-111028137D01*
X156262067Y-111027535D01*
X156240300Y-111007504D01*
X156233706Y-110949653D01*
X156240295Y-110841189D01*
X156244072Y-110765620D01*
X156227168Y-110641552D01*
X156174960Y-110568914D01*
X156086167Y-110545247D01*
X156071882Y-110546020D01*
X156046313Y-110558746D01*
X156031892Y-110597198D01*
X156025517Y-110674253D01*
X156024081Y-110802788D01*
X156024081Y-111060330D01*
X155925027Y-111060330D01*
X155838471Y-111042702D01*
X155737669Y-110975540D01*
X155665419Y-110874086D01*
X155637769Y-110755377D01*
X155639661Y-110722307D01*
X155766540Y-110722307D01*
X155776712Y-110797044D01*
X155814477Y-110870550D01*
X155869557Y-110899366D01*
X155880152Y-110883595D01*
X155891076Y-110819283D01*
X155895311Y-110722307D01*
X155893017Y-110649466D01*
X155883662Y-110574363D01*
X155869557Y-110545247D01*
X155826073Y-110562731D01*
X155783306Y-110627639D01*
X155766540Y-110722307D01*
X155639661Y-110722307D01*
X155641482Y-110690478D01*
X155685192Y-110548716D01*
X155775233Y-110449928D01*
X155869557Y-110412373D01*
X155908000Y-110397067D01*
X156079890Y-110393087D01*
X156110586Y-110397139D01*
G37*
G36*
X156378200Y-111301774D02*
G01*
X156376724Y-111335101D01*
X156363601Y-111361955D01*
X156325642Y-111375999D01*
X156249664Y-111381383D01*
X156122485Y-111382256D01*
X156083304Y-111382352D01*
X155966262Y-111385541D01*
X155893461Y-111396019D01*
X155848920Y-111417528D01*
X155816654Y-111453804D01*
X155805399Y-111471162D01*
X155771399Y-111560690D01*
X155775444Y-111638586D01*
X155817462Y-111684642D01*
X155823840Y-111686599D01*
X155889366Y-111695530D01*
X155995739Y-111701810D01*
X156123292Y-111704183D01*
X156228007Y-111704637D01*
X156313522Y-111708742D01*
X156358257Y-111720670D01*
X156375415Y-111744587D01*
X156378200Y-111784664D01*
X156378194Y-111789834D01*
X156374987Y-111826334D01*
X156357328Y-111848595D01*
X156312734Y-111860137D01*
X156228722Y-111864480D01*
X156092808Y-111865146D01*
X155928568Y-111859236D01*
X155790150Y-111835175D01*
X155700519Y-111788671D01*
X155652213Y-111715567D01*
X155637769Y-111611707D01*
X155638050Y-111597263D01*
X155651219Y-111508105D01*
X155678010Y-111449056D01*
X155702107Y-111413142D01*
X155678010Y-111391646D01*
X155652507Y-111364561D01*
X155637769Y-111299092D01*
X155638988Y-111269368D01*
X155649787Y-111245918D01*
X155681124Y-111231689D01*
X155743962Y-111224378D01*
X155849262Y-111221680D01*
X156007985Y-111221293D01*
X156378200Y-111221293D01*
X156378200Y-111301774D01*
G37*
G36*
X156110586Y-112715010D02*
G01*
X156223779Y-112748327D01*
X156304705Y-112813457D01*
X156314820Y-112826407D01*
X156355354Y-112914940D01*
X156375154Y-113025174D01*
X156375338Y-113140255D01*
X156357024Y-113243324D01*
X156321331Y-113317527D01*
X156269376Y-113346008D01*
X156262067Y-113345405D01*
X156240300Y-113325375D01*
X156233706Y-113267524D01*
X156240295Y-113159060D01*
X156244072Y-113083491D01*
X156227168Y-112959423D01*
X156174960Y-112886785D01*
X156086167Y-112863118D01*
X156071882Y-112863890D01*
X156046313Y-112876617D01*
X156031892Y-112915069D01*
X156025517Y-112992123D01*
X156024081Y-113120659D01*
X156024081Y-113378200D01*
X155925027Y-113378200D01*
X155838471Y-113360573D01*
X155737669Y-113293411D01*
X155665419Y-113191957D01*
X155637769Y-113073248D01*
X155639661Y-113040178D01*
X155766540Y-113040178D01*
X155776712Y-113114915D01*
X155814477Y-113188421D01*
X155869557Y-113217237D01*
X155880152Y-113201466D01*
X155891076Y-113137154D01*
X155895311Y-113040178D01*
X155893017Y-112967337D01*
X155883662Y-112892233D01*
X155869557Y-112863118D01*
X155826073Y-112880602D01*
X155783306Y-112945509D01*
X155766540Y-113040178D01*
X155639661Y-113040178D01*
X155641482Y-113008349D01*
X155685192Y-112866587D01*
X155775233Y-112767799D01*
X155869557Y-112730244D01*
X155908000Y-112714938D01*
X156079890Y-112710957D01*
X156110586Y-112715010D01*
G37*
G36*
X148903058Y-108369514D02*
G01*
X148962127Y-108399579D01*
X149058113Y-108445696D01*
X149172502Y-108499112D01*
X149289987Y-108552832D01*
X149395260Y-108599863D01*
X149473014Y-108633211D01*
X149507939Y-108645881D01*
X149515074Y-108636620D01*
X149521166Y-108587649D01*
X149527492Y-108547824D01*
X149561407Y-108474835D01*
X149573772Y-108459006D01*
X149603801Y-108438458D01*
X149649076Y-108446083D01*
X149730418Y-108482868D01*
X149814681Y-108522607D01*
X149921347Y-108571222D01*
X150033885Y-108621399D01*
X150136197Y-108666034D01*
X150212185Y-108698024D01*
X150245752Y-108710266D01*
X150253883Y-108697913D01*
X150270882Y-108646043D01*
X150275961Y-108629288D01*
X150309444Y-108580409D01*
X150369132Y-108567138D01*
X150464145Y-108589517D01*
X150603598Y-108647588D01*
X150731375Y-108706276D01*
X150857942Y-108764041D01*
X150953739Y-108807385D01*
X151044386Y-108848181D01*
X151170417Y-108905111D01*
X151299810Y-108963719D01*
X151399317Y-109012053D01*
X151489226Y-109068612D01*
X151516590Y-109110043D01*
X151481388Y-109136399D01*
X151383598Y-109147732D01*
X151223196Y-109144094D01*
X151153403Y-109140114D01*
X151004500Y-109131820D01*
X150831671Y-109122361D01*
X150659771Y-109113104D01*
X150301418Y-109093995D01*
X150280238Y-109178383D01*
X150278961Y-109183328D01*
X150261997Y-109223496D01*
X150229791Y-109244797D01*
X150170527Y-109248081D01*
X150072393Y-109234196D01*
X149923574Y-109203990D01*
X149900954Y-109199173D01*
X149749284Y-109169042D01*
X149646164Y-109155167D01*
X149579271Y-109157846D01*
X149536286Y-109177374D01*
X149504888Y-109214047D01*
X149503021Y-109216889D01*
X149480265Y-109246824D01*
X149451066Y-109266793D01*
X149403841Y-109278420D01*
X149327007Y-109283330D01*
X149208980Y-109283147D01*
X149038178Y-109279494D01*
X149011545Y-109278815D01*
X148857056Y-109273323D01*
X148728829Y-109266207D01*
X148639569Y-109258312D01*
X148601982Y-109250482D01*
X148599110Y-109215087D01*
X148610055Y-109134416D01*
X148632861Y-109027233D01*
X148656620Y-108926650D01*
X148682490Y-108809502D01*
X148698793Y-108726363D01*
X148720750Y-108604764D01*
X148753223Y-108466670D01*
X148786145Y-108379417D01*
X148806406Y-108348230D01*
X148839893Y-108340404D01*
X148903058Y-108369514D01*
G37*
G36*
X148185171Y-105829360D02*
G01*
X148209537Y-105835675D01*
X148276231Y-105864747D01*
X148346134Y-105899736D01*
X148383184Y-105918281D01*
X148532073Y-105997213D01*
X148724575Y-106102480D01*
X148962366Y-106235019D01*
X149247123Y-106395766D01*
X149580524Y-106585657D01*
X149964245Y-106805629D01*
X150399962Y-107056618D01*
X150889354Y-107339561D01*
X150973120Y-107388068D01*
X151347143Y-107604757D01*
X151704831Y-107812145D01*
X152042244Y-108007940D01*
X152355441Y-108189847D01*
X152640482Y-108355574D01*
X152893428Y-108502827D01*
X153110339Y-108629312D01*
X153287274Y-108732738D01*
X153420294Y-108810809D01*
X153505458Y-108861233D01*
X153538827Y-108881717D01*
X153563333Y-108921172D01*
X153571019Y-108995031D01*
X153568271Y-109004314D01*
X153554318Y-109024337D01*
X153525943Y-109051371D01*
X153479973Y-109087362D01*
X153413233Y-109134261D01*
X153322552Y-109194014D01*
X153204755Y-109268572D01*
X153056670Y-109359881D01*
X152875124Y-109469891D01*
X152656942Y-109600550D01*
X152398953Y-109753807D01*
X152097982Y-109931610D01*
X151750857Y-110135907D01*
X151354404Y-110368647D01*
X150905450Y-110631778D01*
X150479970Y-110880703D01*
X150033321Y-111141187D01*
X149638872Y-111370211D01*
X149295011Y-111568687D01*
X149000128Y-111737526D01*
X148752610Y-111877641D01*
X148550845Y-111989941D01*
X148393220Y-112075339D01*
X148278125Y-112134748D01*
X148203948Y-112169077D01*
X148169075Y-112179239D01*
X148088593Y-112170976D01*
X148088593Y-109179691D01*
X148334341Y-109179691D01*
X148334879Y-109624153D01*
X148336016Y-110042110D01*
X148337751Y-110414623D01*
X148346134Y-111829247D01*
X150751177Y-110421346D01*
X151040713Y-110251797D01*
X151389092Y-110047632D01*
X151718265Y-109854552D01*
X152024190Y-109674935D01*
X152302826Y-109511161D01*
X152550130Y-109365609D01*
X152762061Y-109240658D01*
X152934577Y-109138687D01*
X153063637Y-109062076D01*
X153145197Y-109013203D01*
X153175218Y-108994449D01*
X153158326Y-108980891D01*
X153090149Y-108937111D01*
X152973481Y-108865504D01*
X152812287Y-108768414D01*
X152610530Y-108648186D01*
X152372174Y-108507164D01*
X152101185Y-108347692D01*
X151801526Y-108172115D01*
X151477162Y-107982778D01*
X151132056Y-107782024D01*
X150770175Y-107572197D01*
X148346134Y-106168943D01*
X148337751Y-107584471D01*
X148336322Y-107876666D01*
X148335062Y-108287008D01*
X148334402Y-108727663D01*
X148334341Y-109179691D01*
X148088593Y-109179691D01*
X148088593Y-105829024D01*
X148185171Y-105829360D01*
G37*
G36*
X147514961Y-104463412D02*
G01*
X147550947Y-104476039D01*
X147604955Y-104500434D01*
X147679635Y-104538136D01*
X147702282Y-104550279D01*
X147777634Y-104590681D01*
X147901603Y-104659609D01*
X148054190Y-104746456D01*
X148238043Y-104852761D01*
X148455812Y-104980060D01*
X148710146Y-105129893D01*
X149003693Y-105303796D01*
X149339103Y-105503308D01*
X149719024Y-105729965D01*
X150146106Y-105985307D01*
X150622996Y-106270870D01*
X151152344Y-106588192D01*
X151258324Y-106651751D01*
X151697804Y-106915348D01*
X152121988Y-107169819D01*
X152527547Y-107413166D01*
X152911155Y-107643389D01*
X153269484Y-107858491D01*
X153599208Y-108056473D01*
X153897000Y-108235338D01*
X154159531Y-108393086D01*
X154383476Y-108527720D01*
X154565508Y-108637242D01*
X154702298Y-108719652D01*
X154790521Y-108772953D01*
X154826849Y-108795146D01*
X154877194Y-108843763D01*
X154891234Y-108926952D01*
X154889830Y-108932692D01*
X154879488Y-108949730D01*
X154857107Y-108972950D01*
X154819991Y-109004038D01*
X154765444Y-109044683D01*
X154690771Y-109096573D01*
X154593274Y-109161394D01*
X154470259Y-109240836D01*
X154319029Y-109336586D01*
X154136888Y-109450332D01*
X153921141Y-109583761D01*
X153669091Y-109738561D01*
X153378044Y-109916421D01*
X153045302Y-110119028D01*
X152668170Y-110348069D01*
X152243951Y-110605234D01*
X151769951Y-110892208D01*
X151243473Y-111210681D01*
X151173373Y-111253068D01*
X150608468Y-111594331D01*
X150096665Y-111902899D01*
X149636404Y-112179692D01*
X149226125Y-112425631D01*
X148864265Y-112641634D01*
X148549265Y-112828623D01*
X148279564Y-112987517D01*
X148053600Y-113119236D01*
X147869813Y-113224701D01*
X147726643Y-113304831D01*
X147622528Y-113360546D01*
X147555908Y-113392766D01*
X147525222Y-113402412D01*
X147444740Y-113394297D01*
X147436658Y-108987759D01*
X147690581Y-108987759D01*
X147690824Y-109530432D01*
X147691474Y-110055870D01*
X147692532Y-110548356D01*
X147693997Y-110992174D01*
X147702282Y-113048733D01*
X150664660Y-111257763D01*
X151010436Y-111048716D01*
X151413804Y-110804844D01*
X151805256Y-110568173D01*
X152180472Y-110341313D01*
X152535135Y-110126875D01*
X152864926Y-109927470D01*
X153165527Y-109745710D01*
X153432620Y-109584205D01*
X153661887Y-109445566D01*
X153849010Y-109332405D01*
X153989669Y-109247331D01*
X154079549Y-109192957D01*
X154532058Y-108919120D01*
X147702282Y-104821376D01*
X147693997Y-106878495D01*
X147693685Y-106959038D01*
X147692298Y-107413490D01*
X147691318Y-107913572D01*
X147690746Y-108443567D01*
X147690581Y-108987759D01*
X147436658Y-108987759D01*
X147436579Y-108944856D01*
X147435499Y-108348282D01*
X147434537Y-107782674D01*
X147433786Y-107275229D01*
X147433284Y-106822764D01*
X147433070Y-106422095D01*
X147433182Y-106070038D01*
X147433657Y-105763408D01*
X147434534Y-105499020D01*
X147435852Y-105273692D01*
X147437648Y-105084238D01*
X147439961Y-104927475D01*
X147442828Y-104800218D01*
X147446288Y-104699283D01*
X147450379Y-104621486D01*
X147455140Y-104563643D01*
X147460608Y-104522570D01*
X147466821Y-104495082D01*
X147473819Y-104477995D01*
X147481638Y-104468125D01*
X147490317Y-104462288D01*
X147494349Y-104461016D01*
X147514961Y-104463412D01*
G37*
%TD*%
%LPC*%
D11*
%TO.C,C401*%
X138750000Y-95600000D03*
X136250000Y-95600000D03*
%TD*%
D12*
%TO.C,REF\u002A\u002A*%
X137000000Y-113000000D03*
%TD*%
D13*
%TO.C,R401*%
X128500000Y-96500000D03*
D14*
X128500000Y-88880000D03*
%TD*%
D15*
%TO.C,J403*%
X121500000Y-96650000D03*
D16*
X121500000Y-99190000D03*
X121500000Y-101730000D03*
X121500000Y-104270000D03*
X121500000Y-106810000D03*
X121500000Y-109350000D03*
%TD*%
D12*
%TO.C,REF\u002A\u002A*%
X137000000Y-90500000D03*
%TD*%
D17*
%TO.C,J402*%
X151620000Y-114080000D03*
X151620000Y-103920000D03*
D18*
X142730000Y-112170000D03*
D19*
X145270000Y-110900000D03*
X142730000Y-109630000D03*
X145270000Y-108360000D03*
X142730000Y-107090000D03*
X145270000Y-105820000D03*
%TD*%
D13*
%TO.C,R402*%
X126000000Y-96500000D03*
D14*
X126000000Y-88880000D03*
%TD*%
D13*
%TO.C,R403*%
X126000000Y-107190000D03*
D14*
X126000000Y-114810000D03*
%TD*%
D17*
%TO.C,J401*%
X151800000Y-99080000D03*
X151800000Y-88920000D03*
D18*
X142910000Y-97170000D03*
D19*
X145450000Y-95900000D03*
X142910000Y-94630000D03*
X145450000Y-93360000D03*
X142910000Y-92090000D03*
X145450000Y-90820000D03*
%TD*%
D13*
%TO.C,R404*%
X128500000Y-114810000D03*
D14*
X128500000Y-107190000D03*
%TD*%
D20*
%TO.C,U401*%
X131700000Y-98900000D03*
D21*
X131700000Y-101440000D03*
X131700000Y-103980000D03*
X131700000Y-106520000D03*
X139320000Y-106520000D03*
X139320000Y-103980000D03*
X139320000Y-101440000D03*
X139320000Y-98900000D03*
%TD*%
%LPD*%
M02*
