M48
; DRILL file {KiCad 7.0.7} date Sat Sep  2 17:41:45 2023
; FORMAT={-:-/ absolute / inch / decimal}
; #@! TF.CreationDate,2023-09-02T17:41:45+02:00
; #@! TF.GenerationSoftware,Kicad,Pcbnew,7.0.7
; #@! TF.FileFunction,Plated,1,2,PTH
FMAT,2
INCH
; #@! TA.AperFunction,Plated,PTH,ViaDrill
T1C0.0157
%
G90
G05
T1
X0.8528Y-3.72
X0.8528Y-3.779
X0.855Y-3.575
X0.86Y-3.909
X1.0717Y-3.7472
X1.16Y-3.675
X1.3717Y-3.6372
X2.3717Y-3.8372
X2.47Y-3.855
X2.6917Y-3.8422
X2.8267Y-3.8272
X2.9116Y-3.6383
X3.0088Y-3.6401
X3.035Y-3.8122
X3.1217Y-3.6172
X3.1817Y-3.8722
X3.2667Y-3.8722
X3.3767Y-3.8672
X3.4717Y-3.8722
X3.5167Y-3.6172
X3.6317Y-3.8272
X3.7217Y-3.8672
X3.7467Y-3.6072
X3.8667Y-3.6872
X3.8867Y-3.8122
X3.8967Y-3.8572
X4.0217Y-3.8722
X4.0317Y-3.6222
X4.1267Y-3.8672
X4.2267Y-3.8722
X4.46Y-3.855
X4.4667Y-3.8072
X4.5017Y-3.6322
X4.7267Y-3.6872
X5.2819Y-3.6215
X5.3267Y-3.8072
X5.5267Y-3.8022
X5.6467Y-3.6972
X5.7217Y-3.7972
X6.0917Y-3.7772
X6.3367Y-3.8672
X6.3917Y-3.7222
X6.7967Y-3.7072
X6.9067Y-3.8322
X7.1767Y-3.8572
X7.5917Y-3.6622
X7.7667Y-3.8122
X8.0317Y-3.8022
X8.0467Y-3.6822
X8.3167Y-3.8322
X8.3967Y-3.6872
X8.8217Y-3.6122
X9.0667Y-3.8572
X9.0767Y-3.6172
X9.6917Y-3.8622
X9.7417Y-3.6272
X10.2717Y-3.8122
X10.3567Y-3.6122
X10.415Y-3.89
X10.425Y-3.595
X10.4817Y-3.8122
T0
M30
