M48
; DRILL file {KiCad 7.0.7} date Fri Dec  8 21:00:46 2023
; FORMAT={-:-/ absolute / inch / decimal}
; #@! TF.CreationDate,2023-12-08T21:00:46+01:00
; #@! TF.GenerationSoftware,Kicad,Pcbnew,7.0.7
; #@! TF.FileFunction,Plated,1,2,PTH
FMAT,2
INCH
; #@! TA.AperFunction,Plated,PTH,ViaDrill
T1C0.0118
; #@! TA.AperFunction,Plated,PTH,ViaDrill
T2C0.0157
%
G90
G05
T1
X0.745Y-3.74
X0.79Y-3.775
X0.79Y-3.82
X0.8Y-3.705
X0.83Y-3.67
X0.83Y-3.73
X0.86Y-3.63
X0.865Y-3.7
X0.87Y-3.78
X0.885Y-3.845
X0.965Y-3.605
X0.965Y-3.845
X1.075Y-3.68
X1.125Y-3.74
X1.24Y-3.615
X1.245Y-3.725
X1.245Y-3.835
X1.765Y-3.6
X1.875Y-3.88
X2.055Y-3.86
X2.115Y-3.585
X2.215Y-3.865
X2.31Y-3.735
X2.375Y-3.865
X2.425Y-3.64
X2.475Y-3.865
X2.58Y-3.86
X2.695Y-3.86
X2.745Y-3.645
X2.785Y-3.855
X3.03Y-3.86
X3.125Y-3.865
X3.215Y-3.585
X3.24Y-3.865
X3.345Y-3.86
X3.41Y-3.86
X3.705Y-3.655
X3.76Y-3.815
X4.06Y-3.81
X4.155Y-3.845
X4.325Y-3.66
X4.415Y-3.855
X4.715Y-3.61
X4.835Y-3.675
X5.0Y-3.805
X5.62Y-3.605
X5.635Y-3.7
X5.64Y-3.86
X5.94Y-3.805
X6.01Y-3.86
X6.14Y-3.81
X6.26Y-3.59
X6.34Y-3.86
X6.755Y-3.865
X6.86Y-3.62
X7.5Y-3.865
X7.81Y-3.615
X7.815Y-3.81
X7.915Y-3.86
X8.02Y-3.79
T2
X0.835Y-3.5703
X0.98Y-3.909
X1.1546Y-3.6146
X1.6537Y-3.595
X8.045Y-3.5708
X8.055Y-3.9094
T0
M30
