%TF.GenerationSoftware,KiCad,Pcbnew,8.0.2*%
%TF.CreationDate,2024-09-06T00:12:25+02:00*%
%TF.ProjectId,splitX_pluggable_4p,73706c69-7458-45f7-906c-75676761626c,rev?*%
%TF.SameCoordinates,Original*%
%TF.FileFunction,Legend,Bot*%
%TF.FilePolarity,Positive*%
%FSLAX46Y46*%
G04 Gerber Fmt 4.6, Leading zero omitted, Abs format (unit mm)*
G04 Created by KiCad (PCBNEW 8.0.2) date 2024-09-06 00:12:25*
%MOMM*%
%LPD*%
G01*
G04 APERTURE LIST*
G04 Aperture macros list*
%AMRoundRect*
0 Rectangle with rounded corners*
0 $1 Rounding radius*
0 $2 $3 $4 $5 $6 $7 $8 $9 X,Y pos of 4 corners*
0 Add a 4 corners polygon primitive as box body*
4,1,4,$2,$3,$4,$5,$6,$7,$8,$9,$2,$3,0*
0 Add four circle primitives for the rounded corners*
1,1,$1+$1,$2,$3*
1,1,$1+$1,$4,$5*
1,1,$1+$1,$6,$7*
1,1,$1+$1,$8,$9*
0 Add four rect primitives between the rounded corners*
20,1,$1+$1,$2,$3,$4,$5,0*
20,1,$1+$1,$4,$5,$6,$7,0*
20,1,$1+$1,$6,$7,$8,$9,0*
20,1,$1+$1,$8,$9,$2,$3,0*%
G04 Aperture macros list end*
%ADD10C,0.000000*%
%ADD11C,3.200000*%
%ADD12RoundRect,0.250000X-1.550000X0.650000X-1.550000X-0.650000X1.550000X-0.650000X1.550000X0.650000X0*%
%ADD13O,3.600000X1.800000*%
%ADD14RoundRect,0.250000X1.550000X-0.650000X1.550000X0.650000X-1.550000X0.650000X-1.550000X-0.650000X0*%
%ADD15C,2.200000*%
G04 APERTURE END LIST*
D10*
%TO.C,G\u002A\u002A\u002A*%
G36*
X100125943Y-62638988D02*
G01*
X100149392Y-62649787D01*
X100163621Y-62681124D01*
X100170933Y-62743962D01*
X100173630Y-62849262D01*
X100174018Y-63007985D01*
X100174018Y-63378200D01*
X100093536Y-63378200D01*
X100060209Y-63376724D01*
X100033355Y-63363601D01*
X100019311Y-63325642D01*
X100013927Y-63249664D01*
X100013054Y-63122485D01*
X100012958Y-63083304D01*
X100009770Y-62966262D01*
X99999291Y-62893461D01*
X99977783Y-62848920D01*
X99941506Y-62816654D01*
X99924149Y-62805399D01*
X99834620Y-62771399D01*
X99756725Y-62775444D01*
X99710669Y-62817462D01*
X99708712Y-62823840D01*
X99699781Y-62889366D01*
X99693501Y-62995739D01*
X99691128Y-63123292D01*
X99690674Y-63228007D01*
X99686568Y-63313522D01*
X99674641Y-63358257D01*
X99650723Y-63375415D01*
X99610646Y-63378200D01*
X99605476Y-63378194D01*
X99568976Y-63374987D01*
X99546716Y-63357328D01*
X99535174Y-63312734D01*
X99530830Y-63228722D01*
X99530165Y-63092808D01*
X99536075Y-62928568D01*
X99560135Y-62790150D01*
X99606639Y-62700519D01*
X99679743Y-62652213D01*
X99783604Y-62637769D01*
X99798048Y-62638050D01*
X99887205Y-62651219D01*
X99946255Y-62678010D01*
X99982168Y-62702107D01*
X100003665Y-62678010D01*
X100030750Y-62652507D01*
X100096219Y-62637769D01*
X100125943Y-62638988D01*
G37*
G36*
X99302697Y-62906845D02*
G01*
X99373403Y-62933919D01*
X99401394Y-62976406D01*
X99399883Y-62986965D01*
X99374379Y-63009353D01*
X99308268Y-63020841D01*
X99189781Y-63024081D01*
X99090351Y-63022672D01*
X99020453Y-63015260D01*
X98990951Y-62998166D01*
X98988845Y-62967744D01*
X98990713Y-62961014D01*
X99033283Y-62922266D01*
X99112737Y-62900600D01*
X99209175Y-62895599D01*
X99302697Y-62906845D01*
G37*
G36*
X97400562Y-62378361D02*
G01*
X97431833Y-62436565D01*
X97433714Y-62453786D01*
X97420546Y-62497959D01*
X97361300Y-62508999D01*
X97307002Y-62503300D01*
X97258463Y-62467248D01*
X97264576Y-62397528D01*
X97288557Y-62365565D01*
X97344317Y-62352714D01*
X97400562Y-62378361D01*
G37*
G36*
X100491057Y-62378361D02*
G01*
X100522328Y-62436565D01*
X100524208Y-62453786D01*
X100511040Y-62497959D01*
X100451794Y-62508999D01*
X100397497Y-62503300D01*
X100348957Y-62467248D01*
X100355070Y-62397528D01*
X100379051Y-62365565D01*
X100434811Y-62352714D01*
X100491057Y-62378361D01*
G37*
G36*
X94785062Y-62908000D02*
G01*
X94789043Y-63079890D01*
X94784990Y-63110586D01*
X94751673Y-63223779D01*
X94686543Y-63304705D01*
X94673593Y-63314820D01*
X94585060Y-63355354D01*
X94474826Y-63375154D01*
X94359745Y-63375338D01*
X94256676Y-63357024D01*
X94182473Y-63321331D01*
X94153992Y-63269376D01*
X94154595Y-63262067D01*
X94174625Y-63240300D01*
X94232476Y-63233706D01*
X94340940Y-63240295D01*
X94416509Y-63244072D01*
X94540577Y-63227168D01*
X94613215Y-63174960D01*
X94636882Y-63086167D01*
X94636110Y-63071882D01*
X94623383Y-63046313D01*
X94584931Y-63031892D01*
X94507877Y-63025517D01*
X94379341Y-63024081D01*
X94121800Y-63024081D01*
X94121800Y-62925027D01*
X94133096Y-62869557D01*
X94282763Y-62869557D01*
X94298534Y-62880152D01*
X94362846Y-62891076D01*
X94459822Y-62895311D01*
X94532663Y-62893017D01*
X94607767Y-62883662D01*
X94636882Y-62869557D01*
X94619398Y-62826073D01*
X94554491Y-62783306D01*
X94459822Y-62766540D01*
X94385085Y-62776712D01*
X94311579Y-62814477D01*
X94282763Y-62869557D01*
X94133096Y-62869557D01*
X94139427Y-62838471D01*
X94206589Y-62737669D01*
X94308043Y-62665419D01*
X94426752Y-62637769D01*
X94491651Y-62641482D01*
X94633413Y-62685192D01*
X94732201Y-62775233D01*
X94769756Y-62869557D01*
X94785062Y-62908000D01*
G37*
G36*
X98365584Y-55610055D02*
G01*
X98472767Y-55632861D01*
X98573350Y-55656620D01*
X98690498Y-55682490D01*
X98773637Y-55698793D01*
X98895236Y-55720750D01*
X99033330Y-55753223D01*
X99120583Y-55786145D01*
X99151770Y-55806406D01*
X99159596Y-55839893D01*
X99130486Y-55903058D01*
X99100421Y-55962127D01*
X99054304Y-56058113D01*
X99000888Y-56172502D01*
X98947168Y-56289987D01*
X98900137Y-56395260D01*
X98866789Y-56473014D01*
X98854119Y-56507939D01*
X98863380Y-56515074D01*
X98912351Y-56521166D01*
X98952176Y-56527492D01*
X99025165Y-56561407D01*
X99040994Y-56573772D01*
X99061542Y-56603801D01*
X99053917Y-56649076D01*
X99017132Y-56730418D01*
X98977393Y-56814681D01*
X98928778Y-56921347D01*
X98878601Y-57033885D01*
X98833966Y-57136197D01*
X98801976Y-57212185D01*
X98789734Y-57245752D01*
X98802087Y-57253883D01*
X98853957Y-57270882D01*
X98870712Y-57275961D01*
X98919591Y-57309444D01*
X98932862Y-57369132D01*
X98910483Y-57464145D01*
X98852412Y-57603598D01*
X98793724Y-57731375D01*
X98735959Y-57857942D01*
X98692615Y-57953739D01*
X98651819Y-58044386D01*
X98594889Y-58170417D01*
X98536281Y-58299810D01*
X98487947Y-58399317D01*
X98431388Y-58489226D01*
X98389957Y-58516590D01*
X98363601Y-58481388D01*
X98352268Y-58383598D01*
X98355906Y-58223196D01*
X98359886Y-58153403D01*
X98368180Y-58004500D01*
X98377639Y-57831671D01*
X98386896Y-57659771D01*
X98406005Y-57301418D01*
X98321617Y-57280238D01*
X98316672Y-57278961D01*
X98276504Y-57261997D01*
X98255203Y-57229791D01*
X98251919Y-57170527D01*
X98265804Y-57072393D01*
X98296010Y-56923574D01*
X98300827Y-56900954D01*
X98330958Y-56749284D01*
X98344833Y-56646164D01*
X98342154Y-56579271D01*
X98322626Y-56536286D01*
X98285953Y-56504888D01*
X98283111Y-56503021D01*
X98253176Y-56480265D01*
X98233207Y-56451066D01*
X98221580Y-56403841D01*
X98216670Y-56327007D01*
X98216853Y-56208980D01*
X98220506Y-56038178D01*
X98221185Y-56011545D01*
X98226677Y-55857056D01*
X98233793Y-55728829D01*
X98241688Y-55639569D01*
X98249518Y-55601982D01*
X98284913Y-55599110D01*
X98365584Y-55610055D01*
G37*
G36*
X97102933Y-62908000D02*
G01*
X97106913Y-63079890D01*
X97102861Y-63110586D01*
X97069544Y-63223779D01*
X97004414Y-63304705D01*
X96991464Y-63314820D01*
X96902931Y-63355354D01*
X96792696Y-63375154D01*
X96677616Y-63375338D01*
X96574546Y-63357024D01*
X96500343Y-63321331D01*
X96471863Y-63269376D01*
X96472465Y-63262067D01*
X96492496Y-63240300D01*
X96550347Y-63233706D01*
X96658811Y-63240295D01*
X96734380Y-63244072D01*
X96858448Y-63227168D01*
X96931086Y-63174960D01*
X96954753Y-63086167D01*
X96953980Y-63071882D01*
X96941254Y-63046313D01*
X96902802Y-63031892D01*
X96825747Y-63025517D01*
X96697212Y-63024081D01*
X96439670Y-63024081D01*
X96439670Y-62925027D01*
X96450967Y-62869557D01*
X96600634Y-62869557D01*
X96616405Y-62880152D01*
X96680717Y-62891076D01*
X96777693Y-62895311D01*
X96850534Y-62893017D01*
X96925637Y-62883662D01*
X96954753Y-62869557D01*
X96937269Y-62826073D01*
X96872361Y-62783306D01*
X96777693Y-62766540D01*
X96702956Y-62776712D01*
X96629450Y-62814477D01*
X96600634Y-62869557D01*
X96450967Y-62869557D01*
X96457298Y-62838471D01*
X96524460Y-62737669D01*
X96625914Y-62665419D01*
X96744623Y-62637769D01*
X96809522Y-62641482D01*
X96951284Y-62685192D01*
X97050072Y-62775233D01*
X97087627Y-62869557D01*
X97102933Y-62908000D01*
G37*
G36*
X100528137Y-63378200D02*
G01*
X100367174Y-63378200D01*
X100367174Y-62637769D01*
X100528137Y-62637769D01*
X100528137Y-63378200D01*
G37*
G36*
X98655545Y-62359551D02*
G01*
X98775050Y-62409279D01*
X98853625Y-62488715D01*
X98885703Y-62587357D01*
X98865715Y-62694707D01*
X98788095Y-62800264D01*
X98769912Y-62816568D01*
X98688092Y-62877866D01*
X98619083Y-62913566D01*
X98589151Y-62924271D01*
X98497182Y-62983964D01*
X98444659Y-63062595D01*
X98438147Y-63145370D01*
X98484212Y-63217493D01*
X98494171Y-63224264D01*
X98575009Y-63242002D01*
X98697064Y-63233359D01*
X98846071Y-63199064D01*
X98894108Y-63195068D01*
X98919312Y-63222510D01*
X98903630Y-63272052D01*
X98846956Y-63328086D01*
X98774362Y-63359597D01*
X98650995Y-63376193D01*
X98518443Y-63366535D01*
X98404505Y-63330471D01*
X98335918Y-63275535D01*
X98276175Y-63173564D01*
X98257510Y-63071135D01*
X98283286Y-62971193D01*
X98363892Y-62882305D01*
X98504028Y-62796699D01*
X98581544Y-62753443D01*
X98680966Y-62673245D01*
X98718040Y-62596183D01*
X98691874Y-62523550D01*
X98689325Y-62520703D01*
X98630866Y-62490818D01*
X98547363Y-62477888D01*
X98467389Y-62483439D01*
X98419518Y-62508999D01*
X98378666Y-62539789D01*
X98329818Y-62528914D01*
X98306844Y-62477939D01*
X98306846Y-62477335D01*
X98336524Y-62408240D01*
X98419550Y-62363771D01*
X98548289Y-62348036D01*
X98655545Y-62359551D01*
G37*
G36*
X102413250Y-62348161D02*
G01*
X102551928Y-62349892D01*
X102640901Y-62354863D01*
X102690335Y-62364589D01*
X102710399Y-62380588D01*
X102711260Y-62404373D01*
X102698923Y-62431105D01*
X102648526Y-62457408D01*
X102547936Y-62470522D01*
X102395310Y-62480334D01*
X102395310Y-63378200D01*
X102234347Y-63378200D01*
X102234347Y-62476806D01*
X102089480Y-62476806D01*
X102079073Y-62476782D01*
X101993451Y-62471683D01*
X101954092Y-62452657D01*
X101944613Y-62412421D01*
X101946076Y-62393024D01*
X101958582Y-62372129D01*
X101992918Y-62358945D01*
X102059722Y-62351709D01*
X102169632Y-62348660D01*
X102333286Y-62348036D01*
X102413250Y-62348161D01*
G37*
G36*
X97437643Y-63378200D02*
G01*
X97276679Y-63378200D01*
X97276679Y-62637769D01*
X97437643Y-62637769D01*
X97437643Y-63378200D01*
G37*
G36*
X101848035Y-63378200D02*
G01*
X101767554Y-63378200D01*
X101742154Y-63377549D01*
X101710963Y-63367539D01*
X101694538Y-63334440D01*
X101688151Y-63264488D01*
X101687072Y-63143919D01*
X101686820Y-63111100D01*
X101674100Y-62950385D01*
X101639695Y-62843818D01*
X101580170Y-62784752D01*
X101492091Y-62766540D01*
X101470283Y-62766013D01*
X101412873Y-62749633D01*
X101397338Y-62702155D01*
X101404379Y-62674259D01*
X101452967Y-62641074D01*
X101532476Y-62639196D01*
X101624803Y-62671095D01*
X101667366Y-62687977D01*
X101687072Y-62671095D01*
X101707060Y-62649174D01*
X101767554Y-62637769D01*
X101848035Y-62637769D01*
X101848035Y-63378200D01*
G37*
G36*
X97939433Y-62652527D02*
G01*
X98043064Y-62713042D01*
X98108751Y-62823108D01*
X98139202Y-62985733D01*
X98144713Y-63094215D01*
X98137230Y-63166703D01*
X98109720Y-63220957D01*
X98055554Y-63280323D01*
X98021466Y-63312169D01*
X97935060Y-63364144D01*
X97829997Y-63378200D01*
X97728725Y-63364981D01*
X97637321Y-63324764D01*
X97582367Y-63267108D01*
X97577812Y-63201773D01*
X97589442Y-63174932D01*
X97612874Y-63162129D01*
X97658149Y-63196759D01*
X97659132Y-63197642D01*
X97748829Y-63241772D01*
X97850351Y-63242246D01*
X97934329Y-63198841D01*
X97937808Y-63195116D01*
X97972068Y-63119813D01*
X97984918Y-63007985D01*
X97984829Y-62998249D01*
X97970026Y-62888454D01*
X97934329Y-62817129D01*
X97933452Y-62816260D01*
X97849046Y-62773442D01*
X97747489Y-62774500D01*
X97658149Y-62819211D01*
X97629791Y-62843557D01*
X97599095Y-62852981D01*
X97577812Y-62814197D01*
X97579199Y-62756548D01*
X97628885Y-62697368D01*
X97715844Y-62654371D01*
X97825726Y-62637769D01*
X97939433Y-62652527D01*
G37*
G36*
X95267443Y-62652527D02*
G01*
X95371074Y-62713042D01*
X95436761Y-62823108D01*
X95467213Y-62985733D01*
X95472723Y-63094215D01*
X95465240Y-63166703D01*
X95437730Y-63220957D01*
X95383565Y-63280323D01*
X95349476Y-63312169D01*
X95263070Y-63364144D01*
X95158007Y-63378200D01*
X95056735Y-63364981D01*
X94965331Y-63324764D01*
X94910377Y-63267108D01*
X94905822Y-63201773D01*
X94917453Y-63174932D01*
X94940884Y-63162129D01*
X94986159Y-63196759D01*
X94987143Y-63197642D01*
X95076839Y-63241772D01*
X95178361Y-63242246D01*
X95262339Y-63198841D01*
X95272905Y-63186043D01*
X95303926Y-63103032D01*
X95312505Y-62994878D01*
X95298643Y-62890078D01*
X95262339Y-62817129D01*
X95261462Y-62816260D01*
X95177057Y-62773442D01*
X95075499Y-62774500D01*
X94986159Y-62819211D01*
X94957801Y-62843557D01*
X94927105Y-62852981D01*
X94905822Y-62814197D01*
X94907209Y-62756548D01*
X94956895Y-62697368D01*
X95043854Y-62654371D01*
X95153736Y-62637769D01*
X95267443Y-62652527D01*
G37*
G36*
X96230632Y-62638988D02*
G01*
X96254082Y-62649787D01*
X96268311Y-62681124D01*
X96275622Y-62743962D01*
X96278320Y-62849262D01*
X96278707Y-63007985D01*
X96278707Y-63378200D01*
X96198226Y-63378200D01*
X96164899Y-63376724D01*
X96138045Y-63363601D01*
X96124001Y-63325642D01*
X96118617Y-63249664D01*
X96117744Y-63122485D01*
X96117648Y-63083304D01*
X96114459Y-62966262D01*
X96103981Y-62893461D01*
X96082472Y-62848920D01*
X96046196Y-62816654D01*
X96028838Y-62805399D01*
X95939310Y-62771399D01*
X95861414Y-62775444D01*
X95815358Y-62817462D01*
X95813401Y-62823840D01*
X95804470Y-62889366D01*
X95798190Y-62995739D01*
X95795817Y-63123292D01*
X95795363Y-63228007D01*
X95791258Y-63313522D01*
X95779330Y-63358257D01*
X95755413Y-63375415D01*
X95715336Y-63378200D01*
X95710166Y-63378194D01*
X95673666Y-63374987D01*
X95651405Y-63357328D01*
X95639863Y-63312734D01*
X95635520Y-63228722D01*
X95634854Y-63092808D01*
X95640764Y-62928568D01*
X95664825Y-62790150D01*
X95711329Y-62700519D01*
X95784433Y-62652213D01*
X95888293Y-62637769D01*
X95902737Y-62638050D01*
X95991895Y-62651219D01*
X96050944Y-62678010D01*
X96086858Y-62702107D01*
X96108354Y-62678010D01*
X96135439Y-62652507D01*
X96200908Y-62637769D01*
X96230632Y-62638988D01*
G37*
G36*
X101331800Y-63157537D02*
G01*
X101317997Y-63253657D01*
X101263052Y-63326932D01*
X101215337Y-63349617D01*
X101111055Y-63367821D01*
X100954320Y-63371021D01*
X100715488Y-63366149D01*
X100724949Y-63110009D01*
X100882256Y-63110009D01*
X100887663Y-63147033D01*
X100920887Y-63210799D01*
X100962907Y-63236034D01*
X101041587Y-63248708D01*
X101117211Y-63235887D01*
X101161178Y-63198977D01*
X101163371Y-63141434D01*
X101111613Y-63096669D01*
X101000200Y-63066989D01*
X100929399Y-63058870D01*
X100891113Y-63070273D01*
X100882256Y-63110009D01*
X100724949Y-63110009D01*
X100726439Y-63069661D01*
X100729750Y-62996881D01*
X100745189Y-62842138D01*
X100775297Y-62738404D01*
X100826525Y-62676130D01*
X100905320Y-62645768D01*
X101018132Y-62637769D01*
X101053023Y-62638364D01*
X101185633Y-62655257D01*
X101270723Y-62693209D01*
X101300760Y-62749250D01*
X101300575Y-62753278D01*
X101282746Y-62776184D01*
X101226931Y-62782973D01*
X101120538Y-62775480D01*
X101022247Y-62768689D01*
X100948450Y-62775964D01*
X100911779Y-62801951D01*
X100889171Y-62848663D01*
X100890730Y-62905832D01*
X100938593Y-62927683D01*
X101000848Y-62933723D01*
X101111053Y-62960717D01*
X101214915Y-63000608D01*
X101283578Y-63043690D01*
X101302410Y-63066887D01*
X101326579Y-63141434D01*
X101331800Y-63157537D01*
G37*
G36*
X102909319Y-54777634D02*
G01*
X102840391Y-54901603D01*
X102753544Y-55054190D01*
X102647239Y-55238043D01*
X102519940Y-55455812D01*
X102370107Y-55710146D01*
X102196204Y-56003693D01*
X101996692Y-56339103D01*
X101770035Y-56719024D01*
X101514693Y-57146106D01*
X101229130Y-57622996D01*
X100911808Y-58152344D01*
X100848249Y-58258324D01*
X100584652Y-58697804D01*
X100330181Y-59121988D01*
X100086834Y-59527547D01*
X99856611Y-59911155D01*
X99641509Y-60269484D01*
X99443527Y-60599208D01*
X99264662Y-60897000D01*
X99106914Y-61159531D01*
X98972280Y-61383476D01*
X98862758Y-61565508D01*
X98780348Y-61702298D01*
X98727047Y-61790521D01*
X98704854Y-61826849D01*
X98656237Y-61877194D01*
X98573048Y-61891234D01*
X98567308Y-61889830D01*
X98550270Y-61879488D01*
X98527050Y-61857107D01*
X98495962Y-61819991D01*
X98455317Y-61765444D01*
X98403427Y-61690771D01*
X98338606Y-61593274D01*
X98259164Y-61470259D01*
X98163414Y-61319029D01*
X98049668Y-61136888D01*
X97916239Y-60921141D01*
X97761439Y-60669091D01*
X97583579Y-60378044D01*
X97380972Y-60045302D01*
X97151931Y-59668170D01*
X96894766Y-59243951D01*
X96607792Y-58769951D01*
X96289319Y-58243473D01*
X96246932Y-58173373D01*
X95905669Y-57608468D01*
X95597101Y-57096665D01*
X95320308Y-56636404D01*
X95074369Y-56226125D01*
X94858366Y-55864265D01*
X94671377Y-55549265D01*
X94512483Y-55279564D01*
X94380764Y-55053600D01*
X94275299Y-54869813D01*
X94195169Y-54726643D01*
X94182133Y-54702282D01*
X94451267Y-54702282D01*
X96242237Y-57664660D01*
X96451284Y-58010436D01*
X96695156Y-58413804D01*
X96931827Y-58805256D01*
X97158687Y-59180472D01*
X97373125Y-59535135D01*
X97572530Y-59864926D01*
X97754290Y-60165527D01*
X97915795Y-60432620D01*
X98054434Y-60661887D01*
X98167595Y-60849010D01*
X98252669Y-60989669D01*
X98307043Y-61079549D01*
X98580880Y-61532058D01*
X102678624Y-54702282D01*
X100621505Y-54693997D01*
X100540962Y-54693685D01*
X100086510Y-54692298D01*
X99586428Y-54691318D01*
X99056433Y-54690746D01*
X98512241Y-54690581D01*
X97969568Y-54690824D01*
X97444130Y-54691474D01*
X96951644Y-54692532D01*
X96507826Y-54693997D01*
X94451267Y-54702282D01*
X94182133Y-54702282D01*
X94139454Y-54622528D01*
X94107234Y-54555908D01*
X94097588Y-54525222D01*
X94105703Y-54444740D01*
X98555144Y-54436579D01*
X99151718Y-54435499D01*
X99717326Y-54434537D01*
X100224771Y-54433786D01*
X100677236Y-54433284D01*
X101077905Y-54433070D01*
X101429962Y-54433182D01*
X101736592Y-54433657D01*
X102000980Y-54434534D01*
X102226308Y-54435852D01*
X102415762Y-54437648D01*
X102572525Y-54439961D01*
X102699782Y-54442828D01*
X102800717Y-54446288D01*
X102878514Y-54450379D01*
X102936357Y-54455140D01*
X102977430Y-54460608D01*
X103004918Y-54466821D01*
X103022005Y-54473819D01*
X103031875Y-54481638D01*
X103037712Y-54490317D01*
X103038984Y-54494349D01*
X103036588Y-54514961D01*
X103023961Y-54550947D01*
X102999566Y-54604955D01*
X102961864Y-54679635D01*
X102949721Y-54702282D01*
X102909319Y-54777634D01*
G37*
G36*
X101581719Y-55383184D02*
G01*
X101502787Y-55532073D01*
X101397520Y-55724575D01*
X101264981Y-55962366D01*
X101104234Y-56247123D01*
X100914343Y-56580524D01*
X100694371Y-56964245D01*
X100443382Y-57399962D01*
X100160439Y-57889354D01*
X100111932Y-57973120D01*
X99895243Y-58347143D01*
X99687855Y-58704831D01*
X99492060Y-59042244D01*
X99310153Y-59355441D01*
X99144426Y-59640482D01*
X98997173Y-59893428D01*
X98870688Y-60110339D01*
X98767262Y-60287274D01*
X98689191Y-60420294D01*
X98638767Y-60505458D01*
X98618283Y-60538827D01*
X98578828Y-60563333D01*
X98504969Y-60571019D01*
X98495686Y-60568271D01*
X98475663Y-60554318D01*
X98448629Y-60525943D01*
X98412638Y-60479973D01*
X98365739Y-60413233D01*
X98305986Y-60322552D01*
X98231428Y-60204755D01*
X98140119Y-60056670D01*
X98030109Y-59875124D01*
X97899450Y-59656942D01*
X97746193Y-59398953D01*
X97568390Y-59097982D01*
X97364093Y-58750857D01*
X97131353Y-58354404D01*
X96868222Y-57905450D01*
X96619297Y-57479970D01*
X96358813Y-57033321D01*
X96129789Y-56638872D01*
X95931313Y-56295011D01*
X95762474Y-56000128D01*
X95622359Y-55752610D01*
X95510059Y-55550845D01*
X95424661Y-55393220D01*
X95400356Y-55346134D01*
X95670753Y-55346134D01*
X97078654Y-57751177D01*
X97248203Y-58040713D01*
X97452368Y-58389092D01*
X97645448Y-58718265D01*
X97825065Y-59024190D01*
X97988839Y-59302826D01*
X98134391Y-59550130D01*
X98259342Y-59762061D01*
X98361313Y-59934577D01*
X98437924Y-60063637D01*
X98486797Y-60145197D01*
X98505551Y-60175218D01*
X98519109Y-60158326D01*
X98562889Y-60090149D01*
X98634496Y-59973481D01*
X98731586Y-59812287D01*
X98851814Y-59610530D01*
X98992836Y-59372174D01*
X99152308Y-59101185D01*
X99327885Y-58801526D01*
X99517222Y-58477162D01*
X99717976Y-58132056D01*
X99927803Y-57770175D01*
X101331057Y-55346134D01*
X99915529Y-55337751D01*
X99623334Y-55336322D01*
X99212992Y-55335062D01*
X98772337Y-55334402D01*
X98320309Y-55334341D01*
X97875847Y-55334879D01*
X97457890Y-55336016D01*
X97085377Y-55337751D01*
X95670753Y-55346134D01*
X95400356Y-55346134D01*
X95365252Y-55278125D01*
X95330923Y-55203948D01*
X95320761Y-55169075D01*
X95329024Y-55088593D01*
X101670976Y-55088593D01*
X101670640Y-55185171D01*
X101664325Y-55209537D01*
X101635253Y-55276231D01*
X101600264Y-55346134D01*
X101581719Y-55383184D01*
G37*
%TD*%
%LPC*%
D11*
%TO.C,REF\u002A\u002A*%
X98000000Y-48500000D03*
%TD*%
%TO.C,REF\u002A\u002A*%
X98000000Y-108500000D03*
%TD*%
D12*
%TO.C,J108*%
X91000000Y-99000000D03*
D13*
X91000000Y-102500000D03*
X91000000Y-106000000D03*
X91000000Y-109500000D03*
%TD*%
D14*
%TO.C,J107*%
X105000000Y-109500000D03*
D13*
X105000000Y-106000000D03*
X105000000Y-102500000D03*
X105000000Y-99000000D03*
%TD*%
D12*
%TO.C,J106*%
X91000000Y-82000000D03*
D13*
X91000000Y-85500000D03*
X91000000Y-89000000D03*
X91000000Y-92500000D03*
%TD*%
D12*
%TO.C,J105*%
X91000000Y-47500000D03*
D13*
X91000000Y-51000000D03*
X91000000Y-54500000D03*
X91000000Y-58000000D03*
%TD*%
D15*
%TO.C,J104*%
X107000000Y-58000000D03*
X109500000Y-58000000D03*
X107000000Y-54500000D03*
X109500000Y-54500000D03*
X107000000Y-51000000D03*
X109500000Y-51000000D03*
X107000000Y-47500000D03*
X109500000Y-47500000D03*
%TD*%
D14*
%TO.C,J103*%
X105000000Y-92500000D03*
D13*
X105000000Y-89000000D03*
X105000000Y-85500000D03*
X105000000Y-82000000D03*
%TD*%
D14*
%TO.C,J102*%
X105000000Y-75500000D03*
D13*
X105000000Y-72000000D03*
X105000000Y-68500000D03*
X105000000Y-65000000D03*
%TD*%
D12*
%TO.C,J101*%
X91000000Y-65000000D03*
D13*
X91000000Y-68500000D03*
X91000000Y-72000000D03*
X91000000Y-75500000D03*
%TD*%
%LPD*%
M02*
