%TF.GenerationSoftware,KiCad,Pcbnew,8.0.2*%
%TF.CreationDate,2024-09-06T00:12:25+02:00*%
%TF.ProjectId,splitX_pluggable_4p,73706c69-7458-45f7-906c-75676761626c,rev?*%
%TF.SameCoordinates,Original*%
%TF.FileFunction,Legend,Top*%
%TF.FilePolarity,Positive*%
%FSLAX46Y46*%
G04 Gerber Fmt 4.6, Leading zero omitted, Abs format (unit mm)*
G04 Created by KiCad (PCBNEW 8.0.2) date 2024-09-06 00:12:25*
%MOMM*%
%LPD*%
G01*
G04 APERTURE LIST*
G04 Aperture macros list*
%AMRoundRect*
0 Rectangle with rounded corners*
0 $1 Rounding radius*
0 $2 $3 $4 $5 $6 $7 $8 $9 X,Y pos of 4 corners*
0 Add a 4 corners polygon primitive as box body*
4,1,4,$2,$3,$4,$5,$6,$7,$8,$9,$2,$3,0*
0 Add four circle primitives for the rounded corners*
1,1,$1+$1,$2,$3*
1,1,$1+$1,$4,$5*
1,1,$1+$1,$6,$7*
1,1,$1+$1,$8,$9*
0 Add four rect primitives between the rounded corners*
20,1,$1+$1,$2,$3,$4,$5,0*
20,1,$1+$1,$4,$5,$6,$7,0*
20,1,$1+$1,$6,$7,$8,$9,0*
20,1,$1+$1,$8,$9,$2,$3,0*%
G04 Aperture macros list end*
%ADD10C,0.300000*%
%ADD11C,0.150000*%
%ADD12C,0.120000*%
%ADD13C,0.100000*%
%ADD14C,3.200000*%
%ADD15RoundRect,0.250000X-1.550000X0.650000X-1.550000X-0.650000X1.550000X-0.650000X1.550000X0.650000X0*%
%ADD16O,3.600000X1.800000*%
%ADD17RoundRect,0.250000X1.550000X-0.650000X1.550000X0.650000X-1.550000X0.650000X-1.550000X-0.650000X0*%
%ADD18C,2.200000*%
G04 APERTURE END LIST*
D10*
X94331790Y-47238094D02*
X94331790Y-48190475D01*
X93760361Y-47047618D02*
X95760361Y-47714284D01*
X95760361Y-47714284D02*
X93760361Y-48380951D01*
X94807980Y-51238095D02*
X94712742Y-51523809D01*
X94712742Y-51523809D02*
X94617504Y-51619047D01*
X94617504Y-51619047D02*
X94427028Y-51714285D01*
X94427028Y-51714285D02*
X94141314Y-51714285D01*
X94141314Y-51714285D02*
X93950838Y-51619047D01*
X93950838Y-51619047D02*
X93855600Y-51523809D01*
X93855600Y-51523809D02*
X93760361Y-51333333D01*
X93760361Y-51333333D02*
X93760361Y-50571428D01*
X93760361Y-50571428D02*
X95760361Y-50571428D01*
X95760361Y-50571428D02*
X95760361Y-51238095D01*
X95760361Y-51238095D02*
X95665123Y-51428571D01*
X95665123Y-51428571D02*
X95569885Y-51523809D01*
X95569885Y-51523809D02*
X95379409Y-51619047D01*
X95379409Y-51619047D02*
X95188933Y-51619047D01*
X95188933Y-51619047D02*
X94998457Y-51523809D01*
X94998457Y-51523809D02*
X94903219Y-51428571D01*
X94903219Y-51428571D02*
X94807980Y-51238095D01*
X94807980Y-51238095D02*
X94807980Y-50571428D01*
X93950838Y-55238095D02*
X93855600Y-55142857D01*
X93855600Y-55142857D02*
X93760361Y-54857143D01*
X93760361Y-54857143D02*
X93760361Y-54666667D01*
X93760361Y-54666667D02*
X93855600Y-54380952D01*
X93855600Y-54380952D02*
X94046076Y-54190476D01*
X94046076Y-54190476D02*
X94236552Y-54095238D01*
X94236552Y-54095238D02*
X94617504Y-54000000D01*
X94617504Y-54000000D02*
X94903219Y-54000000D01*
X94903219Y-54000000D02*
X95284171Y-54095238D01*
X95284171Y-54095238D02*
X95474647Y-54190476D01*
X95474647Y-54190476D02*
X95665123Y-54380952D01*
X95665123Y-54380952D02*
X95760361Y-54666667D01*
X95760361Y-54666667D02*
X95760361Y-54857143D01*
X95760361Y-54857143D02*
X95665123Y-55142857D01*
X95665123Y-55142857D02*
X95569885Y-55238095D01*
X93760361Y-57619048D02*
X95760361Y-57619048D01*
X95760361Y-57619048D02*
X95760361Y-58095238D01*
X95760361Y-58095238D02*
X95665123Y-58380953D01*
X95665123Y-58380953D02*
X95474647Y-58571429D01*
X95474647Y-58571429D02*
X95284171Y-58666667D01*
X95284171Y-58666667D02*
X94903219Y-58761905D01*
X94903219Y-58761905D02*
X94617504Y-58761905D01*
X94617504Y-58761905D02*
X94236552Y-58666667D01*
X94236552Y-58666667D02*
X94046076Y-58571429D01*
X94046076Y-58571429D02*
X93855600Y-58380953D01*
X93855600Y-58380953D02*
X93760361Y-58095238D01*
X93760361Y-58095238D02*
X93760361Y-57619048D01*
X94331790Y-64238094D02*
X94331790Y-65190475D01*
X93760361Y-64047618D02*
X95760361Y-64714284D01*
X95760361Y-64714284D02*
X93760361Y-65380951D01*
X94807980Y-68238095D02*
X94712742Y-68523809D01*
X94712742Y-68523809D02*
X94617504Y-68619047D01*
X94617504Y-68619047D02*
X94427028Y-68714285D01*
X94427028Y-68714285D02*
X94141314Y-68714285D01*
X94141314Y-68714285D02*
X93950838Y-68619047D01*
X93950838Y-68619047D02*
X93855600Y-68523809D01*
X93855600Y-68523809D02*
X93760361Y-68333333D01*
X93760361Y-68333333D02*
X93760361Y-67571428D01*
X93760361Y-67571428D02*
X95760361Y-67571428D01*
X95760361Y-67571428D02*
X95760361Y-68238095D01*
X95760361Y-68238095D02*
X95665123Y-68428571D01*
X95665123Y-68428571D02*
X95569885Y-68523809D01*
X95569885Y-68523809D02*
X95379409Y-68619047D01*
X95379409Y-68619047D02*
X95188933Y-68619047D01*
X95188933Y-68619047D02*
X94998457Y-68523809D01*
X94998457Y-68523809D02*
X94903219Y-68428571D01*
X94903219Y-68428571D02*
X94807980Y-68238095D01*
X94807980Y-68238095D02*
X94807980Y-67571428D01*
X93950838Y-72238095D02*
X93855600Y-72142857D01*
X93855600Y-72142857D02*
X93760361Y-71857143D01*
X93760361Y-71857143D02*
X93760361Y-71666667D01*
X93760361Y-71666667D02*
X93855600Y-71380952D01*
X93855600Y-71380952D02*
X94046076Y-71190476D01*
X94046076Y-71190476D02*
X94236552Y-71095238D01*
X94236552Y-71095238D02*
X94617504Y-71000000D01*
X94617504Y-71000000D02*
X94903219Y-71000000D01*
X94903219Y-71000000D02*
X95284171Y-71095238D01*
X95284171Y-71095238D02*
X95474647Y-71190476D01*
X95474647Y-71190476D02*
X95665123Y-71380952D01*
X95665123Y-71380952D02*
X95760361Y-71666667D01*
X95760361Y-71666667D02*
X95760361Y-71857143D01*
X95760361Y-71857143D02*
X95665123Y-72142857D01*
X95665123Y-72142857D02*
X95569885Y-72238095D01*
X93760361Y-74619048D02*
X95760361Y-74619048D01*
X95760361Y-74619048D02*
X95760361Y-75095238D01*
X95760361Y-75095238D02*
X95665123Y-75380953D01*
X95665123Y-75380953D02*
X95474647Y-75571429D01*
X95474647Y-75571429D02*
X95284171Y-75666667D01*
X95284171Y-75666667D02*
X94903219Y-75761905D01*
X94903219Y-75761905D02*
X94617504Y-75761905D01*
X94617504Y-75761905D02*
X94236552Y-75666667D01*
X94236552Y-75666667D02*
X94046076Y-75571429D01*
X94046076Y-75571429D02*
X93855600Y-75380953D01*
X93855600Y-75380953D02*
X93760361Y-75095238D01*
X93760361Y-75095238D02*
X93760361Y-74619048D01*
X94331790Y-81738094D02*
X94331790Y-82690475D01*
X93760361Y-81547618D02*
X95760361Y-82214284D01*
X95760361Y-82214284D02*
X93760361Y-82880951D01*
X94807980Y-85738095D02*
X94712742Y-86023809D01*
X94712742Y-86023809D02*
X94617504Y-86119047D01*
X94617504Y-86119047D02*
X94427028Y-86214285D01*
X94427028Y-86214285D02*
X94141314Y-86214285D01*
X94141314Y-86214285D02*
X93950838Y-86119047D01*
X93950838Y-86119047D02*
X93855600Y-86023809D01*
X93855600Y-86023809D02*
X93760361Y-85833333D01*
X93760361Y-85833333D02*
X93760361Y-85071428D01*
X93760361Y-85071428D02*
X95760361Y-85071428D01*
X95760361Y-85071428D02*
X95760361Y-85738095D01*
X95760361Y-85738095D02*
X95665123Y-85928571D01*
X95665123Y-85928571D02*
X95569885Y-86023809D01*
X95569885Y-86023809D02*
X95379409Y-86119047D01*
X95379409Y-86119047D02*
X95188933Y-86119047D01*
X95188933Y-86119047D02*
X94998457Y-86023809D01*
X94998457Y-86023809D02*
X94903219Y-85928571D01*
X94903219Y-85928571D02*
X94807980Y-85738095D01*
X94807980Y-85738095D02*
X94807980Y-85071428D01*
X93950838Y-89738095D02*
X93855600Y-89642857D01*
X93855600Y-89642857D02*
X93760361Y-89357143D01*
X93760361Y-89357143D02*
X93760361Y-89166667D01*
X93760361Y-89166667D02*
X93855600Y-88880952D01*
X93855600Y-88880952D02*
X94046076Y-88690476D01*
X94046076Y-88690476D02*
X94236552Y-88595238D01*
X94236552Y-88595238D02*
X94617504Y-88500000D01*
X94617504Y-88500000D02*
X94903219Y-88500000D01*
X94903219Y-88500000D02*
X95284171Y-88595238D01*
X95284171Y-88595238D02*
X95474647Y-88690476D01*
X95474647Y-88690476D02*
X95665123Y-88880952D01*
X95665123Y-88880952D02*
X95760361Y-89166667D01*
X95760361Y-89166667D02*
X95760361Y-89357143D01*
X95760361Y-89357143D02*
X95665123Y-89642857D01*
X95665123Y-89642857D02*
X95569885Y-89738095D01*
X93760361Y-92119048D02*
X95760361Y-92119048D01*
X95760361Y-92119048D02*
X95760361Y-92595238D01*
X95760361Y-92595238D02*
X95665123Y-92880953D01*
X95665123Y-92880953D02*
X95474647Y-93071429D01*
X95474647Y-93071429D02*
X95284171Y-93166667D01*
X95284171Y-93166667D02*
X94903219Y-93261905D01*
X94903219Y-93261905D02*
X94617504Y-93261905D01*
X94617504Y-93261905D02*
X94236552Y-93166667D01*
X94236552Y-93166667D02*
X94046076Y-93071429D01*
X94046076Y-93071429D02*
X93855600Y-92880953D01*
X93855600Y-92880953D02*
X93760361Y-92595238D01*
X93760361Y-92595238D02*
X93760361Y-92119048D01*
X94331790Y-98738094D02*
X94331790Y-99690475D01*
X93760361Y-98547618D02*
X95760361Y-99214284D01*
X95760361Y-99214284D02*
X93760361Y-99880951D01*
X94807980Y-102738095D02*
X94712742Y-103023809D01*
X94712742Y-103023809D02*
X94617504Y-103119047D01*
X94617504Y-103119047D02*
X94427028Y-103214285D01*
X94427028Y-103214285D02*
X94141314Y-103214285D01*
X94141314Y-103214285D02*
X93950838Y-103119047D01*
X93950838Y-103119047D02*
X93855600Y-103023809D01*
X93855600Y-103023809D02*
X93760361Y-102833333D01*
X93760361Y-102833333D02*
X93760361Y-102071428D01*
X93760361Y-102071428D02*
X95760361Y-102071428D01*
X95760361Y-102071428D02*
X95760361Y-102738095D01*
X95760361Y-102738095D02*
X95665123Y-102928571D01*
X95665123Y-102928571D02*
X95569885Y-103023809D01*
X95569885Y-103023809D02*
X95379409Y-103119047D01*
X95379409Y-103119047D02*
X95188933Y-103119047D01*
X95188933Y-103119047D02*
X94998457Y-103023809D01*
X94998457Y-103023809D02*
X94903219Y-102928571D01*
X94903219Y-102928571D02*
X94807980Y-102738095D01*
X94807980Y-102738095D02*
X94807980Y-102071428D01*
X93950838Y-106738095D02*
X93855600Y-106642857D01*
X93855600Y-106642857D02*
X93760361Y-106357143D01*
X93760361Y-106357143D02*
X93760361Y-106166667D01*
X93760361Y-106166667D02*
X93855600Y-105880952D01*
X93855600Y-105880952D02*
X94046076Y-105690476D01*
X94046076Y-105690476D02*
X94236552Y-105595238D01*
X94236552Y-105595238D02*
X94617504Y-105500000D01*
X94617504Y-105500000D02*
X94903219Y-105500000D01*
X94903219Y-105500000D02*
X95284171Y-105595238D01*
X95284171Y-105595238D02*
X95474647Y-105690476D01*
X95474647Y-105690476D02*
X95665123Y-105880952D01*
X95665123Y-105880952D02*
X95760361Y-106166667D01*
X95760361Y-106166667D02*
X95760361Y-106357143D01*
X95760361Y-106357143D02*
X95665123Y-106642857D01*
X95665123Y-106642857D02*
X95569885Y-106738095D01*
X93760361Y-109119048D02*
X95760361Y-109119048D01*
X95760361Y-109119048D02*
X95760361Y-109595238D01*
X95760361Y-109595238D02*
X95665123Y-109880953D01*
X95665123Y-109880953D02*
X95474647Y-110071429D01*
X95474647Y-110071429D02*
X95284171Y-110166667D01*
X95284171Y-110166667D02*
X94903219Y-110261905D01*
X94903219Y-110261905D02*
X94617504Y-110261905D01*
X94617504Y-110261905D02*
X94236552Y-110166667D01*
X94236552Y-110166667D02*
X94046076Y-110071429D01*
X94046076Y-110071429D02*
X93855600Y-109880953D01*
X93855600Y-109880953D02*
X93760361Y-109595238D01*
X93760361Y-109595238D02*
X93760361Y-109119048D01*
X101668209Y-109761905D02*
X101668209Y-108809524D01*
X102239638Y-109952381D02*
X100239638Y-109285715D01*
X100239638Y-109285715D02*
X102239638Y-108619048D01*
X101192019Y-105761904D02*
X101287257Y-105476190D01*
X101287257Y-105476190D02*
X101382495Y-105380952D01*
X101382495Y-105380952D02*
X101572971Y-105285714D01*
X101572971Y-105285714D02*
X101858685Y-105285714D01*
X101858685Y-105285714D02*
X102049161Y-105380952D01*
X102049161Y-105380952D02*
X102144400Y-105476190D01*
X102144400Y-105476190D02*
X102239638Y-105666666D01*
X102239638Y-105666666D02*
X102239638Y-106428571D01*
X102239638Y-106428571D02*
X100239638Y-106428571D01*
X100239638Y-106428571D02*
X100239638Y-105761904D01*
X100239638Y-105761904D02*
X100334876Y-105571428D01*
X100334876Y-105571428D02*
X100430114Y-105476190D01*
X100430114Y-105476190D02*
X100620590Y-105380952D01*
X100620590Y-105380952D02*
X100811066Y-105380952D01*
X100811066Y-105380952D02*
X101001542Y-105476190D01*
X101001542Y-105476190D02*
X101096780Y-105571428D01*
X101096780Y-105571428D02*
X101192019Y-105761904D01*
X101192019Y-105761904D02*
X101192019Y-106428571D01*
X102049161Y-101761904D02*
X102144400Y-101857142D01*
X102144400Y-101857142D02*
X102239638Y-102142856D01*
X102239638Y-102142856D02*
X102239638Y-102333332D01*
X102239638Y-102333332D02*
X102144400Y-102619047D01*
X102144400Y-102619047D02*
X101953923Y-102809523D01*
X101953923Y-102809523D02*
X101763447Y-102904761D01*
X101763447Y-102904761D02*
X101382495Y-102999999D01*
X101382495Y-102999999D02*
X101096780Y-102999999D01*
X101096780Y-102999999D02*
X100715828Y-102904761D01*
X100715828Y-102904761D02*
X100525352Y-102809523D01*
X100525352Y-102809523D02*
X100334876Y-102619047D01*
X100334876Y-102619047D02*
X100239638Y-102333332D01*
X100239638Y-102333332D02*
X100239638Y-102142856D01*
X100239638Y-102142856D02*
X100334876Y-101857142D01*
X100334876Y-101857142D02*
X100430114Y-101761904D01*
X102239638Y-99380951D02*
X100239638Y-99380951D01*
X100239638Y-99380951D02*
X100239638Y-98904761D01*
X100239638Y-98904761D02*
X100334876Y-98619046D01*
X100334876Y-98619046D02*
X100525352Y-98428570D01*
X100525352Y-98428570D02*
X100715828Y-98333332D01*
X100715828Y-98333332D02*
X101096780Y-98238094D01*
X101096780Y-98238094D02*
X101382495Y-98238094D01*
X101382495Y-98238094D02*
X101763447Y-98333332D01*
X101763447Y-98333332D02*
X101953923Y-98428570D01*
X101953923Y-98428570D02*
X102144400Y-98619046D01*
X102144400Y-98619046D02*
X102239638Y-98904761D01*
X102239638Y-98904761D02*
X102239638Y-99380951D01*
X101668209Y-93261905D02*
X101668209Y-92309524D01*
X102239638Y-93452381D02*
X100239638Y-92785715D01*
X100239638Y-92785715D02*
X102239638Y-92119048D01*
X101192019Y-89261904D02*
X101287257Y-88976190D01*
X101287257Y-88976190D02*
X101382495Y-88880952D01*
X101382495Y-88880952D02*
X101572971Y-88785714D01*
X101572971Y-88785714D02*
X101858685Y-88785714D01*
X101858685Y-88785714D02*
X102049161Y-88880952D01*
X102049161Y-88880952D02*
X102144400Y-88976190D01*
X102144400Y-88976190D02*
X102239638Y-89166666D01*
X102239638Y-89166666D02*
X102239638Y-89928571D01*
X102239638Y-89928571D02*
X100239638Y-89928571D01*
X100239638Y-89928571D02*
X100239638Y-89261904D01*
X100239638Y-89261904D02*
X100334876Y-89071428D01*
X100334876Y-89071428D02*
X100430114Y-88976190D01*
X100430114Y-88976190D02*
X100620590Y-88880952D01*
X100620590Y-88880952D02*
X100811066Y-88880952D01*
X100811066Y-88880952D02*
X101001542Y-88976190D01*
X101001542Y-88976190D02*
X101096780Y-89071428D01*
X101096780Y-89071428D02*
X101192019Y-89261904D01*
X101192019Y-89261904D02*
X101192019Y-89928571D01*
X102049161Y-85261904D02*
X102144400Y-85357142D01*
X102144400Y-85357142D02*
X102239638Y-85642856D01*
X102239638Y-85642856D02*
X102239638Y-85833332D01*
X102239638Y-85833332D02*
X102144400Y-86119047D01*
X102144400Y-86119047D02*
X101953923Y-86309523D01*
X101953923Y-86309523D02*
X101763447Y-86404761D01*
X101763447Y-86404761D02*
X101382495Y-86499999D01*
X101382495Y-86499999D02*
X101096780Y-86499999D01*
X101096780Y-86499999D02*
X100715828Y-86404761D01*
X100715828Y-86404761D02*
X100525352Y-86309523D01*
X100525352Y-86309523D02*
X100334876Y-86119047D01*
X100334876Y-86119047D02*
X100239638Y-85833332D01*
X100239638Y-85833332D02*
X100239638Y-85642856D01*
X100239638Y-85642856D02*
X100334876Y-85357142D01*
X100334876Y-85357142D02*
X100430114Y-85261904D01*
X102239638Y-82880951D02*
X100239638Y-82880951D01*
X100239638Y-82880951D02*
X100239638Y-82404761D01*
X100239638Y-82404761D02*
X100334876Y-82119046D01*
X100334876Y-82119046D02*
X100525352Y-81928570D01*
X100525352Y-81928570D02*
X100715828Y-81833332D01*
X100715828Y-81833332D02*
X101096780Y-81738094D01*
X101096780Y-81738094D02*
X101382495Y-81738094D01*
X101382495Y-81738094D02*
X101763447Y-81833332D01*
X101763447Y-81833332D02*
X101953923Y-81928570D01*
X101953923Y-81928570D02*
X102144400Y-82119046D01*
X102144400Y-82119046D02*
X102239638Y-82404761D01*
X102239638Y-82404761D02*
X102239638Y-82880951D01*
X101168209Y-75761905D02*
X101168209Y-74809524D01*
X101739638Y-75952381D02*
X99739638Y-75285715D01*
X99739638Y-75285715D02*
X101739638Y-74619048D01*
X100692019Y-71761904D02*
X100787257Y-71476190D01*
X100787257Y-71476190D02*
X100882495Y-71380952D01*
X100882495Y-71380952D02*
X101072971Y-71285714D01*
X101072971Y-71285714D02*
X101358685Y-71285714D01*
X101358685Y-71285714D02*
X101549161Y-71380952D01*
X101549161Y-71380952D02*
X101644400Y-71476190D01*
X101644400Y-71476190D02*
X101739638Y-71666666D01*
X101739638Y-71666666D02*
X101739638Y-72428571D01*
X101739638Y-72428571D02*
X99739638Y-72428571D01*
X99739638Y-72428571D02*
X99739638Y-71761904D01*
X99739638Y-71761904D02*
X99834876Y-71571428D01*
X99834876Y-71571428D02*
X99930114Y-71476190D01*
X99930114Y-71476190D02*
X100120590Y-71380952D01*
X100120590Y-71380952D02*
X100311066Y-71380952D01*
X100311066Y-71380952D02*
X100501542Y-71476190D01*
X100501542Y-71476190D02*
X100596780Y-71571428D01*
X100596780Y-71571428D02*
X100692019Y-71761904D01*
X100692019Y-71761904D02*
X100692019Y-72428571D01*
X101549161Y-67761904D02*
X101644400Y-67857142D01*
X101644400Y-67857142D02*
X101739638Y-68142856D01*
X101739638Y-68142856D02*
X101739638Y-68333332D01*
X101739638Y-68333332D02*
X101644400Y-68619047D01*
X101644400Y-68619047D02*
X101453923Y-68809523D01*
X101453923Y-68809523D02*
X101263447Y-68904761D01*
X101263447Y-68904761D02*
X100882495Y-68999999D01*
X100882495Y-68999999D02*
X100596780Y-68999999D01*
X100596780Y-68999999D02*
X100215828Y-68904761D01*
X100215828Y-68904761D02*
X100025352Y-68809523D01*
X100025352Y-68809523D02*
X99834876Y-68619047D01*
X99834876Y-68619047D02*
X99739638Y-68333332D01*
X99739638Y-68333332D02*
X99739638Y-68142856D01*
X99739638Y-68142856D02*
X99834876Y-67857142D01*
X99834876Y-67857142D02*
X99930114Y-67761904D01*
X101739638Y-65380951D02*
X99739638Y-65380951D01*
X99739638Y-65380951D02*
X99739638Y-64904761D01*
X99739638Y-64904761D02*
X99834876Y-64619046D01*
X99834876Y-64619046D02*
X100025352Y-64428570D01*
X100025352Y-64428570D02*
X100215828Y-64333332D01*
X100215828Y-64333332D02*
X100596780Y-64238094D01*
X100596780Y-64238094D02*
X100882495Y-64238094D01*
X100882495Y-64238094D02*
X101263447Y-64333332D01*
X101263447Y-64333332D02*
X101453923Y-64428570D01*
X101453923Y-64428570D02*
X101644400Y-64619046D01*
X101644400Y-64619046D02*
X101739638Y-64904761D01*
X101739638Y-64904761D02*
X101739638Y-65380951D01*
X102239638Y-58666667D02*
X100239638Y-58666667D01*
X100239638Y-58666667D02*
X100239638Y-58190477D01*
X100239638Y-58190477D02*
X100334876Y-57904762D01*
X100334876Y-57904762D02*
X100525352Y-57714286D01*
X100525352Y-57714286D02*
X100715828Y-57619048D01*
X100715828Y-57619048D02*
X101096780Y-57523810D01*
X101096780Y-57523810D02*
X101382495Y-57523810D01*
X101382495Y-57523810D02*
X101763447Y-57619048D01*
X101763447Y-57619048D02*
X101953923Y-57714286D01*
X101953923Y-57714286D02*
X102144400Y-57904762D01*
X102144400Y-57904762D02*
X102239638Y-58190477D01*
X102239638Y-58190477D02*
X102239638Y-58666667D01*
X102049161Y-54000000D02*
X102144400Y-54095238D01*
X102144400Y-54095238D02*
X102239638Y-54380952D01*
X102239638Y-54380952D02*
X102239638Y-54571428D01*
X102239638Y-54571428D02*
X102144400Y-54857143D01*
X102144400Y-54857143D02*
X101953923Y-55047619D01*
X101953923Y-55047619D02*
X101763447Y-55142857D01*
X101763447Y-55142857D02*
X101382495Y-55238095D01*
X101382495Y-55238095D02*
X101096780Y-55238095D01*
X101096780Y-55238095D02*
X100715828Y-55142857D01*
X100715828Y-55142857D02*
X100525352Y-55047619D01*
X100525352Y-55047619D02*
X100334876Y-54857143D01*
X100334876Y-54857143D02*
X100239638Y-54571428D01*
X100239638Y-54571428D02*
X100239638Y-54380952D01*
X100239638Y-54380952D02*
X100334876Y-54095238D01*
X100334876Y-54095238D02*
X100430114Y-54000000D01*
X101192019Y-50952380D02*
X101287257Y-50666666D01*
X101287257Y-50666666D02*
X101382495Y-50571428D01*
X101382495Y-50571428D02*
X101572971Y-50476190D01*
X101572971Y-50476190D02*
X101858685Y-50476190D01*
X101858685Y-50476190D02*
X102049161Y-50571428D01*
X102049161Y-50571428D02*
X102144400Y-50666666D01*
X102144400Y-50666666D02*
X102239638Y-50857142D01*
X102239638Y-50857142D02*
X102239638Y-51619047D01*
X102239638Y-51619047D02*
X100239638Y-51619047D01*
X100239638Y-51619047D02*
X100239638Y-50952380D01*
X100239638Y-50952380D02*
X100334876Y-50761904D01*
X100334876Y-50761904D02*
X100430114Y-50666666D01*
X100430114Y-50666666D02*
X100620590Y-50571428D01*
X100620590Y-50571428D02*
X100811066Y-50571428D01*
X100811066Y-50571428D02*
X101001542Y-50666666D01*
X101001542Y-50666666D02*
X101096780Y-50761904D01*
X101096780Y-50761904D02*
X101192019Y-50952380D01*
X101192019Y-50952380D02*
X101192019Y-51619047D01*
X101668209Y-48190475D02*
X101668209Y-47238094D01*
X102239638Y-48380951D02*
X100239638Y-47714285D01*
X100239638Y-47714285D02*
X102239638Y-47047618D01*
D11*
X87454819Y-105285714D02*
X88169104Y-105285714D01*
X88169104Y-105285714D02*
X88311961Y-105333333D01*
X88311961Y-105333333D02*
X88407200Y-105428571D01*
X88407200Y-105428571D02*
X88454819Y-105571428D01*
X88454819Y-105571428D02*
X88454819Y-105666666D01*
X88454819Y-104285714D02*
X88454819Y-104857142D01*
X88454819Y-104571428D02*
X87454819Y-104571428D01*
X87454819Y-104571428D02*
X87597676Y-104666666D01*
X87597676Y-104666666D02*
X87692914Y-104761904D01*
X87692914Y-104761904D02*
X87740533Y-104857142D01*
X87454819Y-103666666D02*
X87454819Y-103571428D01*
X87454819Y-103571428D02*
X87502438Y-103476190D01*
X87502438Y-103476190D02*
X87550057Y-103428571D01*
X87550057Y-103428571D02*
X87645295Y-103380952D01*
X87645295Y-103380952D02*
X87835771Y-103333333D01*
X87835771Y-103333333D02*
X88073866Y-103333333D01*
X88073866Y-103333333D02*
X88264342Y-103380952D01*
X88264342Y-103380952D02*
X88359580Y-103428571D01*
X88359580Y-103428571D02*
X88407200Y-103476190D01*
X88407200Y-103476190D02*
X88454819Y-103571428D01*
X88454819Y-103571428D02*
X88454819Y-103666666D01*
X88454819Y-103666666D02*
X88407200Y-103761904D01*
X88407200Y-103761904D02*
X88359580Y-103809523D01*
X88359580Y-103809523D02*
X88264342Y-103857142D01*
X88264342Y-103857142D02*
X88073866Y-103904761D01*
X88073866Y-103904761D02*
X87835771Y-103904761D01*
X87835771Y-103904761D02*
X87645295Y-103857142D01*
X87645295Y-103857142D02*
X87550057Y-103809523D01*
X87550057Y-103809523D02*
X87502438Y-103761904D01*
X87502438Y-103761904D02*
X87454819Y-103666666D01*
X87883390Y-102761904D02*
X87835771Y-102857142D01*
X87835771Y-102857142D02*
X87788152Y-102904761D01*
X87788152Y-102904761D02*
X87692914Y-102952380D01*
X87692914Y-102952380D02*
X87645295Y-102952380D01*
X87645295Y-102952380D02*
X87550057Y-102904761D01*
X87550057Y-102904761D02*
X87502438Y-102857142D01*
X87502438Y-102857142D02*
X87454819Y-102761904D01*
X87454819Y-102761904D02*
X87454819Y-102571428D01*
X87454819Y-102571428D02*
X87502438Y-102476190D01*
X87502438Y-102476190D02*
X87550057Y-102428571D01*
X87550057Y-102428571D02*
X87645295Y-102380952D01*
X87645295Y-102380952D02*
X87692914Y-102380952D01*
X87692914Y-102380952D02*
X87788152Y-102428571D01*
X87788152Y-102428571D02*
X87835771Y-102476190D01*
X87835771Y-102476190D02*
X87883390Y-102571428D01*
X87883390Y-102571428D02*
X87883390Y-102761904D01*
X87883390Y-102761904D02*
X87931009Y-102857142D01*
X87931009Y-102857142D02*
X87978628Y-102904761D01*
X87978628Y-102904761D02*
X88073866Y-102952380D01*
X88073866Y-102952380D02*
X88264342Y-102952380D01*
X88264342Y-102952380D02*
X88359580Y-102904761D01*
X88359580Y-102904761D02*
X88407200Y-102857142D01*
X88407200Y-102857142D02*
X88454819Y-102761904D01*
X88454819Y-102761904D02*
X88454819Y-102571428D01*
X88454819Y-102571428D02*
X88407200Y-102476190D01*
X88407200Y-102476190D02*
X88359580Y-102428571D01*
X88359580Y-102428571D02*
X88264342Y-102380952D01*
X88264342Y-102380952D02*
X88073866Y-102380952D01*
X88073866Y-102380952D02*
X87978628Y-102428571D01*
X87978628Y-102428571D02*
X87931009Y-102476190D01*
X87931009Y-102476190D02*
X87883390Y-102571428D01*
X107954819Y-105785714D02*
X108669104Y-105785714D01*
X108669104Y-105785714D02*
X108811961Y-105833333D01*
X108811961Y-105833333D02*
X108907200Y-105928571D01*
X108907200Y-105928571D02*
X108954819Y-106071428D01*
X108954819Y-106071428D02*
X108954819Y-106166666D01*
X108954819Y-104785714D02*
X108954819Y-105357142D01*
X108954819Y-105071428D02*
X107954819Y-105071428D01*
X107954819Y-105071428D02*
X108097676Y-105166666D01*
X108097676Y-105166666D02*
X108192914Y-105261904D01*
X108192914Y-105261904D02*
X108240533Y-105357142D01*
X107954819Y-104166666D02*
X107954819Y-104071428D01*
X107954819Y-104071428D02*
X108002438Y-103976190D01*
X108002438Y-103976190D02*
X108050057Y-103928571D01*
X108050057Y-103928571D02*
X108145295Y-103880952D01*
X108145295Y-103880952D02*
X108335771Y-103833333D01*
X108335771Y-103833333D02*
X108573866Y-103833333D01*
X108573866Y-103833333D02*
X108764342Y-103880952D01*
X108764342Y-103880952D02*
X108859580Y-103928571D01*
X108859580Y-103928571D02*
X108907200Y-103976190D01*
X108907200Y-103976190D02*
X108954819Y-104071428D01*
X108954819Y-104071428D02*
X108954819Y-104166666D01*
X108954819Y-104166666D02*
X108907200Y-104261904D01*
X108907200Y-104261904D02*
X108859580Y-104309523D01*
X108859580Y-104309523D02*
X108764342Y-104357142D01*
X108764342Y-104357142D02*
X108573866Y-104404761D01*
X108573866Y-104404761D02*
X108335771Y-104404761D01*
X108335771Y-104404761D02*
X108145295Y-104357142D01*
X108145295Y-104357142D02*
X108050057Y-104309523D01*
X108050057Y-104309523D02*
X108002438Y-104261904D01*
X108002438Y-104261904D02*
X107954819Y-104166666D01*
X107954819Y-103499999D02*
X107954819Y-102833333D01*
X107954819Y-102833333D02*
X108954819Y-103261904D01*
X87954819Y-88785714D02*
X88669104Y-88785714D01*
X88669104Y-88785714D02*
X88811961Y-88833333D01*
X88811961Y-88833333D02*
X88907200Y-88928571D01*
X88907200Y-88928571D02*
X88954819Y-89071428D01*
X88954819Y-89071428D02*
X88954819Y-89166666D01*
X88954819Y-87785714D02*
X88954819Y-88357142D01*
X88954819Y-88071428D02*
X87954819Y-88071428D01*
X87954819Y-88071428D02*
X88097676Y-88166666D01*
X88097676Y-88166666D02*
X88192914Y-88261904D01*
X88192914Y-88261904D02*
X88240533Y-88357142D01*
X87954819Y-87166666D02*
X87954819Y-87071428D01*
X87954819Y-87071428D02*
X88002438Y-86976190D01*
X88002438Y-86976190D02*
X88050057Y-86928571D01*
X88050057Y-86928571D02*
X88145295Y-86880952D01*
X88145295Y-86880952D02*
X88335771Y-86833333D01*
X88335771Y-86833333D02*
X88573866Y-86833333D01*
X88573866Y-86833333D02*
X88764342Y-86880952D01*
X88764342Y-86880952D02*
X88859580Y-86928571D01*
X88859580Y-86928571D02*
X88907200Y-86976190D01*
X88907200Y-86976190D02*
X88954819Y-87071428D01*
X88954819Y-87071428D02*
X88954819Y-87166666D01*
X88954819Y-87166666D02*
X88907200Y-87261904D01*
X88907200Y-87261904D02*
X88859580Y-87309523D01*
X88859580Y-87309523D02*
X88764342Y-87357142D01*
X88764342Y-87357142D02*
X88573866Y-87404761D01*
X88573866Y-87404761D02*
X88335771Y-87404761D01*
X88335771Y-87404761D02*
X88145295Y-87357142D01*
X88145295Y-87357142D02*
X88050057Y-87309523D01*
X88050057Y-87309523D02*
X88002438Y-87261904D01*
X88002438Y-87261904D02*
X87954819Y-87166666D01*
X87954819Y-85976190D02*
X87954819Y-86166666D01*
X87954819Y-86166666D02*
X88002438Y-86261904D01*
X88002438Y-86261904D02*
X88050057Y-86309523D01*
X88050057Y-86309523D02*
X88192914Y-86404761D01*
X88192914Y-86404761D02*
X88383390Y-86452380D01*
X88383390Y-86452380D02*
X88764342Y-86452380D01*
X88764342Y-86452380D02*
X88859580Y-86404761D01*
X88859580Y-86404761D02*
X88907200Y-86357142D01*
X88907200Y-86357142D02*
X88954819Y-86261904D01*
X88954819Y-86261904D02*
X88954819Y-86071428D01*
X88954819Y-86071428D02*
X88907200Y-85976190D01*
X88907200Y-85976190D02*
X88859580Y-85928571D01*
X88859580Y-85928571D02*
X88764342Y-85880952D01*
X88764342Y-85880952D02*
X88526247Y-85880952D01*
X88526247Y-85880952D02*
X88431009Y-85928571D01*
X88431009Y-85928571D02*
X88383390Y-85976190D01*
X88383390Y-85976190D02*
X88335771Y-86071428D01*
X88335771Y-86071428D02*
X88335771Y-86261904D01*
X88335771Y-86261904D02*
X88383390Y-86357142D01*
X88383390Y-86357142D02*
X88431009Y-86404761D01*
X88431009Y-86404761D02*
X88526247Y-86452380D01*
X87954819Y-54785714D02*
X88669104Y-54785714D01*
X88669104Y-54785714D02*
X88811961Y-54833333D01*
X88811961Y-54833333D02*
X88907200Y-54928571D01*
X88907200Y-54928571D02*
X88954819Y-55071428D01*
X88954819Y-55071428D02*
X88954819Y-55166666D01*
X88954819Y-53785714D02*
X88954819Y-54357142D01*
X88954819Y-54071428D02*
X87954819Y-54071428D01*
X87954819Y-54071428D02*
X88097676Y-54166666D01*
X88097676Y-54166666D02*
X88192914Y-54261904D01*
X88192914Y-54261904D02*
X88240533Y-54357142D01*
X87954819Y-53166666D02*
X87954819Y-53071428D01*
X87954819Y-53071428D02*
X88002438Y-52976190D01*
X88002438Y-52976190D02*
X88050057Y-52928571D01*
X88050057Y-52928571D02*
X88145295Y-52880952D01*
X88145295Y-52880952D02*
X88335771Y-52833333D01*
X88335771Y-52833333D02*
X88573866Y-52833333D01*
X88573866Y-52833333D02*
X88764342Y-52880952D01*
X88764342Y-52880952D02*
X88859580Y-52928571D01*
X88859580Y-52928571D02*
X88907200Y-52976190D01*
X88907200Y-52976190D02*
X88954819Y-53071428D01*
X88954819Y-53071428D02*
X88954819Y-53166666D01*
X88954819Y-53166666D02*
X88907200Y-53261904D01*
X88907200Y-53261904D02*
X88859580Y-53309523D01*
X88859580Y-53309523D02*
X88764342Y-53357142D01*
X88764342Y-53357142D02*
X88573866Y-53404761D01*
X88573866Y-53404761D02*
X88335771Y-53404761D01*
X88335771Y-53404761D02*
X88145295Y-53357142D01*
X88145295Y-53357142D02*
X88050057Y-53309523D01*
X88050057Y-53309523D02*
X88002438Y-53261904D01*
X88002438Y-53261904D02*
X87954819Y-53166666D01*
X87954819Y-51928571D02*
X87954819Y-52404761D01*
X87954819Y-52404761D02*
X88431009Y-52452380D01*
X88431009Y-52452380D02*
X88383390Y-52404761D01*
X88383390Y-52404761D02*
X88335771Y-52309523D01*
X88335771Y-52309523D02*
X88335771Y-52071428D01*
X88335771Y-52071428D02*
X88383390Y-51976190D01*
X88383390Y-51976190D02*
X88431009Y-51928571D01*
X88431009Y-51928571D02*
X88526247Y-51880952D01*
X88526247Y-51880952D02*
X88764342Y-51880952D01*
X88764342Y-51880952D02*
X88859580Y-51928571D01*
X88859580Y-51928571D02*
X88907200Y-51976190D01*
X88907200Y-51976190D02*
X88954819Y-52071428D01*
X88954819Y-52071428D02*
X88954819Y-52309523D01*
X88954819Y-52309523D02*
X88907200Y-52404761D01*
X88907200Y-52404761D02*
X88859580Y-52452380D01*
X107454819Y-88785714D02*
X108169104Y-88785714D01*
X108169104Y-88785714D02*
X108311961Y-88833333D01*
X108311961Y-88833333D02*
X108407200Y-88928571D01*
X108407200Y-88928571D02*
X108454819Y-89071428D01*
X108454819Y-89071428D02*
X108454819Y-89166666D01*
X108454819Y-87785714D02*
X108454819Y-88357142D01*
X108454819Y-88071428D02*
X107454819Y-88071428D01*
X107454819Y-88071428D02*
X107597676Y-88166666D01*
X107597676Y-88166666D02*
X107692914Y-88261904D01*
X107692914Y-88261904D02*
X107740533Y-88357142D01*
X107454819Y-87166666D02*
X107454819Y-87071428D01*
X107454819Y-87071428D02*
X107502438Y-86976190D01*
X107502438Y-86976190D02*
X107550057Y-86928571D01*
X107550057Y-86928571D02*
X107645295Y-86880952D01*
X107645295Y-86880952D02*
X107835771Y-86833333D01*
X107835771Y-86833333D02*
X108073866Y-86833333D01*
X108073866Y-86833333D02*
X108264342Y-86880952D01*
X108264342Y-86880952D02*
X108359580Y-86928571D01*
X108359580Y-86928571D02*
X108407200Y-86976190D01*
X108407200Y-86976190D02*
X108454819Y-87071428D01*
X108454819Y-87071428D02*
X108454819Y-87166666D01*
X108454819Y-87166666D02*
X108407200Y-87261904D01*
X108407200Y-87261904D02*
X108359580Y-87309523D01*
X108359580Y-87309523D02*
X108264342Y-87357142D01*
X108264342Y-87357142D02*
X108073866Y-87404761D01*
X108073866Y-87404761D02*
X107835771Y-87404761D01*
X107835771Y-87404761D02*
X107645295Y-87357142D01*
X107645295Y-87357142D02*
X107550057Y-87309523D01*
X107550057Y-87309523D02*
X107502438Y-87261904D01*
X107502438Y-87261904D02*
X107454819Y-87166666D01*
X107454819Y-86499999D02*
X107454819Y-85880952D01*
X107454819Y-85880952D02*
X107835771Y-86214285D01*
X107835771Y-86214285D02*
X107835771Y-86071428D01*
X107835771Y-86071428D02*
X107883390Y-85976190D01*
X107883390Y-85976190D02*
X107931009Y-85928571D01*
X107931009Y-85928571D02*
X108026247Y-85880952D01*
X108026247Y-85880952D02*
X108264342Y-85880952D01*
X108264342Y-85880952D02*
X108359580Y-85928571D01*
X108359580Y-85928571D02*
X108407200Y-85976190D01*
X108407200Y-85976190D02*
X108454819Y-86071428D01*
X108454819Y-86071428D02*
X108454819Y-86357142D01*
X108454819Y-86357142D02*
X108407200Y-86452380D01*
X108407200Y-86452380D02*
X108359580Y-86499999D01*
X107454819Y-71785714D02*
X108169104Y-71785714D01*
X108169104Y-71785714D02*
X108311961Y-71833333D01*
X108311961Y-71833333D02*
X108407200Y-71928571D01*
X108407200Y-71928571D02*
X108454819Y-72071428D01*
X108454819Y-72071428D02*
X108454819Y-72166666D01*
X108454819Y-70785714D02*
X108454819Y-71357142D01*
X108454819Y-71071428D02*
X107454819Y-71071428D01*
X107454819Y-71071428D02*
X107597676Y-71166666D01*
X107597676Y-71166666D02*
X107692914Y-71261904D01*
X107692914Y-71261904D02*
X107740533Y-71357142D01*
X107454819Y-70166666D02*
X107454819Y-70071428D01*
X107454819Y-70071428D02*
X107502438Y-69976190D01*
X107502438Y-69976190D02*
X107550057Y-69928571D01*
X107550057Y-69928571D02*
X107645295Y-69880952D01*
X107645295Y-69880952D02*
X107835771Y-69833333D01*
X107835771Y-69833333D02*
X108073866Y-69833333D01*
X108073866Y-69833333D02*
X108264342Y-69880952D01*
X108264342Y-69880952D02*
X108359580Y-69928571D01*
X108359580Y-69928571D02*
X108407200Y-69976190D01*
X108407200Y-69976190D02*
X108454819Y-70071428D01*
X108454819Y-70071428D02*
X108454819Y-70166666D01*
X108454819Y-70166666D02*
X108407200Y-70261904D01*
X108407200Y-70261904D02*
X108359580Y-70309523D01*
X108359580Y-70309523D02*
X108264342Y-70357142D01*
X108264342Y-70357142D02*
X108073866Y-70404761D01*
X108073866Y-70404761D02*
X107835771Y-70404761D01*
X107835771Y-70404761D02*
X107645295Y-70357142D01*
X107645295Y-70357142D02*
X107550057Y-70309523D01*
X107550057Y-70309523D02*
X107502438Y-70261904D01*
X107502438Y-70261904D02*
X107454819Y-70166666D01*
X107550057Y-69452380D02*
X107502438Y-69404761D01*
X107502438Y-69404761D02*
X107454819Y-69309523D01*
X107454819Y-69309523D02*
X107454819Y-69071428D01*
X107454819Y-69071428D02*
X107502438Y-68976190D01*
X107502438Y-68976190D02*
X107550057Y-68928571D01*
X107550057Y-68928571D02*
X107645295Y-68880952D01*
X107645295Y-68880952D02*
X107740533Y-68880952D01*
X107740533Y-68880952D02*
X107883390Y-68928571D01*
X107883390Y-68928571D02*
X108454819Y-69499999D01*
X108454819Y-69499999D02*
X108454819Y-68880952D01*
X87454819Y-71785714D02*
X88169104Y-71785714D01*
X88169104Y-71785714D02*
X88311961Y-71833333D01*
X88311961Y-71833333D02*
X88407200Y-71928571D01*
X88407200Y-71928571D02*
X88454819Y-72071428D01*
X88454819Y-72071428D02*
X88454819Y-72166666D01*
X88454819Y-70785714D02*
X88454819Y-71357142D01*
X88454819Y-71071428D02*
X87454819Y-71071428D01*
X87454819Y-71071428D02*
X87597676Y-71166666D01*
X87597676Y-71166666D02*
X87692914Y-71261904D01*
X87692914Y-71261904D02*
X87740533Y-71357142D01*
X87454819Y-70166666D02*
X87454819Y-70071428D01*
X87454819Y-70071428D02*
X87502438Y-69976190D01*
X87502438Y-69976190D02*
X87550057Y-69928571D01*
X87550057Y-69928571D02*
X87645295Y-69880952D01*
X87645295Y-69880952D02*
X87835771Y-69833333D01*
X87835771Y-69833333D02*
X88073866Y-69833333D01*
X88073866Y-69833333D02*
X88264342Y-69880952D01*
X88264342Y-69880952D02*
X88359580Y-69928571D01*
X88359580Y-69928571D02*
X88407200Y-69976190D01*
X88407200Y-69976190D02*
X88454819Y-70071428D01*
X88454819Y-70071428D02*
X88454819Y-70166666D01*
X88454819Y-70166666D02*
X88407200Y-70261904D01*
X88407200Y-70261904D02*
X88359580Y-70309523D01*
X88359580Y-70309523D02*
X88264342Y-70357142D01*
X88264342Y-70357142D02*
X88073866Y-70404761D01*
X88073866Y-70404761D02*
X87835771Y-70404761D01*
X87835771Y-70404761D02*
X87645295Y-70357142D01*
X87645295Y-70357142D02*
X87550057Y-70309523D01*
X87550057Y-70309523D02*
X87502438Y-70261904D01*
X87502438Y-70261904D02*
X87454819Y-70166666D01*
X88454819Y-68880952D02*
X88454819Y-69452380D01*
X88454819Y-69166666D02*
X87454819Y-69166666D01*
X87454819Y-69166666D02*
X87597676Y-69261904D01*
X87597676Y-69261904D02*
X87692914Y-69357142D01*
X87692914Y-69357142D02*
X87740533Y-69452380D01*
D12*
%TO.C,J108*%
X92310000Y-96440000D02*
X82890000Y-96440000D01*
X92310000Y-96440000D02*
X92310000Y-97950000D01*
X86200000Y-96440000D02*
X86200000Y-112060000D01*
X82890000Y-96440000D02*
X82890000Y-112060000D01*
X93600000Y-98700000D02*
X93600000Y-99300000D01*
X93000000Y-99000000D02*
X93600000Y-98700000D01*
X93600000Y-99300000D02*
X93000000Y-99000000D01*
X92310000Y-100050000D02*
X92310000Y-101450000D01*
X92310000Y-103550000D02*
X92310000Y-104950000D01*
X92310000Y-107050000D02*
X92310000Y-108450000D01*
X92310000Y-112060000D02*
X92310000Y-110550000D01*
X82890000Y-112060000D02*
X92310000Y-112060000D01*
%TO.C,J107*%
X103690000Y-112060000D02*
X113110000Y-112060000D01*
X103690000Y-112060000D02*
X103690000Y-110550000D01*
X109800000Y-112060000D02*
X109800000Y-96440000D01*
X113110000Y-112060000D02*
X113110000Y-96440000D01*
X102400000Y-109800000D02*
X102400000Y-109200000D01*
X103000000Y-109500000D02*
X102400000Y-109800000D01*
X102400000Y-109200000D02*
X103000000Y-109500000D01*
X103690000Y-108450000D02*
X103690000Y-107050000D01*
X103690000Y-104950000D02*
X103690000Y-103550000D01*
X103690000Y-101450000D02*
X103690000Y-100050000D01*
X103690000Y-96440000D02*
X103690000Y-97950000D01*
X113110000Y-96440000D02*
X103690000Y-96440000D01*
%TO.C,J106*%
X92310000Y-79440000D02*
X82890000Y-79440000D01*
X92310000Y-79440000D02*
X92310000Y-80950000D01*
X86200000Y-79440000D02*
X86200000Y-95060000D01*
X82890000Y-79440000D02*
X82890000Y-95060000D01*
X93600000Y-81700000D02*
X93600000Y-82300000D01*
X93000000Y-82000000D02*
X93600000Y-81700000D01*
X93600000Y-82300000D02*
X93000000Y-82000000D01*
X92310000Y-83050000D02*
X92310000Y-84450000D01*
X92310000Y-86550000D02*
X92310000Y-87950000D01*
X92310000Y-90050000D02*
X92310000Y-91450000D01*
X92310000Y-95060000D02*
X92310000Y-93550000D01*
X82890000Y-95060000D02*
X92310000Y-95060000D01*
%TO.C,J105*%
X92310000Y-44940000D02*
X82890000Y-44940000D01*
X92310000Y-44940000D02*
X92310000Y-46450000D01*
X86200000Y-44940000D02*
X86200000Y-60560000D01*
X82890000Y-44940000D02*
X82890000Y-60560000D01*
X93600000Y-47200000D02*
X93600000Y-47800000D01*
X93000000Y-47500000D02*
X93600000Y-47200000D01*
X93600000Y-47800000D02*
X93000000Y-47500000D01*
X92310000Y-48550000D02*
X92310000Y-49950000D01*
X92310000Y-52050000D02*
X92310000Y-53450000D01*
X92310000Y-55550000D02*
X92310000Y-56950000D01*
X92310000Y-60560000D02*
X92310000Y-59050000D01*
X82890000Y-60560000D02*
X92310000Y-60560000D01*
D13*
%TO.C,J104*%
X105150000Y-60150000D02*
X113050000Y-60150000D01*
X105150000Y-60150000D02*
X105150000Y-45350000D01*
X105150000Y-45350000D02*
X113050000Y-45350000D01*
X113050000Y-45350000D02*
X113050000Y-60150000D01*
D12*
%TO.C,J103*%
X103690000Y-95060000D02*
X113110000Y-95060000D01*
X103690000Y-95060000D02*
X103690000Y-93550000D01*
X109800000Y-95060000D02*
X109800000Y-79440000D01*
X113110000Y-95060000D02*
X113110000Y-79440000D01*
X102400000Y-92800000D02*
X102400000Y-92200000D01*
X103000000Y-92500000D02*
X102400000Y-92800000D01*
X102400000Y-92200000D02*
X103000000Y-92500000D01*
X103690000Y-91450000D02*
X103690000Y-90050000D01*
X103690000Y-87950000D02*
X103690000Y-86550000D01*
X103690000Y-84450000D02*
X103690000Y-83050000D01*
X103690000Y-79440000D02*
X103690000Y-80950000D01*
X113110000Y-79440000D02*
X103690000Y-79440000D01*
%TO.C,J102*%
X103690000Y-78060000D02*
X113110000Y-78060000D01*
X103690000Y-78060000D02*
X103690000Y-76550000D01*
X109800000Y-78060000D02*
X109800000Y-62440000D01*
X113110000Y-78060000D02*
X113110000Y-62440000D01*
X102400000Y-75800000D02*
X102400000Y-75200000D01*
X103000000Y-75500000D02*
X102400000Y-75800000D01*
X102400000Y-75200000D02*
X103000000Y-75500000D01*
X103690000Y-74450000D02*
X103690000Y-73050000D01*
X103690000Y-70950000D02*
X103690000Y-69550000D01*
X103690000Y-67450000D02*
X103690000Y-66050000D01*
X103690000Y-62440000D02*
X103690000Y-63950000D01*
X113110000Y-62440000D02*
X103690000Y-62440000D01*
%TO.C,J101*%
X92310000Y-62440000D02*
X82890000Y-62440000D01*
X92310000Y-62440000D02*
X92310000Y-63950000D01*
X86200000Y-62440000D02*
X86200000Y-78060000D01*
X82890000Y-62440000D02*
X82890000Y-78060000D01*
X93600000Y-64700000D02*
X93600000Y-65300000D01*
X93000000Y-65000000D02*
X93600000Y-64700000D01*
X93600000Y-65300000D02*
X93000000Y-65000000D01*
X92310000Y-66050000D02*
X92310000Y-67450000D01*
X92310000Y-69550000D02*
X92310000Y-70950000D01*
X92310000Y-73050000D02*
X92310000Y-74450000D01*
X92310000Y-78060000D02*
X92310000Y-76550000D01*
X82890000Y-78060000D02*
X92310000Y-78060000D01*
%TD*%
%LPC*%
D14*
%TO.C,REF\u002A\u002A*%
X98000000Y-48500000D03*
%TD*%
%TO.C,REF\u002A\u002A*%
X98000000Y-108500000D03*
%TD*%
D15*
%TO.C,J108*%
X91000000Y-99000000D03*
D16*
X91000000Y-102500000D03*
X91000000Y-106000000D03*
X91000000Y-109500000D03*
%TD*%
D17*
%TO.C,J107*%
X105000000Y-109500000D03*
D16*
X105000000Y-106000000D03*
X105000000Y-102500000D03*
X105000000Y-99000000D03*
%TD*%
D15*
%TO.C,J106*%
X91000000Y-82000000D03*
D16*
X91000000Y-85500000D03*
X91000000Y-89000000D03*
X91000000Y-92500000D03*
%TD*%
D15*
%TO.C,J105*%
X91000000Y-47500000D03*
D16*
X91000000Y-51000000D03*
X91000000Y-54500000D03*
X91000000Y-58000000D03*
%TD*%
D18*
%TO.C,J104*%
X107000000Y-58000000D03*
X109500000Y-58000000D03*
X107000000Y-54500000D03*
X109500000Y-54500000D03*
X107000000Y-51000000D03*
X109500000Y-51000000D03*
X107000000Y-47500000D03*
X109500000Y-47500000D03*
%TD*%
D17*
%TO.C,J103*%
X105000000Y-92500000D03*
D16*
X105000000Y-89000000D03*
X105000000Y-85500000D03*
X105000000Y-82000000D03*
%TD*%
D17*
%TO.C,J102*%
X105000000Y-75500000D03*
D16*
X105000000Y-72000000D03*
X105000000Y-68500000D03*
X105000000Y-65000000D03*
%TD*%
D15*
%TO.C,J101*%
X91000000Y-65000000D03*
D16*
X91000000Y-68500000D03*
X91000000Y-72000000D03*
X91000000Y-75500000D03*
%TD*%
%LPD*%
M02*
