M48
; DRILL file {KiCad 8.0.2} date 2024-11-24T23:12:59+0100
; FORMAT={-:-/ absolute / inch / decimal}
; #@! TF.CreationDate,2024-11-24T23:12:59+01:00
; #@! TF.GenerationSoftware,Kicad,Pcbnew,8.0.2
; #@! TF.FileFunction,Plated,1,2,PTH
FMAT,2
INCH
; #@! TA.AperFunction,Plated,PTH,ViaDrill
T1C0.0118
%
G90
G05
T1
X1.6339Y-3.1693
X1.6339Y-4.1535
X1.6535Y-3.4252
X1.6535Y-3.7992
X1.9291Y-3.1693
X1.9488Y-4.1535
X2.2441Y-4.1732
X2.4606Y-3.1496
X2.5591Y-4.1339
X2.6181Y-3.4055
X2.6378Y-3.7402
X2.7165Y-4.0157
X2.7165Y-4.1142
X2.7165Y-4.1732
X2.7362Y-3.9567
X2.7559Y-4.2126
X2.815Y-3.937
X2.8543Y-3.1496
X2.8937Y-3.937
X2.9331Y-4.2126
X2.9724Y-3.1102
X2.9724Y-3.1496
X2.9724Y-3.189
X2.9724Y-3.2283
X2.9724Y-3.2677
X2.9724Y-3.3071
X2.9724Y-3.3465
X2.9724Y-3.3858
X2.9724Y-3.4252
X2.9724Y-3.4646
X2.9724Y-3.5039
X2.9724Y-3.5433
X2.9724Y-3.5827
X2.9724Y-3.622
X2.9724Y-3.6614
X2.9724Y-3.7008
X2.9724Y-3.7402
X2.9724Y-3.7795
X2.9724Y-3.8189
X2.9724Y-3.8583
X2.9724Y-3.8976
X2.9724Y-3.937
X2.9724Y-3.9764
X2.9724Y-4.0157
X2.9724Y-4.0551
X2.9724Y-4.0945
X2.9724Y-4.1339
X2.9724Y-4.1732
X2.9724Y-4.2126
X3.1496Y-3.1102
X3.1496Y-3.1496
X3.1496Y-3.189
X3.1496Y-3.2283
X3.1496Y-3.2677
X3.1496Y-3.3071
X3.1496Y-3.3465
X3.1496Y-3.3858
X3.1496Y-3.4252
X3.1496Y-3.4646
X3.1496Y-3.5039
X3.1496Y-3.5433
X3.1496Y-3.5827
X3.1496Y-3.622
X3.1496Y-3.6614
X3.1496Y-3.7008
X3.1496Y-3.7402
X3.1496Y-3.7795
X3.1496Y-3.8189
X3.1496Y-3.8583
X3.1496Y-3.8976
X3.1496Y-3.937
X3.1496Y-3.9764
X3.1496Y-4.0157
X3.1496Y-4.0551
X3.1496Y-4.0945
X3.1496Y-4.1339
X3.1496Y-4.1732
X3.1496Y-4.2126
X3.248Y-3.189
X3.248Y-3.4055
X3.248Y-3.7795
X3.2677Y-4.1339
X3.4843Y-3.4055
X3.5039Y-3.7598
X3.5039Y-4.0748
X3.5236Y-3.1693
X3.622Y-3.1102
X3.622Y-3.1496
X3.622Y-3.189
X3.622Y-3.2283
X3.622Y-3.2677
X3.622Y-3.3071
X3.622Y-3.3465
X3.622Y-3.3858
X3.622Y-3.4252
X3.622Y-3.4646
X3.622Y-3.5039
X3.622Y-3.5433
X3.622Y-3.5827
X3.622Y-3.622
X3.622Y-3.6614
X3.622Y-3.7008
X3.622Y-3.7402
X3.622Y-3.7795
X3.622Y-3.8189
X3.622Y-3.8583
X3.622Y-3.8976
X3.622Y-3.937
X3.622Y-3.9764
X3.622Y-4.0157
X3.622Y-4.0551
X3.622Y-4.0945
X3.622Y-4.1339
X3.622Y-4.1732
X3.622Y-4.2126
X3.7992Y-3.1102
X3.7992Y-3.1496
X3.7992Y-3.189
X3.7992Y-3.2283
X3.7992Y-3.2677
X3.7992Y-3.3071
X3.7992Y-3.3465
X3.7992Y-3.3858
X3.7992Y-3.4252
X3.7992Y-3.4646
X3.7992Y-3.5039
X3.7992Y-3.5433
X3.7992Y-3.5827
X3.7992Y-3.622
X3.7992Y-3.6614
X3.7992Y-3.7008
X3.7992Y-3.7402
X3.7992Y-3.7795
X3.7992Y-3.8189
X3.7992Y-3.8583
X3.7992Y-3.8976
X3.7992Y-3.937
X3.7992Y-3.9764
X3.7992Y-4.0157
X3.7992Y-4.0551
X3.7992Y-4.0945
X3.7992Y-4.1339
X3.7992Y-4.1732
X3.7992Y-4.2126
X3.8386Y-3.9764
X3.8386Y-4.0354
X3.8386Y-4.1142
X3.8386Y-4.2126
X3.8976Y-3.1299
X3.8976Y-3.9567
X3.9764Y-3.9567
X4.0354Y-3.9961
X4.0354Y-4.1929
X4.0551Y-4.0748
X4.0551Y-4.1535
X4.0748Y-3.1299
X4.1535Y-3.3071
X4.1535Y-4.1732
X4.1929Y-3.622
X4.1929Y-3.9764
X4.8819Y-3.7795
X4.9016Y-3.1693
X4.9016Y-3.4252
X4.9016Y-4.1535
X5.0Y-4.0157
X5.0Y-4.0551
X5.0Y-4.0945
X5.0Y-4.1535
X5.0197Y-3.9567
X5.0197Y-4.1929
X5.0787Y-3.937
X5.1181Y-3.1496
X5.1378Y-3.937
X5.1969Y-3.937
X5.2165Y-4.2126
X5.2559Y-3.1102
X5.2559Y-3.1496
X5.2559Y-3.189
X5.2559Y-3.2283
X5.2559Y-3.2677
X5.2559Y-3.3071
X5.2559Y-3.3465
X5.2559Y-3.3858
X5.2559Y-3.4252
X5.2559Y-3.4646
X5.2559Y-3.5039
X5.2559Y-3.5433
X5.2559Y-3.5827
X5.2559Y-3.622
X5.2559Y-3.6614
X5.2559Y-3.7008
X5.2559Y-3.7402
X5.2559Y-3.7795
X5.2559Y-3.8189
X5.2559Y-3.8583
X5.2559Y-3.8976
X5.2559Y-3.937
X5.2559Y-3.9764
X5.2559Y-4.0157
X5.2559Y-4.0551
X5.2559Y-4.0945
X5.2559Y-4.1339
X5.2559Y-4.1732
X5.2559Y-4.2126
X5.4331Y-3.1102
X5.4331Y-3.1496
X5.4331Y-3.189
X5.4331Y-3.2283
X5.4331Y-3.2677
X5.4331Y-3.3071
X5.4331Y-3.3465
X5.4331Y-3.3858
X5.4331Y-3.4252
X5.4331Y-3.4646
X5.4331Y-3.5039
X5.4331Y-3.5433
X5.4331Y-3.5827
X5.4331Y-3.622
X5.4331Y-3.6614
X5.4331Y-3.7008
X5.4331Y-3.7402
X5.4331Y-3.7795
X5.4331Y-3.8189
X5.4331Y-3.8583
X5.4331Y-3.8976
X5.4331Y-3.937
X5.4331Y-3.9764
X5.4331Y-4.0157
X5.4331Y-4.0551
X5.4331Y-4.0945
X5.4331Y-4.1339
X5.4331Y-4.1732
X5.4331Y-4.2126
X5.748Y-3.1299
X5.748Y-3.4843
X5.7677Y-3.7795
X5.7677Y-4.1339
X5.9055Y-3.1102
X5.9055Y-3.1496
X5.9055Y-3.189
X5.9055Y-3.2283
X5.9055Y-3.2677
X5.9055Y-3.3071
X5.9055Y-3.3465
X5.9055Y-3.3858
X5.9055Y-3.4252
X5.9055Y-3.4646
X5.9055Y-3.5039
X5.9055Y-3.5433
X5.9055Y-3.5827
X5.9055Y-3.622
X5.9055Y-3.6614
X5.9055Y-3.7008
X5.9055Y-3.7402
X5.9055Y-3.7795
X5.9055Y-3.8189
X5.9055Y-3.8583
X5.9055Y-3.8976
X5.9055Y-3.937
X5.9055Y-3.9764
X5.9055Y-4.0157
X5.9055Y-4.0551
X5.9055Y-4.0945
X5.9055Y-4.1339
X5.9055Y-4.1732
X5.9055Y-4.2126
X6.0827Y-3.1102
X6.0827Y-3.1496
X6.0827Y-3.189
X6.0827Y-3.2283
X6.0827Y-3.2677
X6.0827Y-3.3071
X6.0827Y-3.3465
X6.0827Y-3.3858
X6.0827Y-3.4252
X6.0827Y-3.4646
X6.0827Y-3.5039
X6.0827Y-3.5433
X6.0827Y-3.5827
X6.0827Y-3.622
X6.0827Y-3.6614
X6.0827Y-3.7008
X6.0827Y-3.7402
X6.0827Y-3.7795
X6.0827Y-3.8189
X6.0827Y-3.8583
X6.0827Y-3.8976
X6.0827Y-3.937
X6.0827Y-3.9764
X6.0827Y-4.0157
X6.0827Y-4.0551
X6.0827Y-4.0945
X6.0827Y-4.1339
X6.0827Y-4.1732
X6.0827Y-4.2126
X6.122Y-4.0157
X6.122Y-4.0551
X6.122Y-4.0945
X6.122Y-4.1339
X6.122Y-4.1732
X6.1417Y-3.9567
X6.1417Y-4.2126
X6.1811Y-3.937
X6.2205Y-3.1496
X6.2205Y-3.937
X6.2598Y-3.937
X6.2992Y-3.9567
X6.3189Y-4.1929
X6.3386Y-3.9961
X6.3386Y-4.0354
X6.3386Y-4.0748
X6.3386Y-4.1142
X6.3386Y-4.1535
X6.4567Y-3.1299
X6.5157Y-4.1929
X6.6929Y-4.1929
X6.7323Y-3.1299
X6.9882Y-4.1732
X7.0472Y-3.1299
X7.3622Y-3.1496
X7.3622Y-4.1535
X7.4016Y-3.3858
X7.4016Y-3.6417
X7.4016Y-3.9567
M30
