%TF.GenerationSoftware,KiCad,Pcbnew,8.0.2*%
%TF.CreationDate,2024-10-12T15:44:43+02:00*%
%TF.ProjectId,splitX_decoder,73706c69-7458-45f6-9465-636f6465722e,rev?*%
%TF.SameCoordinates,Original*%
%TF.FileFunction,Legend,Bot*%
%TF.FilePolarity,Positive*%
%FSLAX46Y46*%
G04 Gerber Fmt 4.6, Leading zero omitted, Abs format (unit mm)*
G04 Created by KiCad (PCBNEW 8.0.2) date 2024-10-12 15:44:43*
%MOMM*%
%LPD*%
G01*
G04 APERTURE LIST*
G04 Aperture macros list*
%AMRoundRect*
0 Rectangle with rounded corners*
0 $1 Rounding radius*
0 $2 $3 $4 $5 $6 $7 $8 $9 X,Y pos of 4 corners*
0 Add a 4 corners polygon primitive as box body*
4,1,4,$2,$3,$4,$5,$6,$7,$8,$9,$2,$3,0*
0 Add four circle primitives for the rounded corners*
1,1,$1+$1,$2,$3*
1,1,$1+$1,$4,$5*
1,1,$1+$1,$6,$7*
1,1,$1+$1,$8,$9*
0 Add four rect primitives between the rounded corners*
20,1,$1+$1,$2,$3,$4,$5,0*
20,1,$1+$1,$4,$5,$6,$7,0*
20,1,$1+$1,$6,$7,$8,$9,0*
20,1,$1+$1,$8,$9,$2,$3,0*%
G04 Aperture macros list end*
%ADD10C,0.010000*%
%ADD11RoundRect,0.250000X-1.550000X0.650000X-1.550000X-0.650000X1.550000X-0.650000X1.550000X0.650000X0*%
%ADD12O,3.600000X1.800000*%
%ADD13C,2.200000*%
%ADD14C,3.200000*%
%ADD15RoundRect,0.250000X0.650000X1.550000X-0.650000X1.550000X-0.650000X-1.550000X0.650000X-1.550000X0*%
%ADD16O,1.800000X3.600000*%
G04 APERTURE END LIST*
D10*
%TO.C,REF\u002A\u002A*%
X162696684Y-120423216D02*
X162737650Y-120436005D01*
X162788099Y-120457261D01*
X162812526Y-120468684D01*
X162830155Y-120470749D01*
X162834053Y-120454916D01*
X162834057Y-120454468D01*
X162842312Y-120439351D01*
X162870781Y-120431603D01*
X162925961Y-120429421D01*
X163017869Y-120429421D01*
X163017869Y-121231526D01*
X162834053Y-121231526D01*
X162834053Y-120678483D01*
X162788358Y-120636134D01*
X162774082Y-120624098D01*
X162731558Y-120603534D01*
X162679192Y-120602710D01*
X162607889Y-120620856D01*
X162583852Y-120622005D01*
X162555656Y-120604402D01*
X162518126Y-120562562D01*
X162499921Y-120539419D01*
X162478391Y-120506742D01*
X162475073Y-120485942D01*
X162487128Y-120468395D01*
X162524135Y-120446206D01*
X162581612Y-120428645D01*
X162643972Y-120419938D01*
X162696684Y-120423216D01*
G36*
X162696684Y-120423216D02*
G01*
X162737650Y-120436005D01*
X162788099Y-120457261D01*
X162812526Y-120468684D01*
X162830155Y-120470749D01*
X162834053Y-120454916D01*
X162834057Y-120454468D01*
X162842312Y-120439351D01*
X162870781Y-120431603D01*
X162925961Y-120429421D01*
X163017869Y-120429421D01*
X163017869Y-121231526D01*
X162834053Y-121231526D01*
X162834053Y-120678483D01*
X162788358Y-120636134D01*
X162774082Y-120624098D01*
X162731558Y-120603534D01*
X162679192Y-120602710D01*
X162607889Y-120620856D01*
X162583852Y-120622005D01*
X162555656Y-120604402D01*
X162518126Y-120562562D01*
X162499921Y-120539419D01*
X162478391Y-120506742D01*
X162475073Y-120485942D01*
X162487128Y-120468395D01*
X162524135Y-120446206D01*
X162581612Y-120428645D01*
X162643972Y-120419938D01*
X162696684Y-120423216D01*
G37*
X162940063Y-121693716D02*
X162990550Y-121717344D01*
X163034579Y-121751978D01*
X163034579Y-121717344D01*
X163035676Y-121704194D01*
X163045885Y-121690252D01*
X163073493Y-121684094D01*
X163126487Y-121682710D01*
X163218395Y-121682710D01*
X163218395Y-122501526D01*
X163034579Y-122501526D01*
X163034579Y-122234944D01*
X163034557Y-122219640D01*
X163032989Y-122112060D01*
X163029141Y-122024427D01*
X163023287Y-121961224D01*
X163015701Y-121926929D01*
X163008736Y-121913982D01*
X162965860Y-121873378D01*
X162907458Y-121855404D01*
X162843686Y-121863789D01*
X162828044Y-121869472D01*
X162794721Y-121879517D01*
X162771947Y-121876398D01*
X162749031Y-121855979D01*
X162715283Y-121814127D01*
X162660547Y-121745017D01*
X162699020Y-121713864D01*
X162735592Y-121695112D01*
X162799833Y-121682447D01*
X162872240Y-121682033D01*
X162940063Y-121693716D01*
G36*
X162940063Y-121693716D02*
G01*
X162990550Y-121717344D01*
X163034579Y-121751978D01*
X163034579Y-121717344D01*
X163035676Y-121704194D01*
X163045885Y-121690252D01*
X163073493Y-121684094D01*
X163126487Y-121682710D01*
X163218395Y-121682710D01*
X163218395Y-122501526D01*
X163034579Y-122501526D01*
X163034579Y-122234944D01*
X163034557Y-122219640D01*
X163032989Y-122112060D01*
X163029141Y-122024427D01*
X163023287Y-121961224D01*
X163015701Y-121926929D01*
X163008736Y-121913982D01*
X162965860Y-121873378D01*
X162907458Y-121855404D01*
X162843686Y-121863789D01*
X162828044Y-121869472D01*
X162794721Y-121879517D01*
X162771947Y-121876398D01*
X162749031Y-121855979D01*
X162715283Y-121814127D01*
X162660547Y-121745017D01*
X162699020Y-121713864D01*
X162735592Y-121695112D01*
X162799833Y-121682447D01*
X162872240Y-121682033D01*
X162940063Y-121693716D01*
G37*
X166426816Y-122501526D02*
X166259711Y-122501526D01*
X166259711Y-122243601D01*
X166259526Y-122183605D01*
X166257626Y-122084237D01*
X166252816Y-122010673D01*
X166244052Y-121957827D01*
X166230290Y-121920614D01*
X166210487Y-121893949D01*
X166183600Y-121872746D01*
X166154248Y-121856947D01*
X166119491Y-121852467D01*
X166070058Y-121862429D01*
X166054173Y-121866576D01*
X166014520Y-121872818D01*
X165986167Y-121863875D01*
X165953306Y-121836195D01*
X165947070Y-121830175D01*
X165912594Y-121792937D01*
X165890361Y-121762660D01*
X165887311Y-121755366D01*
X165893354Y-121728432D01*
X165923998Y-121706898D01*
X165972363Y-121691786D01*
X166031566Y-121684114D01*
X166094728Y-121684904D01*
X166154967Y-121695175D01*
X166205402Y-121715948D01*
X166221388Y-121725648D01*
X166248302Y-121739845D01*
X166258264Y-121736594D01*
X166259711Y-121715886D01*
X166260050Y-121708451D01*
X166268112Y-121691982D01*
X166293119Y-121684486D01*
X166343264Y-121682710D01*
X166426816Y-121682710D01*
X166426816Y-122501526D01*
G36*
X166426816Y-122501526D02*
G01*
X166259711Y-122501526D01*
X166259711Y-122243601D01*
X166259526Y-122183605D01*
X166257626Y-122084237D01*
X166252816Y-122010673D01*
X166244052Y-121957827D01*
X166230290Y-121920614D01*
X166210487Y-121893949D01*
X166183600Y-121872746D01*
X166154248Y-121856947D01*
X166119491Y-121852467D01*
X166070058Y-121862429D01*
X166054173Y-121866576D01*
X166014520Y-121872818D01*
X165986167Y-121863875D01*
X165953306Y-121836195D01*
X165947070Y-121830175D01*
X165912594Y-121792937D01*
X165890361Y-121762660D01*
X165887311Y-121755366D01*
X165893354Y-121728432D01*
X165923998Y-121706898D01*
X165972363Y-121691786D01*
X166031566Y-121684114D01*
X166094728Y-121684904D01*
X166154967Y-121695175D01*
X166205402Y-121715948D01*
X166221388Y-121725648D01*
X166248302Y-121739845D01*
X166258264Y-121736594D01*
X166259711Y-121715886D01*
X166260050Y-121708451D01*
X166268112Y-121691982D01*
X166293119Y-121684486D01*
X166343264Y-121682710D01*
X166426816Y-121682710D01*
X166426816Y-122501526D01*
G37*
X163352079Y-120689533D02*
X163353489Y-120806550D01*
X163359007Y-120901058D01*
X163370185Y-120969751D01*
X163388572Y-121016478D01*
X163415717Y-121045089D01*
X163453168Y-121059432D01*
X163502474Y-121063358D01*
X163549552Y-121059854D01*
X163587574Y-121046139D01*
X163615210Y-121018355D01*
X163634009Y-120972651D01*
X163645519Y-120905179D01*
X163651290Y-120812089D01*
X163652869Y-120689533D01*
X163652869Y-120429421D01*
X163819974Y-120429421D01*
X163819974Y-120743004D01*
X163819688Y-120826705D01*
X163817459Y-120934943D01*
X163811869Y-121017489D01*
X163801561Y-121079068D01*
X163785183Y-121124405D01*
X163761379Y-121158226D01*
X163728796Y-121185257D01*
X163686079Y-121210221D01*
X163596377Y-121241825D01*
X163502761Y-121243887D01*
X163414496Y-121214783D01*
X163375986Y-121195917D01*
X163356880Y-121193097D01*
X163352079Y-121206428D01*
X163344109Y-121221396D01*
X163315578Y-121229281D01*
X163260172Y-121231526D01*
X163168264Y-121231526D01*
X163168264Y-120429421D01*
X163352079Y-120429421D01*
X163352079Y-120689533D01*
G36*
X163352079Y-120689533D02*
G01*
X163353489Y-120806550D01*
X163359007Y-120901058D01*
X163370185Y-120969751D01*
X163388572Y-121016478D01*
X163415717Y-121045089D01*
X163453168Y-121059432D01*
X163502474Y-121063358D01*
X163549552Y-121059854D01*
X163587574Y-121046139D01*
X163615210Y-121018355D01*
X163634009Y-120972651D01*
X163645519Y-120905179D01*
X163651290Y-120812089D01*
X163652869Y-120689533D01*
X163652869Y-120429421D01*
X163819974Y-120429421D01*
X163819974Y-120743004D01*
X163819688Y-120826705D01*
X163817459Y-120934943D01*
X163811869Y-121017489D01*
X163801561Y-121079068D01*
X163785183Y-121124405D01*
X163761379Y-121158226D01*
X163728796Y-121185257D01*
X163686079Y-121210221D01*
X163596377Y-121241825D01*
X163502761Y-121243887D01*
X163414496Y-121214783D01*
X163375986Y-121195917D01*
X163356880Y-121193097D01*
X163352079Y-121206428D01*
X163344109Y-121221396D01*
X163315578Y-121229281D01*
X163260172Y-121231526D01*
X163168264Y-121231526D01*
X163168264Y-120429421D01*
X163352079Y-120429421D01*
X163352079Y-120689533D01*
G37*
X166145937Y-120427840D02*
X166222112Y-120451773D01*
X166255699Y-120468040D01*
X166272592Y-120469720D01*
X166276422Y-120454916D01*
X166276425Y-120454468D01*
X166284680Y-120439351D01*
X166313149Y-120431603D01*
X166368329Y-120429421D01*
X166460237Y-120429421D01*
X166460237Y-121231526D01*
X166276422Y-121231526D01*
X166276422Y-120955043D01*
X166276296Y-120861680D01*
X166275436Y-120784988D01*
X166273137Y-120731322D01*
X166268690Y-120695212D01*
X166261390Y-120671191D01*
X166250530Y-120653791D01*
X166235405Y-120637543D01*
X166214801Y-120620261D01*
X166155555Y-120597042D01*
X166093366Y-120603857D01*
X166036398Y-120640581D01*
X166020115Y-120657673D01*
X166008426Y-120674971D01*
X166000586Y-120697990D01*
X165995827Y-120732271D01*
X165993379Y-120783353D01*
X165992473Y-120856777D01*
X165992343Y-120958081D01*
X165992343Y-121231526D01*
X165808527Y-121231526D01*
X165808894Y-120934914D01*
X165808919Y-120921702D01*
X165810513Y-120795535D01*
X165815408Y-120697528D01*
X165824864Y-120622915D01*
X165840139Y-120566931D01*
X165862490Y-120524809D01*
X165893175Y-120491784D01*
X165933454Y-120463090D01*
X165975043Y-120443226D01*
X166058800Y-120425178D01*
X166145937Y-120427840D01*
G36*
X166145937Y-120427840D02*
G01*
X166222112Y-120451773D01*
X166255699Y-120468040D01*
X166272592Y-120469720D01*
X166276422Y-120454916D01*
X166276425Y-120454468D01*
X166284680Y-120439351D01*
X166313149Y-120431603D01*
X166368329Y-120429421D01*
X166460237Y-120429421D01*
X166460237Y-121231526D01*
X166276422Y-121231526D01*
X166276422Y-120955043D01*
X166276296Y-120861680D01*
X166275436Y-120784988D01*
X166273137Y-120731322D01*
X166268690Y-120695212D01*
X166261390Y-120671191D01*
X166250530Y-120653791D01*
X166235405Y-120637543D01*
X166214801Y-120620261D01*
X166155555Y-120597042D01*
X166093366Y-120603857D01*
X166036398Y-120640581D01*
X166020115Y-120657673D01*
X166008426Y-120674971D01*
X166000586Y-120697990D01*
X165995827Y-120732271D01*
X165993379Y-120783353D01*
X165992473Y-120856777D01*
X165992343Y-120958081D01*
X165992343Y-121231526D01*
X165808527Y-121231526D01*
X165808894Y-120934914D01*
X165808919Y-120921702D01*
X165810513Y-120795535D01*
X165815408Y-120697528D01*
X165824864Y-120622915D01*
X165840139Y-120566931D01*
X165862490Y-120524809D01*
X165893175Y-120491784D01*
X165933454Y-120463090D01*
X165975043Y-120443226D01*
X166058800Y-120425178D01*
X166145937Y-120427840D01*
G37*
X162226610Y-120433247D02*
X162317791Y-120468771D01*
X162394907Y-120527413D01*
X162451864Y-120607956D01*
X162455710Y-120616169D01*
X162480130Y-120696267D01*
X162492330Y-120791948D01*
X162492234Y-120891569D01*
X162479764Y-120983488D01*
X162454843Y-121056066D01*
X162424073Y-121106650D01*
X162356344Y-121178310D01*
X162271657Y-121223862D01*
X162199202Y-121242282D01*
X162088875Y-121244293D01*
X161983302Y-121216513D01*
X161889682Y-121160142D01*
X161829088Y-121110196D01*
X161883664Y-121053887D01*
X161918144Y-121020530D01*
X161949332Y-121001958D01*
X161978250Y-121006047D01*
X162015237Y-121031000D01*
X162029985Y-121040768D01*
X162092291Y-121060762D01*
X162163903Y-121060749D01*
X162230950Y-121040143D01*
X162256196Y-121023595D01*
X162293228Y-120974730D01*
X162311792Y-120902958D01*
X162312987Y-120805136D01*
X162312983Y-120805081D01*
X162299171Y-120717562D01*
X162268744Y-120656881D01*
X162218676Y-120619345D01*
X162145941Y-120601261D01*
X162100137Y-120598829D01*
X162060116Y-120608789D01*
X162019070Y-120637642D01*
X161965954Y-120682336D01*
X161898688Y-120628279D01*
X161874113Y-120607570D01*
X161843416Y-120577899D01*
X161831422Y-120560413D01*
X161835669Y-120552533D01*
X161860135Y-120528340D01*
X161899110Y-120497571D01*
X161929605Y-120477549D01*
X162026424Y-120436419D01*
X162127457Y-120422057D01*
X162226610Y-120433247D01*
G36*
X162226610Y-120433247D02*
G01*
X162317791Y-120468771D01*
X162394907Y-120527413D01*
X162451864Y-120607956D01*
X162455710Y-120616169D01*
X162480130Y-120696267D01*
X162492330Y-120791948D01*
X162492234Y-120891569D01*
X162479764Y-120983488D01*
X162454843Y-121056066D01*
X162424073Y-121106650D01*
X162356344Y-121178310D01*
X162271657Y-121223862D01*
X162199202Y-121242282D01*
X162088875Y-121244293D01*
X161983302Y-121216513D01*
X161889682Y-121160142D01*
X161829088Y-121110196D01*
X161883664Y-121053887D01*
X161918144Y-121020530D01*
X161949332Y-121001958D01*
X161978250Y-121006047D01*
X162015237Y-121031000D01*
X162029985Y-121040768D01*
X162092291Y-121060762D01*
X162163903Y-121060749D01*
X162230950Y-121040143D01*
X162256196Y-121023595D01*
X162293228Y-120974730D01*
X162311792Y-120902958D01*
X162312987Y-120805136D01*
X162312983Y-120805081D01*
X162299171Y-120717562D01*
X162268744Y-120656881D01*
X162218676Y-120619345D01*
X162145941Y-120601261D01*
X162100137Y-120598829D01*
X162060116Y-120608789D01*
X162019070Y-120637642D01*
X161965954Y-120682336D01*
X161898688Y-120628279D01*
X161874113Y-120607570D01*
X161843416Y-120577899D01*
X161831422Y-120560413D01*
X161835669Y-120552533D01*
X161860135Y-120528340D01*
X161899110Y-120497571D01*
X161929605Y-120477549D01*
X162026424Y-120436419D01*
X162127457Y-120422057D01*
X162226610Y-120433247D01*
G37*
X164617982Y-120888116D02*
X164613320Y-120941001D01*
X164592714Y-121041965D01*
X164555857Y-121119007D01*
X164499761Y-121177201D01*
X164421434Y-121221617D01*
X164391023Y-121232188D01*
X164312263Y-121245377D01*
X164229384Y-121245018D01*
X164159450Y-121230531D01*
X164158076Y-121230005D01*
X164101718Y-121196852D01*
X164044780Y-121145530D01*
X163997535Y-121086840D01*
X163970255Y-121031584D01*
X163962169Y-120991193D01*
X163955246Y-120915569D01*
X163954085Y-120848161D01*
X164122442Y-120848161D01*
X164132507Y-120929014D01*
X164156151Y-120995451D01*
X164191973Y-121038862D01*
X164205551Y-121046316D01*
X164257327Y-121059864D01*
X164317213Y-121062651D01*
X164367596Y-121053237D01*
X164387260Y-121039736D01*
X164414862Y-120992523D01*
X164432230Y-120918630D01*
X164438264Y-120821663D01*
X164438167Y-120793750D01*
X164436071Y-120737190D01*
X164429100Y-120700294D01*
X164414475Y-120673031D01*
X164389418Y-120645372D01*
X164341736Y-120611849D01*
X164279663Y-120598143D01*
X164219689Y-120611197D01*
X164169891Y-120648951D01*
X164138345Y-120709349D01*
X164127358Y-120761502D01*
X164122442Y-120848161D01*
X163954085Y-120848161D01*
X163953763Y-120829442D01*
X163957478Y-120743719D01*
X163966145Y-120669305D01*
X163979522Y-120617106D01*
X164010679Y-120558006D01*
X164076808Y-120485340D01*
X164161331Y-120439310D01*
X164261734Y-120421090D01*
X164375505Y-120431858D01*
X164394435Y-120436445D01*
X164482595Y-120476000D01*
X164549028Y-120540941D01*
X164593735Y-120631271D01*
X164616718Y-120746994D01*
X164617387Y-120821663D01*
X164617982Y-120888116D01*
G36*
X164617982Y-120888116D02*
G01*
X164613320Y-120941001D01*
X164592714Y-121041965D01*
X164555857Y-121119007D01*
X164499761Y-121177201D01*
X164421434Y-121221617D01*
X164391023Y-121232188D01*
X164312263Y-121245377D01*
X164229384Y-121245018D01*
X164159450Y-121230531D01*
X164158076Y-121230005D01*
X164101718Y-121196852D01*
X164044780Y-121145530D01*
X163997535Y-121086840D01*
X163970255Y-121031584D01*
X163962169Y-120991193D01*
X163955246Y-120915569D01*
X163954085Y-120848161D01*
X164122442Y-120848161D01*
X164132507Y-120929014D01*
X164156151Y-120995451D01*
X164191973Y-121038862D01*
X164205551Y-121046316D01*
X164257327Y-121059864D01*
X164317213Y-121062651D01*
X164367596Y-121053237D01*
X164387260Y-121039736D01*
X164414862Y-120992523D01*
X164432230Y-120918630D01*
X164438264Y-120821663D01*
X164438167Y-120793750D01*
X164436071Y-120737190D01*
X164429100Y-120700294D01*
X164414475Y-120673031D01*
X164389418Y-120645372D01*
X164341736Y-120611849D01*
X164279663Y-120598143D01*
X164219689Y-120611197D01*
X164169891Y-120648951D01*
X164138345Y-120709349D01*
X164127358Y-120761502D01*
X164122442Y-120848161D01*
X163954085Y-120848161D01*
X163953763Y-120829442D01*
X163957478Y-120743719D01*
X163966145Y-120669305D01*
X163979522Y-120617106D01*
X164010679Y-120558006D01*
X164076808Y-120485340D01*
X164161331Y-120439310D01*
X164261734Y-120421090D01*
X164375505Y-120431858D01*
X164394435Y-120436445D01*
X164482595Y-120476000D01*
X164549028Y-120540941D01*
X164593735Y-120631271D01*
X164616718Y-120746994D01*
X164617387Y-120821663D01*
X164617982Y-120888116D01*
G37*
X164751063Y-121945107D02*
X164773655Y-122012510D01*
X164800379Y-122087127D01*
X164822696Y-122143654D01*
X164838759Y-122177486D01*
X164846724Y-122184016D01*
X164848646Y-122178337D01*
X164859049Y-122143507D01*
X164875619Y-122085335D01*
X164896516Y-122010333D01*
X164919900Y-121925013D01*
X164983518Y-121691066D01*
X165080655Y-121685990D01*
X165088854Y-121685584D01*
X165141235Y-121685046D01*
X165166406Y-121690423D01*
X165169612Y-121702701D01*
X165165562Y-121714692D01*
X165152241Y-121755734D01*
X165131384Y-121820736D01*
X165104479Y-121905048D01*
X165073012Y-122004022D01*
X165038469Y-122113006D01*
X164915505Y-122501526D01*
X164761689Y-122501526D01*
X164689213Y-122255046D01*
X164675830Y-122209785D01*
X164651096Y-122127502D01*
X164629962Y-122058940D01*
X164614329Y-122010225D01*
X164606102Y-121987483D01*
X164603758Y-121985787D01*
X164592351Y-122000456D01*
X164576065Y-122039248D01*
X164557606Y-122096102D01*
X164556631Y-122099441D01*
X164531917Y-122183347D01*
X164503641Y-122278351D01*
X164477730Y-122364528D01*
X164435714Y-122503253D01*
X164280750Y-122493171D01*
X164208987Y-122267579D01*
X164177480Y-122168454D01*
X164142187Y-122057281D01*
X164108393Y-121950704D01*
X164080418Y-121862349D01*
X164023613Y-121682710D01*
X164213656Y-121682710D01*
X164259720Y-121853993D01*
X164271965Y-121899251D01*
X164295125Y-121983625D01*
X164316572Y-122060384D01*
X164332876Y-122117184D01*
X164359969Y-122209092D01*
X164446374Y-121950079D01*
X164532780Y-121691066D01*
X164598870Y-121686104D01*
X164664959Y-121681143D01*
X164751063Y-121945107D01*
G36*
X164751063Y-121945107D02*
G01*
X164773655Y-122012510D01*
X164800379Y-122087127D01*
X164822696Y-122143654D01*
X164838759Y-122177486D01*
X164846724Y-122184016D01*
X164848646Y-122178337D01*
X164859049Y-122143507D01*
X164875619Y-122085335D01*
X164896516Y-122010333D01*
X164919900Y-121925013D01*
X164983518Y-121691066D01*
X165080655Y-121685990D01*
X165088854Y-121685584D01*
X165141235Y-121685046D01*
X165166406Y-121690423D01*
X165169612Y-121702701D01*
X165165562Y-121714692D01*
X165152241Y-121755734D01*
X165131384Y-121820736D01*
X165104479Y-121905048D01*
X165073012Y-122004022D01*
X165038469Y-122113006D01*
X164915505Y-122501526D01*
X164761689Y-122501526D01*
X164689213Y-122255046D01*
X164675830Y-122209785D01*
X164651096Y-122127502D01*
X164629962Y-122058940D01*
X164614329Y-122010225D01*
X164606102Y-121987483D01*
X164603758Y-121985787D01*
X164592351Y-122000456D01*
X164576065Y-122039248D01*
X164557606Y-122096102D01*
X164556631Y-122099441D01*
X164531917Y-122183347D01*
X164503641Y-122278351D01*
X164477730Y-122364528D01*
X164435714Y-122503253D01*
X164280750Y-122493171D01*
X164208987Y-122267579D01*
X164177480Y-122168454D01*
X164142187Y-122057281D01*
X164108393Y-121950704D01*
X164080418Y-121862349D01*
X164023613Y-121682710D01*
X164213656Y-121682710D01*
X164259720Y-121853993D01*
X164271965Y-121899251D01*
X164295125Y-121983625D01*
X164316572Y-122060384D01*
X164332876Y-122117184D01*
X164359969Y-122209092D01*
X164446374Y-121950079D01*
X164532780Y-121691066D01*
X164598870Y-121686104D01*
X164664959Y-121681143D01*
X164751063Y-121945107D01*
G37*
X168780431Y-120876368D02*
X168778273Y-120928701D01*
X168773376Y-120992519D01*
X168765033Y-121037752D01*
X168751256Y-121073593D01*
X168730057Y-121109236D01*
X168729154Y-121110587D01*
X168676953Y-121168335D01*
X168613083Y-121212380D01*
X168538813Y-121238517D01*
X168441110Y-121247003D01*
X168345350Y-121230316D01*
X168259755Y-121190106D01*
X168192545Y-121128022D01*
X168173250Y-121098688D01*
X168137216Y-121007496D01*
X168119344Y-120894984D01*
X168119650Y-120866524D01*
X168299249Y-120866524D01*
X168299588Y-120919750D01*
X168305231Y-120955284D01*
X168318089Y-120982589D01*
X168340072Y-121011124D01*
X168370579Y-121039440D01*
X168431592Y-121064710D01*
X168497106Y-121060016D01*
X168559719Y-121024896D01*
X168577381Y-121008122D01*
X168596239Y-120979407D01*
X168606696Y-120939046D01*
X168612624Y-120876154D01*
X168614257Y-120828910D01*
X168605311Y-120732428D01*
X168577860Y-120663352D01*
X168531781Y-120621301D01*
X168477766Y-120601165D01*
X168413349Y-120602860D01*
X168353637Y-120636855D01*
X168339361Y-120649797D01*
X168321347Y-120672440D01*
X168310659Y-120702064D01*
X168304729Y-120747482D01*
X168300988Y-120817506D01*
X168299249Y-120866524D01*
X168119650Y-120866524D01*
X168120723Y-120766624D01*
X168122482Y-120748418D01*
X168147024Y-120631812D01*
X168192430Y-120541290D01*
X168258795Y-120476754D01*
X168346216Y-120438104D01*
X168454791Y-120425243D01*
X168495811Y-120426450D01*
X168579934Y-120441220D01*
X168648722Y-120476474D01*
X168712854Y-120536828D01*
X168723110Y-120548942D01*
X168750774Y-120589737D01*
X168768955Y-120635930D01*
X168779036Y-120694468D01*
X168782401Y-120772299D01*
X168781329Y-120828910D01*
X168780431Y-120876368D01*
G36*
X168780431Y-120876368D02*
G01*
X168778273Y-120928701D01*
X168773376Y-120992519D01*
X168765033Y-121037752D01*
X168751256Y-121073593D01*
X168730057Y-121109236D01*
X168729154Y-121110587D01*
X168676953Y-121168335D01*
X168613083Y-121212380D01*
X168538813Y-121238517D01*
X168441110Y-121247003D01*
X168345350Y-121230316D01*
X168259755Y-121190106D01*
X168192545Y-121128022D01*
X168173250Y-121098688D01*
X168137216Y-121007496D01*
X168119344Y-120894984D01*
X168119650Y-120866524D01*
X168299249Y-120866524D01*
X168299588Y-120919750D01*
X168305231Y-120955284D01*
X168318089Y-120982589D01*
X168340072Y-121011124D01*
X168370579Y-121039440D01*
X168431592Y-121064710D01*
X168497106Y-121060016D01*
X168559719Y-121024896D01*
X168577381Y-121008122D01*
X168596239Y-120979407D01*
X168606696Y-120939046D01*
X168612624Y-120876154D01*
X168614257Y-120828910D01*
X168605311Y-120732428D01*
X168577860Y-120663352D01*
X168531781Y-120621301D01*
X168477766Y-120601165D01*
X168413349Y-120602860D01*
X168353637Y-120636855D01*
X168339361Y-120649797D01*
X168321347Y-120672440D01*
X168310659Y-120702064D01*
X168304729Y-120747482D01*
X168300988Y-120817506D01*
X168299249Y-120866524D01*
X168119650Y-120866524D01*
X168120723Y-120766624D01*
X168122482Y-120748418D01*
X168147024Y-120631812D01*
X168192430Y-120541290D01*
X168258795Y-120476754D01*
X168346216Y-120438104D01*
X168454791Y-120425243D01*
X168495811Y-120426450D01*
X168579934Y-120441220D01*
X168648722Y-120476474D01*
X168712854Y-120536828D01*
X168723110Y-120548942D01*
X168750774Y-120589737D01*
X168768955Y-120635930D01*
X168779036Y-120694468D01*
X168782401Y-120772299D01*
X168781329Y-120828910D01*
X168780431Y-120876368D01*
G37*
X165890986Y-122154659D02*
X165888868Y-122226101D01*
X165884608Y-122275866D01*
X165883878Y-122280427D01*
X165855206Y-122362004D01*
X165802846Y-122431165D01*
X165734158Y-122478021D01*
X165660396Y-122497416D01*
X165569668Y-122495911D01*
X165486205Y-122469906D01*
X165464465Y-122458932D01*
X165436510Y-122447174D01*
X165425872Y-122450832D01*
X165424185Y-122469906D01*
X165423410Y-122479418D01*
X165413407Y-122493485D01*
X165385623Y-122499962D01*
X165332277Y-122501526D01*
X165240369Y-122501526D01*
X165240369Y-122100328D01*
X165424185Y-122100328D01*
X165425502Y-122169832D01*
X165430848Y-122216106D01*
X165442262Y-122247807D01*
X165461783Y-122274373D01*
X165513329Y-122313873D01*
X165573650Y-122327115D01*
X165632144Y-122310740D01*
X165681410Y-122265060D01*
X165694432Y-122231634D01*
X165704051Y-122172441D01*
X165708280Y-122100626D01*
X165706948Y-122026967D01*
X165699884Y-121962239D01*
X165686917Y-121917222D01*
X165682774Y-121909840D01*
X165642840Y-121872738D01*
X165588722Y-121856301D01*
X165530600Y-121860124D01*
X165478653Y-121883802D01*
X165443063Y-121926929D01*
X165441592Y-121930556D01*
X165432767Y-121971026D01*
X165426542Y-122031499D01*
X165424185Y-122100328D01*
X165240369Y-122100328D01*
X165240369Y-121365210D01*
X165424185Y-121365210D01*
X165424185Y-121754732D01*
X165458232Y-121723920D01*
X165491014Y-121704769D01*
X165553059Y-121688760D01*
X165625589Y-121683602D01*
X165696419Y-121689935D01*
X165753368Y-121708400D01*
X165794128Y-121734666D01*
X165836113Y-121779412D01*
X165864370Y-121839588D01*
X165881355Y-121920988D01*
X165889528Y-122029405D01*
X165890729Y-122073230D01*
X165890816Y-122100626D01*
X165890986Y-122154659D01*
G36*
X165890986Y-122154659D02*
G01*
X165888868Y-122226101D01*
X165884608Y-122275866D01*
X165883878Y-122280427D01*
X165855206Y-122362004D01*
X165802846Y-122431165D01*
X165734158Y-122478021D01*
X165660396Y-122497416D01*
X165569668Y-122495911D01*
X165486205Y-122469906D01*
X165464465Y-122458932D01*
X165436510Y-122447174D01*
X165425872Y-122450832D01*
X165424185Y-122469906D01*
X165423410Y-122479418D01*
X165413407Y-122493485D01*
X165385623Y-122499962D01*
X165332277Y-122501526D01*
X165240369Y-122501526D01*
X165240369Y-122100328D01*
X165424185Y-122100328D01*
X165425502Y-122169832D01*
X165430848Y-122216106D01*
X165442262Y-122247807D01*
X165461783Y-122274373D01*
X165513329Y-122313873D01*
X165573650Y-122327115D01*
X165632144Y-122310740D01*
X165681410Y-122265060D01*
X165694432Y-122231634D01*
X165704051Y-122172441D01*
X165708280Y-122100626D01*
X165706948Y-122026967D01*
X165699884Y-121962239D01*
X165686917Y-121917222D01*
X165682774Y-121909840D01*
X165642840Y-121872738D01*
X165588722Y-121856301D01*
X165530600Y-121860124D01*
X165478653Y-121883802D01*
X165443063Y-121926929D01*
X165441592Y-121930556D01*
X165432767Y-121971026D01*
X165426542Y-122031499D01*
X165424185Y-122100328D01*
X165240369Y-122100328D01*
X165240369Y-121365210D01*
X165424185Y-121365210D01*
X165424185Y-121754732D01*
X165458232Y-121723920D01*
X165491014Y-121704769D01*
X165553059Y-121688760D01*
X165625589Y-121683602D01*
X165696419Y-121689935D01*
X165753368Y-121708400D01*
X165794128Y-121734666D01*
X165836113Y-121779412D01*
X165864370Y-121839588D01*
X165881355Y-121920988D01*
X165889528Y-122029405D01*
X165890729Y-122073230D01*
X165890816Y-122100626D01*
X165890986Y-122154659D01*
G37*
X161809367Y-120776627D02*
X161807216Y-120904529D01*
X161806936Y-120907044D01*
X161782909Y-121024405D01*
X161739499Y-121115652D01*
X161675353Y-121182791D01*
X161589119Y-121227824D01*
X161573289Y-121232974D01*
X161475173Y-121248151D01*
X161373698Y-121239688D01*
X161279359Y-121209445D01*
X161202649Y-121159285D01*
X161145190Y-121106197D01*
X161206266Y-121057904D01*
X161267341Y-121009611D01*
X161340947Y-121045371D01*
X161426115Y-121074347D01*
X161501301Y-121075215D01*
X161562816Y-121048592D01*
X161607083Y-120995155D01*
X161622952Y-120963136D01*
X161631811Y-120935771D01*
X161626685Y-120917285D01*
X161603687Y-120905938D01*
X161558931Y-120899987D01*
X161488529Y-120897693D01*
X161388593Y-120897316D01*
X161146290Y-120897316D01*
X161146290Y-120781430D01*
X161148100Y-120730555D01*
X161318706Y-120730555D01*
X161326900Y-120739912D01*
X161351160Y-120744783D01*
X161397272Y-120746630D01*
X161471019Y-120746921D01*
X161510566Y-120746457D01*
X161572971Y-120743388D01*
X161615303Y-120738013D01*
X161630895Y-120730997D01*
X161626906Y-120705108D01*
X161598788Y-120655570D01*
X161551932Y-120614875D01*
X161496074Y-120590295D01*
X161440951Y-120589105D01*
X161399458Y-120608815D01*
X161352440Y-120653668D01*
X161322545Y-120709322D01*
X161320794Y-120715245D01*
X161318706Y-120730555D01*
X161148100Y-120730555D01*
X161148471Y-120720138D01*
X161154876Y-120659496D01*
X161164025Y-120618502D01*
X161170695Y-120602852D01*
X161219243Y-120533149D01*
X161289391Y-120475013D01*
X161371426Y-120436949D01*
X161414216Y-120426554D01*
X161516170Y-120421822D01*
X161607015Y-120445893D01*
X161684253Y-120496088D01*
X161745389Y-120569727D01*
X161787926Y-120664133D01*
X161800671Y-120730997D01*
X161809367Y-120776627D01*
G36*
X161809367Y-120776627D02*
G01*
X161807216Y-120904529D01*
X161806936Y-120907044D01*
X161782909Y-121024405D01*
X161739499Y-121115652D01*
X161675353Y-121182791D01*
X161589119Y-121227824D01*
X161573289Y-121232974D01*
X161475173Y-121248151D01*
X161373698Y-121239688D01*
X161279359Y-121209445D01*
X161202649Y-121159285D01*
X161145190Y-121106197D01*
X161206266Y-121057904D01*
X161267341Y-121009611D01*
X161340947Y-121045371D01*
X161426115Y-121074347D01*
X161501301Y-121075215D01*
X161562816Y-121048592D01*
X161607083Y-120995155D01*
X161622952Y-120963136D01*
X161631811Y-120935771D01*
X161626685Y-120917285D01*
X161603687Y-120905938D01*
X161558931Y-120899987D01*
X161488529Y-120897693D01*
X161388593Y-120897316D01*
X161146290Y-120897316D01*
X161146290Y-120781430D01*
X161148100Y-120730555D01*
X161318706Y-120730555D01*
X161326900Y-120739912D01*
X161351160Y-120744783D01*
X161397272Y-120746630D01*
X161471019Y-120746921D01*
X161510566Y-120746457D01*
X161572971Y-120743388D01*
X161615303Y-120738013D01*
X161630895Y-120730997D01*
X161626906Y-120705108D01*
X161598788Y-120655570D01*
X161551932Y-120614875D01*
X161496074Y-120590295D01*
X161440951Y-120589105D01*
X161399458Y-120608815D01*
X161352440Y-120653668D01*
X161322545Y-120709322D01*
X161320794Y-120715245D01*
X161318706Y-120730555D01*
X161148100Y-120730555D01*
X161148471Y-120720138D01*
X161154876Y-120659496D01*
X161164025Y-120618502D01*
X161170695Y-120602852D01*
X161219243Y-120533149D01*
X161289391Y-120475013D01*
X161371426Y-120436949D01*
X161414216Y-120426554D01*
X161516170Y-120421822D01*
X161607015Y-120445893D01*
X161684253Y-120496088D01*
X161745389Y-120569727D01*
X161787926Y-120664133D01*
X161800671Y-120730997D01*
X161809367Y-120776627D01*
G37*
X165104399Y-120428879D02*
X165200909Y-120453068D01*
X165271411Y-120497902D01*
X165316307Y-120563681D01*
X165335999Y-120650707D01*
X165332012Y-120734023D01*
X165303235Y-120804297D01*
X165248048Y-120856254D01*
X165165348Y-120890910D01*
X165054026Y-120909279D01*
X164981692Y-120918906D01*
X164915670Y-120939737D01*
X164881583Y-120969904D01*
X164879526Y-121009352D01*
X164893243Y-121033949D01*
X164935726Y-121063101D01*
X164996117Y-121076889D01*
X165066889Y-121075004D01*
X165140512Y-121057133D01*
X165209457Y-121022967D01*
X165278197Y-120977477D01*
X165399119Y-121099835D01*
X165348987Y-121140755D01*
X165329494Y-121154973D01*
X165274650Y-121187275D01*
X165215303Y-121215109D01*
X165168335Y-121231083D01*
X165099562Y-121242654D01*
X165014777Y-121242807D01*
X164910806Y-121230067D01*
X164817145Y-121197777D01*
X164750849Y-121146486D01*
X164711760Y-121076065D01*
X164699722Y-120986387D01*
X164708436Y-120907497D01*
X164736408Y-120842907D01*
X164786768Y-120796651D01*
X164862703Y-120765888D01*
X164967400Y-120747778D01*
X164979425Y-120746467D01*
X165044611Y-120738106D01*
X165097490Y-120729357D01*
X165127573Y-120721913D01*
X165137612Y-120715920D01*
X165154584Y-120685013D01*
X165151828Y-120645450D01*
X165129146Y-120611105D01*
X165117236Y-120603615D01*
X165067606Y-120591613D01*
X165003500Y-120592420D01*
X164936653Y-120605192D01*
X164878799Y-120629086D01*
X164818008Y-120664954D01*
X164770854Y-120609852D01*
X164759412Y-120595853D01*
X164733634Y-120558353D01*
X164723022Y-120532937D01*
X164734166Y-120517353D01*
X164768644Y-120493026D01*
X164818428Y-120466848D01*
X164825443Y-120463648D01*
X164891092Y-120438548D01*
X164954372Y-120426547D01*
X165032900Y-120424137D01*
X165104399Y-120428879D01*
G36*
X165104399Y-120428879D02*
G01*
X165200909Y-120453068D01*
X165271411Y-120497902D01*
X165316307Y-120563681D01*
X165335999Y-120650707D01*
X165332012Y-120734023D01*
X165303235Y-120804297D01*
X165248048Y-120856254D01*
X165165348Y-120890910D01*
X165054026Y-120909279D01*
X164981692Y-120918906D01*
X164915670Y-120939737D01*
X164881583Y-120969904D01*
X164879526Y-121009352D01*
X164893243Y-121033949D01*
X164935726Y-121063101D01*
X164996117Y-121076889D01*
X165066889Y-121075004D01*
X165140512Y-121057133D01*
X165209457Y-121022967D01*
X165278197Y-120977477D01*
X165399119Y-121099835D01*
X165348987Y-121140755D01*
X165329494Y-121154973D01*
X165274650Y-121187275D01*
X165215303Y-121215109D01*
X165168335Y-121231083D01*
X165099562Y-121242654D01*
X165014777Y-121242807D01*
X164910806Y-121230067D01*
X164817145Y-121197777D01*
X164750849Y-121146486D01*
X164711760Y-121076065D01*
X164699722Y-120986387D01*
X164708436Y-120907497D01*
X164736408Y-120842907D01*
X164786768Y-120796651D01*
X164862703Y-120765888D01*
X164967400Y-120747778D01*
X164979425Y-120746467D01*
X165044611Y-120738106D01*
X165097490Y-120729357D01*
X165127573Y-120721913D01*
X165137612Y-120715920D01*
X165154584Y-120685013D01*
X165151828Y-120645450D01*
X165129146Y-120611105D01*
X165117236Y-120603615D01*
X165067606Y-120591613D01*
X165003500Y-120592420D01*
X164936653Y-120605192D01*
X164878799Y-120629086D01*
X164818008Y-120664954D01*
X164770854Y-120609852D01*
X164759412Y-120595853D01*
X164733634Y-120558353D01*
X164723022Y-120532937D01*
X164734166Y-120517353D01*
X164768644Y-120493026D01*
X164818428Y-120466848D01*
X164825443Y-120463648D01*
X164891092Y-120438548D01*
X164954372Y-120426547D01*
X165032900Y-120424137D01*
X165104399Y-120428879D01*
G37*
X162666418Y-122092118D02*
X162664245Y-122154498D01*
X162644455Y-122273794D01*
X162603734Y-122367598D01*
X162541724Y-122436581D01*
X162458066Y-122481412D01*
X162431037Y-122489332D01*
X162334524Y-122500395D01*
X162232615Y-122491059D01*
X162140566Y-122462246D01*
X162108138Y-122445892D01*
X162061643Y-122417878D01*
X162033465Y-122394827D01*
X162029305Y-122389560D01*
X162021522Y-122370299D01*
X162032736Y-122349361D01*
X162066886Y-122317650D01*
X162083367Y-122303845D01*
X162115832Y-122278583D01*
X162132855Y-122268258D01*
X162137732Y-122269321D01*
X162165681Y-122280819D01*
X162207408Y-122301000D01*
X162221013Y-122307638D01*
X162301271Y-122332289D01*
X162370997Y-122325935D01*
X162432140Y-122288467D01*
X162439255Y-122281544D01*
X162473268Y-122238178D01*
X162492702Y-122196559D01*
X162503466Y-122150605D01*
X161998527Y-122150605D01*
X161998620Y-122062875D01*
X161998673Y-122054150D01*
X162005490Y-121983763D01*
X162182343Y-121983763D01*
X162184431Y-121998361D01*
X162195152Y-122008422D01*
X162220707Y-122014006D01*
X162267289Y-122016408D01*
X162341093Y-122016921D01*
X162382124Y-122016389D01*
X162442688Y-122013280D01*
X162484345Y-122008012D01*
X162499843Y-122001298D01*
X162486626Y-121946033D01*
X162447930Y-121894452D01*
X162392121Y-121858666D01*
X162327651Y-121846288D01*
X162280185Y-121860242D01*
X162232738Y-121894353D01*
X162196669Y-121938796D01*
X162182343Y-121983763D01*
X162005490Y-121983763D01*
X162009127Y-121946216D01*
X162039555Y-121858413D01*
X162092649Y-121782723D01*
X162125038Y-121750705D01*
X162191932Y-121707845D01*
X162271807Y-121687078D01*
X162372700Y-121685618D01*
X162421435Y-121691343D01*
X162511396Y-121721071D01*
X162580271Y-121775178D01*
X162628664Y-121854498D01*
X162657179Y-121959866D01*
X162660074Y-122001298D01*
X162666418Y-122092118D01*
G36*
X162666418Y-122092118D02*
G01*
X162664245Y-122154498D01*
X162644455Y-122273794D01*
X162603734Y-122367598D01*
X162541724Y-122436581D01*
X162458066Y-122481412D01*
X162431037Y-122489332D01*
X162334524Y-122500395D01*
X162232615Y-122491059D01*
X162140566Y-122462246D01*
X162108138Y-122445892D01*
X162061643Y-122417878D01*
X162033465Y-122394827D01*
X162029305Y-122389560D01*
X162021522Y-122370299D01*
X162032736Y-122349361D01*
X162066886Y-122317650D01*
X162083367Y-122303845D01*
X162115832Y-122278583D01*
X162132855Y-122268258D01*
X162137732Y-122269321D01*
X162165681Y-122280819D01*
X162207408Y-122301000D01*
X162221013Y-122307638D01*
X162301271Y-122332289D01*
X162370997Y-122325935D01*
X162432140Y-122288467D01*
X162439255Y-122281544D01*
X162473268Y-122238178D01*
X162492702Y-122196559D01*
X162503466Y-122150605D01*
X161998527Y-122150605D01*
X161998620Y-122062875D01*
X161998673Y-122054150D01*
X162005490Y-121983763D01*
X162182343Y-121983763D01*
X162184431Y-121998361D01*
X162195152Y-122008422D01*
X162220707Y-122014006D01*
X162267289Y-122016408D01*
X162341093Y-122016921D01*
X162382124Y-122016389D01*
X162442688Y-122013280D01*
X162484345Y-122008012D01*
X162499843Y-122001298D01*
X162486626Y-121946033D01*
X162447930Y-121894452D01*
X162392121Y-121858666D01*
X162327651Y-121846288D01*
X162280185Y-121860242D01*
X162232738Y-121894353D01*
X162196669Y-121938796D01*
X162182343Y-121983763D01*
X162005490Y-121983763D01*
X162009127Y-121946216D01*
X162039555Y-121858413D01*
X162092649Y-121782723D01*
X162125038Y-121750705D01*
X162191932Y-121707845D01*
X162271807Y-121687078D01*
X162372700Y-121685618D01*
X162421435Y-121691343D01*
X162511396Y-121721071D01*
X162580271Y-121775178D01*
X162628664Y-121854498D01*
X162657179Y-121959866D01*
X162660074Y-122001298D01*
X162666418Y-122092118D01*
G37*
X167241543Y-120730091D02*
X167247389Y-120847138D01*
X167245928Y-120898216D01*
X167229454Y-121009843D01*
X167193151Y-121097856D01*
X167135120Y-121165884D01*
X167053461Y-121217551D01*
X166974246Y-121241670D01*
X166874871Y-121246285D01*
X166774607Y-121228537D01*
X166685172Y-121189327D01*
X166652030Y-121167515D01*
X166615515Y-121139556D01*
X166598853Y-121121158D01*
X166599798Y-121113567D01*
X166618448Y-121087703D01*
X166653498Y-121056367D01*
X166714241Y-121010036D01*
X166785418Y-121045584D01*
X166804665Y-121054383D01*
X166861323Y-121073506D01*
X166908811Y-121081131D01*
X166943828Y-121074848D01*
X166998778Y-121044591D01*
X167044967Y-120997620D01*
X167071387Y-120943270D01*
X167082150Y-120897316D01*
X166577211Y-120897316D01*
X166577304Y-120809585D01*
X166578069Y-120781781D01*
X166583649Y-120722119D01*
X166761027Y-120722119D01*
X166761352Y-120725537D01*
X166770540Y-120736181D01*
X166796504Y-120742720D01*
X166844779Y-120746014D01*
X166920903Y-120746921D01*
X166945923Y-120746910D01*
X167010902Y-120746310D01*
X167049964Y-120743715D01*
X167068903Y-120737662D01*
X167073511Y-120726686D01*
X167069581Y-120709322D01*
X167068981Y-120707353D01*
X167035127Y-120646930D01*
X166981757Y-120605329D01*
X166918115Y-120589842D01*
X166894591Y-120591080D01*
X166850928Y-120605896D01*
X166809041Y-120643579D01*
X166797758Y-120656903D01*
X166771513Y-120694956D01*
X166761027Y-120722119D01*
X166583649Y-120722119D01*
X166584366Y-120714449D01*
X166594926Y-120658734D01*
X166606501Y-120627543D01*
X166647195Y-120559700D01*
X166701695Y-120498086D01*
X166759330Y-120455866D01*
X166775982Y-120448027D01*
X166872945Y-120422021D01*
X166971960Y-120424762D01*
X167065052Y-120455092D01*
X167144244Y-120511848D01*
X167187078Y-120564190D01*
X167222101Y-120637928D01*
X167240825Y-120726686D01*
X167241543Y-120730091D01*
G36*
X167241543Y-120730091D02*
G01*
X167247389Y-120847138D01*
X167245928Y-120898216D01*
X167229454Y-121009843D01*
X167193151Y-121097856D01*
X167135120Y-121165884D01*
X167053461Y-121217551D01*
X166974246Y-121241670D01*
X166874871Y-121246285D01*
X166774607Y-121228537D01*
X166685172Y-121189327D01*
X166652030Y-121167515D01*
X166615515Y-121139556D01*
X166598853Y-121121158D01*
X166599798Y-121113567D01*
X166618448Y-121087703D01*
X166653498Y-121056367D01*
X166714241Y-121010036D01*
X166785418Y-121045584D01*
X166804665Y-121054383D01*
X166861323Y-121073506D01*
X166908811Y-121081131D01*
X166943828Y-121074848D01*
X166998778Y-121044591D01*
X167044967Y-120997620D01*
X167071387Y-120943270D01*
X167082150Y-120897316D01*
X166577211Y-120897316D01*
X166577304Y-120809585D01*
X166578069Y-120781781D01*
X166583649Y-120722119D01*
X166761027Y-120722119D01*
X166761352Y-120725537D01*
X166770540Y-120736181D01*
X166796504Y-120742720D01*
X166844779Y-120746014D01*
X166920903Y-120746921D01*
X166945923Y-120746910D01*
X167010902Y-120746310D01*
X167049964Y-120743715D01*
X167068903Y-120737662D01*
X167073511Y-120726686D01*
X167069581Y-120709322D01*
X167068981Y-120707353D01*
X167035127Y-120646930D01*
X166981757Y-120605329D01*
X166918115Y-120589842D01*
X166894591Y-120591080D01*
X166850928Y-120605896D01*
X166809041Y-120643579D01*
X166797758Y-120656903D01*
X166771513Y-120694956D01*
X166761027Y-120722119D01*
X166583649Y-120722119D01*
X166584366Y-120714449D01*
X166594926Y-120658734D01*
X166606501Y-120627543D01*
X166647195Y-120559700D01*
X166701695Y-120498086D01*
X166759330Y-120455866D01*
X166775982Y-120448027D01*
X166872945Y-120422021D01*
X166971960Y-120424762D01*
X167065052Y-120455092D01*
X167144244Y-120511848D01*
X167187078Y-120564190D01*
X167222101Y-120637928D01*
X167240825Y-120726686D01*
X167241543Y-120730091D01*
G37*
X164028668Y-122281600D02*
X164008509Y-122357464D01*
X163964698Y-122422365D01*
X163898241Y-122469051D01*
X163891719Y-122471889D01*
X163819005Y-122492330D01*
X163737071Y-122500299D01*
X163659172Y-122495427D01*
X163598560Y-122477348D01*
X163574348Y-122465554D01*
X163556580Y-122462741D01*
X163552606Y-122477451D01*
X163545078Y-122491055D01*
X163515953Y-122499156D01*
X163459420Y-122501526D01*
X163366235Y-122501526D01*
X163371690Y-122179849D01*
X163372273Y-122150605D01*
X163552606Y-122150605D01*
X163552606Y-122209092D01*
X163558900Y-122252806D01*
X163586027Y-122301000D01*
X163596040Y-122309858D01*
X163637081Y-122328494D01*
X163698823Y-122333290D01*
X163735871Y-122331417D01*
X163805195Y-122317309D01*
X163848163Y-122291024D01*
X163862655Y-122254344D01*
X163846551Y-122209052D01*
X163837154Y-122197200D01*
X163795187Y-122170613D01*
X163728766Y-122155432D01*
X163634070Y-122150605D01*
X163552606Y-122150605D01*
X163372273Y-122150605D01*
X163373172Y-122105462D01*
X163377076Y-121994099D01*
X163383657Y-121908946D01*
X163394214Y-121845360D01*
X163410048Y-121798699D01*
X163432459Y-121764321D01*
X163462747Y-121737583D01*
X163502213Y-121713844D01*
X163522573Y-121704780D01*
X163593008Y-121687673D01*
X163677959Y-121680600D01*
X163765788Y-121683432D01*
X163844857Y-121696041D01*
X163903527Y-121718297D01*
X163923935Y-121731219D01*
X163970921Y-121769519D01*
X163986824Y-121801589D01*
X163982962Y-121807786D01*
X163958894Y-121829432D01*
X163920039Y-121858308D01*
X163900174Y-121871824D01*
X163866346Y-121890974D01*
X163844363Y-121892803D01*
X163823953Y-121879585D01*
X163773086Y-121852816D01*
X163704640Y-121841808D01*
X163634694Y-121850236D01*
X163633370Y-121850618D01*
X163584036Y-121872052D01*
X163559616Y-121905603D01*
X163552862Y-121961091D01*
X163552606Y-122013879D01*
X163727010Y-122019577D01*
X163754796Y-122020515D01*
X163824848Y-122023775D01*
X163871809Y-122028897D01*
X163903552Y-122037798D01*
X163927948Y-122052397D01*
X163952869Y-122074612D01*
X163994015Y-122125995D01*
X164024171Y-122202026D01*
X164027128Y-122254344D01*
X164028668Y-122281600D01*
G36*
X164028668Y-122281600D02*
G01*
X164008509Y-122357464D01*
X163964698Y-122422365D01*
X163898241Y-122469051D01*
X163891719Y-122471889D01*
X163819005Y-122492330D01*
X163737071Y-122500299D01*
X163659172Y-122495427D01*
X163598560Y-122477348D01*
X163574348Y-122465554D01*
X163556580Y-122462741D01*
X163552606Y-122477451D01*
X163545078Y-122491055D01*
X163515953Y-122499156D01*
X163459420Y-122501526D01*
X163366235Y-122501526D01*
X163371690Y-122179849D01*
X163372273Y-122150605D01*
X163552606Y-122150605D01*
X163552606Y-122209092D01*
X163558900Y-122252806D01*
X163586027Y-122301000D01*
X163596040Y-122309858D01*
X163637081Y-122328494D01*
X163698823Y-122333290D01*
X163735871Y-122331417D01*
X163805195Y-122317309D01*
X163848163Y-122291024D01*
X163862655Y-122254344D01*
X163846551Y-122209052D01*
X163837154Y-122197200D01*
X163795187Y-122170613D01*
X163728766Y-122155432D01*
X163634070Y-122150605D01*
X163552606Y-122150605D01*
X163372273Y-122150605D01*
X163373172Y-122105462D01*
X163377076Y-121994099D01*
X163383657Y-121908946D01*
X163394214Y-121845360D01*
X163410048Y-121798699D01*
X163432459Y-121764321D01*
X163462747Y-121737583D01*
X163502213Y-121713844D01*
X163522573Y-121704780D01*
X163593008Y-121687673D01*
X163677959Y-121680600D01*
X163765788Y-121683432D01*
X163844857Y-121696041D01*
X163903527Y-121718297D01*
X163923935Y-121731219D01*
X163970921Y-121769519D01*
X163986824Y-121801589D01*
X163982962Y-121807786D01*
X163958894Y-121829432D01*
X163920039Y-121858308D01*
X163900174Y-121871824D01*
X163866346Y-121890974D01*
X163844363Y-121892803D01*
X163823953Y-121879585D01*
X163773086Y-121852816D01*
X163704640Y-121841808D01*
X163634694Y-121850236D01*
X163633370Y-121850618D01*
X163584036Y-121872052D01*
X163559616Y-121905603D01*
X163552862Y-121961091D01*
X163552606Y-122013879D01*
X163727010Y-122019577D01*
X163754796Y-122020515D01*
X163824848Y-122023775D01*
X163871809Y-122028897D01*
X163903552Y-122037798D01*
X163927948Y-122052397D01*
X163952869Y-122074612D01*
X163994015Y-122125995D01*
X164024171Y-122202026D01*
X164027128Y-122254344D01*
X164028668Y-122281600D01*
G37*
X167241912Y-122278796D02*
X167241722Y-122281000D01*
X167221360Y-122366846D01*
X167176067Y-122431412D01*
X167103593Y-122477937D01*
X167066140Y-122489256D01*
X167001990Y-122498078D01*
X166931840Y-122500185D01*
X166868548Y-122495330D01*
X166824976Y-122483268D01*
X166798512Y-122473606D01*
X166772601Y-122483268D01*
X166763123Y-122488866D01*
X166725294Y-122497943D01*
X166674132Y-122501526D01*
X166593922Y-122501526D01*
X166593922Y-122178142D01*
X166593928Y-122150605D01*
X166777737Y-122150605D01*
X166777737Y-122214857D01*
X166783915Y-122263753D01*
X166808297Y-122306765D01*
X166822249Y-122316074D01*
X166872051Y-122330583D01*
X166934225Y-122334205D01*
X166995196Y-122326845D01*
X167041388Y-122308408D01*
X167064399Y-122284030D01*
X167078527Y-122240713D01*
X167065998Y-122206376D01*
X167024582Y-122176520D01*
X166958005Y-122157366D01*
X166870182Y-122150605D01*
X166777737Y-122150605D01*
X166593928Y-122150605D01*
X166593928Y-122150176D01*
X166594232Y-122044767D01*
X166595376Y-121966401D01*
X166597877Y-121909871D01*
X166602256Y-121869970D01*
X166609032Y-121841492D01*
X166618725Y-121819230D01*
X166631853Y-121797978D01*
X166674084Y-121748180D01*
X166733930Y-121710160D01*
X166812543Y-121689184D01*
X166916136Y-121682736D01*
X166919503Y-121682743D01*
X166991513Y-121685995D01*
X167055966Y-121694103D01*
X167099952Y-121705470D01*
X167112010Y-121711166D01*
X167150391Y-121735289D01*
X167185124Y-121763960D01*
X167207977Y-121789760D01*
X167210716Y-121805273D01*
X167205370Y-121809465D01*
X167147127Y-121854218D01*
X167108181Y-121880613D01*
X167082431Y-121891262D01*
X167063772Y-121888780D01*
X167046101Y-121875782D01*
X167013490Y-121859556D01*
X166958533Y-121848737D01*
X166896420Y-121845931D01*
X166840217Y-121851642D01*
X166802984Y-121866376D01*
X166801025Y-121868169D01*
X166784294Y-121901850D01*
X166777737Y-121952125D01*
X166777737Y-122016921D01*
X166932310Y-122016983D01*
X167003314Y-122018107D01*
X167063082Y-122022996D01*
X167105837Y-122033055D01*
X167140380Y-122049665D01*
X167148419Y-122054767D01*
X167206576Y-122110847D01*
X167237510Y-122185004D01*
X167240125Y-122240713D01*
X167241912Y-122278796D01*
G36*
X167241912Y-122278796D02*
G01*
X167241722Y-122281000D01*
X167221360Y-122366846D01*
X167176067Y-122431412D01*
X167103593Y-122477937D01*
X167066140Y-122489256D01*
X167001990Y-122498078D01*
X166931840Y-122500185D01*
X166868548Y-122495330D01*
X166824976Y-122483268D01*
X166798512Y-122473606D01*
X166772601Y-122483268D01*
X166763123Y-122488866D01*
X166725294Y-122497943D01*
X166674132Y-122501526D01*
X166593922Y-122501526D01*
X166593922Y-122178142D01*
X166593928Y-122150605D01*
X166777737Y-122150605D01*
X166777737Y-122214857D01*
X166783915Y-122263753D01*
X166808297Y-122306765D01*
X166822249Y-122316074D01*
X166872051Y-122330583D01*
X166934225Y-122334205D01*
X166995196Y-122326845D01*
X167041388Y-122308408D01*
X167064399Y-122284030D01*
X167078527Y-122240713D01*
X167065998Y-122206376D01*
X167024582Y-122176520D01*
X166958005Y-122157366D01*
X166870182Y-122150605D01*
X166777737Y-122150605D01*
X166593928Y-122150605D01*
X166593928Y-122150176D01*
X166594232Y-122044767D01*
X166595376Y-121966401D01*
X166597877Y-121909871D01*
X166602256Y-121869970D01*
X166609032Y-121841492D01*
X166618725Y-121819230D01*
X166631853Y-121797978D01*
X166674084Y-121748180D01*
X166733930Y-121710160D01*
X166812543Y-121689184D01*
X166916136Y-121682736D01*
X166919503Y-121682743D01*
X166991513Y-121685995D01*
X167055966Y-121694103D01*
X167099952Y-121705470D01*
X167112010Y-121711166D01*
X167150391Y-121735289D01*
X167185124Y-121763960D01*
X167207977Y-121789760D01*
X167210716Y-121805273D01*
X167205370Y-121809465D01*
X167147127Y-121854218D01*
X167108181Y-121880613D01*
X167082431Y-121891262D01*
X167063772Y-121888780D01*
X167046101Y-121875782D01*
X167013490Y-121859556D01*
X166958533Y-121848737D01*
X166896420Y-121845931D01*
X166840217Y-121851642D01*
X166802984Y-121866376D01*
X166801025Y-121868169D01*
X166784294Y-121901850D01*
X166777737Y-121952125D01*
X166777737Y-122016921D01*
X166932310Y-122016983D01*
X167003314Y-122018107D01*
X167063082Y-122022996D01*
X167105837Y-122033055D01*
X167140380Y-122049665D01*
X167148419Y-122054767D01*
X167206576Y-122110847D01*
X167237510Y-122185004D01*
X167240125Y-122240713D01*
X167241912Y-122278796D01*
G37*
X167997606Y-122503273D02*
X167909875Y-122498222D01*
X167822145Y-122493171D01*
X167817974Y-122225802D01*
X167816740Y-122160788D01*
X167813237Y-122063111D01*
X167807224Y-121991434D01*
X167797597Y-121940940D01*
X167783249Y-121906810D01*
X167763075Y-121884227D01*
X167735970Y-121868372D01*
X167685112Y-121852180D01*
X167634534Y-121858472D01*
X167581125Y-121893077D01*
X167529711Y-121936339D01*
X167529711Y-122501526D01*
X167345895Y-122501526D01*
X167345895Y-122195010D01*
X167346072Y-122098935D01*
X167347049Y-122013562D01*
X167349399Y-121951071D01*
X167353691Y-121905794D01*
X167360495Y-121872068D01*
X167370378Y-121844227D01*
X167383910Y-121816605D01*
X167387119Y-121810741D01*
X167429792Y-121753627D01*
X167479735Y-121713714D01*
X167539948Y-121692756D01*
X167619680Y-121683427D01*
X167699527Y-121688480D01*
X167764488Y-121708205D01*
X167813790Y-121733700D01*
X167813790Y-121181931D01*
X167746237Y-121217142D01*
X167718019Y-121229934D01*
X167628950Y-121248023D01*
X167540434Y-121235521D01*
X167458381Y-121193952D01*
X167388704Y-121124843D01*
X167377789Y-121108600D01*
X167367298Y-121084790D01*
X167360455Y-121052418D01*
X167356504Y-121005271D01*
X167354688Y-120937135D01*
X167354362Y-120866142D01*
X167530891Y-120866142D01*
X167531040Y-120925431D01*
X167535573Y-120964969D01*
X167545760Y-120993189D01*
X167562872Y-121018519D01*
X167584610Y-121042069D01*
X167619372Y-121059892D01*
X167671750Y-121064421D01*
X167718020Y-121060480D01*
X167763817Y-121040759D01*
X167793312Y-121000809D01*
X167809104Y-120936600D01*
X167813790Y-120844101D01*
X167812578Y-120794894D01*
X167800481Y-120702006D01*
X167775523Y-120639196D01*
X167737844Y-120606906D01*
X167699789Y-120597822D01*
X167633513Y-120602081D01*
X167577516Y-120628452D01*
X167564114Y-120640545D01*
X167549913Y-120661467D01*
X167541133Y-120692611D01*
X167535919Y-120741710D01*
X167532416Y-120816498D01*
X167530891Y-120866142D01*
X167354362Y-120866142D01*
X167354250Y-120841797D01*
X167354400Y-120798296D01*
X167356962Y-120697111D01*
X167364097Y-120621522D01*
X167377606Y-120565817D01*
X167399294Y-120524283D01*
X167430960Y-120491206D01*
X167474408Y-120460874D01*
X167509640Y-120443468D01*
X167593173Y-120424271D01*
X167681222Y-120426887D01*
X167759481Y-120451772D01*
X167793067Y-120468039D01*
X167809960Y-120469720D01*
X167813790Y-120454916D01*
X167813794Y-120454468D01*
X167822048Y-120439351D01*
X167850517Y-120431603D01*
X167905698Y-120429421D01*
X167997606Y-120429421D01*
X167997606Y-120844101D01*
X167997606Y-122503273D01*
G36*
X167997606Y-122503273D02*
G01*
X167909875Y-122498222D01*
X167822145Y-122493171D01*
X167817974Y-122225802D01*
X167816740Y-122160788D01*
X167813237Y-122063111D01*
X167807224Y-121991434D01*
X167797597Y-121940940D01*
X167783249Y-121906810D01*
X167763075Y-121884227D01*
X167735970Y-121868372D01*
X167685112Y-121852180D01*
X167634534Y-121858472D01*
X167581125Y-121893077D01*
X167529711Y-121936339D01*
X167529711Y-122501526D01*
X167345895Y-122501526D01*
X167345895Y-122195010D01*
X167346072Y-122098935D01*
X167347049Y-122013562D01*
X167349399Y-121951071D01*
X167353691Y-121905794D01*
X167360495Y-121872068D01*
X167370378Y-121844227D01*
X167383910Y-121816605D01*
X167387119Y-121810741D01*
X167429792Y-121753627D01*
X167479735Y-121713714D01*
X167539948Y-121692756D01*
X167619680Y-121683427D01*
X167699527Y-121688480D01*
X167764488Y-121708205D01*
X167813790Y-121733700D01*
X167813790Y-121181931D01*
X167746237Y-121217142D01*
X167718019Y-121229934D01*
X167628950Y-121248023D01*
X167540434Y-121235521D01*
X167458381Y-121193952D01*
X167388704Y-121124843D01*
X167377789Y-121108600D01*
X167367298Y-121084790D01*
X167360455Y-121052418D01*
X167356504Y-121005271D01*
X167354688Y-120937135D01*
X167354362Y-120866142D01*
X167530891Y-120866142D01*
X167531040Y-120925431D01*
X167535573Y-120964969D01*
X167545760Y-120993189D01*
X167562872Y-121018519D01*
X167584610Y-121042069D01*
X167619372Y-121059892D01*
X167671750Y-121064421D01*
X167718020Y-121060480D01*
X167763817Y-121040759D01*
X167793312Y-121000809D01*
X167809104Y-120936600D01*
X167813790Y-120844101D01*
X167812578Y-120794894D01*
X167800481Y-120702006D01*
X167775523Y-120639196D01*
X167737844Y-120606906D01*
X167699789Y-120597822D01*
X167633513Y-120602081D01*
X167577516Y-120628452D01*
X167564114Y-120640545D01*
X167549913Y-120661467D01*
X167541133Y-120692611D01*
X167535919Y-120741710D01*
X167532416Y-120816498D01*
X167530891Y-120866142D01*
X167354362Y-120866142D01*
X167354250Y-120841797D01*
X167354400Y-120798296D01*
X167356962Y-120697111D01*
X167364097Y-120621522D01*
X167377606Y-120565817D01*
X167399294Y-120524283D01*
X167430960Y-120491206D01*
X167474408Y-120460874D01*
X167509640Y-120443468D01*
X167593173Y-120424271D01*
X167681222Y-120426887D01*
X167759481Y-120451772D01*
X167793067Y-120468039D01*
X167809960Y-120469720D01*
X167813790Y-120454916D01*
X167813794Y-120454468D01*
X167822048Y-120439351D01*
X167850517Y-120431603D01*
X167905698Y-120429421D01*
X167997606Y-120429421D01*
X167997606Y-120844101D01*
X167997606Y-122503273D01*
G37*
X165457254Y-114889576D02*
X165532803Y-115290322D01*
X165811567Y-115405238D01*
X166090332Y-115520154D01*
X166424756Y-115292748D01*
X166490946Y-115247917D01*
X166578693Y-115189071D01*
X166654663Y-115138810D01*
X166714911Y-115099715D01*
X166755491Y-115074365D01*
X166772457Y-115065342D01*
X166782877Y-115071759D01*
X166814025Y-115098647D01*
X166861161Y-115142774D01*
X166920293Y-115200087D01*
X166987426Y-115266535D01*
X167058566Y-115338065D01*
X167129719Y-115410626D01*
X167196892Y-115480167D01*
X167256090Y-115542635D01*
X167303319Y-115593978D01*
X167334586Y-115630145D01*
X167345895Y-115647083D01*
X167343264Y-115654361D01*
X167325048Y-115686824D01*
X167291782Y-115740249D01*
X167246164Y-115810449D01*
X167190890Y-115893236D01*
X167128658Y-115984421D01*
X167094506Y-116034152D01*
X167035757Y-116120731D01*
X166985388Y-116196291D01*
X166946086Y-116256733D01*
X166920535Y-116297961D01*
X166911422Y-116315876D01*
X166911571Y-116316869D01*
X166919611Y-116339580D01*
X166938054Y-116385955D01*
X166964331Y-116449937D01*
X166995871Y-116525468D01*
X167030102Y-116606489D01*
X167064454Y-116686943D01*
X167096355Y-116760772D01*
X167123235Y-116821918D01*
X167142522Y-116864322D01*
X167151646Y-116881926D01*
X167157045Y-116883488D01*
X167189846Y-116890531D01*
X167248306Y-116902199D01*
X167327746Y-116917580D01*
X167423486Y-116935760D01*
X167530846Y-116955830D01*
X167587431Y-116966471D01*
X167691289Y-116986773D01*
X167782097Y-117005522D01*
X167854891Y-117021642D01*
X167904708Y-117034056D01*
X167926586Y-117041686D01*
X167930516Y-117049250D01*
X167937034Y-117086209D01*
X167942156Y-117147765D01*
X167945884Y-117228127D01*
X167948223Y-117321503D01*
X167949177Y-117422101D01*
X167948749Y-117524128D01*
X167946945Y-117621793D01*
X167943766Y-117709304D01*
X167939219Y-117780869D01*
X167933306Y-117830696D01*
X167926031Y-117852993D01*
X167921617Y-117855508D01*
X167888694Y-117866296D01*
X167831582Y-117880569D01*
X167756882Y-117896764D01*
X167671196Y-117913319D01*
X167642285Y-117918592D01*
X167508755Y-117943113D01*
X167403813Y-117962821D01*
X167323820Y-117978531D01*
X167265139Y-117991062D01*
X167224132Y-118001229D01*
X167197161Y-118009851D01*
X167180588Y-118017745D01*
X167170775Y-118025727D01*
X167169635Y-118027067D01*
X167153588Y-118054997D01*
X167129843Y-118106104D01*
X167100701Y-118174392D01*
X167068463Y-118253866D01*
X167035430Y-118338529D01*
X167003904Y-118422387D01*
X166976186Y-118499444D01*
X166954577Y-118563704D01*
X166941379Y-118609172D01*
X166938893Y-118629852D01*
X166940555Y-118632535D01*
X166957765Y-118658484D01*
X166990130Y-118706345D01*
X167034650Y-118771710D01*
X167088323Y-118850170D01*
X167148149Y-118937315D01*
X167164567Y-118961292D01*
X167222303Y-119047295D01*
X167272200Y-119124211D01*
X167311409Y-119187477D01*
X167337083Y-119232532D01*
X167346374Y-119254815D01*
X167344372Y-119260673D01*
X167323503Y-119289541D01*
X167282331Y-119336680D01*
X167223803Y-119398920D01*
X167150867Y-119473087D01*
X167066473Y-119556008D01*
X167018234Y-119602421D01*
X166941962Y-119674708D01*
X166875205Y-119736624D01*
X166821546Y-119784911D01*
X166784570Y-119816307D01*
X166767863Y-119827554D01*
X166756385Y-119823384D01*
X166721045Y-119803663D01*
X166669723Y-119771410D01*
X166609113Y-119730711D01*
X166566020Y-119701011D01*
X166479987Y-119642030D01*
X166388179Y-119579390D01*
X166304323Y-119522469D01*
X166140053Y-119411359D01*
X166002160Y-119485916D01*
X165969690Y-119503125D01*
X165910642Y-119532560D01*
X165864979Y-119552883D01*
X165840574Y-119560460D01*
X165832588Y-119550730D01*
X165812756Y-119513679D01*
X165783462Y-119452593D01*
X165746338Y-119371349D01*
X165703013Y-119273823D01*
X165655118Y-119163891D01*
X165604281Y-119045432D01*
X165552133Y-118922321D01*
X165500304Y-118798435D01*
X165450424Y-118677650D01*
X165404123Y-118563844D01*
X165363031Y-118460893D01*
X165328778Y-118372673D01*
X165302993Y-118303062D01*
X165287308Y-118255936D01*
X165283351Y-118235172D01*
X165283619Y-118234565D01*
X165302050Y-118215370D01*
X165340602Y-118185306D01*
X165391316Y-118150609D01*
X165407324Y-118140014D01*
X165529125Y-118039498D01*
X165629929Y-117919777D01*
X165707351Y-117785834D01*
X165759004Y-117642653D01*
X165782500Y-117495216D01*
X165775454Y-117348507D01*
X165746910Y-117218020D01*
X165695659Y-117086257D01*
X165620945Y-116968706D01*
X165518414Y-116857042D01*
X165478127Y-116821369D01*
X165347889Y-116733480D01*
X165207197Y-116674288D01*
X165060127Y-116643265D01*
X164910758Y-116639879D01*
X164763167Y-116663602D01*
X164621429Y-116713904D01*
X164489623Y-116790255D01*
X164371826Y-116892125D01*
X164272114Y-117018984D01*
X164252943Y-117050400D01*
X164187783Y-117193992D01*
X164153177Y-117343517D01*
X164148218Y-117495105D01*
X164172001Y-117644882D01*
X164223619Y-117788976D01*
X164302166Y-117923515D01*
X164406736Y-118044625D01*
X164536422Y-118148434D01*
X164540634Y-118151232D01*
X164590810Y-118186590D01*
X164628417Y-118216653D01*
X164645594Y-118235172D01*
X164643426Y-118249690D01*
X164629951Y-118291965D01*
X164606058Y-118357486D01*
X164573375Y-118442377D01*
X164533533Y-118542759D01*
X164488160Y-118654757D01*
X164438887Y-118774491D01*
X164387341Y-118898084D01*
X164335154Y-119021659D01*
X164283953Y-119141339D01*
X164235368Y-119253245D01*
X164191030Y-119353500D01*
X164152566Y-119438227D01*
X164121606Y-119503547D01*
X164099779Y-119545584D01*
X164088716Y-119560460D01*
X164079516Y-119558446D01*
X164043371Y-119543966D01*
X163989951Y-119518578D01*
X163927131Y-119485916D01*
X163789238Y-119411359D01*
X163624968Y-119522469D01*
X163576436Y-119555370D01*
X163486166Y-119616845D01*
X163396171Y-119678418D01*
X163320177Y-119730711D01*
X163278237Y-119759209D01*
X163223726Y-119794616D01*
X163183309Y-119818855D01*
X163163568Y-119827842D01*
X163155087Y-119824026D01*
X163124429Y-119800656D01*
X163077168Y-119759510D01*
X163017416Y-119704635D01*
X162949288Y-119640077D01*
X162876896Y-119569885D01*
X162804356Y-119498106D01*
X162735780Y-119428786D01*
X162675282Y-119365973D01*
X162626976Y-119313714D01*
X162594976Y-119276057D01*
X162583395Y-119257048D01*
X162584063Y-119253431D01*
X162597847Y-119223993D01*
X162627292Y-119173062D01*
X162669553Y-119105238D01*
X162721785Y-119025123D01*
X162781142Y-118937315D01*
X162797789Y-118913096D01*
X162856244Y-118827868D01*
X162907733Y-118752521D01*
X162949256Y-118691463D01*
X162977811Y-118649104D01*
X162990398Y-118629852D01*
X162990707Y-118629027D01*
X162986993Y-118605473D01*
X162972807Y-118557759D01*
X162950451Y-118491879D01*
X162922227Y-118413830D01*
X162890435Y-118329607D01*
X162857378Y-118245205D01*
X162825356Y-118166621D01*
X162796671Y-118099850D01*
X162773623Y-118050886D01*
X162758515Y-118025727D01*
X162757002Y-118024165D01*
X162746185Y-118016263D01*
X162727915Y-118008294D01*
X162698556Y-117999441D01*
X162654470Y-117988887D01*
X162592018Y-117975815D01*
X162507564Y-117959408D01*
X162397469Y-117938848D01*
X162258095Y-117913319D01*
X162229187Y-117907946D01*
X162146377Y-117891337D01*
X162076718Y-117875600D01*
X162026812Y-117862298D01*
X162003259Y-117852993D01*
X161999319Y-117845230D01*
X161992750Y-117807942D01*
X161987544Y-117746125D01*
X161983706Y-117665572D01*
X161981239Y-117572075D01*
X161980147Y-117471426D01*
X161980435Y-117369417D01*
X161982107Y-117271839D01*
X161985165Y-117184485D01*
X161989615Y-117113147D01*
X161995460Y-117063617D01*
X162002704Y-117041686D01*
X162010101Y-117038446D01*
X162046896Y-117028233D01*
X162109091Y-117013789D01*
X162191723Y-116996189D01*
X162289828Y-116976510D01*
X162398444Y-116955830D01*
X162457750Y-116944781D01*
X162559398Y-116925621D01*
X162646890Y-116908844D01*
X162715549Y-116895361D01*
X162760693Y-116886084D01*
X162777644Y-116881926D01*
X162778281Y-116881069D01*
X162789077Y-116859293D01*
X162809657Y-116813671D01*
X162837449Y-116750258D01*
X162869882Y-116675107D01*
X162904382Y-116594270D01*
X162938378Y-116513799D01*
X162969297Y-116439749D01*
X162994566Y-116378172D01*
X163011615Y-116335121D01*
X163017869Y-116316650D01*
X163015110Y-116310150D01*
X162996750Y-116279222D01*
X162963446Y-116227163D01*
X162917874Y-116158059D01*
X162862711Y-116075993D01*
X162800632Y-115985052D01*
X162766573Y-115935248D01*
X162707797Y-115847931D01*
X162657403Y-115771298D01*
X162618080Y-115709531D01*
X162592514Y-115666806D01*
X162583395Y-115647305D01*
X162589732Y-115636727D01*
X162616237Y-115605119D01*
X162659720Y-115557283D01*
X162716189Y-115497273D01*
X162781653Y-115429142D01*
X162852121Y-115356945D01*
X162923601Y-115284733D01*
X162992100Y-115216562D01*
X163053629Y-115156483D01*
X163104194Y-115108551D01*
X163139805Y-115076820D01*
X163156470Y-115065342D01*
X163165720Y-115069805D01*
X163199689Y-115090502D01*
X163254505Y-115125727D01*
X163326218Y-115172896D01*
X163410878Y-115229431D01*
X163504535Y-115292748D01*
X163838959Y-115520154D01*
X164396487Y-115290322D01*
X164472036Y-114889576D01*
X164547585Y-114488829D01*
X165381706Y-114488829D01*
X165457254Y-114889576D01*
G36*
X165457254Y-114889576D02*
G01*
X165532803Y-115290322D01*
X165811567Y-115405238D01*
X166090332Y-115520154D01*
X166424756Y-115292748D01*
X166490946Y-115247917D01*
X166578693Y-115189071D01*
X166654663Y-115138810D01*
X166714911Y-115099715D01*
X166755491Y-115074365D01*
X166772457Y-115065342D01*
X166782877Y-115071759D01*
X166814025Y-115098647D01*
X166861161Y-115142774D01*
X166920293Y-115200087D01*
X166987426Y-115266535D01*
X167058566Y-115338065D01*
X167129719Y-115410626D01*
X167196892Y-115480167D01*
X167256090Y-115542635D01*
X167303319Y-115593978D01*
X167334586Y-115630145D01*
X167345895Y-115647083D01*
X167343264Y-115654361D01*
X167325048Y-115686824D01*
X167291782Y-115740249D01*
X167246164Y-115810449D01*
X167190890Y-115893236D01*
X167128658Y-115984421D01*
X167094506Y-116034152D01*
X167035757Y-116120731D01*
X166985388Y-116196291D01*
X166946086Y-116256733D01*
X166920535Y-116297961D01*
X166911422Y-116315876D01*
X166911571Y-116316869D01*
X166919611Y-116339580D01*
X166938054Y-116385955D01*
X166964331Y-116449937D01*
X166995871Y-116525468D01*
X167030102Y-116606489D01*
X167064454Y-116686943D01*
X167096355Y-116760772D01*
X167123235Y-116821918D01*
X167142522Y-116864322D01*
X167151646Y-116881926D01*
X167157045Y-116883488D01*
X167189846Y-116890531D01*
X167248306Y-116902199D01*
X167327746Y-116917580D01*
X167423486Y-116935760D01*
X167530846Y-116955830D01*
X167587431Y-116966471D01*
X167691289Y-116986773D01*
X167782097Y-117005522D01*
X167854891Y-117021642D01*
X167904708Y-117034056D01*
X167926586Y-117041686D01*
X167930516Y-117049250D01*
X167937034Y-117086209D01*
X167942156Y-117147765D01*
X167945884Y-117228127D01*
X167948223Y-117321503D01*
X167949177Y-117422101D01*
X167948749Y-117524128D01*
X167946945Y-117621793D01*
X167943766Y-117709304D01*
X167939219Y-117780869D01*
X167933306Y-117830696D01*
X167926031Y-117852993D01*
X167921617Y-117855508D01*
X167888694Y-117866296D01*
X167831582Y-117880569D01*
X167756882Y-117896764D01*
X167671196Y-117913319D01*
X167642285Y-117918592D01*
X167508755Y-117943113D01*
X167403813Y-117962821D01*
X167323820Y-117978531D01*
X167265139Y-117991062D01*
X167224132Y-118001229D01*
X167197161Y-118009851D01*
X167180588Y-118017745D01*
X167170775Y-118025727D01*
X167169635Y-118027067D01*
X167153588Y-118054997D01*
X167129843Y-118106104D01*
X167100701Y-118174392D01*
X167068463Y-118253866D01*
X167035430Y-118338529D01*
X167003904Y-118422387D01*
X166976186Y-118499444D01*
X166954577Y-118563704D01*
X166941379Y-118609172D01*
X166938893Y-118629852D01*
X166940555Y-118632535D01*
X166957765Y-118658484D01*
X166990130Y-118706345D01*
X167034650Y-118771710D01*
X167088323Y-118850170D01*
X167148149Y-118937315D01*
X167164567Y-118961292D01*
X167222303Y-119047295D01*
X167272200Y-119124211D01*
X167311409Y-119187477D01*
X167337083Y-119232532D01*
X167346374Y-119254815D01*
X167344372Y-119260673D01*
X167323503Y-119289541D01*
X167282331Y-119336680D01*
X167223803Y-119398920D01*
X167150867Y-119473087D01*
X167066473Y-119556008D01*
X167018234Y-119602421D01*
X166941962Y-119674708D01*
X166875205Y-119736624D01*
X166821546Y-119784911D01*
X166784570Y-119816307D01*
X166767863Y-119827554D01*
X166756385Y-119823384D01*
X166721045Y-119803663D01*
X166669723Y-119771410D01*
X166609113Y-119730711D01*
X166566020Y-119701011D01*
X166479987Y-119642030D01*
X166388179Y-119579390D01*
X166304323Y-119522469D01*
X166140053Y-119411359D01*
X166002160Y-119485916D01*
X165969690Y-119503125D01*
X165910642Y-119532560D01*
X165864979Y-119552883D01*
X165840574Y-119560460D01*
X165832588Y-119550730D01*
X165812756Y-119513679D01*
X165783462Y-119452593D01*
X165746338Y-119371349D01*
X165703013Y-119273823D01*
X165655118Y-119163891D01*
X165604281Y-119045432D01*
X165552133Y-118922321D01*
X165500304Y-118798435D01*
X165450424Y-118677650D01*
X165404123Y-118563844D01*
X165363031Y-118460893D01*
X165328778Y-118372673D01*
X165302993Y-118303062D01*
X165287308Y-118255936D01*
X165283351Y-118235172D01*
X165283619Y-118234565D01*
X165302050Y-118215370D01*
X165340602Y-118185306D01*
X165391316Y-118150609D01*
X165407324Y-118140014D01*
X165529125Y-118039498D01*
X165629929Y-117919777D01*
X165707351Y-117785834D01*
X165759004Y-117642653D01*
X165782500Y-117495216D01*
X165775454Y-117348507D01*
X165746910Y-117218020D01*
X165695659Y-117086257D01*
X165620945Y-116968706D01*
X165518414Y-116857042D01*
X165478127Y-116821369D01*
X165347889Y-116733480D01*
X165207197Y-116674288D01*
X165060127Y-116643265D01*
X164910758Y-116639879D01*
X164763167Y-116663602D01*
X164621429Y-116713904D01*
X164489623Y-116790255D01*
X164371826Y-116892125D01*
X164272114Y-117018984D01*
X164252943Y-117050400D01*
X164187783Y-117193992D01*
X164153177Y-117343517D01*
X164148218Y-117495105D01*
X164172001Y-117644882D01*
X164223619Y-117788976D01*
X164302166Y-117923515D01*
X164406736Y-118044625D01*
X164536422Y-118148434D01*
X164540634Y-118151232D01*
X164590810Y-118186590D01*
X164628417Y-118216653D01*
X164645594Y-118235172D01*
X164643426Y-118249690D01*
X164629951Y-118291965D01*
X164606058Y-118357486D01*
X164573375Y-118442377D01*
X164533533Y-118542759D01*
X164488160Y-118654757D01*
X164438887Y-118774491D01*
X164387341Y-118898084D01*
X164335154Y-119021659D01*
X164283953Y-119141339D01*
X164235368Y-119253245D01*
X164191030Y-119353500D01*
X164152566Y-119438227D01*
X164121606Y-119503547D01*
X164099779Y-119545584D01*
X164088716Y-119560460D01*
X164079516Y-119558446D01*
X164043371Y-119543966D01*
X163989951Y-119518578D01*
X163927131Y-119485916D01*
X163789238Y-119411359D01*
X163624968Y-119522469D01*
X163576436Y-119555370D01*
X163486166Y-119616845D01*
X163396171Y-119678418D01*
X163320177Y-119730711D01*
X163278237Y-119759209D01*
X163223726Y-119794616D01*
X163183309Y-119818855D01*
X163163568Y-119827842D01*
X163155087Y-119824026D01*
X163124429Y-119800656D01*
X163077168Y-119759510D01*
X163017416Y-119704635D01*
X162949288Y-119640077D01*
X162876896Y-119569885D01*
X162804356Y-119498106D01*
X162735780Y-119428786D01*
X162675282Y-119365973D01*
X162626976Y-119313714D01*
X162594976Y-119276057D01*
X162583395Y-119257048D01*
X162584063Y-119253431D01*
X162597847Y-119223993D01*
X162627292Y-119173062D01*
X162669553Y-119105238D01*
X162721785Y-119025123D01*
X162781142Y-118937315D01*
X162797789Y-118913096D01*
X162856244Y-118827868D01*
X162907733Y-118752521D01*
X162949256Y-118691463D01*
X162977811Y-118649104D01*
X162990398Y-118629852D01*
X162990707Y-118629027D01*
X162986993Y-118605473D01*
X162972807Y-118557759D01*
X162950451Y-118491879D01*
X162922227Y-118413830D01*
X162890435Y-118329607D01*
X162857378Y-118245205D01*
X162825356Y-118166621D01*
X162796671Y-118099850D01*
X162773623Y-118050886D01*
X162758515Y-118025727D01*
X162757002Y-118024165D01*
X162746185Y-118016263D01*
X162727915Y-118008294D01*
X162698556Y-117999441D01*
X162654470Y-117988887D01*
X162592018Y-117975815D01*
X162507564Y-117959408D01*
X162397469Y-117938848D01*
X162258095Y-117913319D01*
X162229187Y-117907946D01*
X162146377Y-117891337D01*
X162076718Y-117875600D01*
X162026812Y-117862298D01*
X162003259Y-117852993D01*
X161999319Y-117845230D01*
X161992750Y-117807942D01*
X161987544Y-117746125D01*
X161983706Y-117665572D01*
X161981239Y-117572075D01*
X161980147Y-117471426D01*
X161980435Y-117369417D01*
X161982107Y-117271839D01*
X161985165Y-117184485D01*
X161989615Y-117113147D01*
X161995460Y-117063617D01*
X162002704Y-117041686D01*
X162010101Y-117038446D01*
X162046896Y-117028233D01*
X162109091Y-117013789D01*
X162191723Y-116996189D01*
X162289828Y-116976510D01*
X162398444Y-116955830D01*
X162457750Y-116944781D01*
X162559398Y-116925621D01*
X162646890Y-116908844D01*
X162715549Y-116895361D01*
X162760693Y-116886084D01*
X162777644Y-116881926D01*
X162778281Y-116881069D01*
X162789077Y-116859293D01*
X162809657Y-116813671D01*
X162837449Y-116750258D01*
X162869882Y-116675107D01*
X162904382Y-116594270D01*
X162938378Y-116513799D01*
X162969297Y-116439749D01*
X162994566Y-116378172D01*
X163011615Y-116335121D01*
X163017869Y-116316650D01*
X163015110Y-116310150D01*
X162996750Y-116279222D01*
X162963446Y-116227163D01*
X162917874Y-116158059D01*
X162862711Y-116075993D01*
X162800632Y-115985052D01*
X162766573Y-115935248D01*
X162707797Y-115847931D01*
X162657403Y-115771298D01*
X162618080Y-115709531D01*
X162592514Y-115666806D01*
X162583395Y-115647305D01*
X162589732Y-115636727D01*
X162616237Y-115605119D01*
X162659720Y-115557283D01*
X162716189Y-115497273D01*
X162781653Y-115429142D01*
X162852121Y-115356945D01*
X162923601Y-115284733D01*
X162992100Y-115216562D01*
X163053629Y-115156483D01*
X163104194Y-115108551D01*
X163139805Y-115076820D01*
X163156470Y-115065342D01*
X163165720Y-115069805D01*
X163199689Y-115090502D01*
X163254505Y-115125727D01*
X163326218Y-115172896D01*
X163410878Y-115229431D01*
X163504535Y-115292748D01*
X163838959Y-115520154D01*
X164396487Y-115290322D01*
X164472036Y-114889576D01*
X164547585Y-114488829D01*
X165381706Y-114488829D01*
X165457254Y-114889576D01*
G37*
%TD*%
%LPC*%
D11*
%TO.C,J101*%
X157000000Y-114500000D03*
D12*
X157000000Y-118000000D03*
X157000000Y-121500000D03*
X157000000Y-125000000D03*
%TD*%
D13*
%TO.C,J103*%
X159500000Y-130400000D03*
X159500000Y-132900000D03*
X163000000Y-130400000D03*
X163000000Y-132900000D03*
X166500000Y-130400000D03*
X166500000Y-132900000D03*
X170000000Y-130400000D03*
X170000000Y-132900000D03*
%TD*%
%TO.C,J104*%
X174500000Y-125000000D03*
X177000000Y-125000000D03*
X174500000Y-121500000D03*
X177000000Y-121500000D03*
X174500000Y-118000000D03*
X177000000Y-118000000D03*
X174500000Y-114500000D03*
X177000000Y-114500000D03*
%TD*%
D14*
%TO.C,REF\u002A\u002A*%
X152500000Y-104000000D03*
%TD*%
%TO.C,REF\u002A\u002A*%
X177000000Y-104000000D03*
%TD*%
D15*
%TO.C,J102*%
X170000000Y-108500000D03*
D16*
X166500000Y-108500000D03*
X163000000Y-108500000D03*
X159500000Y-108500000D03*
%TD*%
%LPD*%
M02*
