M48
; DRILL file {KiCad 8.0.2} date 2025-01-19T23:34:00+0100
; FORMAT={-:-/ absolute / inch / decimal}
; #@! TF.CreationDate,2025-01-19T23:34:00+01:00
; #@! TF.GenerationSoftware,Kicad,Pcbnew,8.0.2
; #@! TF.FileFunction,Plated,1,2,PTH
FMAT,2
INCH
; #@! TA.AperFunction,Plated,PTH,ViaDrill
T1C0.0118
; #@! TA.AperFunction,Plated,PTH,ComponentDrill
T2C0.0315
; #@! TA.AperFunction,Plated,PTH,ComponentDrill
T3C0.0394
; #@! TA.AperFunction,Plated,PTH,ComponentDrill
T4C0.0472
%
G90
G05
T1
X5.135Y-3.42
X5.415Y-3.67
X5.67Y-3.25
X5.685Y-3.785
X5.83Y-3.245
X5.835Y-3.545
X5.855Y-3.72
X5.875Y-3.02
T2
X5.1484Y-3.135
X5.1484Y-3.845
X5.2484Y-3.135
X5.2484Y-3.845
X5.3484Y-3.135
X5.3484Y-3.845
X5.4484Y-3.135
X5.4484Y-3.845
X5.5484Y-3.135
X5.5484Y-3.845
X5.6484Y-3.135
X5.6484Y-3.845
X5.7484Y-3.135
X5.7484Y-3.845
X5.8484Y-3.135
X5.8484Y-3.845
T3
X5.5512Y-3.3358
X5.5512Y-3.4358
X5.5512Y-3.5358
X5.5512Y-3.6358
X5.7934Y-3.01
T4
X4.9889Y-3.4083
X4.9889Y-3.5461
M30
