%TF.GenerationSoftware,KiCad,Pcbnew,8.0.2*%
%TF.CreationDate,2024-12-05T22:40:52+01:00*%
%TF.ProjectId,programmerUnoHat,70726f67-7261-46d6-9d65-72556e6f4861,rev?*%
%TF.SameCoordinates,Original*%
%TF.FileFunction,Copper,L2,Bot*%
%TF.FilePolarity,Positive*%
%FSLAX46Y46*%
G04 Gerber Fmt 4.6, Leading zero omitted, Abs format (unit mm)*
G04 Created by KiCad (PCBNEW 8.0.2) date 2024-12-05 22:40:52*
%MOMM*%
%LPD*%
G01*
G04 APERTURE LIST*
%TA.AperFunction,ComponentPad*%
%ADD10R,1.600000X1.600000*%
%TD*%
%TA.AperFunction,ComponentPad*%
%ADD11O,1.600000X1.600000*%
%TD*%
%TA.AperFunction,ComponentPad*%
%ADD12R,1.000000X1.000000*%
%TD*%
%TA.AperFunction,ComponentPad*%
%ADD13O,1.000000X1.000000*%
%TD*%
%TA.AperFunction,ComponentPad*%
%ADD14C,1.600000*%
%TD*%
%TA.AperFunction,ComponentPad*%
%ADD15R,1.700000X1.700000*%
%TD*%
%TA.AperFunction,ComponentPad*%
%ADD16O,1.700000X1.700000*%
%TD*%
%TA.AperFunction,ViaPad*%
%ADD17C,0.600000*%
%TD*%
%TA.AperFunction,Conductor*%
%ADD18C,0.200000*%
%TD*%
G04 APERTURE END LIST*
D10*
%TO.P,A101,1,D1/TX*%
%TO.N,unconnected-(A101-D1{slash}TX-Pad1)*%
X121610000Y-106050000D03*
D11*
%TO.P,A101,2,D0/RX*%
%TO.N,unconnected-(A101-D0{slash}RX-Pad2)*%
X121610000Y-103510000D03*
%TO.P,A101,3,~{RESET}*%
%TO.N,/RESET*%
X121610000Y-100970000D03*
%TO.P,A101,4,GND*%
%TO.N,GND*%
X121610000Y-98430000D03*
%TO.P,A101,5,D2*%
%TO.N,unconnected-(A101-D2-Pad5)*%
X121610000Y-95890000D03*
%TO.P,A101,6,D3*%
%TO.N,unconnected-(A101-D3-Pad6)*%
X121610000Y-93350000D03*
%TO.P,A101,7,D4*%
%TO.N,unconnected-(A101-D4-Pad7)*%
X121610000Y-90810000D03*
%TO.P,A101,8,D5*%
%TO.N,unconnected-(A101-D5-Pad8)*%
X121610000Y-88270000D03*
%TO.P,A101,9,D6*%
%TO.N,unconnected-(A101-D6-Pad9)*%
X121610000Y-85730000D03*
%TO.P,A101,10,D7*%
%TO.N,unconnected-(A101-D7-Pad10)*%
X121610000Y-83190000D03*
%TO.P,A101,11,D8*%
%TO.N,unconnected-(A101-D8-Pad11)*%
X121610000Y-80650000D03*
%TO.P,A101,12,D9*%
%TO.N,unconnected-(A101-D9-Pad12)*%
X121610000Y-78110000D03*
%TO.P,A101,13,D10*%
%TO.N,/RESET_SLAVE*%
X121610000Y-75570000D03*
%TO.P,A101,14,D11*%
%TO.N,/MOSI*%
X121610000Y-73030000D03*
%TO.P,A101,15,D12*%
%TO.N,/MISO*%
X121610000Y-70490000D03*
%TO.P,A101,16,D13*%
%TO.N,/SCK*%
X106370000Y-70490000D03*
%TO.P,A101,17,3V3*%
%TO.N,unconnected-(A101-3V3-Pad17)*%
X106370000Y-73030000D03*
%TO.P,A101,18,AREF*%
%TO.N,unconnected-(A101-AREF-Pad18)*%
X106370000Y-75570000D03*
%TO.P,A101,19,A0*%
%TO.N,unconnected-(A101-A0-Pad19)*%
X106370000Y-78110000D03*
%TO.P,A101,20,A1*%
%TO.N,unconnected-(A101-A1-Pad20)*%
X106370000Y-80650000D03*
%TO.P,A101,21,A2*%
%TO.N,unconnected-(A101-A2-Pad21)*%
X106370000Y-83190000D03*
%TO.P,A101,22,A3*%
%TO.N,unconnected-(A101-A3-Pad22)*%
X106370000Y-85730000D03*
%TO.P,A101,23,A4*%
%TO.N,unconnected-(A101-A4-Pad23)*%
X106370000Y-88270000D03*
%TO.P,A101,24,A5*%
%TO.N,unconnected-(A101-A5-Pad24)*%
X106370000Y-90810000D03*
%TO.P,A101,25,A6*%
%TO.N,unconnected-(A101-A6-Pad25)*%
X106370000Y-93350000D03*
%TO.P,A101,26,A7*%
%TO.N,unconnected-(A101-A7-Pad26)*%
X106370000Y-95890000D03*
%TO.P,A101,27,+5V*%
%TO.N,+5V*%
X106370000Y-98430000D03*
%TO.P,A101,28,~{RESET}*%
%TO.N,/RESET*%
X106370000Y-100970000D03*
%TO.P,A101,29,GND*%
%TO.N,GND*%
X106370000Y-103510000D03*
%TO.P,A101,30,VIN*%
%TO.N,unconnected-(A101-VIN-Pad30)*%
X106370000Y-106050000D03*
%TD*%
D12*
%TO.P,U101,1*%
%TO.N,GND*%
X115000000Y-66000000D03*
D13*
%TO.P,U101,2*%
%TO.N,/RESET_SLAVE*%
X115000000Y-64730000D03*
%TO.P,U101,3*%
%TO.N,/MOSI*%
X113730000Y-66000000D03*
%TO.P,U101,4*%
%TO.N,/SCK*%
X113730000Y-64730000D03*
%TO.P,U101,5*%
%TO.N,+5V*%
X112460000Y-66000000D03*
%TO.P,U101,6*%
%TO.N,/MISO*%
X112460000Y-64730000D03*
%TD*%
D10*
%TO.P,C101,1*%
%TO.N,/RESET*%
X114500000Y-100500000D03*
D14*
%TO.P,C101,2*%
%TO.N,GND*%
X114500000Y-98000000D03*
%TD*%
D15*
%TO.P,J101,1,Pin_1*%
%TO.N,GND*%
X107500000Y-117500000D03*
D16*
%TO.P,J101,2,Pin_2*%
%TO.N,+5V*%
X110040000Y-117500000D03*
%TO.P,J101,3,Pin_3*%
%TO.N,/SCK*%
X112580000Y-117500000D03*
%TO.P,J101,4,Pin_4*%
%TO.N,/MISO*%
X115120000Y-117500000D03*
%TO.P,J101,5,Pin_5*%
%TO.N,/MOSI*%
X117660000Y-117500000D03*
%TO.P,J101,6,Pin_6*%
%TO.N,/RESET_SLAVE*%
X120200000Y-117500000D03*
%TD*%
D17*
%TO.N,/RESET_SLAVE*%
X117571000Y-101855000D03*
X117351064Y-99892362D03*
X119000000Y-71000000D03*
%TO.N,/SCK*%
X111221000Y-100370000D03*
X111000000Y-64000000D03*
X111221000Y-101728000D03*
%TO.N,/MISO*%
X116000000Y-101570000D03*
X116000000Y-100000000D03*
%TO.N,+5V*%
X111114265Y-74385735D03*
X110621000Y-75734265D03*
%TO.N,/MOSI*%
X116600000Y-102368018D03*
X116709296Y-100370000D03*
X119625735Y-71625735D03*
%TD*%
D18*
%TO.N,/RESET_SLAVE*%
X116415684Y-64730000D02*
X119000000Y-67314316D01*
X117351064Y-96691064D02*
X117351064Y-99892362D01*
X116800000Y-84329000D02*
X116800000Y-96140000D01*
X121610000Y-75570000D02*
X117661372Y-75570000D01*
X119000000Y-67314316D02*
X119000000Y-71000000D01*
X116856186Y-76375186D02*
X116800000Y-76431372D01*
X115000000Y-64730000D02*
X116415684Y-64730000D01*
X116800000Y-96140000D02*
X117351064Y-96691064D01*
X117661372Y-75570000D02*
X116856186Y-76375186D01*
X118060000Y-115360000D02*
X120200000Y-117500000D01*
X117571000Y-101855000D02*
X118060000Y-102344000D01*
X116800000Y-76431372D02*
X116800000Y-84329000D01*
X118060000Y-102344000D02*
X118060000Y-115360000D01*
%TO.N,/RESET*%
X114970000Y-100970000D02*
X114500000Y-100500000D01*
X106370000Y-100970000D02*
X114030000Y-100970000D01*
X121610000Y-100970000D02*
X114970000Y-100970000D01*
X114030000Y-100970000D02*
X114500000Y-100500000D01*
%TO.N,/SCK*%
X111221000Y-75341000D02*
X106370000Y-70490000D01*
X112580000Y-117500000D02*
X112580000Y-103087000D01*
X106370000Y-68630000D02*
X106370000Y-70490000D01*
X111221000Y-100370000D02*
X111221000Y-75341000D01*
X112580000Y-103087000D02*
X111221000Y-101728000D01*
X111000000Y-64000000D02*
X106370000Y-68630000D01*
%TO.N,/MISO*%
X116181370Y-63930000D02*
X121610000Y-69358630D01*
X112598629Y-64730000D02*
X113398629Y-63930000D01*
X112460000Y-64730000D02*
X112598629Y-64730000D01*
X116000000Y-76100000D02*
X116000000Y-100000000D01*
X116000000Y-101570000D02*
X116000000Y-116620000D01*
X116000000Y-116620000D02*
X115120000Y-117500000D01*
X121610000Y-69358630D02*
X121610000Y-70490000D01*
X121610000Y-70490000D02*
X116000000Y-76100000D01*
X113398629Y-63930000D02*
X116181370Y-63930000D01*
%TO.N,+5V*%
X105270000Y-99530000D02*
X105270000Y-112730000D01*
X110821000Y-93979000D02*
X110821000Y-92500000D01*
X110821000Y-75934265D02*
X110621000Y-75734265D01*
X106370000Y-98430000D02*
X110300000Y-94500000D01*
X106370000Y-98430000D02*
X105270000Y-99530000D01*
X110300000Y-94500000D02*
X110821000Y-93979000D01*
X111114265Y-74385735D02*
X112460000Y-73040000D01*
X105270000Y-112730000D02*
X110040000Y-117500000D01*
X110821000Y-92500000D02*
X110821000Y-75934265D01*
X112460000Y-73040000D02*
X112460000Y-66000000D01*
%TO.N,/MOSI*%
X119635686Y-73030000D02*
X121610000Y-73030000D01*
X116709296Y-100370000D02*
X116709296Y-99370296D01*
X117660000Y-103428018D02*
X116600000Y-102368018D01*
X117625735Y-71625735D02*
X113730000Y-67730000D01*
X116400000Y-76265686D02*
X119635686Y-73030000D01*
X116400000Y-99061000D02*
X116400000Y-76265686D01*
X116709296Y-99370296D02*
X116400000Y-99061000D01*
X117660000Y-117500000D02*
X117660000Y-103428018D01*
X119625735Y-71625735D02*
X117625735Y-71625735D01*
X113730000Y-67730000D02*
X113730000Y-66000000D01*
%TD*%
M02*
