M48
; DRILL file {KiCad 8.0.2} date 2024-10-12T15:12:06+0200
; FORMAT={-:-/ absolute / inch / decimal}
; #@! TF.CreationDate,2024-10-12T15:12:06+02:00
; #@! TF.GenerationSoftware,Kicad,Pcbnew,8.0.2
; #@! TF.FileFunction,Plated,1,2,PTH
FMAT,2
INCH
; #@! TA.AperFunction,Plated,PTH,ViaDrill
T1C0.0118
; #@! TA.AperFunction,Plated,PTH,ViaDrill
T2C0.0157
; #@! TA.AperFunction,Plated,PTH,ComponentDrill
T3C0.0394
; #@! TA.AperFunction,Plated,PTH,ComponentDrill
T4C0.0472
%
G90
G05
T1
X3.51Y-2.22
X3.54Y-2.75
X3.545Y-1.795
X3.545Y-1.895
X3.545Y-2.045
X3.56Y-1.67
X3.62Y-2.125
X3.622Y-2.4606
X3.622Y-2.6772
X3.63Y-2.75
X3.635Y-1.625
X3.65Y-1.85
X3.65Y-2.04
X3.705Y-2.105
X3.75Y-1.815
X3.8051Y-2.1851
X3.8171Y-1.8609
X3.825Y-1.615
X3.825Y-1.8
X3.83Y-1.715
X3.835Y-2.08
X3.845Y-1.92
X3.845Y-2.045
X3.9Y-2.155
X3.955Y-1.61
X3.96Y-1.855
X3.975Y-1.725
X3.9939Y-2.2117
X4.01Y-1.68
X4.01Y-2.145
X4.055Y-2.075
X4.075Y-1.76
X4.1Y-1.67
X4.1134Y-2.2134
X4.2833Y-2.21
X4.38Y-2.2167
X4.465Y-1.8126
X4.47Y-1.9346
X4.52Y-1.98
X4.53Y-1.7676
X4.53Y-2.065
X4.545Y-1.7
X4.55Y-1.8283
X4.585Y-1.775
X4.615Y-2.16
X4.625Y-1.625
X4.63Y-1.7
X4.635Y-2.13
X4.645Y-2.035
X4.685Y-2.165
X4.7072Y-1.885
X4.715Y-1.975
X4.715Y-2.015
X4.725Y-1.73
X4.73Y-1.86
X4.74Y-1.7867
X4.76Y-1.8783
X4.77Y-2.12
X4.8017Y-1.725
X4.835Y-1.865
X4.855Y-1.92
X4.86Y-1.8867
X4.865Y-2.09
X4.88Y-1.82
X4.9Y-1.9024
X4.9Y-1.96
X4.96Y-2.01
X4.965Y-1.835
X4.97Y-1.72
X5.005Y-1.92
X5.01Y-1.985
X5.015Y-1.8433
X5.03Y-1.78
X5.065Y-1.925
X5.1072Y-2.1028
X5.1378Y-2.0722
X5.1483Y-2.025
X5.2Y-1.635
X5.2Y-1.745
X5.2011Y-2.0789
X5.5507Y-2.1398
X5.6682Y-2.1678
X5.7047Y-2.005
X5.752Y-2.005
X5.88Y-1.88
X5.88Y-2.035
X6.9861Y-1.6239
X7.055Y-1.75
X7.1848Y-2.0729
X7.1864Y-2.1186
X7.195Y-2.155
X7.2595Y-2.1305
T2
X3.705Y-2.33
X3.705Y-2.49
X3.705Y-2.595
X3.74Y-2.755
X3.81Y-2.255
X3.82Y-2.99
X3.8452Y-2.3219
X3.8513Y-1.2908
X3.87Y-2.51
X3.87Y-2.64
X3.9052Y-2.2769
X3.91Y-2.885
X3.9113Y-1.2508
X3.9852Y-2.5069
X3.9863Y-1.2408
X4.0452Y-2.5069
X4.0463Y-1.2408
X4.07Y-2.915
X4.1202Y-2.4969
X4.1263Y-1.4708
X4.14Y-2.26
X4.155Y-2.645
X4.1802Y-2.4569
X4.1863Y-1.4258
X4.23Y-2.86
X4.25Y-2.29
X4.25Y-2.77
X4.255Y-2.99
X4.31Y-2.875
X4.33Y-1.42
X4.36Y-2.77
X4.39Y-2.25
X4.4357Y-2.3219
X4.4419Y-1.2908
X4.445Y-3.005
X4.465Y-2.505
X4.4957Y-2.2769
X4.5019Y-1.2508
X4.555Y-2.96
X4.5757Y-2.5069
X4.5769Y-1.2408
X4.6357Y-2.5069
X4.6369Y-1.2408
X4.7107Y-2.4969
X4.7169Y-1.4708
X4.77Y-2.285
X4.7707Y-2.4569
X4.7769Y-1.4258
X4.84Y-2.765
X4.865Y-2.295
X4.9Y-2.635
X4.9016Y-2.3819
X4.925Y-1.42
X4.97Y-2.785
X5.0263Y-2.3219
X5.0324Y-1.2908
X5.055Y-2.505
X5.0863Y-2.2769
X5.0924Y-1.2508
X5.15Y-1.605
X5.165Y-1.73
X5.1663Y-2.5069
X5.1674Y-1.2408
X5.22Y-1.785
X5.2263Y-2.5069
X5.2274Y-1.2408
X5.24Y-1.625
X5.245Y-1.915
X5.295Y-1.595
X5.3013Y-2.4969
X5.305Y-2.26
X5.3074Y-1.4708
X5.3613Y-2.4569
X5.365Y-2.02
X5.3674Y-1.4258
X5.37Y-2.075
X5.375Y-1.71
X5.4Y-2.3
X5.43Y-2.795
X5.45Y-2.01
X5.455Y-1.755
X5.455Y-1.825
X5.455Y-1.895
X5.455Y-2.245
X5.47Y-1.95
X5.49Y-2.315
X5.49Y-2.66
X5.515Y-1.425
X5.55Y-2.245
X5.55Y-2.845
X5.56Y-2.015
X5.565Y-1.75
X5.6168Y-2.3219
X5.62Y-2.245
X5.623Y-1.2908
X5.64Y-2.51
X5.64Y-2.625
X5.6768Y-2.2769
X5.683Y-1.2508
X5.7568Y-2.5069
X5.758Y-1.2408
X5.795Y-1.58
X5.8Y-1.735
X5.8168Y-2.5069
X5.818Y-1.2408
X5.835Y-1.85
X5.8918Y-2.4969
X5.898Y-1.4708
X5.905Y-2.895
X5.91Y-2.215
X5.925Y-2.64
X5.9518Y-2.4569
X5.958Y-1.4258
X5.99Y-2.145
X6.015Y-2.31
X6.025Y-1.505
X6.035Y-2.03
X6.035Y-2.845
X6.0433Y-0.8268
X6.0433Y-0.9843
X6.045Y-1.895
X6.05Y-2.755
X6.095Y-2.91
X6.105Y-2.41
X6.115Y-1.34
X6.17Y-2.41
X6.195Y-0.825
X6.195Y-2.22
X6.265Y-1.625
X6.27Y-2.11
X6.27Y-2.41
X6.28Y-1.345
X6.315Y-0.825
X6.36Y-1.405
X6.3797Y-2.4021
X6.43Y-2.905
X6.435Y-2.37
X6.48Y-2.42
X6.485Y-1.63
X6.49Y-0.83
X6.49Y-0.955
X6.49Y-1.085
X6.49Y-2.105
X6.495Y-1.165
X6.495Y-1.35
X6.495Y-1.87
X6.495Y-2.215
X6.5Y-1.26
X6.5Y-2.505
X6.585Y-1.085
X6.585Y-2.025
X6.59Y-2.655
X6.595Y-1.63
X6.6Y-1.33
X6.6Y-2.13
X6.62Y-2.395
X6.62Y-2.91
X6.69Y-2.115
X6.72Y-1.42
X6.73Y-2.36
X6.745Y-0.845
X6.79Y-2.115
X6.795Y-1.315
X6.795Y-1.63
X6.805Y-2.415
X6.835Y-2.93
X6.87Y-2.285
X6.875Y-1.425
X6.875Y-2.12
X6.92Y-1.635
X6.92Y-2.35
X6.925Y-2.415
X6.935Y-2.295
X6.94Y-2.115
X6.94Y-2.225
X6.955Y-0.85
X6.955Y-1.325
X6.96Y-3.01
X7.04Y-2.755
X7.045Y-0.955
X7.05Y-2.175
X7.05Y-2.565
X7.095Y-2.875
X7.115Y-2.215
X7.12Y-2.285
X7.125Y-2.36
X7.125Y-2.435
X7.15Y-2.635
X7.17Y-1.17
X7.175Y-0.95
X7.185Y-1.91
X7.195Y-2.76
X7.205Y-1.66
X7.205Y-2.215
X7.205Y-2.365
X7.205Y-2.535
X7.24Y-2.085
X7.3Y-1.205
X7.3Y-2.24
X7.3Y-2.315
X7.3Y-2.39
X7.3Y-2.475
X7.305Y-2.675
X7.31Y-1.49
X7.32Y-2.025
X7.325Y-1.805
X7.335Y-0.955
X7.353Y-1.2038
X7.355Y-2.64
T3
X3.55Y-2.175
X3.55Y-2.275
X3.55Y-2.375
X3.55Y-2.475
X3.55Y-2.575
X3.55Y-2.675
T4
X3.878Y-0.9843
X3.878Y-2.7635
X4.0157Y-0.9843
X4.0157Y-2.7635
X4.1535Y-0.9843
X4.1535Y-2.7635
X4.4685Y-0.9843
X4.4685Y-2.7635
X4.6063Y-0.9843
X4.6063Y-2.7635
X4.7441Y-0.9843
X4.7441Y-2.7635
X5.0591Y-0.9843
X5.0591Y-2.7635
X5.1969Y-0.9843
X5.1969Y-2.7635
X5.3346Y-0.9843
X5.3346Y-2.7635
X5.6496Y-0.9843
X5.6496Y-2.7635
X5.7874Y-0.9843
X5.7874Y-2.7635
X5.9252Y-0.9843
X5.9252Y-2.7635
X7.0795Y-1.6811
X7.0795Y-1.8189
X7.0795Y-1.9567
X7.0795Y-2.0945
M30
