%TF.GenerationSoftware,KiCad,Pcbnew,8.0.2*%
%TF.CreationDate,2024-07-03T12:32:50+02:00*%
%TF.ProjectId,OSSD_TEST_PCB,4f535344-5f54-4455-9354-5f5043422e6b,rev?*%
%TF.SameCoordinates,Original*%
%TF.FileFunction,Legend,Bot*%
%TF.FilePolarity,Positive*%
%FSLAX46Y46*%
G04 Gerber Fmt 4.6, Leading zero omitted, Abs format (unit mm)*
G04 Created by KiCad (PCBNEW 8.0.2) date 2024-07-03 12:32:50*
%MOMM*%
%LPD*%
G01*
G04 APERTURE LIST*
G04 Aperture macros list*
%AMRoundRect*
0 Rectangle with rounded corners*
0 $1 Rounding radius*
0 $2 $3 $4 $5 $6 $7 $8 $9 X,Y pos of 4 corners*
0 Add a 4 corners polygon primitive as box body*
4,1,4,$2,$3,$4,$5,$6,$7,$8,$9,$2,$3,0*
0 Add four circle primitives for the rounded corners*
1,1,$1+$1,$2,$3*
1,1,$1+$1,$4,$5*
1,1,$1+$1,$6,$7*
1,1,$1+$1,$8,$9*
0 Add four rect primitives between the rounded corners*
20,1,$1+$1,$2,$3,$4,$5,0*
20,1,$1+$1,$4,$5,$6,$7,0*
20,1,$1+$1,$6,$7,$8,$9,0*
20,1,$1+$1,$8,$9,$2,$3,0*%
G04 Aperture macros list end*
%ADD10C,0.075000*%
%ADD11R,2.600000X2.600000*%
%ADD12C,2.600000*%
%ADD13RoundRect,0.250000X-0.675000X-0.675000X0.675000X-0.675000X0.675000X0.675000X-0.675000X0.675000X0*%
%ADD14RoundRect,0.250000X0.675000X0.675000X-0.675000X0.675000X-0.675000X-0.675000X0.675000X-0.675000X0*%
G04 APERTURE END LIST*
D10*
X192540048Y-102214590D02*
X192540048Y-101857447D01*
X192540048Y-101857447D02*
X192516239Y-101786019D01*
X192516239Y-101786019D02*
X192468620Y-101738400D01*
X192468620Y-101738400D02*
X192397191Y-101714590D01*
X192397191Y-101714590D02*
X192349572Y-101714590D01*
X193040048Y-101714590D02*
X192754334Y-101714590D01*
X192897191Y-101714590D02*
X192897191Y-102214590D01*
X192897191Y-102214590D02*
X192849572Y-102143161D01*
X192849572Y-102143161D02*
X192801953Y-102095542D01*
X192801953Y-102095542D02*
X192754334Y-102071733D01*
X193349571Y-102214590D02*
X193397190Y-102214590D01*
X193397190Y-102214590D02*
X193444809Y-102190780D01*
X193444809Y-102190780D02*
X193468619Y-102166971D01*
X193468619Y-102166971D02*
X193492428Y-102119352D01*
X193492428Y-102119352D02*
X193516238Y-102024114D01*
X193516238Y-102024114D02*
X193516238Y-101905066D01*
X193516238Y-101905066D02*
X193492428Y-101809828D01*
X193492428Y-101809828D02*
X193468619Y-101762209D01*
X193468619Y-101762209D02*
X193444809Y-101738400D01*
X193444809Y-101738400D02*
X193397190Y-101714590D01*
X193397190Y-101714590D02*
X193349571Y-101714590D01*
X193349571Y-101714590D02*
X193301952Y-101738400D01*
X193301952Y-101738400D02*
X193278143Y-101762209D01*
X193278143Y-101762209D02*
X193254333Y-101809828D01*
X193254333Y-101809828D02*
X193230524Y-101905066D01*
X193230524Y-101905066D02*
X193230524Y-102024114D01*
X193230524Y-102024114D02*
X193254333Y-102119352D01*
X193254333Y-102119352D02*
X193278143Y-102166971D01*
X193278143Y-102166971D02*
X193301952Y-102190780D01*
X193301952Y-102190780D02*
X193349571Y-102214590D01*
X193825761Y-102214590D02*
X193873380Y-102214590D01*
X193873380Y-102214590D02*
X193920999Y-102190780D01*
X193920999Y-102190780D02*
X193944809Y-102166971D01*
X193944809Y-102166971D02*
X193968618Y-102119352D01*
X193968618Y-102119352D02*
X193992428Y-102024114D01*
X193992428Y-102024114D02*
X193992428Y-101905066D01*
X193992428Y-101905066D02*
X193968618Y-101809828D01*
X193968618Y-101809828D02*
X193944809Y-101762209D01*
X193944809Y-101762209D02*
X193920999Y-101738400D01*
X193920999Y-101738400D02*
X193873380Y-101714590D01*
X193873380Y-101714590D02*
X193825761Y-101714590D01*
X193825761Y-101714590D02*
X193778142Y-101738400D01*
X193778142Y-101738400D02*
X193754333Y-101762209D01*
X193754333Y-101762209D02*
X193730523Y-101809828D01*
X193730523Y-101809828D02*
X193706714Y-101905066D01*
X193706714Y-101905066D02*
X193706714Y-102024114D01*
X193706714Y-102024114D02*
X193730523Y-102119352D01*
X193730523Y-102119352D02*
X193754333Y-102166971D01*
X193754333Y-102166971D02*
X193778142Y-102190780D01*
X193778142Y-102190780D02*
X193825761Y-102214590D01*
X194182904Y-102166971D02*
X194206713Y-102190780D01*
X194206713Y-102190780D02*
X194254332Y-102214590D01*
X194254332Y-102214590D02*
X194373380Y-102214590D01*
X194373380Y-102214590D02*
X194420999Y-102190780D01*
X194420999Y-102190780D02*
X194444808Y-102166971D01*
X194444808Y-102166971D02*
X194468618Y-102119352D01*
X194468618Y-102119352D02*
X194468618Y-102071733D01*
X194468618Y-102071733D02*
X194444808Y-102000304D01*
X194444808Y-102000304D02*
X194159094Y-101714590D01*
X194159094Y-101714590D02*
X194468618Y-101714590D01*
X135008856Y-83889409D02*
X135008856Y-84246552D01*
X135008856Y-84246552D02*
X135032665Y-84317980D01*
X135032665Y-84317980D02*
X135080284Y-84365600D01*
X135080284Y-84365600D02*
X135151713Y-84389409D01*
X135151713Y-84389409D02*
X135199332Y-84389409D01*
X134818380Y-83889409D02*
X134485047Y-83889409D01*
X134485047Y-83889409D02*
X134699332Y-84389409D01*
X134199333Y-83889409D02*
X134151714Y-83889409D01*
X134151714Y-83889409D02*
X134104095Y-83913219D01*
X134104095Y-83913219D02*
X134080285Y-83937028D01*
X134080285Y-83937028D02*
X134056476Y-83984647D01*
X134056476Y-83984647D02*
X134032666Y-84079885D01*
X134032666Y-84079885D02*
X134032666Y-84198933D01*
X134032666Y-84198933D02*
X134056476Y-84294171D01*
X134056476Y-84294171D02*
X134080285Y-84341790D01*
X134080285Y-84341790D02*
X134104095Y-84365600D01*
X134104095Y-84365600D02*
X134151714Y-84389409D01*
X134151714Y-84389409D02*
X134199333Y-84389409D01*
X134199333Y-84389409D02*
X134246952Y-84365600D01*
X134246952Y-84365600D02*
X134270761Y-84341790D01*
X134270761Y-84341790D02*
X134294571Y-84294171D01*
X134294571Y-84294171D02*
X134318380Y-84198933D01*
X134318380Y-84198933D02*
X134318380Y-84079885D01*
X134318380Y-84079885D02*
X134294571Y-83984647D01*
X134294571Y-83984647D02*
X134270761Y-83937028D01*
X134270761Y-83937028D02*
X134246952Y-83913219D01*
X134246952Y-83913219D02*
X134199333Y-83889409D01*
X133842190Y-83937028D02*
X133818381Y-83913219D01*
X133818381Y-83913219D02*
X133770762Y-83889409D01*
X133770762Y-83889409D02*
X133651714Y-83889409D01*
X133651714Y-83889409D02*
X133604095Y-83913219D01*
X133604095Y-83913219D02*
X133580286Y-83937028D01*
X133580286Y-83937028D02*
X133556476Y-83984647D01*
X133556476Y-83984647D02*
X133556476Y-84032266D01*
X133556476Y-84032266D02*
X133580286Y-84103695D01*
X133580286Y-84103695D02*
X133866000Y-84389409D01*
X133866000Y-84389409D02*
X133556476Y-84389409D01*
X170568856Y-83889409D02*
X170568856Y-84246552D01*
X170568856Y-84246552D02*
X170592665Y-84317980D01*
X170592665Y-84317980D02*
X170640284Y-84365600D01*
X170640284Y-84365600D02*
X170711713Y-84389409D01*
X170711713Y-84389409D02*
X170759332Y-84389409D01*
X170306951Y-84389409D02*
X170211713Y-84389409D01*
X170211713Y-84389409D02*
X170164094Y-84365600D01*
X170164094Y-84365600D02*
X170140285Y-84341790D01*
X170140285Y-84341790D02*
X170092666Y-84270361D01*
X170092666Y-84270361D02*
X170068856Y-84175123D01*
X170068856Y-84175123D02*
X170068856Y-83984647D01*
X170068856Y-83984647D02*
X170092666Y-83937028D01*
X170092666Y-83937028D02*
X170116475Y-83913219D01*
X170116475Y-83913219D02*
X170164094Y-83889409D01*
X170164094Y-83889409D02*
X170259332Y-83889409D01*
X170259332Y-83889409D02*
X170306951Y-83913219D01*
X170306951Y-83913219D02*
X170330761Y-83937028D01*
X170330761Y-83937028D02*
X170354570Y-83984647D01*
X170354570Y-83984647D02*
X170354570Y-84103695D01*
X170354570Y-84103695D02*
X170330761Y-84151314D01*
X170330761Y-84151314D02*
X170306951Y-84175123D01*
X170306951Y-84175123D02*
X170259332Y-84198933D01*
X170259332Y-84198933D02*
X170164094Y-84198933D01*
X170164094Y-84198933D02*
X170116475Y-84175123D01*
X170116475Y-84175123D02*
X170092666Y-84151314D01*
X170092666Y-84151314D02*
X170068856Y-84103695D01*
X169759333Y-83889409D02*
X169711714Y-83889409D01*
X169711714Y-83889409D02*
X169664095Y-83913219D01*
X169664095Y-83913219D02*
X169640285Y-83937028D01*
X169640285Y-83937028D02*
X169616476Y-83984647D01*
X169616476Y-83984647D02*
X169592666Y-84079885D01*
X169592666Y-84079885D02*
X169592666Y-84198933D01*
X169592666Y-84198933D02*
X169616476Y-84294171D01*
X169616476Y-84294171D02*
X169640285Y-84341790D01*
X169640285Y-84341790D02*
X169664095Y-84365600D01*
X169664095Y-84365600D02*
X169711714Y-84389409D01*
X169711714Y-84389409D02*
X169759333Y-84389409D01*
X169759333Y-84389409D02*
X169806952Y-84365600D01*
X169806952Y-84365600D02*
X169830761Y-84341790D01*
X169830761Y-84341790D02*
X169854571Y-84294171D01*
X169854571Y-84294171D02*
X169878380Y-84198933D01*
X169878380Y-84198933D02*
X169878380Y-84079885D01*
X169878380Y-84079885D02*
X169854571Y-83984647D01*
X169854571Y-83984647D02*
X169830761Y-83937028D01*
X169830761Y-83937028D02*
X169806952Y-83913219D01*
X169806952Y-83913219D02*
X169759333Y-83889409D01*
X169116476Y-84389409D02*
X169402190Y-84389409D01*
X169259333Y-84389409D02*
X169259333Y-83889409D01*
X169259333Y-83889409D02*
X169306952Y-83960838D01*
X169306952Y-83960838D02*
X169354571Y-84008457D01*
X169354571Y-84008457D02*
X169402190Y-84032266D01*
X149344143Y-120453590D02*
X149344143Y-120096447D01*
X149344143Y-120096447D02*
X149320334Y-120025019D01*
X149320334Y-120025019D02*
X149272715Y-119977400D01*
X149272715Y-119977400D02*
X149201286Y-119953590D01*
X149201286Y-119953590D02*
X149153667Y-119953590D01*
X149534619Y-120453590D02*
X149844143Y-120453590D01*
X149844143Y-120453590D02*
X149677476Y-120263114D01*
X149677476Y-120263114D02*
X149748905Y-120263114D01*
X149748905Y-120263114D02*
X149796524Y-120239304D01*
X149796524Y-120239304D02*
X149820333Y-120215495D01*
X149820333Y-120215495D02*
X149844143Y-120167876D01*
X149844143Y-120167876D02*
X149844143Y-120048828D01*
X149844143Y-120048828D02*
X149820333Y-120001209D01*
X149820333Y-120001209D02*
X149796524Y-119977400D01*
X149796524Y-119977400D02*
X149748905Y-119953590D01*
X149748905Y-119953590D02*
X149606048Y-119953590D01*
X149606048Y-119953590D02*
X149558429Y-119977400D01*
X149558429Y-119977400D02*
X149534619Y-120001209D01*
X150153666Y-120453590D02*
X150201285Y-120453590D01*
X150201285Y-120453590D02*
X150248904Y-120429780D01*
X150248904Y-120429780D02*
X150272714Y-120405971D01*
X150272714Y-120405971D02*
X150296523Y-120358352D01*
X150296523Y-120358352D02*
X150320333Y-120263114D01*
X150320333Y-120263114D02*
X150320333Y-120144066D01*
X150320333Y-120144066D02*
X150296523Y-120048828D01*
X150296523Y-120048828D02*
X150272714Y-120001209D01*
X150272714Y-120001209D02*
X150248904Y-119977400D01*
X150248904Y-119977400D02*
X150201285Y-119953590D01*
X150201285Y-119953590D02*
X150153666Y-119953590D01*
X150153666Y-119953590D02*
X150106047Y-119977400D01*
X150106047Y-119977400D02*
X150082238Y-120001209D01*
X150082238Y-120001209D02*
X150058428Y-120048828D01*
X150058428Y-120048828D02*
X150034619Y-120144066D01*
X150034619Y-120144066D02*
X150034619Y-120263114D01*
X150034619Y-120263114D02*
X150058428Y-120358352D01*
X150058428Y-120358352D02*
X150082238Y-120405971D01*
X150082238Y-120405971D02*
X150106047Y-120429780D01*
X150106047Y-120429780D02*
X150153666Y-120453590D01*
X150510809Y-120405971D02*
X150534618Y-120429780D01*
X150534618Y-120429780D02*
X150582237Y-120453590D01*
X150582237Y-120453590D02*
X150701285Y-120453590D01*
X150701285Y-120453590D02*
X150748904Y-120429780D01*
X150748904Y-120429780D02*
X150772713Y-120405971D01*
X150772713Y-120405971D02*
X150796523Y-120358352D01*
X150796523Y-120358352D02*
X150796523Y-120310733D01*
X150796523Y-120310733D02*
X150772713Y-120239304D01*
X150772713Y-120239304D02*
X150486999Y-119953590D01*
X150486999Y-119953590D02*
X150796523Y-119953590D01*
X139184143Y-120453590D02*
X139184143Y-120096447D01*
X139184143Y-120096447D02*
X139160334Y-120025019D01*
X139160334Y-120025019D02*
X139112715Y-119977400D01*
X139112715Y-119977400D02*
X139041286Y-119953590D01*
X139041286Y-119953590D02*
X138993667Y-119953590D01*
X139636524Y-120286923D02*
X139636524Y-119953590D01*
X139517476Y-120477400D02*
X139398429Y-120120257D01*
X139398429Y-120120257D02*
X139707952Y-120120257D01*
X139993666Y-120453590D02*
X140041285Y-120453590D01*
X140041285Y-120453590D02*
X140088904Y-120429780D01*
X140088904Y-120429780D02*
X140112714Y-120405971D01*
X140112714Y-120405971D02*
X140136523Y-120358352D01*
X140136523Y-120358352D02*
X140160333Y-120263114D01*
X140160333Y-120263114D02*
X140160333Y-120144066D01*
X140160333Y-120144066D02*
X140136523Y-120048828D01*
X140136523Y-120048828D02*
X140112714Y-120001209D01*
X140112714Y-120001209D02*
X140088904Y-119977400D01*
X140088904Y-119977400D02*
X140041285Y-119953590D01*
X140041285Y-119953590D02*
X139993666Y-119953590D01*
X139993666Y-119953590D02*
X139946047Y-119977400D01*
X139946047Y-119977400D02*
X139922238Y-120001209D01*
X139922238Y-120001209D02*
X139898428Y-120048828D01*
X139898428Y-120048828D02*
X139874619Y-120144066D01*
X139874619Y-120144066D02*
X139874619Y-120263114D01*
X139874619Y-120263114D02*
X139898428Y-120358352D01*
X139898428Y-120358352D02*
X139922238Y-120405971D01*
X139922238Y-120405971D02*
X139946047Y-120429780D01*
X139946047Y-120429780D02*
X139993666Y-120453590D01*
X140326999Y-120453590D02*
X140636523Y-120453590D01*
X140636523Y-120453590D02*
X140469856Y-120263114D01*
X140469856Y-120263114D02*
X140541285Y-120263114D01*
X140541285Y-120263114D02*
X140588904Y-120239304D01*
X140588904Y-120239304D02*
X140612713Y-120215495D01*
X140612713Y-120215495D02*
X140636523Y-120167876D01*
X140636523Y-120167876D02*
X140636523Y-120048828D01*
X140636523Y-120048828D02*
X140612713Y-120001209D01*
X140612713Y-120001209D02*
X140588904Y-119977400D01*
X140588904Y-119977400D02*
X140541285Y-119953590D01*
X140541285Y-119953590D02*
X140398428Y-119953590D01*
X140398428Y-119953590D02*
X140350809Y-119977400D01*
X140350809Y-119977400D02*
X140326999Y-120001209D01*
X160408856Y-83889409D02*
X160408856Y-84246552D01*
X160408856Y-84246552D02*
X160432665Y-84317980D01*
X160432665Y-84317980D02*
X160480284Y-84365600D01*
X160480284Y-84365600D02*
X160551713Y-84389409D01*
X160551713Y-84389409D02*
X160599332Y-84389409D01*
X160146951Y-84389409D02*
X160051713Y-84389409D01*
X160051713Y-84389409D02*
X160004094Y-84365600D01*
X160004094Y-84365600D02*
X159980285Y-84341790D01*
X159980285Y-84341790D02*
X159932666Y-84270361D01*
X159932666Y-84270361D02*
X159908856Y-84175123D01*
X159908856Y-84175123D02*
X159908856Y-83984647D01*
X159908856Y-83984647D02*
X159932666Y-83937028D01*
X159932666Y-83937028D02*
X159956475Y-83913219D01*
X159956475Y-83913219D02*
X160004094Y-83889409D01*
X160004094Y-83889409D02*
X160099332Y-83889409D01*
X160099332Y-83889409D02*
X160146951Y-83913219D01*
X160146951Y-83913219D02*
X160170761Y-83937028D01*
X160170761Y-83937028D02*
X160194570Y-83984647D01*
X160194570Y-83984647D02*
X160194570Y-84103695D01*
X160194570Y-84103695D02*
X160170761Y-84151314D01*
X160170761Y-84151314D02*
X160146951Y-84175123D01*
X160146951Y-84175123D02*
X160099332Y-84198933D01*
X160099332Y-84198933D02*
X160004094Y-84198933D01*
X160004094Y-84198933D02*
X159956475Y-84175123D01*
X159956475Y-84175123D02*
X159932666Y-84151314D01*
X159932666Y-84151314D02*
X159908856Y-84103695D01*
X159599333Y-83889409D02*
X159551714Y-83889409D01*
X159551714Y-83889409D02*
X159504095Y-83913219D01*
X159504095Y-83913219D02*
X159480285Y-83937028D01*
X159480285Y-83937028D02*
X159456476Y-83984647D01*
X159456476Y-83984647D02*
X159432666Y-84079885D01*
X159432666Y-84079885D02*
X159432666Y-84198933D01*
X159432666Y-84198933D02*
X159456476Y-84294171D01*
X159456476Y-84294171D02*
X159480285Y-84341790D01*
X159480285Y-84341790D02*
X159504095Y-84365600D01*
X159504095Y-84365600D02*
X159551714Y-84389409D01*
X159551714Y-84389409D02*
X159599333Y-84389409D01*
X159599333Y-84389409D02*
X159646952Y-84365600D01*
X159646952Y-84365600D02*
X159670761Y-84341790D01*
X159670761Y-84341790D02*
X159694571Y-84294171D01*
X159694571Y-84294171D02*
X159718380Y-84198933D01*
X159718380Y-84198933D02*
X159718380Y-84079885D01*
X159718380Y-84079885D02*
X159694571Y-83984647D01*
X159694571Y-83984647D02*
X159670761Y-83937028D01*
X159670761Y-83937028D02*
X159646952Y-83913219D01*
X159646952Y-83913219D02*
X159599333Y-83889409D01*
X159266000Y-83889409D02*
X158956476Y-83889409D01*
X158956476Y-83889409D02*
X159123143Y-84079885D01*
X159123143Y-84079885D02*
X159051714Y-84079885D01*
X159051714Y-84079885D02*
X159004095Y-84103695D01*
X159004095Y-84103695D02*
X158980286Y-84127504D01*
X158980286Y-84127504D02*
X158956476Y-84175123D01*
X158956476Y-84175123D02*
X158956476Y-84294171D01*
X158956476Y-84294171D02*
X158980286Y-84341790D01*
X158980286Y-84341790D02*
X159004095Y-84365600D01*
X159004095Y-84365600D02*
X159051714Y-84389409D01*
X159051714Y-84389409D02*
X159194571Y-84389409D01*
X159194571Y-84389409D02*
X159242190Y-84365600D01*
X159242190Y-84365600D02*
X159266000Y-84341790D01*
X140088856Y-83889409D02*
X140088856Y-84246552D01*
X140088856Y-84246552D02*
X140112665Y-84317980D01*
X140112665Y-84317980D02*
X140160284Y-84365600D01*
X140160284Y-84365600D02*
X140231713Y-84389409D01*
X140231713Y-84389409D02*
X140279332Y-84389409D01*
X139898380Y-83889409D02*
X139565047Y-83889409D01*
X139565047Y-83889409D02*
X139779332Y-84389409D01*
X139279333Y-83889409D02*
X139231714Y-83889409D01*
X139231714Y-83889409D02*
X139184095Y-83913219D01*
X139184095Y-83913219D02*
X139160285Y-83937028D01*
X139160285Y-83937028D02*
X139136476Y-83984647D01*
X139136476Y-83984647D02*
X139112666Y-84079885D01*
X139112666Y-84079885D02*
X139112666Y-84198933D01*
X139112666Y-84198933D02*
X139136476Y-84294171D01*
X139136476Y-84294171D02*
X139160285Y-84341790D01*
X139160285Y-84341790D02*
X139184095Y-84365600D01*
X139184095Y-84365600D02*
X139231714Y-84389409D01*
X139231714Y-84389409D02*
X139279333Y-84389409D01*
X139279333Y-84389409D02*
X139326952Y-84365600D01*
X139326952Y-84365600D02*
X139350761Y-84341790D01*
X139350761Y-84341790D02*
X139374571Y-84294171D01*
X139374571Y-84294171D02*
X139398380Y-84198933D01*
X139398380Y-84198933D02*
X139398380Y-84079885D01*
X139398380Y-84079885D02*
X139374571Y-83984647D01*
X139374571Y-83984647D02*
X139350761Y-83937028D01*
X139350761Y-83937028D02*
X139326952Y-83913219D01*
X139326952Y-83913219D02*
X139279333Y-83889409D01*
X138636476Y-84389409D02*
X138922190Y-84389409D01*
X138779333Y-84389409D02*
X138779333Y-83889409D01*
X138779333Y-83889409D02*
X138826952Y-83960838D01*
X138826952Y-83960838D02*
X138874571Y-84008457D01*
X138874571Y-84008457D02*
X138922190Y-84032266D01*
X169537143Y-120453590D02*
X169537143Y-120096447D01*
X169537143Y-120096447D02*
X169513334Y-120025019D01*
X169513334Y-120025019D02*
X169465715Y-119977400D01*
X169465715Y-119977400D02*
X169394286Y-119953590D01*
X169394286Y-119953590D02*
X169346667Y-119953590D01*
X169751429Y-120405971D02*
X169775238Y-120429780D01*
X169775238Y-120429780D02*
X169822857Y-120453590D01*
X169822857Y-120453590D02*
X169941905Y-120453590D01*
X169941905Y-120453590D02*
X169989524Y-120429780D01*
X169989524Y-120429780D02*
X170013333Y-120405971D01*
X170013333Y-120405971D02*
X170037143Y-120358352D01*
X170037143Y-120358352D02*
X170037143Y-120310733D01*
X170037143Y-120310733D02*
X170013333Y-120239304D01*
X170013333Y-120239304D02*
X169727619Y-119953590D01*
X169727619Y-119953590D02*
X170037143Y-119953590D01*
X170346666Y-120453590D02*
X170394285Y-120453590D01*
X170394285Y-120453590D02*
X170441904Y-120429780D01*
X170441904Y-120429780D02*
X170465714Y-120405971D01*
X170465714Y-120405971D02*
X170489523Y-120358352D01*
X170489523Y-120358352D02*
X170513333Y-120263114D01*
X170513333Y-120263114D02*
X170513333Y-120144066D01*
X170513333Y-120144066D02*
X170489523Y-120048828D01*
X170489523Y-120048828D02*
X170465714Y-120001209D01*
X170465714Y-120001209D02*
X170441904Y-119977400D01*
X170441904Y-119977400D02*
X170394285Y-119953590D01*
X170394285Y-119953590D02*
X170346666Y-119953590D01*
X170346666Y-119953590D02*
X170299047Y-119977400D01*
X170299047Y-119977400D02*
X170275238Y-120001209D01*
X170275238Y-120001209D02*
X170251428Y-120048828D01*
X170251428Y-120048828D02*
X170227619Y-120144066D01*
X170227619Y-120144066D02*
X170227619Y-120263114D01*
X170227619Y-120263114D02*
X170251428Y-120358352D01*
X170251428Y-120358352D02*
X170275238Y-120405971D01*
X170275238Y-120405971D02*
X170299047Y-120429780D01*
X170299047Y-120429780D02*
X170346666Y-120453590D01*
X170679999Y-120453590D02*
X170989523Y-120453590D01*
X170989523Y-120453590D02*
X170822856Y-120263114D01*
X170822856Y-120263114D02*
X170894285Y-120263114D01*
X170894285Y-120263114D02*
X170941904Y-120239304D01*
X170941904Y-120239304D02*
X170965713Y-120215495D01*
X170965713Y-120215495D02*
X170989523Y-120167876D01*
X170989523Y-120167876D02*
X170989523Y-120048828D01*
X170989523Y-120048828D02*
X170965713Y-120001209D01*
X170965713Y-120001209D02*
X170941904Y-119977400D01*
X170941904Y-119977400D02*
X170894285Y-119953590D01*
X170894285Y-119953590D02*
X170751428Y-119953590D01*
X170751428Y-119953590D02*
X170703809Y-119977400D01*
X170703809Y-119977400D02*
X170679999Y-120001209D01*
X155328856Y-83889409D02*
X155328856Y-84246552D01*
X155328856Y-84246552D02*
X155352665Y-84317980D01*
X155352665Y-84317980D02*
X155400284Y-84365600D01*
X155400284Y-84365600D02*
X155471713Y-84389409D01*
X155471713Y-84389409D02*
X155519332Y-84389409D01*
X155019332Y-84103695D02*
X155066951Y-84079885D01*
X155066951Y-84079885D02*
X155090761Y-84056076D01*
X155090761Y-84056076D02*
X155114570Y-84008457D01*
X155114570Y-84008457D02*
X155114570Y-83984647D01*
X155114570Y-83984647D02*
X155090761Y-83937028D01*
X155090761Y-83937028D02*
X155066951Y-83913219D01*
X155066951Y-83913219D02*
X155019332Y-83889409D01*
X155019332Y-83889409D02*
X154924094Y-83889409D01*
X154924094Y-83889409D02*
X154876475Y-83913219D01*
X154876475Y-83913219D02*
X154852666Y-83937028D01*
X154852666Y-83937028D02*
X154828856Y-83984647D01*
X154828856Y-83984647D02*
X154828856Y-84008457D01*
X154828856Y-84008457D02*
X154852666Y-84056076D01*
X154852666Y-84056076D02*
X154876475Y-84079885D01*
X154876475Y-84079885D02*
X154924094Y-84103695D01*
X154924094Y-84103695D02*
X155019332Y-84103695D01*
X155019332Y-84103695D02*
X155066951Y-84127504D01*
X155066951Y-84127504D02*
X155090761Y-84151314D01*
X155090761Y-84151314D02*
X155114570Y-84198933D01*
X155114570Y-84198933D02*
X155114570Y-84294171D01*
X155114570Y-84294171D02*
X155090761Y-84341790D01*
X155090761Y-84341790D02*
X155066951Y-84365600D01*
X155066951Y-84365600D02*
X155019332Y-84389409D01*
X155019332Y-84389409D02*
X154924094Y-84389409D01*
X154924094Y-84389409D02*
X154876475Y-84365600D01*
X154876475Y-84365600D02*
X154852666Y-84341790D01*
X154852666Y-84341790D02*
X154828856Y-84294171D01*
X154828856Y-84294171D02*
X154828856Y-84198933D01*
X154828856Y-84198933D02*
X154852666Y-84151314D01*
X154852666Y-84151314D02*
X154876475Y-84127504D01*
X154876475Y-84127504D02*
X154924094Y-84103695D01*
X154519333Y-83889409D02*
X154471714Y-83889409D01*
X154471714Y-83889409D02*
X154424095Y-83913219D01*
X154424095Y-83913219D02*
X154400285Y-83937028D01*
X154400285Y-83937028D02*
X154376476Y-83984647D01*
X154376476Y-83984647D02*
X154352666Y-84079885D01*
X154352666Y-84079885D02*
X154352666Y-84198933D01*
X154352666Y-84198933D02*
X154376476Y-84294171D01*
X154376476Y-84294171D02*
X154400285Y-84341790D01*
X154400285Y-84341790D02*
X154424095Y-84365600D01*
X154424095Y-84365600D02*
X154471714Y-84389409D01*
X154471714Y-84389409D02*
X154519333Y-84389409D01*
X154519333Y-84389409D02*
X154566952Y-84365600D01*
X154566952Y-84365600D02*
X154590761Y-84341790D01*
X154590761Y-84341790D02*
X154614571Y-84294171D01*
X154614571Y-84294171D02*
X154638380Y-84198933D01*
X154638380Y-84198933D02*
X154638380Y-84079885D01*
X154638380Y-84079885D02*
X154614571Y-83984647D01*
X154614571Y-83984647D02*
X154590761Y-83937028D01*
X154590761Y-83937028D02*
X154566952Y-83913219D01*
X154566952Y-83913219D02*
X154519333Y-83889409D01*
X153876476Y-84389409D02*
X154162190Y-84389409D01*
X154019333Y-84389409D02*
X154019333Y-83889409D01*
X154019333Y-83889409D02*
X154066952Y-83960838D01*
X154066952Y-83960838D02*
X154114571Y-84008457D01*
X154114571Y-84008457D02*
X154162190Y-84032266D01*
X129024143Y-120453590D02*
X129024143Y-120096447D01*
X129024143Y-120096447D02*
X129000334Y-120025019D01*
X129000334Y-120025019D02*
X128952715Y-119977400D01*
X128952715Y-119977400D02*
X128881286Y-119953590D01*
X128881286Y-119953590D02*
X128833667Y-119953590D01*
X129476524Y-120286923D02*
X129476524Y-119953590D01*
X129357476Y-120477400D02*
X129238429Y-120120257D01*
X129238429Y-120120257D02*
X129547952Y-120120257D01*
X129833666Y-120453590D02*
X129881285Y-120453590D01*
X129881285Y-120453590D02*
X129928904Y-120429780D01*
X129928904Y-120429780D02*
X129952714Y-120405971D01*
X129952714Y-120405971D02*
X129976523Y-120358352D01*
X129976523Y-120358352D02*
X130000333Y-120263114D01*
X130000333Y-120263114D02*
X130000333Y-120144066D01*
X130000333Y-120144066D02*
X129976523Y-120048828D01*
X129976523Y-120048828D02*
X129952714Y-120001209D01*
X129952714Y-120001209D02*
X129928904Y-119977400D01*
X129928904Y-119977400D02*
X129881285Y-119953590D01*
X129881285Y-119953590D02*
X129833666Y-119953590D01*
X129833666Y-119953590D02*
X129786047Y-119977400D01*
X129786047Y-119977400D02*
X129762238Y-120001209D01*
X129762238Y-120001209D02*
X129738428Y-120048828D01*
X129738428Y-120048828D02*
X129714619Y-120144066D01*
X129714619Y-120144066D02*
X129714619Y-120263114D01*
X129714619Y-120263114D02*
X129738428Y-120358352D01*
X129738428Y-120358352D02*
X129762238Y-120405971D01*
X129762238Y-120405971D02*
X129786047Y-120429780D01*
X129786047Y-120429780D02*
X129833666Y-120453590D01*
X130476523Y-119953590D02*
X130190809Y-119953590D01*
X130333666Y-119953590D02*
X130333666Y-120453590D01*
X130333666Y-120453590D02*
X130286047Y-120382161D01*
X130286047Y-120382161D02*
X130238428Y-120334542D01*
X130238428Y-120334542D02*
X130190809Y-120310733D01*
X124848856Y-83889409D02*
X124848856Y-84246552D01*
X124848856Y-84246552D02*
X124872665Y-84317980D01*
X124872665Y-84317980D02*
X124920284Y-84365600D01*
X124920284Y-84365600D02*
X124991713Y-84389409D01*
X124991713Y-84389409D02*
X125039332Y-84389409D01*
X124396475Y-83889409D02*
X124491713Y-83889409D01*
X124491713Y-83889409D02*
X124539332Y-83913219D01*
X124539332Y-83913219D02*
X124563142Y-83937028D01*
X124563142Y-83937028D02*
X124610761Y-84008457D01*
X124610761Y-84008457D02*
X124634570Y-84103695D01*
X124634570Y-84103695D02*
X124634570Y-84294171D01*
X124634570Y-84294171D02*
X124610761Y-84341790D01*
X124610761Y-84341790D02*
X124586951Y-84365600D01*
X124586951Y-84365600D02*
X124539332Y-84389409D01*
X124539332Y-84389409D02*
X124444094Y-84389409D01*
X124444094Y-84389409D02*
X124396475Y-84365600D01*
X124396475Y-84365600D02*
X124372666Y-84341790D01*
X124372666Y-84341790D02*
X124348856Y-84294171D01*
X124348856Y-84294171D02*
X124348856Y-84175123D01*
X124348856Y-84175123D02*
X124372666Y-84127504D01*
X124372666Y-84127504D02*
X124396475Y-84103695D01*
X124396475Y-84103695D02*
X124444094Y-84079885D01*
X124444094Y-84079885D02*
X124539332Y-84079885D01*
X124539332Y-84079885D02*
X124586951Y-84103695D01*
X124586951Y-84103695D02*
X124610761Y-84127504D01*
X124610761Y-84127504D02*
X124634570Y-84175123D01*
X124039333Y-83889409D02*
X123991714Y-83889409D01*
X123991714Y-83889409D02*
X123944095Y-83913219D01*
X123944095Y-83913219D02*
X123920285Y-83937028D01*
X123920285Y-83937028D02*
X123896476Y-83984647D01*
X123896476Y-83984647D02*
X123872666Y-84079885D01*
X123872666Y-84079885D02*
X123872666Y-84198933D01*
X123872666Y-84198933D02*
X123896476Y-84294171D01*
X123896476Y-84294171D02*
X123920285Y-84341790D01*
X123920285Y-84341790D02*
X123944095Y-84365600D01*
X123944095Y-84365600D02*
X123991714Y-84389409D01*
X123991714Y-84389409D02*
X124039333Y-84389409D01*
X124039333Y-84389409D02*
X124086952Y-84365600D01*
X124086952Y-84365600D02*
X124110761Y-84341790D01*
X124110761Y-84341790D02*
X124134571Y-84294171D01*
X124134571Y-84294171D02*
X124158380Y-84198933D01*
X124158380Y-84198933D02*
X124158380Y-84079885D01*
X124158380Y-84079885D02*
X124134571Y-83984647D01*
X124134571Y-83984647D02*
X124110761Y-83937028D01*
X124110761Y-83937028D02*
X124086952Y-83913219D01*
X124086952Y-83913219D02*
X124039333Y-83889409D01*
X123396476Y-84389409D02*
X123682190Y-84389409D01*
X123539333Y-84389409D02*
X123539333Y-83889409D01*
X123539333Y-83889409D02*
X123586952Y-83960838D01*
X123586952Y-83960838D02*
X123634571Y-84008457D01*
X123634571Y-84008457D02*
X123682190Y-84032266D01*
X114688856Y-83889409D02*
X114688856Y-84246552D01*
X114688856Y-84246552D02*
X114712665Y-84317980D01*
X114712665Y-84317980D02*
X114760284Y-84365600D01*
X114760284Y-84365600D02*
X114831713Y-84389409D01*
X114831713Y-84389409D02*
X114879332Y-84389409D01*
X114236475Y-83889409D02*
X114331713Y-83889409D01*
X114331713Y-83889409D02*
X114379332Y-83913219D01*
X114379332Y-83913219D02*
X114403142Y-83937028D01*
X114403142Y-83937028D02*
X114450761Y-84008457D01*
X114450761Y-84008457D02*
X114474570Y-84103695D01*
X114474570Y-84103695D02*
X114474570Y-84294171D01*
X114474570Y-84294171D02*
X114450761Y-84341790D01*
X114450761Y-84341790D02*
X114426951Y-84365600D01*
X114426951Y-84365600D02*
X114379332Y-84389409D01*
X114379332Y-84389409D02*
X114284094Y-84389409D01*
X114284094Y-84389409D02*
X114236475Y-84365600D01*
X114236475Y-84365600D02*
X114212666Y-84341790D01*
X114212666Y-84341790D02*
X114188856Y-84294171D01*
X114188856Y-84294171D02*
X114188856Y-84175123D01*
X114188856Y-84175123D02*
X114212666Y-84127504D01*
X114212666Y-84127504D02*
X114236475Y-84103695D01*
X114236475Y-84103695D02*
X114284094Y-84079885D01*
X114284094Y-84079885D02*
X114379332Y-84079885D01*
X114379332Y-84079885D02*
X114426951Y-84103695D01*
X114426951Y-84103695D02*
X114450761Y-84127504D01*
X114450761Y-84127504D02*
X114474570Y-84175123D01*
X113879333Y-83889409D02*
X113831714Y-83889409D01*
X113831714Y-83889409D02*
X113784095Y-83913219D01*
X113784095Y-83913219D02*
X113760285Y-83937028D01*
X113760285Y-83937028D02*
X113736476Y-83984647D01*
X113736476Y-83984647D02*
X113712666Y-84079885D01*
X113712666Y-84079885D02*
X113712666Y-84198933D01*
X113712666Y-84198933D02*
X113736476Y-84294171D01*
X113736476Y-84294171D02*
X113760285Y-84341790D01*
X113760285Y-84341790D02*
X113784095Y-84365600D01*
X113784095Y-84365600D02*
X113831714Y-84389409D01*
X113831714Y-84389409D02*
X113879333Y-84389409D01*
X113879333Y-84389409D02*
X113926952Y-84365600D01*
X113926952Y-84365600D02*
X113950761Y-84341790D01*
X113950761Y-84341790D02*
X113974571Y-84294171D01*
X113974571Y-84294171D02*
X113998380Y-84198933D01*
X113998380Y-84198933D02*
X113998380Y-84079885D01*
X113998380Y-84079885D02*
X113974571Y-83984647D01*
X113974571Y-83984647D02*
X113950761Y-83937028D01*
X113950761Y-83937028D02*
X113926952Y-83913219D01*
X113926952Y-83913219D02*
X113879333Y-83889409D01*
X113546000Y-83889409D02*
X113236476Y-83889409D01*
X113236476Y-83889409D02*
X113403143Y-84079885D01*
X113403143Y-84079885D02*
X113331714Y-84079885D01*
X113331714Y-84079885D02*
X113284095Y-84103695D01*
X113284095Y-84103695D02*
X113260286Y-84127504D01*
X113260286Y-84127504D02*
X113236476Y-84175123D01*
X113236476Y-84175123D02*
X113236476Y-84294171D01*
X113236476Y-84294171D02*
X113260286Y-84341790D01*
X113260286Y-84341790D02*
X113284095Y-84365600D01*
X113284095Y-84365600D02*
X113331714Y-84389409D01*
X113331714Y-84389409D02*
X113474571Y-84389409D01*
X113474571Y-84389409D02*
X113522190Y-84365600D01*
X113522190Y-84365600D02*
X113546000Y-84341790D01*
X150248856Y-83889409D02*
X150248856Y-84246552D01*
X150248856Y-84246552D02*
X150272665Y-84317980D01*
X150272665Y-84317980D02*
X150320284Y-84365600D01*
X150320284Y-84365600D02*
X150391713Y-84389409D01*
X150391713Y-84389409D02*
X150439332Y-84389409D01*
X149939332Y-84103695D02*
X149986951Y-84079885D01*
X149986951Y-84079885D02*
X150010761Y-84056076D01*
X150010761Y-84056076D02*
X150034570Y-84008457D01*
X150034570Y-84008457D02*
X150034570Y-83984647D01*
X150034570Y-83984647D02*
X150010761Y-83937028D01*
X150010761Y-83937028D02*
X149986951Y-83913219D01*
X149986951Y-83913219D02*
X149939332Y-83889409D01*
X149939332Y-83889409D02*
X149844094Y-83889409D01*
X149844094Y-83889409D02*
X149796475Y-83913219D01*
X149796475Y-83913219D02*
X149772666Y-83937028D01*
X149772666Y-83937028D02*
X149748856Y-83984647D01*
X149748856Y-83984647D02*
X149748856Y-84008457D01*
X149748856Y-84008457D02*
X149772666Y-84056076D01*
X149772666Y-84056076D02*
X149796475Y-84079885D01*
X149796475Y-84079885D02*
X149844094Y-84103695D01*
X149844094Y-84103695D02*
X149939332Y-84103695D01*
X149939332Y-84103695D02*
X149986951Y-84127504D01*
X149986951Y-84127504D02*
X150010761Y-84151314D01*
X150010761Y-84151314D02*
X150034570Y-84198933D01*
X150034570Y-84198933D02*
X150034570Y-84294171D01*
X150034570Y-84294171D02*
X150010761Y-84341790D01*
X150010761Y-84341790D02*
X149986951Y-84365600D01*
X149986951Y-84365600D02*
X149939332Y-84389409D01*
X149939332Y-84389409D02*
X149844094Y-84389409D01*
X149844094Y-84389409D02*
X149796475Y-84365600D01*
X149796475Y-84365600D02*
X149772666Y-84341790D01*
X149772666Y-84341790D02*
X149748856Y-84294171D01*
X149748856Y-84294171D02*
X149748856Y-84198933D01*
X149748856Y-84198933D02*
X149772666Y-84151314D01*
X149772666Y-84151314D02*
X149796475Y-84127504D01*
X149796475Y-84127504D02*
X149844094Y-84103695D01*
X149439333Y-83889409D02*
X149391714Y-83889409D01*
X149391714Y-83889409D02*
X149344095Y-83913219D01*
X149344095Y-83913219D02*
X149320285Y-83937028D01*
X149320285Y-83937028D02*
X149296476Y-83984647D01*
X149296476Y-83984647D02*
X149272666Y-84079885D01*
X149272666Y-84079885D02*
X149272666Y-84198933D01*
X149272666Y-84198933D02*
X149296476Y-84294171D01*
X149296476Y-84294171D02*
X149320285Y-84341790D01*
X149320285Y-84341790D02*
X149344095Y-84365600D01*
X149344095Y-84365600D02*
X149391714Y-84389409D01*
X149391714Y-84389409D02*
X149439333Y-84389409D01*
X149439333Y-84389409D02*
X149486952Y-84365600D01*
X149486952Y-84365600D02*
X149510761Y-84341790D01*
X149510761Y-84341790D02*
X149534571Y-84294171D01*
X149534571Y-84294171D02*
X149558380Y-84198933D01*
X149558380Y-84198933D02*
X149558380Y-84079885D01*
X149558380Y-84079885D02*
X149534571Y-83984647D01*
X149534571Y-83984647D02*
X149510761Y-83937028D01*
X149510761Y-83937028D02*
X149486952Y-83913219D01*
X149486952Y-83913219D02*
X149439333Y-83889409D01*
X149082190Y-83937028D02*
X149058381Y-83913219D01*
X149058381Y-83913219D02*
X149010762Y-83889409D01*
X149010762Y-83889409D02*
X148891714Y-83889409D01*
X148891714Y-83889409D02*
X148844095Y-83913219D01*
X148844095Y-83913219D02*
X148820286Y-83937028D01*
X148820286Y-83937028D02*
X148796476Y-83984647D01*
X148796476Y-83984647D02*
X148796476Y-84032266D01*
X148796476Y-84032266D02*
X148820286Y-84103695D01*
X148820286Y-84103695D02*
X149106000Y-84389409D01*
X149106000Y-84389409D02*
X148796476Y-84389409D01*
X145168856Y-83889409D02*
X145168856Y-84246552D01*
X145168856Y-84246552D02*
X145192665Y-84317980D01*
X145192665Y-84317980D02*
X145240284Y-84365600D01*
X145240284Y-84365600D02*
X145311713Y-84389409D01*
X145311713Y-84389409D02*
X145359332Y-84389409D01*
X144859332Y-84103695D02*
X144906951Y-84079885D01*
X144906951Y-84079885D02*
X144930761Y-84056076D01*
X144930761Y-84056076D02*
X144954570Y-84008457D01*
X144954570Y-84008457D02*
X144954570Y-83984647D01*
X144954570Y-83984647D02*
X144930761Y-83937028D01*
X144930761Y-83937028D02*
X144906951Y-83913219D01*
X144906951Y-83913219D02*
X144859332Y-83889409D01*
X144859332Y-83889409D02*
X144764094Y-83889409D01*
X144764094Y-83889409D02*
X144716475Y-83913219D01*
X144716475Y-83913219D02*
X144692666Y-83937028D01*
X144692666Y-83937028D02*
X144668856Y-83984647D01*
X144668856Y-83984647D02*
X144668856Y-84008457D01*
X144668856Y-84008457D02*
X144692666Y-84056076D01*
X144692666Y-84056076D02*
X144716475Y-84079885D01*
X144716475Y-84079885D02*
X144764094Y-84103695D01*
X144764094Y-84103695D02*
X144859332Y-84103695D01*
X144859332Y-84103695D02*
X144906951Y-84127504D01*
X144906951Y-84127504D02*
X144930761Y-84151314D01*
X144930761Y-84151314D02*
X144954570Y-84198933D01*
X144954570Y-84198933D02*
X144954570Y-84294171D01*
X144954570Y-84294171D02*
X144930761Y-84341790D01*
X144930761Y-84341790D02*
X144906951Y-84365600D01*
X144906951Y-84365600D02*
X144859332Y-84389409D01*
X144859332Y-84389409D02*
X144764094Y-84389409D01*
X144764094Y-84389409D02*
X144716475Y-84365600D01*
X144716475Y-84365600D02*
X144692666Y-84341790D01*
X144692666Y-84341790D02*
X144668856Y-84294171D01*
X144668856Y-84294171D02*
X144668856Y-84198933D01*
X144668856Y-84198933D02*
X144692666Y-84151314D01*
X144692666Y-84151314D02*
X144716475Y-84127504D01*
X144716475Y-84127504D02*
X144764094Y-84103695D01*
X144359333Y-83889409D02*
X144311714Y-83889409D01*
X144311714Y-83889409D02*
X144264095Y-83913219D01*
X144264095Y-83913219D02*
X144240285Y-83937028D01*
X144240285Y-83937028D02*
X144216476Y-83984647D01*
X144216476Y-83984647D02*
X144192666Y-84079885D01*
X144192666Y-84079885D02*
X144192666Y-84198933D01*
X144192666Y-84198933D02*
X144216476Y-84294171D01*
X144216476Y-84294171D02*
X144240285Y-84341790D01*
X144240285Y-84341790D02*
X144264095Y-84365600D01*
X144264095Y-84365600D02*
X144311714Y-84389409D01*
X144311714Y-84389409D02*
X144359333Y-84389409D01*
X144359333Y-84389409D02*
X144406952Y-84365600D01*
X144406952Y-84365600D02*
X144430761Y-84341790D01*
X144430761Y-84341790D02*
X144454571Y-84294171D01*
X144454571Y-84294171D02*
X144478380Y-84198933D01*
X144478380Y-84198933D02*
X144478380Y-84079885D01*
X144478380Y-84079885D02*
X144454571Y-83984647D01*
X144454571Y-83984647D02*
X144430761Y-83937028D01*
X144430761Y-83937028D02*
X144406952Y-83913219D01*
X144406952Y-83913219D02*
X144359333Y-83889409D01*
X144026000Y-83889409D02*
X143716476Y-83889409D01*
X143716476Y-83889409D02*
X143883143Y-84079885D01*
X143883143Y-84079885D02*
X143811714Y-84079885D01*
X143811714Y-84079885D02*
X143764095Y-84103695D01*
X143764095Y-84103695D02*
X143740286Y-84127504D01*
X143740286Y-84127504D02*
X143716476Y-84175123D01*
X143716476Y-84175123D02*
X143716476Y-84294171D01*
X143716476Y-84294171D02*
X143740286Y-84341790D01*
X143740286Y-84341790D02*
X143764095Y-84365600D01*
X143764095Y-84365600D02*
X143811714Y-84389409D01*
X143811714Y-84389409D02*
X143954571Y-84389409D01*
X143954571Y-84389409D02*
X144002190Y-84365600D01*
X144002190Y-84365600D02*
X144026000Y-84341790D01*
X164457143Y-120453590D02*
X164457143Y-120096447D01*
X164457143Y-120096447D02*
X164433334Y-120025019D01*
X164433334Y-120025019D02*
X164385715Y-119977400D01*
X164385715Y-119977400D02*
X164314286Y-119953590D01*
X164314286Y-119953590D02*
X164266667Y-119953590D01*
X164671429Y-120405971D02*
X164695238Y-120429780D01*
X164695238Y-120429780D02*
X164742857Y-120453590D01*
X164742857Y-120453590D02*
X164861905Y-120453590D01*
X164861905Y-120453590D02*
X164909524Y-120429780D01*
X164909524Y-120429780D02*
X164933333Y-120405971D01*
X164933333Y-120405971D02*
X164957143Y-120358352D01*
X164957143Y-120358352D02*
X164957143Y-120310733D01*
X164957143Y-120310733D02*
X164933333Y-120239304D01*
X164933333Y-120239304D02*
X164647619Y-119953590D01*
X164647619Y-119953590D02*
X164957143Y-119953590D01*
X165266666Y-120453590D02*
X165314285Y-120453590D01*
X165314285Y-120453590D02*
X165361904Y-120429780D01*
X165361904Y-120429780D02*
X165385714Y-120405971D01*
X165385714Y-120405971D02*
X165409523Y-120358352D01*
X165409523Y-120358352D02*
X165433333Y-120263114D01*
X165433333Y-120263114D02*
X165433333Y-120144066D01*
X165433333Y-120144066D02*
X165409523Y-120048828D01*
X165409523Y-120048828D02*
X165385714Y-120001209D01*
X165385714Y-120001209D02*
X165361904Y-119977400D01*
X165361904Y-119977400D02*
X165314285Y-119953590D01*
X165314285Y-119953590D02*
X165266666Y-119953590D01*
X165266666Y-119953590D02*
X165219047Y-119977400D01*
X165219047Y-119977400D02*
X165195238Y-120001209D01*
X165195238Y-120001209D02*
X165171428Y-120048828D01*
X165171428Y-120048828D02*
X165147619Y-120144066D01*
X165147619Y-120144066D02*
X165147619Y-120263114D01*
X165147619Y-120263114D02*
X165171428Y-120358352D01*
X165171428Y-120358352D02*
X165195238Y-120405971D01*
X165195238Y-120405971D02*
X165219047Y-120429780D01*
X165219047Y-120429780D02*
X165266666Y-120453590D01*
X165623809Y-120405971D02*
X165647618Y-120429780D01*
X165647618Y-120429780D02*
X165695237Y-120453590D01*
X165695237Y-120453590D02*
X165814285Y-120453590D01*
X165814285Y-120453590D02*
X165861904Y-120429780D01*
X165861904Y-120429780D02*
X165885713Y-120405971D01*
X165885713Y-120405971D02*
X165909523Y-120358352D01*
X165909523Y-120358352D02*
X165909523Y-120310733D01*
X165909523Y-120310733D02*
X165885713Y-120239304D01*
X165885713Y-120239304D02*
X165599999Y-119953590D01*
X165599999Y-119953590D02*
X165909523Y-119953590D01*
X123944143Y-120453590D02*
X123944143Y-120096447D01*
X123944143Y-120096447D02*
X123920334Y-120025019D01*
X123920334Y-120025019D02*
X123872715Y-119977400D01*
X123872715Y-119977400D02*
X123801286Y-119953590D01*
X123801286Y-119953590D02*
X123753667Y-119953590D01*
X124420333Y-120453590D02*
X124182238Y-120453590D01*
X124182238Y-120453590D02*
X124158429Y-120215495D01*
X124158429Y-120215495D02*
X124182238Y-120239304D01*
X124182238Y-120239304D02*
X124229857Y-120263114D01*
X124229857Y-120263114D02*
X124348905Y-120263114D01*
X124348905Y-120263114D02*
X124396524Y-120239304D01*
X124396524Y-120239304D02*
X124420333Y-120215495D01*
X124420333Y-120215495D02*
X124444143Y-120167876D01*
X124444143Y-120167876D02*
X124444143Y-120048828D01*
X124444143Y-120048828D02*
X124420333Y-120001209D01*
X124420333Y-120001209D02*
X124396524Y-119977400D01*
X124396524Y-119977400D02*
X124348905Y-119953590D01*
X124348905Y-119953590D02*
X124229857Y-119953590D01*
X124229857Y-119953590D02*
X124182238Y-119977400D01*
X124182238Y-119977400D02*
X124158429Y-120001209D01*
X124753666Y-120453590D02*
X124801285Y-120453590D01*
X124801285Y-120453590D02*
X124848904Y-120429780D01*
X124848904Y-120429780D02*
X124872714Y-120405971D01*
X124872714Y-120405971D02*
X124896523Y-120358352D01*
X124896523Y-120358352D02*
X124920333Y-120263114D01*
X124920333Y-120263114D02*
X124920333Y-120144066D01*
X124920333Y-120144066D02*
X124896523Y-120048828D01*
X124896523Y-120048828D02*
X124872714Y-120001209D01*
X124872714Y-120001209D02*
X124848904Y-119977400D01*
X124848904Y-119977400D02*
X124801285Y-119953590D01*
X124801285Y-119953590D02*
X124753666Y-119953590D01*
X124753666Y-119953590D02*
X124706047Y-119977400D01*
X124706047Y-119977400D02*
X124682238Y-120001209D01*
X124682238Y-120001209D02*
X124658428Y-120048828D01*
X124658428Y-120048828D02*
X124634619Y-120144066D01*
X124634619Y-120144066D02*
X124634619Y-120263114D01*
X124634619Y-120263114D02*
X124658428Y-120358352D01*
X124658428Y-120358352D02*
X124682238Y-120405971D01*
X124682238Y-120405971D02*
X124706047Y-120429780D01*
X124706047Y-120429780D02*
X124753666Y-120453590D01*
X125086999Y-120453590D02*
X125396523Y-120453590D01*
X125396523Y-120453590D02*
X125229856Y-120263114D01*
X125229856Y-120263114D02*
X125301285Y-120263114D01*
X125301285Y-120263114D02*
X125348904Y-120239304D01*
X125348904Y-120239304D02*
X125372713Y-120215495D01*
X125372713Y-120215495D02*
X125396523Y-120167876D01*
X125396523Y-120167876D02*
X125396523Y-120048828D01*
X125396523Y-120048828D02*
X125372713Y-120001209D01*
X125372713Y-120001209D02*
X125348904Y-119977400D01*
X125348904Y-119977400D02*
X125301285Y-119953590D01*
X125301285Y-119953590D02*
X125158428Y-119953590D01*
X125158428Y-119953590D02*
X125110809Y-119977400D01*
X125110809Y-119977400D02*
X125086999Y-120001209D01*
X119768856Y-83889409D02*
X119768856Y-84246552D01*
X119768856Y-84246552D02*
X119792665Y-84317980D01*
X119792665Y-84317980D02*
X119840284Y-84365600D01*
X119840284Y-84365600D02*
X119911713Y-84389409D01*
X119911713Y-84389409D02*
X119959332Y-84389409D01*
X119316475Y-83889409D02*
X119411713Y-83889409D01*
X119411713Y-83889409D02*
X119459332Y-83913219D01*
X119459332Y-83913219D02*
X119483142Y-83937028D01*
X119483142Y-83937028D02*
X119530761Y-84008457D01*
X119530761Y-84008457D02*
X119554570Y-84103695D01*
X119554570Y-84103695D02*
X119554570Y-84294171D01*
X119554570Y-84294171D02*
X119530761Y-84341790D01*
X119530761Y-84341790D02*
X119506951Y-84365600D01*
X119506951Y-84365600D02*
X119459332Y-84389409D01*
X119459332Y-84389409D02*
X119364094Y-84389409D01*
X119364094Y-84389409D02*
X119316475Y-84365600D01*
X119316475Y-84365600D02*
X119292666Y-84341790D01*
X119292666Y-84341790D02*
X119268856Y-84294171D01*
X119268856Y-84294171D02*
X119268856Y-84175123D01*
X119268856Y-84175123D02*
X119292666Y-84127504D01*
X119292666Y-84127504D02*
X119316475Y-84103695D01*
X119316475Y-84103695D02*
X119364094Y-84079885D01*
X119364094Y-84079885D02*
X119459332Y-84079885D01*
X119459332Y-84079885D02*
X119506951Y-84103695D01*
X119506951Y-84103695D02*
X119530761Y-84127504D01*
X119530761Y-84127504D02*
X119554570Y-84175123D01*
X118959333Y-83889409D02*
X118911714Y-83889409D01*
X118911714Y-83889409D02*
X118864095Y-83913219D01*
X118864095Y-83913219D02*
X118840285Y-83937028D01*
X118840285Y-83937028D02*
X118816476Y-83984647D01*
X118816476Y-83984647D02*
X118792666Y-84079885D01*
X118792666Y-84079885D02*
X118792666Y-84198933D01*
X118792666Y-84198933D02*
X118816476Y-84294171D01*
X118816476Y-84294171D02*
X118840285Y-84341790D01*
X118840285Y-84341790D02*
X118864095Y-84365600D01*
X118864095Y-84365600D02*
X118911714Y-84389409D01*
X118911714Y-84389409D02*
X118959333Y-84389409D01*
X118959333Y-84389409D02*
X119006952Y-84365600D01*
X119006952Y-84365600D02*
X119030761Y-84341790D01*
X119030761Y-84341790D02*
X119054571Y-84294171D01*
X119054571Y-84294171D02*
X119078380Y-84198933D01*
X119078380Y-84198933D02*
X119078380Y-84079885D01*
X119078380Y-84079885D02*
X119054571Y-83984647D01*
X119054571Y-83984647D02*
X119030761Y-83937028D01*
X119030761Y-83937028D02*
X119006952Y-83913219D01*
X119006952Y-83913219D02*
X118959333Y-83889409D01*
X118602190Y-83937028D02*
X118578381Y-83913219D01*
X118578381Y-83913219D02*
X118530762Y-83889409D01*
X118530762Y-83889409D02*
X118411714Y-83889409D01*
X118411714Y-83889409D02*
X118364095Y-83913219D01*
X118364095Y-83913219D02*
X118340286Y-83937028D01*
X118340286Y-83937028D02*
X118316476Y-83984647D01*
X118316476Y-83984647D02*
X118316476Y-84032266D01*
X118316476Y-84032266D02*
X118340286Y-84103695D01*
X118340286Y-84103695D02*
X118626000Y-84389409D01*
X118626000Y-84389409D02*
X118316476Y-84389409D01*
X134104143Y-120453590D02*
X134104143Y-120096447D01*
X134104143Y-120096447D02*
X134080334Y-120025019D01*
X134080334Y-120025019D02*
X134032715Y-119977400D01*
X134032715Y-119977400D02*
X133961286Y-119953590D01*
X133961286Y-119953590D02*
X133913667Y-119953590D01*
X134556524Y-120286923D02*
X134556524Y-119953590D01*
X134437476Y-120477400D02*
X134318429Y-120120257D01*
X134318429Y-120120257D02*
X134627952Y-120120257D01*
X134913666Y-120453590D02*
X134961285Y-120453590D01*
X134961285Y-120453590D02*
X135008904Y-120429780D01*
X135008904Y-120429780D02*
X135032714Y-120405971D01*
X135032714Y-120405971D02*
X135056523Y-120358352D01*
X135056523Y-120358352D02*
X135080333Y-120263114D01*
X135080333Y-120263114D02*
X135080333Y-120144066D01*
X135080333Y-120144066D02*
X135056523Y-120048828D01*
X135056523Y-120048828D02*
X135032714Y-120001209D01*
X135032714Y-120001209D02*
X135008904Y-119977400D01*
X135008904Y-119977400D02*
X134961285Y-119953590D01*
X134961285Y-119953590D02*
X134913666Y-119953590D01*
X134913666Y-119953590D02*
X134866047Y-119977400D01*
X134866047Y-119977400D02*
X134842238Y-120001209D01*
X134842238Y-120001209D02*
X134818428Y-120048828D01*
X134818428Y-120048828D02*
X134794619Y-120144066D01*
X134794619Y-120144066D02*
X134794619Y-120263114D01*
X134794619Y-120263114D02*
X134818428Y-120358352D01*
X134818428Y-120358352D02*
X134842238Y-120405971D01*
X134842238Y-120405971D02*
X134866047Y-120429780D01*
X134866047Y-120429780D02*
X134913666Y-120453590D01*
X135270809Y-120405971D02*
X135294618Y-120429780D01*
X135294618Y-120429780D02*
X135342237Y-120453590D01*
X135342237Y-120453590D02*
X135461285Y-120453590D01*
X135461285Y-120453590D02*
X135508904Y-120429780D01*
X135508904Y-120429780D02*
X135532713Y-120405971D01*
X135532713Y-120405971D02*
X135556523Y-120358352D01*
X135556523Y-120358352D02*
X135556523Y-120310733D01*
X135556523Y-120310733D02*
X135532713Y-120239304D01*
X135532713Y-120239304D02*
X135246999Y-119953590D01*
X135246999Y-119953590D02*
X135556523Y-119953590D01*
X113784143Y-120453590D02*
X113784143Y-120096447D01*
X113784143Y-120096447D02*
X113760334Y-120025019D01*
X113760334Y-120025019D02*
X113712715Y-119977400D01*
X113712715Y-119977400D02*
X113641286Y-119953590D01*
X113641286Y-119953590D02*
X113593667Y-119953590D01*
X114260333Y-120453590D02*
X114022238Y-120453590D01*
X114022238Y-120453590D02*
X113998429Y-120215495D01*
X113998429Y-120215495D02*
X114022238Y-120239304D01*
X114022238Y-120239304D02*
X114069857Y-120263114D01*
X114069857Y-120263114D02*
X114188905Y-120263114D01*
X114188905Y-120263114D02*
X114236524Y-120239304D01*
X114236524Y-120239304D02*
X114260333Y-120215495D01*
X114260333Y-120215495D02*
X114284143Y-120167876D01*
X114284143Y-120167876D02*
X114284143Y-120048828D01*
X114284143Y-120048828D02*
X114260333Y-120001209D01*
X114260333Y-120001209D02*
X114236524Y-119977400D01*
X114236524Y-119977400D02*
X114188905Y-119953590D01*
X114188905Y-119953590D02*
X114069857Y-119953590D01*
X114069857Y-119953590D02*
X114022238Y-119977400D01*
X114022238Y-119977400D02*
X113998429Y-120001209D01*
X114593666Y-120453590D02*
X114641285Y-120453590D01*
X114641285Y-120453590D02*
X114688904Y-120429780D01*
X114688904Y-120429780D02*
X114712714Y-120405971D01*
X114712714Y-120405971D02*
X114736523Y-120358352D01*
X114736523Y-120358352D02*
X114760333Y-120263114D01*
X114760333Y-120263114D02*
X114760333Y-120144066D01*
X114760333Y-120144066D02*
X114736523Y-120048828D01*
X114736523Y-120048828D02*
X114712714Y-120001209D01*
X114712714Y-120001209D02*
X114688904Y-119977400D01*
X114688904Y-119977400D02*
X114641285Y-119953590D01*
X114641285Y-119953590D02*
X114593666Y-119953590D01*
X114593666Y-119953590D02*
X114546047Y-119977400D01*
X114546047Y-119977400D02*
X114522238Y-120001209D01*
X114522238Y-120001209D02*
X114498428Y-120048828D01*
X114498428Y-120048828D02*
X114474619Y-120144066D01*
X114474619Y-120144066D02*
X114474619Y-120263114D01*
X114474619Y-120263114D02*
X114498428Y-120358352D01*
X114498428Y-120358352D02*
X114522238Y-120405971D01*
X114522238Y-120405971D02*
X114546047Y-120429780D01*
X114546047Y-120429780D02*
X114593666Y-120453590D01*
X115236523Y-119953590D02*
X114950809Y-119953590D01*
X115093666Y-119953590D02*
X115093666Y-120453590D01*
X115093666Y-120453590D02*
X115046047Y-120382161D01*
X115046047Y-120382161D02*
X114998428Y-120334542D01*
X114998428Y-120334542D02*
X114950809Y-120310733D01*
X165488856Y-83889409D02*
X165488856Y-84246552D01*
X165488856Y-84246552D02*
X165512665Y-84317980D01*
X165512665Y-84317980D02*
X165560284Y-84365600D01*
X165560284Y-84365600D02*
X165631713Y-84389409D01*
X165631713Y-84389409D02*
X165679332Y-84389409D01*
X165226951Y-84389409D02*
X165131713Y-84389409D01*
X165131713Y-84389409D02*
X165084094Y-84365600D01*
X165084094Y-84365600D02*
X165060285Y-84341790D01*
X165060285Y-84341790D02*
X165012666Y-84270361D01*
X165012666Y-84270361D02*
X164988856Y-84175123D01*
X164988856Y-84175123D02*
X164988856Y-83984647D01*
X164988856Y-83984647D02*
X165012666Y-83937028D01*
X165012666Y-83937028D02*
X165036475Y-83913219D01*
X165036475Y-83913219D02*
X165084094Y-83889409D01*
X165084094Y-83889409D02*
X165179332Y-83889409D01*
X165179332Y-83889409D02*
X165226951Y-83913219D01*
X165226951Y-83913219D02*
X165250761Y-83937028D01*
X165250761Y-83937028D02*
X165274570Y-83984647D01*
X165274570Y-83984647D02*
X165274570Y-84103695D01*
X165274570Y-84103695D02*
X165250761Y-84151314D01*
X165250761Y-84151314D02*
X165226951Y-84175123D01*
X165226951Y-84175123D02*
X165179332Y-84198933D01*
X165179332Y-84198933D02*
X165084094Y-84198933D01*
X165084094Y-84198933D02*
X165036475Y-84175123D01*
X165036475Y-84175123D02*
X165012666Y-84151314D01*
X165012666Y-84151314D02*
X164988856Y-84103695D01*
X164679333Y-83889409D02*
X164631714Y-83889409D01*
X164631714Y-83889409D02*
X164584095Y-83913219D01*
X164584095Y-83913219D02*
X164560285Y-83937028D01*
X164560285Y-83937028D02*
X164536476Y-83984647D01*
X164536476Y-83984647D02*
X164512666Y-84079885D01*
X164512666Y-84079885D02*
X164512666Y-84198933D01*
X164512666Y-84198933D02*
X164536476Y-84294171D01*
X164536476Y-84294171D02*
X164560285Y-84341790D01*
X164560285Y-84341790D02*
X164584095Y-84365600D01*
X164584095Y-84365600D02*
X164631714Y-84389409D01*
X164631714Y-84389409D02*
X164679333Y-84389409D01*
X164679333Y-84389409D02*
X164726952Y-84365600D01*
X164726952Y-84365600D02*
X164750761Y-84341790D01*
X164750761Y-84341790D02*
X164774571Y-84294171D01*
X164774571Y-84294171D02*
X164798380Y-84198933D01*
X164798380Y-84198933D02*
X164798380Y-84079885D01*
X164798380Y-84079885D02*
X164774571Y-83984647D01*
X164774571Y-83984647D02*
X164750761Y-83937028D01*
X164750761Y-83937028D02*
X164726952Y-83913219D01*
X164726952Y-83913219D02*
X164679333Y-83889409D01*
X164322190Y-83937028D02*
X164298381Y-83913219D01*
X164298381Y-83913219D02*
X164250762Y-83889409D01*
X164250762Y-83889409D02*
X164131714Y-83889409D01*
X164131714Y-83889409D02*
X164084095Y-83913219D01*
X164084095Y-83913219D02*
X164060286Y-83937028D01*
X164060286Y-83937028D02*
X164036476Y-83984647D01*
X164036476Y-83984647D02*
X164036476Y-84032266D01*
X164036476Y-84032266D02*
X164060286Y-84103695D01*
X164060286Y-84103695D02*
X164346000Y-84389409D01*
X164346000Y-84389409D02*
X164036476Y-84389409D01*
X118864143Y-120453590D02*
X118864143Y-120096447D01*
X118864143Y-120096447D02*
X118840334Y-120025019D01*
X118840334Y-120025019D02*
X118792715Y-119977400D01*
X118792715Y-119977400D02*
X118721286Y-119953590D01*
X118721286Y-119953590D02*
X118673667Y-119953590D01*
X119340333Y-120453590D02*
X119102238Y-120453590D01*
X119102238Y-120453590D02*
X119078429Y-120215495D01*
X119078429Y-120215495D02*
X119102238Y-120239304D01*
X119102238Y-120239304D02*
X119149857Y-120263114D01*
X119149857Y-120263114D02*
X119268905Y-120263114D01*
X119268905Y-120263114D02*
X119316524Y-120239304D01*
X119316524Y-120239304D02*
X119340333Y-120215495D01*
X119340333Y-120215495D02*
X119364143Y-120167876D01*
X119364143Y-120167876D02*
X119364143Y-120048828D01*
X119364143Y-120048828D02*
X119340333Y-120001209D01*
X119340333Y-120001209D02*
X119316524Y-119977400D01*
X119316524Y-119977400D02*
X119268905Y-119953590D01*
X119268905Y-119953590D02*
X119149857Y-119953590D01*
X119149857Y-119953590D02*
X119102238Y-119977400D01*
X119102238Y-119977400D02*
X119078429Y-120001209D01*
X119673666Y-120453590D02*
X119721285Y-120453590D01*
X119721285Y-120453590D02*
X119768904Y-120429780D01*
X119768904Y-120429780D02*
X119792714Y-120405971D01*
X119792714Y-120405971D02*
X119816523Y-120358352D01*
X119816523Y-120358352D02*
X119840333Y-120263114D01*
X119840333Y-120263114D02*
X119840333Y-120144066D01*
X119840333Y-120144066D02*
X119816523Y-120048828D01*
X119816523Y-120048828D02*
X119792714Y-120001209D01*
X119792714Y-120001209D02*
X119768904Y-119977400D01*
X119768904Y-119977400D02*
X119721285Y-119953590D01*
X119721285Y-119953590D02*
X119673666Y-119953590D01*
X119673666Y-119953590D02*
X119626047Y-119977400D01*
X119626047Y-119977400D02*
X119602238Y-120001209D01*
X119602238Y-120001209D02*
X119578428Y-120048828D01*
X119578428Y-120048828D02*
X119554619Y-120144066D01*
X119554619Y-120144066D02*
X119554619Y-120263114D01*
X119554619Y-120263114D02*
X119578428Y-120358352D01*
X119578428Y-120358352D02*
X119602238Y-120405971D01*
X119602238Y-120405971D02*
X119626047Y-120429780D01*
X119626047Y-120429780D02*
X119673666Y-120453590D01*
X120030809Y-120405971D02*
X120054618Y-120429780D01*
X120054618Y-120429780D02*
X120102237Y-120453590D01*
X120102237Y-120453590D02*
X120221285Y-120453590D01*
X120221285Y-120453590D02*
X120268904Y-120429780D01*
X120268904Y-120429780D02*
X120292713Y-120405971D01*
X120292713Y-120405971D02*
X120316523Y-120358352D01*
X120316523Y-120358352D02*
X120316523Y-120310733D01*
X120316523Y-120310733D02*
X120292713Y-120239304D01*
X120292713Y-120239304D02*
X120006999Y-119953590D01*
X120006999Y-119953590D02*
X120316523Y-119953590D01*
X159377143Y-120453590D02*
X159377143Y-120096447D01*
X159377143Y-120096447D02*
X159353334Y-120025019D01*
X159353334Y-120025019D02*
X159305715Y-119977400D01*
X159305715Y-119977400D02*
X159234286Y-119953590D01*
X159234286Y-119953590D02*
X159186667Y-119953590D01*
X159591429Y-120405971D02*
X159615238Y-120429780D01*
X159615238Y-120429780D02*
X159662857Y-120453590D01*
X159662857Y-120453590D02*
X159781905Y-120453590D01*
X159781905Y-120453590D02*
X159829524Y-120429780D01*
X159829524Y-120429780D02*
X159853333Y-120405971D01*
X159853333Y-120405971D02*
X159877143Y-120358352D01*
X159877143Y-120358352D02*
X159877143Y-120310733D01*
X159877143Y-120310733D02*
X159853333Y-120239304D01*
X159853333Y-120239304D02*
X159567619Y-119953590D01*
X159567619Y-119953590D02*
X159877143Y-119953590D01*
X160186666Y-120453590D02*
X160234285Y-120453590D01*
X160234285Y-120453590D02*
X160281904Y-120429780D01*
X160281904Y-120429780D02*
X160305714Y-120405971D01*
X160305714Y-120405971D02*
X160329523Y-120358352D01*
X160329523Y-120358352D02*
X160353333Y-120263114D01*
X160353333Y-120263114D02*
X160353333Y-120144066D01*
X160353333Y-120144066D02*
X160329523Y-120048828D01*
X160329523Y-120048828D02*
X160305714Y-120001209D01*
X160305714Y-120001209D02*
X160281904Y-119977400D01*
X160281904Y-119977400D02*
X160234285Y-119953590D01*
X160234285Y-119953590D02*
X160186666Y-119953590D01*
X160186666Y-119953590D02*
X160139047Y-119977400D01*
X160139047Y-119977400D02*
X160115238Y-120001209D01*
X160115238Y-120001209D02*
X160091428Y-120048828D01*
X160091428Y-120048828D02*
X160067619Y-120144066D01*
X160067619Y-120144066D02*
X160067619Y-120263114D01*
X160067619Y-120263114D02*
X160091428Y-120358352D01*
X160091428Y-120358352D02*
X160115238Y-120405971D01*
X160115238Y-120405971D02*
X160139047Y-120429780D01*
X160139047Y-120429780D02*
X160186666Y-120453590D01*
X160829523Y-119953590D02*
X160543809Y-119953590D01*
X160686666Y-119953590D02*
X160686666Y-120453590D01*
X160686666Y-120453590D02*
X160639047Y-120382161D01*
X160639047Y-120382161D02*
X160591428Y-120334542D01*
X160591428Y-120334542D02*
X160543809Y-120310733D01*
X129928856Y-83889409D02*
X129928856Y-84246552D01*
X129928856Y-84246552D02*
X129952665Y-84317980D01*
X129952665Y-84317980D02*
X130000284Y-84365600D01*
X130000284Y-84365600D02*
X130071713Y-84389409D01*
X130071713Y-84389409D02*
X130119332Y-84389409D01*
X129738380Y-83889409D02*
X129405047Y-83889409D01*
X129405047Y-83889409D02*
X129619332Y-84389409D01*
X129119333Y-83889409D02*
X129071714Y-83889409D01*
X129071714Y-83889409D02*
X129024095Y-83913219D01*
X129024095Y-83913219D02*
X129000285Y-83937028D01*
X129000285Y-83937028D02*
X128976476Y-83984647D01*
X128976476Y-83984647D02*
X128952666Y-84079885D01*
X128952666Y-84079885D02*
X128952666Y-84198933D01*
X128952666Y-84198933D02*
X128976476Y-84294171D01*
X128976476Y-84294171D02*
X129000285Y-84341790D01*
X129000285Y-84341790D02*
X129024095Y-84365600D01*
X129024095Y-84365600D02*
X129071714Y-84389409D01*
X129071714Y-84389409D02*
X129119333Y-84389409D01*
X129119333Y-84389409D02*
X129166952Y-84365600D01*
X129166952Y-84365600D02*
X129190761Y-84341790D01*
X129190761Y-84341790D02*
X129214571Y-84294171D01*
X129214571Y-84294171D02*
X129238380Y-84198933D01*
X129238380Y-84198933D02*
X129238380Y-84079885D01*
X129238380Y-84079885D02*
X129214571Y-83984647D01*
X129214571Y-83984647D02*
X129190761Y-83937028D01*
X129190761Y-83937028D02*
X129166952Y-83913219D01*
X129166952Y-83913219D02*
X129119333Y-83889409D01*
X128786000Y-83889409D02*
X128476476Y-83889409D01*
X128476476Y-83889409D02*
X128643143Y-84079885D01*
X128643143Y-84079885D02*
X128571714Y-84079885D01*
X128571714Y-84079885D02*
X128524095Y-84103695D01*
X128524095Y-84103695D02*
X128500286Y-84127504D01*
X128500286Y-84127504D02*
X128476476Y-84175123D01*
X128476476Y-84175123D02*
X128476476Y-84294171D01*
X128476476Y-84294171D02*
X128500286Y-84341790D01*
X128500286Y-84341790D02*
X128524095Y-84365600D01*
X128524095Y-84365600D02*
X128571714Y-84389409D01*
X128571714Y-84389409D02*
X128714571Y-84389409D01*
X128714571Y-84389409D02*
X128762190Y-84365600D01*
X128762190Y-84365600D02*
X128786000Y-84341790D01*
X154424143Y-120453590D02*
X154424143Y-120096447D01*
X154424143Y-120096447D02*
X154400334Y-120025019D01*
X154400334Y-120025019D02*
X154352715Y-119977400D01*
X154352715Y-119977400D02*
X154281286Y-119953590D01*
X154281286Y-119953590D02*
X154233667Y-119953590D01*
X154614619Y-120453590D02*
X154924143Y-120453590D01*
X154924143Y-120453590D02*
X154757476Y-120263114D01*
X154757476Y-120263114D02*
X154828905Y-120263114D01*
X154828905Y-120263114D02*
X154876524Y-120239304D01*
X154876524Y-120239304D02*
X154900333Y-120215495D01*
X154900333Y-120215495D02*
X154924143Y-120167876D01*
X154924143Y-120167876D02*
X154924143Y-120048828D01*
X154924143Y-120048828D02*
X154900333Y-120001209D01*
X154900333Y-120001209D02*
X154876524Y-119977400D01*
X154876524Y-119977400D02*
X154828905Y-119953590D01*
X154828905Y-119953590D02*
X154686048Y-119953590D01*
X154686048Y-119953590D02*
X154638429Y-119977400D01*
X154638429Y-119977400D02*
X154614619Y-120001209D01*
X155233666Y-120453590D02*
X155281285Y-120453590D01*
X155281285Y-120453590D02*
X155328904Y-120429780D01*
X155328904Y-120429780D02*
X155352714Y-120405971D01*
X155352714Y-120405971D02*
X155376523Y-120358352D01*
X155376523Y-120358352D02*
X155400333Y-120263114D01*
X155400333Y-120263114D02*
X155400333Y-120144066D01*
X155400333Y-120144066D02*
X155376523Y-120048828D01*
X155376523Y-120048828D02*
X155352714Y-120001209D01*
X155352714Y-120001209D02*
X155328904Y-119977400D01*
X155328904Y-119977400D02*
X155281285Y-119953590D01*
X155281285Y-119953590D02*
X155233666Y-119953590D01*
X155233666Y-119953590D02*
X155186047Y-119977400D01*
X155186047Y-119977400D02*
X155162238Y-120001209D01*
X155162238Y-120001209D02*
X155138428Y-120048828D01*
X155138428Y-120048828D02*
X155114619Y-120144066D01*
X155114619Y-120144066D02*
X155114619Y-120263114D01*
X155114619Y-120263114D02*
X155138428Y-120358352D01*
X155138428Y-120358352D02*
X155162238Y-120405971D01*
X155162238Y-120405971D02*
X155186047Y-120429780D01*
X155186047Y-120429780D02*
X155233666Y-120453590D01*
X155566999Y-120453590D02*
X155876523Y-120453590D01*
X155876523Y-120453590D02*
X155709856Y-120263114D01*
X155709856Y-120263114D02*
X155781285Y-120263114D01*
X155781285Y-120263114D02*
X155828904Y-120239304D01*
X155828904Y-120239304D02*
X155852713Y-120215495D01*
X155852713Y-120215495D02*
X155876523Y-120167876D01*
X155876523Y-120167876D02*
X155876523Y-120048828D01*
X155876523Y-120048828D02*
X155852713Y-120001209D01*
X155852713Y-120001209D02*
X155828904Y-119977400D01*
X155828904Y-119977400D02*
X155781285Y-119953590D01*
X155781285Y-119953590D02*
X155638428Y-119953590D01*
X155638428Y-119953590D02*
X155590809Y-119977400D01*
X155590809Y-119977400D02*
X155566999Y-120001209D01*
X192540048Y-97261590D02*
X192540048Y-96904447D01*
X192540048Y-96904447D02*
X192516239Y-96833019D01*
X192516239Y-96833019D02*
X192468620Y-96785400D01*
X192468620Y-96785400D02*
X192397191Y-96761590D01*
X192397191Y-96761590D02*
X192349572Y-96761590D01*
X193040048Y-96761590D02*
X192754334Y-96761590D01*
X192897191Y-96761590D02*
X192897191Y-97261590D01*
X192897191Y-97261590D02*
X192849572Y-97190161D01*
X192849572Y-97190161D02*
X192801953Y-97142542D01*
X192801953Y-97142542D02*
X192754334Y-97118733D01*
X193349571Y-97261590D02*
X193397190Y-97261590D01*
X193397190Y-97261590D02*
X193444809Y-97237780D01*
X193444809Y-97237780D02*
X193468619Y-97213971D01*
X193468619Y-97213971D02*
X193492428Y-97166352D01*
X193492428Y-97166352D02*
X193516238Y-97071114D01*
X193516238Y-97071114D02*
X193516238Y-96952066D01*
X193516238Y-96952066D02*
X193492428Y-96856828D01*
X193492428Y-96856828D02*
X193468619Y-96809209D01*
X193468619Y-96809209D02*
X193444809Y-96785400D01*
X193444809Y-96785400D02*
X193397190Y-96761590D01*
X193397190Y-96761590D02*
X193349571Y-96761590D01*
X193349571Y-96761590D02*
X193301952Y-96785400D01*
X193301952Y-96785400D02*
X193278143Y-96809209D01*
X193278143Y-96809209D02*
X193254333Y-96856828D01*
X193254333Y-96856828D02*
X193230524Y-96952066D01*
X193230524Y-96952066D02*
X193230524Y-97071114D01*
X193230524Y-97071114D02*
X193254333Y-97166352D01*
X193254333Y-97166352D02*
X193278143Y-97213971D01*
X193278143Y-97213971D02*
X193301952Y-97237780D01*
X193301952Y-97237780D02*
X193349571Y-97261590D01*
X193825761Y-97261590D02*
X193873380Y-97261590D01*
X193873380Y-97261590D02*
X193920999Y-97237780D01*
X193920999Y-97237780D02*
X193944809Y-97213971D01*
X193944809Y-97213971D02*
X193968618Y-97166352D01*
X193968618Y-97166352D02*
X193992428Y-97071114D01*
X193992428Y-97071114D02*
X193992428Y-96952066D01*
X193992428Y-96952066D02*
X193968618Y-96856828D01*
X193968618Y-96856828D02*
X193944809Y-96809209D01*
X193944809Y-96809209D02*
X193920999Y-96785400D01*
X193920999Y-96785400D02*
X193873380Y-96761590D01*
X193873380Y-96761590D02*
X193825761Y-96761590D01*
X193825761Y-96761590D02*
X193778142Y-96785400D01*
X193778142Y-96785400D02*
X193754333Y-96809209D01*
X193754333Y-96809209D02*
X193730523Y-96856828D01*
X193730523Y-96856828D02*
X193706714Y-96952066D01*
X193706714Y-96952066D02*
X193706714Y-97071114D01*
X193706714Y-97071114D02*
X193730523Y-97166352D01*
X193730523Y-97166352D02*
X193754333Y-97213971D01*
X193754333Y-97213971D02*
X193778142Y-97237780D01*
X193778142Y-97237780D02*
X193825761Y-97261590D01*
X194159094Y-97261590D02*
X194468618Y-97261590D01*
X194468618Y-97261590D02*
X194301951Y-97071114D01*
X194301951Y-97071114D02*
X194373380Y-97071114D01*
X194373380Y-97071114D02*
X194420999Y-97047304D01*
X194420999Y-97047304D02*
X194444808Y-97023495D01*
X194444808Y-97023495D02*
X194468618Y-96975876D01*
X194468618Y-96975876D02*
X194468618Y-96856828D01*
X194468618Y-96856828D02*
X194444808Y-96809209D01*
X194444808Y-96809209D02*
X194420999Y-96785400D01*
X194420999Y-96785400D02*
X194373380Y-96761590D01*
X194373380Y-96761590D02*
X194230523Y-96761590D01*
X194230523Y-96761590D02*
X194182904Y-96785400D01*
X194182904Y-96785400D02*
X194159094Y-96809209D01*
X144264143Y-120453590D02*
X144264143Y-120096447D01*
X144264143Y-120096447D02*
X144240334Y-120025019D01*
X144240334Y-120025019D02*
X144192715Y-119977400D01*
X144192715Y-119977400D02*
X144121286Y-119953590D01*
X144121286Y-119953590D02*
X144073667Y-119953590D01*
X144454619Y-120453590D02*
X144764143Y-120453590D01*
X144764143Y-120453590D02*
X144597476Y-120263114D01*
X144597476Y-120263114D02*
X144668905Y-120263114D01*
X144668905Y-120263114D02*
X144716524Y-120239304D01*
X144716524Y-120239304D02*
X144740333Y-120215495D01*
X144740333Y-120215495D02*
X144764143Y-120167876D01*
X144764143Y-120167876D02*
X144764143Y-120048828D01*
X144764143Y-120048828D02*
X144740333Y-120001209D01*
X144740333Y-120001209D02*
X144716524Y-119977400D01*
X144716524Y-119977400D02*
X144668905Y-119953590D01*
X144668905Y-119953590D02*
X144526048Y-119953590D01*
X144526048Y-119953590D02*
X144478429Y-119977400D01*
X144478429Y-119977400D02*
X144454619Y-120001209D01*
X145073666Y-120453590D02*
X145121285Y-120453590D01*
X145121285Y-120453590D02*
X145168904Y-120429780D01*
X145168904Y-120429780D02*
X145192714Y-120405971D01*
X145192714Y-120405971D02*
X145216523Y-120358352D01*
X145216523Y-120358352D02*
X145240333Y-120263114D01*
X145240333Y-120263114D02*
X145240333Y-120144066D01*
X145240333Y-120144066D02*
X145216523Y-120048828D01*
X145216523Y-120048828D02*
X145192714Y-120001209D01*
X145192714Y-120001209D02*
X145168904Y-119977400D01*
X145168904Y-119977400D02*
X145121285Y-119953590D01*
X145121285Y-119953590D02*
X145073666Y-119953590D01*
X145073666Y-119953590D02*
X145026047Y-119977400D01*
X145026047Y-119977400D02*
X145002238Y-120001209D01*
X145002238Y-120001209D02*
X144978428Y-120048828D01*
X144978428Y-120048828D02*
X144954619Y-120144066D01*
X144954619Y-120144066D02*
X144954619Y-120263114D01*
X144954619Y-120263114D02*
X144978428Y-120358352D01*
X144978428Y-120358352D02*
X145002238Y-120405971D01*
X145002238Y-120405971D02*
X145026047Y-120429780D01*
X145026047Y-120429780D02*
X145073666Y-120453590D01*
X145716523Y-119953590D02*
X145430809Y-119953590D01*
X145573666Y-119953590D02*
X145573666Y-120453590D01*
X145573666Y-120453590D02*
X145526047Y-120382161D01*
X145526047Y-120382161D02*
X145478428Y-120334542D01*
X145478428Y-120334542D02*
X145430809Y-120310733D01*
X192540048Y-92181590D02*
X192540048Y-91824447D01*
X192540048Y-91824447D02*
X192516239Y-91753019D01*
X192516239Y-91753019D02*
X192468620Y-91705400D01*
X192468620Y-91705400D02*
X192397191Y-91681590D01*
X192397191Y-91681590D02*
X192349572Y-91681590D01*
X193040048Y-91681590D02*
X192754334Y-91681590D01*
X192897191Y-91681590D02*
X192897191Y-92181590D01*
X192897191Y-92181590D02*
X192849572Y-92110161D01*
X192849572Y-92110161D02*
X192801953Y-92062542D01*
X192801953Y-92062542D02*
X192754334Y-92038733D01*
X193349571Y-92181590D02*
X193397190Y-92181590D01*
X193397190Y-92181590D02*
X193444809Y-92157780D01*
X193444809Y-92157780D02*
X193468619Y-92133971D01*
X193468619Y-92133971D02*
X193492428Y-92086352D01*
X193492428Y-92086352D02*
X193516238Y-91991114D01*
X193516238Y-91991114D02*
X193516238Y-91872066D01*
X193516238Y-91872066D02*
X193492428Y-91776828D01*
X193492428Y-91776828D02*
X193468619Y-91729209D01*
X193468619Y-91729209D02*
X193444809Y-91705400D01*
X193444809Y-91705400D02*
X193397190Y-91681590D01*
X193397190Y-91681590D02*
X193349571Y-91681590D01*
X193349571Y-91681590D02*
X193301952Y-91705400D01*
X193301952Y-91705400D02*
X193278143Y-91729209D01*
X193278143Y-91729209D02*
X193254333Y-91776828D01*
X193254333Y-91776828D02*
X193230524Y-91872066D01*
X193230524Y-91872066D02*
X193230524Y-91991114D01*
X193230524Y-91991114D02*
X193254333Y-92086352D01*
X193254333Y-92086352D02*
X193278143Y-92133971D01*
X193278143Y-92133971D02*
X193301952Y-92157780D01*
X193301952Y-92157780D02*
X193349571Y-92181590D01*
X193825761Y-92181590D02*
X193873380Y-92181590D01*
X193873380Y-92181590D02*
X193920999Y-92157780D01*
X193920999Y-92157780D02*
X193944809Y-92133971D01*
X193944809Y-92133971D02*
X193968618Y-92086352D01*
X193968618Y-92086352D02*
X193992428Y-91991114D01*
X193992428Y-91991114D02*
X193992428Y-91872066D01*
X193992428Y-91872066D02*
X193968618Y-91776828D01*
X193968618Y-91776828D02*
X193944809Y-91729209D01*
X193944809Y-91729209D02*
X193920999Y-91705400D01*
X193920999Y-91705400D02*
X193873380Y-91681590D01*
X193873380Y-91681590D02*
X193825761Y-91681590D01*
X193825761Y-91681590D02*
X193778142Y-91705400D01*
X193778142Y-91705400D02*
X193754333Y-91729209D01*
X193754333Y-91729209D02*
X193730523Y-91776828D01*
X193730523Y-91776828D02*
X193706714Y-91872066D01*
X193706714Y-91872066D02*
X193706714Y-91991114D01*
X193706714Y-91991114D02*
X193730523Y-92086352D01*
X193730523Y-92086352D02*
X193754333Y-92133971D01*
X193754333Y-92133971D02*
X193778142Y-92157780D01*
X193778142Y-92157780D02*
X193825761Y-92181590D01*
X194420999Y-92014923D02*
X194420999Y-91681590D01*
X194301951Y-92205400D02*
X194182904Y-91848257D01*
X194182904Y-91848257D02*
X194492427Y-91848257D01*
X192540048Y-107421590D02*
X192540048Y-107064447D01*
X192540048Y-107064447D02*
X192516239Y-106993019D01*
X192516239Y-106993019D02*
X192468620Y-106945400D01*
X192468620Y-106945400D02*
X192397191Y-106921590D01*
X192397191Y-106921590D02*
X192349572Y-106921590D01*
X193040048Y-106921590D02*
X192754334Y-106921590D01*
X192897191Y-106921590D02*
X192897191Y-107421590D01*
X192897191Y-107421590D02*
X192849572Y-107350161D01*
X192849572Y-107350161D02*
X192801953Y-107302542D01*
X192801953Y-107302542D02*
X192754334Y-107278733D01*
X193349571Y-107421590D02*
X193397190Y-107421590D01*
X193397190Y-107421590D02*
X193444809Y-107397780D01*
X193444809Y-107397780D02*
X193468619Y-107373971D01*
X193468619Y-107373971D02*
X193492428Y-107326352D01*
X193492428Y-107326352D02*
X193516238Y-107231114D01*
X193516238Y-107231114D02*
X193516238Y-107112066D01*
X193516238Y-107112066D02*
X193492428Y-107016828D01*
X193492428Y-107016828D02*
X193468619Y-106969209D01*
X193468619Y-106969209D02*
X193444809Y-106945400D01*
X193444809Y-106945400D02*
X193397190Y-106921590D01*
X193397190Y-106921590D02*
X193349571Y-106921590D01*
X193349571Y-106921590D02*
X193301952Y-106945400D01*
X193301952Y-106945400D02*
X193278143Y-106969209D01*
X193278143Y-106969209D02*
X193254333Y-107016828D01*
X193254333Y-107016828D02*
X193230524Y-107112066D01*
X193230524Y-107112066D02*
X193230524Y-107231114D01*
X193230524Y-107231114D02*
X193254333Y-107326352D01*
X193254333Y-107326352D02*
X193278143Y-107373971D01*
X193278143Y-107373971D02*
X193301952Y-107397780D01*
X193301952Y-107397780D02*
X193349571Y-107421590D01*
X193825761Y-107421590D02*
X193873380Y-107421590D01*
X193873380Y-107421590D02*
X193920999Y-107397780D01*
X193920999Y-107397780D02*
X193944809Y-107373971D01*
X193944809Y-107373971D02*
X193968618Y-107326352D01*
X193968618Y-107326352D02*
X193992428Y-107231114D01*
X193992428Y-107231114D02*
X193992428Y-107112066D01*
X193992428Y-107112066D02*
X193968618Y-107016828D01*
X193968618Y-107016828D02*
X193944809Y-106969209D01*
X193944809Y-106969209D02*
X193920999Y-106945400D01*
X193920999Y-106945400D02*
X193873380Y-106921590D01*
X193873380Y-106921590D02*
X193825761Y-106921590D01*
X193825761Y-106921590D02*
X193778142Y-106945400D01*
X193778142Y-106945400D02*
X193754333Y-106969209D01*
X193754333Y-106969209D02*
X193730523Y-107016828D01*
X193730523Y-107016828D02*
X193706714Y-107112066D01*
X193706714Y-107112066D02*
X193706714Y-107231114D01*
X193706714Y-107231114D02*
X193730523Y-107326352D01*
X193730523Y-107326352D02*
X193754333Y-107373971D01*
X193754333Y-107373971D02*
X193778142Y-107397780D01*
X193778142Y-107397780D02*
X193825761Y-107421590D01*
X194468618Y-106921590D02*
X194182904Y-106921590D01*
X194325761Y-106921590D02*
X194325761Y-107421590D01*
X194325761Y-107421590D02*
X194278142Y-107350161D01*
X194278142Y-107350161D02*
X194230523Y-107302542D01*
X194230523Y-107302542D02*
X194182904Y-107278733D01*
%LPC*%
D11*
%TO.C,J1101*%
X167589000Y-97150000D03*
D12*
X167589000Y-102230000D03*
X167589000Y-107310000D03*
%TD*%
D11*
%TO.C,J1005*%
X180213000Y-105029000D03*
D12*
X180213000Y-99949000D03*
X180213000Y-94869000D03*
X180213000Y-89789000D03*
%TD*%
D13*
%TO.C,J1002*%
X193421000Y-99822000D03*
%TD*%
%TO.C,J702*%
X134366000Y-82042000D03*
%TD*%
%TO.C,J901*%
X169926000Y-82042000D03*
%TD*%
D14*
%TO.C,J302*%
X149987000Y-122301000D03*
%TD*%
%TO.C,J403*%
X139827000Y-122301000D03*
%TD*%
D13*
%TO.C,J903*%
X159766000Y-82042000D03*
%TD*%
%TO.C,J701*%
X139446000Y-82042000D03*
%TD*%
D14*
%TO.C,J203*%
X170180000Y-122301000D03*
%TD*%
D13*
%TO.C,J801*%
X154686000Y-82042000D03*
%TD*%
D14*
%TO.C,J401*%
X129667000Y-122301000D03*
%TD*%
D13*
%TO.C,J601*%
X124206000Y-82042000D03*
%TD*%
%TO.C,J603*%
X114046000Y-82042000D03*
%TD*%
%TO.C,J802*%
X149606000Y-82042000D03*
%TD*%
%TO.C,J803*%
X144526000Y-82042000D03*
%TD*%
D14*
%TO.C,J202*%
X165100000Y-122301000D03*
%TD*%
%TO.C,J503*%
X124587000Y-122301000D03*
%TD*%
D13*
%TO.C,J602*%
X119126000Y-82042000D03*
%TD*%
D14*
%TO.C,J402*%
X134747000Y-122301000D03*
%TD*%
%TO.C,J501*%
X114427000Y-122301000D03*
%TD*%
D13*
%TO.C,J902*%
X164846000Y-82042000D03*
%TD*%
D14*
%TO.C,J502*%
X119507000Y-122301000D03*
%TD*%
%TO.C,J201*%
X160020000Y-122301000D03*
%TD*%
D13*
%TO.C,J703*%
X129286000Y-82042000D03*
%TD*%
D14*
%TO.C,J303*%
X155067000Y-122301000D03*
%TD*%
D13*
%TO.C,J1003*%
X193421000Y-94869000D03*
%TD*%
D14*
%TO.C,J301*%
X144907000Y-122301000D03*
%TD*%
D13*
%TO.C,J1004*%
X193421000Y-89789000D03*
%TD*%
%TO.C,J1001*%
X193421000Y-105029000D03*
%TD*%
%LPD*%
M02*
