%TF.GenerationSoftware,KiCad,Pcbnew,7.0.7*%
%TF.CreationDate,2023-11-28T12:57:39+01:00*%
%TF.ProjectId,ledStrip,6c656453-7472-4697-902e-6b696361645f,rev?*%
%TF.SameCoordinates,Original*%
%TF.FileFunction,Copper,L1,Top*%
%TF.FilePolarity,Positive*%
%FSLAX46Y46*%
G04 Gerber Fmt 4.6, Leading zero omitted, Abs format (unit mm)*
G04 Created by KiCad (PCBNEW 7.0.7) date 2023-11-28 12:57:39*
%MOMM*%
%LPD*%
G01*
G04 APERTURE LIST*
G04 Aperture macros list*
%AMRoundRect*
0 Rectangle with rounded corners*
0 $1 Rounding radius*
0 $2 $3 $4 $5 $6 $7 $8 $9 X,Y pos of 4 corners*
0 Add a 4 corners polygon primitive as box body*
4,1,4,$2,$3,$4,$5,$6,$7,$8,$9,$2,$3,0*
0 Add four circle primitives for the rounded corners*
1,1,$1+$1,$2,$3*
1,1,$1+$1,$4,$5*
1,1,$1+$1,$6,$7*
1,1,$1+$1,$8,$9*
0 Add four rect primitives between the rounded corners*
20,1,$1+$1,$2,$3,$4,$5,0*
20,1,$1+$1,$4,$5,$6,$7,0*
20,1,$1+$1,$6,$7,$8,$9,0*
20,1,$1+$1,$8,$9,$2,$3,0*%
G04 Aperture macros list end*
%TA.AperFunction,SMDPad,CuDef*%
%ADD10RoundRect,0.250000X0.625000X-0.375000X0.625000X0.375000X-0.625000X0.375000X-0.625000X-0.375000X0*%
%TD*%
%TA.AperFunction,SMDPad,CuDef*%
%ADD11RoundRect,0.250000X-0.650000X0.325000X-0.650000X-0.325000X0.650000X-0.325000X0.650000X0.325000X0*%
%TD*%
%TA.AperFunction,SMDPad,CuDef*%
%ADD12RoundRect,0.112500X-0.112500X0.187500X-0.112500X-0.187500X0.112500X-0.187500X0.112500X0.187500X0*%
%TD*%
%TA.AperFunction,SMDPad,CuDef*%
%ADD13RoundRect,0.237500X-0.250000X-0.237500X0.250000X-0.237500X0.250000X0.237500X-0.250000X0.237500X0*%
%TD*%
%TA.AperFunction,SMDPad,CuDef*%
%ADD14RoundRect,0.112500X-0.187500X-0.112500X0.187500X-0.112500X0.187500X0.112500X-0.187500X0.112500X0*%
%TD*%
%TA.AperFunction,SMDPad,CuDef*%
%ADD15R,1.200000X1.200000*%
%TD*%
%TA.AperFunction,SMDPad,CuDef*%
%ADD16R,1.600000X1.500000*%
%TD*%
%TA.AperFunction,SMDPad,CuDef*%
%ADD17RoundRect,0.381000X0.762000X0.381000X-0.762000X0.381000X-0.762000X-0.381000X0.762000X-0.381000X0*%
%TD*%
%TA.AperFunction,SMDPad,CuDef*%
%ADD18RoundRect,0.112500X0.112500X-0.187500X0.112500X0.187500X-0.112500X0.187500X-0.112500X-0.187500X0*%
%TD*%
%TA.AperFunction,SMDPad,CuDef*%
%ADD19RoundRect,0.381000X-0.762000X-0.381000X0.762000X-0.381000X0.762000X0.381000X-0.762000X0.381000X0*%
%TD*%
%TA.AperFunction,SMDPad,CuDef*%
%ADD20RoundRect,0.225000X0.250000X-0.225000X0.250000X0.225000X-0.250000X0.225000X-0.250000X-0.225000X0*%
%TD*%
%TA.AperFunction,SMDPad,CuDef*%
%ADD21RoundRect,0.250000X0.350000X0.450000X-0.350000X0.450000X-0.350000X-0.450000X0.350000X-0.450000X0*%
%TD*%
%TA.AperFunction,SMDPad,CuDef*%
%ADD22RoundRect,0.250000X-0.850000X-0.350000X0.850000X-0.350000X0.850000X0.350000X-0.850000X0.350000X0*%
%TD*%
%TA.AperFunction,SMDPad,CuDef*%
%ADD23RoundRect,0.250000X-1.275000X-1.125000X1.275000X-1.125000X1.275000X1.125000X-1.275000X1.125000X0*%
%TD*%
%TA.AperFunction,SMDPad,CuDef*%
%ADD24RoundRect,0.249997X-2.950003X-2.650003X2.950003X-2.650003X2.950003X2.650003X-2.950003X2.650003X0*%
%TD*%
%TA.AperFunction,SMDPad,CuDef*%
%ADD25RoundRect,0.237500X0.250000X0.237500X-0.250000X0.237500X-0.250000X-0.237500X0.250000X-0.237500X0*%
%TD*%
%TA.AperFunction,ViaPad*%
%ADD26C,0.800000*%
%TD*%
%TA.AperFunction,ViaPad*%
%ADD27C,0.500000*%
%TD*%
%TA.AperFunction,Conductor*%
%ADD28C,0.250000*%
%TD*%
%TA.AperFunction,Conductor*%
%ADD29C,0.200000*%
%TD*%
%TA.AperFunction,Conductor*%
%ADD30C,0.300000*%
%TD*%
G04 APERTURE END LIST*
D10*
%TO.P,D7,1,K*%
%TO.N,Net-(D7-K)*%
X39000000Y-95413000D03*
%TO.P,D7,2,A*%
%TO.N,Net-(D6-K)*%
X39000000Y-92613000D03*
%TD*%
D11*
%TO.P,C8,1*%
%TO.N,Net-(D5-A)*%
X79095000Y-93025000D03*
%TO.P,C8,2*%
%TO.N,GND*%
X79095000Y-95975000D03*
%TD*%
D12*
%TO.P,D3,1,K*%
%TO.N,VCC*%
X29000000Y-95513000D03*
%TO.P,D3,2,A*%
%TO.N,AC2*%
X29000000Y-97613000D03*
%TD*%
D10*
%TO.P,D9,1,K*%
%TO.N,Net-(D10-A)*%
X71000000Y-95900000D03*
%TO.P,D9,2,A*%
%TO.N,Net-(D9-A)*%
X71000000Y-93100000D03*
%TD*%
D13*
%TO.P,R7,1*%
%TO.N,/Vled*%
X210175000Y-92500000D03*
%TO.P,R7,2*%
%TO.N,Net-(D18-A)*%
X212000000Y-92500000D03*
%TD*%
D10*
%TO.P,D20,1,K*%
%TO.N,GND*%
X247000000Y-95913000D03*
%TO.P,D20,2,A*%
%TO.N,Net-(D19-K)*%
X247000000Y-93113000D03*
%TD*%
D14*
%TO.P,D1,1,K*%
%TO.N,AC2*%
X25201000Y-95894000D03*
%TO.P,D1,2,A*%
%TO.N,GND*%
X27301000Y-95894000D03*
%TD*%
D15*
%TO.P,RV1,1,1*%
%TO.N,/Vled*%
X32744000Y-95535000D03*
D16*
%TO.P,RV1,2,2*%
X33744000Y-92285000D03*
D15*
%TO.P,RV1,3,3*%
%TO.N,Net-(R2-Pad2)*%
X34744000Y-95535000D03*
%TD*%
D11*
%TO.P,C7,1*%
%TO.N,Net-(D5-A)*%
X76682000Y-93025000D03*
%TO.P,C7,2*%
%TO.N,GND*%
X76682000Y-95975000D03*
%TD*%
D10*
%TO.P,D8,1,K*%
%TO.N,GND*%
X55000000Y-95900000D03*
%TO.P,D8,2,A*%
%TO.N,Net-(D7-K)*%
X55000000Y-93100000D03*
%TD*%
D11*
%TO.P,C9,1*%
%TO.N,Net-(D5-A)*%
X81500000Y-93025000D03*
%TO.P,C9,2*%
%TO.N,GND*%
X81500000Y-95975000D03*
%TD*%
%TO.P,C6,1*%
%TO.N,Net-(D5-A)*%
X74269000Y-93025000D03*
%TO.P,C6,2*%
%TO.N,GND*%
X74269000Y-95975000D03*
%TD*%
D17*
%TO.P,J6,1,Pin_1*%
%TO.N,GND*%
X90424000Y-96393000D03*
%TD*%
D10*
%TO.P,D22,1,K*%
%TO.N,Net-(D22-K)*%
X279000000Y-95900000D03*
%TO.P,D22,2,A*%
%TO.N,Net-(D21-K)*%
X279000000Y-93100000D03*
%TD*%
D13*
%TO.P,R8,1*%
%TO.N,/Vled*%
X258167500Y-91440000D03*
%TO.P,R8,2*%
%TO.N,Net-(D21-A)*%
X259992500Y-91440000D03*
%TD*%
D11*
%TO.P,C4,1*%
%TO.N,Net-(D5-A)*%
X65786000Y-93025000D03*
%TO.P,C4,2*%
%TO.N,GND*%
X65786000Y-95975000D03*
%TD*%
D10*
%TO.P,D10,1,K*%
%TO.N,Net-(D10-K)*%
X87000000Y-95900000D03*
%TO.P,D10,2,A*%
%TO.N,Net-(D10-A)*%
X87000000Y-93100000D03*
%TD*%
D13*
%TO.P,R6,1*%
%TO.N,/Vled*%
X162175000Y-92513000D03*
%TO.P,R6,2*%
%TO.N,Net-(D15-A)*%
X164000000Y-92513000D03*
%TD*%
D10*
%TO.P,D19,1,K*%
%TO.N,Net-(D19-K)*%
X231000000Y-95913000D03*
%TO.P,D19,2,A*%
%TO.N,Net-(D18-K)*%
X231000000Y-93113000D03*
%TD*%
%TO.P,D16,1,K*%
%TO.N,Net-(D16-K)*%
X183000000Y-95900000D03*
%TO.P,D16,2,A*%
%TO.N,Net-(D15-K)*%
X183000000Y-93100000D03*
%TD*%
D17*
%TO.P,J2,1,Pin_1*%
%TO.N,AC1*%
X20000000Y-90500000D03*
%TD*%
%TO.P,J5,1,Pin_1*%
%TO.N,Net-(D5-A)*%
X90424000Y-92837000D03*
%TD*%
D18*
%TO.P,D5,1,K*%
%TO.N,VCC*%
X58801000Y-95284000D03*
%TO.P,D5,2,A*%
%TO.N,Net-(D5-A)*%
X58801000Y-93184000D03*
%TD*%
D10*
%TO.P,D23,1,K*%
%TO.N,GND*%
X295000000Y-95900000D03*
%TO.P,D23,2,A*%
%TO.N,Net-(D22-K)*%
X295000000Y-93100000D03*
%TD*%
D19*
%TO.P,J3,1,Pin_1*%
%TO.N,AC2*%
X297000000Y-98500000D03*
%TD*%
D10*
%TO.P,D18,1,K*%
%TO.N,Net-(D18-K)*%
X215000000Y-95913000D03*
%TO.P,D18,2,A*%
%TO.N,Net-(D18-A)*%
X215000000Y-93113000D03*
%TD*%
D20*
%TO.P,C1,1*%
%TO.N,VCC*%
X30950000Y-95386000D03*
%TO.P,C1,2*%
%TO.N,GND*%
X30950000Y-93836000D03*
%TD*%
D10*
%TO.P,D13,1,K*%
%TO.N,Net-(D13-K)*%
X135000000Y-95900000D03*
%TO.P,D13,2,A*%
%TO.N,Net-(D12-K)*%
X135000000Y-93100000D03*
%TD*%
D18*
%TO.P,D4,1,K*%
%TO.N,VCC*%
X29000000Y-94113000D03*
%TO.P,D4,2,A*%
%TO.N,AC1*%
X29000000Y-92013000D03*
%TD*%
D10*
%TO.P,D12,1,K*%
%TO.N,Net-(D12-K)*%
X119000000Y-95900000D03*
%TO.P,D12,2,A*%
%TO.N,Net-(D12-A)*%
X119000000Y-93100000D03*
%TD*%
%TO.P,D21,1,K*%
%TO.N,Net-(D21-K)*%
X263000000Y-95900000D03*
%TO.P,D21,2,A*%
%TO.N,Net-(D21-A)*%
X263000000Y-93100000D03*
%TD*%
D14*
%TO.P,D2,1,K*%
%TO.N,AC1*%
X25201000Y-93763000D03*
%TO.P,D2,2,A*%
%TO.N,GND*%
X27301000Y-93763000D03*
%TD*%
D19*
%TO.P,J4,1,Pin_1*%
%TO.N,AC1*%
X297000000Y-90500000D03*
%TD*%
D10*
%TO.P,D14,1,K*%
%TO.N,GND*%
X151000000Y-95913000D03*
%TO.P,D14,2,A*%
%TO.N,Net-(D13-K)*%
X151000000Y-93113000D03*
%TD*%
D11*
%TO.P,C3,1*%
%TO.N,Net-(D5-A)*%
X63373000Y-93025000D03*
%TO.P,C3,2*%
%TO.N,GND*%
X63373000Y-95975000D03*
%TD*%
%TO.P,C5,1*%
%TO.N,Net-(D5-A)*%
X68199000Y-93025000D03*
%TO.P,C5,2*%
%TO.N,GND*%
X68199000Y-95975000D03*
%TD*%
D10*
%TO.P,D17,1,K*%
%TO.N,GND*%
X199000000Y-95913000D03*
%TO.P,D17,2,A*%
%TO.N,Net-(D16-K)*%
X199000000Y-93113000D03*
%TD*%
D13*
%TO.P,R4,1*%
%TO.N,/Vled*%
X69318500Y-91313000D03*
%TO.P,R4,2*%
%TO.N,Net-(D9-A)*%
X71143500Y-91313000D03*
%TD*%
D21*
%TO.P,R1,1*%
%TO.N,Net-(D5-A)*%
X59039000Y-97790000D03*
%TO.P,R1,2*%
%TO.N,VCC*%
X57039000Y-97790000D03*
%TD*%
D22*
%TO.P,U1,1,ADJ*%
%TO.N,/Vled*%
X43044000Y-91827000D03*
D23*
%TO.P,U1,2,VO*%
%TO.N,Net-(U1-VO)*%
X47669000Y-92582000D03*
X47669000Y-95632000D03*
D24*
X49344000Y-94107000D03*
D23*
X51019000Y-92582000D03*
X51019000Y-95632000D03*
D22*
%TO.P,U1,3,VI*%
%TO.N,VCC*%
X43044000Y-96387000D03*
%TD*%
D25*
%TO.P,R3,1*%
%TO.N,/Vled*%
X24812000Y-91207000D03*
%TO.P,R3,2*%
%TO.N,Net-(D6-A)*%
X22987000Y-91207000D03*
%TD*%
D10*
%TO.P,D15,1,K*%
%TO.N,Net-(D15-K)*%
X167000000Y-95900000D03*
%TO.P,D15,2,A*%
%TO.N,Net-(D15-A)*%
X167000000Y-93100000D03*
%TD*%
%TO.P,D6,1,K*%
%TO.N,Net-(D6-K)*%
X23000000Y-95913000D03*
%TO.P,D6,2,A*%
%TO.N,Net-(D6-A)*%
X23000000Y-93113000D03*
%TD*%
D13*
%TO.P,R5,1*%
%TO.N,/Vled*%
X114087500Y-93000000D03*
%TO.P,R5,2*%
%TO.N,Net-(D12-A)*%
X115912500Y-93000000D03*
%TD*%
D10*
%TO.P,D11,1,K*%
%TO.N,GND*%
X103000000Y-95913000D03*
%TO.P,D11,2,A*%
%TO.N,Net-(D10-K)*%
X103000000Y-93113000D03*
%TD*%
D17*
%TO.P,J1,1,Pin_1*%
%TO.N,AC2*%
X20000000Y-98500000D03*
%TD*%
D11*
%TO.P,C2,1*%
%TO.N,Net-(D5-A)*%
X60960000Y-93025000D03*
%TO.P,C2,2*%
%TO.N,GND*%
X60960000Y-95975000D03*
%TD*%
D25*
%TO.P,R2,1*%
%TO.N,Net-(U1-VO)*%
X34656500Y-97418000D03*
%TO.P,R2,2*%
%TO.N,Net-(R2-Pad2)*%
X32831500Y-97418000D03*
%TD*%
D26*
%TO.N,AC1*%
X294862320Y-90212331D03*
X21843987Y-90199655D03*
%TO.N,AC2*%
X22225000Y-98552000D03*
X294386000Y-98552000D03*
%TO.N,VCC*%
X30000000Y-95386000D03*
X46101000Y-98298000D03*
X44958000Y-97155000D03*
X33546374Y-94370689D03*
D27*
%TO.N,GND*%
X146685000Y-97536000D03*
X131826000Y-97790000D03*
X53213000Y-96647000D03*
X60833000Y-97917000D03*
X75692000Y-91313000D03*
X121666000Y-94107000D03*
X179451000Y-94996000D03*
X197231000Y-97790000D03*
X202946000Y-91694000D03*
X247142000Y-98044000D03*
X171069000Y-97536000D03*
X76454000Y-94742000D03*
X61087000Y-94488000D03*
X19685000Y-95250000D03*
X267208000Y-94488000D03*
X28956000Y-93218000D03*
X67310000Y-91440000D03*
X159004000Y-91440000D03*
X275463000Y-92075000D03*
X297180000Y-96266000D03*
X68199000Y-94361000D03*
X56515000Y-91694000D03*
X221742000Y-92583000D03*
X40767000Y-90678000D03*
X236347000Y-93472000D03*
X27432000Y-94869000D03*
X44450000Y-94742000D03*
X28829000Y-96520000D03*
X85852000Y-98171000D03*
X295021000Y-97536000D03*
X68199000Y-98171000D03*
X65786000Y-94361000D03*
X95250000Y-96774000D03*
X28067000Y-92837000D03*
X160528000Y-97409000D03*
X37846000Y-96774000D03*
X235839000Y-97790000D03*
X45212000Y-93218000D03*
X31115000Y-97028000D03*
X138303000Y-97028000D03*
X82169000Y-91694000D03*
X103632000Y-97790000D03*
X36703000Y-92710000D03*
X115570000Y-97155000D03*
X169545000Y-91821000D03*
X90424000Y-97917000D03*
X267589000Y-91567000D03*
X105791000Y-95885000D03*
X266573000Y-97663000D03*
X34290000Y-90805000D03*
X151765000Y-97790000D03*
X24511000Y-92456000D03*
X63500000Y-94615000D03*
X227584000Y-97536000D03*
X111633000Y-92329000D03*
X148717000Y-96901000D03*
X138938000Y-91059000D03*
X21590000Y-91821000D03*
X189865000Y-91821000D03*
X146812000Y-92202000D03*
X286258000Y-92456000D03*
X62230000Y-91694000D03*
X277241000Y-97536000D03*
X244983000Y-97282000D03*
X26162000Y-95758000D03*
X19685000Y-93345000D03*
X196469000Y-91440000D03*
X292862000Y-96774000D03*
X41148000Y-93345000D03*
X166624000Y-94488000D03*
X188087000Y-96901000D03*
X22098000Y-97409000D03*
X213995000Y-91440000D03*
X202692000Y-97028000D03*
X81534000Y-94742000D03*
X62992000Y-98298000D03*
X73533000Y-98298000D03*
X195199000Y-96774000D03*
X210947000Y-95631000D03*
X85852000Y-94742000D03*
X30988000Y-92456000D03*
X76454000Y-98044000D03*
X118110000Y-91440000D03*
X66040000Y-98171000D03*
X89281000Y-91313000D03*
X58547000Y-91948000D03*
X218059000Y-97536000D03*
X243586000Y-92710000D03*
X40640000Y-96647000D03*
X78994000Y-94615000D03*
X83439000Y-94869000D03*
X74295000Y-94742000D03*
X119253000Y-98044000D03*
X36068000Y-97282000D03*
X53213000Y-92583000D03*
X199009000Y-97917000D03*
X57023000Y-95123000D03*
X258826000Y-93853000D03*
X81915000Y-98044000D03*
X131953000Y-91313000D03*
X100076000Y-96266000D03*
X104902000Y-91694000D03*
X93345000Y-91821000D03*
X48768000Y-98425000D03*
X179197000Y-91186000D03*
X296926000Y-94488000D03*
X154051000Y-96393000D03*
X26289000Y-94615000D03*
X249555000Y-96266000D03*
X54991000Y-94615000D03*
X53721000Y-98425000D03*
D26*
%TO.N,Net-(D6-K)*%
X36446372Y-95655128D03*
X33655000Y-98300500D03*
%TD*%
D28*
%TO.N,Net-(D5-A)*%
X85294000Y-92150000D02*
X84500000Y-92944000D01*
X89737000Y-92150000D02*
X85294000Y-92150000D01*
X90424000Y-92837000D02*
X89737000Y-92150000D01*
%TO.N,Net-(D10-K)*%
X87000000Y-95900000D02*
X87594000Y-95306000D01*
X87594000Y-95306000D02*
X93057000Y-95306000D01*
D29*
X103000000Y-93113000D02*
X95250000Y-93113000D01*
D28*
X93057000Y-95306000D02*
X95250000Y-93113000D01*
D30*
%TO.N,AC1*%
X21843987Y-90199655D02*
X20300345Y-90199655D01*
X294862320Y-90212331D02*
X295149989Y-90500000D01*
D29*
X24926000Y-94038000D02*
X25201000Y-93763000D01*
D30*
X20300345Y-90199655D02*
X20000000Y-90500000D01*
D29*
X20000000Y-90500000D02*
X20000000Y-91890817D01*
X22147183Y-94038000D02*
X24926000Y-94038000D01*
X29000000Y-92013000D02*
X26951000Y-92013000D01*
X20000000Y-91890817D02*
X22147183Y-94038000D01*
X26951000Y-92013000D02*
X25201000Y-93763000D01*
D30*
X295149989Y-90500000D02*
X297000000Y-90500000D01*
D29*
%TO.N,AC2*%
X25201000Y-95894000D02*
X24295000Y-94988000D01*
D30*
X22225000Y-98552000D02*
X22173000Y-98500000D01*
X294386000Y-98552000D02*
X296948000Y-98552000D01*
D29*
X25201000Y-95894000D02*
X26920000Y-97613000D01*
X24295000Y-94988000D02*
X22012000Y-94988000D01*
X20000000Y-97000000D02*
X20000000Y-98500000D01*
D30*
X296948000Y-98552000D02*
X297000000Y-98500000D01*
D29*
X22012000Y-94988000D02*
X20000000Y-97000000D01*
D30*
X22173000Y-98500000D02*
X20000000Y-98500000D01*
D29*
X26920000Y-97613000D02*
X29000000Y-97613000D01*
%TO.N,Net-(D5-A)*%
X69387000Y-94025000D02*
X72997500Y-94025000D01*
X60960000Y-93025000D02*
X58960000Y-93025000D01*
X59039000Y-97790000D02*
X59326000Y-97503000D01*
X81500000Y-93025000D02*
X84419000Y-93025000D01*
X68199000Y-93025000D02*
X60960000Y-93025000D01*
X68387000Y-93025000D02*
X69387000Y-94025000D01*
X84419000Y-93025000D02*
X84500000Y-92944000D01*
X72997500Y-94025000D02*
X73997500Y-93025000D01*
X58960000Y-93025000D02*
X58801000Y-93184000D01*
X68199000Y-93025000D02*
X68387000Y-93025000D01*
X73997500Y-93025000D02*
X74269000Y-93025000D01*
X59326000Y-93709000D02*
X58801000Y-93184000D01*
X59326000Y-97503000D02*
X59326000Y-93709000D01*
X81500000Y-93025000D02*
X74269000Y-93025000D01*
%TO.N,VCC*%
X29000000Y-95513000D02*
X29000000Y-95000000D01*
X44323000Y-97155000D02*
X44069000Y-96901000D01*
X35644000Y-95842000D02*
X37402000Y-97600000D01*
X42551000Y-96387000D02*
X42712000Y-96387000D01*
X30950000Y-95386000D02*
X30000000Y-95386000D01*
X35644000Y-94635000D02*
X35644000Y-95842000D01*
X44069000Y-96901000D02*
X43558000Y-96901000D01*
X58801000Y-96028000D02*
X57039000Y-97790000D01*
X33546374Y-94370689D02*
X35379689Y-94370689D01*
X46609000Y-97790000D02*
X46101000Y-98298000D01*
X37402000Y-97600000D02*
X41338000Y-97600000D01*
X41338000Y-97600000D02*
X42551000Y-96387000D01*
X57039000Y-97790000D02*
X46609000Y-97790000D01*
X58801000Y-95284000D02*
X58801000Y-96028000D01*
X29000000Y-95000000D02*
X29000000Y-95386000D01*
X43558000Y-96901000D02*
X43044000Y-96387000D01*
X29000000Y-95000000D02*
X29000000Y-94113000D01*
X29000000Y-95386000D02*
X30000000Y-95386000D01*
X35379689Y-94370689D02*
X35644000Y-94635000D01*
X44958000Y-97155000D02*
X44323000Y-97155000D01*
%TO.N,Net-(D10-A)*%
X87000000Y-93100000D02*
X86094000Y-94006000D01*
X71994000Y-95900000D02*
X71000000Y-95900000D01*
X73888000Y-94006000D02*
X71994000Y-95900000D01*
X86094000Y-94006000D02*
X73888000Y-94006000D01*
%TO.N,Net-(D9-A)*%
X71000000Y-93100000D02*
X71000000Y-91456500D01*
X71000000Y-91456500D02*
X71143500Y-91313000D01*
%TO.N,Net-(D7-K)*%
X41660181Y-95413000D02*
X46166181Y-90907000D01*
X46166181Y-90907000D02*
X52807000Y-90907000D01*
X39000000Y-95413000D02*
X41660181Y-95413000D01*
X52807000Y-90907000D02*
X55000000Y-93100000D01*
%TO.N,Net-(D12-K)*%
X135000000Y-93100000D02*
X132200000Y-95900000D01*
X132200000Y-95900000D02*
X119000000Y-95900000D01*
%TO.N,Net-(D13-K)*%
X151000000Y-93113000D02*
X148213000Y-95900000D01*
X148213000Y-95900000D02*
X135000000Y-95900000D01*
%TO.N,/Vled*%
X117044500Y-90043000D02*
X160282360Y-90043000D01*
X208099000Y-90424000D02*
X210175000Y-92500000D01*
X114087500Y-93000000D02*
X117044500Y-90043000D01*
X32744000Y-93285000D02*
X33744000Y-92285000D01*
X32744000Y-95535000D02*
X32744000Y-93285000D01*
X32666000Y-91207000D02*
X33744000Y-92285000D01*
X33744000Y-92285000D02*
X34589000Y-91440000D01*
X212764060Y-89910940D02*
X210175000Y-92500000D01*
X68512500Y-90507000D02*
X69318500Y-91313000D01*
X42325000Y-91440000D02*
X42712000Y-91827000D01*
X111625500Y-90538000D02*
X114087500Y-93000000D01*
X254126994Y-89910940D02*
X212764060Y-89910940D01*
X162175000Y-91935640D02*
X162175000Y-92513000D01*
X24812000Y-91207000D02*
X32666000Y-91207000D01*
X162175000Y-92513000D02*
X164264000Y-90424000D01*
X160282360Y-90043000D02*
X162175000Y-91935640D01*
X43044000Y-91827000D02*
X44364000Y-90507000D01*
X69318500Y-91313000D02*
X70093500Y-90538000D01*
X164264000Y-90424000D02*
X208099000Y-90424000D01*
X44364000Y-90507000D02*
X68512500Y-90507000D01*
X70093500Y-90538000D02*
X111625500Y-90538000D01*
X258167500Y-91440000D02*
X256638557Y-89911057D01*
X256638557Y-89911057D02*
X254126994Y-89910940D01*
X34589000Y-91440000D02*
X42325000Y-91440000D01*
%TO.N,Net-(R2-Pad2)*%
X34744000Y-95535000D02*
X34714500Y-95535000D01*
X34714500Y-95535000D02*
X32831500Y-97418000D01*
%TO.N,Net-(U1-VO)*%
X35238500Y-98000000D02*
X45129000Y-98000000D01*
X47497000Y-95632000D02*
X47669000Y-95632000D01*
X45129000Y-98000000D02*
X47497000Y-95632000D01*
X34656500Y-97418000D02*
X35238500Y-98000000D01*
%TO.N,Net-(D6-K)*%
X25387500Y-98300500D02*
X33655000Y-98300500D01*
X36446372Y-94871628D02*
X38705000Y-92613000D01*
X36446372Y-95655128D02*
X36446372Y-94871628D01*
X23000000Y-95913000D02*
X25387500Y-98300500D01*
X38705000Y-92613000D02*
X39000000Y-92613000D01*
%TO.N,Net-(D6-A)*%
X22987000Y-91207000D02*
X22987000Y-93100000D01*
X22987000Y-93100000D02*
X23000000Y-93113000D01*
%TO.N,Net-(D12-A)*%
X119000000Y-93100000D02*
X116012500Y-93100000D01*
X116012500Y-93100000D02*
X115912500Y-93000000D01*
%TO.N,Net-(D15-K)*%
X169800000Y-93100000D02*
X167000000Y-95900000D01*
X183000000Y-93100000D02*
X169800000Y-93100000D01*
%TO.N,Net-(D15-A)*%
X167000000Y-93100000D02*
X164587000Y-93100000D01*
X164587000Y-93100000D02*
X164000000Y-92513000D01*
%TO.N,Net-(D16-K)*%
X185787000Y-93113000D02*
X183000000Y-95900000D01*
X199000000Y-93113000D02*
X185787000Y-93113000D01*
%TO.N,Net-(D18-K)*%
X215000000Y-95913000D02*
X228200000Y-95913000D01*
X228200000Y-95913000D02*
X231000000Y-93113000D01*
%TO.N,Net-(D18-A)*%
X212000000Y-92500000D02*
X212613000Y-93113000D01*
X212613000Y-93113000D02*
X215000000Y-93113000D01*
%TO.N,Net-(D19-K)*%
X231000000Y-95913000D02*
X244200000Y-95913000D01*
X244200000Y-95913000D02*
X247000000Y-93113000D01*
%TO.N,Net-(D21-K)*%
X265800000Y-93100000D02*
X279000000Y-93100000D01*
X263000000Y-95900000D02*
X265800000Y-93100000D01*
%TO.N,Net-(D21-A)*%
X261652500Y-93100000D02*
X259992500Y-91440000D01*
X263000000Y-93100000D02*
X261652500Y-93100000D01*
%TO.N,Net-(D22-K)*%
X292200000Y-95900000D02*
X295000000Y-93100000D01*
X279000000Y-95900000D02*
X292200000Y-95900000D01*
%TD*%
%TA.AperFunction,Conductor*%
%TO.N,GND*%
G36*
X294210191Y-89820185D02*
G01*
X294255946Y-89872989D01*
X294265890Y-89942147D01*
X294259095Y-89968465D01*
X294244973Y-90005703D01*
X294226082Y-90055513D01*
X294207042Y-90212330D01*
X294207042Y-90212331D01*
X294226082Y-90369149D01*
X294271062Y-90487749D01*
X294282100Y-90516854D01*
X294371837Y-90646861D01*
X294490080Y-90751614D01*
X294490082Y-90751615D01*
X294629954Y-90825027D01*
X294783334Y-90862831D01*
X294948807Y-90862831D01*
X294948807Y-90865921D01*
X295003797Y-90875035D01*
X295006177Y-90876216D01*
X295024681Y-90885644D01*
X295024685Y-90885646D01*
X295046574Y-90889112D01*
X295065490Y-90893653D01*
X295086556Y-90900499D01*
X295115913Y-90900499D01*
X295115937Y-90900500D01*
X295118470Y-90900500D01*
X295492952Y-90900500D01*
X295559991Y-90920185D01*
X295605746Y-90972989D01*
X295612028Y-90989905D01*
X295653830Y-91133786D01*
X295653832Y-91133793D01*
X295735049Y-91271124D01*
X295735055Y-91271132D01*
X295847867Y-91383944D01*
X295847871Y-91383947D01*
X295847873Y-91383949D01*
X295890449Y-91409128D01*
X295979969Y-91462070D01*
X295985208Y-91465168D01*
X296138426Y-91509682D01*
X296158885Y-91511292D01*
X296174227Y-91512500D01*
X296174230Y-91512500D01*
X297825773Y-91512500D01*
X297839196Y-91511443D01*
X297861574Y-91509682D01*
X298014792Y-91465168D01*
X298014799Y-91465163D01*
X298021950Y-91462070D01*
X298022768Y-91463961D01*
X298080086Y-91449411D01*
X298146351Y-91471561D01*
X298190122Y-91526021D01*
X298199500Y-91573326D01*
X298199500Y-97426673D01*
X298179815Y-97493712D01*
X298127011Y-97539467D01*
X298057853Y-97549411D01*
X298022383Y-97536927D01*
X298021950Y-97537930D01*
X298014787Y-97534830D01*
X297861580Y-97490319D01*
X297861569Y-97490317D01*
X297825773Y-97487500D01*
X297825770Y-97487500D01*
X296174230Y-97487500D01*
X296174227Y-97487500D01*
X296138430Y-97490317D01*
X296138419Y-97490319D01*
X295985212Y-97534830D01*
X295985206Y-97534832D01*
X295847875Y-97616049D01*
X295847867Y-97616055D01*
X295735055Y-97728867D01*
X295735049Y-97728875D01*
X295653832Y-97866206D01*
X295653830Y-97866212D01*
X295609319Y-98019419D01*
X295609317Y-98019431D01*
X295607917Y-98037227D01*
X295583034Y-98102516D01*
X295526803Y-98143988D01*
X295484299Y-98151500D01*
X294961922Y-98151500D01*
X294894883Y-98131815D01*
X294879695Y-98120316D01*
X294876483Y-98117471D01*
X294876483Y-98117470D01*
X294758240Y-98012717D01*
X294758238Y-98012716D01*
X294758237Y-98012715D01*
X294618365Y-97939303D01*
X294464986Y-97901500D01*
X294464985Y-97901500D01*
X294307015Y-97901500D01*
X294307014Y-97901500D01*
X294153634Y-97939303D01*
X294013762Y-98012715D01*
X293895516Y-98117471D01*
X293805781Y-98247475D01*
X293805780Y-98247476D01*
X293749762Y-98395181D01*
X293730722Y-98551999D01*
X293730722Y-98552000D01*
X293749762Y-98708818D01*
X293805780Y-98856523D01*
X293805781Y-98856524D01*
X293895518Y-98986532D01*
X293900491Y-98992145D01*
X293898319Y-98994069D01*
X293928306Y-99041886D01*
X293927532Y-99111751D01*
X293889108Y-99170107D01*
X293825235Y-99198426D01*
X293808949Y-99199500D01*
X22802051Y-99199500D01*
X22735012Y-99179815D01*
X22689257Y-99127011D01*
X22679313Y-99057853D01*
X22708338Y-98994297D01*
X22710874Y-98991732D01*
X22715481Y-98986532D01*
X22715481Y-98986531D01*
X22715483Y-98986530D01*
X22805220Y-98856523D01*
X22861237Y-98708818D01*
X22880278Y-98552000D01*
X22878020Y-98533399D01*
X22861237Y-98395181D01*
X22825329Y-98300500D01*
X22805220Y-98247477D01*
X22715483Y-98117470D01*
X22597240Y-98012717D01*
X22597238Y-98012716D01*
X22597237Y-98012715D01*
X22457365Y-97939303D01*
X22303986Y-97901500D01*
X22303985Y-97901500D01*
X22146015Y-97901500D01*
X22146014Y-97901500D01*
X21992634Y-97939303D01*
X21852761Y-98012715D01*
X21852759Y-98012717D01*
X21790000Y-98068316D01*
X21726767Y-98098037D01*
X21707774Y-98099500D01*
X21507048Y-98099500D01*
X21440009Y-98079815D01*
X21394254Y-98027011D01*
X21387972Y-98010095D01*
X21350574Y-97881375D01*
X21346168Y-97866208D01*
X21327793Y-97835138D01*
X21264950Y-97728875D01*
X21264949Y-97728873D01*
X21264947Y-97728871D01*
X21264944Y-97728867D01*
X21152132Y-97616055D01*
X21152124Y-97616049D01*
X21014793Y-97534832D01*
X21014787Y-97534830D01*
X20861580Y-97490319D01*
X20861569Y-97490317D01*
X20825773Y-97487500D01*
X20825770Y-97487500D01*
X20474500Y-97487500D01*
X20407461Y-97467815D01*
X20361706Y-97415011D01*
X20350500Y-97363500D01*
X20350500Y-97196543D01*
X20370185Y-97129504D01*
X20386814Y-97108867D01*
X21662821Y-95832859D01*
X21724142Y-95799376D01*
X21793834Y-95804360D01*
X21849767Y-95846232D01*
X21874184Y-95911696D01*
X21874500Y-95920542D01*
X21874500Y-96335870D01*
X21874501Y-96335876D01*
X21880908Y-96395483D01*
X21931202Y-96530328D01*
X21931206Y-96530335D01*
X22017452Y-96645544D01*
X22017455Y-96645547D01*
X22132664Y-96731793D01*
X22132671Y-96731797D01*
X22267517Y-96782091D01*
X22267516Y-96782091D01*
X22274444Y-96782835D01*
X22327127Y-96788500D01*
X23328455Y-96788499D01*
X23395494Y-96808183D01*
X23416136Y-96824818D01*
X25104860Y-98513541D01*
X25120984Y-98533396D01*
X25126063Y-98541169D01*
X25152009Y-98561363D01*
X25157772Y-98566453D01*
X25160194Y-98568875D01*
X25160195Y-98568876D01*
X25177929Y-98581537D01*
X25218375Y-98613018D01*
X25224795Y-98616492D01*
X25224844Y-98616516D01*
X25224890Y-98616541D01*
X25231432Y-98619739D01*
X25231433Y-98619739D01*
X25231434Y-98619740D01*
X25245578Y-98623951D01*
X25280545Y-98634362D01*
X25329009Y-98650999D01*
X25329012Y-98651000D01*
X25329015Y-98651000D01*
X25336125Y-98652187D01*
X25336231Y-98652200D01*
X25336355Y-98652220D01*
X25343546Y-98653117D01*
X25394731Y-98651000D01*
X33041436Y-98651000D01*
X33108475Y-98670685D01*
X33143486Y-98704561D01*
X33150040Y-98714056D01*
X33164515Y-98735028D01*
X33164516Y-98735029D01*
X33164517Y-98735030D01*
X33282760Y-98839783D01*
X33282762Y-98839784D01*
X33422634Y-98913196D01*
X33576014Y-98951000D01*
X33576015Y-98951000D01*
X33733985Y-98951000D01*
X33887365Y-98913196D01*
X33911555Y-98900500D01*
X34027240Y-98839783D01*
X34145483Y-98735030D01*
X34235220Y-98605023D01*
X34291237Y-98457318D01*
X34310278Y-98300500D01*
X34310278Y-98300499D01*
X34308086Y-98282446D01*
X34319547Y-98213523D01*
X34366451Y-98161737D01*
X34431182Y-98143500D01*
X34834956Y-98143500D01*
X34901995Y-98163185D01*
X34922637Y-98179819D01*
X34955862Y-98213044D01*
X34971986Y-98232899D01*
X34977063Y-98240669D01*
X35003008Y-98260862D01*
X35008760Y-98265942D01*
X35011193Y-98268375D01*
X35028934Y-98281041D01*
X35069374Y-98312517D01*
X35069376Y-98312517D01*
X35075748Y-98315966D01*
X35075805Y-98315994D01*
X35075878Y-98316033D01*
X35082429Y-98319235D01*
X35082434Y-98319239D01*
X35131533Y-98333856D01*
X35180012Y-98350500D01*
X35180020Y-98350500D01*
X35187205Y-98351699D01*
X35187238Y-98351704D01*
X35187292Y-98351713D01*
X35194546Y-98352617D01*
X35245731Y-98350500D01*
X45079789Y-98350500D01*
X45105234Y-98353138D01*
X45114315Y-98355043D01*
X45130005Y-98353087D01*
X45146939Y-98350977D01*
X45154615Y-98350500D01*
X45158035Y-98350500D01*
X45158040Y-98350500D01*
X45161608Y-98349904D01*
X45179539Y-98346913D01*
X45206958Y-98343494D01*
X45230393Y-98340573D01*
X45230402Y-98340568D01*
X45237451Y-98338470D01*
X45244379Y-98336092D01*
X45244381Y-98336092D01*
X45258886Y-98328242D01*
X45277482Y-98318178D01*
X45345810Y-98303581D01*
X45411182Y-98328242D01*
X45452845Y-98384331D01*
X45459598Y-98412283D01*
X45464763Y-98454819D01*
X45508019Y-98568875D01*
X45520780Y-98602523D01*
X45610517Y-98732530D01*
X45728760Y-98837283D01*
X45728762Y-98837284D01*
X45868634Y-98910696D01*
X46022014Y-98948500D01*
X46022015Y-98948500D01*
X46179985Y-98948500D01*
X46333365Y-98910696D01*
X46350290Y-98901813D01*
X46473240Y-98837283D01*
X46591483Y-98732530D01*
X46681220Y-98602523D01*
X46737237Y-98454818D01*
X46756278Y-98298000D01*
X46754025Y-98279446D01*
X46765485Y-98210524D01*
X46812389Y-98158737D01*
X46877121Y-98140500D01*
X56064501Y-98140500D01*
X56131540Y-98160185D01*
X56177295Y-98212989D01*
X56188501Y-98264500D01*
X56188501Y-98287876D01*
X56194908Y-98347483D01*
X56245202Y-98482328D01*
X56245206Y-98482335D01*
X56331452Y-98597544D01*
X56331455Y-98597547D01*
X56446664Y-98683793D01*
X56446671Y-98683797D01*
X56581517Y-98734091D01*
X56581516Y-98734091D01*
X56588444Y-98734835D01*
X56641127Y-98740500D01*
X57436872Y-98740499D01*
X57496483Y-98734091D01*
X57631331Y-98683796D01*
X57746546Y-98597546D01*
X57832796Y-98482331D01*
X57883091Y-98347483D01*
X57889500Y-98287873D01*
X57889499Y-97486542D01*
X57909183Y-97419504D01*
X57925813Y-97398867D01*
X57976821Y-97347859D01*
X58038142Y-97314376D01*
X58107834Y-97319360D01*
X58163767Y-97361232D01*
X58188184Y-97426696D01*
X58188500Y-97435542D01*
X58188500Y-98287870D01*
X58188501Y-98287876D01*
X58194908Y-98347483D01*
X58245202Y-98482328D01*
X58245206Y-98482335D01*
X58331452Y-98597544D01*
X58331455Y-98597547D01*
X58446664Y-98683793D01*
X58446671Y-98683797D01*
X58581517Y-98734091D01*
X58581516Y-98734091D01*
X58588444Y-98734835D01*
X58641127Y-98740500D01*
X59436872Y-98740499D01*
X59496483Y-98734091D01*
X59631331Y-98683796D01*
X59746546Y-98597546D01*
X59832796Y-98482331D01*
X59883091Y-98347483D01*
X59889500Y-98287873D01*
X59889499Y-97647323D01*
X89523228Y-97647323D01*
X89542360Y-97652081D01*
X89585392Y-97655000D01*
X91262606Y-97654999D01*
X91305627Y-97652082D01*
X91305637Y-97652081D01*
X91324769Y-97647322D01*
X90423999Y-96746553D01*
X89523228Y-97647322D01*
X89523228Y-97647323D01*
X59889499Y-97647323D01*
X59889499Y-97292128D01*
X59883091Y-97232517D01*
X59882083Y-97229815D01*
X59852699Y-97151032D01*
X59847715Y-97081341D01*
X59881200Y-97020018D01*
X59942523Y-96986533D01*
X60007885Y-96989993D01*
X60157302Y-97039505D01*
X60157309Y-97039506D01*
X60260019Y-97049999D01*
X60709999Y-97049999D01*
X60709999Y-96225000D01*
X61210000Y-96225000D01*
X61210000Y-97049999D01*
X61659972Y-97049999D01*
X61659986Y-97049998D01*
X61762697Y-97039505D01*
X61929119Y-96984358D01*
X61929124Y-96984356D01*
X62078345Y-96892315D01*
X62078819Y-96891842D01*
X62079224Y-96891620D01*
X62084007Y-96887839D01*
X62084653Y-96888656D01*
X62140142Y-96858357D01*
X62209834Y-96863341D01*
X62248642Y-96888282D01*
X62248993Y-96887839D01*
X62253510Y-96891410D01*
X62254181Y-96891842D01*
X62254654Y-96892315D01*
X62403875Y-96984356D01*
X62403880Y-96984358D01*
X62570302Y-97039505D01*
X62570309Y-97039506D01*
X62673019Y-97049999D01*
X63122999Y-97049999D01*
X63123000Y-97049998D01*
X63123000Y-96225000D01*
X63623000Y-96225000D01*
X63623000Y-97049999D01*
X64072972Y-97049999D01*
X64072986Y-97049998D01*
X64175697Y-97039505D01*
X64342119Y-96984358D01*
X64342124Y-96984356D01*
X64491345Y-96892315D01*
X64491819Y-96891842D01*
X64492224Y-96891620D01*
X64497007Y-96887839D01*
X64497653Y-96888656D01*
X64553142Y-96858357D01*
X64622834Y-96863341D01*
X64661642Y-96888282D01*
X64661993Y-96887839D01*
X64666510Y-96891410D01*
X64667181Y-96891842D01*
X64667654Y-96892315D01*
X64816875Y-96984356D01*
X64816880Y-96984358D01*
X64983302Y-97039505D01*
X64983309Y-97039506D01*
X65086019Y-97049999D01*
X65535999Y-97049999D01*
X65536000Y-97049998D01*
X65536000Y-96225000D01*
X66036000Y-96225000D01*
X66036000Y-97049999D01*
X66485972Y-97049999D01*
X66485986Y-97049998D01*
X66588697Y-97039505D01*
X66755119Y-96984358D01*
X66755124Y-96984356D01*
X66904345Y-96892315D01*
X66904811Y-96891850D01*
X66905212Y-96891630D01*
X66910012Y-96887836D01*
X66910659Y-96888655D01*
X66966131Y-96858359D01*
X67035823Y-96863337D01*
X67074642Y-96888282D01*
X67074993Y-96887839D01*
X67079510Y-96891411D01*
X67080181Y-96891842D01*
X67080654Y-96892315D01*
X67229875Y-96984356D01*
X67229880Y-96984358D01*
X67396302Y-97039505D01*
X67396309Y-97039506D01*
X67499019Y-97049999D01*
X67948999Y-97049999D01*
X67949000Y-97049998D01*
X67949000Y-96225000D01*
X68449000Y-96225000D01*
X68449000Y-97049999D01*
X68898972Y-97049999D01*
X68898986Y-97049998D01*
X69001697Y-97039505D01*
X69168119Y-96984358D01*
X69168124Y-96984356D01*
X69317345Y-96892315D01*
X69441315Y-96768345D01*
X69533356Y-96619124D01*
X69533358Y-96619119D01*
X69588505Y-96452697D01*
X69588506Y-96452690D01*
X69598999Y-96349986D01*
X69599000Y-96349973D01*
X69599000Y-96225000D01*
X68449000Y-96225000D01*
X67949000Y-96225000D01*
X66036000Y-96225000D01*
X65536000Y-96225000D01*
X63623000Y-96225000D01*
X63123000Y-96225000D01*
X61210000Y-96225000D01*
X60709999Y-96225000D01*
X60709999Y-94900000D01*
X61210000Y-94900000D01*
X61210000Y-95725000D01*
X63123000Y-95725000D01*
X63123000Y-94900000D01*
X63623000Y-94900000D01*
X63623000Y-95725000D01*
X65536000Y-95725000D01*
X66035999Y-95725000D01*
X67949000Y-95725000D01*
X67949000Y-94900000D01*
X68449000Y-94900000D01*
X68449000Y-95725000D01*
X69598999Y-95725000D01*
X69598999Y-95600028D01*
X69598998Y-95600013D01*
X69588505Y-95497302D01*
X69533358Y-95330880D01*
X69533356Y-95330875D01*
X69441315Y-95181654D01*
X69317345Y-95057684D01*
X69168124Y-94965643D01*
X69168119Y-94965641D01*
X69001697Y-94910494D01*
X69001690Y-94910493D01*
X68898986Y-94900000D01*
X68449000Y-94900000D01*
X67949000Y-94900000D01*
X67499028Y-94900000D01*
X67499012Y-94900001D01*
X67396302Y-94910494D01*
X67229880Y-94965641D01*
X67229875Y-94965643D01*
X67080653Y-95057684D01*
X67080651Y-95057686D01*
X67080173Y-95058165D01*
X67079764Y-95058388D01*
X67074993Y-95062161D01*
X67074347Y-95061345D01*
X67018847Y-95091645D01*
X66949156Y-95086654D01*
X66910356Y-95061718D01*
X66910007Y-95062161D01*
X66905502Y-95058599D01*
X66904827Y-95058165D01*
X66904346Y-95057684D01*
X66755124Y-94965643D01*
X66755119Y-94965641D01*
X66588697Y-94910494D01*
X66588690Y-94910493D01*
X66485986Y-94900000D01*
X66036000Y-94900000D01*
X66035999Y-95725000D01*
X65536000Y-95725000D01*
X65536000Y-94900000D01*
X65086028Y-94900000D01*
X65086012Y-94900001D01*
X64983302Y-94910494D01*
X64816880Y-94965641D01*
X64816875Y-94965643D01*
X64667653Y-95057684D01*
X64667651Y-95057686D01*
X64667165Y-95058173D01*
X64666749Y-95058399D01*
X64661993Y-95062161D01*
X64661349Y-95061347D01*
X64605835Y-95091647D01*
X64536145Y-95086650D01*
X64497357Y-95061717D01*
X64497007Y-95062161D01*
X64492487Y-95058587D01*
X64491818Y-95058157D01*
X64491345Y-95057684D01*
X64342124Y-94965643D01*
X64342119Y-94965641D01*
X64175697Y-94910494D01*
X64175690Y-94910493D01*
X64072986Y-94900000D01*
X63623000Y-94900000D01*
X63123000Y-94900000D01*
X62673028Y-94900000D01*
X62673012Y-94900001D01*
X62570302Y-94910494D01*
X62403880Y-94965641D01*
X62403875Y-94965643D01*
X62254653Y-95057684D01*
X62254651Y-95057686D01*
X62254173Y-95058165D01*
X62253764Y-95058388D01*
X62248993Y-95062161D01*
X62248347Y-95061345D01*
X62192847Y-95091645D01*
X62123156Y-95086654D01*
X62084362Y-95061720D01*
X62084012Y-95062164D01*
X62079487Y-95058586D01*
X62078819Y-95058157D01*
X62078347Y-95057685D01*
X61929124Y-94965643D01*
X61929119Y-94965641D01*
X61762697Y-94910494D01*
X61762690Y-94910493D01*
X61659986Y-94900000D01*
X61210000Y-94900000D01*
X60709999Y-94900000D01*
X60260028Y-94900000D01*
X60260012Y-94900001D01*
X60157302Y-94910494D01*
X59990880Y-94965641D01*
X59990875Y-94965643D01*
X59865597Y-95042916D01*
X59798204Y-95061356D01*
X59731541Y-95040433D01*
X59686771Y-94986791D01*
X59676500Y-94937377D01*
X59676500Y-94349704D01*
X59676500Y-93758196D01*
X59679137Y-93732766D01*
X59681042Y-93723685D01*
X59681041Y-93723681D01*
X59681042Y-93723679D01*
X59681467Y-93713415D01*
X59685424Y-93713578D01*
X59693469Y-93664231D01*
X59740209Y-93612297D01*
X59807606Y-93593876D01*
X59874264Y-93614817D01*
X59904539Y-93643540D01*
X59952454Y-93707546D01*
X59982887Y-93730328D01*
X60067664Y-93793793D01*
X60067671Y-93793797D01*
X60202517Y-93844091D01*
X60202516Y-93844091D01*
X60209444Y-93844835D01*
X60262127Y-93850500D01*
X61657872Y-93850499D01*
X61717483Y-93844091D01*
X61852331Y-93793796D01*
X61967546Y-93707546D01*
X62053796Y-93592331D01*
X62053797Y-93592326D01*
X62057668Y-93585240D01*
X62107074Y-93535835D01*
X62175347Y-93520984D01*
X62240811Y-93545402D01*
X62275332Y-93585240D01*
X62279206Y-93592335D01*
X62365452Y-93707544D01*
X62365455Y-93707547D01*
X62480664Y-93793793D01*
X62480671Y-93793797D01*
X62615517Y-93844091D01*
X62615516Y-93844091D01*
X62622444Y-93844835D01*
X62675127Y-93850500D01*
X64070872Y-93850499D01*
X64130483Y-93844091D01*
X64265331Y-93793796D01*
X64380546Y-93707546D01*
X64466796Y-93592331D01*
X64466797Y-93592326D01*
X64470668Y-93585240D01*
X64520074Y-93535835D01*
X64588347Y-93520984D01*
X64653811Y-93545402D01*
X64688332Y-93585240D01*
X64692206Y-93592335D01*
X64778452Y-93707544D01*
X64778455Y-93707547D01*
X64893664Y-93793793D01*
X64893671Y-93793797D01*
X65028517Y-93844091D01*
X65028516Y-93844091D01*
X65035444Y-93844835D01*
X65088127Y-93850500D01*
X66483872Y-93850499D01*
X66543483Y-93844091D01*
X66678331Y-93793796D01*
X66793546Y-93707546D01*
X66879796Y-93592331D01*
X66879797Y-93592326D01*
X66883668Y-93585240D01*
X66933074Y-93535835D01*
X67001347Y-93520984D01*
X67066811Y-93545402D01*
X67101332Y-93585240D01*
X67105206Y-93592335D01*
X67191452Y-93707544D01*
X67191455Y-93707547D01*
X67306664Y-93793793D01*
X67306671Y-93793797D01*
X67441517Y-93844091D01*
X67441516Y-93844091D01*
X67448444Y-93844835D01*
X67501127Y-93850500D01*
X68665455Y-93850499D01*
X68732494Y-93870184D01*
X68753136Y-93886818D01*
X69104362Y-94238044D01*
X69120486Y-94257899D01*
X69125563Y-94265669D01*
X69125565Y-94265671D01*
X69151505Y-94285860D01*
X69157268Y-94290950D01*
X69159694Y-94293376D01*
X69177441Y-94306047D01*
X69217874Y-94337517D01*
X69217875Y-94337517D01*
X69217876Y-94337518D01*
X69224332Y-94341012D01*
X69230930Y-94344238D01*
X69230932Y-94344238D01*
X69230934Y-94344240D01*
X69260067Y-94352913D01*
X69280042Y-94358860D01*
X69292160Y-94363020D01*
X69328512Y-94375500D01*
X69328515Y-94375500D01*
X69335754Y-94376708D01*
X69343047Y-94377617D01*
X69394242Y-94375500D01*
X72723456Y-94375500D01*
X72790495Y-94395185D01*
X72836250Y-94447989D01*
X72846194Y-94517147D01*
X72817169Y-94580703D01*
X72811137Y-94587181D01*
X72190042Y-95208274D01*
X72128719Y-95241759D01*
X72059027Y-95236775D01*
X72003094Y-95194903D01*
X71992278Y-95180455D01*
X71982546Y-95167454D01*
X71982545Y-95167453D01*
X71982544Y-95167452D01*
X71867335Y-95081206D01*
X71867328Y-95081202D01*
X71732482Y-95030908D01*
X71732483Y-95030908D01*
X71672883Y-95024501D01*
X71672881Y-95024500D01*
X71672873Y-95024500D01*
X71672864Y-95024500D01*
X70327129Y-95024500D01*
X70327123Y-95024501D01*
X70267516Y-95030908D01*
X70132671Y-95081202D01*
X70132664Y-95081206D01*
X70017455Y-95167452D01*
X70017452Y-95167455D01*
X69931206Y-95282664D01*
X69931202Y-95282671D01*
X69880908Y-95417517D01*
X69874512Y-95477011D01*
X69874501Y-95477123D01*
X69874500Y-95477135D01*
X69874500Y-96322870D01*
X69874501Y-96322876D01*
X69880908Y-96382483D01*
X69931202Y-96517328D01*
X69931206Y-96517335D01*
X70017452Y-96632544D01*
X70017455Y-96632547D01*
X70132664Y-96718793D01*
X70132671Y-96718797D01*
X70267517Y-96769091D01*
X70267516Y-96769091D01*
X70274028Y-96769791D01*
X70327127Y-96775500D01*
X71672872Y-96775499D01*
X71732483Y-96769091D01*
X71867331Y-96718796D01*
X71982546Y-96632546D01*
X72068796Y-96517331D01*
X72119091Y-96382483D01*
X72122585Y-96349986D01*
X72125499Y-96322886D01*
X72125499Y-96322882D01*
X72125500Y-96322873D01*
X72125499Y-96303262D01*
X72145181Y-96236225D01*
X72157796Y-96225000D01*
X72869001Y-96225000D01*
X72869001Y-96349986D01*
X72879494Y-96452697D01*
X72934641Y-96619119D01*
X72934643Y-96619124D01*
X73026684Y-96768345D01*
X73150654Y-96892315D01*
X73299875Y-96984356D01*
X73299880Y-96984358D01*
X73466302Y-97039505D01*
X73466309Y-97039506D01*
X73569019Y-97049999D01*
X74018999Y-97049999D01*
X74019000Y-97049998D01*
X74019000Y-96225000D01*
X74519000Y-96225000D01*
X74519000Y-97049999D01*
X74968972Y-97049999D01*
X74968986Y-97049998D01*
X75071697Y-97039505D01*
X75238119Y-96984358D01*
X75238124Y-96984356D01*
X75387345Y-96892315D01*
X75387819Y-96891842D01*
X75388224Y-96891620D01*
X75393007Y-96887839D01*
X75393653Y-96888656D01*
X75449142Y-96858357D01*
X75518834Y-96863341D01*
X75557642Y-96888282D01*
X75557993Y-96887839D01*
X75562510Y-96891410D01*
X75563181Y-96891842D01*
X75563654Y-96892315D01*
X75712875Y-96984356D01*
X75712880Y-96984358D01*
X75879302Y-97039505D01*
X75879309Y-97039506D01*
X75982019Y-97049999D01*
X76431999Y-97049999D01*
X76432000Y-97049998D01*
X76432000Y-96225000D01*
X76932000Y-96225000D01*
X76932000Y-97049999D01*
X77381972Y-97049999D01*
X77381986Y-97049998D01*
X77484697Y-97039505D01*
X77651119Y-96984358D01*
X77651124Y-96984356D01*
X77800345Y-96892315D01*
X77800811Y-96891850D01*
X77801212Y-96891630D01*
X77806012Y-96887836D01*
X77806659Y-96888655D01*
X77862131Y-96858359D01*
X77931823Y-96863337D01*
X77970642Y-96888282D01*
X77970993Y-96887839D01*
X77975510Y-96891411D01*
X77976181Y-96891842D01*
X77976654Y-96892315D01*
X78125875Y-96984356D01*
X78125880Y-96984358D01*
X78292302Y-97039505D01*
X78292309Y-97039506D01*
X78395019Y-97049999D01*
X78844999Y-97049999D01*
X78845000Y-97049998D01*
X78845000Y-96225000D01*
X79345000Y-96225000D01*
X79345000Y-97049999D01*
X79794972Y-97049999D01*
X79794986Y-97049998D01*
X79897697Y-97039505D01*
X80064119Y-96984358D01*
X80064124Y-96984356D01*
X80213346Y-96892315D01*
X80219007Y-96887839D01*
X80220659Y-96889928D01*
X80271104Y-96862364D01*
X80340797Y-96867327D01*
X80374888Y-96889235D01*
X80375993Y-96887839D01*
X80381653Y-96892315D01*
X80530875Y-96984356D01*
X80530880Y-96984358D01*
X80697302Y-97039505D01*
X80697309Y-97039506D01*
X80800019Y-97049999D01*
X81249999Y-97049999D01*
X81250000Y-97049998D01*
X81250000Y-96225000D01*
X81750000Y-96225000D01*
X81750000Y-97049999D01*
X82199972Y-97049999D01*
X82199986Y-97049998D01*
X82302697Y-97039505D01*
X82469119Y-96984358D01*
X82469124Y-96984356D01*
X82618345Y-96892315D01*
X82742315Y-96768345D01*
X82834356Y-96619124D01*
X82834358Y-96619119D01*
X82889505Y-96452697D01*
X82889506Y-96452690D01*
X82899999Y-96349986D01*
X82900000Y-96349973D01*
X82900000Y-96322870D01*
X85874500Y-96322870D01*
X85874501Y-96322876D01*
X85880908Y-96382483D01*
X85931202Y-96517328D01*
X85931206Y-96517335D01*
X86017452Y-96632544D01*
X86017455Y-96632547D01*
X86132664Y-96718793D01*
X86132671Y-96718797D01*
X86267517Y-96769091D01*
X86267516Y-96769091D01*
X86274028Y-96769791D01*
X86327127Y-96775500D01*
X87672872Y-96775499D01*
X87732483Y-96769091D01*
X87867331Y-96718796D01*
X87982546Y-96632546D01*
X88068796Y-96517331D01*
X88119091Y-96382483D01*
X88125500Y-96322873D01*
X88125499Y-95805499D01*
X88145183Y-95738461D01*
X88197987Y-95692706D01*
X88249499Y-95681500D01*
X88677743Y-95681500D01*
X88744782Y-95701185D01*
X88790537Y-95753989D01*
X88800481Y-95823147D01*
X88798078Y-95835427D01*
X88783918Y-95892361D01*
X88781000Y-95935392D01*
X88781001Y-96850606D01*
X88783917Y-96893633D01*
X88783917Y-96893634D01*
X88830165Y-97079602D01*
X88915307Y-97251275D01*
X89035363Y-97400632D01*
X89050580Y-97412864D01*
X90336318Y-96127127D01*
X90397641Y-96093642D01*
X90467333Y-96098626D01*
X90511680Y-96127127D01*
X91797417Y-97412864D01*
X91812635Y-97400631D01*
X91932692Y-97251275D01*
X92017834Y-97079602D01*
X92064081Y-96893640D01*
X92067000Y-96850608D01*
X92066999Y-96163000D01*
X101625001Y-96163000D01*
X101625001Y-96337986D01*
X101635494Y-96440697D01*
X101690641Y-96607119D01*
X101690643Y-96607124D01*
X101782684Y-96756345D01*
X101906654Y-96880315D01*
X102055875Y-96972356D01*
X102055880Y-96972358D01*
X102222302Y-97027505D01*
X102222309Y-97027506D01*
X102325019Y-97037999D01*
X102749999Y-97037999D01*
X102750000Y-97037998D01*
X102750000Y-96163000D01*
X103250000Y-96163000D01*
X103250000Y-97037999D01*
X103674972Y-97037999D01*
X103674986Y-97037998D01*
X103777697Y-97027505D01*
X103944119Y-96972358D01*
X103944124Y-96972356D01*
X104093345Y-96880315D01*
X104217315Y-96756345D01*
X104309356Y-96607124D01*
X104309358Y-96607119D01*
X104364505Y-96440697D01*
X104364506Y-96440690D01*
X104374999Y-96337986D01*
X104375000Y-96337973D01*
X104375000Y-96322870D01*
X117874500Y-96322870D01*
X117874501Y-96322876D01*
X117880908Y-96382483D01*
X117931202Y-96517328D01*
X117931206Y-96517335D01*
X118017452Y-96632544D01*
X118017455Y-96632547D01*
X118132664Y-96718793D01*
X118132671Y-96718797D01*
X118267517Y-96769091D01*
X118267516Y-96769091D01*
X118274028Y-96769791D01*
X118327127Y-96775500D01*
X119672872Y-96775499D01*
X119732483Y-96769091D01*
X119867331Y-96718796D01*
X119982546Y-96632546D01*
X120068796Y-96517331D01*
X120119091Y-96382483D01*
X120121375Y-96361243D01*
X120137270Y-96322870D01*
X133874500Y-96322870D01*
X133874501Y-96322876D01*
X133880908Y-96382483D01*
X133931202Y-96517328D01*
X133931206Y-96517335D01*
X134017452Y-96632544D01*
X134017455Y-96632547D01*
X134132664Y-96718793D01*
X134132671Y-96718797D01*
X134267517Y-96769091D01*
X134267516Y-96769091D01*
X134274028Y-96769791D01*
X134327127Y-96775500D01*
X135672872Y-96775499D01*
X135732483Y-96769091D01*
X135867331Y-96718796D01*
X135982546Y-96632546D01*
X136068796Y-96517331D01*
X136119091Y-96382483D01*
X136121375Y-96361243D01*
X136148114Y-96296692D01*
X136205507Y-96256845D01*
X136244664Y-96250500D01*
X148163789Y-96250500D01*
X148189234Y-96253138D01*
X148198315Y-96255043D01*
X148214005Y-96253087D01*
X148230939Y-96250977D01*
X148238615Y-96250500D01*
X148242035Y-96250500D01*
X148242040Y-96250500D01*
X148245608Y-96249904D01*
X148263539Y-96246913D01*
X148290958Y-96243494D01*
X148314393Y-96240573D01*
X148314402Y-96240568D01*
X148321451Y-96238470D01*
X148328377Y-96236092D01*
X148328381Y-96236092D01*
X148373444Y-96211704D01*
X148419484Y-96189198D01*
X148419487Y-96189194D01*
X148425453Y-96184935D01*
X148431254Y-96180419D01*
X148431258Y-96180418D01*
X148447292Y-96163000D01*
X149625001Y-96163000D01*
X149625001Y-96337986D01*
X149635494Y-96440697D01*
X149690641Y-96607119D01*
X149690643Y-96607124D01*
X149782684Y-96756345D01*
X149906654Y-96880315D01*
X150055875Y-96972356D01*
X150055880Y-96972358D01*
X150222302Y-97027505D01*
X150222309Y-97027506D01*
X150325019Y-97037999D01*
X150749999Y-97037999D01*
X150750000Y-97037998D01*
X150750000Y-96163000D01*
X151250000Y-96163000D01*
X151250000Y-97037999D01*
X151674972Y-97037999D01*
X151674986Y-97037998D01*
X151777697Y-97027505D01*
X151944119Y-96972358D01*
X151944124Y-96972356D01*
X152093345Y-96880315D01*
X152217315Y-96756345D01*
X152309356Y-96607124D01*
X152309358Y-96607119D01*
X152364505Y-96440697D01*
X152364506Y-96440690D01*
X152374999Y-96337986D01*
X152375000Y-96337973D01*
X152375000Y-96322870D01*
X165874500Y-96322870D01*
X165874501Y-96322876D01*
X165880908Y-96382483D01*
X165931202Y-96517328D01*
X165931206Y-96517335D01*
X166017452Y-96632544D01*
X166017455Y-96632547D01*
X166132664Y-96718793D01*
X166132671Y-96718797D01*
X166267517Y-96769091D01*
X166267516Y-96769091D01*
X166274028Y-96769791D01*
X166327127Y-96775500D01*
X167672872Y-96775499D01*
X167732483Y-96769091D01*
X167867331Y-96718796D01*
X167982546Y-96632546D01*
X168068796Y-96517331D01*
X168119091Y-96382483D01*
X168125500Y-96322873D01*
X168125500Y-96322870D01*
X181874500Y-96322870D01*
X181874501Y-96322876D01*
X181880908Y-96382483D01*
X181931202Y-96517328D01*
X181931206Y-96517335D01*
X182017452Y-96632544D01*
X182017455Y-96632547D01*
X182132664Y-96718793D01*
X182132671Y-96718797D01*
X182267517Y-96769091D01*
X182267516Y-96769091D01*
X182274028Y-96769791D01*
X182327127Y-96775500D01*
X183672872Y-96775499D01*
X183732483Y-96769091D01*
X183867331Y-96718796D01*
X183982546Y-96632546D01*
X184068796Y-96517331D01*
X184119091Y-96382483D01*
X184125500Y-96322873D01*
X184125500Y-96163000D01*
X197625001Y-96163000D01*
X197625001Y-96337986D01*
X197635494Y-96440697D01*
X197690641Y-96607119D01*
X197690643Y-96607124D01*
X197782684Y-96756345D01*
X197906654Y-96880315D01*
X198055875Y-96972356D01*
X198055880Y-96972358D01*
X198222302Y-97027505D01*
X198222309Y-97027506D01*
X198325019Y-97037999D01*
X198749999Y-97037999D01*
X198750000Y-97037998D01*
X198750000Y-96163000D01*
X199250000Y-96163000D01*
X199250000Y-97037999D01*
X199674972Y-97037999D01*
X199674986Y-97037998D01*
X199777697Y-97027505D01*
X199944119Y-96972358D01*
X199944124Y-96972356D01*
X200093345Y-96880315D01*
X200217315Y-96756345D01*
X200309356Y-96607124D01*
X200309358Y-96607119D01*
X200364505Y-96440697D01*
X200364506Y-96440690D01*
X200374999Y-96337986D01*
X200375000Y-96337973D01*
X200375000Y-96335870D01*
X213874500Y-96335870D01*
X213874501Y-96335876D01*
X213880908Y-96395483D01*
X213931202Y-96530328D01*
X213931206Y-96530335D01*
X214017452Y-96645544D01*
X214017455Y-96645547D01*
X214132664Y-96731793D01*
X214132671Y-96731797D01*
X214267517Y-96782091D01*
X214267516Y-96782091D01*
X214274444Y-96782835D01*
X214327127Y-96788500D01*
X215672872Y-96788499D01*
X215732483Y-96782091D01*
X215867331Y-96731796D01*
X215982546Y-96645546D01*
X216068796Y-96530331D01*
X216119091Y-96395483D01*
X216119860Y-96388334D01*
X216121375Y-96374243D01*
X216137270Y-96335870D01*
X229874500Y-96335870D01*
X229874501Y-96335876D01*
X229880908Y-96395483D01*
X229931202Y-96530328D01*
X229931206Y-96530335D01*
X230017452Y-96645544D01*
X230017455Y-96645547D01*
X230132664Y-96731793D01*
X230132671Y-96731797D01*
X230267517Y-96782091D01*
X230267516Y-96782091D01*
X230274444Y-96782835D01*
X230327127Y-96788500D01*
X231672872Y-96788499D01*
X231732483Y-96782091D01*
X231867331Y-96731796D01*
X231982546Y-96645546D01*
X232068796Y-96530331D01*
X232119091Y-96395483D01*
X232119860Y-96388334D01*
X232121375Y-96374243D01*
X232148114Y-96309692D01*
X232205507Y-96269845D01*
X232244664Y-96263500D01*
X244150789Y-96263500D01*
X244176234Y-96266138D01*
X244185315Y-96268043D01*
X244201005Y-96266087D01*
X244217939Y-96263977D01*
X244225615Y-96263500D01*
X244229035Y-96263500D01*
X244229040Y-96263500D01*
X244232608Y-96262904D01*
X244250539Y-96259913D01*
X244277958Y-96256494D01*
X244301393Y-96253573D01*
X244301402Y-96253568D01*
X244308451Y-96251470D01*
X244315377Y-96249092D01*
X244315381Y-96249092D01*
X244360444Y-96224704D01*
X244406484Y-96202198D01*
X244406487Y-96202194D01*
X244412453Y-96197935D01*
X244418254Y-96193419D01*
X244418258Y-96193418D01*
X244446259Y-96163000D01*
X245625001Y-96163000D01*
X245625001Y-96337986D01*
X245635494Y-96440697D01*
X245690641Y-96607119D01*
X245690643Y-96607124D01*
X245782684Y-96756345D01*
X245906654Y-96880315D01*
X246055875Y-96972356D01*
X246055880Y-96972358D01*
X246222302Y-97027505D01*
X246222309Y-97027506D01*
X246325019Y-97037999D01*
X246749999Y-97037999D01*
X246750000Y-97037998D01*
X246750000Y-96163000D01*
X247250000Y-96163000D01*
X247250000Y-97037999D01*
X247674972Y-97037999D01*
X247674986Y-97037998D01*
X247777697Y-97027505D01*
X247944119Y-96972358D01*
X247944124Y-96972356D01*
X248093345Y-96880315D01*
X248217315Y-96756345D01*
X248309356Y-96607124D01*
X248309358Y-96607119D01*
X248364505Y-96440697D01*
X248364506Y-96440690D01*
X248374999Y-96337986D01*
X248375000Y-96337973D01*
X248375000Y-96322870D01*
X261874500Y-96322870D01*
X261874501Y-96322876D01*
X261880908Y-96382483D01*
X261931202Y-96517328D01*
X261931206Y-96517335D01*
X262017452Y-96632544D01*
X262017455Y-96632547D01*
X262132664Y-96718793D01*
X262132671Y-96718797D01*
X262267517Y-96769091D01*
X262267516Y-96769091D01*
X262274028Y-96769791D01*
X262327127Y-96775500D01*
X263672872Y-96775499D01*
X263732483Y-96769091D01*
X263867331Y-96718796D01*
X263982546Y-96632546D01*
X264068796Y-96517331D01*
X264119091Y-96382483D01*
X264125500Y-96322873D01*
X264125500Y-96322870D01*
X277874500Y-96322870D01*
X277874501Y-96322876D01*
X277880908Y-96382483D01*
X277931202Y-96517328D01*
X277931206Y-96517335D01*
X278017452Y-96632544D01*
X278017455Y-96632547D01*
X278132664Y-96718793D01*
X278132671Y-96718797D01*
X278267517Y-96769091D01*
X278267516Y-96769091D01*
X278274028Y-96769791D01*
X278327127Y-96775500D01*
X279672872Y-96775499D01*
X279732483Y-96769091D01*
X279867331Y-96718796D01*
X279982546Y-96632546D01*
X280068796Y-96517331D01*
X280119091Y-96382483D01*
X280121375Y-96361243D01*
X280148114Y-96296692D01*
X280205507Y-96256845D01*
X280244664Y-96250500D01*
X292150789Y-96250500D01*
X292176234Y-96253138D01*
X292185315Y-96255043D01*
X292201005Y-96253087D01*
X292217939Y-96250977D01*
X292225615Y-96250500D01*
X292229035Y-96250500D01*
X292229040Y-96250500D01*
X292232608Y-96249904D01*
X292250539Y-96246913D01*
X292277958Y-96243494D01*
X292301393Y-96240573D01*
X292301402Y-96240568D01*
X292308451Y-96238470D01*
X292315377Y-96236092D01*
X292315381Y-96236092D01*
X292360444Y-96211704D01*
X292406484Y-96189198D01*
X292406487Y-96189194D01*
X292412453Y-96184935D01*
X292418254Y-96180419D01*
X292418258Y-96180418D01*
X292446259Y-96150000D01*
X293625001Y-96150000D01*
X293625001Y-96324986D01*
X293635494Y-96427697D01*
X293690641Y-96594119D01*
X293690643Y-96594124D01*
X293782684Y-96743345D01*
X293906654Y-96867315D01*
X294055875Y-96959356D01*
X294055880Y-96959358D01*
X294222302Y-97014505D01*
X294222309Y-97014506D01*
X294325019Y-97024999D01*
X294749999Y-97024999D01*
X294750000Y-97024998D01*
X294750000Y-96150000D01*
X295250000Y-96150000D01*
X295250000Y-97024999D01*
X295674972Y-97024999D01*
X295674986Y-97024998D01*
X295777697Y-97014505D01*
X295944119Y-96959358D01*
X295944124Y-96959356D01*
X296093345Y-96867315D01*
X296217315Y-96743345D01*
X296309356Y-96594124D01*
X296309358Y-96594119D01*
X296364505Y-96427697D01*
X296364506Y-96427690D01*
X296374999Y-96324986D01*
X296375000Y-96324973D01*
X296375000Y-96150000D01*
X295250000Y-96150000D01*
X294750000Y-96150000D01*
X293625001Y-96150000D01*
X292446259Y-96150000D01*
X292452957Y-96142724D01*
X293469778Y-95125902D01*
X293531099Y-95092419D01*
X293600791Y-95097403D01*
X293656724Y-95139275D01*
X293681141Y-95204739D01*
X293675163Y-95252588D01*
X293635495Y-95372298D01*
X293635493Y-95372309D01*
X293625000Y-95475013D01*
X293625000Y-95650000D01*
X294750000Y-95650000D01*
X294750000Y-94775000D01*
X295250000Y-94775000D01*
X295250000Y-95650000D01*
X296374999Y-95650000D01*
X296374999Y-95475028D01*
X296374998Y-95475013D01*
X296364505Y-95372302D01*
X296309358Y-95205880D01*
X296309356Y-95205875D01*
X296217315Y-95056654D01*
X296093345Y-94932684D01*
X295944124Y-94840643D01*
X295944119Y-94840641D01*
X295777697Y-94785494D01*
X295777690Y-94785493D01*
X295674986Y-94775000D01*
X295250000Y-94775000D01*
X294750000Y-94775000D01*
X294325028Y-94775000D01*
X294325012Y-94775001D01*
X294222302Y-94785494D01*
X294102589Y-94825163D01*
X294032760Y-94827565D01*
X293972718Y-94791833D01*
X293941526Y-94729312D01*
X293949087Y-94659853D01*
X293975901Y-94619779D01*
X294583862Y-94011818D01*
X294645186Y-93978333D01*
X294671544Y-93975499D01*
X295672871Y-93975499D01*
X295672872Y-93975499D01*
X295732483Y-93969091D01*
X295867331Y-93918796D01*
X295982546Y-93832546D01*
X296068796Y-93717331D01*
X296119091Y-93582483D01*
X296125500Y-93522873D01*
X296125499Y-92677128D01*
X296119444Y-92620797D01*
X296119091Y-92617516D01*
X296068797Y-92482671D01*
X296068793Y-92482664D01*
X295982547Y-92367455D01*
X295982544Y-92367452D01*
X295867335Y-92281206D01*
X295867328Y-92281202D01*
X295732482Y-92230908D01*
X295732483Y-92230908D01*
X295672883Y-92224501D01*
X295672881Y-92224500D01*
X295672873Y-92224500D01*
X295672864Y-92224500D01*
X294327129Y-92224500D01*
X294327123Y-92224501D01*
X294267516Y-92230908D01*
X294132671Y-92281202D01*
X294132664Y-92281206D01*
X294017455Y-92367452D01*
X294017452Y-92367455D01*
X293931206Y-92482664D01*
X293931202Y-92482671D01*
X293880908Y-92617517D01*
X293876045Y-92662755D01*
X293874501Y-92677123D01*
X293874500Y-92677135D01*
X293874500Y-93522870D01*
X293874501Y-93522876D01*
X293880908Y-93582481D01*
X293891344Y-93610461D01*
X293896327Y-93680153D01*
X293862842Y-93741474D01*
X292091137Y-95513181D01*
X292029814Y-95546666D01*
X292003456Y-95549500D01*
X280244664Y-95549500D01*
X280177625Y-95529815D01*
X280131870Y-95477011D01*
X280121374Y-95438754D01*
X280120488Y-95430516D01*
X280119091Y-95417517D01*
X280080808Y-95314874D01*
X280068797Y-95282671D01*
X280068793Y-95282664D01*
X279982547Y-95167455D01*
X279982544Y-95167452D01*
X279867335Y-95081206D01*
X279867328Y-95081202D01*
X279732482Y-95030908D01*
X279732483Y-95030908D01*
X279672883Y-95024501D01*
X279672881Y-95024500D01*
X279672873Y-95024500D01*
X279672864Y-95024500D01*
X278327129Y-95024500D01*
X278327123Y-95024501D01*
X278267516Y-95030908D01*
X278132671Y-95081202D01*
X278132664Y-95081206D01*
X278017455Y-95167452D01*
X278017452Y-95167455D01*
X277931206Y-95282664D01*
X277931202Y-95282671D01*
X277880908Y-95417517D01*
X277874512Y-95477011D01*
X277874501Y-95477123D01*
X277874500Y-95477135D01*
X277874500Y-96322870D01*
X264125500Y-96322870D01*
X264125499Y-95477128D01*
X264119091Y-95417517D01*
X264112115Y-95398815D01*
X264108656Y-95389540D01*
X264103670Y-95319849D01*
X264137153Y-95258527D01*
X265908862Y-93486819D01*
X265970186Y-93453334D01*
X265996544Y-93450500D01*
X277755336Y-93450500D01*
X277822375Y-93470185D01*
X277868130Y-93522989D01*
X277878626Y-93561246D01*
X277880909Y-93582483D01*
X277931202Y-93717328D01*
X277931206Y-93717335D01*
X278017452Y-93832544D01*
X278017455Y-93832547D01*
X278132664Y-93918793D01*
X278132671Y-93918797D01*
X278267517Y-93969091D01*
X278267516Y-93969091D01*
X278274444Y-93969835D01*
X278327127Y-93975500D01*
X279672872Y-93975499D01*
X279732483Y-93969091D01*
X279867331Y-93918796D01*
X279982546Y-93832546D01*
X280068796Y-93717331D01*
X280119091Y-93582483D01*
X280125500Y-93522873D01*
X280125499Y-92677128D01*
X280119444Y-92620797D01*
X280119091Y-92617516D01*
X280068797Y-92482671D01*
X280068793Y-92482664D01*
X279982547Y-92367455D01*
X279982544Y-92367452D01*
X279867335Y-92281206D01*
X279867328Y-92281202D01*
X279732482Y-92230908D01*
X279732483Y-92230908D01*
X279672883Y-92224501D01*
X279672881Y-92224500D01*
X279672873Y-92224500D01*
X279672864Y-92224500D01*
X278327129Y-92224500D01*
X278327123Y-92224501D01*
X278267516Y-92230908D01*
X278132671Y-92281202D01*
X278132664Y-92281206D01*
X278017455Y-92367452D01*
X278017452Y-92367455D01*
X277931206Y-92482664D01*
X277931202Y-92482671D01*
X277880908Y-92617516D01*
X277878625Y-92638757D01*
X277851886Y-92703308D01*
X277794493Y-92743155D01*
X277755336Y-92749500D01*
X265849211Y-92749500D01*
X265823765Y-92746861D01*
X265814685Y-92744957D01*
X265814684Y-92744957D01*
X265814682Y-92744957D01*
X265782061Y-92749023D01*
X265774385Y-92749500D01*
X265770960Y-92749500D01*
X265749457Y-92753087D01*
X265698608Y-92759426D01*
X265691570Y-92761521D01*
X265684622Y-92763906D01*
X265639555Y-92788295D01*
X265593512Y-92810803D01*
X265587566Y-92815048D01*
X265581742Y-92819581D01*
X265547042Y-92857275D01*
X263416135Y-94988181D01*
X263354812Y-95021666D01*
X263328454Y-95024500D01*
X262327129Y-95024500D01*
X262327123Y-95024501D01*
X262267516Y-95030908D01*
X262132671Y-95081202D01*
X262132664Y-95081206D01*
X262017455Y-95167452D01*
X262017452Y-95167455D01*
X261931206Y-95282664D01*
X261931202Y-95282671D01*
X261880908Y-95417517D01*
X261874512Y-95477011D01*
X261874501Y-95477123D01*
X261874500Y-95477135D01*
X261874500Y-96322870D01*
X248375000Y-96322870D01*
X248375000Y-96163000D01*
X247250000Y-96163000D01*
X246750000Y-96163000D01*
X245625001Y-96163000D01*
X244446259Y-96163000D01*
X244452957Y-96155724D01*
X245469778Y-95138902D01*
X245531099Y-95105419D01*
X245600791Y-95110403D01*
X245656724Y-95152275D01*
X245681141Y-95217739D01*
X245675163Y-95265588D01*
X245635495Y-95385298D01*
X245635493Y-95385309D01*
X245625000Y-95488013D01*
X245625000Y-95663000D01*
X246750000Y-95663000D01*
X246750000Y-94788000D01*
X247250000Y-94788000D01*
X247250000Y-95663000D01*
X248374999Y-95663000D01*
X248374999Y-95488028D01*
X248374998Y-95488013D01*
X248364505Y-95385302D01*
X248309358Y-95218880D01*
X248309356Y-95218875D01*
X248217315Y-95069654D01*
X248093345Y-94945684D01*
X247944124Y-94853643D01*
X247944119Y-94853641D01*
X247777697Y-94798494D01*
X247777690Y-94798493D01*
X247674986Y-94788000D01*
X247250000Y-94788000D01*
X246750000Y-94788000D01*
X246325028Y-94788000D01*
X246325012Y-94788001D01*
X246222302Y-94798494D01*
X246102589Y-94838163D01*
X246032760Y-94840565D01*
X245972718Y-94804833D01*
X245941526Y-94742312D01*
X245949087Y-94672853D01*
X245975901Y-94632779D01*
X246583863Y-94024818D01*
X246645186Y-93991333D01*
X246671544Y-93988499D01*
X247672871Y-93988499D01*
X247672872Y-93988499D01*
X247732483Y-93982091D01*
X247867331Y-93931796D01*
X247982546Y-93845546D01*
X248068796Y-93730331D01*
X248119091Y-93595483D01*
X248125500Y-93535873D01*
X248125499Y-92690128D01*
X248119091Y-92630517D01*
X248115465Y-92620796D01*
X248068797Y-92495671D01*
X248068793Y-92495664D01*
X247982547Y-92380455D01*
X247982544Y-92380452D01*
X247867335Y-92294206D01*
X247867328Y-92294202D01*
X247732482Y-92243908D01*
X247732483Y-92243908D01*
X247672883Y-92237501D01*
X247672881Y-92237500D01*
X247672873Y-92237500D01*
X247672864Y-92237500D01*
X246327129Y-92237500D01*
X246327123Y-92237501D01*
X246267516Y-92243908D01*
X246132671Y-92294202D01*
X246132664Y-92294206D01*
X246017455Y-92380452D01*
X246017452Y-92380455D01*
X245931206Y-92495664D01*
X245931202Y-92495671D01*
X245880908Y-92630517D01*
X245874512Y-92690011D01*
X245874501Y-92690123D01*
X245874500Y-92690135D01*
X245874500Y-93535870D01*
X245874501Y-93535876D01*
X245880908Y-93595481D01*
X245891344Y-93623461D01*
X245896327Y-93693153D01*
X245862842Y-93754474D01*
X244091137Y-95526181D01*
X244029814Y-95559666D01*
X244003456Y-95562500D01*
X232244664Y-95562500D01*
X232177625Y-95542815D01*
X232131870Y-95490011D01*
X232121374Y-95451754D01*
X232119976Y-95438754D01*
X232119091Y-95430517D01*
X232068796Y-95295669D01*
X232068795Y-95295668D01*
X232068793Y-95295664D01*
X231982547Y-95180455D01*
X231982544Y-95180452D01*
X231867335Y-95094206D01*
X231867328Y-95094202D01*
X231732482Y-95043908D01*
X231732483Y-95043908D01*
X231672883Y-95037501D01*
X231672881Y-95037500D01*
X231672873Y-95037500D01*
X231672864Y-95037500D01*
X230327129Y-95037500D01*
X230327123Y-95037501D01*
X230267516Y-95043908D01*
X230132671Y-95094202D01*
X230132664Y-95094206D01*
X230017455Y-95180452D01*
X230017452Y-95180455D01*
X229931206Y-95295664D01*
X229931202Y-95295671D01*
X229880908Y-95430517D01*
X229874501Y-95490116D01*
X229874500Y-95490135D01*
X229874500Y-96335870D01*
X216137270Y-96335870D01*
X216148114Y-96309692D01*
X216205507Y-96269845D01*
X216244664Y-96263500D01*
X228150789Y-96263500D01*
X228176234Y-96266138D01*
X228185315Y-96268043D01*
X228201005Y-96266087D01*
X228217939Y-96263977D01*
X228225615Y-96263500D01*
X228229035Y-96263500D01*
X228229040Y-96263500D01*
X228232608Y-96262904D01*
X228250539Y-96259913D01*
X228277958Y-96256494D01*
X228301393Y-96253573D01*
X228301402Y-96253568D01*
X228308451Y-96251470D01*
X228315377Y-96249092D01*
X228315381Y-96249092D01*
X228360444Y-96224704D01*
X228406484Y-96202198D01*
X228406487Y-96202194D01*
X228412453Y-96197935D01*
X228418254Y-96193419D01*
X228418258Y-96193418D01*
X228452957Y-96155724D01*
X230583863Y-94024818D01*
X230645186Y-93991333D01*
X230671544Y-93988499D01*
X231672871Y-93988499D01*
X231672872Y-93988499D01*
X231732483Y-93982091D01*
X231867331Y-93931796D01*
X231982546Y-93845546D01*
X232068796Y-93730331D01*
X232119091Y-93595483D01*
X232125500Y-93535873D01*
X232125499Y-92690128D01*
X232119091Y-92630517D01*
X232115465Y-92620796D01*
X232068797Y-92495671D01*
X232068793Y-92495664D01*
X231982547Y-92380455D01*
X231982544Y-92380452D01*
X231867335Y-92294206D01*
X231867328Y-92294202D01*
X231732482Y-92243908D01*
X231732483Y-92243908D01*
X231672883Y-92237501D01*
X231672881Y-92237500D01*
X231672873Y-92237500D01*
X231672864Y-92237500D01*
X230327129Y-92237500D01*
X230327123Y-92237501D01*
X230267516Y-92243908D01*
X230132671Y-92294202D01*
X230132664Y-92294206D01*
X230017455Y-92380452D01*
X230017452Y-92380455D01*
X229931206Y-92495664D01*
X229931202Y-92495671D01*
X229880908Y-92630517D01*
X229874512Y-92690011D01*
X229874501Y-92690123D01*
X229874500Y-92690135D01*
X229874500Y-93535870D01*
X229874501Y-93535876D01*
X229880908Y-93595481D01*
X229891344Y-93623461D01*
X229896327Y-93693153D01*
X229862842Y-93754474D01*
X228091137Y-95526181D01*
X228029814Y-95559666D01*
X228003456Y-95562500D01*
X216244664Y-95562500D01*
X216177625Y-95542815D01*
X216131870Y-95490011D01*
X216121374Y-95451754D01*
X216119976Y-95438754D01*
X216119091Y-95430517D01*
X216068796Y-95295669D01*
X216068795Y-95295668D01*
X216068793Y-95295664D01*
X215982547Y-95180455D01*
X215982544Y-95180452D01*
X215867335Y-95094206D01*
X215867328Y-95094202D01*
X215732482Y-95043908D01*
X215732483Y-95043908D01*
X215672883Y-95037501D01*
X215672881Y-95037500D01*
X215672873Y-95037500D01*
X215672864Y-95037500D01*
X214327129Y-95037500D01*
X214327123Y-95037501D01*
X214267516Y-95043908D01*
X214132671Y-95094202D01*
X214132664Y-95094206D01*
X214017455Y-95180452D01*
X214017452Y-95180455D01*
X213931206Y-95295664D01*
X213931202Y-95295671D01*
X213880908Y-95430517D01*
X213874501Y-95490116D01*
X213874500Y-95490135D01*
X213874500Y-96335870D01*
X200375000Y-96335870D01*
X200375000Y-96163000D01*
X199250000Y-96163000D01*
X198750000Y-96163000D01*
X197625001Y-96163000D01*
X184125500Y-96163000D01*
X184125499Y-95663000D01*
X197625000Y-95663000D01*
X198750000Y-95663000D01*
X198750000Y-94788000D01*
X199250000Y-94788000D01*
X199250000Y-95663000D01*
X200374999Y-95663000D01*
X200374999Y-95488028D01*
X200374998Y-95488013D01*
X200364505Y-95385302D01*
X200309358Y-95218880D01*
X200309356Y-95218875D01*
X200217315Y-95069654D01*
X200093345Y-94945684D01*
X199944124Y-94853643D01*
X199944119Y-94853641D01*
X199777697Y-94798494D01*
X199777690Y-94798493D01*
X199674986Y-94788000D01*
X199250000Y-94788000D01*
X198750000Y-94788000D01*
X198325028Y-94788000D01*
X198325012Y-94788001D01*
X198222302Y-94798494D01*
X198055880Y-94853641D01*
X198055875Y-94853643D01*
X197906654Y-94945684D01*
X197782684Y-95069654D01*
X197690643Y-95218875D01*
X197690641Y-95218880D01*
X197635494Y-95385302D01*
X197635493Y-95385309D01*
X197625000Y-95488013D01*
X197625000Y-95663000D01*
X184125499Y-95663000D01*
X184125499Y-95477128D01*
X184119091Y-95417517D01*
X184112115Y-95398815D01*
X184108656Y-95389540D01*
X184103670Y-95319849D01*
X184137153Y-95258527D01*
X185895862Y-93499819D01*
X185957186Y-93466334D01*
X185983544Y-93463500D01*
X197755336Y-93463500D01*
X197822375Y-93483185D01*
X197868130Y-93535989D01*
X197878626Y-93574246D01*
X197880909Y-93595483D01*
X197931202Y-93730328D01*
X197931206Y-93730335D01*
X198017452Y-93845544D01*
X198017455Y-93845547D01*
X198132664Y-93931793D01*
X198132671Y-93931797D01*
X198267517Y-93982091D01*
X198267516Y-93982091D01*
X198274444Y-93982835D01*
X198327127Y-93988500D01*
X199672872Y-93988499D01*
X199732483Y-93982091D01*
X199867331Y-93931796D01*
X199982546Y-93845546D01*
X200068796Y-93730331D01*
X200119091Y-93595483D01*
X200125500Y-93535873D01*
X200125499Y-92690128D01*
X200119091Y-92630517D01*
X200115465Y-92620796D01*
X200068797Y-92495671D01*
X200068793Y-92495664D01*
X199982547Y-92380455D01*
X199982544Y-92380452D01*
X199867335Y-92294206D01*
X199867328Y-92294202D01*
X199732482Y-92243908D01*
X199732483Y-92243908D01*
X199672883Y-92237501D01*
X199672881Y-92237500D01*
X199672873Y-92237500D01*
X199672864Y-92237500D01*
X198327129Y-92237500D01*
X198327123Y-92237501D01*
X198267516Y-92243908D01*
X198132671Y-92294202D01*
X198132664Y-92294206D01*
X198017455Y-92380452D01*
X198017452Y-92380455D01*
X197931206Y-92495664D01*
X197931202Y-92495671D01*
X197880908Y-92630516D01*
X197878625Y-92651757D01*
X197851886Y-92716308D01*
X197794493Y-92756155D01*
X197755336Y-92762500D01*
X185836206Y-92762500D01*
X185810761Y-92759861D01*
X185801685Y-92757958D01*
X185801682Y-92757958D01*
X185769068Y-92762023D01*
X185761392Y-92762500D01*
X185757960Y-92762500D01*
X185743619Y-92764892D01*
X185736448Y-92766089D01*
X185719621Y-92768186D01*
X185685607Y-92772427D01*
X185685606Y-92772427D01*
X185685601Y-92772428D01*
X185678575Y-92774519D01*
X185671623Y-92776906D01*
X185671619Y-92776907D01*
X185671619Y-92776908D01*
X185658163Y-92784190D01*
X185626555Y-92801295D01*
X185580512Y-92823803D01*
X185574566Y-92828048D01*
X185568742Y-92832581D01*
X185534042Y-92870275D01*
X183416135Y-94988181D01*
X183354812Y-95021666D01*
X183328454Y-95024500D01*
X182327129Y-95024500D01*
X182327123Y-95024501D01*
X182267516Y-95030908D01*
X182132671Y-95081202D01*
X182132664Y-95081206D01*
X182017455Y-95167452D01*
X182017452Y-95167455D01*
X181931206Y-95282664D01*
X181931202Y-95282671D01*
X181880908Y-95417517D01*
X181874512Y-95477011D01*
X181874501Y-95477123D01*
X181874500Y-95477135D01*
X181874500Y-96322870D01*
X168125500Y-96322870D01*
X168125499Y-95477128D01*
X168119091Y-95417517D01*
X168112115Y-95398815D01*
X168108656Y-95389540D01*
X168103670Y-95319849D01*
X168137153Y-95258527D01*
X169908862Y-93486819D01*
X169970186Y-93453334D01*
X169996544Y-93450500D01*
X181755336Y-93450500D01*
X181822375Y-93470185D01*
X181868130Y-93522989D01*
X181878626Y-93561246D01*
X181880909Y-93582483D01*
X181931202Y-93717328D01*
X181931206Y-93717335D01*
X182017452Y-93832544D01*
X182017455Y-93832547D01*
X182132664Y-93918793D01*
X182132671Y-93918797D01*
X182267517Y-93969091D01*
X182267516Y-93969091D01*
X182274444Y-93969835D01*
X182327127Y-93975500D01*
X183672872Y-93975499D01*
X183732483Y-93969091D01*
X183867331Y-93918796D01*
X183982546Y-93832546D01*
X184068796Y-93717331D01*
X184119091Y-93582483D01*
X184125500Y-93522873D01*
X184125499Y-92677128D01*
X184119444Y-92620797D01*
X184119091Y-92617516D01*
X184068797Y-92482671D01*
X184068793Y-92482664D01*
X183982547Y-92367455D01*
X183982544Y-92367452D01*
X183867335Y-92281206D01*
X183867328Y-92281202D01*
X183732482Y-92230908D01*
X183732483Y-92230908D01*
X183672883Y-92224501D01*
X183672881Y-92224500D01*
X183672873Y-92224500D01*
X183672864Y-92224500D01*
X182327129Y-92224500D01*
X182327123Y-92224501D01*
X182267516Y-92230908D01*
X182132671Y-92281202D01*
X182132664Y-92281206D01*
X182017455Y-92367452D01*
X182017452Y-92367455D01*
X181931206Y-92482664D01*
X181931202Y-92482671D01*
X181880908Y-92617516D01*
X181878625Y-92638757D01*
X181851886Y-92703308D01*
X181794493Y-92743155D01*
X181755336Y-92749500D01*
X169849211Y-92749500D01*
X169823765Y-92746861D01*
X169814685Y-92744957D01*
X169814684Y-92744957D01*
X169814682Y-92744957D01*
X169782061Y-92749023D01*
X169774385Y-92749500D01*
X169770960Y-92749500D01*
X169749457Y-92753087D01*
X169698608Y-92759426D01*
X169691570Y-92761521D01*
X169684622Y-92763906D01*
X169639555Y-92788295D01*
X169593512Y-92810803D01*
X169587566Y-92815048D01*
X169581742Y-92819581D01*
X169547042Y-92857275D01*
X167416135Y-94988181D01*
X167354812Y-95021666D01*
X167328454Y-95024500D01*
X166327129Y-95024500D01*
X166327123Y-95024501D01*
X166267516Y-95030908D01*
X166132671Y-95081202D01*
X166132664Y-95081206D01*
X166017455Y-95167452D01*
X166017452Y-95167455D01*
X165931206Y-95282664D01*
X165931202Y-95282671D01*
X165880908Y-95417517D01*
X165874512Y-95477011D01*
X165874501Y-95477123D01*
X165874500Y-95477135D01*
X165874500Y-96322870D01*
X152375000Y-96322870D01*
X152375000Y-96163000D01*
X151250000Y-96163000D01*
X150750000Y-96163000D01*
X149625001Y-96163000D01*
X148447292Y-96163000D01*
X148465957Y-96142724D01*
X149469778Y-95138902D01*
X149531099Y-95105419D01*
X149600791Y-95110403D01*
X149656724Y-95152275D01*
X149681141Y-95217739D01*
X149675163Y-95265588D01*
X149635495Y-95385298D01*
X149635493Y-95385309D01*
X149625000Y-95488013D01*
X149625000Y-95663000D01*
X150750000Y-95663000D01*
X150750000Y-94788000D01*
X151250000Y-94788000D01*
X151250000Y-95663000D01*
X152374999Y-95663000D01*
X152374999Y-95488028D01*
X152374998Y-95488013D01*
X152364505Y-95385302D01*
X152309358Y-95218880D01*
X152309356Y-95218875D01*
X152217315Y-95069654D01*
X152093345Y-94945684D01*
X151944124Y-94853643D01*
X151944119Y-94853641D01*
X151777697Y-94798494D01*
X151777690Y-94798493D01*
X151674986Y-94788000D01*
X151250000Y-94788000D01*
X150750000Y-94788000D01*
X150325028Y-94788000D01*
X150325012Y-94788001D01*
X150222302Y-94798494D01*
X150102589Y-94838163D01*
X150032760Y-94840565D01*
X149972718Y-94804833D01*
X149941526Y-94742312D01*
X149949087Y-94672853D01*
X149975901Y-94632779D01*
X150583863Y-94024817D01*
X150645186Y-93991333D01*
X150671544Y-93988499D01*
X151672871Y-93988499D01*
X151672872Y-93988499D01*
X151732483Y-93982091D01*
X151867331Y-93931796D01*
X151982546Y-93845546D01*
X152068796Y-93730331D01*
X152119091Y-93595483D01*
X152125500Y-93535873D01*
X152125499Y-92690128D01*
X152119091Y-92630517D01*
X152115465Y-92620796D01*
X152068797Y-92495671D01*
X152068793Y-92495664D01*
X151982547Y-92380455D01*
X151982544Y-92380452D01*
X151867335Y-92294206D01*
X151867328Y-92294202D01*
X151732482Y-92243908D01*
X151732483Y-92243908D01*
X151672883Y-92237501D01*
X151672881Y-92237500D01*
X151672873Y-92237500D01*
X151672864Y-92237500D01*
X150327129Y-92237500D01*
X150327123Y-92237501D01*
X150267516Y-92243908D01*
X150132671Y-92294202D01*
X150132664Y-92294206D01*
X150017455Y-92380452D01*
X150017452Y-92380455D01*
X149931206Y-92495664D01*
X149931202Y-92495671D01*
X149880908Y-92630517D01*
X149874512Y-92690011D01*
X149874501Y-92690123D01*
X149874500Y-92690135D01*
X149874500Y-93535870D01*
X149874501Y-93535876D01*
X149880908Y-93595481D01*
X149891344Y-93623461D01*
X149896327Y-93693153D01*
X149862842Y-93754474D01*
X148104137Y-95513181D01*
X148042814Y-95546666D01*
X148016456Y-95549500D01*
X136244664Y-95549500D01*
X136177625Y-95529815D01*
X136131870Y-95477011D01*
X136121374Y-95438754D01*
X136120488Y-95430516D01*
X136119091Y-95417517D01*
X136080808Y-95314874D01*
X136068797Y-95282671D01*
X136068793Y-95282664D01*
X135982547Y-95167455D01*
X135982544Y-95167452D01*
X135867335Y-95081206D01*
X135867328Y-95081202D01*
X135732482Y-95030908D01*
X135732483Y-95030908D01*
X135672883Y-95024501D01*
X135672881Y-95024500D01*
X135672873Y-95024500D01*
X135672864Y-95024500D01*
X134327129Y-95024500D01*
X134327123Y-95024501D01*
X134267516Y-95030908D01*
X134132671Y-95081202D01*
X134132664Y-95081206D01*
X134017455Y-95167452D01*
X134017452Y-95167455D01*
X133931206Y-95282664D01*
X133931202Y-95282671D01*
X133880908Y-95417517D01*
X133874512Y-95477011D01*
X133874501Y-95477123D01*
X133874500Y-95477135D01*
X133874500Y-96322870D01*
X120137270Y-96322870D01*
X120148114Y-96296692D01*
X120205507Y-96256845D01*
X120244664Y-96250500D01*
X132150789Y-96250500D01*
X132176234Y-96253138D01*
X132185315Y-96255043D01*
X132201005Y-96253087D01*
X132217939Y-96250977D01*
X132225615Y-96250500D01*
X132229035Y-96250500D01*
X132229040Y-96250500D01*
X132232608Y-96249904D01*
X132250539Y-96246913D01*
X132277958Y-96243494D01*
X132301393Y-96240573D01*
X132301402Y-96240568D01*
X132308451Y-96238470D01*
X132315377Y-96236092D01*
X132315381Y-96236092D01*
X132360444Y-96211704D01*
X132406484Y-96189198D01*
X132406487Y-96189194D01*
X132412453Y-96184935D01*
X132418254Y-96180419D01*
X132418258Y-96180418D01*
X132452957Y-96142724D01*
X134583863Y-94011817D01*
X134645186Y-93978333D01*
X134671544Y-93975499D01*
X135672871Y-93975499D01*
X135672872Y-93975499D01*
X135732483Y-93969091D01*
X135867331Y-93918796D01*
X135982546Y-93832546D01*
X136068796Y-93717331D01*
X136119091Y-93582483D01*
X136125500Y-93522873D01*
X136125499Y-92677128D01*
X136119444Y-92620797D01*
X136119091Y-92617516D01*
X136068797Y-92482671D01*
X136068793Y-92482664D01*
X135982547Y-92367455D01*
X135982544Y-92367452D01*
X135867335Y-92281206D01*
X135867328Y-92281202D01*
X135732482Y-92230908D01*
X135732483Y-92230908D01*
X135672883Y-92224501D01*
X135672881Y-92224500D01*
X135672873Y-92224500D01*
X135672864Y-92224500D01*
X134327129Y-92224500D01*
X134327123Y-92224501D01*
X134267516Y-92230908D01*
X134132671Y-92281202D01*
X134132664Y-92281206D01*
X134017455Y-92367452D01*
X134017452Y-92367455D01*
X133931206Y-92482664D01*
X133931202Y-92482671D01*
X133880908Y-92617517D01*
X133876045Y-92662755D01*
X133874501Y-92677123D01*
X133874500Y-92677135D01*
X133874500Y-93522870D01*
X133874501Y-93522876D01*
X133880908Y-93582481D01*
X133891344Y-93610461D01*
X133896327Y-93680153D01*
X133862842Y-93741474D01*
X132091137Y-95513181D01*
X132029814Y-95546666D01*
X132003456Y-95549500D01*
X120244664Y-95549500D01*
X120177625Y-95529815D01*
X120131870Y-95477011D01*
X120121374Y-95438754D01*
X120120488Y-95430516D01*
X120119091Y-95417517D01*
X120080808Y-95314874D01*
X120068797Y-95282671D01*
X120068793Y-95282664D01*
X119982547Y-95167455D01*
X119982544Y-95167452D01*
X119867335Y-95081206D01*
X119867328Y-95081202D01*
X119732482Y-95030908D01*
X119732483Y-95030908D01*
X119672883Y-95024501D01*
X119672881Y-95024500D01*
X119672873Y-95024500D01*
X119672864Y-95024500D01*
X118327129Y-95024500D01*
X118327123Y-95024501D01*
X118267516Y-95030908D01*
X118132671Y-95081202D01*
X118132664Y-95081206D01*
X118017455Y-95167452D01*
X118017452Y-95167455D01*
X117931206Y-95282664D01*
X117931202Y-95282671D01*
X117880908Y-95417517D01*
X117874512Y-95477011D01*
X117874501Y-95477123D01*
X117874500Y-95477135D01*
X117874500Y-96322870D01*
X104375000Y-96322870D01*
X104375000Y-96163000D01*
X103250000Y-96163000D01*
X102750000Y-96163000D01*
X101625001Y-96163000D01*
X92066999Y-96163000D01*
X92066999Y-95935394D01*
X92064082Y-95892366D01*
X92064082Y-95892365D01*
X92049922Y-95835426D01*
X92052846Y-95765618D01*
X92093046Y-95708471D01*
X92157761Y-95682131D01*
X92170257Y-95681500D01*
X93005196Y-95681500D01*
X93030641Y-95684139D01*
X93034440Y-95684935D01*
X93041268Y-95686367D01*
X93062225Y-95683754D01*
X93076492Y-95681977D01*
X93084168Y-95681500D01*
X93088112Y-95681500D01*
X93088114Y-95681500D01*
X93088116Y-95681499D01*
X93088122Y-95681499D01*
X93103487Y-95678934D01*
X93111140Y-95677657D01*
X93165626Y-95670866D01*
X93165627Y-95670865D01*
X93165629Y-95670865D01*
X93173141Y-95668628D01*
X93180606Y-95666066D01*
X93180606Y-95666065D01*
X93180610Y-95666065D01*
X93186274Y-95663000D01*
X101625000Y-95663000D01*
X102750000Y-95663000D01*
X102750000Y-94788000D01*
X103250000Y-94788000D01*
X103250000Y-95663000D01*
X104374999Y-95663000D01*
X104374999Y-95488028D01*
X104374998Y-95488013D01*
X104364505Y-95385302D01*
X104309358Y-95218880D01*
X104309356Y-95218875D01*
X104217315Y-95069654D01*
X104093345Y-94945684D01*
X103944124Y-94853643D01*
X103944119Y-94853641D01*
X103777697Y-94798494D01*
X103777690Y-94798493D01*
X103674986Y-94788000D01*
X103250000Y-94788000D01*
X102750000Y-94788000D01*
X102325028Y-94788000D01*
X102325012Y-94788001D01*
X102222302Y-94798494D01*
X102055880Y-94853641D01*
X102055875Y-94853643D01*
X101906654Y-94945684D01*
X101782684Y-95069654D01*
X101690643Y-95218875D01*
X101690641Y-95218880D01*
X101635494Y-95385302D01*
X101635493Y-95385309D01*
X101625000Y-95488013D01*
X101625000Y-95663000D01*
X93186274Y-95663000D01*
X93228877Y-95639944D01*
X93278211Y-95615826D01*
X93278213Y-95615823D01*
X93284594Y-95611268D01*
X93290819Y-95606422D01*
X93290826Y-95606419D01*
X93328008Y-95566028D01*
X94360431Y-94533605D01*
X95394218Y-93499819D01*
X95455541Y-93466334D01*
X95481899Y-93463500D01*
X101755336Y-93463500D01*
X101822375Y-93483185D01*
X101868130Y-93535989D01*
X101878626Y-93574246D01*
X101880909Y-93595483D01*
X101931202Y-93730328D01*
X101931206Y-93730335D01*
X102017452Y-93845544D01*
X102017455Y-93845547D01*
X102132664Y-93931793D01*
X102132671Y-93931797D01*
X102267517Y-93982091D01*
X102267516Y-93982091D01*
X102274444Y-93982835D01*
X102327127Y-93988500D01*
X103672872Y-93988499D01*
X103732483Y-93982091D01*
X103867331Y-93931796D01*
X103982546Y-93845546D01*
X104068796Y-93730331D01*
X104119091Y-93595483D01*
X104125500Y-93535873D01*
X104125499Y-92690128D01*
X104119091Y-92630517D01*
X104115465Y-92620796D01*
X104068797Y-92495671D01*
X104068793Y-92495664D01*
X103982547Y-92380455D01*
X103982544Y-92380452D01*
X103867335Y-92294206D01*
X103867328Y-92294202D01*
X103732482Y-92243908D01*
X103732483Y-92243908D01*
X103672883Y-92237501D01*
X103672881Y-92237500D01*
X103672873Y-92237500D01*
X103672864Y-92237500D01*
X102327129Y-92237500D01*
X102327123Y-92237501D01*
X102267516Y-92243908D01*
X102132671Y-92294202D01*
X102132664Y-92294206D01*
X102017455Y-92380452D01*
X102017452Y-92380455D01*
X101931206Y-92495664D01*
X101931202Y-92495671D01*
X101880908Y-92630516D01*
X101878625Y-92651757D01*
X101851886Y-92716308D01*
X101794493Y-92756155D01*
X101755336Y-92762500D01*
X95421031Y-92762500D01*
X95395584Y-92759861D01*
X95388386Y-92758351D01*
X95388385Y-92758351D01*
X95265731Y-92732633D01*
X95265729Y-92732633D01*
X95265728Y-92732633D01*
X95141374Y-92748135D01*
X95028786Y-92803174D01*
X92937781Y-94894181D01*
X92876458Y-94927666D01*
X92850100Y-94930500D01*
X87645803Y-94930500D01*
X87620358Y-94927861D01*
X87609732Y-94925633D01*
X87609729Y-94925633D01*
X87574507Y-94930023D01*
X87566831Y-94930500D01*
X87562886Y-94930500D01*
X87545615Y-94933381D01*
X87539858Y-94934342D01*
X87485370Y-94941134D01*
X87477857Y-94943371D01*
X87470387Y-94945936D01*
X87422122Y-94972055D01*
X87372789Y-94996173D01*
X87365442Y-95001419D01*
X87299443Y-95024352D01*
X87293391Y-95024500D01*
X86327129Y-95024500D01*
X86327123Y-95024501D01*
X86267516Y-95030908D01*
X86132671Y-95081202D01*
X86132664Y-95081206D01*
X86017455Y-95167452D01*
X86017452Y-95167455D01*
X85931206Y-95282664D01*
X85931202Y-95282671D01*
X85880908Y-95417517D01*
X85874512Y-95477011D01*
X85874501Y-95477123D01*
X85874500Y-95477135D01*
X85874500Y-96322870D01*
X82900000Y-96322870D01*
X82900000Y-96225000D01*
X81750000Y-96225000D01*
X81250000Y-96225000D01*
X79345000Y-96225000D01*
X78845000Y-96225000D01*
X76932000Y-96225000D01*
X76432000Y-96225000D01*
X74519000Y-96225000D01*
X74019000Y-96225000D01*
X72869001Y-96225000D01*
X72157796Y-96225000D01*
X72195045Y-96191856D01*
X72200484Y-96189198D01*
X72200486Y-96189195D01*
X72206453Y-96184935D01*
X72212254Y-96180419D01*
X72212258Y-96180418D01*
X72246957Y-96142724D01*
X72679161Y-95710519D01*
X72740482Y-95677036D01*
X72810173Y-95682020D01*
X72854521Y-95710521D01*
X72869000Y-95725000D01*
X74019000Y-95725000D01*
X74019000Y-94900000D01*
X74519000Y-94900000D01*
X74519000Y-95725000D01*
X76432000Y-95725000D01*
X76432000Y-94900000D01*
X76932000Y-94900000D01*
X76932000Y-95725000D01*
X78845000Y-95725000D01*
X78845000Y-94900000D01*
X79345000Y-94900000D01*
X79345000Y-95725000D01*
X81250000Y-95725000D01*
X81250000Y-94900000D01*
X81750000Y-94900000D01*
X81750000Y-95725000D01*
X82899999Y-95725000D01*
X82899999Y-95600028D01*
X82899998Y-95600013D01*
X82889505Y-95497302D01*
X82834358Y-95330880D01*
X82834356Y-95330875D01*
X82742315Y-95181654D01*
X82618345Y-95057684D01*
X82469124Y-94965643D01*
X82469119Y-94965641D01*
X82302697Y-94910494D01*
X82302690Y-94910493D01*
X82199986Y-94900000D01*
X81750000Y-94900000D01*
X81250000Y-94900000D01*
X80800028Y-94900000D01*
X80800012Y-94900001D01*
X80697302Y-94910494D01*
X80530880Y-94965641D01*
X80530875Y-94965643D01*
X80381653Y-95057684D01*
X80375993Y-95062161D01*
X80374343Y-95060075D01*
X80323858Y-95087643D01*
X80254166Y-95082659D01*
X80220106Y-95060769D01*
X80219007Y-95062161D01*
X80213346Y-95057684D01*
X80064124Y-94965643D01*
X80064119Y-94965641D01*
X79897697Y-94910494D01*
X79897690Y-94910493D01*
X79794986Y-94900000D01*
X79345000Y-94900000D01*
X78845000Y-94900000D01*
X78395028Y-94900000D01*
X78395012Y-94900001D01*
X78292302Y-94910494D01*
X78125880Y-94965641D01*
X78125875Y-94965643D01*
X77976654Y-95057684D01*
X77976181Y-95058158D01*
X77975775Y-95058379D01*
X77970993Y-95062161D01*
X77970346Y-95061343D01*
X77914858Y-95091643D01*
X77845166Y-95086659D01*
X77806357Y-95061717D01*
X77806007Y-95062161D01*
X77801489Y-95058589D01*
X77800819Y-95058158D01*
X77800345Y-95057684D01*
X77651124Y-94965643D01*
X77651119Y-94965641D01*
X77484697Y-94910494D01*
X77484690Y-94910493D01*
X77381986Y-94900000D01*
X76932000Y-94900000D01*
X76432000Y-94900000D01*
X75982028Y-94900000D01*
X75982012Y-94900001D01*
X75879302Y-94910494D01*
X75712880Y-94965641D01*
X75712875Y-94965643D01*
X75563654Y-95057684D01*
X75563181Y-95058158D01*
X75562775Y-95058379D01*
X75557993Y-95062161D01*
X75557346Y-95061343D01*
X75501858Y-95091643D01*
X75432166Y-95086659D01*
X75393357Y-95061717D01*
X75393007Y-95062161D01*
X75388489Y-95058589D01*
X75387819Y-95058158D01*
X75387345Y-95057684D01*
X75238124Y-94965643D01*
X75238119Y-94965641D01*
X75071697Y-94910494D01*
X75071690Y-94910493D01*
X74968986Y-94900000D01*
X74519000Y-94900000D01*
X74019000Y-94900000D01*
X73789042Y-94900000D01*
X73722003Y-94880315D01*
X73676248Y-94827511D01*
X73666304Y-94758353D01*
X73695329Y-94694797D01*
X73701323Y-94688358D01*
X73996865Y-94392816D01*
X74058186Y-94359334D01*
X74084544Y-94356500D01*
X86044789Y-94356500D01*
X86070234Y-94359138D01*
X86079315Y-94361043D01*
X86095005Y-94359087D01*
X86111939Y-94356977D01*
X86119615Y-94356500D01*
X86123035Y-94356500D01*
X86123040Y-94356500D01*
X86126608Y-94355904D01*
X86144539Y-94352913D01*
X86171958Y-94349494D01*
X86195393Y-94346573D01*
X86195402Y-94346568D01*
X86202451Y-94344470D01*
X86209377Y-94342092D01*
X86209381Y-94342092D01*
X86254444Y-94317704D01*
X86300484Y-94295198D01*
X86300487Y-94295194D01*
X86306453Y-94290935D01*
X86312254Y-94286419D01*
X86312258Y-94286418D01*
X86346957Y-94248724D01*
X86583863Y-94011818D01*
X86645186Y-93978333D01*
X86671544Y-93975499D01*
X87672871Y-93975499D01*
X87672872Y-93975499D01*
X87732483Y-93969091D01*
X87867331Y-93918796D01*
X87982546Y-93832546D01*
X88068796Y-93717331D01*
X88119091Y-93582483D01*
X88125500Y-93522873D01*
X88125499Y-92677128D01*
X88123954Y-92662752D01*
X88136361Y-92593993D01*
X88183973Y-92542857D01*
X88247244Y-92525500D01*
X88906500Y-92525500D01*
X88973539Y-92545185D01*
X89019294Y-92597989D01*
X89030500Y-92649500D01*
X89030500Y-93281773D01*
X89033317Y-93317569D01*
X89033319Y-93317580D01*
X89077830Y-93470787D01*
X89077832Y-93470793D01*
X89159049Y-93608124D01*
X89159055Y-93608132D01*
X89271867Y-93720944D01*
X89271871Y-93720947D01*
X89271873Y-93720949D01*
X89328069Y-93754183D01*
X89395051Y-93793796D01*
X89409208Y-93802168D01*
X89562426Y-93846682D01*
X89582885Y-93848292D01*
X89598227Y-93849500D01*
X89598230Y-93849500D01*
X91249773Y-93849500D01*
X91263196Y-93848443D01*
X91285574Y-93846682D01*
X91438792Y-93802168D01*
X91576127Y-93720949D01*
X91688949Y-93608127D01*
X91770168Y-93470792D01*
X91814682Y-93317574D01*
X91817149Y-93286235D01*
X91817500Y-93281773D01*
X91817500Y-92392227D01*
X91814682Y-92356430D01*
X91814682Y-92356426D01*
X91770168Y-92203208D01*
X91762425Y-92190116D01*
X91711857Y-92104609D01*
X91688949Y-92065873D01*
X91688947Y-92065871D01*
X91688944Y-92065867D01*
X91576132Y-91953055D01*
X91576124Y-91953049D01*
X91438793Y-91871832D01*
X91438787Y-91871830D01*
X91285580Y-91827319D01*
X91285569Y-91827317D01*
X91249773Y-91824500D01*
X91249770Y-91824500D01*
X89966659Y-91824500D01*
X89912197Y-91811900D01*
X89904198Y-91807989D01*
X89851596Y-91792329D01*
X89799658Y-91774499D01*
X89791923Y-91773208D01*
X89784085Y-91772231D01*
X89729244Y-91774500D01*
X85345803Y-91774500D01*
X85320358Y-91771861D01*
X85309732Y-91769633D01*
X85309729Y-91769633D01*
X85274507Y-91774023D01*
X85266831Y-91774500D01*
X85262886Y-91774500D01*
X85251371Y-91776421D01*
X85239856Y-91778342D01*
X85221696Y-91780606D01*
X85185375Y-91785134D01*
X85185371Y-91785135D01*
X85177842Y-91787377D01*
X85170383Y-91789937D01*
X85122118Y-91816058D01*
X85072791Y-91840172D01*
X85066381Y-91844748D01*
X85060175Y-91849579D01*
X85022992Y-91889970D01*
X84274781Y-92638181D01*
X84213458Y-92671666D01*
X84187100Y-92674500D01*
X82760764Y-92674500D01*
X82693725Y-92654815D01*
X82647970Y-92602011D01*
X82644582Y-92593833D01*
X82593797Y-92457671D01*
X82593793Y-92457664D01*
X82507547Y-92342455D01*
X82507544Y-92342452D01*
X82392335Y-92256206D01*
X82392328Y-92256202D01*
X82257482Y-92205908D01*
X82257483Y-92205908D01*
X82197883Y-92199501D01*
X82197881Y-92199500D01*
X82197873Y-92199500D01*
X82197864Y-92199500D01*
X80802129Y-92199500D01*
X80802123Y-92199501D01*
X80742516Y-92205908D01*
X80607671Y-92256202D01*
X80607664Y-92256206D01*
X80492455Y-92342452D01*
X80492452Y-92342455D01*
X80400888Y-92464769D01*
X80399806Y-92463959D01*
X80356922Y-92506841D01*
X80288648Y-92521690D01*
X80223185Y-92497269D01*
X80194664Y-92464355D01*
X80194112Y-92464769D01*
X80102547Y-92342455D01*
X80102544Y-92342452D01*
X79987335Y-92256206D01*
X79987328Y-92256202D01*
X79852482Y-92205908D01*
X79852483Y-92205908D01*
X79792883Y-92199501D01*
X79792881Y-92199500D01*
X79792873Y-92199500D01*
X79792864Y-92199500D01*
X78397129Y-92199500D01*
X78397123Y-92199501D01*
X78337516Y-92205908D01*
X78202671Y-92256202D01*
X78202664Y-92256206D01*
X78087455Y-92342452D01*
X78087452Y-92342455D01*
X78001204Y-92457667D01*
X77997330Y-92464762D01*
X77947923Y-92514165D01*
X77879649Y-92529015D01*
X77814186Y-92504595D01*
X77779670Y-92464762D01*
X77775795Y-92457667D01*
X77689547Y-92342455D01*
X77689544Y-92342452D01*
X77574335Y-92256206D01*
X77574328Y-92256202D01*
X77439482Y-92205908D01*
X77439483Y-92205908D01*
X77379883Y-92199501D01*
X77379881Y-92199500D01*
X77379873Y-92199500D01*
X77379864Y-92199500D01*
X75984129Y-92199500D01*
X75984123Y-92199501D01*
X75924516Y-92205908D01*
X75789671Y-92256202D01*
X75789664Y-92256206D01*
X75674455Y-92342452D01*
X75674452Y-92342455D01*
X75588204Y-92457667D01*
X75584330Y-92464762D01*
X75534923Y-92514165D01*
X75466649Y-92529015D01*
X75401186Y-92504595D01*
X75366670Y-92464762D01*
X75362795Y-92457667D01*
X75276547Y-92342455D01*
X75276544Y-92342452D01*
X75161335Y-92256206D01*
X75161328Y-92256202D01*
X75026482Y-92205908D01*
X75026483Y-92205908D01*
X74966883Y-92199501D01*
X74966881Y-92199500D01*
X74966873Y-92199500D01*
X74966864Y-92199500D01*
X73571129Y-92199500D01*
X73571123Y-92199501D01*
X73511516Y-92205908D01*
X73376671Y-92256202D01*
X73376664Y-92256206D01*
X73261455Y-92342452D01*
X73261452Y-92342455D01*
X73175206Y-92457664D01*
X73175202Y-92457671D01*
X73125248Y-92591608D01*
X73124909Y-92592517D01*
X73118500Y-92652127D01*
X73118500Y-92652134D01*
X73118500Y-92652135D01*
X73118500Y-93356954D01*
X73098815Y-93423993D01*
X73082181Y-93444635D01*
X72888635Y-93638182D01*
X72827315Y-93671666D01*
X72800956Y-93674500D01*
X72247244Y-93674500D01*
X72180205Y-93654815D01*
X72134450Y-93602011D01*
X72123954Y-93537247D01*
X72125500Y-93522873D01*
X72125499Y-92677128D01*
X72119444Y-92620797D01*
X72119091Y-92617516D01*
X72068797Y-92482671D01*
X72068793Y-92482664D01*
X71982547Y-92367455D01*
X71982544Y-92367452D01*
X71867335Y-92281206D01*
X71867328Y-92281202D01*
X71732482Y-92230908D01*
X71732483Y-92230908D01*
X71672883Y-92224501D01*
X71672881Y-92224500D01*
X71672873Y-92224500D01*
X71672865Y-92224500D01*
X71670144Y-92224500D01*
X71603105Y-92204815D01*
X71557350Y-92152011D01*
X71547406Y-92082853D01*
X71576431Y-92019297D01*
X71622077Y-91987604D01*
X71621998Y-91987460D01*
X71623344Y-91986724D01*
X71626809Y-91984319D01*
X71629778Y-91983212D01*
X71742116Y-91899116D01*
X71826212Y-91786778D01*
X71875251Y-91655299D01*
X71877272Y-91636500D01*
X71881499Y-91597190D01*
X71881500Y-91597173D01*
X71881500Y-91028826D01*
X71881499Y-91028818D01*
X71881170Y-91025752D01*
X71893578Y-90956993D01*
X71941189Y-90905857D01*
X72004460Y-90888500D01*
X111428956Y-90888500D01*
X111495995Y-90908185D01*
X111516637Y-90924819D01*
X113313181Y-92721362D01*
X113346666Y-92782685D01*
X113349500Y-92809043D01*
X113349500Y-93284190D01*
X113355748Y-93342299D01*
X113390940Y-93436651D01*
X113403674Y-93470792D01*
X113404789Y-93473780D01*
X113422372Y-93497267D01*
X113488884Y-93586116D01*
X113579055Y-93653618D01*
X113598372Y-93668079D01*
X113601222Y-93670212D01*
X113676060Y-93698125D01*
X113732700Y-93719251D01*
X113790809Y-93725499D01*
X113790826Y-93725500D01*
X114384174Y-93725500D01*
X114384190Y-93725499D01*
X114442299Y-93719251D01*
X114462678Y-93711650D01*
X114573778Y-93670212D01*
X114686116Y-93586116D01*
X114770212Y-93473778D01*
X114819251Y-93342299D01*
X114822272Y-93314198D01*
X114825499Y-93284190D01*
X114825499Y-93284183D01*
X114825500Y-93284174D01*
X114825499Y-92809042D01*
X114845183Y-92742004D01*
X114861813Y-92721367D01*
X114963073Y-92620107D01*
X115024394Y-92586624D01*
X115094086Y-92591608D01*
X115150019Y-92633480D01*
X115174436Y-92698944D01*
X115174575Y-92714408D01*
X115174500Y-92715811D01*
X115174500Y-93284190D01*
X115180748Y-93342299D01*
X115215940Y-93436651D01*
X115228674Y-93470792D01*
X115229789Y-93473780D01*
X115247372Y-93497267D01*
X115313884Y-93586116D01*
X115404055Y-93653618D01*
X115423372Y-93668079D01*
X115426222Y-93670212D01*
X115501060Y-93698125D01*
X115557700Y-93719251D01*
X115615809Y-93725499D01*
X115615826Y-93725500D01*
X116209174Y-93725500D01*
X116209190Y-93725499D01*
X116267299Y-93719251D01*
X116287678Y-93711650D01*
X116398778Y-93670212D01*
X116511116Y-93586116D01*
X116575440Y-93500188D01*
X116631376Y-93458318D01*
X116674708Y-93450500D01*
X117755336Y-93450500D01*
X117822375Y-93470185D01*
X117868130Y-93522989D01*
X117878626Y-93561246D01*
X117880909Y-93582483D01*
X117931202Y-93717328D01*
X117931206Y-93717335D01*
X118017452Y-93832544D01*
X118017455Y-93832547D01*
X118132664Y-93918793D01*
X118132671Y-93918797D01*
X118267517Y-93969091D01*
X118267516Y-93969091D01*
X118274444Y-93969835D01*
X118327127Y-93975500D01*
X119672872Y-93975499D01*
X119732483Y-93969091D01*
X119867331Y-93918796D01*
X119982546Y-93832546D01*
X120068796Y-93717331D01*
X120119091Y-93582483D01*
X120125500Y-93522873D01*
X120125499Y-92677128D01*
X120119444Y-92620797D01*
X120119091Y-92617516D01*
X120068797Y-92482671D01*
X120068793Y-92482664D01*
X119982547Y-92367455D01*
X119982544Y-92367452D01*
X119867335Y-92281206D01*
X119867328Y-92281202D01*
X119732482Y-92230908D01*
X119732483Y-92230908D01*
X119672883Y-92224501D01*
X119672881Y-92224500D01*
X119672873Y-92224500D01*
X119672864Y-92224500D01*
X118327129Y-92224500D01*
X118327123Y-92224501D01*
X118267516Y-92230908D01*
X118132671Y-92281202D01*
X118132664Y-92281206D01*
X118017455Y-92367452D01*
X118017452Y-92367455D01*
X117931206Y-92482664D01*
X117931202Y-92482671D01*
X117880908Y-92617516D01*
X117878625Y-92638757D01*
X117851886Y-92703308D01*
X117794493Y-92743155D01*
X117755336Y-92749500D01*
X116764057Y-92749500D01*
X116697018Y-92729815D01*
X116651263Y-92677011D01*
X116647115Y-92664911D01*
X116646962Y-92664969D01*
X116635225Y-92633501D01*
X116595212Y-92526222D01*
X116591819Y-92521690D01*
X116573538Y-92497269D01*
X116511116Y-92413884D01*
X116415695Y-92342452D01*
X116398780Y-92329789D01*
X116398778Y-92329788D01*
X116372144Y-92319854D01*
X116267299Y-92280748D01*
X116209190Y-92274500D01*
X116209174Y-92274500D01*
X115615826Y-92274500D01*
X115615811Y-92274500D01*
X115614408Y-92274575D01*
X115614091Y-92274500D01*
X115612505Y-92274500D01*
X115612505Y-92274125D01*
X115546413Y-92258497D01*
X115497906Y-92208210D01*
X115484285Y-92139681D01*
X115509877Y-92074666D01*
X115520099Y-92063082D01*
X117153362Y-90429819D01*
X117214686Y-90396334D01*
X117241044Y-90393500D01*
X160085816Y-90393500D01*
X160152855Y-90413185D01*
X160173497Y-90429819D01*
X161540726Y-91797048D01*
X161574211Y-91858371D01*
X161569227Y-91928063D01*
X161552312Y-91959040D01*
X161492289Y-92039219D01*
X161443248Y-92170700D01*
X161437000Y-92228809D01*
X161437000Y-92797190D01*
X161443248Y-92855299D01*
X161492289Y-92986780D01*
X161519824Y-93023562D01*
X161576384Y-93099116D01*
X161655400Y-93158267D01*
X161671353Y-93170210D01*
X161688722Y-93183212D01*
X161775558Y-93215600D01*
X161820200Y-93232251D01*
X161878309Y-93238499D01*
X161878326Y-93238500D01*
X162471674Y-93238500D01*
X162471690Y-93238499D01*
X162529799Y-93232251D01*
X162547899Y-93225500D01*
X162661278Y-93183212D01*
X162773616Y-93099116D01*
X162857712Y-92986778D01*
X162906751Y-92855299D01*
X162908149Y-92842299D01*
X162912999Y-92797190D01*
X162913000Y-92797173D01*
X162913000Y-92322043D01*
X162932685Y-92255004D01*
X162949314Y-92234367D01*
X163050573Y-92133108D01*
X163111894Y-92099625D01*
X163181586Y-92104609D01*
X163237519Y-92146481D01*
X163261936Y-92211945D01*
X163262075Y-92227410D01*
X163262000Y-92228812D01*
X163262000Y-92797190D01*
X163268248Y-92855299D01*
X163317289Y-92986780D01*
X163344824Y-93023562D01*
X163401384Y-93099116D01*
X163480400Y-93158267D01*
X163496353Y-93170210D01*
X163513722Y-93183212D01*
X163600558Y-93215600D01*
X163645200Y-93232251D01*
X163703309Y-93238499D01*
X163703326Y-93238500D01*
X164178456Y-93238500D01*
X164245495Y-93258185D01*
X164266137Y-93274819D01*
X164304362Y-93313044D01*
X164320486Y-93332899D01*
X164322973Y-93336704D01*
X164325563Y-93340669D01*
X164325565Y-93340671D01*
X164351505Y-93360860D01*
X164357268Y-93365950D01*
X164359692Y-93368374D01*
X164359695Y-93368377D01*
X164376034Y-93380042D01*
X164377437Y-93381044D01*
X164417874Y-93412517D01*
X164417878Y-93412518D01*
X164424314Y-93416000D01*
X164424339Y-93416013D01*
X164424371Y-93416030D01*
X164430930Y-93419237D01*
X164430933Y-93419239D01*
X164480037Y-93433858D01*
X164528512Y-93450500D01*
X164528514Y-93450500D01*
X164535754Y-93451708D01*
X164543046Y-93452617D01*
X164594231Y-93450500D01*
X165755336Y-93450500D01*
X165822375Y-93470185D01*
X165868130Y-93522989D01*
X165878626Y-93561246D01*
X165880909Y-93582483D01*
X165931202Y-93717328D01*
X165931206Y-93717335D01*
X166017452Y-93832544D01*
X166017455Y-93832547D01*
X166132664Y-93918793D01*
X166132671Y-93918797D01*
X166267517Y-93969091D01*
X166267516Y-93969091D01*
X166274444Y-93969835D01*
X166327127Y-93975500D01*
X167672872Y-93975499D01*
X167732483Y-93969091D01*
X167867331Y-93918796D01*
X167982546Y-93832546D01*
X168068796Y-93717331D01*
X168119091Y-93582483D01*
X168125500Y-93522873D01*
X168125499Y-92677128D01*
X168119444Y-92620797D01*
X168119091Y-92617516D01*
X168068797Y-92482671D01*
X168068793Y-92482664D01*
X167982547Y-92367455D01*
X167982544Y-92367452D01*
X167867335Y-92281206D01*
X167867328Y-92281202D01*
X167732482Y-92230908D01*
X167732483Y-92230908D01*
X167672883Y-92224501D01*
X167672881Y-92224500D01*
X167672873Y-92224500D01*
X167672864Y-92224500D01*
X166327129Y-92224500D01*
X166327123Y-92224501D01*
X166267516Y-92230908D01*
X166132671Y-92281202D01*
X166132664Y-92281206D01*
X166017455Y-92367452D01*
X166017452Y-92367455D01*
X165931206Y-92482664D01*
X165931202Y-92482671D01*
X165880908Y-92617516D01*
X165878625Y-92638757D01*
X165851886Y-92703308D01*
X165794493Y-92743155D01*
X165755336Y-92749500D01*
X164862000Y-92749500D01*
X164794961Y-92729815D01*
X164749206Y-92677011D01*
X164738000Y-92625500D01*
X164738000Y-92228826D01*
X164737999Y-92228809D01*
X164731751Y-92170700D01*
X164706601Y-92103272D01*
X164682712Y-92039222D01*
X164677431Y-92032168D01*
X164640783Y-91983212D01*
X164598616Y-91926884D01*
X164507323Y-91858542D01*
X164486280Y-91842789D01*
X164486278Y-91842788D01*
X164444804Y-91827319D01*
X164354799Y-91793748D01*
X164296690Y-91787500D01*
X164296674Y-91787500D01*
X163703326Y-91787500D01*
X163703313Y-91787500D01*
X163701910Y-91787575D01*
X163701593Y-91787500D01*
X163700005Y-91787500D01*
X163700005Y-91787124D01*
X163633916Y-91771497D01*
X163585407Y-91721211D01*
X163571786Y-91652682D01*
X163597377Y-91587668D01*
X163607602Y-91576079D01*
X164372862Y-90810818D01*
X164434186Y-90777334D01*
X164460544Y-90774500D01*
X207902456Y-90774500D01*
X207969495Y-90794185D01*
X207990137Y-90810819D01*
X209400681Y-92221362D01*
X209434166Y-92282685D01*
X209437000Y-92309043D01*
X209437000Y-92784190D01*
X209443248Y-92842299D01*
X209492289Y-92973780D01*
X209502021Y-92986780D01*
X209576384Y-93086116D01*
X209638666Y-93132740D01*
X209672765Y-93158267D01*
X209688722Y-93170212D01*
X209781094Y-93204665D01*
X209820200Y-93219251D01*
X209878309Y-93225499D01*
X209878326Y-93225500D01*
X210471674Y-93225500D01*
X210471690Y-93225499D01*
X210529799Y-93219251D01*
X210539585Y-93215601D01*
X210661278Y-93170212D01*
X210773616Y-93086116D01*
X210857712Y-92973778D01*
X210906751Y-92842299D01*
X210907796Y-92832581D01*
X210912999Y-92784190D01*
X210913000Y-92784173D01*
X210913000Y-92309042D01*
X210932685Y-92242003D01*
X210949314Y-92221366D01*
X211050573Y-92120107D01*
X211111894Y-92086624D01*
X211181586Y-92091608D01*
X211237519Y-92133480D01*
X211261936Y-92198944D01*
X211262075Y-92214408D01*
X211262000Y-92215811D01*
X211262000Y-92784190D01*
X211268248Y-92842299D01*
X211317289Y-92973780D01*
X211327021Y-92986780D01*
X211401384Y-93086116D01*
X211463666Y-93132740D01*
X211497765Y-93158267D01*
X211513722Y-93170212D01*
X211606094Y-93204665D01*
X211645200Y-93219251D01*
X211703309Y-93225499D01*
X211703326Y-93225500D01*
X212178457Y-93225500D01*
X212245496Y-93245185D01*
X212266138Y-93261819D01*
X212330360Y-93326041D01*
X212346484Y-93345896D01*
X212351563Y-93353669D01*
X212377509Y-93373863D01*
X212383272Y-93378953D01*
X212385694Y-93381375D01*
X212403430Y-93394038D01*
X212420473Y-93407303D01*
X212443875Y-93425518D01*
X212450295Y-93428992D01*
X212450344Y-93429016D01*
X212450390Y-93429041D01*
X212456932Y-93432239D01*
X212456933Y-93432239D01*
X212456934Y-93432240D01*
X212462386Y-93433863D01*
X212506045Y-93446862D01*
X212554002Y-93463325D01*
X212554512Y-93463500D01*
X212554515Y-93463500D01*
X212561625Y-93464687D01*
X212561731Y-93464700D01*
X212561855Y-93464720D01*
X212569046Y-93465617D01*
X212620231Y-93463500D01*
X213755336Y-93463500D01*
X213822375Y-93483185D01*
X213868130Y-93535989D01*
X213878626Y-93574246D01*
X213880909Y-93595483D01*
X213931202Y-93730328D01*
X213931206Y-93730335D01*
X214017452Y-93845544D01*
X214017455Y-93845547D01*
X214132664Y-93931793D01*
X214132671Y-93931797D01*
X214267517Y-93982091D01*
X214267516Y-93982091D01*
X214274444Y-93982835D01*
X214327127Y-93988500D01*
X215672872Y-93988499D01*
X215732483Y-93982091D01*
X215867331Y-93931796D01*
X215982546Y-93845546D01*
X216068796Y-93730331D01*
X216119091Y-93595483D01*
X216125500Y-93535873D01*
X216125499Y-92690128D01*
X216119091Y-92630517D01*
X216115465Y-92620796D01*
X216068797Y-92495671D01*
X216068793Y-92495664D01*
X215982547Y-92380455D01*
X215982544Y-92380452D01*
X215867335Y-92294206D01*
X215867328Y-92294202D01*
X215732482Y-92243908D01*
X215732483Y-92243908D01*
X215672883Y-92237501D01*
X215672881Y-92237500D01*
X215672873Y-92237500D01*
X215672864Y-92237500D01*
X214327129Y-92237500D01*
X214327123Y-92237501D01*
X214267516Y-92243908D01*
X214132671Y-92294202D01*
X214132664Y-92294206D01*
X214017455Y-92380452D01*
X214017452Y-92380455D01*
X213931206Y-92495664D01*
X213931202Y-92495671D01*
X213880908Y-92630516D01*
X213878625Y-92651757D01*
X213851886Y-92716308D01*
X213794493Y-92756155D01*
X213755336Y-92762500D01*
X212862000Y-92762500D01*
X212794961Y-92742815D01*
X212749206Y-92690011D01*
X212738000Y-92638500D01*
X212738000Y-92215826D01*
X212737999Y-92215809D01*
X212731751Y-92157700D01*
X212715265Y-92113500D01*
X212682712Y-92026222D01*
X212598616Y-91913884D01*
X212530629Y-91862989D01*
X212486280Y-91829789D01*
X212486278Y-91829788D01*
X212459644Y-91819854D01*
X212354799Y-91780748D01*
X212296690Y-91774500D01*
X212296674Y-91774500D01*
X211703326Y-91774500D01*
X211703311Y-91774500D01*
X211701908Y-91774575D01*
X211701591Y-91774500D01*
X211700005Y-91774500D01*
X211700005Y-91774125D01*
X211633913Y-91758497D01*
X211585406Y-91708210D01*
X211571785Y-91639681D01*
X211597377Y-91574666D01*
X211607601Y-91563079D01*
X212872922Y-90297758D01*
X212934245Y-90264274D01*
X212960603Y-90261440D01*
X254132930Y-90261440D01*
X256442010Y-90261546D01*
X256509046Y-90281234D01*
X256529683Y-90297865D01*
X257393181Y-91161362D01*
X257426666Y-91222685D01*
X257429500Y-91249043D01*
X257429500Y-91724190D01*
X257435748Y-91782299D01*
X257471149Y-91877210D01*
X257484339Y-91912575D01*
X257484789Y-91913780D01*
X257505434Y-91941358D01*
X257568884Y-92026116D01*
X257656370Y-92091608D01*
X257670985Y-92102549D01*
X257681222Y-92110212D01*
X257771208Y-92143775D01*
X257812700Y-92159251D01*
X257870809Y-92165499D01*
X257870826Y-92165500D01*
X258464174Y-92165500D01*
X258464190Y-92165499D01*
X258522299Y-92159251D01*
X258541710Y-92152011D01*
X258653778Y-92110212D01*
X258766116Y-92026116D01*
X258850212Y-91913778D01*
X258899251Y-91782299D01*
X258899676Y-91778342D01*
X258905499Y-91724190D01*
X259254500Y-91724190D01*
X259260748Y-91782299D01*
X259296149Y-91877210D01*
X259309339Y-91912575D01*
X259309789Y-91913780D01*
X259330434Y-91941358D01*
X259393884Y-92026116D01*
X259481370Y-92091608D01*
X259495985Y-92102549D01*
X259506222Y-92110212D01*
X259596208Y-92143775D01*
X259637700Y-92159251D01*
X259695809Y-92165499D01*
X259695826Y-92165500D01*
X260170956Y-92165500D01*
X260237995Y-92185185D01*
X260258637Y-92201819D01*
X261369862Y-93313044D01*
X261385986Y-93332899D01*
X261388473Y-93336704D01*
X261391063Y-93340669D01*
X261391065Y-93340671D01*
X261417005Y-93360860D01*
X261422768Y-93365950D01*
X261425194Y-93368376D01*
X261442941Y-93381047D01*
X261483374Y-93412517D01*
X261483375Y-93412517D01*
X261483376Y-93412518D01*
X261489818Y-93416004D01*
X261496429Y-93419236D01*
X261496434Y-93419240D01*
X261545552Y-93433863D01*
X261594012Y-93450500D01*
X261594013Y-93450500D01*
X261601248Y-93451707D01*
X261601269Y-93451710D01*
X261601301Y-93451715D01*
X261608546Y-93452618D01*
X261608546Y-93452617D01*
X261608547Y-93452618D01*
X261659756Y-93450500D01*
X261755336Y-93450500D01*
X261822375Y-93470185D01*
X261868130Y-93522989D01*
X261878626Y-93561246D01*
X261880909Y-93582483D01*
X261931202Y-93717328D01*
X261931206Y-93717335D01*
X262017452Y-93832544D01*
X262017455Y-93832547D01*
X262132664Y-93918793D01*
X262132671Y-93918797D01*
X262267517Y-93969091D01*
X262267516Y-93969091D01*
X262274444Y-93969835D01*
X262327127Y-93975500D01*
X263672872Y-93975499D01*
X263732483Y-93969091D01*
X263867331Y-93918796D01*
X263982546Y-93832546D01*
X264068796Y-93717331D01*
X264119091Y-93582483D01*
X264125500Y-93522873D01*
X264125499Y-92677128D01*
X264119444Y-92620797D01*
X264119091Y-92617516D01*
X264068797Y-92482671D01*
X264068793Y-92482664D01*
X263982547Y-92367455D01*
X263982544Y-92367452D01*
X263867335Y-92281206D01*
X263867328Y-92281202D01*
X263732482Y-92230908D01*
X263732483Y-92230908D01*
X263672883Y-92224501D01*
X263672881Y-92224500D01*
X263672873Y-92224500D01*
X263672864Y-92224500D01*
X262327129Y-92224500D01*
X262327123Y-92224501D01*
X262267516Y-92230908D01*
X262132671Y-92281202D01*
X262132664Y-92281206D01*
X262017455Y-92367452D01*
X262017452Y-92367455D01*
X261931206Y-92482664D01*
X261931203Y-92482669D01*
X261889873Y-92593481D01*
X261848001Y-92649414D01*
X261782537Y-92673831D01*
X261714264Y-92658979D01*
X261686010Y-92637828D01*
X261264008Y-92215826D01*
X260766819Y-91718636D01*
X260733334Y-91657313D01*
X260730500Y-91630955D01*
X260730500Y-91155826D01*
X260730499Y-91155809D01*
X260724251Y-91097700D01*
X260687492Y-90999147D01*
X260675212Y-90966222D01*
X260591116Y-90853884D01*
X260510047Y-90793196D01*
X260478780Y-90769789D01*
X260478778Y-90769788D01*
X260452144Y-90759854D01*
X260347299Y-90720748D01*
X260289190Y-90714500D01*
X260289174Y-90714500D01*
X259695826Y-90714500D01*
X259695809Y-90714500D01*
X259637700Y-90720748D01*
X259506219Y-90769789D01*
X259393884Y-90853884D01*
X259309789Y-90966219D01*
X259260748Y-91097700D01*
X259254500Y-91155809D01*
X259254500Y-91724190D01*
X258905499Y-91724190D01*
X258905500Y-91724173D01*
X258905500Y-91155826D01*
X258905499Y-91155809D01*
X258899251Y-91097700D01*
X258862492Y-90999147D01*
X258850212Y-90966222D01*
X258766116Y-90853884D01*
X258685047Y-90793196D01*
X258653780Y-90769789D01*
X258653778Y-90769788D01*
X258627144Y-90759854D01*
X258522299Y-90720748D01*
X258464190Y-90714500D01*
X258464174Y-90714500D01*
X257989044Y-90714500D01*
X257922005Y-90694815D01*
X257901363Y-90678181D01*
X257235363Y-90012181D01*
X257201878Y-89950858D01*
X257206862Y-89881166D01*
X257248734Y-89825233D01*
X257314198Y-89800816D01*
X257323044Y-89800500D01*
X294143152Y-89800500D01*
X294210191Y-89820185D01*
G37*
%TD.AperFunction*%
%TA.AperFunction,Conductor*%
G36*
X18977615Y-91463075D02*
G01*
X18978050Y-91462070D01*
X18985203Y-91465165D01*
X18985208Y-91465168D01*
X19138426Y-91509682D01*
X19158885Y-91511292D01*
X19174227Y-91512500D01*
X19174230Y-91512500D01*
X19525500Y-91512500D01*
X19592539Y-91532185D01*
X19638294Y-91584989D01*
X19649500Y-91636500D01*
X19649500Y-91841605D01*
X19646861Y-91867049D01*
X19644957Y-91876128D01*
X19644957Y-91876134D01*
X19649023Y-91908754D01*
X19649500Y-91916431D01*
X19649500Y-91919857D01*
X19650869Y-91928063D01*
X19653087Y-91941358D01*
X19659427Y-91992210D01*
X19661520Y-91999243D01*
X19663908Y-92006198D01*
X19688295Y-92051261D01*
X19710801Y-92097300D01*
X19715065Y-92103272D01*
X19719580Y-92109073D01*
X19757275Y-92143775D01*
X21864545Y-94251044D01*
X21880669Y-94270899D01*
X21885746Y-94278669D01*
X21911691Y-94298862D01*
X21917443Y-94303942D01*
X21919876Y-94306375D01*
X21937617Y-94319041D01*
X21978057Y-94350517D01*
X21978059Y-94350517D01*
X21984431Y-94353966D01*
X21984488Y-94353994D01*
X21984561Y-94354033D01*
X21991112Y-94357235D01*
X21991117Y-94357239D01*
X22040216Y-94371856D01*
X22088695Y-94388500D01*
X22088703Y-94388500D01*
X22095888Y-94389699D01*
X22095921Y-94389704D01*
X22095971Y-94389712D01*
X22101907Y-94390452D01*
X22103170Y-94391000D01*
X22109542Y-94392484D01*
X22109785Y-94392557D01*
X22127677Y-94389606D01*
X22149021Y-94388723D01*
X22154414Y-94388500D01*
X24309381Y-94388500D01*
X24327772Y-94393900D01*
X24335666Y-94390115D01*
X24355615Y-94388500D01*
X24876789Y-94388500D01*
X24902234Y-94391138D01*
X24911315Y-94393043D01*
X24927704Y-94391000D01*
X24943939Y-94388977D01*
X24951615Y-94388500D01*
X24955035Y-94388500D01*
X24955040Y-94388500D01*
X24958608Y-94387904D01*
X24976539Y-94384913D01*
X25003958Y-94381494D01*
X25027393Y-94378573D01*
X25027402Y-94378568D01*
X25034451Y-94376470D01*
X25041377Y-94374092D01*
X25041381Y-94374092D01*
X25086444Y-94349704D01*
X25132484Y-94327198D01*
X25132487Y-94327194D01*
X25138453Y-94322935D01*
X25144254Y-94318419D01*
X25144258Y-94318418D01*
X25178958Y-94280723D01*
X25184862Y-94274818D01*
X25246186Y-94241333D01*
X25272544Y-94238499D01*
X25422950Y-94238499D01*
X25451172Y-94234387D01*
X25493509Y-94228220D01*
X25602347Y-94175012D01*
X25688012Y-94089347D01*
X25737557Y-93988001D01*
X26508358Y-93988001D01*
X26546906Y-94120681D01*
X26546907Y-94120684D01*
X26625682Y-94253885D01*
X26625688Y-94253894D01*
X26735105Y-94363311D01*
X26735114Y-94363317D01*
X26868315Y-94442092D01*
X26868318Y-94442093D01*
X27016915Y-94485265D01*
X27016927Y-94485267D01*
X27051644Y-94488000D01*
X27051645Y-94488000D01*
X27076000Y-94487999D01*
X27525999Y-94487999D01*
X27550353Y-94487999D01*
X27585078Y-94485266D01*
X27733681Y-94442093D01*
X27733684Y-94442092D01*
X27866885Y-94363317D01*
X27866894Y-94363311D01*
X27976311Y-94253894D01*
X27976317Y-94253885D01*
X28055092Y-94120684D01*
X28055093Y-94120681D01*
X28093641Y-93988001D01*
X28093640Y-93988000D01*
X27526000Y-93988000D01*
X27525999Y-94487999D01*
X27076000Y-94487999D01*
X27075999Y-94487999D01*
X27076000Y-93988000D01*
X26508360Y-93988000D01*
X26508358Y-93988001D01*
X25737557Y-93988001D01*
X25741220Y-93980509D01*
X25751500Y-93909949D01*
X25751499Y-93759543D01*
X25771183Y-93692504D01*
X25787813Y-93671867D01*
X25921682Y-93537998D01*
X26508358Y-93537998D01*
X26508360Y-93538000D01*
X27075999Y-93538000D01*
X27075999Y-93537999D01*
X27525999Y-93537999D01*
X27526000Y-93538000D01*
X28093640Y-93538000D01*
X28093641Y-93537998D01*
X28055093Y-93405318D01*
X28055092Y-93405315D01*
X27976317Y-93272114D01*
X27976311Y-93272105D01*
X27866894Y-93162688D01*
X27866885Y-93162682D01*
X27733684Y-93083907D01*
X27733681Y-93083906D01*
X27585084Y-93040734D01*
X27585073Y-93040732D01*
X27550357Y-93038000D01*
X27526000Y-93038000D01*
X27525999Y-93537999D01*
X27075999Y-93537999D01*
X27076000Y-93038000D01*
X27051647Y-93038001D01*
X27016921Y-93040733D01*
X26868318Y-93083906D01*
X26868315Y-93083907D01*
X26735114Y-93162682D01*
X26735105Y-93162688D01*
X26625688Y-93272105D01*
X26625682Y-93272114D01*
X26546907Y-93405315D01*
X26546906Y-93405318D01*
X26508358Y-93537998D01*
X25921682Y-93537998D01*
X27059862Y-92399819D01*
X27121185Y-92366334D01*
X27147543Y-92363500D01*
X28487856Y-92363500D01*
X28554895Y-92383185D01*
X28580363Y-92407440D01*
X28580722Y-92407082D01*
X28673651Y-92500011D01*
X28782488Y-92553219D01*
X28782489Y-92553219D01*
X28782491Y-92553220D01*
X28853051Y-92563500D01*
X29146948Y-92563499D01*
X29146950Y-92563499D01*
X29175172Y-92559387D01*
X29217509Y-92553220D01*
X29326347Y-92500012D01*
X29412012Y-92414347D01*
X29465220Y-92305509D01*
X29475500Y-92234949D01*
X29475499Y-91791052D01*
X29475336Y-91789935D01*
X29466981Y-91732582D01*
X29465220Y-91720491D01*
X29465219Y-91720488D01*
X29464484Y-91718107D01*
X29464442Y-91715150D01*
X29463832Y-91710961D01*
X29464382Y-91710880D01*
X29463500Y-91648245D01*
X29500442Y-91588940D01*
X29563583Y-91559023D01*
X29582957Y-91557500D01*
X32469456Y-91557500D01*
X32536495Y-91577185D01*
X32557137Y-91593819D01*
X32657180Y-91693862D01*
X32690665Y-91755185D01*
X32693499Y-91781543D01*
X32693499Y-92788455D01*
X32673814Y-92855494D01*
X32657180Y-92876136D01*
X32530955Y-93002361D01*
X32511106Y-93018482D01*
X32503331Y-93023562D01*
X32483143Y-93049498D01*
X32478067Y-93055248D01*
X32475634Y-93057681D01*
X32475623Y-93057694D01*
X32462954Y-93075438D01*
X32431483Y-93115872D01*
X32427975Y-93122353D01*
X32424760Y-93128932D01*
X32410138Y-93178045D01*
X32393498Y-93226516D01*
X32392294Y-93233733D01*
X32391382Y-93241046D01*
X32393500Y-93292230D01*
X32393500Y-94560500D01*
X32373815Y-94627539D01*
X32321011Y-94673294D01*
X32269500Y-94684500D01*
X32119323Y-94684500D01*
X32046264Y-94699032D01*
X32046260Y-94699033D01*
X31963399Y-94754399D01*
X31908033Y-94837260D01*
X31908032Y-94837264D01*
X31893500Y-94910321D01*
X31893500Y-94972404D01*
X31873815Y-95039443D01*
X31821011Y-95085198D01*
X31751853Y-95095142D01*
X31688297Y-95066117D01*
X31653319Y-95015739D01*
X31634753Y-94965964D01*
X31621628Y-94930774D01*
X31560558Y-94849194D01*
X31536143Y-94783734D01*
X31550994Y-94715461D01*
X31594731Y-94669348D01*
X31652731Y-94633573D01*
X31772572Y-94513732D01*
X31772575Y-94513728D01*
X31861542Y-94369492D01*
X31861547Y-94369481D01*
X31914855Y-94208606D01*
X31924999Y-94109322D01*
X31925000Y-94109309D01*
X31925000Y-94086000D01*
X29975001Y-94086000D01*
X29975001Y-94109322D01*
X29985144Y-94208607D01*
X30038452Y-94369481D01*
X30038457Y-94369492D01*
X30127424Y-94513728D01*
X30127427Y-94513732D01*
X30137514Y-94523819D01*
X30170999Y-94585142D01*
X30166015Y-94654834D01*
X30124143Y-94710767D01*
X30058679Y-94735184D01*
X30049833Y-94735500D01*
X29921014Y-94735500D01*
X29767634Y-94773303D01*
X29627761Y-94846715D01*
X29627759Y-94846717D01*
X29556726Y-94909646D01*
X29493493Y-94939367D01*
X29424230Y-94930183D01*
X29370927Y-94885010D01*
X29350507Y-94818191D01*
X29350500Y-94816831D01*
X29350500Y-94722052D01*
X29350500Y-94627218D01*
X29370183Y-94560182D01*
X29386812Y-94539546D01*
X29412012Y-94514347D01*
X29465220Y-94405509D01*
X29475500Y-94334949D01*
X29475499Y-93891052D01*
X29474882Y-93886818D01*
X29465220Y-93820493D01*
X29465220Y-93820491D01*
X29412012Y-93711653D01*
X29412010Y-93711651D01*
X29412010Y-93711650D01*
X29326348Y-93625988D01*
X29244553Y-93586000D01*
X29975000Y-93586000D01*
X30699999Y-93586000D01*
X30699999Y-92886000D01*
X31200000Y-92886000D01*
X31200000Y-93586000D01*
X31924998Y-93586000D01*
X31924999Y-93562692D01*
X31924998Y-93562677D01*
X31914855Y-93463392D01*
X31861547Y-93302518D01*
X31861542Y-93302507D01*
X31772575Y-93158271D01*
X31772572Y-93158267D01*
X31652732Y-93038427D01*
X31652728Y-93038424D01*
X31508492Y-92949457D01*
X31508481Y-92949452D01*
X31347606Y-92896144D01*
X31248322Y-92886000D01*
X31200000Y-92886000D01*
X30699999Y-92886000D01*
X30699998Y-92885999D01*
X30651693Y-92886000D01*
X30651675Y-92886001D01*
X30552392Y-92896144D01*
X30391518Y-92949452D01*
X30391507Y-92949457D01*
X30247271Y-93038424D01*
X30247267Y-93038427D01*
X30127427Y-93158267D01*
X30127424Y-93158271D01*
X30038457Y-93302507D01*
X30038452Y-93302518D01*
X29985144Y-93463393D01*
X29975000Y-93562677D01*
X29975000Y-93586000D01*
X29244553Y-93586000D01*
X29217511Y-93572780D01*
X29199869Y-93570210D01*
X29146949Y-93562500D01*
X29146943Y-93562500D01*
X28853049Y-93562500D01*
X28782493Y-93572779D01*
X28673650Y-93625989D01*
X28587988Y-93711651D01*
X28534780Y-93820488D01*
X28531342Y-93844091D01*
X28524500Y-93891051D01*
X28524500Y-93891055D01*
X28524500Y-93891056D01*
X28524500Y-94334950D01*
X28534779Y-94405506D01*
X28534779Y-94405507D01*
X28534780Y-94405509D01*
X28587988Y-94514347D01*
X28607246Y-94533605D01*
X28613182Y-94539541D01*
X28646666Y-94600865D01*
X28649499Y-94627221D01*
X28649500Y-94941512D01*
X28649500Y-94998778D01*
X28629815Y-95065817D01*
X28613183Y-95086458D01*
X28587986Y-95111655D01*
X28534780Y-95220488D01*
X28531681Y-95241759D01*
X28524500Y-95291051D01*
X28524500Y-95291055D01*
X28524500Y-95291056D01*
X28524500Y-95734950D01*
X28534779Y-95805506D01*
X28534779Y-95805507D01*
X28534780Y-95805509D01*
X28561398Y-95859956D01*
X28587989Y-95914349D01*
X28673651Y-96000011D01*
X28782488Y-96053219D01*
X28782489Y-96053219D01*
X28782491Y-96053220D01*
X28853051Y-96063500D01*
X29146948Y-96063499D01*
X29146950Y-96063499D01*
X29175172Y-96059387D01*
X29217509Y-96053220D01*
X29326347Y-96000012D01*
X29366708Y-95959651D01*
X29419278Y-95907082D01*
X29420581Y-95908385D01*
X29465743Y-95872954D01*
X29535304Y-95866392D01*
X29593924Y-95895308D01*
X29627759Y-95925282D01*
X29627761Y-95925284D01*
X29767634Y-95998696D01*
X29921014Y-96036500D01*
X29921015Y-96036500D01*
X30078985Y-96036500D01*
X30232365Y-95998696D01*
X30275988Y-95975799D01*
X30344496Y-95962074D01*
X30407924Y-95986328D01*
X30426203Y-96000011D01*
X30466705Y-96030331D01*
X30469774Y-96032628D01*
X30597886Y-96080412D01*
X30654515Y-96086500D01*
X31245484Y-96086499D01*
X31302114Y-96080412D01*
X31430226Y-96032628D01*
X31539687Y-95950687D01*
X31621628Y-95841226D01*
X31653320Y-95756256D01*
X31695190Y-95700327D01*
X31760654Y-95675910D01*
X31828927Y-95690762D01*
X31878332Y-95740167D01*
X31893500Y-95799594D01*
X31893500Y-96159678D01*
X31908032Y-96232735D01*
X31908033Y-96232739D01*
X31912224Y-96239011D01*
X31963399Y-96315601D01*
X32036786Y-96364636D01*
X32046260Y-96370966D01*
X32046264Y-96370967D01*
X32119321Y-96385499D01*
X32119324Y-96385500D01*
X32119326Y-96385500D01*
X33068956Y-96385500D01*
X33135995Y-96405185D01*
X33181750Y-96457989D01*
X33191694Y-96527147D01*
X33162669Y-96590703D01*
X33156637Y-96597181D01*
X33097637Y-96656181D01*
X33036314Y-96689666D01*
X33009956Y-96692500D01*
X32534809Y-96692500D01*
X32476700Y-96698748D01*
X32345219Y-96747789D01*
X32232884Y-96831884D01*
X32148789Y-96944219D01*
X32099748Y-97075700D01*
X32093500Y-97133809D01*
X32093500Y-97702190D01*
X32099749Y-97760300D01*
X32099749Y-97760301D01*
X32108091Y-97782667D01*
X32113075Y-97852359D01*
X32079590Y-97913682D01*
X32018266Y-97947166D01*
X31991909Y-97950000D01*
X29599500Y-97950000D01*
X29532461Y-97930315D01*
X29486706Y-97877511D01*
X29475500Y-97826000D01*
X29475499Y-97391049D01*
X29465220Y-97320493D01*
X29465220Y-97320491D01*
X29412012Y-97211653D01*
X29412010Y-97211651D01*
X29412010Y-97211650D01*
X29326348Y-97125988D01*
X29217511Y-97072780D01*
X29199869Y-97070210D01*
X29146949Y-97062500D01*
X29146943Y-97062500D01*
X28853049Y-97062500D01*
X28782493Y-97072779D01*
X28673650Y-97125989D01*
X28580722Y-97218918D01*
X28579572Y-97217768D01*
X28533805Y-97253672D01*
X28487856Y-97262500D01*
X27116544Y-97262500D01*
X27049505Y-97242815D01*
X27028863Y-97226181D01*
X25921683Y-96119001D01*
X26508358Y-96119001D01*
X26546906Y-96251681D01*
X26546907Y-96251684D01*
X26625682Y-96384885D01*
X26625688Y-96384894D01*
X26735105Y-96494311D01*
X26735114Y-96494317D01*
X26868315Y-96573092D01*
X26868318Y-96573093D01*
X27016915Y-96616265D01*
X27016927Y-96616267D01*
X27051644Y-96619000D01*
X27051645Y-96619000D01*
X27076000Y-96618999D01*
X27075999Y-96618999D01*
X27075999Y-96618998D01*
X27525999Y-96618998D01*
X27526000Y-96618999D01*
X27550353Y-96618999D01*
X27585078Y-96616266D01*
X27733681Y-96573093D01*
X27733684Y-96573092D01*
X27866885Y-96494317D01*
X27866894Y-96494311D01*
X27976311Y-96384894D01*
X27976317Y-96384885D01*
X28055092Y-96251684D01*
X28055093Y-96251681D01*
X28093641Y-96119001D01*
X28093640Y-96119000D01*
X27526000Y-96119000D01*
X27525999Y-96618998D01*
X27075999Y-96618998D01*
X27076000Y-96119000D01*
X26508360Y-96119000D01*
X26508358Y-96119001D01*
X25921683Y-96119001D01*
X25787818Y-95985136D01*
X25754333Y-95923813D01*
X25751499Y-95897455D01*
X25751499Y-95747049D01*
X25742659Y-95686367D01*
X25741220Y-95676491D01*
X25737557Y-95668998D01*
X26508358Y-95668998D01*
X26508360Y-95669000D01*
X27075999Y-95669000D01*
X27525999Y-95669000D01*
X28093640Y-95669000D01*
X28093641Y-95668998D01*
X28055093Y-95536318D01*
X28055092Y-95536315D01*
X27976317Y-95403114D01*
X27976311Y-95403105D01*
X27866894Y-95293688D01*
X27866885Y-95293682D01*
X27733684Y-95214907D01*
X27733681Y-95214906D01*
X27585084Y-95171734D01*
X27585073Y-95171732D01*
X27550357Y-95169000D01*
X27526000Y-95169000D01*
X27525999Y-95669000D01*
X27075999Y-95669000D01*
X27076000Y-95169000D01*
X27051647Y-95169001D01*
X27016921Y-95171733D01*
X26868318Y-95214906D01*
X26868315Y-95214907D01*
X26735114Y-95293682D01*
X26735105Y-95293688D01*
X26625688Y-95403105D01*
X26625682Y-95403114D01*
X26546907Y-95536315D01*
X26546906Y-95536318D01*
X26508358Y-95668998D01*
X25737557Y-95668998D01*
X25688012Y-95567653D01*
X25688010Y-95567651D01*
X25688010Y-95567650D01*
X25602348Y-95481988D01*
X25493511Y-95428780D01*
X25475869Y-95426210D01*
X25422949Y-95418500D01*
X25422943Y-95418500D01*
X25272544Y-95418500D01*
X25205505Y-95398815D01*
X25184863Y-95382181D01*
X24577637Y-94774955D01*
X24561511Y-94755098D01*
X24556437Y-94747331D01*
X24530487Y-94727133D01*
X24524741Y-94722059D01*
X24522307Y-94719625D01*
X24522306Y-94719624D01*
X24522305Y-94719623D01*
X24515848Y-94715013D01*
X24504561Y-94706955D01*
X24464126Y-94675483D01*
X24464122Y-94675481D01*
X24457648Y-94671977D01*
X24451069Y-94668760D01*
X24401954Y-94654138D01*
X24353486Y-94637498D01*
X24346273Y-94636295D01*
X24340276Y-94635548D01*
X24338959Y-94634976D01*
X24333375Y-94633700D01*
X24332459Y-94633432D01*
X24314506Y-94636394D01*
X24293161Y-94637276D01*
X24287769Y-94637500D01*
X22132802Y-94637500D01*
X22114410Y-94632099D01*
X22106517Y-94635885D01*
X22086568Y-94637500D01*
X22061211Y-94637500D01*
X22035765Y-94634861D01*
X22030228Y-94633700D01*
X22026685Y-94632957D01*
X22026684Y-94632957D01*
X22026682Y-94632957D01*
X21994061Y-94637023D01*
X21986385Y-94637500D01*
X21982960Y-94637500D01*
X21961457Y-94641087D01*
X21910608Y-94647426D01*
X21903566Y-94649522D01*
X21896620Y-94651907D01*
X21851550Y-94676297D01*
X21805513Y-94698803D01*
X21799538Y-94703069D01*
X21793746Y-94707577D01*
X21759031Y-94745287D01*
X19786955Y-96717361D01*
X19767106Y-96733482D01*
X19759331Y-96738562D01*
X19739143Y-96764498D01*
X19734067Y-96770248D01*
X19731634Y-96772681D01*
X19731623Y-96772694D01*
X19718954Y-96790438D01*
X19687483Y-96830872D01*
X19683975Y-96837353D01*
X19680760Y-96843932D01*
X19666138Y-96893045D01*
X19649498Y-96941516D01*
X19648294Y-96948733D01*
X19647382Y-96956046D01*
X19649500Y-97007230D01*
X19649500Y-97363500D01*
X19629815Y-97430539D01*
X19577011Y-97476294D01*
X19525500Y-97487500D01*
X19174227Y-97487500D01*
X19138430Y-97490317D01*
X19138419Y-97490319D01*
X18985212Y-97534830D01*
X18978050Y-97537930D01*
X18977232Y-97536041D01*
X18919893Y-97550587D01*
X18853631Y-97528426D01*
X18809870Y-97473958D01*
X18800500Y-97426673D01*
X18800500Y-91573326D01*
X18820185Y-91506287D01*
X18872989Y-91460532D01*
X18942147Y-91450588D01*
X18977615Y-91463075D01*
G37*
%TD.AperFunction*%
%TA.AperFunction,Conductor*%
G36*
X35632381Y-96330763D02*
G01*
X35654896Y-96348578D01*
X36744137Y-97437819D01*
X36777622Y-97499142D01*
X36772638Y-97568834D01*
X36730766Y-97624767D01*
X36665302Y-97649184D01*
X36656456Y-97649500D01*
X35518500Y-97649500D01*
X35451461Y-97629815D01*
X35405706Y-97577011D01*
X35394500Y-97525500D01*
X35394500Y-97133826D01*
X35394499Y-97133809D01*
X35388251Y-97075700D01*
X35367482Y-97020018D01*
X35339212Y-96944222D01*
X35337186Y-96941516D01*
X35300901Y-96893045D01*
X35255116Y-96831884D01*
X35172781Y-96770248D01*
X35142780Y-96747789D01*
X35142778Y-96747788D01*
X35104422Y-96733482D01*
X35011299Y-96698748D01*
X34953190Y-96692500D01*
X34953174Y-96692500D01*
X34359826Y-96692500D01*
X34359813Y-96692500D01*
X34358410Y-96692575D01*
X34358093Y-96692500D01*
X34356505Y-96692500D01*
X34356505Y-96692124D01*
X34290416Y-96676497D01*
X34241907Y-96626211D01*
X34228286Y-96557682D01*
X34253877Y-96492668D01*
X34264095Y-96481086D01*
X34323365Y-96421816D01*
X34384687Y-96388334D01*
X34411044Y-96385500D01*
X35368676Y-96385500D01*
X35368677Y-96385499D01*
X35441740Y-96370966D01*
X35498328Y-96333155D01*
X35565001Y-96312279D01*
X35632381Y-96330763D01*
G37*
%TD.AperFunction*%
%TA.AperFunction,Conductor*%
G36*
X68382995Y-90877185D02*
G01*
X68403637Y-90893819D01*
X68544181Y-91034363D01*
X68577666Y-91095686D01*
X68580500Y-91122044D01*
X68580500Y-91597190D01*
X68586748Y-91655299D01*
X68612438Y-91724174D01*
X68634117Y-91782299D01*
X68635789Y-91786780D01*
X68651667Y-91807990D01*
X68719884Y-91899116D01*
X68750442Y-91921991D01*
X68822899Y-91976234D01*
X68864770Y-92032168D01*
X68869754Y-92101859D01*
X68836268Y-92163182D01*
X68774945Y-92196666D01*
X68748588Y-92199500D01*
X67501129Y-92199500D01*
X67501123Y-92199501D01*
X67441516Y-92205908D01*
X67306671Y-92256202D01*
X67306664Y-92256206D01*
X67191455Y-92342452D01*
X67191452Y-92342455D01*
X67105204Y-92457667D01*
X67101330Y-92464762D01*
X67051923Y-92514165D01*
X66983649Y-92529015D01*
X66918186Y-92504595D01*
X66883670Y-92464762D01*
X66879795Y-92457667D01*
X66793547Y-92342455D01*
X66793544Y-92342452D01*
X66678335Y-92256206D01*
X66678328Y-92256202D01*
X66543482Y-92205908D01*
X66543483Y-92205908D01*
X66483883Y-92199501D01*
X66483881Y-92199500D01*
X66483873Y-92199500D01*
X66483864Y-92199500D01*
X65088129Y-92199500D01*
X65088123Y-92199501D01*
X65028516Y-92205908D01*
X64893671Y-92256202D01*
X64893664Y-92256206D01*
X64778455Y-92342452D01*
X64778452Y-92342455D01*
X64692204Y-92457667D01*
X64688330Y-92464762D01*
X64638923Y-92514165D01*
X64570649Y-92529015D01*
X64505186Y-92504595D01*
X64470670Y-92464762D01*
X64466795Y-92457667D01*
X64380547Y-92342455D01*
X64380544Y-92342452D01*
X64265335Y-92256206D01*
X64265328Y-92256202D01*
X64130482Y-92205908D01*
X64130483Y-92205908D01*
X64070883Y-92199501D01*
X64070881Y-92199500D01*
X64070873Y-92199500D01*
X64070864Y-92199500D01*
X62675129Y-92199500D01*
X62675123Y-92199501D01*
X62615516Y-92205908D01*
X62480671Y-92256202D01*
X62480664Y-92256206D01*
X62365455Y-92342452D01*
X62365452Y-92342455D01*
X62279204Y-92457667D01*
X62275330Y-92464762D01*
X62225923Y-92514165D01*
X62157649Y-92529015D01*
X62092186Y-92504595D01*
X62057670Y-92464762D01*
X62053795Y-92457667D01*
X61967547Y-92342455D01*
X61967544Y-92342452D01*
X61852335Y-92256206D01*
X61852328Y-92256202D01*
X61717482Y-92205908D01*
X61717483Y-92205908D01*
X61657883Y-92199501D01*
X61657881Y-92199500D01*
X61657873Y-92199500D01*
X61657864Y-92199500D01*
X60262129Y-92199500D01*
X60262123Y-92199501D01*
X60202516Y-92205908D01*
X60067671Y-92256202D01*
X60067664Y-92256206D01*
X59952455Y-92342452D01*
X59952452Y-92342455D01*
X59866206Y-92457664D01*
X59866202Y-92457671D01*
X59815418Y-92593833D01*
X59773547Y-92649767D01*
X59708083Y-92674184D01*
X59699236Y-92674500D01*
X59110035Y-92674500D01*
X59055574Y-92661900D01*
X59018511Y-92643780D01*
X59000869Y-92641210D01*
X58947949Y-92633500D01*
X58947943Y-92633500D01*
X58654049Y-92633500D01*
X58583493Y-92643779D01*
X58474650Y-92696989D01*
X58388988Y-92782651D01*
X58335780Y-92891488D01*
X58331925Y-92917951D01*
X58325500Y-92962051D01*
X58325500Y-92962055D01*
X58325500Y-92962056D01*
X58325500Y-93405950D01*
X58335779Y-93476506D01*
X58335779Y-93476507D01*
X58335780Y-93476509D01*
X58371828Y-93550245D01*
X58388989Y-93585349D01*
X58474651Y-93671011D01*
X58583488Y-93724219D01*
X58583489Y-93724219D01*
X58583491Y-93724220D01*
X58654051Y-93734500D01*
X58804454Y-93734499D01*
X58871494Y-93754183D01*
X58892136Y-93770818D01*
X58939180Y-93817862D01*
X58972665Y-93879185D01*
X58975499Y-93905543D01*
X58975499Y-94609500D01*
X58955814Y-94676539D01*
X58903010Y-94722294D01*
X58851500Y-94733500D01*
X58654049Y-94733500D01*
X58583493Y-94743779D01*
X58474650Y-94796989D01*
X58388988Y-94882651D01*
X58335780Y-94991488D01*
X58333732Y-95005546D01*
X58325500Y-95062051D01*
X58325500Y-95062055D01*
X58325500Y-95062056D01*
X58325500Y-95505950D01*
X58335779Y-95576506D01*
X58335779Y-95576507D01*
X58335780Y-95576509D01*
X58388988Y-95685347D01*
X58414181Y-95710540D01*
X58447666Y-95771861D01*
X58450500Y-95798221D01*
X58450500Y-95831455D01*
X58430815Y-95898494D01*
X58414181Y-95919136D01*
X57530020Y-96803296D01*
X57468697Y-96836781D01*
X57440194Y-96839075D01*
X57440194Y-96839500D01*
X56641129Y-96839500D01*
X56641123Y-96839501D01*
X56581516Y-96845908D01*
X56446671Y-96896202D01*
X56446664Y-96896206D01*
X56331455Y-96982452D01*
X56331452Y-96982455D01*
X56245206Y-97097664D01*
X56245202Y-97097671D01*
X56194908Y-97232517D01*
X56188963Y-97287819D01*
X56188501Y-97292123D01*
X56188500Y-97292135D01*
X56188500Y-97315500D01*
X56168815Y-97382539D01*
X56116011Y-97428294D01*
X56064500Y-97439500D01*
X52583629Y-97439500D01*
X52516590Y-97419815D01*
X52470835Y-97367011D01*
X52460891Y-97297853D01*
X52489916Y-97234297D01*
X52529508Y-97206807D01*
X52528547Y-97205047D01*
X52536326Y-97200798D01*
X52536332Y-97200796D01*
X52651547Y-97114547D01*
X52737796Y-96999332D01*
X52788091Y-96864485D01*
X52794500Y-96804875D01*
X52794500Y-96150000D01*
X53625001Y-96150000D01*
X53625001Y-96324986D01*
X53635494Y-96427697D01*
X53690641Y-96594119D01*
X53690643Y-96594124D01*
X53782684Y-96743345D01*
X53906654Y-96867315D01*
X54055875Y-96959356D01*
X54055880Y-96959358D01*
X54222302Y-97014505D01*
X54222309Y-97014506D01*
X54325019Y-97024999D01*
X54749999Y-97024999D01*
X54750000Y-97024998D01*
X54750000Y-96150000D01*
X55250000Y-96150000D01*
X55250000Y-97024999D01*
X55674972Y-97024999D01*
X55674986Y-97024998D01*
X55777697Y-97014505D01*
X55944119Y-96959358D01*
X55944124Y-96959356D01*
X56093345Y-96867315D01*
X56217315Y-96743345D01*
X56309356Y-96594124D01*
X56309358Y-96594119D01*
X56364505Y-96427697D01*
X56364506Y-96427690D01*
X56374999Y-96324986D01*
X56375000Y-96324973D01*
X56375000Y-96150000D01*
X55250000Y-96150000D01*
X54750000Y-96150000D01*
X53625001Y-96150000D01*
X52794500Y-96150000D01*
X52794500Y-95650000D01*
X53625000Y-95650000D01*
X54750000Y-95650000D01*
X54750000Y-94775000D01*
X55250000Y-94775000D01*
X55250000Y-95650000D01*
X56374999Y-95650000D01*
X56374999Y-95475028D01*
X56374998Y-95475013D01*
X56364505Y-95372302D01*
X56309358Y-95205880D01*
X56309356Y-95205875D01*
X56217315Y-95056654D01*
X56093345Y-94932684D01*
X55944124Y-94840643D01*
X55944119Y-94840641D01*
X55777697Y-94785494D01*
X55777690Y-94785493D01*
X55674986Y-94775000D01*
X55250000Y-94775000D01*
X54750000Y-94775000D01*
X54325028Y-94775000D01*
X54325012Y-94775001D01*
X54222302Y-94785494D01*
X54055880Y-94840641D01*
X54055875Y-94840643D01*
X53906654Y-94932684D01*
X53782684Y-95056654D01*
X53690643Y-95205875D01*
X53690641Y-95205880D01*
X53635494Y-95372302D01*
X53635493Y-95372309D01*
X53625000Y-95475013D01*
X53625000Y-95650000D01*
X52794500Y-95650000D01*
X52794499Y-93754878D01*
X52794500Y-93754873D01*
X52794499Y-91689542D01*
X52814184Y-91622504D01*
X52866987Y-91576749D01*
X52936146Y-91566805D01*
X52999702Y-91595830D01*
X53006180Y-91601862D01*
X53862842Y-92458524D01*
X53896327Y-92519847D01*
X53891344Y-92589534D01*
X53880909Y-92617512D01*
X53880908Y-92617516D01*
X53876045Y-92662755D01*
X53874501Y-92677123D01*
X53874500Y-92677135D01*
X53874500Y-93522870D01*
X53874501Y-93522876D01*
X53880908Y-93582483D01*
X53931202Y-93717328D01*
X53931206Y-93717335D01*
X54017452Y-93832544D01*
X54017455Y-93832547D01*
X54132664Y-93918793D01*
X54132671Y-93918797D01*
X54267517Y-93969091D01*
X54267516Y-93969091D01*
X54274444Y-93969835D01*
X54327127Y-93975500D01*
X55672872Y-93975499D01*
X55732483Y-93969091D01*
X55867331Y-93918796D01*
X55982546Y-93832546D01*
X56068796Y-93717331D01*
X56119091Y-93582483D01*
X56125500Y-93522873D01*
X56125499Y-92677128D01*
X56119444Y-92620797D01*
X56119091Y-92617516D01*
X56068797Y-92482671D01*
X56068793Y-92482664D01*
X55982547Y-92367455D01*
X55982544Y-92367452D01*
X55867335Y-92281206D01*
X55867328Y-92281202D01*
X55732482Y-92230908D01*
X55732483Y-92230908D01*
X55672883Y-92224501D01*
X55672881Y-92224500D01*
X55672873Y-92224500D01*
X55672865Y-92224500D01*
X54671544Y-92224500D01*
X54604505Y-92204815D01*
X54583863Y-92188181D01*
X53464863Y-91069181D01*
X53431378Y-91007858D01*
X53436362Y-90938166D01*
X53478234Y-90882233D01*
X53543698Y-90857816D01*
X53552544Y-90857500D01*
X68315956Y-90857500D01*
X68382995Y-90877185D01*
G37*
%TD.AperFunction*%
%TA.AperFunction,Conductor*%
G36*
X41636539Y-91810185D02*
G01*
X41682294Y-91862989D01*
X41693500Y-91914500D01*
X41693500Y-92224869D01*
X41693501Y-92224876D01*
X41699908Y-92284483D01*
X41750202Y-92419328D01*
X41750206Y-92419335D01*
X41836452Y-92534544D01*
X41836455Y-92534547D01*
X41951664Y-92620793D01*
X41951671Y-92620797D01*
X42086517Y-92671091D01*
X42086516Y-92671091D01*
X42091865Y-92671666D01*
X42146127Y-92677500D01*
X43600636Y-92677499D01*
X43667675Y-92697184D01*
X43713430Y-92749987D01*
X43723374Y-92819146D01*
X43694349Y-92882702D01*
X43688317Y-92889180D01*
X41551318Y-95026181D01*
X41489995Y-95059666D01*
X41463637Y-95062500D01*
X40244664Y-95062500D01*
X40177625Y-95042815D01*
X40131870Y-94990011D01*
X40121374Y-94951754D01*
X40120721Y-94945684D01*
X40119091Y-94930517D01*
X40069850Y-94798494D01*
X40068797Y-94795671D01*
X40068793Y-94795664D01*
X39982547Y-94680455D01*
X39982544Y-94680452D01*
X39867335Y-94594206D01*
X39867328Y-94594202D01*
X39732482Y-94543908D01*
X39732483Y-94543908D01*
X39672883Y-94537501D01*
X39672881Y-94537500D01*
X39672873Y-94537500D01*
X39672864Y-94537500D01*
X38327129Y-94537500D01*
X38327123Y-94537501D01*
X38267516Y-94543908D01*
X38132671Y-94594202D01*
X38132664Y-94594206D01*
X38017455Y-94680452D01*
X38017452Y-94680455D01*
X37931206Y-94795664D01*
X37931202Y-94795671D01*
X37880908Y-94930517D01*
X37874501Y-94990116D01*
X37874500Y-94990135D01*
X37874500Y-95835870D01*
X37874501Y-95835876D01*
X37880908Y-95895483D01*
X37931202Y-96030328D01*
X37931206Y-96030335D01*
X38017452Y-96145544D01*
X38017455Y-96145547D01*
X38132664Y-96231793D01*
X38132671Y-96231797D01*
X38267517Y-96282091D01*
X38267516Y-96282091D01*
X38274444Y-96282835D01*
X38327127Y-96288500D01*
X39672872Y-96288499D01*
X39732483Y-96282091D01*
X39867331Y-96231796D01*
X39982546Y-96145546D01*
X40068796Y-96030331D01*
X40119091Y-95895483D01*
X40120453Y-95882818D01*
X40121375Y-95874243D01*
X40148114Y-95809692D01*
X40205507Y-95769845D01*
X40244664Y-95763500D01*
X41583236Y-95763500D01*
X41650275Y-95783185D01*
X41696030Y-95835989D01*
X41705974Y-95905147D01*
X41701682Y-95921962D01*
X41701693Y-95921965D01*
X41699908Y-95929516D01*
X41693929Y-95985136D01*
X41693501Y-95989123D01*
X41693500Y-95989135D01*
X41693500Y-96697455D01*
X41673815Y-96764494D01*
X41657181Y-96785136D01*
X41229137Y-97213181D01*
X41167814Y-97246666D01*
X41141456Y-97249500D01*
X37598544Y-97249500D01*
X37531505Y-97229815D01*
X37510863Y-97213181D01*
X36723641Y-96425959D01*
X36690156Y-96364636D01*
X36695140Y-96294944D01*
X36737012Y-96239011D01*
X36753686Y-96228486D01*
X36818612Y-96194411D01*
X36936855Y-96089658D01*
X37026592Y-95959651D01*
X37082609Y-95811946D01*
X37101650Y-95655128D01*
X37098850Y-95632063D01*
X37082609Y-95498309D01*
X37060022Y-95438754D01*
X37026592Y-95350605D01*
X36936855Y-95220598D01*
X36918954Y-95204739D01*
X36853171Y-95146460D01*
X36816044Y-95087271D01*
X36816812Y-95017405D01*
X36847715Y-94965966D01*
X38288864Y-93524816D01*
X38350185Y-93491333D01*
X38376534Y-93488499D01*
X39672872Y-93488499D01*
X39732483Y-93482091D01*
X39867331Y-93431796D01*
X39982546Y-93345546D01*
X40068796Y-93230331D01*
X40119091Y-93095483D01*
X40125500Y-93035873D01*
X40125499Y-92190128D01*
X40119091Y-92130517D01*
X40108929Y-92103272D01*
X40068797Y-91995671D01*
X40068796Y-91995669D01*
X40063662Y-91988811D01*
X40039245Y-91923347D01*
X40054096Y-91855074D01*
X40103501Y-91805668D01*
X40162929Y-91790500D01*
X41569500Y-91790500D01*
X41636539Y-91810185D01*
G37*
%TD.AperFunction*%
%TA.AperFunction,Conductor*%
G36*
X45812834Y-91858542D02*
G01*
X45868767Y-91900414D01*
X45893184Y-91965878D01*
X45893500Y-91974724D01*
X45893500Y-94459127D01*
X45893501Y-95632063D01*
X45893500Y-96688454D01*
X45873815Y-96755494D01*
X45857181Y-96776135D01*
X45741096Y-96892220D01*
X45679773Y-96925705D01*
X45610081Y-96920721D01*
X45554148Y-96878849D01*
X45542092Y-96856911D01*
X45541704Y-96857116D01*
X45538222Y-96850483D01*
X45538220Y-96850477D01*
X45448483Y-96720470D01*
X45330240Y-96615717D01*
X45330238Y-96615716D01*
X45330237Y-96615715D01*
X45190365Y-96542303D01*
X45036986Y-96504500D01*
X45036985Y-96504500D01*
X44879015Y-96504500D01*
X44879014Y-96504500D01*
X44725634Y-96542303D01*
X44579119Y-96619202D01*
X44578028Y-96617123D01*
X44522567Y-96635405D01*
X44454918Y-96617931D01*
X44407455Y-96566657D01*
X44394499Y-96511472D01*
X44394499Y-95989129D01*
X44394498Y-95989123D01*
X44394497Y-95989116D01*
X44388091Y-95929517D01*
X44386512Y-95925284D01*
X44337797Y-95794671D01*
X44337793Y-95794664D01*
X44251547Y-95679455D01*
X44251544Y-95679452D01*
X44136335Y-95593206D01*
X44136328Y-95593202D01*
X44001482Y-95542908D01*
X44001483Y-95542908D01*
X43941883Y-95536501D01*
X43941881Y-95536500D01*
X43941873Y-95536500D01*
X43941865Y-95536500D01*
X42331723Y-95536500D01*
X42264684Y-95516815D01*
X42218929Y-95464011D01*
X42208985Y-95394853D01*
X42238010Y-95331297D01*
X42244028Y-95324833D01*
X45681819Y-91887043D01*
X45743142Y-91853558D01*
X45812834Y-91858542D01*
G37*
%TD.AperFunction*%
%TA.AperFunction,Conductor*%
G36*
X37904110Y-91810185D02*
G01*
X37949865Y-91862989D01*
X37959809Y-91932147D01*
X37936338Y-91988811D01*
X37931203Y-91995669D01*
X37931202Y-91995671D01*
X37880908Y-92130517D01*
X37875531Y-92180539D01*
X37874501Y-92190123D01*
X37874500Y-92190135D01*
X37874500Y-92896455D01*
X37854815Y-92963494D01*
X37838181Y-92984136D01*
X36233327Y-94588989D01*
X36213478Y-94605110D01*
X36205702Y-94610191D01*
X36198143Y-94617150D01*
X36196835Y-94615729D01*
X36150473Y-94649087D01*
X36080700Y-94652752D01*
X36020021Y-94618113D01*
X35987702Y-94556168D01*
X35986297Y-94547440D01*
X35985857Y-94543908D01*
X35984573Y-94533607D01*
X35984571Y-94533604D01*
X35982518Y-94526704D01*
X35982475Y-94526579D01*
X35982437Y-94526453D01*
X35980092Y-94519618D01*
X35955704Y-94474555D01*
X35933199Y-94428518D01*
X35928919Y-94422524D01*
X35924419Y-94416743D01*
X35886724Y-94382041D01*
X35662326Y-94157644D01*
X35646200Y-94137787D01*
X35641126Y-94130020D01*
X35615176Y-94109822D01*
X35609430Y-94104748D01*
X35606996Y-94102314D01*
X35606995Y-94102313D01*
X35606994Y-94102312D01*
X35600537Y-94097702D01*
X35589250Y-94089644D01*
X35548815Y-94058172D01*
X35548811Y-94058170D01*
X35542337Y-94054666D01*
X35535758Y-94051449D01*
X35486643Y-94036827D01*
X35438175Y-94020187D01*
X35430958Y-94018983D01*
X35423642Y-94018071D01*
X35374414Y-94020108D01*
X35372458Y-94020189D01*
X34159938Y-94020189D01*
X34092899Y-94000504D01*
X34057887Y-93966627D01*
X34036858Y-93936160D01*
X34017258Y-93918796D01*
X33918614Y-93831406D01*
X33918612Y-93831405D01*
X33918611Y-93831404D01*
X33778739Y-93757992D01*
X33625360Y-93720189D01*
X33625359Y-93720189D01*
X33467389Y-93720189D01*
X33467388Y-93720189D01*
X33314011Y-93757992D01*
X33314009Y-93757992D01*
X33314009Y-93757993D01*
X33289574Y-93770818D01*
X33276126Y-93777876D01*
X33207617Y-93791601D01*
X33142564Y-93766108D01*
X33101620Y-93709492D01*
X33094500Y-93668079D01*
X33094500Y-93481544D01*
X33114185Y-93414505D01*
X33130819Y-93393863D01*
X33202863Y-93321819D01*
X33264186Y-93288334D01*
X33290544Y-93285500D01*
X34568676Y-93285500D01*
X34568677Y-93285499D01*
X34641740Y-93270966D01*
X34724601Y-93215601D01*
X34779966Y-93132740D01*
X34794500Y-93059674D01*
X34794500Y-91914500D01*
X34814185Y-91847461D01*
X34866989Y-91801706D01*
X34918500Y-91790500D01*
X37837071Y-91790500D01*
X37904110Y-91810185D01*
G37*
%TD.AperFunction*%
%TA.AperFunction,Conductor*%
G36*
X116558995Y-89820185D02*
G01*
X116604750Y-89872989D01*
X116614694Y-89942147D01*
X116585669Y-90005703D01*
X116579637Y-90012181D01*
X114353637Y-92238181D01*
X114292314Y-92271666D01*
X114265956Y-92274500D01*
X113909044Y-92274500D01*
X113842005Y-92254815D01*
X113821363Y-92238181D01*
X111908137Y-90324955D01*
X111892011Y-90305098D01*
X111886937Y-90297331D01*
X111860987Y-90277133D01*
X111855241Y-90272059D01*
X111852807Y-90269625D01*
X111852806Y-90269624D01*
X111852805Y-90269623D01*
X111846348Y-90265013D01*
X111835061Y-90256955D01*
X111794626Y-90225483D01*
X111794622Y-90225481D01*
X111788148Y-90221977D01*
X111781569Y-90218760D01*
X111732454Y-90204138D01*
X111683986Y-90187498D01*
X111676769Y-90186294D01*
X111669453Y-90185382D01*
X111620225Y-90187419D01*
X111618269Y-90187500D01*
X70142712Y-90187500D01*
X70117266Y-90184861D01*
X70108186Y-90182957D01*
X70108185Y-90182957D01*
X70108183Y-90182957D01*
X70075562Y-90187023D01*
X70067886Y-90187500D01*
X70064460Y-90187500D01*
X70048332Y-90190191D01*
X70042955Y-90191088D01*
X69992106Y-90197427D01*
X69985047Y-90199528D01*
X69978122Y-90201906D01*
X69933056Y-90226294D01*
X69887016Y-90248800D01*
X69881064Y-90253049D01*
X69875242Y-90257581D01*
X69860041Y-90274094D01*
X69840542Y-90295275D01*
X69705999Y-90429819D01*
X69584637Y-90551181D01*
X69523314Y-90584666D01*
X69496956Y-90587500D01*
X69140044Y-90587500D01*
X69073005Y-90567815D01*
X69052363Y-90551181D01*
X68795137Y-90293955D01*
X68779011Y-90274098D01*
X68773937Y-90266331D01*
X68747987Y-90246133D01*
X68742241Y-90241059D01*
X68739807Y-90238625D01*
X68739806Y-90238624D01*
X68739805Y-90238623D01*
X68733348Y-90234013D01*
X68722061Y-90225955D01*
X68681626Y-90194483D01*
X68681622Y-90194481D01*
X68675148Y-90190977D01*
X68668569Y-90187760D01*
X68619454Y-90173138D01*
X68570986Y-90156498D01*
X68563769Y-90155294D01*
X68556453Y-90154382D01*
X68507225Y-90156419D01*
X68505269Y-90156500D01*
X44413211Y-90156500D01*
X44387765Y-90153861D01*
X44378685Y-90151957D01*
X44378684Y-90151957D01*
X44378682Y-90151957D01*
X44346061Y-90156023D01*
X44338385Y-90156500D01*
X44334960Y-90156500D01*
X44313457Y-90160087D01*
X44262608Y-90166426D01*
X44255570Y-90168521D01*
X44248622Y-90170906D01*
X44203555Y-90195295D01*
X44157512Y-90217803D01*
X44151566Y-90222048D01*
X44145742Y-90226581D01*
X44111042Y-90264275D01*
X43435135Y-90940181D01*
X43373812Y-90973666D01*
X43347454Y-90976500D01*
X42146129Y-90976500D01*
X42146123Y-90976501D01*
X42086516Y-90982908D01*
X41951671Y-91033202D01*
X41951668Y-91033204D01*
X41909506Y-91064767D01*
X41844041Y-91089184D01*
X41835195Y-91089500D01*
X34638206Y-91089500D01*
X34612761Y-91086861D01*
X34603685Y-91084958D01*
X34603682Y-91084958D01*
X34571068Y-91089023D01*
X34563392Y-91089500D01*
X34559960Y-91089500D01*
X34545619Y-91091892D01*
X34538448Y-91093089D01*
X34521621Y-91095186D01*
X34487607Y-91099427D01*
X34487606Y-91099427D01*
X34487601Y-91099428D01*
X34480575Y-91101519D01*
X34473623Y-91103906D01*
X34428555Y-91128295D01*
X34382512Y-91150803D01*
X34376566Y-91155048D01*
X34370742Y-91159581D01*
X34336042Y-91197275D01*
X34285136Y-91248181D01*
X34223813Y-91281666D01*
X34197455Y-91284500D01*
X33290544Y-91284500D01*
X33223505Y-91264815D01*
X33202863Y-91248181D01*
X32948637Y-90993955D01*
X32932511Y-90974098D01*
X32927437Y-90966331D01*
X32901487Y-90946133D01*
X32895741Y-90941059D01*
X32893307Y-90938625D01*
X32893306Y-90938624D01*
X32893305Y-90938623D01*
X32886848Y-90934013D01*
X32875561Y-90925955D01*
X32835126Y-90894483D01*
X32835122Y-90894481D01*
X32828648Y-90890977D01*
X32822069Y-90887760D01*
X32772954Y-90873138D01*
X32724486Y-90856498D01*
X32717269Y-90855294D01*
X32709953Y-90854382D01*
X32660725Y-90856419D01*
X32658769Y-90856500D01*
X25626787Y-90856500D01*
X25559748Y-90836815D01*
X25513993Y-90784011D01*
X25510605Y-90775832D01*
X25494714Y-90733226D01*
X25494712Y-90733222D01*
X25480697Y-90714500D01*
X25410616Y-90620884D01*
X25317505Y-90551181D01*
X25298280Y-90536789D01*
X25298278Y-90536788D01*
X25271644Y-90526854D01*
X25166799Y-90487748D01*
X25108690Y-90481500D01*
X25108674Y-90481500D01*
X24515326Y-90481500D01*
X24515309Y-90481500D01*
X24457200Y-90487748D01*
X24325719Y-90536789D01*
X24213384Y-90620884D01*
X24129289Y-90733219D01*
X24080248Y-90864700D01*
X24074000Y-90922809D01*
X24074000Y-91491190D01*
X24080248Y-91549299D01*
X24107553Y-91622504D01*
X24126924Y-91674441D01*
X24129289Y-91680780D01*
X24151822Y-91710880D01*
X24213384Y-91793116D01*
X24279739Y-91842789D01*
X24318532Y-91871830D01*
X24325722Y-91877212D01*
X24410290Y-91908754D01*
X24457200Y-91926251D01*
X24515309Y-91932499D01*
X24515326Y-91932500D01*
X25108674Y-91932500D01*
X25108690Y-91932499D01*
X25166799Y-91926251D01*
X25183947Y-91919855D01*
X25298278Y-91877212D01*
X25410616Y-91793116D01*
X25494712Y-91680778D01*
X25494714Y-91680773D01*
X25510605Y-91638168D01*
X25552476Y-91582234D01*
X25617940Y-91557816D01*
X25626787Y-91557500D01*
X26611224Y-91557500D01*
X26678263Y-91577185D01*
X26724018Y-91629989D01*
X26733962Y-91699147D01*
X26704937Y-91762703D01*
X26702457Y-91765479D01*
X26698033Y-91770285D01*
X25217135Y-93251181D01*
X25155812Y-93284666D01*
X25129455Y-93287500D01*
X24979049Y-93287500D01*
X24908493Y-93297779D01*
X24799650Y-93350989D01*
X24713988Y-93436651D01*
X24660779Y-93545491D01*
X24655551Y-93581378D01*
X24626407Y-93644879D01*
X24567558Y-93682543D01*
X24532847Y-93687500D01*
X24247244Y-93687500D01*
X24180205Y-93667815D01*
X24134450Y-93615011D01*
X24123954Y-93550247D01*
X24125500Y-93535873D01*
X24125499Y-92690128D01*
X24119091Y-92630517D01*
X24115465Y-92620796D01*
X24068797Y-92495671D01*
X24068793Y-92495664D01*
X23982547Y-92380455D01*
X23982544Y-92380452D01*
X23867335Y-92294206D01*
X23867328Y-92294202D01*
X23732482Y-92243908D01*
X23732483Y-92243908D01*
X23672883Y-92237501D01*
X23672881Y-92237500D01*
X23672873Y-92237500D01*
X23672865Y-92237500D01*
X23461500Y-92237500D01*
X23394461Y-92217815D01*
X23348706Y-92165011D01*
X23337500Y-92113500D01*
X23337500Y-92013948D01*
X23357185Y-91946909D01*
X23409989Y-91901154D01*
X23418145Y-91897775D01*
X23473278Y-91877212D01*
X23585616Y-91793116D01*
X23669712Y-91680778D01*
X23718751Y-91549299D01*
X23721254Y-91526021D01*
X23724999Y-91491190D01*
X23725000Y-91491173D01*
X23725000Y-90922826D01*
X23724999Y-90922809D01*
X23718751Y-90864700D01*
X23699226Y-90812352D01*
X23669712Y-90733222D01*
X23585616Y-90620884D01*
X23492505Y-90551181D01*
X23473280Y-90536789D01*
X23473278Y-90536788D01*
X23446644Y-90526854D01*
X23341799Y-90487748D01*
X23283690Y-90481500D01*
X23283674Y-90481500D01*
X22690326Y-90481500D01*
X22690309Y-90481500D01*
X22624490Y-90488578D01*
X22624350Y-90487283D01*
X22562578Y-90483961D01*
X22505913Y-90443085D01*
X22480344Y-90378062D01*
X22480755Y-90352092D01*
X22499265Y-90199655D01*
X22480224Y-90042837D01*
X22452021Y-89968471D01*
X22446654Y-89898808D01*
X22479801Y-89837302D01*
X22540940Y-89803480D01*
X22567963Y-89800500D01*
X116491956Y-89800500D01*
X116558995Y-89820185D01*
G37*
%TD.AperFunction*%
%TA.AperFunction,Conductor*%
G36*
X21575121Y-90793194D02*
G01*
X21611622Y-90812351D01*
X21611624Y-90812351D01*
X21611625Y-90812352D01*
X21765001Y-90850155D01*
X21765002Y-90850155D01*
X21922972Y-90850155D01*
X22076352Y-90812351D01*
X22076358Y-90812347D01*
X22081020Y-90810580D01*
X22150683Y-90805208D01*
X22212191Y-90838351D01*
X22246017Y-90899487D01*
X22248999Y-90926519D01*
X22248999Y-91491173D01*
X22249000Y-91491190D01*
X22255248Y-91549299D01*
X22282553Y-91622504D01*
X22301924Y-91674441D01*
X22304289Y-91680780D01*
X22326822Y-91710880D01*
X22388384Y-91793116D01*
X22500722Y-91877212D01*
X22555834Y-91897767D01*
X22611766Y-91939636D01*
X22636184Y-92005101D01*
X22636500Y-92013948D01*
X22636500Y-92113500D01*
X22616815Y-92180539D01*
X22564011Y-92226294D01*
X22512501Y-92237500D01*
X22327130Y-92237500D01*
X22327123Y-92237501D01*
X22267516Y-92243908D01*
X22132671Y-92294202D01*
X22132664Y-92294206D01*
X22017455Y-92380452D01*
X22017452Y-92380455D01*
X21931206Y-92495664D01*
X21931202Y-92495671D01*
X21880908Y-92630517D01*
X21874501Y-92690116D01*
X21874499Y-92690135D01*
X21874499Y-92970273D01*
X21854814Y-93037313D01*
X21802010Y-93083068D01*
X21732852Y-93093011D01*
X21669296Y-93063986D01*
X21662832Y-93057967D01*
X20386819Y-91781954D01*
X20353334Y-91720631D01*
X20350500Y-91694273D01*
X20350500Y-91636500D01*
X20370185Y-91569461D01*
X20422989Y-91523706D01*
X20474500Y-91512500D01*
X20825773Y-91512500D01*
X20839196Y-91511443D01*
X20861574Y-91509682D01*
X21014792Y-91465168D01*
X21152127Y-91383949D01*
X21264949Y-91271127D01*
X21346168Y-91133792D01*
X21390682Y-90980574D01*
X21392538Y-90956993D01*
X21393500Y-90944773D01*
X21393500Y-90902992D01*
X21413185Y-90835953D01*
X21465989Y-90790198D01*
X21535147Y-90780254D01*
X21575121Y-90793194D01*
G37*
%TD.AperFunction*%
%TD*%
M02*
