%TF.GenerationSoftware,KiCad,Pcbnew,8.0.5*%
%TF.CreationDate,2025-06-13T10:46:21+02:00*%
%TF.ProjectId,elektroFrogExtensionTHT,656c656b-7472-46f4-9672-6f6745787465,rev?*%
%TF.SameCoordinates,Original*%
%TF.FileFunction,Copper,L1,Top*%
%TF.FilePolarity,Positive*%
%FSLAX46Y46*%
G04 Gerber Fmt 4.6, Leading zero omitted, Abs format (unit mm)*
G04 Created by KiCad (PCBNEW 8.0.5) date 2025-06-13 10:46:21*
%MOMM*%
%LPD*%
G01*
G04 APERTURE LIST*
G04 Aperture macros list*
%AMRoundRect*
0 Rectangle with rounded corners*
0 $1 Rounding radius*
0 $2 $3 $4 $5 $6 $7 $8 $9 X,Y pos of 4 corners*
0 Add a 4 corners polygon primitive as box body*
4,1,4,$2,$3,$4,$5,$6,$7,$8,$9,$2,$3,0*
0 Add four circle primitives for the rounded corners*
1,1,$1+$1,$2,$3*
1,1,$1+$1,$4,$5*
1,1,$1+$1,$6,$7*
1,1,$1+$1,$8,$9*
0 Add four rect primitives between the rounded corners*
20,1,$1+$1,$2,$3,$4,$5,0*
20,1,$1+$1,$4,$5,$6,$7,0*
20,1,$1+$1,$6,$7,$8,$9,0*
20,1,$1+$1,$8,$9,$2,$3,0*%
G04 Aperture macros list end*
%TA.AperFunction,ComponentPad*%
%ADD10R,2.000000X2.000000*%
%TD*%
%TA.AperFunction,ComponentPad*%
%ADD11C,2.000000*%
%TD*%
%TA.AperFunction,ComponentPad*%
%ADD12C,2.200000*%
%TD*%
%TA.AperFunction,ComponentPad*%
%ADD13C,1.400000*%
%TD*%
%TA.AperFunction,ComponentPad*%
%ADD14O,1.400000X1.400000*%
%TD*%
%TA.AperFunction,ComponentPad*%
%ADD15R,1.700000X1.700000*%
%TD*%
%TA.AperFunction,ComponentPad*%
%ADD16O,1.700000X1.700000*%
%TD*%
%TA.AperFunction,ComponentPad*%
%ADD17RoundRect,0.250000X-1.550000X0.650000X-1.550000X-0.650000X1.550000X-0.650000X1.550000X0.650000X0*%
%TD*%
%TA.AperFunction,ComponentPad*%
%ADD18O,3.600000X1.800000*%
%TD*%
%TA.AperFunction,ViaPad*%
%ADD19C,0.800000*%
%TD*%
%TA.AperFunction,Conductor*%
%ADD20C,0.300000*%
%TD*%
%TA.AperFunction,Conductor*%
%ADD21C,0.800000*%
%TD*%
G04 APERTURE END LIST*
D10*
%TO.P,K6,1*%
%TO.N,unconnected-(K6-Pad1)*%
X214092500Y-108542500D03*
D11*
%TO.P,K6,2*%
%TO.N,+12V*%
X214092500Y-111082500D03*
%TO.P,K6,5*%
%TO.N,/frog/Frog3*%
X214092500Y-118702500D03*
%TO.P,K6,6*%
X219172500Y-118702500D03*
%TO.P,K6,9*%
%TO.N,Net-(K6-Pad9)*%
X219172500Y-111082500D03*
%TO.P,K6,10*%
%TO.N,Net-(J501-Pin_2)*%
X219172500Y-108542500D03*
%TD*%
D12*
%TO.P,J702,1,Pin_1*%
%TO.N,/relay4/Coil2*%
X236500000Y-125000000D03*
X239000000Y-125000000D03*
%TO.P,J702,2,Pin_2*%
%TO.N,+12V*%
X236500000Y-128500000D03*
X239000000Y-128500000D03*
%TO.P,J702,3,Pin_3*%
%TO.N,/relay4/Coil1*%
X236500000Y-132000000D03*
X239000000Y-132000000D03*
%TD*%
D10*
%TO.P,K5,1*%
%TO.N,unconnected-(K5-Pad1)*%
X222592500Y-108542500D03*
D11*
%TO.P,K5,2*%
%TO.N,+12V*%
X222592500Y-111082500D03*
%TO.P,K5,5*%
%TO.N,/frog/Frog3*%
X222592500Y-118702500D03*
%TO.P,K5,6*%
X227672500Y-118702500D03*
%TO.P,K5,9*%
%TO.N,Net-(K5-Pad9)*%
X227672500Y-111082500D03*
%TO.P,K5,10*%
%TO.N,Net-(J501-Pin_3)*%
X227672500Y-108542500D03*
%TD*%
D13*
%TO.P,R302,1*%
%TO.N,Net-(K3-Pad9)*%
X231000000Y-102376000D03*
D14*
%TO.P,R302,2*%
%TO.N,/relay2/Coil2*%
X231000000Y-94756000D03*
%TD*%
D10*
%TO.P,K4,1*%
%TO.N,unconnected-(K4-Pad1)*%
X214092500Y-93542500D03*
D11*
%TO.P,K4,2*%
%TO.N,+12V*%
X214092500Y-96082500D03*
%TO.P,K4,5*%
%TO.N,/frog/Frog2*%
X214092500Y-103702500D03*
%TO.P,K4,6*%
X219172500Y-103702500D03*
%TO.P,K4,9*%
%TO.N,Net-(K4-Pad9)*%
X219172500Y-96082500D03*
%TO.P,K4,10*%
%TO.N,Net-(J301-Pin_2)*%
X219172500Y-93542500D03*
%TD*%
D15*
%TO.P,J701,1,Pin_1*%
%TO.N,DCC_A*%
X205500000Y-130000000D03*
D16*
%TO.P,J701,2,Pin_2*%
%TO.N,Net-(J701-Pin_2)*%
X205500000Y-127460000D03*
%TO.P,J701,3,Pin_3*%
%TO.N,Net-(J701-Pin_3)*%
X208040000Y-130000000D03*
%TO.P,J701,4,Pin_4*%
%TO.N,DCC_B*%
X208040000Y-127460000D03*
%TD*%
D13*
%TO.P,R701,1*%
%TO.N,Net-(K8-Pad9)*%
X233500000Y-124756000D03*
D14*
%TO.P,R701,2*%
%TO.N,/relay4/Coil1*%
X233500000Y-132376000D03*
%TD*%
D17*
%TO.P,J401,1,Pin_1*%
%TO.N,DCC_A*%
X200432500Y-102500000D03*
D18*
%TO.P,J401,2,Pin_2*%
%TO.N,DCC_B*%
X200432500Y-106000000D03*
%TO.P,J401,3,Pin_3*%
%TO.N,/frog/Frog1*%
X200432500Y-109500000D03*
%TO.P,J401,4,Pin_4*%
%TO.N,/frog/Frog2*%
X200432500Y-113000000D03*
%TO.P,J401,5,Pin_5*%
%TO.N,/frog/Frog3*%
X200432500Y-116500000D03*
%TO.P,J401,6,Pin_6*%
%TO.N,/frog/Frog4*%
X200432500Y-120000000D03*
%TD*%
D13*
%TO.P,R501,1*%
%TO.N,Net-(K6-Pad9)*%
X233500000Y-109756000D03*
D14*
%TO.P,R501,2*%
%TO.N,/relay3/Coil1*%
X233500000Y-117376000D03*
%TD*%
D13*
%TO.P,R202,1*%
%TO.N,Net-(K1-Pad9)*%
X231000000Y-87376000D03*
D14*
%TO.P,R202,2*%
%TO.N,/relay1/Coil2*%
X231000000Y-79756000D03*
%TD*%
D10*
%TO.P,K3,1*%
%TO.N,unconnected-(K3-Pad1)*%
X222592500Y-93542500D03*
D11*
%TO.P,K3,2*%
%TO.N,+12V*%
X222592500Y-96082500D03*
%TO.P,K3,5*%
%TO.N,/frog/Frog2*%
X222592500Y-103702500D03*
%TO.P,K3,6*%
X227672500Y-103702500D03*
%TO.P,K3,9*%
%TO.N,Net-(K3-Pad9)*%
X227672500Y-96082500D03*
%TO.P,K3,10*%
%TO.N,Net-(J301-Pin_3)*%
X227672500Y-93542500D03*
%TD*%
D13*
%TO.P,R301,1*%
%TO.N,Net-(K4-Pad9)*%
X233500000Y-94756000D03*
D14*
%TO.P,R301,2*%
%TO.N,/relay2/Coil1*%
X233500000Y-102376000D03*
%TD*%
D15*
%TO.P,J501,1,Pin_1*%
%TO.N,DCC_A*%
X205500000Y-115000000D03*
D16*
%TO.P,J501,2,Pin_2*%
%TO.N,Net-(J501-Pin_2)*%
X205500000Y-112460000D03*
%TO.P,J501,3,Pin_3*%
%TO.N,Net-(J501-Pin_3)*%
X208040000Y-115000000D03*
%TO.P,J501,4,Pin_4*%
%TO.N,DCC_B*%
X208040000Y-112460000D03*
%TD*%
D10*
%TO.P,K8,1*%
%TO.N,unconnected-(K8-Pad1)*%
X214092500Y-123542500D03*
D11*
%TO.P,K8,2*%
%TO.N,+12V*%
X214092500Y-126082500D03*
%TO.P,K8,5*%
%TO.N,/frog/Frog4*%
X214092500Y-133702500D03*
%TO.P,K8,6*%
X219172500Y-133702500D03*
%TO.P,K8,9*%
%TO.N,Net-(K8-Pad9)*%
X219172500Y-126082500D03*
%TO.P,K8,10*%
%TO.N,Net-(J701-Pin_2)*%
X219172500Y-123542500D03*
%TD*%
D10*
%TO.P,K2,1*%
%TO.N,unconnected-(K2-Pad1)*%
X214092500Y-78542500D03*
D11*
%TO.P,K2,2*%
%TO.N,+12V*%
X214092500Y-81082500D03*
%TO.P,K2,5*%
%TO.N,/frog/Frog1*%
X214092500Y-88702500D03*
%TO.P,K2,6*%
X219172500Y-88702500D03*
%TO.P,K2,9*%
%TO.N,Net-(K2-Pad9)*%
X219172500Y-81082500D03*
%TO.P,K2,10*%
%TO.N,Net-(J201-Pin_2)*%
X219172500Y-78542500D03*
%TD*%
D10*
%TO.P,K1,1*%
%TO.N,unconnected-(K1-Pad1)*%
X222592500Y-78542500D03*
D11*
%TO.P,K1,2*%
%TO.N,+12V*%
X222592500Y-81082500D03*
%TO.P,K1,5*%
%TO.N,/frog/Frog1*%
X222592500Y-88702500D03*
%TO.P,K1,6*%
X227672500Y-88702500D03*
%TO.P,K1,9*%
%TO.N,Net-(K1-Pad9)*%
X227672500Y-81082500D03*
%TO.P,K1,10*%
%TO.N,Net-(J201-Pin_3)*%
X227672500Y-78542500D03*
%TD*%
D12*
%TO.P,J302,1,Pin_1*%
%TO.N,/relay2/Coil2*%
X236500000Y-95000000D03*
X239000000Y-95000000D03*
%TO.P,J302,2,Pin_2*%
%TO.N,+12V*%
X236500000Y-98500000D03*
X239000000Y-98500000D03*
%TO.P,J302,3,Pin_3*%
%TO.N,/relay2/Coil1*%
X236500000Y-102000000D03*
X239000000Y-102000000D03*
%TD*%
D10*
%TO.P,K7,1*%
%TO.N,unconnected-(K7-Pad1)*%
X222592500Y-123542500D03*
D11*
%TO.P,K7,2*%
%TO.N,+12V*%
X222592500Y-126082500D03*
%TO.P,K7,5*%
%TO.N,/frog/Frog4*%
X222592500Y-133702500D03*
%TO.P,K7,6*%
X227672500Y-133702500D03*
%TO.P,K7,9*%
%TO.N,Net-(K7-Pad9)*%
X227672500Y-126082500D03*
%TO.P,K7,10*%
%TO.N,Net-(J701-Pin_3)*%
X227672500Y-123542500D03*
%TD*%
D15*
%TO.P,J201,1,Pin_1*%
%TO.N,DCC_A*%
X205500000Y-85000000D03*
D16*
%TO.P,J201,2,Pin_2*%
%TO.N,Net-(J201-Pin_2)*%
X205500000Y-82460000D03*
%TO.P,J201,3,Pin_3*%
%TO.N,Net-(J201-Pin_3)*%
X208040000Y-85000000D03*
%TO.P,J201,4,Pin_4*%
%TO.N,DCC_B*%
X208040000Y-82460000D03*
%TD*%
D15*
%TO.P,J301,1,Pin_1*%
%TO.N,DCC_A*%
X205500000Y-100000000D03*
D16*
%TO.P,J301,2,Pin_2*%
%TO.N,Net-(J301-Pin_2)*%
X205500000Y-97460000D03*
%TO.P,J301,3,Pin_3*%
%TO.N,Net-(J301-Pin_3)*%
X208040000Y-100000000D03*
%TO.P,J301,4,Pin_4*%
%TO.N,DCC_B*%
X208040000Y-97460000D03*
%TD*%
D12*
%TO.P,J502,1,Pin_1*%
%TO.N,/relay3/Coil2*%
X236500000Y-110000000D03*
X239000000Y-110000000D03*
%TO.P,J502,2,Pin_2*%
%TO.N,+12V*%
X236500000Y-113500000D03*
X239000000Y-113500000D03*
%TO.P,J502,3,Pin_3*%
%TO.N,/relay3/Coil1*%
X236500000Y-117000000D03*
X239000000Y-117000000D03*
%TD*%
D13*
%TO.P,R201,1*%
%TO.N,Net-(K2-Pad9)*%
X233500000Y-79756000D03*
D14*
%TO.P,R201,2*%
%TO.N,/relay1/Coil1*%
X233500000Y-87376000D03*
%TD*%
D13*
%TO.P,R502,1*%
%TO.N,Net-(K5-Pad9)*%
X231000000Y-117376000D03*
D14*
%TO.P,R502,2*%
%TO.N,/relay3/Coil2*%
X231000000Y-109756000D03*
%TD*%
D12*
%TO.P,J202,1,Pin_1*%
%TO.N,/relay1/Coil2*%
X236500000Y-80000000D03*
X239000000Y-80000000D03*
%TO.P,J202,2,Pin_2*%
%TO.N,+12V*%
X236500000Y-83500000D03*
X239000000Y-83500000D03*
%TO.P,J202,3,Pin_3*%
%TO.N,/relay1/Coil1*%
X236500000Y-87000000D03*
X239000000Y-87000000D03*
%TD*%
D13*
%TO.P,R702,1*%
%TO.N,Net-(K7-Pad9)*%
X231000000Y-132376000D03*
D14*
%TO.P,R702,2*%
%TO.N,/relay4/Coil2*%
X231000000Y-124756000D03*
%TD*%
D19*
%TO.N,DCC_B*%
X205232000Y-106045000D03*
%TD*%
D20*
%TO.N,/relay1/Coil2*%
X235206000Y-78706000D02*
X232050000Y-78706000D01*
X239000000Y-80000000D02*
X236500000Y-80000000D01*
X236500000Y-80000000D02*
X235206000Y-78706000D01*
X232050000Y-78706000D02*
X231000000Y-79756000D01*
%TO.N,/relay1/Coil1*%
X233876000Y-87000000D02*
X233500000Y-87376000D01*
X239000000Y-87000000D02*
X233876000Y-87000000D01*
%TO.N,/relay2/Coil2*%
X236500000Y-95000000D02*
X235206000Y-93706000D01*
X232050000Y-93706000D02*
X231000000Y-94756000D01*
X235206000Y-93706000D02*
X232050000Y-93706000D01*
X239000000Y-95000000D02*
X236500000Y-95000000D01*
%TO.N,/relay2/Coil1*%
X239000000Y-102000000D02*
X233876000Y-102000000D01*
X233876000Y-102000000D02*
X233500000Y-102376000D01*
%TO.N,/relay3/Coil1*%
X233876000Y-117000000D02*
X233500000Y-117376000D01*
X239000000Y-117000000D02*
X233876000Y-117000000D01*
%TO.N,/relay3/Coil2*%
X239000000Y-110000000D02*
X236500000Y-110000000D01*
X236500000Y-110000000D02*
X235206000Y-108706000D01*
X232050000Y-108706000D02*
X231000000Y-109756000D01*
X235206000Y-108706000D02*
X232050000Y-108706000D01*
%TO.N,/relay4/Coil1*%
X239000000Y-132000000D02*
X233876000Y-132000000D01*
X233876000Y-132000000D02*
X233500000Y-132376000D01*
%TO.N,/relay4/Coil2*%
X232050000Y-123706000D02*
X231000000Y-124756000D01*
X235206000Y-123706000D02*
X232050000Y-123706000D01*
X236500000Y-125000000D02*
X235206000Y-123706000D01*
X239000000Y-125000000D02*
X236500000Y-125000000D01*
D21*
%TO.N,DCC_A*%
X204050000Y-105537000D02*
X204050000Y-113550000D01*
X205500000Y-100000000D02*
X205043000Y-100457000D01*
X205500000Y-115000000D02*
X205500000Y-115429000D01*
X200432500Y-102500000D02*
X201306000Y-102500000D01*
X204050000Y-98550000D02*
X204451500Y-98951500D01*
X201306000Y-102500000D02*
X204050000Y-105244000D01*
X205500000Y-85000000D02*
X204050000Y-86450000D01*
X204050000Y-105244000D02*
X204050000Y-105537000D01*
X204050000Y-86450000D02*
X204050000Y-98550000D01*
X204050000Y-113550000D02*
X205500000Y-115000000D01*
X205500000Y-100000000D02*
X205486000Y-100014000D01*
X205043000Y-100457000D02*
X203454000Y-100457000D01*
X201411000Y-102500000D02*
X200432500Y-102500000D01*
X203454000Y-100457000D02*
X201411000Y-102500000D01*
X204050000Y-128550000D02*
X205500000Y-130000000D01*
X204451500Y-98951500D02*
X205500000Y-100000000D01*
X204050000Y-116879000D02*
X204050000Y-128550000D01*
X205500000Y-115429000D02*
X204050000Y-116879000D01*
%TO.N,DCC_B*%
X205232000Y-106045000D02*
X208982000Y-106045000D01*
X209490000Y-105537000D02*
X209490000Y-106553000D01*
X209490000Y-106553000D02*
X209490000Y-111010000D01*
X209490000Y-111010000D02*
X208040000Y-112460000D01*
X208040000Y-112460000D02*
X209490000Y-113910000D01*
X209490000Y-96010000D02*
X208040000Y-97460000D01*
X208982000Y-106045000D02*
X209490000Y-106553000D01*
X209490000Y-98910000D02*
X209490000Y-105537000D01*
X209490000Y-83910000D02*
X209490000Y-96010000D01*
X209490000Y-113910000D02*
X209490000Y-126010000D01*
X208040000Y-82460000D02*
X209490000Y-83910000D01*
X209490000Y-126010000D02*
X208040000Y-127460000D01*
X208982000Y-106045000D02*
X209490000Y-105537000D01*
X208040000Y-97460000D02*
X209490000Y-98910000D01*
%TO.N,/frog/Frog4*%
X214092500Y-133702500D02*
X206302500Y-133702500D01*
X200432500Y-127832500D02*
X200432500Y-120000000D01*
X227672500Y-133702500D02*
X214092500Y-133702500D01*
X206302500Y-133702500D02*
X200432500Y-127832500D01*
%TO.N,/frog/Frog2*%
X227672500Y-103702500D02*
X214092500Y-103702500D01*
%TO.N,/frog/Frog1*%
X227672500Y-88702500D02*
X214092500Y-88702500D01*
%TO.N,/frog/Frog3*%
X227672500Y-118702500D02*
X214092500Y-118702500D01*
D20*
%TO.N,Net-(K1-Pad9)*%
X231000000Y-84410000D02*
X231000000Y-87376000D01*
X227672500Y-81082500D02*
X231000000Y-84410000D01*
%TO.N,Net-(K2-Pad9)*%
X219172500Y-81082500D02*
X220590000Y-82500000D01*
X232050000Y-81206000D02*
X233500000Y-79756000D01*
X232050000Y-87810925D02*
X232050000Y-81206000D01*
X228382894Y-82500000D02*
X229743000Y-83860106D01*
X220590000Y-82500000D02*
X228382894Y-82500000D01*
X229743000Y-87603925D02*
X230565075Y-88426000D01*
X229743000Y-83860106D02*
X229743000Y-87603925D01*
X230565075Y-88426000D02*
X231434925Y-88426000D01*
X231434925Y-88426000D02*
X232050000Y-87810925D01*
%TO.N,Net-(K3-Pad9)*%
X227672500Y-96082500D02*
X231000000Y-99410000D01*
X231000000Y-99410000D02*
X231000000Y-102376000D01*
%TO.N,Net-(K4-Pad9)*%
X219172500Y-96082500D02*
X220590000Y-97500000D01*
X231434925Y-103426000D02*
X232050000Y-102810925D01*
X232050000Y-102810925D02*
X232050000Y-96206000D01*
X220590000Y-97500000D02*
X228382894Y-97500000D01*
X229743000Y-102603925D02*
X230565075Y-103426000D01*
X228382894Y-97500000D02*
X229743000Y-98860106D01*
X229743000Y-98860106D02*
X229743000Y-102603925D01*
X230565075Y-103426000D02*
X231434925Y-103426000D01*
X232050000Y-96206000D02*
X233500000Y-94756000D01*
%TO.N,Net-(K5-Pad9)*%
X227672500Y-111082500D02*
X231000000Y-114410000D01*
X231000000Y-114410000D02*
X231000000Y-117376000D01*
%TO.N,Net-(K6-Pad9)*%
X230565075Y-118426000D02*
X231434925Y-118426000D01*
X228382894Y-112500000D02*
X229743000Y-113860106D01*
X232050000Y-117810925D02*
X232050000Y-111206000D01*
X231434925Y-118426000D02*
X232050000Y-117810925D01*
X232050000Y-111206000D02*
X233500000Y-109756000D01*
X219172500Y-111082500D02*
X220590000Y-112500000D01*
X229743000Y-117603925D02*
X230565075Y-118426000D01*
X229743000Y-113860106D02*
X229743000Y-117603925D01*
X220590000Y-112500000D02*
X228382894Y-112500000D01*
%TO.N,Net-(K7-Pad9)*%
X227672500Y-126082500D02*
X231000000Y-129410000D01*
X231000000Y-129410000D02*
X231000000Y-132376000D01*
%TO.N,Net-(K8-Pad9)*%
X231434925Y-133426000D02*
X232050000Y-132810925D01*
X228382894Y-127500000D02*
X229743000Y-128860106D01*
X232050000Y-126206000D02*
X233500000Y-124756000D01*
X219172500Y-126082500D02*
X220590000Y-127500000D01*
X220590000Y-127500000D02*
X228382894Y-127500000D01*
X229743000Y-128860106D02*
X229743000Y-132603925D01*
X232050000Y-132810925D02*
X232050000Y-126206000D01*
X230565075Y-133426000D02*
X231434925Y-133426000D01*
X229743000Y-132603925D02*
X230565075Y-133426000D01*
%TD*%
M02*
