M48
; DRILL file {KiCad 8.0.2} date 2024-12-24T23:24:08+0100
; FORMAT={-:-/ absolute / inch / decimal}
; #@! TF.CreationDate,2024-12-24T23:24:08+01:00
; #@! TF.GenerationSoftware,Kicad,Pcbnew,8.0.2
; #@! TF.FileFunction,Plated,1,2,PTH
FMAT,2
INCH
; #@! TA.AperFunction,Plated,PTH,ComponentDrill
T1C0.0276
; #@! TA.AperFunction,Plated,PTH,ComponentDrill
T2C0.0295
; #@! TA.AperFunction,Plated,PTH,ComponentDrill
T3C0.0354
; #@! TA.AperFunction,Plated,PTH,ComponentDrill
T4C0.0394
; #@! TA.AperFunction,Plated,PTH,ComponentDrill
T5C0.0472
%
G90
G05
T1
X6.5626Y-3.5039
X6.8626Y-3.5039
T2
X6.5628Y-3.3465
X6.8628Y-3.3465
T3
X5.8163Y-3.5236
X5.8163Y-3.8189
X5.9163Y-3.5236
X5.9163Y-3.8189
T5
X5.6666Y-3.6888
X5.6666Y-3.8266
X6.1024Y-3.2087
X6.2402Y-3.2087
X6.378Y-3.2087
X6.5971Y-3.6931
X6.5971Y-3.8309
T4
G00X6.1161Y-3.5
M15
G01X6.1752Y-3.5
M16
G05
G00X6.1161Y-3.685
M15
G01X6.1752Y-3.685
M16
G05
G00X6.1161Y-3.8701
M15
G01X6.1752Y-3.8701
M16
G05
G00X6.3051Y-3.5
M15
G01X6.3642Y-3.5
M16
G05
G00X6.3051Y-3.685
M15
G01X6.3642Y-3.685
M16
G05
G00X6.3051Y-3.8701
M15
G01X6.3642Y-3.8701
M16
G05
M30
