%TF.GenerationSoftware,KiCad,Pcbnew,7.0.7*%
%TF.CreationDate,2023-11-28T12:30:50+01:00*%
%TF.ProjectId,ledStrip,6c656453-7472-4697-902e-6b696361645f,rev?*%
%TF.SameCoordinates,Original*%
%TF.FileFunction,Paste,Top*%
%TF.FilePolarity,Positive*%
%FSLAX46Y46*%
G04 Gerber Fmt 4.6, Leading zero omitted, Abs format (unit mm)*
G04 Created by KiCad (PCBNEW 7.0.7) date 2023-11-28 12:30:50*
%MOMM*%
%LPD*%
G01*
G04 APERTURE LIST*
G04 Aperture macros list*
%AMRoundRect*
0 Rectangle with rounded corners*
0 $1 Rounding radius*
0 $2 $3 $4 $5 $6 $7 $8 $9 X,Y pos of 4 corners*
0 Add a 4 corners polygon primitive as box body*
4,1,4,$2,$3,$4,$5,$6,$7,$8,$9,$2,$3,0*
0 Add four circle primitives for the rounded corners*
1,1,$1+$1,$2,$3*
1,1,$1+$1,$4,$5*
1,1,$1+$1,$6,$7*
1,1,$1+$1,$8,$9*
0 Add four rect primitives between the rounded corners*
20,1,$1+$1,$2,$3,$4,$5,0*
20,1,$1+$1,$4,$5,$6,$7,0*
20,1,$1+$1,$6,$7,$8,$9,0*
20,1,$1+$1,$8,$9,$2,$3,0*%
G04 Aperture macros list end*
%ADD10RoundRect,0.381000X-0.762000X-0.381000X0.762000X-0.381000X0.762000X0.381000X-0.762000X0.381000X0*%
%ADD11R,1.200000X1.200000*%
%ADD12R,1.600000X1.500000*%
%ADD13RoundRect,0.250000X0.625000X-0.375000X0.625000X0.375000X-0.625000X0.375000X-0.625000X-0.375000X0*%
%ADD14RoundRect,0.237500X0.250000X0.237500X-0.250000X0.237500X-0.250000X-0.237500X0.250000X-0.237500X0*%
%ADD15RoundRect,0.250000X0.650000X-0.325000X0.650000X0.325000X-0.650000X0.325000X-0.650000X-0.325000X0*%
%ADD16RoundRect,0.237500X-0.250000X-0.237500X0.250000X-0.237500X0.250000X0.237500X-0.250000X0.237500X0*%
%ADD17RoundRect,0.112500X-0.187500X-0.112500X0.187500X-0.112500X0.187500X0.112500X-0.187500X0.112500X0*%
%ADD18RoundRect,0.381000X0.762000X0.381000X-0.762000X0.381000X-0.762000X-0.381000X0.762000X-0.381000X0*%
%ADD19RoundRect,0.112500X0.112500X-0.187500X0.112500X0.187500X-0.112500X0.187500X-0.112500X-0.187500X0*%
%ADD20RoundRect,0.225000X0.225000X0.250000X-0.225000X0.250000X-0.225000X-0.250000X0.225000X-0.250000X0*%
%ADD21RoundRect,0.250000X-0.850000X-0.350000X0.850000X-0.350000X0.850000X0.350000X-0.850000X0.350000X0*%
%ADD22RoundRect,0.250000X-1.275000X-1.125000X1.275000X-1.125000X1.275000X1.125000X-1.275000X1.125000X0*%
%ADD23RoundRect,0.112500X-0.112500X0.187500X-0.112500X-0.187500X0.112500X-0.187500X0.112500X0.187500X0*%
%ADD24RoundRect,0.250000X0.450000X-0.350000X0.450000X0.350000X-0.450000X0.350000X-0.450000X-0.350000X0*%
%ADD25RoundRect,0.237500X0.237500X-0.250000X0.237500X0.250000X-0.237500X0.250000X-0.237500X-0.250000X0*%
G04 APERTURE END LIST*
D10*
%TO.C,*%
X63373000Y-96139000D03*
%TD*%
D11*
%TO.C,RV1*%
X45990000Y-95907000D03*
D12*
X46990000Y-92657000D03*
D11*
X47990000Y-95907000D03*
%TD*%
D13*
%TO.C,D8*%
X56500000Y-95900000D03*
X56500000Y-93100000D03*
%TD*%
%TO.C,D7*%
X39500000Y-95900000D03*
X39500000Y-93100000D03*
%TD*%
D14*
%TO.C,R3*%
X28979500Y-90424000D03*
X27154500Y-90424000D03*
%TD*%
D15*
%TO.C,C6*%
X94655000Y-95758000D03*
X94655000Y-92808000D03*
%TD*%
D13*
%TO.C,D18*%
X226500000Y-95900000D03*
X226500000Y-93100000D03*
%TD*%
%TO.C,D12*%
X124500000Y-95900000D03*
X124500000Y-93100000D03*
%TD*%
D15*
%TO.C,C7*%
X97155000Y-95758000D03*
X97155000Y-92808000D03*
%TD*%
D16*
%TO.C,R7*%
X221337500Y-92964000D03*
X223162500Y-92964000D03*
%TD*%
D17*
%TO.C,D1*%
X18381000Y-96266000D03*
X20481000Y-96266000D03*
%TD*%
D15*
%TO.C,C9*%
X102155000Y-95758000D03*
X102155000Y-92808000D03*
%TD*%
D18*
%TO.C,J2*%
X19000000Y-90500000D03*
%TD*%
D15*
%TO.C,C8*%
X99655000Y-95758000D03*
X99655000Y-92808000D03*
%TD*%
%TO.C,C4*%
X82764000Y-95455000D03*
X82764000Y-92505000D03*
%TD*%
D10*
%TO.C,J3*%
X266000000Y-98513000D03*
%TD*%
D13*
%TO.C,D6*%
X22500000Y-95900000D03*
X22500000Y-93100000D03*
%TD*%
D19*
%TO.C,D4*%
X25273000Y-92998000D03*
X25273000Y-90898000D03*
%TD*%
D20*
%TO.C,C1*%
X23508000Y-97790000D03*
X21958000Y-97790000D03*
%TD*%
D16*
%TO.C,R6*%
X171045500Y-92456000D03*
X172870500Y-92456000D03*
%TD*%
D13*
%TO.C,D14*%
X158500000Y-95900000D03*
X158500000Y-93100000D03*
%TD*%
D21*
%TO.C,U1*%
X27853000Y-92440000D03*
D22*
X32478000Y-93195000D03*
X32478000Y-96245000D03*
X35828000Y-93195000D03*
X35828000Y-96245000D03*
D21*
X27853000Y-97000000D03*
%TD*%
D13*
%TO.C,D13*%
X141500000Y-95900000D03*
X141500000Y-93100000D03*
%TD*%
D10*
%TO.C,*%
X63373000Y-92583000D03*
%TD*%
D13*
%TO.C,D17*%
X209500000Y-95900000D03*
X209500000Y-93100000D03*
%TD*%
D10*
%TO.C,J4*%
X266000000Y-90513000D03*
%TD*%
D13*
%TO.C,D20*%
X260500000Y-95900000D03*
X260500000Y-93100000D03*
%TD*%
D17*
%TO.C,D2*%
X18381000Y-92964000D03*
X20481000Y-92964000D03*
%TD*%
D15*
%TO.C,C5*%
X85264000Y-95455000D03*
X85264000Y-92505000D03*
%TD*%
D23*
%TO.C,D5*%
X53594000Y-93522000D03*
X53594000Y-95622000D03*
%TD*%
D13*
%TO.C,D16*%
X192500000Y-95900000D03*
X192500000Y-93100000D03*
%TD*%
%TO.C,D11*%
X107500000Y-95900000D03*
X107500000Y-93100000D03*
%TD*%
%TO.C,D9*%
X73500000Y-95400000D03*
X73500000Y-92600000D03*
%TD*%
%TO.C,D10*%
X90500000Y-95900000D03*
X90500000Y-93100000D03*
%TD*%
%TO.C,D19*%
X243500000Y-95900000D03*
X243500000Y-93100000D03*
%TD*%
D24*
%TO.C,R1*%
X51308000Y-95726000D03*
X51308000Y-93726000D03*
%TD*%
D16*
%TO.C,R4*%
X68580000Y-92583000D03*
X70405000Y-92583000D03*
%TD*%
D18*
%TO.C,J1*%
X19000000Y-98500000D03*
%TD*%
D16*
%TO.C,R5*%
X119864500Y-92583000D03*
X121689500Y-92583000D03*
%TD*%
D15*
%TO.C,C2*%
X77714000Y-95455000D03*
X77714000Y-92505000D03*
%TD*%
D13*
%TO.C,D15*%
X175500000Y-95900000D03*
X175500000Y-93100000D03*
%TD*%
D23*
%TO.C,D3*%
X25273000Y-95851000D03*
X25273000Y-97951000D03*
%TD*%
D25*
%TO.C,R2*%
X43180000Y-94638500D03*
X43180000Y-92813500D03*
%TD*%
D15*
%TO.C,C3*%
X80264000Y-95455000D03*
X80264000Y-92505000D03*
%TD*%
M02*
