%TF.GenerationSoftware,KiCad,Pcbnew,7.0.7*%
%TF.CreationDate,2023-11-28T12:30:50+01:00*%
%TF.ProjectId,ledStrip,6c656453-7472-4697-902e-6b696361645f,rev?*%
%TF.SameCoordinates,Original*%
%TF.FileFunction,Copper,L1,Top*%
%TF.FilePolarity,Positive*%
%FSLAX46Y46*%
G04 Gerber Fmt 4.6, Leading zero omitted, Abs format (unit mm)*
G04 Created by KiCad (PCBNEW 7.0.7) date 2023-11-28 12:30:50*
%MOMM*%
%LPD*%
G01*
G04 APERTURE LIST*
G04 Aperture macros list*
%AMRoundRect*
0 Rectangle with rounded corners*
0 $1 Rounding radius*
0 $2 $3 $4 $5 $6 $7 $8 $9 X,Y pos of 4 corners*
0 Add a 4 corners polygon primitive as box body*
4,1,4,$2,$3,$4,$5,$6,$7,$8,$9,$2,$3,0*
0 Add four circle primitives for the rounded corners*
1,1,$1+$1,$2,$3*
1,1,$1+$1,$4,$5*
1,1,$1+$1,$6,$7*
1,1,$1+$1,$8,$9*
0 Add four rect primitives between the rounded corners*
20,1,$1+$1,$2,$3,$4,$5,0*
20,1,$1+$1,$4,$5,$6,$7,0*
20,1,$1+$1,$6,$7,$8,$9,0*
20,1,$1+$1,$8,$9,$2,$3,0*%
G04 Aperture macros list end*
%TA.AperFunction,SMDPad,CuDef*%
%ADD10RoundRect,0.381000X-0.762000X-0.381000X0.762000X-0.381000X0.762000X0.381000X-0.762000X0.381000X0*%
%TD*%
%TA.AperFunction,SMDPad,CuDef*%
%ADD11R,1.200000X1.200000*%
%TD*%
%TA.AperFunction,SMDPad,CuDef*%
%ADD12R,1.600000X1.500000*%
%TD*%
%TA.AperFunction,SMDPad,CuDef*%
%ADD13RoundRect,0.250000X0.625000X-0.375000X0.625000X0.375000X-0.625000X0.375000X-0.625000X-0.375000X0*%
%TD*%
%TA.AperFunction,SMDPad,CuDef*%
%ADD14RoundRect,0.237500X0.250000X0.237500X-0.250000X0.237500X-0.250000X-0.237500X0.250000X-0.237500X0*%
%TD*%
%TA.AperFunction,SMDPad,CuDef*%
%ADD15RoundRect,0.250000X0.650000X-0.325000X0.650000X0.325000X-0.650000X0.325000X-0.650000X-0.325000X0*%
%TD*%
%TA.AperFunction,SMDPad,CuDef*%
%ADD16RoundRect,0.237500X-0.250000X-0.237500X0.250000X-0.237500X0.250000X0.237500X-0.250000X0.237500X0*%
%TD*%
%TA.AperFunction,SMDPad,CuDef*%
%ADD17RoundRect,0.112500X-0.187500X-0.112500X0.187500X-0.112500X0.187500X0.112500X-0.187500X0.112500X0*%
%TD*%
%TA.AperFunction,SMDPad,CuDef*%
%ADD18RoundRect,0.381000X0.762000X0.381000X-0.762000X0.381000X-0.762000X-0.381000X0.762000X-0.381000X0*%
%TD*%
%TA.AperFunction,SMDPad,CuDef*%
%ADD19RoundRect,0.112500X0.112500X-0.187500X0.112500X0.187500X-0.112500X0.187500X-0.112500X-0.187500X0*%
%TD*%
%TA.AperFunction,SMDPad,CuDef*%
%ADD20RoundRect,0.225000X0.225000X0.250000X-0.225000X0.250000X-0.225000X-0.250000X0.225000X-0.250000X0*%
%TD*%
%TA.AperFunction,SMDPad,CuDef*%
%ADD21RoundRect,0.250000X-0.850000X-0.350000X0.850000X-0.350000X0.850000X0.350000X-0.850000X0.350000X0*%
%TD*%
%TA.AperFunction,SMDPad,CuDef*%
%ADD22RoundRect,0.250000X-1.275000X-1.125000X1.275000X-1.125000X1.275000X1.125000X-1.275000X1.125000X0*%
%TD*%
%TA.AperFunction,SMDPad,CuDef*%
%ADD23RoundRect,0.249997X-2.950003X-2.650003X2.950003X-2.650003X2.950003X2.650003X-2.950003X2.650003X0*%
%TD*%
%TA.AperFunction,SMDPad,CuDef*%
%ADD24RoundRect,0.112500X-0.112500X0.187500X-0.112500X-0.187500X0.112500X-0.187500X0.112500X0.187500X0*%
%TD*%
%TA.AperFunction,SMDPad,CuDef*%
%ADD25RoundRect,0.250000X0.450000X-0.350000X0.450000X0.350000X-0.450000X0.350000X-0.450000X-0.350000X0*%
%TD*%
%TA.AperFunction,SMDPad,CuDef*%
%ADD26RoundRect,0.237500X0.237500X-0.250000X0.237500X0.250000X-0.237500X0.250000X-0.237500X-0.250000X0*%
%TD*%
%TA.AperFunction,ViaPad*%
%ADD27C,0.800000*%
%TD*%
%TA.AperFunction,Conductor*%
%ADD28C,0.400000*%
%TD*%
%TA.AperFunction,Conductor*%
%ADD29C,0.200000*%
%TD*%
%TA.AperFunction,Conductor*%
%ADD30C,0.300000*%
%TD*%
G04 APERTURE END LIST*
D10*
%TO.P,,1,Pin_1*%
%TO.N,Net-(D5-A)*%
X63373000Y-96139000D03*
%TD*%
D11*
%TO.P,RV1,1,1*%
%TO.N,/Vled*%
X45990000Y-95907000D03*
D12*
%TO.P,RV1,2,2*%
X46990000Y-92657000D03*
D11*
%TO.P,RV1,3,3*%
%TO.N,Net-(R2-Pad2)*%
X47990000Y-95907000D03*
%TD*%
D13*
%TO.P,D8,1,K*%
%TO.N,GND*%
X56500000Y-95900000D03*
%TO.P,D8,2,A*%
%TO.N,Net-(D7-K)*%
X56500000Y-93100000D03*
%TD*%
%TO.P,D7,1,K*%
%TO.N,Net-(D7-K)*%
X39500000Y-95900000D03*
%TO.P,D7,2,A*%
%TO.N,Net-(D6-K)*%
X39500000Y-93100000D03*
%TD*%
D14*
%TO.P,R3,1*%
%TO.N,/Vled*%
X28979500Y-90424000D03*
%TO.P,R3,2*%
%TO.N,Net-(D6-A)*%
X27154500Y-90424000D03*
%TD*%
D15*
%TO.P,C6,1*%
%TO.N,Net-(D5-A)*%
X94655000Y-95758000D03*
%TO.P,C6,2*%
%TO.N,GND*%
X94655000Y-92808000D03*
%TD*%
D13*
%TO.P,D18,1,K*%
%TO.N,Net-(D18-K)*%
X226500000Y-95900000D03*
%TO.P,D18,2,A*%
%TO.N,Net-(D18-A)*%
X226500000Y-93100000D03*
%TD*%
%TO.P,D12,1,K*%
%TO.N,Net-(D12-K)*%
X124500000Y-95900000D03*
%TO.P,D12,2,A*%
%TO.N,Net-(D12-A)*%
X124500000Y-93100000D03*
%TD*%
D15*
%TO.P,C7,1*%
%TO.N,Net-(D5-A)*%
X97155000Y-95758000D03*
%TO.P,C7,2*%
%TO.N,GND*%
X97155000Y-92808000D03*
%TD*%
D16*
%TO.P,R7,1*%
%TO.N,/Vled*%
X221337500Y-92964000D03*
%TO.P,R7,2*%
%TO.N,Net-(D18-A)*%
X223162500Y-92964000D03*
%TD*%
D17*
%TO.P,D1,1,K*%
%TO.N,AC2*%
X18381000Y-96266000D03*
%TO.P,D1,2,A*%
%TO.N,GND*%
X20481000Y-96266000D03*
%TD*%
D15*
%TO.P,C9,1*%
%TO.N,Net-(D5-A)*%
X102155000Y-95758000D03*
%TO.P,C9,2*%
%TO.N,GND*%
X102155000Y-92808000D03*
%TD*%
D18*
%TO.P,J2,1,Pin_1*%
%TO.N,AC1*%
X19000000Y-90500000D03*
%TD*%
D15*
%TO.P,C8,1*%
%TO.N,Net-(D5-A)*%
X99655000Y-95758000D03*
%TO.P,C8,2*%
%TO.N,GND*%
X99655000Y-92808000D03*
%TD*%
%TO.P,C4,1*%
%TO.N,Net-(D5-A)*%
X82764000Y-95455000D03*
%TO.P,C4,2*%
%TO.N,GND*%
X82764000Y-92505000D03*
%TD*%
D10*
%TO.P,J3,1,Pin_1*%
%TO.N,AC2*%
X266000000Y-98513000D03*
%TD*%
D13*
%TO.P,D6,1,K*%
%TO.N,Net-(D6-K)*%
X22500000Y-95900000D03*
%TO.P,D6,2,A*%
%TO.N,Net-(D6-A)*%
X22500000Y-93100000D03*
%TD*%
D19*
%TO.P,D4,1,K*%
%TO.N,VCC*%
X25273000Y-92998000D03*
%TO.P,D4,2,A*%
%TO.N,AC1*%
X25273000Y-90898000D03*
%TD*%
D20*
%TO.P,C1,1*%
%TO.N,VCC*%
X23508000Y-97790000D03*
%TO.P,C1,2*%
%TO.N,GND*%
X21958000Y-97790000D03*
%TD*%
D16*
%TO.P,R6,1*%
%TO.N,/Vled*%
X171045500Y-92456000D03*
%TO.P,R6,2*%
%TO.N,Net-(D15-A)*%
X172870500Y-92456000D03*
%TD*%
D13*
%TO.P,D14,1,K*%
%TO.N,GND*%
X158500000Y-95900000D03*
%TO.P,D14,2,A*%
%TO.N,Net-(D13-K)*%
X158500000Y-93100000D03*
%TD*%
D21*
%TO.P,U1,1,ADJ*%
%TO.N,/Vled*%
X27853000Y-92440000D03*
D22*
%TO.P,U1,2,VO*%
%TO.N,Net-(U1-VO)*%
X32478000Y-93195000D03*
X32478000Y-96245000D03*
D23*
X34153000Y-94720000D03*
D22*
X35828000Y-93195000D03*
X35828000Y-96245000D03*
D21*
%TO.P,U1,3,VI*%
%TO.N,VCC*%
X27853000Y-97000000D03*
%TD*%
D13*
%TO.P,D13,1,K*%
%TO.N,Net-(D13-K)*%
X141500000Y-95900000D03*
%TO.P,D13,2,A*%
%TO.N,Net-(D12-K)*%
X141500000Y-93100000D03*
%TD*%
D10*
%TO.P,,1,Pin_1*%
%TO.N,GND*%
X63373000Y-92583000D03*
%TD*%
D13*
%TO.P,D17,1,K*%
%TO.N,GND*%
X209500000Y-95900000D03*
%TO.P,D17,2,A*%
%TO.N,Net-(D16-K)*%
X209500000Y-93100000D03*
%TD*%
D10*
%TO.P,J4,1,Pin_1*%
%TO.N,AC1*%
X266000000Y-90513000D03*
%TD*%
D13*
%TO.P,D20,1,K*%
%TO.N,GND*%
X260500000Y-95900000D03*
%TO.P,D20,2,A*%
%TO.N,Net-(D19-K)*%
X260500000Y-93100000D03*
%TD*%
D17*
%TO.P,D2,1,K*%
%TO.N,AC1*%
X18381000Y-92964000D03*
%TO.P,D2,2,A*%
%TO.N,GND*%
X20481000Y-92964000D03*
%TD*%
D15*
%TO.P,C5,1*%
%TO.N,Net-(D5-A)*%
X85264000Y-95455000D03*
%TO.P,C5,2*%
%TO.N,GND*%
X85264000Y-92505000D03*
%TD*%
D24*
%TO.P,D5,1,K*%
%TO.N,VCC*%
X53594000Y-93522000D03*
%TO.P,D5,2,A*%
%TO.N,Net-(D5-A)*%
X53594000Y-95622000D03*
%TD*%
D13*
%TO.P,D16,1,K*%
%TO.N,Net-(D16-K)*%
X192500000Y-95900000D03*
%TO.P,D16,2,A*%
%TO.N,Net-(D15-K)*%
X192500000Y-93100000D03*
%TD*%
%TO.P,D11,1,K*%
%TO.N,GND*%
X107500000Y-95900000D03*
%TO.P,D11,2,A*%
%TO.N,Net-(D10-K)*%
X107500000Y-93100000D03*
%TD*%
%TO.P,D9,1,K*%
%TO.N,Net-(D10-A)*%
X73500000Y-95400000D03*
%TO.P,D9,2,A*%
%TO.N,Net-(D9-A)*%
X73500000Y-92600000D03*
%TD*%
%TO.P,D10,1,K*%
%TO.N,Net-(D10-K)*%
X90500000Y-95900000D03*
%TO.P,D10,2,A*%
%TO.N,Net-(D10-A)*%
X90500000Y-93100000D03*
%TD*%
%TO.P,D19,1,K*%
%TO.N,Net-(D19-K)*%
X243500000Y-95900000D03*
%TO.P,D19,2,A*%
%TO.N,Net-(D18-K)*%
X243500000Y-93100000D03*
%TD*%
D25*
%TO.P,R1,1*%
%TO.N,Net-(D5-A)*%
X51308000Y-95726000D03*
%TO.P,R1,2*%
%TO.N,VCC*%
X51308000Y-93726000D03*
%TD*%
D16*
%TO.P,R4,1*%
%TO.N,/Vled*%
X68580000Y-92583000D03*
%TO.P,R4,2*%
%TO.N,Net-(D9-A)*%
X70405000Y-92583000D03*
%TD*%
D18*
%TO.P,J1,1,Pin_1*%
%TO.N,AC2*%
X19000000Y-98500000D03*
%TD*%
D16*
%TO.P,R5,1*%
%TO.N,/Vled*%
X119864500Y-92583000D03*
%TO.P,R5,2*%
%TO.N,Net-(D12-A)*%
X121689500Y-92583000D03*
%TD*%
D15*
%TO.P,C2,1*%
%TO.N,Net-(D5-A)*%
X77714000Y-95455000D03*
%TO.P,C2,2*%
%TO.N,GND*%
X77714000Y-92505000D03*
%TD*%
D13*
%TO.P,D15,1,K*%
%TO.N,Net-(D15-K)*%
X175500000Y-95900000D03*
%TO.P,D15,2,A*%
%TO.N,Net-(D15-A)*%
X175500000Y-93100000D03*
%TD*%
D24*
%TO.P,D3,1,K*%
%TO.N,VCC*%
X25273000Y-95851000D03*
%TO.P,D3,2,A*%
%TO.N,AC2*%
X25273000Y-97951000D03*
%TD*%
D26*
%TO.P,R2,1*%
%TO.N,Net-(U1-VO)*%
X43180000Y-94638500D03*
%TO.P,R2,2*%
%TO.N,Net-(R2-Pad2)*%
X43180000Y-92813500D03*
%TD*%
D15*
%TO.P,C3,1*%
%TO.N,Net-(D5-A)*%
X80264000Y-95455000D03*
%TO.P,C3,2*%
%TO.N,GND*%
X80264000Y-92505000D03*
%TD*%
D27*
%TO.N,AC1*%
X21089977Y-90199712D03*
X263500000Y-90551000D03*
%TO.N,AC2*%
X263643054Y-98670054D03*
X20828000Y-98800500D03*
%TO.N,VCC*%
X49530000Y-94488000D03*
X49664214Y-96781214D03*
%TO.N,GND*%
X63373000Y-90932000D03*
X110744000Y-92075000D03*
X209550000Y-97790000D03*
X236855000Y-92837000D03*
X147320000Y-91821000D03*
X84201000Y-90805000D03*
X166116000Y-91948000D03*
X52324000Y-91313000D03*
X154813000Y-96139000D03*
X77089000Y-91186000D03*
X19812000Y-94615000D03*
X121031000Y-97155000D03*
X80391000Y-90932000D03*
X200914000Y-91694000D03*
X98679000Y-91059000D03*
X94361000Y-94107000D03*
X199898000Y-96520000D03*
X184150000Y-96393000D03*
X214884000Y-92075000D03*
X22606000Y-90932000D03*
X19431000Y-92075000D03*
X28067000Y-94996000D03*
X148844000Y-96647000D03*
X42329584Y-96077713D03*
X95123000Y-91059000D03*
X88519000Y-91186000D03*
X161417000Y-96139000D03*
X102489000Y-91059000D03*
X99441000Y-94234000D03*
X58801000Y-97409000D03*
X212979000Y-96139000D03*
X44704000Y-92329000D03*
X65786000Y-92964000D03*
X132080000Y-91694000D03*
X96774000Y-94234000D03*
X88392000Y-97663000D03*
X105156000Y-97536000D03*
X167640000Y-97028000D03*
X248920000Y-92583000D03*
X217551000Y-96647000D03*
X74041000Y-97536000D03*
X181737000Y-91694000D03*
X233934000Y-97663000D03*
X258572000Y-96774000D03*
X260731000Y-97917000D03*
X80264000Y-97409000D03*
X131953000Y-96774000D03*
X109601000Y-95758000D03*
X264033000Y-92710000D03*
X68199000Y-97536000D03*
X60833000Y-92456000D03*
X207264000Y-95758000D03*
X102155000Y-94283000D03*
X50800000Y-98044000D03*
X247523000Y-97536000D03*
X262890000Y-96520000D03*
X38100000Y-91567000D03*
X158369000Y-97663000D03*
X41529000Y-92202000D03*
%TO.N,/Vled*%
X28904500Y-91388500D03*
X40386000Y-90805000D03*
%TD*%
D28*
%TO.N,AC1*%
X19000000Y-90500000D02*
X20789689Y-90500000D01*
D29*
X25273000Y-90898000D02*
X24477000Y-90898000D01*
X18381000Y-91119000D02*
X19000000Y-90500000D01*
D28*
X20789689Y-90500000D02*
X21089977Y-90199712D01*
D29*
X21246689Y-90043000D02*
X21089977Y-90199712D01*
D30*
X263500000Y-90551000D02*
X263538000Y-90513000D01*
D29*
X24477000Y-90898000D02*
X23622000Y-90043000D01*
X18381000Y-92964000D02*
X18381000Y-91119000D01*
X23622000Y-90043000D02*
X21246689Y-90043000D01*
D30*
X263538000Y-90513000D02*
X266000000Y-90513000D01*
D29*
%TO.N,AC2*%
X20960500Y-98933000D02*
X24291000Y-98933000D01*
D30*
X263643054Y-98670054D02*
X263800108Y-98513000D01*
D29*
X18381000Y-96266000D02*
X18381000Y-97881000D01*
X18381000Y-97881000D02*
X19000000Y-98500000D01*
D28*
X19300500Y-98800500D02*
X19000000Y-98500000D01*
X20828000Y-98800500D02*
X19300500Y-98800500D01*
D29*
X24291000Y-98933000D02*
X25273000Y-97951000D01*
X20828000Y-98800500D02*
X20960500Y-98933000D01*
D30*
X263800108Y-98513000D02*
X266000000Y-98513000D01*
D29*
%TO.N,Net-(D5-A)*%
X63373000Y-96139000D02*
X63559000Y-96325000D01*
X63559000Y-96325000D02*
X76844000Y-96325000D01*
X54241000Y-94975000D02*
X62209000Y-94975000D01*
X94655000Y-95758000D02*
X93872000Y-94975000D01*
X76844000Y-96325000D02*
X77714000Y-95455000D01*
X102155000Y-95758000D02*
X94655000Y-95758000D01*
X53594000Y-95622000D02*
X51412000Y-95622000D01*
X62209000Y-94975000D02*
X63373000Y-96139000D01*
X53594000Y-95622000D02*
X54241000Y-94975000D01*
X85264000Y-95455000D02*
X77714000Y-95455000D01*
X51412000Y-95622000D02*
X51308000Y-95726000D01*
X93872000Y-94975000D02*
X85744000Y-94975000D01*
X85744000Y-94975000D02*
X85264000Y-95455000D01*
%TO.N,VCC*%
X48763428Y-97682000D02*
X40621000Y-97682000D01*
X23508000Y-97616000D02*
X25273000Y-95851000D01*
X28420000Y-97000000D02*
X27853000Y-97000000D01*
X51308000Y-93726000D02*
X53390000Y-93726000D01*
X29340000Y-97920000D02*
X28420000Y-97000000D01*
X40621000Y-97682000D02*
X40383000Y-97920000D01*
X53390000Y-93726000D02*
X53594000Y-93522000D01*
X27853000Y-97000000D02*
X26422000Y-97000000D01*
X26422000Y-97000000D02*
X25273000Y-95851000D01*
X50292000Y-93726000D02*
X51308000Y-93726000D01*
X23508000Y-97790000D02*
X23508000Y-97616000D01*
X49530000Y-94488000D02*
X50292000Y-93726000D01*
X40383000Y-97920000D02*
X29340000Y-97920000D01*
X49664214Y-96781214D02*
X48763428Y-97682000D01*
X25273000Y-92998000D02*
X25273000Y-95851000D01*
%TO.N,GND*%
X21958000Y-97743000D02*
X20481000Y-96266000D01*
X21958000Y-97790000D02*
X21958000Y-97743000D01*
%TO.N,Net-(D10-A)*%
X89025000Y-94575000D02*
X74325000Y-94575000D01*
X74325000Y-94575000D02*
X73500000Y-95400000D01*
X90500000Y-93100000D02*
X89025000Y-94575000D01*
%TO.N,Net-(D9-A)*%
X70422000Y-92600000D02*
X70405000Y-92583000D01*
X73500000Y-92600000D02*
X70422000Y-92600000D01*
%TO.N,Net-(D7-K)*%
X55490000Y-93100000D02*
X56500000Y-93100000D01*
X50830183Y-94626000D02*
X53964000Y-94626000D01*
X48890000Y-96566183D02*
X50830183Y-94626000D01*
X53964000Y-94626000D02*
X55490000Y-93100000D01*
X48890000Y-96807000D02*
X48890000Y-96566183D01*
X48415000Y-97282000D02*
X48890000Y-96807000D01*
X40882000Y-97282000D02*
X48415000Y-97282000D01*
X39500000Y-95900000D02*
X40882000Y-97282000D01*
%TO.N,Net-(D12-K)*%
X127300000Y-93100000D02*
X124500000Y-95900000D01*
X141500000Y-93100000D02*
X127300000Y-93100000D01*
%TO.N,Net-(D13-K)*%
X158500000Y-93100000D02*
X144300000Y-93100000D01*
X144300000Y-93100000D02*
X141500000Y-95900000D01*
%TO.N,/Vled*%
X40386000Y-90805000D02*
X40767000Y-90424000D01*
X45990000Y-95907000D02*
X45990000Y-93657000D01*
X27853000Y-92440000D02*
X28979500Y-91313500D01*
X46990000Y-91440000D02*
X46990000Y-92657000D01*
X45974000Y-90424000D02*
X46990000Y-91440000D01*
X49604000Y-90043000D02*
X66040000Y-90043000D01*
X45990000Y-93657000D02*
X46990000Y-92657000D01*
X66040000Y-90043000D02*
X68580000Y-92583000D01*
X168505500Y-89916000D02*
X171045500Y-92456000D01*
X40767000Y-90424000D02*
X45974000Y-90424000D01*
X119864500Y-92583000D02*
X122531500Y-89916000D01*
X68580000Y-92583000D02*
X71247000Y-89916000D01*
X71247000Y-89916000D02*
X117475000Y-89916000D01*
X117475000Y-89916000D02*
X119864500Y-92305500D01*
X119864500Y-92305500D02*
X119864500Y-92583000D01*
X28979500Y-91313500D02*
X28979500Y-90424000D01*
X46990000Y-92657000D02*
X49604000Y-90043000D01*
X171045500Y-92456000D02*
X173593383Y-89908117D01*
X173593383Y-89908117D02*
X218283941Y-89910441D01*
X122531500Y-89916000D02*
X168505500Y-89916000D01*
X218283941Y-89910441D02*
X221337500Y-92964000D01*
%TO.N,Net-(R2-Pad2)*%
X47090000Y-96807000D02*
X44356000Y-96807000D01*
X44069000Y-93702500D02*
X43180000Y-92813500D01*
X47990000Y-95907000D02*
X47090000Y-96807000D01*
X44069000Y-96520000D02*
X44069000Y-93702500D01*
X44356000Y-96807000D02*
X44069000Y-96520000D01*
%TO.N,Net-(U1-VO)*%
X37271500Y-94638500D02*
X35828000Y-93195000D01*
X43180000Y-94638500D02*
X37271500Y-94638500D01*
%TO.N,Net-(D6-K)*%
X29767000Y-92503817D02*
X29767000Y-90884140D01*
X28930817Y-93340000D02*
X29767000Y-92503817D01*
X25852000Y-92398000D02*
X25852000Y-92416817D01*
X29767000Y-90884140D02*
X30608140Y-90043000D01*
X39497000Y-93097000D02*
X39500000Y-93100000D01*
X23675000Y-94725000D02*
X23675000Y-93702817D01*
X22500000Y-95900000D02*
X23675000Y-94725000D01*
X23675000Y-93702817D02*
X24979817Y-92398000D01*
X39497000Y-91313000D02*
X39497000Y-93097000D01*
X24979817Y-92398000D02*
X25852000Y-92398000D01*
X25852000Y-92416817D02*
X26775183Y-93340000D01*
X38227000Y-90043000D02*
X39497000Y-91313000D01*
X26775183Y-93340000D02*
X28930817Y-93340000D01*
X30608140Y-90043000D02*
X38227000Y-90043000D01*
%TO.N,Net-(D6-A)*%
X22500000Y-93100000D02*
X22500000Y-92096000D01*
X22500000Y-92096000D02*
X22479000Y-92075000D01*
X23006818Y-91547182D02*
X25507182Y-91547182D01*
X22479000Y-92075000D02*
X23006818Y-91547182D01*
X26630363Y-90424000D02*
X27154500Y-90424000D01*
X25507182Y-91547182D02*
X26630363Y-90424000D01*
%TO.N,Net-(D10-K)*%
X92136000Y-97536000D02*
X90500000Y-95900000D01*
X103064000Y-97536000D02*
X92136000Y-97536000D01*
X107500000Y-93100000D02*
X103064000Y-97536000D01*
%TO.N,Net-(D12-A)*%
X122206500Y-93100000D02*
X121689500Y-92583000D01*
X124500000Y-93100000D02*
X122206500Y-93100000D01*
%TO.N,Net-(D15-K)*%
X192500000Y-93100000D02*
X178300000Y-93100000D01*
X178300000Y-93100000D02*
X175500000Y-95900000D01*
%TO.N,Net-(D15-A)*%
X173514500Y-93100000D02*
X172870500Y-92456000D01*
X175500000Y-93100000D02*
X173514500Y-93100000D01*
%TO.N,Net-(D16-K)*%
X195300000Y-93100000D02*
X192500000Y-95900000D01*
X209500000Y-93100000D02*
X195300000Y-93100000D01*
%TO.N,Net-(D18-K)*%
X226500000Y-95900000D02*
X240700000Y-95900000D01*
X240700000Y-95900000D02*
X243500000Y-93100000D01*
%TO.N,Net-(D18-A)*%
X226364000Y-92964000D02*
X226500000Y-93100000D01*
X223162500Y-92964000D02*
X226364000Y-92964000D01*
%TO.N,Net-(D19-K)*%
X243500000Y-95900000D02*
X257700000Y-95900000D01*
X257700000Y-95900000D02*
X260500000Y-93100000D01*
%TD*%
%TA.AperFunction,Conductor*%
%TO.N,GND*%
G36*
X263024809Y-89813266D02*
G01*
X263091848Y-89832954D01*
X263137600Y-89885760D01*
X263147540Y-89954919D01*
X263118512Y-90018474D01*
X263107030Y-90030082D01*
X263009516Y-90116470D01*
X262919781Y-90246475D01*
X262919780Y-90246476D01*
X262863762Y-90394181D01*
X262844722Y-90550999D01*
X262844722Y-90551000D01*
X262863762Y-90707818D01*
X262906071Y-90819376D01*
X262919780Y-90855523D01*
X263009517Y-90985530D01*
X263127760Y-91090283D01*
X263127762Y-91090284D01*
X263267634Y-91163696D01*
X263421014Y-91201500D01*
X263421015Y-91201500D01*
X263578985Y-91201500D01*
X263732365Y-91163696D01*
X263759415Y-91149499D01*
X263872240Y-91090283D01*
X263990483Y-90985530D01*
X264003231Y-90967060D01*
X264057515Y-90923069D01*
X264105282Y-90913500D01*
X264492952Y-90913500D01*
X264559991Y-90933185D01*
X264605746Y-90985989D01*
X264612028Y-91002905D01*
X264653830Y-91146786D01*
X264653832Y-91146793D01*
X264735049Y-91284124D01*
X264735055Y-91284132D01*
X264847867Y-91396944D01*
X264847871Y-91396947D01*
X264847873Y-91396949D01*
X264903760Y-91430000D01*
X264979969Y-91475070D01*
X264985208Y-91478168D01*
X265103379Y-91512500D01*
X265130230Y-91520301D01*
X265138426Y-91522682D01*
X265158885Y-91524292D01*
X265174227Y-91525500D01*
X265174230Y-91525500D01*
X266825773Y-91525500D01*
X266839196Y-91524443D01*
X266861574Y-91522682D01*
X267014792Y-91478168D01*
X267014799Y-91478163D01*
X267021950Y-91475070D01*
X267022768Y-91476961D01*
X267080086Y-91462411D01*
X267146351Y-91484561D01*
X267190122Y-91539021D01*
X267199500Y-91586326D01*
X267199500Y-97439673D01*
X267179815Y-97506712D01*
X267127011Y-97552467D01*
X267057853Y-97562411D01*
X267022383Y-97549927D01*
X267021950Y-97550930D01*
X267014787Y-97547830D01*
X266861580Y-97503319D01*
X266861569Y-97503317D01*
X266825773Y-97500500D01*
X266825770Y-97500500D01*
X265174230Y-97500500D01*
X265174227Y-97500500D01*
X265138430Y-97503317D01*
X265138419Y-97503319D01*
X264985212Y-97547830D01*
X264985206Y-97547832D01*
X264847875Y-97629049D01*
X264847867Y-97629055D01*
X264735055Y-97741867D01*
X264735049Y-97741875D01*
X264653832Y-97879206D01*
X264653830Y-97879213D01*
X264612028Y-98023095D01*
X264574422Y-98081981D01*
X264510949Y-98111187D01*
X264492952Y-98112500D01*
X264011045Y-98112500D01*
X263953419Y-98098296D01*
X263875419Y-98057358D01*
X263875418Y-98057357D01*
X263875417Y-98057357D01*
X263722040Y-98019554D01*
X263722039Y-98019554D01*
X263564069Y-98019554D01*
X263564068Y-98019554D01*
X263410688Y-98057357D01*
X263270816Y-98130769D01*
X263234747Y-98162723D01*
X263155968Y-98232515D01*
X263152570Y-98235525D01*
X263062835Y-98365529D01*
X263062834Y-98365530D01*
X263006816Y-98513235D01*
X262987776Y-98670053D01*
X262987776Y-98670054D01*
X263006816Y-98826872D01*
X263062834Y-98974577D01*
X263062837Y-98974583D01*
X263092526Y-99017595D01*
X263114409Y-99083949D01*
X263096943Y-99151601D01*
X263045675Y-99199070D01*
X262990463Y-99212034D01*
X141566855Y-99199506D01*
X141566785Y-99199500D01*
X141556173Y-99199500D01*
X141501263Y-99199500D01*
X141501257Y-99199499D01*
X141469358Y-99199496D01*
X141469280Y-99199500D01*
X24819543Y-99199500D01*
X24752504Y-99179815D01*
X24706749Y-99127011D01*
X24696805Y-99057853D01*
X24725830Y-98994297D01*
X24731862Y-98987819D01*
X25181863Y-98537818D01*
X25243186Y-98504333D01*
X25269544Y-98501499D01*
X25419950Y-98501499D01*
X25457854Y-98495977D01*
X25490509Y-98491220D01*
X25599347Y-98438012D01*
X25685012Y-98352347D01*
X25738220Y-98243509D01*
X25748500Y-98172949D01*
X25748499Y-97729052D01*
X25748473Y-97728875D01*
X25740832Y-97676424D01*
X25738220Y-97658491D01*
X25685012Y-97549653D01*
X25685010Y-97549651D01*
X25685010Y-97549650D01*
X25599348Y-97463988D01*
X25490511Y-97410780D01*
X25472869Y-97408210D01*
X25419949Y-97400500D01*
X25419943Y-97400500D01*
X25126049Y-97400500D01*
X25055493Y-97410779D01*
X24946650Y-97463989D01*
X24860988Y-97549651D01*
X24807780Y-97658488D01*
X24807061Y-97663424D01*
X24797500Y-97729051D01*
X24797500Y-97729056D01*
X24797500Y-97879456D01*
X24777815Y-97946495D01*
X24761181Y-97967137D01*
X24377176Y-98351141D01*
X24315853Y-98384626D01*
X24246161Y-98379642D01*
X24190228Y-98337770D01*
X24165811Y-98272306D01*
X24173313Y-98220129D01*
X24202412Y-98142114D01*
X24208147Y-98088771D01*
X24208499Y-98085501D01*
X24208498Y-98085494D01*
X24208500Y-98085485D01*
X24208499Y-97494516D01*
X24206751Y-97478253D01*
X24219158Y-97409495D01*
X24242357Y-97377323D01*
X25181863Y-96437817D01*
X25243186Y-96404333D01*
X25269544Y-96401499D01*
X25276455Y-96401499D01*
X25343494Y-96421184D01*
X25364136Y-96437818D01*
X26139362Y-97213044D01*
X26155489Y-97232902D01*
X26160563Y-97240669D01*
X26160565Y-97240671D01*
X26186505Y-97260860D01*
X26192268Y-97265950D01*
X26194693Y-97268375D01*
X26194695Y-97268377D01*
X26212437Y-97281044D01*
X26252874Y-97312517D01*
X26252878Y-97312518D01*
X26259314Y-97316000D01*
X26259339Y-97316013D01*
X26259371Y-97316030D01*
X26265930Y-97319237D01*
X26265933Y-97319239D01*
X26315037Y-97333858D01*
X26363512Y-97350500D01*
X26363514Y-97350500D01*
X26370754Y-97351708D01*
X26378040Y-97352616D01*
X26378042Y-97352615D01*
X26378046Y-97352617D01*
X26381095Y-97352490D01*
X26385161Y-97353503D01*
X26388243Y-97353888D01*
X26388196Y-97354260D01*
X26448889Y-97369383D01*
X26496791Y-97420247D01*
X26505699Y-97450268D01*
X26507124Y-97449932D01*
X26508907Y-97457479D01*
X26559202Y-97592328D01*
X26559206Y-97592335D01*
X26645452Y-97707544D01*
X26645455Y-97707547D01*
X26760664Y-97793793D01*
X26760671Y-97793797D01*
X26895517Y-97844091D01*
X26895516Y-97844091D01*
X26902444Y-97844835D01*
X26955127Y-97850500D01*
X28723455Y-97850499D01*
X28790494Y-97870184D01*
X28811136Y-97886818D01*
X29057362Y-98133044D01*
X29073489Y-98152902D01*
X29078563Y-98160669D01*
X29078565Y-98160671D01*
X29104505Y-98180860D01*
X29110268Y-98185950D01*
X29112121Y-98187803D01*
X29112695Y-98188377D01*
X29126969Y-98198568D01*
X29130437Y-98201044D01*
X29170874Y-98232517D01*
X29170878Y-98232518D01*
X29177314Y-98236000D01*
X29177339Y-98236013D01*
X29177371Y-98236030D01*
X29183930Y-98239237D01*
X29183933Y-98239239D01*
X29233037Y-98253858D01*
X29281512Y-98270500D01*
X29281514Y-98270500D01*
X29288754Y-98271708D01*
X29296046Y-98272617D01*
X29347231Y-98270500D01*
X40333789Y-98270500D01*
X40359234Y-98273138D01*
X40368315Y-98275043D01*
X40384005Y-98273087D01*
X40400939Y-98270977D01*
X40408615Y-98270500D01*
X40412035Y-98270500D01*
X40412040Y-98270500D01*
X40415608Y-98269904D01*
X40433539Y-98266913D01*
X40460958Y-98263494D01*
X40484393Y-98260573D01*
X40484402Y-98260568D01*
X40491451Y-98258470D01*
X40498377Y-98256092D01*
X40498381Y-98256092D01*
X40543444Y-98231704D01*
X40589484Y-98209198D01*
X40589487Y-98209194D01*
X40595453Y-98204935D01*
X40601254Y-98200419D01*
X40601258Y-98200418D01*
X40635958Y-98162723D01*
X40729861Y-98068819D01*
X40791185Y-98035334D01*
X40817543Y-98032500D01*
X48714217Y-98032500D01*
X48739662Y-98035138D01*
X48748743Y-98037043D01*
X48764433Y-98035087D01*
X48781367Y-98032977D01*
X48789043Y-98032500D01*
X48792463Y-98032500D01*
X48792468Y-98032500D01*
X48796036Y-98031904D01*
X48813967Y-98028913D01*
X48841386Y-98025494D01*
X48864821Y-98022573D01*
X48864830Y-98022568D01*
X48871879Y-98020470D01*
X48878805Y-98018092D01*
X48878809Y-98018092D01*
X48923872Y-97993704D01*
X48969912Y-97971198D01*
X48969915Y-97971194D01*
X48975881Y-97966935D01*
X48981682Y-97962419D01*
X48981686Y-97962418D01*
X49016385Y-97924724D01*
X49474938Y-97466169D01*
X49536259Y-97432686D01*
X49577484Y-97433253D01*
X49577781Y-97430810D01*
X49585227Y-97431714D01*
X49585229Y-97431714D01*
X49743199Y-97431714D01*
X49896579Y-97393910D01*
X49941573Y-97370295D01*
X50036454Y-97320497D01*
X50154697Y-97215744D01*
X50244434Y-97085737D01*
X50300451Y-96938032D01*
X50319492Y-96781214D01*
X50318836Y-96775815D01*
X50300451Y-96624396D01*
X50299312Y-96621393D01*
X50260282Y-96518480D01*
X50254916Y-96448821D01*
X50268001Y-96424539D01*
X50233896Y-96422100D01*
X50177962Y-96380229D01*
X50175180Y-96376359D01*
X50164746Y-96361243D01*
X50154697Y-96346684D01*
X50036454Y-96241931D01*
X50025329Y-96236092D01*
X49971536Y-96207858D01*
X49921324Y-96159272D01*
X49905350Y-96091253D01*
X49928686Y-96025396D01*
X49941476Y-96010387D01*
X50145821Y-95806042D01*
X50207142Y-95772559D01*
X50276834Y-95777543D01*
X50332767Y-95819415D01*
X50357184Y-95884879D01*
X50357500Y-95893724D01*
X50357500Y-96123869D01*
X50357501Y-96123876D01*
X50363908Y-96183483D01*
X50393412Y-96262586D01*
X50398396Y-96332278D01*
X50385503Y-96355888D01*
X50418919Y-96358094D01*
X50475082Y-96399657D01*
X50475491Y-96400200D01*
X50478585Y-96404333D01*
X50496075Y-96427697D01*
X50500455Y-96433547D01*
X50615664Y-96519793D01*
X50615671Y-96519797D01*
X50750517Y-96570091D01*
X50750516Y-96570091D01*
X50754693Y-96570540D01*
X50810127Y-96576500D01*
X51805872Y-96576499D01*
X51865483Y-96570091D01*
X52000331Y-96519796D01*
X52115546Y-96433546D01*
X52201796Y-96318331D01*
X52252091Y-96183483D01*
X52258500Y-96123873D01*
X52258500Y-96096500D01*
X52278185Y-96029461D01*
X52330989Y-95983706D01*
X52382500Y-95972500D01*
X53081856Y-95972500D01*
X53148895Y-95992185D01*
X53174363Y-96016440D01*
X53174722Y-96016082D01*
X53267651Y-96109011D01*
X53376488Y-96162219D01*
X53376489Y-96162219D01*
X53376491Y-96162220D01*
X53447051Y-96172500D01*
X53740948Y-96172499D01*
X53740950Y-96172499D01*
X53769172Y-96168387D01*
X53811509Y-96162220D01*
X53836505Y-96150000D01*
X55125001Y-96150000D01*
X55125001Y-96324986D01*
X55135494Y-96427697D01*
X55190641Y-96594119D01*
X55190643Y-96594124D01*
X55282684Y-96743345D01*
X55406654Y-96867315D01*
X55555875Y-96959356D01*
X55555880Y-96959358D01*
X55722302Y-97014505D01*
X55722309Y-97014506D01*
X55825019Y-97024999D01*
X56249999Y-97024999D01*
X56250000Y-97024998D01*
X56250000Y-96150000D01*
X56750000Y-96150000D01*
X56750000Y-97024999D01*
X57174972Y-97024999D01*
X57174986Y-97024998D01*
X57277697Y-97014505D01*
X57444119Y-96959358D01*
X57444124Y-96959356D01*
X57593345Y-96867315D01*
X57717315Y-96743345D01*
X57809356Y-96594124D01*
X57809358Y-96594119D01*
X57864505Y-96427697D01*
X57864506Y-96427690D01*
X57874999Y-96324986D01*
X57875000Y-96324973D01*
X57875000Y-96150000D01*
X56750000Y-96150000D01*
X56250000Y-96150000D01*
X55125001Y-96150000D01*
X53836505Y-96150000D01*
X53920347Y-96109012D01*
X54006012Y-96023347D01*
X54059220Y-95914509D01*
X54069500Y-95843949D01*
X54069499Y-95693543D01*
X54089183Y-95626504D01*
X54105809Y-95605871D01*
X54349864Y-95361816D01*
X54411186Y-95328334D01*
X54437544Y-95325500D01*
X55002962Y-95325500D01*
X55070001Y-95345185D01*
X55115756Y-95397989D01*
X55126320Y-95462105D01*
X55125000Y-95475019D01*
X55125000Y-95650000D01*
X57874999Y-95650000D01*
X57874999Y-95475028D01*
X57874998Y-95475018D01*
X57873679Y-95462104D01*
X57886448Y-95393411D01*
X57934327Y-95342526D01*
X57997037Y-95325500D01*
X61915826Y-95325500D01*
X61982865Y-95345185D01*
X62028620Y-95397989D01*
X62038564Y-95467147D01*
X62029630Y-95498741D01*
X62026831Y-95505209D01*
X61982319Y-95658419D01*
X61982317Y-95658430D01*
X61979500Y-95694227D01*
X61979500Y-96583773D01*
X61982317Y-96619569D01*
X61982319Y-96619580D01*
X62026830Y-96772787D01*
X62026832Y-96772793D01*
X62108049Y-96910124D01*
X62108055Y-96910132D01*
X62220867Y-97022944D01*
X62220871Y-97022947D01*
X62220873Y-97022949D01*
X62229720Y-97028181D01*
X62327042Y-97085737D01*
X62358208Y-97104168D01*
X62511426Y-97148682D01*
X62531885Y-97150292D01*
X62547227Y-97151500D01*
X62547230Y-97151500D01*
X64198773Y-97151500D01*
X64212196Y-97150443D01*
X64234574Y-97148682D01*
X64387792Y-97104168D01*
X64525127Y-97022949D01*
X64637949Y-96910127D01*
X64719168Y-96772792D01*
X64721459Y-96764903D01*
X64759068Y-96706018D01*
X64822541Y-96676813D01*
X64840536Y-96675500D01*
X76794789Y-96675500D01*
X76820234Y-96678138D01*
X76829315Y-96680043D01*
X76845608Y-96678012D01*
X76861939Y-96675977D01*
X76869615Y-96675500D01*
X76873035Y-96675500D01*
X76873040Y-96675500D01*
X76876608Y-96674904D01*
X76894539Y-96671913D01*
X76921958Y-96668494D01*
X76945393Y-96665573D01*
X76945402Y-96665568D01*
X76952451Y-96663470D01*
X76959377Y-96661092D01*
X76959381Y-96661092D01*
X77004444Y-96636704D01*
X77050484Y-96614198D01*
X77050487Y-96614194D01*
X77056453Y-96609935D01*
X77062254Y-96605419D01*
X77062258Y-96605418D01*
X77096957Y-96567724D01*
X77347862Y-96316817D01*
X77409185Y-96283333D01*
X77435543Y-96280499D01*
X78411871Y-96280499D01*
X78411872Y-96280499D01*
X78471483Y-96274091D01*
X78606331Y-96223796D01*
X78721546Y-96137546D01*
X78807796Y-96022331D01*
X78851182Y-95906007D01*
X78858582Y-95886167D01*
X78900453Y-95830233D01*
X78965917Y-95805816D01*
X78974764Y-95805500D01*
X79003236Y-95805500D01*
X79070275Y-95825185D01*
X79116030Y-95877989D01*
X79119418Y-95886167D01*
X79170202Y-96022328D01*
X79170206Y-96022335D01*
X79256452Y-96137544D01*
X79256455Y-96137547D01*
X79371664Y-96223793D01*
X79371671Y-96223797D01*
X79506517Y-96274091D01*
X79506516Y-96274091D01*
X79513444Y-96274835D01*
X79566127Y-96280500D01*
X80961872Y-96280499D01*
X81021483Y-96274091D01*
X81156331Y-96223796D01*
X81271546Y-96137546D01*
X81357796Y-96022331D01*
X81397817Y-95915027D01*
X81439689Y-95859093D01*
X81505153Y-95834676D01*
X81573426Y-95849527D01*
X81622832Y-95898932D01*
X81630182Y-95915027D01*
X81670202Y-96022328D01*
X81670206Y-96022335D01*
X81756452Y-96137544D01*
X81756455Y-96137547D01*
X81871664Y-96223793D01*
X81871671Y-96223797D01*
X82006517Y-96274091D01*
X82006516Y-96274091D01*
X82013444Y-96274835D01*
X82066127Y-96280500D01*
X83461872Y-96280499D01*
X83521483Y-96274091D01*
X83656331Y-96223796D01*
X83771546Y-96137546D01*
X83857796Y-96022331D01*
X83897817Y-95915027D01*
X83939689Y-95859093D01*
X84005153Y-95834676D01*
X84073426Y-95849527D01*
X84122832Y-95898932D01*
X84130182Y-95915027D01*
X84170202Y-96022328D01*
X84170206Y-96022335D01*
X84256452Y-96137544D01*
X84256455Y-96137547D01*
X84371664Y-96223793D01*
X84371671Y-96223797D01*
X84506517Y-96274091D01*
X84506516Y-96274091D01*
X84513444Y-96274835D01*
X84566127Y-96280500D01*
X85961872Y-96280499D01*
X86021483Y-96274091D01*
X86156331Y-96223796D01*
X86271546Y-96137546D01*
X86357796Y-96022331D01*
X86408091Y-95887483D01*
X86414500Y-95827873D01*
X86414499Y-95449499D01*
X86434183Y-95382461D01*
X86486987Y-95336706D01*
X86538499Y-95325500D01*
X89252756Y-95325500D01*
X89319795Y-95345185D01*
X89365550Y-95397989D01*
X89376045Y-95462752D01*
X89374500Y-95477127D01*
X89374500Y-95477133D01*
X89374500Y-95477134D01*
X89374500Y-96322870D01*
X89374501Y-96322876D01*
X89380908Y-96382483D01*
X89431202Y-96517328D01*
X89431206Y-96517335D01*
X89517452Y-96632544D01*
X89517455Y-96632547D01*
X89632664Y-96718793D01*
X89632671Y-96718797D01*
X89767517Y-96769091D01*
X89767516Y-96769091D01*
X89774444Y-96769835D01*
X89827127Y-96775500D01*
X90828455Y-96775499D01*
X90895494Y-96795183D01*
X90916136Y-96811818D01*
X91853362Y-97749044D01*
X91869489Y-97768902D01*
X91874563Y-97776669D01*
X91874565Y-97776671D01*
X91900505Y-97796860D01*
X91906268Y-97801950D01*
X91908693Y-97804375D01*
X91908695Y-97804377D01*
X91925560Y-97816418D01*
X91926437Y-97817044D01*
X91966874Y-97848517D01*
X91966878Y-97848518D01*
X91973314Y-97852000D01*
X91973339Y-97852013D01*
X91973371Y-97852030D01*
X91979930Y-97855237D01*
X91979933Y-97855239D01*
X92029037Y-97869858D01*
X92077512Y-97886500D01*
X92077514Y-97886500D01*
X92084754Y-97887708D01*
X92092046Y-97888617D01*
X92143231Y-97886500D01*
X103014789Y-97886500D01*
X103040234Y-97889138D01*
X103049315Y-97891043D01*
X103065005Y-97889087D01*
X103081939Y-97886977D01*
X103089615Y-97886500D01*
X103093035Y-97886500D01*
X103093040Y-97886500D01*
X103096608Y-97885904D01*
X103114539Y-97882913D01*
X103144270Y-97879206D01*
X103165393Y-97876573D01*
X103165402Y-97876568D01*
X103172451Y-97874470D01*
X103179377Y-97872092D01*
X103179381Y-97872092D01*
X103224444Y-97847704D01*
X103270484Y-97825198D01*
X103270487Y-97825194D01*
X103276453Y-97820935D01*
X103282254Y-97816419D01*
X103282258Y-97816418D01*
X103316957Y-97778724D01*
X104945680Y-96150000D01*
X106125001Y-96150000D01*
X106125001Y-96324986D01*
X106135494Y-96427697D01*
X106190641Y-96594119D01*
X106190643Y-96594124D01*
X106282684Y-96743345D01*
X106406654Y-96867315D01*
X106555875Y-96959356D01*
X106555880Y-96959358D01*
X106722302Y-97014505D01*
X106722309Y-97014506D01*
X106825019Y-97024999D01*
X107249999Y-97024999D01*
X107250000Y-97024998D01*
X107250000Y-96150000D01*
X107750000Y-96150000D01*
X107750000Y-97024999D01*
X108174972Y-97024999D01*
X108174986Y-97024998D01*
X108277697Y-97014505D01*
X108444119Y-96959358D01*
X108444124Y-96959356D01*
X108593345Y-96867315D01*
X108717315Y-96743345D01*
X108809356Y-96594124D01*
X108809358Y-96594119D01*
X108864505Y-96427697D01*
X108864506Y-96427690D01*
X108874999Y-96324986D01*
X108875000Y-96324973D01*
X108875000Y-96322870D01*
X123374500Y-96322870D01*
X123374501Y-96322876D01*
X123380908Y-96382483D01*
X123431202Y-96517328D01*
X123431206Y-96517335D01*
X123517452Y-96632544D01*
X123517455Y-96632547D01*
X123632664Y-96718793D01*
X123632671Y-96718797D01*
X123767517Y-96769091D01*
X123767516Y-96769091D01*
X123774444Y-96769835D01*
X123827127Y-96775500D01*
X125172872Y-96775499D01*
X125232483Y-96769091D01*
X125367331Y-96718796D01*
X125482546Y-96632546D01*
X125568796Y-96517331D01*
X125619091Y-96382483D01*
X125625500Y-96322873D01*
X125625500Y-96322870D01*
X140374500Y-96322870D01*
X140374501Y-96322876D01*
X140380908Y-96382483D01*
X140431202Y-96517328D01*
X140431206Y-96517335D01*
X140517452Y-96632544D01*
X140517455Y-96632547D01*
X140632664Y-96718793D01*
X140632671Y-96718797D01*
X140767517Y-96769091D01*
X140767516Y-96769091D01*
X140774444Y-96769835D01*
X140827127Y-96775500D01*
X142172872Y-96775499D01*
X142232483Y-96769091D01*
X142367331Y-96718796D01*
X142482546Y-96632546D01*
X142568796Y-96517331D01*
X142619091Y-96382483D01*
X142625500Y-96322873D01*
X142625500Y-96150000D01*
X157125001Y-96150000D01*
X157125001Y-96324986D01*
X157135494Y-96427697D01*
X157190641Y-96594119D01*
X157190643Y-96594124D01*
X157282684Y-96743345D01*
X157406654Y-96867315D01*
X157555875Y-96959356D01*
X157555880Y-96959358D01*
X157722302Y-97014505D01*
X157722309Y-97014506D01*
X157825019Y-97024999D01*
X158249999Y-97024999D01*
X158250000Y-97024998D01*
X158250000Y-96150000D01*
X158750000Y-96150000D01*
X158750000Y-97024999D01*
X159174972Y-97024999D01*
X159174986Y-97024998D01*
X159277697Y-97014505D01*
X159444119Y-96959358D01*
X159444124Y-96959356D01*
X159593345Y-96867315D01*
X159717315Y-96743345D01*
X159809356Y-96594124D01*
X159809358Y-96594119D01*
X159864505Y-96427697D01*
X159864506Y-96427690D01*
X159874999Y-96324986D01*
X159875000Y-96324973D01*
X159875000Y-96322870D01*
X174374500Y-96322870D01*
X174374501Y-96322876D01*
X174380908Y-96382483D01*
X174431202Y-96517328D01*
X174431206Y-96517335D01*
X174517452Y-96632544D01*
X174517455Y-96632547D01*
X174632664Y-96718793D01*
X174632671Y-96718797D01*
X174767517Y-96769091D01*
X174767516Y-96769091D01*
X174774444Y-96769835D01*
X174827127Y-96775500D01*
X176172872Y-96775499D01*
X176232483Y-96769091D01*
X176367331Y-96718796D01*
X176482546Y-96632546D01*
X176568796Y-96517331D01*
X176619091Y-96382483D01*
X176625500Y-96322873D01*
X176625500Y-96322870D01*
X191374500Y-96322870D01*
X191374501Y-96322876D01*
X191380908Y-96382483D01*
X191431202Y-96517328D01*
X191431206Y-96517335D01*
X191517452Y-96632544D01*
X191517455Y-96632547D01*
X191632664Y-96718793D01*
X191632671Y-96718797D01*
X191767517Y-96769091D01*
X191767516Y-96769091D01*
X191774444Y-96769835D01*
X191827127Y-96775500D01*
X193172872Y-96775499D01*
X193232483Y-96769091D01*
X193367331Y-96718796D01*
X193482546Y-96632546D01*
X193568796Y-96517331D01*
X193619091Y-96382483D01*
X193625500Y-96322873D01*
X193625500Y-96150000D01*
X208125001Y-96150000D01*
X208125001Y-96324986D01*
X208135494Y-96427697D01*
X208190641Y-96594119D01*
X208190643Y-96594124D01*
X208282684Y-96743345D01*
X208406654Y-96867315D01*
X208555875Y-96959356D01*
X208555880Y-96959358D01*
X208722302Y-97014505D01*
X208722309Y-97014506D01*
X208825019Y-97024999D01*
X209249999Y-97024999D01*
X209250000Y-97024998D01*
X209250000Y-96150000D01*
X209750000Y-96150000D01*
X209750000Y-97024999D01*
X210174972Y-97024999D01*
X210174986Y-97024998D01*
X210277697Y-97014505D01*
X210444119Y-96959358D01*
X210444124Y-96959356D01*
X210593345Y-96867315D01*
X210717315Y-96743345D01*
X210809356Y-96594124D01*
X210809358Y-96594119D01*
X210864505Y-96427697D01*
X210864506Y-96427690D01*
X210874999Y-96324986D01*
X210875000Y-96324973D01*
X210875000Y-96322870D01*
X225374500Y-96322870D01*
X225374501Y-96322876D01*
X225380908Y-96382483D01*
X225431202Y-96517328D01*
X225431206Y-96517335D01*
X225517452Y-96632544D01*
X225517455Y-96632547D01*
X225632664Y-96718793D01*
X225632671Y-96718797D01*
X225767517Y-96769091D01*
X225767516Y-96769091D01*
X225774444Y-96769835D01*
X225827127Y-96775500D01*
X227172872Y-96775499D01*
X227232483Y-96769091D01*
X227367331Y-96718796D01*
X227482546Y-96632546D01*
X227568796Y-96517331D01*
X227619091Y-96382483D01*
X227619612Y-96377637D01*
X227621375Y-96361243D01*
X227637270Y-96322870D01*
X242374500Y-96322870D01*
X242374501Y-96322876D01*
X242380908Y-96382483D01*
X242431202Y-96517328D01*
X242431206Y-96517335D01*
X242517452Y-96632544D01*
X242517455Y-96632547D01*
X242632664Y-96718793D01*
X242632671Y-96718797D01*
X242767517Y-96769091D01*
X242767516Y-96769091D01*
X242774444Y-96769835D01*
X242827127Y-96775500D01*
X244172872Y-96775499D01*
X244232483Y-96769091D01*
X244367331Y-96718796D01*
X244482546Y-96632546D01*
X244568796Y-96517331D01*
X244619091Y-96382483D01*
X244619612Y-96377637D01*
X244621375Y-96361243D01*
X244648114Y-96296692D01*
X244705507Y-96256845D01*
X244744664Y-96250500D01*
X257650789Y-96250500D01*
X257676234Y-96253138D01*
X257685315Y-96255043D01*
X257701005Y-96253087D01*
X257717939Y-96250977D01*
X257725615Y-96250500D01*
X257729035Y-96250500D01*
X257729040Y-96250500D01*
X257732608Y-96249904D01*
X257750539Y-96246913D01*
X257777958Y-96243494D01*
X257801393Y-96240573D01*
X257801402Y-96240568D01*
X257808451Y-96238470D01*
X257815377Y-96236092D01*
X257815381Y-96236092D01*
X257860444Y-96211704D01*
X257906484Y-96189198D01*
X257906487Y-96189194D01*
X257912453Y-96184935D01*
X257918254Y-96180419D01*
X257918258Y-96180418D01*
X257946259Y-96150000D01*
X259125001Y-96150000D01*
X259125001Y-96324986D01*
X259135494Y-96427697D01*
X259190641Y-96594119D01*
X259190643Y-96594124D01*
X259282684Y-96743345D01*
X259406654Y-96867315D01*
X259555875Y-96959356D01*
X259555880Y-96959358D01*
X259722302Y-97014505D01*
X259722309Y-97014506D01*
X259825019Y-97024999D01*
X260249998Y-97024999D01*
X260249999Y-97024998D01*
X260250000Y-96150000D01*
X260750000Y-96150000D01*
X260750000Y-97024999D01*
X261174972Y-97024999D01*
X261174986Y-97024998D01*
X261277697Y-97014505D01*
X261444119Y-96959358D01*
X261444124Y-96959356D01*
X261593345Y-96867315D01*
X261717315Y-96743345D01*
X261809356Y-96594124D01*
X261809358Y-96594119D01*
X261864505Y-96427697D01*
X261864506Y-96427690D01*
X261874999Y-96324986D01*
X261875000Y-96324973D01*
X261875000Y-96150000D01*
X260750000Y-96150000D01*
X260250000Y-96150000D01*
X259125001Y-96150000D01*
X257946259Y-96150000D01*
X257952957Y-96142724D01*
X258969778Y-95125902D01*
X259031099Y-95092419D01*
X259100791Y-95097403D01*
X259156724Y-95139275D01*
X259181141Y-95204739D01*
X259175163Y-95252588D01*
X259135495Y-95372298D01*
X259135493Y-95372309D01*
X259125000Y-95475013D01*
X259125000Y-95650000D01*
X260249999Y-95650000D01*
X260249999Y-94775000D01*
X260750000Y-94775000D01*
X260750000Y-95650000D01*
X261874999Y-95650000D01*
X261874999Y-95475028D01*
X261874998Y-95475013D01*
X261864505Y-95372302D01*
X261809358Y-95205880D01*
X261809356Y-95205875D01*
X261717315Y-95056654D01*
X261593345Y-94932684D01*
X261444124Y-94840643D01*
X261444119Y-94840641D01*
X261277697Y-94785494D01*
X261277690Y-94785493D01*
X261174986Y-94775000D01*
X260750000Y-94775000D01*
X260249999Y-94775000D01*
X259825028Y-94775000D01*
X259825012Y-94775001D01*
X259722302Y-94785494D01*
X259602589Y-94825163D01*
X259532760Y-94827565D01*
X259472718Y-94791833D01*
X259441526Y-94729312D01*
X259449087Y-94659853D01*
X259475901Y-94619779D01*
X260083863Y-94011818D01*
X260145186Y-93978333D01*
X260171544Y-93975499D01*
X261172871Y-93975499D01*
X261172872Y-93975499D01*
X261232483Y-93969091D01*
X261367331Y-93918796D01*
X261482546Y-93832546D01*
X261568796Y-93717331D01*
X261619091Y-93582483D01*
X261625500Y-93522873D01*
X261625499Y-92677128D01*
X261619091Y-92617517D01*
X261616579Y-92610783D01*
X261568797Y-92482671D01*
X261568793Y-92482664D01*
X261482547Y-92367455D01*
X261482544Y-92367452D01*
X261367335Y-92281206D01*
X261367328Y-92281202D01*
X261232482Y-92230908D01*
X261232483Y-92230908D01*
X261172883Y-92224501D01*
X261172881Y-92224500D01*
X261172873Y-92224500D01*
X261172864Y-92224500D01*
X259827129Y-92224500D01*
X259827123Y-92224501D01*
X259767516Y-92230908D01*
X259632671Y-92281202D01*
X259632664Y-92281206D01*
X259517455Y-92367452D01*
X259517452Y-92367455D01*
X259431206Y-92482664D01*
X259431202Y-92482671D01*
X259380908Y-92617517D01*
X259374512Y-92677011D01*
X259374501Y-92677123D01*
X259374500Y-92677135D01*
X259374500Y-93522870D01*
X259374501Y-93522876D01*
X259380908Y-93582481D01*
X259391344Y-93610461D01*
X259396327Y-93680153D01*
X259362842Y-93741474D01*
X257591137Y-95513181D01*
X257529814Y-95546666D01*
X257503456Y-95549500D01*
X244744664Y-95549500D01*
X244677625Y-95529815D01*
X244631870Y-95477011D01*
X244621374Y-95438754D01*
X244619837Y-95424458D01*
X244619091Y-95417517D01*
X244568796Y-95282669D01*
X244568795Y-95282668D01*
X244568793Y-95282664D01*
X244482547Y-95167455D01*
X244482544Y-95167452D01*
X244367335Y-95081206D01*
X244367328Y-95081202D01*
X244232482Y-95030908D01*
X244232483Y-95030908D01*
X244172883Y-95024501D01*
X244172881Y-95024500D01*
X244172873Y-95024500D01*
X244172864Y-95024500D01*
X242827129Y-95024500D01*
X242827123Y-95024501D01*
X242767516Y-95030908D01*
X242632671Y-95081202D01*
X242632664Y-95081206D01*
X242517455Y-95167452D01*
X242517452Y-95167455D01*
X242431206Y-95282664D01*
X242431202Y-95282671D01*
X242380908Y-95417517D01*
X242374657Y-95475666D01*
X242374501Y-95477123D01*
X242374500Y-95477135D01*
X242374500Y-96322870D01*
X227637270Y-96322870D01*
X227648114Y-96296692D01*
X227705507Y-96256845D01*
X227744664Y-96250500D01*
X240650789Y-96250500D01*
X240676234Y-96253138D01*
X240685315Y-96255043D01*
X240701005Y-96253087D01*
X240717939Y-96250977D01*
X240725615Y-96250500D01*
X240729035Y-96250500D01*
X240729040Y-96250500D01*
X240732608Y-96249904D01*
X240750539Y-96246913D01*
X240777958Y-96243494D01*
X240801393Y-96240573D01*
X240801402Y-96240568D01*
X240808451Y-96238470D01*
X240815377Y-96236092D01*
X240815381Y-96236092D01*
X240860444Y-96211704D01*
X240906484Y-96189198D01*
X240906487Y-96189194D01*
X240912453Y-96184935D01*
X240918254Y-96180419D01*
X240918258Y-96180418D01*
X240952957Y-96142724D01*
X243083863Y-94011818D01*
X243145186Y-93978333D01*
X243171544Y-93975499D01*
X244172871Y-93975499D01*
X244172872Y-93975499D01*
X244232483Y-93969091D01*
X244367331Y-93918796D01*
X244482546Y-93832546D01*
X244568796Y-93717331D01*
X244619091Y-93582483D01*
X244625500Y-93522873D01*
X244625499Y-92677128D01*
X244619091Y-92617517D01*
X244616579Y-92610783D01*
X244568797Y-92482671D01*
X244568793Y-92482664D01*
X244482547Y-92367455D01*
X244482544Y-92367452D01*
X244367335Y-92281206D01*
X244367328Y-92281202D01*
X244232482Y-92230908D01*
X244232483Y-92230908D01*
X244172883Y-92224501D01*
X244172881Y-92224500D01*
X244172873Y-92224500D01*
X244172864Y-92224500D01*
X242827129Y-92224500D01*
X242827123Y-92224501D01*
X242767516Y-92230908D01*
X242632671Y-92281202D01*
X242632664Y-92281206D01*
X242517455Y-92367452D01*
X242517452Y-92367455D01*
X242431206Y-92482664D01*
X242431202Y-92482671D01*
X242380908Y-92617517D01*
X242374512Y-92677011D01*
X242374501Y-92677123D01*
X242374500Y-92677135D01*
X242374500Y-93522870D01*
X242374501Y-93522876D01*
X242380908Y-93582481D01*
X242391344Y-93610461D01*
X242396327Y-93680153D01*
X242362842Y-93741474D01*
X240591137Y-95513181D01*
X240529814Y-95546666D01*
X240503456Y-95549500D01*
X227744664Y-95549500D01*
X227677625Y-95529815D01*
X227631870Y-95477011D01*
X227621374Y-95438754D01*
X227619837Y-95424458D01*
X227619091Y-95417517D01*
X227568796Y-95282669D01*
X227568795Y-95282668D01*
X227568793Y-95282664D01*
X227482547Y-95167455D01*
X227482544Y-95167452D01*
X227367335Y-95081206D01*
X227367328Y-95081202D01*
X227232482Y-95030908D01*
X227232483Y-95030908D01*
X227172883Y-95024501D01*
X227172881Y-95024500D01*
X227172873Y-95024500D01*
X227172864Y-95024500D01*
X225827129Y-95024500D01*
X225827123Y-95024501D01*
X225767516Y-95030908D01*
X225632671Y-95081202D01*
X225632664Y-95081206D01*
X225517455Y-95167452D01*
X225517452Y-95167455D01*
X225431206Y-95282664D01*
X225431202Y-95282671D01*
X225380908Y-95417517D01*
X225374657Y-95475666D01*
X225374501Y-95477123D01*
X225374500Y-95477135D01*
X225374500Y-96322870D01*
X210875000Y-96322870D01*
X210875000Y-96150000D01*
X209750000Y-96150000D01*
X209250000Y-96150000D01*
X208125001Y-96150000D01*
X193625500Y-96150000D01*
X193625499Y-95650000D01*
X208125000Y-95650000D01*
X209250000Y-95650000D01*
X209250000Y-94775000D01*
X209750000Y-94775000D01*
X209750000Y-95650000D01*
X210874999Y-95650000D01*
X210874999Y-95475028D01*
X210874998Y-95475013D01*
X210864505Y-95372302D01*
X210809358Y-95205880D01*
X210809356Y-95205875D01*
X210717315Y-95056654D01*
X210593345Y-94932684D01*
X210444124Y-94840643D01*
X210444119Y-94840641D01*
X210277697Y-94785494D01*
X210277690Y-94785493D01*
X210174986Y-94775000D01*
X209750000Y-94775000D01*
X209250000Y-94775000D01*
X208825028Y-94775000D01*
X208825012Y-94775001D01*
X208722302Y-94785494D01*
X208555880Y-94840641D01*
X208555875Y-94840643D01*
X208406654Y-94932684D01*
X208282684Y-95056654D01*
X208190643Y-95205875D01*
X208190641Y-95205880D01*
X208135494Y-95372302D01*
X208135493Y-95372309D01*
X208125000Y-95475013D01*
X208125000Y-95650000D01*
X193625499Y-95650000D01*
X193625499Y-95477128D01*
X193619091Y-95417517D01*
X193608655Y-95389539D01*
X193603670Y-95319849D01*
X193637153Y-95258527D01*
X195408862Y-93486819D01*
X195470186Y-93453334D01*
X195496544Y-93450500D01*
X208255336Y-93450500D01*
X208322375Y-93470185D01*
X208368130Y-93522989D01*
X208378626Y-93561246D01*
X208380909Y-93582483D01*
X208431202Y-93717328D01*
X208431206Y-93717335D01*
X208517452Y-93832544D01*
X208517455Y-93832547D01*
X208632664Y-93918793D01*
X208632671Y-93918797D01*
X208767517Y-93969091D01*
X208767516Y-93969091D01*
X208774444Y-93969835D01*
X208827127Y-93975500D01*
X210172872Y-93975499D01*
X210232483Y-93969091D01*
X210367331Y-93918796D01*
X210482546Y-93832546D01*
X210568796Y-93717331D01*
X210619091Y-93582483D01*
X210625500Y-93522873D01*
X210625499Y-92677128D01*
X210619091Y-92617517D01*
X210616579Y-92610783D01*
X210568797Y-92482671D01*
X210568793Y-92482664D01*
X210482547Y-92367455D01*
X210482544Y-92367452D01*
X210367335Y-92281206D01*
X210367328Y-92281202D01*
X210232482Y-92230908D01*
X210232483Y-92230908D01*
X210172883Y-92224501D01*
X210172881Y-92224500D01*
X210172873Y-92224500D01*
X210172864Y-92224500D01*
X208827129Y-92224500D01*
X208827123Y-92224501D01*
X208767516Y-92230908D01*
X208632671Y-92281202D01*
X208632664Y-92281206D01*
X208517455Y-92367452D01*
X208517452Y-92367455D01*
X208431206Y-92482664D01*
X208431202Y-92482671D01*
X208380908Y-92617516D01*
X208378625Y-92638757D01*
X208351886Y-92703308D01*
X208294493Y-92743155D01*
X208255336Y-92749500D01*
X195349211Y-92749500D01*
X195323765Y-92746861D01*
X195314685Y-92744957D01*
X195314684Y-92744957D01*
X195314682Y-92744957D01*
X195282061Y-92749023D01*
X195274385Y-92749500D01*
X195270960Y-92749500D01*
X195249457Y-92753087D01*
X195198608Y-92759426D01*
X195191570Y-92761521D01*
X195184622Y-92763906D01*
X195139555Y-92788295D01*
X195093512Y-92810803D01*
X195087566Y-92815048D01*
X195081742Y-92819581D01*
X195047042Y-92857275D01*
X192916135Y-94988181D01*
X192854812Y-95021666D01*
X192828454Y-95024500D01*
X191827129Y-95024500D01*
X191827123Y-95024501D01*
X191767516Y-95030908D01*
X191632671Y-95081202D01*
X191632664Y-95081206D01*
X191517455Y-95167452D01*
X191517452Y-95167455D01*
X191431206Y-95282664D01*
X191431202Y-95282671D01*
X191380908Y-95417517D01*
X191374657Y-95475666D01*
X191374501Y-95477123D01*
X191374500Y-95477135D01*
X191374500Y-96322870D01*
X176625500Y-96322870D01*
X176625499Y-95477128D01*
X176619091Y-95417517D01*
X176608655Y-95389539D01*
X176603670Y-95319849D01*
X176637153Y-95258527D01*
X178408862Y-93486819D01*
X178470186Y-93453334D01*
X178496544Y-93450500D01*
X191255336Y-93450500D01*
X191322375Y-93470185D01*
X191368130Y-93522989D01*
X191378626Y-93561246D01*
X191380909Y-93582483D01*
X191431202Y-93717328D01*
X191431206Y-93717335D01*
X191517452Y-93832544D01*
X191517455Y-93832547D01*
X191632664Y-93918793D01*
X191632671Y-93918797D01*
X191767517Y-93969091D01*
X191767516Y-93969091D01*
X191774444Y-93969835D01*
X191827127Y-93975500D01*
X193172872Y-93975499D01*
X193232483Y-93969091D01*
X193367331Y-93918796D01*
X193482546Y-93832546D01*
X193568796Y-93717331D01*
X193619091Y-93582483D01*
X193625500Y-93522873D01*
X193625499Y-92677128D01*
X193619091Y-92617517D01*
X193616579Y-92610783D01*
X193568797Y-92482671D01*
X193568793Y-92482664D01*
X193482547Y-92367455D01*
X193482544Y-92367452D01*
X193367335Y-92281206D01*
X193367328Y-92281202D01*
X193232482Y-92230908D01*
X193232483Y-92230908D01*
X193172883Y-92224501D01*
X193172881Y-92224500D01*
X193172873Y-92224500D01*
X193172864Y-92224500D01*
X191827129Y-92224500D01*
X191827123Y-92224501D01*
X191767516Y-92230908D01*
X191632671Y-92281202D01*
X191632664Y-92281206D01*
X191517455Y-92367452D01*
X191517452Y-92367455D01*
X191431206Y-92482664D01*
X191431202Y-92482671D01*
X191380908Y-92617516D01*
X191378625Y-92638757D01*
X191351886Y-92703308D01*
X191294493Y-92743155D01*
X191255336Y-92749500D01*
X178349211Y-92749500D01*
X178323765Y-92746861D01*
X178314685Y-92744957D01*
X178314684Y-92744957D01*
X178314682Y-92744957D01*
X178282061Y-92749023D01*
X178274385Y-92749500D01*
X178270960Y-92749500D01*
X178249457Y-92753087D01*
X178198608Y-92759426D01*
X178191570Y-92761521D01*
X178184622Y-92763906D01*
X178139555Y-92788295D01*
X178093512Y-92810803D01*
X178087566Y-92815048D01*
X178081742Y-92819581D01*
X178047042Y-92857275D01*
X175916135Y-94988181D01*
X175854812Y-95021666D01*
X175828454Y-95024500D01*
X174827129Y-95024500D01*
X174827123Y-95024501D01*
X174767516Y-95030908D01*
X174632671Y-95081202D01*
X174632664Y-95081206D01*
X174517455Y-95167452D01*
X174517452Y-95167455D01*
X174431206Y-95282664D01*
X174431202Y-95282671D01*
X174380908Y-95417517D01*
X174374657Y-95475666D01*
X174374501Y-95477123D01*
X174374500Y-95477135D01*
X174374500Y-96322870D01*
X159875000Y-96322870D01*
X159875000Y-96150000D01*
X158750000Y-96150000D01*
X158250000Y-96150000D01*
X157125001Y-96150000D01*
X142625500Y-96150000D01*
X142625499Y-95650000D01*
X157125000Y-95650000D01*
X158250000Y-95650000D01*
X158250000Y-94775000D01*
X158750000Y-94775000D01*
X158750000Y-95650000D01*
X159874999Y-95650000D01*
X159874999Y-95475028D01*
X159874998Y-95475013D01*
X159864505Y-95372302D01*
X159809358Y-95205880D01*
X159809356Y-95205875D01*
X159717315Y-95056654D01*
X159593345Y-94932684D01*
X159444124Y-94840643D01*
X159444119Y-94840641D01*
X159277697Y-94785494D01*
X159277690Y-94785493D01*
X159174986Y-94775000D01*
X158750000Y-94775000D01*
X158250000Y-94775000D01*
X157825028Y-94775000D01*
X157825012Y-94775001D01*
X157722302Y-94785494D01*
X157555880Y-94840641D01*
X157555875Y-94840643D01*
X157406654Y-94932684D01*
X157282684Y-95056654D01*
X157190643Y-95205875D01*
X157190641Y-95205880D01*
X157135494Y-95372302D01*
X157135493Y-95372309D01*
X157125000Y-95475013D01*
X157125000Y-95650000D01*
X142625499Y-95650000D01*
X142625499Y-95477128D01*
X142619091Y-95417517D01*
X142608655Y-95389539D01*
X142603670Y-95319849D01*
X142637153Y-95258527D01*
X144408862Y-93486819D01*
X144470186Y-93453334D01*
X144496544Y-93450500D01*
X157255336Y-93450500D01*
X157322375Y-93470185D01*
X157368130Y-93522989D01*
X157378626Y-93561246D01*
X157380909Y-93582483D01*
X157431202Y-93717328D01*
X157431206Y-93717335D01*
X157517452Y-93832544D01*
X157517455Y-93832547D01*
X157632664Y-93918793D01*
X157632671Y-93918797D01*
X157767517Y-93969091D01*
X157767516Y-93969091D01*
X157774444Y-93969835D01*
X157827127Y-93975500D01*
X159172872Y-93975499D01*
X159232483Y-93969091D01*
X159367331Y-93918796D01*
X159482546Y-93832546D01*
X159568796Y-93717331D01*
X159619091Y-93582483D01*
X159625500Y-93522873D01*
X159625499Y-92677128D01*
X159619091Y-92617517D01*
X159616579Y-92610783D01*
X159568797Y-92482671D01*
X159568793Y-92482664D01*
X159482547Y-92367455D01*
X159482544Y-92367452D01*
X159367335Y-92281206D01*
X159367328Y-92281202D01*
X159232482Y-92230908D01*
X159232483Y-92230908D01*
X159172883Y-92224501D01*
X159172881Y-92224500D01*
X159172873Y-92224500D01*
X159172864Y-92224500D01*
X157827129Y-92224500D01*
X157827123Y-92224501D01*
X157767516Y-92230908D01*
X157632671Y-92281202D01*
X157632664Y-92281206D01*
X157517455Y-92367452D01*
X157517452Y-92367455D01*
X157431206Y-92482664D01*
X157431202Y-92482671D01*
X157380908Y-92617516D01*
X157378625Y-92638757D01*
X157351886Y-92703308D01*
X157294493Y-92743155D01*
X157255336Y-92749500D01*
X144349211Y-92749500D01*
X144323765Y-92746861D01*
X144314685Y-92744957D01*
X144314684Y-92744957D01*
X144314682Y-92744957D01*
X144282061Y-92749023D01*
X144274385Y-92749500D01*
X144270960Y-92749500D01*
X144249457Y-92753087D01*
X144198608Y-92759426D01*
X144191570Y-92761521D01*
X144184622Y-92763906D01*
X144139555Y-92788295D01*
X144093512Y-92810803D01*
X144087566Y-92815048D01*
X144081742Y-92819581D01*
X144047042Y-92857275D01*
X141916135Y-94988181D01*
X141854812Y-95021666D01*
X141828454Y-95024500D01*
X140827129Y-95024500D01*
X140827123Y-95024501D01*
X140767516Y-95030908D01*
X140632671Y-95081202D01*
X140632664Y-95081206D01*
X140517455Y-95167452D01*
X140517452Y-95167455D01*
X140431206Y-95282664D01*
X140431202Y-95282671D01*
X140380908Y-95417517D01*
X140374657Y-95475666D01*
X140374501Y-95477123D01*
X140374500Y-95477135D01*
X140374500Y-96322870D01*
X125625500Y-96322870D01*
X125625499Y-95477128D01*
X125619091Y-95417517D01*
X125608655Y-95389539D01*
X125603670Y-95319849D01*
X125637153Y-95258527D01*
X127408862Y-93486819D01*
X127470186Y-93453334D01*
X127496544Y-93450500D01*
X140255336Y-93450500D01*
X140322375Y-93470185D01*
X140368130Y-93522989D01*
X140378626Y-93561246D01*
X140380909Y-93582483D01*
X140431202Y-93717328D01*
X140431206Y-93717335D01*
X140517452Y-93832544D01*
X140517455Y-93832547D01*
X140632664Y-93918793D01*
X140632671Y-93918797D01*
X140767517Y-93969091D01*
X140767516Y-93969091D01*
X140774444Y-93969835D01*
X140827127Y-93975500D01*
X142172872Y-93975499D01*
X142232483Y-93969091D01*
X142367331Y-93918796D01*
X142482546Y-93832546D01*
X142568796Y-93717331D01*
X142619091Y-93582483D01*
X142625500Y-93522873D01*
X142625499Y-92677128D01*
X142619091Y-92617517D01*
X142616579Y-92610783D01*
X142568797Y-92482671D01*
X142568793Y-92482664D01*
X142482547Y-92367455D01*
X142482544Y-92367452D01*
X142367335Y-92281206D01*
X142367328Y-92281202D01*
X142232482Y-92230908D01*
X142232483Y-92230908D01*
X142172883Y-92224501D01*
X142172881Y-92224500D01*
X142172873Y-92224500D01*
X142172864Y-92224500D01*
X140827129Y-92224500D01*
X140827123Y-92224501D01*
X140767516Y-92230908D01*
X140632671Y-92281202D01*
X140632664Y-92281206D01*
X140517455Y-92367452D01*
X140517452Y-92367455D01*
X140431206Y-92482664D01*
X140431202Y-92482671D01*
X140380908Y-92617516D01*
X140378625Y-92638757D01*
X140351886Y-92703308D01*
X140294493Y-92743155D01*
X140255336Y-92749500D01*
X127349211Y-92749500D01*
X127323765Y-92746861D01*
X127314685Y-92744957D01*
X127314684Y-92744957D01*
X127314682Y-92744957D01*
X127282061Y-92749023D01*
X127274385Y-92749500D01*
X127270960Y-92749500D01*
X127249457Y-92753087D01*
X127198608Y-92759426D01*
X127191570Y-92761521D01*
X127184622Y-92763906D01*
X127139555Y-92788295D01*
X127093512Y-92810803D01*
X127087566Y-92815048D01*
X127081742Y-92819581D01*
X127047042Y-92857275D01*
X124916135Y-94988181D01*
X124854812Y-95021666D01*
X124828454Y-95024500D01*
X123827129Y-95024500D01*
X123827123Y-95024501D01*
X123767516Y-95030908D01*
X123632671Y-95081202D01*
X123632664Y-95081206D01*
X123517455Y-95167452D01*
X123517452Y-95167455D01*
X123431206Y-95282664D01*
X123431202Y-95282671D01*
X123380908Y-95417517D01*
X123374657Y-95475666D01*
X123374501Y-95477123D01*
X123374500Y-95477135D01*
X123374500Y-96322870D01*
X108875000Y-96322870D01*
X108875000Y-96150000D01*
X107750000Y-96150000D01*
X107250000Y-96150000D01*
X106125001Y-96150000D01*
X104945680Y-96150000D01*
X105969778Y-95125902D01*
X106031099Y-95092419D01*
X106100791Y-95097403D01*
X106156724Y-95139275D01*
X106181141Y-95204739D01*
X106175163Y-95252588D01*
X106135495Y-95372298D01*
X106135493Y-95372309D01*
X106125000Y-95475013D01*
X106125000Y-95650000D01*
X107250000Y-95650000D01*
X107250000Y-94775000D01*
X107750000Y-94775000D01*
X107750000Y-95650000D01*
X108874999Y-95650000D01*
X108874999Y-95475028D01*
X108874998Y-95475013D01*
X108864505Y-95372302D01*
X108809358Y-95205880D01*
X108809356Y-95205875D01*
X108717315Y-95056654D01*
X108593345Y-94932684D01*
X108444124Y-94840643D01*
X108444119Y-94840641D01*
X108277697Y-94785494D01*
X108277690Y-94785493D01*
X108174986Y-94775000D01*
X107750000Y-94775000D01*
X107250000Y-94775000D01*
X106825028Y-94775000D01*
X106825012Y-94775001D01*
X106722302Y-94785494D01*
X106602589Y-94825163D01*
X106532760Y-94827565D01*
X106472718Y-94791833D01*
X106441526Y-94729312D01*
X106449087Y-94659853D01*
X106475901Y-94619779D01*
X107083862Y-94011817D01*
X107145186Y-93978333D01*
X107171544Y-93975499D01*
X108172871Y-93975499D01*
X108172872Y-93975499D01*
X108232483Y-93969091D01*
X108367331Y-93918796D01*
X108482546Y-93832546D01*
X108568796Y-93717331D01*
X108619091Y-93582483D01*
X108625500Y-93522873D01*
X108625499Y-92677128D01*
X108619091Y-92617517D01*
X108616579Y-92610783D01*
X108568797Y-92482671D01*
X108568793Y-92482664D01*
X108482547Y-92367455D01*
X108482544Y-92367452D01*
X108367335Y-92281206D01*
X108367328Y-92281202D01*
X108232482Y-92230908D01*
X108232483Y-92230908D01*
X108172883Y-92224501D01*
X108172881Y-92224500D01*
X108172873Y-92224500D01*
X108172864Y-92224500D01*
X106827129Y-92224500D01*
X106827123Y-92224501D01*
X106767516Y-92230908D01*
X106632671Y-92281202D01*
X106632664Y-92281206D01*
X106517455Y-92367452D01*
X106517452Y-92367455D01*
X106431206Y-92482664D01*
X106431202Y-92482671D01*
X106380908Y-92617517D01*
X106374512Y-92677011D01*
X106374501Y-92677123D01*
X106374500Y-92677135D01*
X106374500Y-93522870D01*
X106374501Y-93522876D01*
X106380908Y-93582481D01*
X106391344Y-93610461D01*
X106396327Y-93680153D01*
X106362842Y-93741474D01*
X102955137Y-97149181D01*
X102893814Y-97182666D01*
X102867456Y-97185500D01*
X92332544Y-97185500D01*
X92265505Y-97165815D01*
X92244863Y-97149181D01*
X91637156Y-96541474D01*
X91603671Y-96480151D01*
X91608654Y-96410463D01*
X91619091Y-96382483D01*
X91625500Y-96322873D01*
X91625499Y-95477128D01*
X91623954Y-95462752D01*
X91636361Y-95393993D01*
X91683973Y-95342857D01*
X91747244Y-95325500D01*
X93380500Y-95325500D01*
X93447539Y-95345185D01*
X93493294Y-95397989D01*
X93504500Y-95449500D01*
X93504500Y-96130870D01*
X93504501Y-96130876D01*
X93510908Y-96190483D01*
X93561202Y-96325328D01*
X93561206Y-96325335D01*
X93647452Y-96440544D01*
X93647455Y-96440547D01*
X93762664Y-96526793D01*
X93762671Y-96526797D01*
X93897517Y-96577091D01*
X93897516Y-96577091D01*
X93904444Y-96577835D01*
X93957127Y-96583500D01*
X95352872Y-96583499D01*
X95412483Y-96577091D01*
X95547331Y-96526796D01*
X95662546Y-96440546D01*
X95748796Y-96325331D01*
X95778044Y-96246913D01*
X95788818Y-96218027D01*
X95830689Y-96162093D01*
X95896153Y-96137676D01*
X95964426Y-96152527D01*
X96013832Y-96201932D01*
X96021182Y-96218027D01*
X96061202Y-96325328D01*
X96061206Y-96325335D01*
X96147452Y-96440544D01*
X96147455Y-96440547D01*
X96262664Y-96526793D01*
X96262671Y-96526797D01*
X96397517Y-96577091D01*
X96397516Y-96577091D01*
X96404444Y-96577835D01*
X96457127Y-96583500D01*
X97852872Y-96583499D01*
X97912483Y-96577091D01*
X98047331Y-96526796D01*
X98162546Y-96440546D01*
X98248796Y-96325331D01*
X98288817Y-96218026D01*
X98330687Y-96162094D01*
X98396151Y-96137676D01*
X98464424Y-96152527D01*
X98513830Y-96201932D01*
X98521181Y-96218026D01*
X98561203Y-96325330D01*
X98561206Y-96325335D01*
X98647452Y-96440544D01*
X98647455Y-96440547D01*
X98762664Y-96526793D01*
X98762671Y-96526797D01*
X98897517Y-96577091D01*
X98897516Y-96577091D01*
X98904444Y-96577835D01*
X98957127Y-96583500D01*
X100352872Y-96583499D01*
X100412483Y-96577091D01*
X100547331Y-96526796D01*
X100662546Y-96440546D01*
X100748796Y-96325331D01*
X100778044Y-96246913D01*
X100788818Y-96218027D01*
X100830689Y-96162093D01*
X100896153Y-96137676D01*
X100964426Y-96152527D01*
X101013832Y-96201932D01*
X101021182Y-96218027D01*
X101061202Y-96325328D01*
X101061206Y-96325335D01*
X101147452Y-96440544D01*
X101147455Y-96440547D01*
X101262664Y-96526793D01*
X101262671Y-96526797D01*
X101397517Y-96577091D01*
X101397516Y-96577091D01*
X101404444Y-96577835D01*
X101457127Y-96583500D01*
X102852872Y-96583499D01*
X102912483Y-96577091D01*
X103047331Y-96526796D01*
X103162546Y-96440546D01*
X103248796Y-96325331D01*
X103299091Y-96190483D01*
X103305500Y-96130873D01*
X103305499Y-95385128D01*
X103299091Y-95325517D01*
X103297485Y-95321212D01*
X103248797Y-95190671D01*
X103248793Y-95190664D01*
X103162547Y-95075455D01*
X103162544Y-95075452D01*
X103047335Y-94989206D01*
X103047328Y-94989202D01*
X102912482Y-94938908D01*
X102912483Y-94938908D01*
X102852883Y-94932501D01*
X102852881Y-94932500D01*
X102852873Y-94932500D01*
X102852864Y-94932500D01*
X101457129Y-94932500D01*
X101457123Y-94932501D01*
X101397516Y-94938908D01*
X101262671Y-94989202D01*
X101262664Y-94989206D01*
X101147455Y-95075452D01*
X101147452Y-95075455D01*
X101061206Y-95190664D01*
X101061202Y-95190671D01*
X101021182Y-95297972D01*
X100979311Y-95353906D01*
X100913846Y-95378323D01*
X100845573Y-95363471D01*
X100796168Y-95314066D01*
X100788818Y-95297972D01*
X100748797Y-95190671D01*
X100748793Y-95190664D01*
X100662547Y-95075455D01*
X100662544Y-95075452D01*
X100547335Y-94989206D01*
X100547328Y-94989202D01*
X100412482Y-94938908D01*
X100412483Y-94938908D01*
X100352883Y-94932501D01*
X100352881Y-94932500D01*
X100352873Y-94932500D01*
X100352864Y-94932500D01*
X98957129Y-94932500D01*
X98957123Y-94932501D01*
X98897516Y-94938908D01*
X98762671Y-94989202D01*
X98762664Y-94989206D01*
X98647455Y-95075452D01*
X98647452Y-95075455D01*
X98561206Y-95190664D01*
X98561202Y-95190671D01*
X98521182Y-95297972D01*
X98479311Y-95353906D01*
X98413846Y-95378323D01*
X98345573Y-95363471D01*
X98296168Y-95314066D01*
X98288818Y-95297972D01*
X98248797Y-95190671D01*
X98248793Y-95190664D01*
X98162547Y-95075455D01*
X98162544Y-95075452D01*
X98047335Y-94989206D01*
X98047328Y-94989202D01*
X97912482Y-94938908D01*
X97912483Y-94938908D01*
X97852883Y-94932501D01*
X97852881Y-94932500D01*
X97852873Y-94932500D01*
X97852864Y-94932500D01*
X96457129Y-94932500D01*
X96457123Y-94932501D01*
X96397516Y-94938908D01*
X96262671Y-94989202D01*
X96262664Y-94989206D01*
X96147455Y-95075452D01*
X96147452Y-95075455D01*
X96061206Y-95190664D01*
X96061202Y-95190671D01*
X96021182Y-95297972D01*
X95979311Y-95353906D01*
X95913846Y-95378323D01*
X95845573Y-95363471D01*
X95796168Y-95314066D01*
X95788818Y-95297972D01*
X95748797Y-95190671D01*
X95748793Y-95190664D01*
X95662547Y-95075455D01*
X95662544Y-95075452D01*
X95547335Y-94989206D01*
X95547328Y-94989202D01*
X95412482Y-94938908D01*
X95412483Y-94938908D01*
X95352883Y-94932501D01*
X95352881Y-94932500D01*
X95352873Y-94932500D01*
X95352865Y-94932500D01*
X94376544Y-94932500D01*
X94309505Y-94912815D01*
X94288863Y-94896181D01*
X94154637Y-94761955D01*
X94138511Y-94742098D01*
X94133437Y-94734331D01*
X94107487Y-94714133D01*
X94101741Y-94709059D01*
X94099307Y-94706625D01*
X94099306Y-94706624D01*
X94099305Y-94706623D01*
X94092848Y-94702013D01*
X94081561Y-94693955D01*
X94041126Y-94662483D01*
X94041122Y-94662481D01*
X94034648Y-94658977D01*
X94028069Y-94655760D01*
X93978954Y-94641138D01*
X93930486Y-94624498D01*
X93923269Y-94623294D01*
X93915953Y-94622382D01*
X93866725Y-94624419D01*
X93864769Y-94624500D01*
X89770544Y-94624500D01*
X89703505Y-94604815D01*
X89657750Y-94552011D01*
X89647806Y-94482853D01*
X89676831Y-94419297D01*
X89682863Y-94412819D01*
X90083863Y-94011818D01*
X90145186Y-93978333D01*
X90171544Y-93975499D01*
X91172871Y-93975499D01*
X91172872Y-93975499D01*
X91232483Y-93969091D01*
X91367331Y-93918796D01*
X91482546Y-93832546D01*
X91568796Y-93717331D01*
X91619091Y-93582483D01*
X91625500Y-93522873D01*
X91625499Y-93058000D01*
X93255001Y-93058000D01*
X93255001Y-93182986D01*
X93265494Y-93285697D01*
X93320641Y-93452119D01*
X93320643Y-93452124D01*
X93412684Y-93601345D01*
X93536654Y-93725315D01*
X93685875Y-93817356D01*
X93685880Y-93817358D01*
X93852302Y-93872505D01*
X93852309Y-93872506D01*
X93955019Y-93882999D01*
X94404999Y-93882999D01*
X94405000Y-93882998D01*
X94405000Y-93058000D01*
X94905000Y-93058000D01*
X94905000Y-93882999D01*
X95354972Y-93882999D01*
X95354986Y-93882998D01*
X95457697Y-93872505D01*
X95624119Y-93817358D01*
X95624124Y-93817356D01*
X95773345Y-93725315D01*
X95817319Y-93681342D01*
X95878642Y-93647857D01*
X95948334Y-93652841D01*
X95992681Y-93681342D01*
X96036654Y-93725315D01*
X96185875Y-93817356D01*
X96185880Y-93817358D01*
X96352302Y-93872505D01*
X96352309Y-93872506D01*
X96455019Y-93882999D01*
X96904999Y-93882999D01*
X96905000Y-93882998D01*
X96905000Y-93058000D01*
X97405000Y-93058000D01*
X97405000Y-93882999D01*
X97854972Y-93882999D01*
X97854986Y-93882998D01*
X97957697Y-93872505D01*
X98124119Y-93817358D01*
X98124124Y-93817356D01*
X98273345Y-93725315D01*
X98317319Y-93681342D01*
X98378642Y-93647857D01*
X98448334Y-93652841D01*
X98492681Y-93681342D01*
X98536654Y-93725315D01*
X98685875Y-93817356D01*
X98685880Y-93817358D01*
X98852302Y-93872505D01*
X98852309Y-93872506D01*
X98955019Y-93882999D01*
X99404999Y-93882999D01*
X99405000Y-93882998D01*
X99405000Y-93058000D01*
X99905000Y-93058000D01*
X99905000Y-93882999D01*
X100354972Y-93882999D01*
X100354986Y-93882998D01*
X100457697Y-93872505D01*
X100624119Y-93817358D01*
X100624124Y-93817356D01*
X100773345Y-93725315D01*
X100817317Y-93681343D01*
X100878640Y-93647857D01*
X100948331Y-93652841D01*
X100992679Y-93681341D01*
X101036654Y-93725315D01*
X101185875Y-93817356D01*
X101185880Y-93817358D01*
X101352302Y-93872505D01*
X101352309Y-93872506D01*
X101455019Y-93882999D01*
X101904999Y-93882999D01*
X101905000Y-93882998D01*
X101905000Y-93058000D01*
X102405000Y-93058000D01*
X102405000Y-93882999D01*
X102854972Y-93882999D01*
X102854986Y-93882998D01*
X102957697Y-93872505D01*
X103124119Y-93817358D01*
X103124124Y-93817356D01*
X103273345Y-93725315D01*
X103397315Y-93601345D01*
X103489356Y-93452124D01*
X103489358Y-93452119D01*
X103544505Y-93285697D01*
X103544506Y-93285690D01*
X103554999Y-93182986D01*
X103555000Y-93182973D01*
X103555000Y-93058000D01*
X102405000Y-93058000D01*
X101905000Y-93058000D01*
X99905000Y-93058000D01*
X99405000Y-93058000D01*
X97405000Y-93058000D01*
X96905000Y-93058000D01*
X94905000Y-93058000D01*
X94405000Y-93058000D01*
X93255001Y-93058000D01*
X91625499Y-93058000D01*
X91625499Y-92677128D01*
X91619091Y-92617517D01*
X91616579Y-92610783D01*
X91596892Y-92558000D01*
X93255000Y-92558000D01*
X94405000Y-92558000D01*
X94405000Y-91733000D01*
X94905000Y-91733000D01*
X94905000Y-92558000D01*
X96905000Y-92558000D01*
X96905000Y-91733000D01*
X97405000Y-91733000D01*
X97405000Y-92558000D01*
X99405000Y-92558000D01*
X99405000Y-91733000D01*
X99905000Y-91733000D01*
X99905000Y-92558000D01*
X101905000Y-92558000D01*
X101905000Y-91733000D01*
X102405000Y-91733000D01*
X102405000Y-92558000D01*
X103554999Y-92558000D01*
X103554999Y-92433028D01*
X103554998Y-92433013D01*
X103544505Y-92330302D01*
X103489358Y-92163880D01*
X103489356Y-92163875D01*
X103397315Y-92014654D01*
X103273345Y-91890684D01*
X103124124Y-91798643D01*
X103124119Y-91798641D01*
X102957697Y-91743494D01*
X102957690Y-91743493D01*
X102854986Y-91733000D01*
X102405000Y-91733000D01*
X101905000Y-91733000D01*
X101455028Y-91733000D01*
X101455012Y-91733001D01*
X101352302Y-91743494D01*
X101185880Y-91798641D01*
X101185875Y-91798643D01*
X101036654Y-91890684D01*
X100992681Y-91934658D01*
X100931358Y-91968143D01*
X100861666Y-91963159D01*
X100817319Y-91934658D01*
X100773345Y-91890684D01*
X100624124Y-91798643D01*
X100624119Y-91798641D01*
X100457697Y-91743494D01*
X100457690Y-91743493D01*
X100354986Y-91733000D01*
X99905000Y-91733000D01*
X99405000Y-91733000D01*
X98955028Y-91733000D01*
X98955012Y-91733001D01*
X98852302Y-91743494D01*
X98685880Y-91798641D01*
X98685875Y-91798643D01*
X98536654Y-91890684D01*
X98492681Y-91934658D01*
X98431358Y-91968143D01*
X98361666Y-91963159D01*
X98317319Y-91934658D01*
X98273345Y-91890684D01*
X98124124Y-91798643D01*
X98124119Y-91798641D01*
X97957697Y-91743494D01*
X97957690Y-91743493D01*
X97854986Y-91733000D01*
X97405000Y-91733000D01*
X96905000Y-91733000D01*
X96455028Y-91733000D01*
X96455012Y-91733001D01*
X96352302Y-91743494D01*
X96185880Y-91798641D01*
X96185875Y-91798643D01*
X96036654Y-91890684D01*
X95992681Y-91934658D01*
X95931358Y-91968143D01*
X95861666Y-91963159D01*
X95817319Y-91934658D01*
X95773345Y-91890684D01*
X95624124Y-91798643D01*
X95624119Y-91798641D01*
X95457697Y-91743494D01*
X95457690Y-91743493D01*
X95354986Y-91733000D01*
X94905000Y-91733000D01*
X94405000Y-91733000D01*
X93955028Y-91733000D01*
X93955012Y-91733001D01*
X93852302Y-91743494D01*
X93685880Y-91798641D01*
X93685875Y-91798643D01*
X93536654Y-91890684D01*
X93412684Y-92014654D01*
X93320643Y-92163875D01*
X93320641Y-92163880D01*
X93265494Y-92330302D01*
X93265493Y-92330309D01*
X93255000Y-92433013D01*
X93255000Y-92558000D01*
X91596892Y-92558000D01*
X91568797Y-92482671D01*
X91568793Y-92482664D01*
X91482547Y-92367455D01*
X91482544Y-92367452D01*
X91367335Y-92281206D01*
X91367328Y-92281202D01*
X91232482Y-92230908D01*
X91232483Y-92230908D01*
X91172883Y-92224501D01*
X91172881Y-92224500D01*
X91172873Y-92224500D01*
X91172864Y-92224500D01*
X89827129Y-92224500D01*
X89827123Y-92224501D01*
X89767516Y-92230908D01*
X89632671Y-92281202D01*
X89632664Y-92281206D01*
X89517455Y-92367452D01*
X89517452Y-92367455D01*
X89431206Y-92482664D01*
X89431202Y-92482671D01*
X89380908Y-92617517D01*
X89374512Y-92677011D01*
X89374501Y-92677123D01*
X89374500Y-92677135D01*
X89374500Y-93522870D01*
X89374501Y-93522876D01*
X89380908Y-93582481D01*
X89391344Y-93610461D01*
X89396327Y-93680153D01*
X89362842Y-93741474D01*
X88916137Y-94188181D01*
X88854814Y-94221666D01*
X88828456Y-94224500D01*
X74374206Y-94224500D01*
X74348761Y-94221861D01*
X74339685Y-94219958D01*
X74339682Y-94219958D01*
X74307068Y-94224023D01*
X74299392Y-94224500D01*
X74295960Y-94224500D01*
X74281619Y-94226892D01*
X74274448Y-94228089D01*
X74257621Y-94230186D01*
X74223607Y-94234427D01*
X74223606Y-94234427D01*
X74223601Y-94234428D01*
X74216575Y-94236519D01*
X74209623Y-94238906D01*
X74164555Y-94263295D01*
X74118512Y-94285803D01*
X74112566Y-94290048D01*
X74106742Y-94294581D01*
X74072042Y-94332275D01*
X73916135Y-94488182D01*
X73854812Y-94521666D01*
X73828454Y-94524500D01*
X72827129Y-94524500D01*
X72827123Y-94524501D01*
X72767516Y-94530908D01*
X72632671Y-94581202D01*
X72632664Y-94581206D01*
X72517455Y-94667452D01*
X72517452Y-94667455D01*
X72431206Y-94782664D01*
X72431202Y-94782671D01*
X72380908Y-94917517D01*
X72374501Y-94977116D01*
X72374500Y-94977135D01*
X72374500Y-95822870D01*
X72374501Y-95822879D01*
X72376046Y-95837248D01*
X72363639Y-95906007D01*
X72316027Y-95957143D01*
X72252756Y-95974500D01*
X64890500Y-95974500D01*
X64823461Y-95954815D01*
X64777706Y-95902011D01*
X64766500Y-95850500D01*
X64766500Y-95694227D01*
X64765292Y-95678885D01*
X64763682Y-95658426D01*
X64719168Y-95505208D01*
X64715343Y-95498741D01*
X64667308Y-95417517D01*
X64637949Y-95367873D01*
X64637947Y-95367871D01*
X64637944Y-95367867D01*
X64525132Y-95255055D01*
X64525124Y-95255049D01*
X64387793Y-95173832D01*
X64387787Y-95173830D01*
X64234580Y-95129319D01*
X64234569Y-95129317D01*
X64198773Y-95126500D01*
X64198770Y-95126500D01*
X62907544Y-95126500D01*
X62840505Y-95106815D01*
X62819863Y-95090181D01*
X62491637Y-94761955D01*
X62475511Y-94742098D01*
X62470437Y-94734331D01*
X62444487Y-94714133D01*
X62438741Y-94709059D01*
X62436307Y-94706625D01*
X62436306Y-94706624D01*
X62436305Y-94706623D01*
X62429848Y-94702013D01*
X62418561Y-94693955D01*
X62378126Y-94662483D01*
X62378122Y-94662481D01*
X62371648Y-94658977D01*
X62365069Y-94655760D01*
X62315954Y-94641138D01*
X62267486Y-94624498D01*
X62260269Y-94623294D01*
X62252953Y-94622382D01*
X62203725Y-94624419D01*
X62201769Y-94624500D01*
X54760544Y-94624500D01*
X54693505Y-94604815D01*
X54647750Y-94552011D01*
X54637806Y-94482853D01*
X54666831Y-94419297D01*
X54672863Y-94412819D01*
X55136966Y-93948715D01*
X55303106Y-93782573D01*
X55364429Y-93749089D01*
X55434120Y-93754073D01*
X55490052Y-93795942D01*
X55508126Y-93820086D01*
X55517455Y-93832547D01*
X55632664Y-93918793D01*
X55632671Y-93918797D01*
X55767517Y-93969091D01*
X55767516Y-93969091D01*
X55774444Y-93969835D01*
X55827127Y-93975500D01*
X57172872Y-93975499D01*
X57232483Y-93969091D01*
X57367331Y-93918796D01*
X57476165Y-93837323D01*
X62472228Y-93837323D01*
X62491360Y-93842081D01*
X62534392Y-93845000D01*
X64211606Y-93844999D01*
X64254627Y-93842082D01*
X64254637Y-93842081D01*
X64273769Y-93837322D01*
X63373000Y-92936553D01*
X62472228Y-93837322D01*
X62472228Y-93837323D01*
X57476165Y-93837323D01*
X57482546Y-93832546D01*
X57568796Y-93717331D01*
X57619091Y-93582483D01*
X57625500Y-93522873D01*
X57625499Y-92677128D01*
X57619091Y-92617517D01*
X57616579Y-92610783D01*
X57568797Y-92482671D01*
X57568793Y-92482664D01*
X57482547Y-92367455D01*
X57482544Y-92367452D01*
X57367335Y-92281206D01*
X57367328Y-92281202D01*
X57232482Y-92230908D01*
X57232483Y-92230908D01*
X57172883Y-92224501D01*
X57172881Y-92224500D01*
X57172873Y-92224500D01*
X57172864Y-92224500D01*
X55827129Y-92224500D01*
X55827123Y-92224501D01*
X55767516Y-92230908D01*
X55632671Y-92281202D01*
X55632664Y-92281206D01*
X55517455Y-92367452D01*
X55517452Y-92367455D01*
X55431206Y-92482664D01*
X55431202Y-92482671D01*
X55380908Y-92617517D01*
X55374512Y-92677011D01*
X55374501Y-92677123D01*
X55374500Y-92677135D01*
X55374500Y-92688918D01*
X55354815Y-92755957D01*
X55304961Y-92800318D01*
X55283512Y-92810803D01*
X55277566Y-92815048D01*
X55271742Y-92819581D01*
X55237042Y-92857275D01*
X54281180Y-93813136D01*
X54219857Y-93846621D01*
X54150165Y-93841637D01*
X54094232Y-93799765D01*
X54069815Y-93734301D01*
X54069499Y-93725481D01*
X54069499Y-93300052D01*
X54069459Y-93299780D01*
X54061942Y-93248174D01*
X54059220Y-93229491D01*
X54006012Y-93120653D01*
X54006010Y-93120651D01*
X54006010Y-93120650D01*
X53920348Y-93034988D01*
X53811511Y-92981780D01*
X53793869Y-92979210D01*
X53740949Y-92971500D01*
X53740943Y-92971500D01*
X53447049Y-92971500D01*
X53376493Y-92981779D01*
X53267650Y-93034989D01*
X53181988Y-93120651D01*
X53128780Y-93229488D01*
X53126894Y-93242431D01*
X53122968Y-93269378D01*
X53093826Y-93332877D01*
X53034978Y-93370542D01*
X53000265Y-93375500D01*
X52374977Y-93375500D01*
X52307938Y-93355815D01*
X52262183Y-93303011D01*
X52254733Y-93275865D01*
X52253876Y-93276068D01*
X52252092Y-93268520D01*
X52244509Y-93248190D01*
X52226978Y-93201185D01*
X52201797Y-93133671D01*
X52201793Y-93133664D01*
X52115547Y-93018455D01*
X52115544Y-93018452D01*
X52000335Y-92932206D01*
X52000328Y-92932202D01*
X51865482Y-92881908D01*
X51865483Y-92881908D01*
X51805883Y-92875501D01*
X51805881Y-92875500D01*
X51805873Y-92875500D01*
X51805864Y-92875500D01*
X50810129Y-92875500D01*
X50810123Y-92875501D01*
X50750516Y-92881908D01*
X50615671Y-92932202D01*
X50615664Y-92932206D01*
X50500455Y-93018452D01*
X50500452Y-93018455D01*
X50414206Y-93133664D01*
X50414202Y-93133671D01*
X50363908Y-93268517D01*
X50362126Y-93276062D01*
X50360406Y-93275655D01*
X50337359Y-93331291D01*
X50279965Y-93371137D01*
X50261216Y-93375791D01*
X50241459Y-93379087D01*
X50190607Y-93385426D01*
X50183566Y-93387522D01*
X50176620Y-93389907D01*
X50131550Y-93414297D01*
X50085513Y-93436803D01*
X50079538Y-93441069D01*
X50073746Y-93445577D01*
X50039032Y-93483286D01*
X49719275Y-93803042D01*
X49657952Y-93836527D01*
X49616722Y-93836004D01*
X49616431Y-93838404D01*
X49608985Y-93837500D01*
X49451015Y-93837500D01*
X49451014Y-93837500D01*
X49297634Y-93875303D01*
X49157762Y-93948715D01*
X49039516Y-94053471D01*
X48949781Y-94183475D01*
X48949780Y-94183476D01*
X48893762Y-94331181D01*
X48874722Y-94487999D01*
X48874722Y-94488000D01*
X48893762Y-94644818D01*
X48930655Y-94742094D01*
X48949780Y-94792523D01*
X49039517Y-94922530D01*
X49157760Y-95027283D01*
X49157762Y-95027284D01*
X49297634Y-95100696D01*
X49451014Y-95138500D01*
X49522638Y-95138500D01*
X49589677Y-95158185D01*
X49635432Y-95210989D01*
X49645376Y-95280147D01*
X49616351Y-95343703D01*
X49610319Y-95350181D01*
X49052181Y-95908318D01*
X48990858Y-95941803D01*
X48921166Y-95936819D01*
X48865233Y-95894947D01*
X48840816Y-95829483D01*
X48840500Y-95820637D01*
X48840500Y-95282323D01*
X48840499Y-95282321D01*
X48825967Y-95209264D01*
X48825966Y-95209260D01*
X48819118Y-95199011D01*
X48770601Y-95126399D01*
X48688439Y-95071501D01*
X48687739Y-95071033D01*
X48687735Y-95071032D01*
X48614677Y-95056500D01*
X48614674Y-95056500D01*
X47365326Y-95056500D01*
X47365323Y-95056500D01*
X47292264Y-95071032D01*
X47292260Y-95071033D01*
X47209399Y-95126399D01*
X47154033Y-95209260D01*
X47154032Y-95209264D01*
X47139500Y-95282321D01*
X47139500Y-96210455D01*
X47119815Y-96277494D01*
X47103181Y-96298136D01*
X47052181Y-96349136D01*
X46990858Y-96382621D01*
X46921166Y-96377637D01*
X46865233Y-96335765D01*
X46840816Y-96270301D01*
X46840500Y-96261455D01*
X46840500Y-95282323D01*
X46840499Y-95282321D01*
X46825967Y-95209264D01*
X46825966Y-95209260D01*
X46819118Y-95199011D01*
X46770601Y-95126399D01*
X46688439Y-95071501D01*
X46687739Y-95071033D01*
X46687735Y-95071032D01*
X46614677Y-95056500D01*
X46614674Y-95056500D01*
X46464500Y-95056500D01*
X46397461Y-95036815D01*
X46351706Y-94984011D01*
X46340500Y-94932500D01*
X46340500Y-93853544D01*
X46360185Y-93786505D01*
X46376819Y-93765862D01*
X46448864Y-93693818D01*
X46510188Y-93660334D01*
X46536545Y-93657500D01*
X47814676Y-93657500D01*
X47814677Y-93657499D01*
X47887740Y-93642966D01*
X47970601Y-93587601D01*
X48025966Y-93504740D01*
X48040500Y-93431674D01*
X48040500Y-92153544D01*
X48048766Y-92125392D01*
X61730000Y-92125392D01*
X61730001Y-93040606D01*
X61732917Y-93083633D01*
X61732917Y-93083634D01*
X61779165Y-93269602D01*
X61864307Y-93441275D01*
X61984363Y-93590632D01*
X61999581Y-93602865D01*
X63019446Y-92583000D01*
X63726553Y-92583000D01*
X64746417Y-93602864D01*
X64761635Y-93590631D01*
X64881692Y-93441275D01*
X64966834Y-93269602D01*
X65013081Y-93083640D01*
X65016000Y-93040608D01*
X65015999Y-92125394D01*
X65013082Y-92082366D01*
X65013082Y-92082365D01*
X64966834Y-91896397D01*
X64881692Y-91724724D01*
X64761637Y-91575369D01*
X64761629Y-91575362D01*
X64746418Y-91563133D01*
X63726553Y-92582999D01*
X63726553Y-92583000D01*
X63019446Y-92583000D01*
X63019446Y-92582999D01*
X61999581Y-91563133D01*
X61984368Y-91575363D01*
X61984362Y-91575369D01*
X61864307Y-91724724D01*
X61779165Y-91896397D01*
X61732918Y-92082359D01*
X61730000Y-92125392D01*
X48048766Y-92125392D01*
X48060185Y-92086505D01*
X48076819Y-92065863D01*
X48814006Y-91328676D01*
X62472229Y-91328676D01*
X63373000Y-92229447D01*
X63373001Y-92229447D01*
X64273770Y-91328676D01*
X64273769Y-91328675D01*
X64254643Y-91323919D01*
X64254638Y-91323918D01*
X64211608Y-91321000D01*
X62534394Y-91321001D01*
X62491369Y-91323917D01*
X62472229Y-91328676D01*
X48814006Y-91328676D01*
X49712863Y-90429819D01*
X49774186Y-90396334D01*
X49800544Y-90393500D01*
X65843456Y-90393500D01*
X65910495Y-90413185D01*
X65931137Y-90429819D01*
X67805681Y-92304363D01*
X67839166Y-92365686D01*
X67842000Y-92392044D01*
X67842000Y-92867190D01*
X67848248Y-92925299D01*
X67881573Y-93014645D01*
X67891522Y-93041320D01*
X67897289Y-93056780D01*
X67917392Y-93083634D01*
X67981384Y-93169116D01*
X68067832Y-93233831D01*
X68086942Y-93248137D01*
X68093722Y-93253212D01*
X68180799Y-93285690D01*
X68225200Y-93302251D01*
X68283309Y-93308499D01*
X68283326Y-93308500D01*
X68876674Y-93308500D01*
X68876690Y-93308499D01*
X68934799Y-93302251D01*
X68945271Y-93298345D01*
X69066278Y-93253212D01*
X69178616Y-93169116D01*
X69262712Y-93056778D01*
X69311751Y-92925299D01*
X69316623Y-92879986D01*
X69317999Y-92867190D01*
X69318000Y-92867173D01*
X69318000Y-92392044D01*
X69337685Y-92325005D01*
X69354313Y-92304368D01*
X69455574Y-92203107D01*
X69516893Y-92169625D01*
X69586585Y-92174609D01*
X69642519Y-92216480D01*
X69666936Y-92281944D01*
X69667075Y-92297410D01*
X69667000Y-92298812D01*
X69667000Y-92867190D01*
X69673248Y-92925299D01*
X69706573Y-93014645D01*
X69716522Y-93041320D01*
X69722289Y-93056780D01*
X69742392Y-93083634D01*
X69806384Y-93169116D01*
X69892832Y-93233831D01*
X69911942Y-93248137D01*
X69918722Y-93253212D01*
X70005799Y-93285690D01*
X70050200Y-93302251D01*
X70108309Y-93308499D01*
X70108326Y-93308500D01*
X70701674Y-93308500D01*
X70701690Y-93308499D01*
X70759799Y-93302251D01*
X70770271Y-93298345D01*
X70891278Y-93253212D01*
X71003616Y-93169116D01*
X71087712Y-93056778D01*
X71097265Y-93031163D01*
X71139136Y-92975233D01*
X71204600Y-92950816D01*
X71213446Y-92950500D01*
X72255336Y-92950500D01*
X72322375Y-92970185D01*
X72368130Y-93022989D01*
X72378626Y-93061246D01*
X72380909Y-93082483D01*
X72431202Y-93217328D01*
X72431206Y-93217335D01*
X72517452Y-93332544D01*
X72517455Y-93332547D01*
X72632664Y-93418793D01*
X72632671Y-93418797D01*
X72767517Y-93469091D01*
X72767516Y-93469091D01*
X72774444Y-93469835D01*
X72827127Y-93475500D01*
X74172872Y-93475499D01*
X74232483Y-93469091D01*
X74367331Y-93418796D01*
X74482546Y-93332546D01*
X74568796Y-93217331D01*
X74619091Y-93082483D01*
X74625500Y-93022873D01*
X74625500Y-92755000D01*
X76314001Y-92755000D01*
X76314001Y-92879986D01*
X76324494Y-92982697D01*
X76379641Y-93149119D01*
X76379643Y-93149124D01*
X76471684Y-93298345D01*
X76595654Y-93422315D01*
X76744875Y-93514356D01*
X76744880Y-93514358D01*
X76911302Y-93569505D01*
X76911309Y-93569506D01*
X77014019Y-93579999D01*
X77463999Y-93579999D01*
X77464000Y-93579998D01*
X77464000Y-92755000D01*
X77964000Y-92755000D01*
X77964000Y-93579999D01*
X78413972Y-93579999D01*
X78413986Y-93579998D01*
X78516697Y-93569505D01*
X78683119Y-93514358D01*
X78683124Y-93514356D01*
X78832345Y-93422315D01*
X78901319Y-93353342D01*
X78962642Y-93319857D01*
X79032334Y-93324841D01*
X79076681Y-93353342D01*
X79145654Y-93422315D01*
X79294875Y-93514356D01*
X79294880Y-93514358D01*
X79461302Y-93569505D01*
X79461309Y-93569506D01*
X79564019Y-93579999D01*
X80013999Y-93579999D01*
X80014000Y-93579998D01*
X80014000Y-92755000D01*
X80514000Y-92755000D01*
X80514000Y-93579999D01*
X80963972Y-93579999D01*
X80963986Y-93579998D01*
X81066697Y-93569505D01*
X81233119Y-93514358D01*
X81233124Y-93514356D01*
X81382345Y-93422315D01*
X81426319Y-93378342D01*
X81487642Y-93344857D01*
X81557334Y-93349841D01*
X81601681Y-93378342D01*
X81645654Y-93422315D01*
X81794875Y-93514356D01*
X81794880Y-93514358D01*
X81961302Y-93569505D01*
X81961309Y-93569506D01*
X82064019Y-93579999D01*
X82513999Y-93579999D01*
X82514000Y-93579998D01*
X82514000Y-92755000D01*
X83014000Y-92755000D01*
X83014000Y-93579999D01*
X83463972Y-93579999D01*
X83463986Y-93579998D01*
X83566697Y-93569505D01*
X83733119Y-93514358D01*
X83733124Y-93514356D01*
X83882345Y-93422315D01*
X83926319Y-93378342D01*
X83987642Y-93344857D01*
X84057334Y-93349841D01*
X84101681Y-93378342D01*
X84145654Y-93422315D01*
X84294875Y-93514356D01*
X84294880Y-93514358D01*
X84461302Y-93569505D01*
X84461309Y-93569506D01*
X84564019Y-93579999D01*
X85013999Y-93579999D01*
X85014000Y-93579998D01*
X85014000Y-92755000D01*
X85514000Y-92755000D01*
X85514000Y-93579999D01*
X85963972Y-93579999D01*
X85963986Y-93579998D01*
X86066697Y-93569505D01*
X86233119Y-93514358D01*
X86233124Y-93514356D01*
X86382345Y-93422315D01*
X86506315Y-93298345D01*
X86598356Y-93149124D01*
X86598358Y-93149119D01*
X86653505Y-92982697D01*
X86653506Y-92982690D01*
X86663999Y-92879986D01*
X86664000Y-92879973D01*
X86664000Y-92755000D01*
X85514000Y-92755000D01*
X85014000Y-92755000D01*
X83014000Y-92755000D01*
X82514000Y-92755000D01*
X80514000Y-92755000D01*
X80014000Y-92755000D01*
X77964000Y-92755000D01*
X77464000Y-92755000D01*
X76314001Y-92755000D01*
X74625500Y-92755000D01*
X74625499Y-92255000D01*
X76314000Y-92255000D01*
X77464000Y-92255000D01*
X77464000Y-91430000D01*
X77964000Y-91430000D01*
X77964000Y-92255000D01*
X80014000Y-92255000D01*
X80014000Y-91430000D01*
X80514000Y-91430000D01*
X80514000Y-92255000D01*
X82514000Y-92255000D01*
X82514000Y-91430000D01*
X83014000Y-91430000D01*
X83014000Y-92255000D01*
X85014000Y-92255000D01*
X85014000Y-91430000D01*
X85514000Y-91430000D01*
X85514000Y-92255000D01*
X86663999Y-92255000D01*
X86663999Y-92130028D01*
X86663998Y-92130013D01*
X86653505Y-92027302D01*
X86598358Y-91860880D01*
X86598356Y-91860875D01*
X86506315Y-91711654D01*
X86382345Y-91587684D01*
X86233124Y-91495643D01*
X86233119Y-91495641D01*
X86066697Y-91440494D01*
X86066690Y-91440493D01*
X85963986Y-91430000D01*
X85514000Y-91430000D01*
X85014000Y-91430000D01*
X84564028Y-91430000D01*
X84564012Y-91430001D01*
X84461302Y-91440494D01*
X84294880Y-91495641D01*
X84294875Y-91495643D01*
X84145654Y-91587684D01*
X84101681Y-91631658D01*
X84040358Y-91665143D01*
X83970666Y-91660159D01*
X83926319Y-91631658D01*
X83882345Y-91587684D01*
X83733124Y-91495643D01*
X83733119Y-91495641D01*
X83566697Y-91440494D01*
X83566690Y-91440493D01*
X83463986Y-91430000D01*
X83014000Y-91430000D01*
X82514000Y-91430000D01*
X82064028Y-91430000D01*
X82064012Y-91430001D01*
X81961302Y-91440494D01*
X81794880Y-91495641D01*
X81794875Y-91495643D01*
X81645654Y-91587684D01*
X81601681Y-91631658D01*
X81540358Y-91665143D01*
X81470666Y-91660159D01*
X81426319Y-91631658D01*
X81382345Y-91587684D01*
X81233124Y-91495643D01*
X81233119Y-91495641D01*
X81066697Y-91440494D01*
X81066690Y-91440493D01*
X80963986Y-91430000D01*
X80514000Y-91430000D01*
X80014000Y-91430000D01*
X79564028Y-91430000D01*
X79564012Y-91430001D01*
X79461302Y-91440494D01*
X79294880Y-91495641D01*
X79294875Y-91495643D01*
X79145657Y-91587682D01*
X79076680Y-91656659D01*
X79015356Y-91690143D01*
X78945665Y-91685158D01*
X78901317Y-91656658D01*
X78832342Y-91587682D01*
X78683124Y-91495643D01*
X78683119Y-91495641D01*
X78516697Y-91440494D01*
X78516690Y-91440493D01*
X78413986Y-91430000D01*
X77964000Y-91430000D01*
X77464000Y-91430000D01*
X77014028Y-91430000D01*
X77014012Y-91430001D01*
X76911302Y-91440494D01*
X76744880Y-91495641D01*
X76744875Y-91495643D01*
X76595654Y-91587684D01*
X76471684Y-91711654D01*
X76379643Y-91860875D01*
X76379641Y-91860880D01*
X76324494Y-92027302D01*
X76324493Y-92027309D01*
X76314000Y-92130013D01*
X76314000Y-92255000D01*
X74625499Y-92255000D01*
X74625499Y-92177128D01*
X74619091Y-92117517D01*
X74618509Y-92115957D01*
X74568797Y-91982671D01*
X74568793Y-91982664D01*
X74482547Y-91867455D01*
X74482544Y-91867452D01*
X74367335Y-91781206D01*
X74367328Y-91781202D01*
X74232482Y-91730908D01*
X74232483Y-91730908D01*
X74172883Y-91724501D01*
X74172881Y-91724500D01*
X74172873Y-91724500D01*
X74172864Y-91724500D01*
X72827129Y-91724500D01*
X72827123Y-91724501D01*
X72767516Y-91730908D01*
X72632671Y-91781202D01*
X72632664Y-91781206D01*
X72517455Y-91867452D01*
X72517452Y-91867455D01*
X72431206Y-91982664D01*
X72431202Y-91982671D01*
X72380908Y-92117516D01*
X72378625Y-92138757D01*
X72351886Y-92203308D01*
X72294493Y-92243155D01*
X72255336Y-92249500D01*
X71226128Y-92249500D01*
X71159089Y-92229815D01*
X71113334Y-92177011D01*
X71109947Y-92168835D01*
X71095756Y-92130789D01*
X71087712Y-92109222D01*
X71003616Y-91996884D01*
X70911309Y-91927783D01*
X70891280Y-91912789D01*
X70891278Y-91912788D01*
X70862957Y-91902225D01*
X70759799Y-91863748D01*
X70701690Y-91857500D01*
X70701674Y-91857500D01*
X70108326Y-91857500D01*
X70108313Y-91857500D01*
X70106910Y-91857575D01*
X70106593Y-91857500D01*
X70105005Y-91857500D01*
X70105005Y-91857124D01*
X70038916Y-91841497D01*
X69990407Y-91791211D01*
X69976786Y-91722682D01*
X70002377Y-91657668D01*
X70012602Y-91646079D01*
X71355862Y-90302819D01*
X71417186Y-90269334D01*
X71443544Y-90266500D01*
X117278456Y-90266500D01*
X117345495Y-90286185D01*
X117366137Y-90302819D01*
X119122925Y-92059607D01*
X119156410Y-92120930D01*
X119151427Y-92190619D01*
X119132750Y-92240697D01*
X119132748Y-92240704D01*
X119126500Y-92298809D01*
X119126500Y-92867190D01*
X119132748Y-92925299D01*
X119166073Y-93014645D01*
X119176022Y-93041320D01*
X119181789Y-93056780D01*
X119201892Y-93083634D01*
X119265884Y-93169116D01*
X119352332Y-93233831D01*
X119371442Y-93248137D01*
X119378222Y-93253212D01*
X119465299Y-93285690D01*
X119509700Y-93302251D01*
X119567809Y-93308499D01*
X119567826Y-93308500D01*
X120161174Y-93308500D01*
X120161190Y-93308499D01*
X120219299Y-93302251D01*
X120229771Y-93298345D01*
X120350778Y-93253212D01*
X120463116Y-93169116D01*
X120547212Y-93056778D01*
X120596251Y-92925299D01*
X120601123Y-92879986D01*
X120602499Y-92867190D01*
X120602500Y-92867173D01*
X120602500Y-92392043D01*
X120622185Y-92325004D01*
X120638814Y-92304367D01*
X120740073Y-92203108D01*
X120801394Y-92169625D01*
X120871086Y-92174609D01*
X120927019Y-92216481D01*
X120951436Y-92281945D01*
X120951575Y-92297410D01*
X120951500Y-92298812D01*
X120951500Y-92867190D01*
X120957748Y-92925299D01*
X120991073Y-93014645D01*
X121001022Y-93041320D01*
X121006789Y-93056780D01*
X121026892Y-93083634D01*
X121090884Y-93169116D01*
X121177332Y-93233831D01*
X121196442Y-93248137D01*
X121203222Y-93253212D01*
X121290299Y-93285690D01*
X121334700Y-93302251D01*
X121392809Y-93308499D01*
X121392826Y-93308500D01*
X121861163Y-93308500D01*
X121928202Y-93328185D01*
X121937324Y-93334646D01*
X121950444Y-93344857D01*
X121961345Y-93353342D01*
X121971005Y-93360860D01*
X121976768Y-93365950D01*
X121979192Y-93368374D01*
X121979195Y-93368377D01*
X121994196Y-93379087D01*
X121996937Y-93381044D01*
X122037374Y-93412517D01*
X122037378Y-93412518D01*
X122043814Y-93416000D01*
X122043839Y-93416013D01*
X122043871Y-93416030D01*
X122050430Y-93419237D01*
X122050433Y-93419239D01*
X122099537Y-93433858D01*
X122148012Y-93450500D01*
X122148014Y-93450500D01*
X122155254Y-93451708D01*
X122162546Y-93452617D01*
X122213731Y-93450500D01*
X123255336Y-93450500D01*
X123322375Y-93470185D01*
X123368130Y-93522989D01*
X123378626Y-93561246D01*
X123380909Y-93582483D01*
X123431202Y-93717328D01*
X123431206Y-93717335D01*
X123517452Y-93832544D01*
X123517455Y-93832547D01*
X123632664Y-93918793D01*
X123632671Y-93918797D01*
X123767517Y-93969091D01*
X123767516Y-93969091D01*
X123774444Y-93969835D01*
X123827127Y-93975500D01*
X125172872Y-93975499D01*
X125232483Y-93969091D01*
X125367331Y-93918796D01*
X125482546Y-93832546D01*
X125568796Y-93717331D01*
X125619091Y-93582483D01*
X125625500Y-93522873D01*
X125625499Y-92677128D01*
X125619091Y-92617517D01*
X125616579Y-92610783D01*
X125568797Y-92482671D01*
X125568793Y-92482664D01*
X125482547Y-92367455D01*
X125482544Y-92367452D01*
X125367335Y-92281206D01*
X125367328Y-92281202D01*
X125232482Y-92230908D01*
X125232483Y-92230908D01*
X125172883Y-92224501D01*
X125172881Y-92224500D01*
X125172873Y-92224500D01*
X125172864Y-92224500D01*
X123827129Y-92224500D01*
X123827123Y-92224501D01*
X123767516Y-92230908D01*
X123632671Y-92281202D01*
X123632664Y-92281206D01*
X123517455Y-92367452D01*
X123517452Y-92367455D01*
X123431206Y-92482664D01*
X123431202Y-92482671D01*
X123380908Y-92617516D01*
X123378625Y-92638757D01*
X123351886Y-92703308D01*
X123294493Y-92743155D01*
X123255336Y-92749500D01*
X122551500Y-92749500D01*
X122484461Y-92729815D01*
X122438706Y-92677011D01*
X122427500Y-92625500D01*
X122427500Y-92298826D01*
X122427499Y-92298809D01*
X122421251Y-92240700D01*
X122402571Y-92190619D01*
X122372212Y-92109222D01*
X122365695Y-92100517D01*
X122346968Y-92075500D01*
X122288116Y-91996884D01*
X122195809Y-91927783D01*
X122175780Y-91912789D01*
X122175778Y-91912788D01*
X122147457Y-91902225D01*
X122044299Y-91863748D01*
X121986190Y-91857500D01*
X121986174Y-91857500D01*
X121392826Y-91857500D01*
X121392813Y-91857500D01*
X121391410Y-91857575D01*
X121391093Y-91857500D01*
X121389505Y-91857500D01*
X121389505Y-91857124D01*
X121323416Y-91841497D01*
X121274907Y-91791211D01*
X121261286Y-91722682D01*
X121286877Y-91657668D01*
X121297102Y-91646079D01*
X122640363Y-90302819D01*
X122701686Y-90269334D01*
X122728044Y-90266500D01*
X168308956Y-90266500D01*
X168375995Y-90286185D01*
X168396637Y-90302819D01*
X170271181Y-92177363D01*
X170304666Y-92238686D01*
X170307500Y-92265044D01*
X170307500Y-92740190D01*
X170313748Y-92798299D01*
X170344933Y-92881908D01*
X170361117Y-92925299D01*
X170362789Y-92929780D01*
X170378300Y-92950500D01*
X170446884Y-93042116D01*
X170559222Y-93126212D01*
X170620652Y-93149124D01*
X170690700Y-93175251D01*
X170748809Y-93181499D01*
X170748826Y-93181500D01*
X171342174Y-93181500D01*
X171342190Y-93181499D01*
X171400299Y-93175251D01*
X171400298Y-93175251D01*
X171531778Y-93126212D01*
X171644116Y-93042116D01*
X171728212Y-92929778D01*
X171777251Y-92798299D01*
X171780804Y-92765253D01*
X171783499Y-92740190D01*
X171783500Y-92740173D01*
X171783500Y-92265043D01*
X171803185Y-92198004D01*
X171819814Y-92177367D01*
X171921073Y-92076108D01*
X171982394Y-92042625D01*
X172052086Y-92047609D01*
X172108019Y-92089481D01*
X172132436Y-92154945D01*
X172132575Y-92170410D01*
X172132500Y-92171812D01*
X172132500Y-92740190D01*
X172138748Y-92798299D01*
X172169933Y-92881908D01*
X172186117Y-92925299D01*
X172187789Y-92929780D01*
X172203300Y-92950500D01*
X172271884Y-93042116D01*
X172384222Y-93126212D01*
X172445652Y-93149124D01*
X172515700Y-93175251D01*
X172573809Y-93181499D01*
X172573826Y-93181500D01*
X173048956Y-93181500D01*
X173115995Y-93201185D01*
X173136637Y-93217819D01*
X173231862Y-93313044D01*
X173247986Y-93332899D01*
X173253062Y-93340668D01*
X173253063Y-93340669D01*
X173253065Y-93340671D01*
X173279005Y-93360860D01*
X173284768Y-93365950D01*
X173287194Y-93368376D01*
X173304941Y-93381047D01*
X173345374Y-93412517D01*
X173345375Y-93412517D01*
X173345376Y-93412518D01*
X173351818Y-93416004D01*
X173358429Y-93419236D01*
X173358434Y-93419240D01*
X173407552Y-93433863D01*
X173456012Y-93450500D01*
X173456013Y-93450500D01*
X173463248Y-93451707D01*
X173463269Y-93451710D01*
X173463301Y-93451715D01*
X173470546Y-93452618D01*
X173470546Y-93452617D01*
X173470547Y-93452618D01*
X173521756Y-93450500D01*
X174255336Y-93450500D01*
X174322375Y-93470185D01*
X174368130Y-93522989D01*
X174378626Y-93561246D01*
X174380909Y-93582483D01*
X174431202Y-93717328D01*
X174431206Y-93717335D01*
X174517452Y-93832544D01*
X174517455Y-93832547D01*
X174632664Y-93918793D01*
X174632671Y-93918797D01*
X174767517Y-93969091D01*
X174767516Y-93969091D01*
X174774444Y-93969835D01*
X174827127Y-93975500D01*
X176172872Y-93975499D01*
X176232483Y-93969091D01*
X176367331Y-93918796D01*
X176482546Y-93832546D01*
X176568796Y-93717331D01*
X176619091Y-93582483D01*
X176625500Y-93522873D01*
X176625499Y-92677128D01*
X176619091Y-92617517D01*
X176616579Y-92610783D01*
X176568797Y-92482671D01*
X176568793Y-92482664D01*
X176482547Y-92367455D01*
X176482544Y-92367452D01*
X176367335Y-92281206D01*
X176367328Y-92281202D01*
X176232482Y-92230908D01*
X176232483Y-92230908D01*
X176172883Y-92224501D01*
X176172881Y-92224500D01*
X176172873Y-92224500D01*
X176172864Y-92224500D01*
X174827129Y-92224500D01*
X174827123Y-92224501D01*
X174767516Y-92230908D01*
X174632671Y-92281202D01*
X174632664Y-92281206D01*
X174517455Y-92367452D01*
X174517452Y-92367455D01*
X174431206Y-92482664D01*
X174431202Y-92482671D01*
X174380908Y-92617516D01*
X174378625Y-92638757D01*
X174351886Y-92703308D01*
X174294493Y-92743155D01*
X174255336Y-92749500D01*
X173732500Y-92749500D01*
X173665461Y-92729815D01*
X173619706Y-92677011D01*
X173608500Y-92625500D01*
X173608500Y-92171826D01*
X173608499Y-92171809D01*
X173602251Y-92113700D01*
X173579629Y-92053049D01*
X173553212Y-91982222D01*
X173545337Y-91971703D01*
X173524610Y-91944015D01*
X173469116Y-91869884D01*
X173388133Y-91809260D01*
X173356780Y-91785789D01*
X173356778Y-91785788D01*
X173330144Y-91775854D01*
X173225299Y-91736748D01*
X173167190Y-91730500D01*
X173167174Y-91730500D01*
X172573826Y-91730500D01*
X172573813Y-91730500D01*
X172572410Y-91730575D01*
X172572093Y-91730500D01*
X172570505Y-91730500D01*
X172570505Y-91730124D01*
X172504416Y-91714497D01*
X172455907Y-91664211D01*
X172442286Y-91595682D01*
X172467877Y-91530668D01*
X172478105Y-91519076D01*
X173702237Y-90294943D01*
X173763558Y-90261460D01*
X173789915Y-90258626D01*
X218087393Y-90260930D01*
X218154431Y-90280618D01*
X218175067Y-90297249D01*
X220563181Y-92685363D01*
X220596666Y-92746686D01*
X220599500Y-92773044D01*
X220599500Y-93248190D01*
X220605748Y-93306299D01*
X220638895Y-93395168D01*
X220654424Y-93436803D01*
X220654789Y-93437780D01*
X220665527Y-93452124D01*
X220738884Y-93550116D01*
X220819495Y-93610461D01*
X220838829Y-93624935D01*
X220851222Y-93634212D01*
X220943594Y-93668665D01*
X220982700Y-93683251D01*
X221040809Y-93689499D01*
X221040826Y-93689500D01*
X221634174Y-93689500D01*
X221634190Y-93689499D01*
X221692299Y-93683251D01*
X221692298Y-93683251D01*
X221823778Y-93634212D01*
X221936116Y-93550116D01*
X222020212Y-93437778D01*
X222069251Y-93306299D01*
X222069251Y-93306298D01*
X222075499Y-93248190D01*
X222424500Y-93248190D01*
X222430748Y-93306299D01*
X222463895Y-93395168D01*
X222479424Y-93436803D01*
X222479789Y-93437780D01*
X222490527Y-93452124D01*
X222563884Y-93550116D01*
X222644495Y-93610461D01*
X222663829Y-93624935D01*
X222676222Y-93634212D01*
X222768594Y-93668665D01*
X222807700Y-93683251D01*
X222865809Y-93689499D01*
X222865826Y-93689500D01*
X223459174Y-93689500D01*
X223459190Y-93689499D01*
X223517299Y-93683251D01*
X223517298Y-93683250D01*
X223648778Y-93634212D01*
X223761116Y-93550116D01*
X223845212Y-93437778D01*
X223846674Y-93433858D01*
X223861105Y-93395168D01*
X223902976Y-93339234D01*
X223968440Y-93314816D01*
X223977287Y-93314500D01*
X225250501Y-93314500D01*
X225317540Y-93334185D01*
X225363295Y-93386989D01*
X225374501Y-93438500D01*
X225374501Y-93522876D01*
X225380908Y-93582483D01*
X225431202Y-93717328D01*
X225431206Y-93717335D01*
X225517452Y-93832544D01*
X225517455Y-93832547D01*
X225632664Y-93918793D01*
X225632671Y-93918797D01*
X225767517Y-93969091D01*
X225767516Y-93969091D01*
X225774444Y-93969835D01*
X225827127Y-93975500D01*
X227172872Y-93975499D01*
X227232483Y-93969091D01*
X227367331Y-93918796D01*
X227482546Y-93832546D01*
X227568796Y-93717331D01*
X227619091Y-93582483D01*
X227625500Y-93522873D01*
X227625499Y-92677128D01*
X227619091Y-92617517D01*
X227616579Y-92610783D01*
X227568797Y-92482671D01*
X227568793Y-92482664D01*
X227482547Y-92367455D01*
X227482544Y-92367452D01*
X227367335Y-92281206D01*
X227367328Y-92281202D01*
X227232482Y-92230908D01*
X227232483Y-92230908D01*
X227172883Y-92224501D01*
X227172881Y-92224500D01*
X227172873Y-92224500D01*
X227172864Y-92224500D01*
X225827129Y-92224500D01*
X225827123Y-92224501D01*
X225767516Y-92230908D01*
X225632671Y-92281202D01*
X225632664Y-92281206D01*
X225517455Y-92367452D01*
X225517452Y-92367455D01*
X225431206Y-92482664D01*
X225431201Y-92482673D01*
X225412494Y-92532832D01*
X225370623Y-92588766D01*
X225305159Y-92613184D01*
X225296312Y-92613500D01*
X223977287Y-92613500D01*
X223910248Y-92593815D01*
X223864493Y-92541011D01*
X223861105Y-92532832D01*
X223845214Y-92490226D01*
X223845212Y-92490222D01*
X223821615Y-92458701D01*
X223761116Y-92377884D01*
X223690477Y-92325004D01*
X223648780Y-92293789D01*
X223648778Y-92293788D01*
X223591097Y-92272274D01*
X223517299Y-92244748D01*
X223459190Y-92238500D01*
X223459174Y-92238500D01*
X222865826Y-92238500D01*
X222865809Y-92238500D01*
X222807700Y-92244748D01*
X222676219Y-92293789D01*
X222563884Y-92377884D01*
X222479789Y-92490219D01*
X222430748Y-92621700D01*
X222424500Y-92679809D01*
X222424500Y-93248190D01*
X222075499Y-93248190D01*
X222075500Y-93248173D01*
X222075500Y-92679826D01*
X222075499Y-92679809D01*
X222069251Y-92621700D01*
X222043249Y-92551988D01*
X222020212Y-92490222D01*
X221936116Y-92377884D01*
X221865477Y-92325004D01*
X221823780Y-92293789D01*
X221823778Y-92293788D01*
X221766097Y-92272274D01*
X221692299Y-92244748D01*
X221634190Y-92238500D01*
X221634174Y-92238500D01*
X221159044Y-92238500D01*
X221092005Y-92218815D01*
X221071363Y-92202181D01*
X218891838Y-90022656D01*
X218858353Y-89961333D01*
X218863337Y-89891641D01*
X218905209Y-89835708D01*
X218970673Y-89811291D01*
X218979509Y-89810975D01*
X263024809Y-89813266D01*
G37*
%TD.AperFunction*%
%TA.AperFunction,Conductor*%
G36*
X23492495Y-90413185D02*
G01*
X23513137Y-90429819D01*
X24068319Y-90985001D01*
X24101804Y-91046324D01*
X24096820Y-91116016D01*
X24054948Y-91171949D01*
X23989484Y-91196366D01*
X23980638Y-91196682D01*
X23056024Y-91196682D01*
X23030579Y-91194043D01*
X23021503Y-91192140D01*
X23021500Y-91192140D01*
X22988886Y-91196205D01*
X22981210Y-91196682D01*
X22977778Y-91196682D01*
X22963437Y-91199074D01*
X22956266Y-91200271D01*
X22946408Y-91201500D01*
X22905425Y-91206609D01*
X22905424Y-91206609D01*
X22905419Y-91206610D01*
X22898393Y-91208701D01*
X22891441Y-91211088D01*
X22891437Y-91211089D01*
X22891437Y-91211090D01*
X22871752Y-91221743D01*
X22846373Y-91235477D01*
X22800330Y-91257985D01*
X22794384Y-91262230D01*
X22788560Y-91266763D01*
X22753860Y-91304457D01*
X22243222Y-91815095D01*
X22239452Y-91818565D01*
X22207840Y-91845341D01*
X22186635Y-91880927D01*
X22183832Y-91885216D01*
X22159761Y-91918930D01*
X22158901Y-91920689D01*
X22148670Y-91944015D01*
X22147962Y-91945831D01*
X22139460Y-91986371D01*
X22138203Y-91991337D01*
X22126383Y-92031042D01*
X22126141Y-92032982D01*
X22124036Y-92058387D01*
X22123956Y-92060313D01*
X22127054Y-92085162D01*
X22115813Y-92154122D01*
X22069074Y-92206057D01*
X22004007Y-92224500D01*
X21827130Y-92224500D01*
X21827123Y-92224501D01*
X21767516Y-92230908D01*
X21632671Y-92281202D01*
X21632664Y-92281206D01*
X21517455Y-92367452D01*
X21517452Y-92367455D01*
X21431206Y-92482664D01*
X21431201Y-92482674D01*
X21417813Y-92518568D01*
X21375941Y-92574501D01*
X21310476Y-92598917D01*
X21242204Y-92584064D01*
X21194899Y-92538353D01*
X21156316Y-92473111D01*
X21156311Y-92473105D01*
X21046894Y-92363688D01*
X21046885Y-92363682D01*
X20913684Y-92284907D01*
X20913681Y-92284906D01*
X20765084Y-92241734D01*
X20765073Y-92241732D01*
X20730357Y-92239000D01*
X20706000Y-92239000D01*
X20706000Y-93688999D01*
X20730353Y-93688999D01*
X20765078Y-93686266D01*
X20913681Y-93643093D01*
X20913684Y-93643092D01*
X21046885Y-93564317D01*
X21046894Y-93564311D01*
X21161833Y-93449373D01*
X21163779Y-93451319D01*
X21209737Y-93418118D01*
X21279504Y-93414318D01*
X21340249Y-93448839D01*
X21372688Y-93510722D01*
X21374382Y-93521766D01*
X21380908Y-93582483D01*
X21431202Y-93717328D01*
X21431206Y-93717335D01*
X21517452Y-93832544D01*
X21517455Y-93832547D01*
X21632664Y-93918793D01*
X21632671Y-93918797D01*
X21767517Y-93969091D01*
X21767516Y-93969091D01*
X21774444Y-93969835D01*
X21827127Y-93975500D01*
X23172872Y-93975499D01*
X23187242Y-93973954D01*
X23256001Y-93986357D01*
X23307140Y-94033966D01*
X23324500Y-94097243D01*
X23324500Y-94528455D01*
X23304815Y-94595494D01*
X23288181Y-94616136D01*
X22916135Y-94988181D01*
X22854812Y-95021666D01*
X22828454Y-95024500D01*
X21827129Y-95024500D01*
X21827123Y-95024501D01*
X21767516Y-95030908D01*
X21632671Y-95081202D01*
X21632664Y-95081206D01*
X21517455Y-95167452D01*
X21517452Y-95167455D01*
X21431206Y-95282664D01*
X21431202Y-95282671D01*
X21380908Y-95417517D01*
X21374657Y-95475666D01*
X21374501Y-95477123D01*
X21374500Y-95477135D01*
X21374500Y-95694217D01*
X21354815Y-95761256D01*
X21302011Y-95807011D01*
X21232853Y-95816955D01*
X21169297Y-95787930D01*
X21162113Y-95780346D01*
X21161833Y-95780627D01*
X21046894Y-95665688D01*
X21046885Y-95665682D01*
X20913684Y-95586907D01*
X20913681Y-95586906D01*
X20765084Y-95543734D01*
X20765073Y-95543732D01*
X20730357Y-95541000D01*
X20706000Y-95541000D01*
X20706000Y-96990999D01*
X20730353Y-96990999D01*
X20765078Y-96988266D01*
X20913681Y-96945093D01*
X20913684Y-96945092D01*
X21020640Y-96881839D01*
X21088364Y-96864656D01*
X21129688Y-96878476D01*
X21122814Y-96823447D01*
X21151695Y-96763181D01*
X21151533Y-96763055D01*
X21152117Y-96762301D01*
X21153010Y-96760439D01*
X21156035Y-96757250D01*
X21156317Y-96756885D01*
X21235092Y-96623685D01*
X21242823Y-96597074D01*
X21280428Y-96538188D01*
X21343900Y-96508980D01*
X21413087Y-96518725D01*
X21461166Y-96557356D01*
X21503719Y-96614199D01*
X21517454Y-96632546D01*
X21526564Y-96639365D01*
X21568433Y-96695297D01*
X21573418Y-96764988D01*
X21539934Y-96826312D01*
X21491257Y-96856336D01*
X21424524Y-96878449D01*
X21424513Y-96878454D01*
X21310301Y-96948902D01*
X21242908Y-96967342D01*
X21199716Y-96953786D01*
X21205759Y-97010762D01*
X21174395Y-97073196D01*
X21171445Y-97076250D01*
X21160424Y-97087270D01*
X21160424Y-97087271D01*
X21071457Y-97231507D01*
X21071452Y-97231518D01*
X21018144Y-97392393D01*
X21008000Y-97491677D01*
X21008000Y-97540000D01*
X22084000Y-97540000D01*
X22151039Y-97559685D01*
X22196794Y-97612489D01*
X22208000Y-97664000D01*
X22208000Y-97916000D01*
X22188315Y-97983039D01*
X22135511Y-98028794D01*
X22084000Y-98040000D01*
X21008001Y-98040000D01*
X21002181Y-98045819D01*
X20988316Y-98093039D01*
X20935512Y-98138794D01*
X20884001Y-98150000D01*
X20749014Y-98150000D01*
X20595634Y-98187803D01*
X20595633Y-98187804D01*
X20575124Y-98198568D01*
X20506616Y-98212292D01*
X20441563Y-98186799D01*
X20400620Y-98130183D01*
X20393500Y-98088771D01*
X20393500Y-98055227D01*
X20391919Y-98035139D01*
X20390682Y-98019426D01*
X20346168Y-97866208D01*
X20337765Y-97852000D01*
X20303342Y-97793793D01*
X20264949Y-97728873D01*
X20264947Y-97728871D01*
X20264944Y-97728867D01*
X20152132Y-97616055D01*
X20152124Y-97616049D01*
X20014793Y-97534832D01*
X20014787Y-97534830D01*
X19861580Y-97490319D01*
X19861569Y-97490317D01*
X19825773Y-97487500D01*
X19825770Y-97487500D01*
X18855500Y-97487500D01*
X18788461Y-97467815D01*
X18742706Y-97415011D01*
X18731500Y-97363500D01*
X18731500Y-96778144D01*
X18751185Y-96711105D01*
X18775440Y-96685636D01*
X18775082Y-96685278D01*
X18868011Y-96592348D01*
X18868010Y-96592348D01*
X18868012Y-96592347D01*
X18917557Y-96491001D01*
X19688358Y-96491001D01*
X19726906Y-96623681D01*
X19726907Y-96623684D01*
X19805682Y-96756885D01*
X19805688Y-96756894D01*
X19915105Y-96866311D01*
X19915114Y-96866317D01*
X20048315Y-96945092D01*
X20048318Y-96945093D01*
X20196915Y-96988265D01*
X20196927Y-96988267D01*
X20231644Y-96991000D01*
X20231645Y-96991000D01*
X20256000Y-96990999D01*
X20256000Y-96491000D01*
X19688360Y-96491000D01*
X19688358Y-96491001D01*
X18917557Y-96491001D01*
X18921220Y-96483509D01*
X18931500Y-96412949D01*
X18931499Y-96119052D01*
X18930036Y-96109012D01*
X18921220Y-96048493D01*
X18921220Y-96048491D01*
X18917557Y-96040998D01*
X19688358Y-96040998D01*
X19688360Y-96041000D01*
X20256000Y-96041000D01*
X20256000Y-95541000D01*
X20231647Y-95541001D01*
X20196921Y-95543733D01*
X20048318Y-95586906D01*
X20048315Y-95586907D01*
X19915114Y-95665682D01*
X19915105Y-95665688D01*
X19805688Y-95775105D01*
X19805682Y-95775114D01*
X19726907Y-95908315D01*
X19726906Y-95908318D01*
X19688358Y-96040998D01*
X18917557Y-96040998D01*
X18868012Y-95939653D01*
X18868010Y-95939651D01*
X18868010Y-95939650D01*
X18782348Y-95853988D01*
X18673511Y-95800780D01*
X18655869Y-95798210D01*
X18602949Y-95790500D01*
X18602943Y-95790500D01*
X18159049Y-95790500D01*
X18088493Y-95800779D01*
X18088490Y-95800780D01*
X18088491Y-95800780D01*
X18000201Y-95843943D01*
X17978960Y-95854327D01*
X17910087Y-95866086D01*
X17845790Y-95838742D01*
X17806483Y-95780978D01*
X17800500Y-95742926D01*
X17800500Y-93487073D01*
X17820185Y-93420034D01*
X17872989Y-93374279D01*
X17942147Y-93364335D01*
X17978961Y-93375673D01*
X17979651Y-93376010D01*
X17979653Y-93376012D01*
X18044665Y-93407795D01*
X18088488Y-93429219D01*
X18088489Y-93429219D01*
X18088491Y-93429220D01*
X18159051Y-93439500D01*
X18602948Y-93439499D01*
X18602950Y-93439499D01*
X18631172Y-93435387D01*
X18673509Y-93429220D01*
X18782347Y-93376012D01*
X18868012Y-93290347D01*
X18917557Y-93189001D01*
X19688358Y-93189001D01*
X19726906Y-93321681D01*
X19726907Y-93321684D01*
X19805682Y-93454885D01*
X19805688Y-93454894D01*
X19915105Y-93564311D01*
X19915114Y-93564317D01*
X20048315Y-93643092D01*
X20048318Y-93643093D01*
X20196915Y-93686265D01*
X20196927Y-93686267D01*
X20231644Y-93689000D01*
X20231645Y-93689000D01*
X20256000Y-93688999D01*
X20256000Y-93189000D01*
X19688360Y-93189000D01*
X19688358Y-93189001D01*
X18917557Y-93189001D01*
X18921220Y-93181509D01*
X18931500Y-93110949D01*
X18931499Y-92817052D01*
X18929061Y-92800318D01*
X18923953Y-92765253D01*
X18921220Y-92746491D01*
X18917557Y-92738998D01*
X19688358Y-92738998D01*
X19688360Y-92739000D01*
X20256000Y-92739000D01*
X20256000Y-92239000D01*
X20231647Y-92239001D01*
X20196921Y-92241733D01*
X20048318Y-92284906D01*
X20048315Y-92284907D01*
X19915114Y-92363682D01*
X19915105Y-92363688D01*
X19805688Y-92473105D01*
X19805682Y-92473114D01*
X19726907Y-92606315D01*
X19726906Y-92606318D01*
X19688358Y-92738998D01*
X18917557Y-92738998D01*
X18868012Y-92637653D01*
X18868010Y-92637651D01*
X18868010Y-92637650D01*
X18775082Y-92544722D01*
X18776230Y-92543573D01*
X18740325Y-92497801D01*
X18731500Y-92451860D01*
X18731500Y-91636500D01*
X18751185Y-91569460D01*
X18803989Y-91523706D01*
X18855500Y-91512500D01*
X19825773Y-91512500D01*
X19839196Y-91511443D01*
X19861574Y-91509682D01*
X20014792Y-91465168D01*
X20152127Y-91383949D01*
X20264949Y-91271127D01*
X20346168Y-91133792D01*
X20365116Y-91068572D01*
X20373445Y-91039905D01*
X20411051Y-90981019D01*
X20474523Y-90951813D01*
X20492521Y-90950500D01*
X20760906Y-90950500D01*
X20767844Y-90950889D01*
X20799739Y-90954483D01*
X20806723Y-90955270D01*
X20806723Y-90955269D01*
X20806724Y-90955270D01*
X20865168Y-90944211D01*
X20923976Y-90935348D01*
X20923979Y-90935346D01*
X20932136Y-90932830D01*
X20940158Y-90930023D01*
X20940161Y-90930023D01*
X20992761Y-90902222D01*
X21046331Y-90876425D01*
X21046333Y-90876422D01*
X21053173Y-90871760D01*
X21119652Y-90850258D01*
X21123027Y-90850212D01*
X21168962Y-90850212D01*
X21322342Y-90812408D01*
X21326581Y-90810183D01*
X21462217Y-90738995D01*
X21580460Y-90634242D01*
X21670197Y-90504235D01*
X21681842Y-90473528D01*
X21724020Y-90417826D01*
X21789618Y-90393769D01*
X21797784Y-90393500D01*
X23425456Y-90393500D01*
X23492495Y-90413185D01*
G37*
%TD.AperFunction*%
%TA.AperFunction,Conductor*%
G36*
X38097495Y-90413185D02*
G01*
X38118137Y-90429819D01*
X39110181Y-91421863D01*
X39143666Y-91483186D01*
X39146500Y-91509544D01*
X39146500Y-92100500D01*
X39126815Y-92167539D01*
X39074011Y-92213294D01*
X39022501Y-92224500D01*
X38827130Y-92224500D01*
X38827123Y-92224501D01*
X38767516Y-92230908D01*
X38632671Y-92281202D01*
X38632664Y-92281206D01*
X38517455Y-92367452D01*
X38517452Y-92367455D01*
X38431206Y-92482664D01*
X38431202Y-92482671D01*
X38380908Y-92617517D01*
X38374512Y-92677011D01*
X38374501Y-92677123D01*
X38374500Y-92677135D01*
X38374500Y-93522870D01*
X38374501Y-93522876D01*
X38380908Y-93582483D01*
X38431202Y-93717328D01*
X38431206Y-93717335D01*
X38517452Y-93832544D01*
X38517455Y-93832547D01*
X38632664Y-93918793D01*
X38632671Y-93918797D01*
X38767517Y-93969091D01*
X38767516Y-93969091D01*
X38774444Y-93969835D01*
X38827127Y-93975500D01*
X40172872Y-93975499D01*
X40232483Y-93969091D01*
X40367331Y-93918796D01*
X40482546Y-93832546D01*
X40568796Y-93717331D01*
X40619091Y-93582483D01*
X40625500Y-93522873D01*
X40625499Y-92677128D01*
X40619091Y-92617517D01*
X40616579Y-92610783D01*
X40568797Y-92482671D01*
X40568793Y-92482664D01*
X40482547Y-92367455D01*
X40482544Y-92367452D01*
X40367335Y-92281206D01*
X40367328Y-92281202D01*
X40232482Y-92230908D01*
X40232483Y-92230908D01*
X40172883Y-92224501D01*
X40172881Y-92224500D01*
X40172873Y-92224500D01*
X40172865Y-92224500D01*
X39971500Y-92224500D01*
X39904461Y-92204815D01*
X39858706Y-92152011D01*
X39847500Y-92100500D01*
X39847500Y-91462144D01*
X39867185Y-91395105D01*
X39919989Y-91349350D01*
X39989147Y-91339406D01*
X40029126Y-91352348D01*
X40153634Y-91417696D01*
X40307014Y-91455500D01*
X40307015Y-91455500D01*
X40464985Y-91455500D01*
X40618365Y-91417696D01*
X40618365Y-91417695D01*
X40758240Y-91344283D01*
X40876483Y-91239530D01*
X40966220Y-91109523D01*
X41022237Y-90961818D01*
X41031739Y-90883554D01*
X41059362Y-90819376D01*
X41117296Y-90780319D01*
X41154836Y-90774500D01*
X45777456Y-90774500D01*
X45844495Y-90794185D01*
X45865137Y-90810819D01*
X46499137Y-91444819D01*
X46532622Y-91506142D01*
X46527638Y-91575834D01*
X46485766Y-91631767D01*
X46420302Y-91656184D01*
X46411456Y-91656500D01*
X46165323Y-91656500D01*
X46092264Y-91671032D01*
X46092260Y-91671033D01*
X46009399Y-91726399D01*
X45954033Y-91809260D01*
X45954032Y-91809264D01*
X45939500Y-91882321D01*
X45939500Y-93160455D01*
X45919815Y-93227494D01*
X45903181Y-93248135D01*
X45838273Y-93313044D01*
X45776955Y-93374362D01*
X45757106Y-93390482D01*
X45749331Y-93395562D01*
X45729143Y-93421498D01*
X45724067Y-93427248D01*
X45721634Y-93429681D01*
X45721623Y-93429694D01*
X45708954Y-93447438D01*
X45677483Y-93487872D01*
X45673975Y-93494353D01*
X45670760Y-93500932D01*
X45656138Y-93550045D01*
X45639498Y-93598516D01*
X45638294Y-93605733D01*
X45637382Y-93613046D01*
X45639500Y-93664230D01*
X45639500Y-94932500D01*
X45619815Y-94999539D01*
X45567011Y-95045294D01*
X45515500Y-95056500D01*
X45365323Y-95056500D01*
X45292264Y-95071032D01*
X45292260Y-95071033D01*
X45209399Y-95126399D01*
X45154033Y-95209260D01*
X45154032Y-95209264D01*
X45139500Y-95282321D01*
X45139500Y-96332500D01*
X45119815Y-96399539D01*
X45067011Y-96445294D01*
X45015500Y-96456500D01*
X44552544Y-96456500D01*
X44485505Y-96436815D01*
X44464863Y-96420181D01*
X44455819Y-96411137D01*
X44422334Y-96349814D01*
X44419500Y-96323456D01*
X44419500Y-93751711D01*
X44422139Y-93726264D01*
X44422338Y-93725315D01*
X44424043Y-93717185D01*
X44421283Y-93695042D01*
X44419977Y-93684561D01*
X44419500Y-93676885D01*
X44419500Y-93673460D01*
X44415912Y-93651958D01*
X44413075Y-93629199D01*
X44409573Y-93601107D01*
X44409571Y-93601103D01*
X44407502Y-93594153D01*
X44407470Y-93594059D01*
X44407444Y-93593972D01*
X44405091Y-93587117D01*
X44380704Y-93542055D01*
X44358199Y-93496018D01*
X44353919Y-93490024D01*
X44349419Y-93484243D01*
X44348379Y-93483286D01*
X44339920Y-93475498D01*
X44311724Y-93449541D01*
X43941819Y-93079636D01*
X43908334Y-93018313D01*
X43905500Y-92991955D01*
X43905500Y-92516826D01*
X43905499Y-92516809D01*
X43899251Y-92458700D01*
X43865218Y-92367455D01*
X43850212Y-92327222D01*
X43848552Y-92325005D01*
X43818534Y-92284906D01*
X43766116Y-92214884D01*
X43689234Y-92157330D01*
X43653780Y-92130789D01*
X43653778Y-92130788D01*
X43618197Y-92117517D01*
X43522299Y-92081748D01*
X43464190Y-92075500D01*
X43464174Y-92075500D01*
X42895826Y-92075500D01*
X42895809Y-92075500D01*
X42837700Y-92081748D01*
X42706219Y-92130789D01*
X42593884Y-92214884D01*
X42509789Y-92327219D01*
X42460748Y-92458700D01*
X42454500Y-92516809D01*
X42454500Y-93110190D01*
X42460748Y-93168299D01*
X42495821Y-93262332D01*
X42506270Y-93290347D01*
X42509789Y-93299780D01*
X42535545Y-93334185D01*
X42593884Y-93412116D01*
X42678552Y-93475498D01*
X42704458Y-93494892D01*
X42706222Y-93496212D01*
X42798594Y-93530665D01*
X42837700Y-93545251D01*
X42895809Y-93551499D01*
X42895826Y-93551500D01*
X43370957Y-93551500D01*
X43437996Y-93571185D01*
X43458638Y-93587819D01*
X43559890Y-93689071D01*
X43593375Y-93750394D01*
X43588391Y-93820086D01*
X43546519Y-93876019D01*
X43481055Y-93900436D01*
X43465590Y-93900575D01*
X43464187Y-93900500D01*
X43464174Y-93900500D01*
X42895826Y-93900500D01*
X42895809Y-93900500D01*
X42837700Y-93906748D01*
X42706219Y-93955789D01*
X42593884Y-94039884D01*
X42509789Y-94152219D01*
X42509787Y-94152222D01*
X42509788Y-94152222D01*
X42489231Y-94207335D01*
X42447361Y-94263267D01*
X42381897Y-94287684D01*
X42373051Y-94288000D01*
X37727500Y-94288000D01*
X37660461Y-94268315D01*
X37614706Y-94215511D01*
X37603500Y-94164000D01*
X37603499Y-92022133D01*
X37603498Y-92022125D01*
X37603497Y-92022114D01*
X37600786Y-91996885D01*
X37599209Y-91982219D01*
X37597091Y-91962515D01*
X37559183Y-91860880D01*
X37546797Y-91827670D01*
X37546795Y-91827667D01*
X37541940Y-91821181D01*
X37460547Y-91712453D01*
X37345332Y-91626204D01*
X37345329Y-91626202D01*
X37210489Y-91575910D01*
X37210482Y-91575908D01*
X37150885Y-91569501D01*
X37150883Y-91569500D01*
X37150875Y-91569500D01*
X37150873Y-91569500D01*
X37150871Y-91569500D01*
X33800878Y-91569500D01*
X33800873Y-91569500D01*
X31155129Y-91569500D01*
X31154794Y-91569500D01*
X31153459Y-91569680D01*
X31095514Y-91575909D01*
X30960670Y-91626202D01*
X30960667Y-91626204D01*
X30845453Y-91712453D01*
X30759204Y-91827667D01*
X30759202Y-91827670D01*
X30708910Y-91962510D01*
X30708908Y-91962517D01*
X30702501Y-92022114D01*
X30702500Y-92022133D01*
X30702500Y-95072127D01*
X30702501Y-96250500D01*
X30702501Y-97417875D01*
X30704046Y-97432246D01*
X30691639Y-97501005D01*
X30644029Y-97552142D01*
X30580756Y-97569500D01*
X29536544Y-97569500D01*
X29469505Y-97549815D01*
X29448863Y-97533181D01*
X29239818Y-97324136D01*
X29206333Y-97262813D01*
X29203499Y-97236455D01*
X29203499Y-96602129D01*
X29203498Y-96602123D01*
X29202955Y-96597074D01*
X29197091Y-96542517D01*
X29195476Y-96538188D01*
X29146797Y-96407671D01*
X29146793Y-96407664D01*
X29060547Y-96292455D01*
X29060544Y-96292452D01*
X28945335Y-96206206D01*
X28945328Y-96206202D01*
X28810482Y-96155908D01*
X28810483Y-96155908D01*
X28750883Y-96149501D01*
X28750881Y-96149500D01*
X28750873Y-96149500D01*
X28750864Y-96149500D01*
X26955129Y-96149500D01*
X26955123Y-96149501D01*
X26895516Y-96155908D01*
X26760671Y-96206202D01*
X26760664Y-96206206D01*
X26645455Y-96292452D01*
X26645452Y-96292455D01*
X26559203Y-96407668D01*
X26555991Y-96413551D01*
X26506582Y-96462954D01*
X26438308Y-96477802D01*
X26372846Y-96453381D01*
X26359481Y-96441799D01*
X25784818Y-95867136D01*
X25751333Y-95805813D01*
X25748499Y-95779455D01*
X25748499Y-95629049D01*
X25738220Y-95558493D01*
X25738220Y-95558491D01*
X25685012Y-95449653D01*
X25659816Y-95424457D01*
X25626333Y-95363134D01*
X25623500Y-95336778D01*
X25623500Y-93512221D01*
X25643185Y-93445182D01*
X25659817Y-93424542D01*
X25685012Y-93399347D01*
X25738220Y-93290509D01*
X25748500Y-93219949D01*
X25748499Y-93108357D01*
X25768183Y-93041320D01*
X25820987Y-92995565D01*
X25890145Y-92985621D01*
X25953701Y-93014645D01*
X25960180Y-93020678D01*
X26492543Y-93553041D01*
X26508667Y-93572896D01*
X26513746Y-93580669D01*
X26539692Y-93600863D01*
X26545455Y-93605953D01*
X26547877Y-93608375D01*
X26547878Y-93608376D01*
X26565612Y-93621037D01*
X26606058Y-93652518D01*
X26612478Y-93655992D01*
X26612527Y-93656016D01*
X26612573Y-93656041D01*
X26619115Y-93659239D01*
X26619116Y-93659239D01*
X26619117Y-93659240D01*
X26633261Y-93663451D01*
X26668228Y-93673862D01*
X26713779Y-93689499D01*
X26716695Y-93690500D01*
X26716698Y-93690500D01*
X26723808Y-93691687D01*
X26723914Y-93691700D01*
X26724038Y-93691720D01*
X26731229Y-93692617D01*
X26782414Y-93690500D01*
X28881606Y-93690500D01*
X28907051Y-93693138D01*
X28916132Y-93695043D01*
X28931822Y-93693087D01*
X28948756Y-93690977D01*
X28956432Y-93690500D01*
X28959852Y-93690500D01*
X28959857Y-93690500D01*
X28963425Y-93689904D01*
X28981356Y-93686913D01*
X29010726Y-93683251D01*
X29032210Y-93680573D01*
X29032219Y-93680568D01*
X29039268Y-93678470D01*
X29046194Y-93676092D01*
X29046198Y-93676092D01*
X29091261Y-93651704D01*
X29137301Y-93629198D01*
X29137304Y-93629194D01*
X29143270Y-93624935D01*
X29149071Y-93620419D01*
X29149075Y-93620418D01*
X29183774Y-93582724D01*
X29980046Y-92786451D01*
X29999902Y-92770328D01*
X30007669Y-92765254D01*
X30027873Y-92739294D01*
X30032941Y-92733556D01*
X30035375Y-92731124D01*
X30035380Y-92731117D01*
X30048040Y-92713384D01*
X30059766Y-92698318D01*
X30079517Y-92672943D01*
X30079520Y-92672933D01*
X30083006Y-92666492D01*
X30086235Y-92659887D01*
X30086239Y-92659883D01*
X30100856Y-92610783D01*
X30117500Y-92562305D01*
X30117500Y-92562299D01*
X30118692Y-92555159D01*
X30118701Y-92555089D01*
X30118714Y-92555008D01*
X30119617Y-92547769D01*
X30117500Y-92496587D01*
X30117500Y-91080683D01*
X30137185Y-91013644D01*
X30153819Y-90993002D01*
X30717003Y-90429819D01*
X30778326Y-90396334D01*
X30804684Y-90393500D01*
X38030456Y-90393500D01*
X38097495Y-90413185D01*
G37*
%TD.AperFunction*%
%TA.AperFunction,Conductor*%
G36*
X42440090Y-95008685D02*
G01*
X42485845Y-95061489D01*
X42489226Y-95069650D01*
X42505395Y-95113000D01*
X42509789Y-95124780D01*
X42534796Y-95158185D01*
X42593884Y-95237116D01*
X42654738Y-95282671D01*
X42697755Y-95314874D01*
X42706222Y-95321212D01*
X42783891Y-95350181D01*
X42837700Y-95370251D01*
X42895809Y-95376499D01*
X42895826Y-95376500D01*
X43464174Y-95376500D01*
X43464190Y-95376499D01*
X43490140Y-95373708D01*
X43522299Y-95370251D01*
X43522302Y-95370250D01*
X43551165Y-95359485D01*
X43620857Y-95354500D01*
X43682181Y-95387984D01*
X43715666Y-95449307D01*
X43718500Y-95475666D01*
X43718500Y-96470788D01*
X43715861Y-96496232D01*
X43713957Y-96505311D01*
X43713957Y-96505317D01*
X43718023Y-96537937D01*
X43718500Y-96545614D01*
X43718500Y-96549040D01*
X43720891Y-96563373D01*
X43722087Y-96570541D01*
X43728427Y-96621393D01*
X43730520Y-96628426D01*
X43732908Y-96635381D01*
X43757295Y-96680444D01*
X43779801Y-96726483D01*
X43787503Y-96737270D01*
X43791554Y-96743755D01*
X43793433Y-96747223D01*
X43790166Y-96748993D01*
X43808841Y-96796374D01*
X43795251Y-96864910D01*
X43746765Y-96915218D01*
X43685341Y-96931500D01*
X41078544Y-96931500D01*
X41011505Y-96911815D01*
X40990863Y-96895181D01*
X40637156Y-96541474D01*
X40603671Y-96480151D01*
X40608654Y-96410463D01*
X40619091Y-96382483D01*
X40625500Y-96322873D01*
X40625499Y-95477128D01*
X40619091Y-95417517D01*
X40613981Y-95403817D01*
X40568797Y-95282671D01*
X40568795Y-95282668D01*
X40560435Y-95271500D01*
X40497410Y-95187310D01*
X40472993Y-95121848D01*
X40487844Y-95053574D01*
X40537249Y-95004169D01*
X40596677Y-94989000D01*
X42373051Y-94989000D01*
X42440090Y-95008685D01*
G37*
%TD.AperFunction*%
%TD*%
M02*
