%TF.GenerationSoftware,KiCad,Pcbnew,8.0.2*%
%TF.CreationDate,2024-10-13T21:39:52+02:00*%
%TF.ProjectId,OS-RelayDecoder-8,4f532d52-656c-4617-9944-65636f646572,rev?*%
%TF.SameCoordinates,Original*%
%TF.FileFunction,Other,Comment*%
%FSLAX46Y46*%
G04 Gerber Fmt 4.6, Leading zero omitted, Abs format (unit mm)*
G04 Created by KiCad (PCBNEW 8.0.2) date 2024-10-13 21:39:52*
%MOMM*%
%LPD*%
G01*
G04 APERTURE LIST*
%ADD10C,0.030000*%
%ADD11C,0.150000*%
G04 APERTURE END LIST*
D10*
X71285715Y-125239963D02*
X71285715Y-125039963D01*
X71400000Y-125239963D02*
X71314286Y-125125678D01*
X71400000Y-125039963D02*
X71285715Y-125154249D01*
X71485715Y-125135201D02*
X71552381Y-125135201D01*
X71580953Y-125239963D02*
X71485715Y-125239963D01*
X71485715Y-125239963D02*
X71485715Y-125039963D01*
X71485715Y-125039963D02*
X71580953Y-125039963D01*
X71666667Y-125135201D02*
X71733333Y-125135201D01*
X71761905Y-125239963D02*
X71666667Y-125239963D01*
X71666667Y-125239963D02*
X71666667Y-125039963D01*
X71666667Y-125039963D02*
X71761905Y-125039963D01*
X71847619Y-125239963D02*
X71847619Y-125039963D01*
X71847619Y-125039963D02*
X71923809Y-125039963D01*
X71923809Y-125039963D02*
X71942857Y-125049487D01*
X71942857Y-125049487D02*
X71952380Y-125059011D01*
X71952380Y-125059011D02*
X71961904Y-125078059D01*
X71961904Y-125078059D02*
X71961904Y-125106630D01*
X71961904Y-125106630D02*
X71952380Y-125125678D01*
X71952380Y-125125678D02*
X71942857Y-125135201D01*
X71942857Y-125135201D02*
X71923809Y-125144725D01*
X71923809Y-125144725D02*
X71847619Y-125144725D01*
X72047619Y-125163773D02*
X72200000Y-125163773D01*
X72333333Y-125039963D02*
X72371428Y-125039963D01*
X72371428Y-125039963D02*
X72390476Y-125049487D01*
X72390476Y-125049487D02*
X72409523Y-125068535D01*
X72409523Y-125068535D02*
X72419047Y-125106630D01*
X72419047Y-125106630D02*
X72419047Y-125173297D01*
X72419047Y-125173297D02*
X72409523Y-125211392D01*
X72409523Y-125211392D02*
X72390476Y-125230440D01*
X72390476Y-125230440D02*
X72371428Y-125239963D01*
X72371428Y-125239963D02*
X72333333Y-125239963D01*
X72333333Y-125239963D02*
X72314285Y-125230440D01*
X72314285Y-125230440D02*
X72295238Y-125211392D01*
X72295238Y-125211392D02*
X72285714Y-125173297D01*
X72285714Y-125173297D02*
X72285714Y-125106630D01*
X72285714Y-125106630D02*
X72295238Y-125068535D01*
X72295238Y-125068535D02*
X72314285Y-125049487D01*
X72314285Y-125049487D02*
X72333333Y-125039963D01*
X72504762Y-125039963D02*
X72504762Y-125201868D01*
X72504762Y-125201868D02*
X72514285Y-125220916D01*
X72514285Y-125220916D02*
X72523809Y-125230440D01*
X72523809Y-125230440D02*
X72542857Y-125239963D01*
X72542857Y-125239963D02*
X72580952Y-125239963D01*
X72580952Y-125239963D02*
X72600000Y-125230440D01*
X72600000Y-125230440D02*
X72609523Y-125220916D01*
X72609523Y-125220916D02*
X72619047Y-125201868D01*
X72619047Y-125201868D02*
X72619047Y-125039963D01*
X72685714Y-125039963D02*
X72800000Y-125039963D01*
X72742857Y-125239963D02*
X72742857Y-125039963D01*
X73000000Y-125039963D02*
X73133333Y-125039963D01*
X73133333Y-125039963D02*
X73000000Y-125239963D01*
X73000000Y-125239963D02*
X73133333Y-125239963D01*
X73247619Y-125039963D02*
X73285714Y-125039963D01*
X73285714Y-125039963D02*
X73304762Y-125049487D01*
X73304762Y-125049487D02*
X73323809Y-125068535D01*
X73323809Y-125068535D02*
X73333333Y-125106630D01*
X73333333Y-125106630D02*
X73333333Y-125173297D01*
X73333333Y-125173297D02*
X73323809Y-125211392D01*
X73323809Y-125211392D02*
X73304762Y-125230440D01*
X73304762Y-125230440D02*
X73285714Y-125239963D01*
X73285714Y-125239963D02*
X73247619Y-125239963D01*
X73247619Y-125239963D02*
X73228571Y-125230440D01*
X73228571Y-125230440D02*
X73209524Y-125211392D01*
X73209524Y-125211392D02*
X73200000Y-125173297D01*
X73200000Y-125173297D02*
X73200000Y-125106630D01*
X73200000Y-125106630D02*
X73209524Y-125068535D01*
X73209524Y-125068535D02*
X73228571Y-125049487D01*
X73228571Y-125049487D02*
X73247619Y-125039963D01*
X73419048Y-125239963D02*
X73419048Y-125039963D01*
X73419048Y-125039963D02*
X73533333Y-125239963D01*
X73533333Y-125239963D02*
X73533333Y-125039963D01*
X73628572Y-125135201D02*
X73695238Y-125135201D01*
X73723810Y-125239963D02*
X73628572Y-125239963D01*
X73628572Y-125239963D02*
X73628572Y-125039963D01*
X73628572Y-125039963D02*
X73723810Y-125039963D01*
X71419047Y-125639963D02*
X71419047Y-125439963D01*
X71419047Y-125439963D02*
X71533332Y-125639963D01*
X71533332Y-125639963D02*
X71533332Y-125439963D01*
X71657142Y-125639963D02*
X71638094Y-125630440D01*
X71638094Y-125630440D02*
X71628571Y-125620916D01*
X71628571Y-125620916D02*
X71619047Y-125601868D01*
X71619047Y-125601868D02*
X71619047Y-125544725D01*
X71619047Y-125544725D02*
X71628571Y-125525678D01*
X71628571Y-125525678D02*
X71638094Y-125516154D01*
X71638094Y-125516154D02*
X71657142Y-125506630D01*
X71657142Y-125506630D02*
X71685713Y-125506630D01*
X71685713Y-125506630D02*
X71704761Y-125516154D01*
X71704761Y-125516154D02*
X71714285Y-125525678D01*
X71714285Y-125525678D02*
X71723809Y-125544725D01*
X71723809Y-125544725D02*
X71723809Y-125601868D01*
X71723809Y-125601868D02*
X71714285Y-125620916D01*
X71714285Y-125620916D02*
X71704761Y-125630440D01*
X71704761Y-125630440D02*
X71685713Y-125639963D01*
X71685713Y-125639963D02*
X71657142Y-125639963D01*
X72028570Y-125535201D02*
X71961904Y-125535201D01*
X71961904Y-125639963D02*
X71961904Y-125439963D01*
X71961904Y-125439963D02*
X72057142Y-125439963D01*
X72133333Y-125620916D02*
X72142856Y-125630440D01*
X72142856Y-125630440D02*
X72133333Y-125639963D01*
X72133333Y-125639963D02*
X72123809Y-125630440D01*
X72123809Y-125630440D02*
X72133333Y-125620916D01*
X72133333Y-125620916D02*
X72133333Y-125639963D01*
X72342856Y-125620916D02*
X72333332Y-125630440D01*
X72333332Y-125630440D02*
X72304761Y-125639963D01*
X72304761Y-125639963D02*
X72285713Y-125639963D01*
X72285713Y-125639963D02*
X72257142Y-125630440D01*
X72257142Y-125630440D02*
X72238094Y-125611392D01*
X72238094Y-125611392D02*
X72228571Y-125592344D01*
X72228571Y-125592344D02*
X72219047Y-125554249D01*
X72219047Y-125554249D02*
X72219047Y-125525678D01*
X72219047Y-125525678D02*
X72228571Y-125487582D01*
X72228571Y-125487582D02*
X72238094Y-125468535D01*
X72238094Y-125468535D02*
X72257142Y-125449487D01*
X72257142Y-125449487D02*
X72285713Y-125439963D01*
X72285713Y-125439963D02*
X72304761Y-125439963D01*
X72304761Y-125439963D02*
X72333332Y-125449487D01*
X72333332Y-125449487D02*
X72342856Y-125459011D01*
X72514285Y-125506630D02*
X72514285Y-125639963D01*
X72428571Y-125506630D02*
X72428571Y-125611392D01*
X72428571Y-125611392D02*
X72438094Y-125630440D01*
X72438094Y-125630440D02*
X72457142Y-125639963D01*
X72457142Y-125639963D02*
X72485713Y-125639963D01*
X72485713Y-125639963D02*
X72504761Y-125630440D01*
X72504761Y-125630440D02*
X72514285Y-125620916D01*
X72733332Y-125506630D02*
X72809523Y-125506630D01*
X72761904Y-125439963D02*
X72761904Y-125611392D01*
X72761904Y-125611392D02*
X72771427Y-125630440D01*
X72771427Y-125630440D02*
X72790475Y-125639963D01*
X72790475Y-125639963D02*
X72809523Y-125639963D01*
X72876190Y-125639963D02*
X72876190Y-125506630D01*
X72876190Y-125544725D02*
X72885713Y-125525678D01*
X72885713Y-125525678D02*
X72895237Y-125516154D01*
X72895237Y-125516154D02*
X72914285Y-125506630D01*
X72914285Y-125506630D02*
X72933332Y-125506630D01*
X73085714Y-125639963D02*
X73085714Y-125535201D01*
X73085714Y-125535201D02*
X73076190Y-125516154D01*
X73076190Y-125516154D02*
X73057142Y-125506630D01*
X73057142Y-125506630D02*
X73019047Y-125506630D01*
X73019047Y-125506630D02*
X73000000Y-125516154D01*
X73085714Y-125630440D02*
X73066666Y-125639963D01*
X73066666Y-125639963D02*
X73019047Y-125639963D01*
X73019047Y-125639963D02*
X73000000Y-125630440D01*
X73000000Y-125630440D02*
X72990476Y-125611392D01*
X72990476Y-125611392D02*
X72990476Y-125592344D01*
X72990476Y-125592344D02*
X73000000Y-125573297D01*
X73000000Y-125573297D02*
X73019047Y-125563773D01*
X73019047Y-125563773D02*
X73066666Y-125563773D01*
X73066666Y-125563773D02*
X73085714Y-125554249D01*
X73266666Y-125630440D02*
X73247618Y-125639963D01*
X73247618Y-125639963D02*
X73209523Y-125639963D01*
X73209523Y-125639963D02*
X73190475Y-125630440D01*
X73190475Y-125630440D02*
X73180952Y-125620916D01*
X73180952Y-125620916D02*
X73171428Y-125601868D01*
X73171428Y-125601868D02*
X73171428Y-125544725D01*
X73171428Y-125544725D02*
X73180952Y-125525678D01*
X73180952Y-125525678D02*
X73190475Y-125516154D01*
X73190475Y-125516154D02*
X73209523Y-125506630D01*
X73209523Y-125506630D02*
X73247618Y-125506630D01*
X73247618Y-125506630D02*
X73266666Y-125516154D01*
X73352381Y-125639963D02*
X73352381Y-125439963D01*
X73371428Y-125563773D02*
X73428571Y-125639963D01*
X73428571Y-125506630D02*
X73352381Y-125582820D01*
X73504762Y-125630440D02*
X73523809Y-125639963D01*
X73523809Y-125639963D02*
X73561905Y-125639963D01*
X73561905Y-125639963D02*
X73580952Y-125630440D01*
X73580952Y-125630440D02*
X73590476Y-125611392D01*
X73590476Y-125611392D02*
X73590476Y-125601868D01*
X73590476Y-125601868D02*
X73580952Y-125582820D01*
X73580952Y-125582820D02*
X73561905Y-125573297D01*
X73561905Y-125573297D02*
X73533333Y-125573297D01*
X73533333Y-125573297D02*
X73514286Y-125563773D01*
X73514286Y-125563773D02*
X73504762Y-125544725D01*
X73504762Y-125544725D02*
X73504762Y-125535201D01*
X73504762Y-125535201D02*
X73514286Y-125516154D01*
X73514286Y-125516154D02*
X73533333Y-125506630D01*
X73533333Y-125506630D02*
X73561905Y-125506630D01*
X73561905Y-125506630D02*
X73580952Y-125516154D01*
X66285715Y-125239963D02*
X66285715Y-125039963D01*
X66400000Y-125239963D02*
X66314286Y-125125678D01*
X66400000Y-125039963D02*
X66285715Y-125154249D01*
X66485715Y-125135201D02*
X66552381Y-125135201D01*
X66580953Y-125239963D02*
X66485715Y-125239963D01*
X66485715Y-125239963D02*
X66485715Y-125039963D01*
X66485715Y-125039963D02*
X66580953Y-125039963D01*
X66666667Y-125135201D02*
X66733333Y-125135201D01*
X66761905Y-125239963D02*
X66666667Y-125239963D01*
X66666667Y-125239963D02*
X66666667Y-125039963D01*
X66666667Y-125039963D02*
X66761905Y-125039963D01*
X66847619Y-125239963D02*
X66847619Y-125039963D01*
X66847619Y-125039963D02*
X66923809Y-125039963D01*
X66923809Y-125039963D02*
X66942857Y-125049487D01*
X66942857Y-125049487D02*
X66952380Y-125059011D01*
X66952380Y-125059011D02*
X66961904Y-125078059D01*
X66961904Y-125078059D02*
X66961904Y-125106630D01*
X66961904Y-125106630D02*
X66952380Y-125125678D01*
X66952380Y-125125678D02*
X66942857Y-125135201D01*
X66942857Y-125135201D02*
X66923809Y-125144725D01*
X66923809Y-125144725D02*
X66847619Y-125144725D01*
X67047619Y-125163773D02*
X67200000Y-125163773D01*
X67333333Y-125039963D02*
X67371428Y-125039963D01*
X67371428Y-125039963D02*
X67390476Y-125049487D01*
X67390476Y-125049487D02*
X67409523Y-125068535D01*
X67409523Y-125068535D02*
X67419047Y-125106630D01*
X67419047Y-125106630D02*
X67419047Y-125173297D01*
X67419047Y-125173297D02*
X67409523Y-125211392D01*
X67409523Y-125211392D02*
X67390476Y-125230440D01*
X67390476Y-125230440D02*
X67371428Y-125239963D01*
X67371428Y-125239963D02*
X67333333Y-125239963D01*
X67333333Y-125239963D02*
X67314285Y-125230440D01*
X67314285Y-125230440D02*
X67295238Y-125211392D01*
X67295238Y-125211392D02*
X67285714Y-125173297D01*
X67285714Y-125173297D02*
X67285714Y-125106630D01*
X67285714Y-125106630D02*
X67295238Y-125068535D01*
X67295238Y-125068535D02*
X67314285Y-125049487D01*
X67314285Y-125049487D02*
X67333333Y-125039963D01*
X67504762Y-125039963D02*
X67504762Y-125201868D01*
X67504762Y-125201868D02*
X67514285Y-125220916D01*
X67514285Y-125220916D02*
X67523809Y-125230440D01*
X67523809Y-125230440D02*
X67542857Y-125239963D01*
X67542857Y-125239963D02*
X67580952Y-125239963D01*
X67580952Y-125239963D02*
X67600000Y-125230440D01*
X67600000Y-125230440D02*
X67609523Y-125220916D01*
X67609523Y-125220916D02*
X67619047Y-125201868D01*
X67619047Y-125201868D02*
X67619047Y-125039963D01*
X67685714Y-125039963D02*
X67800000Y-125039963D01*
X67742857Y-125239963D02*
X67742857Y-125039963D01*
X68000000Y-125039963D02*
X68133333Y-125039963D01*
X68133333Y-125039963D02*
X68000000Y-125239963D01*
X68000000Y-125239963D02*
X68133333Y-125239963D01*
X68247619Y-125039963D02*
X68285714Y-125039963D01*
X68285714Y-125039963D02*
X68304762Y-125049487D01*
X68304762Y-125049487D02*
X68323809Y-125068535D01*
X68323809Y-125068535D02*
X68333333Y-125106630D01*
X68333333Y-125106630D02*
X68333333Y-125173297D01*
X68333333Y-125173297D02*
X68323809Y-125211392D01*
X68323809Y-125211392D02*
X68304762Y-125230440D01*
X68304762Y-125230440D02*
X68285714Y-125239963D01*
X68285714Y-125239963D02*
X68247619Y-125239963D01*
X68247619Y-125239963D02*
X68228571Y-125230440D01*
X68228571Y-125230440D02*
X68209524Y-125211392D01*
X68209524Y-125211392D02*
X68200000Y-125173297D01*
X68200000Y-125173297D02*
X68200000Y-125106630D01*
X68200000Y-125106630D02*
X68209524Y-125068535D01*
X68209524Y-125068535D02*
X68228571Y-125049487D01*
X68228571Y-125049487D02*
X68247619Y-125039963D01*
X68419048Y-125239963D02*
X68419048Y-125039963D01*
X68419048Y-125039963D02*
X68533333Y-125239963D01*
X68533333Y-125239963D02*
X68533333Y-125039963D01*
X68628572Y-125135201D02*
X68695238Y-125135201D01*
X68723810Y-125239963D02*
X68628572Y-125239963D01*
X68628572Y-125239963D02*
X68628572Y-125039963D01*
X68628572Y-125039963D02*
X68723810Y-125039963D01*
X66419047Y-125639963D02*
X66419047Y-125439963D01*
X66419047Y-125439963D02*
X66533332Y-125639963D01*
X66533332Y-125639963D02*
X66533332Y-125439963D01*
X66657142Y-125639963D02*
X66638094Y-125630440D01*
X66638094Y-125630440D02*
X66628571Y-125620916D01*
X66628571Y-125620916D02*
X66619047Y-125601868D01*
X66619047Y-125601868D02*
X66619047Y-125544725D01*
X66619047Y-125544725D02*
X66628571Y-125525678D01*
X66628571Y-125525678D02*
X66638094Y-125516154D01*
X66638094Y-125516154D02*
X66657142Y-125506630D01*
X66657142Y-125506630D02*
X66685713Y-125506630D01*
X66685713Y-125506630D02*
X66704761Y-125516154D01*
X66704761Y-125516154D02*
X66714285Y-125525678D01*
X66714285Y-125525678D02*
X66723809Y-125544725D01*
X66723809Y-125544725D02*
X66723809Y-125601868D01*
X66723809Y-125601868D02*
X66714285Y-125620916D01*
X66714285Y-125620916D02*
X66704761Y-125630440D01*
X66704761Y-125630440D02*
X66685713Y-125639963D01*
X66685713Y-125639963D02*
X66657142Y-125639963D01*
X67028570Y-125535201D02*
X66961904Y-125535201D01*
X66961904Y-125639963D02*
X66961904Y-125439963D01*
X66961904Y-125439963D02*
X67057142Y-125439963D01*
X67133333Y-125620916D02*
X67142856Y-125630440D01*
X67142856Y-125630440D02*
X67133333Y-125639963D01*
X67133333Y-125639963D02*
X67123809Y-125630440D01*
X67123809Y-125630440D02*
X67133333Y-125620916D01*
X67133333Y-125620916D02*
X67133333Y-125639963D01*
X67342856Y-125620916D02*
X67333332Y-125630440D01*
X67333332Y-125630440D02*
X67304761Y-125639963D01*
X67304761Y-125639963D02*
X67285713Y-125639963D01*
X67285713Y-125639963D02*
X67257142Y-125630440D01*
X67257142Y-125630440D02*
X67238094Y-125611392D01*
X67238094Y-125611392D02*
X67228571Y-125592344D01*
X67228571Y-125592344D02*
X67219047Y-125554249D01*
X67219047Y-125554249D02*
X67219047Y-125525678D01*
X67219047Y-125525678D02*
X67228571Y-125487582D01*
X67228571Y-125487582D02*
X67238094Y-125468535D01*
X67238094Y-125468535D02*
X67257142Y-125449487D01*
X67257142Y-125449487D02*
X67285713Y-125439963D01*
X67285713Y-125439963D02*
X67304761Y-125439963D01*
X67304761Y-125439963D02*
X67333332Y-125449487D01*
X67333332Y-125449487D02*
X67342856Y-125459011D01*
X67514285Y-125506630D02*
X67514285Y-125639963D01*
X67428571Y-125506630D02*
X67428571Y-125611392D01*
X67428571Y-125611392D02*
X67438094Y-125630440D01*
X67438094Y-125630440D02*
X67457142Y-125639963D01*
X67457142Y-125639963D02*
X67485713Y-125639963D01*
X67485713Y-125639963D02*
X67504761Y-125630440D01*
X67504761Y-125630440D02*
X67514285Y-125620916D01*
X67733332Y-125506630D02*
X67809523Y-125506630D01*
X67761904Y-125439963D02*
X67761904Y-125611392D01*
X67761904Y-125611392D02*
X67771427Y-125630440D01*
X67771427Y-125630440D02*
X67790475Y-125639963D01*
X67790475Y-125639963D02*
X67809523Y-125639963D01*
X67876190Y-125639963D02*
X67876190Y-125506630D01*
X67876190Y-125544725D02*
X67885713Y-125525678D01*
X67885713Y-125525678D02*
X67895237Y-125516154D01*
X67895237Y-125516154D02*
X67914285Y-125506630D01*
X67914285Y-125506630D02*
X67933332Y-125506630D01*
X68085714Y-125639963D02*
X68085714Y-125535201D01*
X68085714Y-125535201D02*
X68076190Y-125516154D01*
X68076190Y-125516154D02*
X68057142Y-125506630D01*
X68057142Y-125506630D02*
X68019047Y-125506630D01*
X68019047Y-125506630D02*
X68000000Y-125516154D01*
X68085714Y-125630440D02*
X68066666Y-125639963D01*
X68066666Y-125639963D02*
X68019047Y-125639963D01*
X68019047Y-125639963D02*
X68000000Y-125630440D01*
X68000000Y-125630440D02*
X67990476Y-125611392D01*
X67990476Y-125611392D02*
X67990476Y-125592344D01*
X67990476Y-125592344D02*
X68000000Y-125573297D01*
X68000000Y-125573297D02*
X68019047Y-125563773D01*
X68019047Y-125563773D02*
X68066666Y-125563773D01*
X68066666Y-125563773D02*
X68085714Y-125554249D01*
X68266666Y-125630440D02*
X68247618Y-125639963D01*
X68247618Y-125639963D02*
X68209523Y-125639963D01*
X68209523Y-125639963D02*
X68190475Y-125630440D01*
X68190475Y-125630440D02*
X68180952Y-125620916D01*
X68180952Y-125620916D02*
X68171428Y-125601868D01*
X68171428Y-125601868D02*
X68171428Y-125544725D01*
X68171428Y-125544725D02*
X68180952Y-125525678D01*
X68180952Y-125525678D02*
X68190475Y-125516154D01*
X68190475Y-125516154D02*
X68209523Y-125506630D01*
X68209523Y-125506630D02*
X68247618Y-125506630D01*
X68247618Y-125506630D02*
X68266666Y-125516154D01*
X68352381Y-125639963D02*
X68352381Y-125439963D01*
X68371428Y-125563773D02*
X68428571Y-125639963D01*
X68428571Y-125506630D02*
X68352381Y-125582820D01*
X68504762Y-125630440D02*
X68523809Y-125639963D01*
X68523809Y-125639963D02*
X68561905Y-125639963D01*
X68561905Y-125639963D02*
X68580952Y-125630440D01*
X68580952Y-125630440D02*
X68590476Y-125611392D01*
X68590476Y-125611392D02*
X68590476Y-125601868D01*
X68590476Y-125601868D02*
X68580952Y-125582820D01*
X68580952Y-125582820D02*
X68561905Y-125573297D01*
X68561905Y-125573297D02*
X68533333Y-125573297D01*
X68533333Y-125573297D02*
X68514286Y-125563773D01*
X68514286Y-125563773D02*
X68504762Y-125544725D01*
X68504762Y-125544725D02*
X68504762Y-125535201D01*
X68504762Y-125535201D02*
X68514286Y-125516154D01*
X68514286Y-125516154D02*
X68533333Y-125506630D01*
X68533333Y-125506630D02*
X68561905Y-125506630D01*
X68561905Y-125506630D02*
X68580952Y-125516154D01*
D11*
%TO.C,H104*%
X53200000Y-126000000D02*
G75*
G02*
X46800000Y-126000000I-3200000J0D01*
G01*
X46800000Y-126000000D02*
G75*
G02*
X53200000Y-126000000I3200000J0D01*
G01*
%TO.C,H101*%
X119200000Y-80000000D02*
G75*
G02*
X112800000Y-80000000I-3200000J0D01*
G01*
X112800000Y-80000000D02*
G75*
G02*
X119200000Y-80000000I3200000J0D01*
G01*
%TO.C,H102*%
X119200000Y-126000000D02*
G75*
G02*
X112800000Y-126000000I-3200000J0D01*
G01*
X112800000Y-126000000D02*
G75*
G02*
X119200000Y-126000000I3200000J0D01*
G01*
%TO.C,H103*%
X53200000Y-80000000D02*
G75*
G02*
X46800000Y-80000000I-3200000J0D01*
G01*
X46800000Y-80000000D02*
G75*
G02*
X53200000Y-80000000I3200000J0D01*
G01*
%TD*%
M02*
