%TF.GenerationSoftware,KiCad,Pcbnew,8.0.2*%
%TF.CreationDate,2024-10-13T21:39:52+02:00*%
%TF.ProjectId,OS-RelayDecoder-8,4f532d52-656c-4617-9944-65636f646572,rev?*%
%TF.SameCoordinates,Original*%
%TF.FileFunction,Copper,L2,Bot*%
%TF.FilePolarity,Positive*%
%FSLAX46Y46*%
G04 Gerber Fmt 4.6, Leading zero omitted, Abs format (unit mm)*
G04 Created by KiCad (PCBNEW 8.0.2) date 2024-10-13 21:39:52*
%MOMM*%
%LPD*%
G01*
G04 APERTURE LIST*
G04 Aperture macros list*
%AMRoundRect*
0 Rectangle with rounded corners*
0 $1 Rounding radius*
0 $2 $3 $4 $5 $6 $7 $8 $9 X,Y pos of 4 corners*
0 Add a 4 corners polygon primitive as box body*
4,1,4,$2,$3,$4,$5,$6,$7,$8,$9,$2,$3,0*
0 Add four circle primitives for the rounded corners*
1,1,$1+$1,$2,$3*
1,1,$1+$1,$4,$5*
1,1,$1+$1,$6,$7*
1,1,$1+$1,$8,$9*
0 Add four rect primitives between the rounded corners*
20,1,$1+$1,$2,$3,$4,$5,0*
20,1,$1+$1,$4,$5,$6,$7,0*
20,1,$1+$1,$6,$7,$8,$9,0*
20,1,$1+$1,$8,$9,$2,$3,0*%
G04 Aperture macros list end*
%TA.AperFunction,ComponentPad*%
%ADD10RoundRect,0.250000X-1.550000X0.650000X-1.550000X-0.650000X1.550000X-0.650000X1.550000X0.650000X0*%
%TD*%
%TA.AperFunction,ComponentPad*%
%ADD11O,3.600000X1.800000*%
%TD*%
%TA.AperFunction,ComponentPad*%
%ADD12RoundRect,0.250000X0.650000X1.550000X-0.650000X1.550000X-0.650000X-1.550000X0.650000X-1.550000X0*%
%TD*%
%TA.AperFunction,ComponentPad*%
%ADD13O,1.800000X3.600000*%
%TD*%
%TA.AperFunction,ComponentPad*%
%ADD14R,2.600000X2.600000*%
%TD*%
%TA.AperFunction,ComponentPad*%
%ADD15C,2.600000*%
%TD*%
%TA.AperFunction,ComponentPad*%
%ADD16C,2.200000*%
%TD*%
%TA.AperFunction,ComponentPad*%
%ADD17R,1.700000X1.700000*%
%TD*%
%TA.AperFunction,ComponentPad*%
%ADD18O,1.700000X1.700000*%
%TD*%
%TA.AperFunction,ViaPad*%
%ADD19C,0.500000*%
%TD*%
%TA.AperFunction,ViaPad*%
%ADD20C,0.800000*%
%TD*%
%TA.AperFunction,Conductor*%
%ADD21C,0.250000*%
%TD*%
%TA.AperFunction,Conductor*%
%ADD22C,0.300000*%
%TD*%
%TA.AperFunction,Conductor*%
%ADD23C,0.200000*%
%TD*%
%TA.AperFunction,Conductor*%
%ADD24C,1.000000*%
%TD*%
G04 APERTURE END LIST*
D10*
%TO.P,J101,1,Pin_1*%
%TO.N,/relay1/A*%
X54432500Y-114305000D03*
D11*
%TO.P,J101,2,Pin_2*%
%TO.N,/relay1/B*%
X54432500Y-117805000D03*
%TD*%
D12*
%TO.P,J701,1,Pin_1*%
%TO.N,/DCC+power/DCC_A*%
X88000000Y-84500000D03*
D13*
%TO.P,J701,2,Pin_2*%
%TO.N,/DCC+power/DCC_B*%
X84500000Y-84500000D03*
%TO.P,J701,3,Pin_3*%
%TO.N,/DCC+power/P2*%
X81000000Y-84500000D03*
%TO.P,J701,4,Pin_4*%
%TO.N,/DCC+power/P1*%
X77500000Y-84500000D03*
%TD*%
D14*
%TO.P,J103,1,Pin_1*%
%TO.N,/relay8/frog*%
X51195000Y-91380000D03*
D15*
%TO.P,J103,2,Pin_2*%
%TO.N,/relay7/frog*%
X51195000Y-96460000D03*
%TO.P,J103,3,Pin_3*%
%TO.N,/relay6/frog*%
X51195000Y-101540000D03*
%TO.P,J103,4,Pin_4*%
%TO.N,/relay5/frog*%
X51195000Y-106620000D03*
%TD*%
D16*
%TO.P,J702,1,Pin_1*%
%TO.N,/DCC+power/DCC_A*%
X88000000Y-123500000D03*
X88000000Y-126000000D03*
%TO.P,J702,2,Pin_2*%
%TO.N,/DCC+power/DCC_B*%
X84500000Y-123500000D03*
X84500000Y-126000000D03*
%TO.P,J702,3,Pin_3*%
%TO.N,/DCC+power/P2*%
X81000000Y-123500000D03*
X81000000Y-126000000D03*
%TO.P,J702,4,Pin_4*%
%TO.N,/DCC+power/P1*%
X77500000Y-123500000D03*
X77500000Y-126000000D03*
%TD*%
D17*
%TO.P,J202,1,Pin_1*%
%TO.N,GND*%
X94460000Y-78000000D03*
D18*
%TO.P,J202,2,Pin_2*%
%TO.N,+5V*%
X97000000Y-78000000D03*
%TO.P,J202,3,Pin_3*%
%TO.N,/MCU/LED*%
X99540000Y-78000000D03*
%TO.P,J202,4,Pin_4*%
%TO.N,/MCU/MISO*%
X102080000Y-78000000D03*
%TO.P,J202,5,Pin_5*%
%TO.N,/MCU/MOSI*%
X104620000Y-78000000D03*
%TO.P,J202,6,Pin_6*%
%TO.N,/MCU/Reset*%
X107160000Y-78000000D03*
%TD*%
D14*
%TO.P,J102,1,Pin_1*%
%TO.N,/relay4/frog*%
X114500000Y-106620000D03*
D15*
%TO.P,J102,2,Pin_2*%
%TO.N,/relay3/frog*%
X114500000Y-101540000D03*
%TO.P,J102,3,Pin_3*%
%TO.N,/relay2/frog*%
X114500000Y-96460000D03*
%TO.P,J102,4,Pin_4*%
%TO.N,/relay1/frog*%
X114500000Y-91380000D03*
%TD*%
D19*
%TO.N,GND*%
X81153000Y-113030000D03*
X74168000Y-118618000D03*
X92329000Y-105791000D03*
X89408000Y-82169000D03*
X99060000Y-87376000D03*
X84201000Y-110871000D03*
X95885000Y-105746907D03*
X82931000Y-117475000D03*
X88773000Y-107442000D03*
X66675000Y-81153000D03*
X96520000Y-103378000D03*
D20*
X77530000Y-109094592D03*
D19*
X95885000Y-86741000D03*
X90424000Y-112903000D03*
X77724000Y-95123000D03*
X69596000Y-108331000D03*
X65024000Y-95504000D03*
X100838000Y-97790000D03*
X80772000Y-94742000D03*
X69469000Y-118364000D03*
X70882000Y-118794907D03*
X94718000Y-84730907D03*
X92075000Y-117602000D03*
X68707000Y-123444000D03*
X69469000Y-88265000D03*
X72390000Y-117094000D03*
X90932000Y-103759000D03*
X91821000Y-114173000D03*
X100711000Y-114554000D03*
X85344000Y-117983000D03*
X85090000Y-103251000D03*
X98552000Y-118745000D03*
X96012000Y-95746907D03*
X95885000Y-112522000D03*
X65913000Y-98806000D03*
X95250000Y-92456000D03*
X94996000Y-102489000D03*
X69977000Y-126111000D03*
X97282000Y-113411000D03*
X97028000Y-80137000D03*
X86233000Y-86868000D03*
X100838000Y-84074000D03*
X94718000Y-106508907D03*
X95377000Y-127000000D03*
X84074000Y-102108000D03*
X70866000Y-123444000D03*
X86614000Y-94742000D03*
X94718000Y-86508907D03*
X90932000Y-126873000D03*
X72771000Y-120015000D03*
X80899000Y-115316000D03*
X65278000Y-87122000D03*
X75057000Y-123444000D03*
X100711000Y-88900000D03*
X75438000Y-120142000D03*
X88392000Y-118110000D03*
X83439000Y-103886000D03*
D20*
X78927000Y-112015592D03*
D19*
X69596000Y-99556907D03*
X97790000Y-92710000D03*
X79629000Y-105410000D03*
X86614000Y-117348000D03*
X70882000Y-90572907D03*
X70882000Y-108794907D03*
X86233000Y-83820000D03*
X84836000Y-116078000D03*
X98298000Y-125222000D03*
X92837000Y-122047000D03*
X80518000Y-105156000D03*
X75311000Y-127000000D03*
X86360000Y-99949000D03*
X82042000Y-91313000D03*
X99314000Y-108839000D03*
X69596000Y-109556907D03*
X70882000Y-120572907D03*
X67691000Y-99441000D03*
X64643000Y-101219000D03*
X82677000Y-114554000D03*
X69596000Y-89556907D03*
X100838000Y-111887000D03*
X94718000Y-104730907D03*
X96012000Y-122428000D03*
X97917000Y-106299000D03*
X94718000Y-116508907D03*
X100965000Y-92837000D03*
X97409000Y-102616000D03*
X100838000Y-102362000D03*
X89408000Y-91948000D03*
X100457000Y-122809000D03*
X89916000Y-122428000D03*
X92837000Y-112268000D03*
X69723000Y-119556907D03*
X96012000Y-85746907D03*
X87503000Y-79121000D03*
X70882000Y-110572907D03*
X69469000Y-98425000D03*
X84582000Y-114935000D03*
X84836000Y-112141000D03*
X75184000Y-81788000D03*
X81915000Y-96647000D03*
X96012000Y-115746907D03*
X87884000Y-100838000D03*
X92837000Y-102235000D03*
X94718000Y-96508907D03*
X90551000Y-100965000D03*
X87630000Y-99441000D03*
X77470000Y-107696000D03*
X70882000Y-88794907D03*
X100965000Y-119126000D03*
X84836000Y-96520000D03*
X84582000Y-89535000D03*
X74168000Y-121412000D03*
D20*
X77089000Y-113919000D03*
D19*
X90551000Y-118364000D03*
X98044000Y-116078000D03*
X96012000Y-117094000D03*
X94718000Y-114730907D03*
X65913000Y-97536000D03*
X88138000Y-111252000D03*
X86995000Y-109220000D03*
X70882000Y-98794907D03*
X88646000Y-89789000D03*
X94718000Y-94730907D03*
X80772000Y-106553000D03*
X92075000Y-110236000D03*
X91821000Y-80137000D03*
X70882000Y-100572907D03*
X100457000Y-106807000D03*
X95758000Y-123952000D03*
%TO.N,VCC*%
X78613000Y-121327000D03*
X71517000Y-105873907D03*
X71517000Y-95873907D03*
X67691000Y-90058907D03*
X94083000Y-111887000D03*
X67691000Y-111208907D03*
X77785141Y-120457142D03*
X94083000Y-99429907D03*
X94083000Y-119429907D03*
X93130500Y-96658672D03*
X69469000Y-103312000D03*
X94083000Y-101981000D03*
X93291000Y-120420907D03*
X68326000Y-96901000D03*
X68672497Y-107037908D03*
X68326000Y-86868000D03*
X68286897Y-101369285D03*
X94083000Y-109429907D03*
X92366913Y-95795913D03*
X67691000Y-91208907D03*
X71517000Y-85873907D03*
X67691000Y-110058907D03*
%TO.N,+5V*%
X82550000Y-109601000D03*
X81621267Y-105830733D03*
X80209824Y-96558358D03*
X82508587Y-100031365D03*
X82519661Y-108496893D03*
X82660928Y-104749072D03*
%TO.N,/DCC+power/DCC_B*%
X81407000Y-120650000D03*
%TO.N,/MCU/LED*%
X72069500Y-101677580D03*
X101219000Y-79841000D03*
X101219000Y-80941000D03*
X88858000Y-99841000D03*
X79248000Y-103784733D03*
X89019091Y-97401091D03*
D20*
%TO.N,/DCC+power/P1*%
X76573000Y-117467000D03*
%TO.N,/DCC+power/P2*%
X77978000Y-118745000D03*
X76373056Y-115951000D03*
D19*
%TO.N,/MCU/MISO*%
X89408000Y-99093907D03*
X102108000Y-80941000D03*
X90043000Y-97155000D03*
%TO.N,/MCU/MOSI*%
X104648000Y-81026000D03*
X89958000Y-99822000D03*
X90855806Y-97307020D03*
%TO.N,/MCU/Reset*%
X78608382Y-99271907D03*
X78232000Y-100421907D03*
D20*
%TO.N,/relay5/frog*%
X60900000Y-117856000D03*
X60900000Y-116586000D03*
%TO.N,/relay6/frog*%
X60900000Y-107500000D03*
X60900000Y-106000000D03*
%TO.N,/relay7/frog*%
X60900000Y-98000000D03*
X60900000Y-96500000D03*
%TO.N,/relay8/frog*%
X60900000Y-87630000D03*
X60900000Y-88900000D03*
%TO.N,/relay3/frog*%
X104648000Y-106000000D03*
X104648000Y-107188000D03*
%TO.N,/relay4/frog*%
X104700000Y-117348000D03*
X104700000Y-115951000D03*
%TO.N,/relay1/frog*%
X104648000Y-88011000D03*
X104648000Y-86741000D03*
%TO.N,/relay2/frog*%
X104700000Y-97282000D03*
X104700000Y-96012000D03*
%TO.N,/relay1/A*%
X106900000Y-118000000D03*
X106900000Y-119500000D03*
D19*
%TO.N,/MCU/coil5*%
X76073000Y-109728000D03*
X72069499Y-111563363D03*
%TO.N,/MCU/coil6*%
X72092000Y-103632000D03*
X76136500Y-104203500D03*
%TO.N,/DCC+power/DCC_A*%
X76581000Y-94488000D03*
X83077817Y-122558999D03*
X81830000Y-119934925D03*
X76486477Y-90501000D03*
%TO.N,/DCC+power/DCC*%
X78359000Y-98044000D03*
X76895000Y-98044000D03*
%TO.N,Net-(SW601-B)*%
X65024000Y-123698000D03*
X78357502Y-104334733D03*
X77216000Y-104267000D03*
X76327000Y-102489000D03*
X65066000Y-121793000D03*
X72092000Y-102762000D03*
%TO.N,/MCU/coil7*%
X77276000Y-98806000D03*
X71797000Y-97763468D03*
%TO.N,/MCU/coil8*%
X76581000Y-96101649D03*
X72092000Y-93726000D03*
%TD*%
D21*
%TO.N,VCC*%
X94083000Y-119592907D02*
X94083000Y-119429907D01*
D22*
X78613000Y-121285001D02*
X77785141Y-120457142D01*
D23*
X94083000Y-99429907D02*
X94083000Y-101981000D01*
D21*
X94083000Y-109429907D02*
X94083000Y-111887000D01*
D23*
X68672497Y-107037908D02*
X70352999Y-107037908D01*
X70489907Y-96901000D02*
X71517000Y-95873907D01*
X69469000Y-102235000D02*
X69469000Y-103312000D01*
X67691000Y-111208907D02*
X67691000Y-110058907D01*
X68326000Y-86868000D02*
X69320093Y-85873907D01*
D21*
X93291000Y-120384907D02*
X94083000Y-119592907D01*
D23*
X92366913Y-95795913D02*
X93130500Y-96559500D01*
X93130500Y-96559500D02*
X93130500Y-96658672D01*
X68326000Y-96901000D02*
X70489907Y-96901000D01*
X67691000Y-91208907D02*
X67691000Y-90058907D01*
X68603285Y-101369285D02*
X69469000Y-102235000D01*
X70352999Y-107037908D02*
X71517000Y-105873907D01*
X69320093Y-85873907D02*
X71517000Y-85873907D01*
D21*
X93291000Y-120420907D02*
X93291000Y-120384907D01*
D22*
X78613000Y-121327000D02*
X78613000Y-121285001D01*
D23*
X68286897Y-101369285D02*
X68603285Y-101369285D01*
%TO.N,+5V*%
X80209824Y-97732602D02*
X82508587Y-100031365D01*
D22*
X82550000Y-108527232D02*
X82519661Y-108496893D01*
X82550000Y-109601000D02*
X82550000Y-108527232D01*
D23*
X81621267Y-105788733D02*
X82660928Y-104749072D01*
X81621267Y-105830733D02*
X81621267Y-105788733D01*
X80209824Y-96558358D02*
X80209824Y-97732602D01*
%TO.N,/DCC+power/DCC_B*%
X81407000Y-120650000D02*
X82527817Y-121770817D01*
X82527817Y-121770817D02*
X82527817Y-122786817D01*
X83241000Y-123500000D02*
X84500000Y-123500000D01*
X82527817Y-122786817D02*
X83241000Y-123500000D01*
%TO.N,/MCU/LED*%
X89019091Y-97401091D02*
X88858000Y-97562182D01*
X72626920Y-102235000D02*
X74942750Y-102235000D01*
X79248000Y-103784733D02*
X78892733Y-103784733D01*
X88858000Y-97562182D02*
X88858000Y-99841000D01*
X78892733Y-103784733D02*
X76962000Y-101854000D01*
X75319500Y-101858250D02*
X76957750Y-101858250D01*
X101219000Y-80941000D02*
X101219000Y-79841000D01*
X72069500Y-101677580D02*
X72626920Y-102235000D01*
X74942750Y-102235000D02*
X75319500Y-101858250D01*
D24*
%TO.N,/DCC+power/P1*%
X76573000Y-117467000D02*
X76573000Y-122573000D01*
X76573000Y-122573000D02*
X77500000Y-123500000D01*
%TO.N,/DCC+power/P2*%
X81000000Y-121767000D02*
X77978000Y-118745000D01*
X76754056Y-115951000D02*
X77978000Y-117174944D01*
X76373056Y-115951000D02*
X76754056Y-115951000D01*
X77978000Y-117174944D02*
X77978000Y-118745000D01*
X81000000Y-123500000D02*
X81000000Y-121767000D01*
D23*
%TO.N,/MCU/MISO*%
X89408000Y-99093907D02*
X89408000Y-97790000D01*
X102080000Y-78000000D02*
X102080000Y-80913000D01*
X102080000Y-80913000D02*
X102108000Y-80941000D01*
X89408000Y-97790000D02*
X90043000Y-97155000D01*
%TO.N,/MCU/MOSI*%
X90855806Y-98924194D02*
X89958000Y-99822000D01*
X90855806Y-97307020D02*
X90855806Y-98924194D01*
X104620000Y-80998000D02*
X104620000Y-78000000D01*
X104648000Y-81026000D02*
X104620000Y-80998000D01*
%TO.N,/MCU/Reset*%
X78232000Y-99648289D02*
X78232000Y-100421907D01*
X78608382Y-99271907D02*
X78232000Y-99648289D01*
D24*
%TO.N,/relay5/frog*%
X60900000Y-116325000D02*
X60900000Y-116586000D01*
X60900000Y-116586000D02*
X60900000Y-117856000D01*
X51195000Y-106620000D02*
X60900000Y-116325000D01*
%TO.N,/relay6/frog*%
X51195000Y-101540000D02*
X56440000Y-101540000D01*
X60900000Y-106000000D02*
X60900000Y-107500000D01*
X56440000Y-101540000D02*
X60900000Y-106000000D01*
%TO.N,/relay7/frog*%
X58040000Y-96500000D02*
X58000000Y-96460000D01*
X59460000Y-96460000D02*
X58000000Y-96460000D01*
X60900000Y-98000000D02*
X60900000Y-97900000D01*
X58000000Y-96460000D02*
X51195000Y-96460000D01*
X60900000Y-96500000D02*
X58040000Y-96500000D01*
X60900000Y-97900000D02*
X59460000Y-96460000D01*
X60900000Y-96500000D02*
X60900000Y-98000000D01*
%TO.N,/relay8/frog*%
X58420000Y-91380000D02*
X60900000Y-88900000D01*
X51195000Y-91380000D02*
X58420000Y-91380000D01*
X60900000Y-88900000D02*
X60900000Y-87630000D01*
%TO.N,/relay3/frog*%
X106172000Y-105664000D02*
X110296000Y-101540000D01*
X104648000Y-107188000D02*
X104648000Y-106000000D01*
X110296000Y-101540000D02*
X114500000Y-101540000D01*
X105836000Y-106000000D02*
X106172000Y-105664000D01*
X104648000Y-107188000D02*
X106172000Y-105664000D01*
X104648000Y-106000000D02*
X105836000Y-106000000D01*
%TO.N,/relay4/frog*%
X104700000Y-115951000D02*
X104700000Y-117348000D01*
X114500000Y-106620000D02*
X114031000Y-106620000D01*
X114031000Y-106620000D02*
X104700000Y-115951000D01*
%TO.N,/relay1/frog*%
X104648000Y-88011000D02*
X104648000Y-86741000D01*
X108017000Y-91380000D02*
X104648000Y-88011000D01*
X114500000Y-91380000D02*
X108017000Y-91380000D01*
%TO.N,/relay2/frog*%
X104700000Y-97282000D02*
X104700000Y-96908000D01*
X105148000Y-96460000D02*
X104700000Y-96012000D01*
X104700000Y-96012000D02*
X104700000Y-97282000D01*
X114500000Y-96460000D02*
X105148000Y-96460000D01*
X104700000Y-96908000D02*
X105148000Y-96460000D01*
%TO.N,/relay1/A*%
X51500000Y-123500000D02*
X51500000Y-116500000D01*
X106900000Y-119541000D02*
X97741000Y-128700000D01*
X56700000Y-128700000D02*
X51500000Y-123500000D01*
X106900000Y-119500000D02*
X106900000Y-119541000D01*
X51500000Y-116500000D02*
X53695000Y-114305000D01*
X106900000Y-119500000D02*
X106900000Y-118000000D01*
X97741000Y-128700000D02*
X56700000Y-128700000D01*
D23*
%TO.N,/MCU/coil5*%
X76073000Y-109728000D02*
X73904862Y-109728000D01*
X73904862Y-109728000D02*
X72069499Y-111563363D01*
%TO.N,/MCU/coil6*%
X75076000Y-103143000D02*
X72752000Y-103143000D01*
X72752000Y-103143000D02*
X72263000Y-103632000D01*
X76136500Y-104203500D02*
X75076000Y-103143000D01*
X72263000Y-103632000D02*
X72092000Y-103632000D01*
%TO.N,/DCC+power/DCC_A*%
X83077817Y-122558999D02*
X83077817Y-121182742D01*
X83077817Y-121182742D02*
X81830000Y-119934925D01*
X76581000Y-94488000D02*
X76581000Y-90595523D01*
X76581000Y-90595523D02*
X76486477Y-90501000D01*
%TO.N,/DCC+power/DCC*%
X78359000Y-98044000D02*
X76895000Y-98044000D01*
%TO.N,Net-(SW601-B)*%
X72111000Y-102743000D02*
X76073000Y-102743000D01*
X72092000Y-102762000D02*
X72111000Y-102743000D01*
X78289769Y-104267000D02*
X78357502Y-104334733D01*
X76073000Y-102743000D02*
X76327000Y-102489000D01*
X65024000Y-121835000D02*
X65066000Y-121793000D01*
X77216000Y-104267000D02*
X78289769Y-104267000D01*
X65024000Y-123698000D02*
X65024000Y-121835000D01*
%TO.N,/MCU/coil7*%
X74096226Y-97763468D02*
X75138758Y-98806000D01*
X75138758Y-98806000D02*
X77276000Y-98806000D01*
X71797000Y-97763468D02*
X74096226Y-97763468D01*
D21*
%TO.N,/MCU/coil8*%
X73616351Y-93726000D02*
X75992000Y-96101649D01*
X75992000Y-96101649D02*
X76581000Y-96101649D01*
X72092000Y-93726000D02*
X73616351Y-93726000D01*
%TD*%
%TA.AperFunction,Conductor*%
%TO.N,GND*%
G36*
X93095154Y-76820185D02*
G01*
X93140909Y-76872989D01*
X93150853Y-76942147D01*
X93144297Y-76967833D01*
X93116403Y-77042620D01*
X93116401Y-77042627D01*
X93110000Y-77102155D01*
X93110000Y-77750000D01*
X94026988Y-77750000D01*
X93994075Y-77807007D01*
X93960000Y-77934174D01*
X93960000Y-78065826D01*
X93994075Y-78192993D01*
X94026988Y-78250000D01*
X93110000Y-78250000D01*
X93110000Y-78897844D01*
X93116401Y-78957372D01*
X93116403Y-78957379D01*
X93166645Y-79092086D01*
X93166649Y-79092093D01*
X93252809Y-79207187D01*
X93252812Y-79207190D01*
X93367906Y-79293350D01*
X93367913Y-79293354D01*
X93502620Y-79343596D01*
X93502627Y-79343598D01*
X93562155Y-79349999D01*
X93562172Y-79350000D01*
X94210000Y-79350000D01*
X94210000Y-78433012D01*
X94267007Y-78465925D01*
X94394174Y-78500000D01*
X94525826Y-78500000D01*
X94652993Y-78465925D01*
X94710000Y-78433012D01*
X94710000Y-79350000D01*
X95357828Y-79350000D01*
X95357844Y-79349999D01*
X95417372Y-79343598D01*
X95417379Y-79343596D01*
X95552086Y-79293354D01*
X95552093Y-79293350D01*
X95667187Y-79207190D01*
X95667190Y-79207187D01*
X95753350Y-79092093D01*
X95753354Y-79092086D01*
X95803596Y-78957379D01*
X95803598Y-78957372D01*
X95809999Y-78897844D01*
X95810000Y-78897827D01*
X95810000Y-78606312D01*
X95829685Y-78539273D01*
X95882489Y-78493518D01*
X95951647Y-78483574D01*
X96015203Y-78512599D01*
X96045000Y-78551041D01*
X96060325Y-78581819D01*
X96183237Y-78744581D01*
X96333958Y-78881980D01*
X96333960Y-78881982D01*
X96361274Y-78898894D01*
X96507363Y-78989348D01*
X96697544Y-79063024D01*
X96898024Y-79100500D01*
X96898026Y-79100500D01*
X97101974Y-79100500D01*
X97101976Y-79100500D01*
X97302456Y-79063024D01*
X97492637Y-78989348D01*
X97666041Y-78881981D01*
X97816764Y-78744579D01*
X97939673Y-78581821D01*
X98030582Y-78399250D01*
X98086397Y-78203083D01*
X98105215Y-78000000D01*
X98099115Y-77934174D01*
X98086397Y-77796917D01*
X98073048Y-77750000D01*
X98030582Y-77600750D01*
X98030159Y-77599901D01*
X97951225Y-77441379D01*
X97939673Y-77418179D01*
X97816764Y-77255421D01*
X97816762Y-77255418D01*
X97666041Y-77118019D01*
X97666039Y-77118017D01*
X97523768Y-77029927D01*
X97477132Y-76977899D01*
X97466028Y-76908917D01*
X97493981Y-76844883D01*
X97552116Y-76806127D01*
X97589045Y-76800500D01*
X98950955Y-76800500D01*
X99017994Y-76820185D01*
X99063749Y-76872989D01*
X99073693Y-76942147D01*
X99044668Y-77005703D01*
X99016232Y-77029927D01*
X98873960Y-77118017D01*
X98873958Y-77118019D01*
X98723237Y-77255418D01*
X98600327Y-77418178D01*
X98509422Y-77600739D01*
X98509417Y-77600752D01*
X98453602Y-77796917D01*
X98434785Y-77999999D01*
X98434785Y-78000000D01*
X98453602Y-78203082D01*
X98509417Y-78399247D01*
X98509422Y-78399260D01*
X98600327Y-78581821D01*
X98723237Y-78744581D01*
X98873958Y-78881980D01*
X98873960Y-78881982D01*
X98901274Y-78898894D01*
X99047363Y-78989348D01*
X99237544Y-79063024D01*
X99438024Y-79100500D01*
X99438026Y-79100500D01*
X99641974Y-79100500D01*
X99641976Y-79100500D01*
X99842456Y-79063024D01*
X100032637Y-78989348D01*
X100206041Y-78881981D01*
X100356764Y-78744579D01*
X100479673Y-78581821D01*
X100570582Y-78399250D01*
X100626397Y-78203083D01*
X100645215Y-78000000D01*
X100639115Y-77934174D01*
X100626397Y-77796917D01*
X100613048Y-77750000D01*
X100570582Y-77600750D01*
X100570159Y-77599901D01*
X100491225Y-77441379D01*
X100479673Y-77418179D01*
X100356764Y-77255421D01*
X100356762Y-77255418D01*
X100206041Y-77118019D01*
X100206039Y-77118017D01*
X100063768Y-77029927D01*
X100017132Y-76977899D01*
X100006028Y-76908917D01*
X100033981Y-76844883D01*
X100092116Y-76806127D01*
X100129045Y-76800500D01*
X101376000Y-76800500D01*
X101443039Y-76820185D01*
X101488794Y-76872989D01*
X101500000Y-76924500D01*
X101500000Y-76995676D01*
X101480315Y-77062715D01*
X101441280Y-77101102D01*
X101413956Y-77118020D01*
X101263237Y-77255418D01*
X101140327Y-77418178D01*
X101049422Y-77600739D01*
X101049417Y-77600752D01*
X100993602Y-77796917D01*
X100974785Y-77999999D01*
X100974785Y-78000000D01*
X100993602Y-78203082D01*
X101049417Y-78399247D01*
X101049422Y-78399260D01*
X101140327Y-78581821D01*
X101263237Y-78744581D01*
X101402638Y-78871660D01*
X101413959Y-78881981D01*
X101441275Y-78898894D01*
X101487912Y-78950920D01*
X101500000Y-79004322D01*
X101500000Y-79236234D01*
X101480315Y-79303273D01*
X101427511Y-79349028D01*
X101358353Y-79358972D01*
X101341066Y-79355211D01*
X101290964Y-79340500D01*
X101290961Y-79340500D01*
X101147039Y-79340500D01*
X101147036Y-79340500D01*
X101008949Y-79381045D01*
X100887873Y-79458856D01*
X100793623Y-79567626D01*
X100793622Y-79567628D01*
X100733834Y-79698543D01*
X100713353Y-79841000D01*
X100733834Y-79983456D01*
X100793622Y-80114371D01*
X100793623Y-80114373D01*
X100838213Y-80165833D01*
X100867238Y-80229388D01*
X100868500Y-80247035D01*
X100868500Y-80534963D01*
X100848815Y-80602002D01*
X100838214Y-80616164D01*
X100793625Y-80667623D01*
X100793622Y-80667628D01*
X100733834Y-80798543D01*
X100713353Y-80941000D01*
X100733834Y-81083456D01*
X100793622Y-81214371D01*
X100793623Y-81214373D01*
X100887872Y-81323143D01*
X101008947Y-81400953D01*
X101008950Y-81400954D01*
X101008949Y-81400954D01*
X101147036Y-81441499D01*
X101147038Y-81441500D01*
X101147039Y-81441500D01*
X101290961Y-81441500D01*
X101341066Y-81426788D01*
X101410934Y-81426788D01*
X101469712Y-81464562D01*
X101498738Y-81528117D01*
X101500000Y-81545765D01*
X101500000Y-123828270D01*
X101480315Y-123895309D01*
X101463681Y-123915951D01*
X97466451Y-127913181D01*
X97405128Y-127946666D01*
X97378770Y-127949500D01*
X64124000Y-127949500D01*
X64056961Y-127929815D01*
X64011206Y-127877011D01*
X64000000Y-127825500D01*
X64000000Y-123698000D01*
X64518353Y-123698000D01*
X64538834Y-123840456D01*
X64595098Y-123963655D01*
X64598623Y-123971373D01*
X64692872Y-124080143D01*
X64813947Y-124157953D01*
X64813950Y-124157954D01*
X64813949Y-124157954D01*
X64952036Y-124198499D01*
X64952038Y-124198500D01*
X64952039Y-124198500D01*
X65095962Y-124198500D01*
X65095962Y-124198499D01*
X65234053Y-124157953D01*
X65355128Y-124080143D01*
X65449377Y-123971373D01*
X65509165Y-123840457D01*
X65529647Y-123698000D01*
X65509165Y-123555543D01*
X65449377Y-123424627D01*
X65449374Y-123424623D01*
X65404786Y-123373164D01*
X65375762Y-123309608D01*
X65374500Y-123291963D01*
X65374500Y-122247506D01*
X65394185Y-122180467D01*
X65404781Y-122166310D01*
X65491377Y-122066373D01*
X65551165Y-121935457D01*
X65571647Y-121793000D01*
X65551165Y-121650543D01*
X65491377Y-121519627D01*
X65397128Y-121410857D01*
X65276053Y-121333047D01*
X65276051Y-121333046D01*
X65276049Y-121333045D01*
X65276050Y-121333045D01*
X65137963Y-121292500D01*
X65137961Y-121292500D01*
X64994039Y-121292500D01*
X64994036Y-121292500D01*
X64855949Y-121333045D01*
X64734873Y-121410856D01*
X64640623Y-121519626D01*
X64640622Y-121519628D01*
X64580834Y-121650543D01*
X64560353Y-121793000D01*
X64580834Y-121935456D01*
X64640621Y-122066369D01*
X64640623Y-122066373D01*
X64643211Y-122069360D01*
X64644853Y-122072955D01*
X64645418Y-122073834D01*
X64645291Y-122073915D01*
X64672237Y-122132912D01*
X64673500Y-122150564D01*
X64673500Y-123291963D01*
X64653815Y-123359002D01*
X64643214Y-123373164D01*
X64598625Y-123424623D01*
X64598622Y-123424628D01*
X64538834Y-123555543D01*
X64518353Y-123698000D01*
X64000000Y-123698000D01*
X64000000Y-116024920D01*
X75622555Y-116024920D01*
X75651396Y-116169907D01*
X75651399Y-116169917D01*
X75707968Y-116306488D01*
X75707975Y-116306501D01*
X75790104Y-116429415D01*
X75790107Y-116429419D01*
X75894636Y-116533948D01*
X75894640Y-116533951D01*
X76017554Y-116616080D01*
X76017566Y-116616087D01*
X76098346Y-116649546D01*
X76152750Y-116693386D01*
X76174815Y-116759680D01*
X76157536Y-116827380D01*
X76119787Y-116867208D01*
X76094582Y-116884049D01*
X75990051Y-116988580D01*
X75990048Y-116988584D01*
X75907919Y-117111498D01*
X75907912Y-117111511D01*
X75851343Y-117248082D01*
X75851340Y-117248092D01*
X75822500Y-117393079D01*
X75822500Y-117393082D01*
X75822500Y-122646918D01*
X75822500Y-122646920D01*
X75822499Y-122646920D01*
X75851340Y-122791907D01*
X75851343Y-122791917D01*
X75907913Y-122928490D01*
X75907914Y-122928491D01*
X75907916Y-122928495D01*
X75931968Y-122964491D01*
X75979977Y-123036344D01*
X75990049Y-123051417D01*
X76127130Y-123188498D01*
X76160615Y-123249821D01*
X76162977Y-123286986D01*
X76144341Y-123499997D01*
X76144341Y-123500000D01*
X76164936Y-123735403D01*
X76164938Y-123735413D01*
X76226094Y-123963655D01*
X76226096Y-123963659D01*
X76226097Y-123963663D01*
X76280413Y-124080143D01*
X76325965Y-124177830D01*
X76325967Y-124177834D01*
X76461501Y-124371395D01*
X76461506Y-124371402D01*
X76628597Y-124538493D01*
X76628603Y-124538498D01*
X76785595Y-124648425D01*
X76829220Y-124703002D01*
X76836414Y-124772500D01*
X76804891Y-124834855D01*
X76785595Y-124851575D01*
X76628597Y-124961505D01*
X76461505Y-125128597D01*
X76325965Y-125322169D01*
X76325964Y-125322171D01*
X76226098Y-125536335D01*
X76226094Y-125536344D01*
X76164938Y-125764586D01*
X76164936Y-125764596D01*
X76144341Y-125999999D01*
X76144341Y-126000000D01*
X76164936Y-126235403D01*
X76164938Y-126235413D01*
X76226094Y-126463655D01*
X76226096Y-126463659D01*
X76226097Y-126463663D01*
X76325965Y-126677830D01*
X76325967Y-126677834D01*
X76434281Y-126832521D01*
X76461505Y-126871401D01*
X76628599Y-127038495D01*
X76725384Y-127106265D01*
X76822165Y-127174032D01*
X76822167Y-127174033D01*
X76822170Y-127174035D01*
X77036337Y-127273903D01*
X77264592Y-127335063D01*
X77452918Y-127351539D01*
X77499999Y-127355659D01*
X77500000Y-127355659D01*
X77500001Y-127355659D01*
X77539234Y-127352226D01*
X77735408Y-127335063D01*
X77963663Y-127273903D01*
X78177830Y-127174035D01*
X78371401Y-127038495D01*
X78538495Y-126871401D01*
X78674035Y-126677830D01*
X78773903Y-126463663D01*
X78835063Y-126235408D01*
X78855659Y-126000000D01*
X78835063Y-125764592D01*
X78773903Y-125536337D01*
X78674035Y-125322171D01*
X78538495Y-125128599D01*
X78538494Y-125128597D01*
X78371402Y-124961506D01*
X78371396Y-124961501D01*
X78214405Y-124851575D01*
X78170780Y-124796998D01*
X78163586Y-124727500D01*
X78195109Y-124665145D01*
X78214405Y-124648425D01*
X78243635Y-124627957D01*
X78371401Y-124538495D01*
X78538495Y-124371401D01*
X78674035Y-124177830D01*
X78773903Y-123963663D01*
X78835063Y-123735408D01*
X78855659Y-123500000D01*
X78835063Y-123264592D01*
X78773903Y-123036337D01*
X78674035Y-122822171D01*
X78652849Y-122791913D01*
X78538494Y-122628597D01*
X78371402Y-122461506D01*
X78371395Y-122461501D01*
X78177834Y-122325967D01*
X78177830Y-122325965D01*
X78091314Y-122285622D01*
X77963663Y-122226097D01*
X77963659Y-122226096D01*
X77963655Y-122226094D01*
X77735413Y-122164938D01*
X77735403Y-122164936D01*
X77500001Y-122144341D01*
X77499996Y-122144341D01*
X77458306Y-122147988D01*
X77389806Y-122134221D01*
X77339624Y-122085605D01*
X77323500Y-122024460D01*
X77323500Y-120982498D01*
X77343185Y-120915459D01*
X77395989Y-120869704D01*
X77465147Y-120859760D01*
X77514540Y-120878183D01*
X77575089Y-120917096D01*
X77691403Y-120951248D01*
X77744150Y-120982544D01*
X78081316Y-121319710D01*
X78114801Y-121381033D01*
X78116373Y-121389743D01*
X78127834Y-121469453D01*
X78127835Y-121469458D01*
X78187622Y-121600371D01*
X78187623Y-121600373D01*
X78281872Y-121709143D01*
X78402947Y-121786953D01*
X78402950Y-121786954D01*
X78402949Y-121786954D01*
X78541036Y-121827499D01*
X78541038Y-121827500D01*
X78541039Y-121827500D01*
X78684962Y-121827500D01*
X78684962Y-121827499D01*
X78802459Y-121793000D01*
X78823050Y-121786954D01*
X78823050Y-121786953D01*
X78823053Y-121786953D01*
X78944128Y-121709143D01*
X79038377Y-121600373D01*
X79098165Y-121469457D01*
X79118647Y-121327000D01*
X79107860Y-121251973D01*
X79117804Y-121182815D01*
X79163559Y-121130011D01*
X79230598Y-121110327D01*
X79297638Y-121130012D01*
X79318279Y-121146646D01*
X80213181Y-122041548D01*
X80246666Y-122102871D01*
X80249500Y-122129229D01*
X80249500Y-122312298D01*
X80229815Y-122379337D01*
X80196625Y-122413872D01*
X80128595Y-122461507D01*
X79961505Y-122628597D01*
X79825965Y-122822169D01*
X79825964Y-122822171D01*
X79726098Y-123036335D01*
X79726094Y-123036344D01*
X79664938Y-123264586D01*
X79664936Y-123264596D01*
X79644341Y-123499999D01*
X79644341Y-123500000D01*
X79664936Y-123735403D01*
X79664938Y-123735413D01*
X79726094Y-123963655D01*
X79726096Y-123963659D01*
X79726097Y-123963663D01*
X79780413Y-124080143D01*
X79825965Y-124177830D01*
X79825967Y-124177834D01*
X79961501Y-124371395D01*
X79961506Y-124371402D01*
X80128597Y-124538493D01*
X80128603Y-124538498D01*
X80285595Y-124648425D01*
X80329220Y-124703002D01*
X80336414Y-124772500D01*
X80304891Y-124834855D01*
X80285595Y-124851575D01*
X80128597Y-124961505D01*
X79961505Y-125128597D01*
X79825965Y-125322169D01*
X79825964Y-125322171D01*
X79726098Y-125536335D01*
X79726094Y-125536344D01*
X79664938Y-125764586D01*
X79664936Y-125764596D01*
X79644341Y-125999999D01*
X79644341Y-126000000D01*
X79664936Y-126235403D01*
X79664938Y-126235413D01*
X79726094Y-126463655D01*
X79726096Y-126463659D01*
X79726097Y-126463663D01*
X79825965Y-126677830D01*
X79825967Y-126677834D01*
X79934281Y-126832521D01*
X79961505Y-126871401D01*
X80128599Y-127038495D01*
X80225384Y-127106265D01*
X80322165Y-127174032D01*
X80322167Y-127174033D01*
X80322170Y-127174035D01*
X80536337Y-127273903D01*
X80764592Y-127335063D01*
X80952918Y-127351539D01*
X80999999Y-127355659D01*
X81000000Y-127355659D01*
X81000001Y-127355659D01*
X81039234Y-127352226D01*
X81235408Y-127335063D01*
X81463663Y-127273903D01*
X81677830Y-127174035D01*
X81871401Y-127038495D01*
X82038495Y-126871401D01*
X82174035Y-126677830D01*
X82273903Y-126463663D01*
X82335063Y-126235408D01*
X82355659Y-126000000D01*
X82335063Y-125764592D01*
X82273903Y-125536337D01*
X82174035Y-125322171D01*
X82038495Y-125128599D01*
X82038494Y-125128597D01*
X81871402Y-124961506D01*
X81871396Y-124961501D01*
X81714405Y-124851575D01*
X81670780Y-124796998D01*
X81663586Y-124727500D01*
X81695109Y-124665145D01*
X81714405Y-124648425D01*
X81743635Y-124627957D01*
X81871401Y-124538495D01*
X82038495Y-124371401D01*
X82174035Y-124177830D01*
X82273903Y-123963663D01*
X82335063Y-123735408D01*
X82355659Y-123500000D01*
X82347992Y-123412370D01*
X82361758Y-123343872D01*
X82410373Y-123293689D01*
X82478402Y-123277755D01*
X82544245Y-123301130D01*
X82559201Y-123313883D01*
X83025788Y-123780470D01*
X83099979Y-123823304D01*
X83105712Y-123826614D01*
X83126693Y-123832235D01*
X83186353Y-123868599D01*
X83214375Y-123919917D01*
X83226094Y-123963655D01*
X83226096Y-123963659D01*
X83226097Y-123963663D01*
X83280413Y-124080143D01*
X83325965Y-124177830D01*
X83325967Y-124177834D01*
X83461501Y-124371395D01*
X83461506Y-124371402D01*
X83628597Y-124538493D01*
X83628603Y-124538498D01*
X83785595Y-124648425D01*
X83829220Y-124703002D01*
X83836414Y-124772500D01*
X83804891Y-124834855D01*
X83785595Y-124851575D01*
X83628597Y-124961505D01*
X83461505Y-125128597D01*
X83325965Y-125322169D01*
X83325964Y-125322171D01*
X83226098Y-125536335D01*
X83226094Y-125536344D01*
X83164938Y-125764586D01*
X83164936Y-125764596D01*
X83144341Y-125999999D01*
X83144341Y-126000000D01*
X83164936Y-126235403D01*
X83164938Y-126235413D01*
X83226094Y-126463655D01*
X83226096Y-126463659D01*
X83226097Y-126463663D01*
X83325965Y-126677830D01*
X83325967Y-126677834D01*
X83434281Y-126832521D01*
X83461505Y-126871401D01*
X83628599Y-127038495D01*
X83725384Y-127106265D01*
X83822165Y-127174032D01*
X83822167Y-127174033D01*
X83822170Y-127174035D01*
X84036337Y-127273903D01*
X84264592Y-127335063D01*
X84452918Y-127351539D01*
X84499999Y-127355659D01*
X84500000Y-127355659D01*
X84500001Y-127355659D01*
X84539234Y-127352226D01*
X84735408Y-127335063D01*
X84963663Y-127273903D01*
X85177830Y-127174035D01*
X85371401Y-127038495D01*
X85538495Y-126871401D01*
X85674035Y-126677830D01*
X85773903Y-126463663D01*
X85835063Y-126235408D01*
X85855659Y-126000000D01*
X85835063Y-125764592D01*
X85773903Y-125536337D01*
X85674035Y-125322171D01*
X85538495Y-125128599D01*
X85538494Y-125128597D01*
X85371402Y-124961506D01*
X85371396Y-124961501D01*
X85214405Y-124851575D01*
X85170780Y-124796998D01*
X85163586Y-124727500D01*
X85195109Y-124665145D01*
X85214405Y-124648425D01*
X85243635Y-124627957D01*
X85371401Y-124538495D01*
X85538495Y-124371401D01*
X85674035Y-124177830D01*
X85773903Y-123963663D01*
X85835063Y-123735408D01*
X85855659Y-123500000D01*
X85855659Y-123499999D01*
X86644341Y-123499999D01*
X86644341Y-123500000D01*
X86664936Y-123735403D01*
X86664938Y-123735413D01*
X86726094Y-123963655D01*
X86726096Y-123963659D01*
X86726097Y-123963663D01*
X86780413Y-124080143D01*
X86825965Y-124177830D01*
X86825967Y-124177834D01*
X86961501Y-124371395D01*
X86961506Y-124371402D01*
X87128597Y-124538493D01*
X87128603Y-124538498D01*
X87285595Y-124648425D01*
X87329220Y-124703002D01*
X87336414Y-124772500D01*
X87304891Y-124834855D01*
X87285595Y-124851575D01*
X87128597Y-124961505D01*
X86961505Y-125128597D01*
X86825965Y-125322169D01*
X86825964Y-125322171D01*
X86726098Y-125536335D01*
X86726094Y-125536344D01*
X86664938Y-125764586D01*
X86664936Y-125764596D01*
X86644341Y-125999999D01*
X86644341Y-126000000D01*
X86664936Y-126235403D01*
X86664938Y-126235413D01*
X86726094Y-126463655D01*
X86726096Y-126463659D01*
X86726097Y-126463663D01*
X86825965Y-126677830D01*
X86825967Y-126677834D01*
X86934281Y-126832521D01*
X86961505Y-126871401D01*
X87128599Y-127038495D01*
X87225384Y-127106265D01*
X87322165Y-127174032D01*
X87322167Y-127174033D01*
X87322170Y-127174035D01*
X87536337Y-127273903D01*
X87764592Y-127335063D01*
X87952918Y-127351539D01*
X87999999Y-127355659D01*
X88000000Y-127355659D01*
X88000001Y-127355659D01*
X88039234Y-127352226D01*
X88235408Y-127335063D01*
X88463663Y-127273903D01*
X88677830Y-127174035D01*
X88871401Y-127038495D01*
X89038495Y-126871401D01*
X89174035Y-126677830D01*
X89273903Y-126463663D01*
X89335063Y-126235408D01*
X89355659Y-126000000D01*
X89335063Y-125764592D01*
X89273903Y-125536337D01*
X89174035Y-125322171D01*
X89038495Y-125128599D01*
X89038494Y-125128597D01*
X88871402Y-124961506D01*
X88871396Y-124961501D01*
X88714405Y-124851575D01*
X88670780Y-124796998D01*
X88663586Y-124727500D01*
X88695109Y-124665145D01*
X88714405Y-124648425D01*
X88743635Y-124627957D01*
X88871401Y-124538495D01*
X89038495Y-124371401D01*
X89174035Y-124177830D01*
X89273903Y-123963663D01*
X89335063Y-123735408D01*
X89355659Y-123500000D01*
X89335063Y-123264592D01*
X89273903Y-123036337D01*
X89174035Y-122822171D01*
X89152849Y-122791913D01*
X89038494Y-122628597D01*
X88871402Y-122461506D01*
X88871395Y-122461501D01*
X88677834Y-122325967D01*
X88677830Y-122325965D01*
X88591314Y-122285622D01*
X88463663Y-122226097D01*
X88463659Y-122226096D01*
X88463655Y-122226094D01*
X88235413Y-122164938D01*
X88235403Y-122164936D01*
X88000001Y-122144341D01*
X87999999Y-122144341D01*
X87764596Y-122164936D01*
X87764586Y-122164938D01*
X87536344Y-122226094D01*
X87536335Y-122226098D01*
X87322171Y-122325964D01*
X87322169Y-122325965D01*
X87128597Y-122461505D01*
X86961505Y-122628597D01*
X86825965Y-122822169D01*
X86825964Y-122822171D01*
X86726098Y-123036335D01*
X86726094Y-123036344D01*
X86664938Y-123264586D01*
X86664936Y-123264596D01*
X86644341Y-123499999D01*
X85855659Y-123499999D01*
X85835063Y-123264592D01*
X85773903Y-123036337D01*
X85674035Y-122822171D01*
X85652849Y-122791913D01*
X85538494Y-122628597D01*
X85371402Y-122461506D01*
X85371395Y-122461501D01*
X85177834Y-122325967D01*
X85177830Y-122325965D01*
X85091314Y-122285622D01*
X84963663Y-122226097D01*
X84963659Y-122226096D01*
X84963655Y-122226094D01*
X84735413Y-122164938D01*
X84735403Y-122164936D01*
X84500001Y-122144341D01*
X84499999Y-122144341D01*
X84264596Y-122164936D01*
X84264586Y-122164938D01*
X84036344Y-122226094D01*
X84036335Y-122226098D01*
X83822171Y-122325964D01*
X83822169Y-122325965D01*
X83716470Y-122399976D01*
X83650263Y-122422304D01*
X83582496Y-122405292D01*
X83534684Y-122354344D01*
X83532553Y-122349913D01*
X83521616Y-122325964D01*
X83503194Y-122285626D01*
X83503191Y-122285622D01*
X83458603Y-122234163D01*
X83429579Y-122170607D01*
X83428317Y-122152962D01*
X83428317Y-121136600D01*
X83428317Y-121136598D01*
X83404431Y-121047454D01*
X83395591Y-121032143D01*
X83358287Y-120967530D01*
X82811664Y-120420907D01*
X92785353Y-120420907D01*
X92805834Y-120563363D01*
X92845401Y-120650000D01*
X92865623Y-120694280D01*
X92959872Y-120803050D01*
X93080947Y-120880860D01*
X93080950Y-120880861D01*
X93080949Y-120880861D01*
X93219036Y-120921406D01*
X93219038Y-120921407D01*
X93219039Y-120921407D01*
X93362962Y-120921407D01*
X93362962Y-120921406D01*
X93501053Y-120880860D01*
X93622128Y-120803050D01*
X93716377Y-120694280D01*
X93776165Y-120563364D01*
X93792555Y-120449363D01*
X93821580Y-120385809D01*
X93827598Y-120379344D01*
X94350879Y-119856063D01*
X94371511Y-119839437D01*
X94414128Y-119812050D01*
X94508377Y-119703280D01*
X94568165Y-119572364D01*
X94588647Y-119429907D01*
X94568165Y-119287450D01*
X94508377Y-119156534D01*
X94414128Y-119047764D01*
X94293053Y-118969954D01*
X94293051Y-118969953D01*
X94293049Y-118969952D01*
X94293050Y-118969952D01*
X94154963Y-118929407D01*
X94154961Y-118929407D01*
X94011039Y-118929407D01*
X94011036Y-118929407D01*
X93872949Y-118969952D01*
X93751873Y-119047763D01*
X93657623Y-119156533D01*
X93657622Y-119156535D01*
X93597834Y-119287450D01*
X93577353Y-119429907D01*
X93577353Y-119429908D01*
X93585817Y-119488781D01*
X93575873Y-119557940D01*
X93550760Y-119594108D01*
X93249097Y-119895772D01*
X93196351Y-119927068D01*
X93080948Y-119960952D01*
X92959873Y-120038763D01*
X92865623Y-120147533D01*
X92865622Y-120147535D01*
X92805834Y-120278450D01*
X92785353Y-120420907D01*
X82811664Y-120420907D01*
X82366503Y-119975746D01*
X82333018Y-119914423D01*
X82331449Y-119905730D01*
X82315165Y-119792468D01*
X82255377Y-119661552D01*
X82161128Y-119552782D01*
X82040053Y-119474972D01*
X82040051Y-119474971D01*
X82040049Y-119474970D01*
X82040050Y-119474970D01*
X81901963Y-119434425D01*
X81901961Y-119434425D01*
X81758039Y-119434425D01*
X81758036Y-119434425D01*
X81619949Y-119474970D01*
X81498873Y-119552781D01*
X81404623Y-119661551D01*
X81404622Y-119661553D01*
X81344834Y-119792468D01*
X81324353Y-119934925D01*
X81324353Y-119934926D01*
X81339095Y-120037466D01*
X81329151Y-120106625D01*
X81283395Y-120159428D01*
X81251293Y-120174089D01*
X81196948Y-120190046D01*
X81075873Y-120267856D01*
X80981623Y-120376626D01*
X80981622Y-120376628D01*
X80958428Y-120427416D01*
X80912673Y-120480220D01*
X80845633Y-120499904D01*
X80778594Y-120480219D01*
X80757953Y-120463585D01*
X78764819Y-118470451D01*
X78731334Y-118409128D01*
X78728500Y-118382770D01*
X78728500Y-117101023D01*
X78699659Y-116956036D01*
X78699658Y-116956035D01*
X78699658Y-116956031D01*
X78669842Y-116884049D01*
X78643087Y-116819455D01*
X78643080Y-116819442D01*
X78560952Y-116696529D01*
X78513969Y-116649546D01*
X78456416Y-116591993D01*
X78170911Y-116306488D01*
X77232477Y-115368052D01*
X77232470Y-115368046D01*
X77158785Y-115318812D01*
X77158785Y-115318813D01*
X77109547Y-115285913D01*
X76972973Y-115229343D01*
X76972963Y-115229340D01*
X76827976Y-115200500D01*
X76827974Y-115200500D01*
X76299138Y-115200500D01*
X76299136Y-115200500D01*
X76154148Y-115229340D01*
X76154138Y-115229343D01*
X76017567Y-115285912D01*
X76017554Y-115285919D01*
X75894640Y-115368048D01*
X75894636Y-115368051D01*
X75790107Y-115472580D01*
X75790104Y-115472584D01*
X75707975Y-115595498D01*
X75707968Y-115595511D01*
X75651399Y-115732082D01*
X75651396Y-115732092D01*
X75622556Y-115877079D01*
X75622556Y-115877082D01*
X75622556Y-116024918D01*
X75622556Y-116024920D01*
X75622555Y-116024920D01*
X64000000Y-116024920D01*
X64000000Y-110058907D01*
X67185353Y-110058907D01*
X67205834Y-110201363D01*
X67265622Y-110332278D01*
X67265623Y-110332280D01*
X67310213Y-110383740D01*
X67339238Y-110447295D01*
X67340500Y-110464942D01*
X67340500Y-110802870D01*
X67320815Y-110869909D01*
X67310214Y-110884071D01*
X67265625Y-110935530D01*
X67265622Y-110935535D01*
X67205834Y-111066450D01*
X67185353Y-111208907D01*
X67205834Y-111351363D01*
X67237594Y-111420906D01*
X67265623Y-111482280D01*
X67359872Y-111591050D01*
X67480947Y-111668860D01*
X67480950Y-111668861D01*
X67480949Y-111668861D01*
X67619036Y-111709406D01*
X67619038Y-111709407D01*
X67619039Y-111709407D01*
X67762962Y-111709407D01*
X67762962Y-111709406D01*
X67901053Y-111668860D01*
X68022128Y-111591050D01*
X68046119Y-111563363D01*
X71563852Y-111563363D01*
X71584333Y-111705819D01*
X71585972Y-111709407D01*
X71644122Y-111836736D01*
X71738371Y-111945506D01*
X71859446Y-112023316D01*
X71859449Y-112023317D01*
X71859448Y-112023317D01*
X71997535Y-112063862D01*
X71997537Y-112063863D01*
X71997538Y-112063863D01*
X72141461Y-112063863D01*
X72141461Y-112063862D01*
X72248620Y-112032398D01*
X72279549Y-112023317D01*
X72279549Y-112023316D01*
X72279552Y-112023316D01*
X72400627Y-111945506D01*
X72494876Y-111836736D01*
X72554664Y-111705820D01*
X72570946Y-111592571D01*
X72599969Y-111529019D01*
X72605988Y-111522554D01*
X74013724Y-110114819D01*
X74075047Y-110081334D01*
X74101405Y-110078500D01*
X75659105Y-110078500D01*
X75726144Y-110098185D01*
X75740312Y-110108790D01*
X75741866Y-110110137D01*
X75741872Y-110110143D01*
X75862947Y-110187953D01*
X75862950Y-110187954D01*
X75862949Y-110187954D01*
X76001036Y-110228499D01*
X76001038Y-110228500D01*
X76001039Y-110228500D01*
X76144962Y-110228500D01*
X76144962Y-110228499D01*
X76283053Y-110187953D01*
X76404128Y-110110143D01*
X76498377Y-110001373D01*
X76558165Y-109870457D01*
X76578647Y-109728000D01*
X76558165Y-109585543D01*
X76498377Y-109454627D01*
X76404128Y-109345857D01*
X76283053Y-109268047D01*
X76283051Y-109268046D01*
X76283049Y-109268045D01*
X76283050Y-109268045D01*
X76144963Y-109227500D01*
X76144961Y-109227500D01*
X76001039Y-109227500D01*
X76001036Y-109227500D01*
X75862949Y-109268045D01*
X75741876Y-109345854D01*
X75741874Y-109345855D01*
X75741872Y-109345857D01*
X75741870Y-109345858D01*
X75740312Y-109347210D01*
X75738427Y-109348070D01*
X75734411Y-109350652D01*
X75734039Y-109350074D01*
X75676757Y-109376237D01*
X75659105Y-109377500D01*
X73858718Y-109377500D01*
X73774935Y-109399948D01*
X73774936Y-109399949D01*
X73769577Y-109401385D01*
X73769574Y-109401386D01*
X73689653Y-109447528D01*
X73689647Y-109447533D01*
X72110636Y-111026544D01*
X72049313Y-111060029D01*
X72022955Y-111062863D01*
X71997535Y-111062863D01*
X71859448Y-111103408D01*
X71738372Y-111181219D01*
X71644122Y-111289989D01*
X71644121Y-111289991D01*
X71584333Y-111420906D01*
X71563852Y-111563363D01*
X68046119Y-111563363D01*
X68116377Y-111482280D01*
X68176165Y-111351364D01*
X68196647Y-111208907D01*
X68176165Y-111066450D01*
X68116377Y-110935534D01*
X68116374Y-110935530D01*
X68071786Y-110884071D01*
X68042762Y-110820515D01*
X68041500Y-110802870D01*
X68041500Y-110464942D01*
X68061185Y-110397903D01*
X68071782Y-110383744D01*
X68116377Y-110332280D01*
X68176165Y-110201364D01*
X68196647Y-110058907D01*
X68176165Y-109916450D01*
X68116377Y-109785534D01*
X68022128Y-109676764D01*
X67901053Y-109598954D01*
X67901051Y-109598953D01*
X67901049Y-109598952D01*
X67901050Y-109598952D01*
X67762963Y-109558407D01*
X67762961Y-109558407D01*
X67619039Y-109558407D01*
X67619036Y-109558407D01*
X67480949Y-109598952D01*
X67359873Y-109676763D01*
X67265623Y-109785533D01*
X67265622Y-109785535D01*
X67205834Y-109916450D01*
X67185353Y-110058907D01*
X64000000Y-110058907D01*
X64000000Y-108496893D01*
X82014014Y-108496893D01*
X82034495Y-108639349D01*
X82094283Y-108770264D01*
X82094283Y-108770265D01*
X82094284Y-108770266D01*
X82119213Y-108799036D01*
X82148238Y-108862590D01*
X82149500Y-108880238D01*
X82149500Y-109252667D01*
X82129815Y-109319706D01*
X82129094Y-109320669D01*
X82124622Y-109327628D01*
X82064834Y-109458543D01*
X82044353Y-109601000D01*
X82064834Y-109743456D01*
X82122834Y-109870456D01*
X82124623Y-109874373D01*
X82218872Y-109983143D01*
X82339947Y-110060953D01*
X82339950Y-110060954D01*
X82339949Y-110060954D01*
X82478036Y-110101499D01*
X82478038Y-110101500D01*
X82478039Y-110101500D01*
X82621962Y-110101500D01*
X82621962Y-110101499D01*
X82760053Y-110060953D01*
X82881128Y-109983143D01*
X82975377Y-109874373D01*
X83035165Y-109743457D01*
X83055647Y-109601000D01*
X83035165Y-109458543D01*
X83022087Y-109429907D01*
X93577353Y-109429907D01*
X93597834Y-109572363D01*
X93645513Y-109676763D01*
X93657623Y-109703280D01*
X93677212Y-109725887D01*
X93706238Y-109789441D01*
X93707500Y-109807090D01*
X93707500Y-111509815D01*
X93687815Y-111576854D01*
X93677215Y-111591016D01*
X93657623Y-111613627D01*
X93657622Y-111613628D01*
X93597834Y-111744543D01*
X93577353Y-111887000D01*
X93597834Y-112029456D01*
X93657622Y-112160371D01*
X93657623Y-112160373D01*
X93751872Y-112269143D01*
X93872947Y-112346953D01*
X93872950Y-112346954D01*
X93872949Y-112346954D01*
X94011036Y-112387499D01*
X94011038Y-112387500D01*
X94011039Y-112387500D01*
X94154962Y-112387500D01*
X94154962Y-112387499D01*
X94293053Y-112346953D01*
X94414128Y-112269143D01*
X94508377Y-112160373D01*
X94568165Y-112029457D01*
X94588647Y-111887000D01*
X94568165Y-111744543D01*
X94508377Y-111613627D01*
X94488785Y-111591016D01*
X94459762Y-111527460D01*
X94458500Y-111509815D01*
X94458500Y-109807090D01*
X94478185Y-109740051D01*
X94488783Y-109725892D01*
X94508377Y-109703280D01*
X94568165Y-109572364D01*
X94588647Y-109429907D01*
X94568165Y-109287450D01*
X94508377Y-109156534D01*
X94414128Y-109047764D01*
X94293053Y-108969954D01*
X94293051Y-108969953D01*
X94293049Y-108969952D01*
X94293050Y-108969952D01*
X94154963Y-108929407D01*
X94154961Y-108929407D01*
X94011039Y-108929407D01*
X94011036Y-108929407D01*
X93872949Y-108969952D01*
X93751873Y-109047763D01*
X93657623Y-109156533D01*
X93657622Y-109156535D01*
X93597834Y-109287450D01*
X93577353Y-109429907D01*
X83022087Y-109429907D01*
X82975377Y-109327627D01*
X82975374Y-109327624D01*
X82970582Y-109320166D01*
X82973621Y-109318212D01*
X82951749Y-109270224D01*
X82950500Y-109252667D01*
X82950500Y-108785280D01*
X82961706Y-108733768D01*
X83004826Y-108639349D01*
X83025308Y-108496893D01*
X83004826Y-108354436D01*
X82945038Y-108223520D01*
X82850789Y-108114750D01*
X82729714Y-108036940D01*
X82729712Y-108036939D01*
X82729710Y-108036938D01*
X82729711Y-108036938D01*
X82591624Y-107996393D01*
X82591622Y-107996393D01*
X82447700Y-107996393D01*
X82447697Y-107996393D01*
X82309610Y-108036938D01*
X82188534Y-108114749D01*
X82094284Y-108223519D01*
X82094283Y-108223521D01*
X82034495Y-108354436D01*
X82014014Y-108496893D01*
X64000000Y-108496893D01*
X64000000Y-107037908D01*
X68166850Y-107037908D01*
X68187331Y-107180364D01*
X68247119Y-107311279D01*
X68247120Y-107311281D01*
X68341369Y-107420051D01*
X68462444Y-107497861D01*
X68462447Y-107497862D01*
X68462446Y-107497862D01*
X68600533Y-107538407D01*
X68600535Y-107538408D01*
X68600536Y-107538408D01*
X68744459Y-107538408D01*
X68744459Y-107538407D01*
X68882550Y-107497861D01*
X69003625Y-107420051D01*
X69003633Y-107420041D01*
X69005185Y-107418698D01*
X69007069Y-107417837D01*
X69011086Y-107415256D01*
X69011457Y-107415833D01*
X69068740Y-107389671D01*
X69086392Y-107388408D01*
X70399141Y-107388408D01*
X70399143Y-107388408D01*
X70488287Y-107364522D01*
X70568211Y-107318378D01*
X71475863Y-106410726D01*
X71537186Y-106377241D01*
X71563544Y-106374407D01*
X71588962Y-106374407D01*
X71588962Y-106374406D01*
X71727053Y-106333860D01*
X71848128Y-106256050D01*
X71942377Y-106147280D01*
X72002165Y-106016364D01*
X72022647Y-105873907D01*
X72016440Y-105830733D01*
X81115620Y-105830733D01*
X81136101Y-105973189D01*
X81155819Y-106016364D01*
X81195890Y-106104106D01*
X81290139Y-106212876D01*
X81411214Y-106290686D01*
X81411217Y-106290687D01*
X81411216Y-106290687D01*
X81549303Y-106331232D01*
X81549305Y-106331233D01*
X81549306Y-106331233D01*
X81693229Y-106331233D01*
X81693229Y-106331232D01*
X81831320Y-106290686D01*
X81952395Y-106212876D01*
X82046644Y-106104106D01*
X82106432Y-105973190D01*
X82126914Y-105830733D01*
X82126914Y-105830731D01*
X82126914Y-105830129D01*
X82127083Y-105829550D01*
X82128176Y-105821954D01*
X82129268Y-105822111D01*
X82146599Y-105763090D01*
X82163233Y-105742448D01*
X82619791Y-105285891D01*
X82681114Y-105252406D01*
X82707472Y-105249572D01*
X82732890Y-105249572D01*
X82732890Y-105249571D01*
X82870981Y-105209025D01*
X82992056Y-105131215D01*
X83086305Y-105022445D01*
X83146093Y-104891529D01*
X83166575Y-104749072D01*
X83146093Y-104606615D01*
X83086305Y-104475699D01*
X82992056Y-104366929D01*
X82870981Y-104289119D01*
X82870979Y-104289118D01*
X82870977Y-104289117D01*
X82870978Y-104289117D01*
X82732891Y-104248572D01*
X82732889Y-104248572D01*
X82588967Y-104248572D01*
X82588964Y-104248572D01*
X82450877Y-104289117D01*
X82329801Y-104366928D01*
X82235551Y-104475698D01*
X82235550Y-104475700D01*
X82175762Y-104606615D01*
X82159480Y-104719860D01*
X82130454Y-104783415D01*
X82124423Y-104789893D01*
X81619108Y-105295209D01*
X81557785Y-105328694D01*
X81549381Y-105330210D01*
X81411216Y-105370778D01*
X81290140Y-105448589D01*
X81195890Y-105557359D01*
X81195889Y-105557361D01*
X81136101Y-105688276D01*
X81115620Y-105830733D01*
X72016440Y-105830733D01*
X72002165Y-105731450D01*
X71942377Y-105600534D01*
X71848128Y-105491764D01*
X71727053Y-105413954D01*
X71727051Y-105413953D01*
X71727049Y-105413952D01*
X71727050Y-105413952D01*
X71588963Y-105373407D01*
X71588961Y-105373407D01*
X71445039Y-105373407D01*
X71445036Y-105373407D01*
X71306949Y-105413952D01*
X71185873Y-105491763D01*
X71091623Y-105600533D01*
X71091622Y-105600535D01*
X71031834Y-105731450D01*
X71015552Y-105844695D01*
X70986526Y-105908250D01*
X70980495Y-105914728D01*
X70244136Y-106651089D01*
X70182813Y-106684574D01*
X70156455Y-106687408D01*
X69086392Y-106687408D01*
X69019353Y-106667723D01*
X69005185Y-106657118D01*
X69003629Y-106655770D01*
X69003625Y-106655765D01*
X68882550Y-106577955D01*
X68882548Y-106577954D01*
X68882546Y-106577953D01*
X68882547Y-106577953D01*
X68744460Y-106537408D01*
X68744458Y-106537408D01*
X68600536Y-106537408D01*
X68600533Y-106537408D01*
X68462446Y-106577953D01*
X68341370Y-106655764D01*
X68247120Y-106764534D01*
X68247119Y-106764536D01*
X68187331Y-106895451D01*
X68166850Y-107037908D01*
X64000000Y-107037908D01*
X64000000Y-101369285D01*
X67781250Y-101369285D01*
X67801731Y-101511741D01*
X67851726Y-101621213D01*
X67861520Y-101642658D01*
X67955769Y-101751428D01*
X68076844Y-101829238D01*
X68076847Y-101829239D01*
X68076846Y-101829239D01*
X68214933Y-101869784D01*
X68214935Y-101869785D01*
X68214936Y-101869785D01*
X68358858Y-101869785D01*
X68480940Y-101833939D01*
X68550806Y-101833939D01*
X68603553Y-101865235D01*
X69082181Y-102343863D01*
X69115666Y-102405186D01*
X69118500Y-102431544D01*
X69118500Y-102905963D01*
X69098815Y-102973002D01*
X69088214Y-102987164D01*
X69043625Y-103038623D01*
X69043622Y-103038628D01*
X68983834Y-103169543D01*
X68963353Y-103312000D01*
X68983834Y-103454456D01*
X69009822Y-103511360D01*
X69043623Y-103585373D01*
X69137872Y-103694143D01*
X69258947Y-103771953D01*
X69258950Y-103771954D01*
X69258949Y-103771954D01*
X69397036Y-103812499D01*
X69397038Y-103812500D01*
X69397039Y-103812500D01*
X69540962Y-103812500D01*
X69540962Y-103812499D01*
X69670525Y-103774457D01*
X69679050Y-103771954D01*
X69679050Y-103771953D01*
X69679053Y-103771953D01*
X69800128Y-103694143D01*
X69894377Y-103585373D01*
X69954165Y-103454457D01*
X69974647Y-103312000D01*
X69954165Y-103169543D01*
X69894377Y-103038627D01*
X69891561Y-103035377D01*
X69849786Y-102987164D01*
X69820762Y-102923608D01*
X69819500Y-102905963D01*
X69819500Y-102188858D01*
X69819500Y-102188856D01*
X69795614Y-102099712D01*
X69749470Y-102019788D01*
X69407262Y-101677580D01*
X71563853Y-101677580D01*
X71584334Y-101820036D01*
X71644122Y-101950951D01*
X71644123Y-101950953D01*
X71738372Y-102059723D01*
X71836373Y-102122704D01*
X71882127Y-102175507D01*
X71892071Y-102244665D01*
X71863046Y-102308221D01*
X71836374Y-102331334D01*
X71760873Y-102379856D01*
X71760872Y-102379856D01*
X71760872Y-102379857D01*
X71749917Y-102392500D01*
X71666623Y-102488626D01*
X71666622Y-102488628D01*
X71606834Y-102619543D01*
X71586353Y-102762000D01*
X71606834Y-102904456D01*
X71666622Y-103035371D01*
X71666625Y-103035377D01*
X71736310Y-103115798D01*
X71765335Y-103179354D01*
X71755391Y-103248512D01*
X71736310Y-103278202D01*
X71666625Y-103358622D01*
X71666622Y-103358628D01*
X71606834Y-103489543D01*
X71586353Y-103632000D01*
X71606834Y-103774456D01*
X71657871Y-103886210D01*
X71666623Y-103905373D01*
X71760872Y-104014143D01*
X71881947Y-104091953D01*
X71881950Y-104091954D01*
X71881949Y-104091954D01*
X72020036Y-104132499D01*
X72020038Y-104132500D01*
X72020039Y-104132500D01*
X72163962Y-104132500D01*
X72163962Y-104132499D01*
X72302053Y-104091953D01*
X72423128Y-104014143D01*
X72517377Y-103905373D01*
X72535041Y-103866693D01*
X72560149Y-103830531D01*
X72860862Y-103529819D01*
X72922185Y-103496334D01*
X72948543Y-103493500D01*
X74879456Y-103493500D01*
X74946495Y-103513185D01*
X74967137Y-103529819D01*
X75599995Y-104162677D01*
X75633480Y-104224000D01*
X75635052Y-104232710D01*
X75651334Y-104345956D01*
X75710586Y-104475698D01*
X75711123Y-104476873D01*
X75805372Y-104585643D01*
X75926447Y-104663453D01*
X75926450Y-104663454D01*
X75926449Y-104663454D01*
X76064536Y-104703999D01*
X76064538Y-104704000D01*
X76064539Y-104704000D01*
X76208462Y-104704000D01*
X76208462Y-104703999D01*
X76346553Y-104663453D01*
X76467628Y-104585643D01*
X76561877Y-104476873D01*
X76561877Y-104476872D01*
X76566329Y-104471735D01*
X76625107Y-104433960D01*
X76694976Y-104433960D01*
X76753755Y-104471734D01*
X76772836Y-104501426D01*
X76790620Y-104540369D01*
X76790623Y-104540373D01*
X76884872Y-104649143D01*
X77005947Y-104726953D01*
X77005950Y-104726954D01*
X77005949Y-104726954D01*
X77144036Y-104767499D01*
X77144038Y-104767500D01*
X77144039Y-104767500D01*
X77287962Y-104767500D01*
X77287962Y-104767499D01*
X77426053Y-104726953D01*
X77547128Y-104649143D01*
X77547136Y-104649133D01*
X77548688Y-104647790D01*
X77550572Y-104646929D01*
X77554589Y-104644348D01*
X77554960Y-104644925D01*
X77612243Y-104618763D01*
X77629895Y-104617500D01*
X77883636Y-104617500D01*
X77950675Y-104637185D01*
X77977347Y-104660295D01*
X78026374Y-104716876D01*
X78147449Y-104794686D01*
X78147452Y-104794687D01*
X78147451Y-104794687D01*
X78285538Y-104835232D01*
X78285540Y-104835233D01*
X78285541Y-104835233D01*
X78429464Y-104835233D01*
X78429464Y-104835232D01*
X78567555Y-104794686D01*
X78688630Y-104716876D01*
X78782879Y-104608106D01*
X78842667Y-104477190D01*
X78862494Y-104339283D01*
X78891519Y-104275729D01*
X78950296Y-104237954D01*
X79020166Y-104237954D01*
X79036744Y-104244137D01*
X79037948Y-104244687D01*
X79176036Y-104285232D01*
X79176038Y-104285233D01*
X79176039Y-104285233D01*
X79319962Y-104285233D01*
X79319962Y-104285232D01*
X79427121Y-104253768D01*
X79458050Y-104244687D01*
X79458050Y-104244686D01*
X79458053Y-104244686D01*
X79579128Y-104166876D01*
X79673377Y-104058106D01*
X79733165Y-103927190D01*
X79753647Y-103784733D01*
X79733165Y-103642276D01*
X79673377Y-103511360D01*
X79579128Y-103402590D01*
X79458053Y-103324780D01*
X79458051Y-103324779D01*
X79458049Y-103324778D01*
X79458050Y-103324778D01*
X79319963Y-103284233D01*
X79319961Y-103284233D01*
X79176039Y-103284233D01*
X79176038Y-103284233D01*
X79029439Y-103327278D01*
X79028802Y-103325110D01*
X78971929Y-103333281D01*
X78908377Y-103304250D01*
X78901908Y-103298226D01*
X77177213Y-101573531D01*
X77177208Y-101573527D01*
X77097286Y-101527385D01*
X77097285Y-101527384D01*
X77008149Y-101503501D01*
X77008144Y-101503501D01*
X76915856Y-101503501D01*
X76915760Y-101503526D01*
X76883675Y-101507750D01*
X75273356Y-101507750D01*
X75184212Y-101531636D01*
X75184209Y-101531637D01*
X75104291Y-101577777D01*
X75104286Y-101577781D01*
X74833887Y-101848181D01*
X74772564Y-101881666D01*
X74746206Y-101884500D01*
X72823464Y-101884500D01*
X72756425Y-101864815D01*
X72735783Y-101848181D01*
X72606003Y-101718401D01*
X72572518Y-101657078D01*
X72570949Y-101648385D01*
X72554665Y-101535123D01*
X72494877Y-101404207D01*
X72400628Y-101295437D01*
X72279553Y-101217627D01*
X72279551Y-101217626D01*
X72279549Y-101217625D01*
X72279550Y-101217625D01*
X72141463Y-101177080D01*
X72141461Y-101177080D01*
X71997539Y-101177080D01*
X71997536Y-101177080D01*
X71859449Y-101217625D01*
X71738373Y-101295436D01*
X71644123Y-101404206D01*
X71644122Y-101404208D01*
X71584334Y-101535123D01*
X71563853Y-101677580D01*
X69407262Y-101677580D01*
X68818497Y-101088815D01*
X68818496Y-101088814D01*
X68818493Y-101088812D01*
X68738576Y-101042672D01*
X68738572Y-101042670D01*
X68733211Y-101041234D01*
X68733211Y-101041233D01*
X68680961Y-101027234D01*
X68621301Y-100990870D01*
X68619339Y-100988659D01*
X68618024Y-100987141D01*
X68571399Y-100957177D01*
X68496950Y-100909332D01*
X68496948Y-100909331D01*
X68496946Y-100909330D01*
X68496947Y-100909330D01*
X68358860Y-100868785D01*
X68358858Y-100868785D01*
X68214936Y-100868785D01*
X68214933Y-100868785D01*
X68076846Y-100909330D01*
X67955770Y-100987141D01*
X67861520Y-101095911D01*
X67861519Y-101095913D01*
X67801731Y-101226828D01*
X67781250Y-101369285D01*
X64000000Y-101369285D01*
X64000000Y-100421907D01*
X77726353Y-100421907D01*
X77746834Y-100564363D01*
X77806622Y-100695278D01*
X77806623Y-100695280D01*
X77900872Y-100804050D01*
X78021947Y-100881860D01*
X78021950Y-100881861D01*
X78021949Y-100881861D01*
X78160036Y-100922406D01*
X78160038Y-100922407D01*
X78160039Y-100922407D01*
X78303962Y-100922407D01*
X78303962Y-100922406D01*
X78442053Y-100881860D01*
X78563128Y-100804050D01*
X78657377Y-100695280D01*
X78717165Y-100564364D01*
X78737647Y-100421907D01*
X78717165Y-100279450D01*
X78657377Y-100148534D01*
X78657374Y-100148530D01*
X78612786Y-100097071D01*
X78583762Y-100033515D01*
X78582500Y-100015870D01*
X78582500Y-99893921D01*
X78602185Y-99826882D01*
X78654989Y-99781127D01*
X78672183Y-99776096D01*
X78671834Y-99774906D01*
X78818432Y-99731861D01*
X78818432Y-99731860D01*
X78818435Y-99731860D01*
X78939510Y-99654050D01*
X79033759Y-99545280D01*
X79093547Y-99414364D01*
X79114029Y-99271907D01*
X79093547Y-99129450D01*
X79033759Y-98998534D01*
X78939510Y-98889764D01*
X78818435Y-98811954D01*
X78818433Y-98811953D01*
X78818431Y-98811952D01*
X78818432Y-98811952D01*
X78680345Y-98771407D01*
X78680343Y-98771407D01*
X78536421Y-98771407D01*
X78536416Y-98771407D01*
X78531622Y-98772096D01*
X78515886Y-98769832D01*
X78504911Y-98779343D01*
X78488333Y-98785526D01*
X78398331Y-98811952D01*
X78277255Y-98889763D01*
X78183005Y-98998533D01*
X78183004Y-98998535D01*
X78123216Y-99129450D01*
X78106935Y-99242693D01*
X78077910Y-99306249D01*
X78071879Y-99312727D01*
X77951528Y-99433078D01*
X77920330Y-99487118D01*
X77920328Y-99487121D01*
X77905386Y-99512998D01*
X77881500Y-99602145D01*
X77881500Y-100015870D01*
X77861815Y-100082909D01*
X77851214Y-100097071D01*
X77806625Y-100148530D01*
X77806622Y-100148535D01*
X77746834Y-100279450D01*
X77726353Y-100421907D01*
X64000000Y-100421907D01*
X64000000Y-97763468D01*
X71291353Y-97763468D01*
X71311834Y-97905924D01*
X71348653Y-97986544D01*
X71371623Y-98036841D01*
X71465872Y-98145611D01*
X71586947Y-98223421D01*
X71586950Y-98223422D01*
X71586949Y-98223422D01*
X71725036Y-98263967D01*
X71725038Y-98263968D01*
X71725039Y-98263968D01*
X71868962Y-98263968D01*
X71868962Y-98263967D01*
X72007053Y-98223421D01*
X72128128Y-98145611D01*
X72128136Y-98145601D01*
X72129688Y-98144258D01*
X72131572Y-98143397D01*
X72135589Y-98140816D01*
X72135960Y-98141393D01*
X72193243Y-98115231D01*
X72210895Y-98113968D01*
X73899682Y-98113968D01*
X73966721Y-98133653D01*
X73987363Y-98150287D01*
X74923546Y-99086470D01*
X74997990Y-99129450D01*
X75003470Y-99132614D01*
X75092614Y-99156500D01*
X76862105Y-99156500D01*
X76929144Y-99176185D01*
X76943312Y-99186790D01*
X76944866Y-99188137D01*
X76944872Y-99188143D01*
X77065947Y-99265953D01*
X77065950Y-99265954D01*
X77065949Y-99265954D01*
X77173107Y-99297417D01*
X77203184Y-99306249D01*
X77204036Y-99306499D01*
X77204038Y-99306500D01*
X77204039Y-99306500D01*
X77347962Y-99306500D01*
X77347962Y-99306499D01*
X77486053Y-99265953D01*
X77607128Y-99188143D01*
X77701377Y-99079373D01*
X77761165Y-98948457D01*
X77781647Y-98806000D01*
X77761165Y-98663543D01*
X77718449Y-98570010D01*
X77708506Y-98500854D01*
X77737531Y-98437298D01*
X77796308Y-98399523D01*
X77831244Y-98394500D01*
X77945105Y-98394500D01*
X78012144Y-98414185D01*
X78026312Y-98424790D01*
X78027866Y-98426137D01*
X78027872Y-98426143D01*
X78148947Y-98503953D01*
X78148950Y-98503954D01*
X78148949Y-98503954D01*
X78238947Y-98530379D01*
X78284692Y-98543811D01*
X78287036Y-98544499D01*
X78287038Y-98544500D01*
X78287039Y-98544500D01*
X78430957Y-98544500D01*
X78430961Y-98544500D01*
X78430964Y-98544498D01*
X78435749Y-98543811D01*
X78451495Y-98546074D01*
X78462479Y-98536559D01*
X78479037Y-98530383D01*
X78569053Y-98503953D01*
X78690128Y-98426143D01*
X78784377Y-98317373D01*
X78844165Y-98186457D01*
X78864647Y-98044000D01*
X78844165Y-97901543D01*
X78784377Y-97770627D01*
X78690128Y-97661857D01*
X78569053Y-97584047D01*
X78569051Y-97584046D01*
X78569049Y-97584045D01*
X78569050Y-97584045D01*
X78430963Y-97543500D01*
X78430961Y-97543500D01*
X78287039Y-97543500D01*
X78287036Y-97543500D01*
X78148949Y-97584045D01*
X78027876Y-97661854D01*
X78027874Y-97661855D01*
X78027872Y-97661857D01*
X78027870Y-97661858D01*
X78026312Y-97663210D01*
X78024427Y-97664070D01*
X78020411Y-97666652D01*
X78020039Y-97666074D01*
X77962757Y-97692237D01*
X77945105Y-97693500D01*
X77308895Y-97693500D01*
X77241856Y-97673815D01*
X77227688Y-97663210D01*
X77226132Y-97661862D01*
X77226128Y-97661857D01*
X77105053Y-97584047D01*
X77105051Y-97584046D01*
X77105049Y-97584045D01*
X77105050Y-97584045D01*
X76966963Y-97543500D01*
X76966961Y-97543500D01*
X76823039Y-97543500D01*
X76823036Y-97543500D01*
X76684949Y-97584045D01*
X76563873Y-97661856D01*
X76563872Y-97661856D01*
X76563872Y-97661857D01*
X76560218Y-97666074D01*
X76469623Y-97770626D01*
X76469622Y-97770628D01*
X76409834Y-97901543D01*
X76389353Y-98044000D01*
X76409834Y-98186456D01*
X76435882Y-98243492D01*
X76445233Y-98263968D01*
X76452550Y-98279988D01*
X76462494Y-98349146D01*
X76433469Y-98412702D01*
X76374692Y-98450477D01*
X76339756Y-98455500D01*
X75335302Y-98455500D01*
X75268263Y-98435815D01*
X75247621Y-98419181D01*
X74311439Y-97482999D01*
X74311434Y-97482995D01*
X74231517Y-97436855D01*
X74231513Y-97436853D01*
X74226152Y-97435417D01*
X74226152Y-97435416D01*
X74157702Y-97417076D01*
X74142370Y-97412968D01*
X74142369Y-97412968D01*
X72210895Y-97412968D01*
X72143856Y-97393283D01*
X72129688Y-97382678D01*
X72128132Y-97381330D01*
X72128128Y-97381325D01*
X72007053Y-97303515D01*
X72007051Y-97303514D01*
X72007049Y-97303513D01*
X72007050Y-97303513D01*
X71868963Y-97262968D01*
X71868961Y-97262968D01*
X71725039Y-97262968D01*
X71725036Y-97262968D01*
X71586949Y-97303513D01*
X71465873Y-97381324D01*
X71371623Y-97490094D01*
X71371622Y-97490096D01*
X71311834Y-97621011D01*
X71291353Y-97763468D01*
X64000000Y-97763468D01*
X64000000Y-96901000D01*
X67820353Y-96901000D01*
X67840834Y-97043456D01*
X67893680Y-97159171D01*
X67900623Y-97174373D01*
X67994872Y-97283143D01*
X68115947Y-97360953D01*
X68115950Y-97360954D01*
X68115949Y-97360954D01*
X68254036Y-97401499D01*
X68254038Y-97401500D01*
X68254039Y-97401500D01*
X68397962Y-97401500D01*
X68397962Y-97401499D01*
X68536053Y-97360953D01*
X68657128Y-97283143D01*
X68657136Y-97283133D01*
X68658688Y-97281790D01*
X68660572Y-97280929D01*
X68664589Y-97278348D01*
X68664960Y-97278925D01*
X68722243Y-97252763D01*
X68739895Y-97251500D01*
X70536049Y-97251500D01*
X70536051Y-97251500D01*
X70625195Y-97227614D01*
X70643489Y-97217052D01*
X70652789Y-97211683D01*
X70652790Y-97211682D01*
X70705119Y-97181470D01*
X71475863Y-96410726D01*
X71537186Y-96377241D01*
X71563544Y-96374407D01*
X71588962Y-96374407D01*
X71588962Y-96374406D01*
X71727053Y-96333860D01*
X71848128Y-96256050D01*
X71942377Y-96147280D01*
X72002165Y-96016364D01*
X72022647Y-95873907D01*
X72002165Y-95731450D01*
X71942377Y-95600534D01*
X71848128Y-95491764D01*
X71727053Y-95413954D01*
X71727051Y-95413953D01*
X71727049Y-95413952D01*
X71727050Y-95413952D01*
X71588963Y-95373407D01*
X71588961Y-95373407D01*
X71445039Y-95373407D01*
X71445036Y-95373407D01*
X71306949Y-95413952D01*
X71185873Y-95491763D01*
X71091623Y-95600533D01*
X71091622Y-95600535D01*
X71031834Y-95731450D01*
X71015552Y-95844695D01*
X70986526Y-95908250D01*
X70980495Y-95914728D01*
X70381044Y-96514181D01*
X70319721Y-96547666D01*
X70293363Y-96550500D01*
X68739895Y-96550500D01*
X68672856Y-96530815D01*
X68658688Y-96520210D01*
X68657132Y-96518862D01*
X68657128Y-96518857D01*
X68536053Y-96441047D01*
X68536051Y-96441046D01*
X68536049Y-96441045D01*
X68536050Y-96441045D01*
X68397963Y-96400500D01*
X68397961Y-96400500D01*
X68254039Y-96400500D01*
X68254036Y-96400500D01*
X68115949Y-96441045D01*
X67994873Y-96518856D01*
X67900623Y-96627626D01*
X67900622Y-96627628D01*
X67840834Y-96758543D01*
X67820353Y-96901000D01*
X64000000Y-96901000D01*
X64000000Y-93726000D01*
X71586353Y-93726000D01*
X71606834Y-93868456D01*
X71666622Y-93999371D01*
X71666623Y-93999373D01*
X71760872Y-94108143D01*
X71881947Y-94185953D01*
X71881950Y-94185954D01*
X71881949Y-94185954D01*
X72020036Y-94226499D01*
X72020038Y-94226500D01*
X72020039Y-94226500D01*
X72163962Y-94226500D01*
X72163962Y-94226499D01*
X72302053Y-94185953D01*
X72402834Y-94121184D01*
X72469874Y-94101500D01*
X73409452Y-94101500D01*
X73476491Y-94121185D01*
X73497133Y-94137819D01*
X75691525Y-96332211D01*
X75761438Y-96402124D01*
X75828855Y-96441047D01*
X75847062Y-96451559D01*
X75894811Y-96464354D01*
X75894812Y-96464354D01*
X75904903Y-96467057D01*
X75942564Y-96477149D01*
X75942565Y-96477149D01*
X76203126Y-96477149D01*
X76270165Y-96496834D01*
X76270166Y-96496834D01*
X76370947Y-96561602D01*
X76370948Y-96561602D01*
X76370949Y-96561603D01*
X76509036Y-96602148D01*
X76509038Y-96602149D01*
X76509039Y-96602149D01*
X76652962Y-96602149D01*
X76652962Y-96602148D01*
X76791053Y-96561602D01*
X76796101Y-96558358D01*
X79704177Y-96558358D01*
X79724658Y-96700814D01*
X79757559Y-96772856D01*
X79784447Y-96831731D01*
X79829037Y-96883191D01*
X79858062Y-96946746D01*
X79859324Y-96964393D01*
X79859324Y-97778746D01*
X79872733Y-97828789D01*
X79872733Y-97828790D01*
X79883208Y-97867887D01*
X79883209Y-97867888D01*
X79929351Y-97947810D01*
X79929355Y-97947815D01*
X81972082Y-99990542D01*
X82005567Y-100051865D01*
X82007139Y-100060575D01*
X82023421Y-100173821D01*
X82037269Y-100204143D01*
X82083210Y-100304738D01*
X82177459Y-100413508D01*
X82298534Y-100491318D01*
X82298537Y-100491319D01*
X82298536Y-100491319D01*
X82436623Y-100531864D01*
X82436625Y-100531865D01*
X82436626Y-100531865D01*
X82580549Y-100531865D01*
X82580549Y-100531864D01*
X82718640Y-100491318D01*
X82839715Y-100413508D01*
X82933964Y-100304738D01*
X82993752Y-100173822D01*
X83014234Y-100031365D01*
X82993752Y-99888908D01*
X82971873Y-99841000D01*
X88352353Y-99841000D01*
X88372834Y-99983456D01*
X88416455Y-100078970D01*
X88432623Y-100114373D01*
X88526872Y-100223143D01*
X88647947Y-100300953D01*
X88647950Y-100300954D01*
X88647949Y-100300954D01*
X88786036Y-100341499D01*
X88786038Y-100341500D01*
X88786039Y-100341500D01*
X88929962Y-100341500D01*
X88929962Y-100341499D01*
X89037121Y-100310035D01*
X89068050Y-100300954D01*
X89068050Y-100300953D01*
X89068053Y-100300953D01*
X89189128Y-100223143D01*
X89283377Y-100114373D01*
X89299544Y-100078971D01*
X89345297Y-100026168D01*
X89412337Y-100006483D01*
X89479376Y-100026167D01*
X89525131Y-100078969D01*
X89532623Y-100095373D01*
X89626872Y-100204143D01*
X89747947Y-100281953D01*
X89747950Y-100281954D01*
X89747949Y-100281954D01*
X89886036Y-100322499D01*
X89886038Y-100322500D01*
X89886039Y-100322500D01*
X90029962Y-100322500D01*
X90029962Y-100322499D01*
X90168053Y-100281953D01*
X90289128Y-100204143D01*
X90383377Y-100095373D01*
X90443165Y-99964457D01*
X90459447Y-99851208D01*
X90488470Y-99787656D01*
X90494489Y-99781191D01*
X90845774Y-99429907D01*
X93577353Y-99429907D01*
X93597834Y-99572363D01*
X93655460Y-99698543D01*
X93657623Y-99703280D01*
X93702213Y-99754740D01*
X93731238Y-99818295D01*
X93732500Y-99835942D01*
X93732500Y-101574963D01*
X93712815Y-101642002D01*
X93702214Y-101656164D01*
X93657625Y-101707623D01*
X93657622Y-101707628D01*
X93597834Y-101838543D01*
X93577353Y-101981000D01*
X93597834Y-102123456D01*
X93627702Y-102188856D01*
X93657623Y-102254373D01*
X93751872Y-102363143D01*
X93872947Y-102440953D01*
X93872950Y-102440954D01*
X93872949Y-102440954D01*
X94011036Y-102481499D01*
X94011038Y-102481500D01*
X94011039Y-102481500D01*
X94154962Y-102481500D01*
X94154962Y-102481499D01*
X94293053Y-102440953D01*
X94414128Y-102363143D01*
X94508377Y-102254373D01*
X94568165Y-102123457D01*
X94588647Y-101981000D01*
X94568165Y-101838543D01*
X94508377Y-101707627D01*
X94508374Y-101707623D01*
X94463786Y-101656164D01*
X94434762Y-101592608D01*
X94433500Y-101574963D01*
X94433500Y-99835942D01*
X94453185Y-99768903D01*
X94463782Y-99754744D01*
X94508377Y-99703280D01*
X94568165Y-99572364D01*
X94588647Y-99429907D01*
X94568165Y-99287450D01*
X94508377Y-99156534D01*
X94414128Y-99047764D01*
X94293053Y-98969954D01*
X94293051Y-98969953D01*
X94293049Y-98969952D01*
X94293050Y-98969952D01*
X94154963Y-98929407D01*
X94154961Y-98929407D01*
X94011039Y-98929407D01*
X94011036Y-98929407D01*
X93872949Y-98969952D01*
X93751873Y-99047763D01*
X93657623Y-99156533D01*
X93657622Y-99156535D01*
X93597834Y-99287450D01*
X93577353Y-99429907D01*
X90845774Y-99429907D01*
X91136275Y-99139406D01*
X91182420Y-99059482D01*
X91192674Y-99021212D01*
X91206306Y-98970338D01*
X91206306Y-97713055D01*
X91225991Y-97646016D01*
X91236588Y-97631857D01*
X91281183Y-97580393D01*
X91340971Y-97449477D01*
X91361453Y-97307020D01*
X91340971Y-97164563D01*
X91281183Y-97033647D01*
X91186934Y-96924877D01*
X91065859Y-96847067D01*
X91065857Y-96847066D01*
X91065855Y-96847065D01*
X91065856Y-96847065D01*
X90927769Y-96806520D01*
X90927767Y-96806520D01*
X90783845Y-96806520D01*
X90783842Y-96806520D01*
X90645755Y-96847065D01*
X90602976Y-96874558D01*
X90535936Y-96894242D01*
X90468897Y-96874557D01*
X90442224Y-96851445D01*
X90374128Y-96772857D01*
X90253053Y-96695047D01*
X90253051Y-96695046D01*
X90253049Y-96695045D01*
X90253050Y-96695045D01*
X90114963Y-96654500D01*
X90114961Y-96654500D01*
X89971039Y-96654500D01*
X89971036Y-96654500D01*
X89832949Y-96695045D01*
X89711873Y-96772856D01*
X89617623Y-96881626D01*
X89617622Y-96881628D01*
X89564416Y-96998132D01*
X89518661Y-97050936D01*
X89451621Y-97070620D01*
X89384582Y-97050935D01*
X89357910Y-97027824D01*
X89350218Y-97018947D01*
X89303593Y-96988983D01*
X89229144Y-96941138D01*
X89229142Y-96941137D01*
X89229140Y-96941136D01*
X89229141Y-96941136D01*
X89091054Y-96900591D01*
X89091052Y-96900591D01*
X88947130Y-96900591D01*
X88947127Y-96900591D01*
X88809040Y-96941136D01*
X88687964Y-97018947D01*
X88593714Y-97127717D01*
X88593713Y-97127719D01*
X88533925Y-97258634D01*
X88513444Y-97401091D01*
X88518504Y-97436288D01*
X88515541Y-97486025D01*
X88507500Y-97516032D01*
X88507500Y-99434963D01*
X88487815Y-99502002D01*
X88477214Y-99516164D01*
X88432625Y-99567623D01*
X88432622Y-99567628D01*
X88372834Y-99698543D01*
X88352353Y-99841000D01*
X82971873Y-99841000D01*
X82933964Y-99757992D01*
X82839715Y-99649222D01*
X82718640Y-99571412D01*
X82718638Y-99571411D01*
X82718636Y-99571410D01*
X82718637Y-99571410D01*
X82580550Y-99530865D01*
X82580548Y-99530865D01*
X82555131Y-99530865D01*
X82488092Y-99511180D01*
X82467450Y-99494546D01*
X80596643Y-97623739D01*
X80563158Y-97562416D01*
X80560324Y-97536058D01*
X80560324Y-96964393D01*
X80580009Y-96897354D01*
X80590606Y-96883195D01*
X80635201Y-96831731D01*
X80694989Y-96700815D01*
X80715471Y-96558358D01*
X80694989Y-96415901D01*
X80635201Y-96284985D01*
X80540952Y-96176215D01*
X80419877Y-96098405D01*
X80419875Y-96098404D01*
X80419873Y-96098403D01*
X80419874Y-96098403D01*
X80281787Y-96057858D01*
X80281785Y-96057858D01*
X80137863Y-96057858D01*
X80137860Y-96057858D01*
X79999773Y-96098403D01*
X79878697Y-96176214D01*
X79784447Y-96284984D01*
X79784446Y-96284986D01*
X79724658Y-96415901D01*
X79704177Y-96558358D01*
X76796101Y-96558358D01*
X76912128Y-96483792D01*
X77006377Y-96375022D01*
X77066165Y-96244106D01*
X77086647Y-96101649D01*
X77066165Y-95959192D01*
X77006377Y-95828276D01*
X76978335Y-95795913D01*
X91861266Y-95795913D01*
X91881747Y-95938369D01*
X91917367Y-96016364D01*
X91941536Y-96069286D01*
X92035785Y-96178056D01*
X92156860Y-96255866D01*
X92156863Y-96255867D01*
X92156862Y-96255867D01*
X92294949Y-96296412D01*
X92294951Y-96296413D01*
X92294952Y-96296413D01*
X92320369Y-96296413D01*
X92387408Y-96316098D01*
X92408050Y-96332732D01*
X92594681Y-96519363D01*
X92628166Y-96580686D01*
X92629738Y-96624688D01*
X92624853Y-96658669D01*
X92624853Y-96658671D01*
X92645334Y-96801128D01*
X92701849Y-96924876D01*
X92705123Y-96932045D01*
X92799372Y-97040815D01*
X92920447Y-97118625D01*
X92920450Y-97118626D01*
X92920449Y-97118626D01*
X93027607Y-97150089D01*
X93044330Y-97155000D01*
X93058536Y-97159171D01*
X93058538Y-97159172D01*
X93058539Y-97159172D01*
X93202462Y-97159172D01*
X93202462Y-97159171D01*
X93340553Y-97118625D01*
X93461628Y-97040815D01*
X93555877Y-96932045D01*
X93615665Y-96801129D01*
X93636147Y-96658672D01*
X93615665Y-96516215D01*
X93555877Y-96385299D01*
X93461628Y-96276529D01*
X93340553Y-96198719D01*
X93340551Y-96198718D01*
X93340549Y-96198717D01*
X93340550Y-96198717D01*
X93264529Y-96176396D01*
X93211782Y-96145100D01*
X92903416Y-95836734D01*
X92869931Y-95775411D01*
X92868362Y-95766718D01*
X92852078Y-95653456D01*
X92792290Y-95522540D01*
X92698041Y-95413770D01*
X92576966Y-95335960D01*
X92576964Y-95335959D01*
X92576962Y-95335958D01*
X92576963Y-95335958D01*
X92438876Y-95295413D01*
X92438874Y-95295413D01*
X92294952Y-95295413D01*
X92294949Y-95295413D01*
X92156862Y-95335958D01*
X92035786Y-95413769D01*
X91941536Y-95522539D01*
X91941535Y-95522541D01*
X91881747Y-95653456D01*
X91861266Y-95795913D01*
X76978335Y-95795913D01*
X76912128Y-95719506D01*
X76791053Y-95641696D01*
X76791051Y-95641695D01*
X76791049Y-95641694D01*
X76791050Y-95641694D01*
X76652963Y-95601149D01*
X76652961Y-95601149D01*
X76509039Y-95601149D01*
X76509036Y-95601149D01*
X76370949Y-95641694D01*
X76370948Y-95641695D01*
X76270166Y-95706464D01*
X76203126Y-95726149D01*
X76198899Y-95726149D01*
X76131860Y-95706464D01*
X76111218Y-95689830D01*
X73846914Y-93425526D01*
X73846913Y-93425525D01*
X73761289Y-93376090D01*
X73713537Y-93363295D01*
X73713535Y-93363294D01*
X73713533Y-93363293D01*
X73665787Y-93350500D01*
X73665786Y-93350500D01*
X72469874Y-93350500D01*
X72402835Y-93330815D01*
X72402834Y-93330815D01*
X72302051Y-93266046D01*
X72302050Y-93266045D01*
X72163963Y-93225500D01*
X72163961Y-93225500D01*
X72020039Y-93225500D01*
X72020036Y-93225500D01*
X71881949Y-93266045D01*
X71760873Y-93343856D01*
X71666623Y-93452626D01*
X71666622Y-93452628D01*
X71606834Y-93583543D01*
X71586353Y-93726000D01*
X64000000Y-93726000D01*
X64000000Y-90058907D01*
X67185353Y-90058907D01*
X67205834Y-90201363D01*
X67265622Y-90332278D01*
X67265623Y-90332280D01*
X67310213Y-90383740D01*
X67339238Y-90447295D01*
X67340500Y-90464942D01*
X67340500Y-90802870D01*
X67320815Y-90869909D01*
X67310214Y-90884071D01*
X67265625Y-90935530D01*
X67265622Y-90935535D01*
X67205834Y-91066450D01*
X67185353Y-91208907D01*
X67205834Y-91351363D01*
X67265622Y-91482278D01*
X67265623Y-91482280D01*
X67359872Y-91591050D01*
X67480947Y-91668860D01*
X67480950Y-91668861D01*
X67480949Y-91668861D01*
X67619036Y-91709406D01*
X67619038Y-91709407D01*
X67619039Y-91709407D01*
X67762962Y-91709407D01*
X67762962Y-91709406D01*
X67901053Y-91668860D01*
X68022128Y-91591050D01*
X68116377Y-91482280D01*
X68176165Y-91351364D01*
X68196647Y-91208907D01*
X68176165Y-91066450D01*
X68116377Y-90935534D01*
X68112829Y-90931439D01*
X68071786Y-90884071D01*
X68042762Y-90820515D01*
X68041500Y-90802870D01*
X68041500Y-90501000D01*
X75980830Y-90501000D01*
X76001311Y-90643456D01*
X76053772Y-90758328D01*
X76061100Y-90774373D01*
X76155349Y-90883143D01*
X76173538Y-90894832D01*
X76219293Y-90947634D01*
X76230500Y-90999148D01*
X76230500Y-94081963D01*
X76210815Y-94149002D01*
X76200214Y-94163164D01*
X76155625Y-94214623D01*
X76155622Y-94214628D01*
X76095834Y-94345543D01*
X76075353Y-94488000D01*
X76095834Y-94630456D01*
X76155622Y-94761371D01*
X76155623Y-94761373D01*
X76249872Y-94870143D01*
X76370947Y-94947953D01*
X76370950Y-94947954D01*
X76370949Y-94947954D01*
X76509036Y-94988499D01*
X76509038Y-94988500D01*
X76509039Y-94988500D01*
X76652962Y-94988500D01*
X76652962Y-94988499D01*
X76791053Y-94947953D01*
X76912128Y-94870143D01*
X77006377Y-94761373D01*
X77066165Y-94630457D01*
X77086647Y-94488000D01*
X77066165Y-94345543D01*
X77006377Y-94214627D01*
X77006374Y-94214623D01*
X76961786Y-94163164D01*
X76932762Y-94099608D01*
X76931500Y-94081963D01*
X76931500Y-90758328D01*
X76942705Y-90706818D01*
X76971642Y-90643457D01*
X76992124Y-90501000D01*
X76971642Y-90358543D01*
X76911854Y-90227627D01*
X76817605Y-90118857D01*
X76696530Y-90041047D01*
X76696528Y-90041046D01*
X76696526Y-90041045D01*
X76696527Y-90041045D01*
X76558440Y-90000500D01*
X76558438Y-90000500D01*
X76414516Y-90000500D01*
X76414513Y-90000500D01*
X76276426Y-90041045D01*
X76155350Y-90118856D01*
X76061100Y-90227626D01*
X76061099Y-90227628D01*
X76001311Y-90358543D01*
X75980830Y-90501000D01*
X68041500Y-90501000D01*
X68041500Y-90464942D01*
X68061185Y-90397903D01*
X68071782Y-90383744D01*
X68116377Y-90332280D01*
X68176165Y-90201364D01*
X68196647Y-90058907D01*
X68176165Y-89916450D01*
X68116377Y-89785534D01*
X68022128Y-89676764D01*
X67901053Y-89598954D01*
X67901051Y-89598953D01*
X67901049Y-89598952D01*
X67901050Y-89598952D01*
X67762963Y-89558407D01*
X67762961Y-89558407D01*
X67619039Y-89558407D01*
X67619036Y-89558407D01*
X67480949Y-89598952D01*
X67359873Y-89676763D01*
X67265623Y-89785533D01*
X67265622Y-89785535D01*
X67205834Y-89916450D01*
X67185353Y-90058907D01*
X64000000Y-90058907D01*
X64000000Y-86868000D01*
X67820353Y-86868000D01*
X67840834Y-87010456D01*
X67900622Y-87141371D01*
X67900623Y-87141373D01*
X67994872Y-87250143D01*
X68115947Y-87327953D01*
X68115950Y-87327954D01*
X68115949Y-87327954D01*
X68254036Y-87368499D01*
X68254038Y-87368500D01*
X68254039Y-87368500D01*
X68397962Y-87368500D01*
X68397962Y-87368499D01*
X68536053Y-87327953D01*
X68657128Y-87250143D01*
X68751377Y-87141373D01*
X68811165Y-87010457D01*
X68827447Y-86897208D01*
X68856470Y-86833656D01*
X68862488Y-86827192D01*
X69428956Y-86260726D01*
X69490279Y-86227241D01*
X69516637Y-86224407D01*
X71103105Y-86224407D01*
X71170144Y-86244092D01*
X71184312Y-86254697D01*
X71185866Y-86256044D01*
X71185872Y-86256050D01*
X71306947Y-86333860D01*
X71306950Y-86333861D01*
X71306949Y-86333861D01*
X71445036Y-86374406D01*
X71445038Y-86374407D01*
X71445039Y-86374407D01*
X71588962Y-86374407D01*
X71588962Y-86374406D01*
X71727053Y-86333860D01*
X71848128Y-86256050D01*
X71942377Y-86147280D01*
X72002165Y-86016364D01*
X72022647Y-85873907D01*
X72002165Y-85731450D01*
X71942377Y-85600534D01*
X71848128Y-85491764D01*
X71727053Y-85413954D01*
X71727051Y-85413953D01*
X71727049Y-85413952D01*
X71727050Y-85413952D01*
X71588963Y-85373407D01*
X71588961Y-85373407D01*
X71445039Y-85373407D01*
X71445036Y-85373407D01*
X71306949Y-85413952D01*
X71185876Y-85491761D01*
X71185874Y-85491762D01*
X71185872Y-85491764D01*
X71185870Y-85491765D01*
X71184312Y-85493117D01*
X71182427Y-85493977D01*
X71178411Y-85496559D01*
X71178039Y-85495981D01*
X71120757Y-85522144D01*
X71103105Y-85523407D01*
X69273949Y-85523407D01*
X69184805Y-85547293D01*
X69184802Y-85547294D01*
X69104884Y-85593434D01*
X69104879Y-85593438D01*
X68367137Y-86331181D01*
X68305814Y-86364666D01*
X68279456Y-86367500D01*
X68254036Y-86367500D01*
X68115949Y-86408045D01*
X67994873Y-86485856D01*
X67994872Y-86485856D01*
X67994872Y-86485857D01*
X67987993Y-86493796D01*
X67900623Y-86594626D01*
X67900622Y-86594628D01*
X67840834Y-86725543D01*
X67820353Y-86868000D01*
X64000000Y-86868000D01*
X64000000Y-83509448D01*
X76349500Y-83509448D01*
X76349500Y-85490551D01*
X76377829Y-85669410D01*
X76433787Y-85841636D01*
X76433788Y-85841639D01*
X76516006Y-86002997D01*
X76622441Y-86149494D01*
X76622445Y-86149499D01*
X76750500Y-86277554D01*
X76750505Y-86277558D01*
X76870400Y-86364666D01*
X76897006Y-86383996D01*
X77002484Y-86437740D01*
X77058360Y-86466211D01*
X77058363Y-86466212D01*
X77118823Y-86485856D01*
X77230591Y-86522171D01*
X77313429Y-86535291D01*
X77409449Y-86550500D01*
X77409454Y-86550500D01*
X77590551Y-86550500D01*
X77677259Y-86536765D01*
X77769409Y-86522171D01*
X77941639Y-86466211D01*
X78102994Y-86383996D01*
X78249501Y-86277553D01*
X78377553Y-86149501D01*
X78483996Y-86002994D01*
X78566211Y-85841639D01*
X78622171Y-85669409D01*
X78641512Y-85547293D01*
X78650500Y-85490551D01*
X78650500Y-83509448D01*
X79849500Y-83509448D01*
X79849500Y-85490551D01*
X79877829Y-85669410D01*
X79933787Y-85841636D01*
X79933788Y-85841639D01*
X80016006Y-86002997D01*
X80122441Y-86149494D01*
X80122445Y-86149499D01*
X80250500Y-86277554D01*
X80250505Y-86277558D01*
X80370400Y-86364666D01*
X80397006Y-86383996D01*
X80502484Y-86437740D01*
X80558360Y-86466211D01*
X80558363Y-86466212D01*
X80618823Y-86485856D01*
X80730591Y-86522171D01*
X80813429Y-86535291D01*
X80909449Y-86550500D01*
X80909454Y-86550500D01*
X81090551Y-86550500D01*
X81177259Y-86536765D01*
X81269409Y-86522171D01*
X81441639Y-86466211D01*
X81602994Y-86383996D01*
X81749501Y-86277553D01*
X81877553Y-86149501D01*
X81983996Y-86002994D01*
X82066211Y-85841639D01*
X82122171Y-85669409D01*
X82141512Y-85547293D01*
X82150500Y-85490551D01*
X82150500Y-83509448D01*
X83349500Y-83509448D01*
X83349500Y-85490551D01*
X83377829Y-85669410D01*
X83433787Y-85841636D01*
X83433788Y-85841639D01*
X83516006Y-86002997D01*
X83622441Y-86149494D01*
X83622445Y-86149499D01*
X83750500Y-86277554D01*
X83750505Y-86277558D01*
X83870400Y-86364666D01*
X83897006Y-86383996D01*
X84002484Y-86437740D01*
X84058360Y-86466211D01*
X84058363Y-86466212D01*
X84118823Y-86485856D01*
X84230591Y-86522171D01*
X84313429Y-86535291D01*
X84409449Y-86550500D01*
X84409454Y-86550500D01*
X84590551Y-86550500D01*
X84677259Y-86536765D01*
X84769409Y-86522171D01*
X84941639Y-86466211D01*
X85102994Y-86383996D01*
X85249501Y-86277553D01*
X85377553Y-86149501D01*
X85483996Y-86002994D01*
X85566211Y-85841639D01*
X85622171Y-85669409D01*
X85641512Y-85547293D01*
X85650500Y-85490551D01*
X85650500Y-83509448D01*
X85634019Y-83405397D01*
X85622171Y-83330591D01*
X85566211Y-83158361D01*
X85566211Y-83158360D01*
X85537740Y-83102484D01*
X85483996Y-82997006D01*
X85415069Y-82902135D01*
X86849500Y-82902135D01*
X86849500Y-86097870D01*
X86849501Y-86097876D01*
X86855908Y-86157483D01*
X86906202Y-86292328D01*
X86906206Y-86292335D01*
X86992452Y-86407544D01*
X86992455Y-86407547D01*
X87107664Y-86493793D01*
X87107671Y-86493797D01*
X87242517Y-86544091D01*
X87242516Y-86544091D01*
X87249444Y-86544835D01*
X87302127Y-86550500D01*
X88697872Y-86550499D01*
X88757483Y-86544091D01*
X88892331Y-86493796D01*
X89007546Y-86407546D01*
X89093796Y-86292331D01*
X89144091Y-86157483D01*
X89150500Y-86097873D01*
X89150499Y-82902128D01*
X89144091Y-82842517D01*
X89093796Y-82707669D01*
X89093795Y-82707668D01*
X89093793Y-82707664D01*
X89007547Y-82592455D01*
X89007544Y-82592452D01*
X88892335Y-82506206D01*
X88892328Y-82506202D01*
X88757482Y-82455908D01*
X88757483Y-82455908D01*
X88697883Y-82449501D01*
X88697881Y-82449500D01*
X88697873Y-82449500D01*
X88697864Y-82449500D01*
X87302129Y-82449500D01*
X87302123Y-82449501D01*
X87242516Y-82455908D01*
X87107671Y-82506202D01*
X87107664Y-82506206D01*
X86992455Y-82592452D01*
X86992452Y-82592455D01*
X86906206Y-82707664D01*
X86906202Y-82707671D01*
X86855908Y-82842517D01*
X86849501Y-82902116D01*
X86849501Y-82902123D01*
X86849500Y-82902135D01*
X85415069Y-82902135D01*
X85377558Y-82850505D01*
X85377554Y-82850500D01*
X85249499Y-82722445D01*
X85249494Y-82722441D01*
X85102997Y-82616006D01*
X85102996Y-82616005D01*
X85102994Y-82616004D01*
X85051300Y-82589664D01*
X84941639Y-82533788D01*
X84941636Y-82533787D01*
X84769410Y-82477829D01*
X84590551Y-82449500D01*
X84590546Y-82449500D01*
X84409454Y-82449500D01*
X84409449Y-82449500D01*
X84230589Y-82477829D01*
X84058363Y-82533787D01*
X84058360Y-82533788D01*
X83897002Y-82616006D01*
X83750505Y-82722441D01*
X83750500Y-82722445D01*
X83622445Y-82850500D01*
X83622441Y-82850505D01*
X83516006Y-82997002D01*
X83433788Y-83158360D01*
X83433787Y-83158363D01*
X83377829Y-83330589D01*
X83349500Y-83509448D01*
X82150500Y-83509448D01*
X82134019Y-83405397D01*
X82122171Y-83330591D01*
X82066211Y-83158361D01*
X82066211Y-83158360D01*
X82037740Y-83102484D01*
X81983996Y-82997006D01*
X81915069Y-82902135D01*
X81877558Y-82850505D01*
X81877554Y-82850500D01*
X81749499Y-82722445D01*
X81749494Y-82722441D01*
X81602997Y-82616006D01*
X81602996Y-82616005D01*
X81602994Y-82616004D01*
X81551300Y-82589664D01*
X81441639Y-82533788D01*
X81441636Y-82533787D01*
X81269410Y-82477829D01*
X81090551Y-82449500D01*
X81090546Y-82449500D01*
X80909454Y-82449500D01*
X80909449Y-82449500D01*
X80730589Y-82477829D01*
X80558363Y-82533787D01*
X80558360Y-82533788D01*
X80397002Y-82616006D01*
X80250505Y-82722441D01*
X80250500Y-82722445D01*
X80122445Y-82850500D01*
X80122441Y-82850505D01*
X80016006Y-82997002D01*
X79933788Y-83158360D01*
X79933787Y-83158363D01*
X79877829Y-83330589D01*
X79849500Y-83509448D01*
X78650500Y-83509448D01*
X78634019Y-83405397D01*
X78622171Y-83330591D01*
X78566211Y-83158361D01*
X78566211Y-83158360D01*
X78537740Y-83102484D01*
X78483996Y-82997006D01*
X78415069Y-82902135D01*
X78377558Y-82850505D01*
X78377554Y-82850500D01*
X78249499Y-82722445D01*
X78249494Y-82722441D01*
X78102997Y-82616006D01*
X78102996Y-82616005D01*
X78102994Y-82616004D01*
X78051300Y-82589664D01*
X77941639Y-82533788D01*
X77941636Y-82533787D01*
X77769410Y-82477829D01*
X77590551Y-82449500D01*
X77590546Y-82449500D01*
X77409454Y-82449500D01*
X77409449Y-82449500D01*
X77230589Y-82477829D01*
X77058363Y-82533787D01*
X77058360Y-82533788D01*
X76897002Y-82616006D01*
X76750505Y-82722441D01*
X76750500Y-82722445D01*
X76622445Y-82850500D01*
X76622441Y-82850505D01*
X76516006Y-82997002D01*
X76433788Y-83158360D01*
X76433787Y-83158363D01*
X76377829Y-83330589D01*
X76349500Y-83509448D01*
X64000000Y-83509448D01*
X64000000Y-76924500D01*
X64019685Y-76857461D01*
X64072489Y-76811706D01*
X64124000Y-76800500D01*
X93028115Y-76800500D01*
X93095154Y-76820185D01*
G37*
%TD.AperFunction*%
%TD*%
M02*
