%TF.GenerationSoftware,KiCad,Pcbnew,8.0.2*%
%TF.CreationDate,2024-10-13T21:39:52+02:00*%
%TF.ProjectId,OS-RelayDecoder-8,4f532d52-656c-4617-9944-65636f646572,rev?*%
%TF.SameCoordinates,Original*%
%TF.FileFunction,Paste,Top*%
%TF.FilePolarity,Positive*%
%FSLAX46Y46*%
G04 Gerber Fmt 4.6, Leading zero omitted, Abs format (unit mm)*
G04 Created by KiCad (PCBNEW 8.0.2) date 2024-10-13 21:39:52*
%MOMM*%
%LPD*%
G01*
G04 APERTURE LIST*
G04 Aperture macros list*
%AMRoundRect*
0 Rectangle with rounded corners*
0 $1 Rounding radius*
0 $2 $3 $4 $5 $6 $7 $8 $9 X,Y pos of 4 corners*
0 Add a 4 corners polygon primitive as box body*
4,1,4,$2,$3,$4,$5,$6,$7,$8,$9,$2,$3,0*
0 Add four circle primitives for the rounded corners*
1,1,$1+$1,$2,$3*
1,1,$1+$1,$4,$5*
1,1,$1+$1,$6,$7*
1,1,$1+$1,$8,$9*
0 Add four rect primitives between the rounded corners*
20,1,$1+$1,$2,$3,$4,$5,0*
20,1,$1+$1,$4,$5,$6,$7,0*
20,1,$1+$1,$6,$7,$8,$9,0*
20,1,$1+$1,$8,$9,$2,$3,0*%
%AMRotRect*
0 Rectangle, with rotation*
0 The origin of the aperture is its center*
0 $1 length*
0 $2 width*
0 $3 Rotation angle, in degrees counterclockwise*
0 Add horizontal line*
21,1,$1,$2,0,0,$3*%
G04 Aperture macros list end*
%ADD10RoundRect,0.250000X-0.325000X-0.450000X0.325000X-0.450000X0.325000X0.450000X-0.325000X0.450000X0*%
%ADD11RoundRect,0.250000X-0.650000X0.412500X-0.650000X-0.412500X0.650000X-0.412500X0.650000X0.412500X0*%
%ADD12RoundRect,0.112500X-0.187500X-0.112500X0.187500X-0.112500X0.187500X0.112500X-0.187500X0.112500X0*%
%ADD13RoundRect,0.237500X0.250000X0.237500X-0.250000X0.237500X-0.250000X-0.237500X0.250000X-0.237500X0*%
%ADD14RoundRect,0.150000X-0.587500X-0.150000X0.587500X-0.150000X0.587500X0.150000X-0.587500X0.150000X0*%
%ADD15R,0.800000X1.800000*%
%ADD16RoundRect,0.225000X0.250000X-0.225000X0.250000X0.225000X-0.250000X0.225000X-0.250000X-0.225000X0*%
%ADD17R,1.800000X1.100000*%
%ADD18RoundRect,0.237500X-0.250000X-0.237500X0.250000X-0.237500X0.250000X0.237500X-0.250000X0.237500X0*%
%ADD19RotRect,1.600000X0.550000X45.000000*%
%ADD20RotRect,1.600000X0.550000X135.000000*%
%ADD21RoundRect,0.200000X-0.300000X-0.200000X0.300000X-0.200000X0.300000X0.200000X-0.300000X0.200000X0*%
%ADD22RoundRect,0.237500X-0.237500X0.250000X-0.237500X-0.250000X0.237500X-0.250000X0.237500X0.250000X0*%
%ADD23RoundRect,0.112500X0.187500X0.112500X-0.187500X0.112500X-0.187500X-0.112500X0.187500X-0.112500X0*%
%ADD24RoundRect,0.375000X0.375000X-0.625000X0.375000X0.625000X-0.375000X0.625000X-0.375000X-0.625000X0*%
%ADD25RoundRect,0.500000X1.400000X-0.500000X1.400000X0.500000X-1.400000X0.500000X-1.400000X-0.500000X0*%
%ADD26RoundRect,0.112500X-0.112500X0.187500X-0.112500X-0.187500X0.112500X-0.187500X0.112500X0.187500X0*%
%ADD27RoundRect,0.160000X-0.197500X-0.160000X0.197500X-0.160000X0.197500X0.160000X-0.197500X0.160000X0*%
%ADD28RoundRect,0.150000X0.587500X0.150000X-0.587500X0.150000X-0.587500X-0.150000X0.587500X-0.150000X0*%
%ADD29RoundRect,0.300000X-0.300000X0.400000X-0.300000X-0.400000X0.300000X-0.400000X0.300000X0.400000X0*%
%ADD30RoundRect,0.140000X0.219203X0.021213X0.021213X0.219203X-0.219203X-0.021213X-0.021213X-0.219203X0*%
%ADD31RoundRect,0.225000X-0.225000X-0.250000X0.225000X-0.250000X0.225000X0.250000X-0.225000X0.250000X0*%
%ADD32RoundRect,0.237500X0.237500X-0.300000X0.237500X0.300000X-0.237500X0.300000X-0.237500X-0.300000X0*%
%ADD33RoundRect,0.162500X-1.012500X-0.162500X1.012500X-0.162500X1.012500X0.162500X-1.012500X0.162500X0*%
G04 APERTURE END LIST*
D10*
%TO.C,D201*%
X61952000Y-125503500D03*
X64002000Y-125503500D03*
%TD*%
D11*
%TO.C,C303*%
X82677000Y-112991500D03*
X82677000Y-116116500D03*
%TD*%
D12*
%TO.C,D302*%
X94986500Y-97590907D03*
X97086500Y-97590907D03*
%TD*%
D13*
%TO.C,R901*%
X70524500Y-105873907D03*
X68699500Y-105873907D03*
%TD*%
D14*
%TO.C,Q401*%
X94718000Y-103719907D03*
X94718000Y-105619907D03*
X96593000Y-104669907D03*
%TD*%
D15*
%TO.C,K1001*%
X66300000Y-94151907D03*
X63100000Y-94151907D03*
X60900000Y-94151907D03*
X58700000Y-94151907D03*
X58700000Y-101151907D03*
X60900000Y-101151907D03*
X63100000Y-101151907D03*
X66300000Y-101151907D03*
%TD*%
D16*
%TO.C,C201*%
X76292000Y-112663592D03*
X76292000Y-111113592D03*
%TD*%
D17*
%TO.C,SW601*%
X66900000Y-123499000D03*
X73100000Y-123499000D03*
X66900000Y-127199000D03*
X73100000Y-127199000D03*
%TD*%
D14*
%TO.C,Q501*%
X94718000Y-113719907D03*
X94718000Y-115619907D03*
X96593000Y-114669907D03*
%TD*%
D18*
%TO.C,R201*%
X62175000Y-127494500D03*
X64000000Y-127494500D03*
%TD*%
D15*
%TO.C,K501*%
X99300000Y-121151907D03*
X102500000Y-121151907D03*
X104700000Y-121151907D03*
X106900000Y-121151907D03*
X106900000Y-114151907D03*
X104700000Y-114151907D03*
X102500000Y-114151907D03*
X99300000Y-114151907D03*
%TD*%
D13*
%TO.C,R204*%
X96924000Y-91207907D03*
X95099000Y-91207907D03*
%TD*%
D18*
%TO.C,R203*%
X95075500Y-89429907D03*
X96900500Y-89429907D03*
%TD*%
D19*
%TO.C,U202*%
X77538897Y-105283897D03*
X78104583Y-105849582D03*
X78670268Y-106415268D03*
X79235953Y-106980953D03*
X79801639Y-107546639D03*
X80367324Y-108112324D03*
X80933010Y-108678009D03*
X81498695Y-109243695D03*
D20*
X83549305Y-109243695D03*
X84114990Y-108678009D03*
X84680676Y-108112324D03*
X85246361Y-107546639D03*
X85812047Y-106980953D03*
X86377732Y-106415268D03*
X86943417Y-105849582D03*
X87509103Y-105283897D03*
D19*
X87509103Y-103233287D03*
X86943417Y-102667602D03*
X86377732Y-102101916D03*
X85812047Y-101536231D03*
X85246361Y-100970545D03*
X84680676Y-100404860D03*
X84114990Y-99839175D03*
X83549305Y-99273489D03*
D20*
X81498695Y-99273489D03*
X80933010Y-99839175D03*
X80367324Y-100404860D03*
X79801639Y-100970545D03*
X79235953Y-101536231D03*
X78670268Y-102101916D03*
X78104583Y-102667602D03*
X77538897Y-103233287D03*
%TD*%
D21*
%TO.C,D301*%
X74201000Y-117467000D03*
X74201000Y-120007000D03*
X80351000Y-120007000D03*
X80351000Y-117467000D03*
%TD*%
D15*
%TO.C,K201*%
X99300000Y-91151907D03*
X102500000Y-91151907D03*
X104700000Y-91151907D03*
X106900000Y-91151907D03*
X106900000Y-84151907D03*
X104700000Y-84151907D03*
X102500000Y-84151907D03*
X99300000Y-84151907D03*
%TD*%
D13*
%TO.C,R302*%
X96924000Y-101207907D03*
X95099000Y-101207907D03*
%TD*%
D22*
%TO.C,R3*%
X89802000Y-88868500D03*
X89802000Y-90693500D03*
%TD*%
D23*
%TO.C,D1101*%
X70613500Y-87712907D03*
X68513500Y-87712907D03*
%TD*%
D24*
%TO.C,U301*%
X85263000Y-120109000D03*
X87563000Y-120109000D03*
D25*
X87563000Y-113809000D03*
D24*
X89863000Y-120109000D03*
%TD*%
D18*
%TO.C,R802*%
X68676000Y-114095907D03*
X70501000Y-114095907D03*
%TD*%
D13*
%TO.C,R1001*%
X70524500Y-95873907D03*
X68699500Y-95873907D03*
%TD*%
D15*
%TO.C,K901*%
X66300000Y-104151907D03*
X63100000Y-104151907D03*
X60900000Y-104151907D03*
X58700000Y-104151907D03*
X58700000Y-111151907D03*
X60900000Y-111151907D03*
X63100000Y-111151907D03*
X66300000Y-111151907D03*
%TD*%
D26*
%TO.C,D1*%
X75578000Y-92668000D03*
X75578000Y-94768000D03*
%TD*%
D18*
%TO.C,R301*%
X95075500Y-99429907D03*
X96900500Y-99429907D03*
%TD*%
D13*
%TO.C,R1101*%
X70524500Y-85873907D03*
X68699500Y-85873907D03*
%TD*%
D27*
%TO.C,R202*%
X98402500Y-80391000D03*
X99597500Y-80391000D03*
%TD*%
D22*
%TO.C,R5*%
X75578000Y-89122500D03*
X75578000Y-90947500D03*
%TD*%
D23*
%TO.C,D901*%
X70613500Y-107712907D03*
X68513500Y-107712907D03*
%TD*%
D28*
%TO.C,Q1101*%
X70882000Y-91583907D03*
X70882000Y-89683907D03*
X69007000Y-90633907D03*
%TD*%
D18*
%TO.C,R501*%
X95075500Y-119429907D03*
X96900500Y-119429907D03*
%TD*%
D29*
%TO.C,Y201*%
X78043000Y-110831592D03*
X78043000Y-113031592D03*
X79943000Y-113031592D03*
X79943000Y-110831592D03*
%TD*%
D12*
%TO.C,D501*%
X94986500Y-117590907D03*
X97086500Y-117590907D03*
%TD*%
D13*
%TO.C,R801*%
X70524500Y-115873907D03*
X68699500Y-115873907D03*
%TD*%
D14*
%TO.C,Q301*%
X94718000Y-93719907D03*
X94718000Y-95619907D03*
X96593000Y-94669907D03*
%TD*%
D30*
%TO.C,C202*%
X79054000Y-109221592D03*
X78375178Y-108542770D03*
%TD*%
D15*
%TO.C,K1101*%
X66300000Y-84151907D03*
X63100000Y-84151907D03*
X60900000Y-84151907D03*
X58700000Y-84151907D03*
X58700000Y-91151907D03*
X60900000Y-91151907D03*
X63100000Y-91151907D03*
X66300000Y-91151907D03*
%TD*%
D18*
%TO.C,R401*%
X95075500Y-109429907D03*
X96900500Y-109429907D03*
%TD*%
D31*
%TO.C,C203*%
X78279000Y-114809592D03*
X79829000Y-114809592D03*
%TD*%
D28*
%TO.C,Q801*%
X70882000Y-121583907D03*
X70882000Y-119683907D03*
X69007000Y-120633907D03*
%TD*%
D15*
%TO.C,K401*%
X99300000Y-111151907D03*
X102500000Y-111151907D03*
X104700000Y-111151907D03*
X106900000Y-111151907D03*
X106900000Y-104151907D03*
X104700000Y-104151907D03*
X102500000Y-104151907D03*
X99300000Y-104151907D03*
%TD*%
D12*
%TO.C,D401*%
X94986500Y-107590907D03*
X97086500Y-107590907D03*
%TD*%
D18*
%TO.C,R902*%
X68676000Y-104095907D03*
X70501000Y-104095907D03*
%TD*%
D28*
%TO.C,Q1001*%
X70882000Y-101583907D03*
X70882000Y-99683907D03*
X69007000Y-100633907D03*
%TD*%
D32*
%TO.C,C301*%
X92131000Y-120427000D03*
X92131000Y-118702000D03*
%TD*%
D18*
%TO.C,R1002*%
X68676000Y-94095907D03*
X70501000Y-94095907D03*
%TD*%
D33*
%TO.C,U3*%
X78212000Y-88511000D03*
X78212000Y-91051000D03*
X78212000Y-93591000D03*
X78212000Y-96131000D03*
X87262000Y-96131000D03*
X87262000Y-93591000D03*
X87262000Y-91051000D03*
X87262000Y-88511000D03*
%TD*%
D13*
%TO.C,R402*%
X96924000Y-111207907D03*
X95099000Y-111207907D03*
%TD*%
D23*
%TO.C,D1001*%
X70613500Y-97712907D03*
X68513500Y-97712907D03*
%TD*%
D28*
%TO.C,Q901*%
X70882000Y-111583907D03*
X70882000Y-109683907D03*
X69007000Y-110633907D03*
%TD*%
D23*
%TO.C,D801*%
X70613500Y-117712907D03*
X68513500Y-117712907D03*
%TD*%
D12*
%TO.C,D202*%
X94986500Y-87590907D03*
X97086500Y-87590907D03*
%TD*%
D15*
%TO.C,K301*%
X99300000Y-101151907D03*
X102500000Y-101151907D03*
X104700000Y-101151907D03*
X106900000Y-101151907D03*
X106900000Y-94151907D03*
X104700000Y-94151907D03*
X102500000Y-94151907D03*
X99300000Y-94151907D03*
%TD*%
D22*
%TO.C,R4*%
X89802000Y-93059500D03*
X89802000Y-94884500D03*
%TD*%
D13*
%TO.C,R502*%
X96924000Y-121207907D03*
X95099000Y-121207907D03*
%TD*%
D14*
%TO.C,Q201*%
X94718000Y-83719907D03*
X94718000Y-85619907D03*
X96593000Y-84669907D03*
%TD*%
D18*
%TO.C,R1102*%
X68676000Y-84095907D03*
X70501000Y-84095907D03*
%TD*%
D15*
%TO.C,K801*%
X66300000Y-114151907D03*
X63100000Y-114151907D03*
X60900000Y-114151907D03*
X58700000Y-114151907D03*
X58700000Y-121151907D03*
X60900000Y-121151907D03*
X63100000Y-121151907D03*
X66300000Y-121151907D03*
%TD*%
D32*
%TO.C,C302*%
X82987000Y-120400500D03*
X82987000Y-118675500D03*
%TD*%
M02*
