M48
; DRILL file {KiCad 8.0.2} date 2024-10-12T15:01:18+0200
; FORMAT={-:-/ absolute / inch / decimal}
; #@! TF.CreationDate,2024-10-12T15:01:18+02:00
; #@! TF.GenerationSoftware,Kicad,Pcbnew,8.0.2
; #@! TF.FileFunction,Plated,1,2,PTH
FMAT,2
INCH
; #@! TA.AperFunction,Plated,PTH,ViaDrill
T1C0.0118
; #@! TA.AperFunction,Plated,PTH,ViaDrill
T2C0.0157
; #@! TA.AperFunction,Plated,PTH,ComponentDrill
T3C0.0394
; #@! TA.AperFunction,Plated,PTH,ComponentDrill
T4C0.0472
%
G90
G05
T1
X3.9819Y-5.4506
X3.9919Y-4.479
X3.9969Y-4.634
X3.9969Y-5.6006
X4.0119Y-4.804
X4.0119Y-5.8706
X4.0156Y-5.4719
X4.02Y-6.0
X4.0319Y-6.5856
X4.0419Y-4.634
X4.0519Y-4.479
X4.0619Y-4.804
X4.0766Y-5.6106
X4.0769Y-5.4456
X4.0769Y-5.5356
X4.0919Y-4.474
X4.0919Y-4.634
X4.0969Y-5.9506
X4.105Y-4.415
X4.1119Y-5.4606
X4.1169Y-4.714
X4.1169Y-4.749
X4.1219Y-4.804
X4.1369Y-5.5406
X4.1419Y-5.4806
X4.1569Y-5.9356
X4.1575Y-5.975
X4.1869Y-4.634
X4.1919Y-4.819
X4.1982Y-5.8406
X4.2019Y-5.1977
X4.22Y-4.485
X4.2325Y-5.4156
X4.2346Y-5.0732
X4.2369Y-5.9506
X4.253Y-5.5956
X4.2533Y-6.605
X4.2569Y-4.644
X4.2619Y-4.449
X4.2734Y-5.4156
X4.2967Y-6.6
X4.3Y-6.505
X4.3069Y-5.5506
X4.3169Y-5.4506
X4.3269Y-5.6556
X4.3319Y-5.1956
X4.3369Y-5.2656
X4.3419Y-5.3906
X4.3419Y-5.8306
X4.355Y-6.75
X4.3569Y-6.5556
X4.3719Y-4.8506
X4.385Y-6.335
X4.3984Y-5.137
X4.4119Y-4.639
X4.4119Y-5.4506
X4.415Y-6.805
X4.4265Y-5.1701
X4.4319Y-4.479
X4.4319Y-5.2206
X4.4319Y-6.5556
X4.4369Y-5.3156
X4.4519Y-6.4906
X4.4569Y-5.4356
X4.4619Y-5.5556
X4.4719Y-5.9506
X4.475Y-6.42
X4.4869Y-5.3706
X4.4882Y-6.0236
X4.4909Y-5.4403
X4.4919Y-5.6356
X4.4969Y-5.2056
X4.4991Y-4.8439
X4.5Y-6.17
X4.5019Y-6.8906
X4.5069Y-5.5394
X4.5069Y-5.8106
X4.5079Y-5.9252
X4.51Y-6.065
X4.5119Y-5.4756
X4.5219Y-5.2556
X4.5219Y-5.9643
X4.5419Y-5.4656
X4.5433Y-6.0206
X4.5469Y-5.5406
X4.5519Y-5.9506
X4.57Y-5.4486
X4.5769Y-5.5306
X4.58Y-4.745
X4.5869Y-5.1156
X4.589Y-6.081
X4.59Y-4.69
X4.5919Y-5.9643
X4.5919Y-6.0194
X4.5919Y-6.8906
X4.5947Y-4.9947
X4.595Y-4.115
X4.595Y-4.575
X4.6019Y-5.5106
X4.6069Y-5.4106
X4.61Y-4.9663
X4.61Y-6.14
X4.6169Y-5.9406
X4.6169Y-6.0406
X4.62Y-6.39
X4.6203Y-5.4806
X4.625Y-5.03
X4.6256Y-6.2547
X4.6319Y-4.7756
X4.6325Y-5.3861
X4.635Y-4.48
X4.635Y-4.9447
X4.6419Y-5.9643
X4.6419Y-6.0194
X4.6464Y-5.45
X4.665Y-4.57
X4.665Y-6.675
X4.6719Y-5.1706
X4.685Y-6.32
X4.6862Y-5.2704
X4.695Y-5.015
X4.6969Y-4.6106
X4.705Y-4.53
X4.7069Y-5.1206
X4.745Y-5.01
X4.7519Y-5.4356
X4.765Y-6.62
X4.7669Y-6.3506
X4.78Y-5.225
X4.7819Y-5.4156
X4.7919Y-5.4456
X4.8Y-5.035
X4.8119Y-4.5606
X4.84Y-5.225
X4.85Y-5.035
X4.8519Y-4.9006
X4.87Y-4.495
X4.875Y-6.3
X4.8769Y-6.5606
X4.9Y-4.88
X4.925Y-5.155
X4.9269Y-6.8656
X4.94Y-6.385
X4.9469Y-4.7006
X4.955Y-4.13
X4.9784Y-4.84
X4.9819Y-4.4956
X4.9819Y-4.6406
X5.0Y-4.865
X5.01Y-4.895
X5.0262Y-5.0488
X5.0269Y-4.9706
X5.03Y-6.205
X5.0326Y-4.485
X5.045Y-6.71
X5.0469Y-5.1437
X5.05Y-6.62
X5.059Y-5.051
X5.065Y-5.02
X5.0819Y-5.1437
X5.095Y-6.145
X5.0969Y-4.4056
X5.1Y-5.045
X5.115Y-5.235
X5.115Y-6.02
X5.1169Y-6.5506
X5.13Y-5.455
X5.145Y-6.195
X5.145Y-6.5006
X5.155Y-5.775
X5.1769Y-6.3106
X5.185Y-4.225
X5.21Y-6.095
X5.2159Y-5.0659
X5.235Y-4.67
X5.2369Y-6.8756
X5.2391Y-5.0428
X5.24Y-4.715
X5.255Y-5.925
X5.265Y-4.6934
X5.27Y-6.5
X5.2722Y-5.0708
X5.2969Y-6.5606
X5.306Y-5.074
X5.34Y-6.215
X5.3436Y-4.6717
X5.3436Y-4.715
X5.375Y-4.695
X5.39Y-6.1356
X5.4069Y-4.3806
X5.4369Y-5.5856
X5.4469Y-5.1506
X5.4469Y-5.4356
X5.4569Y-4.4656
X5.4569Y-6.0906
X5.4619Y-6.2706
X5.4719Y-5.9606
X5.4769Y-6.5956
X5.4819Y-6.4156
X5.4969Y-4.9556
T2
X4.6719Y-5.3906
X4.7794Y-5.7268
X4.7863Y-4.7273
X4.8144Y-5.8068
X4.8194Y-5.5118
X4.8194Y-5.5518
X4.8194Y-5.5918
X4.8413Y-4.8423
X4.8663Y-4.6523
X4.8716Y-5.3819
X4.8844Y-5.7168
X4.9344Y-5.2818
X4.9794Y-5.3368
X4.9944Y-5.5118
X4.9944Y-5.5518
X4.9944Y-5.5918
X5.0144Y-5.7118
X5.0244Y-5.6618
X5.3459Y-4.468
X5.4009Y-4.553
T3
X4.053Y-5.2559
X4.053Y-5.3559
X4.053Y-5.6693
X4.053Y-5.7693
X4.153Y-5.2559
X4.153Y-5.3559
X4.153Y-5.6693
X4.153Y-5.7693
X4.253Y-5.2559
X4.253Y-5.3559
X4.253Y-5.6693
X4.253Y-5.7693
X5.2331Y-5.6693
X5.2331Y-5.7693
X5.2381Y-5.2468
X5.2381Y-5.3468
X5.3331Y-5.6693
X5.3331Y-5.7693
X5.3381Y-5.2468
X5.3381Y-5.3468
X5.4331Y-5.6693
X5.4331Y-5.7693
X5.4381Y-5.2468
X5.4381Y-5.3468
X5.5118Y-4.355
X5.5118Y-4.455
X5.5118Y-4.555
X5.5118Y-4.655
X5.5118Y-4.755
X5.5118Y-4.855
T4
X4.5216Y-4.3307
X4.6594Y-4.3307
X4.7972Y-4.3307
X4.935Y-4.3307
M30
