M48
INCH,TZ
T1C0.0276
T2C0.0295
T3C0.0315
T4C0.0394
T5C0.0433
T6C0.0598
%
G90
G05
T1
X41850Y-57165
X29184Y-55515
X29184Y-58515
X38500Y-55800
X41500Y-55800
X30134Y-55515
X30134Y-58515
X32384Y-67465
X35384Y-67465
X41850Y-61500
X41850Y-64500
X42850Y-61500
X42850Y-64500
X29100Y-61515
X29100Y-64515
X36684Y-67465
X39684Y-67465
X41850Y-60165
T2
X40734Y-61500
X40734Y-64500
X32384Y-66465
X35384Y-66465
X31200Y-65465
X31200Y-68465
X29284Y-60165
X29784Y-60165
X30284Y-60165
X36684Y-66465
X39684Y-66465
X36661Y-65508
X39661Y-65508
X32384Y-62515
X35384Y-62515
X36661Y-62508
X39661Y-62508
X32384Y-61515
X35384Y-61515
X42900Y-57200
X42900Y-60200
X36684Y-61500
X39684Y-61500
X32384Y-64515
X35384Y-64515
X40734Y-65515
X40734Y-68515
X32384Y-65465
X35384Y-65465
X36661Y-63508
X39661Y-63508
X31200Y-61515
X31200Y-64515
X32384Y-63465
X35384Y-63465
X36661Y-64508
X39661Y-64508
T3
X31184Y-58115
X31184Y-59100
X29084Y-65465
X29084Y-68465
X30084Y-65465
X30084Y-68465
X32334Y-57150
X32334Y-60150
X33334Y-57150
X33334Y-60150
X34334Y-57150
X34334Y-60150
X35334Y-57150
X35334Y-60150
X36334Y-57150
X36334Y-60150
X37334Y-57150
X37334Y-60150
X38334Y-57150
X38334Y-60150
X39734Y-57165
X39734Y-60165
X40734Y-57165
X40734Y-60165
X41850Y-65600
X41850Y-68600
X42850Y-65600
X42850Y-68600
T4
X34500Y-55800
X35500Y-55800
X36500Y-55800
X37500Y-55800
T5
X32800Y-69415
X33800Y-69415
X34800Y-69415
X37250Y-69415
X38250Y-69415
X39250Y-69415
T6
X32984Y-71815
X34984Y-71815
X36984Y-71815
X38984Y-71815
T0
M30
