%TF.GenerationSoftware,KiCad,Pcbnew,8.0.2*%
%TF.CreationDate,2024-12-22T14:20:03+01:00*%
%TF.ProjectId,_4mm_sleeper_w_IR,5f346d6d-5f73-46c6-9565-7065725f775f,rev?*%
%TF.SameCoordinates,Original*%
%TF.FileFunction,Soldermask,Top*%
%TF.FilePolarity,Negative*%
%FSLAX46Y46*%
G04 Gerber Fmt 4.6, Leading zero omitted, Abs format (unit mm)*
G04 Created by KiCad (PCBNEW 8.0.2) date 2024-12-22 14:20:03*
%MOMM*%
%LPD*%
G01*
G04 APERTURE LIST*
G04 Aperture macros list*
%AMRoundRect*
0 Rectangle with rounded corners*
0 $1 Rounding radius*
0 $2 $3 $4 $5 $6 $7 $8 $9 X,Y pos of 4 corners*
0 Add a 4 corners polygon primitive as box body*
4,1,4,$2,$3,$4,$5,$6,$7,$8,$9,$2,$3,0*
0 Add four circle primitives for the rounded corners*
1,1,$1+$1,$2,$3*
1,1,$1+$1,$4,$5*
1,1,$1+$1,$6,$7*
1,1,$1+$1,$8,$9*
0 Add four rect primitives between the rounded corners*
20,1,$1+$1,$2,$3,$4,$5,0*
20,1,$1+$1,$4,$5,$6,$7,0*
20,1,$1+$1,$6,$7,$8,$9,0*
20,1,$1+$1,$8,$9,$2,$3,0*%
%AMRotRect*
0 Rectangle, with rotation*
0 The origin of the aperture is its center*
0 $1 length*
0 $2 width*
0 $3 Rotation angle, in degrees counterclockwise*
0 Add horizontal line*
21,1,$1,$2,0,0,$3*%
G04 Aperture macros list end*
%ADD10RoundRect,0.249600X-0.478655X-0.128255X0.128255X-0.478655X0.478655X0.128255X-0.128255X0.478655X0*%
%ADD11C,1.200000*%
%ADD12RotRect,1.800000X1.800000X330.000000*%
%ADD13C,1.800000*%
G04 APERTURE END LIST*
D10*
%TO.C,U101*%
X129057892Y-78090860D03*
D11*
X129522744Y-79825712D03*
X131257597Y-79360860D03*
X131722448Y-81095712D03*
%TD*%
D12*
%TO.C,D101*%
X109806354Y-115764116D03*
D13*
X112006059Y-117034116D03*
%TD*%
G36*
X132844603Y-106319685D02*
G01*
X132890358Y-106372489D01*
X132901564Y-106424029D01*
X132901148Y-108176029D01*
X132881448Y-108243064D01*
X132828633Y-108288807D01*
X132777148Y-108300000D01*
X121324000Y-108300000D01*
X121256961Y-108280315D01*
X121211206Y-108227511D01*
X121200000Y-108176000D01*
X121200000Y-106424000D01*
X121219685Y-106356961D01*
X121272489Y-106311206D01*
X121324000Y-106300000D01*
X132777564Y-106300000D01*
X132844603Y-106319685D01*
G37*
G36*
X119743039Y-87819685D02*
G01*
X119788794Y-87872489D01*
X119800000Y-87924000D01*
X119800000Y-89676000D01*
X119780315Y-89743039D01*
X119727511Y-89788794D01*
X119676000Y-89800000D01*
X108224000Y-89800000D01*
X108156961Y-89780315D01*
X108111206Y-89727511D01*
X108100000Y-89676000D01*
X108100000Y-87924000D01*
X108119685Y-87856961D01*
X108172489Y-87811206D01*
X108224000Y-87800000D01*
X119676000Y-87800000D01*
X119743039Y-87819685D01*
G37*
G36*
X119743039Y-106319685D02*
G01*
X119788794Y-106372489D01*
X119800000Y-106424000D01*
X119800000Y-108176000D01*
X119780315Y-108243039D01*
X119727511Y-108288794D01*
X119676000Y-108300000D01*
X108224000Y-108300000D01*
X108156961Y-108280315D01*
X108111206Y-108227511D01*
X108100000Y-108176000D01*
X108100000Y-106424000D01*
X108119685Y-106356961D01*
X108172489Y-106311206D01*
X108224000Y-106300000D01*
X119676000Y-106300000D01*
X119743039Y-106319685D01*
G37*
G36*
X132849005Y-87819685D02*
G01*
X132894760Y-87872489D01*
X132905966Y-87924029D01*
X132905550Y-89676029D01*
X132885850Y-89743064D01*
X132833035Y-89788807D01*
X132781550Y-89800000D01*
X121324000Y-89800000D01*
X121256961Y-89780315D01*
X121211206Y-89727511D01*
X121200000Y-89676000D01*
X121200000Y-87924000D01*
X121219685Y-87856961D01*
X121272489Y-87811206D01*
X121324000Y-87800000D01*
X132781966Y-87800000D01*
X132849005Y-87819685D01*
G37*
M02*
