%TF.GenerationSoftware,KiCad,Pcbnew,8.0.2*%
%TF.CreationDate,2024-12-22T14:20:04+01:00*%
%TF.ProjectId,_4mm_sleeper_w_IR,5f346d6d-5f73-46c6-9565-7065725f775f,rev?*%
%TF.SameCoordinates,Original*%
%TF.FileFunction,Legend,Bot*%
%TF.FilePolarity,Positive*%
%FSLAX46Y46*%
G04 Gerber Fmt 4.6, Leading zero omitted, Abs format (unit mm)*
G04 Created by KiCad (PCBNEW 8.0.2) date 2024-12-22 14:20:04*
%MOMM*%
%LPD*%
G01*
G04 APERTURE LIST*
G04 Aperture macros list*
%AMRoundRect*
0 Rectangle with rounded corners*
0 $1 Rounding radius*
0 $2 $3 $4 $5 $6 $7 $8 $9 X,Y pos of 4 corners*
0 Add a 4 corners polygon primitive as box body*
4,1,4,$2,$3,$4,$5,$6,$7,$8,$9,$2,$3,0*
0 Add four circle primitives for the rounded corners*
1,1,$1+$1,$2,$3*
1,1,$1+$1,$4,$5*
1,1,$1+$1,$6,$7*
1,1,$1+$1,$8,$9*
0 Add four rect primitives between the rounded corners*
20,1,$1+$1,$2,$3,$4,$5,0*
20,1,$1+$1,$4,$5,$6,$7,0*
20,1,$1+$1,$6,$7,$8,$9,0*
20,1,$1+$1,$8,$9,$2,$3,0*%
%AMRotRect*
0 Rectangle, with rotation*
0 The origin of the aperture is its center*
0 $1 length*
0 $2 width*
0 $3 Rotation angle, in degrees counterclockwise*
0 Add horizontal line*
21,1,$1,$2,0,0,$3*%
G04 Aperture macros list end*
%ADD10C,0.150000*%
%ADD11C,0.075000*%
%ADD12C,0.120000*%
%ADD13RoundRect,0.249600X-0.478655X-0.128255X0.128255X-0.478655X0.478655X0.128255X-0.128255X0.478655X0*%
%ADD14C,1.200000*%
%ADD15RotRect,1.800000X1.800000X330.000000*%
%ADD16C,1.800000*%
%ADD17R,3.000000X1.000000*%
G04 APERTURE END LIST*
D10*
X115510000Y-107121000D02*
X108613000Y-107121000D01*
X125804500Y-106871500D02*
X123123000Y-104454000D01*
X108500000Y-89149500D02*
X115301500Y-89149500D01*
X132500000Y-106871500D02*
X125804500Y-106871500D01*
X123190000Y-91694000D02*
X125603000Y-89027000D01*
X125603000Y-89027000D02*
X132500000Y-89027000D01*
X115301500Y-89149500D02*
X117983000Y-91567000D01*
X117923000Y-104454000D02*
X115510000Y-107121000D01*
D11*
X116135090Y-101209372D02*
X116135090Y-101114134D01*
X116135090Y-101114134D02*
X116111280Y-101066515D01*
X116111280Y-101066515D02*
X116063661Y-101018896D01*
X116063661Y-101018896D02*
X115968423Y-100995086D01*
X115968423Y-100995086D02*
X115801757Y-100995086D01*
X115801757Y-100995086D02*
X115706519Y-101018896D01*
X115706519Y-101018896D02*
X115658900Y-101066515D01*
X115658900Y-101066515D02*
X115635090Y-101114134D01*
X115635090Y-101114134D02*
X115635090Y-101209372D01*
X115635090Y-101209372D02*
X115658900Y-101256991D01*
X115658900Y-101256991D02*
X115706519Y-101304610D01*
X115706519Y-101304610D02*
X115801757Y-101328419D01*
X115801757Y-101328419D02*
X115968423Y-101328419D01*
X115968423Y-101328419D02*
X116063661Y-101304610D01*
X116063661Y-101304610D02*
X116111280Y-101256991D01*
X116111280Y-101256991D02*
X116135090Y-101209372D01*
X116135090Y-100780800D02*
X115730328Y-100780800D01*
X115730328Y-100780800D02*
X115682709Y-100756990D01*
X115682709Y-100756990D02*
X115658900Y-100733181D01*
X115658900Y-100733181D02*
X115635090Y-100685562D01*
X115635090Y-100685562D02*
X115635090Y-100590324D01*
X115635090Y-100590324D02*
X115658900Y-100542705D01*
X115658900Y-100542705D02*
X115682709Y-100518895D01*
X115682709Y-100518895D02*
X115730328Y-100495086D01*
X115730328Y-100495086D02*
X116135090Y-100495086D01*
X116135090Y-100328418D02*
X116135090Y-100042704D01*
X115635090Y-100185561D02*
X116135090Y-100185561D01*
X125406090Y-95875372D02*
X125406090Y-95780134D01*
X125406090Y-95780134D02*
X125382280Y-95732515D01*
X125382280Y-95732515D02*
X125334661Y-95684896D01*
X125334661Y-95684896D02*
X125239423Y-95661086D01*
X125239423Y-95661086D02*
X125072757Y-95661086D01*
X125072757Y-95661086D02*
X124977519Y-95684896D01*
X124977519Y-95684896D02*
X124929900Y-95732515D01*
X124929900Y-95732515D02*
X124906090Y-95780134D01*
X124906090Y-95780134D02*
X124906090Y-95875372D01*
X124906090Y-95875372D02*
X124929900Y-95922991D01*
X124929900Y-95922991D02*
X124977519Y-95970610D01*
X124977519Y-95970610D02*
X125072757Y-95994419D01*
X125072757Y-95994419D02*
X125239423Y-95994419D01*
X125239423Y-95994419D02*
X125334661Y-95970610D01*
X125334661Y-95970610D02*
X125382280Y-95922991D01*
X125382280Y-95922991D02*
X125406090Y-95875372D01*
X125406090Y-95446800D02*
X125001328Y-95446800D01*
X125001328Y-95446800D02*
X124953709Y-95422990D01*
X124953709Y-95422990D02*
X124929900Y-95399181D01*
X124929900Y-95399181D02*
X124906090Y-95351562D01*
X124906090Y-95351562D02*
X124906090Y-95256324D01*
X124906090Y-95256324D02*
X124929900Y-95208705D01*
X124929900Y-95208705D02*
X124953709Y-95184895D01*
X124953709Y-95184895D02*
X125001328Y-95161086D01*
X125001328Y-95161086D02*
X125406090Y-95161086D01*
X125406090Y-94994418D02*
X125406090Y-94708704D01*
X124906090Y-94851561D02*
X125406090Y-94851561D01*
X116135090Y-98709038D02*
X115635090Y-98542372D01*
X115635090Y-98542372D02*
X116135090Y-98375705D01*
X115682709Y-97923325D02*
X115658900Y-97947134D01*
X115658900Y-97947134D02*
X115635090Y-98018563D01*
X115635090Y-98018563D02*
X115635090Y-98066182D01*
X115635090Y-98066182D02*
X115658900Y-98137610D01*
X115658900Y-98137610D02*
X115706519Y-98185229D01*
X115706519Y-98185229D02*
X115754138Y-98209039D01*
X115754138Y-98209039D02*
X115849376Y-98232848D01*
X115849376Y-98232848D02*
X115920804Y-98232848D01*
X115920804Y-98232848D02*
X116016042Y-98209039D01*
X116016042Y-98209039D02*
X116063661Y-98185229D01*
X116063661Y-98185229D02*
X116111280Y-98137610D01*
X116111280Y-98137610D02*
X116135090Y-98066182D01*
X116135090Y-98066182D02*
X116135090Y-98018563D01*
X116135090Y-98018563D02*
X116111280Y-97947134D01*
X116111280Y-97947134D02*
X116087471Y-97923325D01*
X115682709Y-97423325D02*
X115658900Y-97447134D01*
X115658900Y-97447134D02*
X115635090Y-97518563D01*
X115635090Y-97518563D02*
X115635090Y-97566182D01*
X115635090Y-97566182D02*
X115658900Y-97637610D01*
X115658900Y-97637610D02*
X115706519Y-97685229D01*
X115706519Y-97685229D02*
X115754138Y-97709039D01*
X115754138Y-97709039D02*
X115849376Y-97732848D01*
X115849376Y-97732848D02*
X115920804Y-97732848D01*
X115920804Y-97732848D02*
X116016042Y-97709039D01*
X116016042Y-97709039D02*
X116063661Y-97685229D01*
X116063661Y-97685229D02*
X116111280Y-97637610D01*
X116111280Y-97637610D02*
X116135090Y-97566182D01*
X116135090Y-97566182D02*
X116135090Y-97518563D01*
X116135090Y-97518563D02*
X116111280Y-97447134D01*
X116111280Y-97447134D02*
X116087471Y-97423325D01*
X116041280Y-95708705D02*
X116065090Y-95756324D01*
X116065090Y-95756324D02*
X116065090Y-95827753D01*
X116065090Y-95827753D02*
X116041280Y-95899181D01*
X116041280Y-95899181D02*
X115993661Y-95946800D01*
X115993661Y-95946800D02*
X115946042Y-95970610D01*
X115946042Y-95970610D02*
X115850804Y-95994419D01*
X115850804Y-95994419D02*
X115779376Y-95994419D01*
X115779376Y-95994419D02*
X115684138Y-95970610D01*
X115684138Y-95970610D02*
X115636519Y-95946800D01*
X115636519Y-95946800D02*
X115588900Y-95899181D01*
X115588900Y-95899181D02*
X115565090Y-95827753D01*
X115565090Y-95827753D02*
X115565090Y-95780134D01*
X115565090Y-95780134D02*
X115588900Y-95708705D01*
X115588900Y-95708705D02*
X115612709Y-95684896D01*
X115612709Y-95684896D02*
X115779376Y-95684896D01*
X115779376Y-95684896D02*
X115779376Y-95780134D01*
X115565090Y-95470610D02*
X116065090Y-95470610D01*
X116065090Y-95470610D02*
X115565090Y-95184896D01*
X115565090Y-95184896D02*
X116065090Y-95184896D01*
X115565090Y-94946800D02*
X116065090Y-94946800D01*
X116065090Y-94946800D02*
X116065090Y-94827752D01*
X116065090Y-94827752D02*
X116041280Y-94756324D01*
X116041280Y-94756324D02*
X115993661Y-94708705D01*
X115993661Y-94708705D02*
X115946042Y-94684895D01*
X115946042Y-94684895D02*
X115850804Y-94661086D01*
X115850804Y-94661086D02*
X115779376Y-94661086D01*
X115779376Y-94661086D02*
X115684138Y-94684895D01*
X115684138Y-94684895D02*
X115636519Y-94708705D01*
X115636519Y-94708705D02*
X115588900Y-94756324D01*
X115588900Y-94756324D02*
X115565090Y-94827752D01*
X115565090Y-94827752D02*
X115565090Y-94946800D01*
X125406280Y-100966705D02*
X125430090Y-101014324D01*
X125430090Y-101014324D02*
X125430090Y-101085753D01*
X125430090Y-101085753D02*
X125406280Y-101157181D01*
X125406280Y-101157181D02*
X125358661Y-101204800D01*
X125358661Y-101204800D02*
X125311042Y-101228610D01*
X125311042Y-101228610D02*
X125215804Y-101252419D01*
X125215804Y-101252419D02*
X125144376Y-101252419D01*
X125144376Y-101252419D02*
X125049138Y-101228610D01*
X125049138Y-101228610D02*
X125001519Y-101204800D01*
X125001519Y-101204800D02*
X124953900Y-101157181D01*
X124953900Y-101157181D02*
X124930090Y-101085753D01*
X124930090Y-101085753D02*
X124930090Y-101038134D01*
X124930090Y-101038134D02*
X124953900Y-100966705D01*
X124953900Y-100966705D02*
X124977709Y-100942896D01*
X124977709Y-100942896D02*
X125144376Y-100942896D01*
X125144376Y-100942896D02*
X125144376Y-101038134D01*
X124930090Y-100728610D02*
X125430090Y-100728610D01*
X125430090Y-100728610D02*
X124930090Y-100442896D01*
X124930090Y-100442896D02*
X125430090Y-100442896D01*
X124930090Y-100204800D02*
X125430090Y-100204800D01*
X125430090Y-100204800D02*
X125430090Y-100085752D01*
X125430090Y-100085752D02*
X125406280Y-100014324D01*
X125406280Y-100014324D02*
X125358661Y-99966705D01*
X125358661Y-99966705D02*
X125311042Y-99942895D01*
X125311042Y-99942895D02*
X125215804Y-99919086D01*
X125215804Y-99919086D02*
X125144376Y-99919086D01*
X125144376Y-99919086D02*
X125049138Y-99942895D01*
X125049138Y-99942895D02*
X125001519Y-99966705D01*
X125001519Y-99966705D02*
X124953900Y-100014324D01*
X124953900Y-100014324D02*
X124930090Y-100085752D01*
X124930090Y-100085752D02*
X124930090Y-100204800D01*
D10*
X109232819Y-91125922D02*
X109232819Y-91697350D01*
X110232819Y-91411636D02*
X109232819Y-91411636D01*
X110232819Y-92030684D02*
X109566152Y-92030684D01*
X109756628Y-92030684D02*
X109661390Y-92078303D01*
X109661390Y-92078303D02*
X109613771Y-92125922D01*
X109613771Y-92125922D02*
X109566152Y-92221160D01*
X109566152Y-92221160D02*
X109566152Y-92316398D01*
X110232819Y-93078303D02*
X109709009Y-93078303D01*
X109709009Y-93078303D02*
X109613771Y-93030684D01*
X109613771Y-93030684D02*
X109566152Y-92935446D01*
X109566152Y-92935446D02*
X109566152Y-92744970D01*
X109566152Y-92744970D02*
X109613771Y-92649732D01*
X110185200Y-93078303D02*
X110232819Y-92983065D01*
X110232819Y-92983065D02*
X110232819Y-92744970D01*
X110232819Y-92744970D02*
X110185200Y-92649732D01*
X110185200Y-92649732D02*
X110089961Y-92602113D01*
X110089961Y-92602113D02*
X109994723Y-92602113D01*
X109994723Y-92602113D02*
X109899485Y-92649732D01*
X109899485Y-92649732D02*
X109851866Y-92744970D01*
X109851866Y-92744970D02*
X109851866Y-92983065D01*
X109851866Y-92983065D02*
X109804247Y-93078303D01*
X110232819Y-93554494D02*
X109566152Y-93554494D01*
X109232819Y-93554494D02*
X109280438Y-93506875D01*
X109280438Y-93506875D02*
X109328057Y-93554494D01*
X109328057Y-93554494D02*
X109280438Y-93602113D01*
X109280438Y-93602113D02*
X109232819Y-93554494D01*
X109232819Y-93554494D02*
X109328057Y-93554494D01*
X109566152Y-94030684D02*
X110232819Y-94030684D01*
X109661390Y-94030684D02*
X109613771Y-94078303D01*
X109613771Y-94078303D02*
X109566152Y-94173541D01*
X109566152Y-94173541D02*
X109566152Y-94316398D01*
X109566152Y-94316398D02*
X109613771Y-94411636D01*
X109613771Y-94411636D02*
X109709009Y-94459255D01*
X109709009Y-94459255D02*
X110232819Y-94459255D01*
X109851866Y-94935446D02*
X109851866Y-95697351D01*
X110185200Y-96125922D02*
X110232819Y-96268779D01*
X110232819Y-96268779D02*
X110232819Y-96506874D01*
X110232819Y-96506874D02*
X110185200Y-96602112D01*
X110185200Y-96602112D02*
X110137580Y-96649731D01*
X110137580Y-96649731D02*
X110042342Y-96697350D01*
X110042342Y-96697350D02*
X109947104Y-96697350D01*
X109947104Y-96697350D02*
X109851866Y-96649731D01*
X109851866Y-96649731D02*
X109804247Y-96602112D01*
X109804247Y-96602112D02*
X109756628Y-96506874D01*
X109756628Y-96506874D02*
X109709009Y-96316398D01*
X109709009Y-96316398D02*
X109661390Y-96221160D01*
X109661390Y-96221160D02*
X109613771Y-96173541D01*
X109613771Y-96173541D02*
X109518533Y-96125922D01*
X109518533Y-96125922D02*
X109423295Y-96125922D01*
X109423295Y-96125922D02*
X109328057Y-96173541D01*
X109328057Y-96173541D02*
X109280438Y-96221160D01*
X109280438Y-96221160D02*
X109232819Y-96316398D01*
X109232819Y-96316398D02*
X109232819Y-96554493D01*
X109232819Y-96554493D02*
X109280438Y-96697350D01*
X110185200Y-97554493D02*
X110232819Y-97459255D01*
X110232819Y-97459255D02*
X110232819Y-97268779D01*
X110232819Y-97268779D02*
X110185200Y-97173541D01*
X110185200Y-97173541D02*
X110137580Y-97125922D01*
X110137580Y-97125922D02*
X110042342Y-97078303D01*
X110042342Y-97078303D02*
X109756628Y-97078303D01*
X109756628Y-97078303D02*
X109661390Y-97125922D01*
X109661390Y-97125922D02*
X109613771Y-97173541D01*
X109613771Y-97173541D02*
X109566152Y-97268779D01*
X109566152Y-97268779D02*
X109566152Y-97459255D01*
X109566152Y-97459255D02*
X109613771Y-97554493D01*
X110232819Y-97983065D02*
X109566152Y-97983065D01*
X109232819Y-97983065D02*
X109280438Y-97935446D01*
X109280438Y-97935446D02*
X109328057Y-97983065D01*
X109328057Y-97983065D02*
X109280438Y-98030684D01*
X109280438Y-98030684D02*
X109232819Y-97983065D01*
X109232819Y-97983065D02*
X109328057Y-97983065D01*
X110185200Y-98840207D02*
X110232819Y-98744969D01*
X110232819Y-98744969D02*
X110232819Y-98554493D01*
X110232819Y-98554493D02*
X110185200Y-98459255D01*
X110185200Y-98459255D02*
X110089961Y-98411636D01*
X110089961Y-98411636D02*
X109709009Y-98411636D01*
X109709009Y-98411636D02*
X109613771Y-98459255D01*
X109613771Y-98459255D02*
X109566152Y-98554493D01*
X109566152Y-98554493D02*
X109566152Y-98744969D01*
X109566152Y-98744969D02*
X109613771Y-98840207D01*
X109613771Y-98840207D02*
X109709009Y-98887826D01*
X109709009Y-98887826D02*
X109804247Y-98887826D01*
X109804247Y-98887826D02*
X109899485Y-98411636D01*
X109566152Y-99316398D02*
X110232819Y-99316398D01*
X109661390Y-99316398D02*
X109613771Y-99364017D01*
X109613771Y-99364017D02*
X109566152Y-99459255D01*
X109566152Y-99459255D02*
X109566152Y-99602112D01*
X109566152Y-99602112D02*
X109613771Y-99697350D01*
X109613771Y-99697350D02*
X109709009Y-99744969D01*
X109709009Y-99744969D02*
X110232819Y-99744969D01*
X110185200Y-100649731D02*
X110232819Y-100554493D01*
X110232819Y-100554493D02*
X110232819Y-100364017D01*
X110232819Y-100364017D02*
X110185200Y-100268779D01*
X110185200Y-100268779D02*
X110137580Y-100221160D01*
X110137580Y-100221160D02*
X110042342Y-100173541D01*
X110042342Y-100173541D02*
X109756628Y-100173541D01*
X109756628Y-100173541D02*
X109661390Y-100221160D01*
X109661390Y-100221160D02*
X109613771Y-100268779D01*
X109613771Y-100268779D02*
X109566152Y-100364017D01*
X109566152Y-100364017D02*
X109566152Y-100554493D01*
X109566152Y-100554493D02*
X109613771Y-100649731D01*
X110185200Y-101459255D02*
X110232819Y-101364017D01*
X110232819Y-101364017D02*
X110232819Y-101173541D01*
X110232819Y-101173541D02*
X110185200Y-101078303D01*
X110185200Y-101078303D02*
X110089961Y-101030684D01*
X110089961Y-101030684D02*
X109709009Y-101030684D01*
X109709009Y-101030684D02*
X109613771Y-101078303D01*
X109613771Y-101078303D02*
X109566152Y-101173541D01*
X109566152Y-101173541D02*
X109566152Y-101364017D01*
X109566152Y-101364017D02*
X109613771Y-101459255D01*
X109613771Y-101459255D02*
X109709009Y-101506874D01*
X109709009Y-101506874D02*
X109804247Y-101506874D01*
X109804247Y-101506874D02*
X109899485Y-101030684D01*
X110137580Y-101935446D02*
X110185200Y-101983065D01*
X110185200Y-101983065D02*
X110232819Y-101935446D01*
X110232819Y-101935446D02*
X110185200Y-101887827D01*
X110185200Y-101887827D02*
X110137580Y-101935446D01*
X110137580Y-101935446D02*
X110232819Y-101935446D01*
X110185200Y-102840207D02*
X110232819Y-102744969D01*
X110232819Y-102744969D02*
X110232819Y-102554493D01*
X110232819Y-102554493D02*
X110185200Y-102459255D01*
X110185200Y-102459255D02*
X110137580Y-102411636D01*
X110137580Y-102411636D02*
X110042342Y-102364017D01*
X110042342Y-102364017D02*
X109756628Y-102364017D01*
X109756628Y-102364017D02*
X109661390Y-102411636D01*
X109661390Y-102411636D02*
X109613771Y-102459255D01*
X109613771Y-102459255D02*
X109566152Y-102554493D01*
X109566152Y-102554493D02*
X109566152Y-102744969D01*
X109566152Y-102744969D02*
X109613771Y-102840207D01*
X110232819Y-103411636D02*
X110185200Y-103316398D01*
X110185200Y-103316398D02*
X110137580Y-103268779D01*
X110137580Y-103268779D02*
X110042342Y-103221160D01*
X110042342Y-103221160D02*
X109756628Y-103221160D01*
X109756628Y-103221160D02*
X109661390Y-103268779D01*
X109661390Y-103268779D02*
X109613771Y-103316398D01*
X109613771Y-103316398D02*
X109566152Y-103411636D01*
X109566152Y-103411636D02*
X109566152Y-103554493D01*
X109566152Y-103554493D02*
X109613771Y-103649731D01*
X109613771Y-103649731D02*
X109661390Y-103697350D01*
X109661390Y-103697350D02*
X109756628Y-103744969D01*
X109756628Y-103744969D02*
X110042342Y-103744969D01*
X110042342Y-103744969D02*
X110137580Y-103697350D01*
X110137580Y-103697350D02*
X110185200Y-103649731D01*
X110185200Y-103649731D02*
X110232819Y-103554493D01*
X110232819Y-103554493D02*
X110232819Y-103411636D01*
X110232819Y-104173541D02*
X109566152Y-104173541D01*
X109661390Y-104173541D02*
X109613771Y-104221160D01*
X109613771Y-104221160D02*
X109566152Y-104316398D01*
X109566152Y-104316398D02*
X109566152Y-104459255D01*
X109566152Y-104459255D02*
X109613771Y-104554493D01*
X109613771Y-104554493D02*
X109709009Y-104602112D01*
X109709009Y-104602112D02*
X110232819Y-104602112D01*
X109709009Y-104602112D02*
X109613771Y-104649731D01*
X109613771Y-104649731D02*
X109566152Y-104744969D01*
X109566152Y-104744969D02*
X109566152Y-104887826D01*
X109566152Y-104887826D02*
X109613771Y-104983065D01*
X109613771Y-104983065D02*
X109709009Y-105030684D01*
X109709009Y-105030684D02*
X110232819Y-105030684D01*
D11*
X131133909Y-95561246D02*
X131491052Y-95561246D01*
X131491052Y-95561246D02*
X131562480Y-95537437D01*
X131562480Y-95537437D02*
X131610100Y-95489818D01*
X131610100Y-95489818D02*
X131633909Y-95418389D01*
X131633909Y-95418389D02*
X131633909Y-95370770D01*
X131633909Y-96037436D02*
X131633909Y-95799341D01*
X131633909Y-95799341D02*
X131133909Y-95799341D01*
X131586290Y-96489817D02*
X131610100Y-96466008D01*
X131610100Y-96466008D02*
X131633909Y-96394579D01*
X131633909Y-96394579D02*
X131633909Y-96346960D01*
X131633909Y-96346960D02*
X131610100Y-96275532D01*
X131610100Y-96275532D02*
X131562480Y-96227913D01*
X131562480Y-96227913D02*
X131514861Y-96204103D01*
X131514861Y-96204103D02*
X131419623Y-96180294D01*
X131419623Y-96180294D02*
X131348195Y-96180294D01*
X131348195Y-96180294D02*
X131252957Y-96204103D01*
X131252957Y-96204103D02*
X131205338Y-96227913D01*
X131205338Y-96227913D02*
X131157719Y-96275532D01*
X131157719Y-96275532D02*
X131133909Y-96346960D01*
X131133909Y-96346960D02*
X131133909Y-96394579D01*
X131133909Y-96394579D02*
X131157719Y-96466008D01*
X131157719Y-96466008D02*
X131181528Y-96489817D01*
X131133909Y-96846960D02*
X131491052Y-96846960D01*
X131491052Y-96846960D02*
X131562480Y-96823151D01*
X131562480Y-96823151D02*
X131610100Y-96775532D01*
X131610100Y-96775532D02*
X131633909Y-96704103D01*
X131633909Y-96704103D02*
X131633909Y-96656484D01*
X131633909Y-97323150D02*
X131633909Y-97085055D01*
X131633909Y-97085055D02*
X131133909Y-97085055D01*
X131586290Y-97775531D02*
X131610100Y-97751722D01*
X131610100Y-97751722D02*
X131633909Y-97680293D01*
X131633909Y-97680293D02*
X131633909Y-97632674D01*
X131633909Y-97632674D02*
X131610100Y-97561246D01*
X131610100Y-97561246D02*
X131562480Y-97513627D01*
X131562480Y-97513627D02*
X131514861Y-97489817D01*
X131514861Y-97489817D02*
X131419623Y-97466008D01*
X131419623Y-97466008D02*
X131348195Y-97466008D01*
X131348195Y-97466008D02*
X131252957Y-97489817D01*
X131252957Y-97489817D02*
X131205338Y-97513627D01*
X131205338Y-97513627D02*
X131157719Y-97561246D01*
X131157719Y-97561246D02*
X131133909Y-97632674D01*
X131133909Y-97632674D02*
X131133909Y-97680293D01*
X131133909Y-97680293D02*
X131157719Y-97751722D01*
X131157719Y-97751722D02*
X131181528Y-97775531D01*
X131133909Y-98132674D02*
X131491052Y-98132674D01*
X131491052Y-98132674D02*
X131562480Y-98108865D01*
X131562480Y-98108865D02*
X131610100Y-98061246D01*
X131610100Y-98061246D02*
X131633909Y-97989817D01*
X131633909Y-97989817D02*
X131633909Y-97942198D01*
X131633909Y-98608864D02*
X131633909Y-98370769D01*
X131633909Y-98370769D02*
X131133909Y-98370769D01*
X131586290Y-99061245D02*
X131610100Y-99037436D01*
X131610100Y-99037436D02*
X131633909Y-98966007D01*
X131633909Y-98966007D02*
X131633909Y-98918388D01*
X131633909Y-98918388D02*
X131610100Y-98846960D01*
X131610100Y-98846960D02*
X131562480Y-98799341D01*
X131562480Y-98799341D02*
X131514861Y-98775531D01*
X131514861Y-98775531D02*
X131419623Y-98751722D01*
X131419623Y-98751722D02*
X131348195Y-98751722D01*
X131348195Y-98751722D02*
X131252957Y-98775531D01*
X131252957Y-98775531D02*
X131205338Y-98799341D01*
X131205338Y-98799341D02*
X131157719Y-98846960D01*
X131157719Y-98846960D02*
X131133909Y-98918388D01*
X131133909Y-98918388D02*
X131133909Y-98966007D01*
X131133909Y-98966007D02*
X131157719Y-99037436D01*
X131157719Y-99037436D02*
X131181528Y-99061245D01*
X131133909Y-99418388D02*
X131491052Y-99418388D01*
X131491052Y-99418388D02*
X131562480Y-99394579D01*
X131562480Y-99394579D02*
X131610100Y-99346960D01*
X131610100Y-99346960D02*
X131633909Y-99275531D01*
X131633909Y-99275531D02*
X131633909Y-99227912D01*
X131633909Y-99894578D02*
X131633909Y-99656483D01*
X131633909Y-99656483D02*
X131133909Y-99656483D01*
X131586290Y-100346959D02*
X131610100Y-100323150D01*
X131610100Y-100323150D02*
X131633909Y-100251721D01*
X131633909Y-100251721D02*
X131633909Y-100204102D01*
X131633909Y-100204102D02*
X131610100Y-100132674D01*
X131610100Y-100132674D02*
X131562480Y-100085055D01*
X131562480Y-100085055D02*
X131514861Y-100061245D01*
X131514861Y-100061245D02*
X131419623Y-100037436D01*
X131419623Y-100037436D02*
X131348195Y-100037436D01*
X131348195Y-100037436D02*
X131252957Y-100061245D01*
X131252957Y-100061245D02*
X131205338Y-100085055D01*
X131205338Y-100085055D02*
X131157719Y-100132674D01*
X131157719Y-100132674D02*
X131133909Y-100204102D01*
X131133909Y-100204102D02*
X131133909Y-100251721D01*
X131133909Y-100251721D02*
X131157719Y-100323150D01*
X131157719Y-100323150D02*
X131181528Y-100346959D01*
X124910909Y-97505961D02*
X125410909Y-97672627D01*
X125410909Y-97672627D02*
X124910909Y-97839294D01*
X125363290Y-98291674D02*
X125387100Y-98267865D01*
X125387100Y-98267865D02*
X125410909Y-98196436D01*
X125410909Y-98196436D02*
X125410909Y-98148817D01*
X125410909Y-98148817D02*
X125387100Y-98077389D01*
X125387100Y-98077389D02*
X125339480Y-98029770D01*
X125339480Y-98029770D02*
X125291861Y-98005960D01*
X125291861Y-98005960D02*
X125196623Y-97982151D01*
X125196623Y-97982151D02*
X125125195Y-97982151D01*
X125125195Y-97982151D02*
X125029957Y-98005960D01*
X125029957Y-98005960D02*
X124982338Y-98029770D01*
X124982338Y-98029770D02*
X124934719Y-98077389D01*
X124934719Y-98077389D02*
X124910909Y-98148817D01*
X124910909Y-98148817D02*
X124910909Y-98196436D01*
X124910909Y-98196436D02*
X124934719Y-98267865D01*
X124934719Y-98267865D02*
X124958528Y-98291674D01*
X125363290Y-98791674D02*
X125387100Y-98767865D01*
X125387100Y-98767865D02*
X125410909Y-98696436D01*
X125410909Y-98696436D02*
X125410909Y-98648817D01*
X125410909Y-98648817D02*
X125387100Y-98577389D01*
X125387100Y-98577389D02*
X125339480Y-98529770D01*
X125339480Y-98529770D02*
X125291861Y-98505960D01*
X125291861Y-98505960D02*
X125196623Y-98482151D01*
X125196623Y-98482151D02*
X125125195Y-98482151D01*
X125125195Y-98482151D02*
X125029957Y-98505960D01*
X125029957Y-98505960D02*
X124982338Y-98529770D01*
X124982338Y-98529770D02*
X124934719Y-98577389D01*
X124934719Y-98577389D02*
X124910909Y-98648817D01*
X124910909Y-98648817D02*
X124910909Y-98696436D01*
X124910909Y-98696436D02*
X124934719Y-98767865D01*
X124934719Y-98767865D02*
X124958528Y-98791674D01*
D12*
%TO.C,J106*%
X116563000Y-92204000D02*
X117923000Y-92204000D01*
X117923000Y-91634000D02*
X123123000Y-91634000D01*
X117923000Y-92204000D02*
X117923000Y-91634000D01*
X117923000Y-94744000D02*
X117923000Y-93724000D01*
X117923000Y-97284000D02*
X117923000Y-96264000D01*
X117923000Y-99824000D02*
X117923000Y-98804000D01*
X117923000Y-102364000D02*
X117923000Y-101344000D01*
X117923000Y-104454000D02*
X117923000Y-103884000D01*
X117923000Y-104454000D02*
X123123000Y-104454000D01*
X123123000Y-92204000D02*
X123123000Y-91634000D01*
X123123000Y-94744000D02*
X123123000Y-93724000D01*
X123123000Y-97284000D02*
X123123000Y-96264000D01*
X123123000Y-99824000D02*
X123123000Y-98804000D01*
X123123000Y-102364000D02*
X123123000Y-101344000D01*
X123123000Y-104454000D02*
X123123000Y-103884000D01*
%TD*%
%LPC*%
D13*
%TO.C,U101*%
X129057892Y-78090860D03*
D14*
X129522744Y-79825712D03*
X131257597Y-79360860D03*
X131722448Y-81095712D03*
%TD*%
D15*
%TO.C,D101*%
X109806354Y-115764116D03*
D16*
X112006059Y-117034116D03*
%TD*%
D17*
%TO.C,J106*%
X118003000Y-92964000D03*
X123043000Y-92964000D03*
X118003000Y-95504000D03*
X123043000Y-95504000D03*
X118003000Y-98044000D03*
X123043000Y-98044000D03*
X118003000Y-100584000D03*
X123043000Y-100584000D03*
X118003000Y-103124000D03*
X123043000Y-103124000D03*
%TD*%
%LPD*%
M02*
