%TF.GenerationSoftware,KiCad,Pcbnew,8.0.2*%
%TF.CreationDate,2024-11-30T21:33:01+01:00*%
%TF.ProjectId,_4mm_sleeper_w_IR,5f346d6d-5f73-46c6-9565-7065725f775f,rev?*%
%TF.SameCoordinates,Original*%
%TF.FileFunction,Copper,L1,Top*%
%TF.FilePolarity,Positive*%
%FSLAX46Y46*%
G04 Gerber Fmt 4.6, Leading zero omitted, Abs format (unit mm)*
G04 Created by KiCad (PCBNEW 8.0.2) date 2024-11-30 21:33:01*
%MOMM*%
%LPD*%
G01*
G04 APERTURE LIST*
G04 Aperture macros list*
%AMRoundRect*
0 Rectangle with rounded corners*
0 $1 Rounding radius*
0 $2 $3 $4 $5 $6 $7 $8 $9 X,Y pos of 4 corners*
0 Add a 4 corners polygon primitive as box body*
4,1,4,$2,$3,$4,$5,$6,$7,$8,$9,$2,$3,0*
0 Add four circle primitives for the rounded corners*
1,1,$1+$1,$2,$3*
1,1,$1+$1,$4,$5*
1,1,$1+$1,$6,$7*
1,1,$1+$1,$8,$9*
0 Add four rect primitives between the rounded corners*
20,1,$1+$1,$2,$3,$4,$5,0*
20,1,$1+$1,$4,$5,$6,$7,0*
20,1,$1+$1,$6,$7,$8,$9,0*
20,1,$1+$1,$8,$9,$2,$3,0*%
%AMRotRect*
0 Rectangle, with rotation*
0 The origin of the aperture is its center*
0 $1 length*
0 $2 width*
0 $3 Rotation angle, in degrees counterclockwise*
0 Add horizontal line*
21,1,$1,$2,0,0,$3*%
G04 Aperture macros list end*
%TA.AperFunction,ComponentPad*%
%ADD10RoundRect,0.249600X-0.478655X-0.128255X0.128255X-0.478655X0.478655X0.128255X-0.128255X0.478655X0*%
%TD*%
%TA.AperFunction,ComponentPad*%
%ADD11C,1.200000*%
%TD*%
%TA.AperFunction,ComponentPad*%
%ADD12RotRect,1.800000X1.800000X330.000000*%
%TD*%
%TA.AperFunction,ComponentPad*%
%ADD13C,1.800000*%
%TD*%
%TA.AperFunction,ViaPad*%
%ADD14C,0.800000*%
%TD*%
%TA.AperFunction,ViaPad*%
%ADD15C,0.500000*%
%TD*%
%TA.AperFunction,Conductor*%
%ADD16C,0.200000*%
%TD*%
G04 APERTURE END LIST*
D10*
%TO.P,U101,1,Vs*%
%TO.N,VCC*%
X129057892Y-78090860D03*
D11*
%TO.P,U101,2,OUT*%
%TO.N,/OUT*%
X129522744Y-79825712D03*
%TO.P,U101,3,GND*%
%TO.N,GND*%
X131257597Y-79360860D03*
%TO.P,U101,4,GLo*%
%TO.N,Net-(D101-K)*%
X131722448Y-81095712D03*
%TD*%
D12*
%TO.P,D101,1,K*%
%TO.N,Net-(D101-K)*%
X109806354Y-115764116D03*
D13*
%TO.P,D101,2,A*%
%TO.N,VCC*%
X112006059Y-117034116D03*
%TD*%
D14*
%TO.N,/B*%
X109601000Y-102870000D03*
X109601000Y-105156000D03*
%TO.N,/A*%
X110109000Y-92710000D03*
X108966000Y-90551000D03*
%TO.N,/D*%
X131191000Y-92837000D03*
X131445000Y-90932000D03*
%TO.N,/C*%
X131318000Y-102616000D03*
X131318000Y-105156000D03*
D15*
%TO.N,GND*%
X120272543Y-99822000D03*
X131445000Y-86360000D03*
X120777000Y-96901000D03*
%TO.N,VCC*%
X131372489Y-82223489D03*
X130674037Y-81153494D03*
D14*
%TO.N,/A*%
X109220000Y-88773000D03*
D15*
X115951000Y-92964000D03*
D14*
X117221000Y-88900000D03*
X110617000Y-88646000D03*
D15*
X115951000Y-90297000D03*
X117983000Y-91694000D03*
X119000000Y-90500000D03*
X117983000Y-93980000D03*
%TO.N,/OUT*%
X120015000Y-97240000D03*
X120142000Y-98806000D03*
X130810000Y-85725000D03*
%TO.N,/B*%
X118110000Y-104394000D03*
D14*
X117094000Y-107442000D03*
D15*
X116713000Y-105283000D03*
D14*
X113284000Y-107442000D03*
X109474000Y-107315000D03*
D15*
X117983000Y-101981000D03*
X119634000Y-105410000D03*
%TO.N,/C*%
X123063000Y-104521000D03*
X123063000Y-102108000D03*
D14*
X128016000Y-107315000D03*
D15*
X124968000Y-105283000D03*
D14*
X124079000Y-107315000D03*
D15*
X121412000Y-105410000D03*
D14*
X131699000Y-107315000D03*
D15*
%TO.N,/D*%
X124333000Y-90297000D03*
X123063000Y-91694000D03*
X121666000Y-90297000D03*
X123825000Y-89535000D03*
D14*
X131699000Y-89154000D03*
D15*
X123063000Y-94107000D03*
%TD*%
D16*
%TO.N,GND*%
X131257596Y-79792117D02*
X131257596Y-79360860D01*
X130124037Y-80925676D02*
X131257596Y-79792117D01*
X130124037Y-81806351D02*
X130124037Y-80925676D01*
X131445000Y-86360000D02*
X131445000Y-83127314D01*
X131445000Y-83127314D02*
X130124037Y-81806351D01*
%TO.N,/OUT*%
X130110610Y-82358610D02*
X129522744Y-81770744D01*
X130110610Y-85025610D02*
X130110610Y-82358610D01*
X130810000Y-85725000D02*
X130110610Y-85025610D01*
X129522744Y-81770744D02*
X129522744Y-79825712D01*
%TO.N,GND*%
X120272543Y-99822000D02*
X120777000Y-99317543D01*
X120777000Y-99317543D02*
X120777000Y-96901000D01*
%TO.N,VCC*%
X130674037Y-81525037D02*
X131372489Y-82223489D01*
X130674037Y-81153494D02*
X130674037Y-81525037D01*
%TO.N,/OUT*%
X120015000Y-98679000D02*
X120015000Y-97240000D01*
X120142000Y-98806000D02*
X120015000Y-98679000D01*
%TD*%
%TA.AperFunction,Conductor*%
%TO.N,/A*%
G36*
X111006195Y-87719685D02*
G01*
X111046543Y-87762000D01*
X111059537Y-87784507D01*
X111059539Y-87784510D01*
X111059540Y-87784511D01*
X111115489Y-87840460D01*
X111115491Y-87840461D01*
X111115495Y-87840464D01*
X111184004Y-87880017D01*
X111184011Y-87880021D01*
X111260438Y-87900500D01*
X111260440Y-87900500D01*
X115339560Y-87900500D01*
X115339562Y-87900500D01*
X115415989Y-87880021D01*
X115484511Y-87840460D01*
X115540460Y-87784511D01*
X115553457Y-87762000D01*
X115604024Y-87713785D01*
X115660844Y-87700000D01*
X118223667Y-87700000D01*
X118290706Y-87719685D01*
X118311348Y-87736319D01*
X118315489Y-87740460D01*
X118315491Y-87740461D01*
X118315495Y-87740464D01*
X118384004Y-87780017D01*
X118384011Y-87780021D01*
X118408093Y-87786474D01*
X118467753Y-87822837D01*
X118498283Y-87885684D01*
X118500000Y-87906248D01*
X118500000Y-90000000D01*
X119776000Y-90000000D01*
X119843039Y-90019685D01*
X119888794Y-90072489D01*
X119900000Y-90124000D01*
X119900000Y-93876000D01*
X119880315Y-93943039D01*
X119827511Y-93988794D01*
X119776000Y-94000000D01*
X115724500Y-94000000D01*
X115657461Y-93980315D01*
X115611706Y-93927511D01*
X115600500Y-93876000D01*
X115600500Y-89960439D01*
X115580020Y-89884009D01*
X115580017Y-89884004D01*
X115540464Y-89815495D01*
X115540458Y-89815487D01*
X115484512Y-89759541D01*
X115484504Y-89759535D01*
X115415995Y-89719982D01*
X115415990Y-89719979D01*
X115390513Y-89713152D01*
X115339562Y-89699500D01*
X111339562Y-89699500D01*
X111260438Y-89699500D01*
X111222224Y-89709739D01*
X111184009Y-89719979D01*
X111184004Y-89719982D01*
X111115495Y-89759535D01*
X111115487Y-89759541D01*
X111059541Y-89815487D01*
X111059535Y-89815495D01*
X111019982Y-89884004D01*
X111019979Y-89884009D01*
X110999500Y-89960439D01*
X110999500Y-93840000D01*
X110979815Y-93907039D01*
X110927011Y-93952794D01*
X110875500Y-93964000D01*
X108524500Y-93964000D01*
X108457461Y-93944315D01*
X108411706Y-93891511D01*
X108400500Y-93840000D01*
X108400500Y-87824000D01*
X108420185Y-87756961D01*
X108472989Y-87711206D01*
X108524500Y-87700000D01*
X110939156Y-87700000D01*
X111006195Y-87719685D01*
G37*
%TD.AperFunction*%
%TD*%
%TA.AperFunction,Conductor*%
%TO.N,/B*%
G36*
X119943039Y-101519685D02*
G01*
X119988794Y-101572489D01*
X120000000Y-101624000D01*
X120000000Y-105876000D01*
X119980315Y-105943039D01*
X119927511Y-105988794D01*
X119876000Y-106000000D01*
X118500000Y-106000000D01*
X118500000Y-108093751D01*
X118480315Y-108160790D01*
X118427511Y-108206545D01*
X118408096Y-108213525D01*
X118384013Y-108219978D01*
X118384004Y-108219982D01*
X118315495Y-108259535D01*
X118315487Y-108259541D01*
X118259541Y-108315487D01*
X118259537Y-108315492D01*
X118246543Y-108338000D01*
X118195976Y-108386215D01*
X118139156Y-108400000D01*
X115660844Y-108400000D01*
X115593805Y-108380315D01*
X115553457Y-108338000D01*
X115540462Y-108315492D01*
X115540458Y-108315487D01*
X115484512Y-108259541D01*
X115484504Y-108259535D01*
X115415995Y-108219982D01*
X115415990Y-108219979D01*
X115378072Y-108209819D01*
X115339562Y-108199500D01*
X115339560Y-108199500D01*
X111347685Y-108199500D01*
X111347275Y-108199473D01*
X111299875Y-108199499D01*
X111299832Y-108199500D01*
X111260398Y-108199500D01*
X111260308Y-108199511D01*
X111221989Y-108209802D01*
X111221925Y-108209819D01*
X111183990Y-108219984D01*
X111183869Y-108220034D01*
X111152196Y-108238344D01*
X111149599Y-108239846D01*
X111115498Y-108259535D01*
X111115465Y-108259554D01*
X111115371Y-108259626D01*
X111087396Y-108287633D01*
X111059519Y-108315510D01*
X111059448Y-108315602D01*
X111046568Y-108337941D01*
X110996028Y-108386184D01*
X110939147Y-108400000D01*
X108524500Y-108400000D01*
X108457461Y-108380315D01*
X108411706Y-108327511D01*
X108400500Y-108276000D01*
X108400500Y-101625000D01*
X108420185Y-101557961D01*
X108472989Y-101512206D01*
X108524500Y-101501000D01*
X110875500Y-101501000D01*
X110942539Y-101520685D01*
X110988294Y-101573489D01*
X110999500Y-101625000D01*
X110999500Y-106060438D01*
X110999500Y-106139562D01*
X111013152Y-106190513D01*
X111019979Y-106215990D01*
X111019982Y-106215995D01*
X111059535Y-106284504D01*
X111059539Y-106284509D01*
X111059540Y-106284511D01*
X111115489Y-106340460D01*
X111115491Y-106340461D01*
X111115495Y-106340464D01*
X111184004Y-106380017D01*
X111184011Y-106380021D01*
X111260438Y-106400500D01*
X111260440Y-106400500D01*
X115339560Y-106400500D01*
X115339562Y-106400500D01*
X115415989Y-106380021D01*
X115484511Y-106340460D01*
X115540460Y-106284511D01*
X115580021Y-106215989D01*
X115600500Y-106139562D01*
X115600500Y-101624000D01*
X115620185Y-101556961D01*
X115672989Y-101511206D01*
X115724500Y-101500000D01*
X119876000Y-101500000D01*
X119943039Y-101519685D01*
G37*
%TD.AperFunction*%
%TD*%
%TA.AperFunction,Conductor*%
%TO.N,/C*%
G36*
X125342539Y-101519685D02*
G01*
X125388294Y-101572489D01*
X125399500Y-101624000D01*
X125399500Y-106060438D01*
X125399500Y-106139562D01*
X125413152Y-106190513D01*
X125419979Y-106215990D01*
X125419982Y-106215995D01*
X125459535Y-106284504D01*
X125459539Y-106284509D01*
X125459540Y-106284511D01*
X125515489Y-106340460D01*
X125515491Y-106340461D01*
X125515495Y-106340464D01*
X125584004Y-106380017D01*
X125584011Y-106380021D01*
X125660438Y-106400500D01*
X125660440Y-106400500D01*
X129739560Y-106400500D01*
X129739562Y-106400500D01*
X129815989Y-106380021D01*
X129884511Y-106340460D01*
X129940460Y-106284511D01*
X129980021Y-106215989D01*
X130000500Y-106139562D01*
X130000500Y-101625000D01*
X130020185Y-101557961D01*
X130072989Y-101512206D01*
X130124500Y-101501000D01*
X132478206Y-101501000D01*
X132545245Y-101520685D01*
X132591000Y-101573489D01*
X132602206Y-101625029D01*
X132600624Y-108276029D01*
X132580923Y-108343064D01*
X132528109Y-108388807D01*
X132476624Y-108400000D01*
X130060844Y-108400000D01*
X129993805Y-108380315D01*
X129953457Y-108338000D01*
X129940462Y-108315492D01*
X129940458Y-108315487D01*
X129884512Y-108259541D01*
X129884504Y-108259535D01*
X129815995Y-108219982D01*
X129815990Y-108219979D01*
X129790513Y-108213152D01*
X129739562Y-108199500D01*
X125739562Y-108199500D01*
X125660438Y-108199500D01*
X125622224Y-108209739D01*
X125584009Y-108219979D01*
X125584004Y-108219982D01*
X125515495Y-108259535D01*
X125515487Y-108259541D01*
X125459541Y-108315487D01*
X125459537Y-108315492D01*
X125446543Y-108338000D01*
X125395976Y-108386215D01*
X125339156Y-108400000D01*
X122860844Y-108400000D01*
X122793805Y-108380315D01*
X122753457Y-108338000D01*
X122740462Y-108315492D01*
X122740458Y-108315487D01*
X122684512Y-108259541D01*
X122684504Y-108259535D01*
X122615995Y-108219982D01*
X122615991Y-108219980D01*
X122615989Y-108219979D01*
X122615987Y-108219978D01*
X122615986Y-108219978D01*
X122591904Y-108213525D01*
X122532245Y-108177159D01*
X122501717Y-108114312D01*
X122500000Y-108093751D01*
X122500000Y-106000000D01*
X121124000Y-106000000D01*
X121056961Y-105980315D01*
X121011206Y-105927511D01*
X121000000Y-105876000D01*
X121000000Y-101624000D01*
X121019685Y-101556961D01*
X121072489Y-101511206D01*
X121124000Y-101500000D01*
X125275500Y-101500000D01*
X125342539Y-101519685D01*
G37*
%TD.AperFunction*%
%TD*%
%TA.AperFunction,Conductor*%
%TO.N,/D*%
G36*
X125406195Y-87719685D02*
G01*
X125446543Y-87762000D01*
X125459537Y-87784507D01*
X125459539Y-87784510D01*
X125459540Y-87784511D01*
X125515489Y-87840460D01*
X125515491Y-87840461D01*
X125515495Y-87840464D01*
X125583109Y-87879500D01*
X125584011Y-87880021D01*
X125660438Y-87900500D01*
X129652683Y-87900500D01*
X129657445Y-87900795D01*
X129662479Y-87900760D01*
X129662484Y-87900762D01*
X129700504Y-87900503D01*
X129701348Y-87900500D01*
X129739600Y-87900500D01*
X129740004Y-87900444D01*
X129740845Y-87900331D01*
X129741552Y-87900237D01*
X129741602Y-87900223D01*
X129741606Y-87900223D01*
X129778376Y-87890101D01*
X129778993Y-87889934D01*
X129815989Y-87880021D01*
X129815989Y-87880020D01*
X129816026Y-87880011D01*
X129816572Y-87879781D01*
X129817305Y-87879474D01*
X129817855Y-87879245D01*
X129817886Y-87879226D01*
X129817892Y-87879225D01*
X129851081Y-87859760D01*
X129884511Y-87840460D01*
X129884513Y-87840457D01*
X129884542Y-87840441D01*
X129884979Y-87840102D01*
X129885606Y-87839618D01*
X129886111Y-87839229D01*
X129886139Y-87839199D01*
X129886143Y-87839198D01*
X129912984Y-87811987D01*
X129913271Y-87811698D01*
X129940460Y-87784511D01*
X129940461Y-87784508D01*
X129940490Y-87784480D01*
X129940885Y-87783959D01*
X129941354Y-87783344D01*
X129941691Y-87782903D01*
X129953153Y-87762735D01*
X130003389Y-87714175D01*
X130060961Y-87700000D01*
X132481489Y-87700000D01*
X132548528Y-87719685D01*
X132594283Y-87772489D01*
X132605489Y-87824029D01*
X132604058Y-93840029D01*
X132584357Y-93907064D01*
X132531543Y-93952807D01*
X132480058Y-93964000D01*
X130124500Y-93964000D01*
X130057461Y-93944315D01*
X130011706Y-93891511D01*
X130000500Y-93840000D01*
X130000500Y-89960439D01*
X129980020Y-89884009D01*
X129980017Y-89884004D01*
X129940464Y-89815495D01*
X129940458Y-89815487D01*
X129884512Y-89759541D01*
X129884504Y-89759535D01*
X129815995Y-89719982D01*
X129815990Y-89719979D01*
X129790513Y-89713152D01*
X129739562Y-89699500D01*
X125739562Y-89699500D01*
X125660438Y-89699500D01*
X125622224Y-89709739D01*
X125584009Y-89719979D01*
X125584004Y-89719982D01*
X125515495Y-89759535D01*
X125515487Y-89759541D01*
X125459541Y-89815487D01*
X125459535Y-89815495D01*
X125419982Y-89884004D01*
X125419979Y-89884009D01*
X125399500Y-89960439D01*
X125399500Y-94003000D01*
X125379815Y-94070039D01*
X125327011Y-94115794D01*
X125275500Y-94127000D01*
X121224000Y-94127000D01*
X121156961Y-94107315D01*
X121111206Y-94054511D01*
X121100000Y-94003000D01*
X121100000Y-90124000D01*
X121119685Y-90056961D01*
X121172489Y-90011206D01*
X121224000Y-90000000D01*
X122500000Y-90000000D01*
X122500000Y-87906248D01*
X122519685Y-87839209D01*
X122572489Y-87793454D01*
X122591901Y-87786475D01*
X122615989Y-87780021D01*
X122684511Y-87740460D01*
X122688652Y-87736319D01*
X122749975Y-87702834D01*
X122776333Y-87700000D01*
X125339156Y-87700000D01*
X125406195Y-87719685D01*
G37*
%TD.AperFunction*%
%TD*%
M02*
