M48
; DRILL file {KiCad 7.0.7} date Wed Oct  4 11:27:22 2023
; FORMAT={-:-/ absolute / inch / decimal}
; #@! TF.CreationDate,2023-10-04T11:27:22+02:00
; #@! TF.GenerationSoftware,Kicad,Pcbnew,7.0.7
; #@! TF.FileFunction,Plated,1,2,PTH
FMAT,2
INCH
; #@! TA.AperFunction,Plated,PTH,ViaDrill
T1C0.0118
%
G90
G05
T1
X4.2913Y-3.5039
X4.2953Y-4.1575
X4.3346Y-3.5039
X4.3386Y-4.1575
X4.374Y-3.5039
X4.378Y-4.1575
X4.4134Y-3.5039
X4.4173Y-4.1575
X4.4567Y-3.5039
X4.4606Y-4.1575
X4.5118Y-3.5039
X4.5197Y-4.1575
X4.563Y-3.5039
X4.5709Y-4.1575
X4.6181Y-3.5039
X4.622Y-4.1575
X4.6693Y-3.5039
X4.6732Y-4.1575
X4.7165Y-3.5039
X4.7205Y-4.1575
X4.7638Y-3.5039
X4.7677Y-4.1575
T0
M30
