%TF.GenerationSoftware,KiCad,Pcbnew,8.0.2*%
%TF.CreationDate,2024-12-28T14:30:30+01:00*%
%TF.ProjectId,frontPanels,66726f6e-7450-4616-9e65-6c732e6b6963,rev?*%
%TF.SameCoordinates,Original*%
%TF.FileFunction,Legend,Top*%
%TF.FilePolarity,Positive*%
%FSLAX46Y46*%
G04 Gerber Fmt 4.6, Leading zero omitted, Abs format (unit mm)*
G04 Created by KiCad (PCBNEW 8.0.2) date 2024-12-28 14:30:30*
%MOMM*%
%LPD*%
G01*
G04 APERTURE LIST*
%ADD10C,0.100000*%
%ADD11R,1.500000X1.500000*%
G04 APERTURE END LIST*
D10*
X138052884Y-113378752D02*
X138052884Y-114235895D01*
X138052884Y-114235895D02*
X138005265Y-114331133D01*
X138005265Y-114331133D02*
X137910027Y-114378752D01*
X137910027Y-114378752D02*
X137862408Y-114378752D01*
X138052884Y-113045419D02*
X138005265Y-113093038D01*
X138005265Y-113093038D02*
X138052884Y-113140657D01*
X138052884Y-113140657D02*
X138100503Y-113093038D01*
X138100503Y-113093038D02*
X138052884Y-113045419D01*
X138052884Y-113045419D02*
X138052884Y-113140657D01*
X138671931Y-114045419D02*
X138576693Y-113997800D01*
X138576693Y-113997800D02*
X138529074Y-113902561D01*
X138529074Y-113902561D02*
X138529074Y-113045419D01*
X139481455Y-113997800D02*
X139386217Y-114045419D01*
X139386217Y-114045419D02*
X139195741Y-114045419D01*
X139195741Y-114045419D02*
X139100503Y-113997800D01*
X139100503Y-113997800D02*
X139052884Y-113950180D01*
X139052884Y-113950180D02*
X139005265Y-113854942D01*
X139005265Y-113854942D02*
X139005265Y-113569228D01*
X139005265Y-113569228D02*
X139052884Y-113473990D01*
X139052884Y-113473990D02*
X139100503Y-113426371D01*
X139100503Y-113426371D02*
X139195741Y-113378752D01*
X139195741Y-113378752D02*
X139386217Y-113378752D01*
X139386217Y-113378752D02*
X139481455Y-113426371D01*
X139910027Y-113378752D02*
X139910027Y-114235895D01*
X139910027Y-114235895D02*
X139862408Y-114331133D01*
X139862408Y-114331133D02*
X139767170Y-114378752D01*
X139767170Y-114378752D02*
X139719551Y-114378752D01*
X139910027Y-113045419D02*
X139862408Y-113093038D01*
X139862408Y-113093038D02*
X139910027Y-113140657D01*
X139910027Y-113140657D02*
X139957646Y-113093038D01*
X139957646Y-113093038D02*
X139910027Y-113045419D01*
X139910027Y-113045419D02*
X139910027Y-113140657D01*
X140529074Y-114045419D02*
X140433836Y-113997800D01*
X140433836Y-113997800D02*
X140386217Y-113902561D01*
X140386217Y-113902561D02*
X140386217Y-113045419D01*
X141338598Y-113997800D02*
X141243360Y-114045419D01*
X141243360Y-114045419D02*
X141052884Y-114045419D01*
X141052884Y-114045419D02*
X140957646Y-113997800D01*
X140957646Y-113997800D02*
X140910027Y-113950180D01*
X140910027Y-113950180D02*
X140862408Y-113854942D01*
X140862408Y-113854942D02*
X140862408Y-113569228D01*
X140862408Y-113569228D02*
X140910027Y-113473990D01*
X140910027Y-113473990D02*
X140957646Y-113426371D01*
X140957646Y-113426371D02*
X141052884Y-113378752D01*
X141052884Y-113378752D02*
X141243360Y-113378752D01*
X141243360Y-113378752D02*
X141338598Y-113426371D01*
X141767170Y-113378752D02*
X141767170Y-114235895D01*
X141767170Y-114235895D02*
X141719551Y-114331133D01*
X141719551Y-114331133D02*
X141624313Y-114378752D01*
X141624313Y-114378752D02*
X141576694Y-114378752D01*
X141767170Y-113045419D02*
X141719551Y-113093038D01*
X141719551Y-113093038D02*
X141767170Y-113140657D01*
X141767170Y-113140657D02*
X141814789Y-113093038D01*
X141814789Y-113093038D02*
X141767170Y-113045419D01*
X141767170Y-113045419D02*
X141767170Y-113140657D01*
X142386217Y-114045419D02*
X142290979Y-113997800D01*
X142290979Y-113997800D02*
X142243360Y-113902561D01*
X142243360Y-113902561D02*
X142243360Y-113045419D01*
X143195741Y-113997800D02*
X143100503Y-114045419D01*
X143100503Y-114045419D02*
X142910027Y-114045419D01*
X142910027Y-114045419D02*
X142814789Y-113997800D01*
X142814789Y-113997800D02*
X142767170Y-113950180D01*
X142767170Y-113950180D02*
X142719551Y-113854942D01*
X142719551Y-113854942D02*
X142719551Y-113569228D01*
X142719551Y-113569228D02*
X142767170Y-113473990D01*
X142767170Y-113473990D02*
X142814789Y-113426371D01*
X142814789Y-113426371D02*
X142910027Y-113378752D01*
X142910027Y-113378752D02*
X143100503Y-113378752D01*
X143100503Y-113378752D02*
X143195741Y-113426371D01*
X143624313Y-113378752D02*
X143624313Y-114235895D01*
X143624313Y-114235895D02*
X143576694Y-114331133D01*
X143576694Y-114331133D02*
X143481456Y-114378752D01*
X143481456Y-114378752D02*
X143433837Y-114378752D01*
X143624313Y-113045419D02*
X143576694Y-113093038D01*
X143576694Y-113093038D02*
X143624313Y-113140657D01*
X143624313Y-113140657D02*
X143671932Y-113093038D01*
X143671932Y-113093038D02*
X143624313Y-113045419D01*
X143624313Y-113045419D02*
X143624313Y-113140657D01*
X144243360Y-114045419D02*
X144148122Y-113997800D01*
X144148122Y-113997800D02*
X144100503Y-113902561D01*
X144100503Y-113902561D02*
X144100503Y-113045419D01*
X145052884Y-113997800D02*
X144957646Y-114045419D01*
X144957646Y-114045419D02*
X144767170Y-114045419D01*
X144767170Y-114045419D02*
X144671932Y-113997800D01*
X144671932Y-113997800D02*
X144624313Y-113950180D01*
X144624313Y-113950180D02*
X144576694Y-113854942D01*
X144576694Y-113854942D02*
X144576694Y-113569228D01*
X144576694Y-113569228D02*
X144624313Y-113473990D01*
X144624313Y-113473990D02*
X144671932Y-113426371D01*
X144671932Y-113426371D02*
X144767170Y-113378752D01*
X144767170Y-113378752D02*
X144957646Y-113378752D01*
X144957646Y-113378752D02*
X145052884Y-113426371D01*
%LPC*%
D11*
%TO.C,REF\u002A\u002A*%
X137297000Y-101899000D03*
%TD*%
%TO.C,REF\u002A\u002A*%
X145627000Y-101899000D03*
%TD*%
%LPD*%
M02*
