%TF.GenerationSoftware,KiCad,Pcbnew,7.0.5*%
%TF.CreationDate,2023-08-26T13:13:14+02:00*%
%TF.ProjectId,XnetBlockUnit,586e6574-426c-46f6-936b-556e69742e6b,rev?*%
%TF.SameCoordinates,Original*%
%TF.FileFunction,Soldermask,Bot*%
%TF.FilePolarity,Negative*%
%FSLAX46Y46*%
G04 Gerber Fmt 4.6, Leading zero omitted, Abs format (unit mm)*
G04 Created by KiCad (PCBNEW 7.0.5) date 2023-08-26 13:13:14*
%MOMM*%
%LPD*%
G01*
G04 APERTURE LIST*
G04 Aperture macros list*
%AMFreePoly0*
4,1,19,0.500000,-0.750000,0.000000,-0.750000,0.000000,-0.744911,-0.071157,-0.744911,-0.207708,-0.704816,-0.327430,-0.627875,-0.420627,-0.520320,-0.479746,-0.390866,-0.500000,-0.250000,-0.500000,0.250000,-0.479746,0.390866,-0.420627,0.520320,-0.327430,0.627875,-0.207708,0.704816,-0.071157,0.744911,0.000000,0.744911,0.000000,0.750000,0.500000,0.750000,0.500000,-0.750000,0.500000,-0.750000,
$1*%
%AMFreePoly1*
4,1,19,0.000000,0.744911,0.071157,0.744911,0.207708,0.704816,0.327430,0.627875,0.420627,0.520320,0.479746,0.390866,0.500000,0.250000,0.500000,-0.250000,0.479746,-0.390866,0.420627,-0.520320,0.327430,-0.627875,0.207708,-0.704816,0.071157,-0.744911,0.000000,-0.744911,0.000000,-0.750000,-0.500000,-0.750000,-0.500000,0.750000,0.000000,0.750000,0.000000,0.744911,0.000000,0.744911,
$1*%
G04 Aperture macros list end*
%ADD10R,2.600000X2.600000*%
%ADD11C,2.600000*%
%ADD12R,1.600000X1.600000*%
%ADD13C,1.600000*%
%ADD14C,3.200000*%
%ADD15R,1.560000X1.560000*%
%ADD16C,1.560000*%
%ADD17R,1.000000X1.000000*%
%ADD18O,1.000000X1.000000*%
%ADD19C,3.250000*%
%ADD20R,1.520000X1.520000*%
%ADD21C,1.520000*%
%ADD22FreePoly0,90.000000*%
%ADD23FreePoly1,90.000000*%
G04 APERTURE END LIST*
D10*
%TO.C,J103*%
X85090000Y-123317000D03*
D11*
X85090000Y-118237000D03*
X85090000Y-113157000D03*
X85090000Y-108077000D03*
X85090000Y-102997000D03*
X85090000Y-97917000D03*
X85090000Y-92837000D03*
X85090000Y-87757000D03*
%TD*%
D12*
%TO.C,C101*%
X75066651Y-133604000D03*
D13*
X72566651Y-133604000D03*
%TD*%
D14*
%TO.C,REF\u002A\u002A*%
X44000000Y-69500000D03*
%TD*%
D10*
%TO.C,J101*%
X53612000Y-132978000D03*
D11*
X58692000Y-132978000D03*
X63772000Y-132978000D03*
%TD*%
D14*
%TO.C,REF\u002A\u002A*%
X87500000Y-69500000D03*
%TD*%
D15*
%TO.C,RV101*%
X83693000Y-80899000D03*
D16*
X88693000Y-78399000D03*
X83693000Y-75899000D03*
%TD*%
D17*
%TO.C,U201*%
X41783000Y-77724000D03*
D18*
X43053000Y-77724000D03*
X41783000Y-76454000D03*
X43053000Y-76454000D03*
X41783000Y-75184000D03*
X43053000Y-75184000D03*
%TD*%
D14*
%TO.C,REF\u002A\u002A*%
X44000000Y-135500000D03*
%TD*%
D10*
%TO.C,J102*%
X46500000Y-88020000D03*
D11*
X46500000Y-93100000D03*
X46500000Y-98180000D03*
X46500000Y-103260000D03*
X46500000Y-108340000D03*
X46500000Y-113420000D03*
X46500000Y-118500000D03*
X46500000Y-123580000D03*
%TD*%
D19*
%TO.C,J302*%
X62080000Y-73288000D03*
X51920000Y-73288000D03*
D20*
X60170000Y-82178000D03*
D21*
X58900000Y-79638000D03*
X57630000Y-82178000D03*
X56360000Y-79638000D03*
X55090000Y-82178000D03*
X53820000Y-79638000D03*
%TD*%
D14*
%TO.C,REF\u002A\u002A*%
X87500000Y-135500000D03*
%TD*%
D19*
%TO.C,J301*%
X77550000Y-73288000D03*
X67390000Y-73288000D03*
D20*
X75640000Y-82178000D03*
D21*
X74370000Y-79638000D03*
X73100000Y-82178000D03*
X71830000Y-79638000D03*
X70560000Y-82178000D03*
X69290000Y-79638000D03*
%TD*%
D22*
%TO.C,JP101*%
X61359000Y-115325000D03*
D23*
X61359000Y-114025000D03*
%TD*%
M02*
