%TF.GenerationSoftware,KiCad,Pcbnew,8.0.5*%
%TF.CreationDate,2025-06-13T11:28:52+02:00*%
%TF.ProjectId,insulFrogExtensionSMD,696e7375-6c46-4726-9f67-457874656e73,rev?*%
%TF.SameCoordinates,Original*%
%TF.FileFunction,Profile,NP*%
%FSLAX46Y46*%
G04 Gerber Fmt 4.6, Leading zero omitted, Abs format (unit mm)*
G04 Created by KiCad (PCBNEW 8.0.5) date 2025-06-13 11:28:52*
%MOMM*%
%LPD*%
G01*
G04 APERTURE LIST*
%TA.AperFunction,Profile*%
%ADD10C,0.100000*%
%TD*%
%TA.AperFunction,Profile*%
%ADD11C,0.120000*%
%TD*%
G04 APERTURE END LIST*
D10*
X125500000Y-85000000D02*
X125443000Y-72000000D01*
X125500000Y-100000000D02*
X125500000Y-87000000D01*
X125500000Y-115000000D02*
X125500000Y-102000000D01*
X81500000Y-102000000D02*
X81500000Y-115000000D01*
X81500000Y-87000000D02*
X81500000Y-100000000D01*
X81500000Y-72000000D02*
X81500000Y-85000000D01*
X95750000Y-85000000D02*
X110750000Y-85000000D01*
X116250000Y-87000000D02*
X125500000Y-87000000D01*
X90250000Y-85000000D02*
X81500000Y-85000000D01*
X90250000Y-87000000D02*
X81500000Y-87000000D01*
X95750000Y-87000000D02*
X110750000Y-87000000D01*
X116250000Y-85000000D02*
X125500000Y-85000000D01*
X95750000Y-100000000D02*
X110750000Y-100000000D01*
X116250000Y-102000000D02*
X125500000Y-102000000D01*
X90250000Y-100000000D02*
X81500000Y-100000000D01*
X90250000Y-102000000D02*
X81500000Y-102000000D01*
X95750000Y-102000000D02*
X110750000Y-102000000D01*
X116250000Y-100000000D02*
X125500000Y-100000000D01*
X90250000Y-115000000D02*
X81500000Y-115000000D01*
X116250000Y-115000000D02*
X125500000Y-115000000D01*
X95750000Y-115000000D02*
X110750000Y-115000000D01*
X125500000Y-117000000D02*
X125443000Y-130000000D01*
X116250000Y-117000000D02*
X125500000Y-117000000D01*
X95750000Y-117000000D02*
X110750000Y-117000000D01*
X81500000Y-117000000D02*
X81500000Y-130000000D01*
X90250000Y-117000000D02*
X81500000Y-117000000D01*
X93250000Y-72000000D02*
X125443000Y-72000000D01*
X93250000Y-72000000D02*
X81500000Y-72000000D01*
X98750000Y-130000000D02*
X108500000Y-130000000D01*
X81500000Y-130000000D02*
X98750000Y-130000000D01*
X125443000Y-130000000D02*
X108500000Y-130000000D01*
D11*
%TO.C,REF\u002A\u002A*%
X110750000Y-85000000D02*
G75*
G02*
X110750000Y-87000000I0J-1000000D01*
G01*
X116250000Y-87000000D02*
G75*
G02*
X116250000Y-85000000I0J1000000D01*
G01*
X112250000Y-85000000D02*
G75*
G02*
X111750000Y-85000000I-250000J0D01*
G01*
X111750000Y-85000000D02*
G75*
G02*
X112250000Y-85000000I250000J0D01*
G01*
X112250000Y-87000000D02*
G75*
G02*
X111750000Y-87000000I-250000J0D01*
G01*
X111750000Y-87000000D02*
G75*
G02*
X112250000Y-87000000I250000J0D01*
G01*
X113250000Y-85000000D02*
G75*
G02*
X112750000Y-85000000I-250000J0D01*
G01*
X112750000Y-85000000D02*
G75*
G02*
X113250000Y-85000000I250000J0D01*
G01*
X113250000Y-87000000D02*
G75*
G02*
X112750000Y-87000000I-250000J0D01*
G01*
X112750000Y-87000000D02*
G75*
G02*
X113250000Y-87000000I250000J0D01*
G01*
X114250000Y-85000000D02*
G75*
G02*
X113750000Y-85000000I-250000J0D01*
G01*
X113750000Y-85000000D02*
G75*
G02*
X114250000Y-85000000I250000J0D01*
G01*
X114250000Y-87000000D02*
G75*
G02*
X113750000Y-87000000I-250000J0D01*
G01*
X113750000Y-87000000D02*
G75*
G02*
X114250000Y-87000000I250000J0D01*
G01*
X115250000Y-85000000D02*
G75*
G02*
X114750000Y-85000000I-250000J0D01*
G01*
X114750000Y-85000000D02*
G75*
G02*
X115250000Y-85000000I250000J0D01*
G01*
X115250000Y-87000000D02*
G75*
G02*
X114750000Y-87000000I-250000J0D01*
G01*
X114750000Y-87000000D02*
G75*
G02*
X115250000Y-87000000I250000J0D01*
G01*
X90250000Y-85000000D02*
G75*
G02*
X90250000Y-87000000I0J-1000000D01*
G01*
X95750000Y-87000000D02*
G75*
G02*
X95750000Y-85000000I0J1000000D01*
G01*
X91750000Y-85000000D02*
G75*
G02*
X91250000Y-85000000I-250000J0D01*
G01*
X91250000Y-85000000D02*
G75*
G02*
X91750000Y-85000000I250000J0D01*
G01*
X91750000Y-87000000D02*
G75*
G02*
X91250000Y-87000000I-250000J0D01*
G01*
X91250000Y-87000000D02*
G75*
G02*
X91750000Y-87000000I250000J0D01*
G01*
X92750000Y-85000000D02*
G75*
G02*
X92250000Y-85000000I-250000J0D01*
G01*
X92250000Y-85000000D02*
G75*
G02*
X92750000Y-85000000I250000J0D01*
G01*
X92750000Y-87000000D02*
G75*
G02*
X92250000Y-87000000I-250000J0D01*
G01*
X92250000Y-87000000D02*
G75*
G02*
X92750000Y-87000000I250000J0D01*
G01*
X93750000Y-85000000D02*
G75*
G02*
X93250000Y-85000000I-250000J0D01*
G01*
X93250000Y-85000000D02*
G75*
G02*
X93750000Y-85000000I250000J0D01*
G01*
X93750000Y-87000000D02*
G75*
G02*
X93250000Y-87000000I-250000J0D01*
G01*
X93250000Y-87000000D02*
G75*
G02*
X93750000Y-87000000I250000J0D01*
G01*
X94750000Y-85000000D02*
G75*
G02*
X94250000Y-85000000I-250000J0D01*
G01*
X94250000Y-85000000D02*
G75*
G02*
X94750000Y-85000000I250000J0D01*
G01*
X94750000Y-87000000D02*
G75*
G02*
X94250000Y-87000000I-250000J0D01*
G01*
X94250000Y-87000000D02*
G75*
G02*
X94750000Y-87000000I250000J0D01*
G01*
X110750000Y-100000000D02*
G75*
G02*
X110750000Y-102000000I0J-1000000D01*
G01*
X116250000Y-102000000D02*
G75*
G02*
X116250000Y-100000000I0J1000000D01*
G01*
X112250000Y-100000000D02*
G75*
G02*
X111750000Y-100000000I-250000J0D01*
G01*
X111750000Y-100000000D02*
G75*
G02*
X112250000Y-100000000I250000J0D01*
G01*
X112250000Y-102000000D02*
G75*
G02*
X111750000Y-102000000I-250000J0D01*
G01*
X111750000Y-102000000D02*
G75*
G02*
X112250000Y-102000000I250000J0D01*
G01*
X113250000Y-100000000D02*
G75*
G02*
X112750000Y-100000000I-250000J0D01*
G01*
X112750000Y-100000000D02*
G75*
G02*
X113250000Y-100000000I250000J0D01*
G01*
X113250000Y-102000000D02*
G75*
G02*
X112750000Y-102000000I-250000J0D01*
G01*
X112750000Y-102000000D02*
G75*
G02*
X113250000Y-102000000I250000J0D01*
G01*
X114250000Y-100000000D02*
G75*
G02*
X113750000Y-100000000I-250000J0D01*
G01*
X113750000Y-100000000D02*
G75*
G02*
X114250000Y-100000000I250000J0D01*
G01*
X114250000Y-102000000D02*
G75*
G02*
X113750000Y-102000000I-250000J0D01*
G01*
X113750000Y-102000000D02*
G75*
G02*
X114250000Y-102000000I250000J0D01*
G01*
X115250000Y-100000000D02*
G75*
G02*
X114750000Y-100000000I-250000J0D01*
G01*
X114750000Y-100000000D02*
G75*
G02*
X115250000Y-100000000I250000J0D01*
G01*
X115250000Y-102000000D02*
G75*
G02*
X114750000Y-102000000I-250000J0D01*
G01*
X114750000Y-102000000D02*
G75*
G02*
X115250000Y-102000000I250000J0D01*
G01*
X90250000Y-100000000D02*
G75*
G02*
X90250000Y-102000000I0J-1000000D01*
G01*
X95750000Y-102000000D02*
G75*
G02*
X95750000Y-100000000I0J1000000D01*
G01*
X91750000Y-100000000D02*
G75*
G02*
X91250000Y-100000000I-250000J0D01*
G01*
X91250000Y-100000000D02*
G75*
G02*
X91750000Y-100000000I250000J0D01*
G01*
X91750000Y-102000000D02*
G75*
G02*
X91250000Y-102000000I-250000J0D01*
G01*
X91250000Y-102000000D02*
G75*
G02*
X91750000Y-102000000I250000J0D01*
G01*
X92750000Y-100000000D02*
G75*
G02*
X92250000Y-100000000I-250000J0D01*
G01*
X92250000Y-100000000D02*
G75*
G02*
X92750000Y-100000000I250000J0D01*
G01*
X92750000Y-102000000D02*
G75*
G02*
X92250000Y-102000000I-250000J0D01*
G01*
X92250000Y-102000000D02*
G75*
G02*
X92750000Y-102000000I250000J0D01*
G01*
X93750000Y-100000000D02*
G75*
G02*
X93250000Y-100000000I-250000J0D01*
G01*
X93250000Y-100000000D02*
G75*
G02*
X93750000Y-100000000I250000J0D01*
G01*
X93750000Y-102000000D02*
G75*
G02*
X93250000Y-102000000I-250000J0D01*
G01*
X93250000Y-102000000D02*
G75*
G02*
X93750000Y-102000000I250000J0D01*
G01*
X94750000Y-100000000D02*
G75*
G02*
X94250000Y-100000000I-250000J0D01*
G01*
X94250000Y-100000000D02*
G75*
G02*
X94750000Y-100000000I250000J0D01*
G01*
X94750000Y-102000000D02*
G75*
G02*
X94250000Y-102000000I-250000J0D01*
G01*
X94250000Y-102000000D02*
G75*
G02*
X94750000Y-102000000I250000J0D01*
G01*
X110750000Y-115000000D02*
G75*
G02*
X110750000Y-117000000I0J-1000000D01*
G01*
X116250000Y-117000000D02*
G75*
G02*
X116250000Y-115000000I0J1000000D01*
G01*
X112250000Y-115000000D02*
G75*
G02*
X111750000Y-115000000I-250000J0D01*
G01*
X111750000Y-115000000D02*
G75*
G02*
X112250000Y-115000000I250000J0D01*
G01*
X112250000Y-117000000D02*
G75*
G02*
X111750000Y-117000000I-250000J0D01*
G01*
X111750000Y-117000000D02*
G75*
G02*
X112250000Y-117000000I250000J0D01*
G01*
X113250000Y-115000000D02*
G75*
G02*
X112750000Y-115000000I-250000J0D01*
G01*
X112750000Y-115000000D02*
G75*
G02*
X113250000Y-115000000I250000J0D01*
G01*
X113250000Y-117000000D02*
G75*
G02*
X112750000Y-117000000I-250000J0D01*
G01*
X112750000Y-117000000D02*
G75*
G02*
X113250000Y-117000000I250000J0D01*
G01*
X114250000Y-115000000D02*
G75*
G02*
X113750000Y-115000000I-250000J0D01*
G01*
X113750000Y-115000000D02*
G75*
G02*
X114250000Y-115000000I250000J0D01*
G01*
X114250000Y-117000000D02*
G75*
G02*
X113750000Y-117000000I-250000J0D01*
G01*
X113750000Y-117000000D02*
G75*
G02*
X114250000Y-117000000I250000J0D01*
G01*
X115250000Y-115000000D02*
G75*
G02*
X114750000Y-115000000I-250000J0D01*
G01*
X114750000Y-115000000D02*
G75*
G02*
X115250000Y-115000000I250000J0D01*
G01*
X115250000Y-117000000D02*
G75*
G02*
X114750000Y-117000000I-250000J0D01*
G01*
X114750000Y-117000000D02*
G75*
G02*
X115250000Y-117000000I250000J0D01*
G01*
X90250000Y-115000000D02*
G75*
G02*
X90250000Y-117000000I0J-1000000D01*
G01*
X95750000Y-117000000D02*
G75*
G02*
X95750000Y-115000000I0J1000000D01*
G01*
X91750000Y-115000000D02*
G75*
G02*
X91250000Y-115000000I-250000J0D01*
G01*
X91250000Y-115000000D02*
G75*
G02*
X91750000Y-115000000I250000J0D01*
G01*
X91750000Y-117000000D02*
G75*
G02*
X91250000Y-117000000I-250000J0D01*
G01*
X91250000Y-117000000D02*
G75*
G02*
X91750000Y-117000000I250000J0D01*
G01*
X92750000Y-115000000D02*
G75*
G02*
X92250000Y-115000000I-250000J0D01*
G01*
X92250000Y-115000000D02*
G75*
G02*
X92750000Y-115000000I250000J0D01*
G01*
X92750000Y-117000000D02*
G75*
G02*
X92250000Y-117000000I-250000J0D01*
G01*
X92250000Y-117000000D02*
G75*
G02*
X92750000Y-117000000I250000J0D01*
G01*
X93750000Y-115000000D02*
G75*
G02*
X93250000Y-115000000I-250000J0D01*
G01*
X93250000Y-115000000D02*
G75*
G02*
X93750000Y-115000000I250000J0D01*
G01*
X93750000Y-117000000D02*
G75*
G02*
X93250000Y-117000000I-250000J0D01*
G01*
X93250000Y-117000000D02*
G75*
G02*
X93750000Y-117000000I250000J0D01*
G01*
X94750000Y-115000000D02*
G75*
G02*
X94250000Y-115000000I-250000J0D01*
G01*
X94250000Y-115000000D02*
G75*
G02*
X94750000Y-115000000I250000J0D01*
G01*
X94750000Y-117000000D02*
G75*
G02*
X94250000Y-117000000I-250000J0D01*
G01*
X94250000Y-117000000D02*
G75*
G02*
X94750000Y-117000000I250000J0D01*
G01*
%TD*%
M02*
