%TF.GenerationSoftware,KiCad,Pcbnew,7.0.7*%
%TF.CreationDate,2023-10-21T12:21:44+02:00*%
%TF.ProjectId,OS-servoDriver,4f532d73-6572-4766-9f44-72697665722e,rev?*%
%TF.SameCoordinates,Original*%
%TF.FileFunction,Legend,Bot*%
%TF.FilePolarity,Positive*%
%FSLAX46Y46*%
G04 Gerber Fmt 4.6, Leading zero omitted, Abs format (unit mm)*
G04 Created by KiCad (PCBNEW 7.0.7) date 2023-10-21 12:21:44*
%MOMM*%
%LPD*%
G01*
G04 APERTURE LIST*
%ADD10C,0.150000*%
%ADD11C,3.200000*%
%ADD12R,1.700000X1.700000*%
%ADD13O,1.700000X1.700000*%
%ADD14R,2.600000X2.600000*%
%ADD15C,2.600000*%
%ADD16R,2.000000X2.000000*%
%ADD17C,2.000000*%
%ADD18O,1.000000X1.000000*%
%ADD19R,1.000000X1.000000*%
G04 APERTURE END LIST*
D10*
X131949649Y-169684819D02*
X132140125Y-169684819D01*
X132140125Y-169684819D02*
X132235363Y-169732438D01*
X132235363Y-169732438D02*
X132282982Y-169780057D01*
X132282982Y-169780057D02*
X132378220Y-169922914D01*
X132378220Y-169922914D02*
X132425839Y-170113390D01*
X132425839Y-170113390D02*
X132425839Y-170494342D01*
X132425839Y-170494342D02*
X132378220Y-170589580D01*
X132378220Y-170589580D02*
X132330601Y-170637200D01*
X132330601Y-170637200D02*
X132235363Y-170684819D01*
X132235363Y-170684819D02*
X132044887Y-170684819D01*
X132044887Y-170684819D02*
X131949649Y-170637200D01*
X131949649Y-170637200D02*
X131902030Y-170589580D01*
X131902030Y-170589580D02*
X131854411Y-170494342D01*
X131854411Y-170494342D02*
X131854411Y-170256247D01*
X131854411Y-170256247D02*
X131902030Y-170161009D01*
X131902030Y-170161009D02*
X131949649Y-170113390D01*
X131949649Y-170113390D02*
X132044887Y-170065771D01*
X132044887Y-170065771D02*
X132235363Y-170065771D01*
X132235363Y-170065771D02*
X132330601Y-170113390D01*
X132330601Y-170113390D02*
X132378220Y-170161009D01*
X132378220Y-170161009D02*
X132425839Y-170256247D01*
X131568696Y-169684819D02*
X131235363Y-170684819D01*
X131235363Y-170684819D02*
X130902030Y-169684819D01*
X130568696Y-170303866D02*
X129806792Y-170303866D01*
X128806792Y-170684819D02*
X129378220Y-170684819D01*
X129092506Y-170684819D02*
X129092506Y-169684819D01*
X129092506Y-169684819D02*
X129187744Y-169827676D01*
X129187744Y-169827676D02*
X129282982Y-169922914D01*
X129282982Y-169922914D02*
X129378220Y-169970533D01*
X128330601Y-170684819D02*
X128140125Y-170684819D01*
X128140125Y-170684819D02*
X128044887Y-170637200D01*
X128044887Y-170637200D02*
X127997268Y-170589580D01*
X127997268Y-170589580D02*
X127902030Y-170446723D01*
X127902030Y-170446723D02*
X127854411Y-170256247D01*
X127854411Y-170256247D02*
X127854411Y-169875295D01*
X127854411Y-169875295D02*
X127902030Y-169780057D01*
X127902030Y-169780057D02*
X127949649Y-169732438D01*
X127949649Y-169732438D02*
X128044887Y-169684819D01*
X128044887Y-169684819D02*
X128235363Y-169684819D01*
X128235363Y-169684819D02*
X128330601Y-169732438D01*
X128330601Y-169732438D02*
X128378220Y-169780057D01*
X128378220Y-169780057D02*
X128425839Y-169875295D01*
X128425839Y-169875295D02*
X128425839Y-170113390D01*
X128425839Y-170113390D02*
X128378220Y-170208628D01*
X128378220Y-170208628D02*
X128330601Y-170256247D01*
X128330601Y-170256247D02*
X128235363Y-170303866D01*
X128235363Y-170303866D02*
X128044887Y-170303866D01*
X128044887Y-170303866D02*
X127949649Y-170256247D01*
X127949649Y-170256247D02*
X127902030Y-170208628D01*
X127902030Y-170208628D02*
X127854411Y-170113390D01*
X127568696Y-169684819D02*
X127235363Y-170684819D01*
X127235363Y-170684819D02*
X126902030Y-169684819D01*
X125854410Y-170399104D02*
X125378220Y-170399104D01*
X125949648Y-170684819D02*
X125616315Y-169684819D01*
X125616315Y-169684819D02*
X125282982Y-170684819D01*
X124378220Y-170589580D02*
X124425839Y-170637200D01*
X124425839Y-170637200D02*
X124568696Y-170684819D01*
X124568696Y-170684819D02*
X124663934Y-170684819D01*
X124663934Y-170684819D02*
X124806791Y-170637200D01*
X124806791Y-170637200D02*
X124902029Y-170541961D01*
X124902029Y-170541961D02*
X124949648Y-170446723D01*
X124949648Y-170446723D02*
X124997267Y-170256247D01*
X124997267Y-170256247D02*
X124997267Y-170113390D01*
X124997267Y-170113390D02*
X124949648Y-169922914D01*
X124949648Y-169922914D02*
X124902029Y-169827676D01*
X124902029Y-169827676D02*
X124806791Y-169732438D01*
X124806791Y-169732438D02*
X124663934Y-169684819D01*
X124663934Y-169684819D02*
X124568696Y-169684819D01*
X124568696Y-169684819D02*
X124425839Y-169732438D01*
X124425839Y-169732438D02*
X124378220Y-169780057D01*
X123235363Y-169637200D02*
X124092505Y-170922914D01*
X122902029Y-170684819D02*
X122902029Y-169684819D01*
X122902029Y-169684819D02*
X122663934Y-169684819D01*
X122663934Y-169684819D02*
X122521077Y-169732438D01*
X122521077Y-169732438D02*
X122425839Y-169827676D01*
X122425839Y-169827676D02*
X122378220Y-169922914D01*
X122378220Y-169922914D02*
X122330601Y-170113390D01*
X122330601Y-170113390D02*
X122330601Y-170256247D01*
X122330601Y-170256247D02*
X122378220Y-170446723D01*
X122378220Y-170446723D02*
X122425839Y-170541961D01*
X122425839Y-170541961D02*
X122521077Y-170637200D01*
X122521077Y-170637200D02*
X122663934Y-170684819D01*
X122663934Y-170684819D02*
X122902029Y-170684819D01*
X121330601Y-170589580D02*
X121378220Y-170637200D01*
X121378220Y-170637200D02*
X121521077Y-170684819D01*
X121521077Y-170684819D02*
X121616315Y-170684819D01*
X121616315Y-170684819D02*
X121759172Y-170637200D01*
X121759172Y-170637200D02*
X121854410Y-170541961D01*
X121854410Y-170541961D02*
X121902029Y-170446723D01*
X121902029Y-170446723D02*
X121949648Y-170256247D01*
X121949648Y-170256247D02*
X121949648Y-170113390D01*
X121949648Y-170113390D02*
X121902029Y-169922914D01*
X121902029Y-169922914D02*
X121854410Y-169827676D01*
X121854410Y-169827676D02*
X121759172Y-169732438D01*
X121759172Y-169732438D02*
X121616315Y-169684819D01*
X121616315Y-169684819D02*
X121521077Y-169684819D01*
X121521077Y-169684819D02*
X121378220Y-169732438D01*
X121378220Y-169732438D02*
X121330601Y-169780057D01*
%LPC*%
D11*
%TO.C,REF\u002A\u002A*%
X139000000Y-96500000D03*
%TD*%
%TO.C,REF\u002A\u002A*%
X106000000Y-96500000D03*
%TD*%
%TO.C,REF\u002A\u002A*%
X106000000Y-169000000D03*
%TD*%
%TO.C,REF\u002A\u002A*%
X139000000Y-169000000D03*
%TD*%
D12*
%TO.C,J1001*%
X134975000Y-135500000D03*
D13*
X134975000Y-132960000D03*
X137515000Y-135500000D03*
X137515000Y-132960000D03*
X140055000Y-135500000D03*
X140055000Y-132960000D03*
%TD*%
D12*
%TO.C,J901*%
X134975000Y-125000000D03*
D13*
X134975000Y-122460000D03*
X137515000Y-125000000D03*
X137515000Y-122460000D03*
X140055000Y-125000000D03*
X140055000Y-122460000D03*
%TD*%
D12*
%TO.C,J801*%
X110080000Y-122460000D03*
D13*
X110080000Y-125000000D03*
X107540000Y-122460000D03*
X107540000Y-125000000D03*
X105000000Y-122460000D03*
X105000000Y-125000000D03*
%TD*%
%TO.C,J701*%
X104873000Y-135731000D03*
X104873000Y-133191000D03*
X107413000Y-135731000D03*
X107413000Y-133191000D03*
X109953000Y-135731000D03*
D12*
X109953000Y-133191000D03*
%TD*%
D14*
%TO.C,J101*%
X115840000Y-167500000D03*
D15*
X120920000Y-167500000D03*
X126000000Y-167500000D03*
X131080000Y-167500000D03*
%TD*%
D16*
%TO.C,C1101*%
X123500000Y-155500000D03*
D17*
X120000000Y-155500000D03*
%TD*%
D18*
%TO.C,U201*%
X138500000Y-144000000D03*
X139770000Y-144000000D03*
X138500000Y-142730000D03*
X139770000Y-142730000D03*
X138500000Y-141460000D03*
D19*
X139770000Y-141460000D03*
%TD*%
%LPD*%
M02*
