M48
; DRILL file {KiCad 7.0.7} date Sat Oct 21 12:21:44 2023
; FORMAT={-:-/ absolute / inch / decimal}
; #@! TF.CreationDate,2023-10-21T12:21:44+02:00
; #@! TF.GenerationSoftware,Kicad,Pcbnew,7.0.7
; #@! TF.FileFunction,Plated,1,2,PTH
FMAT,2
INCH
; #@! TA.AperFunction,Plated,PTH,ViaDrill
T1C0.0118
; #@! TA.AperFunction,Plated,PTH,ViaDrill
T2C0.0157
; #@! TA.AperFunction,Plated,PTH,ComponentDrill
T3C0.0276
; #@! TA.AperFunction,Plated,PTH,ComponentDrill
T4C0.0394
; #@! TA.AperFunction,Plated,PTH,ComponentDrill
T5C0.0512
%
G90
G05
T1
X4.07Y-5.635
X4.07Y-5.96
X4.085Y-4.175
X4.09Y-3.995
X4.095Y-4.63
X4.105Y-4.32
X4.11Y-4.5
X4.11Y-6.125
X4.115Y-6.42
X4.12Y-5.155
X4.12Y-5.44
X4.13Y-5.005
X4.16Y-6.21
X4.19Y-4.38
X4.245Y-4.455
X4.27Y-4.03
X4.2947Y-5.5197
X4.31Y-4.435
X4.32Y-4.085
X4.3278Y-5.5478
X4.33Y-3.715
X4.365Y-4.395
X4.365Y-6.68
X4.375Y-5.525
X4.385Y-4.09
X4.39Y-4.28
X4.425Y-4.395
X4.44Y-5.525
X4.445Y-4.165
X4.45Y-4.04
X4.4701Y-6.185
X4.485Y-5.4469
X4.49Y-5.5216
X4.49Y-5.56
X4.52Y-5.4469
X4.53Y-5.5216
X4.54Y-5.62
X4.5453Y-6.185
X4.56Y-4.085
X4.565Y-4.32
X4.585Y-5.95
X4.585Y-6.095
X4.595Y-4.38
X4.595Y-6.215
X4.615Y-6.305
X4.62Y-4.115
X4.62Y-5.89
X4.625Y-6.44
X4.64Y-3.725
X4.64Y-5.685
X4.645Y-4.255
X4.645Y-6.73
X4.67Y-4.39
X4.69Y-3.955
X4.69Y-4.03
X4.695Y-4.08
X4.695Y-4.335
X4.715Y-5.69
X4.725Y-3.84
X4.735Y-3.895
X4.735Y-6.49
X4.755Y-6.03
X4.775Y-5.145
X4.785Y-5.175
X4.8Y-4.24
X4.815Y-5.155
X4.815Y-5.51
X4.825Y-5.595
X4.855Y-3.875
X4.855Y-6.205
X4.86Y-5.47
X4.865Y-6.47
X4.87Y-5.98
X4.8808Y-5.3201
X4.895Y-5.42
X4.92Y-4.42
X4.92Y-5.615
X4.9205Y-5.1405
X4.9218Y-4.2632
X4.925Y-4.5712
X4.925Y-4.6263
X4.9345Y-5.2045
X4.935Y-5.815
X4.94Y-6.725
X4.945Y-3.93
X4.945Y-6.495
X4.9466Y-5.11
X4.95Y-4.55
X4.95Y-4.65
X4.95Y-6.31
X4.96Y-5.18
X4.965Y-5.08
X4.97Y-3.82
X4.97Y-6.075
X4.9716Y-4.515
X4.975Y-3.7
X4.975Y-5.575
X4.98Y-4.635
X4.98Y-5.475
X4.99Y-5.06
X4.997Y-5.142
X5.0078Y-4.6778
X5.015Y-4.64
X5.015Y-4.78
X5.015Y-4.955
X5.02Y-5.05
X5.0229Y-5.5379
X5.025Y-5.125
X5.025Y-5.975
X5.03Y-4.1
X5.035Y-5.835
X5.035Y-6.44
X5.0366Y-4.57
X5.04Y-4.47
X5.045Y-5.265
X5.055Y-5.115
X5.06Y-5.35
X5.065Y-3.7
X5.065Y-5.04
X5.0678Y-5.7466
X5.075Y-4.63
X5.075Y-6.56
X5.085Y-5.15
X5.115Y-4.1
X5.125Y-5.56
X5.13Y-6.035
X5.135Y-4.035
X5.135Y-5.37
X5.135Y-6.34
X5.1404Y-5.4204
X5.1512Y-5.6762
X5.155Y-5.14
X5.155Y-6.18
X5.1685Y-5.4535
X5.1739Y-5.6535
X5.185Y-6.45
X5.195Y-5.74
X5.2012Y-5.6262
X5.21Y-4.035
X5.225Y-4.76
X5.225Y-5.2
X5.2284Y-5.727
X5.23Y-5.325
X5.23Y-5.99
X5.235Y-5.395
X5.24Y-4.935
X5.245Y-4.125
X5.245Y-6.715
X5.25Y-5.14
X5.2571Y-5.6984
X5.26Y-5.04
X5.2787Y-5.5487
X5.2802Y-5.6752
X5.2935Y-5.175
X5.295Y-5.995
X5.295Y-6.545
X5.305Y-6.37
X5.31Y-5.6984
X5.31Y-6.175
X5.314Y-4.995
X5.33Y-4.64
X5.3324Y-5.5174
X5.3344Y-5.175
X5.335Y-5.72
X5.355Y-4.05
X5.3624Y-5.4874
X5.365Y-5.3928
X5.37Y-5.7205
X5.37Y-5.7996
X5.37Y-6.48
X5.375Y-6.0
X5.38Y-6.185
X5.3814Y-5.5964
X5.405Y-5.72
X5.41Y-4.655
X5.425Y-5.11
X5.43Y-5.05
X5.445Y-6.015
X5.4477Y-5.5077
X5.45Y-6.07
X5.45Y-6.105
X5.455Y-5.13
X5.455Y-6.755
X5.47Y-4.64
X5.475Y-6.185
X5.475Y-6.345
X5.49Y-5.055
X5.49Y-5.145
X5.4903Y-4.98
X5.505Y-6.015
X5.515Y-6.34
X5.52Y-6.5
X5.525Y-6.185
X5.53Y-4.57
X5.535Y-4.005
X5.5513Y-5.1187
X5.555Y-4.72
X5.555Y-6.015
X5.56Y-5.64
X5.57Y-4.165
X5.57Y-4.99
X5.57Y-6.185
X5.575Y-6.34
X5.58Y-5.87
X5.58Y-5.925
X5.585Y-5.14
T2
X4.166Y-6.0376
X4.221Y-6.1226
X4.5425Y-4.9287
X4.5525Y-4.8787
X4.5725Y-4.9987
X4.5725Y-5.0387
X4.5725Y-5.0787
X4.5875Y-5.2537
X4.6325Y-5.3087
X4.6825Y-4.8737
X4.6953Y-5.2087
X4.7006Y-5.9382
X4.7256Y-5.7482
X4.7475Y-4.9987
X4.7475Y-5.0387
X4.7475Y-5.0787
X4.7525Y-4.7837
X4.7806Y-5.8632
X4.7875Y-4.8637
X4.895Y-5.2
X5.1319Y-5.9211
X5.1969Y-5.8661
X5.1969Y-5.9311
X5.3519Y-5.8661
X5.3519Y-5.9211
X5.4269Y-5.9161
X5.5069Y-5.8611
X5.565Y-5.78
T3
X5.4528Y-5.5693
X5.4528Y-5.6193
X5.4528Y-5.6693
X5.5028Y-5.5693
X5.5028Y-5.6193
X5.5028Y-5.6693
T4
X4.1289Y-5.2437
X4.1289Y-5.3437
X4.1339Y-4.8213
X4.1339Y-4.9213
X4.2289Y-5.2437
X4.2289Y-5.3437
X4.2339Y-4.8213
X4.2339Y-4.9213
X4.3289Y-5.2437
X4.3289Y-5.3437
X4.3339Y-4.8213
X4.3339Y-4.9213
X4.7244Y-6.122
X4.8622Y-6.122
X5.314Y-4.8213
X5.314Y-4.9213
X5.314Y-5.2346
X5.314Y-5.3346
X5.414Y-4.8213
X5.414Y-4.9213
X5.414Y-5.2346
X5.414Y-5.3346
X5.514Y-4.8213
X5.514Y-4.9213
X5.514Y-5.2346
X5.514Y-5.3346
T5
X4.5606Y-6.5945
X4.7606Y-6.5945
X4.9606Y-6.5945
X5.1606Y-6.5945
T0
M30
