%TF.GenerationSoftware,KiCad,Pcbnew,7.0.7*%
%TF.CreationDate,2023-11-13T21:03:18+01:00*%
%TF.ProjectId,OS-servoDriver,4f532d73-6572-4766-9f44-72697665722e,rev?*%
%TF.SameCoordinates,Original*%
%TF.FileFunction,Paste,Top*%
%TF.FilePolarity,Positive*%
%FSLAX46Y46*%
G04 Gerber Fmt 4.6, Leading zero omitted, Abs format (unit mm)*
G04 Created by KiCad (PCBNEW 7.0.7) date 2023-11-13 21:03:18*
%MOMM*%
%LPD*%
G01*
G04 APERTURE LIST*
G04 Aperture macros list*
%AMRoundRect*
0 Rectangle with rounded corners*
0 $1 Rounding radius*
0 $2 $3 $4 $5 $6 $7 $8 $9 X,Y pos of 4 corners*
0 Add a 4 corners polygon primitive as box body*
4,1,4,$2,$3,$4,$5,$6,$7,$8,$9,$2,$3,0*
0 Add four circle primitives for the rounded corners*
1,1,$1+$1,$2,$3*
1,1,$1+$1,$4,$5*
1,1,$1+$1,$6,$7*
1,1,$1+$1,$8,$9*
0 Add four rect primitives between the rounded corners*
20,1,$1+$1,$2,$3,$4,$5,0*
20,1,$1+$1,$4,$5,$6,$7,0*
20,1,$1+$1,$6,$7,$8,$9,0*
20,1,$1+$1,$8,$9,$2,$3,0*%
%AMRotRect*
0 Rectangle, with rotation*
0 The origin of the aperture is its center*
0 $1 length*
0 $2 width*
0 $3 Rotation angle, in degrees counterclockwise*
0 Add horizontal line*
21,1,$1,$2,0,0,$3*%
%AMFreePoly0*
4,1,9,3.862500,-0.866500,0.737500,-0.866500,0.737500,-0.450000,-0.737500,-0.450000,-0.737500,0.450000,0.737500,0.450000,0.737500,0.866500,3.862500,0.866500,3.862500,-0.866500,3.862500,-0.866500,$1*%
G04 Aperture macros list end*
%ADD10R,0.900000X1.300000*%
%ADD11FreePoly0,270.000000*%
%ADD12RoundRect,0.237500X0.250000X0.237500X-0.250000X0.237500X-0.250000X-0.237500X0.250000X-0.237500X0*%
%ADD13R,0.610000X1.910000*%
%ADD14R,0.930000X0.723000*%
%ADD15RoundRect,0.225000X0.225000X0.250000X-0.225000X0.250000X-0.225000X-0.250000X0.225000X-0.250000X0*%
%ADD16RoundRect,0.250000X0.450000X-0.325000X0.450000X0.325000X-0.450000X0.325000X-0.450000X-0.325000X0*%
%ADD17R,1.100000X1.800000*%
%ADD18RoundRect,0.140000X0.219203X0.021213X0.021213X0.219203X-0.219203X-0.021213X-0.021213X-0.219203X0*%
%ADD19R,1.800000X1.100000*%
%ADD20RoundRect,0.200000X-0.200000X-0.275000X0.200000X-0.275000X0.200000X0.275000X-0.200000X0.275000X0*%
%ADD21RoundRect,0.160000X0.160000X-0.197500X0.160000X0.197500X-0.160000X0.197500X-0.160000X-0.197500X0*%
%ADD22RoundRect,0.250000X-0.475000X0.250000X-0.475000X-0.250000X0.475000X-0.250000X0.475000X0.250000X0*%
%ADD23RoundRect,0.225000X0.250000X-0.225000X0.250000X0.225000X-0.250000X0.225000X-0.250000X-0.225000X0*%
%ADD24RoundRect,0.162500X-0.162500X1.012500X-0.162500X-1.012500X0.162500X-1.012500X0.162500X1.012500X0*%
%ADD25RoundRect,0.200000X0.200000X0.275000X-0.200000X0.275000X-0.200000X-0.275000X0.200000X-0.275000X0*%
%ADD26RoundRect,0.237500X-0.250000X-0.237500X0.250000X-0.237500X0.250000X0.237500X-0.250000X0.237500X0*%
%ADD27RoundRect,0.225000X-0.225000X-0.250000X0.225000X-0.250000X0.225000X0.250000X-0.225000X0.250000X0*%
%ADD28RotRect,1.600000X0.550000X45.000000*%
%ADD29RotRect,1.600000X0.550000X135.000000*%
%ADD30RoundRect,0.250000X-1.000000X-0.650000X1.000000X-0.650000X1.000000X0.650000X-1.000000X0.650000X0*%
%ADD31RoundRect,0.237500X-0.237500X0.300000X-0.237500X-0.300000X0.237500X-0.300000X0.237500X0.300000X0*%
%ADD32RoundRect,0.300000X-0.300000X0.400000X-0.300000X-0.400000X0.300000X-0.400000X0.300000X0.400000X0*%
%ADD33RoundRect,0.112500X0.187500X0.112500X-0.187500X0.112500X-0.187500X-0.112500X0.187500X-0.112500X0*%
%ADD34RoundRect,0.250000X-0.650000X0.412500X-0.650000X-0.412500X0.650000X-0.412500X0.650000X0.412500X0*%
%ADD35RoundRect,0.140000X0.140000X0.170000X-0.140000X0.170000X-0.140000X-0.170000X0.140000X-0.170000X0*%
%ADD36R,2.000000X3.200000*%
%ADD37RoundRect,0.237500X0.237500X-0.250000X0.237500X0.250000X-0.237500X0.250000X-0.237500X-0.250000X0*%
G04 APERTURE END LIST*
D10*
%TO.C,U301*%
X135429000Y-147349000D03*
D11*
X133929000Y-147436500D03*
D10*
X132429000Y-147349000D03*
%TD*%
D12*
%TO.C,R1002*%
X112824500Y-158180000D03*
X110999500Y-158180000D03*
%TD*%
D13*
%TO.C,U901*%
X120206500Y-125236500D03*
X118936500Y-125236500D03*
X117666500Y-125236500D03*
X116396500Y-125236500D03*
X116396500Y-130796500D03*
X117666500Y-130796500D03*
X118936500Y-130796500D03*
X120206500Y-130796500D03*
D14*
X119076500Y-127414000D03*
X117526500Y-127414000D03*
X119076500Y-128619000D03*
X117526500Y-128619000D03*
%TD*%
D12*
%TO.C,R1001*%
X113078500Y-143702000D03*
X111253500Y-143702000D03*
%TD*%
D15*
%TO.C,C904*%
X123521500Y-128380000D03*
X121971500Y-128380000D03*
%TD*%
D16*
%TO.C,D201*%
X129509000Y-109635500D03*
X129509000Y-107585500D03*
%TD*%
D17*
%TO.C,SW602*%
X120800000Y-110600000D03*
X120800000Y-104400000D03*
X124500000Y-110600000D03*
X124500000Y-104400000D03*
%TD*%
D18*
%TO.C,C202*%
X121555305Y-146132000D03*
X120876483Y-145453178D03*
%TD*%
D12*
%TO.C,R702*%
X109942500Y-138516500D03*
X108117500Y-138516500D03*
%TD*%
D19*
%TO.C,SW601*%
X134100000Y-102350000D03*
X127900000Y-102350000D03*
X134100000Y-98650000D03*
X127900000Y-98650000D03*
%TD*%
D20*
%TO.C,R903*%
X120905500Y-132937000D03*
X122555500Y-132937000D03*
%TD*%
D21*
%TO.C,R202*%
X136000000Y-144327500D03*
X136000000Y-143132500D03*
%TD*%
D22*
%TO.C,C301*%
X130476000Y-147187500D03*
X130476000Y-149087500D03*
%TD*%
D19*
%TO.C,SW605*%
X114600000Y-111350000D03*
X108400000Y-111350000D03*
X114600000Y-107650000D03*
X108400000Y-107650000D03*
%TD*%
D23*
%TO.C,C201*%
X118793305Y-149574000D03*
X118793305Y-148024000D03*
%TD*%
D24*
%TO.C,U1001*%
X113540000Y-146500000D03*
X111000000Y-146500000D03*
X108460000Y-146500000D03*
X105920000Y-146500000D03*
X105920000Y-155550000D03*
X108460000Y-155550000D03*
X111000000Y-155550000D03*
X113540000Y-155550000D03*
%TD*%
D25*
%TO.C,R901*%
X122555500Y-134588000D03*
X120905500Y-134588000D03*
%TD*%
D26*
%TO.C,R905*%
X134985500Y-119674500D03*
X136810500Y-119674500D03*
%TD*%
D12*
%TO.C,R1003*%
X109014500Y-158180000D03*
X107189500Y-158180000D03*
%TD*%
D27*
%TO.C,C901*%
X119177500Y-122777000D03*
X120727500Y-122777000D03*
%TD*%
%TO.C,C203*%
X120780305Y-151720000D03*
X122330305Y-151720000D03*
%TD*%
D28*
%TO.C,U202*%
X120040202Y-142194305D03*
X120605888Y-142759990D03*
X121171573Y-143325676D03*
X121737258Y-143891361D03*
X122302944Y-144457047D03*
X122868629Y-145022732D03*
X123434315Y-145588417D03*
X124000000Y-146154103D03*
D29*
X126050610Y-146154103D03*
X126616295Y-145588417D03*
X127181981Y-145022732D03*
X127747666Y-144457047D03*
X128313352Y-143891361D03*
X128879037Y-143325676D03*
X129444722Y-142759990D03*
X130010408Y-142194305D03*
D28*
X130010408Y-140143695D03*
X129444722Y-139578010D03*
X128879037Y-139012324D03*
X128313352Y-138446639D03*
X127747666Y-137880953D03*
X127181981Y-137315268D03*
X126616295Y-136749583D03*
X126050610Y-136183897D03*
D29*
X124000000Y-136183897D03*
X123434315Y-136749583D03*
X122868629Y-137315268D03*
X122302944Y-137880953D03*
X121737258Y-138446639D03*
X121171573Y-139012324D03*
X120605888Y-139578010D03*
X120040202Y-140143695D03*
%TD*%
D30*
%TO.C,D1104*%
X136500000Y-158950000D03*
X140500000Y-158950000D03*
%TD*%
%TO.C,D1101*%
X129000000Y-155000000D03*
X133000000Y-155000000D03*
%TD*%
D31*
%TO.C,C302*%
X137588000Y-147248500D03*
X137588000Y-148973500D03*
%TD*%
D15*
%TO.C,C905*%
X123521500Y-126714000D03*
X121971500Y-126714000D03*
%TD*%
D26*
%TO.C,R904*%
X134985500Y-127802500D03*
X136810500Y-127802500D03*
%TD*%
D17*
%TO.C,SW603*%
X120800000Y-101600000D03*
X120800000Y-95400000D03*
X124500000Y-101600000D03*
X124500000Y-95400000D03*
%TD*%
D12*
%TO.C,R701*%
X109942500Y-130388500D03*
X108117500Y-130388500D03*
%TD*%
D32*
%TO.C,Y201*%
X120544305Y-147742000D03*
X120544305Y-149942000D03*
X122444305Y-149942000D03*
X122444305Y-147742000D03*
%TD*%
D33*
%TO.C,D1001*%
X109533000Y-143575000D03*
X107433000Y-143575000D03*
%TD*%
D30*
%TO.C,D1103*%
X129000000Y-158950000D03*
X133000000Y-158950000D03*
%TD*%
D12*
%TO.C,R802*%
X110069500Y-127785500D03*
X108244500Y-127785500D03*
%TD*%
D34*
%TO.C,C303*%
X139874000Y-147310500D03*
X139874000Y-150435500D03*
%TD*%
D26*
%TO.C,R1004*%
X134985500Y-138302500D03*
X136810500Y-138302500D03*
%TD*%
D35*
%TO.C,C902*%
X117793500Y-123285000D03*
X116833500Y-123285000D03*
%TD*%
%TO.C,C903*%
X117793500Y-122142000D03*
X116833500Y-122142000D03*
%TD*%
D36*
%TO.C,L901*%
X115290500Y-116808000D03*
X123090500Y-116808000D03*
%TD*%
D35*
%TO.C,C906*%
X123224500Y-129762000D03*
X122264500Y-129762000D03*
%TD*%
D25*
%TO.C,R902*%
X119380500Y-133445000D03*
X117730500Y-133445000D03*
%TD*%
D12*
%TO.C,R801*%
X110069500Y-119657500D03*
X108244500Y-119657500D03*
%TD*%
D30*
%TO.C,D1102*%
X136500000Y-154950000D03*
X140500000Y-154950000D03*
%TD*%
D26*
%TO.C,R1005*%
X134985500Y-130174500D03*
X136810500Y-130174500D03*
%TD*%
D37*
%TO.C,R201*%
X131500000Y-109412500D03*
X131500000Y-107587500D03*
%TD*%
D19*
%TO.C,SW604*%
X117100000Y-102350000D03*
X110900000Y-102350000D03*
X117100000Y-98650000D03*
X110900000Y-98650000D03*
%TD*%
M02*
