%TF.GenerationSoftware,KiCad,Pcbnew,8.0.2*%
%TF.CreationDate,2024-05-28T12:27:03+02:00*%
%TF.ProjectId,BR_SEMAPHORE,42525f53-454d-4415-9048-4f52452e6b69,rev?*%
%TF.SameCoordinates,Original*%
%TF.FileFunction,Copper,L2,Bot*%
%TF.FilePolarity,Positive*%
%FSLAX46Y46*%
G04 Gerber Fmt 4.6, Leading zero omitted, Abs format (unit mm)*
G04 Created by KiCad (PCBNEW 8.0.2) date 2024-05-28 12:27:03*
%MOMM*%
%LPD*%
G01*
G04 APERTURE LIST*
G04 APERTURE END LIST*
%TA.AperFunction,NonConductor*%
G36*
X222761306Y-82186176D02*
G01*
X222828293Y-82206023D01*
X222873919Y-82258938D01*
X222885000Y-82310175D01*
X222885000Y-105286000D01*
X222865315Y-105353039D01*
X222812511Y-105398794D01*
X222761000Y-105410000D01*
X217296994Y-105410000D01*
X217092315Y-105450880D01*
X217068110Y-105453282D01*
X78108581Y-105544090D01*
X78041529Y-105524449D01*
X77995739Y-105471675D01*
X77984500Y-105420090D01*
X77984500Y-93599000D01*
X208341747Y-93599000D01*
X208360741Y-93913023D01*
X208360741Y-93913028D01*
X208360742Y-93913029D01*
X208417451Y-94222478D01*
X208417452Y-94222482D01*
X208417453Y-94222486D01*
X208511039Y-94522816D01*
X208511043Y-94522827D01*
X208511044Y-94522830D01*
X208511046Y-94522835D01*
X208640163Y-94809721D01*
X208690521Y-94893023D01*
X208802924Y-95078960D01*
X208996942Y-95326605D01*
X209219394Y-95549057D01*
X209467039Y-95743075D01*
X209467044Y-95743078D01*
X209467048Y-95743081D01*
X209736279Y-95905837D01*
X210023165Y-96034954D01*
X210023175Y-96034957D01*
X210023183Y-96034960D01*
X210223403Y-96097350D01*
X210323522Y-96128549D01*
X210632971Y-96185258D01*
X210947000Y-96204253D01*
X211261029Y-96185258D01*
X211570478Y-96128549D01*
X211870835Y-96034954D01*
X212157721Y-95905837D01*
X212426952Y-95743081D01*
X212674602Y-95549060D01*
X212897060Y-95326602D01*
X213091081Y-95078952D01*
X213253837Y-94809721D01*
X213382954Y-94522835D01*
X213476549Y-94222478D01*
X213533258Y-93913029D01*
X213552253Y-93599000D01*
X213533258Y-93284971D01*
X213476549Y-92975522D01*
X213382954Y-92675165D01*
X213253837Y-92388279D01*
X213091081Y-92119048D01*
X213091078Y-92119044D01*
X213091075Y-92119039D01*
X212897057Y-91871394D01*
X212674605Y-91648942D01*
X212426960Y-91454924D01*
X212426952Y-91454919D01*
X212157721Y-91292163D01*
X211870835Y-91163046D01*
X211870830Y-91163044D01*
X211870827Y-91163043D01*
X211870816Y-91163039D01*
X211570486Y-91069453D01*
X211570482Y-91069452D01*
X211570478Y-91069451D01*
X211261029Y-91012742D01*
X211261028Y-91012741D01*
X211261023Y-91012741D01*
X210947000Y-90993747D01*
X210632976Y-91012741D01*
X210632971Y-91012742D01*
X210323522Y-91069451D01*
X210323519Y-91069451D01*
X210323513Y-91069453D01*
X210023183Y-91163039D01*
X210023172Y-91163043D01*
X209736283Y-91292161D01*
X209736281Y-91292162D01*
X209467039Y-91454924D01*
X209219394Y-91648942D01*
X208996942Y-91871394D01*
X208802924Y-92119039D01*
X208640162Y-92388281D01*
X208640161Y-92388283D01*
X208511043Y-92675172D01*
X208511039Y-92675183D01*
X208417453Y-92975513D01*
X208360741Y-93284976D01*
X208341747Y-93599000D01*
X77984500Y-93599000D01*
X77984500Y-90170000D01*
X200916592Y-90170000D01*
X200936201Y-90456680D01*
X200994666Y-90738034D01*
X200994667Y-90738037D01*
X201090894Y-91008793D01*
X201090893Y-91008793D01*
X201223098Y-91263935D01*
X201388812Y-91498700D01*
X201473923Y-91589831D01*
X201584947Y-91708708D01*
X201784920Y-91871398D01*
X201807853Y-91890055D01*
X202053382Y-92039365D01*
X202236813Y-92119039D01*
X202316942Y-92153844D01*
X202593642Y-92231371D01*
X202843920Y-92265771D01*
X202878321Y-92270500D01*
X202878322Y-92270500D01*
X203165679Y-92270500D01*
X203196370Y-92266281D01*
X203450358Y-92231371D01*
X203727058Y-92153844D01*
X203902164Y-92077785D01*
X203990617Y-92039365D01*
X203990620Y-92039363D01*
X203990625Y-92039361D01*
X204236147Y-91890055D01*
X204459053Y-91708708D01*
X204655189Y-91498698D01*
X204820901Y-91263936D01*
X204953104Y-91008797D01*
X205049334Y-90738032D01*
X205107798Y-90456686D01*
X205127408Y-90170000D01*
X205107798Y-89883314D01*
X205049334Y-89601968D01*
X204953105Y-89331206D01*
X204953106Y-89331206D01*
X204820901Y-89076064D01*
X204655187Y-88841299D01*
X204576554Y-88757105D01*
X204459053Y-88631292D01*
X204236147Y-88449945D01*
X204236146Y-88449944D01*
X203990617Y-88300634D01*
X203727063Y-88186158D01*
X203727061Y-88186157D01*
X203727058Y-88186156D01*
X203597578Y-88149877D01*
X203450364Y-88108630D01*
X203450359Y-88108629D01*
X203450358Y-88108629D01*
X203308018Y-88089064D01*
X203165679Y-88069500D01*
X203165678Y-88069500D01*
X202878322Y-88069500D01*
X202878321Y-88069500D01*
X202593642Y-88108629D01*
X202593635Y-88108630D01*
X202385861Y-88166845D01*
X202316942Y-88186156D01*
X202316939Y-88186156D01*
X202316936Y-88186158D01*
X202316935Y-88186158D01*
X202053382Y-88300634D01*
X201807853Y-88449944D01*
X201584950Y-88631289D01*
X201388812Y-88841299D01*
X201223098Y-89076064D01*
X201090894Y-89331206D01*
X200994667Y-89601962D01*
X200994666Y-89601965D01*
X200936201Y-89883319D01*
X200916592Y-90170000D01*
X77984500Y-90170000D01*
X77984500Y-82349517D01*
X78004185Y-82282478D01*
X78056989Y-82236723D01*
X78108440Y-82225517D01*
X212597501Y-82161500D01*
X222761306Y-82186176D01*
G37*
%TD.AperFunction*%
M02*
