%TF.GenerationSoftware,KiCad,Pcbnew,(5.1.6)-1*%
%TF.CreationDate,2021-01-10T15:05:26+01:00*%
%TF.ProjectId,trainCatcher,74726169-6e43-4617-9463-6865722e6b69,rev?*%
%TF.SameCoordinates,Original*%
%TF.FileFunction,Copper,L1,Top*%
%TF.FilePolarity,Positive*%
%FSLAX46Y46*%
G04 Gerber Fmt 4.6, Leading zero omitted, Abs format (unit mm)*
G04 Created by KiCad (PCBNEW (5.1.6)-1) date 2021-01-10 15:05:26*
%MOMM*%
%LPD*%
G01*
G04 APERTURE LIST*
%TA.AperFunction,ComponentPad*%
%ADD10O,1.700000X1.700000*%
%TD*%
%TA.AperFunction,ComponentPad*%
%ADD11R,1.700000X1.700000*%
%TD*%
%TA.AperFunction,SMDPad,CuDef*%
%ADD12R,0.800000X0.900000*%
%TD*%
%TA.AperFunction,ComponentPad*%
%ADD13C,1.550000*%
%TD*%
%TA.AperFunction,ComponentPad*%
%ADD14R,1.550000X1.550000*%
%TD*%
%TA.AperFunction,SMDPad,CuDef*%
%ADD15R,2.000000X1.780000*%
%TD*%
%TA.AperFunction,SMDPad,CuDef*%
%ADD16R,1.000000X0.800000*%
%TD*%
%TA.AperFunction,ComponentPad*%
%ADD17C,1.200000*%
%TD*%
%TA.AperFunction,ComponentPad*%
%ADD18R,1.050000X1.500000*%
%TD*%
%TA.AperFunction,ComponentPad*%
%ADD19O,1.050000X1.500000*%
%TD*%
%TA.AperFunction,ComponentPad*%
%ADD20R,3.000000X3.000000*%
%TD*%
%TA.AperFunction,ComponentPad*%
%ADD21C,3.000000*%
%TD*%
%TA.AperFunction,ViaPad*%
%ADD22C,0.800000*%
%TD*%
%TA.AperFunction,Conductor*%
%ADD23C,0.250000*%
%TD*%
%TA.AperFunction,Conductor*%
%ADD24C,0.254000*%
%TD*%
G04 APERTURE END LIST*
D10*
%TO.P,J3,4*%
%TO.N,Net-(J3-Pad4)*%
X146685000Y-151320500D03*
%TO.P,J3,3*%
%TO.N,GND*%
X146685000Y-153860500D03*
%TO.P,J3,2*%
%TO.N,Net-(J3-Pad2)*%
X144145000Y-151320500D03*
D11*
%TO.P,J3,1*%
%TO.N,GND*%
X144145000Y-153860500D03*
%TD*%
%TO.P,D5,2*%
%TO.N,Net-(D2-Pad3)*%
%TA.AperFunction,SMDPad,CuDef*%
G36*
G01*
X135179750Y-152009500D02*
X136092250Y-152009500D01*
G75*
G02*
X136336000Y-152253250I0J-243750D01*
G01*
X136336000Y-152740750D01*
G75*
G02*
X136092250Y-152984500I-243750J0D01*
G01*
X135179750Y-152984500D01*
G75*
G02*
X134936000Y-152740750I0J243750D01*
G01*
X134936000Y-152253250D01*
G75*
G02*
X135179750Y-152009500I243750J0D01*
G01*
G37*
%TD.AperFunction*%
%TO.P,D5,1*%
%TO.N,Net-(D5-Pad1)*%
%TA.AperFunction,SMDPad,CuDef*%
G36*
G01*
X135179750Y-150134500D02*
X136092250Y-150134500D01*
G75*
G02*
X136336000Y-150378250I0J-243750D01*
G01*
X136336000Y-150865750D01*
G75*
G02*
X136092250Y-151109500I-243750J0D01*
G01*
X135179750Y-151109500D01*
G75*
G02*
X134936000Y-150865750I0J243750D01*
G01*
X134936000Y-150378250D01*
G75*
G02*
X135179750Y-150134500I243750J0D01*
G01*
G37*
%TD.AperFunction*%
%TD*%
%TO.P,D4,2*%
%TO.N,Net-(D1-Pad3)*%
%TA.AperFunction,SMDPad,CuDef*%
G36*
G01*
X135179750Y-156264000D02*
X136092250Y-156264000D01*
G75*
G02*
X136336000Y-156507750I0J-243750D01*
G01*
X136336000Y-156995250D01*
G75*
G02*
X136092250Y-157239000I-243750J0D01*
G01*
X135179750Y-157239000D01*
G75*
G02*
X134936000Y-156995250I0J243750D01*
G01*
X134936000Y-156507750D01*
G75*
G02*
X135179750Y-156264000I243750J0D01*
G01*
G37*
%TD.AperFunction*%
%TO.P,D4,1*%
%TO.N,Net-(D4-Pad1)*%
%TA.AperFunction,SMDPad,CuDef*%
G36*
G01*
X135179750Y-154389000D02*
X136092250Y-154389000D01*
G75*
G02*
X136336000Y-154632750I0J-243750D01*
G01*
X136336000Y-155120250D01*
G75*
G02*
X136092250Y-155364000I-243750J0D01*
G01*
X135179750Y-155364000D01*
G75*
G02*
X134936000Y-155120250I0J243750D01*
G01*
X134936000Y-154632750D01*
G75*
G02*
X135179750Y-154389000I243750J0D01*
G01*
G37*
%TD.AperFunction*%
%TD*%
D12*
%TO.P,Q2,3*%
%TO.N,Net-(D5-Pad1)*%
X139507000Y-150654000D03*
%TO.P,Q2,2*%
%TO.N,Net-(D2-Pad3)*%
X140457000Y-152654000D03*
%TO.P,Q2,1*%
%TO.N,Net-(Q2-Pad1)*%
X138557000Y-152654000D03*
%TD*%
%TO.P,Q1,3*%
%TO.N,Net-(D4-Pad1)*%
X139446000Y-154876500D03*
%TO.P,Q1,2*%
%TO.N,Net-(D1-Pad3)*%
X140396000Y-156876500D03*
%TO.P,Q1,1*%
%TO.N,Net-(Q1-Pad1)*%
X138496000Y-156876500D03*
%TD*%
D13*
%TO.P,RV1,2*%
%TO.N,Net-(RV1-Pad2)*%
X141558000Y-166838000D03*
D14*
%TO.P,RV1,1*%
%TO.N,GND*%
X146558000Y-164338000D03*
D13*
%TO.P,RV1,3*%
%TO.N,+5V*%
X146558000Y-169338000D03*
%TD*%
D15*
%TO.P,U3,1*%
%TO.N,Net-(R2-Pad2)*%
X117978000Y-151384000D03*
%TO.P,U3,9*%
%TO.N,N/C*%
X127508000Y-169164000D03*
%TO.P,U3,2*%
%TO.N,GND*%
X117978000Y-153924000D03*
%TO.P,U3,10*%
%TO.N,N/C*%
X127508000Y-166624000D03*
%TO.P,U3,3*%
%TO.N,Net-(R3-Pad2)*%
X117978000Y-156464000D03*
%TO.P,U3,11*%
%TO.N,GND*%
X127508000Y-164084000D03*
%TO.P,U3,4*%
X117978000Y-159004000D03*
%TO.P,U3,12*%
%TO.N,Net-(U2-Pad7)*%
X127508000Y-161544000D03*
%TO.P,U3,5*%
%TO.N,Net-(D3-Pad1)*%
X117978000Y-161544000D03*
%TO.P,U3,13*%
%TO.N,Net-(Q2-Pad1)*%
X127508000Y-159004000D03*
%TO.P,U3,6*%
%TO.N,Net-(D1-Pad4)*%
X117978000Y-164084000D03*
%TO.P,U3,14*%
%TO.N,Net-(D1-Pad3)*%
X127508000Y-156464000D03*
%TO.P,U3,7*%
%TO.N,N/C*%
X117978000Y-166624000D03*
%TO.P,U3,15*%
%TO.N,Net-(Q1-Pad1)*%
X127508000Y-153924000D03*
%TO.P,U3,8*%
%TO.N,N/C*%
X117978000Y-169164000D03*
%TO.P,U3,16*%
%TO.N,Net-(D1-Pad4)*%
X127508000Y-151384000D03*
%TD*%
%TO.P,D3,2*%
%TO.N,Net-(D1-Pad4)*%
%TA.AperFunction,SMDPad,CuDef*%
G36*
G01*
X131266250Y-151012500D02*
X130353750Y-151012500D01*
G75*
G02*
X130110000Y-150768750I0J243750D01*
G01*
X130110000Y-150281250D01*
G75*
G02*
X130353750Y-150037500I243750J0D01*
G01*
X131266250Y-150037500D01*
G75*
G02*
X131510000Y-150281250I0J-243750D01*
G01*
X131510000Y-150768750D01*
G75*
G02*
X131266250Y-151012500I-243750J0D01*
G01*
G37*
%TD.AperFunction*%
%TO.P,D3,1*%
%TO.N,Net-(D3-Pad1)*%
%TA.AperFunction,SMDPad,CuDef*%
G36*
G01*
X131266250Y-152887500D02*
X130353750Y-152887500D01*
G75*
G02*
X130110000Y-152643750I0J243750D01*
G01*
X130110000Y-152156250D01*
G75*
G02*
X130353750Y-151912500I243750J0D01*
G01*
X131266250Y-151912500D01*
G75*
G02*
X131510000Y-152156250I0J-243750D01*
G01*
X131510000Y-152643750D01*
G75*
G02*
X131266250Y-152887500I-243750J0D01*
G01*
G37*
%TD.AperFunction*%
%TD*%
%TO.P,U2,8*%
%TO.N,+5V*%
%TA.AperFunction,SMDPad,CuDef*%
G36*
G01*
X154597000Y-163218000D02*
X154597000Y-162918000D01*
G75*
G02*
X154747000Y-162768000I150000J0D01*
G01*
X156397000Y-162768000D01*
G75*
G02*
X156547000Y-162918000I0J-150000D01*
G01*
X156547000Y-163218000D01*
G75*
G02*
X156397000Y-163368000I-150000J0D01*
G01*
X154747000Y-163368000D01*
G75*
G02*
X154597000Y-163218000I0J150000D01*
G01*
G37*
%TD.AperFunction*%
%TO.P,U2,7*%
%TO.N,Net-(U2-Pad7)*%
%TA.AperFunction,SMDPad,CuDef*%
G36*
G01*
X154597000Y-164488000D02*
X154597000Y-164188000D01*
G75*
G02*
X154747000Y-164038000I150000J0D01*
G01*
X156397000Y-164038000D01*
G75*
G02*
X156547000Y-164188000I0J-150000D01*
G01*
X156547000Y-164488000D01*
G75*
G02*
X156397000Y-164638000I-150000J0D01*
G01*
X154747000Y-164638000D01*
G75*
G02*
X154597000Y-164488000I0J150000D01*
G01*
G37*
%TD.AperFunction*%
%TO.P,U2,6*%
%TO.N,Net-(R2-Pad1)*%
%TA.AperFunction,SMDPad,CuDef*%
G36*
G01*
X154597000Y-165758000D02*
X154597000Y-165458000D01*
G75*
G02*
X154747000Y-165308000I150000J0D01*
G01*
X156397000Y-165308000D01*
G75*
G02*
X156547000Y-165458000I0J-150000D01*
G01*
X156547000Y-165758000D01*
G75*
G02*
X156397000Y-165908000I-150000J0D01*
G01*
X154747000Y-165908000D01*
G75*
G02*
X154597000Y-165758000I0J150000D01*
G01*
G37*
%TD.AperFunction*%
%TO.P,U2,5*%
%TO.N,Net-(J3-Pad2)*%
%TA.AperFunction,SMDPad,CuDef*%
G36*
G01*
X154597000Y-167028000D02*
X154597000Y-166728000D01*
G75*
G02*
X154747000Y-166578000I150000J0D01*
G01*
X156397000Y-166578000D01*
G75*
G02*
X156547000Y-166728000I0J-150000D01*
G01*
X156547000Y-167028000D01*
G75*
G02*
X156397000Y-167178000I-150000J0D01*
G01*
X154747000Y-167178000D01*
G75*
G02*
X154597000Y-167028000I0J150000D01*
G01*
G37*
%TD.AperFunction*%
%TO.P,U2,4*%
%TO.N,GND*%
%TA.AperFunction,SMDPad,CuDef*%
G36*
G01*
X149647000Y-167028000D02*
X149647000Y-166728000D01*
G75*
G02*
X149797000Y-166578000I150000J0D01*
G01*
X151447000Y-166578000D01*
G75*
G02*
X151597000Y-166728000I0J-150000D01*
G01*
X151597000Y-167028000D01*
G75*
G02*
X151447000Y-167178000I-150000J0D01*
G01*
X149797000Y-167178000D01*
G75*
G02*
X149647000Y-167028000I0J150000D01*
G01*
G37*
%TD.AperFunction*%
%TO.P,U2,3*%
%TO.N,Net-(RV1-Pad2)*%
%TA.AperFunction,SMDPad,CuDef*%
G36*
G01*
X149647000Y-165758000D02*
X149647000Y-165458000D01*
G75*
G02*
X149797000Y-165308000I150000J0D01*
G01*
X151447000Y-165308000D01*
G75*
G02*
X151597000Y-165458000I0J-150000D01*
G01*
X151597000Y-165758000D01*
G75*
G02*
X151447000Y-165908000I-150000J0D01*
G01*
X149797000Y-165908000D01*
G75*
G02*
X149647000Y-165758000I0J150000D01*
G01*
G37*
%TD.AperFunction*%
%TO.P,U2,2*%
%TO.N,Net-(J3-Pad4)*%
%TA.AperFunction,SMDPad,CuDef*%
G36*
G01*
X149647000Y-164488000D02*
X149647000Y-164188000D01*
G75*
G02*
X149797000Y-164038000I150000J0D01*
G01*
X151447000Y-164038000D01*
G75*
G02*
X151597000Y-164188000I0J-150000D01*
G01*
X151597000Y-164488000D01*
G75*
G02*
X151447000Y-164638000I-150000J0D01*
G01*
X149797000Y-164638000D01*
G75*
G02*
X149647000Y-164488000I0J150000D01*
G01*
G37*
%TD.AperFunction*%
%TO.P,U2,1*%
%TO.N,Net-(R1-Pad1)*%
%TA.AperFunction,SMDPad,CuDef*%
G36*
G01*
X149647000Y-163218000D02*
X149647000Y-162918000D01*
G75*
G02*
X149797000Y-162768000I150000J0D01*
G01*
X151447000Y-162768000D01*
G75*
G02*
X151597000Y-162918000I0J-150000D01*
G01*
X151597000Y-163218000D01*
G75*
G02*
X151447000Y-163368000I-150000J0D01*
G01*
X149797000Y-163368000D01*
G75*
G02*
X149647000Y-163218000I0J150000D01*
G01*
G37*
%TD.AperFunction*%
%TD*%
D16*
%TO.P,D2,4*%
%TO.N,Net-(D1-Pad4)*%
X149833000Y-153670000D03*
%TO.P,D2,3*%
%TO.N,Net-(D2-Pad3)*%
X149833000Y-151130000D03*
%TO.P,D2,2*%
%TO.N,Net-(D2-Pad1)*%
X155983000Y-151130000D03*
%TO.P,D2,1*%
X155983000Y-153670000D03*
%TD*%
D17*
%TO.P,C2,2*%
%TO.N,GND*%
X136930000Y-162000000D03*
%TO.P,C2,1*%
%TO.N,+5V*%
X138430000Y-162000000D03*
%TD*%
%TO.P,C1,2*%
%TO.N,GND*%
X131572000Y-168632000D03*
%TO.P,C1,1*%
%TO.N,Net-(C1-Pad1)*%
X131572000Y-167132000D03*
%TD*%
D18*
%TO.P,U1,1*%
%TO.N,+5V*%
X138176000Y-167386000D03*
D19*
%TO.P,U1,3*%
%TO.N,Net-(C1-Pad1)*%
X135636000Y-167386000D03*
%TO.P,U1,2*%
%TO.N,GND*%
X136906000Y-167386000D03*
%TD*%
D16*
%TO.P,D1,4*%
%TO.N,Net-(D1-Pad4)*%
X149806000Y-159512000D03*
%TO.P,D1,3*%
%TO.N,Net-(D1-Pad3)*%
X149806000Y-156972000D03*
%TO.P,D1,2*%
%TO.N,GND*%
X155956000Y-156972000D03*
%TO.P,D1,1*%
%TO.N,Net-(C1-Pad1)*%
X155956000Y-159512000D03*
%TD*%
D20*
%TO.P,J1,1*%
%TO.N,Net-(D1-Pad4)*%
X112000000Y-162560000D03*
D21*
%TO.P,J1,2*%
%TO.N,Net-(D1-Pad3)*%
X112000000Y-167640000D03*
%TD*%
%TO.P,J2,2*%
%TO.N,Net-(D4-Pad1)*%
X112000000Y-157536000D03*
D20*
%TO.P,J2,1*%
%TO.N,Net-(D5-Pad1)*%
X112000000Y-152456000D03*
%TD*%
%TO.P,R1,1*%
%TO.N,Net-(R1-Pad1)*%
%TA.AperFunction,SMDPad,CuDef*%
G36*
G01*
X151875000Y-169450001D02*
X151875000Y-168549999D01*
G75*
G02*
X152124999Y-168300000I249999J0D01*
G01*
X152775001Y-168300000D01*
G75*
G02*
X153025000Y-168549999I0J-249999D01*
G01*
X153025000Y-169450001D01*
G75*
G02*
X152775001Y-169700000I-249999J0D01*
G01*
X152124999Y-169700000D01*
G75*
G02*
X151875000Y-169450001I0J249999D01*
G01*
G37*
%TD.AperFunction*%
%TO.P,R1,2*%
%TO.N,+5V*%
%TA.AperFunction,SMDPad,CuDef*%
G36*
G01*
X153925000Y-169450001D02*
X153925000Y-168549999D01*
G75*
G02*
X154174999Y-168300000I249999J0D01*
G01*
X154825001Y-168300000D01*
G75*
G02*
X155075000Y-168549999I0J-249999D01*
G01*
X155075000Y-169450001D01*
G75*
G02*
X154825001Y-169700000I-249999J0D01*
G01*
X154174999Y-169700000D01*
G75*
G02*
X153925000Y-169450001I0J249999D01*
G01*
G37*
%TD.AperFunction*%
%TD*%
%TO.P,R2,1*%
%TO.N,Net-(R2-Pad1)*%
%TA.AperFunction,SMDPad,CuDef*%
G36*
G01*
X133163000Y-162617999D02*
X133163000Y-163518001D01*
G75*
G02*
X132913001Y-163768000I-249999J0D01*
G01*
X132262999Y-163768000D01*
G75*
G02*
X132013000Y-163518001I0J249999D01*
G01*
X132013000Y-162617999D01*
G75*
G02*
X132262999Y-162368000I249999J0D01*
G01*
X132913001Y-162368000D01*
G75*
G02*
X133163000Y-162617999I0J-249999D01*
G01*
G37*
%TD.AperFunction*%
%TO.P,R2,2*%
%TO.N,Net-(R2-Pad2)*%
%TA.AperFunction,SMDPad,CuDef*%
G36*
G01*
X131113000Y-162617999D02*
X131113000Y-163518001D01*
G75*
G02*
X130863001Y-163768000I-249999J0D01*
G01*
X130212999Y-163768000D01*
G75*
G02*
X129963000Y-163518001I0J249999D01*
G01*
X129963000Y-162617999D01*
G75*
G02*
X130212999Y-162368000I249999J0D01*
G01*
X130863001Y-162368000D01*
G75*
G02*
X131113000Y-162617999I0J-249999D01*
G01*
G37*
%TD.AperFunction*%
%TD*%
%TO.P,R3,2*%
%TO.N,Net-(R3-Pad2)*%
%TA.AperFunction,SMDPad,CuDef*%
G36*
G01*
X131113000Y-160331999D02*
X131113000Y-161232001D01*
G75*
G02*
X130863001Y-161482000I-249999J0D01*
G01*
X130212999Y-161482000D01*
G75*
G02*
X129963000Y-161232001I0J249999D01*
G01*
X129963000Y-160331999D01*
G75*
G02*
X130212999Y-160082000I249999J0D01*
G01*
X130863001Y-160082000D01*
G75*
G02*
X131113000Y-160331999I0J-249999D01*
G01*
G37*
%TD.AperFunction*%
%TO.P,R3,1*%
%TO.N,Net-(R2-Pad1)*%
%TA.AperFunction,SMDPad,CuDef*%
G36*
G01*
X133163000Y-160331999D02*
X133163000Y-161232001D01*
G75*
G02*
X132913001Y-161482000I-249999J0D01*
G01*
X132262999Y-161482000D01*
G75*
G02*
X132013000Y-161232001I0J249999D01*
G01*
X132013000Y-160331999D01*
G75*
G02*
X132262999Y-160082000I249999J0D01*
G01*
X132913001Y-160082000D01*
G75*
G02*
X133163000Y-160331999I0J-249999D01*
G01*
G37*
%TD.AperFunction*%
%TD*%
%TO.P,R4,2*%
%TO.N,Net-(D2-Pad3)*%
%TA.AperFunction,SMDPad,CuDef*%
G36*
G01*
X133546001Y-151179000D02*
X132645999Y-151179000D01*
G75*
G02*
X132396000Y-150929001I0J249999D01*
G01*
X132396000Y-150278999D01*
G75*
G02*
X132645999Y-150029000I249999J0D01*
G01*
X133546001Y-150029000D01*
G75*
G02*
X133796000Y-150278999I0J-249999D01*
G01*
X133796000Y-150929001D01*
G75*
G02*
X133546001Y-151179000I-249999J0D01*
G01*
G37*
%TD.AperFunction*%
%TO.P,R4,1*%
%TO.N,Net-(D3-Pad1)*%
%TA.AperFunction,SMDPad,CuDef*%
G36*
G01*
X133546001Y-153229000D02*
X132645999Y-153229000D01*
G75*
G02*
X132396000Y-152979001I0J249999D01*
G01*
X132396000Y-152328999D01*
G75*
G02*
X132645999Y-152079000I249999J0D01*
G01*
X133546001Y-152079000D01*
G75*
G02*
X133796000Y-152328999I0J-249999D01*
G01*
X133796000Y-152979001D01*
G75*
G02*
X133546001Y-153229000I-249999J0D01*
G01*
G37*
%TD.AperFunction*%
%TD*%
%TO.P,R5,2*%
%TO.N,Net-(Q1-Pad1)*%
%TA.AperFunction,SMDPad,CuDef*%
G36*
G01*
X131260001Y-154989000D02*
X130359999Y-154989000D01*
G75*
G02*
X130110000Y-154739001I0J249999D01*
G01*
X130110000Y-154088999D01*
G75*
G02*
X130359999Y-153839000I249999J0D01*
G01*
X131260001Y-153839000D01*
G75*
G02*
X131510000Y-154088999I0J-249999D01*
G01*
X131510000Y-154739001D01*
G75*
G02*
X131260001Y-154989000I-249999J0D01*
G01*
G37*
%TD.AperFunction*%
%TO.P,R5,1*%
%TO.N,Net-(D1-Pad3)*%
%TA.AperFunction,SMDPad,CuDef*%
G36*
G01*
X131260001Y-157039000D02*
X130359999Y-157039000D01*
G75*
G02*
X130110000Y-156789001I0J249999D01*
G01*
X130110000Y-156138999D01*
G75*
G02*
X130359999Y-155889000I249999J0D01*
G01*
X131260001Y-155889000D01*
G75*
G02*
X131510000Y-156138999I0J-249999D01*
G01*
X131510000Y-156789001D01*
G75*
G02*
X131260001Y-157039000I-249999J0D01*
G01*
G37*
%TD.AperFunction*%
%TD*%
%TO.P,R6,1*%
%TO.N,Net-(Q2-Pad1)*%
%TA.AperFunction,SMDPad,CuDef*%
G36*
G01*
X129981000Y-158946001D02*
X129981000Y-158045999D01*
G75*
G02*
X130230999Y-157796000I249999J0D01*
G01*
X130881001Y-157796000D01*
G75*
G02*
X131131000Y-158045999I0J-249999D01*
G01*
X131131000Y-158946001D01*
G75*
G02*
X130881001Y-159196000I-249999J0D01*
G01*
X130230999Y-159196000D01*
G75*
G02*
X129981000Y-158946001I0J249999D01*
G01*
G37*
%TD.AperFunction*%
%TO.P,R6,2*%
%TO.N,Net-(D1-Pad4)*%
%TA.AperFunction,SMDPad,CuDef*%
G36*
G01*
X132031000Y-158946001D02*
X132031000Y-158045999D01*
G75*
G02*
X132280999Y-157796000I249999J0D01*
G01*
X132931001Y-157796000D01*
G75*
G02*
X133181000Y-158045999I0J-249999D01*
G01*
X133181000Y-158946001D01*
G75*
G02*
X132931001Y-159196000I-249999J0D01*
G01*
X132280999Y-159196000D01*
G75*
G02*
X132031000Y-158946001I0J249999D01*
G01*
G37*
%TD.AperFunction*%
%TD*%
D22*
%TO.N,Net-(D1-Pad4)*%
X149860000Y-161290000D03*
X124460000Y-151892000D03*
X142621000Y-150177500D03*
%TO.N,Net-(D1-Pad3)*%
X124206000Y-159258000D03*
X138366500Y-158115000D03*
X143028500Y-156337000D03*
%TO.N,Net-(R1-Pad1)*%
X148844000Y-162052000D03*
X149860000Y-168910000D03*
%TO.N,GND*%
X139954000Y-160528000D03*
X152908000Y-167132000D03*
X148590000Y-169164000D03*
X121920000Y-156210000D03*
X121158000Y-162560000D03*
X121412000Y-168402000D03*
X152908000Y-157734000D03*
X121158000Y-153924000D03*
X147256500Y-158242000D03*
X139954000Y-163576000D03*
%TO.N,Net-(J3-Pad2)*%
X153225500Y-165989000D03*
%TO.N,+5V*%
X155500000Y-162000000D03*
%TO.N,Net-(D4-Pad1)*%
X121293501Y-155248999D03*
%TO.N,Net-(D5-Pad1)*%
X141859000Y-151130000D03*
%TO.N,Net-(J3-Pad4)*%
X146621500Y-162560000D03*
%TD*%
D23*
%TO.N,Net-(C1-Pad1)*%
X135382000Y-167132000D02*
X135636000Y-167386000D01*
X131572000Y-167132000D02*
X135382000Y-167132000D01*
X135636000Y-168386000D02*
X135636000Y-167386000D01*
X154613170Y-170475020D02*
X137725020Y-170475020D01*
X137725020Y-170475020D02*
X135636000Y-168386000D01*
X157450009Y-167638181D02*
X154613170Y-170475020D01*
X157450009Y-161006009D02*
X157450009Y-167638181D01*
X155956000Y-159512000D02*
X157450009Y-161006009D01*
%TO.N,Net-(D1-Pad4)*%
X112000000Y-162560000D02*
X114046000Y-162560000D01*
X115570000Y-164084000D02*
X117978000Y-164084000D01*
X114046000Y-162560000D02*
X115570000Y-164084000D01*
X128367000Y-150525000D02*
X127508000Y-151384000D01*
X130810000Y-150525000D02*
X128367000Y-150525000D01*
X149806000Y-159512000D02*
X151130000Y-158188000D01*
X151130000Y-154967000D02*
X149833000Y-153670000D01*
X151130000Y-158188000D02*
X151130000Y-154967000D01*
X149860000Y-159566000D02*
X149806000Y-159512000D01*
X149860000Y-161290000D02*
X149860000Y-159566000D01*
X127508000Y-151384000D02*
X124968000Y-151384000D01*
X124968000Y-151384000D02*
X124460000Y-151892000D01*
X136650590Y-158496000D02*
X132606000Y-158496000D01*
X147774000Y-157480000D02*
X144026498Y-157480000D01*
X142199518Y-159306980D02*
X137461570Y-159306980D01*
X137461570Y-159306980D02*
X136650590Y-158496000D01*
X149806000Y-159512000D02*
X147774000Y-157480000D01*
X144026498Y-157480000D02*
X142199518Y-159306980D01*
X149833000Y-152729498D02*
X147027002Y-149923500D01*
X149833000Y-153670000D02*
X149833000Y-152729498D01*
X147027002Y-149923500D02*
X142875000Y-149923500D01*
X142875000Y-149923500D02*
X142621000Y-150177500D01*
%TO.N,Net-(D1-Pad3)*%
X130810000Y-156464000D02*
X127508000Y-156464000D01*
X127508000Y-156464000D02*
X124714000Y-159258000D01*
X124714000Y-159258000D02*
X124206000Y-159258000D01*
X130840000Y-156434000D02*
X130810000Y-156464000D01*
X135636000Y-156751500D02*
X130840000Y-156751500D01*
X139620999Y-156101499D02*
X137776501Y-156101499D01*
X140396000Y-156876500D02*
X139620999Y-156101499D01*
X137126500Y-156751500D02*
X135636000Y-156751500D01*
X137776501Y-156101499D02*
X137126500Y-156751500D01*
X135636000Y-156751500D02*
X136368000Y-156751500D01*
X136336000Y-156751500D02*
X137699500Y-158115000D01*
X135636000Y-156751500D02*
X136336000Y-156751500D01*
X137699500Y-158115000D02*
X138366500Y-158115000D01*
X149171000Y-156337000D02*
X149806000Y-156972000D01*
X143028500Y-156337000D02*
X149171000Y-156337000D01*
%TO.N,Net-(D2-Pad3)*%
X134299990Y-149400010D02*
X133096000Y-150604000D01*
X148892010Y-149400010D02*
X134299990Y-149400010D01*
X149833000Y-151130000D02*
X149833000Y-150341000D01*
X149833000Y-150341000D02*
X148892010Y-149400010D01*
X133743000Y-150604000D02*
X133096000Y-150604000D01*
X135636000Y-152497000D02*
X133743000Y-150604000D01*
X135636000Y-152497000D02*
X136876000Y-151257000D01*
X136876000Y-151257000D02*
X138620500Y-151257000D01*
X138620500Y-151257000D02*
X138792501Y-151429001D01*
X139232001Y-151429001D02*
X140457000Y-152654000D01*
X138792501Y-151429001D02*
X139232001Y-151429001D01*
%TO.N,Net-(R1-Pad1)*%
X152360000Y-168910000D02*
X152450000Y-169000000D01*
X149860000Y-168910000D02*
X152360000Y-168910000D01*
X149606000Y-162052000D02*
X150622000Y-163068000D01*
X148844000Y-162052000D02*
X149606000Y-162052000D01*
%TO.N,Net-(R2-Pad1)*%
X147593001Y-165438001D02*
X138724413Y-165438001D01*
X138724413Y-165438001D02*
X134068412Y-160782000D01*
X148048012Y-164982990D02*
X147593001Y-165438001D01*
X134068412Y-160782000D02*
X132588000Y-160782000D01*
X154946990Y-164982990D02*
X148048012Y-164982990D01*
X155572000Y-165608000D02*
X154946990Y-164982990D01*
X132588000Y-160782000D02*
X132588000Y-163068000D01*
%TO.N,Net-(R2-Pad2)*%
X116717999Y-157679001D02*
X115824000Y-156785002D01*
X119128003Y-157679001D02*
X116717999Y-157679001D01*
X124208003Y-162759001D02*
X119128003Y-157679001D01*
X130538000Y-163068000D02*
X130229001Y-162759001D01*
X130229001Y-162759001D02*
X124208003Y-162759001D01*
X115824000Y-153538000D02*
X117978000Y-151384000D01*
X115824000Y-156785002D02*
X115824000Y-153538000D01*
%TO.N,Net-(R3-Pad2)*%
X118549412Y-156464000D02*
X117978000Y-156464000D01*
X122414411Y-160328999D02*
X118549412Y-156464000D01*
X130538000Y-160782000D02*
X130084999Y-160328999D01*
X130084999Y-160328999D02*
X122414411Y-160328999D01*
%TO.N,Net-(U2-Pad7)*%
X154686000Y-164338000D02*
X155572000Y-164338000D01*
X153538768Y-163190768D02*
X154686000Y-164338000D01*
X152146000Y-163190768D02*
X153538768Y-163190768D01*
X149412008Y-163693010D02*
X151643758Y-163693010D01*
X147155999Y-161437001D02*
X149412008Y-163693010D01*
X151643758Y-163693010D02*
X152146000Y-163190768D01*
X131438010Y-160343800D02*
X132024820Y-159756990D01*
X132024820Y-159756990D02*
X140920988Y-159756990D01*
X142600999Y-161437001D02*
X147155999Y-161437001D01*
X140920988Y-159756990D02*
X142600999Y-161437001D01*
X127508000Y-161544000D02*
X127771010Y-161807010D01*
X131438010Y-161470180D02*
X131438010Y-160343800D01*
X127771010Y-161807010D02*
X131101180Y-161807010D01*
X131101180Y-161807010D02*
X131438010Y-161470180D01*
%TO.N,GND*%
X148590000Y-168910000D02*
X148590000Y-169164000D01*
X150622000Y-166878000D02*
X148590000Y-168910000D01*
X117978000Y-159004000D02*
X118618000Y-159004000D01*
X117978000Y-159004000D02*
X118364000Y-159004000D01*
X123444000Y-164084000D02*
X127508000Y-164084000D01*
X118364000Y-159004000D02*
X123444000Y-164084000D01*
X117978000Y-153924000D02*
X121158000Y-153924000D01*
%TO.N,Net-(D2-Pad1)*%
X155983000Y-153670000D02*
X155983000Y-151130000D01*
%TO.N,Net-(D3-Pad1)*%
X132842000Y-152400000D02*
X133096000Y-152654000D01*
X130810000Y-152400000D02*
X132842000Y-152400000D01*
X115373990Y-158939990D02*
X117978000Y-161544000D01*
X115373990Y-151513008D02*
X115373990Y-158939990D01*
X116717999Y-150168999D02*
X115373990Y-151513008D01*
X119238001Y-150168999D02*
X116717999Y-150168999D01*
X121778001Y-152708999D02*
X119238001Y-150168999D01*
X130501001Y-152708999D02*
X121778001Y-152708999D01*
X130810000Y-152400000D02*
X130501001Y-152708999D01*
%TO.N,Net-(J3-Pad2)*%
X154114500Y-166878000D02*
X155572000Y-166878000D01*
X153225500Y-165989000D02*
X154114500Y-166878000D01*
%TO.N,Net-(RV1-Pad2)*%
X141558000Y-166838000D02*
X147162000Y-166838000D01*
X148392000Y-165608000D02*
X150622000Y-165608000D01*
X147162000Y-166838000D02*
X148392000Y-165608000D01*
%TO.N,+5V*%
X155572000Y-163068000D02*
X155572000Y-162072000D01*
X155572000Y-162072000D02*
X155500000Y-162000000D01*
X156547000Y-163068000D02*
X157000000Y-163521000D01*
X155572000Y-163068000D02*
X156547000Y-163068000D01*
X157000000Y-163521000D02*
X157000000Y-167096768D01*
X155096768Y-169000000D02*
X154500000Y-169000000D01*
X157000000Y-167096768D02*
X155096768Y-169000000D01*
X147245010Y-170025010D02*
X146558000Y-169338000D01*
X153474990Y-170025010D02*
X147245010Y-170025010D01*
X154500000Y-169000000D02*
X153474990Y-170025010D01*
%TO.N,Net-(Q1-Pad1)*%
X127998000Y-154414000D02*
X127508000Y-153924000D01*
X130810000Y-154414000D02*
X127998000Y-154414000D01*
X140988999Y-157651501D02*
X139271001Y-157651501D01*
X130810000Y-154414000D02*
X131160010Y-154063990D01*
X131160010Y-154063990D02*
X140093990Y-154063990D01*
X139271001Y-157651501D02*
X138496000Y-156876500D01*
X140093990Y-154063990D02*
X141121001Y-155091001D01*
X141121001Y-155091001D02*
X141121001Y-157519499D01*
X141121001Y-157519499D02*
X140988999Y-157651501D01*
%TO.N,Net-(Q2-Pad1)*%
X128016000Y-158496000D02*
X127508000Y-159004000D01*
X130556000Y-158496000D02*
X128016000Y-158496000D01*
X139332001Y-153429001D02*
X138557000Y-152654000D01*
X141117030Y-158856970D02*
X142303500Y-157670500D01*
X137647970Y-158856970D02*
X141117030Y-158856970D01*
X141464999Y-153429001D02*
X139332001Y-153429001D01*
X142303500Y-157670500D02*
X142303500Y-154267502D01*
X131581010Y-157470990D02*
X133169180Y-157470990D01*
X142303500Y-154267502D02*
X141464999Y-153429001D01*
X130556000Y-158496000D02*
X131581010Y-157470990D01*
X133169180Y-157470990D02*
X133744180Y-158045990D01*
X133744180Y-158045990D02*
X136836990Y-158045990D01*
X136836990Y-158045990D02*
X137647970Y-158856970D01*
%TO.N,Net-(D4-Pad1)*%
X139446000Y-154876500D02*
X135636000Y-154876500D01*
X128768001Y-155248999D02*
X121293501Y-155248999D01*
X135636000Y-154876500D02*
X135150473Y-155362027D01*
X128881029Y-155362027D02*
X128768001Y-155248999D01*
X135150473Y-155362027D02*
X128881029Y-155362027D01*
%TO.N,Net-(D5-Pad1)*%
X135668000Y-150654000D02*
X135636000Y-150622000D01*
X139507000Y-150654000D02*
X135668000Y-150654000D01*
X135636000Y-150622000D02*
X141351000Y-150622000D01*
X141351000Y-150622000D02*
X141859000Y-151130000D01*
%TO.N,Net-(J3-Pad4)*%
X148693002Y-164338000D02*
X146915002Y-162560000D01*
X150622000Y-164338000D02*
X148693002Y-164338000D01*
X146915002Y-162560000D02*
X146621500Y-162560000D01*
%TD*%
D24*
%TO.N,GND*%
G36*
X123644203Y-163270003D02*
G01*
X123668002Y-163299002D01*
X123697000Y-163322800D01*
X123783726Y-163393975D01*
X123907092Y-163459916D01*
X123915756Y-163464547D01*
X124059017Y-163508004D01*
X124170670Y-163519001D01*
X124170680Y-163519001D01*
X124208003Y-163522677D01*
X124245326Y-163519001D01*
X125871580Y-163519001D01*
X125873000Y-163798250D01*
X126031750Y-163957000D01*
X127381000Y-163957000D01*
X127381000Y-163937000D01*
X127635000Y-163937000D01*
X127635000Y-163957000D01*
X128984250Y-163957000D01*
X129143000Y-163798250D01*
X129144420Y-163519001D01*
X129325026Y-163519001D01*
X129341992Y-163691255D01*
X129392528Y-163857851D01*
X129474595Y-164011387D01*
X129585038Y-164145962D01*
X129719613Y-164256405D01*
X129873149Y-164338472D01*
X130039745Y-164389008D01*
X130212999Y-164406072D01*
X130863001Y-164406072D01*
X131036255Y-164389008D01*
X131202851Y-164338472D01*
X131356387Y-164256405D01*
X131490962Y-164145962D01*
X131563000Y-164058184D01*
X131635038Y-164145962D01*
X131769613Y-164256405D01*
X131923149Y-164338472D01*
X132089745Y-164389008D01*
X132262999Y-164406072D01*
X132913001Y-164406072D01*
X133086255Y-164389008D01*
X133252851Y-164338472D01*
X133406387Y-164256405D01*
X133540962Y-164145962D01*
X133651405Y-164011387D01*
X133733472Y-163857851D01*
X133784008Y-163691255D01*
X133801072Y-163518001D01*
X133801072Y-162617999D01*
X133784008Y-162444745D01*
X133733472Y-162278149D01*
X133651405Y-162124613D01*
X133540962Y-161990038D01*
X133461713Y-161925000D01*
X133540962Y-161859962D01*
X133651405Y-161725387D01*
X133733472Y-161571851D01*
X133742527Y-161542000D01*
X133753611Y-161542000D01*
X138160614Y-165949004D01*
X138184412Y-165978002D01*
X138208692Y-165997928D01*
X137651000Y-165997928D01*
X137526518Y-166010188D01*
X137406820Y-166046498D01*
X137341943Y-166081176D01*
X137273337Y-166050728D01*
X137211810Y-166042036D01*
X137033000Y-166167837D01*
X137033000Y-166485765D01*
X137025188Y-166511518D01*
X137012928Y-166636000D01*
X137012928Y-167533000D01*
X136796000Y-167533000D01*
X136796000Y-167104022D01*
X136779215Y-166933601D01*
X136779000Y-166932892D01*
X136779000Y-166167837D01*
X136600190Y-166042036D01*
X136538663Y-166050728D01*
X136329118Y-166143725D01*
X136270669Y-166184929D01*
X136082060Y-166084115D01*
X135863400Y-166017785D01*
X135636000Y-165995388D01*
X135408601Y-166017785D01*
X135189941Y-166084115D01*
X134988422Y-166191829D01*
X134811789Y-166336788D01*
X134782891Y-166372000D01*
X132549506Y-166372000D01*
X132531287Y-166344733D01*
X132359267Y-166172713D01*
X132156992Y-166037557D01*
X131932236Y-165944460D01*
X131693637Y-165897000D01*
X131450363Y-165897000D01*
X131211764Y-165944460D01*
X130987008Y-166037557D01*
X130784733Y-166172713D01*
X130612713Y-166344733D01*
X130477557Y-166547008D01*
X130384460Y-166771764D01*
X130337000Y-167010363D01*
X130337000Y-167253637D01*
X130384460Y-167492236D01*
X130477557Y-167716992D01*
X130612713Y-167919267D01*
X130666979Y-167973533D01*
X130498652Y-168009148D01*
X130397763Y-168230516D01*
X130342000Y-168467313D01*
X130333505Y-168710438D01*
X130372605Y-168950549D01*
X130457798Y-169178418D01*
X130498652Y-169254852D01*
X130722236Y-169302159D01*
X131392395Y-168632000D01*
X131378253Y-168617858D01*
X131557858Y-168438253D01*
X131572000Y-168452395D01*
X131586143Y-168438253D01*
X131765748Y-168617858D01*
X131751605Y-168632000D01*
X132421764Y-169302159D01*
X132645348Y-169254852D01*
X132746237Y-169033484D01*
X132802000Y-168796687D01*
X132810495Y-168553562D01*
X132771395Y-168313451D01*
X132686202Y-168085582D01*
X132645348Y-168009148D01*
X132477021Y-167973533D01*
X132531287Y-167919267D01*
X132549506Y-167892000D01*
X134509045Y-167892000D01*
X134559115Y-168057059D01*
X134666829Y-168258578D01*
X134811788Y-168435212D01*
X134882920Y-168493588D01*
X134886997Y-168534985D01*
X134922281Y-168651302D01*
X134930454Y-168678246D01*
X135001026Y-168810276D01*
X135002117Y-168811605D01*
X135095999Y-168926001D01*
X135125002Y-168949804D01*
X136465198Y-170290000D01*
X129099983Y-170290000D01*
X129133812Y-170178482D01*
X129146072Y-170054000D01*
X129146072Y-169481764D01*
X130901841Y-169481764D01*
X130949148Y-169705348D01*
X131170516Y-169806237D01*
X131407313Y-169862000D01*
X131650438Y-169870495D01*
X131890549Y-169831395D01*
X132118418Y-169746202D01*
X132194852Y-169705348D01*
X132242159Y-169481764D01*
X131572000Y-168811605D01*
X130901841Y-169481764D01*
X129146072Y-169481764D01*
X129146072Y-168274000D01*
X129133812Y-168149518D01*
X129097502Y-168029820D01*
X129038537Y-167919506D01*
X129017605Y-167894000D01*
X129038537Y-167868494D01*
X129097502Y-167758180D01*
X129133812Y-167638482D01*
X129146072Y-167514000D01*
X129146072Y-165734000D01*
X129133812Y-165609518D01*
X129097502Y-165489820D01*
X129038537Y-165379506D01*
X129017605Y-165354000D01*
X129038537Y-165328494D01*
X129097502Y-165218180D01*
X129133812Y-165098482D01*
X129146072Y-164974000D01*
X129143000Y-164369750D01*
X128984250Y-164211000D01*
X127635000Y-164211000D01*
X127635000Y-164231000D01*
X127381000Y-164231000D01*
X127381000Y-164211000D01*
X126031750Y-164211000D01*
X125873000Y-164369750D01*
X125869928Y-164974000D01*
X125882188Y-165098482D01*
X125918498Y-165218180D01*
X125977463Y-165328494D01*
X125998395Y-165354000D01*
X125977463Y-165379506D01*
X125918498Y-165489820D01*
X125882188Y-165609518D01*
X125869928Y-165734000D01*
X125869928Y-167514000D01*
X125882188Y-167638482D01*
X125918498Y-167758180D01*
X125977463Y-167868494D01*
X125998395Y-167894000D01*
X125977463Y-167919506D01*
X125918498Y-168029820D01*
X125882188Y-168149518D01*
X125869928Y-168274000D01*
X125869928Y-170054000D01*
X125882188Y-170178482D01*
X125916017Y-170290000D01*
X119569983Y-170290000D01*
X119603812Y-170178482D01*
X119616072Y-170054000D01*
X119616072Y-168274000D01*
X119603812Y-168149518D01*
X119567502Y-168029820D01*
X119508537Y-167919506D01*
X119487605Y-167894000D01*
X119508537Y-167868494D01*
X119567502Y-167758180D01*
X119603812Y-167638482D01*
X119616072Y-167514000D01*
X119616072Y-165734000D01*
X119603812Y-165609518D01*
X119567502Y-165489820D01*
X119508537Y-165379506D01*
X119487605Y-165354000D01*
X119508537Y-165328494D01*
X119567502Y-165218180D01*
X119603812Y-165098482D01*
X119616072Y-164974000D01*
X119616072Y-163194000D01*
X119603812Y-163069518D01*
X119567502Y-162949820D01*
X119508537Y-162839506D01*
X119487605Y-162814000D01*
X119508537Y-162788494D01*
X119567502Y-162678180D01*
X119603812Y-162558482D01*
X119616072Y-162434000D01*
X119616072Y-160654000D01*
X119603812Y-160529518D01*
X119567502Y-160409820D01*
X119508537Y-160299506D01*
X119487605Y-160274000D01*
X119508537Y-160248494D01*
X119567502Y-160138180D01*
X119603812Y-160018482D01*
X119616072Y-159894000D01*
X119613000Y-159289750D01*
X119454252Y-159131002D01*
X119505203Y-159131002D01*
X123644203Y-163270003D01*
G37*
X123644203Y-163270003D02*
X123668002Y-163299002D01*
X123697000Y-163322800D01*
X123783726Y-163393975D01*
X123907092Y-163459916D01*
X123915756Y-163464547D01*
X124059017Y-163508004D01*
X124170670Y-163519001D01*
X124170680Y-163519001D01*
X124208003Y-163522677D01*
X124245326Y-163519001D01*
X125871580Y-163519001D01*
X125873000Y-163798250D01*
X126031750Y-163957000D01*
X127381000Y-163957000D01*
X127381000Y-163937000D01*
X127635000Y-163937000D01*
X127635000Y-163957000D01*
X128984250Y-163957000D01*
X129143000Y-163798250D01*
X129144420Y-163519001D01*
X129325026Y-163519001D01*
X129341992Y-163691255D01*
X129392528Y-163857851D01*
X129474595Y-164011387D01*
X129585038Y-164145962D01*
X129719613Y-164256405D01*
X129873149Y-164338472D01*
X130039745Y-164389008D01*
X130212999Y-164406072D01*
X130863001Y-164406072D01*
X131036255Y-164389008D01*
X131202851Y-164338472D01*
X131356387Y-164256405D01*
X131490962Y-164145962D01*
X131563000Y-164058184D01*
X131635038Y-164145962D01*
X131769613Y-164256405D01*
X131923149Y-164338472D01*
X132089745Y-164389008D01*
X132262999Y-164406072D01*
X132913001Y-164406072D01*
X133086255Y-164389008D01*
X133252851Y-164338472D01*
X133406387Y-164256405D01*
X133540962Y-164145962D01*
X133651405Y-164011387D01*
X133733472Y-163857851D01*
X133784008Y-163691255D01*
X133801072Y-163518001D01*
X133801072Y-162617999D01*
X133784008Y-162444745D01*
X133733472Y-162278149D01*
X133651405Y-162124613D01*
X133540962Y-161990038D01*
X133461713Y-161925000D01*
X133540962Y-161859962D01*
X133651405Y-161725387D01*
X133733472Y-161571851D01*
X133742527Y-161542000D01*
X133753611Y-161542000D01*
X138160614Y-165949004D01*
X138184412Y-165978002D01*
X138208692Y-165997928D01*
X137651000Y-165997928D01*
X137526518Y-166010188D01*
X137406820Y-166046498D01*
X137341943Y-166081176D01*
X137273337Y-166050728D01*
X137211810Y-166042036D01*
X137033000Y-166167837D01*
X137033000Y-166485765D01*
X137025188Y-166511518D01*
X137012928Y-166636000D01*
X137012928Y-167533000D01*
X136796000Y-167533000D01*
X136796000Y-167104022D01*
X136779215Y-166933601D01*
X136779000Y-166932892D01*
X136779000Y-166167837D01*
X136600190Y-166042036D01*
X136538663Y-166050728D01*
X136329118Y-166143725D01*
X136270669Y-166184929D01*
X136082060Y-166084115D01*
X135863400Y-166017785D01*
X135636000Y-165995388D01*
X135408601Y-166017785D01*
X135189941Y-166084115D01*
X134988422Y-166191829D01*
X134811789Y-166336788D01*
X134782891Y-166372000D01*
X132549506Y-166372000D01*
X132531287Y-166344733D01*
X132359267Y-166172713D01*
X132156992Y-166037557D01*
X131932236Y-165944460D01*
X131693637Y-165897000D01*
X131450363Y-165897000D01*
X131211764Y-165944460D01*
X130987008Y-166037557D01*
X130784733Y-166172713D01*
X130612713Y-166344733D01*
X130477557Y-166547008D01*
X130384460Y-166771764D01*
X130337000Y-167010363D01*
X130337000Y-167253637D01*
X130384460Y-167492236D01*
X130477557Y-167716992D01*
X130612713Y-167919267D01*
X130666979Y-167973533D01*
X130498652Y-168009148D01*
X130397763Y-168230516D01*
X130342000Y-168467313D01*
X130333505Y-168710438D01*
X130372605Y-168950549D01*
X130457798Y-169178418D01*
X130498652Y-169254852D01*
X130722236Y-169302159D01*
X131392395Y-168632000D01*
X131378253Y-168617858D01*
X131557858Y-168438253D01*
X131572000Y-168452395D01*
X131586143Y-168438253D01*
X131765748Y-168617858D01*
X131751605Y-168632000D01*
X132421764Y-169302159D01*
X132645348Y-169254852D01*
X132746237Y-169033484D01*
X132802000Y-168796687D01*
X132810495Y-168553562D01*
X132771395Y-168313451D01*
X132686202Y-168085582D01*
X132645348Y-168009148D01*
X132477021Y-167973533D01*
X132531287Y-167919267D01*
X132549506Y-167892000D01*
X134509045Y-167892000D01*
X134559115Y-168057059D01*
X134666829Y-168258578D01*
X134811788Y-168435212D01*
X134882920Y-168493588D01*
X134886997Y-168534985D01*
X134922281Y-168651302D01*
X134930454Y-168678246D01*
X135001026Y-168810276D01*
X135002117Y-168811605D01*
X135095999Y-168926001D01*
X135125002Y-168949804D01*
X136465198Y-170290000D01*
X129099983Y-170290000D01*
X129133812Y-170178482D01*
X129146072Y-170054000D01*
X129146072Y-169481764D01*
X130901841Y-169481764D01*
X130949148Y-169705348D01*
X131170516Y-169806237D01*
X131407313Y-169862000D01*
X131650438Y-169870495D01*
X131890549Y-169831395D01*
X132118418Y-169746202D01*
X132194852Y-169705348D01*
X132242159Y-169481764D01*
X131572000Y-168811605D01*
X130901841Y-169481764D01*
X129146072Y-169481764D01*
X129146072Y-168274000D01*
X129133812Y-168149518D01*
X129097502Y-168029820D01*
X129038537Y-167919506D01*
X129017605Y-167894000D01*
X129038537Y-167868494D01*
X129097502Y-167758180D01*
X129133812Y-167638482D01*
X129146072Y-167514000D01*
X129146072Y-165734000D01*
X129133812Y-165609518D01*
X129097502Y-165489820D01*
X129038537Y-165379506D01*
X129017605Y-165354000D01*
X129038537Y-165328494D01*
X129097502Y-165218180D01*
X129133812Y-165098482D01*
X129146072Y-164974000D01*
X129143000Y-164369750D01*
X128984250Y-164211000D01*
X127635000Y-164211000D01*
X127635000Y-164231000D01*
X127381000Y-164231000D01*
X127381000Y-164211000D01*
X126031750Y-164211000D01*
X125873000Y-164369750D01*
X125869928Y-164974000D01*
X125882188Y-165098482D01*
X125918498Y-165218180D01*
X125977463Y-165328494D01*
X125998395Y-165354000D01*
X125977463Y-165379506D01*
X125918498Y-165489820D01*
X125882188Y-165609518D01*
X125869928Y-165734000D01*
X125869928Y-167514000D01*
X125882188Y-167638482D01*
X125918498Y-167758180D01*
X125977463Y-167868494D01*
X125998395Y-167894000D01*
X125977463Y-167919506D01*
X125918498Y-168029820D01*
X125882188Y-168149518D01*
X125869928Y-168274000D01*
X125869928Y-170054000D01*
X125882188Y-170178482D01*
X125916017Y-170290000D01*
X119569983Y-170290000D01*
X119603812Y-170178482D01*
X119616072Y-170054000D01*
X119616072Y-168274000D01*
X119603812Y-168149518D01*
X119567502Y-168029820D01*
X119508537Y-167919506D01*
X119487605Y-167894000D01*
X119508537Y-167868494D01*
X119567502Y-167758180D01*
X119603812Y-167638482D01*
X119616072Y-167514000D01*
X119616072Y-165734000D01*
X119603812Y-165609518D01*
X119567502Y-165489820D01*
X119508537Y-165379506D01*
X119487605Y-165354000D01*
X119508537Y-165328494D01*
X119567502Y-165218180D01*
X119603812Y-165098482D01*
X119616072Y-164974000D01*
X119616072Y-163194000D01*
X119603812Y-163069518D01*
X119567502Y-162949820D01*
X119508537Y-162839506D01*
X119487605Y-162814000D01*
X119508537Y-162788494D01*
X119567502Y-162678180D01*
X119603812Y-162558482D01*
X119616072Y-162434000D01*
X119616072Y-160654000D01*
X119603812Y-160529518D01*
X119567502Y-160409820D01*
X119508537Y-160299506D01*
X119487605Y-160274000D01*
X119508537Y-160248494D01*
X119567502Y-160138180D01*
X119603812Y-160018482D01*
X119616072Y-159894000D01*
X119613000Y-159289750D01*
X119454252Y-159131002D01*
X119505203Y-159131002D01*
X123644203Y-163270003D01*
G36*
X152190500Y-166090939D02*
G01*
X152230274Y-166290898D01*
X152308295Y-166479256D01*
X152421563Y-166648774D01*
X152565726Y-166792937D01*
X152735244Y-166906205D01*
X152923602Y-166984226D01*
X153123561Y-167024000D01*
X153185698Y-167024000D01*
X153550701Y-167389003D01*
X153574499Y-167418001D01*
X153690224Y-167512974D01*
X153822253Y-167583546D01*
X153965514Y-167627003D01*
X154077167Y-167638000D01*
X154077177Y-167638000D01*
X154114500Y-167641676D01*
X154151823Y-167638000D01*
X154254024Y-167638000D01*
X154283180Y-167661928D01*
X154174999Y-167661928D01*
X154001745Y-167678992D01*
X153835149Y-167729528D01*
X153681613Y-167811595D01*
X153547038Y-167922038D01*
X153475000Y-168009816D01*
X153402962Y-167922038D01*
X153268387Y-167811595D01*
X153114851Y-167729528D01*
X152948255Y-167678992D01*
X152775001Y-167661928D01*
X152124999Y-167661928D01*
X151992370Y-167674991D01*
X152048185Y-167629185D01*
X152127537Y-167532494D01*
X152186502Y-167422180D01*
X152222812Y-167302482D01*
X152235072Y-167178000D01*
X152232000Y-167163750D01*
X152073250Y-167005000D01*
X150749000Y-167005000D01*
X150749000Y-167654250D01*
X150907750Y-167813000D01*
X151597000Y-167816072D01*
X151630134Y-167812809D01*
X151497038Y-167922038D01*
X151386595Y-168056613D01*
X151336678Y-168150000D01*
X150563711Y-168150000D01*
X150519774Y-168106063D01*
X150350256Y-167992795D01*
X150161898Y-167914774D01*
X149961939Y-167875000D01*
X149758061Y-167875000D01*
X149558102Y-167914774D01*
X149369744Y-167992795D01*
X149200226Y-168106063D01*
X149056063Y-168250226D01*
X148942795Y-168419744D01*
X148864774Y-168608102D01*
X148825000Y-168808061D01*
X148825000Y-169011939D01*
X148864774Y-169211898D01*
X148886774Y-169265010D01*
X147968000Y-169265010D01*
X147968000Y-169199127D01*
X147913814Y-168926718D01*
X147807525Y-168670115D01*
X147653218Y-168439178D01*
X147456822Y-168242782D01*
X147225885Y-168088475D01*
X146969282Y-167982186D01*
X146696873Y-167928000D01*
X146419127Y-167928000D01*
X146146718Y-167982186D01*
X145890115Y-168088475D01*
X145659178Y-168242782D01*
X145462782Y-168439178D01*
X145308475Y-168670115D01*
X145202186Y-168926718D01*
X145148000Y-169199127D01*
X145148000Y-169476873D01*
X145195371Y-169715020D01*
X138039823Y-169715020D01*
X137033002Y-168708200D01*
X137033002Y-168604164D01*
X137211810Y-168729964D01*
X137273337Y-168721272D01*
X137341943Y-168690824D01*
X137406820Y-168725502D01*
X137526518Y-168761812D01*
X137651000Y-168774072D01*
X138701000Y-168774072D01*
X138825482Y-168761812D01*
X138945180Y-168725502D01*
X139055494Y-168666537D01*
X139152185Y-168587185D01*
X139231537Y-168490494D01*
X139290502Y-168380180D01*
X139326812Y-168260482D01*
X139339072Y-168136000D01*
X139339072Y-166636000D01*
X139326812Y-166511518D01*
X139290502Y-166391820D01*
X139231537Y-166281506D01*
X139163006Y-166198001D01*
X140296924Y-166198001D01*
X140202186Y-166426718D01*
X140148000Y-166699127D01*
X140148000Y-166976873D01*
X140202186Y-167249282D01*
X140308475Y-167505885D01*
X140462782Y-167736822D01*
X140659178Y-167933218D01*
X140890115Y-168087525D01*
X141146718Y-168193814D01*
X141419127Y-168248000D01*
X141696873Y-168248000D01*
X141969282Y-168193814D01*
X142225885Y-168087525D01*
X142456822Y-167933218D01*
X142653218Y-167736822D01*
X142745976Y-167598000D01*
X147124678Y-167598000D01*
X147162000Y-167601676D01*
X147199322Y-167598000D01*
X147199333Y-167598000D01*
X147310986Y-167587003D01*
X147454247Y-167543546D01*
X147586276Y-167472974D01*
X147702001Y-167378001D01*
X147725804Y-167348997D01*
X147896801Y-167178000D01*
X149008928Y-167178000D01*
X149021188Y-167302482D01*
X149057498Y-167422180D01*
X149116463Y-167532494D01*
X149195815Y-167629185D01*
X149292506Y-167708537D01*
X149402820Y-167767502D01*
X149522518Y-167803812D01*
X149647000Y-167816072D01*
X150336250Y-167813000D01*
X150495000Y-167654250D01*
X150495000Y-167005000D01*
X149170750Y-167005000D01*
X149012000Y-167163750D01*
X149008928Y-167178000D01*
X147896801Y-167178000D01*
X148706802Y-166368000D01*
X149047130Y-166368000D01*
X149021188Y-166453518D01*
X149008928Y-166578000D01*
X149012000Y-166592250D01*
X149170750Y-166751000D01*
X150495000Y-166751000D01*
X150495000Y-166731000D01*
X150749000Y-166731000D01*
X150749000Y-166751000D01*
X152073250Y-166751000D01*
X152232000Y-166592250D01*
X152235072Y-166578000D01*
X152222812Y-166453518D01*
X152186502Y-166333820D01*
X152127537Y-166223506D01*
X152103270Y-166193936D01*
X152175084Y-166059582D01*
X152190500Y-166008761D01*
X152190500Y-166090939D01*
G37*
X152190500Y-166090939D02*
X152230274Y-166290898D01*
X152308295Y-166479256D01*
X152421563Y-166648774D01*
X152565726Y-166792937D01*
X152735244Y-166906205D01*
X152923602Y-166984226D01*
X153123561Y-167024000D01*
X153185698Y-167024000D01*
X153550701Y-167389003D01*
X153574499Y-167418001D01*
X153690224Y-167512974D01*
X153822253Y-167583546D01*
X153965514Y-167627003D01*
X154077167Y-167638000D01*
X154077177Y-167638000D01*
X154114500Y-167641676D01*
X154151823Y-167638000D01*
X154254024Y-167638000D01*
X154283180Y-167661928D01*
X154174999Y-167661928D01*
X154001745Y-167678992D01*
X153835149Y-167729528D01*
X153681613Y-167811595D01*
X153547038Y-167922038D01*
X153475000Y-168009816D01*
X153402962Y-167922038D01*
X153268387Y-167811595D01*
X153114851Y-167729528D01*
X152948255Y-167678992D01*
X152775001Y-167661928D01*
X152124999Y-167661928D01*
X151992370Y-167674991D01*
X152048185Y-167629185D01*
X152127537Y-167532494D01*
X152186502Y-167422180D01*
X152222812Y-167302482D01*
X152235072Y-167178000D01*
X152232000Y-167163750D01*
X152073250Y-167005000D01*
X150749000Y-167005000D01*
X150749000Y-167654250D01*
X150907750Y-167813000D01*
X151597000Y-167816072D01*
X151630134Y-167812809D01*
X151497038Y-167922038D01*
X151386595Y-168056613D01*
X151336678Y-168150000D01*
X150563711Y-168150000D01*
X150519774Y-168106063D01*
X150350256Y-167992795D01*
X150161898Y-167914774D01*
X149961939Y-167875000D01*
X149758061Y-167875000D01*
X149558102Y-167914774D01*
X149369744Y-167992795D01*
X149200226Y-168106063D01*
X149056063Y-168250226D01*
X148942795Y-168419744D01*
X148864774Y-168608102D01*
X148825000Y-168808061D01*
X148825000Y-169011939D01*
X148864774Y-169211898D01*
X148886774Y-169265010D01*
X147968000Y-169265010D01*
X147968000Y-169199127D01*
X147913814Y-168926718D01*
X147807525Y-168670115D01*
X147653218Y-168439178D01*
X147456822Y-168242782D01*
X147225885Y-168088475D01*
X146969282Y-167982186D01*
X146696873Y-167928000D01*
X146419127Y-167928000D01*
X146146718Y-167982186D01*
X145890115Y-168088475D01*
X145659178Y-168242782D01*
X145462782Y-168439178D01*
X145308475Y-168670115D01*
X145202186Y-168926718D01*
X145148000Y-169199127D01*
X145148000Y-169476873D01*
X145195371Y-169715020D01*
X138039823Y-169715020D01*
X137033002Y-168708200D01*
X137033002Y-168604164D01*
X137211810Y-168729964D01*
X137273337Y-168721272D01*
X137341943Y-168690824D01*
X137406820Y-168725502D01*
X137526518Y-168761812D01*
X137651000Y-168774072D01*
X138701000Y-168774072D01*
X138825482Y-168761812D01*
X138945180Y-168725502D01*
X139055494Y-168666537D01*
X139152185Y-168587185D01*
X139231537Y-168490494D01*
X139290502Y-168380180D01*
X139326812Y-168260482D01*
X139339072Y-168136000D01*
X139339072Y-166636000D01*
X139326812Y-166511518D01*
X139290502Y-166391820D01*
X139231537Y-166281506D01*
X139163006Y-166198001D01*
X140296924Y-166198001D01*
X140202186Y-166426718D01*
X140148000Y-166699127D01*
X140148000Y-166976873D01*
X140202186Y-167249282D01*
X140308475Y-167505885D01*
X140462782Y-167736822D01*
X140659178Y-167933218D01*
X140890115Y-168087525D01*
X141146718Y-168193814D01*
X141419127Y-168248000D01*
X141696873Y-168248000D01*
X141969282Y-168193814D01*
X142225885Y-168087525D01*
X142456822Y-167933218D01*
X142653218Y-167736822D01*
X142745976Y-167598000D01*
X147124678Y-167598000D01*
X147162000Y-167601676D01*
X147199322Y-167598000D01*
X147199333Y-167598000D01*
X147310986Y-167587003D01*
X147454247Y-167543546D01*
X147586276Y-167472974D01*
X147702001Y-167378001D01*
X147725804Y-167348997D01*
X147896801Y-167178000D01*
X149008928Y-167178000D01*
X149021188Y-167302482D01*
X149057498Y-167422180D01*
X149116463Y-167532494D01*
X149195815Y-167629185D01*
X149292506Y-167708537D01*
X149402820Y-167767502D01*
X149522518Y-167803812D01*
X149647000Y-167816072D01*
X150336250Y-167813000D01*
X150495000Y-167654250D01*
X150495000Y-167005000D01*
X149170750Y-167005000D01*
X149012000Y-167163750D01*
X149008928Y-167178000D01*
X147896801Y-167178000D01*
X148706802Y-166368000D01*
X149047130Y-166368000D01*
X149021188Y-166453518D01*
X149008928Y-166578000D01*
X149012000Y-166592250D01*
X149170750Y-166751000D01*
X150495000Y-166751000D01*
X150495000Y-166731000D01*
X150749000Y-166731000D01*
X150749000Y-166751000D01*
X152073250Y-166751000D01*
X152232000Y-166592250D01*
X152235072Y-166578000D01*
X152222812Y-166453518D01*
X152186502Y-166333820D01*
X152127537Y-166223506D01*
X152103270Y-166193936D01*
X152175084Y-166059582D01*
X152190500Y-166008761D01*
X152190500Y-166090939D01*
G36*
X142037199Y-161948003D02*
G01*
X142060998Y-161977002D01*
X142176723Y-162071975D01*
X142308752Y-162142547D01*
X142452013Y-162186004D01*
X142563666Y-162197001D01*
X142563675Y-162197001D01*
X142600998Y-162200677D01*
X142638321Y-162197001D01*
X145651583Y-162197001D01*
X145626274Y-162258102D01*
X145586500Y-162458061D01*
X145586500Y-162661939D01*
X145626274Y-162861898D01*
X145657578Y-162937473D01*
X145538820Y-162973498D01*
X145428506Y-163032463D01*
X145331815Y-163111815D01*
X145252463Y-163208506D01*
X145193498Y-163318820D01*
X145157188Y-163438518D01*
X145144928Y-163563000D01*
X145148000Y-164052250D01*
X145306750Y-164211000D01*
X146431000Y-164211000D01*
X146431000Y-164191000D01*
X146685000Y-164191000D01*
X146685000Y-164211000D01*
X146705000Y-164211000D01*
X146705000Y-164465000D01*
X146685000Y-164465000D01*
X146685000Y-164485000D01*
X146431000Y-164485000D01*
X146431000Y-164465000D01*
X145306750Y-164465000D01*
X145148000Y-164623750D01*
X145147659Y-164678001D01*
X139039215Y-164678001D01*
X137475688Y-163114475D01*
X137476418Y-163114202D01*
X137552852Y-163073348D01*
X137588467Y-162905021D01*
X137642733Y-162959287D01*
X137845008Y-163094443D01*
X138069764Y-163187540D01*
X138308363Y-163235000D01*
X138551637Y-163235000D01*
X138790236Y-163187540D01*
X139014992Y-163094443D01*
X139217267Y-162959287D01*
X139389287Y-162787267D01*
X139524443Y-162584992D01*
X139617540Y-162360236D01*
X139665000Y-162121637D01*
X139665000Y-161878363D01*
X139617540Y-161639764D01*
X139524443Y-161415008D01*
X139389287Y-161212733D01*
X139217267Y-161040713D01*
X139014992Y-160905557D01*
X138790236Y-160812460D01*
X138551637Y-160765000D01*
X138308363Y-160765000D01*
X138069764Y-160812460D01*
X137845008Y-160905557D01*
X137642733Y-161040713D01*
X137588467Y-161094979D01*
X137552852Y-160926652D01*
X137331484Y-160825763D01*
X137094687Y-160770000D01*
X136851562Y-160761505D01*
X136611451Y-160800605D01*
X136383582Y-160885798D01*
X136307148Y-160926652D01*
X136259841Y-161150236D01*
X136930000Y-161820395D01*
X136944143Y-161806253D01*
X137123748Y-161985858D01*
X137109605Y-162000000D01*
X137123748Y-162014143D01*
X136944143Y-162193748D01*
X136930000Y-162179605D01*
X136915858Y-162193748D01*
X136736253Y-162014143D01*
X136750395Y-162000000D01*
X136080236Y-161329841D01*
X135856652Y-161377148D01*
X135819619Y-161458405D01*
X134878203Y-160516990D01*
X140606187Y-160516990D01*
X142037199Y-161948003D01*
G37*
X142037199Y-161948003D02*
X142060998Y-161977002D01*
X142176723Y-162071975D01*
X142308752Y-162142547D01*
X142452013Y-162186004D01*
X142563666Y-162197001D01*
X142563675Y-162197001D01*
X142600998Y-162200677D01*
X142638321Y-162197001D01*
X145651583Y-162197001D01*
X145626274Y-162258102D01*
X145586500Y-162458061D01*
X145586500Y-162661939D01*
X145626274Y-162861898D01*
X145657578Y-162937473D01*
X145538820Y-162973498D01*
X145428506Y-163032463D01*
X145331815Y-163111815D01*
X145252463Y-163208506D01*
X145193498Y-163318820D01*
X145157188Y-163438518D01*
X145144928Y-163563000D01*
X145148000Y-164052250D01*
X145306750Y-164211000D01*
X146431000Y-164211000D01*
X146431000Y-164191000D01*
X146685000Y-164191000D01*
X146685000Y-164211000D01*
X146705000Y-164211000D01*
X146705000Y-164465000D01*
X146685000Y-164465000D01*
X146685000Y-164485000D01*
X146431000Y-164485000D01*
X146431000Y-164465000D01*
X145306750Y-164465000D01*
X145148000Y-164623750D01*
X145147659Y-164678001D01*
X139039215Y-164678001D01*
X137475688Y-163114475D01*
X137476418Y-163114202D01*
X137552852Y-163073348D01*
X137588467Y-162905021D01*
X137642733Y-162959287D01*
X137845008Y-163094443D01*
X138069764Y-163187540D01*
X138308363Y-163235000D01*
X138551637Y-163235000D01*
X138790236Y-163187540D01*
X139014992Y-163094443D01*
X139217267Y-162959287D01*
X139389287Y-162787267D01*
X139524443Y-162584992D01*
X139617540Y-162360236D01*
X139665000Y-162121637D01*
X139665000Y-161878363D01*
X139617540Y-161639764D01*
X139524443Y-161415008D01*
X139389287Y-161212733D01*
X139217267Y-161040713D01*
X139014992Y-160905557D01*
X138790236Y-160812460D01*
X138551637Y-160765000D01*
X138308363Y-160765000D01*
X138069764Y-160812460D01*
X137845008Y-160905557D01*
X137642733Y-161040713D01*
X137588467Y-161094979D01*
X137552852Y-160926652D01*
X137331484Y-160825763D01*
X137094687Y-160770000D01*
X136851562Y-160761505D01*
X136611451Y-160800605D01*
X136383582Y-160885798D01*
X136307148Y-160926652D01*
X136259841Y-161150236D01*
X136930000Y-161820395D01*
X136944143Y-161806253D01*
X137123748Y-161985858D01*
X137109605Y-162000000D01*
X137123748Y-162014143D01*
X136944143Y-162193748D01*
X136930000Y-162179605D01*
X136915858Y-162193748D01*
X136736253Y-162014143D01*
X136750395Y-162000000D01*
X136080236Y-161329841D01*
X135856652Y-161377148D01*
X135819619Y-161458405D01*
X134878203Y-160516990D01*
X140606187Y-160516990D01*
X142037199Y-161948003D01*
G36*
X157290000Y-159771199D02*
G01*
X157094072Y-159575271D01*
X157094072Y-159112000D01*
X157081812Y-158987518D01*
X157045502Y-158867820D01*
X156986537Y-158757506D01*
X156907185Y-158660815D01*
X156810494Y-158581463D01*
X156700180Y-158522498D01*
X156580482Y-158486188D01*
X156456000Y-158473928D01*
X155456000Y-158473928D01*
X155331518Y-158486188D01*
X155211820Y-158522498D01*
X155101506Y-158581463D01*
X155004815Y-158660815D01*
X154925463Y-158757506D01*
X154866498Y-158867820D01*
X154830188Y-158987518D01*
X154817928Y-159112000D01*
X154817928Y-159912000D01*
X154830188Y-160036482D01*
X154866498Y-160156180D01*
X154925463Y-160266494D01*
X155004815Y-160363185D01*
X155101506Y-160442537D01*
X155211820Y-160501502D01*
X155331518Y-160537812D01*
X155456000Y-160550072D01*
X155919271Y-160550072D01*
X156690009Y-161320811D01*
X156690009Y-162187316D01*
X156550745Y-162145071D01*
X156526888Y-162142721D01*
X156535000Y-162101939D01*
X156535000Y-161898061D01*
X156495226Y-161698102D01*
X156417205Y-161509744D01*
X156303937Y-161340226D01*
X156159774Y-161196063D01*
X155990256Y-161082795D01*
X155801898Y-161004774D01*
X155601939Y-160965000D01*
X155398061Y-160965000D01*
X155198102Y-161004774D01*
X155009744Y-161082795D01*
X154840226Y-161196063D01*
X154696063Y-161340226D01*
X154582795Y-161509744D01*
X154504774Y-161698102D01*
X154465000Y-161898061D01*
X154465000Y-162101939D01*
X154480389Y-162179308D01*
X154445418Y-162189916D01*
X154309171Y-162262742D01*
X154189749Y-162360749D01*
X154091742Y-162480171D01*
X154024404Y-162606151D01*
X153963044Y-162555794D01*
X153831015Y-162485222D01*
X153687754Y-162441765D01*
X153576101Y-162430768D01*
X153576090Y-162430768D01*
X153538768Y-162427092D01*
X153501446Y-162430768D01*
X152183322Y-162430768D01*
X152145999Y-162427092D01*
X152108676Y-162430768D01*
X152108667Y-162430768D01*
X152065225Y-162435047D01*
X152004251Y-162360749D01*
X151884829Y-162262742D01*
X151748582Y-162189916D01*
X151600745Y-162145071D01*
X151447000Y-162129928D01*
X150758730Y-162129928D01*
X150621256Y-161992455D01*
X150663937Y-161949774D01*
X150777205Y-161780256D01*
X150855226Y-161591898D01*
X150895000Y-161391939D01*
X150895000Y-161188061D01*
X150855226Y-160988102D01*
X150777205Y-160799744D01*
X150663937Y-160630226D01*
X150620000Y-160586289D01*
X150620000Y-160464182D01*
X150660494Y-160442537D01*
X150757185Y-160363185D01*
X150836537Y-160266494D01*
X150895502Y-160156180D01*
X150931812Y-160036482D01*
X150944072Y-159912000D01*
X150944072Y-159448729D01*
X151641004Y-158751798D01*
X151670001Y-158728001D01*
X151764974Y-158612276D01*
X151835546Y-158480247D01*
X151879003Y-158336986D01*
X151890000Y-158225333D01*
X151890000Y-158225325D01*
X151893676Y-158188000D01*
X151890000Y-158150675D01*
X151890000Y-157372000D01*
X154817928Y-157372000D01*
X154830188Y-157496482D01*
X154866498Y-157616180D01*
X154925463Y-157726494D01*
X155004815Y-157823185D01*
X155101506Y-157902537D01*
X155211820Y-157961502D01*
X155331518Y-157997812D01*
X155456000Y-158010072D01*
X155670250Y-158007000D01*
X155829000Y-157848250D01*
X155829000Y-157099000D01*
X156083000Y-157099000D01*
X156083000Y-157848250D01*
X156241750Y-158007000D01*
X156456000Y-158010072D01*
X156580482Y-157997812D01*
X156700180Y-157961502D01*
X156810494Y-157902537D01*
X156907185Y-157823185D01*
X156986537Y-157726494D01*
X157045502Y-157616180D01*
X157081812Y-157496482D01*
X157094072Y-157372000D01*
X157091000Y-157257750D01*
X156932250Y-157099000D01*
X156083000Y-157099000D01*
X155829000Y-157099000D01*
X154979750Y-157099000D01*
X154821000Y-157257750D01*
X154817928Y-157372000D01*
X151890000Y-157372000D01*
X151890000Y-156572000D01*
X154817928Y-156572000D01*
X154821000Y-156686250D01*
X154979750Y-156845000D01*
X155829000Y-156845000D01*
X155829000Y-156095750D01*
X156083000Y-156095750D01*
X156083000Y-156845000D01*
X156932250Y-156845000D01*
X157091000Y-156686250D01*
X157094072Y-156572000D01*
X157081812Y-156447518D01*
X157045502Y-156327820D01*
X156986537Y-156217506D01*
X156907185Y-156120815D01*
X156810494Y-156041463D01*
X156700180Y-155982498D01*
X156580482Y-155946188D01*
X156456000Y-155933928D01*
X156241750Y-155937000D01*
X156083000Y-156095750D01*
X155829000Y-156095750D01*
X155670250Y-155937000D01*
X155456000Y-155933928D01*
X155331518Y-155946188D01*
X155211820Y-155982498D01*
X155101506Y-156041463D01*
X155004815Y-156120815D01*
X154925463Y-156217506D01*
X154866498Y-156327820D01*
X154830188Y-156447518D01*
X154817928Y-156572000D01*
X151890000Y-156572000D01*
X151890000Y-155004322D01*
X151893676Y-154967000D01*
X151890000Y-154929677D01*
X151890000Y-154929667D01*
X151879003Y-154818014D01*
X151835546Y-154674753D01*
X151802551Y-154613024D01*
X151764974Y-154542723D01*
X151693799Y-154455997D01*
X151670001Y-154426999D01*
X151641003Y-154403201D01*
X150971072Y-153733271D01*
X150971072Y-153270000D01*
X150958812Y-153145518D01*
X150922502Y-153025820D01*
X150863537Y-152915506D01*
X150784185Y-152818815D01*
X150687494Y-152739463D01*
X150592666Y-152688776D01*
X150582003Y-152580512D01*
X150538546Y-152437251D01*
X150467974Y-152305222D01*
X150451150Y-152284722D01*
X150396799Y-152218494D01*
X150396795Y-152218490D01*
X150373001Y-152189497D01*
X150345406Y-152166850D01*
X150457482Y-152155812D01*
X150577180Y-152119502D01*
X150687494Y-152060537D01*
X150784185Y-151981185D01*
X150863537Y-151884494D01*
X150922502Y-151774180D01*
X150958812Y-151654482D01*
X150971072Y-151530000D01*
X150971072Y-150730000D01*
X154844928Y-150730000D01*
X154844928Y-151530000D01*
X154857188Y-151654482D01*
X154893498Y-151774180D01*
X154952463Y-151884494D01*
X155031815Y-151981185D01*
X155128506Y-152060537D01*
X155223001Y-152111046D01*
X155223000Y-152688954D01*
X155128506Y-152739463D01*
X155031815Y-152818815D01*
X154952463Y-152915506D01*
X154893498Y-153025820D01*
X154857188Y-153145518D01*
X154844928Y-153270000D01*
X154844928Y-154070000D01*
X154857188Y-154194482D01*
X154893498Y-154314180D01*
X154952463Y-154424494D01*
X155031815Y-154521185D01*
X155128506Y-154600537D01*
X155238820Y-154659502D01*
X155358518Y-154695812D01*
X155483000Y-154708072D01*
X156483000Y-154708072D01*
X156607482Y-154695812D01*
X156727180Y-154659502D01*
X156837494Y-154600537D01*
X156934185Y-154521185D01*
X157013537Y-154424494D01*
X157072502Y-154314180D01*
X157108812Y-154194482D01*
X157121072Y-154070000D01*
X157121072Y-153270000D01*
X157108812Y-153145518D01*
X157072502Y-153025820D01*
X157013537Y-152915506D01*
X156934185Y-152818815D01*
X156837494Y-152739463D01*
X156743000Y-152688954D01*
X156743000Y-152111046D01*
X156837494Y-152060537D01*
X156934185Y-151981185D01*
X157013537Y-151884494D01*
X157072502Y-151774180D01*
X157108812Y-151654482D01*
X157121072Y-151530000D01*
X157121072Y-150730000D01*
X157108812Y-150605518D01*
X157072502Y-150485820D01*
X157013537Y-150375506D01*
X156934185Y-150278815D01*
X156837494Y-150199463D01*
X156727180Y-150140498D01*
X156607482Y-150104188D01*
X156483000Y-150091928D01*
X155483000Y-150091928D01*
X155358518Y-150104188D01*
X155238820Y-150140498D01*
X155128506Y-150199463D01*
X155031815Y-150278815D01*
X154952463Y-150375506D01*
X154893498Y-150485820D01*
X154857188Y-150605518D01*
X154844928Y-150730000D01*
X150971072Y-150730000D01*
X150958812Y-150605518D01*
X150922502Y-150485820D01*
X150863537Y-150375506D01*
X150784185Y-150278815D01*
X150687494Y-150199463D01*
X150577180Y-150140498D01*
X150565281Y-150136889D01*
X150538546Y-150048753D01*
X150467974Y-149916724D01*
X150373001Y-149800999D01*
X150344003Y-149777201D01*
X150276802Y-149710000D01*
X157290000Y-149710000D01*
X157290000Y-159771199D01*
G37*
X157290000Y-159771199D02*
X157094072Y-159575271D01*
X157094072Y-159112000D01*
X157081812Y-158987518D01*
X157045502Y-158867820D01*
X156986537Y-158757506D01*
X156907185Y-158660815D01*
X156810494Y-158581463D01*
X156700180Y-158522498D01*
X156580482Y-158486188D01*
X156456000Y-158473928D01*
X155456000Y-158473928D01*
X155331518Y-158486188D01*
X155211820Y-158522498D01*
X155101506Y-158581463D01*
X155004815Y-158660815D01*
X154925463Y-158757506D01*
X154866498Y-158867820D01*
X154830188Y-158987518D01*
X154817928Y-159112000D01*
X154817928Y-159912000D01*
X154830188Y-160036482D01*
X154866498Y-160156180D01*
X154925463Y-160266494D01*
X155004815Y-160363185D01*
X155101506Y-160442537D01*
X155211820Y-160501502D01*
X155331518Y-160537812D01*
X155456000Y-160550072D01*
X155919271Y-160550072D01*
X156690009Y-161320811D01*
X156690009Y-162187316D01*
X156550745Y-162145071D01*
X156526888Y-162142721D01*
X156535000Y-162101939D01*
X156535000Y-161898061D01*
X156495226Y-161698102D01*
X156417205Y-161509744D01*
X156303937Y-161340226D01*
X156159774Y-161196063D01*
X155990256Y-161082795D01*
X155801898Y-161004774D01*
X155601939Y-160965000D01*
X155398061Y-160965000D01*
X155198102Y-161004774D01*
X155009744Y-161082795D01*
X154840226Y-161196063D01*
X154696063Y-161340226D01*
X154582795Y-161509744D01*
X154504774Y-161698102D01*
X154465000Y-161898061D01*
X154465000Y-162101939D01*
X154480389Y-162179308D01*
X154445418Y-162189916D01*
X154309171Y-162262742D01*
X154189749Y-162360749D01*
X154091742Y-162480171D01*
X154024404Y-162606151D01*
X153963044Y-162555794D01*
X153831015Y-162485222D01*
X153687754Y-162441765D01*
X153576101Y-162430768D01*
X153576090Y-162430768D01*
X153538768Y-162427092D01*
X153501446Y-162430768D01*
X152183322Y-162430768D01*
X152145999Y-162427092D01*
X152108676Y-162430768D01*
X152108667Y-162430768D01*
X152065225Y-162435047D01*
X152004251Y-162360749D01*
X151884829Y-162262742D01*
X151748582Y-162189916D01*
X151600745Y-162145071D01*
X151447000Y-162129928D01*
X150758730Y-162129928D01*
X150621256Y-161992455D01*
X150663937Y-161949774D01*
X150777205Y-161780256D01*
X150855226Y-161591898D01*
X150895000Y-161391939D01*
X150895000Y-161188061D01*
X150855226Y-160988102D01*
X150777205Y-160799744D01*
X150663937Y-160630226D01*
X150620000Y-160586289D01*
X150620000Y-160464182D01*
X150660494Y-160442537D01*
X150757185Y-160363185D01*
X150836537Y-160266494D01*
X150895502Y-160156180D01*
X150931812Y-160036482D01*
X150944072Y-159912000D01*
X150944072Y-159448729D01*
X151641004Y-158751798D01*
X151670001Y-158728001D01*
X151764974Y-158612276D01*
X151835546Y-158480247D01*
X151879003Y-158336986D01*
X151890000Y-158225333D01*
X151890000Y-158225325D01*
X151893676Y-158188000D01*
X151890000Y-158150675D01*
X151890000Y-157372000D01*
X154817928Y-157372000D01*
X154830188Y-157496482D01*
X154866498Y-157616180D01*
X154925463Y-157726494D01*
X155004815Y-157823185D01*
X155101506Y-157902537D01*
X155211820Y-157961502D01*
X155331518Y-157997812D01*
X155456000Y-158010072D01*
X155670250Y-158007000D01*
X155829000Y-157848250D01*
X155829000Y-157099000D01*
X156083000Y-157099000D01*
X156083000Y-157848250D01*
X156241750Y-158007000D01*
X156456000Y-158010072D01*
X156580482Y-157997812D01*
X156700180Y-157961502D01*
X156810494Y-157902537D01*
X156907185Y-157823185D01*
X156986537Y-157726494D01*
X157045502Y-157616180D01*
X157081812Y-157496482D01*
X157094072Y-157372000D01*
X157091000Y-157257750D01*
X156932250Y-157099000D01*
X156083000Y-157099000D01*
X155829000Y-157099000D01*
X154979750Y-157099000D01*
X154821000Y-157257750D01*
X154817928Y-157372000D01*
X151890000Y-157372000D01*
X151890000Y-156572000D01*
X154817928Y-156572000D01*
X154821000Y-156686250D01*
X154979750Y-156845000D01*
X155829000Y-156845000D01*
X155829000Y-156095750D01*
X156083000Y-156095750D01*
X156083000Y-156845000D01*
X156932250Y-156845000D01*
X157091000Y-156686250D01*
X157094072Y-156572000D01*
X157081812Y-156447518D01*
X157045502Y-156327820D01*
X156986537Y-156217506D01*
X156907185Y-156120815D01*
X156810494Y-156041463D01*
X156700180Y-155982498D01*
X156580482Y-155946188D01*
X156456000Y-155933928D01*
X156241750Y-155937000D01*
X156083000Y-156095750D01*
X155829000Y-156095750D01*
X155670250Y-155937000D01*
X155456000Y-155933928D01*
X155331518Y-155946188D01*
X155211820Y-155982498D01*
X155101506Y-156041463D01*
X155004815Y-156120815D01*
X154925463Y-156217506D01*
X154866498Y-156327820D01*
X154830188Y-156447518D01*
X154817928Y-156572000D01*
X151890000Y-156572000D01*
X151890000Y-155004322D01*
X151893676Y-154967000D01*
X151890000Y-154929677D01*
X151890000Y-154929667D01*
X151879003Y-154818014D01*
X151835546Y-154674753D01*
X151802551Y-154613024D01*
X151764974Y-154542723D01*
X151693799Y-154455997D01*
X151670001Y-154426999D01*
X151641003Y-154403201D01*
X150971072Y-153733271D01*
X150971072Y-153270000D01*
X150958812Y-153145518D01*
X150922502Y-153025820D01*
X150863537Y-152915506D01*
X150784185Y-152818815D01*
X150687494Y-152739463D01*
X150592666Y-152688776D01*
X150582003Y-152580512D01*
X150538546Y-152437251D01*
X150467974Y-152305222D01*
X150451150Y-152284722D01*
X150396799Y-152218494D01*
X150396795Y-152218490D01*
X150373001Y-152189497D01*
X150345406Y-152166850D01*
X150457482Y-152155812D01*
X150577180Y-152119502D01*
X150687494Y-152060537D01*
X150784185Y-151981185D01*
X150863537Y-151884494D01*
X150922502Y-151774180D01*
X150958812Y-151654482D01*
X150971072Y-151530000D01*
X150971072Y-150730000D01*
X154844928Y-150730000D01*
X154844928Y-151530000D01*
X154857188Y-151654482D01*
X154893498Y-151774180D01*
X154952463Y-151884494D01*
X155031815Y-151981185D01*
X155128506Y-152060537D01*
X155223001Y-152111046D01*
X155223000Y-152688954D01*
X155128506Y-152739463D01*
X155031815Y-152818815D01*
X154952463Y-152915506D01*
X154893498Y-153025820D01*
X154857188Y-153145518D01*
X154844928Y-153270000D01*
X154844928Y-154070000D01*
X154857188Y-154194482D01*
X154893498Y-154314180D01*
X154952463Y-154424494D01*
X155031815Y-154521185D01*
X155128506Y-154600537D01*
X155238820Y-154659502D01*
X155358518Y-154695812D01*
X155483000Y-154708072D01*
X156483000Y-154708072D01*
X156607482Y-154695812D01*
X156727180Y-154659502D01*
X156837494Y-154600537D01*
X156934185Y-154521185D01*
X157013537Y-154424494D01*
X157072502Y-154314180D01*
X157108812Y-154194482D01*
X157121072Y-154070000D01*
X157121072Y-153270000D01*
X157108812Y-153145518D01*
X157072502Y-153025820D01*
X157013537Y-152915506D01*
X156934185Y-152818815D01*
X156837494Y-152739463D01*
X156743000Y-152688954D01*
X156743000Y-152111046D01*
X156837494Y-152060537D01*
X156934185Y-151981185D01*
X157013537Y-151884494D01*
X157072502Y-151774180D01*
X157108812Y-151654482D01*
X157121072Y-151530000D01*
X157121072Y-150730000D01*
X157108812Y-150605518D01*
X157072502Y-150485820D01*
X157013537Y-150375506D01*
X156934185Y-150278815D01*
X156837494Y-150199463D01*
X156727180Y-150140498D01*
X156607482Y-150104188D01*
X156483000Y-150091928D01*
X155483000Y-150091928D01*
X155358518Y-150104188D01*
X155238820Y-150140498D01*
X155128506Y-150199463D01*
X155031815Y-150278815D01*
X154952463Y-150375506D01*
X154893498Y-150485820D01*
X154857188Y-150605518D01*
X154844928Y-150730000D01*
X150971072Y-150730000D01*
X150958812Y-150605518D01*
X150922502Y-150485820D01*
X150863537Y-150375506D01*
X150784185Y-150278815D01*
X150687494Y-150199463D01*
X150577180Y-150140498D01*
X150565281Y-150136889D01*
X150538546Y-150048753D01*
X150467974Y-149916724D01*
X150373001Y-149800999D01*
X150344003Y-149777201D01*
X150276802Y-149710000D01*
X157290000Y-149710000D01*
X157290000Y-159771199D01*
G36*
X148667928Y-159448730D02*
G01*
X148667928Y-159912000D01*
X148680188Y-160036482D01*
X148716498Y-160156180D01*
X148775463Y-160266494D01*
X148854815Y-160363185D01*
X148951506Y-160442537D01*
X149061820Y-160501502D01*
X149100000Y-160513084D01*
X149100000Y-160586289D01*
X149056063Y-160630226D01*
X148942795Y-160799744D01*
X148864774Y-160988102D01*
X148859026Y-161017000D01*
X148742061Y-161017000D01*
X148542102Y-161056774D01*
X148353744Y-161134795D01*
X148184226Y-161248063D01*
X148113044Y-161319245D01*
X147719803Y-160926004D01*
X147696000Y-160897000D01*
X147580275Y-160802027D01*
X147448246Y-160731455D01*
X147304985Y-160687998D01*
X147193332Y-160677001D01*
X147193321Y-160677001D01*
X147155999Y-160673325D01*
X147118677Y-160677001D01*
X146774153Y-160677001D01*
X146887631Y-160507169D01*
X147056110Y-160100425D01*
X147142000Y-159668628D01*
X147142000Y-159228372D01*
X147056110Y-158796575D01*
X146887631Y-158389831D01*
X146787517Y-158240000D01*
X147459199Y-158240000D01*
X148667928Y-159448730D01*
G37*
X148667928Y-159448730D02*
X148667928Y-159912000D01*
X148680188Y-160036482D01*
X148716498Y-160156180D01*
X148775463Y-160266494D01*
X148854815Y-160363185D01*
X148951506Y-160442537D01*
X149061820Y-160501502D01*
X149100000Y-160513084D01*
X149100000Y-160586289D01*
X149056063Y-160630226D01*
X148942795Y-160799744D01*
X148864774Y-160988102D01*
X148859026Y-161017000D01*
X148742061Y-161017000D01*
X148542102Y-161056774D01*
X148353744Y-161134795D01*
X148184226Y-161248063D01*
X148113044Y-161319245D01*
X147719803Y-160926004D01*
X147696000Y-160897000D01*
X147580275Y-160802027D01*
X147448246Y-160731455D01*
X147304985Y-160687998D01*
X147193332Y-160677001D01*
X147193321Y-160677001D01*
X147155999Y-160673325D01*
X147118677Y-160677001D01*
X146774153Y-160677001D01*
X146887631Y-160507169D01*
X147056110Y-160100425D01*
X147142000Y-159668628D01*
X147142000Y-159228372D01*
X147056110Y-158796575D01*
X146887631Y-158389831D01*
X146787517Y-158240000D01*
X147459199Y-158240000D01*
X148667928Y-159448730D01*
G36*
X121214206Y-153220007D02*
G01*
X121238000Y-153249000D01*
X121266993Y-153272794D01*
X121266997Y-153272798D01*
X121323114Y-153318851D01*
X121353725Y-153343973D01*
X121485754Y-153414545D01*
X121629015Y-153458002D01*
X121740668Y-153468999D01*
X121740677Y-153468999D01*
X121778000Y-153472675D01*
X121815323Y-153468999D01*
X125869928Y-153468999D01*
X125869928Y-154488999D01*
X121997212Y-154488999D01*
X121953275Y-154445062D01*
X121783757Y-154331794D01*
X121595399Y-154253773D01*
X121395440Y-154213999D01*
X121191562Y-154213999D01*
X120991603Y-154253773D01*
X120803245Y-154331794D01*
X120633727Y-154445062D01*
X120489564Y-154589225D01*
X120376296Y-154758743D01*
X120298275Y-154947101D01*
X120258501Y-155147060D01*
X120258501Y-155350938D01*
X120298275Y-155550897D01*
X120376296Y-155739255D01*
X120489564Y-155908773D01*
X120633727Y-156052936D01*
X120803245Y-156166204D01*
X120991603Y-156244225D01*
X121191562Y-156283999D01*
X121395440Y-156283999D01*
X121595399Y-156244225D01*
X121783757Y-156166204D01*
X121953275Y-156052936D01*
X121997212Y-156008999D01*
X125869928Y-156008999D01*
X125869928Y-157027270D01*
X124597366Y-158299833D01*
X124507898Y-158262774D01*
X124307939Y-158223000D01*
X124104061Y-158223000D01*
X123904102Y-158262774D01*
X123715744Y-158340795D01*
X123546226Y-158454063D01*
X123402063Y-158598226D01*
X123288795Y-158767744D01*
X123210774Y-158956102D01*
X123171000Y-159156061D01*
X123171000Y-159359939D01*
X123210774Y-159559898D01*
X123214544Y-159568999D01*
X122729213Y-159568999D01*
X119616072Y-156455859D01*
X119616072Y-155574000D01*
X119603812Y-155449518D01*
X119567502Y-155329820D01*
X119508537Y-155219506D01*
X119487605Y-155194000D01*
X119508537Y-155168494D01*
X119567502Y-155058180D01*
X119603812Y-154938482D01*
X119616072Y-154814000D01*
X119613000Y-154209750D01*
X119454250Y-154051000D01*
X118105000Y-154051000D01*
X118105000Y-154071000D01*
X117851000Y-154071000D01*
X117851000Y-154051000D01*
X117831000Y-154051000D01*
X117831000Y-153797000D01*
X117851000Y-153797000D01*
X117851000Y-153777000D01*
X118105000Y-153777000D01*
X118105000Y-153797000D01*
X119454250Y-153797000D01*
X119613000Y-153638250D01*
X119616072Y-153034000D01*
X119603812Y-152909518D01*
X119567502Y-152789820D01*
X119508537Y-152679506D01*
X119487605Y-152654000D01*
X119508537Y-152628494D01*
X119567502Y-152518180D01*
X119603812Y-152398482D01*
X119616072Y-152274000D01*
X119616072Y-151621872D01*
X121214206Y-153220007D01*
G37*
X121214206Y-153220007D02*
X121238000Y-153249000D01*
X121266993Y-153272794D01*
X121266997Y-153272798D01*
X121323114Y-153318851D01*
X121353725Y-153343973D01*
X121485754Y-153414545D01*
X121629015Y-153458002D01*
X121740668Y-153468999D01*
X121740677Y-153468999D01*
X121778000Y-153472675D01*
X121815323Y-153468999D01*
X125869928Y-153468999D01*
X125869928Y-154488999D01*
X121997212Y-154488999D01*
X121953275Y-154445062D01*
X121783757Y-154331794D01*
X121595399Y-154253773D01*
X121395440Y-154213999D01*
X121191562Y-154213999D01*
X120991603Y-154253773D01*
X120803245Y-154331794D01*
X120633727Y-154445062D01*
X120489564Y-154589225D01*
X120376296Y-154758743D01*
X120298275Y-154947101D01*
X120258501Y-155147060D01*
X120258501Y-155350938D01*
X120298275Y-155550897D01*
X120376296Y-155739255D01*
X120489564Y-155908773D01*
X120633727Y-156052936D01*
X120803245Y-156166204D01*
X120991603Y-156244225D01*
X121191562Y-156283999D01*
X121395440Y-156283999D01*
X121595399Y-156244225D01*
X121783757Y-156166204D01*
X121953275Y-156052936D01*
X121997212Y-156008999D01*
X125869928Y-156008999D01*
X125869928Y-157027270D01*
X124597366Y-158299833D01*
X124507898Y-158262774D01*
X124307939Y-158223000D01*
X124104061Y-158223000D01*
X123904102Y-158262774D01*
X123715744Y-158340795D01*
X123546226Y-158454063D01*
X123402063Y-158598226D01*
X123288795Y-158767744D01*
X123210774Y-158956102D01*
X123171000Y-159156061D01*
X123171000Y-159359939D01*
X123210774Y-159559898D01*
X123214544Y-159568999D01*
X122729213Y-159568999D01*
X119616072Y-156455859D01*
X119616072Y-155574000D01*
X119603812Y-155449518D01*
X119567502Y-155329820D01*
X119508537Y-155219506D01*
X119487605Y-155194000D01*
X119508537Y-155168494D01*
X119567502Y-155058180D01*
X119603812Y-154938482D01*
X119616072Y-154814000D01*
X119613000Y-154209750D01*
X119454250Y-154051000D01*
X118105000Y-154051000D01*
X118105000Y-154071000D01*
X117851000Y-154071000D01*
X117851000Y-154051000D01*
X117831000Y-154051000D01*
X117831000Y-153797000D01*
X117851000Y-153797000D01*
X117851000Y-153777000D01*
X118105000Y-153777000D01*
X118105000Y-153797000D01*
X119454250Y-153797000D01*
X119613000Y-153638250D01*
X119616072Y-153034000D01*
X119603812Y-152909518D01*
X119567502Y-152789820D01*
X119508537Y-152679506D01*
X119487605Y-152654000D01*
X119508537Y-152628494D01*
X119567502Y-152518180D01*
X119603812Y-152398482D01*
X119616072Y-152274000D01*
X119616072Y-151621872D01*
X121214206Y-153220007D01*
G36*
X118105000Y-158877000D02*
G01*
X118125000Y-158877000D01*
X118125000Y-159131000D01*
X118105000Y-159131000D01*
X118105000Y-159151000D01*
X117851000Y-159151000D01*
X117851000Y-159131000D01*
X117831000Y-159131000D01*
X117831000Y-158877000D01*
X117851000Y-158877000D01*
X117851000Y-158857000D01*
X118105000Y-158857000D01*
X118105000Y-158877000D01*
G37*
X118105000Y-158877000D02*
X118125000Y-158877000D01*
X118125000Y-159131000D01*
X118105000Y-159131000D01*
X118105000Y-159151000D01*
X117851000Y-159151000D01*
X117851000Y-159131000D01*
X117831000Y-159131000D01*
X117831000Y-158877000D01*
X117851000Y-158877000D01*
X117851000Y-158857000D01*
X118105000Y-158857000D01*
X118105000Y-158877000D01*
G36*
X148866354Y-152837655D02*
G01*
X148802463Y-152915506D01*
X148743498Y-153025820D01*
X148707188Y-153145518D01*
X148694928Y-153270000D01*
X148694928Y-154070000D01*
X148707188Y-154194482D01*
X148743498Y-154314180D01*
X148802463Y-154424494D01*
X148881815Y-154521185D01*
X148978506Y-154600537D01*
X149088820Y-154659502D01*
X149208518Y-154695812D01*
X149333000Y-154708072D01*
X149796271Y-154708072D01*
X150370001Y-155281803D01*
X150370001Y-155940231D01*
X150306000Y-155933928D01*
X149842729Y-155933928D01*
X149734803Y-155826002D01*
X149711001Y-155796999D01*
X149595276Y-155702026D01*
X149463247Y-155631454D01*
X149319986Y-155587997D01*
X149208333Y-155577000D01*
X149208322Y-155577000D01*
X149171000Y-155573324D01*
X149133678Y-155577000D01*
X143732211Y-155577000D01*
X143688274Y-155533063D01*
X143518756Y-155419795D01*
X143346138Y-155348294D01*
X143859250Y-155345500D01*
X144018000Y-155186750D01*
X144018000Y-153987500D01*
X144272000Y-153987500D01*
X144272000Y-155186750D01*
X144430750Y-155345500D01*
X144995000Y-155348572D01*
X145119482Y-155336312D01*
X145239180Y-155300002D01*
X145349494Y-155241037D01*
X145446185Y-155161685D01*
X145525537Y-155064994D01*
X145584502Y-154954680D01*
X145608966Y-154874034D01*
X145684731Y-154958088D01*
X145918080Y-155132141D01*
X146180901Y-155257325D01*
X146328110Y-155301976D01*
X146558000Y-155180655D01*
X146558000Y-153987500D01*
X146812000Y-153987500D01*
X146812000Y-155180655D01*
X147041890Y-155301976D01*
X147189099Y-155257325D01*
X147451920Y-155132141D01*
X147685269Y-154958088D01*
X147880178Y-154741855D01*
X148029157Y-154491752D01*
X148126481Y-154217391D01*
X148005814Y-153987500D01*
X146812000Y-153987500D01*
X146558000Y-153987500D01*
X144272000Y-153987500D01*
X144018000Y-153987500D01*
X143998000Y-153987500D01*
X143998000Y-153733500D01*
X144018000Y-153733500D01*
X144018000Y-153713500D01*
X144272000Y-153713500D01*
X144272000Y-153733500D01*
X146558000Y-153733500D01*
X146558000Y-153713500D01*
X146812000Y-153713500D01*
X146812000Y-153733500D01*
X148005814Y-153733500D01*
X148126481Y-153503609D01*
X148029157Y-153229248D01*
X147880178Y-152979145D01*
X147685269Y-152762912D01*
X147455594Y-152591600D01*
X147631632Y-152473975D01*
X147838475Y-152267132D01*
X148000990Y-152023911D01*
X148016109Y-151987409D01*
X148866354Y-152837655D01*
G37*
X148866354Y-152837655D02*
X148802463Y-152915506D01*
X148743498Y-153025820D01*
X148707188Y-153145518D01*
X148694928Y-153270000D01*
X148694928Y-154070000D01*
X148707188Y-154194482D01*
X148743498Y-154314180D01*
X148802463Y-154424494D01*
X148881815Y-154521185D01*
X148978506Y-154600537D01*
X149088820Y-154659502D01*
X149208518Y-154695812D01*
X149333000Y-154708072D01*
X149796271Y-154708072D01*
X150370001Y-155281803D01*
X150370001Y-155940231D01*
X150306000Y-155933928D01*
X149842729Y-155933928D01*
X149734803Y-155826002D01*
X149711001Y-155796999D01*
X149595276Y-155702026D01*
X149463247Y-155631454D01*
X149319986Y-155587997D01*
X149208333Y-155577000D01*
X149208322Y-155577000D01*
X149171000Y-155573324D01*
X149133678Y-155577000D01*
X143732211Y-155577000D01*
X143688274Y-155533063D01*
X143518756Y-155419795D01*
X143346138Y-155348294D01*
X143859250Y-155345500D01*
X144018000Y-155186750D01*
X144018000Y-153987500D01*
X144272000Y-153987500D01*
X144272000Y-155186750D01*
X144430750Y-155345500D01*
X144995000Y-155348572D01*
X145119482Y-155336312D01*
X145239180Y-155300002D01*
X145349494Y-155241037D01*
X145446185Y-155161685D01*
X145525537Y-155064994D01*
X145584502Y-154954680D01*
X145608966Y-154874034D01*
X145684731Y-154958088D01*
X145918080Y-155132141D01*
X146180901Y-155257325D01*
X146328110Y-155301976D01*
X146558000Y-155180655D01*
X146558000Y-153987500D01*
X146812000Y-153987500D01*
X146812000Y-155180655D01*
X147041890Y-155301976D01*
X147189099Y-155257325D01*
X147451920Y-155132141D01*
X147685269Y-154958088D01*
X147880178Y-154741855D01*
X148029157Y-154491752D01*
X148126481Y-154217391D01*
X148005814Y-153987500D01*
X146812000Y-153987500D01*
X146558000Y-153987500D01*
X144272000Y-153987500D01*
X144018000Y-153987500D01*
X143998000Y-153987500D01*
X143998000Y-153733500D01*
X144018000Y-153733500D01*
X144018000Y-153713500D01*
X144272000Y-153713500D01*
X144272000Y-153733500D01*
X146558000Y-153733500D01*
X146558000Y-153713500D01*
X146812000Y-153713500D01*
X146812000Y-153733500D01*
X148005814Y-153733500D01*
X148126481Y-153503609D01*
X148029157Y-153229248D01*
X147880178Y-152979145D01*
X147685269Y-152762912D01*
X147455594Y-152591600D01*
X147631632Y-152473975D01*
X147838475Y-152267132D01*
X148000990Y-152023911D01*
X148016109Y-151987409D01*
X148866354Y-152837655D01*
%TD*%
M02*
