%TF.GenerationSoftware,KiCad,Pcbnew,8.0.8*%
%TF.CreationDate,2025-01-30T22:26:20+01:00*%
%TF.ProjectId,pointMotor,706f696e-744d-46f7-946f-722e6b696361,rev?*%
%TF.SameCoordinates,Original*%
%TF.FileFunction,Copper,L2,Bot*%
%TF.FilePolarity,Positive*%
%FSLAX46Y46*%
G04 Gerber Fmt 4.6, Leading zero omitted, Abs format (unit mm)*
G04 Created by KiCad (PCBNEW 8.0.8) date 2025-01-30 22:26:20*
%MOMM*%
%LPD*%
G01*
G04 APERTURE LIST*
G04 Aperture macros list*
%AMRoundRect*
0 Rectangle with rounded corners*
0 $1 Rounding radius*
0 $2 $3 $4 $5 $6 $7 $8 $9 X,Y pos of 4 corners*
0 Add a 4 corners polygon primitive as box body*
4,1,4,$2,$3,$4,$5,$6,$7,$8,$9,$2,$3,0*
0 Add four circle primitives for the rounded corners*
1,1,$1+$1,$2,$3*
1,1,$1+$1,$4,$5*
1,1,$1+$1,$6,$7*
1,1,$1+$1,$8,$9*
0 Add four rect primitives between the rounded corners*
20,1,$1+$1,$2,$3,$4,$5,0*
20,1,$1+$1,$4,$5,$6,$7,0*
20,1,$1+$1,$6,$7,$8,$9,0*
20,1,$1+$1,$8,$9,$2,$3,0*%
G04 Aperture macros list end*
%TA.AperFunction,ComponentPad*%
%ADD10RoundRect,0.250000X-1.550000X0.650000X-1.550000X-0.650000X1.550000X-0.650000X1.550000X0.650000X0*%
%TD*%
%TA.AperFunction,ComponentPad*%
%ADD11O,3.600000X1.800000*%
%TD*%
%TA.AperFunction,ComponentPad*%
%ADD12RoundRect,0.250000X1.550000X-0.650000X1.550000X0.650000X-1.550000X0.650000X-1.550000X-0.650000X0*%
%TD*%
%TA.AperFunction,ComponentPad*%
%ADD13R,1.500000X1.500000*%
%TD*%
%TA.AperFunction,ComponentPad*%
%ADD14O,1.500000X1.500000*%
%TD*%
%TA.AperFunction,ComponentPad*%
%ADD15R,1.710000X1.800000*%
%TD*%
%TA.AperFunction,ComponentPad*%
%ADD16O,1.710000X1.800000*%
%TD*%
%TA.AperFunction,ComponentPad*%
%ADD17C,1.524000*%
%TD*%
%TA.AperFunction,ComponentPad*%
%ADD18C,1.400000*%
%TD*%
%TA.AperFunction,ComponentPad*%
%ADD19O,1.400000X1.400000*%
%TD*%
%TA.AperFunction,ViaPad*%
%ADD20C,0.600000*%
%TD*%
%TA.AperFunction,ViaPad*%
%ADD21C,0.800000*%
%TD*%
%TA.AperFunction,Conductor*%
%ADD22C,0.500000*%
%TD*%
G04 APERTURE END LIST*
D10*
%TO.P,J1,1,Pin_1*%
%TO.N,/coilB*%
X107000000Y-79055000D03*
D11*
%TO.P,J1,2,Pin_2*%
%TO.N,/collector*%
X107000000Y-82555000D03*
%TO.P,J1,3,Pin_3*%
%TO.N,/coilA*%
X107000000Y-86055000D03*
%TD*%
D12*
%TO.P,J101,1,Pin_1*%
%TO.N,/NO1_FROG*%
X125000000Y-86000000D03*
D11*
%TO.P,J101,2,Pin_2*%
%TO.N,/NC_FROQ*%
X125000000Y-82500000D03*
%TO.P,J101,3,Pin_3*%
%TO.N,/NO2_FROG*%
X125000000Y-79000000D03*
%TD*%
D13*
%TO.P,D102,1,K*%
%TO.N,Net-(D102-K)*%
X119815000Y-92000000D03*
D14*
%TO.P,D102,2,A*%
%TO.N,Net-(D101-K)*%
X112195000Y-92000000D03*
%TD*%
D15*
%TO.P,Q2,1,E*%
%TO.N,/motA*%
X124726000Y-73787000D03*
D16*
%TO.P,Q2,2,C*%
%TO.N,/collector*%
X127006000Y-73787000D03*
%TO.P,Q2,3,B*%
%TO.N,/coilA*%
X129286000Y-73787000D03*
%TD*%
D13*
%TO.P,D1,1,K*%
%TO.N,/coilB*%
X112644000Y-86741000D03*
D14*
%TO.P,D1,2,A*%
%TO.N,/NC*%
X120264000Y-86741000D03*
%TD*%
D17*
%TO.P,SW103,1,A*%
%TO.N,unconnected-(SW103-A-Pad1)*%
X112580000Y-114520000D03*
%TO.P,SW103,2,B*%
%TO.N,/NC_FROQ*%
X102420000Y-114510000D03*
%TO.P,SW103,3,C*%
%TO.N,/NO1_FROG*%
X107500000Y-114510000D03*
%TD*%
D13*
%TO.P,D101,1,K*%
%TO.N,Net-(D101-K)*%
X112185000Y-94189000D03*
D14*
%TO.P,D101,2,A*%
%TO.N,Net-(D101-A)*%
X119805000Y-94189000D03*
%TD*%
D17*
%TO.P,SW102,1,A*%
%TO.N,/NC*%
X119420000Y-108000000D03*
%TO.P,SW102,2,B*%
%TO.N,Net-(D102-K)*%
X129580000Y-108010000D03*
%TO.P,SW102,3,C*%
%TO.N,/NO2*%
X124500000Y-108010000D03*
%TD*%
D18*
%TO.P,R2,1*%
%TO.N,/collector*%
X112522000Y-84328000D03*
D19*
%TO.P,R2,2*%
%TO.N,/coilA*%
X120142000Y-84328000D03*
%TD*%
D17*
%TO.P,SW104,1,A*%
%TO.N,unconnected-(SW104-A-Pad1)*%
X119420000Y-114500000D03*
%TO.P,SW104,2,B*%
%TO.N,/NC_FROQ*%
X129580000Y-114510000D03*
%TO.P,SW104,3,C*%
%TO.N,/NO2_FROG*%
X124500000Y-114510000D03*
%TD*%
D18*
%TO.P,R1,1*%
%TO.N,/collector*%
X112522000Y-82067000D03*
D19*
%TO.P,R1,2*%
%TO.N,/coilB*%
X120142000Y-82067000D03*
%TD*%
D15*
%TO.P,Q1,1,E*%
%TO.N,/NC*%
X103220000Y-74000000D03*
D16*
%TO.P,Q1,2,C*%
%TO.N,/collector*%
X105500000Y-74000000D03*
%TO.P,Q1,3,B*%
%TO.N,/coilB*%
X107780000Y-74000000D03*
%TD*%
D17*
%TO.P,SW101,1,A*%
%TO.N,/NC*%
X112580000Y-108020000D03*
%TO.P,SW101,2,B*%
%TO.N,Net-(D101-A)*%
X102420000Y-108010000D03*
%TO.P,SW101,3,C*%
%TO.N,/NO1*%
X107500000Y-108010000D03*
%TD*%
D13*
%TO.P,D2,1,K*%
%TO.N,/coilA*%
X112685000Y-89000000D03*
D14*
%TO.P,D2,2,A*%
%TO.N,/motA*%
X120305000Y-89000000D03*
%TD*%
D20*
%TO.N,*%
X119000000Y-97409000D03*
X107000000Y-101192000D03*
X125000000Y-101192000D03*
X124968000Y-98325000D03*
X106968000Y-102108000D03*
X113000000Y-101192000D03*
X112968000Y-102108000D03*
X113000000Y-97409000D03*
X106968000Y-98325000D03*
X119000000Y-101192000D03*
X125000000Y-97409000D03*
X118968000Y-102108000D03*
X112968000Y-98325000D03*
X107000000Y-97409000D03*
X124968000Y-102108000D03*
X118968000Y-98325000D03*
D21*
%TO.N,Net-(D101-K)*%
X119126000Y-89916000D03*
X121949541Y-90961541D03*
%TO.N,Net-(D102-K)*%
X125100000Y-106301000D03*
%TO.N,/NC*%
X116066459Y-91138459D03*
X117475000Y-96239000D03*
X117475000Y-92583000D03*
X117475000Y-94539000D03*
%TO.N,/coilA*%
X118745000Y-87884000D03*
X121920000Y-79121000D03*
%TO.N,/motA*%
X116500000Y-74000000D03*
X114826022Y-85891000D03*
X118237000Y-89000000D03*
X120500000Y-74000000D03*
%TD*%
D22*
%TO.N,Net-(D101-K)*%
X121188000Y-90200000D02*
X119410000Y-90200000D01*
X119410000Y-90200000D02*
X119126000Y-89916000D01*
X121949541Y-90961541D02*
X121188000Y-90200000D01*
%TO.N,Net-(D102-K)*%
X125100000Y-106301000D02*
X126809000Y-108010000D01*
X126809000Y-108010000D02*
X129580000Y-108010000D01*
%TO.N,/NC*%
X116066459Y-91138459D02*
X116066459Y-91174459D01*
X116066459Y-91174459D02*
X117475000Y-92583000D01*
X117475000Y-96239000D02*
X117475000Y-94539000D01*
%TO.N,/coilA*%
X121920000Y-82550000D02*
X121920000Y-79121000D01*
X118745000Y-87884000D02*
X118745000Y-85725000D01*
X120142000Y-84328000D02*
X121920000Y-82550000D01*
X118745000Y-85725000D02*
X120142000Y-84328000D01*
%TO.N,/motA*%
X116500000Y-74000000D02*
X120500000Y-74000000D01*
X114826022Y-85891000D02*
X115128000Y-85891000D01*
X115128000Y-85891000D02*
X118237000Y-89000000D01*
%TD*%
M02*
