%TF.GenerationSoftware,KiCad,Pcbnew,8.0.8*%
%TF.CreationDate,2025-01-30T22:26:20+01:00*%
%TF.ProjectId,pointMotor,706f696e-744d-46f7-946f-722e6b696361,rev?*%
%TF.SameCoordinates,Original*%
%TF.FileFunction,Legend,Bot*%
%TF.FilePolarity,Positive*%
%FSLAX46Y46*%
G04 Gerber Fmt 4.6, Leading zero omitted, Abs format (unit mm)*
G04 Created by KiCad (PCBNEW 8.0.8) date 2025-01-30 22:26:20*
%MOMM*%
%LPD*%
G01*
G04 APERTURE LIST*
G04 Aperture macros list*
%AMRoundRect*
0 Rectangle with rounded corners*
0 $1 Rounding radius*
0 $2 $3 $4 $5 $6 $7 $8 $9 X,Y pos of 4 corners*
0 Add a 4 corners polygon primitive as box body*
4,1,4,$2,$3,$4,$5,$6,$7,$8,$9,$2,$3,0*
0 Add four circle primitives for the rounded corners*
1,1,$1+$1,$2,$3*
1,1,$1+$1,$4,$5*
1,1,$1+$1,$6,$7*
1,1,$1+$1,$8,$9*
0 Add four rect primitives between the rounded corners*
20,1,$1+$1,$2,$3,$4,$5,0*
20,1,$1+$1,$4,$5,$6,$7,0*
20,1,$1+$1,$6,$7,$8,$9,0*
20,1,$1+$1,$8,$9,$2,$3,0*%
G04 Aperture macros list end*
%ADD10C,0.150000*%
%ADD11C,0.000000*%
%ADD12C,0.010000*%
%ADD13RoundRect,0.250000X-1.550000X0.650000X-1.550000X-0.650000X1.550000X-0.650000X1.550000X0.650000X0*%
%ADD14O,3.600000X1.800000*%
%ADD15RoundRect,0.250000X1.550000X-0.650000X1.550000X0.650000X-1.550000X0.650000X-1.550000X-0.650000X0*%
%ADD16R,1.500000X1.500000*%
%ADD17O,1.500000X1.500000*%
%ADD18R,1.710000X1.800000*%
%ADD19O,1.710000X1.800000*%
%ADD20C,3.200000*%
%ADD21C,1.524000*%
%ADD22C,1.400000*%
%ADD23O,1.400000X1.400000*%
G04 APERTURE END LIST*
D10*
X122252619Y-96339819D02*
X122252619Y-95339819D01*
X122252619Y-95339819D02*
X121919286Y-96054104D01*
X121919286Y-96054104D02*
X121585953Y-95339819D01*
X121585953Y-95339819D02*
X121585953Y-96339819D01*
X120681191Y-96339819D02*
X120681191Y-95816009D01*
X120681191Y-95816009D02*
X120728810Y-95720771D01*
X120728810Y-95720771D02*
X120824048Y-95673152D01*
X120824048Y-95673152D02*
X121014524Y-95673152D01*
X121014524Y-95673152D02*
X121109762Y-95720771D01*
X120681191Y-96292200D02*
X120776429Y-96339819D01*
X120776429Y-96339819D02*
X121014524Y-96339819D01*
X121014524Y-96339819D02*
X121109762Y-96292200D01*
X121109762Y-96292200D02*
X121157381Y-96196961D01*
X121157381Y-96196961D02*
X121157381Y-96101723D01*
X121157381Y-96101723D02*
X121109762Y-96006485D01*
X121109762Y-96006485D02*
X121014524Y-95958866D01*
X121014524Y-95958866D02*
X120776429Y-95958866D01*
X120776429Y-95958866D02*
X120681191Y-95911247D01*
X120252619Y-96292200D02*
X120157381Y-96339819D01*
X120157381Y-96339819D02*
X119966905Y-96339819D01*
X119966905Y-96339819D02*
X119871667Y-96292200D01*
X119871667Y-96292200D02*
X119824048Y-96196961D01*
X119824048Y-96196961D02*
X119824048Y-96149342D01*
X119824048Y-96149342D02*
X119871667Y-96054104D01*
X119871667Y-96054104D02*
X119966905Y-96006485D01*
X119966905Y-96006485D02*
X120109762Y-96006485D01*
X120109762Y-96006485D02*
X120205000Y-95958866D01*
X120205000Y-95958866D02*
X120252619Y-95863628D01*
X120252619Y-95863628D02*
X120252619Y-95816009D01*
X120252619Y-95816009D02*
X120205000Y-95720771D01*
X120205000Y-95720771D02*
X120109762Y-95673152D01*
X120109762Y-95673152D02*
X119966905Y-95673152D01*
X119966905Y-95673152D02*
X119871667Y-95720771D01*
X119538333Y-95673152D02*
X119157381Y-95673152D01*
X119395476Y-95339819D02*
X119395476Y-96196961D01*
X119395476Y-96196961D02*
X119347857Y-96292200D01*
X119347857Y-96292200D02*
X119252619Y-96339819D01*
X119252619Y-96339819D02*
X119157381Y-96339819D01*
X118443095Y-96292200D02*
X118538333Y-96339819D01*
X118538333Y-96339819D02*
X118728809Y-96339819D01*
X118728809Y-96339819D02*
X118824047Y-96292200D01*
X118824047Y-96292200D02*
X118871666Y-96196961D01*
X118871666Y-96196961D02*
X118871666Y-95816009D01*
X118871666Y-95816009D02*
X118824047Y-95720771D01*
X118824047Y-95720771D02*
X118728809Y-95673152D01*
X118728809Y-95673152D02*
X118538333Y-95673152D01*
X118538333Y-95673152D02*
X118443095Y-95720771D01*
X118443095Y-95720771D02*
X118395476Y-95816009D01*
X118395476Y-95816009D02*
X118395476Y-95911247D01*
X118395476Y-95911247D02*
X118871666Y-96006485D01*
X117966904Y-96339819D02*
X117966904Y-95673152D01*
X117966904Y-95863628D02*
X117919285Y-95768390D01*
X117919285Y-95768390D02*
X117871666Y-95720771D01*
X117871666Y-95720771D02*
X117776428Y-95673152D01*
X117776428Y-95673152D02*
X117681190Y-95673152D01*
X116443094Y-96339819D02*
X116538332Y-96292200D01*
X116538332Y-96292200D02*
X116585951Y-96244580D01*
X116585951Y-96244580D02*
X116633570Y-96149342D01*
X116633570Y-96149342D02*
X116633570Y-95863628D01*
X116633570Y-95863628D02*
X116585951Y-95768390D01*
X116585951Y-95768390D02*
X116538332Y-95720771D01*
X116538332Y-95720771D02*
X116443094Y-95673152D01*
X116443094Y-95673152D02*
X116300237Y-95673152D01*
X116300237Y-95673152D02*
X116204999Y-95720771D01*
X116204999Y-95720771D02*
X116157380Y-95768390D01*
X116157380Y-95768390D02*
X116109761Y-95863628D01*
X116109761Y-95863628D02*
X116109761Y-96149342D01*
X116109761Y-96149342D02*
X116157380Y-96244580D01*
X116157380Y-96244580D02*
X116204999Y-96292200D01*
X116204999Y-96292200D02*
X116300237Y-96339819D01*
X116300237Y-96339819D02*
X116443094Y-96339819D01*
X115824046Y-95673152D02*
X115443094Y-95673152D01*
X115681189Y-96339819D02*
X115681189Y-95482676D01*
X115681189Y-95482676D02*
X115633570Y-95387438D01*
X115633570Y-95387438D02*
X115538332Y-95339819D01*
X115538332Y-95339819D02*
X115443094Y-95339819D01*
X114347855Y-96339819D02*
X114347855Y-95339819D01*
X114347855Y-95339819D02*
X113966903Y-95339819D01*
X113966903Y-95339819D02*
X113871665Y-95387438D01*
X113871665Y-95387438D02*
X113824046Y-95435057D01*
X113824046Y-95435057D02*
X113776427Y-95530295D01*
X113776427Y-95530295D02*
X113776427Y-95673152D01*
X113776427Y-95673152D02*
X113824046Y-95768390D01*
X113824046Y-95768390D02*
X113871665Y-95816009D01*
X113871665Y-95816009D02*
X113966903Y-95863628D01*
X113966903Y-95863628D02*
X114347855Y-95863628D01*
X113204998Y-96339819D02*
X113300236Y-96292200D01*
X113300236Y-96292200D02*
X113347855Y-96244580D01*
X113347855Y-96244580D02*
X113395474Y-96149342D01*
X113395474Y-96149342D02*
X113395474Y-95863628D01*
X113395474Y-95863628D02*
X113347855Y-95768390D01*
X113347855Y-95768390D02*
X113300236Y-95720771D01*
X113300236Y-95720771D02*
X113204998Y-95673152D01*
X113204998Y-95673152D02*
X113062141Y-95673152D01*
X113062141Y-95673152D02*
X112966903Y-95720771D01*
X112966903Y-95720771D02*
X112919284Y-95768390D01*
X112919284Y-95768390D02*
X112871665Y-95863628D01*
X112871665Y-95863628D02*
X112871665Y-96149342D01*
X112871665Y-96149342D02*
X112919284Y-96244580D01*
X112919284Y-96244580D02*
X112966903Y-96292200D01*
X112966903Y-96292200D02*
X113062141Y-96339819D01*
X113062141Y-96339819D02*
X113204998Y-96339819D01*
X112443093Y-96339819D02*
X112443093Y-95673152D01*
X112443093Y-95339819D02*
X112490712Y-95387438D01*
X112490712Y-95387438D02*
X112443093Y-95435057D01*
X112443093Y-95435057D02*
X112395474Y-95387438D01*
X112395474Y-95387438D02*
X112443093Y-95339819D01*
X112443093Y-95339819D02*
X112443093Y-95435057D01*
X111966903Y-95673152D02*
X111966903Y-96339819D01*
X111966903Y-95768390D02*
X111919284Y-95720771D01*
X111919284Y-95720771D02*
X111824046Y-95673152D01*
X111824046Y-95673152D02*
X111681189Y-95673152D01*
X111681189Y-95673152D02*
X111585951Y-95720771D01*
X111585951Y-95720771D02*
X111538332Y-95816009D01*
X111538332Y-95816009D02*
X111538332Y-96339819D01*
X111204998Y-95673152D02*
X110824046Y-95673152D01*
X111062141Y-95339819D02*
X111062141Y-96196961D01*
X111062141Y-96196961D02*
X111014522Y-96292200D01*
X111014522Y-96292200D02*
X110919284Y-96339819D01*
X110919284Y-96339819D02*
X110824046Y-96339819D01*
X110538331Y-96292200D02*
X110443093Y-96339819D01*
X110443093Y-96339819D02*
X110252617Y-96339819D01*
X110252617Y-96339819D02*
X110157379Y-96292200D01*
X110157379Y-96292200D02*
X110109760Y-96196961D01*
X110109760Y-96196961D02*
X110109760Y-96149342D01*
X110109760Y-96149342D02*
X110157379Y-96054104D01*
X110157379Y-96054104D02*
X110252617Y-96006485D01*
X110252617Y-96006485D02*
X110395474Y-96006485D01*
X110395474Y-96006485D02*
X110490712Y-95958866D01*
X110490712Y-95958866D02*
X110538331Y-95863628D01*
X110538331Y-95863628D02*
X110538331Y-95816009D01*
X110538331Y-95816009D02*
X110490712Y-95720771D01*
X110490712Y-95720771D02*
X110395474Y-95673152D01*
X110395474Y-95673152D02*
X110252617Y-95673152D01*
X110252617Y-95673152D02*
X110157379Y-95720771D01*
D11*
%TO.C,G\u002A\u002A\u002A*%
G36*
X115015643Y-80578200D02*
G01*
X114854679Y-80578200D01*
X114854679Y-79837769D01*
X115015643Y-79837769D01*
X115015643Y-80578200D01*
G37*
G36*
X118106137Y-80578200D02*
G01*
X117945174Y-80578200D01*
X117945174Y-79837769D01*
X118106137Y-79837769D01*
X118106137Y-80578200D01*
G37*
G36*
X114978562Y-79578361D02*
G01*
X115009833Y-79636565D01*
X115011714Y-79653786D01*
X114998546Y-79697959D01*
X114939300Y-79708999D01*
X114885002Y-79703300D01*
X114836463Y-79667248D01*
X114842576Y-79597528D01*
X114866557Y-79565565D01*
X114922317Y-79552714D01*
X114978562Y-79578361D01*
G37*
G36*
X118069057Y-79578361D02*
G01*
X118100328Y-79636565D01*
X118102208Y-79653786D01*
X118089040Y-79697959D01*
X118029794Y-79708999D01*
X117975497Y-79703300D01*
X117926957Y-79667248D01*
X117933070Y-79597528D01*
X117957051Y-79565565D01*
X118012811Y-79552714D01*
X118069057Y-79578361D01*
G37*
G36*
X116880697Y-80106845D02*
G01*
X116951403Y-80133919D01*
X116979394Y-80176406D01*
X116977883Y-80186965D01*
X116952379Y-80209353D01*
X116886268Y-80220841D01*
X116767781Y-80224081D01*
X116668351Y-80222672D01*
X116598453Y-80215260D01*
X116568951Y-80198166D01*
X116566845Y-80167744D01*
X116568713Y-80161014D01*
X116611283Y-80122266D01*
X116690737Y-80100600D01*
X116787175Y-80095599D01*
X116880697Y-80106845D01*
G37*
G36*
X119426035Y-80578200D02*
G01*
X119345554Y-80578200D01*
X119320154Y-80577549D01*
X119288963Y-80567539D01*
X119272538Y-80534440D01*
X119266151Y-80464488D01*
X119265072Y-80343919D01*
X119264820Y-80311100D01*
X119252100Y-80150385D01*
X119217695Y-80043818D01*
X119158170Y-79984752D01*
X119070091Y-79966540D01*
X119048283Y-79966013D01*
X118990873Y-79949633D01*
X118975338Y-79902155D01*
X118982379Y-79874259D01*
X119030967Y-79841074D01*
X119110476Y-79839196D01*
X119202803Y-79871095D01*
X119245366Y-79887977D01*
X119265072Y-79871095D01*
X119285060Y-79849174D01*
X119345554Y-79837769D01*
X119426035Y-79837769D01*
X119426035Y-80578200D01*
G37*
G36*
X119991250Y-79548161D02*
G01*
X120129928Y-79549892D01*
X120218901Y-79554863D01*
X120268335Y-79564589D01*
X120288399Y-79580588D01*
X120289260Y-79604373D01*
X120276923Y-79631105D01*
X120226526Y-79657408D01*
X120125936Y-79670522D01*
X119973310Y-79680334D01*
X119973310Y-80578200D01*
X119812347Y-80578200D01*
X119812347Y-79676806D01*
X119667480Y-79676806D01*
X119657073Y-79676782D01*
X119571451Y-79671683D01*
X119532092Y-79652657D01*
X119522613Y-79612421D01*
X119524076Y-79593024D01*
X119536582Y-79572129D01*
X119570918Y-79558945D01*
X119637722Y-79551709D01*
X119747632Y-79548660D01*
X119911286Y-79548036D01*
X119991250Y-79548161D01*
G37*
G36*
X112845443Y-79852527D02*
G01*
X112949074Y-79913042D01*
X113014761Y-80023108D01*
X113045213Y-80185733D01*
X113050723Y-80294215D01*
X113043240Y-80366703D01*
X113015730Y-80420957D01*
X112961565Y-80480323D01*
X112927476Y-80512169D01*
X112841070Y-80564144D01*
X112736007Y-80578200D01*
X112634735Y-80564981D01*
X112543331Y-80524764D01*
X112488377Y-80467108D01*
X112483822Y-80401773D01*
X112495453Y-80374932D01*
X112518884Y-80362129D01*
X112564159Y-80396759D01*
X112565143Y-80397642D01*
X112654839Y-80441772D01*
X112756361Y-80442246D01*
X112840339Y-80398841D01*
X112850905Y-80386043D01*
X112881926Y-80303032D01*
X112890505Y-80194878D01*
X112876643Y-80090078D01*
X112840339Y-80017129D01*
X112839462Y-80016260D01*
X112755057Y-79973442D01*
X112653499Y-79974500D01*
X112564159Y-80019211D01*
X112535801Y-80043557D01*
X112505105Y-80052981D01*
X112483822Y-80014197D01*
X112485209Y-79956548D01*
X112534895Y-79897368D01*
X112621854Y-79854371D01*
X112731736Y-79837769D01*
X112845443Y-79852527D01*
G37*
G36*
X115517433Y-79852527D02*
G01*
X115621064Y-79913042D01*
X115686751Y-80023108D01*
X115717202Y-80185733D01*
X115722713Y-80294215D01*
X115715230Y-80366703D01*
X115687720Y-80420957D01*
X115633554Y-80480323D01*
X115599466Y-80512169D01*
X115513060Y-80564144D01*
X115407997Y-80578200D01*
X115306725Y-80564981D01*
X115215321Y-80524764D01*
X115160367Y-80467108D01*
X115155812Y-80401773D01*
X115167442Y-80374932D01*
X115190874Y-80362129D01*
X115236149Y-80396759D01*
X115237132Y-80397642D01*
X115326829Y-80441772D01*
X115428351Y-80442246D01*
X115512329Y-80398841D01*
X115515808Y-80395116D01*
X115550068Y-80319813D01*
X115562918Y-80207985D01*
X115562829Y-80198249D01*
X115548026Y-80088454D01*
X115512329Y-80017129D01*
X115511452Y-80016260D01*
X115427046Y-79973442D01*
X115325489Y-79974500D01*
X115236149Y-80019211D01*
X115207791Y-80043557D01*
X115177095Y-80052981D01*
X115155812Y-80014197D01*
X115157199Y-79956548D01*
X115206885Y-79897368D01*
X115293844Y-79854371D01*
X115403726Y-79837769D01*
X115517433Y-79852527D01*
G37*
G36*
X116233545Y-79559551D02*
G01*
X116353050Y-79609279D01*
X116431625Y-79688715D01*
X116463703Y-79787357D01*
X116443715Y-79894707D01*
X116366095Y-80000264D01*
X116347912Y-80016568D01*
X116266092Y-80077866D01*
X116197083Y-80113566D01*
X116167151Y-80124271D01*
X116075182Y-80183964D01*
X116022659Y-80262595D01*
X116016147Y-80345370D01*
X116062212Y-80417493D01*
X116072171Y-80424264D01*
X116153009Y-80442002D01*
X116275064Y-80433359D01*
X116424071Y-80399064D01*
X116472108Y-80395068D01*
X116497312Y-80422510D01*
X116481630Y-80472052D01*
X116424956Y-80528086D01*
X116352362Y-80559597D01*
X116228995Y-80576193D01*
X116096443Y-80566535D01*
X115982505Y-80530471D01*
X115913918Y-80475535D01*
X115854175Y-80373564D01*
X115835510Y-80271135D01*
X115861286Y-80171193D01*
X115941892Y-80082305D01*
X116082028Y-79996699D01*
X116159544Y-79953443D01*
X116258966Y-79873245D01*
X116296040Y-79796183D01*
X116269874Y-79723550D01*
X116267325Y-79720703D01*
X116208866Y-79690818D01*
X116125363Y-79677888D01*
X116045389Y-79683439D01*
X115997518Y-79708999D01*
X115956666Y-79739789D01*
X115907818Y-79728914D01*
X115884844Y-79677939D01*
X115884846Y-79677335D01*
X115914524Y-79608240D01*
X115997550Y-79563771D01*
X116126289Y-79548036D01*
X116233545Y-79559551D01*
G37*
G36*
X118909800Y-80357537D02*
G01*
X118895997Y-80453657D01*
X118841052Y-80526932D01*
X118793337Y-80549617D01*
X118689055Y-80567821D01*
X118532320Y-80571021D01*
X118293488Y-80566149D01*
X118302949Y-80310009D01*
X118460256Y-80310009D01*
X118465663Y-80347033D01*
X118498887Y-80410799D01*
X118540907Y-80436034D01*
X118619587Y-80448708D01*
X118695211Y-80435887D01*
X118739178Y-80398977D01*
X118741371Y-80341434D01*
X118689613Y-80296669D01*
X118578200Y-80266989D01*
X118507399Y-80258870D01*
X118469113Y-80270273D01*
X118460256Y-80310009D01*
X118302949Y-80310009D01*
X118304439Y-80269661D01*
X118307750Y-80196881D01*
X118323189Y-80042138D01*
X118353297Y-79938404D01*
X118404525Y-79876130D01*
X118483320Y-79845768D01*
X118596132Y-79837769D01*
X118631023Y-79838364D01*
X118763633Y-79855257D01*
X118848723Y-79893209D01*
X118878760Y-79949250D01*
X118878575Y-79953278D01*
X118860746Y-79976184D01*
X118804931Y-79982973D01*
X118698538Y-79975480D01*
X118600247Y-79968689D01*
X118526450Y-79975964D01*
X118489779Y-80001951D01*
X118467171Y-80048663D01*
X118468730Y-80105832D01*
X118516593Y-80127683D01*
X118578848Y-80133723D01*
X118689053Y-80160717D01*
X118792915Y-80200608D01*
X118861578Y-80243690D01*
X118880410Y-80266887D01*
X118904579Y-80341434D01*
X118909800Y-80357537D01*
G37*
G36*
X112363062Y-80108000D02*
G01*
X112367043Y-80279890D01*
X112362990Y-80310586D01*
X112329673Y-80423779D01*
X112264543Y-80504705D01*
X112251593Y-80514820D01*
X112163060Y-80555354D01*
X112052826Y-80575154D01*
X111937745Y-80575338D01*
X111834676Y-80557024D01*
X111760473Y-80521331D01*
X111731992Y-80469376D01*
X111732595Y-80462067D01*
X111752625Y-80440300D01*
X111810476Y-80433706D01*
X111918940Y-80440295D01*
X111994509Y-80444072D01*
X112118577Y-80427168D01*
X112191215Y-80374960D01*
X112214882Y-80286167D01*
X112214110Y-80271882D01*
X112201383Y-80246313D01*
X112162931Y-80231892D01*
X112085877Y-80225517D01*
X111957341Y-80224081D01*
X111699800Y-80224081D01*
X111699800Y-80125027D01*
X111711096Y-80069557D01*
X111860763Y-80069557D01*
X111876534Y-80080152D01*
X111940846Y-80091076D01*
X112037822Y-80095311D01*
X112110663Y-80093017D01*
X112185767Y-80083662D01*
X112214882Y-80069557D01*
X112197398Y-80026073D01*
X112132491Y-79983306D01*
X112037822Y-79966540D01*
X111963085Y-79976712D01*
X111889579Y-80014477D01*
X111860763Y-80069557D01*
X111711096Y-80069557D01*
X111717427Y-80038471D01*
X111784589Y-79937669D01*
X111886043Y-79865419D01*
X112004752Y-79837769D01*
X112069651Y-79841482D01*
X112211413Y-79885192D01*
X112310201Y-79975233D01*
X112347756Y-80069557D01*
X112363062Y-80108000D01*
G37*
G36*
X113808632Y-79838988D02*
G01*
X113832082Y-79849787D01*
X113846311Y-79881124D01*
X113853622Y-79943962D01*
X113856320Y-80049262D01*
X113856707Y-80207985D01*
X113856707Y-80578200D01*
X113776226Y-80578200D01*
X113742899Y-80576724D01*
X113716045Y-80563601D01*
X113702001Y-80525642D01*
X113696617Y-80449664D01*
X113695744Y-80322485D01*
X113695648Y-80283304D01*
X113692459Y-80166262D01*
X113681981Y-80093461D01*
X113660472Y-80048920D01*
X113624196Y-80016654D01*
X113606838Y-80005399D01*
X113517310Y-79971399D01*
X113439414Y-79975444D01*
X113393358Y-80017462D01*
X113391401Y-80023840D01*
X113382470Y-80089366D01*
X113376190Y-80195739D01*
X113373817Y-80323292D01*
X113373363Y-80428007D01*
X113369258Y-80513522D01*
X113357330Y-80558257D01*
X113333413Y-80575415D01*
X113293336Y-80578200D01*
X113288166Y-80578194D01*
X113251666Y-80574987D01*
X113229405Y-80557328D01*
X113217863Y-80512734D01*
X113213520Y-80428722D01*
X113212854Y-80292808D01*
X113218764Y-80128568D01*
X113242825Y-79990150D01*
X113289329Y-79900519D01*
X113362433Y-79852213D01*
X113466293Y-79837769D01*
X113480737Y-79838050D01*
X113569895Y-79851219D01*
X113628944Y-79878010D01*
X113664858Y-79902107D01*
X113686354Y-79878010D01*
X113713439Y-79852507D01*
X113778908Y-79837769D01*
X113808632Y-79838988D01*
G37*
G36*
X114680933Y-80108000D02*
G01*
X114684913Y-80279890D01*
X114680861Y-80310586D01*
X114647544Y-80423779D01*
X114582414Y-80504705D01*
X114569464Y-80514820D01*
X114480931Y-80555354D01*
X114370696Y-80575154D01*
X114255616Y-80575338D01*
X114152546Y-80557024D01*
X114078343Y-80521331D01*
X114049863Y-80469376D01*
X114050465Y-80462067D01*
X114070496Y-80440300D01*
X114128347Y-80433706D01*
X114236811Y-80440295D01*
X114312380Y-80444072D01*
X114436448Y-80427168D01*
X114509086Y-80374960D01*
X114532753Y-80286167D01*
X114531980Y-80271882D01*
X114519254Y-80246313D01*
X114480802Y-80231892D01*
X114403747Y-80225517D01*
X114275212Y-80224081D01*
X114017670Y-80224081D01*
X114017670Y-80125027D01*
X114028967Y-80069557D01*
X114178634Y-80069557D01*
X114194405Y-80080152D01*
X114258717Y-80091076D01*
X114355693Y-80095311D01*
X114428534Y-80093017D01*
X114503637Y-80083662D01*
X114532753Y-80069557D01*
X114515269Y-80026073D01*
X114450361Y-79983306D01*
X114355693Y-79966540D01*
X114280956Y-79976712D01*
X114207450Y-80014477D01*
X114178634Y-80069557D01*
X114028967Y-80069557D01*
X114035298Y-80038471D01*
X114102460Y-79937669D01*
X114203914Y-79865419D01*
X114322623Y-79837769D01*
X114387522Y-79841482D01*
X114529284Y-79885192D01*
X114628072Y-79975233D01*
X114665627Y-80069557D01*
X114680933Y-80108000D01*
G37*
G36*
X117703943Y-79838988D02*
G01*
X117727392Y-79849787D01*
X117741621Y-79881124D01*
X117748933Y-79943962D01*
X117751630Y-80049262D01*
X117752018Y-80207985D01*
X117752018Y-80578200D01*
X117671536Y-80578200D01*
X117638209Y-80576724D01*
X117611355Y-80563601D01*
X117597311Y-80525642D01*
X117591927Y-80449664D01*
X117591054Y-80322485D01*
X117590958Y-80283304D01*
X117587770Y-80166262D01*
X117577291Y-80093461D01*
X117555783Y-80048920D01*
X117519506Y-80016654D01*
X117502149Y-80005399D01*
X117412620Y-79971399D01*
X117334725Y-79975444D01*
X117288669Y-80017462D01*
X117286712Y-80023840D01*
X117277781Y-80089366D01*
X117271501Y-80195739D01*
X117269128Y-80323292D01*
X117268674Y-80428007D01*
X117264568Y-80513522D01*
X117252641Y-80558257D01*
X117228723Y-80575415D01*
X117188646Y-80578200D01*
X117183476Y-80578194D01*
X117146976Y-80574987D01*
X117124716Y-80557328D01*
X117113174Y-80512734D01*
X117108830Y-80428722D01*
X117108165Y-80292808D01*
X117114075Y-80128568D01*
X117138135Y-79990150D01*
X117184639Y-79900519D01*
X117257743Y-79852213D01*
X117361604Y-79837769D01*
X117376048Y-79838050D01*
X117465205Y-79851219D01*
X117524255Y-79878010D01*
X117560168Y-79902107D01*
X117581665Y-79878010D01*
X117608750Y-79852507D01*
X117674219Y-79837769D01*
X117703943Y-79838988D01*
G37*
G36*
X115943584Y-72810055D02*
G01*
X116050767Y-72832861D01*
X116151350Y-72856620D01*
X116268498Y-72882490D01*
X116351637Y-72898793D01*
X116473236Y-72920750D01*
X116611330Y-72953223D01*
X116698583Y-72986145D01*
X116729770Y-73006406D01*
X116737596Y-73039893D01*
X116708486Y-73103058D01*
X116678421Y-73162127D01*
X116632304Y-73258113D01*
X116578888Y-73372502D01*
X116525168Y-73489987D01*
X116478137Y-73595260D01*
X116444789Y-73673014D01*
X116432119Y-73707939D01*
X116441380Y-73715074D01*
X116490351Y-73721166D01*
X116530176Y-73727492D01*
X116603165Y-73761407D01*
X116618994Y-73773772D01*
X116639542Y-73803801D01*
X116631917Y-73849076D01*
X116595132Y-73930418D01*
X116555393Y-74014681D01*
X116506778Y-74121347D01*
X116456601Y-74233885D01*
X116411966Y-74336197D01*
X116379976Y-74412185D01*
X116367734Y-74445752D01*
X116380087Y-74453883D01*
X116431957Y-74470882D01*
X116448712Y-74475961D01*
X116497591Y-74509444D01*
X116510862Y-74569132D01*
X116488483Y-74664145D01*
X116430412Y-74803598D01*
X116371724Y-74931375D01*
X116313959Y-75057942D01*
X116270615Y-75153739D01*
X116229819Y-75244386D01*
X116172889Y-75370417D01*
X116114281Y-75499810D01*
X116065947Y-75599317D01*
X116009388Y-75689226D01*
X115967957Y-75716590D01*
X115941601Y-75681388D01*
X115930268Y-75583598D01*
X115933906Y-75423196D01*
X115937886Y-75353403D01*
X115946180Y-75204500D01*
X115955639Y-75031671D01*
X115964896Y-74859771D01*
X115984005Y-74501418D01*
X115899617Y-74480238D01*
X115894672Y-74478961D01*
X115854504Y-74461997D01*
X115833203Y-74429791D01*
X115829919Y-74370527D01*
X115843804Y-74272393D01*
X115874010Y-74123574D01*
X115878827Y-74100954D01*
X115908958Y-73949284D01*
X115922833Y-73846164D01*
X115920154Y-73779271D01*
X115900626Y-73736286D01*
X115863953Y-73704888D01*
X115861111Y-73703021D01*
X115831176Y-73680265D01*
X115811207Y-73651066D01*
X115799580Y-73603841D01*
X115794670Y-73527007D01*
X115794853Y-73408980D01*
X115798506Y-73238178D01*
X115799185Y-73211545D01*
X115804677Y-73057056D01*
X115811793Y-72928829D01*
X115819688Y-72839569D01*
X115827518Y-72801982D01*
X115862913Y-72799110D01*
X115943584Y-72810055D01*
G37*
G36*
X119159719Y-72583184D02*
G01*
X119080787Y-72732073D01*
X118975520Y-72924575D01*
X118842981Y-73162366D01*
X118682234Y-73447123D01*
X118492343Y-73780524D01*
X118272371Y-74164245D01*
X118021382Y-74599962D01*
X117738439Y-75089354D01*
X117689932Y-75173120D01*
X117473243Y-75547143D01*
X117265855Y-75904831D01*
X117070060Y-76242244D01*
X116888153Y-76555441D01*
X116722426Y-76840482D01*
X116575173Y-77093428D01*
X116448688Y-77310339D01*
X116345262Y-77487274D01*
X116267191Y-77620294D01*
X116216767Y-77705458D01*
X116196283Y-77738827D01*
X116156828Y-77763333D01*
X116082969Y-77771019D01*
X116073686Y-77768271D01*
X116053663Y-77754318D01*
X116026629Y-77725943D01*
X115990638Y-77679973D01*
X115943739Y-77613233D01*
X115883986Y-77522552D01*
X115809428Y-77404755D01*
X115718119Y-77256670D01*
X115608109Y-77075124D01*
X115477450Y-76856942D01*
X115324193Y-76598953D01*
X115146390Y-76297982D01*
X114942093Y-75950857D01*
X114709353Y-75554404D01*
X114446222Y-75105450D01*
X114197297Y-74679970D01*
X113936813Y-74233321D01*
X113707789Y-73838872D01*
X113509313Y-73495011D01*
X113340474Y-73200128D01*
X113200359Y-72952610D01*
X113088059Y-72750845D01*
X113002661Y-72593220D01*
X112978356Y-72546134D01*
X113248753Y-72546134D01*
X114656654Y-74951177D01*
X114826203Y-75240713D01*
X115030368Y-75589092D01*
X115223448Y-75918265D01*
X115403065Y-76224190D01*
X115566839Y-76502826D01*
X115712391Y-76750130D01*
X115837342Y-76962061D01*
X115939313Y-77134577D01*
X116015924Y-77263637D01*
X116064797Y-77345197D01*
X116083551Y-77375218D01*
X116097109Y-77358326D01*
X116140889Y-77290149D01*
X116212496Y-77173481D01*
X116309586Y-77012287D01*
X116429814Y-76810530D01*
X116570836Y-76572174D01*
X116730308Y-76301185D01*
X116905885Y-76001526D01*
X117095222Y-75677162D01*
X117295976Y-75332056D01*
X117505803Y-74970175D01*
X118909057Y-72546134D01*
X117493529Y-72537751D01*
X117201334Y-72536322D01*
X116790992Y-72535062D01*
X116350337Y-72534402D01*
X115898309Y-72534341D01*
X115453847Y-72534879D01*
X115035890Y-72536016D01*
X114663377Y-72537751D01*
X113248753Y-72546134D01*
X112978356Y-72546134D01*
X112943252Y-72478125D01*
X112908923Y-72403948D01*
X112898761Y-72369075D01*
X112907024Y-72288593D01*
X119248976Y-72288593D01*
X119248640Y-72385171D01*
X119242325Y-72409537D01*
X119213253Y-72476231D01*
X119178264Y-72546134D01*
X119159719Y-72583184D01*
G37*
G36*
X120487319Y-71977634D02*
G01*
X120418391Y-72101603D01*
X120331544Y-72254190D01*
X120225239Y-72438043D01*
X120097940Y-72655812D01*
X119948107Y-72910146D01*
X119774204Y-73203693D01*
X119574692Y-73539103D01*
X119348035Y-73919024D01*
X119092693Y-74346106D01*
X118807130Y-74822996D01*
X118489808Y-75352344D01*
X118426249Y-75458324D01*
X118162652Y-75897804D01*
X117908181Y-76321988D01*
X117664834Y-76727547D01*
X117434611Y-77111155D01*
X117219509Y-77469484D01*
X117021527Y-77799208D01*
X116842662Y-78097000D01*
X116684914Y-78359531D01*
X116550280Y-78583476D01*
X116440758Y-78765508D01*
X116358348Y-78902298D01*
X116305047Y-78990521D01*
X116282854Y-79026849D01*
X116234237Y-79077194D01*
X116151048Y-79091234D01*
X116145308Y-79089830D01*
X116128270Y-79079488D01*
X116105050Y-79057107D01*
X116073962Y-79019991D01*
X116033317Y-78965444D01*
X115981427Y-78890771D01*
X115916606Y-78793274D01*
X115837164Y-78670259D01*
X115741414Y-78519029D01*
X115627668Y-78336888D01*
X115494239Y-78121141D01*
X115339439Y-77869091D01*
X115161579Y-77578044D01*
X114958972Y-77245302D01*
X114729931Y-76868170D01*
X114472766Y-76443951D01*
X114185792Y-75969951D01*
X113867319Y-75443473D01*
X113824932Y-75373373D01*
X113483669Y-74808468D01*
X113175101Y-74296665D01*
X112898308Y-73836404D01*
X112652369Y-73426125D01*
X112436366Y-73064265D01*
X112249377Y-72749265D01*
X112090483Y-72479564D01*
X111958764Y-72253600D01*
X111853299Y-72069813D01*
X111773169Y-71926643D01*
X111760133Y-71902282D01*
X112029267Y-71902282D01*
X113820237Y-74864660D01*
X114029284Y-75210436D01*
X114273156Y-75613804D01*
X114509827Y-76005256D01*
X114736687Y-76380472D01*
X114951125Y-76735135D01*
X115150530Y-77064926D01*
X115332290Y-77365527D01*
X115493795Y-77632620D01*
X115632434Y-77861887D01*
X115745595Y-78049010D01*
X115830669Y-78189669D01*
X115885043Y-78279549D01*
X116158880Y-78732058D01*
X120256624Y-71902282D01*
X118199505Y-71893997D01*
X118118962Y-71893685D01*
X117664510Y-71892298D01*
X117164428Y-71891318D01*
X116634433Y-71890746D01*
X116090241Y-71890581D01*
X115547568Y-71890824D01*
X115022130Y-71891474D01*
X114529644Y-71892532D01*
X114085826Y-71893997D01*
X112029267Y-71902282D01*
X111760133Y-71902282D01*
X111717454Y-71822528D01*
X111685234Y-71755908D01*
X111675588Y-71725222D01*
X111683703Y-71644740D01*
X116133144Y-71636579D01*
X116729718Y-71635499D01*
X117295326Y-71634537D01*
X117802771Y-71633786D01*
X118255236Y-71633284D01*
X118655905Y-71633070D01*
X119007962Y-71633182D01*
X119314592Y-71633657D01*
X119578980Y-71634534D01*
X119804308Y-71635852D01*
X119993762Y-71637648D01*
X120150525Y-71639961D01*
X120277782Y-71642828D01*
X120378717Y-71646288D01*
X120456514Y-71650379D01*
X120514357Y-71655140D01*
X120555430Y-71660608D01*
X120582918Y-71666821D01*
X120600005Y-71673819D01*
X120609875Y-71681638D01*
X120615712Y-71690317D01*
X120616984Y-71694349D01*
X120614588Y-71714961D01*
X120601961Y-71750947D01*
X120577566Y-71804955D01*
X120539864Y-71879635D01*
X120527721Y-71902282D01*
X120487319Y-71977634D01*
G37*
D12*
%TO.C,REF\u002A\u002A*%
X112562501Y-112608476D02*
X112643167Y-112638440D01*
X112676714Y-112660954D01*
X112710687Y-112693212D01*
X112734919Y-112734246D01*
X112751001Y-112790108D01*
X112760521Y-112866851D01*
X112765068Y-112970525D01*
X112766231Y-113107184D01*
X112766003Y-113177805D01*
X112764860Y-113274308D01*
X112762919Y-113351323D01*
X112760365Y-113402319D01*
X112757381Y-113420769D01*
X112737962Y-113414667D01*
X112698766Y-113398095D01*
X112697589Y-113397558D01*
X112677235Y-113386903D01*
X112663546Y-113372282D01*
X112655199Y-113346673D01*
X112650874Y-113303054D01*
X112649248Y-113234403D01*
X112649000Y-113133698D01*
X112648500Y-113069813D01*
X112643164Y-112949751D01*
X112630945Y-112861809D01*
X112610552Y-112801375D01*
X112580695Y-112763836D01*
X112540082Y-112744581D01*
X112534448Y-112743239D01*
X112458378Y-112742191D01*
X112399052Y-112776271D01*
X112358077Y-112844598D01*
X112350770Y-112864351D01*
X112334114Y-112908066D01*
X112325679Y-112928155D01*
X112308356Y-112925387D01*
X112270525Y-112910365D01*
X112235240Y-112885556D01*
X112219154Y-112838670D01*
X112223952Y-112805087D01*
X112253431Y-112736967D01*
X112301098Y-112673134D01*
X112356839Y-112628988D01*
X112380193Y-112618782D01*
X112468619Y-112601718D01*
X112562501Y-112608476D01*
G36*
X112562501Y-112608476D02*
G01*
X112643167Y-112638440D01*
X112676714Y-112660954D01*
X112710687Y-112693212D01*
X112734919Y-112734246D01*
X112751001Y-112790108D01*
X112760521Y-112866851D01*
X112765068Y-112970525D01*
X112766231Y-113107184D01*
X112766003Y-113177805D01*
X112764860Y-113274308D01*
X112762919Y-113351323D01*
X112760365Y-113402319D01*
X112757381Y-113420769D01*
X112737962Y-113414667D01*
X112698766Y-113398095D01*
X112697589Y-113397558D01*
X112677235Y-113386903D01*
X112663546Y-113372282D01*
X112655199Y-113346673D01*
X112650874Y-113303054D01*
X112649248Y-113234403D01*
X112649000Y-113133698D01*
X112648500Y-113069813D01*
X112643164Y-112949751D01*
X112630945Y-112861809D01*
X112610552Y-112801375D01*
X112580695Y-112763836D01*
X112540082Y-112744581D01*
X112534448Y-112743239D01*
X112458378Y-112742191D01*
X112399052Y-112776271D01*
X112358077Y-112844598D01*
X112350770Y-112864351D01*
X112334114Y-112908066D01*
X112325679Y-112928155D01*
X112308356Y-112925387D01*
X112270525Y-112910365D01*
X112235240Y-112885556D01*
X112219154Y-112838670D01*
X112223952Y-112805087D01*
X112253431Y-112736967D01*
X112301098Y-112673134D01*
X112356839Y-112628988D01*
X112380193Y-112618782D01*
X112468619Y-112601718D01*
X112562501Y-112608476D01*
G37*
X117877372Y-112563684D02*
X117968629Y-112606569D01*
X118043416Y-112680729D01*
X118058917Y-112703944D01*
X118071774Y-112730256D01*
X118080893Y-112763420D01*
X118087102Y-112809881D01*
X118091233Y-112876082D01*
X118094116Y-112968468D01*
X118096579Y-113093485D01*
X118102697Y-113440278D01*
X118051303Y-113420738D01*
X118004246Y-113402787D01*
X117969015Y-113385511D01*
X117946017Y-113363242D01*
X117932655Y-113329165D01*
X117926328Y-113276463D01*
X117924437Y-113198323D01*
X117924385Y-113087928D01*
X117924117Y-112999935D01*
X117922521Y-112915502D01*
X117918712Y-112857834D01*
X117911820Y-112819988D01*
X117900975Y-112795024D01*
X117885308Y-112776000D01*
X117846792Y-112749153D01*
X117782091Y-112739034D01*
X117718081Y-112764606D01*
X117713856Y-112767880D01*
X117700689Y-112783007D01*
X117690975Y-112807268D01*
X117683903Y-112846650D01*
X117678656Y-112907141D01*
X117674421Y-112994729D01*
X117670385Y-113115402D01*
X117660615Y-113438515D01*
X117494539Y-113364065D01*
X117494539Y-113069062D01*
X117494883Y-112988919D01*
X117497847Y-112877431D01*
X117505351Y-112794421D01*
X117519190Y-112733199D01*
X117541155Y-112687075D01*
X117573039Y-112649358D01*
X117616633Y-112613358D01*
X117679336Y-112577089D01*
X117778117Y-112553412D01*
X117877372Y-112563684D01*
G36*
X117877372Y-112563684D02*
G01*
X117968629Y-112606569D01*
X118043416Y-112680729D01*
X118058917Y-112703944D01*
X118071774Y-112730256D01*
X118080893Y-112763420D01*
X118087102Y-112809881D01*
X118091233Y-112876082D01*
X118094116Y-112968468D01*
X118096579Y-113093485D01*
X118102697Y-113440278D01*
X118051303Y-113420738D01*
X118004246Y-113402787D01*
X117969015Y-113385511D01*
X117946017Y-113363242D01*
X117932655Y-113329165D01*
X117926328Y-113276463D01*
X117924437Y-113198323D01*
X117924385Y-113087928D01*
X117924117Y-112999935D01*
X117922521Y-112915502D01*
X117918712Y-112857834D01*
X117911820Y-112819988D01*
X117900975Y-112795024D01*
X117885308Y-112776000D01*
X117846792Y-112749153D01*
X117782091Y-112739034D01*
X117718081Y-112764606D01*
X117713856Y-112767880D01*
X117700689Y-112783007D01*
X117690975Y-112807268D01*
X117683903Y-112846650D01*
X117678656Y-112907141D01*
X117674421Y-112994729D01*
X117670385Y-113115402D01*
X117660615Y-113438515D01*
X117494539Y-113364065D01*
X117494539Y-113069062D01*
X117494883Y-112988919D01*
X117497847Y-112877431D01*
X117505351Y-112794421D01*
X117519190Y-112733199D01*
X117541155Y-112687075D01*
X117573039Y-112649358D01*
X117616633Y-112613358D01*
X117679336Y-112577089D01*
X117778117Y-112553412D01*
X117877372Y-112563684D01*
G37*
X115422892Y-112629167D02*
X115429060Y-112632581D01*
X115479447Y-112671692D01*
X115524498Y-112721975D01*
X115532355Y-112733339D01*
X115547376Y-112759860D01*
X115558107Y-112791336D01*
X115565486Y-112834591D01*
X115570452Y-112896449D01*
X115573942Y-112983733D01*
X115576893Y-113103269D01*
X115577311Y-113123478D01*
X115578654Y-113254499D01*
X115576761Y-113347296D01*
X115571605Y-113402507D01*
X115563158Y-113420769D01*
X115537594Y-113415301D01*
X115494166Y-113398733D01*
X115483940Y-113393888D01*
X115467967Y-113382920D01*
X115456954Y-113364890D01*
X115449750Y-113333396D01*
X115445208Y-113282036D01*
X115442180Y-113204410D01*
X115439516Y-113094115D01*
X115438785Y-113061875D01*
X115435965Y-112960050D01*
X115432304Y-112888788D01*
X115426694Y-112841332D01*
X115418029Y-112810925D01*
X115405202Y-112790810D01*
X115387105Y-112774229D01*
X115333525Y-112745161D01*
X115267612Y-112739564D01*
X115208635Y-112761807D01*
X115166203Y-112807859D01*
X115149923Y-112873692D01*
X115149470Y-112891587D01*
X115140578Y-112923982D01*
X115114325Y-112928925D01*
X115062919Y-112909633D01*
X115051013Y-112903446D01*
X115018835Y-112867058D01*
X115018198Y-112812954D01*
X115048856Y-112738128D01*
X115076978Y-112697350D01*
X115148883Y-112639421D01*
X115237638Y-112606670D01*
X115332542Y-112602212D01*
X115422892Y-112629167D01*
G36*
X115422892Y-112629167D02*
G01*
X115429060Y-112632581D01*
X115479447Y-112671692D01*
X115524498Y-112721975D01*
X115532355Y-112733339D01*
X115547376Y-112759860D01*
X115558107Y-112791336D01*
X115565486Y-112834591D01*
X115570452Y-112896449D01*
X115573942Y-112983733D01*
X115576893Y-113103269D01*
X115577311Y-113123478D01*
X115578654Y-113254499D01*
X115576761Y-113347296D01*
X115571605Y-113402507D01*
X115563158Y-113420769D01*
X115537594Y-113415301D01*
X115494166Y-113398733D01*
X115483940Y-113393888D01*
X115467967Y-113382920D01*
X115456954Y-113364890D01*
X115449750Y-113333396D01*
X115445208Y-113282036D01*
X115442180Y-113204410D01*
X115439516Y-113094115D01*
X115438785Y-113061875D01*
X115435965Y-112960050D01*
X115432304Y-112888788D01*
X115426694Y-112841332D01*
X115418029Y-112810925D01*
X115405202Y-112790810D01*
X115387105Y-112774229D01*
X115333525Y-112745161D01*
X115267612Y-112739564D01*
X115208635Y-112761807D01*
X115166203Y-112807859D01*
X115149923Y-112873692D01*
X115149470Y-112891587D01*
X115140578Y-112923982D01*
X115114325Y-112928925D01*
X115062919Y-112909633D01*
X115051013Y-112903446D01*
X115018835Y-112867058D01*
X115018198Y-112812954D01*
X115048856Y-112738128D01*
X115076978Y-112697350D01*
X115148883Y-112639421D01*
X115237638Y-112606670D01*
X115332542Y-112602212D01*
X115422892Y-112629167D01*
G37*
X116927923Y-112363806D02*
X116927923Y-112898455D01*
X116927660Y-113037094D01*
X116926958Y-113161805D01*
X116925883Y-113267557D01*
X116924500Y-113349322D01*
X116922874Y-113402069D01*
X116921070Y-113420769D01*
X116920364Y-113420706D01*
X116896387Y-113413912D01*
X116852685Y-113399320D01*
X116791154Y-113377870D01*
X116791154Y-113102617D01*
X116790763Y-112994466D01*
X116788946Y-112916026D01*
X116784767Y-112862647D01*
X116777286Y-112827256D01*
X116765567Y-112802779D01*
X116748671Y-112782144D01*
X116737152Y-112771170D01*
X116674864Y-112740775D01*
X116606211Y-112743466D01*
X116543298Y-112779406D01*
X116534139Y-112788325D01*
X116519471Y-112806844D01*
X116509433Y-112831326D01*
X116503151Y-112868393D01*
X116499748Y-112924667D01*
X116498349Y-113006771D01*
X116498077Y-113121329D01*
X116497947Y-113179430D01*
X116497099Y-113274993D01*
X116495594Y-113351526D01*
X116493585Y-113402345D01*
X116491223Y-113420769D01*
X116490518Y-113420706D01*
X116466541Y-113413912D01*
X116422839Y-113399320D01*
X116361308Y-113377870D01*
X116361338Y-113101358D01*
X116361384Y-113076742D01*
X116363970Y-112948419D01*
X116371913Y-112851384D01*
X116387155Y-112779057D01*
X116411636Y-112724855D01*
X116447298Y-112682198D01*
X116496082Y-112644505D01*
X116543661Y-112620910D01*
X116619732Y-112602672D01*
X116694556Y-112601636D01*
X116752077Y-112619378D01*
X116756402Y-112621829D01*
X116769738Y-112621566D01*
X116778851Y-112601039D01*
X116785428Y-112553980D01*
X116791154Y-112474120D01*
X116800923Y-112310236D01*
X116927923Y-112363806D01*
G36*
X116927923Y-112363806D02*
G01*
X116927923Y-112898455D01*
X116927660Y-113037094D01*
X116926958Y-113161805D01*
X116925883Y-113267557D01*
X116924500Y-113349322D01*
X116922874Y-113402069D01*
X116921070Y-113420769D01*
X116920364Y-113420706D01*
X116896387Y-113413912D01*
X116852685Y-113399320D01*
X116791154Y-113377870D01*
X116791154Y-113102617D01*
X116790763Y-112994466D01*
X116788946Y-112916026D01*
X116784767Y-112862647D01*
X116777286Y-112827256D01*
X116765567Y-112802779D01*
X116748671Y-112782144D01*
X116737152Y-112771170D01*
X116674864Y-112740775D01*
X116606211Y-112743466D01*
X116543298Y-112779406D01*
X116534139Y-112788325D01*
X116519471Y-112806844D01*
X116509433Y-112831326D01*
X116503151Y-112868393D01*
X116499748Y-112924667D01*
X116498349Y-113006771D01*
X116498077Y-113121329D01*
X116497947Y-113179430D01*
X116497099Y-113274993D01*
X116495594Y-113351526D01*
X116493585Y-113402345D01*
X116491223Y-113420769D01*
X116490518Y-113420706D01*
X116466541Y-113413912D01*
X116422839Y-113399320D01*
X116361308Y-113377870D01*
X116361338Y-113101358D01*
X116361384Y-113076742D01*
X116363970Y-112948419D01*
X116371913Y-112851384D01*
X116387155Y-112779057D01*
X116411636Y-112724855D01*
X116447298Y-112682198D01*
X116496082Y-112644505D01*
X116543661Y-112620910D01*
X116619732Y-112602672D01*
X116694556Y-112601636D01*
X116752077Y-112619378D01*
X116756402Y-112621829D01*
X116769738Y-112621566D01*
X116778851Y-112601039D01*
X116785428Y-112553980D01*
X116791154Y-112474120D01*
X116800923Y-112310236D01*
X116927923Y-112363806D01*
G37*
X114138998Y-112606034D02*
X114181850Y-112622829D01*
X114231615Y-112645503D01*
X114231615Y-113300533D01*
X114169785Y-113362363D01*
X114155662Y-113376228D01*
X114116536Y-113407046D01*
X114077078Y-113417028D01*
X114018362Y-113412433D01*
X113994456Y-113409462D01*
X113932801Y-113403176D01*
X113889692Y-113400672D01*
X113876905Y-113401055D01*
X113824446Y-113405200D01*
X113761022Y-113412433D01*
X113740730Y-113414918D01*
X113689610Y-113415895D01*
X113652207Y-113400462D01*
X113609599Y-113362363D01*
X113547769Y-113300533D01*
X113547769Y-112950343D01*
X113548251Y-112846857D01*
X113549753Y-112748192D01*
X113552089Y-112670068D01*
X113555071Y-112618662D01*
X113558509Y-112600154D01*
X113559230Y-112600204D01*
X113584203Y-112609413D01*
X113626399Y-112629707D01*
X113683549Y-112659261D01*
X113688928Y-112966746D01*
X113694308Y-113274231D01*
X113811539Y-113274231D01*
X113816885Y-112937192D01*
X113818579Y-112845574D01*
X113821005Y-112747649D01*
X113823634Y-112669906D01*
X113826246Y-112618642D01*
X113828623Y-112600154D01*
X113829306Y-112600219D01*
X113852996Y-112607020D01*
X113896546Y-112621604D01*
X113958077Y-112643054D01*
X113958376Y-112939104D01*
X113958676Y-112990532D01*
X113960754Y-113090466D01*
X113964470Y-113173925D01*
X113969430Y-113233377D01*
X113975240Y-113261287D01*
X113996024Y-113276214D01*
X114038440Y-113280825D01*
X114085077Y-113274231D01*
X114090423Y-112937192D01*
X114092336Y-112851546D01*
X114096303Y-112750172D01*
X114101491Y-112670655D01*
X114107499Y-112618736D01*
X114113927Y-112600154D01*
X114138998Y-112606034D01*
G36*
X114138998Y-112606034D02*
G01*
X114181850Y-112622829D01*
X114231615Y-112645503D01*
X114231615Y-113300533D01*
X114169785Y-113362363D01*
X114155662Y-113376228D01*
X114116536Y-113407046D01*
X114077078Y-113417028D01*
X114018362Y-113412433D01*
X113994456Y-113409462D01*
X113932801Y-113403176D01*
X113889692Y-113400672D01*
X113876905Y-113401055D01*
X113824446Y-113405200D01*
X113761022Y-113412433D01*
X113740730Y-113414918D01*
X113689610Y-113415895D01*
X113652207Y-113400462D01*
X113609599Y-113362363D01*
X113547769Y-113300533D01*
X113547769Y-112950343D01*
X113548251Y-112846857D01*
X113549753Y-112748192D01*
X113552089Y-112670068D01*
X113555071Y-112618662D01*
X113558509Y-112600154D01*
X113559230Y-112600204D01*
X113584203Y-112609413D01*
X113626399Y-112629707D01*
X113683549Y-112659261D01*
X113688928Y-112966746D01*
X113694308Y-113274231D01*
X113811539Y-113274231D01*
X113816885Y-112937192D01*
X113818579Y-112845574D01*
X113821005Y-112747649D01*
X113823634Y-112669906D01*
X113826246Y-112618642D01*
X113828623Y-112600154D01*
X113829306Y-112600219D01*
X113852996Y-112607020D01*
X113896546Y-112621604D01*
X113958077Y-112643054D01*
X113958376Y-112939104D01*
X113958676Y-112990532D01*
X113960754Y-113090466D01*
X113964470Y-113173925D01*
X113969430Y-113233377D01*
X113975240Y-113261287D01*
X113996024Y-113276214D01*
X114038440Y-113280825D01*
X114085077Y-113274231D01*
X114090423Y-112937192D01*
X114092336Y-112851546D01*
X114096303Y-112750172D01*
X114101491Y-112670655D01*
X114107499Y-112618736D01*
X114113927Y-112600154D01*
X114138998Y-112606034D01*
G37*
X120347154Y-112990923D02*
X120347135Y-113012105D01*
X120346076Y-113106584D01*
X120342436Y-113172414D01*
X120334892Y-113218394D01*
X120322122Y-113253321D01*
X120302803Y-113285995D01*
X120298050Y-113292775D01*
X120247759Y-113346231D01*
X120190457Y-113386547D01*
X120161032Y-113399629D01*
X120055299Y-113421450D01*
X119950734Y-113407336D01*
X119854368Y-113359105D01*
X119773235Y-113278579D01*
X119766385Y-113267791D01*
X119744097Y-113205153D01*
X119729079Y-113117935D01*
X119721792Y-113017210D01*
X119722611Y-112924037D01*
X119919796Y-112924037D01*
X119921349Y-113053114D01*
X119921974Y-113061420D01*
X119931077Y-113132643D01*
X119947288Y-113177809D01*
X119974660Y-113208752D01*
X120020553Y-113237737D01*
X120065942Y-113239261D01*
X120112692Y-113205846D01*
X120120824Y-113197053D01*
X120136754Y-113170741D01*
X120146159Y-113132520D01*
X120150632Y-113073349D01*
X120151769Y-112984182D01*
X120149822Y-112900664D01*
X120140105Y-112821095D01*
X120120047Y-112770808D01*
X120087240Y-112744513D01*
X120039280Y-112736923D01*
X120021016Y-112738432D01*
X119969848Y-112766107D01*
X119936035Y-112828172D01*
X119919796Y-112924037D01*
X119722611Y-112924037D01*
X119722699Y-112914052D01*
X119732262Y-112819533D01*
X119750943Y-112744727D01*
X119774951Y-112694905D01*
X119842536Y-112617409D01*
X119934114Y-112569256D01*
X120046213Y-112552703D01*
X120076151Y-112553599D01*
X120164315Y-112571929D01*
X120236733Y-112618104D01*
X120303192Y-112697648D01*
X120307147Y-112703548D01*
X120325040Y-112735288D01*
X120336678Y-112771163D01*
X120343371Y-112819906D01*
X120346426Y-112890249D01*
X120347106Y-112984182D01*
X120347154Y-112990923D01*
G36*
X120347154Y-112990923D02*
G01*
X120347135Y-113012105D01*
X120346076Y-113106584D01*
X120342436Y-113172414D01*
X120334892Y-113218394D01*
X120322122Y-113253321D01*
X120302803Y-113285995D01*
X120298050Y-113292775D01*
X120247759Y-113346231D01*
X120190457Y-113386547D01*
X120161032Y-113399629D01*
X120055299Y-113421450D01*
X119950734Y-113407336D01*
X119854368Y-113359105D01*
X119773235Y-113278579D01*
X119766385Y-113267791D01*
X119744097Y-113205153D01*
X119729079Y-113117935D01*
X119721792Y-113017210D01*
X119722611Y-112924037D01*
X119919796Y-112924037D01*
X119921349Y-113053114D01*
X119921974Y-113061420D01*
X119931077Y-113132643D01*
X119947288Y-113177809D01*
X119974660Y-113208752D01*
X120020553Y-113237737D01*
X120065942Y-113239261D01*
X120112692Y-113205846D01*
X120120824Y-113197053D01*
X120136754Y-113170741D01*
X120146159Y-113132520D01*
X120150632Y-113073349D01*
X120151769Y-112984182D01*
X120149822Y-112900664D01*
X120140105Y-112821095D01*
X120120047Y-112770808D01*
X120087240Y-112744513D01*
X120039280Y-112736923D01*
X120021016Y-112738432D01*
X119969848Y-112766107D01*
X119936035Y-112828172D01*
X119919796Y-112924037D01*
X119722611Y-112924037D01*
X119722699Y-112914052D01*
X119732262Y-112819533D01*
X119750943Y-112744727D01*
X119774951Y-112694905D01*
X119842536Y-112617409D01*
X119934114Y-112569256D01*
X120046213Y-112552703D01*
X120076151Y-112553599D01*
X120164315Y-112571929D01*
X120236733Y-112618104D01*
X120303192Y-112697648D01*
X120307147Y-112703548D01*
X120325040Y-112735288D01*
X120336678Y-112771163D01*
X120343371Y-112819906D01*
X120346426Y-112890249D01*
X120347106Y-112984182D01*
X120347154Y-112990923D01*
G37*
X112101794Y-113014376D02*
X112101413Y-113066449D01*
X112096641Y-113169047D01*
X112084150Y-113244126D01*
X112061121Y-113299748D01*
X112024732Y-113343975D01*
X111972162Y-113384869D01*
X111938714Y-113403466D01*
X111885098Y-113415991D01*
X111809780Y-113415003D01*
X111767672Y-113411035D01*
X111716879Y-113398920D01*
X111676280Y-113372585D01*
X111629049Y-113323514D01*
X111622738Y-113316346D01*
X111580277Y-113261189D01*
X111560018Y-113213150D01*
X111554846Y-113156184D01*
X111554846Y-113072471D01*
X111613346Y-113094552D01*
X111655994Y-113120364D01*
X111693064Y-113180928D01*
X111700803Y-113200320D01*
X111744074Y-113255235D01*
X111802976Y-113282879D01*
X111867111Y-113280393D01*
X111926077Y-113244923D01*
X111946342Y-113222805D01*
X111964720Y-113189436D01*
X111958971Y-113159117D01*
X111925887Y-113127913D01*
X111862261Y-113091887D01*
X111764885Y-113047103D01*
X111564615Y-112959445D01*
X111559301Y-112872607D01*
X111561299Y-112817296D01*
X111691783Y-112817296D01*
X111701688Y-112851538D01*
X111746756Y-112888096D01*
X111828557Y-112929692D01*
X111842092Y-112935718D01*
X111906818Y-112963753D01*
X111955247Y-112983472D01*
X111977751Y-112990923D01*
X111981161Y-112985438D01*
X111982529Y-112951948D01*
X111977651Y-112898116D01*
X111965364Y-112845473D01*
X111927041Y-112779151D01*
X111871720Y-112741780D01*
X111805640Y-112736721D01*
X111735040Y-112767339D01*
X111715474Y-112782648D01*
X111691783Y-112817296D01*
X111561299Y-112817296D01*
X111561647Y-112807663D01*
X111591186Y-112725590D01*
X111628472Y-112680361D01*
X111705776Y-112629838D01*
X111797478Y-112604316D01*
X111892274Y-112606336D01*
X111978859Y-112638440D01*
X111997920Y-112650767D01*
X112041640Y-112688912D01*
X112071540Y-112737167D01*
X112089968Y-112802710D01*
X112099270Y-112892720D01*
X112100499Y-112951948D01*
X112101794Y-113014376D01*
G36*
X112101794Y-113014376D02*
G01*
X112101413Y-113066449D01*
X112096641Y-113169047D01*
X112084150Y-113244126D01*
X112061121Y-113299748D01*
X112024732Y-113343975D01*
X111972162Y-113384869D01*
X111938714Y-113403466D01*
X111885098Y-113415991D01*
X111809780Y-113415003D01*
X111767672Y-113411035D01*
X111716879Y-113398920D01*
X111676280Y-113372585D01*
X111629049Y-113323514D01*
X111622738Y-113316346D01*
X111580277Y-113261189D01*
X111560018Y-113213150D01*
X111554846Y-113156184D01*
X111554846Y-113072471D01*
X111613346Y-113094552D01*
X111655994Y-113120364D01*
X111693064Y-113180928D01*
X111700803Y-113200320D01*
X111744074Y-113255235D01*
X111802976Y-113282879D01*
X111867111Y-113280393D01*
X111926077Y-113244923D01*
X111946342Y-113222805D01*
X111964720Y-113189436D01*
X111958971Y-113159117D01*
X111925887Y-113127913D01*
X111862261Y-113091887D01*
X111764885Y-113047103D01*
X111564615Y-112959445D01*
X111559301Y-112872607D01*
X111561299Y-112817296D01*
X111691783Y-112817296D01*
X111701688Y-112851538D01*
X111746756Y-112888096D01*
X111828557Y-112929692D01*
X111842092Y-112935718D01*
X111906818Y-112963753D01*
X111955247Y-112983472D01*
X111977751Y-112990923D01*
X111981161Y-112985438D01*
X111982529Y-112951948D01*
X111977651Y-112898116D01*
X111965364Y-112845473D01*
X111927041Y-112779151D01*
X111871720Y-112741780D01*
X111805640Y-112736721D01*
X111735040Y-112767339D01*
X111715474Y-112782648D01*
X111691783Y-112817296D01*
X111561299Y-112817296D01*
X111561647Y-112807663D01*
X111591186Y-112725590D01*
X111628472Y-112680361D01*
X111705776Y-112629838D01*
X111797478Y-112604316D01*
X111892274Y-112606336D01*
X111978859Y-112638440D01*
X111997920Y-112650767D01*
X112041640Y-112688912D01*
X112071540Y-112737167D01*
X112089968Y-112802710D01*
X112099270Y-112892720D01*
X112100499Y-112951948D01*
X112101794Y-113014376D01*
G37*
X114915401Y-113010462D02*
X114913839Y-113086652D01*
X114902810Y-113190507D01*
X114878814Y-113268333D01*
X114839043Y-113327760D01*
X114780688Y-113376418D01*
X114725100Y-113404546D01*
X114631751Y-113420199D01*
X114538530Y-113403084D01*
X114454272Y-113355388D01*
X114387818Y-113279294D01*
X114379793Y-113265262D01*
X114369196Y-113240679D01*
X114361335Y-113209309D01*
X114355807Y-113165769D01*
X114352206Y-113104678D01*
X114350128Y-113020655D01*
X114350064Y-113013200D01*
X114485615Y-113013200D01*
X114486077Y-113084316D01*
X114488999Y-113148641D01*
X114496221Y-113190166D01*
X114509561Y-113218067D01*
X114530836Y-113241517D01*
X114535821Y-113246025D01*
X114599863Y-113279295D01*
X114667625Y-113275890D01*
X114730734Y-113236042D01*
X114749526Y-113215398D01*
X114765254Y-113188029D01*
X114774039Y-113150192D01*
X114777859Y-113092355D01*
X114778692Y-113004986D01*
X114778281Y-112938319D01*
X114775434Y-112873245D01*
X114768256Y-112831251D01*
X114754889Y-112803063D01*
X114733472Y-112779406D01*
X114720890Y-112768753D01*
X114655699Y-112740057D01*
X114587400Y-112744575D01*
X114528098Y-112782144D01*
X114515333Y-112797040D01*
X114499764Y-112825089D01*
X114490762Y-112864258D01*
X114486617Y-112923858D01*
X114485615Y-113013200D01*
X114350064Y-113013200D01*
X114349167Y-112908320D01*
X114348919Y-112762289D01*
X114348846Y-112308963D01*
X114412346Y-112335564D01*
X114429136Y-112342845D01*
X114455859Y-112359287D01*
X114471156Y-112384187D01*
X114479563Y-112427732D01*
X114485615Y-112500106D01*
X114491144Y-112565089D01*
X114498450Y-112607750D01*
X114508918Y-112623670D01*
X114524692Y-112619400D01*
X114564890Y-112604397D01*
X114636728Y-112600678D01*
X114714010Y-112614572D01*
X114780688Y-112644505D01*
X114817371Y-112672211D01*
X114864472Y-112726269D01*
X114894638Y-112795577D01*
X114910678Y-112887765D01*
X114915191Y-113004986D01*
X114915401Y-113010462D01*
G36*
X114915401Y-113010462D02*
G01*
X114913839Y-113086652D01*
X114902810Y-113190507D01*
X114878814Y-113268333D01*
X114839043Y-113327760D01*
X114780688Y-113376418D01*
X114725100Y-113404546D01*
X114631751Y-113420199D01*
X114538530Y-113403084D01*
X114454272Y-113355388D01*
X114387818Y-113279294D01*
X114379793Y-113265262D01*
X114369196Y-113240679D01*
X114361335Y-113209309D01*
X114355807Y-113165769D01*
X114352206Y-113104678D01*
X114350128Y-113020655D01*
X114350064Y-113013200D01*
X114485615Y-113013200D01*
X114486077Y-113084316D01*
X114488999Y-113148641D01*
X114496221Y-113190166D01*
X114509561Y-113218067D01*
X114530836Y-113241517D01*
X114535821Y-113246025D01*
X114599863Y-113279295D01*
X114667625Y-113275890D01*
X114730734Y-113236042D01*
X114749526Y-113215398D01*
X114765254Y-113188029D01*
X114774039Y-113150192D01*
X114777859Y-113092355D01*
X114778692Y-113004986D01*
X114778281Y-112938319D01*
X114775434Y-112873245D01*
X114768256Y-112831251D01*
X114754889Y-112803063D01*
X114733472Y-112779406D01*
X114720890Y-112768753D01*
X114655699Y-112740057D01*
X114587400Y-112744575D01*
X114528098Y-112782144D01*
X114515333Y-112797040D01*
X114499764Y-112825089D01*
X114490762Y-112864258D01*
X114486617Y-112923858D01*
X114485615Y-113013200D01*
X114350064Y-113013200D01*
X114349167Y-112908320D01*
X114348919Y-112762289D01*
X114348846Y-112308963D01*
X114412346Y-112335564D01*
X114429136Y-112342845D01*
X114455859Y-112359287D01*
X114471156Y-112384187D01*
X114479563Y-112427732D01*
X114485615Y-112500106D01*
X114491144Y-112565089D01*
X114498450Y-112607750D01*
X114508918Y-112623670D01*
X114524692Y-112619400D01*
X114564890Y-112604397D01*
X114636728Y-112600678D01*
X114714010Y-112614572D01*
X114780688Y-112644505D01*
X114817371Y-112672211D01*
X114864472Y-112726269D01*
X114894638Y-112795577D01*
X114910678Y-112887765D01*
X114915191Y-113004986D01*
X114915401Y-113010462D01*
G37*
X118861787Y-112935536D02*
X118855574Y-113083643D01*
X118852066Y-113115021D01*
X118825927Y-113226705D01*
X118778694Y-113311642D01*
X118706862Y-113376741D01*
X118702802Y-113379428D01*
X118611487Y-113417634D01*
X118516144Y-113421034D01*
X118424274Y-113391939D01*
X118343379Y-113332660D01*
X118280962Y-113245510D01*
X118279914Y-113243409D01*
X118259173Y-113189289D01*
X118243980Y-113127781D01*
X118235921Y-113070039D01*
X118236582Y-113027215D01*
X118247548Y-113010462D01*
X118257290Y-113011480D01*
X118303877Y-113030009D01*
X118356682Y-113064081D01*
X118401603Y-113103522D01*
X118424535Y-113138155D01*
X118448373Y-113185133D01*
X118497230Y-113227862D01*
X118553963Y-113244923D01*
X118574758Y-113239990D01*
X118615804Y-113215157D01*
X118651557Y-113180685D01*
X118666846Y-113149411D01*
X118666842Y-113149295D01*
X118649495Y-113134933D01*
X118603247Y-113109025D01*
X118535067Y-113075210D01*
X118451923Y-113037129D01*
X118451466Y-113036927D01*
X118361138Y-112996709D01*
X118300592Y-112967733D01*
X118263888Y-112945474D01*
X118245086Y-112925407D01*
X118238246Y-112903009D01*
X118237429Y-112873756D01*
X118243113Y-112818363D01*
X118436000Y-112818363D01*
X118455911Y-112835777D01*
X118505521Y-112861872D01*
X118506976Y-112862610D01*
X118565506Y-112890483D01*
X118617868Y-112912719D01*
X118651086Y-112922126D01*
X118664410Y-112909552D01*
X118666846Y-112866468D01*
X118656724Y-112812847D01*
X118621631Y-112764119D01*
X118570823Y-112738856D01*
X118514181Y-112741406D01*
X118461584Y-112776120D01*
X118440910Y-112800107D01*
X118436000Y-112818363D01*
X118243113Y-112818363D01*
X118244622Y-112803654D01*
X118280184Y-112708412D01*
X118339714Y-112633567D01*
X118416746Y-112581745D01*
X118504815Y-112555573D01*
X118597454Y-112557676D01*
X118688198Y-112590681D01*
X118770579Y-112657215D01*
X118816222Y-112723055D01*
X118849008Y-112817036D01*
X118854339Y-112866468D01*
X118861787Y-112935536D01*
G36*
X118861787Y-112935536D02*
G01*
X118855574Y-113083643D01*
X118852066Y-113115021D01*
X118825927Y-113226705D01*
X118778694Y-113311642D01*
X118706862Y-113376741D01*
X118702802Y-113379428D01*
X118611487Y-113417634D01*
X118516144Y-113421034D01*
X118424274Y-113391939D01*
X118343379Y-113332660D01*
X118280962Y-113245510D01*
X118279914Y-113243409D01*
X118259173Y-113189289D01*
X118243980Y-113127781D01*
X118235921Y-113070039D01*
X118236582Y-113027215D01*
X118247548Y-113010462D01*
X118257290Y-113011480D01*
X118303877Y-113030009D01*
X118356682Y-113064081D01*
X118401603Y-113103522D01*
X118424535Y-113138155D01*
X118448373Y-113185133D01*
X118497230Y-113227862D01*
X118553963Y-113244923D01*
X118574758Y-113239990D01*
X118615804Y-113215157D01*
X118651557Y-113180685D01*
X118666846Y-113149411D01*
X118666842Y-113149295D01*
X118649495Y-113134933D01*
X118603247Y-113109025D01*
X118535067Y-113075210D01*
X118451923Y-113037129D01*
X118451466Y-113036927D01*
X118361138Y-112996709D01*
X118300592Y-112967733D01*
X118263888Y-112945474D01*
X118245086Y-112925407D01*
X118238246Y-112903009D01*
X118237429Y-112873756D01*
X118243113Y-112818363D01*
X118436000Y-112818363D01*
X118455911Y-112835777D01*
X118505521Y-112861872D01*
X118506976Y-112862610D01*
X118565506Y-112890483D01*
X118617868Y-112912719D01*
X118651086Y-112922126D01*
X118664410Y-112909552D01*
X118666846Y-112866468D01*
X118656724Y-112812847D01*
X118621631Y-112764119D01*
X118570823Y-112738856D01*
X118514181Y-112741406D01*
X118461584Y-112776120D01*
X118440910Y-112800107D01*
X118436000Y-112818363D01*
X118243113Y-112818363D01*
X118244622Y-112803654D01*
X118280184Y-112708412D01*
X118339714Y-112633567D01*
X118416746Y-112581745D01*
X118504815Y-112555573D01*
X118597454Y-112557676D01*
X118688198Y-112590681D01*
X118770579Y-112657215D01*
X118816222Y-112723055D01*
X118849008Y-112817036D01*
X118854339Y-112866468D01*
X118861787Y-112935536D01*
G37*
X116071458Y-112621228D02*
X116138622Y-112660389D01*
X116168169Y-112690902D01*
X116224948Y-112782110D01*
X116244077Y-112881548D01*
X116244077Y-112949960D01*
X116181191Y-112923518D01*
X116137700Y-112896837D01*
X116103426Y-112841446D01*
X116099907Y-112830024D01*
X116062028Y-112771838D01*
X116004936Y-112740407D01*
X115939383Y-112739058D01*
X115876117Y-112771116D01*
X115866672Y-112779383D01*
X115835087Y-112815311D01*
X115829871Y-112846635D01*
X115853765Y-112877391D01*
X115909510Y-112911617D01*
X115999846Y-112953350D01*
X116005956Y-112955993D01*
X116106241Y-113002755D01*
X116174735Y-113044181D01*
X116216899Y-113085542D01*
X116238193Y-113132111D01*
X116244077Y-113189160D01*
X116236366Y-113252408D01*
X116197430Y-113333364D01*
X116128932Y-113391522D01*
X116079388Y-113408983D01*
X116009469Y-113418537D01*
X115941575Y-113416496D01*
X115893093Y-113402082D01*
X115887943Y-113398493D01*
X115874267Y-113373416D01*
X115883757Y-113329218D01*
X115900246Y-113294527D01*
X115926687Y-113280084D01*
X115976834Y-113280803D01*
X116046453Y-113276660D01*
X116091943Y-113248054D01*
X116107308Y-113195104D01*
X116107294Y-113193582D01*
X116097983Y-113162845D01*
X116066311Y-113134643D01*
X116004731Y-113102136D01*
X115920986Y-113062998D01*
X115865518Y-113041706D01*
X115833497Y-113043079D01*
X115818534Y-113071203D01*
X115814242Y-113130170D01*
X115814231Y-113224068D01*
X115813752Y-113282031D01*
X115811556Y-113353612D01*
X115807986Y-113402606D01*
X115803491Y-113420769D01*
X115802290Y-113420646D01*
X115776319Y-113410802D01*
X115733305Y-113390028D01*
X115673859Y-113359287D01*
X115680923Y-113082298D01*
X115681414Y-113063928D01*
X115687025Y-112934992D01*
X115696938Y-112837814D01*
X115713175Y-112765925D01*
X115737759Y-112712852D01*
X115772715Y-112672127D01*
X115820064Y-112637279D01*
X115820940Y-112636733D01*
X115897499Y-112608303D01*
X115986044Y-112603500D01*
X116071458Y-112621228D01*
G36*
X116071458Y-112621228D02*
G01*
X116138622Y-112660389D01*
X116168169Y-112690902D01*
X116224948Y-112782110D01*
X116244077Y-112881548D01*
X116244077Y-112949960D01*
X116181191Y-112923518D01*
X116137700Y-112896837D01*
X116103426Y-112841446D01*
X116099907Y-112830024D01*
X116062028Y-112771838D01*
X116004936Y-112740407D01*
X115939383Y-112739058D01*
X115876117Y-112771116D01*
X115866672Y-112779383D01*
X115835087Y-112815311D01*
X115829871Y-112846635D01*
X115853765Y-112877391D01*
X115909510Y-112911617D01*
X115999846Y-112953350D01*
X116005956Y-112955993D01*
X116106241Y-113002755D01*
X116174735Y-113044181D01*
X116216899Y-113085542D01*
X116238193Y-113132111D01*
X116244077Y-113189160D01*
X116236366Y-113252408D01*
X116197430Y-113333364D01*
X116128932Y-113391522D01*
X116079388Y-113408983D01*
X116009469Y-113418537D01*
X115941575Y-113416496D01*
X115893093Y-113402082D01*
X115887943Y-113398493D01*
X115874267Y-113373416D01*
X115883757Y-113329218D01*
X115900246Y-113294527D01*
X115926687Y-113280084D01*
X115976834Y-113280803D01*
X116046453Y-113276660D01*
X116091943Y-113248054D01*
X116107308Y-113195104D01*
X116107294Y-113193582D01*
X116097983Y-113162845D01*
X116066311Y-113134643D01*
X116004731Y-113102136D01*
X115920986Y-113062998D01*
X115865518Y-113041706D01*
X115833497Y-113043079D01*
X115818534Y-113071203D01*
X115814242Y-113130170D01*
X115814231Y-113224068D01*
X115813752Y-113282031D01*
X115811556Y-113353612D01*
X115807986Y-113402606D01*
X115803491Y-113420769D01*
X115802290Y-113420646D01*
X115776319Y-113410802D01*
X115733305Y-113390028D01*
X115673859Y-113359287D01*
X115680923Y-113082298D01*
X115681414Y-113063928D01*
X115687025Y-112934992D01*
X115696938Y-112837814D01*
X115713175Y-112765925D01*
X115737759Y-112712852D01*
X115772715Y-112672127D01*
X115820064Y-112637279D01*
X115820940Y-112636733D01*
X115897499Y-112608303D01*
X115986044Y-112603500D01*
X116071458Y-112621228D01*
G37*
X113214936Y-112601911D02*
X113256807Y-112612547D01*
X113295791Y-112639062D01*
X113345965Y-112688420D01*
X113378232Y-112723279D01*
X113411844Y-112768534D01*
X113427003Y-112810951D01*
X113430539Y-112864768D01*
X113430539Y-112952850D01*
X113370470Y-112921787D01*
X113322867Y-112883936D01*
X113290261Y-112832950D01*
X113284661Y-112819088D01*
X113241992Y-112765358D01*
X113182707Y-112738417D01*
X113118061Y-112741039D01*
X113059308Y-112776000D01*
X113034450Y-112804394D01*
X113019970Y-112840718D01*
X113035470Y-112873046D01*
X113083667Y-112905565D01*
X113167274Y-112942461D01*
X113179962Y-112947557D01*
X113256078Y-112980907D01*
X113321396Y-113013793D01*
X113362953Y-113039769D01*
X113404576Y-113086167D01*
X113432247Y-113160211D01*
X113429310Y-113239670D01*
X113396571Y-113314868D01*
X113334841Y-113376131D01*
X113284858Y-113402210D01*
X113188303Y-113420470D01*
X113134647Y-113418007D01*
X113084976Y-113404687D01*
X113065919Y-113376739D01*
X113073045Y-113330710D01*
X113075118Y-113324624D01*
X113091556Y-113292349D01*
X113118926Y-113280133D01*
X113171068Y-113280950D01*
X113207884Y-113282061D01*
X113250961Y-113272528D01*
X113280475Y-113244026D01*
X113297286Y-113208935D01*
X113299161Y-113172175D01*
X113299074Y-113171961D01*
X113277279Y-113152098D01*
X113230632Y-113123192D01*
X113170278Y-113090886D01*
X113107360Y-113060823D01*
X113053023Y-113038646D01*
X113018410Y-113030000D01*
X113013260Y-113038467D01*
X113006778Y-113078309D01*
X113002339Y-113143371D01*
X113000692Y-113225385D01*
X113000309Y-113282153D01*
X112998505Y-113353648D01*
X112995558Y-113402610D01*
X112991843Y-113420769D01*
X112972424Y-113414667D01*
X112933227Y-113398095D01*
X112883462Y-113375420D01*
X112883462Y-113084509D01*
X112883780Y-113009940D01*
X112886789Y-112896701D01*
X112894454Y-112812692D01*
X112908562Y-112751520D01*
X112930899Y-112706795D01*
X112963253Y-112672124D01*
X113007410Y-112641117D01*
X113063667Y-112615528D01*
X113167540Y-112600154D01*
X113214936Y-112601911D01*
G36*
X113214936Y-112601911D02*
G01*
X113256807Y-112612547D01*
X113295791Y-112639062D01*
X113345965Y-112688420D01*
X113378232Y-112723279D01*
X113411844Y-112768534D01*
X113427003Y-112810951D01*
X113430539Y-112864768D01*
X113430539Y-112952850D01*
X113370470Y-112921787D01*
X113322867Y-112883936D01*
X113290261Y-112832950D01*
X113284661Y-112819088D01*
X113241992Y-112765358D01*
X113182707Y-112738417D01*
X113118061Y-112741039D01*
X113059308Y-112776000D01*
X113034450Y-112804394D01*
X113019970Y-112840718D01*
X113035470Y-112873046D01*
X113083667Y-112905565D01*
X113167274Y-112942461D01*
X113179962Y-112947557D01*
X113256078Y-112980907D01*
X113321396Y-113013793D01*
X113362953Y-113039769D01*
X113404576Y-113086167D01*
X113432247Y-113160211D01*
X113429310Y-113239670D01*
X113396571Y-113314868D01*
X113334841Y-113376131D01*
X113284858Y-113402210D01*
X113188303Y-113420470D01*
X113134647Y-113418007D01*
X113084976Y-113404687D01*
X113065919Y-113376739D01*
X113073045Y-113330710D01*
X113075118Y-113324624D01*
X113091556Y-113292349D01*
X113118926Y-113280133D01*
X113171068Y-113280950D01*
X113207884Y-113282061D01*
X113250961Y-113272528D01*
X113280475Y-113244026D01*
X113297286Y-113208935D01*
X113299161Y-113172175D01*
X113299074Y-113171961D01*
X113277279Y-113152098D01*
X113230632Y-113123192D01*
X113170278Y-113090886D01*
X113107360Y-113060823D01*
X113053023Y-113038646D01*
X113018410Y-113030000D01*
X113013260Y-113038467D01*
X113006778Y-113078309D01*
X113002339Y-113143371D01*
X113000692Y-113225385D01*
X113000309Y-113282153D01*
X112998505Y-113353648D01*
X112995558Y-113402610D01*
X112991843Y-113420769D01*
X112972424Y-113414667D01*
X112933227Y-113398095D01*
X112883462Y-113375420D01*
X112883462Y-113084509D01*
X112883780Y-113009940D01*
X112886789Y-112896701D01*
X112894454Y-112812692D01*
X112908562Y-112751520D01*
X112930899Y-112706795D01*
X112963253Y-112672124D01*
X113007410Y-112641117D01*
X113063667Y-112615528D01*
X113167540Y-112600154D01*
X113214936Y-112601911D01*
G37*
X119598828Y-113080205D02*
X119600763Y-113230269D01*
X119601300Y-113273802D01*
X119603019Y-113419344D01*
X119603365Y-113530711D01*
X119601277Y-113611804D01*
X119595698Y-113666522D01*
X119585567Y-113698761D01*
X119569826Y-113712422D01*
X119547417Y-113711403D01*
X119517280Y-113699603D01*
X119478355Y-113680920D01*
X119470038Y-113676933D01*
X119435402Y-113657419D01*
X119417314Y-113634202D01*
X119410392Y-113595492D01*
X119409256Y-113529497D01*
X119409205Y-113411000D01*
X119287141Y-113411000D01*
X119212055Y-113407712D01*
X119153015Y-113394377D01*
X119103986Y-113367423D01*
X119100330Y-113364788D01*
X119050581Y-113320286D01*
X119015959Y-113266523D01*
X118994123Y-113196154D01*
X118982737Y-113101830D01*
X118979959Y-112995271D01*
X119174846Y-112995271D01*
X119174880Y-113013131D01*
X119176735Y-113093748D01*
X119182693Y-113146447D01*
X119194506Y-113180668D01*
X119213923Y-113205846D01*
X119215133Y-113207049D01*
X119262858Y-113239628D01*
X119309110Y-113236417D01*
X119361350Y-113196965D01*
X119374128Y-113183482D01*
X119392949Y-113155837D01*
X119403562Y-113119880D01*
X119408252Y-113065364D01*
X119409308Y-112982042D01*
X119408394Y-112931598D01*
X119398477Y-112839857D01*
X119375842Y-112779752D01*
X119338238Y-112746900D01*
X119283416Y-112736923D01*
X119260317Y-112739050D01*
X119220350Y-112760147D01*
X119193926Y-112807161D01*
X119179330Y-112884175D01*
X119174846Y-112995271D01*
X118979959Y-112995271D01*
X118979462Y-112976206D01*
X118980187Y-112884536D01*
X118983490Y-112815098D01*
X118990828Y-112766945D01*
X119003655Y-112730866D01*
X119023423Y-112697648D01*
X119041569Y-112672261D01*
X119107461Y-112603727D01*
X119182114Y-112566505D01*
X119275904Y-112554722D01*
X119383240Y-112566467D01*
X119476031Y-112608595D01*
X119549421Y-112682898D01*
X119554954Y-112690764D01*
X119567857Y-112711668D01*
X119577742Y-112735555D01*
X119585093Y-112767582D01*
X119590394Y-112812905D01*
X119594127Y-112876679D01*
X119596778Y-112964060D01*
X119597096Y-112982042D01*
X119598828Y-113080205D01*
G36*
X119598828Y-113080205D02*
G01*
X119600763Y-113230269D01*
X119601300Y-113273802D01*
X119603019Y-113419344D01*
X119603365Y-113530711D01*
X119601277Y-113611804D01*
X119595698Y-113666522D01*
X119585567Y-113698761D01*
X119569826Y-113712422D01*
X119547417Y-113711403D01*
X119517280Y-113699603D01*
X119478355Y-113680920D01*
X119470038Y-113676933D01*
X119435402Y-113657419D01*
X119417314Y-113634202D01*
X119410392Y-113595492D01*
X119409256Y-113529497D01*
X119409205Y-113411000D01*
X119287141Y-113411000D01*
X119212055Y-113407712D01*
X119153015Y-113394377D01*
X119103986Y-113367423D01*
X119100330Y-113364788D01*
X119050581Y-113320286D01*
X119015959Y-113266523D01*
X118994123Y-113196154D01*
X118982737Y-113101830D01*
X118979959Y-112995271D01*
X119174846Y-112995271D01*
X119174880Y-113013131D01*
X119176735Y-113093748D01*
X119182693Y-113146447D01*
X119194506Y-113180668D01*
X119213923Y-113205846D01*
X119215133Y-113207049D01*
X119262858Y-113239628D01*
X119309110Y-113236417D01*
X119361350Y-113196965D01*
X119374128Y-113183482D01*
X119392949Y-113155837D01*
X119403562Y-113119880D01*
X119408252Y-113065364D01*
X119409308Y-112982042D01*
X119408394Y-112931598D01*
X119398477Y-112839857D01*
X119375842Y-112779752D01*
X119338238Y-112746900D01*
X119283416Y-112736923D01*
X119260317Y-112739050D01*
X119220350Y-112760147D01*
X119193926Y-112807161D01*
X119179330Y-112884175D01*
X119174846Y-112995271D01*
X118979959Y-112995271D01*
X118979462Y-112976206D01*
X118980187Y-112884536D01*
X118983490Y-112815098D01*
X118990828Y-112766945D01*
X119003655Y-112730866D01*
X119023423Y-112697648D01*
X119041569Y-112672261D01*
X119107461Y-112603727D01*
X119182114Y-112566505D01*
X119275904Y-112554722D01*
X119383240Y-112566467D01*
X119476031Y-112608595D01*
X119549421Y-112682898D01*
X119554954Y-112690764D01*
X119567857Y-112711668D01*
X119577742Y-112735555D01*
X119585093Y-112767582D01*
X119590394Y-112812905D01*
X119594127Y-112876679D01*
X119596778Y-112964060D01*
X119597096Y-112982042D01*
X119598828Y-113080205D01*
G37*
X115968575Y-106269693D02*
X116104371Y-106269807D01*
X116206576Y-106270472D01*
X116280122Y-106272182D01*
X116329942Y-106275429D01*
X116360967Y-106280706D01*
X116378129Y-106288507D01*
X116386361Y-106299325D01*
X116390594Y-106313654D01*
X116390716Y-106314168D01*
X116397672Y-106347851D01*
X116410320Y-106412917D01*
X116427360Y-106502542D01*
X116447496Y-106609904D01*
X116469429Y-106728178D01*
X116471218Y-106737856D01*
X116493083Y-106852650D01*
X116513430Y-106953480D01*
X116530934Y-107034217D01*
X116544271Y-107088734D01*
X116552116Y-107110901D01*
X116552158Y-107110936D01*
X116576884Y-107123200D01*
X116627631Y-107143576D01*
X116693462Y-107167674D01*
X116697169Y-107168983D01*
X116781331Y-107200791D01*
X116879230Y-107240685D01*
X116970435Y-107280353D01*
X117120407Y-107348420D01*
X117452499Y-107121639D01*
X117475889Y-107105688D01*
X117576080Y-107037890D01*
X117665480Y-106978208D01*
X117738745Y-106930156D01*
X117790527Y-106897250D01*
X117815480Y-106883004D01*
X117832577Y-106886270D01*
X117871395Y-106911571D01*
X117931385Y-106961675D01*
X118014210Y-107037989D01*
X118121535Y-107141922D01*
X118131139Y-107151382D01*
X118216302Y-107236145D01*
X118291949Y-107312937D01*
X118353449Y-107376947D01*
X118396173Y-107423361D01*
X118415489Y-107447369D01*
X118415552Y-107447485D01*
X118418006Y-107465763D01*
X118408956Y-107495411D01*
X118386119Y-107540486D01*
X118347213Y-107605044D01*
X118289954Y-107693140D01*
X118212059Y-107808830D01*
X118198785Y-107828357D01*
X118131652Y-107927278D01*
X118072410Y-108014848D01*
X118024588Y-108085831D01*
X117991715Y-108134991D01*
X117977318Y-108157095D01*
X117976232Y-108161777D01*
X117983044Y-108196710D01*
X118003450Y-108253753D01*
X118034123Y-108323172D01*
X118075808Y-108413959D01*
X118122352Y-108521686D01*
X118161877Y-108619192D01*
X118171676Y-108644430D01*
X118197340Y-108708870D01*
X118216193Y-108753763D01*
X118224710Y-108770616D01*
X118234111Y-108771875D01*
X118276363Y-108779159D01*
X118345521Y-108791739D01*
X118434387Y-108808246D01*
X118535768Y-108827312D01*
X118642467Y-108847569D01*
X118747288Y-108867647D01*
X118843036Y-108886179D01*
X118922516Y-108901795D01*
X118978530Y-108913127D01*
X119003885Y-108918807D01*
X119008088Y-108920408D01*
X119018334Y-108929045D01*
X119025957Y-108947433D01*
X119031338Y-108980460D01*
X119034859Y-109033013D01*
X119036901Y-109109979D01*
X119037847Y-109216246D01*
X119038077Y-109356701D01*
X119038077Y-109783845D01*
X118935500Y-109804091D01*
X118923092Y-109806518D01*
X118857199Y-109819088D01*
X118766084Y-109836170D01*
X118660104Y-109855829D01*
X118549615Y-109876132D01*
X118506105Y-109884299D01*
X118408882Y-109904167D01*
X118327858Y-109922954D01*
X118270477Y-109938859D01*
X118244187Y-109950079D01*
X118232273Y-109968411D01*
X118210583Y-110016916D01*
X118188395Y-110079692D01*
X118180585Y-110103200D01*
X118151835Y-110180366D01*
X118114752Y-110271694D01*
X118075375Y-110362093D01*
X118054315Y-110409310D01*
X118024311Y-110479837D01*
X118003692Y-110532655D01*
X117996026Y-110558912D01*
X117996452Y-110560894D01*
X118010993Y-110588751D01*
X118043783Y-110642510D01*
X118091493Y-110716963D01*
X118150798Y-110806897D01*
X118218369Y-110907104D01*
X118440713Y-111233416D01*
X118148601Y-111526016D01*
X118120349Y-111554171D01*
X118033961Y-111638449D01*
X117956756Y-111711128D01*
X117893258Y-111768112D01*
X117847990Y-111805307D01*
X117825474Y-111818616D01*
X117801023Y-111808490D01*
X117749819Y-111779421D01*
X117677747Y-111734896D01*
X117590460Y-111678411D01*
X117493612Y-111613462D01*
X117398486Y-111549314D01*
X117312669Y-111492827D01*
X117242652Y-111448184D01*
X117193876Y-111418855D01*
X117171783Y-111408308D01*
X117170488Y-111408404D01*
X117141139Y-111418802D01*
X117089093Y-111443012D01*
X117024708Y-111476249D01*
X117024032Y-111476613D01*
X116938521Y-111519441D01*
X116879926Y-111540365D01*
X116843571Y-111540423D01*
X116824775Y-111520654D01*
X116816819Y-111501195D01*
X116795347Y-111449080D01*
X116762273Y-111368964D01*
X116719356Y-111265107D01*
X116668356Y-111141767D01*
X116611033Y-111003201D01*
X116549146Y-110853670D01*
X116493052Y-110717636D01*
X116435977Y-110578050D01*
X116385479Y-110453315D01*
X116343254Y-110347672D01*
X116310995Y-110265365D01*
X116290397Y-110210635D01*
X116283154Y-110187726D01*
X116296986Y-110166718D01*
X116335412Y-110131642D01*
X116389807Y-110090887D01*
X116520395Y-109984267D01*
X116637260Y-109848025D01*
X116722780Y-109698118D01*
X116776431Y-109538971D01*
X116797684Y-109375012D01*
X116786014Y-109210667D01*
X116740894Y-109050361D01*
X116661797Y-108898520D01*
X116548197Y-108759572D01*
X116488965Y-108705460D01*
X116347054Y-108609782D01*
X116195206Y-108547405D01*
X116037861Y-108516844D01*
X115879456Y-108516615D01*
X115724429Y-108545232D01*
X115577220Y-108601210D01*
X115442266Y-108683064D01*
X115324005Y-108789309D01*
X115226877Y-108918459D01*
X115155318Y-109069031D01*
X115113769Y-109239539D01*
X115106143Y-109321722D01*
X115116634Y-109499775D01*
X115163882Y-109668704D01*
X115246489Y-109825522D01*
X115363059Y-109967245D01*
X115512193Y-110090887D01*
X115564561Y-110129982D01*
X115603832Y-110165443D01*
X115618846Y-110187692D01*
X115612859Y-110207088D01*
X115593432Y-110259059D01*
X115562194Y-110339002D01*
X115520839Y-110442673D01*
X115471061Y-110565832D01*
X115414553Y-110704234D01*
X115353009Y-110853637D01*
X115297008Y-110989020D01*
X115239184Y-111128852D01*
X115187500Y-111253872D01*
X115143718Y-111359822D01*
X115109597Y-111442441D01*
X115086898Y-111497472D01*
X115077380Y-111520654D01*
X115077269Y-111520928D01*
X115058228Y-111540503D01*
X115021694Y-111540279D01*
X114962954Y-111519210D01*
X114877292Y-111476249D01*
X114870549Y-111472631D01*
X114806938Y-111440087D01*
X114756707Y-111417050D01*
X114730218Y-111408308D01*
X114708506Y-111418639D01*
X114659984Y-111447788D01*
X114590163Y-111492287D01*
X114504484Y-111548668D01*
X114408388Y-111613462D01*
X114313706Y-111676984D01*
X114226132Y-111733705D01*
X114153642Y-111778547D01*
X114101889Y-111808016D01*
X114076526Y-111818616D01*
X114072206Y-111817270D01*
X114042092Y-111796056D01*
X113990640Y-111752237D01*
X113922375Y-111689909D01*
X113841820Y-111613170D01*
X113753500Y-111526116D01*
X113461488Y-111233617D01*
X113916360Y-110564525D01*
X113847208Y-110414916D01*
X113847003Y-110414473D01*
X113805477Y-110319101D01*
X113763044Y-110212896D01*
X113728858Y-110118769D01*
X113723684Y-110103588D01*
X113697601Y-110033109D01*
X113674081Y-109978342D01*
X113657677Y-109950079D01*
X113650996Y-109946088D01*
X113610892Y-109932697D01*
X113542795Y-109915373D01*
X113454145Y-109895917D01*
X113352385Y-109876132D01*
X113321904Y-109870551D01*
X113211628Y-109850233D01*
X113108731Y-109831095D01*
X113023569Y-109815070D01*
X112966500Y-109804091D01*
X112863923Y-109783845D01*
X112863923Y-109356701D01*
X112863946Y-109304180D01*
X112864379Y-109176047D01*
X112865659Y-109080420D01*
X112868168Y-109012411D01*
X112872286Y-108967133D01*
X112878395Y-108939697D01*
X112886878Y-108925218D01*
X112898115Y-108918807D01*
X112908994Y-108916209D01*
X112953347Y-108907022D01*
X113024106Y-108892991D01*
X113114074Y-108875486D01*
X113216056Y-108855874D01*
X113322857Y-108835525D01*
X113427281Y-108815807D01*
X113522132Y-108798089D01*
X113600214Y-108783738D01*
X113654332Y-108774124D01*
X113677291Y-108770616D01*
X113678842Y-108768497D01*
X113691325Y-108741006D01*
X113712927Y-108688406D01*
X113740123Y-108619192D01*
X113777866Y-108525937D01*
X113824328Y-108418159D01*
X113867878Y-108323172D01*
X113877858Y-108301851D01*
X113905862Y-108235086D01*
X113922641Y-108183590D01*
X113924854Y-108157095D01*
X113923713Y-108155218D01*
X113905584Y-108127565D01*
X113869644Y-108073849D01*
X113819418Y-107999303D01*
X113758430Y-107909162D01*
X113690205Y-107808657D01*
X113613330Y-107694470D01*
X113555663Y-107605770D01*
X113516426Y-107540721D01*
X113493350Y-107495295D01*
X113484166Y-107465463D01*
X113486604Y-107447195D01*
X113487424Y-107445825D01*
X113509477Y-107419205D01*
X113554436Y-107370697D01*
X113617673Y-107305108D01*
X113694559Y-107227247D01*
X113780465Y-107141922D01*
X113869579Y-107055334D01*
X113956872Y-106973947D01*
X114021018Y-106919035D01*
X114063679Y-106889190D01*
X114086521Y-106883004D01*
X114089505Y-106884394D01*
X114120936Y-106903127D01*
X114177997Y-106939733D01*
X114255343Y-106990697D01*
X114347626Y-107052504D01*
X114449502Y-107121639D01*
X114781593Y-107348420D01*
X114931566Y-107280353D01*
X114935923Y-107278381D01*
X115028000Y-107238491D01*
X115125683Y-107198818D01*
X115208539Y-107167674D01*
X115208905Y-107167545D01*
X115274685Y-107143456D01*
X115325323Y-107123110D01*
X115349884Y-107110901D01*
X115350282Y-107110458D01*
X115358619Y-107085456D01*
X115372341Y-107028598D01*
X115390123Y-106946014D01*
X115410641Y-106843831D01*
X115432571Y-106728178D01*
X115433336Y-106724033D01*
X115455229Y-106606019D01*
X115475281Y-106499151D01*
X115492192Y-106410252D01*
X115504667Y-106346145D01*
X115511406Y-106313654D01*
X115511837Y-106311853D01*
X115516273Y-106297944D01*
X115525263Y-106287489D01*
X115543737Y-106279996D01*
X115576628Y-106274972D01*
X115628868Y-106271922D01*
X115705388Y-106270355D01*
X115811122Y-106269776D01*
X115951000Y-106269692D01*
X115968575Y-106269693D01*
G36*
X115968575Y-106269693D02*
G01*
X116104371Y-106269807D01*
X116206576Y-106270472D01*
X116280122Y-106272182D01*
X116329942Y-106275429D01*
X116360967Y-106280706D01*
X116378129Y-106288507D01*
X116386361Y-106299325D01*
X116390594Y-106313654D01*
X116390716Y-106314168D01*
X116397672Y-106347851D01*
X116410320Y-106412917D01*
X116427360Y-106502542D01*
X116447496Y-106609904D01*
X116469429Y-106728178D01*
X116471218Y-106737856D01*
X116493083Y-106852650D01*
X116513430Y-106953480D01*
X116530934Y-107034217D01*
X116544271Y-107088734D01*
X116552116Y-107110901D01*
X116552158Y-107110936D01*
X116576884Y-107123200D01*
X116627631Y-107143576D01*
X116693462Y-107167674D01*
X116697169Y-107168983D01*
X116781331Y-107200791D01*
X116879230Y-107240685D01*
X116970435Y-107280353D01*
X117120407Y-107348420D01*
X117452499Y-107121639D01*
X117475889Y-107105688D01*
X117576080Y-107037890D01*
X117665480Y-106978208D01*
X117738745Y-106930156D01*
X117790527Y-106897250D01*
X117815480Y-106883004D01*
X117832577Y-106886270D01*
X117871395Y-106911571D01*
X117931385Y-106961675D01*
X118014210Y-107037989D01*
X118121535Y-107141922D01*
X118131139Y-107151382D01*
X118216302Y-107236145D01*
X118291949Y-107312937D01*
X118353449Y-107376947D01*
X118396173Y-107423361D01*
X118415489Y-107447369D01*
X118415552Y-107447485D01*
X118418006Y-107465763D01*
X118408956Y-107495411D01*
X118386119Y-107540486D01*
X118347213Y-107605044D01*
X118289954Y-107693140D01*
X118212059Y-107808830D01*
X118198785Y-107828357D01*
X118131652Y-107927278D01*
X118072410Y-108014848D01*
X118024588Y-108085831D01*
X117991715Y-108134991D01*
X117977318Y-108157095D01*
X117976232Y-108161777D01*
X117983044Y-108196710D01*
X118003450Y-108253753D01*
X118034123Y-108323172D01*
X118075808Y-108413959D01*
X118122352Y-108521686D01*
X118161877Y-108619192D01*
X118171676Y-108644430D01*
X118197340Y-108708870D01*
X118216193Y-108753763D01*
X118224710Y-108770616D01*
X118234111Y-108771875D01*
X118276363Y-108779159D01*
X118345521Y-108791739D01*
X118434387Y-108808246D01*
X118535768Y-108827312D01*
X118642467Y-108847569D01*
X118747288Y-108867647D01*
X118843036Y-108886179D01*
X118922516Y-108901795D01*
X118978530Y-108913127D01*
X119003885Y-108918807D01*
X119008088Y-108920408D01*
X119018334Y-108929045D01*
X119025957Y-108947433D01*
X119031338Y-108980460D01*
X119034859Y-109033013D01*
X119036901Y-109109979D01*
X119037847Y-109216246D01*
X119038077Y-109356701D01*
X119038077Y-109783845D01*
X118935500Y-109804091D01*
X118923092Y-109806518D01*
X118857199Y-109819088D01*
X118766084Y-109836170D01*
X118660104Y-109855829D01*
X118549615Y-109876132D01*
X118506105Y-109884299D01*
X118408882Y-109904167D01*
X118327858Y-109922954D01*
X118270477Y-109938859D01*
X118244187Y-109950079D01*
X118232273Y-109968411D01*
X118210583Y-110016916D01*
X118188395Y-110079692D01*
X118180585Y-110103200D01*
X118151835Y-110180366D01*
X118114752Y-110271694D01*
X118075375Y-110362093D01*
X118054315Y-110409310D01*
X118024311Y-110479837D01*
X118003692Y-110532655D01*
X117996026Y-110558912D01*
X117996452Y-110560894D01*
X118010993Y-110588751D01*
X118043783Y-110642510D01*
X118091493Y-110716963D01*
X118150798Y-110806897D01*
X118218369Y-110907104D01*
X118440713Y-111233416D01*
X118148601Y-111526016D01*
X118120349Y-111554171D01*
X118033961Y-111638449D01*
X117956756Y-111711128D01*
X117893258Y-111768112D01*
X117847990Y-111805307D01*
X117825474Y-111818616D01*
X117801023Y-111808490D01*
X117749819Y-111779421D01*
X117677747Y-111734896D01*
X117590460Y-111678411D01*
X117493612Y-111613462D01*
X117398486Y-111549314D01*
X117312669Y-111492827D01*
X117242652Y-111448184D01*
X117193876Y-111418855D01*
X117171783Y-111408308D01*
X117170488Y-111408404D01*
X117141139Y-111418802D01*
X117089093Y-111443012D01*
X117024708Y-111476249D01*
X117024032Y-111476613D01*
X116938521Y-111519441D01*
X116879926Y-111540365D01*
X116843571Y-111540423D01*
X116824775Y-111520654D01*
X116816819Y-111501195D01*
X116795347Y-111449080D01*
X116762273Y-111368964D01*
X116719356Y-111265107D01*
X116668356Y-111141767D01*
X116611033Y-111003201D01*
X116549146Y-110853670D01*
X116493052Y-110717636D01*
X116435977Y-110578050D01*
X116385479Y-110453315D01*
X116343254Y-110347672D01*
X116310995Y-110265365D01*
X116290397Y-110210635D01*
X116283154Y-110187726D01*
X116296986Y-110166718D01*
X116335412Y-110131642D01*
X116389807Y-110090887D01*
X116520395Y-109984267D01*
X116637260Y-109848025D01*
X116722780Y-109698118D01*
X116776431Y-109538971D01*
X116797684Y-109375012D01*
X116786014Y-109210667D01*
X116740894Y-109050361D01*
X116661797Y-108898520D01*
X116548197Y-108759572D01*
X116488965Y-108705460D01*
X116347054Y-108609782D01*
X116195206Y-108547405D01*
X116037861Y-108516844D01*
X115879456Y-108516615D01*
X115724429Y-108545232D01*
X115577220Y-108601210D01*
X115442266Y-108683064D01*
X115324005Y-108789309D01*
X115226877Y-108918459D01*
X115155318Y-109069031D01*
X115113769Y-109239539D01*
X115106143Y-109321722D01*
X115116634Y-109499775D01*
X115163882Y-109668704D01*
X115246489Y-109825522D01*
X115363059Y-109967245D01*
X115512193Y-110090887D01*
X115564561Y-110129982D01*
X115603832Y-110165443D01*
X115618846Y-110187692D01*
X115612859Y-110207088D01*
X115593432Y-110259059D01*
X115562194Y-110339002D01*
X115520839Y-110442673D01*
X115471061Y-110565832D01*
X115414553Y-110704234D01*
X115353009Y-110853637D01*
X115297008Y-110989020D01*
X115239184Y-111128852D01*
X115187500Y-111253872D01*
X115143718Y-111359822D01*
X115109597Y-111442441D01*
X115086898Y-111497472D01*
X115077380Y-111520654D01*
X115077269Y-111520928D01*
X115058228Y-111540503D01*
X115021694Y-111540279D01*
X114962954Y-111519210D01*
X114877292Y-111476249D01*
X114870549Y-111472631D01*
X114806938Y-111440087D01*
X114756707Y-111417050D01*
X114730218Y-111408308D01*
X114708506Y-111418639D01*
X114659984Y-111447788D01*
X114590163Y-111492287D01*
X114504484Y-111548668D01*
X114408388Y-111613462D01*
X114313706Y-111676984D01*
X114226132Y-111733705D01*
X114153642Y-111778547D01*
X114101889Y-111808016D01*
X114076526Y-111818616D01*
X114072206Y-111817270D01*
X114042092Y-111796056D01*
X113990640Y-111752237D01*
X113922375Y-111689909D01*
X113841820Y-111613170D01*
X113753500Y-111526116D01*
X113461488Y-111233617D01*
X113916360Y-110564525D01*
X113847208Y-110414916D01*
X113847003Y-110414473D01*
X113805477Y-110319101D01*
X113763044Y-110212896D01*
X113728858Y-110118769D01*
X113723684Y-110103588D01*
X113697601Y-110033109D01*
X113674081Y-109978342D01*
X113657677Y-109950079D01*
X113650996Y-109946088D01*
X113610892Y-109932697D01*
X113542795Y-109915373D01*
X113454145Y-109895917D01*
X113352385Y-109876132D01*
X113321904Y-109870551D01*
X113211628Y-109850233D01*
X113108731Y-109831095D01*
X113023569Y-109815070D01*
X112966500Y-109804091D01*
X112863923Y-109783845D01*
X112863923Y-109356701D01*
X112863946Y-109304180D01*
X112864379Y-109176047D01*
X112865659Y-109080420D01*
X112868168Y-109012411D01*
X112872286Y-108967133D01*
X112878395Y-108939697D01*
X112886878Y-108925218D01*
X112898115Y-108918807D01*
X112908994Y-108916209D01*
X112953347Y-108907022D01*
X113024106Y-108892991D01*
X113114074Y-108875486D01*
X113216056Y-108855874D01*
X113322857Y-108835525D01*
X113427281Y-108815807D01*
X113522132Y-108798089D01*
X113600214Y-108783738D01*
X113654332Y-108774124D01*
X113677291Y-108770616D01*
X113678842Y-108768497D01*
X113691325Y-108741006D01*
X113712927Y-108688406D01*
X113740123Y-108619192D01*
X113777866Y-108525937D01*
X113824328Y-108418159D01*
X113867878Y-108323172D01*
X113877858Y-108301851D01*
X113905862Y-108235086D01*
X113922641Y-108183590D01*
X113924854Y-108157095D01*
X113923713Y-108155218D01*
X113905584Y-108127565D01*
X113869644Y-108073849D01*
X113819418Y-107999303D01*
X113758430Y-107909162D01*
X113690205Y-107808657D01*
X113613330Y-107694470D01*
X113555663Y-107605770D01*
X113516426Y-107540721D01*
X113493350Y-107495295D01*
X113484166Y-107465463D01*
X113486604Y-107447195D01*
X113487424Y-107445825D01*
X113509477Y-107419205D01*
X113554436Y-107370697D01*
X113617673Y-107305108D01*
X113694559Y-107227247D01*
X113780465Y-107141922D01*
X113869579Y-107055334D01*
X113956872Y-106973947D01*
X114021018Y-106919035D01*
X114063679Y-106889190D01*
X114086521Y-106883004D01*
X114089505Y-106884394D01*
X114120936Y-106903127D01*
X114177997Y-106939733D01*
X114255343Y-106990697D01*
X114347626Y-107052504D01*
X114449502Y-107121639D01*
X114781593Y-107348420D01*
X114931566Y-107280353D01*
X114935923Y-107278381D01*
X115028000Y-107238491D01*
X115125683Y-107198818D01*
X115208539Y-107167674D01*
X115208905Y-107167545D01*
X115274685Y-107143456D01*
X115325323Y-107123110D01*
X115349884Y-107110901D01*
X115350282Y-107110458D01*
X115358619Y-107085456D01*
X115372341Y-107028598D01*
X115390123Y-106946014D01*
X115410641Y-106843831D01*
X115432571Y-106728178D01*
X115433336Y-106724033D01*
X115455229Y-106606019D01*
X115475281Y-106499151D01*
X115492192Y-106410252D01*
X115504667Y-106346145D01*
X115511406Y-106313654D01*
X115511837Y-106311853D01*
X115516273Y-106297944D01*
X115525263Y-106287489D01*
X115543737Y-106279996D01*
X115576628Y-106274972D01*
X115628868Y-106271922D01*
X115705388Y-106270355D01*
X115811122Y-106269776D01*
X115951000Y-106269692D01*
X115968575Y-106269693D01*
G37*
%TD*%
%LPC*%
D13*
%TO.C,J1*%
X107000000Y-79055000D03*
D14*
X107000000Y-82555000D03*
X107000000Y-86055000D03*
%TD*%
D15*
%TO.C,J101*%
X125000000Y-86000000D03*
D14*
X125000000Y-82500000D03*
X125000000Y-79000000D03*
%TD*%
D16*
%TO.C,D102*%
X119815000Y-92000000D03*
D17*
X112195000Y-92000000D03*
%TD*%
D18*
%TO.C,Q2*%
X124726000Y-73787000D03*
D19*
X127006000Y-73787000D03*
X129286000Y-73787000D03*
%TD*%
D20*
%TO.C,REF\u002A\u002A*%
X104000000Y-93000000D03*
%TD*%
D16*
%TO.C,D1*%
X112644000Y-86741000D03*
D17*
X120264000Y-86741000D03*
%TD*%
D21*
%TO.C,SW103*%
X112580000Y-114520000D03*
X102420000Y-114510000D03*
X107500000Y-114510000D03*
%TD*%
D16*
%TO.C,D101*%
X112185000Y-94189000D03*
D17*
X119805000Y-94189000D03*
%TD*%
D21*
%TO.C,SW102*%
X119420000Y-108000000D03*
X129580000Y-108010000D03*
X124500000Y-108010000D03*
%TD*%
D22*
%TO.C,R2*%
X112522000Y-84328000D03*
D23*
X120142000Y-84328000D03*
%TD*%
D21*
%TO.C,SW104*%
X119420000Y-114500000D03*
X129580000Y-114510000D03*
X124500000Y-114510000D03*
%TD*%
D22*
%TO.C,R1*%
X112522000Y-82067000D03*
D23*
X120142000Y-82067000D03*
%TD*%
D18*
%TO.C,Q1*%
X103220000Y-74000000D03*
D19*
X105500000Y-74000000D03*
X107780000Y-74000000D03*
%TD*%
D20*
%TO.C,REF\u002A\u002A*%
X128000000Y-92500000D03*
%TD*%
D21*
%TO.C,SW101*%
X112580000Y-108020000D03*
X102420000Y-108010000D03*
X107500000Y-108010000D03*
%TD*%
D16*
%TO.C,D2*%
X112685000Y-89000000D03*
D17*
X120305000Y-89000000D03*
%TD*%
%LPD*%
M02*
