%TF.GenerationSoftware,KiCad,Pcbnew,8.0.2*%
%TF.CreationDate,2025-01-05T14:47:25+01:00*%
%TF.ProjectId,ledStrip,6c656453-7472-4697-902e-6b696361645f,rev?*%
%TF.SameCoordinates,Original*%
%TF.FileFunction,Soldermask,Top*%
%TF.FilePolarity,Negative*%
%FSLAX46Y46*%
G04 Gerber Fmt 4.6, Leading zero omitted, Abs format (unit mm)*
G04 Created by KiCad (PCBNEW 8.0.2) date 2025-01-05 14:47:25*
%MOMM*%
%LPD*%
G01*
G04 APERTURE LIST*
G04 Aperture macros list*
%AMRoundRect*
0 Rectangle with rounded corners*
0 $1 Rounding radius*
0 $2 $3 $4 $5 $6 $7 $8 $9 X,Y pos of 4 corners*
0 Add a 4 corners polygon primitive as box body*
4,1,4,$2,$3,$4,$5,$6,$7,$8,$9,$2,$3,0*
0 Add four circle primitives for the rounded corners*
1,1,$1+$1,$2,$3*
1,1,$1+$1,$4,$5*
1,1,$1+$1,$6,$7*
1,1,$1+$1,$8,$9*
0 Add four rect primitives between the rounded corners*
20,1,$1+$1,$2,$3,$4,$5,0*
20,1,$1+$1,$4,$5,$6,$7,0*
20,1,$1+$1,$6,$7,$8,$9,0*
20,1,$1+$1,$8,$9,$2,$3,0*%
G04 Aperture macros list end*
%ADD10RoundRect,0.243750X0.243750X0.456250X-0.243750X0.456250X-0.243750X-0.456250X0.243750X-0.456250X0*%
%ADD11RoundRect,0.243750X0.456250X-0.243750X0.456250X0.243750X-0.456250X0.243750X-0.456250X-0.243750X0*%
%ADD12RoundRect,0.237500X-0.250000X-0.237500X0.250000X-0.237500X0.250000X0.237500X-0.250000X0.237500X0*%
%ADD13RoundRect,0.243750X-0.456250X0.243750X-0.456250X-0.243750X0.456250X-0.243750X0.456250X0.243750X0*%
%ADD14R,1.200000X1.200000*%
%ADD15R,1.500000X1.600000*%
%ADD16RoundRect,0.112500X-0.187500X-0.112500X0.187500X-0.112500X0.187500X0.112500X-0.187500X0.112500X0*%
%ADD17RoundRect,0.243750X-0.243750X-0.456250X0.243750X-0.456250X0.243750X0.456250X-0.243750X0.456250X0*%
%ADD18RoundRect,0.250001X1.999999X0.799999X-1.999999X0.799999X-1.999999X-0.799999X1.999999X-0.799999X0*%
%ADD19C,3.200000*%
%ADD20C,2.100000*%
%ADD21RoundRect,0.225000X-0.225000X-0.250000X0.225000X-0.250000X0.225000X0.250000X-0.225000X0.250000X0*%
%ADD22RoundRect,0.112500X-0.112500X0.187500X-0.112500X-0.187500X0.112500X-0.187500X0.112500X0.187500X0*%
%ADD23RoundRect,0.237500X0.250000X0.237500X-0.250000X0.237500X-0.250000X-0.237500X0.250000X-0.237500X0*%
%ADD24RoundRect,0.237500X-0.237500X0.250000X-0.237500X-0.250000X0.237500X-0.250000X0.237500X0.250000X0*%
%ADD25RoundRect,0.250000X0.450000X-0.350000X0.450000X0.350000X-0.450000X0.350000X-0.450000X-0.350000X0*%
%ADD26RoundRect,0.237500X0.237500X-0.250000X0.237500X0.250000X-0.237500X0.250000X-0.237500X-0.250000X0*%
G04 APERTURE END LIST*
D10*
%TO.C,D7*%
X35437500Y-113000000D03*
X33562500Y-113000000D03*
%TD*%
D11*
%TO.C,D23*%
X259500000Y-119937500D03*
X259500000Y-118062500D03*
%TD*%
D12*
%TO.C,R8*%
X230087500Y-119000000D03*
X231912500Y-119000000D03*
%TD*%
D10*
%TO.C,D9*%
X66937500Y-130429000D03*
X65062500Y-130429000D03*
%TD*%
%TO.C,D10*%
X73937500Y-119000000D03*
X72062500Y-119000000D03*
%TD*%
D13*
%TO.C,D6*%
X19500000Y-118062500D03*
X19500000Y-119937500D03*
%TD*%
D10*
%TO.C,D17*%
X175937500Y-119000000D03*
X174062500Y-119000000D03*
%TD*%
%TO.C,D11*%
X93937500Y-119000000D03*
X92062500Y-119000000D03*
%TD*%
D14*
%TO.C,RV1*%
X41297000Y-114792000D03*
D15*
X38047000Y-113792000D03*
D14*
X41297000Y-112792000D03*
%TD*%
D10*
%TO.C,D13*%
X113875000Y-119000000D03*
X112000000Y-119000000D03*
%TD*%
%TO.C,D19*%
X199437500Y-130500000D03*
X197562500Y-130500000D03*
%TD*%
D16*
%TO.C,D1*%
X46000000Y-119000000D03*
X48100000Y-119000000D03*
%TD*%
D12*
%TO.C,R4*%
X55525000Y-130429000D03*
X57350000Y-130429000D03*
%TD*%
D17*
%TO.C,D15*%
X152625000Y-119000000D03*
X154500000Y-119000000D03*
%TD*%
D18*
%TO.C,C3*%
X33600000Y-122000000D03*
X26400000Y-122000000D03*
%TD*%
D16*
%TO.C,D2*%
X45950000Y-117000000D03*
X48050000Y-117000000D03*
%TD*%
D19*
%TO.C,REF\u002A\u002A*%
X231750000Y-126250000D03*
%TD*%
D20*
%TO.C,REF\u002A\u002A*%
X38000000Y-110250000D03*
%TD*%
D19*
%TO.C,REF\u002A\u002A*%
X63250000Y-126250000D03*
%TD*%
D21*
%TO.C,C1*%
X44000000Y-115000000D03*
X45550000Y-115000000D03*
%TD*%
D10*
%TO.C,D8*%
X54000000Y-119000000D03*
X52125000Y-119000000D03*
%TD*%
D22*
%TO.C,D5*%
X37000000Y-116500000D03*
X37000000Y-118600000D03*
%TD*%
D10*
%TO.C,D16*%
X154437500Y-130500000D03*
X152562500Y-130500000D03*
%TD*%
D20*
%TO.C,REF\u002A\u002A*%
X245250000Y-125250000D03*
%TD*%
D23*
%TO.C,R7*%
X201469000Y-118872000D03*
X199644000Y-118872000D03*
%TD*%
D17*
%TO.C,D18*%
X195562500Y-119000000D03*
X197437500Y-119000000D03*
%TD*%
D16*
%TO.C,D4*%
X41950000Y-117000000D03*
X44050000Y-117000000D03*
%TD*%
D10*
%TO.C,D22*%
X244437500Y-130500000D03*
X242562500Y-130500000D03*
%TD*%
D23*
%TO.C,R5*%
X113412500Y-130500000D03*
X111587500Y-130500000D03*
%TD*%
D10*
%TO.C,D20*%
X215437500Y-119000000D03*
X213562500Y-119000000D03*
%TD*%
D24*
%TO.C,R3*%
X21500000Y-118087500D03*
X21500000Y-119912500D03*
%TD*%
D16*
%TO.C,D3*%
X42000000Y-119000000D03*
X44100000Y-119000000D03*
%TD*%
D25*
%TO.C,R1*%
X39500000Y-118500000D03*
X39500000Y-116500000D03*
%TD*%
D10*
%TO.C,D21*%
X235937500Y-119000000D03*
X234062500Y-119000000D03*
%TD*%
D20*
%TO.C,REF\u002A\u002A*%
X37750000Y-124250000D03*
%TD*%
D17*
%TO.C,D12*%
X107562500Y-130500000D03*
X109437500Y-130500000D03*
%TD*%
D20*
%TO.C,REF\u002A\u002A*%
X245500000Y-111250000D03*
%TD*%
D10*
%TO.C,D14*%
X136437500Y-119000000D03*
X134562500Y-119000000D03*
%TD*%
D26*
%TO.C,R2*%
X50000000Y-118825000D03*
X50000000Y-117000000D03*
%TD*%
D23*
%TO.C,R6*%
X158519500Y-118999000D03*
X156694500Y-118999000D03*
%TD*%
M02*
