%TF.GenerationSoftware,KiCad,Pcbnew,8.0.2*%
%TF.CreationDate,2025-01-24T00:11:38+01:00*%
%TF.ProjectId,INPUT_ADD_ON,494e5055-545f-4414-9444-5f4f4e2e6b69,rev?*%
%TF.SameCoordinates,Original*%
%TF.FileFunction,Paste,Top*%
%TF.FilePolarity,Positive*%
%FSLAX46Y46*%
G04 Gerber Fmt 4.6, Leading zero omitted, Abs format (unit mm)*
G04 Created by KiCad (PCBNEW 8.0.2) date 2025-01-24 00:11:38*
%MOMM*%
%LPD*%
G01*
G04 APERTURE LIST*
G04 Aperture macros list*
%AMRoundRect*
0 Rectangle with rounded corners*
0 $1 Rounding radius*
0 $2 $3 $4 $5 $6 $7 $8 $9 X,Y pos of 4 corners*
0 Add a 4 corners polygon primitive as box body*
4,1,4,$2,$3,$4,$5,$6,$7,$8,$9,$2,$3,0*
0 Add four circle primitives for the rounded corners*
1,1,$1+$1,$2,$3*
1,1,$1+$1,$4,$5*
1,1,$1+$1,$6,$7*
1,1,$1+$1,$8,$9*
0 Add four rect primitives between the rounded corners*
20,1,$1+$1,$2,$3,$4,$5,0*
20,1,$1+$1,$4,$5,$6,$7,0*
20,1,$1+$1,$6,$7,$8,$9,0*
20,1,$1+$1,$8,$9,$2,$3,0*%
G04 Aperture macros list end*
%ADD10RoundRect,0.150000X-0.650000X-0.150000X0.650000X-0.150000X0.650000X0.150000X-0.650000X0.150000X0*%
%ADD11RoundRect,0.250000X0.450000X-0.350000X0.450000X0.350000X-0.450000X0.350000X-0.450000X-0.350000X0*%
%ADD12RoundRect,0.237500X-0.250000X-0.237500X0.250000X-0.237500X0.250000X0.237500X-0.250000X0.237500X0*%
%ADD13RoundRect,0.237500X0.250000X0.237500X-0.250000X0.237500X-0.250000X-0.237500X0.250000X-0.237500X0*%
%ADD14RoundRect,0.250000X0.250000X0.750000X-0.250000X0.750000X-0.250000X-0.750000X0.250000X-0.750000X0*%
%ADD15RoundRect,0.225000X0.225000X0.250000X-0.225000X0.250000X-0.225000X-0.250000X0.225000X-0.250000X0*%
G04 APERTURE END LIST*
D10*
%TO.C,U101*%
X161250000Y-107555000D03*
X161250000Y-108825000D03*
X161250000Y-110095000D03*
X161250000Y-111365000D03*
X161250000Y-112635000D03*
X161250000Y-113905000D03*
X161250000Y-115175000D03*
X161250000Y-116445000D03*
X167750000Y-116445000D03*
X167750000Y-115175000D03*
X167750000Y-113905000D03*
X167750000Y-112635000D03*
X167750000Y-111365000D03*
X167750000Y-110095000D03*
X167750000Y-108825000D03*
X167750000Y-107555000D03*
%TD*%
D11*
%TO.C,R903*%
X98949000Y-87166000D03*
X98949000Y-89166000D03*
%TD*%
%TO.C,R902*%
X110985000Y-87037000D03*
X110985000Y-89037000D03*
%TD*%
D12*
%TO.C,R901*%
X105687500Y-71557000D03*
X103862500Y-71557000D03*
%TD*%
D11*
%TO.C,R803*%
X143933000Y-113646000D03*
X143933000Y-111646000D03*
%TD*%
%TO.C,R802*%
X155969000Y-113517000D03*
X155969000Y-111517000D03*
%TD*%
D12*
%TO.C,R801*%
X148846500Y-96037000D03*
X150671500Y-96037000D03*
%TD*%
D11*
%TO.C,R703*%
X128933000Y-113646000D03*
X128933000Y-111646000D03*
%TD*%
%TO.C,R702*%
X140969000Y-113517000D03*
X140969000Y-111517000D03*
%TD*%
D12*
%TO.C,R701*%
X133846500Y-96037000D03*
X135671500Y-96037000D03*
%TD*%
D11*
%TO.C,R603*%
X113933000Y-113646000D03*
X113933000Y-111646000D03*
%TD*%
%TO.C,R602*%
X125969000Y-113517000D03*
X125969000Y-111517000D03*
%TD*%
D12*
%TO.C,R601*%
X118846500Y-96037000D03*
X120671500Y-96037000D03*
%TD*%
D11*
%TO.C,R503*%
X98933000Y-113646000D03*
X98933000Y-111646000D03*
%TD*%
%TO.C,R502*%
X110969000Y-113517000D03*
X110969000Y-111517000D03*
%TD*%
D12*
%TO.C,R501*%
X103846500Y-96037000D03*
X105671500Y-96037000D03*
%TD*%
D11*
%TO.C,R403*%
X144761000Y-88878000D03*
X144761000Y-86878000D03*
%TD*%
%TO.C,R402*%
X156797000Y-88749000D03*
X156797000Y-86749000D03*
%TD*%
D12*
%TO.C,R401*%
X149674500Y-71269000D03*
X151499500Y-71269000D03*
%TD*%
D11*
%TO.C,R303*%
X129761000Y-88878000D03*
X129761000Y-86878000D03*
%TD*%
%TO.C,R302*%
X141797000Y-88749000D03*
X141797000Y-86749000D03*
%TD*%
D12*
%TO.C,R301*%
X134674500Y-71269000D03*
X136499500Y-71269000D03*
%TD*%
D11*
%TO.C,R203*%
X114761000Y-88878000D03*
X114761000Y-86878000D03*
%TD*%
%TO.C,R202*%
X126797000Y-88749000D03*
X126797000Y-86749000D03*
%TD*%
D12*
%TO.C,R201*%
X119674500Y-71269000D03*
X121499500Y-71269000D03*
%TD*%
D13*
%TO.C,R103*%
X161139500Y-100457000D03*
X162964500Y-100457000D03*
%TD*%
%TO.C,R102*%
X162964500Y-102616000D03*
X161139500Y-102616000D03*
%TD*%
%TO.C,R101*%
X161266500Y-105029000D03*
X163091500Y-105029000D03*
%TD*%
D14*
%TO.C,J903*%
X106172000Y-123190000D03*
%TD*%
%TO.C,J902*%
X108712000Y-123190000D03*
%TD*%
%TO.C,J803*%
X141732000Y-123190000D03*
%TD*%
%TO.C,J802*%
X144272000Y-123190000D03*
%TD*%
%TO.C,J703*%
X131572000Y-123190000D03*
%TD*%
%TO.C,J702*%
X134112000Y-123190000D03*
%TD*%
%TO.C,J603*%
X121412000Y-123190000D03*
%TD*%
%TO.C,J602*%
X123952000Y-123190000D03*
%TD*%
%TO.C,J503*%
X111252000Y-123190000D03*
%TD*%
%TO.C,J502*%
X113792000Y-123190000D03*
%TD*%
%TO.C,J403*%
X136652000Y-123190000D03*
%TD*%
%TO.C,J402*%
X139192000Y-123190000D03*
%TD*%
%TO.C,J303*%
X126492000Y-123190000D03*
%TD*%
%TO.C,J302*%
X129032000Y-123190000D03*
%TD*%
%TO.C,J203*%
X116332000Y-123190000D03*
%TD*%
%TO.C,J202*%
X118872000Y-123190000D03*
%TD*%
D15*
%TO.C,C101*%
X167907000Y-105791000D03*
X166357000Y-105791000D03*
%TD*%
M02*
