%TF.GenerationSoftware,KiCad,Pcbnew,(5.1.6)-1*%
%TF.CreationDate,2021-01-10T15:05:26+01:00*%
%TF.ProjectId,trainCatcher,74726169-6e43-4617-9463-6865722e6b69,rev?*%
%TF.SameCoordinates,Original*%
%TF.FileFunction,Copper,L2,Bot*%
%TF.FilePolarity,Positive*%
%FSLAX46Y46*%
G04 Gerber Fmt 4.6, Leading zero omitted, Abs format (unit mm)*
G04 Created by KiCad (PCBNEW (5.1.6)-1) date 2021-01-10 15:05:26*
%MOMM*%
%LPD*%
G01*
G04 APERTURE LIST*
%TA.AperFunction,ComponentPad*%
%ADD10O,1.700000X1.700000*%
%TD*%
%TA.AperFunction,ComponentPad*%
%ADD11R,1.700000X1.700000*%
%TD*%
%TA.AperFunction,ComponentPad*%
%ADD12C,1.550000*%
%TD*%
%TA.AperFunction,ComponentPad*%
%ADD13R,1.550000X1.550000*%
%TD*%
%TA.AperFunction,ComponentPad*%
%ADD14C,1.200000*%
%TD*%
%TA.AperFunction,ComponentPad*%
%ADD15R,1.050000X1.500000*%
%TD*%
%TA.AperFunction,ComponentPad*%
%ADD16O,1.050000X1.500000*%
%TD*%
%TA.AperFunction,ComponentPad*%
%ADD17R,3.000000X3.000000*%
%TD*%
%TA.AperFunction,ComponentPad*%
%ADD18C,3.000000*%
%TD*%
%TA.AperFunction,ViaPad*%
%ADD19C,0.800000*%
%TD*%
%TA.AperFunction,Conductor*%
%ADD20C,0.250000*%
%TD*%
%TA.AperFunction,Conductor*%
%ADD21C,0.254000*%
%TD*%
G04 APERTURE END LIST*
D10*
%TO.P,J3,4*%
%TO.N,Net-(J3-Pad4)*%
X146685000Y-151320500D03*
%TO.P,J3,3*%
%TO.N,GND*%
X146685000Y-153860500D03*
%TO.P,J3,2*%
%TO.N,Net-(J3-Pad2)*%
X144145000Y-151320500D03*
D11*
%TO.P,J3,1*%
%TO.N,GND*%
X144145000Y-153860500D03*
%TD*%
D12*
%TO.P,RV1,2*%
%TO.N,Net-(RV1-Pad2)*%
X141558000Y-166838000D03*
D13*
%TO.P,RV1,1*%
%TO.N,GND*%
X146558000Y-164338000D03*
D12*
%TO.P,RV1,3*%
%TO.N,+5V*%
X146558000Y-169338000D03*
%TD*%
%TO.P,C3,2*%
%TO.N,GND*%
%TA.AperFunction,SMDPad,CuDef*%
G36*
G01*
X152536500Y-161341750D02*
X152536500Y-162254250D01*
G75*
G02*
X152292750Y-162498000I-243750J0D01*
G01*
X151805250Y-162498000D01*
G75*
G02*
X151561500Y-162254250I0J243750D01*
G01*
X151561500Y-161341750D01*
G75*
G02*
X151805250Y-161098000I243750J0D01*
G01*
X152292750Y-161098000D01*
G75*
G02*
X152536500Y-161341750I0J-243750D01*
G01*
G37*
%TD.AperFunction*%
%TO.P,C3,1*%
%TO.N,+5V*%
%TA.AperFunction,SMDPad,CuDef*%
G36*
G01*
X154411500Y-161341750D02*
X154411500Y-162254250D01*
G75*
G02*
X154167750Y-162498000I-243750J0D01*
G01*
X153680250Y-162498000D01*
G75*
G02*
X153436500Y-162254250I0J243750D01*
G01*
X153436500Y-161341750D01*
G75*
G02*
X153680250Y-161098000I243750J0D01*
G01*
X154167750Y-161098000D01*
G75*
G02*
X154411500Y-161341750I0J-243750D01*
G01*
G37*
%TD.AperFunction*%
%TD*%
D14*
%TO.P,C2,2*%
%TO.N,GND*%
X136930000Y-162000000D03*
%TO.P,C2,1*%
%TO.N,+5V*%
X138430000Y-162000000D03*
%TD*%
%TO.P,C1,2*%
%TO.N,GND*%
X131572000Y-168632000D03*
%TO.P,C1,1*%
%TO.N,Net-(C1-Pad1)*%
X131572000Y-167132000D03*
%TD*%
D15*
%TO.P,U1,1*%
%TO.N,+5V*%
X138176000Y-167386000D03*
D16*
%TO.P,U1,3*%
%TO.N,Net-(C1-Pad1)*%
X135636000Y-167386000D03*
%TO.P,U1,2*%
%TO.N,GND*%
X136906000Y-167386000D03*
%TD*%
D17*
%TO.P,J1,1*%
%TO.N,Net-(D1-Pad4)*%
X112000000Y-162560000D03*
D18*
%TO.P,J1,2*%
%TO.N,Net-(D1-Pad3)*%
X112000000Y-167640000D03*
%TD*%
%TO.P,J2,2*%
%TO.N,Net-(D4-Pad1)*%
X112000000Y-157536000D03*
D17*
%TO.P,J2,1*%
%TO.N,Net-(D5-Pad1)*%
X112000000Y-152456000D03*
%TD*%
D19*
%TO.N,Net-(D1-Pad4)*%
X149860000Y-161290000D03*
X124460000Y-151892000D03*
X142621000Y-150177500D03*
%TO.N,Net-(D1-Pad3)*%
X124206000Y-159258000D03*
X138366500Y-158115000D03*
X143028500Y-156337000D03*
%TO.N,Net-(R1-Pad1)*%
X148844000Y-162052000D03*
X149860000Y-168910000D03*
%TO.N,GND*%
X139954000Y-160528000D03*
X152908000Y-167132000D03*
X148590000Y-169164000D03*
X121920000Y-156210000D03*
X121158000Y-162560000D03*
X121412000Y-168402000D03*
X152908000Y-157734000D03*
X121158000Y-153924000D03*
X147256500Y-158242000D03*
X139954000Y-163576000D03*
%TO.N,Net-(J3-Pad2)*%
X153225500Y-165989000D03*
%TO.N,+5V*%
X155500000Y-162000000D03*
%TO.N,Net-(D4-Pad1)*%
X121293501Y-155248999D03*
%TO.N,Net-(D5-Pad1)*%
X141859000Y-151130000D03*
%TO.N,Net-(J3-Pad4)*%
X146621500Y-162560000D03*
%TD*%
D20*
%TO.N,Net-(D1-Pad4)*%
X116064000Y-158496000D02*
X112000000Y-162560000D01*
X109277990Y-159837990D02*
X112000000Y-162560000D01*
X109277990Y-151593008D02*
X109277990Y-159837990D01*
X110239999Y-150630999D02*
X109277990Y-151593008D01*
X123198999Y-150630999D02*
X110239999Y-150630999D01*
X124460000Y-151892000D02*
X123198999Y-150630999D01*
X149860000Y-161290000D02*
X149712999Y-161437001D01*
X126174500Y-150177500D02*
X124460000Y-151892000D01*
X142621000Y-150177500D02*
X126174500Y-150177500D01*
%TO.N,Net-(D1-Pad3)*%
X120382000Y-159258000D02*
X112000000Y-167640000D01*
X124206000Y-159258000D02*
X120382000Y-159258000D01*
X138366500Y-158115000D02*
X141224000Y-158115000D01*
X141224000Y-158115000D02*
X143002000Y-156337000D01*
X143002000Y-156337000D02*
X143028500Y-156337000D01*
%TO.N,Net-(R1-Pad1)*%
X149098000Y-162306000D02*
X148844000Y-162052000D01*
X149860000Y-168910000D02*
X149098000Y-168148000D01*
X149098000Y-168148000D02*
X149098000Y-162306000D01*
%TO.N,Net-(J3-Pad2)*%
X151236490Y-161593488D02*
X151236490Y-163936490D01*
X142981999Y-158524499D02*
X142981999Y-162897001D01*
X145522999Y-165438001D02*
X147593001Y-165438001D01*
X144145000Y-151320500D02*
X145320001Y-152495501D01*
X145320001Y-152495501D02*
X145320001Y-156186497D01*
X142981999Y-162897001D02*
X145522999Y-165438001D01*
X147593001Y-165438001D02*
X148118999Y-164912003D01*
X148118999Y-164912003D02*
X148118999Y-161703999D01*
X145320001Y-156186497D02*
X142981999Y-158524499D01*
X149257999Y-160564999D02*
X150208001Y-160564999D01*
X148118999Y-161703999D02*
X149257999Y-160564999D01*
X150208001Y-160564999D02*
X151236490Y-161593488D01*
X151236490Y-163936490D02*
X153225500Y-165925500D01*
X153225500Y-165925500D02*
X153225500Y-165989000D01*
%TO.N,+5V*%
X154126000Y-162000000D02*
X153924000Y-161798000D01*
X155500000Y-162000000D02*
X154126000Y-162000000D01*
X146558000Y-169338000D02*
X138858000Y-169338000D01*
X138176000Y-168656000D02*
X138176000Y-167386000D01*
X138858000Y-169338000D02*
X138176000Y-168656000D01*
X138176000Y-162254000D02*
X138430000Y-162000000D01*
X138176000Y-167386000D02*
X138176000Y-162254000D01*
%TO.N,Net-(D4-Pad1)*%
X114287001Y-155248999D02*
X112000000Y-157536000D01*
X121293501Y-155248999D02*
X114287001Y-155248999D01*
%TO.N,Net-(D5-Pad1)*%
X141859000Y-151130000D02*
X140017500Y-152971500D01*
X112515500Y-152971500D02*
X112000000Y-152456000D01*
X140017500Y-152971500D02*
X112515500Y-152971500D01*
%TO.N,Net-(J3-Pad4)*%
X146621500Y-162560000D02*
X148907500Y-160274000D01*
X148907500Y-153543000D02*
X146685000Y-151320500D01*
X148907500Y-160274000D02*
X148907500Y-153543000D01*
%TD*%
D21*
%TO.N,GND*%
G36*
X157290001Y-170290000D02*
G01*
X147600040Y-170290000D01*
X147653218Y-170236822D01*
X147807525Y-170005885D01*
X147913814Y-169749282D01*
X147968000Y-169476873D01*
X147968000Y-169199127D01*
X147913814Y-168926718D01*
X147807525Y-168670115D01*
X147653218Y-168439178D01*
X147456822Y-168242782D01*
X147225885Y-168088475D01*
X146969282Y-167982186D01*
X146696873Y-167928000D01*
X146419127Y-167928000D01*
X146146718Y-167982186D01*
X145890115Y-168088475D01*
X145659178Y-168242782D01*
X145462782Y-168439178D01*
X145370024Y-168578000D01*
X139172802Y-168578000D01*
X139165618Y-168570817D01*
X139231537Y-168490494D01*
X139290502Y-168380180D01*
X139326812Y-168260482D01*
X139339072Y-168136000D01*
X139339072Y-166699127D01*
X140148000Y-166699127D01*
X140148000Y-166976873D01*
X140202186Y-167249282D01*
X140308475Y-167505885D01*
X140462782Y-167736822D01*
X140659178Y-167933218D01*
X140890115Y-168087525D01*
X141146718Y-168193814D01*
X141419127Y-168248000D01*
X141696873Y-168248000D01*
X141969282Y-168193814D01*
X142225885Y-168087525D01*
X142456822Y-167933218D01*
X142653218Y-167736822D01*
X142807525Y-167505885D01*
X142913814Y-167249282D01*
X142968000Y-166976873D01*
X142968000Y-166699127D01*
X142913814Y-166426718D01*
X142807525Y-166170115D01*
X142653218Y-165939178D01*
X142456822Y-165742782D01*
X142225885Y-165588475D01*
X141969282Y-165482186D01*
X141696873Y-165428000D01*
X141419127Y-165428000D01*
X141146718Y-165482186D01*
X140890115Y-165588475D01*
X140659178Y-165742782D01*
X140462782Y-165939178D01*
X140308475Y-166170115D01*
X140202186Y-166426718D01*
X140148000Y-166699127D01*
X139339072Y-166699127D01*
X139339072Y-166636000D01*
X139326812Y-166511518D01*
X139290502Y-166391820D01*
X139231537Y-166281506D01*
X139152185Y-166184815D01*
X139055494Y-166105463D01*
X138945180Y-166046498D01*
X138936000Y-166043713D01*
X138936000Y-163127163D01*
X139014992Y-163094443D01*
X139217267Y-162959287D01*
X139389287Y-162787267D01*
X139524443Y-162584992D01*
X139617540Y-162360236D01*
X139665000Y-162121637D01*
X139665000Y-161878363D01*
X139617540Y-161639764D01*
X139524443Y-161415008D01*
X139389287Y-161212733D01*
X139217267Y-161040713D01*
X139014992Y-160905557D01*
X138790236Y-160812460D01*
X138551637Y-160765000D01*
X138308363Y-160765000D01*
X138069764Y-160812460D01*
X137845008Y-160905557D01*
X137642733Y-161040713D01*
X137588467Y-161094979D01*
X137552852Y-160926652D01*
X137331484Y-160825763D01*
X137094687Y-160770000D01*
X136851562Y-160761505D01*
X136611451Y-160800605D01*
X136383582Y-160885798D01*
X136307148Y-160926652D01*
X136259841Y-161150236D01*
X136930000Y-161820395D01*
X136944143Y-161806253D01*
X137123748Y-161985858D01*
X137109605Y-162000000D01*
X137123748Y-162014143D01*
X136944143Y-162193748D01*
X136930000Y-162179605D01*
X136259841Y-162849764D01*
X136307148Y-163073348D01*
X136528516Y-163174237D01*
X136765313Y-163230000D01*
X137008438Y-163238495D01*
X137248549Y-163199395D01*
X137416001Y-163136790D01*
X137416000Y-166043713D01*
X137406820Y-166046498D01*
X137341943Y-166081176D01*
X137273337Y-166050728D01*
X137211810Y-166042036D01*
X137033000Y-166167837D01*
X137033000Y-166485765D01*
X137025188Y-166511518D01*
X137012928Y-166636000D01*
X137012928Y-168136000D01*
X137025188Y-168260482D01*
X137033000Y-168286235D01*
X137033000Y-168604163D01*
X137211810Y-168729964D01*
X137273337Y-168721272D01*
X137341943Y-168690824D01*
X137406820Y-168725502D01*
X137419549Y-168729363D01*
X137426997Y-168804985D01*
X137459361Y-168911677D01*
X137470454Y-168948246D01*
X137541026Y-169080276D01*
X137580871Y-169128826D01*
X137635999Y-169196001D01*
X137665002Y-169219803D01*
X138294201Y-169849002D01*
X138317999Y-169878001D01*
X138433724Y-169972974D01*
X138565753Y-170043546D01*
X138709014Y-170087003D01*
X138820667Y-170098000D01*
X138820675Y-170098000D01*
X138858000Y-170101676D01*
X138895325Y-170098000D01*
X145370024Y-170098000D01*
X145462782Y-170236822D01*
X145515960Y-170290000D01*
X108710000Y-170290000D01*
X108710000Y-167429721D01*
X109865000Y-167429721D01*
X109865000Y-167850279D01*
X109947047Y-168262756D01*
X110107988Y-168651302D01*
X110341637Y-169000983D01*
X110639017Y-169298363D01*
X110988698Y-169532012D01*
X111377244Y-169692953D01*
X111789721Y-169775000D01*
X112210279Y-169775000D01*
X112622756Y-169692953D01*
X113011302Y-169532012D01*
X113086503Y-169481764D01*
X130901841Y-169481764D01*
X130949148Y-169705348D01*
X131170516Y-169806237D01*
X131407313Y-169862000D01*
X131650438Y-169870495D01*
X131890549Y-169831395D01*
X132118418Y-169746202D01*
X132194852Y-169705348D01*
X132242159Y-169481764D01*
X131572000Y-168811605D01*
X130901841Y-169481764D01*
X113086503Y-169481764D01*
X113360983Y-169298363D01*
X113658363Y-169000983D01*
X113852498Y-168710438D01*
X130333505Y-168710438D01*
X130372605Y-168950549D01*
X130457798Y-169178418D01*
X130498652Y-169254852D01*
X130722236Y-169302159D01*
X131392395Y-168632000D01*
X131378253Y-168617858D01*
X131557858Y-168438253D01*
X131572000Y-168452395D01*
X131586143Y-168438253D01*
X131765748Y-168617858D01*
X131751605Y-168632000D01*
X132421764Y-169302159D01*
X132645348Y-169254852D01*
X132746237Y-169033484D01*
X132802000Y-168796687D01*
X132810495Y-168553562D01*
X132771395Y-168313451D01*
X132686202Y-168085582D01*
X132645348Y-168009148D01*
X132477021Y-167973533D01*
X132531287Y-167919267D01*
X132666443Y-167716992D01*
X132759540Y-167492236D01*
X132807000Y-167253637D01*
X132807000Y-167104021D01*
X134476000Y-167104021D01*
X134476000Y-167667978D01*
X134492785Y-167838399D01*
X134559115Y-168057059D01*
X134666829Y-168258578D01*
X134811788Y-168435212D01*
X134988421Y-168580171D01*
X135189940Y-168687885D01*
X135408600Y-168754215D01*
X135636000Y-168776612D01*
X135863399Y-168754215D01*
X136082059Y-168687885D01*
X136270669Y-168587071D01*
X136329118Y-168628275D01*
X136538663Y-168721272D01*
X136600190Y-168729964D01*
X136779000Y-168604163D01*
X136779000Y-167839109D01*
X136779215Y-167838400D01*
X136796000Y-167667979D01*
X136796000Y-167104022D01*
X136779215Y-166933601D01*
X136779000Y-166932892D01*
X136779000Y-166167837D01*
X136600190Y-166042036D01*
X136538663Y-166050728D01*
X136329118Y-166143725D01*
X136270669Y-166184929D01*
X136082060Y-166084115D01*
X135863400Y-166017785D01*
X135636000Y-165995388D01*
X135408601Y-166017785D01*
X135189941Y-166084115D01*
X134988422Y-166191829D01*
X134811789Y-166336788D01*
X134666830Y-166513421D01*
X134559115Y-166714940D01*
X134492785Y-166933600D01*
X134476000Y-167104021D01*
X132807000Y-167104021D01*
X132807000Y-167010363D01*
X132759540Y-166771764D01*
X132666443Y-166547008D01*
X132531287Y-166344733D01*
X132359267Y-166172713D01*
X132156992Y-166037557D01*
X131932236Y-165944460D01*
X131693637Y-165897000D01*
X131450363Y-165897000D01*
X131211764Y-165944460D01*
X130987008Y-166037557D01*
X130784733Y-166172713D01*
X130612713Y-166344733D01*
X130477557Y-166547008D01*
X130384460Y-166771764D01*
X130337000Y-167010363D01*
X130337000Y-167253637D01*
X130384460Y-167492236D01*
X130477557Y-167716992D01*
X130612713Y-167919267D01*
X130666979Y-167973533D01*
X130498652Y-168009148D01*
X130397763Y-168230516D01*
X130342000Y-168467313D01*
X130333505Y-168710438D01*
X113852498Y-168710438D01*
X113892012Y-168651302D01*
X114052953Y-168262756D01*
X114135000Y-167850279D01*
X114135000Y-167429721D01*
X114052953Y-167017244D01*
X113948860Y-166765941D01*
X118636363Y-162078438D01*
X135691505Y-162078438D01*
X135730605Y-162318549D01*
X135815798Y-162546418D01*
X135856652Y-162622852D01*
X136080236Y-162670159D01*
X136750395Y-162000000D01*
X136080236Y-161329841D01*
X135856652Y-161377148D01*
X135755763Y-161598516D01*
X135700000Y-161835313D01*
X135691505Y-162078438D01*
X118636363Y-162078438D01*
X120696802Y-160018000D01*
X123502289Y-160018000D01*
X123546226Y-160061937D01*
X123715744Y-160175205D01*
X123904102Y-160253226D01*
X124104061Y-160293000D01*
X124307939Y-160293000D01*
X124507898Y-160253226D01*
X124696256Y-160175205D01*
X124865774Y-160061937D01*
X125009937Y-159917774D01*
X125123205Y-159748256D01*
X125201226Y-159559898D01*
X125241000Y-159359939D01*
X125241000Y-159156061D01*
X125201226Y-158956102D01*
X125123205Y-158767744D01*
X125009937Y-158598226D01*
X124865774Y-158454063D01*
X124696256Y-158340795D01*
X124507898Y-158262774D01*
X124307939Y-158223000D01*
X124104061Y-158223000D01*
X123904102Y-158262774D01*
X123715744Y-158340795D01*
X123546226Y-158454063D01*
X123502289Y-158498000D01*
X120419322Y-158498000D01*
X120381999Y-158494324D01*
X120344676Y-158498000D01*
X120344667Y-158498000D01*
X120233014Y-158508997D01*
X120133196Y-158539276D01*
X120089753Y-158552454D01*
X119957723Y-158623026D01*
X119889764Y-158678799D01*
X119841999Y-158717999D01*
X119818201Y-158746997D01*
X112874059Y-165691140D01*
X112622756Y-165587047D01*
X112210279Y-165505000D01*
X111789721Y-165505000D01*
X111377244Y-165587047D01*
X110988698Y-165747988D01*
X110639017Y-165981637D01*
X110341637Y-166279017D01*
X110107988Y-166628698D01*
X109947047Y-167017244D01*
X109865000Y-167429721D01*
X108710000Y-167429721D01*
X108710000Y-160343885D01*
X108737990Y-160377991D01*
X108766988Y-160401789D01*
X109861928Y-161496730D01*
X109861928Y-164060000D01*
X109874188Y-164184482D01*
X109910498Y-164304180D01*
X109969463Y-164414494D01*
X110048815Y-164511185D01*
X110145506Y-164590537D01*
X110255820Y-164649502D01*
X110375518Y-164685812D01*
X110500000Y-164698072D01*
X113500000Y-164698072D01*
X113624482Y-164685812D01*
X113744180Y-164649502D01*
X113854494Y-164590537D01*
X113951185Y-164511185D01*
X114030537Y-164414494D01*
X114089502Y-164304180D01*
X114125812Y-164184482D01*
X114138072Y-164060000D01*
X114138072Y-161496729D01*
X116627799Y-159007003D01*
X116698974Y-158920277D01*
X116769546Y-158788247D01*
X116813002Y-158644986D01*
X116827676Y-158496000D01*
X116813002Y-158347014D01*
X116769546Y-158203754D01*
X116698974Y-158071724D01*
X116604001Y-157955999D01*
X116488276Y-157861026D01*
X116356246Y-157790454D01*
X116212986Y-157746998D01*
X116064000Y-157732324D01*
X115915014Y-157746998D01*
X115771753Y-157790454D01*
X115639723Y-157861026D01*
X115552997Y-157932201D01*
X113063271Y-160421928D01*
X110936730Y-160421928D01*
X110037990Y-159523189D01*
X110037990Y-158378312D01*
X110107988Y-158547302D01*
X110341637Y-158896983D01*
X110639017Y-159194363D01*
X110988698Y-159428012D01*
X111377244Y-159588953D01*
X111789721Y-159671000D01*
X112210279Y-159671000D01*
X112622756Y-159588953D01*
X113011302Y-159428012D01*
X113360983Y-159194363D01*
X113658363Y-158896983D01*
X113892012Y-158547302D01*
X114052953Y-158158756D01*
X114135000Y-157746279D01*
X114135000Y-157325721D01*
X114052953Y-156913244D01*
X113948860Y-156661942D01*
X114601803Y-156008999D01*
X120589790Y-156008999D01*
X120633727Y-156052936D01*
X120803245Y-156166204D01*
X120991603Y-156244225D01*
X121191562Y-156283999D01*
X121395440Y-156283999D01*
X121595399Y-156244225D01*
X121783757Y-156166204D01*
X121953275Y-156052936D01*
X122097438Y-155908773D01*
X122210706Y-155739255D01*
X122288727Y-155550897D01*
X122328501Y-155350938D01*
X122328501Y-155147060D01*
X122288727Y-154947101D01*
X122210706Y-154758743D01*
X122097438Y-154589225D01*
X121953275Y-154445062D01*
X121783757Y-154331794D01*
X121595399Y-154253773D01*
X121395440Y-154213999D01*
X121191562Y-154213999D01*
X120991603Y-154253773D01*
X120803245Y-154331794D01*
X120633727Y-154445062D01*
X120589790Y-154488999D01*
X114324324Y-154488999D01*
X114287001Y-154485323D01*
X114249678Y-154488999D01*
X114249668Y-154488999D01*
X114138015Y-154499996D01*
X113994754Y-154543453D01*
X113862725Y-154614025D01*
X113747000Y-154708998D01*
X113723202Y-154737996D01*
X112874058Y-155587140D01*
X112622756Y-155483047D01*
X112210279Y-155401000D01*
X111789721Y-155401000D01*
X111377244Y-155483047D01*
X110988698Y-155643988D01*
X110639017Y-155877637D01*
X110341637Y-156175017D01*
X110107988Y-156524698D01*
X110037990Y-156693688D01*
X110037990Y-154393995D01*
X110048815Y-154407185D01*
X110145506Y-154486537D01*
X110255820Y-154545502D01*
X110375518Y-154581812D01*
X110500000Y-154594072D01*
X113500000Y-154594072D01*
X113624482Y-154581812D01*
X113744180Y-154545502D01*
X113854494Y-154486537D01*
X113951185Y-154407185D01*
X114030537Y-154310494D01*
X114089502Y-154200180D01*
X114125812Y-154080482D01*
X114138072Y-153956000D01*
X114138072Y-153731500D01*
X139980178Y-153731500D01*
X140017500Y-153735176D01*
X140054822Y-153731500D01*
X140054833Y-153731500D01*
X140166486Y-153720503D01*
X140309747Y-153677046D01*
X140441776Y-153606474D01*
X140557501Y-153511501D01*
X140581304Y-153482497D01*
X141898802Y-152165000D01*
X141960939Y-152165000D01*
X142160898Y-152125226D01*
X142349256Y-152047205D01*
X142518774Y-151933937D01*
X142662937Y-151789774D01*
X142710186Y-151719061D01*
X142717068Y-151753658D01*
X142829010Y-152023911D01*
X142991525Y-152267132D01*
X143123380Y-152398987D01*
X143050820Y-152420998D01*
X142940506Y-152479963D01*
X142843815Y-152559315D01*
X142764463Y-152656006D01*
X142705498Y-152766320D01*
X142669188Y-152886018D01*
X142656928Y-153010500D01*
X142660000Y-153574750D01*
X142818750Y-153733500D01*
X144018000Y-153733500D01*
X144018000Y-153713500D01*
X144272000Y-153713500D01*
X144272000Y-153733500D01*
X144292000Y-153733500D01*
X144292000Y-153987500D01*
X144272000Y-153987500D01*
X144272000Y-155186750D01*
X144430750Y-155345500D01*
X144560002Y-155346204D01*
X144560002Y-155871694D01*
X144063500Y-156368196D01*
X144063500Y-156235061D01*
X144023726Y-156035102D01*
X143945705Y-155846744D01*
X143832437Y-155677226D01*
X143688274Y-155533063D01*
X143518756Y-155419795D01*
X143346138Y-155348294D01*
X143859250Y-155345500D01*
X144018000Y-155186750D01*
X144018000Y-153987500D01*
X142818750Y-153987500D01*
X142660000Y-154146250D01*
X142656928Y-154710500D01*
X142669188Y-154834982D01*
X142705498Y-154954680D01*
X142764463Y-155064994D01*
X142843815Y-155161685D01*
X142940506Y-155241037D01*
X143050820Y-155300002D01*
X143057407Y-155302000D01*
X142926561Y-155302000D01*
X142726602Y-155341774D01*
X142538244Y-155419795D01*
X142368726Y-155533063D01*
X142224563Y-155677226D01*
X142111295Y-155846744D01*
X142033274Y-156035102D01*
X141993500Y-156235061D01*
X141993500Y-156270698D01*
X140909199Y-157355000D01*
X139070211Y-157355000D01*
X139026274Y-157311063D01*
X138856756Y-157197795D01*
X138668398Y-157119774D01*
X138468439Y-157080000D01*
X138264561Y-157080000D01*
X138064602Y-157119774D01*
X137876244Y-157197795D01*
X137706726Y-157311063D01*
X137562563Y-157455226D01*
X137449295Y-157624744D01*
X137371274Y-157813102D01*
X137331500Y-158013061D01*
X137331500Y-158216939D01*
X137371274Y-158416898D01*
X137449295Y-158605256D01*
X137562563Y-158774774D01*
X137706726Y-158918937D01*
X137876244Y-159032205D01*
X138064602Y-159110226D01*
X138264561Y-159150000D01*
X138468439Y-159150000D01*
X138668398Y-159110226D01*
X138856756Y-159032205D01*
X139026274Y-158918937D01*
X139070211Y-158875000D01*
X141186678Y-158875000D01*
X141224000Y-158878676D01*
X141261322Y-158875000D01*
X141261333Y-158875000D01*
X141372986Y-158864003D01*
X141516247Y-158820546D01*
X141648276Y-158749974D01*
X141764001Y-158655001D01*
X141787804Y-158625997D01*
X143041802Y-157372000D01*
X143059697Y-157372000D01*
X142471002Y-157960695D01*
X142441998Y-157984498D01*
X142409768Y-158023771D01*
X142347025Y-158100223D01*
X142309208Y-158170974D01*
X142276453Y-158232253D01*
X142232996Y-158375514D01*
X142221999Y-158487167D01*
X142221999Y-158487177D01*
X142218323Y-158524499D01*
X142221999Y-158561822D01*
X142222000Y-162859669D01*
X142218323Y-162897001D01*
X142232997Y-163045986D01*
X142276453Y-163189247D01*
X142347025Y-163321277D01*
X142382036Y-163363937D01*
X142441999Y-163437002D01*
X142470997Y-163460800D01*
X144959200Y-165949004D01*
X144982998Y-165978002D01*
X145098723Y-166072975D01*
X145230752Y-166143547D01*
X145374013Y-166187004D01*
X145485666Y-166198001D01*
X145485674Y-166198001D01*
X145522999Y-166201677D01*
X145560324Y-166198001D01*
X147555679Y-166198001D01*
X147593001Y-166201677D01*
X147630323Y-166198001D01*
X147630334Y-166198001D01*
X147741987Y-166187004D01*
X147885248Y-166143547D01*
X148017277Y-166072975D01*
X148133002Y-165978002D01*
X148156804Y-165948999D01*
X148338000Y-165767803D01*
X148338000Y-168110677D01*
X148334324Y-168148000D01*
X148338000Y-168185322D01*
X148338000Y-168185332D01*
X148348997Y-168296985D01*
X148381361Y-168403676D01*
X148392454Y-168440246D01*
X148463026Y-168572276D01*
X148492428Y-168608102D01*
X148557999Y-168688001D01*
X148587002Y-168711803D01*
X148825000Y-168949801D01*
X148825000Y-169011939D01*
X148864774Y-169211898D01*
X148942795Y-169400256D01*
X149056063Y-169569774D01*
X149200226Y-169713937D01*
X149369744Y-169827205D01*
X149558102Y-169905226D01*
X149758061Y-169945000D01*
X149961939Y-169945000D01*
X150161898Y-169905226D01*
X150350256Y-169827205D01*
X150519774Y-169713937D01*
X150663937Y-169569774D01*
X150777205Y-169400256D01*
X150855226Y-169211898D01*
X150895000Y-169011939D01*
X150895000Y-168808061D01*
X150855226Y-168608102D01*
X150777205Y-168419744D01*
X150663937Y-168250226D01*
X150519774Y-168106063D01*
X150350256Y-167992795D01*
X150161898Y-167914774D01*
X149961939Y-167875000D01*
X149899801Y-167875000D01*
X149858000Y-167833199D01*
X149858000Y-162343322D01*
X149859805Y-162325000D01*
X149961939Y-162325000D01*
X150161898Y-162285226D01*
X150350256Y-162207205D01*
X150476490Y-162122858D01*
X150476491Y-163899158D01*
X150472814Y-163936490D01*
X150476491Y-163973823D01*
X150484216Y-164052250D01*
X150487488Y-164085475D01*
X150530944Y-164228736D01*
X150601516Y-164360766D01*
X150645610Y-164414494D01*
X150696490Y-164476491D01*
X150725488Y-164500289D01*
X152190500Y-165965302D01*
X152190500Y-166090939D01*
X152230274Y-166290898D01*
X152308295Y-166479256D01*
X152421563Y-166648774D01*
X152565726Y-166792937D01*
X152735244Y-166906205D01*
X152923602Y-166984226D01*
X153123561Y-167024000D01*
X153327439Y-167024000D01*
X153527398Y-166984226D01*
X153715756Y-166906205D01*
X153885274Y-166792937D01*
X154029437Y-166648774D01*
X154142705Y-166479256D01*
X154220726Y-166290898D01*
X154260500Y-166090939D01*
X154260500Y-165887061D01*
X154220726Y-165687102D01*
X154142705Y-165498744D01*
X154029437Y-165329226D01*
X153885274Y-165185063D01*
X153715756Y-165071795D01*
X153527398Y-164993774D01*
X153329140Y-164954338D01*
X151996490Y-163621689D01*
X151996490Y-161630810D01*
X152000166Y-161593487D01*
X151996490Y-161556164D01*
X151996490Y-161556155D01*
X151985493Y-161444502D01*
X151942036Y-161301241D01*
X151938408Y-161294454D01*
X151922000Y-161263757D01*
X151922000Y-160621750D01*
X152176000Y-160621750D01*
X152176000Y-161671000D01*
X152196000Y-161671000D01*
X152196000Y-161925000D01*
X152176000Y-161925000D01*
X152176000Y-162974250D01*
X152334750Y-163133000D01*
X152536500Y-163136072D01*
X152660982Y-163123812D01*
X152780680Y-163087502D01*
X152890994Y-163028537D01*
X152987685Y-162949185D01*
X153051492Y-162871436D01*
X153056708Y-162877792D01*
X153190336Y-162987458D01*
X153342791Y-163068947D01*
X153508215Y-163119128D01*
X153680250Y-163136072D01*
X154167750Y-163136072D01*
X154339785Y-163119128D01*
X154505209Y-163068947D01*
X154657664Y-162987458D01*
X154791292Y-162877792D01*
X154847768Y-162808976D01*
X155009744Y-162917205D01*
X155198102Y-162995226D01*
X155398061Y-163035000D01*
X155601939Y-163035000D01*
X155801898Y-162995226D01*
X155990256Y-162917205D01*
X156159774Y-162803937D01*
X156303937Y-162659774D01*
X156417205Y-162490256D01*
X156495226Y-162301898D01*
X156535000Y-162101939D01*
X156535000Y-161898061D01*
X156495226Y-161698102D01*
X156417205Y-161509744D01*
X156303937Y-161340226D01*
X156159774Y-161196063D01*
X155990256Y-161082795D01*
X155801898Y-161004774D01*
X155601939Y-160965000D01*
X155398061Y-160965000D01*
X155198102Y-161004774D01*
X155009744Y-161082795D01*
X155006848Y-161084730D01*
X154982447Y-161004291D01*
X154900958Y-160851836D01*
X154791292Y-160718208D01*
X154657664Y-160608542D01*
X154505209Y-160527053D01*
X154339785Y-160476872D01*
X154167750Y-160459928D01*
X153680250Y-160459928D01*
X153508215Y-160476872D01*
X153342791Y-160527053D01*
X153190336Y-160608542D01*
X153056708Y-160718208D01*
X153051492Y-160724564D01*
X152987685Y-160646815D01*
X152890994Y-160567463D01*
X152780680Y-160508498D01*
X152660982Y-160472188D01*
X152536500Y-160459928D01*
X152334750Y-160463000D01*
X152176000Y-160621750D01*
X151922000Y-160621750D01*
X151763250Y-160463000D01*
X151561500Y-160459928D01*
X151437018Y-160472188D01*
X151317320Y-160508498D01*
X151258006Y-160540202D01*
X150771805Y-160054001D01*
X150748002Y-160024998D01*
X150632277Y-159930025D01*
X150500248Y-159859453D01*
X150356987Y-159815996D01*
X150245334Y-159804999D01*
X150245323Y-159804999D01*
X150208001Y-159801323D01*
X150170679Y-159804999D01*
X149667500Y-159804999D01*
X149667500Y-153580325D01*
X149671176Y-153543000D01*
X149667500Y-153505675D01*
X149667500Y-153505667D01*
X149656503Y-153394014D01*
X149613046Y-153250753D01*
X149542474Y-153118724D01*
X149447501Y-153002999D01*
X149418503Y-152979201D01*
X148126209Y-151686908D01*
X148170000Y-151466760D01*
X148170000Y-151174240D01*
X148112932Y-150887342D01*
X148000990Y-150617089D01*
X147838475Y-150373868D01*
X147631632Y-150167025D01*
X147388411Y-150004510D01*
X147118158Y-149892568D01*
X146831260Y-149835500D01*
X146538740Y-149835500D01*
X146251842Y-149892568D01*
X145981589Y-150004510D01*
X145738368Y-150167025D01*
X145531525Y-150373868D01*
X145415000Y-150548260D01*
X145298475Y-150373868D01*
X145091632Y-150167025D01*
X144848411Y-150004510D01*
X144578158Y-149892568D01*
X144291260Y-149835500D01*
X143998740Y-149835500D01*
X143711842Y-149892568D01*
X143626622Y-149927867D01*
X143616226Y-149875602D01*
X143547631Y-149710000D01*
X157290000Y-149710000D01*
X157290001Y-170290000D01*
G37*
X157290001Y-170290000D02*
X147600040Y-170290000D01*
X147653218Y-170236822D01*
X147807525Y-170005885D01*
X147913814Y-169749282D01*
X147968000Y-169476873D01*
X147968000Y-169199127D01*
X147913814Y-168926718D01*
X147807525Y-168670115D01*
X147653218Y-168439178D01*
X147456822Y-168242782D01*
X147225885Y-168088475D01*
X146969282Y-167982186D01*
X146696873Y-167928000D01*
X146419127Y-167928000D01*
X146146718Y-167982186D01*
X145890115Y-168088475D01*
X145659178Y-168242782D01*
X145462782Y-168439178D01*
X145370024Y-168578000D01*
X139172802Y-168578000D01*
X139165618Y-168570817D01*
X139231537Y-168490494D01*
X139290502Y-168380180D01*
X139326812Y-168260482D01*
X139339072Y-168136000D01*
X139339072Y-166699127D01*
X140148000Y-166699127D01*
X140148000Y-166976873D01*
X140202186Y-167249282D01*
X140308475Y-167505885D01*
X140462782Y-167736822D01*
X140659178Y-167933218D01*
X140890115Y-168087525D01*
X141146718Y-168193814D01*
X141419127Y-168248000D01*
X141696873Y-168248000D01*
X141969282Y-168193814D01*
X142225885Y-168087525D01*
X142456822Y-167933218D01*
X142653218Y-167736822D01*
X142807525Y-167505885D01*
X142913814Y-167249282D01*
X142968000Y-166976873D01*
X142968000Y-166699127D01*
X142913814Y-166426718D01*
X142807525Y-166170115D01*
X142653218Y-165939178D01*
X142456822Y-165742782D01*
X142225885Y-165588475D01*
X141969282Y-165482186D01*
X141696873Y-165428000D01*
X141419127Y-165428000D01*
X141146718Y-165482186D01*
X140890115Y-165588475D01*
X140659178Y-165742782D01*
X140462782Y-165939178D01*
X140308475Y-166170115D01*
X140202186Y-166426718D01*
X140148000Y-166699127D01*
X139339072Y-166699127D01*
X139339072Y-166636000D01*
X139326812Y-166511518D01*
X139290502Y-166391820D01*
X139231537Y-166281506D01*
X139152185Y-166184815D01*
X139055494Y-166105463D01*
X138945180Y-166046498D01*
X138936000Y-166043713D01*
X138936000Y-163127163D01*
X139014992Y-163094443D01*
X139217267Y-162959287D01*
X139389287Y-162787267D01*
X139524443Y-162584992D01*
X139617540Y-162360236D01*
X139665000Y-162121637D01*
X139665000Y-161878363D01*
X139617540Y-161639764D01*
X139524443Y-161415008D01*
X139389287Y-161212733D01*
X139217267Y-161040713D01*
X139014992Y-160905557D01*
X138790236Y-160812460D01*
X138551637Y-160765000D01*
X138308363Y-160765000D01*
X138069764Y-160812460D01*
X137845008Y-160905557D01*
X137642733Y-161040713D01*
X137588467Y-161094979D01*
X137552852Y-160926652D01*
X137331484Y-160825763D01*
X137094687Y-160770000D01*
X136851562Y-160761505D01*
X136611451Y-160800605D01*
X136383582Y-160885798D01*
X136307148Y-160926652D01*
X136259841Y-161150236D01*
X136930000Y-161820395D01*
X136944143Y-161806253D01*
X137123748Y-161985858D01*
X137109605Y-162000000D01*
X137123748Y-162014143D01*
X136944143Y-162193748D01*
X136930000Y-162179605D01*
X136259841Y-162849764D01*
X136307148Y-163073348D01*
X136528516Y-163174237D01*
X136765313Y-163230000D01*
X137008438Y-163238495D01*
X137248549Y-163199395D01*
X137416001Y-163136790D01*
X137416000Y-166043713D01*
X137406820Y-166046498D01*
X137341943Y-166081176D01*
X137273337Y-166050728D01*
X137211810Y-166042036D01*
X137033000Y-166167837D01*
X137033000Y-166485765D01*
X137025188Y-166511518D01*
X137012928Y-166636000D01*
X137012928Y-168136000D01*
X137025188Y-168260482D01*
X137033000Y-168286235D01*
X137033000Y-168604163D01*
X137211810Y-168729964D01*
X137273337Y-168721272D01*
X137341943Y-168690824D01*
X137406820Y-168725502D01*
X137419549Y-168729363D01*
X137426997Y-168804985D01*
X137459361Y-168911677D01*
X137470454Y-168948246D01*
X137541026Y-169080276D01*
X137580871Y-169128826D01*
X137635999Y-169196001D01*
X137665002Y-169219803D01*
X138294201Y-169849002D01*
X138317999Y-169878001D01*
X138433724Y-169972974D01*
X138565753Y-170043546D01*
X138709014Y-170087003D01*
X138820667Y-170098000D01*
X138820675Y-170098000D01*
X138858000Y-170101676D01*
X138895325Y-170098000D01*
X145370024Y-170098000D01*
X145462782Y-170236822D01*
X145515960Y-170290000D01*
X108710000Y-170290000D01*
X108710000Y-167429721D01*
X109865000Y-167429721D01*
X109865000Y-167850279D01*
X109947047Y-168262756D01*
X110107988Y-168651302D01*
X110341637Y-169000983D01*
X110639017Y-169298363D01*
X110988698Y-169532012D01*
X111377244Y-169692953D01*
X111789721Y-169775000D01*
X112210279Y-169775000D01*
X112622756Y-169692953D01*
X113011302Y-169532012D01*
X113086503Y-169481764D01*
X130901841Y-169481764D01*
X130949148Y-169705348D01*
X131170516Y-169806237D01*
X131407313Y-169862000D01*
X131650438Y-169870495D01*
X131890549Y-169831395D01*
X132118418Y-169746202D01*
X132194852Y-169705348D01*
X132242159Y-169481764D01*
X131572000Y-168811605D01*
X130901841Y-169481764D01*
X113086503Y-169481764D01*
X113360983Y-169298363D01*
X113658363Y-169000983D01*
X113852498Y-168710438D01*
X130333505Y-168710438D01*
X130372605Y-168950549D01*
X130457798Y-169178418D01*
X130498652Y-169254852D01*
X130722236Y-169302159D01*
X131392395Y-168632000D01*
X131378253Y-168617858D01*
X131557858Y-168438253D01*
X131572000Y-168452395D01*
X131586143Y-168438253D01*
X131765748Y-168617858D01*
X131751605Y-168632000D01*
X132421764Y-169302159D01*
X132645348Y-169254852D01*
X132746237Y-169033484D01*
X132802000Y-168796687D01*
X132810495Y-168553562D01*
X132771395Y-168313451D01*
X132686202Y-168085582D01*
X132645348Y-168009148D01*
X132477021Y-167973533D01*
X132531287Y-167919267D01*
X132666443Y-167716992D01*
X132759540Y-167492236D01*
X132807000Y-167253637D01*
X132807000Y-167104021D01*
X134476000Y-167104021D01*
X134476000Y-167667978D01*
X134492785Y-167838399D01*
X134559115Y-168057059D01*
X134666829Y-168258578D01*
X134811788Y-168435212D01*
X134988421Y-168580171D01*
X135189940Y-168687885D01*
X135408600Y-168754215D01*
X135636000Y-168776612D01*
X135863399Y-168754215D01*
X136082059Y-168687885D01*
X136270669Y-168587071D01*
X136329118Y-168628275D01*
X136538663Y-168721272D01*
X136600190Y-168729964D01*
X136779000Y-168604163D01*
X136779000Y-167839109D01*
X136779215Y-167838400D01*
X136796000Y-167667979D01*
X136796000Y-167104022D01*
X136779215Y-166933601D01*
X136779000Y-166932892D01*
X136779000Y-166167837D01*
X136600190Y-166042036D01*
X136538663Y-166050728D01*
X136329118Y-166143725D01*
X136270669Y-166184929D01*
X136082060Y-166084115D01*
X135863400Y-166017785D01*
X135636000Y-165995388D01*
X135408601Y-166017785D01*
X135189941Y-166084115D01*
X134988422Y-166191829D01*
X134811789Y-166336788D01*
X134666830Y-166513421D01*
X134559115Y-166714940D01*
X134492785Y-166933600D01*
X134476000Y-167104021D01*
X132807000Y-167104021D01*
X132807000Y-167010363D01*
X132759540Y-166771764D01*
X132666443Y-166547008D01*
X132531287Y-166344733D01*
X132359267Y-166172713D01*
X132156992Y-166037557D01*
X131932236Y-165944460D01*
X131693637Y-165897000D01*
X131450363Y-165897000D01*
X131211764Y-165944460D01*
X130987008Y-166037557D01*
X130784733Y-166172713D01*
X130612713Y-166344733D01*
X130477557Y-166547008D01*
X130384460Y-166771764D01*
X130337000Y-167010363D01*
X130337000Y-167253637D01*
X130384460Y-167492236D01*
X130477557Y-167716992D01*
X130612713Y-167919267D01*
X130666979Y-167973533D01*
X130498652Y-168009148D01*
X130397763Y-168230516D01*
X130342000Y-168467313D01*
X130333505Y-168710438D01*
X113852498Y-168710438D01*
X113892012Y-168651302D01*
X114052953Y-168262756D01*
X114135000Y-167850279D01*
X114135000Y-167429721D01*
X114052953Y-167017244D01*
X113948860Y-166765941D01*
X118636363Y-162078438D01*
X135691505Y-162078438D01*
X135730605Y-162318549D01*
X135815798Y-162546418D01*
X135856652Y-162622852D01*
X136080236Y-162670159D01*
X136750395Y-162000000D01*
X136080236Y-161329841D01*
X135856652Y-161377148D01*
X135755763Y-161598516D01*
X135700000Y-161835313D01*
X135691505Y-162078438D01*
X118636363Y-162078438D01*
X120696802Y-160018000D01*
X123502289Y-160018000D01*
X123546226Y-160061937D01*
X123715744Y-160175205D01*
X123904102Y-160253226D01*
X124104061Y-160293000D01*
X124307939Y-160293000D01*
X124507898Y-160253226D01*
X124696256Y-160175205D01*
X124865774Y-160061937D01*
X125009937Y-159917774D01*
X125123205Y-159748256D01*
X125201226Y-159559898D01*
X125241000Y-159359939D01*
X125241000Y-159156061D01*
X125201226Y-158956102D01*
X125123205Y-158767744D01*
X125009937Y-158598226D01*
X124865774Y-158454063D01*
X124696256Y-158340795D01*
X124507898Y-158262774D01*
X124307939Y-158223000D01*
X124104061Y-158223000D01*
X123904102Y-158262774D01*
X123715744Y-158340795D01*
X123546226Y-158454063D01*
X123502289Y-158498000D01*
X120419322Y-158498000D01*
X120381999Y-158494324D01*
X120344676Y-158498000D01*
X120344667Y-158498000D01*
X120233014Y-158508997D01*
X120133196Y-158539276D01*
X120089753Y-158552454D01*
X119957723Y-158623026D01*
X119889764Y-158678799D01*
X119841999Y-158717999D01*
X119818201Y-158746997D01*
X112874059Y-165691140D01*
X112622756Y-165587047D01*
X112210279Y-165505000D01*
X111789721Y-165505000D01*
X111377244Y-165587047D01*
X110988698Y-165747988D01*
X110639017Y-165981637D01*
X110341637Y-166279017D01*
X110107988Y-166628698D01*
X109947047Y-167017244D01*
X109865000Y-167429721D01*
X108710000Y-167429721D01*
X108710000Y-160343885D01*
X108737990Y-160377991D01*
X108766988Y-160401789D01*
X109861928Y-161496730D01*
X109861928Y-164060000D01*
X109874188Y-164184482D01*
X109910498Y-164304180D01*
X109969463Y-164414494D01*
X110048815Y-164511185D01*
X110145506Y-164590537D01*
X110255820Y-164649502D01*
X110375518Y-164685812D01*
X110500000Y-164698072D01*
X113500000Y-164698072D01*
X113624482Y-164685812D01*
X113744180Y-164649502D01*
X113854494Y-164590537D01*
X113951185Y-164511185D01*
X114030537Y-164414494D01*
X114089502Y-164304180D01*
X114125812Y-164184482D01*
X114138072Y-164060000D01*
X114138072Y-161496729D01*
X116627799Y-159007003D01*
X116698974Y-158920277D01*
X116769546Y-158788247D01*
X116813002Y-158644986D01*
X116827676Y-158496000D01*
X116813002Y-158347014D01*
X116769546Y-158203754D01*
X116698974Y-158071724D01*
X116604001Y-157955999D01*
X116488276Y-157861026D01*
X116356246Y-157790454D01*
X116212986Y-157746998D01*
X116064000Y-157732324D01*
X115915014Y-157746998D01*
X115771753Y-157790454D01*
X115639723Y-157861026D01*
X115552997Y-157932201D01*
X113063271Y-160421928D01*
X110936730Y-160421928D01*
X110037990Y-159523189D01*
X110037990Y-158378312D01*
X110107988Y-158547302D01*
X110341637Y-158896983D01*
X110639017Y-159194363D01*
X110988698Y-159428012D01*
X111377244Y-159588953D01*
X111789721Y-159671000D01*
X112210279Y-159671000D01*
X112622756Y-159588953D01*
X113011302Y-159428012D01*
X113360983Y-159194363D01*
X113658363Y-158896983D01*
X113892012Y-158547302D01*
X114052953Y-158158756D01*
X114135000Y-157746279D01*
X114135000Y-157325721D01*
X114052953Y-156913244D01*
X113948860Y-156661942D01*
X114601803Y-156008999D01*
X120589790Y-156008999D01*
X120633727Y-156052936D01*
X120803245Y-156166204D01*
X120991603Y-156244225D01*
X121191562Y-156283999D01*
X121395440Y-156283999D01*
X121595399Y-156244225D01*
X121783757Y-156166204D01*
X121953275Y-156052936D01*
X122097438Y-155908773D01*
X122210706Y-155739255D01*
X122288727Y-155550897D01*
X122328501Y-155350938D01*
X122328501Y-155147060D01*
X122288727Y-154947101D01*
X122210706Y-154758743D01*
X122097438Y-154589225D01*
X121953275Y-154445062D01*
X121783757Y-154331794D01*
X121595399Y-154253773D01*
X121395440Y-154213999D01*
X121191562Y-154213999D01*
X120991603Y-154253773D01*
X120803245Y-154331794D01*
X120633727Y-154445062D01*
X120589790Y-154488999D01*
X114324324Y-154488999D01*
X114287001Y-154485323D01*
X114249678Y-154488999D01*
X114249668Y-154488999D01*
X114138015Y-154499996D01*
X113994754Y-154543453D01*
X113862725Y-154614025D01*
X113747000Y-154708998D01*
X113723202Y-154737996D01*
X112874058Y-155587140D01*
X112622756Y-155483047D01*
X112210279Y-155401000D01*
X111789721Y-155401000D01*
X111377244Y-155483047D01*
X110988698Y-155643988D01*
X110639017Y-155877637D01*
X110341637Y-156175017D01*
X110107988Y-156524698D01*
X110037990Y-156693688D01*
X110037990Y-154393995D01*
X110048815Y-154407185D01*
X110145506Y-154486537D01*
X110255820Y-154545502D01*
X110375518Y-154581812D01*
X110500000Y-154594072D01*
X113500000Y-154594072D01*
X113624482Y-154581812D01*
X113744180Y-154545502D01*
X113854494Y-154486537D01*
X113951185Y-154407185D01*
X114030537Y-154310494D01*
X114089502Y-154200180D01*
X114125812Y-154080482D01*
X114138072Y-153956000D01*
X114138072Y-153731500D01*
X139980178Y-153731500D01*
X140017500Y-153735176D01*
X140054822Y-153731500D01*
X140054833Y-153731500D01*
X140166486Y-153720503D01*
X140309747Y-153677046D01*
X140441776Y-153606474D01*
X140557501Y-153511501D01*
X140581304Y-153482497D01*
X141898802Y-152165000D01*
X141960939Y-152165000D01*
X142160898Y-152125226D01*
X142349256Y-152047205D01*
X142518774Y-151933937D01*
X142662937Y-151789774D01*
X142710186Y-151719061D01*
X142717068Y-151753658D01*
X142829010Y-152023911D01*
X142991525Y-152267132D01*
X143123380Y-152398987D01*
X143050820Y-152420998D01*
X142940506Y-152479963D01*
X142843815Y-152559315D01*
X142764463Y-152656006D01*
X142705498Y-152766320D01*
X142669188Y-152886018D01*
X142656928Y-153010500D01*
X142660000Y-153574750D01*
X142818750Y-153733500D01*
X144018000Y-153733500D01*
X144018000Y-153713500D01*
X144272000Y-153713500D01*
X144272000Y-153733500D01*
X144292000Y-153733500D01*
X144292000Y-153987500D01*
X144272000Y-153987500D01*
X144272000Y-155186750D01*
X144430750Y-155345500D01*
X144560002Y-155346204D01*
X144560002Y-155871694D01*
X144063500Y-156368196D01*
X144063500Y-156235061D01*
X144023726Y-156035102D01*
X143945705Y-155846744D01*
X143832437Y-155677226D01*
X143688274Y-155533063D01*
X143518756Y-155419795D01*
X143346138Y-155348294D01*
X143859250Y-155345500D01*
X144018000Y-155186750D01*
X144018000Y-153987500D01*
X142818750Y-153987500D01*
X142660000Y-154146250D01*
X142656928Y-154710500D01*
X142669188Y-154834982D01*
X142705498Y-154954680D01*
X142764463Y-155064994D01*
X142843815Y-155161685D01*
X142940506Y-155241037D01*
X143050820Y-155300002D01*
X143057407Y-155302000D01*
X142926561Y-155302000D01*
X142726602Y-155341774D01*
X142538244Y-155419795D01*
X142368726Y-155533063D01*
X142224563Y-155677226D01*
X142111295Y-155846744D01*
X142033274Y-156035102D01*
X141993500Y-156235061D01*
X141993500Y-156270698D01*
X140909199Y-157355000D01*
X139070211Y-157355000D01*
X139026274Y-157311063D01*
X138856756Y-157197795D01*
X138668398Y-157119774D01*
X138468439Y-157080000D01*
X138264561Y-157080000D01*
X138064602Y-157119774D01*
X137876244Y-157197795D01*
X137706726Y-157311063D01*
X137562563Y-157455226D01*
X137449295Y-157624744D01*
X137371274Y-157813102D01*
X137331500Y-158013061D01*
X137331500Y-158216939D01*
X137371274Y-158416898D01*
X137449295Y-158605256D01*
X137562563Y-158774774D01*
X137706726Y-158918937D01*
X137876244Y-159032205D01*
X138064602Y-159110226D01*
X138264561Y-159150000D01*
X138468439Y-159150000D01*
X138668398Y-159110226D01*
X138856756Y-159032205D01*
X139026274Y-158918937D01*
X139070211Y-158875000D01*
X141186678Y-158875000D01*
X141224000Y-158878676D01*
X141261322Y-158875000D01*
X141261333Y-158875000D01*
X141372986Y-158864003D01*
X141516247Y-158820546D01*
X141648276Y-158749974D01*
X141764001Y-158655001D01*
X141787804Y-158625997D01*
X143041802Y-157372000D01*
X143059697Y-157372000D01*
X142471002Y-157960695D01*
X142441998Y-157984498D01*
X142409768Y-158023771D01*
X142347025Y-158100223D01*
X142309208Y-158170974D01*
X142276453Y-158232253D01*
X142232996Y-158375514D01*
X142221999Y-158487167D01*
X142221999Y-158487177D01*
X142218323Y-158524499D01*
X142221999Y-158561822D01*
X142222000Y-162859669D01*
X142218323Y-162897001D01*
X142232997Y-163045986D01*
X142276453Y-163189247D01*
X142347025Y-163321277D01*
X142382036Y-163363937D01*
X142441999Y-163437002D01*
X142470997Y-163460800D01*
X144959200Y-165949004D01*
X144982998Y-165978002D01*
X145098723Y-166072975D01*
X145230752Y-166143547D01*
X145374013Y-166187004D01*
X145485666Y-166198001D01*
X145485674Y-166198001D01*
X145522999Y-166201677D01*
X145560324Y-166198001D01*
X147555679Y-166198001D01*
X147593001Y-166201677D01*
X147630323Y-166198001D01*
X147630334Y-166198001D01*
X147741987Y-166187004D01*
X147885248Y-166143547D01*
X148017277Y-166072975D01*
X148133002Y-165978002D01*
X148156804Y-165948999D01*
X148338000Y-165767803D01*
X148338000Y-168110677D01*
X148334324Y-168148000D01*
X148338000Y-168185322D01*
X148338000Y-168185332D01*
X148348997Y-168296985D01*
X148381361Y-168403676D01*
X148392454Y-168440246D01*
X148463026Y-168572276D01*
X148492428Y-168608102D01*
X148557999Y-168688001D01*
X148587002Y-168711803D01*
X148825000Y-168949801D01*
X148825000Y-169011939D01*
X148864774Y-169211898D01*
X148942795Y-169400256D01*
X149056063Y-169569774D01*
X149200226Y-169713937D01*
X149369744Y-169827205D01*
X149558102Y-169905226D01*
X149758061Y-169945000D01*
X149961939Y-169945000D01*
X150161898Y-169905226D01*
X150350256Y-169827205D01*
X150519774Y-169713937D01*
X150663937Y-169569774D01*
X150777205Y-169400256D01*
X150855226Y-169211898D01*
X150895000Y-169011939D01*
X150895000Y-168808061D01*
X150855226Y-168608102D01*
X150777205Y-168419744D01*
X150663937Y-168250226D01*
X150519774Y-168106063D01*
X150350256Y-167992795D01*
X150161898Y-167914774D01*
X149961939Y-167875000D01*
X149899801Y-167875000D01*
X149858000Y-167833199D01*
X149858000Y-162343322D01*
X149859805Y-162325000D01*
X149961939Y-162325000D01*
X150161898Y-162285226D01*
X150350256Y-162207205D01*
X150476490Y-162122858D01*
X150476491Y-163899158D01*
X150472814Y-163936490D01*
X150476491Y-163973823D01*
X150484216Y-164052250D01*
X150487488Y-164085475D01*
X150530944Y-164228736D01*
X150601516Y-164360766D01*
X150645610Y-164414494D01*
X150696490Y-164476491D01*
X150725488Y-164500289D01*
X152190500Y-165965302D01*
X152190500Y-166090939D01*
X152230274Y-166290898D01*
X152308295Y-166479256D01*
X152421563Y-166648774D01*
X152565726Y-166792937D01*
X152735244Y-166906205D01*
X152923602Y-166984226D01*
X153123561Y-167024000D01*
X153327439Y-167024000D01*
X153527398Y-166984226D01*
X153715756Y-166906205D01*
X153885274Y-166792937D01*
X154029437Y-166648774D01*
X154142705Y-166479256D01*
X154220726Y-166290898D01*
X154260500Y-166090939D01*
X154260500Y-165887061D01*
X154220726Y-165687102D01*
X154142705Y-165498744D01*
X154029437Y-165329226D01*
X153885274Y-165185063D01*
X153715756Y-165071795D01*
X153527398Y-164993774D01*
X153329140Y-164954338D01*
X151996490Y-163621689D01*
X151996490Y-161630810D01*
X152000166Y-161593487D01*
X151996490Y-161556164D01*
X151996490Y-161556155D01*
X151985493Y-161444502D01*
X151942036Y-161301241D01*
X151938408Y-161294454D01*
X151922000Y-161263757D01*
X151922000Y-160621750D01*
X152176000Y-160621750D01*
X152176000Y-161671000D01*
X152196000Y-161671000D01*
X152196000Y-161925000D01*
X152176000Y-161925000D01*
X152176000Y-162974250D01*
X152334750Y-163133000D01*
X152536500Y-163136072D01*
X152660982Y-163123812D01*
X152780680Y-163087502D01*
X152890994Y-163028537D01*
X152987685Y-162949185D01*
X153051492Y-162871436D01*
X153056708Y-162877792D01*
X153190336Y-162987458D01*
X153342791Y-163068947D01*
X153508215Y-163119128D01*
X153680250Y-163136072D01*
X154167750Y-163136072D01*
X154339785Y-163119128D01*
X154505209Y-163068947D01*
X154657664Y-162987458D01*
X154791292Y-162877792D01*
X154847768Y-162808976D01*
X155009744Y-162917205D01*
X155198102Y-162995226D01*
X155398061Y-163035000D01*
X155601939Y-163035000D01*
X155801898Y-162995226D01*
X155990256Y-162917205D01*
X156159774Y-162803937D01*
X156303937Y-162659774D01*
X156417205Y-162490256D01*
X156495226Y-162301898D01*
X156535000Y-162101939D01*
X156535000Y-161898061D01*
X156495226Y-161698102D01*
X156417205Y-161509744D01*
X156303937Y-161340226D01*
X156159774Y-161196063D01*
X155990256Y-161082795D01*
X155801898Y-161004774D01*
X155601939Y-160965000D01*
X155398061Y-160965000D01*
X155198102Y-161004774D01*
X155009744Y-161082795D01*
X155006848Y-161084730D01*
X154982447Y-161004291D01*
X154900958Y-160851836D01*
X154791292Y-160718208D01*
X154657664Y-160608542D01*
X154505209Y-160527053D01*
X154339785Y-160476872D01*
X154167750Y-160459928D01*
X153680250Y-160459928D01*
X153508215Y-160476872D01*
X153342791Y-160527053D01*
X153190336Y-160608542D01*
X153056708Y-160718208D01*
X153051492Y-160724564D01*
X152987685Y-160646815D01*
X152890994Y-160567463D01*
X152780680Y-160508498D01*
X152660982Y-160472188D01*
X152536500Y-160459928D01*
X152334750Y-160463000D01*
X152176000Y-160621750D01*
X151922000Y-160621750D01*
X151763250Y-160463000D01*
X151561500Y-160459928D01*
X151437018Y-160472188D01*
X151317320Y-160508498D01*
X151258006Y-160540202D01*
X150771805Y-160054001D01*
X150748002Y-160024998D01*
X150632277Y-159930025D01*
X150500248Y-159859453D01*
X150356987Y-159815996D01*
X150245334Y-159804999D01*
X150245323Y-159804999D01*
X150208001Y-159801323D01*
X150170679Y-159804999D01*
X149667500Y-159804999D01*
X149667500Y-153580325D01*
X149671176Y-153543000D01*
X149667500Y-153505675D01*
X149667500Y-153505667D01*
X149656503Y-153394014D01*
X149613046Y-153250753D01*
X149542474Y-153118724D01*
X149447501Y-153002999D01*
X149418503Y-152979201D01*
X148126209Y-151686908D01*
X148170000Y-151466760D01*
X148170000Y-151174240D01*
X148112932Y-150887342D01*
X148000990Y-150617089D01*
X147838475Y-150373868D01*
X147631632Y-150167025D01*
X147388411Y-150004510D01*
X147118158Y-149892568D01*
X146831260Y-149835500D01*
X146538740Y-149835500D01*
X146251842Y-149892568D01*
X145981589Y-150004510D01*
X145738368Y-150167025D01*
X145531525Y-150373868D01*
X145415000Y-150548260D01*
X145298475Y-150373868D01*
X145091632Y-150167025D01*
X144848411Y-150004510D01*
X144578158Y-149892568D01*
X144291260Y-149835500D01*
X143998740Y-149835500D01*
X143711842Y-149892568D01*
X143626622Y-149927867D01*
X143616226Y-149875602D01*
X143547631Y-149710000D01*
X157290000Y-149710000D01*
X157290001Y-170290000D01*
G36*
X146685000Y-164211000D02*
G01*
X146705000Y-164211000D01*
X146705000Y-164465000D01*
X146685000Y-164465000D01*
X146685000Y-164485000D01*
X146431000Y-164485000D01*
X146431000Y-164465000D01*
X146411000Y-164465000D01*
X146411000Y-164211000D01*
X146431000Y-164211000D01*
X146431000Y-164191000D01*
X146685000Y-164191000D01*
X146685000Y-164211000D01*
G37*
X146685000Y-164211000D02*
X146705000Y-164211000D01*
X146705000Y-164465000D01*
X146685000Y-164465000D01*
X146685000Y-164485000D01*
X146431000Y-164485000D01*
X146431000Y-164465000D01*
X146411000Y-164465000D01*
X146411000Y-164211000D01*
X146431000Y-164211000D01*
X146431000Y-164191000D01*
X146685000Y-164191000D01*
X146685000Y-164211000D01*
G36*
X146812000Y-153733500D02*
G01*
X146832000Y-153733500D01*
X146832000Y-153987500D01*
X146812000Y-153987500D01*
X146812000Y-155180655D01*
X147041890Y-155301976D01*
X147189099Y-155257325D01*
X147451920Y-155132141D01*
X147685269Y-154958088D01*
X147880178Y-154741855D01*
X148029157Y-154491752D01*
X148126481Y-154217391D01*
X148005815Y-153987502D01*
X148147501Y-153987502D01*
X148147500Y-159959198D01*
X146581699Y-161525000D01*
X146519561Y-161525000D01*
X146319602Y-161564774D01*
X146131244Y-161642795D01*
X145961726Y-161756063D01*
X145817563Y-161900226D01*
X145704295Y-162069744D01*
X145626274Y-162258102D01*
X145586500Y-162458061D01*
X145586500Y-162661939D01*
X145626274Y-162861898D01*
X145657578Y-162937473D01*
X145538820Y-162973498D01*
X145428506Y-163032463D01*
X145331815Y-163111815D01*
X145252463Y-163208506D01*
X145193498Y-163318820D01*
X145157188Y-163438518D01*
X145144928Y-163563000D01*
X145147595Y-163987796D01*
X143741999Y-162582200D01*
X143741999Y-161358082D01*
X143848331Y-161429131D01*
X144255075Y-161597610D01*
X144686872Y-161683500D01*
X145127128Y-161683500D01*
X145558925Y-161597610D01*
X145965669Y-161429131D01*
X146331729Y-161184538D01*
X146643038Y-160873229D01*
X146887631Y-160507169D01*
X147056110Y-160100425D01*
X147142000Y-159668628D01*
X147142000Y-159228372D01*
X147056110Y-158796575D01*
X146887631Y-158389831D01*
X146643038Y-158023771D01*
X146331729Y-157712462D01*
X145965669Y-157467869D01*
X145558925Y-157299390D01*
X145327870Y-157253430D01*
X145831004Y-156750296D01*
X145860002Y-156726498D01*
X145886333Y-156694414D01*
X145954975Y-156610774D01*
X146025547Y-156478744D01*
X146069004Y-156335483D01*
X146080001Y-156223830D01*
X146080001Y-156223821D01*
X146083677Y-156186498D01*
X146080001Y-156149175D01*
X146080001Y-155209265D01*
X146180901Y-155257325D01*
X146328110Y-155301976D01*
X146558000Y-155180655D01*
X146558000Y-153987500D01*
X146538000Y-153987500D01*
X146538000Y-153733500D01*
X146558000Y-153733500D01*
X146558000Y-153713500D01*
X146812000Y-153713500D01*
X146812000Y-153733500D01*
G37*
X146812000Y-153733500D02*
X146832000Y-153733500D01*
X146832000Y-153987500D01*
X146812000Y-153987500D01*
X146812000Y-155180655D01*
X147041890Y-155301976D01*
X147189099Y-155257325D01*
X147451920Y-155132141D01*
X147685269Y-154958088D01*
X147880178Y-154741855D01*
X148029157Y-154491752D01*
X148126481Y-154217391D01*
X148005815Y-153987502D01*
X148147501Y-153987502D01*
X148147500Y-159959198D01*
X146581699Y-161525000D01*
X146519561Y-161525000D01*
X146319602Y-161564774D01*
X146131244Y-161642795D01*
X145961726Y-161756063D01*
X145817563Y-161900226D01*
X145704295Y-162069744D01*
X145626274Y-162258102D01*
X145586500Y-162458061D01*
X145586500Y-162661939D01*
X145626274Y-162861898D01*
X145657578Y-162937473D01*
X145538820Y-162973498D01*
X145428506Y-163032463D01*
X145331815Y-163111815D01*
X145252463Y-163208506D01*
X145193498Y-163318820D01*
X145157188Y-163438518D01*
X145144928Y-163563000D01*
X145147595Y-163987796D01*
X143741999Y-162582200D01*
X143741999Y-161358082D01*
X143848331Y-161429131D01*
X144255075Y-161597610D01*
X144686872Y-161683500D01*
X145127128Y-161683500D01*
X145558925Y-161597610D01*
X145965669Y-161429131D01*
X146331729Y-161184538D01*
X146643038Y-160873229D01*
X146887631Y-160507169D01*
X147056110Y-160100425D01*
X147142000Y-159668628D01*
X147142000Y-159228372D01*
X147056110Y-158796575D01*
X146887631Y-158389831D01*
X146643038Y-158023771D01*
X146331729Y-157712462D01*
X145965669Y-157467869D01*
X145558925Y-157299390D01*
X145327870Y-157253430D01*
X145831004Y-156750296D01*
X145860002Y-156726498D01*
X145886333Y-156694414D01*
X145954975Y-156610774D01*
X146025547Y-156478744D01*
X146069004Y-156335483D01*
X146080001Y-156223830D01*
X146080001Y-156223821D01*
X146083677Y-156186498D01*
X146080001Y-156149175D01*
X146080001Y-155209265D01*
X146180901Y-155257325D01*
X146328110Y-155301976D01*
X146558000Y-155180655D01*
X146558000Y-153987500D01*
X146538000Y-153987500D01*
X146538000Y-153733500D01*
X146558000Y-153733500D01*
X146558000Y-153713500D01*
X146812000Y-153713500D01*
X146812000Y-153733500D01*
%TD*%
M02*
