M48
; DRILL file {KiCad 7.0.7} date Sun Sep  3 21:45:32 2023
; FORMAT={-:-/ absolute / inch / decimal}
; #@! TF.CreationDate,2023-09-03T21:45:32+02:00
; #@! TF.GenerationSoftware,Kicad,Pcbnew,7.0.7
; #@! TF.FileFunction,Plated,1,2,PTH
FMAT,2
INCH
; #@! TA.AperFunction,Plated,PTH,ComponentDrill
T1C0.0512
%
G90
G05
T1
X7.67Y-1.728
X7.6709Y-2.67
X7.828Y-2.0998
X7.828Y-2.2998
X7.87Y-1.728
X7.8709Y-2.67
X8.07Y-1.728
X8.0709Y-2.67
X8.27Y-1.728
X8.2709Y-2.67
X8.47Y-1.728
X8.4709Y-2.67
X8.67Y-1.728
X8.6709Y-2.67
X8.87Y-1.728
X8.87Y-2.67
X9.07Y-1.728
X9.07Y-2.67
X9.27Y-1.728
X9.27Y-2.67
X9.4702Y-1.728
X9.4702Y-2.67
X9.6702Y-1.728
X9.6702Y-2.67
X9.7364Y-2.0949
X9.7364Y-2.2949
X9.8702Y-1.728
X9.8702Y-2.67
T0
M30
