%TF.GenerationSoftware,KiCad,Pcbnew,8.0.2*%
%TF.CreationDate,2024-12-24T22:57:44+01:00*%
%TF.ProjectId,CabControl,43616243-6f6e-4747-926f-6c2e6b696361,rev?*%
%TF.SameCoordinates,Original*%
%TF.FileFunction,Legend,Bot*%
%TF.FilePolarity,Positive*%
%FSLAX46Y46*%
G04 Gerber Fmt 4.6, Leading zero omitted, Abs format (unit mm)*
G04 Created by KiCad (PCBNEW 8.0.2) date 2024-12-24 22:57:44*
%MOMM*%
%LPD*%
G01*
G04 APERTURE LIST*
G04 Aperture macros list*
%AMRoundRect*
0 Rectangle with rounded corners*
0 $1 Rounding radius*
0 $2 $3 $4 $5 $6 $7 $8 $9 X,Y pos of 4 corners*
0 Add a 4 corners polygon primitive as box body*
4,1,4,$2,$3,$4,$5,$6,$7,$8,$9,$2,$3,0*
0 Add four circle primitives for the rounded corners*
1,1,$1+$1,$2,$3*
1,1,$1+$1,$4,$5*
1,1,$1+$1,$6,$7*
1,1,$1+$1,$8,$9*
0 Add four rect primitives between the rounded corners*
20,1,$1+$1,$2,$3,$4,$5,0*
20,1,$1+$1,$4,$5,$6,$7,0*
20,1,$1+$1,$6,$7,$8,$9,0*
20,1,$1+$1,$8,$9,$2,$3,0*%
G04 Aperture macros list end*
%ADD10C,0.150000*%
%ADD11C,0.000000*%
%ADD12C,0.120000*%
%ADD13O,3.700000X2.000000*%
%ADD14C,1.400000*%
%ADD15O,1.400000X1.400000*%
%ADD16O,3.600000X1.800000*%
%ADD17RoundRect,0.250000X1.550000X-0.650000X1.550000X0.650000X-1.550000X0.650000X-1.550000X-0.650000X0*%
%ADD18RoundRect,0.250000X-1.550000X0.650000X-1.550000X-0.650000X1.550000X-0.650000X1.550000X0.650000X0*%
%ADD19R,1.800000X1.800000*%
%ADD20C,1.800000*%
G04 APERTURE END LIST*
D10*
X171557792Y-84778636D02*
X171605411Y-84826256D01*
X171605411Y-84826256D02*
X171748268Y-84873875D01*
X171748268Y-84873875D02*
X171843506Y-84873875D01*
X171843506Y-84873875D02*
X171986363Y-84826256D01*
X171986363Y-84826256D02*
X172081601Y-84731017D01*
X172081601Y-84731017D02*
X172129220Y-84635779D01*
X172129220Y-84635779D02*
X172176839Y-84445303D01*
X172176839Y-84445303D02*
X172176839Y-84302446D01*
X172176839Y-84302446D02*
X172129220Y-84111970D01*
X172129220Y-84111970D02*
X172081601Y-84016732D01*
X172081601Y-84016732D02*
X171986363Y-83921494D01*
X171986363Y-83921494D02*
X171843506Y-83873875D01*
X171843506Y-83873875D02*
X171748268Y-83873875D01*
X171748268Y-83873875D02*
X171605411Y-83921494D01*
X171605411Y-83921494D02*
X171557792Y-83969113D01*
X171176839Y-84588160D02*
X170700649Y-84588160D01*
X171272077Y-84873875D02*
X170938744Y-83873875D01*
X170938744Y-83873875D02*
X170605411Y-84873875D01*
X169938744Y-84350065D02*
X169795887Y-84397684D01*
X169795887Y-84397684D02*
X169748268Y-84445303D01*
X169748268Y-84445303D02*
X169700649Y-84540541D01*
X169700649Y-84540541D02*
X169700649Y-84683398D01*
X169700649Y-84683398D02*
X169748268Y-84778636D01*
X169748268Y-84778636D02*
X169795887Y-84826256D01*
X169795887Y-84826256D02*
X169891125Y-84873875D01*
X169891125Y-84873875D02*
X170272077Y-84873875D01*
X170272077Y-84873875D02*
X170272077Y-83873875D01*
X170272077Y-83873875D02*
X169938744Y-83873875D01*
X169938744Y-83873875D02*
X169843506Y-83921494D01*
X169843506Y-83921494D02*
X169795887Y-83969113D01*
X169795887Y-83969113D02*
X169748268Y-84064351D01*
X169748268Y-84064351D02*
X169748268Y-84159589D01*
X169748268Y-84159589D02*
X169795887Y-84254827D01*
X169795887Y-84254827D02*
X169843506Y-84302446D01*
X169843506Y-84302446D02*
X169938744Y-84350065D01*
X169938744Y-84350065D02*
X170272077Y-84350065D01*
X171557792Y-86388580D02*
X171605411Y-86436200D01*
X171605411Y-86436200D02*
X171748268Y-86483819D01*
X171748268Y-86483819D02*
X171843506Y-86483819D01*
X171843506Y-86483819D02*
X171986363Y-86436200D01*
X171986363Y-86436200D02*
X172081601Y-86340961D01*
X172081601Y-86340961D02*
X172129220Y-86245723D01*
X172129220Y-86245723D02*
X172176839Y-86055247D01*
X172176839Y-86055247D02*
X172176839Y-85912390D01*
X172176839Y-85912390D02*
X172129220Y-85721914D01*
X172129220Y-85721914D02*
X172081601Y-85626676D01*
X172081601Y-85626676D02*
X171986363Y-85531438D01*
X171986363Y-85531438D02*
X171843506Y-85483819D01*
X171843506Y-85483819D02*
X171748268Y-85483819D01*
X171748268Y-85483819D02*
X171605411Y-85531438D01*
X171605411Y-85531438D02*
X171557792Y-85579057D01*
X170986363Y-86483819D02*
X171081601Y-86436200D01*
X171081601Y-86436200D02*
X171129220Y-86388580D01*
X171129220Y-86388580D02*
X171176839Y-86293342D01*
X171176839Y-86293342D02*
X171176839Y-86007628D01*
X171176839Y-86007628D02*
X171129220Y-85912390D01*
X171129220Y-85912390D02*
X171081601Y-85864771D01*
X171081601Y-85864771D02*
X170986363Y-85817152D01*
X170986363Y-85817152D02*
X170843506Y-85817152D01*
X170843506Y-85817152D02*
X170748268Y-85864771D01*
X170748268Y-85864771D02*
X170700649Y-85912390D01*
X170700649Y-85912390D02*
X170653030Y-86007628D01*
X170653030Y-86007628D02*
X170653030Y-86293342D01*
X170653030Y-86293342D02*
X170700649Y-86388580D01*
X170700649Y-86388580D02*
X170748268Y-86436200D01*
X170748268Y-86436200D02*
X170843506Y-86483819D01*
X170843506Y-86483819D02*
X170986363Y-86483819D01*
X170224458Y-85817152D02*
X170224458Y-86483819D01*
X170224458Y-85912390D02*
X170176839Y-85864771D01*
X170176839Y-85864771D02*
X170081601Y-85817152D01*
X170081601Y-85817152D02*
X169938744Y-85817152D01*
X169938744Y-85817152D02*
X169843506Y-85864771D01*
X169843506Y-85864771D02*
X169795887Y-85960009D01*
X169795887Y-85960009D02*
X169795887Y-86483819D01*
X169462553Y-85817152D02*
X169081601Y-85817152D01*
X169319696Y-85483819D02*
X169319696Y-86340961D01*
X169319696Y-86340961D02*
X169272077Y-86436200D01*
X169272077Y-86436200D02*
X169176839Y-86483819D01*
X169176839Y-86483819D02*
X169081601Y-86483819D01*
X168748267Y-86483819D02*
X168748267Y-85817152D01*
X168748267Y-86007628D02*
X168700648Y-85912390D01*
X168700648Y-85912390D02*
X168653029Y-85864771D01*
X168653029Y-85864771D02*
X168557791Y-85817152D01*
X168557791Y-85817152D02*
X168462553Y-85817152D01*
X167986362Y-86483819D02*
X168081600Y-86436200D01*
X168081600Y-86436200D02*
X168129219Y-86388580D01*
X168129219Y-86388580D02*
X168176838Y-86293342D01*
X168176838Y-86293342D02*
X168176838Y-86007628D01*
X168176838Y-86007628D02*
X168129219Y-85912390D01*
X168129219Y-85912390D02*
X168081600Y-85864771D01*
X168081600Y-85864771D02*
X167986362Y-85817152D01*
X167986362Y-85817152D02*
X167843505Y-85817152D01*
X167843505Y-85817152D02*
X167748267Y-85864771D01*
X167748267Y-85864771D02*
X167700648Y-85912390D01*
X167700648Y-85912390D02*
X167653029Y-86007628D01*
X167653029Y-86007628D02*
X167653029Y-86293342D01*
X167653029Y-86293342D02*
X167700648Y-86388580D01*
X167700648Y-86388580D02*
X167748267Y-86436200D01*
X167748267Y-86436200D02*
X167843505Y-86483819D01*
X167843505Y-86483819D02*
X167986362Y-86483819D01*
X167081600Y-86483819D02*
X167176838Y-86436200D01*
X167176838Y-86436200D02*
X167224457Y-86340961D01*
X167224457Y-86340961D02*
X167224457Y-85483819D01*
X144979526Y-82506409D02*
X144408098Y-82506409D01*
X144693812Y-83506409D02*
X144693812Y-82506409D01*
X144074764Y-83506409D02*
X144074764Y-82839742D01*
X144074764Y-83030218D02*
X144027145Y-82934980D01*
X144027145Y-82934980D02*
X143979526Y-82887361D01*
X143979526Y-82887361D02*
X143884288Y-82839742D01*
X143884288Y-82839742D02*
X143789050Y-82839742D01*
X143027145Y-83506409D02*
X143027145Y-82982599D01*
X143027145Y-82982599D02*
X143074764Y-82887361D01*
X143074764Y-82887361D02*
X143170002Y-82839742D01*
X143170002Y-82839742D02*
X143360478Y-82839742D01*
X143360478Y-82839742D02*
X143455716Y-82887361D01*
X143027145Y-83458790D02*
X143122383Y-83506409D01*
X143122383Y-83506409D02*
X143360478Y-83506409D01*
X143360478Y-83506409D02*
X143455716Y-83458790D01*
X143455716Y-83458790D02*
X143503335Y-83363551D01*
X143503335Y-83363551D02*
X143503335Y-83268313D01*
X143503335Y-83268313D02*
X143455716Y-83173075D01*
X143455716Y-83173075D02*
X143360478Y-83125456D01*
X143360478Y-83125456D02*
X143122383Y-83125456D01*
X143122383Y-83125456D02*
X143027145Y-83077837D01*
X142122383Y-83458790D02*
X142217621Y-83506409D01*
X142217621Y-83506409D02*
X142408097Y-83506409D01*
X142408097Y-83506409D02*
X142503335Y-83458790D01*
X142503335Y-83458790D02*
X142550954Y-83411170D01*
X142550954Y-83411170D02*
X142598573Y-83315932D01*
X142598573Y-83315932D02*
X142598573Y-83030218D01*
X142598573Y-83030218D02*
X142550954Y-82934980D01*
X142550954Y-82934980D02*
X142503335Y-82887361D01*
X142503335Y-82887361D02*
X142408097Y-82839742D01*
X142408097Y-82839742D02*
X142217621Y-82839742D01*
X142217621Y-82839742D02*
X142122383Y-82887361D01*
X141693811Y-83506409D02*
X141693811Y-82506409D01*
X141598573Y-83125456D02*
X141312859Y-83506409D01*
X141312859Y-82839742D02*
X141693811Y-83220694D01*
X145670002Y-85068734D02*
X145527145Y-85116353D01*
X145527145Y-85116353D02*
X145289050Y-85116353D01*
X145289050Y-85116353D02*
X145193812Y-85068734D01*
X145193812Y-85068734D02*
X145146193Y-85021114D01*
X145146193Y-85021114D02*
X145098574Y-84925876D01*
X145098574Y-84925876D02*
X145098574Y-84830638D01*
X145098574Y-84830638D02*
X145146193Y-84735400D01*
X145146193Y-84735400D02*
X145193812Y-84687781D01*
X145193812Y-84687781D02*
X145289050Y-84640162D01*
X145289050Y-84640162D02*
X145479526Y-84592543D01*
X145479526Y-84592543D02*
X145574764Y-84544924D01*
X145574764Y-84544924D02*
X145622383Y-84497305D01*
X145622383Y-84497305D02*
X145670002Y-84402067D01*
X145670002Y-84402067D02*
X145670002Y-84306829D01*
X145670002Y-84306829D02*
X145622383Y-84211591D01*
X145622383Y-84211591D02*
X145574764Y-84163972D01*
X145574764Y-84163972D02*
X145479526Y-84116353D01*
X145479526Y-84116353D02*
X145241431Y-84116353D01*
X145241431Y-84116353D02*
X145098574Y-84163972D01*
X144289050Y-85068734D02*
X144384288Y-85116353D01*
X144384288Y-85116353D02*
X144574764Y-85116353D01*
X144574764Y-85116353D02*
X144670002Y-85068734D01*
X144670002Y-85068734D02*
X144717621Y-84973495D01*
X144717621Y-84973495D02*
X144717621Y-84592543D01*
X144717621Y-84592543D02*
X144670002Y-84497305D01*
X144670002Y-84497305D02*
X144574764Y-84449686D01*
X144574764Y-84449686D02*
X144384288Y-84449686D01*
X144384288Y-84449686D02*
X144289050Y-84497305D01*
X144289050Y-84497305D02*
X144241431Y-84592543D01*
X144241431Y-84592543D02*
X144241431Y-84687781D01*
X144241431Y-84687781D02*
X144717621Y-84783019D01*
X143384288Y-85068734D02*
X143479526Y-85116353D01*
X143479526Y-85116353D02*
X143670002Y-85116353D01*
X143670002Y-85116353D02*
X143765240Y-85068734D01*
X143765240Y-85068734D02*
X143812859Y-85021114D01*
X143812859Y-85021114D02*
X143860478Y-84925876D01*
X143860478Y-84925876D02*
X143860478Y-84640162D01*
X143860478Y-84640162D02*
X143812859Y-84544924D01*
X143812859Y-84544924D02*
X143765240Y-84497305D01*
X143765240Y-84497305D02*
X143670002Y-84449686D01*
X143670002Y-84449686D02*
X143479526Y-84449686D01*
X143479526Y-84449686D02*
X143384288Y-84497305D01*
X143098573Y-84449686D02*
X142717621Y-84449686D01*
X142955716Y-84116353D02*
X142955716Y-84973495D01*
X142955716Y-84973495D02*
X142908097Y-85068734D01*
X142908097Y-85068734D02*
X142812859Y-85116353D01*
X142812859Y-85116353D02*
X142717621Y-85116353D01*
X142384287Y-85116353D02*
X142384287Y-84449686D01*
X142384287Y-84116353D02*
X142431906Y-84163972D01*
X142431906Y-84163972D02*
X142384287Y-84211591D01*
X142384287Y-84211591D02*
X142336668Y-84163972D01*
X142336668Y-84163972D02*
X142384287Y-84116353D01*
X142384287Y-84116353D02*
X142384287Y-84211591D01*
X141765240Y-85116353D02*
X141860478Y-85068734D01*
X141860478Y-85068734D02*
X141908097Y-85021114D01*
X141908097Y-85021114D02*
X141955716Y-84925876D01*
X141955716Y-84925876D02*
X141955716Y-84640162D01*
X141955716Y-84640162D02*
X141908097Y-84544924D01*
X141908097Y-84544924D02*
X141860478Y-84497305D01*
X141860478Y-84497305D02*
X141765240Y-84449686D01*
X141765240Y-84449686D02*
X141622383Y-84449686D01*
X141622383Y-84449686D02*
X141527145Y-84497305D01*
X141527145Y-84497305D02*
X141479526Y-84544924D01*
X141479526Y-84544924D02*
X141431907Y-84640162D01*
X141431907Y-84640162D02*
X141431907Y-84925876D01*
X141431907Y-84925876D02*
X141479526Y-85021114D01*
X141479526Y-85021114D02*
X141527145Y-85068734D01*
X141527145Y-85068734D02*
X141622383Y-85116353D01*
X141622383Y-85116353D02*
X141765240Y-85116353D01*
X141003335Y-84449686D02*
X141003335Y-85116353D01*
X141003335Y-84544924D02*
X140955716Y-84497305D01*
X140955716Y-84497305D02*
X140860478Y-84449686D01*
X140860478Y-84449686D02*
X140717621Y-84449686D01*
X140717621Y-84449686D02*
X140622383Y-84497305D01*
X140622383Y-84497305D02*
X140574764Y-84592543D01*
X140574764Y-84592543D02*
X140574764Y-85116353D01*
X163890077Y-79895819D02*
X163318649Y-79895819D01*
X163604363Y-80895819D02*
X163604363Y-79895819D01*
X162985315Y-80895819D02*
X162985315Y-80229152D01*
X162985315Y-80419628D02*
X162937696Y-80324390D01*
X162937696Y-80324390D02*
X162890077Y-80276771D01*
X162890077Y-80276771D02*
X162794839Y-80229152D01*
X162794839Y-80229152D02*
X162699601Y-80229152D01*
X161937696Y-80895819D02*
X161937696Y-80372009D01*
X161937696Y-80372009D02*
X161985315Y-80276771D01*
X161985315Y-80276771D02*
X162080553Y-80229152D01*
X162080553Y-80229152D02*
X162271029Y-80229152D01*
X162271029Y-80229152D02*
X162366267Y-80276771D01*
X161937696Y-80848200D02*
X162032934Y-80895819D01*
X162032934Y-80895819D02*
X162271029Y-80895819D01*
X162271029Y-80895819D02*
X162366267Y-80848200D01*
X162366267Y-80848200D02*
X162413886Y-80752961D01*
X162413886Y-80752961D02*
X162413886Y-80657723D01*
X162413886Y-80657723D02*
X162366267Y-80562485D01*
X162366267Y-80562485D02*
X162271029Y-80514866D01*
X162271029Y-80514866D02*
X162032934Y-80514866D01*
X162032934Y-80514866D02*
X161937696Y-80467247D01*
X161604362Y-80229152D02*
X161223410Y-80229152D01*
X161461505Y-80895819D02*
X161461505Y-80038676D01*
X161461505Y-80038676D02*
X161413886Y-79943438D01*
X161413886Y-79943438D02*
X161318648Y-79895819D01*
X161318648Y-79895819D02*
X161223410Y-79895819D01*
X160747219Y-80895819D02*
X160842457Y-80848200D01*
X160842457Y-80848200D02*
X160890076Y-80800580D01*
X160890076Y-80800580D02*
X160937695Y-80705342D01*
X160937695Y-80705342D02*
X160937695Y-80419628D01*
X160937695Y-80419628D02*
X160890076Y-80324390D01*
X160890076Y-80324390D02*
X160842457Y-80276771D01*
X160842457Y-80276771D02*
X160747219Y-80229152D01*
X160747219Y-80229152D02*
X160604362Y-80229152D01*
X160604362Y-80229152D02*
X160509124Y-80276771D01*
X160509124Y-80276771D02*
X160461505Y-80324390D01*
X160461505Y-80324390D02*
X160413886Y-80419628D01*
X160413886Y-80419628D02*
X160413886Y-80705342D01*
X160413886Y-80705342D02*
X160461505Y-80800580D01*
X160461505Y-80800580D02*
X160509124Y-80848200D01*
X160509124Y-80848200D02*
X160604362Y-80895819D01*
X160604362Y-80895819D02*
X160747219Y-80895819D01*
X159271028Y-80610104D02*
X158794838Y-80610104D01*
X159366266Y-80895819D02*
X159032933Y-79895819D01*
X159032933Y-79895819D02*
X158699600Y-80895819D01*
X145952651Y-79798353D02*
X145381223Y-79798353D01*
X145666937Y-80798353D02*
X145666937Y-79798353D01*
X145047889Y-80798353D02*
X145047889Y-80131686D01*
X145047889Y-80322162D02*
X145000270Y-80226924D01*
X145000270Y-80226924D02*
X144952651Y-80179305D01*
X144952651Y-80179305D02*
X144857413Y-80131686D01*
X144857413Y-80131686D02*
X144762175Y-80131686D01*
X144000270Y-80798353D02*
X144000270Y-80274543D01*
X144000270Y-80274543D02*
X144047889Y-80179305D01*
X144047889Y-80179305D02*
X144143127Y-80131686D01*
X144143127Y-80131686D02*
X144333603Y-80131686D01*
X144333603Y-80131686D02*
X144428841Y-80179305D01*
X144000270Y-80750734D02*
X144095508Y-80798353D01*
X144095508Y-80798353D02*
X144333603Y-80798353D01*
X144333603Y-80798353D02*
X144428841Y-80750734D01*
X144428841Y-80750734D02*
X144476460Y-80655495D01*
X144476460Y-80655495D02*
X144476460Y-80560257D01*
X144476460Y-80560257D02*
X144428841Y-80465019D01*
X144428841Y-80465019D02*
X144333603Y-80417400D01*
X144333603Y-80417400D02*
X144095508Y-80417400D01*
X144095508Y-80417400D02*
X144000270Y-80369781D01*
X143666936Y-80131686D02*
X143285984Y-80131686D01*
X143524079Y-80798353D02*
X143524079Y-79941210D01*
X143524079Y-79941210D02*
X143476460Y-79845972D01*
X143476460Y-79845972D02*
X143381222Y-79798353D01*
X143381222Y-79798353D02*
X143285984Y-79798353D01*
X142809793Y-80798353D02*
X142905031Y-80750734D01*
X142905031Y-80750734D02*
X142952650Y-80703114D01*
X142952650Y-80703114D02*
X143000269Y-80607876D01*
X143000269Y-80607876D02*
X143000269Y-80322162D01*
X143000269Y-80322162D02*
X142952650Y-80226924D01*
X142952650Y-80226924D02*
X142905031Y-80179305D01*
X142905031Y-80179305D02*
X142809793Y-80131686D01*
X142809793Y-80131686D02*
X142666936Y-80131686D01*
X142666936Y-80131686D02*
X142571698Y-80179305D01*
X142571698Y-80179305D02*
X142524079Y-80226924D01*
X142524079Y-80226924D02*
X142476460Y-80322162D01*
X142476460Y-80322162D02*
X142476460Y-80607876D01*
X142476460Y-80607876D02*
X142524079Y-80703114D01*
X142524079Y-80703114D02*
X142571698Y-80750734D01*
X142571698Y-80750734D02*
X142666936Y-80798353D01*
X142666936Y-80798353D02*
X142809793Y-80798353D01*
X141333602Y-80512638D02*
X140857412Y-80512638D01*
X141428840Y-80798353D02*
X141095507Y-79798353D01*
X141095507Y-79798353D02*
X140762174Y-80798353D01*
X145825651Y-76623353D02*
X145254223Y-76623353D01*
X145539937Y-77623353D02*
X145539937Y-76623353D01*
X144920889Y-77623353D02*
X144920889Y-76956686D01*
X144920889Y-77147162D02*
X144873270Y-77051924D01*
X144873270Y-77051924D02*
X144825651Y-77004305D01*
X144825651Y-77004305D02*
X144730413Y-76956686D01*
X144730413Y-76956686D02*
X144635175Y-76956686D01*
X143873270Y-77623353D02*
X143873270Y-77099543D01*
X143873270Y-77099543D02*
X143920889Y-77004305D01*
X143920889Y-77004305D02*
X144016127Y-76956686D01*
X144016127Y-76956686D02*
X144206603Y-76956686D01*
X144206603Y-76956686D02*
X144301841Y-77004305D01*
X143873270Y-77575734D02*
X143968508Y-77623353D01*
X143968508Y-77623353D02*
X144206603Y-77623353D01*
X144206603Y-77623353D02*
X144301841Y-77575734D01*
X144301841Y-77575734D02*
X144349460Y-77480495D01*
X144349460Y-77480495D02*
X144349460Y-77385257D01*
X144349460Y-77385257D02*
X144301841Y-77290019D01*
X144301841Y-77290019D02*
X144206603Y-77242400D01*
X144206603Y-77242400D02*
X143968508Y-77242400D01*
X143968508Y-77242400D02*
X143873270Y-77194781D01*
X143539936Y-76956686D02*
X143158984Y-76956686D01*
X143397079Y-77623353D02*
X143397079Y-76766210D01*
X143397079Y-76766210D02*
X143349460Y-76670972D01*
X143349460Y-76670972D02*
X143254222Y-76623353D01*
X143254222Y-76623353D02*
X143158984Y-76623353D01*
X142682793Y-77623353D02*
X142778031Y-77575734D01*
X142778031Y-77575734D02*
X142825650Y-77528114D01*
X142825650Y-77528114D02*
X142873269Y-77432876D01*
X142873269Y-77432876D02*
X142873269Y-77147162D01*
X142873269Y-77147162D02*
X142825650Y-77051924D01*
X142825650Y-77051924D02*
X142778031Y-77004305D01*
X142778031Y-77004305D02*
X142682793Y-76956686D01*
X142682793Y-76956686D02*
X142539936Y-76956686D01*
X142539936Y-76956686D02*
X142444698Y-77004305D01*
X142444698Y-77004305D02*
X142397079Y-77051924D01*
X142397079Y-77051924D02*
X142349460Y-77147162D01*
X142349460Y-77147162D02*
X142349460Y-77432876D01*
X142349460Y-77432876D02*
X142397079Y-77528114D01*
X142397079Y-77528114D02*
X142444698Y-77575734D01*
X142444698Y-77575734D02*
X142539936Y-77623353D01*
X142539936Y-77623353D02*
X142682793Y-77623353D01*
X140825650Y-77099543D02*
X140682793Y-77147162D01*
X140682793Y-77147162D02*
X140635174Y-77194781D01*
X140635174Y-77194781D02*
X140587555Y-77290019D01*
X140587555Y-77290019D02*
X140587555Y-77432876D01*
X140587555Y-77432876D02*
X140635174Y-77528114D01*
X140635174Y-77528114D02*
X140682793Y-77575734D01*
X140682793Y-77575734D02*
X140778031Y-77623353D01*
X140778031Y-77623353D02*
X141158983Y-77623353D01*
X141158983Y-77623353D02*
X141158983Y-76623353D01*
X141158983Y-76623353D02*
X140825650Y-76623353D01*
X140825650Y-76623353D02*
X140730412Y-76670972D01*
X140730412Y-76670972D02*
X140682793Y-76718591D01*
X140682793Y-76718591D02*
X140635174Y-76813829D01*
X140635174Y-76813829D02*
X140635174Y-76909067D01*
X140635174Y-76909067D02*
X140682793Y-77004305D01*
X140682793Y-77004305D02*
X140730412Y-77051924D01*
X140730412Y-77051924D02*
X140825650Y-77099543D01*
X140825650Y-77099543D02*
X141158983Y-77099543D01*
X163763077Y-77512353D02*
X163191649Y-77512353D01*
X163477363Y-78512353D02*
X163477363Y-77512353D01*
X162858315Y-78512353D02*
X162858315Y-77845686D01*
X162858315Y-78036162D02*
X162810696Y-77940924D01*
X162810696Y-77940924D02*
X162763077Y-77893305D01*
X162763077Y-77893305D02*
X162667839Y-77845686D01*
X162667839Y-77845686D02*
X162572601Y-77845686D01*
X161810696Y-78512353D02*
X161810696Y-77988543D01*
X161810696Y-77988543D02*
X161858315Y-77893305D01*
X161858315Y-77893305D02*
X161953553Y-77845686D01*
X161953553Y-77845686D02*
X162144029Y-77845686D01*
X162144029Y-77845686D02*
X162239267Y-77893305D01*
X161810696Y-78464734D02*
X161905934Y-78512353D01*
X161905934Y-78512353D02*
X162144029Y-78512353D01*
X162144029Y-78512353D02*
X162239267Y-78464734D01*
X162239267Y-78464734D02*
X162286886Y-78369495D01*
X162286886Y-78369495D02*
X162286886Y-78274257D01*
X162286886Y-78274257D02*
X162239267Y-78179019D01*
X162239267Y-78179019D02*
X162144029Y-78131400D01*
X162144029Y-78131400D02*
X161905934Y-78131400D01*
X161905934Y-78131400D02*
X161810696Y-78083781D01*
X161477362Y-77845686D02*
X161096410Y-77845686D01*
X161334505Y-78512353D02*
X161334505Y-77655210D01*
X161334505Y-77655210D02*
X161286886Y-77559972D01*
X161286886Y-77559972D02*
X161191648Y-77512353D01*
X161191648Y-77512353D02*
X161096410Y-77512353D01*
X160620219Y-78512353D02*
X160715457Y-78464734D01*
X160715457Y-78464734D02*
X160763076Y-78417114D01*
X160763076Y-78417114D02*
X160810695Y-78321876D01*
X160810695Y-78321876D02*
X160810695Y-78036162D01*
X160810695Y-78036162D02*
X160763076Y-77940924D01*
X160763076Y-77940924D02*
X160715457Y-77893305D01*
X160715457Y-77893305D02*
X160620219Y-77845686D01*
X160620219Y-77845686D02*
X160477362Y-77845686D01*
X160477362Y-77845686D02*
X160382124Y-77893305D01*
X160382124Y-77893305D02*
X160334505Y-77940924D01*
X160334505Y-77940924D02*
X160286886Y-78036162D01*
X160286886Y-78036162D02*
X160286886Y-78321876D01*
X160286886Y-78321876D02*
X160334505Y-78417114D01*
X160334505Y-78417114D02*
X160382124Y-78464734D01*
X160382124Y-78464734D02*
X160477362Y-78512353D01*
X160477362Y-78512353D02*
X160620219Y-78512353D01*
X158763076Y-77988543D02*
X158620219Y-78036162D01*
X158620219Y-78036162D02*
X158572600Y-78083781D01*
X158572600Y-78083781D02*
X158524981Y-78179019D01*
X158524981Y-78179019D02*
X158524981Y-78321876D01*
X158524981Y-78321876D02*
X158572600Y-78417114D01*
X158572600Y-78417114D02*
X158620219Y-78464734D01*
X158620219Y-78464734D02*
X158715457Y-78512353D01*
X158715457Y-78512353D02*
X159096409Y-78512353D01*
X159096409Y-78512353D02*
X159096409Y-77512353D01*
X159096409Y-77512353D02*
X158763076Y-77512353D01*
X158763076Y-77512353D02*
X158667838Y-77559972D01*
X158667838Y-77559972D02*
X158620219Y-77607591D01*
X158620219Y-77607591D02*
X158572600Y-77702829D01*
X158572600Y-77702829D02*
X158572600Y-77798067D01*
X158572600Y-77798067D02*
X158620219Y-77893305D01*
X158620219Y-77893305D02*
X158667838Y-77940924D01*
X158667838Y-77940924D02*
X158763076Y-77988543D01*
X158763076Y-77988543D02*
X159096409Y-77988543D01*
X144317604Y-73940353D02*
X144793794Y-73940353D01*
X144793794Y-73940353D02*
X144793794Y-72940353D01*
X143984270Y-73416543D02*
X143650937Y-73416543D01*
X143508080Y-73940353D02*
X143984270Y-73940353D01*
X143984270Y-73940353D02*
X143984270Y-72940353D01*
X143984270Y-72940353D02*
X143508080Y-72940353D01*
X143079508Y-73940353D02*
X143079508Y-72940353D01*
X143079508Y-72940353D02*
X142841413Y-72940353D01*
X142841413Y-72940353D02*
X142698556Y-72987972D01*
X142698556Y-72987972D02*
X142603318Y-73083210D01*
X142603318Y-73083210D02*
X142555699Y-73178448D01*
X142555699Y-73178448D02*
X142508080Y-73368924D01*
X142508080Y-73368924D02*
X142508080Y-73511781D01*
X142508080Y-73511781D02*
X142555699Y-73702257D01*
X142555699Y-73702257D02*
X142603318Y-73797495D01*
X142603318Y-73797495D02*
X142698556Y-73892734D01*
X142698556Y-73892734D02*
X142841413Y-73940353D01*
X142841413Y-73940353D02*
X143079508Y-73940353D01*
X141317603Y-73559400D02*
X140555699Y-73559400D01*
X140936651Y-73940353D02*
X140936651Y-73178448D01*
X162224604Y-73686353D02*
X162700794Y-73686353D01*
X162700794Y-73686353D02*
X162700794Y-72686353D01*
X161891270Y-73162543D02*
X161557937Y-73162543D01*
X161415080Y-73686353D02*
X161891270Y-73686353D01*
X161891270Y-73686353D02*
X161891270Y-72686353D01*
X161891270Y-72686353D02*
X161415080Y-72686353D01*
X160986508Y-73686353D02*
X160986508Y-72686353D01*
X160986508Y-72686353D02*
X160748413Y-72686353D01*
X160748413Y-72686353D02*
X160605556Y-72733972D01*
X160605556Y-72733972D02*
X160510318Y-72829210D01*
X160510318Y-72829210D02*
X160462699Y-72924448D01*
X160462699Y-72924448D02*
X160415080Y-73114924D01*
X160415080Y-73114924D02*
X160415080Y-73257781D01*
X160415080Y-73257781D02*
X160462699Y-73448257D01*
X160462699Y-73448257D02*
X160510318Y-73543495D01*
X160510318Y-73543495D02*
X160605556Y-73638734D01*
X160605556Y-73638734D02*
X160748413Y-73686353D01*
X160748413Y-73686353D02*
X160986508Y-73686353D01*
X159224603Y-73305400D02*
X158462699Y-73305400D01*
X158843651Y-73686353D02*
X158843651Y-72924448D01*
X162224604Y-70257353D02*
X162700794Y-70257353D01*
X162700794Y-70257353D02*
X162700794Y-69257353D01*
X161891270Y-69733543D02*
X161557937Y-69733543D01*
X161415080Y-70257353D02*
X161891270Y-70257353D01*
X161891270Y-70257353D02*
X161891270Y-69257353D01*
X161891270Y-69257353D02*
X161415080Y-69257353D01*
X160986508Y-70257353D02*
X160986508Y-69257353D01*
X160986508Y-69257353D02*
X160748413Y-69257353D01*
X160748413Y-69257353D02*
X160605556Y-69304972D01*
X160605556Y-69304972D02*
X160510318Y-69400210D01*
X160510318Y-69400210D02*
X160462699Y-69495448D01*
X160462699Y-69495448D02*
X160415080Y-69685924D01*
X160415080Y-69685924D02*
X160415080Y-69828781D01*
X160415080Y-69828781D02*
X160462699Y-70019257D01*
X160462699Y-70019257D02*
X160510318Y-70114495D01*
X160510318Y-70114495D02*
X160605556Y-70209734D01*
X160605556Y-70209734D02*
X160748413Y-70257353D01*
X160748413Y-70257353D02*
X160986508Y-70257353D01*
X159224603Y-69876400D02*
X158462699Y-69876400D01*
X144317604Y-70638353D02*
X144793794Y-70638353D01*
X144793794Y-70638353D02*
X144793794Y-69638353D01*
X143984270Y-70114543D02*
X143650937Y-70114543D01*
X143508080Y-70638353D02*
X143984270Y-70638353D01*
X143984270Y-70638353D02*
X143984270Y-69638353D01*
X143984270Y-69638353D02*
X143508080Y-69638353D01*
X143079508Y-70638353D02*
X143079508Y-69638353D01*
X143079508Y-69638353D02*
X142841413Y-69638353D01*
X142841413Y-69638353D02*
X142698556Y-69685972D01*
X142698556Y-69685972D02*
X142603318Y-69781210D01*
X142603318Y-69781210D02*
X142555699Y-69876448D01*
X142555699Y-69876448D02*
X142508080Y-70066924D01*
X142508080Y-70066924D02*
X142508080Y-70209781D01*
X142508080Y-70209781D02*
X142555699Y-70400257D01*
X142555699Y-70400257D02*
X142603318Y-70495495D01*
X142603318Y-70495495D02*
X142698556Y-70590734D01*
X142698556Y-70590734D02*
X142841413Y-70638353D01*
X142841413Y-70638353D02*
X143079508Y-70638353D01*
X141317603Y-70257400D02*
X140555699Y-70257400D01*
D11*
%TO.C,G\u002A\u002A\u002A*%
G36*
X152852517Y-76663988D02*
G01*
X152875966Y-76674787D01*
X152890195Y-76706124D01*
X152897507Y-76768962D01*
X152900204Y-76874262D01*
X152900592Y-77032985D01*
X152900592Y-77403200D01*
X152820110Y-77403200D01*
X152786783Y-77401724D01*
X152759929Y-77388601D01*
X152745885Y-77350642D01*
X152740501Y-77274664D01*
X152739628Y-77147485D01*
X152739532Y-77108304D01*
X152736344Y-76991262D01*
X152725865Y-76918461D01*
X152704357Y-76873920D01*
X152668080Y-76841654D01*
X152650723Y-76830399D01*
X152561194Y-76796399D01*
X152483299Y-76800444D01*
X152437243Y-76842462D01*
X152435286Y-76848840D01*
X152426355Y-76914366D01*
X152420075Y-77020739D01*
X152417702Y-77148292D01*
X152417248Y-77253007D01*
X152413142Y-77338522D01*
X152401215Y-77383257D01*
X152377297Y-77400415D01*
X152337220Y-77403200D01*
X152332050Y-77403194D01*
X152295550Y-77399987D01*
X152273290Y-77382328D01*
X152261748Y-77337734D01*
X152257404Y-77253722D01*
X152256739Y-77117808D01*
X152262649Y-76953568D01*
X152286709Y-76815150D01*
X152333213Y-76725519D01*
X152406317Y-76677213D01*
X152510178Y-76662769D01*
X152524622Y-76663050D01*
X152613779Y-76676219D01*
X152672829Y-76703010D01*
X152708742Y-76727107D01*
X152730239Y-76703010D01*
X152757324Y-76677507D01*
X152822793Y-76662769D01*
X152852517Y-76663988D01*
G37*
G36*
X152029271Y-76931845D02*
G01*
X152099977Y-76958919D01*
X152127968Y-77001406D01*
X152126457Y-77011965D01*
X152100953Y-77034353D01*
X152034842Y-77045841D01*
X151916355Y-77049081D01*
X151816925Y-77047672D01*
X151747027Y-77040260D01*
X151717525Y-77023166D01*
X151715419Y-76992744D01*
X151717287Y-76986014D01*
X151759857Y-76947266D01*
X151839311Y-76925600D01*
X151935749Y-76920599D01*
X152029271Y-76931845D01*
G37*
G36*
X150127136Y-76403361D02*
G01*
X150158407Y-76461565D01*
X150160288Y-76478786D01*
X150147120Y-76522959D01*
X150087874Y-76533999D01*
X150033576Y-76528300D01*
X149985037Y-76492248D01*
X149991150Y-76422528D01*
X150015131Y-76390565D01*
X150070891Y-76377714D01*
X150127136Y-76403361D01*
G37*
G36*
X153217631Y-76403361D02*
G01*
X153248902Y-76461565D01*
X153250782Y-76478786D01*
X153237614Y-76522959D01*
X153178368Y-76533999D01*
X153124071Y-76528300D01*
X153075531Y-76492248D01*
X153081644Y-76422528D01*
X153105625Y-76390565D01*
X153161385Y-76377714D01*
X153217631Y-76403361D01*
G37*
G36*
X147511636Y-76933000D02*
G01*
X147515617Y-77104890D01*
X147511564Y-77135586D01*
X147478247Y-77248779D01*
X147413117Y-77329705D01*
X147400167Y-77339820D01*
X147311634Y-77380354D01*
X147201400Y-77400154D01*
X147086319Y-77400338D01*
X146983250Y-77382024D01*
X146909047Y-77346331D01*
X146880566Y-77294376D01*
X146881169Y-77287067D01*
X146901199Y-77265300D01*
X146959050Y-77258706D01*
X147067514Y-77265295D01*
X147143083Y-77269072D01*
X147267151Y-77252168D01*
X147339789Y-77199960D01*
X147363456Y-77111167D01*
X147362684Y-77096882D01*
X147349957Y-77071313D01*
X147311505Y-77056892D01*
X147234451Y-77050517D01*
X147105915Y-77049081D01*
X146848374Y-77049081D01*
X146848374Y-76950027D01*
X146859670Y-76894557D01*
X147009337Y-76894557D01*
X147025108Y-76905152D01*
X147089420Y-76916076D01*
X147186396Y-76920311D01*
X147259237Y-76918017D01*
X147334341Y-76908662D01*
X147363456Y-76894557D01*
X147345972Y-76851073D01*
X147281065Y-76808306D01*
X147186396Y-76791540D01*
X147111659Y-76801712D01*
X147038153Y-76839477D01*
X147009337Y-76894557D01*
X146859670Y-76894557D01*
X146866001Y-76863471D01*
X146933163Y-76762669D01*
X147034617Y-76690419D01*
X147153326Y-76662769D01*
X147218225Y-76666482D01*
X147359987Y-76710192D01*
X147458775Y-76800233D01*
X147496330Y-76894557D01*
X147511636Y-76933000D01*
G37*
G36*
X151092158Y-69635055D02*
G01*
X151199341Y-69657861D01*
X151299924Y-69681620D01*
X151417072Y-69707490D01*
X151500211Y-69723793D01*
X151621810Y-69745750D01*
X151759904Y-69778223D01*
X151847157Y-69811145D01*
X151878344Y-69831406D01*
X151886170Y-69864893D01*
X151857060Y-69928058D01*
X151826995Y-69987127D01*
X151780878Y-70083113D01*
X151727462Y-70197502D01*
X151673742Y-70314987D01*
X151626711Y-70420260D01*
X151593363Y-70498014D01*
X151580693Y-70532939D01*
X151589954Y-70540074D01*
X151638925Y-70546166D01*
X151678750Y-70552492D01*
X151751739Y-70586407D01*
X151767568Y-70598772D01*
X151788116Y-70628801D01*
X151780491Y-70674076D01*
X151743706Y-70755418D01*
X151703967Y-70839681D01*
X151655352Y-70946347D01*
X151605175Y-71058885D01*
X151560540Y-71161197D01*
X151528550Y-71237185D01*
X151516308Y-71270752D01*
X151528661Y-71278883D01*
X151580531Y-71295882D01*
X151597286Y-71300961D01*
X151646165Y-71334444D01*
X151659436Y-71394132D01*
X151637057Y-71489145D01*
X151578986Y-71628598D01*
X151520298Y-71756375D01*
X151462533Y-71882942D01*
X151419189Y-71978739D01*
X151378393Y-72069386D01*
X151321463Y-72195417D01*
X151262855Y-72324810D01*
X151214521Y-72424317D01*
X151157962Y-72514226D01*
X151116531Y-72541590D01*
X151090175Y-72506388D01*
X151078842Y-72408598D01*
X151082480Y-72248196D01*
X151086460Y-72178403D01*
X151094754Y-72029500D01*
X151104213Y-71856671D01*
X151113470Y-71684771D01*
X151132579Y-71326418D01*
X151048191Y-71305238D01*
X151043246Y-71303961D01*
X151003078Y-71286997D01*
X150981777Y-71254791D01*
X150978493Y-71195527D01*
X150992378Y-71097393D01*
X151022584Y-70948574D01*
X151027401Y-70925954D01*
X151057532Y-70774284D01*
X151071407Y-70671164D01*
X151068728Y-70604271D01*
X151049200Y-70561286D01*
X151012527Y-70529888D01*
X151009685Y-70528021D01*
X150979750Y-70505265D01*
X150959781Y-70476066D01*
X150948154Y-70428841D01*
X150943244Y-70352007D01*
X150943427Y-70233980D01*
X150947080Y-70063178D01*
X150947759Y-70036545D01*
X150953251Y-69882056D01*
X150960367Y-69753829D01*
X150968262Y-69664569D01*
X150976092Y-69626982D01*
X151011487Y-69624110D01*
X151092158Y-69635055D01*
G37*
G36*
X149829507Y-76933000D02*
G01*
X149833487Y-77104890D01*
X149829435Y-77135586D01*
X149796118Y-77248779D01*
X149730988Y-77329705D01*
X149718038Y-77339820D01*
X149629505Y-77380354D01*
X149519270Y-77400154D01*
X149404190Y-77400338D01*
X149301120Y-77382024D01*
X149226917Y-77346331D01*
X149198437Y-77294376D01*
X149199039Y-77287067D01*
X149219070Y-77265300D01*
X149276921Y-77258706D01*
X149385385Y-77265295D01*
X149460954Y-77269072D01*
X149585022Y-77252168D01*
X149657660Y-77199960D01*
X149681327Y-77111167D01*
X149680554Y-77096882D01*
X149667828Y-77071313D01*
X149629376Y-77056892D01*
X149552321Y-77050517D01*
X149423786Y-77049081D01*
X149166244Y-77049081D01*
X149166244Y-76950027D01*
X149177541Y-76894557D01*
X149327208Y-76894557D01*
X149342979Y-76905152D01*
X149407291Y-76916076D01*
X149504267Y-76920311D01*
X149577108Y-76918017D01*
X149652211Y-76908662D01*
X149681327Y-76894557D01*
X149663843Y-76851073D01*
X149598935Y-76808306D01*
X149504267Y-76791540D01*
X149429530Y-76801712D01*
X149356024Y-76839477D01*
X149327208Y-76894557D01*
X149177541Y-76894557D01*
X149183872Y-76863471D01*
X149251034Y-76762669D01*
X149352488Y-76690419D01*
X149471197Y-76662769D01*
X149536096Y-76666482D01*
X149677858Y-76710192D01*
X149776646Y-76800233D01*
X149814201Y-76894557D01*
X149829507Y-76933000D01*
G37*
G36*
X153254711Y-77403200D02*
G01*
X153093748Y-77403200D01*
X153093748Y-76662769D01*
X153254711Y-76662769D01*
X153254711Y-77403200D01*
G37*
G36*
X151382119Y-76384551D02*
G01*
X151501624Y-76434279D01*
X151580199Y-76513715D01*
X151612277Y-76612357D01*
X151592289Y-76719707D01*
X151514669Y-76825264D01*
X151496486Y-76841568D01*
X151414666Y-76902866D01*
X151345657Y-76938566D01*
X151315725Y-76949271D01*
X151223756Y-77008964D01*
X151171233Y-77087595D01*
X151164721Y-77170370D01*
X151210786Y-77242493D01*
X151220745Y-77249264D01*
X151301583Y-77267002D01*
X151423638Y-77258359D01*
X151572645Y-77224064D01*
X151620682Y-77220068D01*
X151645886Y-77247510D01*
X151630204Y-77297052D01*
X151573530Y-77353086D01*
X151500936Y-77384597D01*
X151377569Y-77401193D01*
X151245017Y-77391535D01*
X151131079Y-77355471D01*
X151062492Y-77300535D01*
X151002749Y-77198564D01*
X150984084Y-77096135D01*
X151009860Y-76996193D01*
X151090466Y-76907305D01*
X151230602Y-76821699D01*
X151308118Y-76778443D01*
X151407540Y-76698245D01*
X151444614Y-76621183D01*
X151418448Y-76548550D01*
X151415899Y-76545703D01*
X151357440Y-76515818D01*
X151273937Y-76502888D01*
X151193963Y-76508439D01*
X151146092Y-76533999D01*
X151105240Y-76564789D01*
X151056392Y-76553914D01*
X151033418Y-76502939D01*
X151033420Y-76502335D01*
X151063098Y-76433240D01*
X151146124Y-76388771D01*
X151274863Y-76373036D01*
X151382119Y-76384551D01*
G37*
G36*
X155139824Y-76373161D02*
G01*
X155278502Y-76374892D01*
X155367475Y-76379863D01*
X155416909Y-76389589D01*
X155436973Y-76405588D01*
X155437834Y-76429373D01*
X155425497Y-76456105D01*
X155375100Y-76482408D01*
X155274510Y-76495522D01*
X155121884Y-76505334D01*
X155121884Y-77403200D01*
X154960921Y-77403200D01*
X154960921Y-76501806D01*
X154816054Y-76501806D01*
X154805647Y-76501782D01*
X154720025Y-76496683D01*
X154680666Y-76477657D01*
X154671187Y-76437421D01*
X154672650Y-76418024D01*
X154685156Y-76397129D01*
X154719492Y-76383945D01*
X154786296Y-76376709D01*
X154896206Y-76373660D01*
X155059860Y-76373036D01*
X155139824Y-76373161D01*
G37*
G36*
X150164217Y-77403200D02*
G01*
X150003253Y-77403200D01*
X150003253Y-76662769D01*
X150164217Y-76662769D01*
X150164217Y-77403200D01*
G37*
G36*
X154574609Y-77403200D02*
G01*
X154494128Y-77403200D01*
X154468728Y-77402549D01*
X154437537Y-77392539D01*
X154421112Y-77359440D01*
X154414725Y-77289488D01*
X154413646Y-77168919D01*
X154413394Y-77136100D01*
X154400674Y-76975385D01*
X154366269Y-76868818D01*
X154306744Y-76809752D01*
X154218665Y-76791540D01*
X154196857Y-76791013D01*
X154139447Y-76774633D01*
X154123912Y-76727155D01*
X154130953Y-76699259D01*
X154179541Y-76666074D01*
X154259050Y-76664196D01*
X154351377Y-76696095D01*
X154393940Y-76712977D01*
X154413646Y-76696095D01*
X154433634Y-76674174D01*
X154494128Y-76662769D01*
X154574609Y-76662769D01*
X154574609Y-77403200D01*
G37*
G36*
X150666007Y-76677527D02*
G01*
X150769638Y-76738042D01*
X150835325Y-76848108D01*
X150865776Y-77010733D01*
X150871287Y-77119215D01*
X150863804Y-77191703D01*
X150836294Y-77245957D01*
X150782128Y-77305323D01*
X150748040Y-77337169D01*
X150661634Y-77389144D01*
X150556571Y-77403200D01*
X150455299Y-77389981D01*
X150363895Y-77349764D01*
X150308941Y-77292108D01*
X150304386Y-77226773D01*
X150316016Y-77199932D01*
X150339448Y-77187129D01*
X150384723Y-77221759D01*
X150385706Y-77222642D01*
X150475403Y-77266772D01*
X150576925Y-77267246D01*
X150660903Y-77223841D01*
X150664382Y-77220116D01*
X150698642Y-77144813D01*
X150711492Y-77032985D01*
X150711403Y-77023249D01*
X150696600Y-76913454D01*
X150660903Y-76842129D01*
X150660026Y-76841260D01*
X150575620Y-76798442D01*
X150474063Y-76799500D01*
X150384723Y-76844211D01*
X150356365Y-76868557D01*
X150325669Y-76877981D01*
X150304386Y-76839197D01*
X150305773Y-76781548D01*
X150355459Y-76722368D01*
X150442418Y-76679371D01*
X150552300Y-76662769D01*
X150666007Y-76677527D01*
G37*
G36*
X147994017Y-76677527D02*
G01*
X148097648Y-76738042D01*
X148163335Y-76848108D01*
X148193787Y-77010733D01*
X148199297Y-77119215D01*
X148191814Y-77191703D01*
X148164304Y-77245957D01*
X148110139Y-77305323D01*
X148076050Y-77337169D01*
X147989644Y-77389144D01*
X147884581Y-77403200D01*
X147783309Y-77389981D01*
X147691905Y-77349764D01*
X147636951Y-77292108D01*
X147632396Y-77226773D01*
X147644027Y-77199932D01*
X147667458Y-77187129D01*
X147712733Y-77221759D01*
X147713717Y-77222642D01*
X147803413Y-77266772D01*
X147904935Y-77267246D01*
X147988913Y-77223841D01*
X147999479Y-77211043D01*
X148030500Y-77128032D01*
X148039079Y-77019878D01*
X148025217Y-76915078D01*
X147988913Y-76842129D01*
X147988036Y-76841260D01*
X147903631Y-76798442D01*
X147802073Y-76799500D01*
X147712733Y-76844211D01*
X147684375Y-76868557D01*
X147653679Y-76877981D01*
X147632396Y-76839197D01*
X147633783Y-76781548D01*
X147683469Y-76722368D01*
X147770428Y-76679371D01*
X147880310Y-76662769D01*
X147994017Y-76677527D01*
G37*
G36*
X148957206Y-76663988D02*
G01*
X148980656Y-76674787D01*
X148994885Y-76706124D01*
X149002196Y-76768962D01*
X149004894Y-76874262D01*
X149005281Y-77032985D01*
X149005281Y-77403200D01*
X148924800Y-77403200D01*
X148891473Y-77401724D01*
X148864619Y-77388601D01*
X148850575Y-77350642D01*
X148845191Y-77274664D01*
X148844318Y-77147485D01*
X148844222Y-77108304D01*
X148841033Y-76991262D01*
X148830555Y-76918461D01*
X148809046Y-76873920D01*
X148772770Y-76841654D01*
X148755412Y-76830399D01*
X148665884Y-76796399D01*
X148587988Y-76800444D01*
X148541932Y-76842462D01*
X148539975Y-76848840D01*
X148531044Y-76914366D01*
X148524764Y-77020739D01*
X148522391Y-77148292D01*
X148521937Y-77253007D01*
X148517832Y-77338522D01*
X148505904Y-77383257D01*
X148481987Y-77400415D01*
X148441910Y-77403200D01*
X148436740Y-77403194D01*
X148400240Y-77399987D01*
X148377979Y-77382328D01*
X148366437Y-77337734D01*
X148362094Y-77253722D01*
X148361428Y-77117808D01*
X148367338Y-76953568D01*
X148391399Y-76815150D01*
X148437903Y-76725519D01*
X148511007Y-76677213D01*
X148614867Y-76662769D01*
X148629311Y-76663050D01*
X148718469Y-76676219D01*
X148777518Y-76703010D01*
X148813432Y-76727107D01*
X148834928Y-76703010D01*
X148862013Y-76677507D01*
X148927482Y-76662769D01*
X148957206Y-76663988D01*
G37*
G36*
X154058374Y-77182537D02*
G01*
X154044571Y-77278657D01*
X153989626Y-77351932D01*
X153941911Y-77374617D01*
X153837629Y-77392821D01*
X153680894Y-77396021D01*
X153442062Y-77391149D01*
X153451523Y-77135009D01*
X153608830Y-77135009D01*
X153614237Y-77172033D01*
X153647461Y-77235799D01*
X153689481Y-77261034D01*
X153768161Y-77273708D01*
X153843785Y-77260887D01*
X153887752Y-77223977D01*
X153889945Y-77166434D01*
X153838187Y-77121669D01*
X153726774Y-77091989D01*
X153655973Y-77083870D01*
X153617687Y-77095273D01*
X153608830Y-77135009D01*
X153451523Y-77135009D01*
X153453013Y-77094661D01*
X153456324Y-77021881D01*
X153471763Y-76867138D01*
X153501871Y-76763404D01*
X153553099Y-76701130D01*
X153631894Y-76670768D01*
X153744706Y-76662769D01*
X153779597Y-76663364D01*
X153912207Y-76680257D01*
X153997297Y-76718209D01*
X154027334Y-76774250D01*
X154027149Y-76778278D01*
X154009320Y-76801184D01*
X153953505Y-76807973D01*
X153847112Y-76800480D01*
X153748821Y-76793689D01*
X153675024Y-76800964D01*
X153638353Y-76826951D01*
X153615745Y-76873663D01*
X153617304Y-76930832D01*
X153665167Y-76952683D01*
X153727422Y-76958723D01*
X153837627Y-76985717D01*
X153941489Y-77025608D01*
X154010152Y-77068690D01*
X154028984Y-77091887D01*
X154053153Y-77166434D01*
X154058374Y-77182537D01*
G37*
G36*
X155635893Y-68802634D02*
G01*
X155566965Y-68926603D01*
X155480118Y-69079190D01*
X155373813Y-69263043D01*
X155246514Y-69480812D01*
X155096681Y-69735146D01*
X154922778Y-70028693D01*
X154723266Y-70364103D01*
X154496609Y-70744024D01*
X154241267Y-71171106D01*
X153955704Y-71647996D01*
X153638382Y-72177344D01*
X153574823Y-72283324D01*
X153311226Y-72722804D01*
X153056755Y-73146988D01*
X152813408Y-73552547D01*
X152583185Y-73936155D01*
X152368083Y-74294484D01*
X152170101Y-74624208D01*
X151991236Y-74922000D01*
X151833488Y-75184531D01*
X151698854Y-75408476D01*
X151589332Y-75590508D01*
X151506922Y-75727298D01*
X151453621Y-75815521D01*
X151431428Y-75851849D01*
X151382811Y-75902194D01*
X151299622Y-75916234D01*
X151293882Y-75914830D01*
X151276844Y-75904488D01*
X151253624Y-75882107D01*
X151222536Y-75844991D01*
X151181891Y-75790444D01*
X151130001Y-75715771D01*
X151065180Y-75618274D01*
X150985738Y-75495259D01*
X150889988Y-75344029D01*
X150776242Y-75161888D01*
X150642813Y-74946141D01*
X150488013Y-74694091D01*
X150310153Y-74403044D01*
X150107546Y-74070302D01*
X149878505Y-73693170D01*
X149621340Y-73268951D01*
X149334366Y-72794951D01*
X149015893Y-72268473D01*
X148973506Y-72198373D01*
X148632243Y-71633468D01*
X148323675Y-71121665D01*
X148046882Y-70661404D01*
X147800943Y-70251125D01*
X147584940Y-69889265D01*
X147397951Y-69574265D01*
X147239057Y-69304564D01*
X147107338Y-69078600D01*
X147001873Y-68894813D01*
X146921743Y-68751643D01*
X146908707Y-68727282D01*
X147177841Y-68727282D01*
X148968811Y-71689660D01*
X149177858Y-72035436D01*
X149421730Y-72438804D01*
X149658401Y-72830256D01*
X149885261Y-73205472D01*
X150099699Y-73560135D01*
X150299104Y-73889926D01*
X150480864Y-74190527D01*
X150642369Y-74457620D01*
X150781008Y-74686887D01*
X150894169Y-74874010D01*
X150979243Y-75014669D01*
X151033617Y-75104549D01*
X151307454Y-75557058D01*
X155405198Y-68727282D01*
X153348079Y-68718997D01*
X153267536Y-68718685D01*
X152813084Y-68717298D01*
X152313002Y-68716318D01*
X151783007Y-68715746D01*
X151238815Y-68715581D01*
X150696142Y-68715824D01*
X150170704Y-68716474D01*
X149678218Y-68717532D01*
X149234400Y-68718997D01*
X147177841Y-68727282D01*
X146908707Y-68727282D01*
X146866028Y-68647528D01*
X146833808Y-68580908D01*
X146824162Y-68550222D01*
X146832277Y-68469740D01*
X151281718Y-68461579D01*
X151878292Y-68460499D01*
X152443900Y-68459537D01*
X152951345Y-68458786D01*
X153403810Y-68458284D01*
X153804479Y-68458070D01*
X154156536Y-68458182D01*
X154463166Y-68458657D01*
X154727554Y-68459534D01*
X154952882Y-68460852D01*
X155142336Y-68462648D01*
X155299099Y-68464961D01*
X155426356Y-68467828D01*
X155527291Y-68471288D01*
X155605088Y-68475379D01*
X155662931Y-68480140D01*
X155704004Y-68485608D01*
X155731492Y-68491821D01*
X155748579Y-68498819D01*
X155758449Y-68506638D01*
X155764286Y-68515317D01*
X155765558Y-68519349D01*
X155763162Y-68539961D01*
X155750535Y-68575947D01*
X155726140Y-68629955D01*
X155688438Y-68704635D01*
X155676295Y-68727282D01*
X155635893Y-68802634D01*
G37*
G36*
X154308293Y-69408184D02*
G01*
X154229361Y-69557073D01*
X154124094Y-69749575D01*
X153991555Y-69987366D01*
X153830808Y-70272123D01*
X153640917Y-70605524D01*
X153420945Y-70989245D01*
X153169956Y-71424962D01*
X152887013Y-71914354D01*
X152838506Y-71998120D01*
X152621817Y-72372143D01*
X152414429Y-72729831D01*
X152218634Y-73067244D01*
X152036727Y-73380441D01*
X151871000Y-73665482D01*
X151723747Y-73918428D01*
X151597262Y-74135339D01*
X151493836Y-74312274D01*
X151415765Y-74445294D01*
X151365341Y-74530458D01*
X151344857Y-74563827D01*
X151305402Y-74588333D01*
X151231543Y-74596019D01*
X151222260Y-74593271D01*
X151202237Y-74579318D01*
X151175203Y-74550943D01*
X151139212Y-74504973D01*
X151092313Y-74438233D01*
X151032560Y-74347552D01*
X150958002Y-74229755D01*
X150866693Y-74081670D01*
X150756683Y-73900124D01*
X150626024Y-73681942D01*
X150472767Y-73423953D01*
X150294964Y-73122982D01*
X150090667Y-72775857D01*
X149857927Y-72379404D01*
X149594796Y-71930450D01*
X149345871Y-71504970D01*
X149085387Y-71058321D01*
X148856363Y-70663872D01*
X148657887Y-70320011D01*
X148489048Y-70025128D01*
X148348933Y-69777610D01*
X148236633Y-69575845D01*
X148151235Y-69418220D01*
X148126930Y-69371134D01*
X148397327Y-69371134D01*
X149805228Y-71776177D01*
X149974777Y-72065713D01*
X150178942Y-72414092D01*
X150372022Y-72743265D01*
X150551639Y-73049190D01*
X150715413Y-73327826D01*
X150860965Y-73575130D01*
X150985916Y-73787061D01*
X151087887Y-73959577D01*
X151164498Y-74088637D01*
X151213371Y-74170197D01*
X151232125Y-74200218D01*
X151245683Y-74183326D01*
X151289463Y-74115149D01*
X151361070Y-73998481D01*
X151458160Y-73837287D01*
X151578388Y-73635530D01*
X151719410Y-73397174D01*
X151878882Y-73126185D01*
X152054459Y-72826526D01*
X152243796Y-72502162D01*
X152444550Y-72157056D01*
X152654377Y-71795175D01*
X154057631Y-69371134D01*
X152642103Y-69362751D01*
X152349908Y-69361322D01*
X151939566Y-69360062D01*
X151498911Y-69359402D01*
X151046883Y-69359341D01*
X150602421Y-69359879D01*
X150184464Y-69361016D01*
X149811951Y-69362751D01*
X148397327Y-69371134D01*
X148126930Y-69371134D01*
X148091826Y-69303125D01*
X148057497Y-69228948D01*
X148047335Y-69194075D01*
X148055598Y-69113593D01*
X154397550Y-69113593D01*
X154397214Y-69210171D01*
X154390899Y-69234537D01*
X154361827Y-69301231D01*
X154326838Y-69371134D01*
X154308293Y-69408184D01*
G37*
D12*
%TO.C,J2*%
X139594074Y-67342534D02*
X130174074Y-67342534D01*
X139594074Y-68852534D02*
X139594074Y-67342534D01*
X139594074Y-70952534D02*
X139594074Y-72352534D01*
X139594074Y-74452534D02*
X139594074Y-75852534D01*
X139594074Y-77952534D02*
X139594074Y-79352534D01*
X139594074Y-81452534D02*
X139594074Y-82852534D01*
X140284074Y-83902534D02*
X140884074Y-83602534D01*
X140884074Y-84202534D02*
X140284074Y-83902534D01*
X140884074Y-83602534D02*
X140884074Y-84202534D01*
X130174074Y-67342534D02*
X130174074Y-86462534D01*
X133484074Y-67342534D02*
X133484074Y-86462534D01*
X139594074Y-84952534D02*
X139594074Y-86462534D01*
X130174074Y-86462534D02*
X139594074Y-86462534D01*
%TO.C,J1*%
X165159574Y-82962534D02*
X174579574Y-82962534D01*
X165159574Y-81452534D02*
X165159574Y-82962534D01*
X165159574Y-79352534D02*
X165159574Y-77952534D01*
X165159574Y-75852534D02*
X165159574Y-74452534D01*
X165159574Y-72352534D02*
X165159574Y-70952534D01*
X164469574Y-69902534D02*
X163869574Y-70202534D01*
X163869574Y-69602534D02*
X164469574Y-69902534D01*
X163869574Y-70202534D02*
X163869574Y-69602534D01*
X174579574Y-82962534D02*
X174579574Y-67342534D01*
X171269574Y-82962534D02*
X171269574Y-67342534D01*
X165159574Y-68852534D02*
X165159574Y-67342534D01*
X174579574Y-67342534D02*
X165159574Y-67342534D01*
%TD*%
%LPC*%
D13*
%TO.C,SW2*%
X148940574Y-84739534D03*
X148940574Y-80039534D03*
X148940574Y-75339534D03*
X153740574Y-84739534D03*
X153740574Y-80039534D03*
X153740574Y-75339534D03*
%TD*%
D14*
%TO.C,R1*%
X148159574Y-71402534D03*
D15*
X155779574Y-71402534D03*
%TD*%
D16*
%TO.C,J2*%
X138284074Y-69902534D03*
X138284074Y-73402534D03*
X138284074Y-76902534D03*
X138284074Y-80402534D03*
D17*
X138284074Y-83902534D03*
%TD*%
D16*
%TO.C,J1*%
X166469574Y-80402534D03*
X166469574Y-76902534D03*
X166469574Y-73402534D03*
D18*
X166469574Y-69902534D03*
%TD*%
D19*
%TO.C,D1*%
X159608574Y-76229534D03*
D20*
X162148574Y-76229534D03*
%TD*%
%TO.C,D2*%
X162148574Y-84229534D03*
D19*
X159608574Y-84229534D03*
%TD*%
%LPD*%
M02*
