%TF.GenerationSoftware,KiCad,Pcbnew,8.0.2*%
%TF.CreationDate,2025-01-19T22:09:42+01:00*%
%TF.ProjectId,CabControl,43616243-6f6e-4747-926f-6c2e6b696361,rev?*%
%TF.SameCoordinates,Original*%
%TF.FileFunction,Copper,L1,Top*%
%TF.FilePolarity,Positive*%
%FSLAX46Y46*%
G04 Gerber Fmt 4.6, Leading zero omitted, Abs format (unit mm)*
G04 Created by KiCad (PCBNEW 8.0.2) date 2025-01-19 22:09:42*
%MOMM*%
%LPD*%
G01*
G04 APERTURE LIST*
G04 Aperture macros list*
%AMRoundRect*
0 Rectangle with rounded corners*
0 $1 Rounding radius*
0 $2 $3 $4 $5 $6 $7 $8 $9 X,Y pos of 4 corners*
0 Add a 4 corners polygon primitive as box body*
4,1,4,$2,$3,$4,$5,$6,$7,$8,$9,$2,$3,0*
0 Add four circle primitives for the rounded corners*
1,1,$1+$1,$2,$3*
1,1,$1+$1,$4,$5*
1,1,$1+$1,$6,$7*
1,1,$1+$1,$8,$9*
0 Add four rect primitives between the rounded corners*
20,1,$1+$1,$2,$3,$4,$5,0*
20,1,$1+$1,$4,$5,$6,$7,0*
20,1,$1+$1,$6,$7,$8,$9,0*
20,1,$1+$1,$8,$9,$2,$3,0*%
G04 Aperture macros list end*
%TA.AperFunction,ComponentPad*%
%ADD10O,3.700000X2.000000*%
%TD*%
%TA.AperFunction,ComponentPad*%
%ADD11C,1.400000*%
%TD*%
%TA.AperFunction,ComponentPad*%
%ADD12O,1.400000X1.400000*%
%TD*%
%TA.AperFunction,ComponentPad*%
%ADD13R,1.800000X1.800000*%
%TD*%
%TA.AperFunction,ComponentPad*%
%ADD14C,1.800000*%
%TD*%
%TA.AperFunction,ComponentPad*%
%ADD15RoundRect,0.250000X1.550000X-0.650000X1.550000X0.650000X-1.550000X0.650000X-1.550000X-0.650000X0*%
%TD*%
%TA.AperFunction,ComponentPad*%
%ADD16O,3.600000X1.800000*%
%TD*%
%TA.AperFunction,ComponentPad*%
%ADD17RoundRect,0.250000X-1.550000X0.650000X-1.550000X-0.650000X1.550000X-0.650000X1.550000X0.650000X0*%
%TD*%
%TA.AperFunction,ViaPad*%
%ADD18C,0.800000*%
%TD*%
%TA.AperFunction,Conductor*%
%ADD19C,0.800000*%
%TD*%
%TA.AperFunction,Conductor*%
%ADD20C,0.200000*%
%TD*%
%TA.AperFunction,Conductor*%
%ADD21C,0.250000*%
%TD*%
%TA.AperFunction,Conductor*%
%ADD22C,1.000000*%
%TD*%
G04 APERTURE END LIST*
D10*
%TO.P,SW2,1,A*%
%TO.N,/LED B*%
X153740574Y-75339534D03*
%TO.P,SW2,2,B*%
%TO.N,GND*%
X153740574Y-80039534D03*
%TO.P,SW2,3,C*%
%TO.N,/LED A*%
X153740574Y-84739534D03*
%TO.P,SW2,4,A*%
%TO.N,/trafo B*%
X148940574Y-75339534D03*
%TO.P,SW2,5,B*%
%TO.N,/spoor*%
X148940574Y-80039534D03*
%TO.P,SW2,6,C*%
%TO.N,/trafo A*%
X148940574Y-84739534D03*
%TD*%
D11*
%TO.P,R2,1*%
%TO.N,VCC*%
X148463000Y-71755000D03*
D12*
%TO.P,R2,2*%
%TO.N,Net-(D2-A)*%
X156083000Y-71755000D03*
%TD*%
D13*
%TO.P,D1,1,K*%
%TO.N,/LED A*%
X159608574Y-76229534D03*
D14*
%TO.P,D1,2,A*%
%TO.N,Net-(D1-A)*%
X162148574Y-76229534D03*
%TD*%
D11*
%TO.P,R1,1*%
%TO.N,Net-(D1-A)*%
X156083000Y-69469000D03*
D12*
%TO.P,R1,2*%
%TO.N,VCC*%
X148463000Y-69469000D03*
%TD*%
D13*
%TO.P,D2,1,K*%
%TO.N,/LED B*%
X159608574Y-84229534D03*
D14*
%TO.P,D2,2,A*%
%TO.N,Net-(D2-A)*%
X162148574Y-84229534D03*
%TD*%
D15*
%TO.P,J2,1,Pin_1*%
%TO.N,/spoor*%
X138284074Y-83902534D03*
D16*
%TO.P,J2,2,Pin_2*%
%TO.N,/trafo A*%
X138284074Y-80402534D03*
%TO.P,J2,3,Pin_3*%
%TO.N,/trafo B*%
X138284074Y-76902534D03*
%TO.P,J2,4,Pin_4*%
%TO.N,VCC*%
X138284074Y-73402534D03*
%TO.P,J2,5,Pin_5*%
%TO.N,GND*%
X138284074Y-69902534D03*
%TD*%
D17*
%TO.P,J1,1,Pin_1*%
%TO.N,GND*%
X166469574Y-69902534D03*
D16*
%TO.P,J1,2,Pin_2*%
%TO.N,VCC*%
X166469574Y-73402534D03*
%TO.P,J1,3,Pin_3*%
%TO.N,/trafo B*%
X166469574Y-76902534D03*
%TO.P,J1,4,Pin_4*%
%TO.N,/trafo A*%
X166469574Y-80402534D03*
%TD*%
D18*
%TO.N,Net-(D1-A)*%
X162052000Y-71628000D03*
%TD*%
D19*
%TO.N,GND*%
X138284074Y-69902534D02*
X145774000Y-69902534D01*
X157129534Y-68102534D02*
X158929534Y-69902534D01*
D20*
X136887018Y-78102534D02*
X136113574Y-77329090D01*
X137687018Y-71402534D02*
X137687018Y-70499590D01*
X136113574Y-77329090D02*
X136113574Y-72975978D01*
X137687018Y-70499590D02*
X138284074Y-69902534D01*
X151038204Y-78102534D02*
X136887018Y-78102534D01*
D19*
X158929534Y-69902534D02*
X166469574Y-69902534D01*
D20*
X136113574Y-72975978D02*
X137687018Y-71402534D01*
X153740574Y-80039534D02*
X152975204Y-80039534D01*
X152975204Y-80039534D02*
X151038204Y-78102534D01*
D19*
X145774000Y-69902534D02*
X147574000Y-68102534D01*
X147574000Y-68102534D02*
X157129534Y-68102534D01*
D21*
%TO.N,Net-(D1-A)*%
X158242000Y-71628000D02*
X156083000Y-69469000D01*
X162052000Y-71628000D02*
X158242000Y-71628000D01*
D22*
%TO.N,VCC*%
X138284074Y-73402534D02*
X146815466Y-73402534D01*
D20*
X164053574Y-76229534D02*
X162148574Y-76229534D01*
X164688574Y-74705534D02*
X164688574Y-75594534D01*
D22*
X150110534Y-73402534D02*
X166469574Y-73402534D01*
X146815466Y-73402534D02*
X148463000Y-71755000D01*
D21*
X148463000Y-69469000D02*
X148463000Y-71755000D01*
D20*
X164688574Y-75594534D02*
X164053574Y-76229534D01*
X165991574Y-73402534D02*
X164688574Y-74705534D01*
D22*
X148463000Y-71755000D02*
X150110534Y-73402534D01*
D20*
X166469574Y-73402534D02*
X165991574Y-73402534D01*
D22*
%TO.N,/trafo A*%
X148940574Y-84739534D02*
X148306574Y-84739534D01*
X159219574Y-80402534D02*
X166469574Y-80402534D01*
X157199108Y-82423000D02*
X159219574Y-80402534D01*
X148306574Y-84739534D02*
X143969574Y-80402534D01*
X148940574Y-84739534D02*
X151257108Y-82423000D01*
X151257108Y-82423000D02*
X157199108Y-82423000D01*
X143969574Y-80402534D02*
X138284074Y-80402534D01*
%TO.N,/trafo B*%
X146032574Y-75339534D02*
X144469574Y-76902534D01*
X165469574Y-76902534D02*
X166469574Y-76902534D01*
X164032574Y-78339534D02*
X165469574Y-76902534D01*
X144469574Y-76902534D02*
X138284074Y-76902534D01*
X152406574Y-78339534D02*
X164032574Y-78339534D01*
X148940574Y-75339534D02*
X149406574Y-75339534D01*
X149406574Y-75339534D02*
X152406574Y-78339534D01*
X148940574Y-75339534D02*
X146032574Y-75339534D01*
D21*
%TO.N,Net-(D2-A)*%
X168594574Y-72895122D02*
X168594574Y-80909946D01*
X164883000Y-72353000D02*
X165058466Y-72177534D01*
X165274986Y-84229534D02*
X162148574Y-84229534D01*
X167876986Y-72177534D02*
X168594574Y-72895122D01*
X165058466Y-72177534D02*
X167876986Y-72177534D01*
X156083000Y-71755000D02*
X156681000Y-72353000D01*
X156681000Y-72353000D02*
X164883000Y-72353000D01*
X168594574Y-80909946D02*
X165274986Y-84229534D01*
%TD*%
M02*
