%TF.GenerationSoftware,KiCad,Pcbnew,8.0.2*%
%TF.CreationDate,2024-10-04T23:09:32+02:00*%
%TF.ProjectId,OSSD_CDU,4f535344-5f43-4445-952e-6b696361645f,rev?*%
%TF.SameCoordinates,Original*%
%TF.FileFunction,Paste,Top*%
%TF.FilePolarity,Positive*%
%FSLAX46Y46*%
G04 Gerber Fmt 4.6, Leading zero omitted, Abs format (unit mm)*
G04 Created by KiCad (PCBNEW 8.0.2) date 2024-10-04 23:09:32*
%MOMM*%
%LPD*%
G01*
G04 APERTURE LIST*
G04 Aperture macros list*
%AMRoundRect*
0 Rectangle with rounded corners*
0 $1 Rounding radius*
0 $2 $3 $4 $5 $6 $7 $8 $9 X,Y pos of 4 corners*
0 Add a 4 corners polygon primitive as box body*
4,1,4,$2,$3,$4,$5,$6,$7,$8,$9,$2,$3,0*
0 Add four circle primitives for the rounded corners*
1,1,$1+$1,$2,$3*
1,1,$1+$1,$4,$5*
1,1,$1+$1,$6,$7*
1,1,$1+$1,$8,$9*
0 Add four rect primitives between the rounded corners*
20,1,$1+$1,$2,$3,$4,$5,0*
20,1,$1+$1,$4,$5,$6,$7,0*
20,1,$1+$1,$6,$7,$8,$9,0*
20,1,$1+$1,$8,$9,$2,$3,0*%
G04 Aperture macros list end*
%ADD10RoundRect,0.250000X0.400000X0.750000X-0.400000X0.750000X-0.400000X-0.750000X0.400000X-0.750000X0*%
%ADD11RoundRect,0.250000X0.750000X0.750000X-0.750000X0.750000X-0.750000X-0.750000X0.750000X-0.750000X0*%
%ADD12RoundRect,0.250000X0.450000X-0.350000X0.450000X0.350000X-0.450000X0.350000X-0.450000X-0.350000X0*%
%ADD13RoundRect,0.250000X0.350000X0.450000X-0.350000X0.450000X-0.350000X-0.450000X0.350000X-0.450000X0*%
%ADD14RoundRect,0.250000X-0.350000X-0.450000X0.350000X-0.450000X0.350000X0.450000X-0.350000X0.450000X0*%
%ADD15RoundRect,0.150000X-0.587500X-0.150000X0.587500X-0.150000X0.587500X0.150000X-0.587500X0.150000X0*%
%ADD16RoundRect,0.250000X1.000000X0.650000X-1.000000X0.650000X-1.000000X-0.650000X1.000000X-0.650000X0*%
%ADD17RoundRect,0.250000X-1.000000X-0.650000X1.000000X-0.650000X1.000000X0.650000X-1.000000X0.650000X0*%
%ADD18RoundRect,0.250000X0.650000X-1.000000X0.650000X1.000000X-0.650000X1.000000X-0.650000X-1.000000X0*%
%ADD19RoundRect,0.250000X-0.650000X1.000000X-0.650000X-1.000000X0.650000X-1.000000X0.650000X1.000000X0*%
%ADD20RoundRect,0.249999X4.150001X4.550001X-4.150001X4.550001X-4.150001X-4.550001X4.150001X-4.550001X0*%
%ADD21RoundRect,0.249999X-4.150001X-4.550001X4.150001X-4.550001X4.150001X4.550001X-4.150001X4.550001X0*%
%ADD22RoundRect,0.250000X0.550000X-1.500000X0.550000X1.500000X-0.550000X1.500000X-0.550000X-1.500000X0*%
%ADD23RoundRect,0.150000X0.650000X0.150000X-0.650000X0.150000X-0.650000X-0.150000X0.650000X-0.150000X0*%
G04 APERTURE END LIST*
D10*
%TO.C,RV1*%
X150488000Y-100056000D03*
D11*
X151638000Y-96056000D03*
D10*
X152788000Y-100056000D03*
%TD*%
D12*
%TO.C,R8*%
X170561000Y-102533000D03*
X170561000Y-104533000D03*
%TD*%
%TO.C,R7*%
X168529000Y-102533000D03*
X168529000Y-104533000D03*
%TD*%
%TO.C,R6*%
X166497000Y-102533000D03*
X166497000Y-104533000D03*
%TD*%
%TO.C,R5*%
X164465000Y-102533000D03*
X164465000Y-104533000D03*
%TD*%
%TO.C,R4*%
X154051000Y-102533000D03*
X154051000Y-104533000D03*
%TD*%
D13*
%TO.C,R3*%
X149368000Y-102628000D03*
X151368000Y-102628000D03*
%TD*%
%TO.C,R2*%
X152511000Y-91325000D03*
X150511000Y-91325000D03*
%TD*%
D14*
%TO.C,R1*%
X152638000Y-93484000D03*
X150638000Y-93484000D03*
%TD*%
D15*
%TO.C,Q3*%
X162227500Y-103533000D03*
X160352500Y-104483000D03*
X160352500Y-102583000D03*
%TD*%
%TO.C,Q2*%
X158163500Y-103533000D03*
X156288500Y-104483000D03*
X156288500Y-102583000D03*
%TD*%
%TO.C,Q1*%
X151305500Y-105549000D03*
X149430500Y-106499000D03*
X149430500Y-104599000D03*
%TD*%
D16*
%TO.C,D6*%
X152500000Y-130000000D03*
X148500000Y-130000000D03*
%TD*%
D17*
%TO.C,D5*%
X172500000Y-130000000D03*
X176500000Y-130000000D03*
%TD*%
D18*
%TO.C,D4*%
X174117000Y-99421000D03*
X174117000Y-103421000D03*
%TD*%
D19*
%TO.C,D3*%
X177927000Y-103421000D03*
X177927000Y-99421000D03*
%TD*%
%TO.C,D2*%
X174117000Y-95992000D03*
X174117000Y-91992000D03*
%TD*%
D18*
%TO.C,D1*%
X177927000Y-92000000D03*
X177927000Y-96000000D03*
%TD*%
D20*
%TO.C,C3*%
X156750000Y-117500000D03*
X143250000Y-117500000D03*
%TD*%
D21*
%TO.C,C2*%
X167750000Y-117500000D03*
X181250000Y-117500000D03*
%TD*%
D22*
%TO.C,C1*%
X145288000Y-92402000D03*
X145288000Y-97802000D03*
%TD*%
D23*
%TO.C,U1*%
X139656000Y-105168000D03*
X139656000Y-103898000D03*
X139656000Y-102628000D03*
X139656000Y-101358000D03*
X146856000Y-101358000D03*
X146856000Y-102628000D03*
X146856000Y-103898000D03*
X146856000Y-105168000D03*
%TD*%
M02*
