%TF.GenerationSoftware,KiCad,Pcbnew,8.0.2*%
%TF.CreationDate,2024-09-07T15:44:48+02:00*%
%TF.ProjectId,OS-servoDriver,4f532d73-6572-4766-9f44-72697665722e,rev?*%
%TF.SameCoordinates,Original*%
%TF.FileFunction,Copper,L2,Bot*%
%TF.FilePolarity,Positive*%
%FSLAX46Y46*%
G04 Gerber Fmt 4.6, Leading zero omitted, Abs format (unit mm)*
G04 Created by KiCad (PCBNEW 8.0.2) date 2024-09-07 15:44:48*
%MOMM*%
%LPD*%
G01*
G04 APERTURE LIST*
G04 Aperture macros list*
%AMRoundRect*
0 Rectangle with rounded corners*
0 $1 Rounding radius*
0 $2 $3 $4 $5 $6 $7 $8 $9 X,Y pos of 4 corners*
0 Add a 4 corners polygon primitive as box body*
4,1,4,$2,$3,$4,$5,$6,$7,$8,$9,$2,$3,0*
0 Add four circle primitives for the rounded corners*
1,1,$1+$1,$2,$3*
1,1,$1+$1,$4,$5*
1,1,$1+$1,$6,$7*
1,1,$1+$1,$8,$9*
0 Add four rect primitives between the rounded corners*
20,1,$1+$1,$2,$3,$4,$5,0*
20,1,$1+$1,$4,$5,$6,$7,0*
20,1,$1+$1,$6,$7,$8,$9,0*
20,1,$1+$1,$8,$9,$2,$3,0*%
G04 Aperture macros list end*
%TA.AperFunction,ComponentPad*%
%ADD10O,1.800000X3.600000*%
%TD*%
%TA.AperFunction,ComponentPad*%
%ADD11RoundRect,0.250000X0.650000X1.550000X-0.650000X1.550000X-0.650000X-1.550000X0.650000X-1.550000X0*%
%TD*%
%TA.AperFunction,ComponentPad*%
%ADD12O,1.700000X1.700000*%
%TD*%
%TA.AperFunction,ComponentPad*%
%ADD13R,1.700000X1.700000*%
%TD*%
%TA.AperFunction,ViaPad*%
%ADD14C,0.500000*%
%TD*%
%TA.AperFunction,ViaPad*%
%ADD15C,0.800000*%
%TD*%
%TA.AperFunction,Conductor*%
%ADD16C,0.200000*%
%TD*%
%TA.AperFunction,Conductor*%
%ADD17C,0.700000*%
%TD*%
%TA.AperFunction,Conductor*%
%ADD18C,0.500000*%
%TD*%
G04 APERTURE END LIST*
D10*
%TO.P,J101,4,Pin_4*%
%TO.N,/D_bridge/AC_1*%
X114849000Y-110000000D03*
%TO.P,J101,3,Pin_3*%
%TO.N,/D_bridge/AC_2*%
X118349000Y-110000000D03*
%TO.P,J101,2,Pin_2*%
%TO.N,/DCC/DCC_A*%
X121849000Y-110000000D03*
D11*
%TO.P,J101,1,Pin_1*%
%TO.N,/DCC/DCC_B*%
X125349000Y-110000000D03*
%TD*%
D12*
%TO.P,J801,6,Pin_6*%
%TO.N,GND*%
X138000000Y-144000000D03*
%TO.P,J801,5,Pin_5*%
X138000000Y-146540000D03*
%TO.P,J801,4,Pin_4*%
%TO.N,+5VA*%
X135460000Y-144000000D03*
%TO.P,J801,3,Pin_3*%
X135460000Y-146540000D03*
%TO.P,J801,2,Pin_2*%
%TO.N,/atmega/bus2.pin2*%
X132920000Y-144000000D03*
D13*
%TO.P,J801,1,Pin_1*%
%TO.N,/atmega/bus2.pin1*%
X132920000Y-146540000D03*
%TD*%
D12*
%TO.P,J1001,6,Pin_6*%
%TO.N,GND*%
X102945000Y-136040000D03*
%TO.P,J1001,5,Pin_5*%
X102945000Y-133500000D03*
%TO.P,J1001,4,Pin_4*%
%TO.N,+5VA*%
X105485000Y-136040000D03*
%TO.P,J1001,3,Pin_3*%
X105485000Y-133500000D03*
%TO.P,J1001,2,Pin_2*%
%TO.N,/atmega/bus4.pin2*%
X108025000Y-136040000D03*
D13*
%TO.P,J1001,1,Pin_1*%
%TO.N,/atmega/bus4.pin1*%
X108025000Y-133500000D03*
%TD*%
D12*
%TO.P,J701,6,Pin_6*%
%TO.N,GND*%
X138127000Y-133269000D03*
%TO.P,J701,5,Pin_5*%
X138127000Y-135809000D03*
%TO.P,J701,4,Pin_4*%
%TO.N,+5VA*%
X135587000Y-133269000D03*
%TO.P,J701,3,Pin_3*%
X135587000Y-135809000D03*
%TO.P,J701,2,Pin_2*%
%TO.N,/atmega/bus1.pin2*%
X133047000Y-133269000D03*
D13*
%TO.P,J701,1,Pin_1*%
%TO.N,/atmega/bus1.pin1*%
X133047000Y-135809000D03*
%TD*%
D12*
%TO.P,J901,6,Pin_6*%
%TO.N,GND*%
X102945000Y-146540000D03*
%TO.P,J901,5,Pin_5*%
X102945000Y-144000000D03*
%TO.P,J901,4,Pin_4*%
%TO.N,+5VA*%
X105485000Y-146540000D03*
%TO.P,J901,3,Pin_3*%
X105485000Y-144000000D03*
%TO.P,J901,2,Pin_2*%
%TO.N,/atmega/bus3.pin2*%
X108025000Y-146540000D03*
D13*
%TO.P,J901,1,Pin_1*%
%TO.N,/atmega/bus3.pin1*%
X108025000Y-144000000D03*
%TD*%
D12*
%TO.P,J201,6,Pin_6*%
%TO.N,/atmega/reset*%
X140000000Y-123315805D03*
%TO.P,J201,5,Pin_5*%
%TO.N,/atmega/MOSI*%
X140000000Y-120775805D03*
%TO.P,J201,4,Pin_4*%
%TO.N,/atmega/MISO*%
X140000000Y-118235805D03*
%TO.P,J201,3,Pin_3*%
%TO.N,/atmega/LED*%
X140000000Y-115695805D03*
%TO.P,J201,2,Pin_2*%
%TO.N,+5V*%
X140000000Y-113155805D03*
D13*
%TO.P,J201,1,Pin_1*%
%TO.N,GND*%
X140000000Y-110615805D03*
%TD*%
D14*
%TO.N,GND*%
X130683000Y-157353000D03*
X129413000Y-156083000D03*
X127762000Y-157607000D03*
X128143000Y-170434000D03*
X128270000Y-168148000D03*
X121031000Y-168148000D03*
X118491000Y-169545000D03*
X116332000Y-120523000D03*
X116586000Y-119126000D03*
X107188000Y-113919000D03*
X104267000Y-112141000D03*
X116713000Y-104521000D03*
X125857000Y-104902000D03*
X131699000Y-107315000D03*
X119507000Y-115062000D03*
X118491000Y-116078000D03*
X117729000Y-113792000D03*
X113665000Y-163068000D03*
X111379000Y-160909000D03*
X112141000Y-172847000D03*
X110617000Y-171450000D03*
%TO.N,+5V*%
X108035000Y-167767000D03*
X109135000Y-167640000D03*
%TO.N,GND*%
X102919000Y-113765500D03*
D15*
X122285500Y-147493000D03*
D14*
X119556000Y-130062000D03*
X110285000Y-136920000D03*
X116635000Y-175020000D03*
D15*
X126857500Y-142032000D03*
D14*
X122223000Y-115838000D03*
X106475000Y-122401500D03*
X113968000Y-136412000D03*
X103935000Y-117702500D03*
X110158000Y-133745000D03*
X117651000Y-121299000D03*
X129921000Y-152908000D03*
X108126000Y-117956500D03*
X104570000Y-119734500D03*
X120699000Y-138063000D03*
X103935000Y-113638500D03*
X101141000Y-138444000D03*
X119302000Y-117108000D03*
X138987000Y-151398000D03*
X108253000Y-113003500D03*
X112063000Y-117829500D03*
X113206000Y-138063000D03*
X110666000Y-166511000D03*
X137336000Y-111266000D03*
X113333000Y-141111000D03*
X112571000Y-132602000D03*
X120523000Y-127254000D03*
X104570000Y-120623500D03*
X138606000Y-113425000D03*
X123239000Y-124474000D03*
X104062000Y-151144000D03*
X129540000Y-128143000D03*
X138606000Y-154700000D03*
X123698000Y-114173000D03*
X106348000Y-117702500D03*
D15*
X127365500Y-145080000D03*
D14*
X109396000Y-140984000D03*
X101903000Y-149112000D03*
X110285000Y-148096000D03*
X114476000Y-147588000D03*
X133477000Y-150495000D03*
X123874000Y-166638000D03*
X112571000Y-166511000D03*
X104697000Y-122020500D03*
X134542000Y-166638000D03*
X125652000Y-119394000D03*
X121715000Y-138317000D03*
X110031000Y-131967000D03*
X129970000Y-166384000D03*
X101522000Y-142254000D03*
D15*
X126476500Y-135555000D03*
D14*
X127684000Y-126252000D03*
X117475000Y-127762000D03*
X109650000Y-138444000D03*
X136906000Y-155843000D03*
X113587000Y-151144000D03*
X101903000Y-122020500D03*
X135636000Y-157861000D03*
X126541000Y-114187000D03*
X133858000Y-165100000D03*
X114222000Y-132221000D03*
X107618000Y-151144000D03*
X121461000Y-137555000D03*
D15*
X137184000Y-115646000D03*
D14*
X101522000Y-117702500D03*
X101395000Y-113765500D03*
X116508000Y-129935000D03*
D15*
X122412500Y-142032000D03*
D14*
X128651000Y-127508000D03*
D15*
X126857500Y-140000000D03*
D14*
X121080000Y-161304000D03*
D15*
X121396500Y-145461000D03*
D14*
X125144000Y-174385000D03*
X118999000Y-160528000D03*
X102665000Y-117702500D03*
X112063000Y-138444000D03*
X112698000Y-135015000D03*
X139114000Y-167527000D03*
X129921000Y-132969000D03*
X117094000Y-155956000D03*
D15*
X123603695Y-118169000D03*
D14*
X132334000Y-154813000D03*
X124460000Y-123952000D03*
X109220000Y-165227000D03*
X112571000Y-113765500D03*
X126541000Y-117870000D03*
D15*
X122968695Y-122995000D03*
D14*
X114095000Y-143143000D03*
X102411000Y-167273000D03*
D15*
X122412500Y-140000000D03*
D14*
X114300000Y-156718000D03*
X123825000Y-160020000D03*
X122936000Y-132715000D03*
X125476000Y-162179000D03*
X117348000Y-162306000D03*
X109904000Y-143651000D03*
X139622000Y-125871000D03*
X139241000Y-162955000D03*
X114857000Y-133491000D03*
D15*
X125333500Y-134158000D03*
D14*
X125095000Y-130937000D03*
X113079000Y-164860000D03*
X121412000Y-132715000D03*
X138733000Y-159272000D03*
X117489959Y-158869973D03*
D15*
X121571695Y-120074000D03*
D14*
X103173000Y-122020500D03*
D15*
X135787000Y-113487000D03*
D14*
X138352000Y-138063000D03*
D15*
X127619500Y-143810000D03*
D14*
X130937000Y-146685000D03*
X138098000Y-141873000D03*
D15*
X122412500Y-141016000D03*
D14*
X114349000Y-175020000D03*
X130683000Y-165114000D03*
X114554000Y-154051000D03*
X119253000Y-127381000D03*
X131494000Y-160288000D03*
X133018000Y-174639000D03*
X130302000Y-138557000D03*
D15*
X126857500Y-141016000D03*
D14*
X102108000Y-152400000D03*
X116713000Y-116205000D03*
X138352000Y-130824000D03*
%TO.N,+5V*%
X129460000Y-111901000D03*
X127828500Y-113919000D03*
X106635000Y-148350000D03*
X105078000Y-140730000D03*
X133073944Y-128085944D03*
X105205000Y-139206000D03*
X105599378Y-151765622D03*
X133914556Y-128799556D03*
D15*
%TO.N,VCC*%
X118667000Y-136920000D03*
X124063500Y-145207000D03*
X123739450Y-136699550D03*
D14*
%TO.N,+5VA*%
X105586000Y-150763000D03*
X101996378Y-138985622D03*
X103545500Y-142508000D03*
%TO.N,/atmega/LED*%
X111719578Y-130480578D03*
X114500000Y-150500000D03*
X127254000Y-124333000D03*
X135726500Y-118661500D03*
X114000000Y-153000000D03*
X114069906Y-138183727D03*
X112433190Y-131321190D03*
X116705444Y-126865444D03*
X132969000Y-118618000D03*
X114476000Y-140699500D03*
%TO.N,/atmega/reset*%
X123190000Y-127889000D03*
X134772056Y-128879944D03*
X121920000Y-127889000D03*
X132484944Y-128674944D03*
%TO.N,/atmega/sw1*%
X115492000Y-140730000D03*
X114857000Y-151492500D03*
X115400500Y-152922000D03*
X114603000Y-139079000D03*
%TO.N,/atmega/sw2*%
X115619000Y-151144000D03*
X116254000Y-140476000D03*
X115365000Y-138825000D03*
X116560750Y-154457250D03*
%TO.N,/atmega/sw3*%
X116635000Y-151492500D03*
X116635000Y-152891500D03*
X116889000Y-139968000D03*
X116076878Y-138393878D03*
%TO.N,/atmega/sw4*%
X118667000Y-131332000D03*
X117355500Y-139206000D03*
X117270000Y-153430000D03*
X119028290Y-133868992D03*
X117270000Y-150890000D03*
X117016000Y-137428000D03*
%TO.N,/atmega/sw5*%
X118018622Y-138430622D03*
X117905000Y-151492500D03*
X117905000Y-152891500D03*
X117664378Y-136806378D03*
%TO.N,/atmega/MOSI*%
X135726500Y-119761000D03*
X126450500Y-122936000D03*
X133096000Y-119761000D03*
X117729000Y-125595444D03*
%TO.N,/atmega/MISO*%
X117094000Y-126144944D03*
X127000000Y-123571000D03*
X136525000Y-119253000D03*
X133731000Y-119211500D03*
%TO.N,/atmega/bus2.pin1*%
X128192000Y-130649500D03*
X127665694Y-128239306D03*
%TO.N,/atmega/bus2.pin2*%
X129081000Y-130649500D03*
X128498750Y-128295250D03*
%TO.N,/atmega/bus3.pin1*%
X104443000Y-138698000D03*
X108025000Y-142127000D03*
%TO.N,/atmega/bus3.pin2*%
X111047000Y-123204000D03*
X103554000Y-138317000D03*
X114277972Y-123035500D03*
X103554000Y-140603000D03*
%TO.N,/atmega/bus4.pin2*%
X106729000Y-132022000D03*
X107557736Y-128858736D03*
%TO.N,+5V*%
X108544500Y-137555000D03*
X107505500Y-137555000D03*
%TD*%
D16*
%TO.N,+5V*%
X109135000Y-167640000D02*
X108162000Y-167640000D01*
X108162000Y-167640000D02*
X108035000Y-167767000D01*
X129460000Y-112287500D02*
X129460000Y-111901000D01*
X127828500Y-113919000D02*
X129460000Y-112287500D01*
X106635000Y-148350000D02*
X106635000Y-150730000D01*
X133787556Y-128799556D02*
X133073944Y-128085944D01*
X106635000Y-150730000D02*
X105599378Y-151765622D01*
X105078000Y-140730000D02*
X105078000Y-139333000D01*
X105078000Y-139333000D02*
X105205000Y-139206000D01*
X133914556Y-128799556D02*
X133787556Y-128799556D01*
D17*
%TO.N,VCC*%
X124063500Y-137023600D02*
X123739450Y-136699550D01*
X124063500Y-145207000D02*
X124063500Y-137023600D01*
D18*
X118887450Y-136699550D02*
X118667000Y-136920000D01*
X123739450Y-136699550D02*
X118887450Y-136699550D01*
%TO.N,+5VA*%
X105485000Y-150662000D02*
X105586000Y-150763000D01*
X105485000Y-146540000D02*
X105485000Y-150662000D01*
X101996378Y-138884672D02*
X101996378Y-138985622D01*
X105485000Y-136040000D02*
X104841050Y-136040000D01*
X104841050Y-136040000D02*
X101996378Y-138884672D01*
X105037500Y-144000000D02*
X103545500Y-142508000D01*
D16*
%TO.N,/atmega/LED*%
X114137000Y-152863000D02*
X114137000Y-150863000D01*
X118491000Y-126395444D02*
X124757060Y-126395444D01*
X116705444Y-126865444D02*
X116875944Y-126694944D01*
X116875944Y-126694944D02*
X118191500Y-126694944D01*
X135726500Y-118661500D02*
X133012500Y-118661500D01*
X114476000Y-140699500D02*
X114053000Y-140276500D01*
X112433190Y-131321190D02*
X112433190Y-131194190D01*
X124757060Y-126395444D02*
X126819504Y-124333000D01*
X114137000Y-150863000D02*
X114500000Y-150500000D01*
X114000000Y-153000000D02*
X114137000Y-152863000D01*
X133012500Y-118661500D02*
X132969000Y-118618000D01*
X118191500Y-126694944D02*
X118491000Y-126395444D01*
X112433190Y-131194190D02*
X111719578Y-130480578D01*
X126819504Y-124333000D02*
X127254000Y-124333000D01*
X114053000Y-138200633D02*
X114069906Y-138183727D01*
X114053000Y-140276500D02*
X114053000Y-138200633D01*
%TO.N,/atmega/reset*%
X121920000Y-127889000D02*
X123190000Y-127889000D01*
X133159556Y-129349556D02*
X134302444Y-129349556D01*
X134302444Y-129349556D02*
X134772056Y-128879944D01*
X132484944Y-128674944D02*
X133159556Y-129349556D01*
%TO.N,/atmega/sw1*%
X114857000Y-151492500D02*
X115069000Y-151704500D01*
X115069000Y-151704500D02*
X115069000Y-152590500D01*
X114603000Y-139841000D02*
X115492000Y-140730000D01*
X115069000Y-152590500D02*
X115400500Y-152922000D01*
X114603000Y-139079000D02*
X114603000Y-139841000D01*
%TO.N,/atmega/sw2*%
X116254000Y-140349000D02*
X115365000Y-139460000D01*
X115365000Y-139460000D02*
X115365000Y-138825000D01*
X115950000Y-153846500D02*
X115950000Y-151475000D01*
X115950000Y-151475000D02*
X115619000Y-151144000D01*
X116560750Y-154457250D02*
X115950000Y-153846500D01*
%TO.N,/atmega/sw3*%
X116635000Y-152891500D02*
X116635000Y-151492500D01*
X116889000Y-139968000D02*
X116076878Y-139155878D01*
X116076878Y-139155878D02*
X116076878Y-138393878D01*
%TO.N,/atmega/sw4*%
X119429000Y-132094000D02*
X119429000Y-133468282D01*
X117016000Y-138866500D02*
X117355500Y-139206000D01*
X117016000Y-137428000D02*
X117016000Y-138866500D01*
X118667000Y-131332000D02*
X119429000Y-132094000D01*
X117270000Y-150890000D02*
X117270000Y-153430000D01*
X119429000Y-133468282D02*
X119028290Y-133868992D01*
%TO.N,/atmega/sw5*%
X117905000Y-152891500D02*
X117905000Y-151492500D01*
X117664378Y-138076378D02*
X117664378Y-136806378D01*
X118018622Y-138430622D02*
X117664378Y-138076378D01*
%TO.N,/atmega/MOSI*%
X124425688Y-125595444D02*
X117729000Y-125595444D01*
X126450500Y-122936000D02*
X126450500Y-123570632D01*
X126450500Y-123570632D02*
X124425688Y-125595444D01*
X133096000Y-119761000D02*
X135726500Y-119761000D01*
%TO.N,/atmega/MISO*%
X124591374Y-125995444D02*
X127000000Y-123586818D01*
X136483000Y-119211000D02*
X136525000Y-119253000D01*
X127000000Y-123586818D02*
X127000000Y-123571000D01*
X117957318Y-126144944D02*
X118106818Y-125995444D01*
X133731000Y-119211500D02*
X133731500Y-119211000D01*
X133731500Y-119211000D02*
X136483000Y-119211000D01*
X117094000Y-126144944D02*
X117957318Y-126144944D01*
X118106818Y-125995444D02*
X124591374Y-125995444D01*
%TO.N,/atmega/bus2.pin1*%
X127665694Y-130123194D02*
X128192000Y-130649500D01*
X127665694Y-128239306D02*
X127665694Y-130123194D01*
%TO.N,/atmega/bus2.pin2*%
X129081000Y-128877500D02*
X129081000Y-130649500D01*
X128498750Y-128295250D02*
X129081000Y-128877500D01*
%TO.N,/atmega/bus3.pin1*%
X105697182Y-142127000D02*
X104443000Y-140872818D01*
X104443000Y-140872818D02*
X104443000Y-138698000D01*
X108025000Y-142127000D02*
X105697182Y-142127000D01*
%TO.N,/atmega/bus3.pin2*%
X114277972Y-123035500D02*
X111215500Y-123035500D01*
X111215500Y-123035500D02*
X111047000Y-123204000D01*
X103554000Y-138317000D02*
X103554000Y-140603000D01*
%TO.N,/atmega/bus4.pin2*%
X107364000Y-131387000D02*
X106729000Y-132022000D01*
X107557736Y-128858736D02*
X107364000Y-129052472D01*
X107364000Y-129052472D02*
X107364000Y-131387000D01*
%TO.N,+5V*%
X107505500Y-137555000D02*
X108544500Y-137555000D01*
%TD*%
%TA.AperFunction,Conductor*%
%TO.N,GND*%
G36*
X103195000Y-146106988D02*
G01*
X103137993Y-146074075D01*
X103010826Y-146040000D01*
X102879174Y-146040000D01*
X102752007Y-146074075D01*
X102695000Y-146106988D01*
X102695000Y-144433012D01*
X102752007Y-144465925D01*
X102879174Y-144500000D01*
X103010826Y-144500000D01*
X103137993Y-144465925D01*
X103195000Y-144433012D01*
X103195000Y-146106988D01*
G37*
%TD.AperFunction*%
%TA.AperFunction,Conductor*%
G36*
X138250000Y-146106988D02*
G01*
X138192993Y-146074075D01*
X138065826Y-146040000D01*
X137934174Y-146040000D01*
X137807007Y-146074075D01*
X137750000Y-146106988D01*
X137750000Y-144433012D01*
X137807007Y-144465925D01*
X137934174Y-144500000D01*
X138065826Y-144500000D01*
X138192993Y-144465925D01*
X138250000Y-144433012D01*
X138250000Y-146106988D01*
G37*
%TD.AperFunction*%
%TA.AperFunction,Conductor*%
G36*
X103195000Y-135606988D02*
G01*
X103137993Y-135574075D01*
X103010826Y-135540000D01*
X102879174Y-135540000D01*
X102752007Y-135574075D01*
X102695000Y-135606988D01*
X102695000Y-133933012D01*
X102752007Y-133965925D01*
X102879174Y-134000000D01*
X103010826Y-134000000D01*
X103137993Y-133965925D01*
X103195000Y-133933012D01*
X103195000Y-135606988D01*
G37*
%TD.AperFunction*%
%TA.AperFunction,Conductor*%
G36*
X138377000Y-135375988D02*
G01*
X138319993Y-135343075D01*
X138192826Y-135309000D01*
X138061174Y-135309000D01*
X137934007Y-135343075D01*
X137877000Y-135375988D01*
X137877000Y-133702012D01*
X137934007Y-133734925D01*
X138061174Y-133769000D01*
X138192826Y-133769000D01*
X138319993Y-133734925D01*
X138377000Y-133702012D01*
X138377000Y-135375988D01*
G37*
%TD.AperFunction*%
%TA.AperFunction,Conductor*%
G36*
X141142539Y-101820185D02*
G01*
X141188294Y-101872989D01*
X141199500Y-101924500D01*
X141199500Y-109183920D01*
X141179815Y-109250959D01*
X141127011Y-109296714D01*
X141057853Y-109306658D01*
X141032167Y-109300102D01*
X140957379Y-109272208D01*
X140957372Y-109272206D01*
X140897844Y-109265805D01*
X140250000Y-109265805D01*
X140250000Y-110182793D01*
X140192993Y-110149880D01*
X140065826Y-110115805D01*
X139934174Y-110115805D01*
X139807007Y-110149880D01*
X139750000Y-110182793D01*
X139750000Y-109265805D01*
X139102155Y-109265805D01*
X139042627Y-109272206D01*
X139042620Y-109272208D01*
X138907913Y-109322450D01*
X138907906Y-109322454D01*
X138792812Y-109408614D01*
X138792809Y-109408617D01*
X138706649Y-109523711D01*
X138706645Y-109523718D01*
X138656403Y-109658425D01*
X138656401Y-109658432D01*
X138650000Y-109717960D01*
X138650000Y-110365805D01*
X139566988Y-110365805D01*
X139534075Y-110422812D01*
X139500000Y-110549979D01*
X139500000Y-110681631D01*
X139534075Y-110808798D01*
X139566988Y-110865805D01*
X138650000Y-110865805D01*
X138650000Y-111513649D01*
X138656401Y-111573177D01*
X138656403Y-111573184D01*
X138706645Y-111707891D01*
X138706649Y-111707898D01*
X138792809Y-111822992D01*
X138792812Y-111822995D01*
X138907906Y-111909155D01*
X138907913Y-111909159D01*
X139042620Y-111959401D01*
X139042627Y-111959403D01*
X139102155Y-111965804D01*
X139102172Y-111965805D01*
X139395612Y-111965805D01*
X139462651Y-111985490D01*
X139508406Y-112038294D01*
X139518350Y-112107452D01*
X139489325Y-112171008D01*
X139460889Y-112195232D01*
X139333960Y-112273822D01*
X139333958Y-112273824D01*
X139183237Y-112411223D01*
X139060327Y-112573983D01*
X138969422Y-112756544D01*
X138969417Y-112756557D01*
X138913602Y-112952722D01*
X138894785Y-113155804D01*
X138894785Y-113155805D01*
X138913602Y-113358887D01*
X138969417Y-113555052D01*
X138969422Y-113555065D01*
X139060327Y-113737626D01*
X139183237Y-113900386D01*
X139333958Y-114037785D01*
X139333960Y-114037787D01*
X139372187Y-114061456D01*
X139507363Y-114145153D01*
X139697544Y-114218829D01*
X139898024Y-114256305D01*
X139898026Y-114256305D01*
X140101974Y-114256305D01*
X140101976Y-114256305D01*
X140302456Y-114218829D01*
X140492637Y-114145153D01*
X140666041Y-114037786D01*
X140816764Y-113900384D01*
X140939673Y-113737626D01*
X140964500Y-113687767D01*
X141012002Y-113636530D01*
X141079665Y-113619108D01*
X141146006Y-113641033D01*
X141189961Y-113695344D01*
X141199500Y-113743038D01*
X141199500Y-115108571D01*
X141179815Y-115175610D01*
X141127011Y-115221365D01*
X141057853Y-115231309D01*
X140994297Y-115202284D01*
X140964500Y-115163843D01*
X140954839Y-115144441D01*
X140939673Y-115113984D01*
X140816764Y-114951226D01*
X140816762Y-114951223D01*
X140666041Y-114813824D01*
X140666039Y-114813822D01*
X140492642Y-114706460D01*
X140492635Y-114706456D01*
X140397546Y-114669619D01*
X140302456Y-114632781D01*
X140101976Y-114595305D01*
X139898024Y-114595305D01*
X139697544Y-114632781D01*
X139697541Y-114632781D01*
X139697541Y-114632782D01*
X139507364Y-114706456D01*
X139507357Y-114706460D01*
X139333960Y-114813822D01*
X139333958Y-114813824D01*
X139183237Y-114951223D01*
X139060327Y-115113983D01*
X138969422Y-115296544D01*
X138969417Y-115296557D01*
X138913602Y-115492722D01*
X138894785Y-115695804D01*
X138894785Y-115695805D01*
X138913602Y-115898887D01*
X138969417Y-116095052D01*
X138969422Y-116095065D01*
X139060327Y-116277626D01*
X139183237Y-116440386D01*
X139333958Y-116577785D01*
X139333960Y-116577787D01*
X139433141Y-116639197D01*
X139507363Y-116685153D01*
X139697544Y-116758829D01*
X139898024Y-116796305D01*
X139898026Y-116796305D01*
X140101974Y-116796305D01*
X140101976Y-116796305D01*
X140302456Y-116758829D01*
X140492637Y-116685153D01*
X140666041Y-116577786D01*
X140816764Y-116440384D01*
X140939673Y-116277626D01*
X140964500Y-116227767D01*
X141012002Y-116176530D01*
X141079665Y-116159108D01*
X141146006Y-116181033D01*
X141189961Y-116235344D01*
X141199500Y-116283038D01*
X141199500Y-117648571D01*
X141179815Y-117715610D01*
X141127011Y-117761365D01*
X141057853Y-117771309D01*
X140994297Y-117742284D01*
X140964500Y-117703843D01*
X140954839Y-117684441D01*
X140939673Y-117653984D01*
X140816764Y-117491226D01*
X140816762Y-117491223D01*
X140666041Y-117353824D01*
X140666039Y-117353822D01*
X140492642Y-117246460D01*
X140492635Y-117246456D01*
X140397546Y-117209619D01*
X140302456Y-117172781D01*
X140101976Y-117135305D01*
X139898024Y-117135305D01*
X139697544Y-117172781D01*
X139697541Y-117172781D01*
X139697541Y-117172782D01*
X139507364Y-117246456D01*
X139507357Y-117246460D01*
X139333960Y-117353822D01*
X139333958Y-117353824D01*
X139183237Y-117491223D01*
X139060327Y-117653983D01*
X138969422Y-117836544D01*
X138969417Y-117836557D01*
X138913602Y-118032722D01*
X138894785Y-118235804D01*
X138894785Y-118235805D01*
X138913602Y-118438887D01*
X138969417Y-118635052D01*
X138969422Y-118635065D01*
X139060327Y-118817626D01*
X139183237Y-118980386D01*
X139333958Y-119117785D01*
X139333960Y-119117787D01*
X139335112Y-119118500D01*
X139507363Y-119225153D01*
X139697544Y-119298829D01*
X139898024Y-119336305D01*
X139898026Y-119336305D01*
X140101974Y-119336305D01*
X140101976Y-119336305D01*
X140302456Y-119298829D01*
X140492637Y-119225153D01*
X140666041Y-119117786D01*
X140816764Y-118980384D01*
X140939673Y-118817626D01*
X140963025Y-118770729D01*
X140964500Y-118767767D01*
X141012002Y-118716530D01*
X141079665Y-118699108D01*
X141146006Y-118721033D01*
X141189961Y-118775344D01*
X141199500Y-118823038D01*
X141199500Y-120188571D01*
X141179815Y-120255610D01*
X141127011Y-120301365D01*
X141057853Y-120311309D01*
X140994297Y-120282284D01*
X140964500Y-120243843D01*
X140953102Y-120220953D01*
X140939673Y-120193984D01*
X140816764Y-120031226D01*
X140816762Y-120031223D01*
X140666041Y-119893824D01*
X140666039Y-119893822D01*
X140492642Y-119786460D01*
X140492635Y-119786456D01*
X140351777Y-119731888D01*
X140302456Y-119712781D01*
X140101976Y-119675305D01*
X139898024Y-119675305D01*
X139697544Y-119712781D01*
X139697541Y-119712781D01*
X139697541Y-119712782D01*
X139507364Y-119786456D01*
X139507357Y-119786460D01*
X139333960Y-119893822D01*
X139333958Y-119893824D01*
X139183237Y-120031223D01*
X139060327Y-120193983D01*
X138969422Y-120376544D01*
X138969417Y-120376557D01*
X138913602Y-120572722D01*
X138894785Y-120775804D01*
X138894785Y-120775805D01*
X138913602Y-120978887D01*
X138969417Y-121175052D01*
X138969422Y-121175065D01*
X139060327Y-121357626D01*
X139183237Y-121520386D01*
X139333958Y-121657785D01*
X139333960Y-121657787D01*
X139433141Y-121719197D01*
X139507363Y-121765153D01*
X139697544Y-121838829D01*
X139898024Y-121876305D01*
X139898026Y-121876305D01*
X140101974Y-121876305D01*
X140101976Y-121876305D01*
X140302456Y-121838829D01*
X140492637Y-121765153D01*
X140666041Y-121657786D01*
X140816764Y-121520384D01*
X140939673Y-121357626D01*
X140964500Y-121307767D01*
X141012002Y-121256530D01*
X141079665Y-121239108D01*
X141146006Y-121261033D01*
X141189961Y-121315344D01*
X141199500Y-121363038D01*
X141199500Y-122728571D01*
X141179815Y-122795610D01*
X141127011Y-122841365D01*
X141057853Y-122851309D01*
X140994297Y-122822284D01*
X140964500Y-122783843D01*
X140953686Y-122762126D01*
X140939673Y-122733984D01*
X140816764Y-122571226D01*
X140816762Y-122571223D01*
X140666041Y-122433824D01*
X140666039Y-122433822D01*
X140492642Y-122326460D01*
X140492635Y-122326456D01*
X140397546Y-122289619D01*
X140302456Y-122252781D01*
X140101976Y-122215305D01*
X139898024Y-122215305D01*
X139697544Y-122252781D01*
X139697541Y-122252781D01*
X139697541Y-122252782D01*
X139507364Y-122326456D01*
X139507357Y-122326460D01*
X139333960Y-122433822D01*
X139333958Y-122433824D01*
X139183237Y-122571223D01*
X139060327Y-122733983D01*
X138969422Y-122916544D01*
X138969417Y-122916557D01*
X138913602Y-123112722D01*
X138894785Y-123315804D01*
X138894785Y-123315805D01*
X138913602Y-123518887D01*
X138969417Y-123715052D01*
X138969422Y-123715065D01*
X139060327Y-123897626D01*
X139183237Y-124060386D01*
X139333958Y-124197785D01*
X139333960Y-124197787D01*
X139433141Y-124259197D01*
X139507363Y-124305153D01*
X139697544Y-124378829D01*
X139898024Y-124416305D01*
X139898026Y-124416305D01*
X140101974Y-124416305D01*
X140101976Y-124416305D01*
X140302456Y-124378829D01*
X140492637Y-124305153D01*
X140666041Y-124197786D01*
X140816764Y-124060384D01*
X140939673Y-123897626D01*
X140964500Y-123847767D01*
X141012002Y-123796530D01*
X141079665Y-123779108D01*
X141146006Y-123801033D01*
X141189961Y-123855344D01*
X141199500Y-123903038D01*
X141199500Y-175575500D01*
X141179815Y-175642539D01*
X141127011Y-175688294D01*
X141075500Y-175699500D01*
X100924500Y-175699500D01*
X100857461Y-175679815D01*
X100811706Y-175627011D01*
X100800500Y-175575500D01*
X100800500Y-172378711D01*
X102149500Y-172378711D01*
X102149500Y-172621288D01*
X102181161Y-172861785D01*
X102243947Y-173096104D01*
X102336773Y-173320205D01*
X102336776Y-173320212D01*
X102458064Y-173530289D01*
X102458066Y-173530292D01*
X102458067Y-173530293D01*
X102605733Y-173722736D01*
X102605739Y-173722743D01*
X102777256Y-173894260D01*
X102777262Y-173894265D01*
X102969711Y-174041936D01*
X103179788Y-174163224D01*
X103403900Y-174256054D01*
X103638211Y-174318838D01*
X103818586Y-174342584D01*
X103878711Y-174350500D01*
X103878712Y-174350500D01*
X104121289Y-174350500D01*
X104169388Y-174344167D01*
X104361789Y-174318838D01*
X104596100Y-174256054D01*
X104820212Y-174163224D01*
X105030289Y-174041936D01*
X105222738Y-173894265D01*
X105394265Y-173722738D01*
X105541936Y-173530289D01*
X105663224Y-173320212D01*
X105756054Y-173096100D01*
X105818838Y-172861789D01*
X105850500Y-172621288D01*
X105850500Y-172378712D01*
X105850500Y-172378711D01*
X136149500Y-172378711D01*
X136149500Y-172621288D01*
X136181161Y-172861785D01*
X136243947Y-173096104D01*
X136336773Y-173320205D01*
X136336776Y-173320212D01*
X136458064Y-173530289D01*
X136458066Y-173530292D01*
X136458067Y-173530293D01*
X136605733Y-173722736D01*
X136605739Y-173722743D01*
X136777256Y-173894260D01*
X136777262Y-173894265D01*
X136969711Y-174041936D01*
X137179788Y-174163224D01*
X137403900Y-174256054D01*
X137638211Y-174318838D01*
X137818586Y-174342584D01*
X137878711Y-174350500D01*
X137878712Y-174350500D01*
X138121289Y-174350500D01*
X138169388Y-174344167D01*
X138361789Y-174318838D01*
X138596100Y-174256054D01*
X138820212Y-174163224D01*
X139030289Y-174041936D01*
X139222738Y-173894265D01*
X139394265Y-173722738D01*
X139541936Y-173530289D01*
X139663224Y-173320212D01*
X139756054Y-173096100D01*
X139818838Y-172861789D01*
X139850500Y-172621288D01*
X139850500Y-172378712D01*
X139818838Y-172138211D01*
X139756054Y-171903900D01*
X139663224Y-171679788D01*
X139541936Y-171469711D01*
X139394265Y-171277262D01*
X139394260Y-171277256D01*
X139222743Y-171105739D01*
X139222736Y-171105733D01*
X139030293Y-170958067D01*
X139030292Y-170958066D01*
X139030289Y-170958064D01*
X138820212Y-170836776D01*
X138820205Y-170836773D01*
X138596104Y-170743947D01*
X138361785Y-170681161D01*
X138121289Y-170649500D01*
X138121288Y-170649500D01*
X137878712Y-170649500D01*
X137878711Y-170649500D01*
X137638214Y-170681161D01*
X137403895Y-170743947D01*
X137179794Y-170836773D01*
X137179785Y-170836777D01*
X136969706Y-170958067D01*
X136777263Y-171105733D01*
X136777256Y-171105739D01*
X136605739Y-171277256D01*
X136605733Y-171277263D01*
X136458067Y-171469706D01*
X136336777Y-171679785D01*
X136336773Y-171679794D01*
X136243947Y-171903895D01*
X136181161Y-172138214D01*
X136149500Y-172378711D01*
X105850500Y-172378711D01*
X105818838Y-172138211D01*
X105756054Y-171903900D01*
X105663224Y-171679788D01*
X105541936Y-171469711D01*
X105394265Y-171277262D01*
X105394260Y-171277256D01*
X105222743Y-171105739D01*
X105222736Y-171105733D01*
X105030293Y-170958067D01*
X105030292Y-170958066D01*
X105030289Y-170958064D01*
X104820212Y-170836776D01*
X104820205Y-170836773D01*
X104596104Y-170743947D01*
X104361785Y-170681161D01*
X104121289Y-170649500D01*
X104121288Y-170649500D01*
X103878712Y-170649500D01*
X103878711Y-170649500D01*
X103638214Y-170681161D01*
X103403895Y-170743947D01*
X103179794Y-170836773D01*
X103179785Y-170836777D01*
X102969706Y-170958067D01*
X102777263Y-171105733D01*
X102777256Y-171105739D01*
X102605739Y-171277256D01*
X102605733Y-171277263D01*
X102458067Y-171469706D01*
X102336777Y-171679785D01*
X102336773Y-171679794D01*
X102243947Y-171903895D01*
X102181161Y-172138214D01*
X102149500Y-172378711D01*
X100800500Y-172378711D01*
X100800500Y-167767000D01*
X107529353Y-167767000D01*
X107549834Y-167909456D01*
X107601298Y-168022145D01*
X107609623Y-168040373D01*
X107703872Y-168149143D01*
X107824947Y-168226953D01*
X107824950Y-168226954D01*
X107824949Y-168226954D01*
X107963036Y-168267499D01*
X107963038Y-168267500D01*
X107963039Y-168267500D01*
X108106962Y-168267500D01*
X108106962Y-168267499D01*
X108245053Y-168226953D01*
X108366128Y-168149143D01*
X108460377Y-168040373D01*
X108460378Y-168040371D01*
X108466185Y-168033670D01*
X108468954Y-168036069D01*
X108508688Y-168001678D01*
X108560138Y-167990500D01*
X108721105Y-167990500D01*
X108788144Y-168010185D01*
X108802312Y-168020790D01*
X108803866Y-168022137D01*
X108803872Y-168022143D01*
X108924947Y-168099953D01*
X108924950Y-168099954D01*
X108924949Y-168099954D01*
X109063036Y-168140499D01*
X109063038Y-168140500D01*
X109063039Y-168140500D01*
X109206962Y-168140500D01*
X109206962Y-168140499D01*
X109345053Y-168099953D01*
X109466128Y-168022143D01*
X109560377Y-167913373D01*
X109620165Y-167782457D01*
X109640647Y-167640000D01*
X109620165Y-167497543D01*
X109560377Y-167366627D01*
X109466128Y-167257857D01*
X109345053Y-167180047D01*
X109345051Y-167180046D01*
X109345049Y-167180045D01*
X109345050Y-167180045D01*
X109206963Y-167139500D01*
X109206961Y-167139500D01*
X109063039Y-167139500D01*
X109063036Y-167139500D01*
X108924949Y-167180045D01*
X108803876Y-167257854D01*
X108803874Y-167257855D01*
X108803872Y-167257857D01*
X108803870Y-167257858D01*
X108802312Y-167259210D01*
X108800427Y-167260070D01*
X108796411Y-167262652D01*
X108796039Y-167262074D01*
X108738757Y-167288237D01*
X108721105Y-167289500D01*
X108203120Y-167289500D01*
X108168186Y-167284477D01*
X108138002Y-167275614D01*
X108106962Y-167266500D01*
X108106961Y-167266500D01*
X107963039Y-167266500D01*
X107963036Y-167266500D01*
X107824949Y-167307045D01*
X107703873Y-167384856D01*
X107609623Y-167493626D01*
X107609622Y-167493628D01*
X107549834Y-167624543D01*
X107529353Y-167767000D01*
X100800500Y-167767000D01*
X100800500Y-153000000D01*
X113494353Y-153000000D01*
X113514834Y-153142456D01*
X113525071Y-153164871D01*
X113574623Y-153273373D01*
X113668872Y-153382143D01*
X113789947Y-153459953D01*
X113789950Y-153459954D01*
X113789949Y-153459954D01*
X113860115Y-153480556D01*
X113920730Y-153498354D01*
X113928036Y-153500499D01*
X113928038Y-153500500D01*
X113928039Y-153500500D01*
X114071962Y-153500500D01*
X114071962Y-153500499D01*
X114210053Y-153459953D01*
X114331128Y-153382143D01*
X114425377Y-153273373D01*
X114485165Y-153142457D01*
X114505647Y-153000000D01*
X114488762Y-152882560D01*
X114487500Y-152864913D01*
X114487500Y-152716414D01*
X114507185Y-152649375D01*
X114559989Y-152603620D01*
X114629147Y-152593676D01*
X114692703Y-152622701D01*
X114730477Y-152681479D01*
X114731275Y-152684322D01*
X114737294Y-152706786D01*
X114742385Y-152725785D01*
X114742387Y-152725790D01*
X114788527Y-152805708D01*
X114788531Y-152805713D01*
X114863995Y-152881177D01*
X114897480Y-152942500D01*
X114899052Y-152951210D01*
X114915334Y-153064456D01*
X114950956Y-153142456D01*
X114975123Y-153195373D01*
X115069372Y-153304143D01*
X115190447Y-153381953D01*
X115190450Y-153381954D01*
X115190449Y-153381954D01*
X115328536Y-153422499D01*
X115328538Y-153422500D01*
X115475500Y-153422500D01*
X115542539Y-153442185D01*
X115588294Y-153494989D01*
X115599500Y-153546500D01*
X115599500Y-153892645D01*
X115616676Y-153956748D01*
X115623385Y-153981785D01*
X115623387Y-153981790D01*
X115669527Y-154061708D01*
X115669531Y-154061713D01*
X116024245Y-154416427D01*
X116057730Y-154477750D01*
X116059302Y-154486460D01*
X116075584Y-154599706D01*
X116135372Y-154730621D01*
X116135373Y-154730623D01*
X116229622Y-154839393D01*
X116350697Y-154917203D01*
X116350700Y-154917204D01*
X116350699Y-154917204D01*
X116488786Y-154957749D01*
X116488788Y-154957750D01*
X116488789Y-154957750D01*
X116632712Y-154957750D01*
X116632712Y-154957749D01*
X116770803Y-154917203D01*
X116891878Y-154839393D01*
X116986127Y-154730623D01*
X117045915Y-154599707D01*
X117066397Y-154457250D01*
X117045915Y-154314793D01*
X116986127Y-154183877D01*
X116891878Y-154075107D01*
X116891876Y-154075105D01*
X116886070Y-154068405D01*
X116887200Y-154067425D01*
X116860617Y-154026053D01*
X116805559Y-154018134D01*
X116790037Y-154009658D01*
X116770801Y-153997295D01*
X116632713Y-153956750D01*
X116632711Y-153956750D01*
X116607294Y-153956750D01*
X116540255Y-153937065D01*
X116519613Y-153920431D01*
X116336819Y-153737637D01*
X116303334Y-153676314D01*
X116300500Y-153649956D01*
X116300500Y-153480556D01*
X116320185Y-153413517D01*
X116372989Y-153367762D01*
X116442147Y-153357818D01*
X116459428Y-153361577D01*
X116497411Y-153372730D01*
X116563038Y-153392000D01*
X116651443Y-153392000D01*
X116718482Y-153411685D01*
X116764237Y-153464489D01*
X116774180Y-153498352D01*
X116776849Y-153516916D01*
X116784834Y-153572456D01*
X116844622Y-153703371D01*
X116844623Y-153703373D01*
X116938872Y-153812143D01*
X116938873Y-153812143D01*
X116944680Y-153818845D01*
X116943548Y-153819825D01*
X116970131Y-153861194D01*
X117025192Y-153869115D01*
X117040701Y-153877584D01*
X117059947Y-153889953D01*
X117163747Y-153920431D01*
X117198036Y-153930499D01*
X117198038Y-153930500D01*
X117198039Y-153930500D01*
X117341962Y-153930500D01*
X117341962Y-153930499D01*
X117480053Y-153889953D01*
X117601128Y-153812143D01*
X117695377Y-153703373D01*
X117755165Y-153572457D01*
X117765819Y-153498353D01*
X117794843Y-153434798D01*
X117853621Y-153397023D01*
X117888557Y-153392000D01*
X117976962Y-153392000D01*
X117976962Y-153391999D01*
X118115053Y-153351453D01*
X118236128Y-153273643D01*
X118330377Y-153164873D01*
X118390165Y-153033957D01*
X118410647Y-152891500D01*
X118390165Y-152749043D01*
X118330377Y-152618127D01*
X118330374Y-152618123D01*
X118285786Y-152566664D01*
X118256762Y-152503108D01*
X118255500Y-152485463D01*
X118255500Y-151898535D01*
X118275185Y-151831496D01*
X118285782Y-151817337D01*
X118330377Y-151765873D01*
X118390165Y-151634957D01*
X118410647Y-151492500D01*
X118390165Y-151350043D01*
X118330377Y-151219127D01*
X118236128Y-151110357D01*
X118115053Y-151032547D01*
X118115051Y-151032546D01*
X118115049Y-151032545D01*
X118115050Y-151032545D01*
X117976963Y-150992000D01*
X117976961Y-150992000D01*
X117897759Y-150992000D01*
X117830720Y-150972315D01*
X117784965Y-150919511D01*
X117775021Y-150885647D01*
X117772861Y-150870627D01*
X117755165Y-150747543D01*
X117695377Y-150616627D01*
X117601128Y-150507857D01*
X117480053Y-150430047D01*
X117480051Y-150430046D01*
X117480049Y-150430045D01*
X117480050Y-150430045D01*
X117341963Y-150389500D01*
X117341961Y-150389500D01*
X117198039Y-150389500D01*
X117198036Y-150389500D01*
X117059949Y-150430045D01*
X116938873Y-150507856D01*
X116844623Y-150616626D01*
X116844622Y-150616628D01*
X116784834Y-150747543D01*
X116764979Y-150885647D01*
X116735954Y-150949202D01*
X116677176Y-150986977D01*
X116642241Y-150992000D01*
X116563036Y-150992000D01*
X116424949Y-151032545D01*
X116297696Y-151114325D01*
X116230656Y-151134009D01*
X116163617Y-151114324D01*
X116117862Y-151061520D01*
X116107919Y-151027654D01*
X116105119Y-151008182D01*
X116104165Y-151001543D01*
X116044377Y-150870627D01*
X115950128Y-150761857D01*
X115829053Y-150684047D01*
X115829051Y-150684046D01*
X115829049Y-150684045D01*
X115829050Y-150684045D01*
X115690963Y-150643500D01*
X115690961Y-150643500D01*
X115547039Y-150643500D01*
X115547036Y-150643500D01*
X115408949Y-150684045D01*
X115287873Y-150761856D01*
X115193623Y-150870626D01*
X115158088Y-150948436D01*
X115112332Y-151001239D01*
X115045293Y-151020923D01*
X115010359Y-151015900D01*
X114960218Y-151001177D01*
X114901440Y-150963402D01*
X114872415Y-150899846D01*
X114882359Y-150830688D01*
X114901441Y-150800997D01*
X114925374Y-150773377D01*
X114925374Y-150773375D01*
X114925377Y-150773373D01*
X114985165Y-150642457D01*
X115005647Y-150500000D01*
X114985165Y-150357543D01*
X114925377Y-150226627D01*
X114831128Y-150117857D01*
X114710053Y-150040047D01*
X114710051Y-150040046D01*
X114710049Y-150040045D01*
X114710050Y-150040045D01*
X114571963Y-149999500D01*
X114571961Y-149999500D01*
X114428039Y-149999500D01*
X114428036Y-149999500D01*
X114289949Y-150040045D01*
X114168873Y-150117856D01*
X114074623Y-150226626D01*
X114074622Y-150226628D01*
X114014834Y-150357543D01*
X113998553Y-150470786D01*
X113969528Y-150534342D01*
X113963497Y-150540819D01*
X113856531Y-150647786D01*
X113856527Y-150647791D01*
X113817603Y-150715211D01*
X113817603Y-150715212D01*
X113810386Y-150727710D01*
X113786500Y-150816856D01*
X113786500Y-152474552D01*
X113766815Y-152541591D01*
X113729540Y-152578867D01*
X113668874Y-152617855D01*
X113574623Y-152726626D01*
X113574622Y-152726628D01*
X113514834Y-152857543D01*
X113494353Y-153000000D01*
X100800500Y-153000000D01*
X100800500Y-143749999D01*
X101614364Y-143749999D01*
X101614364Y-143750000D01*
X102511988Y-143750000D01*
X102479075Y-143807007D01*
X102445000Y-143934174D01*
X102445000Y-144065826D01*
X102479075Y-144192993D01*
X102511988Y-144250000D01*
X101614364Y-144250000D01*
X101671567Y-144463486D01*
X101671570Y-144463492D01*
X101771399Y-144677578D01*
X101906894Y-144871082D01*
X102073917Y-145038105D01*
X102260031Y-145168425D01*
X102303656Y-145223003D01*
X102310848Y-145292501D01*
X102279326Y-145354856D01*
X102260031Y-145371575D01*
X102073922Y-145501890D01*
X102073920Y-145501891D01*
X101906891Y-145668920D01*
X101906886Y-145668926D01*
X101771400Y-145862420D01*
X101771399Y-145862422D01*
X101671570Y-146076507D01*
X101671567Y-146076513D01*
X101614364Y-146289999D01*
X101614364Y-146290000D01*
X102511988Y-146290000D01*
X102479075Y-146347007D01*
X102445000Y-146474174D01*
X102445000Y-146605826D01*
X102479075Y-146732993D01*
X102511988Y-146790000D01*
X101614364Y-146790000D01*
X101671567Y-147003486D01*
X101671570Y-147003492D01*
X101771399Y-147217578D01*
X101906894Y-147411082D01*
X102073917Y-147578105D01*
X102267421Y-147713600D01*
X102481507Y-147813429D01*
X102481516Y-147813433D01*
X102695000Y-147870634D01*
X102695000Y-146973012D01*
X102752007Y-147005925D01*
X102879174Y-147040000D01*
X103010826Y-147040000D01*
X103137993Y-147005925D01*
X103195000Y-146973012D01*
X103195000Y-147870633D01*
X103408483Y-147813433D01*
X103408492Y-147813429D01*
X103622578Y-147713600D01*
X103816082Y-147578105D01*
X103983105Y-147411082D01*
X104118600Y-147217578D01*
X104218429Y-147003492D01*
X104218431Y-147003489D01*
X104227406Y-146969992D01*
X104263770Y-146910331D01*
X104326616Y-146879800D01*
X104395992Y-146888094D01*
X104449871Y-146932578D01*
X104458182Y-146946811D01*
X104545327Y-147121821D01*
X104668237Y-147284581D01*
X104818955Y-147421978D01*
X104818957Y-147421979D01*
X104818959Y-147421981D01*
X104925779Y-147488121D01*
X104972413Y-147540146D01*
X104984500Y-147593546D01*
X104984500Y-150596108D01*
X104984500Y-150727892D01*
X104996688Y-150773377D01*
X105018608Y-150855187D01*
X105051554Y-150912250D01*
X105084500Y-150969314D01*
X105084502Y-150969316D01*
X105216322Y-151101136D01*
X105222354Y-151107615D01*
X105254870Y-151145141D01*
X105254874Y-151145145D01*
X105258928Y-151147750D01*
X105274211Y-151160066D01*
X105285137Y-151168450D01*
X105284090Y-151169813D01*
X105325533Y-151213277D01*
X105338756Y-151281884D01*
X105312788Y-151346749D01*
X105282359Y-151374411D01*
X105268252Y-151383477D01*
X105174001Y-151492248D01*
X105174000Y-151492250D01*
X105114212Y-151623165D01*
X105093731Y-151765622D01*
X105114212Y-151908078D01*
X105174000Y-152038993D01*
X105174001Y-152038995D01*
X105268250Y-152147765D01*
X105389325Y-152225575D01*
X105389328Y-152225576D01*
X105389327Y-152225576D01*
X105527414Y-152266121D01*
X105527416Y-152266122D01*
X105527417Y-152266122D01*
X105671340Y-152266122D01*
X105671340Y-152266121D01*
X105809431Y-152225575D01*
X105930506Y-152147765D01*
X106024755Y-152038995D01*
X106084543Y-151908079D01*
X106100825Y-151794830D01*
X106129848Y-151731278D01*
X106135866Y-151724814D01*
X106915470Y-150945212D01*
X106961614Y-150865288D01*
X106985500Y-150776143D01*
X106985500Y-150683856D01*
X106985500Y-148756035D01*
X107005185Y-148688996D01*
X107015782Y-148674837D01*
X107060377Y-148623373D01*
X107120165Y-148492457D01*
X107140647Y-148350000D01*
X107120165Y-148207543D01*
X107060377Y-148076627D01*
X106966128Y-147967857D01*
X106845053Y-147890047D01*
X106845051Y-147890046D01*
X106845049Y-147890045D01*
X106845050Y-147890045D01*
X106706963Y-147849500D01*
X106706961Y-147849500D01*
X106563039Y-147849500D01*
X106563036Y-147849500D01*
X106424949Y-147890045D01*
X106303873Y-147967856D01*
X106203815Y-148083330D01*
X106201187Y-148081053D01*
X106160971Y-148115876D01*
X106091809Y-148125795D01*
X106028264Y-148096747D01*
X105990510Y-148037956D01*
X105985500Y-148003063D01*
X105985500Y-147593546D01*
X106005185Y-147526507D01*
X106044218Y-147488122D01*
X106151041Y-147421981D01*
X106301764Y-147284579D01*
X106424673Y-147121821D01*
X106515582Y-146939250D01*
X106571397Y-146743083D01*
X106590215Y-146540000D01*
X106590215Y-146539999D01*
X106919785Y-146539999D01*
X106919785Y-146540000D01*
X106938602Y-146743082D01*
X106994417Y-146939247D01*
X106994422Y-146939260D01*
X107085327Y-147121821D01*
X107208237Y-147284581D01*
X107358958Y-147421980D01*
X107358960Y-147421982D01*
X107458141Y-147483392D01*
X107532363Y-147529348D01*
X107722544Y-147603024D01*
X107923024Y-147640500D01*
X107923026Y-147640500D01*
X108126974Y-147640500D01*
X108126976Y-147640500D01*
X108327456Y-147603024D01*
X108517637Y-147529348D01*
X108691041Y-147421981D01*
X108841764Y-147284579D01*
X108964673Y-147121821D01*
X109055582Y-146939250D01*
X109111397Y-146743083D01*
X109130215Y-146540000D01*
X109124115Y-146474174D01*
X109111397Y-146336917D01*
X109098048Y-146290000D01*
X109055582Y-146140750D01*
X109055159Y-146139901D01*
X109005415Y-146040000D01*
X108964673Y-145958179D01*
X108841764Y-145795421D01*
X108841762Y-145795418D01*
X108691041Y-145658019D01*
X108691039Y-145658017D01*
X108517642Y-145550655D01*
X108517635Y-145550651D01*
X108391767Y-145501890D01*
X108327456Y-145476976D01*
X108126976Y-145439500D01*
X107923024Y-145439500D01*
X107722544Y-145476976D01*
X107722541Y-145476976D01*
X107722541Y-145476977D01*
X107532364Y-145550651D01*
X107532357Y-145550655D01*
X107358960Y-145658017D01*
X107358958Y-145658019D01*
X107208237Y-145795418D01*
X107085327Y-145958178D01*
X106994422Y-146140739D01*
X106994417Y-146140752D01*
X106938602Y-146336917D01*
X106919785Y-146539999D01*
X106590215Y-146539999D01*
X106584115Y-146474174D01*
X106571397Y-146336917D01*
X106558048Y-146290000D01*
X106515582Y-146140750D01*
X106515159Y-146139901D01*
X106465415Y-146040000D01*
X106424673Y-145958179D01*
X106301764Y-145795421D01*
X106301762Y-145795418D01*
X106151041Y-145658019D01*
X106151039Y-145658017D01*
X105977642Y-145550655D01*
X105977635Y-145550651D01*
X105851767Y-145501890D01*
X105787456Y-145476976D01*
X105586976Y-145439500D01*
X105383024Y-145439500D01*
X105182544Y-145476976D01*
X105182541Y-145476976D01*
X105182541Y-145476977D01*
X104992364Y-145550651D01*
X104992357Y-145550655D01*
X104818960Y-145658017D01*
X104818958Y-145658019D01*
X104668237Y-145795418D01*
X104545327Y-145958178D01*
X104458182Y-146133188D01*
X104410679Y-146184425D01*
X104343016Y-146201846D01*
X104276676Y-146179920D01*
X104232721Y-146125609D01*
X104227407Y-146110008D01*
X104218434Y-146076518D01*
X104218429Y-146076507D01*
X104118600Y-145862422D01*
X104118599Y-145862420D01*
X103983113Y-145668926D01*
X103983108Y-145668920D01*
X103816082Y-145501894D01*
X103629968Y-145371575D01*
X103586344Y-145316998D01*
X103579151Y-145247499D01*
X103610673Y-145185145D01*
X103629968Y-145168425D01*
X103816082Y-145038105D01*
X103983105Y-144871082D01*
X104118600Y-144677578D01*
X104218429Y-144463492D01*
X104218431Y-144463489D01*
X104227406Y-144429992D01*
X104263770Y-144370331D01*
X104326616Y-144339800D01*
X104395992Y-144348094D01*
X104449871Y-144392578D01*
X104458182Y-144406811D01*
X104545327Y-144581821D01*
X104668237Y-144744581D01*
X104818958Y-144881980D01*
X104818960Y-144881982D01*
X104901724Y-144933227D01*
X104992363Y-144989348D01*
X105182544Y-145063024D01*
X105383024Y-145100500D01*
X105383026Y-145100500D01*
X105586974Y-145100500D01*
X105586976Y-145100500D01*
X105787456Y-145063024D01*
X105977637Y-144989348D01*
X106151041Y-144881981D01*
X106301764Y-144744579D01*
X106424673Y-144581821D01*
X106515582Y-144399250D01*
X106571397Y-144203083D01*
X106590215Y-144000000D01*
X106584115Y-143934174D01*
X106571397Y-143796917D01*
X106558048Y-143750000D01*
X106515582Y-143600750D01*
X106515159Y-143599901D01*
X106465415Y-143500000D01*
X106424673Y-143418179D01*
X106301764Y-143255421D01*
X106301762Y-143255418D01*
X106159051Y-143125321D01*
X106924500Y-143125321D01*
X106924500Y-144874678D01*
X106939032Y-144947735D01*
X106939033Y-144947739D01*
X106939034Y-144947740D01*
X106994399Y-145030601D01*
X107077260Y-145085966D01*
X107077264Y-145085967D01*
X107150321Y-145100499D01*
X107150324Y-145100500D01*
X107150326Y-145100500D01*
X108899676Y-145100500D01*
X108899677Y-145100499D01*
X108972740Y-145085966D01*
X109055601Y-145030601D01*
X109110966Y-144947740D01*
X109125500Y-144874674D01*
X109125500Y-143125326D01*
X109125500Y-143125323D01*
X109125499Y-143125321D01*
X109110967Y-143052264D01*
X109110966Y-143052260D01*
X109097160Y-143031598D01*
X109055601Y-142969399D01*
X109000235Y-142932405D01*
X108972739Y-142914033D01*
X108972735Y-142914032D01*
X108899677Y-142899500D01*
X108899674Y-142899500D01*
X107150326Y-142899500D01*
X107150323Y-142899500D01*
X107077264Y-142914032D01*
X107077260Y-142914033D01*
X106994399Y-142969399D01*
X106939033Y-143052260D01*
X106939032Y-143052264D01*
X106924500Y-143125321D01*
X106159051Y-143125321D01*
X106151041Y-143118019D01*
X106151039Y-143118017D01*
X105977642Y-143010655D01*
X105977635Y-143010651D01*
X105851769Y-142961891D01*
X105787456Y-142936976D01*
X105586976Y-142899500D01*
X105383024Y-142899500D01*
X105182544Y-142936976D01*
X105182541Y-142936976D01*
X105182541Y-142936977D01*
X104992364Y-143010651D01*
X104992354Y-143010656D01*
X104929868Y-143049345D01*
X104862507Y-143067899D01*
X104795809Y-143047090D01*
X104776912Y-143031598D01*
X103915177Y-142169863D01*
X103909158Y-142163400D01*
X103876628Y-142125857D01*
X103876625Y-142125854D01*
X103872566Y-142123246D01*
X103857293Y-142110937D01*
X103852818Y-142107504D01*
X103852814Y-142107500D01*
X103840904Y-142100623D01*
X103808621Y-142081984D01*
X103803585Y-142078915D01*
X103803379Y-142078782D01*
X103755553Y-142048047D01*
X103755551Y-142048046D01*
X103755549Y-142048045D01*
X103754504Y-142047567D01*
X103744875Y-142044171D01*
X103738692Y-142041610D01*
X103738687Y-142041608D01*
X103738686Y-142041608D01*
X103682201Y-142026473D01*
X103679362Y-142025675D01*
X103617463Y-142007500D01*
X103617461Y-142007500D01*
X103473539Y-142007500D01*
X103411645Y-142025673D01*
X103408807Y-142026469D01*
X103352317Y-142041606D01*
X103346109Y-142044177D01*
X103336485Y-142047572D01*
X103335449Y-142048045D01*
X103287415Y-142078914D01*
X103282380Y-142081983D01*
X103238189Y-142107497D01*
X103233766Y-142110892D01*
X103218445Y-142123238D01*
X103214377Y-142125852D01*
X103214368Y-142125860D01*
X103181855Y-142163383D01*
X103175824Y-142169860D01*
X103144998Y-142200686D01*
X103141864Y-142206115D01*
X103128201Y-142225303D01*
X103120123Y-142234626D01*
X103120123Y-142234627D01*
X103102588Y-142273019D01*
X103097187Y-142283495D01*
X103079107Y-142314813D01*
X103079106Y-142314816D01*
X103075546Y-142328103D01*
X103068569Y-142347511D01*
X103060335Y-142365541D01*
X103055386Y-142399956D01*
X103052425Y-142414394D01*
X103045000Y-142442105D01*
X103045000Y-142463331D01*
X103043738Y-142480977D01*
X103039853Y-142507999D01*
X103043738Y-142535020D01*
X103045000Y-142552667D01*
X103045000Y-142573894D01*
X103052423Y-142601596D01*
X103055385Y-142616037D01*
X103060335Y-142650456D01*
X103060337Y-142650464D01*
X103068569Y-142668489D01*
X103075550Y-142687907D01*
X103079107Y-142701183D01*
X103079110Y-142701190D01*
X103097181Y-142732491D01*
X103102586Y-142742974D01*
X103120123Y-142781373D01*
X103128194Y-142790687D01*
X103141868Y-142809890D01*
X103144997Y-142815310D01*
X103145001Y-142815315D01*
X103158681Y-142828995D01*
X103192166Y-142890318D01*
X103195000Y-142916676D01*
X103195000Y-143566988D01*
X103137993Y-143534075D01*
X103010826Y-143500000D01*
X102879174Y-143500000D01*
X102752007Y-143534075D01*
X102695000Y-143566988D01*
X102695000Y-142669364D01*
X102694999Y-142669364D01*
X102481513Y-142726567D01*
X102481507Y-142726570D01*
X102267422Y-142826399D01*
X102267420Y-142826400D01*
X102073926Y-142961886D01*
X102073920Y-142961891D01*
X101906891Y-143128920D01*
X101906886Y-143128926D01*
X101771400Y-143322420D01*
X101771399Y-143322422D01*
X101671570Y-143536507D01*
X101671567Y-143536513D01*
X101614364Y-143749999D01*
X100800500Y-143749999D01*
X100800500Y-138985621D01*
X101490731Y-138985621D01*
X101494616Y-139012642D01*
X101495878Y-139030289D01*
X101495878Y-139051516D01*
X101503301Y-139079218D01*
X101506263Y-139093659D01*
X101511213Y-139128078D01*
X101511215Y-139128086D01*
X101519447Y-139146111D01*
X101526428Y-139165529D01*
X101529985Y-139178805D01*
X101529988Y-139178812D01*
X101548059Y-139210113D01*
X101553464Y-139220596D01*
X101571001Y-139258995D01*
X101579072Y-139268309D01*
X101592746Y-139287512D01*
X101595875Y-139292932D01*
X101595879Y-139292937D01*
X101626700Y-139323758D01*
X101632732Y-139330237D01*
X101665248Y-139367763D01*
X101665252Y-139367767D01*
X101669306Y-139370372D01*
X101684589Y-139382688D01*
X101689062Y-139386120D01*
X101689064Y-139386122D01*
X101733265Y-139411641D01*
X101738249Y-139414678D01*
X101786325Y-139445575D01*
X101786328Y-139445576D01*
X101786330Y-139445577D01*
X101787372Y-139446053D01*
X101796999Y-139449449D01*
X101803189Y-139452012D01*
X101803192Y-139452014D01*
X101859624Y-139467134D01*
X101859639Y-139467138D01*
X101862476Y-139467934D01*
X101924417Y-139486122D01*
X102068341Y-139486122D01*
X102068341Y-139486121D01*
X102106604Y-139474885D01*
X102130280Y-139467934D01*
X102133059Y-139467153D01*
X102189564Y-139452014D01*
X102189567Y-139452011D01*
X102195745Y-139449454D01*
X102205374Y-139446056D01*
X102206423Y-139445577D01*
X102206431Y-139445575D01*
X102254465Y-139414704D01*
X102259480Y-139411647D01*
X102303692Y-139386122D01*
X102303699Y-139386114D01*
X102308206Y-139382657D01*
X102323445Y-139370374D01*
X102327506Y-139367765D01*
X102360031Y-139330227D01*
X102366051Y-139323762D01*
X102374995Y-139314818D01*
X102396878Y-139292936D01*
X102400006Y-139287516D01*
X102413684Y-139268309D01*
X102421755Y-139258995D01*
X102439290Y-139220596D01*
X102444689Y-139210124D01*
X102462770Y-139178808D01*
X102466330Y-139165520D01*
X102473312Y-139146101D01*
X102485229Y-139120009D01*
X102486328Y-139120511D01*
X102512549Y-139076313D01*
X102974035Y-138614827D01*
X103035356Y-138581344D01*
X103105048Y-138586328D01*
X103155425Y-138621305D01*
X103173211Y-138641830D01*
X103202237Y-138705385D01*
X103203500Y-138723035D01*
X103203500Y-140196963D01*
X103183815Y-140264002D01*
X103173214Y-140278164D01*
X103128625Y-140329623D01*
X103128622Y-140329628D01*
X103068834Y-140460543D01*
X103048353Y-140603000D01*
X103068834Y-140745456D01*
X103126834Y-140872456D01*
X103128623Y-140876373D01*
X103222872Y-140985143D01*
X103343947Y-141062953D01*
X103343950Y-141062954D01*
X103343949Y-141062954D01*
X103482036Y-141103499D01*
X103482038Y-141103500D01*
X103482039Y-141103500D01*
X103625962Y-141103500D01*
X103625962Y-141103499D01*
X103764053Y-141062953D01*
X103885128Y-140985143D01*
X103904053Y-140963301D01*
X103962825Y-140925529D01*
X104032695Y-140925527D01*
X104091474Y-140963299D01*
X104111631Y-141001274D01*
X104113274Y-141000594D01*
X104116385Y-141008104D01*
X104162527Y-141088026D01*
X104162529Y-141088029D01*
X104162530Y-141088030D01*
X105481970Y-142407470D01*
X105541965Y-142442108D01*
X105561894Y-142453614D01*
X105651038Y-142477500D01*
X107611105Y-142477500D01*
X107678144Y-142497185D01*
X107692312Y-142507790D01*
X107693866Y-142509137D01*
X107693872Y-142509143D01*
X107814947Y-142586953D01*
X107814950Y-142586954D01*
X107814949Y-142586954D01*
X107953036Y-142627499D01*
X107953038Y-142627500D01*
X107953039Y-142627500D01*
X108096962Y-142627500D01*
X108096962Y-142627499D01*
X108235053Y-142586953D01*
X108356128Y-142509143D01*
X108450377Y-142400373D01*
X108510165Y-142269457D01*
X108530647Y-142127000D01*
X108510165Y-141984543D01*
X108450377Y-141853627D01*
X108356128Y-141744857D01*
X108235053Y-141667047D01*
X108235051Y-141667046D01*
X108235049Y-141667045D01*
X108235050Y-141667045D01*
X108096963Y-141626500D01*
X108096961Y-141626500D01*
X107953039Y-141626500D01*
X107953036Y-141626500D01*
X107814949Y-141667045D01*
X107693876Y-141744854D01*
X107693874Y-141744855D01*
X107693872Y-141744857D01*
X107693870Y-141744858D01*
X107692312Y-141746210D01*
X107690427Y-141747070D01*
X107686411Y-141749652D01*
X107686039Y-141749074D01*
X107628757Y-141775237D01*
X107611105Y-141776500D01*
X105893726Y-141776500D01*
X105826687Y-141756815D01*
X105806045Y-141740181D01*
X105377234Y-141311370D01*
X105343749Y-141250047D01*
X105348733Y-141180355D01*
X105390605Y-141124422D01*
X105397867Y-141119379D01*
X105409128Y-141112143D01*
X105503377Y-141003373D01*
X105563165Y-140872457D01*
X105583647Y-140730000D01*
X105563165Y-140587543D01*
X105503377Y-140456627D01*
X105503374Y-140456623D01*
X105458786Y-140405164D01*
X105429762Y-140341608D01*
X105428500Y-140323963D01*
X105428500Y-139725020D01*
X105448185Y-139657981D01*
X105485459Y-139620705D01*
X105536128Y-139588143D01*
X105630377Y-139479373D01*
X105690165Y-139348457D01*
X105710647Y-139206000D01*
X105690165Y-139063543D01*
X105630377Y-138932627D01*
X105536128Y-138823857D01*
X105415053Y-138746047D01*
X105415051Y-138746046D01*
X105415049Y-138746045D01*
X105415050Y-138746045D01*
X105276963Y-138705500D01*
X105276961Y-138705500D01*
X105133039Y-138705500D01*
X105133038Y-138705500D01*
X105094455Y-138716828D01*
X105024585Y-138716826D01*
X104965808Y-138679051D01*
X104936785Y-138615497D01*
X104928165Y-138555543D01*
X104919393Y-138536335D01*
X104868377Y-138424627D01*
X104774128Y-138315857D01*
X104653053Y-138238047D01*
X104653051Y-138238046D01*
X104653049Y-138238045D01*
X104653050Y-138238045D01*
X104514963Y-138197500D01*
X104514961Y-138197500D01*
X104371039Y-138197500D01*
X104371036Y-138197500D01*
X104232949Y-138238045D01*
X104232944Y-138238047D01*
X104224958Y-138243180D01*
X104157918Y-138262862D01*
X104090879Y-138243175D01*
X104045127Y-138190369D01*
X104042649Y-138183727D01*
X113564259Y-138183727D01*
X113584740Y-138326183D01*
X113629698Y-138424626D01*
X113644529Y-138457100D01*
X113672212Y-138489048D01*
X113701238Y-138552603D01*
X113702500Y-138570251D01*
X113702500Y-140322644D01*
X113716125Y-140373493D01*
X113726385Y-140411786D01*
X113772527Y-140491708D01*
X113772531Y-140491713D01*
X113939495Y-140658677D01*
X113972980Y-140720000D01*
X113974552Y-140728710D01*
X113990834Y-140841956D01*
X114036261Y-140941426D01*
X114050623Y-140972873D01*
X114144872Y-141081643D01*
X114265947Y-141159453D01*
X114265950Y-141159454D01*
X114265949Y-141159454D01*
X114404036Y-141199999D01*
X114404038Y-141200000D01*
X114404039Y-141200000D01*
X114547962Y-141200000D01*
X114547962Y-141199999D01*
X114686053Y-141159453D01*
X114807128Y-141081643D01*
X114877074Y-141000919D01*
X114935849Y-140963147D01*
X115005719Y-140963147D01*
X115064497Y-141000920D01*
X115064498Y-141000921D01*
X115066623Y-141003373D01*
X115160872Y-141112143D01*
X115281947Y-141189953D01*
X115281950Y-141189954D01*
X115281949Y-141189954D01*
X115420036Y-141230499D01*
X115420038Y-141230500D01*
X115420039Y-141230500D01*
X115563962Y-141230500D01*
X115563962Y-141230499D01*
X115702053Y-141189953D01*
X115823128Y-141112143D01*
X115917377Y-141003373D01*
X115917380Y-141003365D01*
X115922169Y-140995915D01*
X115924697Y-140997539D01*
X115960589Y-140956101D01*
X116027625Y-140936403D01*
X116062584Y-140941426D01*
X116137100Y-140963305D01*
X116169686Y-140972873D01*
X116182036Y-140976499D01*
X116182038Y-140976500D01*
X116182039Y-140976500D01*
X116325962Y-140976500D01*
X116325962Y-140976499D01*
X116433121Y-140945035D01*
X116464050Y-140935954D01*
X116464050Y-140935953D01*
X116464053Y-140935953D01*
X116585128Y-140858143D01*
X116679377Y-140749373D01*
X116739165Y-140618457D01*
X116745434Y-140574853D01*
X116774458Y-140511298D01*
X116833236Y-140473523D01*
X116868172Y-140468500D01*
X116960962Y-140468500D01*
X116960962Y-140468499D01*
X117099053Y-140427953D01*
X117220128Y-140350143D01*
X117314377Y-140241373D01*
X117374165Y-140110457D01*
X117394647Y-139968000D01*
X117375192Y-139832688D01*
X117385136Y-139763532D01*
X117430890Y-139710728D01*
X117462996Y-139696066D01*
X117565550Y-139665954D01*
X117565550Y-139665953D01*
X117565553Y-139665953D01*
X117686628Y-139588143D01*
X117780877Y-139479373D01*
X117840665Y-139348457D01*
X117861147Y-139206000D01*
X117857238Y-139178812D01*
X117841992Y-139072768D01*
X117851936Y-139003610D01*
X117897691Y-138950806D01*
X117964730Y-138931122D01*
X118090584Y-138931122D01*
X118090584Y-138931121D01*
X118228675Y-138890575D01*
X118349750Y-138812765D01*
X118443999Y-138703995D01*
X118503787Y-138573079D01*
X118524269Y-138430622D01*
X118503787Y-138288165D01*
X118443999Y-138157249D01*
X118349750Y-138048479D01*
X118297584Y-138014954D01*
X118228673Y-137970667D01*
X118103943Y-137934044D01*
X118045165Y-137896270D01*
X118016140Y-137832714D01*
X118014878Y-137815067D01*
X118014878Y-137486846D01*
X118034563Y-137419807D01*
X118087367Y-137374052D01*
X118156525Y-137364108D01*
X118220081Y-137393133D01*
X118221095Y-137394022D01*
X118259448Y-137428000D01*
X118294759Y-137459282D01*
X118294761Y-137459284D01*
X118434634Y-137532696D01*
X118588014Y-137570500D01*
X118588015Y-137570500D01*
X118745985Y-137570500D01*
X118899365Y-137532696D01*
X119039240Y-137459283D01*
X119157483Y-137354530D01*
X119227143Y-137253610D01*
X119281426Y-137209620D01*
X119329193Y-137200050D01*
X123276406Y-137200050D01*
X123343445Y-137219735D01*
X123358629Y-137231231D01*
X123367210Y-137238833D01*
X123396625Y-137254271D01*
X123446838Y-137302856D01*
X123463000Y-137364068D01*
X123463000Y-144933227D01*
X123454942Y-144977198D01*
X123427263Y-145050181D01*
X123408222Y-145206999D01*
X123408222Y-145207000D01*
X123427262Y-145363818D01*
X123461477Y-145454033D01*
X123483280Y-145511523D01*
X123573017Y-145641530D01*
X123691260Y-145746283D01*
X123691262Y-145746284D01*
X123831134Y-145819696D01*
X123984514Y-145857500D01*
X123984515Y-145857500D01*
X124142485Y-145857500D01*
X124295865Y-145819696D01*
X124435740Y-145746283D01*
X124527128Y-145665321D01*
X131819500Y-145665321D01*
X131819500Y-147414678D01*
X131834032Y-147487735D01*
X131834033Y-147487739D01*
X131852405Y-147515235D01*
X131889399Y-147570601D01*
X131972260Y-147625966D01*
X131972264Y-147625967D01*
X132045321Y-147640499D01*
X132045324Y-147640500D01*
X132045326Y-147640500D01*
X133794676Y-147640500D01*
X133794677Y-147640499D01*
X133867740Y-147625966D01*
X133950601Y-147570601D01*
X134005966Y-147487740D01*
X134020500Y-147414674D01*
X134020500Y-145665326D01*
X134020500Y-145665323D01*
X134020499Y-145665321D01*
X134005967Y-145592264D01*
X134005966Y-145592260D01*
X133950601Y-145509399D01*
X133867740Y-145454034D01*
X133867739Y-145454033D01*
X133867735Y-145454032D01*
X133794677Y-145439500D01*
X133794674Y-145439500D01*
X132045326Y-145439500D01*
X132045323Y-145439500D01*
X131972264Y-145454032D01*
X131972260Y-145454033D01*
X131889399Y-145509399D01*
X131834033Y-145592260D01*
X131834032Y-145592264D01*
X131819500Y-145665321D01*
X124527128Y-145665321D01*
X124553983Y-145641530D01*
X124643720Y-145511523D01*
X124699737Y-145363818D01*
X124718778Y-145207000D01*
X124699737Y-145050182D01*
X124672058Y-144977198D01*
X124664000Y-144933227D01*
X124664000Y-143999999D01*
X131814785Y-143999999D01*
X131814785Y-144000000D01*
X131833602Y-144203082D01*
X131889417Y-144399247D01*
X131889422Y-144399260D01*
X131980327Y-144581821D01*
X132103237Y-144744581D01*
X132253958Y-144881980D01*
X132253960Y-144881982D01*
X132336724Y-144933227D01*
X132427363Y-144989348D01*
X132617544Y-145063024D01*
X132818024Y-145100500D01*
X132818026Y-145100500D01*
X133021974Y-145100500D01*
X133021976Y-145100500D01*
X133222456Y-145063024D01*
X133412637Y-144989348D01*
X133586041Y-144881981D01*
X133736764Y-144744579D01*
X133859673Y-144581821D01*
X133950582Y-144399250D01*
X134006397Y-144203083D01*
X134025215Y-144000000D01*
X134025215Y-143999999D01*
X134354785Y-143999999D01*
X134354785Y-144000000D01*
X134373602Y-144203082D01*
X134429417Y-144399247D01*
X134429422Y-144399260D01*
X134520327Y-144581821D01*
X134643237Y-144744581D01*
X134793958Y-144881980D01*
X134793960Y-144881982D01*
X134876724Y-144933227D01*
X134967363Y-144989348D01*
X135157544Y-145063024D01*
X135358024Y-145100500D01*
X135358026Y-145100500D01*
X135561974Y-145100500D01*
X135561976Y-145100500D01*
X135762456Y-145063024D01*
X135952637Y-144989348D01*
X136126041Y-144881981D01*
X136276764Y-144744579D01*
X136399673Y-144581821D01*
X136461598Y-144457456D01*
X136486817Y-144406812D01*
X136534319Y-144355575D01*
X136601982Y-144338153D01*
X136668323Y-144360078D01*
X136712278Y-144414389D01*
X136717592Y-144429989D01*
X136726567Y-144463485D01*
X136726570Y-144463492D01*
X136826399Y-144677578D01*
X136961894Y-144871082D01*
X137128917Y-145038105D01*
X137315031Y-145168425D01*
X137358656Y-145223003D01*
X137365848Y-145292501D01*
X137334326Y-145354856D01*
X137315031Y-145371575D01*
X137128922Y-145501890D01*
X137128920Y-145501891D01*
X136961891Y-145668920D01*
X136961886Y-145668926D01*
X136826400Y-145862420D01*
X136826399Y-145862422D01*
X136726570Y-146076507D01*
X136726568Y-146076511D01*
X136717592Y-146110011D01*
X136681226Y-146169671D01*
X136618379Y-146200199D01*
X136549003Y-146191904D01*
X136495126Y-146147418D01*
X136486817Y-146133188D01*
X136440415Y-146040000D01*
X136399673Y-145958179D01*
X136276764Y-145795421D01*
X136276762Y-145795418D01*
X136126041Y-145658019D01*
X136126039Y-145658017D01*
X135952642Y-145550655D01*
X135952635Y-145550651D01*
X135826767Y-145501890D01*
X135762456Y-145476976D01*
X135561976Y-145439500D01*
X135358024Y-145439500D01*
X135157544Y-145476976D01*
X135157541Y-145476976D01*
X135157541Y-145476977D01*
X134967364Y-145550651D01*
X134967357Y-145550655D01*
X134793960Y-145658017D01*
X134793958Y-145658019D01*
X134643237Y-145795418D01*
X134520327Y-145958178D01*
X134429422Y-146140739D01*
X134429417Y-146140752D01*
X134373602Y-146336917D01*
X134354785Y-146539999D01*
X134354785Y-146540000D01*
X134373602Y-146743082D01*
X134429417Y-146939247D01*
X134429422Y-146939260D01*
X134520327Y-147121821D01*
X134643237Y-147284581D01*
X134793958Y-147421980D01*
X134793960Y-147421982D01*
X134893141Y-147483392D01*
X134967363Y-147529348D01*
X135157544Y-147603024D01*
X135358024Y-147640500D01*
X135358026Y-147640500D01*
X135561974Y-147640500D01*
X135561976Y-147640500D01*
X135762456Y-147603024D01*
X135952637Y-147529348D01*
X136126041Y-147421981D01*
X136276764Y-147284579D01*
X136399673Y-147121821D01*
X136461598Y-146997456D01*
X136486817Y-146946812D01*
X136534319Y-146895575D01*
X136601982Y-146878153D01*
X136668323Y-146900078D01*
X136712278Y-146954389D01*
X136717592Y-146969989D01*
X136726567Y-147003485D01*
X136726570Y-147003492D01*
X136826399Y-147217578D01*
X136961894Y-147411082D01*
X137128917Y-147578105D01*
X137322421Y-147713600D01*
X137536507Y-147813429D01*
X137536516Y-147813433D01*
X137750000Y-147870634D01*
X137750000Y-146973012D01*
X137807007Y-147005925D01*
X137934174Y-147040000D01*
X138065826Y-147040000D01*
X138192993Y-147005925D01*
X138250000Y-146973012D01*
X138250000Y-147870633D01*
X138463483Y-147813433D01*
X138463492Y-147813429D01*
X138677578Y-147713600D01*
X138871082Y-147578105D01*
X139038105Y-147411082D01*
X139173600Y-147217578D01*
X139273429Y-147003492D01*
X139273432Y-147003486D01*
X139330636Y-146790000D01*
X138433012Y-146790000D01*
X138465925Y-146732993D01*
X138500000Y-146605826D01*
X138500000Y-146474174D01*
X138465925Y-146347007D01*
X138433012Y-146290000D01*
X139330636Y-146290000D01*
X139330635Y-146289999D01*
X139273432Y-146076513D01*
X139273429Y-146076507D01*
X139173600Y-145862422D01*
X139173599Y-145862420D01*
X139038113Y-145668926D01*
X139038108Y-145668920D01*
X138871082Y-145501894D01*
X138684968Y-145371575D01*
X138641344Y-145316998D01*
X138634151Y-145247499D01*
X138665673Y-145185145D01*
X138684968Y-145168425D01*
X138871082Y-145038105D01*
X139038105Y-144871082D01*
X139173600Y-144677578D01*
X139273429Y-144463492D01*
X139273432Y-144463486D01*
X139330636Y-144250000D01*
X138433012Y-144250000D01*
X138465925Y-144192993D01*
X138500000Y-144065826D01*
X138500000Y-143934174D01*
X138465925Y-143807007D01*
X138433012Y-143750000D01*
X139330636Y-143750000D01*
X139330635Y-143749999D01*
X139273432Y-143536513D01*
X139273429Y-143536507D01*
X139173600Y-143322422D01*
X139173599Y-143322420D01*
X139038113Y-143128926D01*
X139038108Y-143128920D01*
X138871082Y-142961894D01*
X138677578Y-142826399D01*
X138463492Y-142726570D01*
X138463486Y-142726567D01*
X138250000Y-142669364D01*
X138250000Y-143566988D01*
X138192993Y-143534075D01*
X138065826Y-143500000D01*
X137934174Y-143500000D01*
X137807007Y-143534075D01*
X137750000Y-143566988D01*
X137750000Y-142669364D01*
X137749999Y-142669364D01*
X137536513Y-142726567D01*
X137536507Y-142726570D01*
X137322422Y-142826399D01*
X137322420Y-142826400D01*
X137128926Y-142961886D01*
X137128920Y-142961891D01*
X136961891Y-143128920D01*
X136961886Y-143128926D01*
X136826400Y-143322420D01*
X136826399Y-143322422D01*
X136726570Y-143536507D01*
X136726568Y-143536511D01*
X136717592Y-143570011D01*
X136681226Y-143629671D01*
X136618379Y-143660199D01*
X136549003Y-143651904D01*
X136495126Y-143607418D01*
X136486817Y-143593188D01*
X136440415Y-143500000D01*
X136399673Y-143418179D01*
X136276764Y-143255421D01*
X136276762Y-143255418D01*
X136126041Y-143118019D01*
X136126039Y-143118017D01*
X135952642Y-143010655D01*
X135952635Y-143010651D01*
X135826769Y-142961891D01*
X135762456Y-142936976D01*
X135561976Y-142899500D01*
X135358024Y-142899500D01*
X135157544Y-142936976D01*
X135157541Y-142936976D01*
X135157541Y-142936977D01*
X134967364Y-143010651D01*
X134967357Y-143010655D01*
X134793960Y-143118017D01*
X134793958Y-143118019D01*
X134643237Y-143255418D01*
X134520327Y-143418178D01*
X134429422Y-143600739D01*
X134429417Y-143600752D01*
X134373602Y-143796917D01*
X134354785Y-143999999D01*
X134025215Y-143999999D01*
X134019115Y-143934174D01*
X134006397Y-143796917D01*
X133993048Y-143750000D01*
X133950582Y-143600750D01*
X133950159Y-143599901D01*
X133900415Y-143500000D01*
X133859673Y-143418179D01*
X133736764Y-143255421D01*
X133736762Y-143255418D01*
X133586041Y-143118019D01*
X133586039Y-143118017D01*
X133412642Y-143010655D01*
X133412635Y-143010651D01*
X133286769Y-142961891D01*
X133222456Y-142936976D01*
X133021976Y-142899500D01*
X132818024Y-142899500D01*
X132617544Y-142936976D01*
X132617541Y-142936976D01*
X132617541Y-142936977D01*
X132427364Y-143010651D01*
X132427357Y-143010655D01*
X132253960Y-143118017D01*
X132253958Y-143118019D01*
X132103237Y-143255418D01*
X131980327Y-143418178D01*
X131889422Y-143600739D01*
X131889417Y-143600752D01*
X131833602Y-143796917D01*
X131814785Y-143999999D01*
X124664000Y-143999999D01*
X124664000Y-137112659D01*
X124664001Y-137112646D01*
X124664001Y-136944545D01*
X124664001Y-136944543D01*
X124623077Y-136791815D01*
X124602823Y-136756735D01*
X124585548Y-136726813D01*
X124585547Y-136726812D01*
X124544021Y-136654886D01*
X124544020Y-136654884D01*
X124432216Y-136543080D01*
X124432215Y-136543079D01*
X124427885Y-136538749D01*
X124427874Y-136538739D01*
X124360185Y-136471050D01*
X124331923Y-136427336D01*
X124319672Y-136395032D01*
X124319670Y-136395027D01*
X124316765Y-136390819D01*
X124229933Y-136265020D01*
X124111690Y-136160267D01*
X124111688Y-136160266D01*
X124111687Y-136160265D01*
X123971815Y-136086853D01*
X123818436Y-136049050D01*
X123818435Y-136049050D01*
X123660465Y-136049050D01*
X123660464Y-136049050D01*
X123507084Y-136086853D01*
X123367216Y-136160262D01*
X123367212Y-136160265D01*
X123367210Y-136160267D01*
X123358631Y-136167866D01*
X123295400Y-136197587D01*
X123276406Y-136199050D01*
X118821557Y-136199050D01*
X118746987Y-136219030D01*
X118746987Y-136219031D01*
X118694264Y-136233158D01*
X118694263Y-136233158D01*
X118694261Y-136233159D01*
X118684164Y-136238989D01*
X118660092Y-136252887D01*
X118598092Y-136269500D01*
X118588014Y-136269500D01*
X118434634Y-136307303D01*
X118294761Y-136380715D01*
X118294759Y-136380717D01*
X118197971Y-136466462D01*
X118134738Y-136496183D01*
X118065474Y-136486999D01*
X118022034Y-136454850D01*
X117995506Y-136424235D01*
X117995505Y-136424234D01*
X117995504Y-136424233D01*
X117927787Y-136380715D01*
X117874431Y-136346425D01*
X117874429Y-136346424D01*
X117874427Y-136346423D01*
X117874428Y-136346423D01*
X117736341Y-136305878D01*
X117736339Y-136305878D01*
X117592417Y-136305878D01*
X117592414Y-136305878D01*
X117454327Y-136346423D01*
X117333251Y-136424234D01*
X117239001Y-136533004D01*
X117239000Y-136533006D01*
X117179212Y-136663921D01*
X117157469Y-136815156D01*
X117155395Y-136814857D01*
X117139046Y-136870539D01*
X117086242Y-136916294D01*
X117034731Y-136927500D01*
X116944036Y-136927500D01*
X116805949Y-136968045D01*
X116684873Y-137045856D01*
X116590623Y-137154626D01*
X116590622Y-137154628D01*
X116530834Y-137285543D01*
X116510353Y-137428000D01*
X116530834Y-137570456D01*
X116582336Y-137683227D01*
X116590623Y-137701373D01*
X116635213Y-137752833D01*
X116664238Y-137816388D01*
X116665500Y-137834035D01*
X116665500Y-137976442D01*
X116645815Y-138043481D01*
X116593011Y-138089236D01*
X116523853Y-138099180D01*
X116460297Y-138070155D01*
X116447787Y-138057645D01*
X116445425Y-138054919D01*
X116408006Y-138011735D01*
X116286931Y-137933925D01*
X116286929Y-137933924D01*
X116286927Y-137933923D01*
X116286928Y-137933923D01*
X116148841Y-137893378D01*
X116148839Y-137893378D01*
X116004917Y-137893378D01*
X116004914Y-137893378D01*
X115866827Y-137933923D01*
X115745751Y-138011734D01*
X115651501Y-138120504D01*
X115651500Y-138120506D01*
X115588622Y-138258189D01*
X115542867Y-138310993D01*
X115475827Y-138330677D01*
X115440896Y-138325655D01*
X115436962Y-138324500D01*
X115436961Y-138324500D01*
X115293039Y-138324500D01*
X115293036Y-138324500D01*
X115154949Y-138365045D01*
X115033873Y-138442856D01*
X114939623Y-138551626D01*
X114934829Y-138559087D01*
X114932304Y-138557464D01*
X114896376Y-138598919D01*
X114829334Y-138618596D01*
X114794415Y-138613573D01*
X114674964Y-138578500D01*
X114674961Y-138578500D01*
X114632789Y-138578500D01*
X114565750Y-138558815D01*
X114519995Y-138506011D01*
X114510051Y-138436853D01*
X114519995Y-138402988D01*
X114555071Y-138326184D01*
X114575553Y-138183727D01*
X114555071Y-138041270D01*
X114495283Y-137910354D01*
X114401034Y-137801584D01*
X114279959Y-137723774D01*
X114279957Y-137723773D01*
X114279955Y-137723772D01*
X114279956Y-137723772D01*
X114141869Y-137683227D01*
X114141867Y-137683227D01*
X113997945Y-137683227D01*
X113997942Y-137683227D01*
X113859855Y-137723772D01*
X113738779Y-137801583D01*
X113644529Y-137910353D01*
X113644528Y-137910355D01*
X113584740Y-138041270D01*
X113564259Y-138183727D01*
X104042649Y-138183727D01*
X104039486Y-138175246D01*
X104031267Y-138157249D01*
X103979377Y-138043627D01*
X103885128Y-137934857D01*
X103885125Y-137934855D01*
X103885124Y-137934854D01*
X103873878Y-137927627D01*
X103828121Y-137874825D01*
X103818176Y-137805666D01*
X103847199Y-137742110D01*
X103853219Y-137735643D01*
X104656016Y-136932846D01*
X104717337Y-136899363D01*
X104787029Y-136904347D01*
X104813976Y-136919136D01*
X104814084Y-136918963D01*
X104817387Y-136921008D01*
X104818429Y-136921580D01*
X104818952Y-136921974D01*
X104818959Y-136921981D01*
X104818966Y-136921985D01*
X104818967Y-136921986D01*
X104836510Y-136932848D01*
X104992363Y-137029348D01*
X105182544Y-137103024D01*
X105383024Y-137140500D01*
X105383026Y-137140500D01*
X105586974Y-137140500D01*
X105586976Y-137140500D01*
X105787456Y-137103024D01*
X105977637Y-137029348D01*
X106151041Y-136921981D01*
X106286660Y-136798348D01*
X106301762Y-136784581D01*
X106301764Y-136784579D01*
X106424673Y-136621821D01*
X106515582Y-136439250D01*
X106571397Y-136243083D01*
X106590215Y-136040000D01*
X106590215Y-136039999D01*
X106919785Y-136039999D01*
X106919785Y-136040000D01*
X106938602Y-136243082D01*
X106994417Y-136439247D01*
X106994422Y-136439260D01*
X107085327Y-136621821D01*
X107208237Y-136784581D01*
X107325527Y-136891504D01*
X107361809Y-136951215D01*
X107360048Y-137021062D01*
X107320805Y-137078870D01*
X107302817Y-137090113D01*
X107302907Y-137090253D01*
X107174373Y-137172856D01*
X107080123Y-137281626D01*
X107080122Y-137281628D01*
X107020334Y-137412543D01*
X106999853Y-137555000D01*
X107020334Y-137697456D01*
X107080122Y-137828371D01*
X107080123Y-137828373D01*
X107174372Y-137937143D01*
X107295447Y-138014953D01*
X107295450Y-138014954D01*
X107295449Y-138014954D01*
X107433536Y-138055499D01*
X107433538Y-138055500D01*
X107433539Y-138055500D01*
X107577462Y-138055500D01*
X107577462Y-138055499D01*
X107715553Y-138014953D01*
X107836628Y-137937143D01*
X107836636Y-137937133D01*
X107838188Y-137935790D01*
X107840072Y-137934929D01*
X107844089Y-137932348D01*
X107844460Y-137932925D01*
X107901743Y-137906763D01*
X107919395Y-137905500D01*
X108130605Y-137905500D01*
X108197644Y-137925185D01*
X108211812Y-137935790D01*
X108213366Y-137937137D01*
X108213372Y-137937143D01*
X108334447Y-138014953D01*
X108334450Y-138014954D01*
X108334449Y-138014954D01*
X108472536Y-138055499D01*
X108472538Y-138055500D01*
X108472539Y-138055500D01*
X108616462Y-138055500D01*
X108616462Y-138055499D01*
X108754553Y-138014953D01*
X108875628Y-137937143D01*
X108969877Y-137828373D01*
X109029665Y-137697457D01*
X109050147Y-137555000D01*
X109029665Y-137412543D01*
X108969877Y-137281627D01*
X108875628Y-137172857D01*
X108754553Y-137095047D01*
X108754552Y-137095046D01*
X108747093Y-137090253D01*
X108748111Y-137088668D01*
X108703693Y-137050178D01*
X108684010Y-136983138D01*
X108703696Y-136916099D01*
X108724465Y-136891510D01*
X108841764Y-136784579D01*
X108964673Y-136621821D01*
X109055582Y-136439250D01*
X109111397Y-136243083D01*
X109130215Y-136040000D01*
X109124115Y-135974174D01*
X109111397Y-135836917D01*
X109103454Y-135809000D01*
X109055582Y-135640750D01*
X109055159Y-135639901D01*
X109005415Y-135540000D01*
X108964673Y-135458179D01*
X108877751Y-135343075D01*
X108841762Y-135295418D01*
X108691041Y-135158019D01*
X108691039Y-135158017D01*
X108517642Y-135050655D01*
X108517635Y-135050651D01*
X108391767Y-135001890D01*
X108327456Y-134976976D01*
X108126976Y-134939500D01*
X107923024Y-134939500D01*
X107722544Y-134976976D01*
X107722541Y-134976976D01*
X107722541Y-134976977D01*
X107532364Y-135050651D01*
X107532357Y-135050655D01*
X107358960Y-135158017D01*
X107358958Y-135158019D01*
X107208237Y-135295418D01*
X107085327Y-135458178D01*
X106994422Y-135640739D01*
X106994417Y-135640752D01*
X106938602Y-135836917D01*
X106919785Y-136039999D01*
X106590215Y-136039999D01*
X106584115Y-135974174D01*
X106571397Y-135836917D01*
X106563454Y-135809000D01*
X106515582Y-135640750D01*
X106515159Y-135639901D01*
X106465415Y-135540000D01*
X106424673Y-135458179D01*
X106337751Y-135343075D01*
X106301762Y-135295418D01*
X106151041Y-135158019D01*
X106151039Y-135158017D01*
X105977642Y-135050655D01*
X105977635Y-135050651D01*
X105851767Y-135001890D01*
X105787456Y-134976976D01*
X105586976Y-134939500D01*
X105383024Y-134939500D01*
X105182544Y-134976976D01*
X105182541Y-134976976D01*
X105182541Y-134976977D01*
X104992364Y-135050651D01*
X104992357Y-135050655D01*
X104818960Y-135158017D01*
X104818958Y-135158019D01*
X104668237Y-135295418D01*
X104545327Y-135458178D01*
X104458182Y-135633188D01*
X104410679Y-135684425D01*
X104343016Y-135701846D01*
X104276676Y-135679920D01*
X104232721Y-135625609D01*
X104227407Y-135610008D01*
X104218434Y-135576518D01*
X104218429Y-135576507D01*
X104118600Y-135362422D01*
X104118599Y-135362420D01*
X103983113Y-135168926D01*
X103983108Y-135168920D01*
X103816082Y-135001894D01*
X103719578Y-134934321D01*
X131946500Y-134934321D01*
X131946500Y-136683678D01*
X131961032Y-136756735D01*
X131961033Y-136756739D01*
X131961034Y-136756740D01*
X132016399Y-136839601D01*
X132094077Y-136891503D01*
X132099260Y-136894966D01*
X132099264Y-136894967D01*
X132172321Y-136909499D01*
X132172324Y-136909500D01*
X132172326Y-136909500D01*
X133921676Y-136909500D01*
X133921677Y-136909499D01*
X133994740Y-136894966D01*
X134077601Y-136839601D01*
X134132966Y-136756740D01*
X134147500Y-136683674D01*
X134147500Y-134934326D01*
X134147500Y-134934323D01*
X134147499Y-134934321D01*
X134132967Y-134861264D01*
X134132966Y-134861260D01*
X134128687Y-134854856D01*
X134077601Y-134778399D01*
X133994740Y-134723034D01*
X133994739Y-134723033D01*
X133994735Y-134723032D01*
X133921677Y-134708500D01*
X133921674Y-134708500D01*
X132172326Y-134708500D01*
X132172323Y-134708500D01*
X132099264Y-134723032D01*
X132099260Y-134723033D01*
X132016399Y-134778399D01*
X131961033Y-134861260D01*
X131961032Y-134861264D01*
X131946500Y-134934321D01*
X103719578Y-134934321D01*
X103629968Y-134871575D01*
X103586344Y-134816998D01*
X103579151Y-134747499D01*
X103610673Y-134685145D01*
X103629968Y-134668425D01*
X103816082Y-134538105D01*
X103983105Y-134371082D01*
X104118600Y-134177578D01*
X104218429Y-133963492D01*
X104218431Y-133963489D01*
X104227406Y-133929992D01*
X104263770Y-133870331D01*
X104326616Y-133839800D01*
X104395992Y-133848094D01*
X104449871Y-133892578D01*
X104458182Y-133906811D01*
X104545327Y-134081821D01*
X104668237Y-134244581D01*
X104818958Y-134381980D01*
X104818960Y-134381982D01*
X104908504Y-134437425D01*
X104992363Y-134489348D01*
X105182544Y-134563024D01*
X105383024Y-134600500D01*
X105383026Y-134600500D01*
X105586974Y-134600500D01*
X105586976Y-134600500D01*
X105787456Y-134563024D01*
X105977637Y-134489348D01*
X106151041Y-134381981D01*
X106286660Y-134258348D01*
X106301762Y-134244581D01*
X106301764Y-134244579D01*
X106424673Y-134081821D01*
X106515582Y-133899250D01*
X106571397Y-133703083D01*
X106590215Y-133500000D01*
X106584115Y-133434174D01*
X106571397Y-133296917D01*
X106563454Y-133269000D01*
X106515582Y-133100750D01*
X106515159Y-133099901D01*
X106465415Y-133000000D01*
X106424673Y-132918179D01*
X106337751Y-132803075D01*
X106301762Y-132755418D01*
X106151041Y-132618019D01*
X106151039Y-132618017D01*
X105977642Y-132510655D01*
X105977635Y-132510651D01*
X105851769Y-132461891D01*
X105787456Y-132436976D01*
X105586976Y-132399500D01*
X105383024Y-132399500D01*
X105182544Y-132436976D01*
X105182541Y-132436976D01*
X105182541Y-132436977D01*
X104992364Y-132510651D01*
X104992357Y-132510655D01*
X104818960Y-132618017D01*
X104818958Y-132618019D01*
X104668237Y-132755418D01*
X104545327Y-132918178D01*
X104458182Y-133093188D01*
X104410679Y-133144425D01*
X104343016Y-133161846D01*
X104276676Y-133139920D01*
X104232721Y-133085609D01*
X104227407Y-133070008D01*
X104218434Y-133036518D01*
X104218429Y-133036507D01*
X104118600Y-132822422D01*
X104118599Y-132822420D01*
X103983113Y-132628926D01*
X103983108Y-132628920D01*
X103816082Y-132461894D01*
X103622578Y-132326399D01*
X103408492Y-132226570D01*
X103408486Y-132226567D01*
X103195000Y-132169364D01*
X103195000Y-133066988D01*
X103137993Y-133034075D01*
X103010826Y-133000000D01*
X102879174Y-133000000D01*
X102752007Y-133034075D01*
X102695000Y-133066988D01*
X102695000Y-132169364D01*
X102694999Y-132169364D01*
X102481513Y-132226567D01*
X102481507Y-132226570D01*
X102267422Y-132326399D01*
X102267420Y-132326400D01*
X102073926Y-132461886D01*
X102073920Y-132461891D01*
X101906891Y-132628920D01*
X101906886Y-132628926D01*
X101771400Y-132822420D01*
X101771399Y-132822422D01*
X101671570Y-133036507D01*
X101671567Y-133036513D01*
X101614364Y-133249999D01*
X101614364Y-133250000D01*
X102511988Y-133250000D01*
X102479075Y-133307007D01*
X102445000Y-133434174D01*
X102445000Y-133565826D01*
X102479075Y-133692993D01*
X102511988Y-133750000D01*
X101614364Y-133750000D01*
X101671567Y-133963486D01*
X101671570Y-133963492D01*
X101771399Y-134177578D01*
X101906894Y-134371082D01*
X102073917Y-134538105D01*
X102260031Y-134668425D01*
X102303656Y-134723003D01*
X102310848Y-134792501D01*
X102279326Y-134854856D01*
X102260031Y-134871575D01*
X102073922Y-135001890D01*
X102073920Y-135001891D01*
X101906891Y-135168920D01*
X101906886Y-135168926D01*
X101771400Y-135362420D01*
X101771399Y-135362422D01*
X101671570Y-135576507D01*
X101671567Y-135576513D01*
X101614364Y-135789999D01*
X101614364Y-135790000D01*
X102511988Y-135790000D01*
X102479075Y-135847007D01*
X102445000Y-135974174D01*
X102445000Y-136105826D01*
X102479075Y-136232993D01*
X102511988Y-136290000D01*
X101614364Y-136290000D01*
X101671567Y-136503486D01*
X101671570Y-136503492D01*
X101771399Y-136717578D01*
X101906894Y-136911082D01*
X102073917Y-137078105D01*
X102267421Y-137213600D01*
X102481507Y-137313429D01*
X102481516Y-137313433D01*
X102572404Y-137337786D01*
X102632064Y-137374151D01*
X102662594Y-137436997D01*
X102654300Y-137506373D01*
X102627992Y-137545242D01*
X101689064Y-138484172D01*
X101595880Y-138577355D01*
X101595878Y-138577358D01*
X101529986Y-138691484D01*
X101495878Y-138818780D01*
X101495878Y-138940953D01*
X101494616Y-138958599D01*
X101490731Y-138985621D01*
X100800500Y-138985621D01*
X100800500Y-132022000D01*
X106223353Y-132022000D01*
X106243834Y-132164456D01*
X106274176Y-132230894D01*
X106303623Y-132295373D01*
X106397872Y-132404143D01*
X106518947Y-132481953D01*
X106518950Y-132481954D01*
X106518949Y-132481954D01*
X106657036Y-132522499D01*
X106657038Y-132522500D01*
X106800500Y-132522500D01*
X106867539Y-132542185D01*
X106913294Y-132594989D01*
X106924500Y-132646500D01*
X106924500Y-134374678D01*
X106939032Y-134447735D01*
X106939033Y-134447739D01*
X106957405Y-134475235D01*
X106994399Y-134530601D01*
X107077260Y-134585966D01*
X107077264Y-134585967D01*
X107150321Y-134600499D01*
X107150324Y-134600500D01*
X107150326Y-134600500D01*
X108899676Y-134600500D01*
X108899677Y-134600499D01*
X108972740Y-134585966D01*
X109055601Y-134530601D01*
X109110966Y-134447740D01*
X109125500Y-134374674D01*
X109125500Y-132625326D01*
X109125500Y-132625323D01*
X109125499Y-132625321D01*
X109110967Y-132552264D01*
X109110966Y-132552260D01*
X109091081Y-132522500D01*
X109055601Y-132469399D01*
X108972740Y-132414034D01*
X108972739Y-132414033D01*
X108972735Y-132414032D01*
X108899677Y-132399500D01*
X108899674Y-132399500D01*
X107299772Y-132399500D01*
X107232733Y-132379815D01*
X107186978Y-132327011D01*
X107177034Y-132257853D01*
X107186978Y-132223989D01*
X107211924Y-132169364D01*
X107214165Y-132164457D01*
X107230447Y-132051208D01*
X107259470Y-131987656D01*
X107265488Y-131981192D01*
X107644470Y-131602212D01*
X107690614Y-131522288D01*
X107708026Y-131457304D01*
X107714500Y-131433144D01*
X107714500Y-130480578D01*
X111213931Y-130480578D01*
X111234412Y-130623034D01*
X111242520Y-130640787D01*
X111294201Y-130753951D01*
X111388450Y-130862721D01*
X111509525Y-130940531D01*
X111509528Y-130940532D01*
X111509527Y-130940532D01*
X111647614Y-130981077D01*
X111647616Y-130981078D01*
X111647617Y-130981078D01*
X111673034Y-130981078D01*
X111740073Y-131000763D01*
X111760715Y-131017397D01*
X111900869Y-131157551D01*
X111934354Y-131218874D01*
X111935926Y-131262877D01*
X111927543Y-131321188D01*
X111927543Y-131321189D01*
X111948024Y-131463646D01*
X111992962Y-131562045D01*
X112007813Y-131594563D01*
X112102062Y-131703333D01*
X112223137Y-131781143D01*
X112223140Y-131781144D01*
X112223139Y-131781144D01*
X112361226Y-131821689D01*
X112361228Y-131821690D01*
X112361229Y-131821690D01*
X112505152Y-131821690D01*
X112505152Y-131821689D01*
X112643243Y-131781143D01*
X112764318Y-131703333D01*
X112858567Y-131594563D01*
X112918355Y-131463647D01*
X112937283Y-131332000D01*
X118161353Y-131332000D01*
X118181834Y-131474456D01*
X118240179Y-131602212D01*
X118241623Y-131605373D01*
X118335872Y-131714143D01*
X118456947Y-131791953D01*
X118456950Y-131791954D01*
X118456949Y-131791954D01*
X118595036Y-131832499D01*
X118595038Y-131832500D01*
X118595039Y-131832500D01*
X118620456Y-131832500D01*
X118687495Y-131852185D01*
X118708137Y-131868819D01*
X119042181Y-132202863D01*
X119075666Y-132264186D01*
X119078500Y-132290544D01*
X119078500Y-133244492D01*
X119058815Y-133311531D01*
X119006011Y-133357286D01*
X118964960Y-133366216D01*
X118965106Y-133367230D01*
X118956326Y-133368492D01*
X118818239Y-133409037D01*
X118697163Y-133486848D01*
X118602913Y-133595618D01*
X118602912Y-133595620D01*
X118543124Y-133726535D01*
X118522643Y-133868992D01*
X118543124Y-134011448D01*
X118575263Y-134081821D01*
X118602913Y-134142365D01*
X118697162Y-134251135D01*
X118818237Y-134328945D01*
X118818240Y-134328946D01*
X118818239Y-134328946D01*
X118956326Y-134369491D01*
X118956328Y-134369492D01*
X118956329Y-134369492D01*
X119100252Y-134369492D01*
X119100252Y-134369491D01*
X119238343Y-134328945D01*
X119359418Y-134251135D01*
X119453667Y-134142365D01*
X119513455Y-134011449D01*
X119529737Y-133898200D01*
X119558760Y-133834648D01*
X119564763Y-133828199D01*
X119709470Y-133683494D01*
X119755614Y-133603570D01*
X119779500Y-133514425D01*
X119779500Y-133422138D01*
X119779500Y-133268999D01*
X131941785Y-133268999D01*
X131941785Y-133269000D01*
X131960602Y-133472082D01*
X132016417Y-133668247D01*
X132016422Y-133668260D01*
X132107327Y-133850821D01*
X132230237Y-134013581D01*
X132369003Y-134140082D01*
X132371505Y-134142363D01*
X132380958Y-134150980D01*
X132380960Y-134150982D01*
X132480141Y-134212392D01*
X132554363Y-134258348D01*
X132744544Y-134332024D01*
X132945024Y-134369500D01*
X132945026Y-134369500D01*
X133148974Y-134369500D01*
X133148976Y-134369500D01*
X133349456Y-134332024D01*
X133539637Y-134258348D01*
X133713041Y-134150981D01*
X133863764Y-134013579D01*
X133986673Y-133850821D01*
X134077582Y-133668250D01*
X134133397Y-133472083D01*
X134152215Y-133269000D01*
X134152215Y-133268999D01*
X134481785Y-133268999D01*
X134481785Y-133269000D01*
X134500602Y-133472082D01*
X134556417Y-133668247D01*
X134556422Y-133668260D01*
X134647327Y-133850821D01*
X134770237Y-134013581D01*
X134909003Y-134140082D01*
X134911505Y-134142363D01*
X134920958Y-134150980D01*
X134920960Y-134150982D01*
X135020141Y-134212392D01*
X135094363Y-134258348D01*
X135284544Y-134332024D01*
X135485024Y-134369500D01*
X135485026Y-134369500D01*
X135688974Y-134369500D01*
X135688976Y-134369500D01*
X135889456Y-134332024D01*
X136079637Y-134258348D01*
X136253041Y-134150981D01*
X136403764Y-134013579D01*
X136526673Y-133850821D01*
X136588598Y-133726456D01*
X136613817Y-133675812D01*
X136661319Y-133624575D01*
X136728982Y-133607153D01*
X136795323Y-133629078D01*
X136839278Y-133683389D01*
X136844592Y-133698989D01*
X136853567Y-133732485D01*
X136853570Y-133732492D01*
X136953399Y-133946578D01*
X137088894Y-134140082D01*
X137255917Y-134307105D01*
X137442031Y-134437425D01*
X137485656Y-134492003D01*
X137492848Y-134561501D01*
X137461326Y-134623856D01*
X137442031Y-134640575D01*
X137255922Y-134770890D01*
X137255920Y-134770891D01*
X137088891Y-134937920D01*
X137088886Y-134937926D01*
X136953400Y-135131420D01*
X136953399Y-135131422D01*
X136853570Y-135345507D01*
X136853568Y-135345511D01*
X136844592Y-135379011D01*
X136808226Y-135438671D01*
X136745379Y-135469199D01*
X136676003Y-135460904D01*
X136622126Y-135416418D01*
X136613817Y-135402188D01*
X136560652Y-135295418D01*
X136526673Y-135227179D01*
X136403764Y-135064421D01*
X136403762Y-135064418D01*
X136253041Y-134927019D01*
X136253039Y-134927017D01*
X136079642Y-134819655D01*
X136079635Y-134819651D01*
X135893387Y-134747499D01*
X135889456Y-134745976D01*
X135688976Y-134708500D01*
X135485024Y-134708500D01*
X135284544Y-134745976D01*
X135284541Y-134745976D01*
X135284541Y-134745977D01*
X135094364Y-134819651D01*
X135094357Y-134819655D01*
X134920960Y-134927017D01*
X134920958Y-134927019D01*
X134770237Y-135064418D01*
X134647327Y-135227178D01*
X134556422Y-135409739D01*
X134556417Y-135409752D01*
X134500602Y-135605917D01*
X134481785Y-135808999D01*
X134481785Y-135809000D01*
X134500602Y-136012082D01*
X134556417Y-136208247D01*
X134556422Y-136208260D01*
X134647327Y-136390821D01*
X134770237Y-136553581D01*
X134920958Y-136690980D01*
X134920960Y-136690982D01*
X134978828Y-136726812D01*
X135094363Y-136798348D01*
X135284544Y-136872024D01*
X135485024Y-136909500D01*
X135485026Y-136909500D01*
X135688974Y-136909500D01*
X135688976Y-136909500D01*
X135889456Y-136872024D01*
X136079637Y-136798348D01*
X136253041Y-136690981D01*
X136403764Y-136553579D01*
X136526673Y-136390821D01*
X136595356Y-136252887D01*
X136613817Y-136215812D01*
X136661319Y-136164575D01*
X136728982Y-136147153D01*
X136795323Y-136169078D01*
X136839278Y-136223389D01*
X136844592Y-136238989D01*
X136853567Y-136272485D01*
X136853570Y-136272492D01*
X136953399Y-136486578D01*
X137088894Y-136680082D01*
X137255917Y-136847105D01*
X137449421Y-136982600D01*
X137663507Y-137082429D01*
X137663516Y-137082433D01*
X137877000Y-137139634D01*
X137877000Y-136242012D01*
X137934007Y-136274925D01*
X138061174Y-136309000D01*
X138192826Y-136309000D01*
X138319993Y-136274925D01*
X138377000Y-136242012D01*
X138377000Y-137139633D01*
X138590483Y-137082433D01*
X138590492Y-137082429D01*
X138804578Y-136982600D01*
X138998082Y-136847105D01*
X139165105Y-136680082D01*
X139300600Y-136486578D01*
X139400429Y-136272492D01*
X139400432Y-136272486D01*
X139457636Y-136059000D01*
X138560012Y-136059000D01*
X138592925Y-136001993D01*
X138627000Y-135874826D01*
X138627000Y-135743174D01*
X138592925Y-135616007D01*
X138560012Y-135559000D01*
X139457636Y-135559000D01*
X139457635Y-135558999D01*
X139400432Y-135345513D01*
X139400429Y-135345507D01*
X139300600Y-135131422D01*
X139300599Y-135131420D01*
X139165113Y-134937926D01*
X139165108Y-134937920D01*
X138998082Y-134770894D01*
X138811968Y-134640575D01*
X138768344Y-134585998D01*
X138761151Y-134516499D01*
X138792673Y-134454145D01*
X138811968Y-134437425D01*
X138998082Y-134307105D01*
X139165105Y-134140082D01*
X139300600Y-133946578D01*
X139400429Y-133732492D01*
X139400432Y-133732486D01*
X139457636Y-133519000D01*
X138560012Y-133519000D01*
X138592925Y-133461993D01*
X138627000Y-133334826D01*
X138627000Y-133203174D01*
X138592925Y-133076007D01*
X138560012Y-133019000D01*
X139457636Y-133019000D01*
X139457635Y-133018999D01*
X139400432Y-132805513D01*
X139400429Y-132805507D01*
X139300600Y-132591422D01*
X139300599Y-132591420D01*
X139165113Y-132397926D01*
X139165108Y-132397920D01*
X138998082Y-132230894D01*
X138804578Y-132095399D01*
X138590492Y-131995570D01*
X138590486Y-131995567D01*
X138377000Y-131938364D01*
X138377000Y-132835988D01*
X138319993Y-132803075D01*
X138192826Y-132769000D01*
X138061174Y-132769000D01*
X137934007Y-132803075D01*
X137877000Y-132835988D01*
X137877000Y-131938364D01*
X137876999Y-131938364D01*
X137663513Y-131995567D01*
X137663507Y-131995570D01*
X137449422Y-132095399D01*
X137449420Y-132095400D01*
X137255926Y-132230886D01*
X137255920Y-132230891D01*
X137088891Y-132397920D01*
X137088886Y-132397926D01*
X136953400Y-132591420D01*
X136953399Y-132591422D01*
X136853570Y-132805507D01*
X136853568Y-132805511D01*
X136844592Y-132839011D01*
X136808226Y-132898671D01*
X136745379Y-132929199D01*
X136676003Y-132920904D01*
X136622126Y-132876418D01*
X136613817Y-132862188D01*
X136560652Y-132755418D01*
X136526673Y-132687179D01*
X136403764Y-132524421D01*
X136403762Y-132524418D01*
X136253041Y-132387019D01*
X136253039Y-132387017D01*
X136079642Y-132279655D01*
X136079635Y-132279651D01*
X135953769Y-132230891D01*
X135889456Y-132205976D01*
X135688976Y-132168500D01*
X135485024Y-132168500D01*
X135284544Y-132205976D01*
X135284541Y-132205976D01*
X135284541Y-132205977D01*
X135094364Y-132279651D01*
X135094357Y-132279655D01*
X134920960Y-132387017D01*
X134920958Y-132387019D01*
X134770237Y-132524418D01*
X134647327Y-132687178D01*
X134556422Y-132869739D01*
X134556417Y-132869752D01*
X134500602Y-133065917D01*
X134481785Y-133268999D01*
X134152215Y-133268999D01*
X134150454Y-133250000D01*
X134133397Y-133065917D01*
X134120048Y-133019000D01*
X134077582Y-132869750D01*
X134077159Y-132868901D01*
X134020652Y-132755418D01*
X133986673Y-132687179D01*
X133863764Y-132524421D01*
X133863762Y-132524418D01*
X133713041Y-132387019D01*
X133713039Y-132387017D01*
X133539642Y-132279655D01*
X133539635Y-132279651D01*
X133413769Y-132230891D01*
X133349456Y-132205976D01*
X133148976Y-132168500D01*
X132945024Y-132168500D01*
X132744544Y-132205976D01*
X132744541Y-132205976D01*
X132744541Y-132205977D01*
X132554364Y-132279651D01*
X132554357Y-132279655D01*
X132380960Y-132387017D01*
X132380958Y-132387019D01*
X132230237Y-132524418D01*
X132107327Y-132687178D01*
X132016422Y-132869739D01*
X132016417Y-132869752D01*
X131960602Y-133065917D01*
X131941785Y-133268999D01*
X119779500Y-133268999D01*
X119779500Y-132047856D01*
X119755614Y-131958712D01*
X119709470Y-131878788D01*
X119203503Y-131372821D01*
X119170018Y-131311498D01*
X119168449Y-131302805D01*
X119152165Y-131189543D01*
X119092377Y-131058627D01*
X118998128Y-130949857D01*
X118877053Y-130872047D01*
X118877051Y-130872046D01*
X118877049Y-130872045D01*
X118877050Y-130872045D01*
X118738963Y-130831500D01*
X118738961Y-130831500D01*
X118595039Y-130831500D01*
X118595036Y-130831500D01*
X118456949Y-130872045D01*
X118335873Y-130949856D01*
X118241623Y-131058626D01*
X118241622Y-131058628D01*
X118181834Y-131189543D01*
X118161353Y-131332000D01*
X112937283Y-131332000D01*
X112938837Y-131321190D01*
X112918355Y-131178733D01*
X112858567Y-131047817D01*
X112764318Y-130939047D01*
X112643243Y-130861237D01*
X112643240Y-130861236D01*
X112606611Y-130850480D01*
X112553867Y-130819185D01*
X112256081Y-130521399D01*
X112222596Y-130460076D01*
X112221027Y-130451383D01*
X112204743Y-130338121D01*
X112144955Y-130207205D01*
X112050706Y-130098435D01*
X111929631Y-130020625D01*
X111929629Y-130020624D01*
X111929627Y-130020623D01*
X111929628Y-130020623D01*
X111791541Y-129980078D01*
X111791539Y-129980078D01*
X111647617Y-129980078D01*
X111647614Y-129980078D01*
X111509527Y-130020623D01*
X111388451Y-130098434D01*
X111294201Y-130207204D01*
X111294200Y-130207206D01*
X111234412Y-130338121D01*
X111213931Y-130480578D01*
X107714500Y-130480578D01*
X107714500Y-129420645D01*
X107734185Y-129353606D01*
X107771461Y-129316329D01*
X107888864Y-129240879D01*
X107983113Y-129132109D01*
X108042901Y-129001193D01*
X108063383Y-128858736D01*
X108042901Y-128716279D01*
X107983113Y-128585363D01*
X107888864Y-128476593D01*
X107767789Y-128398783D01*
X107767787Y-128398782D01*
X107767785Y-128398781D01*
X107767786Y-128398781D01*
X107629699Y-128358236D01*
X107629697Y-128358236D01*
X107485775Y-128358236D01*
X107485772Y-128358236D01*
X107347685Y-128398781D01*
X107226609Y-128476592D01*
X107132359Y-128585362D01*
X107132358Y-128585364D01*
X107072570Y-128716279D01*
X107050827Y-128867514D01*
X107049714Y-128867354D01*
X107038588Y-128908886D01*
X107040496Y-128909677D01*
X107037386Y-128917183D01*
X107013500Y-129006328D01*
X107013500Y-131190456D01*
X106993815Y-131257495D01*
X106977181Y-131278137D01*
X106770137Y-131485181D01*
X106708814Y-131518666D01*
X106682456Y-131521500D01*
X106657036Y-131521500D01*
X106518949Y-131562045D01*
X106397873Y-131639856D01*
X106303623Y-131748626D01*
X106303622Y-131748628D01*
X106243834Y-131879543D01*
X106223353Y-132022000D01*
X100800500Y-132022000D01*
X100800500Y-127889000D01*
X121414353Y-127889000D01*
X121434834Y-128031456D01*
X121463697Y-128094656D01*
X121494623Y-128162373D01*
X121588872Y-128271143D01*
X121709947Y-128348953D01*
X121709950Y-128348954D01*
X121709949Y-128348954D01*
X121813791Y-128379444D01*
X121821685Y-128381762D01*
X121848036Y-128389499D01*
X121848038Y-128389500D01*
X121848039Y-128389500D01*
X121991962Y-128389500D01*
X121991962Y-128389499D01*
X122130053Y-128348953D01*
X122251128Y-128271143D01*
X122251136Y-128271133D01*
X122252688Y-128269790D01*
X122254572Y-128268929D01*
X122258589Y-128266348D01*
X122258960Y-128266925D01*
X122316243Y-128240763D01*
X122333895Y-128239500D01*
X122776105Y-128239500D01*
X122843144Y-128259185D01*
X122857312Y-128269790D01*
X122858866Y-128271137D01*
X122858872Y-128271143D01*
X122979947Y-128348953D01*
X122979950Y-128348954D01*
X122979949Y-128348954D01*
X123083791Y-128379444D01*
X123091685Y-128381762D01*
X123118036Y-128389499D01*
X123118038Y-128389500D01*
X123118039Y-128389500D01*
X123261962Y-128389500D01*
X123261962Y-128389499D01*
X123400053Y-128348953D01*
X123521128Y-128271143D01*
X123548715Y-128239306D01*
X127160047Y-128239306D01*
X127180528Y-128381762D01*
X127233522Y-128497800D01*
X127240317Y-128512679D01*
X127284907Y-128564139D01*
X127313932Y-128627694D01*
X127315194Y-128645341D01*
X127315194Y-130169338D01*
X127320609Y-130189547D01*
X127334726Y-130242233D01*
X127339080Y-130258482D01*
X127339081Y-130258484D01*
X127385221Y-130338402D01*
X127385225Y-130338407D01*
X127655495Y-130608677D01*
X127688980Y-130670000D01*
X127690552Y-130678710D01*
X127706834Y-130791956D01*
X127766622Y-130922871D01*
X127766623Y-130922873D01*
X127860872Y-131031643D01*
X127981947Y-131109453D01*
X127981950Y-131109454D01*
X127981949Y-131109454D01*
X128120036Y-131149999D01*
X128120038Y-131150000D01*
X128120039Y-131150000D01*
X128263962Y-131150000D01*
X128263962Y-131149999D01*
X128402053Y-131109453D01*
X128523128Y-131031643D01*
X128542788Y-131008953D01*
X128601564Y-130971180D01*
X128671434Y-130971180D01*
X128730210Y-131008951D01*
X128749872Y-131031643D01*
X128749873Y-131031644D01*
X128775038Y-131047816D01*
X128870947Y-131109453D01*
X128870950Y-131109454D01*
X128870949Y-131109454D01*
X129009036Y-131149999D01*
X129009038Y-131150000D01*
X129009039Y-131150000D01*
X129152962Y-131150000D01*
X129152962Y-131149999D01*
X129291053Y-131109453D01*
X129412128Y-131031643D01*
X129506377Y-130922873D01*
X129566165Y-130791957D01*
X129586647Y-130649500D01*
X129566165Y-130507043D01*
X129506377Y-130376127D01*
X129506374Y-130376123D01*
X129461786Y-130324664D01*
X129432762Y-130261108D01*
X129431500Y-130243463D01*
X129431500Y-128831358D01*
X129431500Y-128831356D01*
X129407614Y-128742212D01*
X129398172Y-128725858D01*
X129368777Y-128674944D01*
X131979297Y-128674944D01*
X131999778Y-128817400D01*
X132045348Y-128917183D01*
X132059567Y-128948317D01*
X132153816Y-129057087D01*
X132274891Y-129134897D01*
X132274894Y-129134898D01*
X132274893Y-129134898D01*
X132412980Y-129175443D01*
X132412982Y-129175444D01*
X132412983Y-129175444D01*
X132438400Y-129175444D01*
X132505439Y-129195129D01*
X132526081Y-129211763D01*
X132944343Y-129630025D01*
X133024268Y-129676170D01*
X133113412Y-129700056D01*
X133113414Y-129700056D01*
X134348586Y-129700056D01*
X134348588Y-129700056D01*
X134437732Y-129676170D01*
X134517656Y-129630026D01*
X134730919Y-129416763D01*
X134792242Y-129383278D01*
X134818600Y-129380444D01*
X134844018Y-129380444D01*
X134844018Y-129380443D01*
X134982109Y-129339897D01*
X135103184Y-129262087D01*
X135197433Y-129153317D01*
X135257221Y-129022401D01*
X135277703Y-128879944D01*
X135257221Y-128737487D01*
X135197433Y-128606571D01*
X135103184Y-128497801D01*
X134982109Y-128419991D01*
X134982107Y-128419990D01*
X134982105Y-128419989D01*
X134982106Y-128419989D01*
X134844019Y-128379444D01*
X134844017Y-128379444D01*
X134700095Y-128379444D01*
X134700092Y-128379444D01*
X134562005Y-128419989D01*
X134450650Y-128491552D01*
X134383610Y-128511236D01*
X134316571Y-128491551D01*
X134289898Y-128468439D01*
X134287424Y-128465584D01*
X134245684Y-128417413D01*
X134124609Y-128339603D01*
X134124607Y-128339602D01*
X134124605Y-128339601D01*
X134124606Y-128339601D01*
X133986519Y-128299056D01*
X133986517Y-128299056D01*
X133842595Y-128299056D01*
X133834100Y-128299056D01*
X133767061Y-128279371D01*
X133746419Y-128262737D01*
X133610447Y-128126765D01*
X133576962Y-128065442D01*
X133575393Y-128056749D01*
X133559109Y-127943487D01*
X133499321Y-127812571D01*
X133405072Y-127703801D01*
X133283997Y-127625991D01*
X133283995Y-127625990D01*
X133283993Y-127625989D01*
X133283994Y-127625989D01*
X133145907Y-127585444D01*
X133145905Y-127585444D01*
X133001983Y-127585444D01*
X133001980Y-127585444D01*
X132863893Y-127625989D01*
X132742817Y-127703800D01*
X132648567Y-127812570D01*
X132648566Y-127812572D01*
X132588778Y-127943487D01*
X132570864Y-128068091D01*
X132541839Y-128131646D01*
X132483061Y-128169421D01*
X132448126Y-128174444D01*
X132412980Y-128174444D01*
X132274893Y-128214989D01*
X132153817Y-128292800D01*
X132059567Y-128401570D01*
X132059566Y-128401572D01*
X131999778Y-128532487D01*
X131979297Y-128674944D01*
X129368777Y-128674944D01*
X129361470Y-128662288D01*
X129035253Y-128336071D01*
X129001768Y-128274748D01*
X129000199Y-128266055D01*
X128983915Y-128152793D01*
X128924127Y-128021877D01*
X128829878Y-127913107D01*
X128708803Y-127835297D01*
X128708801Y-127835296D01*
X128708799Y-127835295D01*
X128708800Y-127835295D01*
X128570713Y-127794750D01*
X128570711Y-127794750D01*
X128426789Y-127794750D01*
X128426786Y-127794750D01*
X128288699Y-127835295D01*
X128179440Y-127905511D01*
X128112400Y-127925195D01*
X128045361Y-127905510D01*
X128018689Y-127882398D01*
X127996824Y-127857165D01*
X127996823Y-127857164D01*
X127996822Y-127857163D01*
X127875747Y-127779353D01*
X127875745Y-127779352D01*
X127875743Y-127779351D01*
X127875744Y-127779351D01*
X127737657Y-127738806D01*
X127737655Y-127738806D01*
X127593733Y-127738806D01*
X127593730Y-127738806D01*
X127455643Y-127779351D01*
X127334567Y-127857162D01*
X127240317Y-127965932D01*
X127240316Y-127965934D01*
X127180528Y-128096849D01*
X127160047Y-128239306D01*
X123548715Y-128239306D01*
X123615377Y-128162373D01*
X123675165Y-128031457D01*
X123695647Y-127889000D01*
X123675165Y-127746543D01*
X123615377Y-127615627D01*
X123521128Y-127506857D01*
X123400053Y-127429047D01*
X123400051Y-127429046D01*
X123400049Y-127429045D01*
X123400050Y-127429045D01*
X123261963Y-127388500D01*
X123261961Y-127388500D01*
X123118039Y-127388500D01*
X123118036Y-127388500D01*
X122979949Y-127429045D01*
X122858876Y-127506854D01*
X122858874Y-127506855D01*
X122858872Y-127506857D01*
X122858870Y-127506858D01*
X122857312Y-127508210D01*
X122855427Y-127509070D01*
X122851411Y-127511652D01*
X122851039Y-127511074D01*
X122793757Y-127537237D01*
X122776105Y-127538500D01*
X122333895Y-127538500D01*
X122266856Y-127518815D01*
X122252688Y-127508210D01*
X122251132Y-127506862D01*
X122251128Y-127506857D01*
X122130053Y-127429047D01*
X122130051Y-127429046D01*
X122130049Y-127429045D01*
X122130050Y-127429045D01*
X121991963Y-127388500D01*
X121991961Y-127388500D01*
X121848039Y-127388500D01*
X121848036Y-127388500D01*
X121709949Y-127429045D01*
X121588873Y-127506856D01*
X121588872Y-127506856D01*
X121588872Y-127506857D01*
X121585218Y-127511074D01*
X121494623Y-127615626D01*
X121494622Y-127615628D01*
X121434834Y-127746543D01*
X121414353Y-127889000D01*
X100800500Y-127889000D01*
X100800500Y-126865444D01*
X116199797Y-126865444D01*
X116220278Y-127007900D01*
X116246414Y-127065128D01*
X116280067Y-127138817D01*
X116374316Y-127247587D01*
X116495391Y-127325397D01*
X116495394Y-127325398D01*
X116495393Y-127325398D01*
X116633480Y-127365943D01*
X116633482Y-127365944D01*
X116633483Y-127365944D01*
X116777406Y-127365944D01*
X116777406Y-127365943D01*
X116915497Y-127325397D01*
X117036572Y-127247587D01*
X117130821Y-127138817D01*
X117140359Y-127117932D01*
X117186114Y-127065128D01*
X117253153Y-127045444D01*
X118237642Y-127045444D01*
X118237644Y-127045444D01*
X118326788Y-127021558D01*
X118406712Y-126975414D01*
X118599863Y-126782263D01*
X118661186Y-126748778D01*
X118687544Y-126745944D01*
X124803202Y-126745944D01*
X124803204Y-126745944D01*
X124892348Y-126722058D01*
X124972272Y-126675914D01*
X126858406Y-124789777D01*
X126919727Y-124756294D01*
X126989418Y-124761278D01*
X127013124Y-124773145D01*
X127043944Y-124792952D01*
X127043949Y-124792954D01*
X127182036Y-124833499D01*
X127182038Y-124833500D01*
X127182039Y-124833500D01*
X127325962Y-124833500D01*
X127325962Y-124833499D01*
X127464053Y-124792953D01*
X127585128Y-124715143D01*
X127679377Y-124606373D01*
X127739165Y-124475457D01*
X127759647Y-124333000D01*
X127739165Y-124190543D01*
X127679377Y-124059627D01*
X127585128Y-123950857D01*
X127585125Y-123950855D01*
X127585126Y-123950855D01*
X127514418Y-123905414D01*
X127468664Y-123852610D01*
X127458720Y-123783452D01*
X127468665Y-123749586D01*
X127485165Y-123713457D01*
X127505647Y-123571000D01*
X127485165Y-123428543D01*
X127425377Y-123297627D01*
X127331128Y-123188857D01*
X127210053Y-123111047D01*
X127210051Y-123111046D01*
X127210049Y-123111045D01*
X127210050Y-123111045D01*
X127071963Y-123070500D01*
X127063184Y-123069238D01*
X127063687Y-123065735D01*
X127012874Y-123050815D01*
X126967119Y-122998011D01*
X126959470Y-122944869D01*
X126956147Y-122944869D01*
X126956147Y-122936000D01*
X126935665Y-122793543D01*
X126908465Y-122733984D01*
X126875877Y-122662627D01*
X126781628Y-122553857D01*
X126660553Y-122476047D01*
X126660551Y-122476046D01*
X126660549Y-122476045D01*
X126660550Y-122476045D01*
X126522463Y-122435500D01*
X126522461Y-122435500D01*
X126378539Y-122435500D01*
X126378536Y-122435500D01*
X126240449Y-122476045D01*
X126119373Y-122553856D01*
X126025123Y-122662626D01*
X126025122Y-122662628D01*
X125965334Y-122793543D01*
X125944853Y-122936000D01*
X125965334Y-123078456D01*
X126022669Y-123204000D01*
X126025123Y-123209373D01*
X126069713Y-123260833D01*
X126098738Y-123324388D01*
X126100000Y-123342035D01*
X126100000Y-123374088D01*
X126080315Y-123441127D01*
X126063681Y-123461769D01*
X124316825Y-125208625D01*
X124255502Y-125242110D01*
X124229144Y-125244944D01*
X118142895Y-125244944D01*
X118075856Y-125225259D01*
X118061688Y-125214654D01*
X118060132Y-125213306D01*
X118060128Y-125213301D01*
X117939053Y-125135491D01*
X117939051Y-125135490D01*
X117939049Y-125135489D01*
X117939050Y-125135489D01*
X117800963Y-125094944D01*
X117800961Y-125094944D01*
X117657039Y-125094944D01*
X117657036Y-125094944D01*
X117518949Y-125135489D01*
X117397873Y-125213300D01*
X117303623Y-125322070D01*
X117303622Y-125322072D01*
X117243834Y-125452987D01*
X117231599Y-125538091D01*
X117202574Y-125601647D01*
X117143796Y-125639421D01*
X117108861Y-125644444D01*
X117022036Y-125644444D01*
X116883949Y-125684989D01*
X116762873Y-125762800D01*
X116668623Y-125871570D01*
X116668622Y-125871572D01*
X116608834Y-126002487D01*
X116588353Y-126144944D01*
X116605239Y-126262394D01*
X116595295Y-126331552D01*
X116549540Y-126384356D01*
X116517438Y-126399017D01*
X116495391Y-126405490D01*
X116374317Y-126483300D01*
X116280067Y-126592070D01*
X116280066Y-126592072D01*
X116220278Y-126722987D01*
X116199797Y-126865444D01*
X100800500Y-126865444D01*
X100800500Y-123204000D01*
X110541353Y-123204000D01*
X110561834Y-123346456D01*
X110593727Y-123416290D01*
X110621623Y-123477373D01*
X110715872Y-123586143D01*
X110836947Y-123663953D01*
X110836950Y-123663954D01*
X110836949Y-123663954D01*
X110975036Y-123704499D01*
X110975038Y-123704500D01*
X110975039Y-123704500D01*
X111118962Y-123704500D01*
X111118962Y-123704499D01*
X111257053Y-123663953D01*
X111378128Y-123586143D01*
X111472377Y-123477373D01*
X111481002Y-123458486D01*
X111526758Y-123405684D01*
X111593796Y-123386000D01*
X113864077Y-123386000D01*
X113931116Y-123405685D01*
X113945284Y-123416290D01*
X113946838Y-123417637D01*
X113946844Y-123417643D01*
X114067919Y-123495453D01*
X114067922Y-123495454D01*
X114067921Y-123495454D01*
X114206008Y-123535999D01*
X114206010Y-123536000D01*
X114206011Y-123536000D01*
X114349934Y-123536000D01*
X114349934Y-123535999D01*
X114488025Y-123495453D01*
X114609100Y-123417643D01*
X114703349Y-123308873D01*
X114763137Y-123177957D01*
X114783619Y-123035500D01*
X114763137Y-122893043D01*
X114703349Y-122762127D01*
X114609100Y-122653357D01*
X114488025Y-122575547D01*
X114488023Y-122575546D01*
X114488021Y-122575545D01*
X114488022Y-122575545D01*
X114349935Y-122535000D01*
X114349933Y-122535000D01*
X114206011Y-122535000D01*
X114206008Y-122535000D01*
X114067921Y-122575545D01*
X113946848Y-122653354D01*
X113946846Y-122653355D01*
X113946844Y-122653357D01*
X113946842Y-122653358D01*
X113945284Y-122654710D01*
X113943399Y-122655570D01*
X113939383Y-122658152D01*
X113939011Y-122657574D01*
X113881729Y-122683737D01*
X113864077Y-122685000D01*
X111169354Y-122685000D01*
X111116079Y-122699275D01*
X111083987Y-122703500D01*
X110975036Y-122703500D01*
X110836949Y-122744045D01*
X110715873Y-122821856D01*
X110621623Y-122930626D01*
X110621622Y-122930628D01*
X110561834Y-123061543D01*
X110541353Y-123204000D01*
X100800500Y-123204000D01*
X100800500Y-118618000D01*
X132463353Y-118618000D01*
X132483834Y-118760456D01*
X132543622Y-118891371D01*
X132543623Y-118891373D01*
X132637872Y-119000143D01*
X132758947Y-119077953D01*
X132758950Y-119077954D01*
X132758949Y-119077954D01*
X132823869Y-119097016D01*
X132882647Y-119134790D01*
X132911673Y-119198345D01*
X132901730Y-119267504D01*
X132855975Y-119320308D01*
X132764874Y-119378855D01*
X132670623Y-119487626D01*
X132670622Y-119487628D01*
X132610834Y-119618543D01*
X132590353Y-119761000D01*
X132610834Y-119903456D01*
X132669184Y-120031223D01*
X132670623Y-120034373D01*
X132764872Y-120143143D01*
X132885947Y-120220953D01*
X132885950Y-120220954D01*
X132885949Y-120220954D01*
X133024036Y-120261499D01*
X133024038Y-120261500D01*
X133024039Y-120261500D01*
X133167962Y-120261500D01*
X133167962Y-120261499D01*
X133306053Y-120220953D01*
X133427128Y-120143143D01*
X133427136Y-120143133D01*
X133428688Y-120141790D01*
X133430572Y-120140929D01*
X133434589Y-120138348D01*
X133434960Y-120138925D01*
X133492243Y-120112763D01*
X133509895Y-120111500D01*
X135312605Y-120111500D01*
X135379644Y-120131185D01*
X135393812Y-120141790D01*
X135395366Y-120143137D01*
X135395372Y-120143143D01*
X135516447Y-120220953D01*
X135516450Y-120220954D01*
X135516449Y-120220954D01*
X135654536Y-120261499D01*
X135654538Y-120261500D01*
X135654539Y-120261500D01*
X135798462Y-120261500D01*
X135798462Y-120261499D01*
X135936553Y-120220953D01*
X136057628Y-120143143D01*
X136151877Y-120034373D01*
X136211665Y-119903457D01*
X136221763Y-119833217D01*
X136250787Y-119769663D01*
X136309565Y-119731888D01*
X136379431Y-119731887D01*
X136424345Y-119745074D01*
X136453038Y-119753500D01*
X136453039Y-119753500D01*
X136596962Y-119753500D01*
X136596962Y-119753499D01*
X136735053Y-119712953D01*
X136856128Y-119635143D01*
X136950377Y-119526373D01*
X137010165Y-119395457D01*
X137030647Y-119253000D01*
X137010165Y-119110543D01*
X136950377Y-118979627D01*
X136856128Y-118870857D01*
X136735053Y-118793047D01*
X136735051Y-118793046D01*
X136735049Y-118793045D01*
X136735050Y-118793045D01*
X136596963Y-118752500D01*
X136596961Y-118752500D01*
X136453039Y-118752500D01*
X136390953Y-118770729D01*
X136321083Y-118770728D01*
X136262306Y-118732952D01*
X136233282Y-118669397D01*
X136225892Y-118618000D01*
X136211665Y-118519043D01*
X136151877Y-118388127D01*
X136057628Y-118279357D01*
X135936553Y-118201547D01*
X135936551Y-118201546D01*
X135936549Y-118201545D01*
X135936550Y-118201545D01*
X135798463Y-118161000D01*
X135798461Y-118161000D01*
X135654539Y-118161000D01*
X135654536Y-118161000D01*
X135516449Y-118201545D01*
X135395376Y-118279354D01*
X135395374Y-118279355D01*
X135395372Y-118279357D01*
X135395370Y-118279358D01*
X135393812Y-118280710D01*
X135391927Y-118281570D01*
X135387911Y-118284152D01*
X135387539Y-118283574D01*
X135330257Y-118309737D01*
X135312605Y-118311000D01*
X133421868Y-118311000D01*
X133354829Y-118291315D01*
X133328154Y-118268201D01*
X133300130Y-118235858D01*
X133246737Y-118201545D01*
X133179053Y-118158047D01*
X133179051Y-118158046D01*
X133179049Y-118158045D01*
X133179050Y-118158045D01*
X133040963Y-118117500D01*
X133040961Y-118117500D01*
X132897039Y-118117500D01*
X132897036Y-118117500D01*
X132758949Y-118158045D01*
X132637873Y-118235856D01*
X132543623Y-118344626D01*
X132543622Y-118344628D01*
X132483834Y-118475543D01*
X132463353Y-118618000D01*
X100800500Y-118618000D01*
X100800500Y-113919000D01*
X127322853Y-113919000D01*
X127343334Y-114061456D01*
X127381556Y-114145149D01*
X127403123Y-114192373D01*
X127497372Y-114301143D01*
X127618447Y-114378953D01*
X127618450Y-114378954D01*
X127618449Y-114378954D01*
X127756536Y-114419499D01*
X127756538Y-114419500D01*
X127756539Y-114419500D01*
X127900462Y-114419500D01*
X127900462Y-114419499D01*
X128038553Y-114378953D01*
X128159628Y-114301143D01*
X128253877Y-114192373D01*
X128313665Y-114061457D01*
X128329947Y-113948208D01*
X128358970Y-113884656D01*
X128364989Y-113878191D01*
X129740469Y-112502712D01*
X129786614Y-112422788D01*
X129789712Y-112411226D01*
X129810500Y-112333644D01*
X129810500Y-112307035D01*
X129830185Y-112239996D01*
X129840782Y-112225837D01*
X129885377Y-112174373D01*
X129945165Y-112043457D01*
X129965647Y-111901000D01*
X129945165Y-111758543D01*
X129885377Y-111627627D01*
X129791128Y-111518857D01*
X129670053Y-111441047D01*
X129670051Y-111441046D01*
X129670049Y-111441045D01*
X129670050Y-111441045D01*
X129531963Y-111400500D01*
X129531961Y-111400500D01*
X129388039Y-111400500D01*
X129388036Y-111400500D01*
X129249949Y-111441045D01*
X129128873Y-111518856D01*
X129034623Y-111627626D01*
X129034622Y-111627628D01*
X128974834Y-111758543D01*
X128954353Y-111901000D01*
X128974834Y-112043456D01*
X129012282Y-112125454D01*
X129022226Y-112194613D01*
X128993201Y-112258169D01*
X128987169Y-112264647D01*
X127869637Y-113382181D01*
X127808314Y-113415666D01*
X127781956Y-113418500D01*
X127756536Y-113418500D01*
X127618449Y-113459045D01*
X127497373Y-113536856D01*
X127403123Y-113645626D01*
X127403122Y-113645628D01*
X127343334Y-113776543D01*
X127322853Y-113919000D01*
X100800500Y-113919000D01*
X100800500Y-109009448D01*
X113698500Y-109009448D01*
X113698500Y-110990551D01*
X113726829Y-111169410D01*
X113782787Y-111341636D01*
X113782788Y-111341639D01*
X113865006Y-111502997D01*
X113971441Y-111649494D01*
X113971445Y-111649499D01*
X114099500Y-111777554D01*
X114099505Y-111777558D01*
X114227287Y-111870396D01*
X114246006Y-111883996D01*
X114339253Y-111931508D01*
X114407360Y-111966211D01*
X114407363Y-111966212D01*
X114492251Y-111993793D01*
X114579591Y-112022171D01*
X114662429Y-112035291D01*
X114758449Y-112050500D01*
X114758454Y-112050500D01*
X114939551Y-112050500D01*
X115026259Y-112036765D01*
X115118409Y-112022171D01*
X115290639Y-111966211D01*
X115451994Y-111883996D01*
X115598501Y-111777553D01*
X115726553Y-111649501D01*
X115832996Y-111502994D01*
X115915211Y-111341639D01*
X115971171Y-111169409D01*
X115995484Y-111015904D01*
X115999500Y-110990551D01*
X115999500Y-109009448D01*
X117198500Y-109009448D01*
X117198500Y-110990551D01*
X117226829Y-111169410D01*
X117282787Y-111341636D01*
X117282788Y-111341639D01*
X117365006Y-111502997D01*
X117471441Y-111649494D01*
X117471445Y-111649499D01*
X117599500Y-111777554D01*
X117599505Y-111777558D01*
X117727287Y-111870396D01*
X117746006Y-111883996D01*
X117839253Y-111931508D01*
X117907360Y-111966211D01*
X117907363Y-111966212D01*
X117992251Y-111993793D01*
X118079591Y-112022171D01*
X118162429Y-112035291D01*
X118258449Y-112050500D01*
X118258454Y-112050500D01*
X118439551Y-112050500D01*
X118526259Y-112036765D01*
X118618409Y-112022171D01*
X118790639Y-111966211D01*
X118951994Y-111883996D01*
X119098501Y-111777553D01*
X119226553Y-111649501D01*
X119332996Y-111502994D01*
X119415211Y-111341639D01*
X119471171Y-111169409D01*
X119495484Y-111015904D01*
X119499500Y-110990551D01*
X119499500Y-109009448D01*
X120698500Y-109009448D01*
X120698500Y-110990551D01*
X120726829Y-111169410D01*
X120782787Y-111341636D01*
X120782788Y-111341639D01*
X120865006Y-111502997D01*
X120971441Y-111649494D01*
X120971445Y-111649499D01*
X121099500Y-111777554D01*
X121099505Y-111777558D01*
X121227287Y-111870396D01*
X121246006Y-111883996D01*
X121339253Y-111931508D01*
X121407360Y-111966211D01*
X121407363Y-111966212D01*
X121492251Y-111993793D01*
X121579591Y-112022171D01*
X121662429Y-112035291D01*
X121758449Y-112050500D01*
X121758454Y-112050500D01*
X121939551Y-112050500D01*
X122026259Y-112036765D01*
X122118409Y-112022171D01*
X122290639Y-111966211D01*
X122451994Y-111883996D01*
X122598501Y-111777553D01*
X122726553Y-111649501D01*
X122832996Y-111502994D01*
X122915211Y-111341639D01*
X122971171Y-111169409D01*
X122995484Y-111015904D01*
X122999500Y-110990551D01*
X122999500Y-109009448D01*
X122983019Y-108905397D01*
X122971171Y-108830591D01*
X122915211Y-108658361D01*
X122915211Y-108658360D01*
X122886740Y-108602484D01*
X122832996Y-108497006D01*
X122764069Y-108402135D01*
X124198500Y-108402135D01*
X124198500Y-111597870D01*
X124198501Y-111597876D01*
X124204908Y-111657483D01*
X124255202Y-111792328D01*
X124255206Y-111792335D01*
X124341452Y-111907544D01*
X124341455Y-111907547D01*
X124456664Y-111993793D01*
X124456671Y-111993797D01*
X124591517Y-112044091D01*
X124591516Y-112044091D01*
X124598444Y-112044835D01*
X124651127Y-112050500D01*
X126046872Y-112050499D01*
X126106483Y-112044091D01*
X126241331Y-111993796D01*
X126356546Y-111907546D01*
X126442796Y-111792331D01*
X126493091Y-111657483D01*
X126499500Y-111597873D01*
X126499499Y-108402128D01*
X126493091Y-108342517D01*
X126442796Y-108207669D01*
X126442795Y-108207668D01*
X126442793Y-108207664D01*
X126356547Y-108092455D01*
X126356544Y-108092452D01*
X126241335Y-108006206D01*
X126241328Y-108006202D01*
X126106482Y-107955908D01*
X126106483Y-107955908D01*
X126046883Y-107949501D01*
X126046881Y-107949500D01*
X126046873Y-107949500D01*
X126046864Y-107949500D01*
X124651129Y-107949500D01*
X124651123Y-107949501D01*
X124591516Y-107955908D01*
X124456671Y-108006202D01*
X124456664Y-108006206D01*
X124341455Y-108092452D01*
X124341452Y-108092455D01*
X124255206Y-108207664D01*
X124255202Y-108207671D01*
X124204908Y-108342517D01*
X124198501Y-108402116D01*
X124198501Y-108402123D01*
X124198500Y-108402135D01*
X122764069Y-108402135D01*
X122726558Y-108350505D01*
X122726554Y-108350500D01*
X122598499Y-108222445D01*
X122598494Y-108222441D01*
X122451997Y-108116006D01*
X122451996Y-108116005D01*
X122451994Y-108116004D01*
X122400300Y-108089664D01*
X122290639Y-108033788D01*
X122290636Y-108033787D01*
X122118410Y-107977829D01*
X121939551Y-107949500D01*
X121939546Y-107949500D01*
X121758454Y-107949500D01*
X121758449Y-107949500D01*
X121579589Y-107977829D01*
X121407363Y-108033787D01*
X121407360Y-108033788D01*
X121246002Y-108116006D01*
X121099505Y-108222441D01*
X121099500Y-108222445D01*
X120971445Y-108350500D01*
X120971441Y-108350505D01*
X120865006Y-108497002D01*
X120782788Y-108658360D01*
X120782787Y-108658363D01*
X120726829Y-108830589D01*
X120698500Y-109009448D01*
X119499500Y-109009448D01*
X119483019Y-108905397D01*
X119471171Y-108830591D01*
X119415211Y-108658361D01*
X119415211Y-108658360D01*
X119386740Y-108602484D01*
X119332996Y-108497006D01*
X119264069Y-108402135D01*
X119226558Y-108350505D01*
X119226554Y-108350500D01*
X119098499Y-108222445D01*
X119098494Y-108222441D01*
X118951997Y-108116006D01*
X118951996Y-108116005D01*
X118951994Y-108116004D01*
X118900300Y-108089664D01*
X118790639Y-108033788D01*
X118790636Y-108033787D01*
X118618410Y-107977829D01*
X118439551Y-107949500D01*
X118439546Y-107949500D01*
X118258454Y-107949500D01*
X118258449Y-107949500D01*
X118079589Y-107977829D01*
X117907363Y-108033787D01*
X117907360Y-108033788D01*
X117746002Y-108116006D01*
X117599505Y-108222441D01*
X117599500Y-108222445D01*
X117471445Y-108350500D01*
X117471441Y-108350505D01*
X117365006Y-108497002D01*
X117282788Y-108658360D01*
X117282787Y-108658363D01*
X117226829Y-108830589D01*
X117198500Y-109009448D01*
X115999500Y-109009448D01*
X115983019Y-108905397D01*
X115971171Y-108830591D01*
X115915211Y-108658361D01*
X115915211Y-108658360D01*
X115886740Y-108602484D01*
X115832996Y-108497006D01*
X115764069Y-108402135D01*
X115726558Y-108350505D01*
X115726554Y-108350500D01*
X115598499Y-108222445D01*
X115598494Y-108222441D01*
X115451997Y-108116006D01*
X115451996Y-108116005D01*
X115451994Y-108116004D01*
X115400300Y-108089664D01*
X115290639Y-108033788D01*
X115290636Y-108033787D01*
X115118410Y-107977829D01*
X114939551Y-107949500D01*
X114939546Y-107949500D01*
X114758454Y-107949500D01*
X114758449Y-107949500D01*
X114579589Y-107977829D01*
X114407363Y-108033787D01*
X114407360Y-108033788D01*
X114246002Y-108116006D01*
X114099505Y-108222441D01*
X114099500Y-108222445D01*
X113971445Y-108350500D01*
X113971441Y-108350505D01*
X113865006Y-108497002D01*
X113782788Y-108658360D01*
X113782787Y-108658363D01*
X113726829Y-108830589D01*
X113698500Y-109009448D01*
X100800500Y-109009448D01*
X100800500Y-104878711D01*
X102149500Y-104878711D01*
X102149500Y-105121288D01*
X102181161Y-105361785D01*
X102243947Y-105596104D01*
X102336773Y-105820205D01*
X102336776Y-105820212D01*
X102458064Y-106030289D01*
X102458066Y-106030292D01*
X102458067Y-106030293D01*
X102605733Y-106222736D01*
X102605739Y-106222743D01*
X102777256Y-106394260D01*
X102777262Y-106394265D01*
X102969711Y-106541936D01*
X103179788Y-106663224D01*
X103403900Y-106756054D01*
X103638211Y-106818838D01*
X103818586Y-106842584D01*
X103878711Y-106850500D01*
X103878712Y-106850500D01*
X104121289Y-106850500D01*
X104169388Y-106844167D01*
X104361789Y-106818838D01*
X104596100Y-106756054D01*
X104820212Y-106663224D01*
X105030289Y-106541936D01*
X105222738Y-106394265D01*
X105394265Y-106222738D01*
X105541936Y-106030289D01*
X105663224Y-105820212D01*
X105756054Y-105596100D01*
X105818838Y-105361789D01*
X105850500Y-105121288D01*
X105850500Y-104878712D01*
X105850500Y-104878711D01*
X136149500Y-104878711D01*
X136149500Y-105121288D01*
X136181161Y-105361785D01*
X136243947Y-105596104D01*
X136336773Y-105820205D01*
X136336776Y-105820212D01*
X136458064Y-106030289D01*
X136458066Y-106030292D01*
X136458067Y-106030293D01*
X136605733Y-106222736D01*
X136605739Y-106222743D01*
X136777256Y-106394260D01*
X136777262Y-106394265D01*
X136969711Y-106541936D01*
X137179788Y-106663224D01*
X137403900Y-106756054D01*
X137638211Y-106818838D01*
X137818586Y-106842584D01*
X137878711Y-106850500D01*
X137878712Y-106850500D01*
X138121289Y-106850500D01*
X138169388Y-106844167D01*
X138361789Y-106818838D01*
X138596100Y-106756054D01*
X138820212Y-106663224D01*
X139030289Y-106541936D01*
X139222738Y-106394265D01*
X139394265Y-106222738D01*
X139541936Y-106030289D01*
X139663224Y-105820212D01*
X139756054Y-105596100D01*
X139818838Y-105361789D01*
X139850500Y-105121288D01*
X139850500Y-104878712D01*
X139818838Y-104638211D01*
X139756054Y-104403900D01*
X139663224Y-104179788D01*
X139541936Y-103969711D01*
X139394265Y-103777262D01*
X139394260Y-103777256D01*
X139222743Y-103605739D01*
X139222736Y-103605733D01*
X139030293Y-103458067D01*
X139030292Y-103458066D01*
X139030289Y-103458064D01*
X138820212Y-103336776D01*
X138820205Y-103336773D01*
X138596104Y-103243947D01*
X138361785Y-103181161D01*
X138121289Y-103149500D01*
X138121288Y-103149500D01*
X137878712Y-103149500D01*
X137878711Y-103149500D01*
X137638214Y-103181161D01*
X137403895Y-103243947D01*
X137179794Y-103336773D01*
X137179785Y-103336777D01*
X136969706Y-103458067D01*
X136777263Y-103605733D01*
X136777256Y-103605739D01*
X136605739Y-103777256D01*
X136605733Y-103777263D01*
X136458067Y-103969706D01*
X136336777Y-104179785D01*
X136336773Y-104179794D01*
X136243947Y-104403895D01*
X136181161Y-104638214D01*
X136149500Y-104878711D01*
X105850500Y-104878711D01*
X105818838Y-104638211D01*
X105756054Y-104403900D01*
X105663224Y-104179788D01*
X105541936Y-103969711D01*
X105394265Y-103777262D01*
X105394260Y-103777256D01*
X105222743Y-103605739D01*
X105222736Y-103605733D01*
X105030293Y-103458067D01*
X105030292Y-103458066D01*
X105030289Y-103458064D01*
X104820212Y-103336776D01*
X104820205Y-103336773D01*
X104596104Y-103243947D01*
X104361785Y-103181161D01*
X104121289Y-103149500D01*
X104121288Y-103149500D01*
X103878712Y-103149500D01*
X103878711Y-103149500D01*
X103638214Y-103181161D01*
X103403895Y-103243947D01*
X103179794Y-103336773D01*
X103179785Y-103336777D01*
X102969706Y-103458067D01*
X102777263Y-103605733D01*
X102777256Y-103605739D01*
X102605739Y-103777256D01*
X102605733Y-103777263D01*
X102458067Y-103969706D01*
X102336777Y-104179785D01*
X102336773Y-104179794D01*
X102243947Y-104403895D01*
X102181161Y-104638214D01*
X102149500Y-104878711D01*
X100800500Y-104878711D01*
X100800500Y-101924500D01*
X100820185Y-101857461D01*
X100872989Y-101811706D01*
X100924500Y-101800500D01*
X141075500Y-101800500D01*
X141142539Y-101820185D01*
G37*
%TD.AperFunction*%
%TD*%
M02*
