%TF.GenerationSoftware,KiCad,Pcbnew,8.0.2*%
%TF.CreationDate,2024-09-07T15:44:47+02:00*%
%TF.ProjectId,OS-servoDriver,4f532d73-6572-4766-9f44-72697665722e,rev?*%
%TF.SameCoordinates,Original*%
%TF.FileFunction,Copper,L1,Top*%
%TF.FilePolarity,Positive*%
%FSLAX46Y46*%
G04 Gerber Fmt 4.6, Leading zero omitted, Abs format (unit mm)*
G04 Created by KiCad (PCBNEW 8.0.2) date 2024-09-07 15:44:47*
%MOMM*%
%LPD*%
G01*
G04 APERTURE LIST*
G04 Aperture macros list*
%AMRoundRect*
0 Rectangle with rounded corners*
0 $1 Rounding radius*
0 $2 $3 $4 $5 $6 $7 $8 $9 X,Y pos of 4 corners*
0 Add a 4 corners polygon primitive as box body*
4,1,4,$2,$3,$4,$5,$6,$7,$8,$9,$2,$3,0*
0 Add four circle primitives for the rounded corners*
1,1,$1+$1,$2,$3*
1,1,$1+$1,$4,$5*
1,1,$1+$1,$6,$7*
1,1,$1+$1,$8,$9*
0 Add four rect primitives between the rounded corners*
20,1,$1+$1,$2,$3,$4,$5,0*
20,1,$1+$1,$4,$5,$6,$7,0*
20,1,$1+$1,$6,$7,$8,$9,0*
20,1,$1+$1,$8,$9,$2,$3,0*%
%AMRotRect*
0 Rectangle, with rotation*
0 The origin of the aperture is its center*
0 $1 length*
0 $2 width*
0 $3 Rotation angle, in degrees counterclockwise*
0 Add horizontal line*
21,1,$1,$2,0,0,$3*%
G04 Aperture macros list end*
%TA.AperFunction,SMDPad,CuDef*%
%ADD10RoundRect,0.225000X-0.225000X-0.250000X0.225000X-0.250000X0.225000X0.250000X-0.225000X0.250000X0*%
%TD*%
%TA.AperFunction,ComponentPad*%
%ADD11O,1.800000X3.600000*%
%TD*%
%TA.AperFunction,ComponentPad*%
%ADD12RoundRect,0.250000X0.650000X1.550000X-0.650000X1.550000X-0.650000X-1.550000X0.650000X-1.550000X0*%
%TD*%
%TA.AperFunction,SMDPad,CuDef*%
%ADD13RoundRect,0.112500X-0.187500X-0.112500X0.187500X-0.112500X0.187500X0.112500X-0.187500X0.112500X0*%
%TD*%
%TA.AperFunction,SMDPad,CuDef*%
%ADD14RoundRect,0.250000X1.950000X1.000000X-1.950000X1.000000X-1.950000X-1.000000X1.950000X-1.000000X0*%
%TD*%
%TA.AperFunction,ComponentPad*%
%ADD15O,1.700000X1.700000*%
%TD*%
%TA.AperFunction,ComponentPad*%
%ADD16R,1.700000X1.700000*%
%TD*%
%TA.AperFunction,SMDPad,CuDef*%
%ADD17RoundRect,0.237500X-0.250000X-0.237500X0.250000X-0.237500X0.250000X0.237500X-0.250000X0.237500X0*%
%TD*%
%TA.AperFunction,SMDPad,CuDef*%
%ADD18R,1.550000X1.205000*%
%TD*%
%TA.AperFunction,SMDPad,CuDef*%
%ADD19R,0.610000X1.910000*%
%TD*%
%TA.AperFunction,SMDPad,CuDef*%
%ADD20RoundRect,0.250000X-0.450000X0.325000X-0.450000X-0.325000X0.450000X-0.325000X0.450000X0.325000X0*%
%TD*%
%TA.AperFunction,SMDPad,CuDef*%
%ADD21R,1.550000X1.300000*%
%TD*%
%TA.AperFunction,SMDPad,CuDef*%
%ADD22RoundRect,0.140000X-0.219203X-0.021213X-0.021213X-0.219203X0.219203X0.021213X0.021213X0.219203X0*%
%TD*%
%TA.AperFunction,SMDPad,CuDef*%
%ADD23R,1.300000X1.550000*%
%TD*%
%TA.AperFunction,SMDPad,CuDef*%
%ADD24RoundRect,0.200000X0.200000X0.275000X-0.200000X0.275000X-0.200000X-0.275000X0.200000X-0.275000X0*%
%TD*%
%TA.AperFunction,SMDPad,CuDef*%
%ADD25RoundRect,0.160000X-0.160000X0.197500X-0.160000X-0.197500X0.160000X-0.197500X0.160000X0.197500X0*%
%TD*%
%TA.AperFunction,SMDPad,CuDef*%
%ADD26RoundRect,0.225000X-0.250000X0.225000X-0.250000X-0.225000X0.250000X-0.225000X0.250000X0.225000X0*%
%TD*%
%TA.AperFunction,SMDPad,CuDef*%
%ADD27RoundRect,0.162500X0.162500X-1.012500X0.162500X1.012500X-0.162500X1.012500X-0.162500X-1.012500X0*%
%TD*%
%TA.AperFunction,SMDPad,CuDef*%
%ADD28RoundRect,0.200000X-0.200000X-0.275000X0.200000X-0.275000X0.200000X0.275000X-0.200000X0.275000X0*%
%TD*%
%TA.AperFunction,SMDPad,CuDef*%
%ADD29RoundRect,0.237500X0.250000X0.237500X-0.250000X0.237500X-0.250000X-0.237500X0.250000X-0.237500X0*%
%TD*%
%TA.AperFunction,SMDPad,CuDef*%
%ADD30RoundRect,0.225000X0.225000X0.250000X-0.225000X0.250000X-0.225000X-0.250000X0.225000X-0.250000X0*%
%TD*%
%TA.AperFunction,SMDPad,CuDef*%
%ADD31RotRect,1.600000X0.550000X315.000000*%
%TD*%
%TA.AperFunction,SMDPad,CuDef*%
%ADD32RotRect,1.600000X0.550000X225.000000*%
%TD*%
%TA.AperFunction,SMDPad,CuDef*%
%ADD33RoundRect,0.250000X1.000000X0.650000X-1.000000X0.650000X-1.000000X-0.650000X1.000000X-0.650000X0*%
%TD*%
%TA.AperFunction,SMDPad,CuDef*%
%ADD34RoundRect,0.300000X0.300000X-0.400000X0.300000X0.400000X-0.300000X0.400000X-0.300000X-0.400000X0*%
%TD*%
%TA.AperFunction,SMDPad,CuDef*%
%ADD35RoundRect,0.140000X-0.140000X-0.170000X0.140000X-0.170000X0.140000X0.170000X-0.140000X0.170000X0*%
%TD*%
%TA.AperFunction,SMDPad,CuDef*%
%ADD36R,2.600000X8.200000*%
%TD*%
%TA.AperFunction,ViaPad*%
%ADD37C,0.500000*%
%TD*%
%TA.AperFunction,ViaPad*%
%ADD38C,0.800000*%
%TD*%
%TA.AperFunction,Conductor*%
%ADD39C,0.200000*%
%TD*%
%TA.AperFunction,Conductor*%
%ADD40C,0.500000*%
%TD*%
%TA.AperFunction,Conductor*%
%ADD41C,0.250000*%
%TD*%
%TA.AperFunction,Conductor*%
%ADD42C,1.000000*%
%TD*%
%TA.AperFunction,Conductor*%
%ADD43C,0.700000*%
%TD*%
%TA.AperFunction,Conductor*%
%ADD44C,0.140000*%
%TD*%
G04 APERTURE END LIST*
D10*
%TO.P,C1001,1*%
%TO.N,VCC*%
X116573000Y-114935000D03*
%TO.P,C1001,2*%
%TO.N,GND*%
X118123000Y-114935000D03*
%TD*%
D11*
%TO.P,J101,4,Pin_4*%
%TO.N,/D_bridge/AC_1*%
X114849000Y-110000000D03*
%TO.P,J101,3,Pin_3*%
%TO.N,/D_bridge/AC_2*%
X118349000Y-110000000D03*
%TO.P,J101,2,Pin_2*%
%TO.N,/DCC/DCC_A*%
X121849000Y-110000000D03*
D12*
%TO.P,J101,1,Pin_1*%
%TO.N,/DCC/DCC_B*%
X125349000Y-110000000D03*
%TD*%
D13*
%TO.P,D401,1,K*%
%TO.N,+5V*%
X110456000Y-160528000D03*
%TO.P,D401,2,A*%
%TO.N,+5VA*%
X112556000Y-160528000D03*
%TD*%
D10*
%TO.P,C402,1*%
%TO.N,+5V*%
X110477000Y-162560000D03*
%TO.P,C402,2*%
%TO.N,GND*%
X112027000Y-162560000D03*
%TD*%
D14*
%TO.P,C401,1*%
%TO.N,+5VA*%
X110634000Y-154686000D03*
%TO.P,C401,2*%
%TO.N,GND*%
X103234000Y-154686000D03*
%TD*%
D15*
%TO.P,J801,6,Pin_6*%
%TO.N,GND*%
X138000000Y-144000000D03*
%TO.P,J801,5,Pin_5*%
X138000000Y-146540000D03*
%TO.P,J801,4,Pin_4*%
%TO.N,+5VA*%
X135460000Y-144000000D03*
%TO.P,J801,3,Pin_3*%
X135460000Y-146540000D03*
%TO.P,J801,2,Pin_2*%
%TO.N,/atmega/bus2.pin2*%
X132920000Y-144000000D03*
D16*
%TO.P,J801,1,Pin_1*%
%TO.N,/atmega/bus2.pin1*%
X132920000Y-146540000D03*
%TD*%
D17*
%TO.P,R1002,1*%
%TO.N,+5V*%
X130175500Y-110820000D03*
%TO.P,R1002,2*%
%TO.N,Net-(U1001-EN)*%
X132000500Y-110820000D03*
%TD*%
D18*
%TO.P,U901,9,GND*%
%TO.N,GND*%
X125473500Y-140381000D03*
X123923500Y-140381000D03*
X125473500Y-141586000D03*
X123923500Y-141586000D03*
D19*
%TO.P,U901,8,NC*%
%TO.N,unconnected-(U901-NC-Pad8)*%
X122793500Y-138203500D03*
%TO.P,U901,7,EN*%
%TO.N,VCC*%
X124063500Y-138203500D03*
%TO.P,U901,6,NC*%
%TO.N,unconnected-(U901-NC-Pad6)*%
X125333500Y-138203500D03*
%TO.P,U901,5,FB*%
%TO.N,Net-(U901-FB)*%
X126603500Y-138203500D03*
%TO.P,U901,4,GND*%
%TO.N,GND*%
X126603500Y-143763500D03*
%TO.P,U901,3,SW*%
%TO.N,Net-(U901-SW)*%
X125333500Y-143763500D03*
%TO.P,U901,2,Vin*%
%TO.N,VCC*%
X124063500Y-143763500D03*
%TO.P,U901,1,BS*%
%TO.N,Net-(U901-BS)*%
X122793500Y-143763500D03*
%TD*%
D17*
%TO.P,R1001,1*%
%TO.N,/DCC/DCC_A*%
X129921500Y-125298000D03*
%TO.P,R1001,2*%
%TO.N,Net-(D1001-K)*%
X131746500Y-125298000D03*
%TD*%
D10*
%TO.P,C904,2*%
%TO.N,GND*%
X121028500Y-140620000D03*
%TO.P,C904,1*%
%TO.N,+5VA*%
X119478500Y-140620000D03*
%TD*%
D20*
%TO.P,D201,2,A*%
%TO.N,Net-(D201-A)*%
X108585000Y-173364000D03*
%TO.P,D201,1,K*%
%TO.N,/atmega/LED*%
X108585000Y-171314000D03*
%TD*%
D21*
%TO.P,SW602,2,2*%
%TO.N,/atmega/sw2*%
X125434527Y-164935805D03*
X117484527Y-164935805D03*
%TO.P,SW602,1,1*%
%TO.N,GND*%
X125434527Y-160435805D03*
X117484527Y-160435805D03*
%TD*%
D22*
%TO.P,C202,1*%
%TO.N,+5V*%
X121444695Y-122868000D03*
%TO.P,C202,2*%
%TO.N,GND*%
X122123517Y-123546822D03*
%TD*%
D17*
%TO.P,R702,1*%
%TO.N,/atmega/bus1.pin2*%
X133057500Y-130483500D03*
%TO.P,R702,2*%
%TO.N,+5V*%
X134882500Y-130483500D03*
%TD*%
D15*
%TO.P,J1001,6,Pin_6*%
%TO.N,GND*%
X102945000Y-136040000D03*
%TO.P,J1001,5,Pin_5*%
X102945000Y-133500000D03*
%TO.P,J1001,4,Pin_4*%
%TO.N,+5VA*%
X105485000Y-136040000D03*
%TO.P,J1001,3,Pin_3*%
X105485000Y-133500000D03*
%TO.P,J1001,2,Pin_2*%
%TO.N,/atmega/bus4.pin2*%
X108025000Y-136040000D03*
D16*
%TO.P,J1001,1,Pin_1*%
%TO.N,/atmega/bus4.pin1*%
X108025000Y-133500000D03*
%TD*%
D15*
%TO.P,J701,6,Pin_6*%
%TO.N,GND*%
X138127000Y-133269000D03*
%TO.P,J701,5,Pin_5*%
X138127000Y-135809000D03*
%TO.P,J701,4,Pin_4*%
%TO.N,+5VA*%
X135587000Y-133269000D03*
%TO.P,J701,3,Pin_3*%
X135587000Y-135809000D03*
%TO.P,J701,2,Pin_2*%
%TO.N,/atmega/bus1.pin2*%
X133047000Y-133269000D03*
D16*
%TO.P,J701,1,Pin_1*%
%TO.N,/atmega/bus1.pin1*%
X133047000Y-135809000D03*
%TD*%
D23*
%TO.P,SW601,2,2*%
%TO.N,/atmega/sw1*%
X115200527Y-165060805D03*
X115200527Y-173010805D03*
%TO.P,SW601,1,1*%
%TO.N,GND*%
X110700527Y-165060805D03*
X110700527Y-173010805D03*
%TD*%
D24*
%TO.P,R903,2*%
%TO.N,+5VA*%
X120444500Y-136063000D03*
%TO.P,R903,1*%
%TO.N,Net-(U901-FB)*%
X122094500Y-136063000D03*
%TD*%
D25*
%TO.P,R202,2*%
%TO.N,+5V*%
X137287000Y-126200500D03*
%TO.P,R202,1*%
%TO.N,/atmega/reset*%
X137287000Y-125005500D03*
%TD*%
D21*
%TO.P,SW605,2,2*%
%TO.N,/atmega/sw5*%
X137245527Y-162141805D03*
X129295527Y-162141805D03*
%TO.P,SW605,1,1*%
%TO.N,GND*%
X137245527Y-157641805D03*
X129295527Y-157641805D03*
%TD*%
D15*
%TO.P,J901,6,Pin_6*%
%TO.N,GND*%
X102945000Y-146540000D03*
%TO.P,J901,5,Pin_5*%
X102945000Y-144000000D03*
%TO.P,J901,4,Pin_4*%
%TO.N,+5VA*%
X105485000Y-146540000D03*
%TO.P,J901,3,Pin_3*%
X105485000Y-144000000D03*
%TO.P,J901,2,Pin_2*%
%TO.N,/atmega/bus3.pin2*%
X108025000Y-146540000D03*
D16*
%TO.P,J901,1,Pin_1*%
%TO.N,/atmega/bus3.pin1*%
X108025000Y-144000000D03*
%TD*%
D26*
%TO.P,C201,2*%
%TO.N,/atmega/X1*%
X124206695Y-120976000D03*
%TO.P,C201,1*%
%TO.N,GND*%
X124206695Y-119426000D03*
%TD*%
D27*
%TO.P,U1001,8,VCC*%
%TO.N,+5V*%
X129460000Y-113450000D03*
%TO.P,U1001,7,EN*%
%TO.N,Net-(U1001-EN)*%
X132000000Y-113450000D03*
%TO.P,U1001,6,VO*%
%TO.N,/DCC/DCC_TTL*%
X134540000Y-113450000D03*
%TO.P,U1001,5,GND*%
%TO.N,GND*%
X137080000Y-113450000D03*
%TO.P,U1001,4*%
%TO.N,N/C*%
X137080000Y-122500000D03*
%TO.P,U1001,3,C*%
%TO.N,/DCC/DCC_B*%
X134540000Y-122500000D03*
%TO.P,U1001,2,A*%
%TO.N,Net-(D1001-K)*%
X132000000Y-122500000D03*
%TO.P,U1001,1,NC*%
%TO.N,unconnected-(U1001-NC-Pad1)*%
X129460000Y-122500000D03*
%TD*%
D15*
%TO.P,J201,6,Pin_6*%
%TO.N,/atmega/reset*%
X140000000Y-123315805D03*
%TO.P,J201,5,Pin_5*%
%TO.N,/atmega/MOSI*%
X140000000Y-120775805D03*
%TO.P,J201,4,Pin_4*%
%TO.N,/atmega/MISO*%
X140000000Y-118235805D03*
%TO.P,J201,3,Pin_3*%
%TO.N,/atmega/LED*%
X140000000Y-115695805D03*
%TO.P,J201,2,Pin_2*%
%TO.N,+5V*%
X140000000Y-113155805D03*
D16*
%TO.P,J201,1,Pin_1*%
%TO.N,GND*%
X140000000Y-110615805D03*
%TD*%
D28*
%TO.P,R901,2*%
%TO.N,Net-(U901-FB)*%
X122094500Y-134412000D03*
%TO.P,R901,1*%
%TO.N,+5VA*%
X120444500Y-134412000D03*
%TD*%
D29*
%TO.P,R905,1*%
%TO.N,/atmega/bus3.pin2*%
X108014500Y-149325500D03*
%TO.P,R905,2*%
%TO.N,+5V*%
X106189500Y-149325500D03*
%TD*%
D17*
%TO.P,R1003,1*%
%TO.N,+5V*%
X133985500Y-110820000D03*
%TO.P,R1003,2*%
%TO.N,/DCC/DCC_TTL*%
X135810500Y-110820000D03*
%TD*%
D30*
%TO.P,C901,2*%
%TO.N,GND*%
X122272500Y-146223000D03*
%TO.P,C901,1*%
%TO.N,VCC*%
X123822500Y-146223000D03*
%TD*%
%TO.P,C203,2*%
%TO.N,/atmega/X2*%
X120669695Y-117280000D03*
%TO.P,C203,1*%
%TO.N,GND*%
X122219695Y-117280000D03*
%TD*%
D31*
%TO.P,U202,32,PD2*%
%TO.N,/DCC/DCC_TTL*%
X122959798Y-128856305D03*
%TO.P,U202,31,PD1*%
%TO.N,/atmega/bus1.pin2*%
X122394112Y-129421990D03*
%TO.P,U202,30,PD0*%
%TO.N,/atmega/bus1.pin1*%
X121828427Y-129987676D03*
%TO.P,U202,29,~{RESET}/PC6*%
%TO.N,/atmega/reset*%
X121262742Y-130553361D03*
%TO.P,U202,28,PC5*%
%TO.N,unconnected-(U202-PC5-Pad28)*%
X120697056Y-131119047D03*
%TO.P,U202,27,PC4*%
%TO.N,/atmega/sw5*%
X120131371Y-131684732D03*
%TO.P,U202,26,PC3*%
%TO.N,/atmega/sw4*%
X119565685Y-132250417D03*
%TO.P,U202,25,PC2*%
%TO.N,/atmega/sw3*%
X119000000Y-132816103D03*
D32*
%TO.P,U202,24,PC1*%
%TO.N,/atmega/sw2*%
X116949390Y-132816103D03*
%TO.P,U202,23,PC0*%
%TO.N,/atmega/sw1*%
X116383705Y-132250417D03*
%TO.P,U202,22,ADC7*%
%TO.N,unconnected-(U202-ADC7-Pad22)*%
X115818019Y-131684732D03*
%TO.P,U202,21,GND*%
%TO.N,GND*%
X115252334Y-131119047D03*
%TO.P,U202,20,AREF*%
%TO.N,unconnected-(U202-AREF-Pad20)*%
X114686648Y-130553361D03*
%TO.P,U202,19,ADC6*%
%TO.N,unconnected-(U202-ADC6-Pad19)*%
X114120963Y-129987676D03*
%TO.P,U202,18,AVCC*%
%TO.N,+5V*%
X113555278Y-129421990D03*
%TO.P,U202,17,PB5*%
%TO.N,/atmega/LED*%
X112989592Y-128856305D03*
D31*
%TO.P,U202,16,PB4*%
%TO.N,/atmega/MISO*%
X112989592Y-126805695D03*
%TO.P,U202,15,PB3*%
%TO.N,/atmega/MOSI*%
X113555278Y-126240010D03*
%TO.P,U202,14,PB2*%
%TO.N,unconnected-(U202-PB2-Pad14)*%
X114120963Y-125674324D03*
%TO.P,U202,13,PB1*%
%TO.N,/atmega/bus4.pin2*%
X114686648Y-125108639D03*
%TO.P,U202,12,PB0*%
%TO.N,/atmega/bus4.pin1*%
X115252334Y-124542953D03*
%TO.P,U202,11,PD7*%
%TO.N,unconnected-(U202-PD7-Pad11)*%
X115818019Y-123977268D03*
%TO.P,U202,10,PD6*%
%TO.N,/atmega/bus3.pin2*%
X116383705Y-123411583D03*
%TO.P,U202,9,PD5*%
%TO.N,/atmega/bus3.pin1*%
X116949390Y-122845897D03*
D32*
%TO.P,U202,8,XTAL2/PB7*%
%TO.N,/atmega/X2*%
X119000000Y-122845897D03*
%TO.P,U202,7,XTAL1/PB6*%
%TO.N,/atmega/X1*%
X119565685Y-123411583D03*
%TO.P,U202,6,VCC*%
%TO.N,+5V*%
X120131371Y-123977268D03*
%TO.P,U202,5,GND*%
%TO.N,GND*%
X120697056Y-124542953D03*
%TO.P,U202,4,VCC*%
%TO.N,+5V*%
X121262742Y-125108639D03*
%TO.P,U202,3,GND*%
%TO.N,GND*%
X121828427Y-125674324D03*
%TO.P,U202,2,PD4*%
%TO.N,/atmega/bus2.pin2*%
X122394112Y-126240010D03*
%TO.P,U202,1,PD3*%
%TO.N,/atmega/bus2.pin1*%
X122959798Y-126805695D03*
%TD*%
D33*
%TO.P,D1104,2,A*%
%TO.N,GND*%
X102500000Y-115851500D03*
%TO.P,D1104,1,K*%
%TO.N,/D_bridge/AC_2*%
X106500000Y-115851500D03*
%TD*%
%TO.P,D1101,2,A*%
%TO.N,/D_bridge/AC_1*%
X110000000Y-119801500D03*
%TO.P,D1101,1,K*%
%TO.N,VCC*%
X114000000Y-119801500D03*
%TD*%
D10*
%TO.P,C905,2*%
%TO.N,GND*%
X121028500Y-142286000D03*
%TO.P,C905,1*%
%TO.N,+5VA*%
X119478500Y-142286000D03*
%TD*%
D29*
%TO.P,R904,1*%
%TO.N,/atmega/bus3.pin1*%
X108014500Y-141197500D03*
%TO.P,R904,2*%
%TO.N,+5V*%
X106189500Y-141197500D03*
%TD*%
D21*
%TO.P,SW603,2,2*%
%TO.N,/atmega/sw3*%
X125434527Y-171920805D03*
X117484527Y-171920805D03*
%TO.P,SW603,1,1*%
%TO.N,GND*%
X125434527Y-167420805D03*
X117484527Y-167420805D03*
%TD*%
D17*
%TO.P,R701,1*%
%TO.N,/atmega/bus1.pin1*%
X133057500Y-138611500D03*
%TO.P,R701,2*%
%TO.N,+5V*%
X134882500Y-138611500D03*
%TD*%
D34*
%TO.P,Y201,4,GND*%
%TO.N,GND*%
X120555695Y-121258000D03*
%TO.P,Y201,3,3*%
%TO.N,/atmega/X2*%
X120555695Y-119058000D03*
%TO.P,Y201,2,GND*%
%TO.N,GND*%
X122455695Y-119058000D03*
%TO.P,Y201,1,1*%
%TO.N,/atmega/X1*%
X122455695Y-121258000D03*
%TD*%
D13*
%TO.P,D1001,2,A*%
%TO.N,/DCC/DCC_B*%
X135567000Y-125425000D03*
%TO.P,D1001,1,K*%
%TO.N,Net-(D1001-K)*%
X133467000Y-125425000D03*
%TD*%
D33*
%TO.P,D1103,2,A*%
%TO.N,/D_bridge/AC_2*%
X110000000Y-115851500D03*
%TO.P,D1103,1,K*%
%TO.N,VCC*%
X114000000Y-115851500D03*
%TD*%
D17*
%TO.P,R802,1*%
%TO.N,/atmega/bus2.pin2*%
X132930500Y-141214500D03*
%TO.P,R802,2*%
%TO.N,+5V*%
X134755500Y-141214500D03*
%TD*%
D29*
%TO.P,R1004,1*%
%TO.N,/atmega/bus4.pin1*%
X108014500Y-130697500D03*
%TO.P,R1004,2*%
%TO.N,+5V*%
X106189500Y-130697500D03*
%TD*%
D35*
%TO.P,C902,2*%
%TO.N,Net-(U901-SW)*%
X126166500Y-145715000D03*
%TO.P,C902,1*%
%TO.N,Net-(U901-BS)*%
X125206500Y-145715000D03*
%TD*%
%TO.P,C903,2*%
%TO.N,Net-(U901-SW)*%
X126166500Y-146858000D03*
%TO.P,C903,1*%
%TO.N,Net-(U901-BS)*%
X125206500Y-146858000D03*
%TD*%
D36*
%TO.P,L901,2,2*%
%TO.N,+5VA*%
X121025000Y-152273000D03*
%TO.P,L901,1,1*%
%TO.N,Net-(U901-SW)*%
X126625000Y-152273000D03*
%TD*%
D35*
%TO.P,C906,2*%
%TO.N,GND*%
X120735500Y-139238000D03*
%TO.P,C906,1*%
%TO.N,+5VA*%
X119775500Y-139238000D03*
%TD*%
D28*
%TO.P,R902,2*%
%TO.N,GND*%
X125269500Y-135555000D03*
%TO.P,R902,1*%
%TO.N,Net-(U901-FB)*%
X123619500Y-135555000D03*
%TD*%
D17*
%TO.P,R801,1*%
%TO.N,/atmega/bus2.pin1*%
X132930500Y-149342500D03*
%TO.P,R801,2*%
%TO.N,+5V*%
X134755500Y-149342500D03*
%TD*%
D33*
%TO.P,D1102,2,A*%
%TO.N,GND*%
X102500000Y-119851500D03*
%TO.P,D1102,1,K*%
%TO.N,/D_bridge/AC_1*%
X106500000Y-119851500D03*
%TD*%
D29*
%TO.P,R1005,1*%
%TO.N,/atmega/bus4.pin2*%
X108014500Y-138825500D03*
%TO.P,R1005,2*%
%TO.N,+5V*%
X106189500Y-138825500D03*
%TD*%
%TO.P,R201,2*%
%TO.N,Net-(D201-A)*%
X110974500Y-174879000D03*
%TO.P,R201,1*%
%TO.N,+5V*%
X112799500Y-174879000D03*
%TD*%
D23*
%TO.P,SW604,2,2*%
%TO.N,/atmega/sw4*%
X132270527Y-165092805D03*
X132270527Y-173042805D03*
%TO.P,SW604,1,1*%
%TO.N,GND*%
X127770527Y-165092805D03*
X127770527Y-173042805D03*
%TD*%
D37*
%TO.N,GND*%
X130683000Y-157353000D03*
X129413000Y-156083000D03*
X127762000Y-157607000D03*
X128143000Y-170434000D03*
X128270000Y-168148000D03*
X121031000Y-168148000D03*
X118491000Y-169545000D03*
X116332000Y-120523000D03*
X116586000Y-119126000D03*
X107188000Y-113919000D03*
X104267000Y-112141000D03*
X116713000Y-104521000D03*
X125857000Y-104902000D03*
X131699000Y-107315000D03*
X119507000Y-115062000D03*
X118491000Y-116078000D03*
X117729000Y-113792000D03*
X113665000Y-163068000D03*
X111379000Y-160909000D03*
X112141000Y-172847000D03*
X110617000Y-171450000D03*
%TO.N,+5V*%
X108035000Y-167767000D03*
X109135000Y-167640000D03*
%TO.N,GND*%
X102919000Y-113765500D03*
D38*
X122285500Y-147493000D03*
D37*
X119556000Y-130062000D03*
X110285000Y-136920000D03*
X116635000Y-175020000D03*
D38*
X126857500Y-142032000D03*
D37*
X122223000Y-115838000D03*
X106475000Y-122401500D03*
X113968000Y-136412000D03*
X103935000Y-117702500D03*
X110158000Y-133745000D03*
X117651000Y-121299000D03*
X129921000Y-152908000D03*
X108126000Y-117956500D03*
X104570000Y-119734500D03*
X120699000Y-138063000D03*
X103935000Y-113638500D03*
X101141000Y-138444000D03*
X119302000Y-117108000D03*
X138987000Y-151398000D03*
X108253000Y-113003500D03*
X112063000Y-117829500D03*
X113206000Y-138063000D03*
X110666000Y-166511000D03*
X137336000Y-111266000D03*
X113333000Y-141111000D03*
X112571000Y-132602000D03*
X120523000Y-127254000D03*
X104570000Y-120623500D03*
X138606000Y-113425000D03*
X123239000Y-124474000D03*
X104062000Y-151144000D03*
X129540000Y-128143000D03*
X138606000Y-154700000D03*
X123698000Y-114173000D03*
X106348000Y-117702500D03*
D38*
X127365500Y-145080000D03*
D37*
X109396000Y-140984000D03*
X101903000Y-149112000D03*
X110285000Y-148096000D03*
X114476000Y-147588000D03*
X133477000Y-150495000D03*
X123874000Y-166638000D03*
X112571000Y-166511000D03*
X104697000Y-122020500D03*
X134542000Y-166638000D03*
X125652000Y-119394000D03*
X121715000Y-138317000D03*
X110031000Y-131967000D03*
X129970000Y-166384000D03*
X101522000Y-142254000D03*
D38*
X126476500Y-135555000D03*
D37*
X127684000Y-126252000D03*
X117475000Y-127762000D03*
X109650000Y-138444000D03*
X136906000Y-155843000D03*
X113587000Y-151144000D03*
X101903000Y-122020500D03*
X135636000Y-157861000D03*
X126541000Y-114187000D03*
X133858000Y-165100000D03*
X114222000Y-132221000D03*
X107618000Y-151144000D03*
X121461000Y-137555000D03*
D38*
X137184000Y-115646000D03*
D37*
X101522000Y-117702500D03*
X101395000Y-113765500D03*
X116508000Y-129935000D03*
D38*
X122412500Y-142032000D03*
D37*
X128651000Y-127508000D03*
D38*
X126857500Y-140000000D03*
D37*
X121080000Y-161304000D03*
D38*
X121396500Y-145461000D03*
D37*
X125144000Y-174385000D03*
X118999000Y-160528000D03*
X102665000Y-117702500D03*
X112063000Y-138444000D03*
X112698000Y-135015000D03*
X139114000Y-167527000D03*
X129921000Y-132969000D03*
X117094000Y-155956000D03*
D38*
X123603695Y-118169000D03*
D37*
X132334000Y-154813000D03*
X124460000Y-123952000D03*
X109220000Y-165227000D03*
X112571000Y-113765500D03*
X126541000Y-117870000D03*
D38*
X122968695Y-122995000D03*
D37*
X114095000Y-143143000D03*
X102411000Y-167273000D03*
D38*
X122412500Y-140000000D03*
D37*
X114300000Y-156718000D03*
X123825000Y-160020000D03*
X122936000Y-132715000D03*
X125476000Y-162179000D03*
X117348000Y-162306000D03*
X109904000Y-143651000D03*
X139622000Y-125871000D03*
X139241000Y-162955000D03*
X114857000Y-133491000D03*
D38*
X125333500Y-134158000D03*
D37*
X125095000Y-130937000D03*
X113079000Y-164860000D03*
X121412000Y-132715000D03*
X138733000Y-159272000D03*
X117489959Y-158869973D03*
D38*
X121571695Y-120074000D03*
D37*
X103173000Y-122020500D03*
D38*
X135787000Y-113487000D03*
D37*
X138352000Y-138063000D03*
D38*
X127619500Y-143810000D03*
D37*
X130937000Y-146685000D03*
X138098000Y-141873000D03*
D38*
X122412500Y-141016000D03*
D37*
X114349000Y-175020000D03*
X130683000Y-165114000D03*
X114554000Y-154051000D03*
X119253000Y-127381000D03*
X131494000Y-160288000D03*
X133018000Y-174639000D03*
X130302000Y-138557000D03*
D38*
X126857500Y-141016000D03*
D37*
X102108000Y-152400000D03*
X116713000Y-116205000D03*
X138352000Y-130824000D03*
%TO.N,+5V*%
X129460000Y-111901000D03*
X127828500Y-113919000D03*
X106635000Y-148350000D03*
X105078000Y-140730000D03*
X133073944Y-128085944D03*
X105205000Y-139206000D03*
X105599378Y-151765622D03*
X133914556Y-128799556D03*
D38*
%TO.N,VCC*%
X118667000Y-136920000D03*
X124063500Y-145207000D03*
X123739450Y-136699550D03*
D37*
%TO.N,+5VA*%
X105586000Y-150763000D03*
X101996378Y-138985622D03*
X103545500Y-142508000D03*
%TO.N,/atmega/LED*%
X111719578Y-130480578D03*
X114500000Y-150500000D03*
X127254000Y-124333000D03*
X135726500Y-118661500D03*
X114000000Y-153000000D03*
X114069906Y-138183727D03*
X112433190Y-131321190D03*
X116705444Y-126865444D03*
X132969000Y-118618000D03*
X114476000Y-140699500D03*
%TO.N,/atmega/reset*%
X123190000Y-127889000D03*
X134772056Y-128879944D03*
X121920000Y-127889000D03*
X132484944Y-128674944D03*
%TO.N,/atmega/sw1*%
X115492000Y-140730000D03*
X114857000Y-151492500D03*
X115400500Y-152922000D03*
X114603000Y-139079000D03*
%TO.N,/atmega/sw2*%
X115619000Y-151144000D03*
X116254000Y-140476000D03*
X115365000Y-138825000D03*
X116560750Y-154457250D03*
%TO.N,/atmega/sw3*%
X116635000Y-151492500D03*
X116635000Y-152891500D03*
X116889000Y-139968000D03*
X116076878Y-138393878D03*
%TO.N,/atmega/sw4*%
X118667000Y-131332000D03*
X117355500Y-139206000D03*
X117270000Y-153430000D03*
X119028290Y-133868992D03*
X117270000Y-150890000D03*
X117016000Y-137428000D03*
%TO.N,/atmega/sw5*%
X118018622Y-138430622D03*
X117905000Y-151492500D03*
X117905000Y-152891500D03*
X117664378Y-136806378D03*
%TO.N,/atmega/MOSI*%
X135726500Y-119761000D03*
X126450500Y-122936000D03*
X133096000Y-119761000D03*
X117729000Y-125595444D03*
%TO.N,/atmega/MISO*%
X117094000Y-126144944D03*
X127000000Y-123571000D03*
X136525000Y-119253000D03*
X133731000Y-119211500D03*
%TO.N,/atmega/bus2.pin1*%
X128192000Y-130649500D03*
X127665694Y-128239306D03*
%TO.N,/atmega/bus2.pin2*%
X129081000Y-130649500D03*
X128498750Y-128295250D03*
%TO.N,/atmega/bus3.pin1*%
X104443000Y-138698000D03*
X108025000Y-142127000D03*
%TO.N,/atmega/bus3.pin2*%
X111047000Y-123204000D03*
X103554000Y-138317000D03*
X114277972Y-123035500D03*
X103554000Y-140603000D03*
%TO.N,/atmega/bus4.pin2*%
X106729000Y-132022000D03*
X107557736Y-128858736D03*
%TO.N,+5V*%
X108544500Y-137555000D03*
X107505500Y-137555000D03*
%TD*%
D39*
%TO.N,/DCC/DCC_A*%
X130859000Y-121793000D02*
X130859000Y-124360500D01*
X131627000Y-121025000D02*
X130859000Y-121793000D01*
X134366000Y-120142000D02*
X133477000Y-121031000D01*
X134377000Y-120142000D02*
X134366000Y-120142000D01*
X134377000Y-117162686D02*
X134377000Y-120142000D01*
X128378000Y-115124685D02*
X129343315Y-116090000D01*
X127378000Y-112500000D02*
X128378000Y-113500000D01*
X133471000Y-121025000D02*
X131627000Y-121025000D01*
X123500000Y-112500000D02*
X127378000Y-112500000D01*
X133304314Y-116090000D02*
X134377000Y-117162686D01*
X133477000Y-121031000D02*
X133471000Y-121025000D01*
X121849000Y-110849000D02*
X123500000Y-112500000D01*
X129343315Y-116090000D02*
X133304314Y-116090000D01*
X130859000Y-124360500D02*
X129921500Y-125298000D01*
X121849000Y-110000000D02*
X121849000Y-110849000D01*
X128378000Y-113500000D02*
X128378000Y-115124685D01*
%TO.N,/DCC/DCC_B*%
X134777000Y-122263000D02*
X134540000Y-122500000D01*
X128778000Y-113334314D02*
X128778000Y-114959000D01*
X126784343Y-111340657D02*
X128778000Y-113334314D01*
X133470000Y-115690000D02*
X134777000Y-116997000D01*
X126784343Y-110782343D02*
X126784343Y-111340657D01*
X128778000Y-114959000D02*
X129509000Y-115690000D01*
X126002000Y-110000000D02*
X126784343Y-110782343D01*
X125349000Y-110000000D02*
X126002000Y-110000000D01*
X129509000Y-115690000D02*
X133470000Y-115690000D01*
X134777000Y-116997000D02*
X134777000Y-122263000D01*
D40*
%TO.N,/D_bridge/AC_1*%
X104800000Y-118151500D02*
X104800000Y-114421500D01*
X106500000Y-119851500D02*
X104800000Y-118151500D01*
X104800000Y-114421500D02*
X109221500Y-110000000D01*
X109221500Y-110000000D02*
X114849000Y-110000000D01*
D39*
%TO.N,VCC*%
X114916500Y-114935000D02*
X114000000Y-115851500D01*
X116573000Y-114935000D02*
X114916500Y-114935000D01*
%TO.N,/atmega/LED*%
X112505348Y-163305348D02*
X112361696Y-163449000D01*
X112361696Y-163449000D02*
X110220182Y-163449000D01*
X113491000Y-162464182D02*
X112649834Y-163305348D01*
X113491000Y-153509000D02*
X113491000Y-162464182D01*
X110220182Y-163449000D02*
X108585000Y-165084182D01*
X114000000Y-153000000D02*
X113491000Y-153509000D01*
X112649834Y-163305348D02*
X112505348Y-163305348D01*
X108585000Y-165084182D02*
X108585000Y-171314000D01*
%TO.N,+5V*%
X108035000Y-165002000D02*
X110477000Y-162560000D01*
X108035000Y-167767000D02*
X108035000Y-165002000D01*
X112799500Y-171304500D02*
X109135000Y-167640000D01*
X112799500Y-174879000D02*
X112799500Y-171304500D01*
%TO.N,Net-(D201-A)*%
X110100000Y-174879000D02*
X108585000Y-173364000D01*
X110974500Y-174879000D02*
X110100000Y-174879000D01*
D40*
%TO.N,/D_bridge/AC_2*%
X116250000Y-112250000D02*
X117500000Y-111000000D01*
X110000000Y-114500000D02*
X112250000Y-112250000D01*
X112250000Y-112250000D02*
X116250000Y-112250000D01*
X110000000Y-114500000D02*
X110000000Y-115851500D01*
%TO.N,VCC*%
X113497500Y-119801500D02*
X111252000Y-122047000D01*
X111252000Y-122047000D02*
X110236000Y-122047000D01*
X118540000Y-136920000D02*
X118667000Y-136920000D01*
X115460000Y-140000000D02*
X118540000Y-136920000D01*
X101050000Y-137050000D02*
X104000000Y-140000000D01*
X101050000Y-131233000D02*
X101050000Y-137050000D01*
X110236000Y-122047000D02*
X101050000Y-131233000D01*
X104000000Y-140000000D02*
X115460000Y-140000000D01*
D39*
%TO.N,+5V*%
X106964500Y-129922500D02*
X109764500Y-129922500D01*
X111333000Y-131491000D02*
X111500000Y-131658000D01*
X109764500Y-129922500D02*
X111333000Y-131491000D01*
X111174000Y-131332000D02*
X111333000Y-131491000D01*
X106189500Y-130697500D02*
X106964500Y-129922500D01*
D41*
X110456000Y-162099000D02*
X110249000Y-162306000D01*
X110456000Y-160528000D02*
X110456000Y-162099000D01*
D39*
X108134000Y-155920744D02*
X110397000Y-158183744D01*
X108134000Y-154088818D02*
X108134000Y-155920744D01*
X105599378Y-151765622D02*
X105810804Y-151765622D01*
X105810804Y-151765622D02*
X108134000Y-154088818D01*
X110397000Y-158183744D02*
X110397000Y-158484500D01*
D41*
%TO.N,+5VA*%
X112556000Y-159546000D02*
X110634000Y-157624000D01*
X110634000Y-157624000D02*
X110634000Y-154686000D01*
X112556000Y-160528000D02*
X112556000Y-159546000D01*
%TO.N,+5V*%
X110249000Y-160676000D02*
X110397000Y-160528000D01*
X110249000Y-162306000D02*
X110249000Y-160676000D01*
X110397000Y-160528000D02*
X110397000Y-158484500D01*
D40*
%TO.N,+5VA*%
X105586000Y-150763000D02*
X109509000Y-154686000D01*
X113030000Y-152954000D02*
X113030000Y-153192183D01*
X113792000Y-152192000D02*
X113030000Y-152954000D01*
X113792000Y-152192000D02*
X119909500Y-152192000D01*
X111536183Y-154686000D02*
X113030000Y-153192183D01*
D42*
%TO.N,GND*%
X126476500Y-135555000D02*
X126451500Y-135530000D01*
X122412500Y-142032000D02*
X121282500Y-142032000D01*
X126857500Y-142032000D02*
X122412500Y-142032000D01*
X121282500Y-142032000D02*
X121028500Y-142286000D01*
D41*
X121571695Y-120074000D02*
X121571695Y-119942000D01*
D42*
X126857500Y-140000000D02*
X122412500Y-140000000D01*
D41*
X121571695Y-119942000D02*
X122455695Y-119058000D01*
D42*
X120825500Y-139238000D02*
X121587500Y-140000000D01*
X126603500Y-143763500D02*
X126603500Y-142286000D01*
X122412500Y-141016000D02*
X121424500Y-141016000D01*
D39*
X120697056Y-124542953D02*
X121693187Y-123546822D01*
D41*
X124206695Y-119426000D02*
X122823695Y-119426000D01*
D43*
X125269500Y-134222000D02*
X125333500Y-134158000D01*
D42*
X121587500Y-140000000D02*
X122412500Y-140000000D01*
X122412500Y-141016000D02*
X126857500Y-141016000D01*
D41*
X122219695Y-117280000D02*
X122219695Y-118822000D01*
D42*
X120825500Y-141397000D02*
X120825500Y-139238000D01*
X121028500Y-142286000D02*
X120825500Y-142083000D01*
X121424500Y-141016000D02*
X121028500Y-140620000D01*
X120825500Y-142083000D02*
X120825500Y-141397000D01*
X126603500Y-142286000D02*
X126857500Y-142032000D01*
D39*
X121693187Y-123546822D02*
X122123517Y-123546822D01*
D43*
X120825500Y-144776000D02*
X120825500Y-141397000D01*
X122272500Y-146223000D02*
X120825500Y-144776000D01*
D41*
X121439695Y-120074000D02*
X121571695Y-120074000D01*
X120555695Y-120958000D02*
X121439695Y-120074000D01*
D43*
X125269500Y-135555000D02*
X125269500Y-134222000D01*
D42*
X126451500Y-135530000D02*
X125269500Y-135530000D01*
D43*
X122285500Y-147493000D02*
X122285500Y-146236000D01*
D41*
%TO.N,Net-(U901-BS)*%
X125041500Y-147023000D02*
X123369683Y-147023000D01*
X123369683Y-147023000D02*
X123047500Y-146700817D01*
X122793500Y-143763500D02*
X122793500Y-145080000D01*
X122793500Y-145080000D02*
X123047500Y-145334000D01*
X123047500Y-146700817D02*
X123047500Y-145334000D01*
X125206500Y-146858000D02*
X125206500Y-145715000D01*
X125206500Y-146858000D02*
X125041500Y-147023000D01*
D43*
%TO.N,Net-(U901-SW)*%
X126166500Y-145389193D02*
X126166500Y-145715000D01*
X126166500Y-146858000D02*
X126166500Y-149977000D01*
X125333500Y-144556193D02*
X126166500Y-145389193D01*
X125333500Y-143763500D02*
X125333500Y-144556193D01*
X126166500Y-145715000D02*
X126166500Y-146858000D01*
D41*
%TO.N,Net-(U901-FB)*%
X122094500Y-136063000D02*
X123111500Y-136063000D01*
X124419500Y-136355000D02*
X125371500Y-136355000D01*
X123111500Y-136063000D02*
X123619500Y-135555000D01*
X123619500Y-135555000D02*
X124419500Y-136355000D01*
X122094500Y-136063000D02*
X122094500Y-134412000D01*
X125371500Y-136355000D02*
X126603500Y-137587000D01*
%TO.N,Net-(D1001-K)*%
X133467000Y-125425000D02*
X131873500Y-125425000D01*
X132000000Y-122500000D02*
X132000000Y-125044500D01*
D39*
%TO.N,+5V*%
X127828500Y-113919000D02*
X127550500Y-114197000D01*
X134755500Y-141214500D02*
X134310000Y-141660000D01*
X105809000Y-139206000D02*
X106189500Y-138825500D01*
X134882500Y-130483500D02*
X134882500Y-129767500D01*
X119683000Y-125744000D02*
X119556000Y-125617000D01*
X127550500Y-114197000D02*
X127550500Y-118849657D01*
X124360578Y-122206578D02*
X124317078Y-122250078D01*
X106189500Y-141197500D02*
X105545500Y-141197500D01*
X134310000Y-141660000D02*
X134310000Y-148897000D01*
X119556000Y-125617000D02*
X119302000Y-125363000D01*
X134310000Y-148897000D02*
X134755500Y-149342500D01*
X114440134Y-128537134D02*
X113555278Y-129421990D01*
X124317078Y-122250078D02*
X124317078Y-122506922D01*
X119302000Y-125617000D02*
X119048000Y-125617000D01*
D41*
X132049429Y-115265000D02*
X132650000Y-114664429D01*
D39*
X119683000Y-125744000D02*
X119429000Y-125744000D01*
X130406944Y-128085944D02*
X127557000Y-125236000D01*
X106635000Y-141643000D02*
X106635000Y-148350000D01*
X127550500Y-118849657D02*
X124360578Y-122039578D01*
D41*
X130453000Y-115265000D02*
X132049429Y-115265000D01*
D39*
X119429000Y-125744000D02*
X119302000Y-125617000D01*
X133073944Y-128085944D02*
X130406944Y-128085944D01*
X137287000Y-128079000D02*
X134882500Y-130483500D01*
X119048000Y-125617000D02*
X118731000Y-125617000D01*
X105545500Y-141197500D02*
X105078000Y-140730000D01*
D41*
X120335427Y-123977268D02*
X121444695Y-122868000D01*
D39*
X134197000Y-131169000D02*
X134882500Y-130483500D01*
X122017695Y-122295000D02*
X124105157Y-122295000D01*
X119302000Y-125363000D02*
X119302000Y-124806639D01*
X106189500Y-141197500D02*
X106635000Y-141643000D01*
X138850000Y-112005805D02*
X138850000Y-111545000D01*
X127046157Y-125236000D02*
X124317078Y-122506922D01*
D41*
X129460000Y-111901000D02*
X129460000Y-111535500D01*
D39*
X134882500Y-138611500D02*
X134197000Y-137926000D01*
X105205000Y-139206000D02*
X105809000Y-139206000D01*
X106189500Y-148795500D02*
X106635000Y-148350000D01*
X137287000Y-126200500D02*
X137287000Y-128079000D01*
D41*
X129460000Y-113450000D02*
X129460000Y-111901000D01*
D39*
X134197000Y-137926000D02*
X134197000Y-131169000D01*
D41*
X129460000Y-114272000D02*
X130453000Y-115265000D01*
X132650000Y-114664429D02*
X132650000Y-112155500D01*
D39*
X138850000Y-111545000D02*
X137287000Y-109982000D01*
X119556000Y-125617000D02*
X119302000Y-125617000D01*
X119302000Y-125363000D02*
X119048000Y-125617000D01*
X106189500Y-149325500D02*
X106189500Y-148795500D01*
X124317078Y-122506922D02*
X124105157Y-122295000D01*
X124233578Y-122166578D02*
X124360578Y-122039578D01*
X115810866Y-128537134D02*
X114440134Y-128537134D01*
D41*
X129460000Y-111535500D02*
X130175500Y-110820000D01*
D39*
X124360578Y-122039578D02*
X124360578Y-122206578D01*
X118731000Y-125617000D02*
X115810866Y-128537134D01*
X124233578Y-122166578D02*
X124317078Y-122250078D01*
X134882500Y-129767500D02*
X133914556Y-128799556D01*
X127557000Y-125236000D02*
X127046157Y-125236000D01*
X134755500Y-141214500D02*
X134755500Y-138738500D01*
X120627381Y-125744000D02*
X119683000Y-125744000D01*
X121444695Y-122868000D02*
X122017695Y-122295000D01*
X119302000Y-124806639D02*
X120131371Y-123977268D01*
X121262742Y-125108639D02*
X120627381Y-125744000D01*
X137287000Y-109982000D02*
X134823500Y-109982000D01*
D41*
X132650000Y-112155500D02*
X133985500Y-110820000D01*
D39*
X124105157Y-122295000D02*
X124233578Y-122166578D01*
X134823500Y-109982000D02*
X133985500Y-110820000D01*
X140000000Y-113155805D02*
X138850000Y-112005805D01*
D41*
%TO.N,Net-(U1001-EN)*%
X132000500Y-110820000D02*
X132000500Y-113449500D01*
%TO.N,/atmega/X1*%
X120760492Y-122696603D02*
X122199095Y-121258000D01*
X120280665Y-122696603D02*
X120760492Y-122696603D01*
X124206695Y-120976000D02*
X122737695Y-120976000D01*
X119565685Y-123411583D02*
X120280665Y-122696603D01*
%TO.N,/atmega/X2*%
X119000000Y-121598000D02*
X119000000Y-120740695D01*
X119000000Y-120740695D02*
X120555695Y-119185000D01*
X118523695Y-122369592D02*
X118523695Y-122074305D01*
X118523695Y-122074305D02*
X119000000Y-121598000D01*
X120669695Y-117280000D02*
X120669695Y-118944000D01*
X119000000Y-122845897D02*
X118523695Y-122369592D01*
D43*
%TO.N,VCC*%
X124063500Y-137023600D02*
X124063500Y-138203500D01*
X124063500Y-145982000D02*
X123822500Y-146223000D01*
X124063500Y-143763500D02*
X124063500Y-145207000D01*
X124063500Y-145207000D02*
X124063500Y-145982000D01*
X123739450Y-136699550D02*
X124063500Y-137023600D01*
D40*
X114000000Y-115851500D02*
X114000000Y-119801500D01*
%TO.N,+5VA*%
X103545500Y-142508000D02*
X101996378Y-140958878D01*
X136437000Y-143023000D02*
X135460000Y-144000000D01*
X105485000Y-133500000D02*
X105485000Y-136040000D01*
D43*
X127595924Y-159004000D02*
X130683000Y-159004000D01*
X119775500Y-139238000D02*
X119775500Y-136732000D01*
X120444500Y-136063000D02*
X120444500Y-134412000D01*
X130683000Y-159004000D02*
X136310000Y-153377000D01*
X126418924Y-157827000D02*
X127595924Y-159004000D01*
X121025000Y-155061000D02*
X123791000Y-157827000D01*
X119775500Y-136732000D02*
X120444500Y-136063000D01*
D40*
X105485000Y-144000000D02*
X105485000Y-146540000D01*
D43*
X119491500Y-144953000D02*
X121025000Y-146486500D01*
D40*
X101996378Y-140958878D02*
X101996378Y-138985622D01*
D43*
X123791000Y-157827000D02*
X126418924Y-157827000D01*
D40*
X135587000Y-135809000D02*
X136437000Y-136659000D01*
X136437000Y-136659000D02*
X136437000Y-143023000D01*
X135587000Y-133269000D02*
X135587000Y-135809000D01*
D43*
X119478500Y-140620000D02*
X119478500Y-139535000D01*
D40*
X135460000Y-144000000D02*
X135460000Y-146540000D01*
D43*
X121025000Y-146486500D02*
X121025000Y-152273000D01*
X119491500Y-140633000D02*
X119491500Y-144953000D01*
X119478500Y-139535000D02*
X119775500Y-139238000D01*
X136310000Y-153377000D02*
X136310000Y-147390000D01*
X136310000Y-147390000D02*
X135460000Y-146540000D01*
D39*
%TO.N,/atmega/LED*%
X113708763Y-128137134D02*
X115433754Y-128137134D01*
X115905000Y-149095000D02*
X115905000Y-142194000D01*
X111719578Y-130480578D02*
X111719578Y-130126319D01*
X126984182Y-124333000D02*
X125900500Y-123249318D01*
X125900500Y-123249318D02*
X125900500Y-121253129D01*
X115200000Y-134819000D02*
X115200000Y-137085000D01*
X113491000Y-133110000D02*
X113491000Y-132379000D01*
X114476000Y-140699500D02*
X114476000Y-140765000D01*
X114500000Y-150500000D02*
X115905000Y-149095000D01*
X113491000Y-132379000D02*
X112433190Y-131321190D01*
X114101273Y-138183727D02*
X114069906Y-138183727D01*
X136989500Y-118661500D02*
X135726500Y-118661500D01*
X125900500Y-121253129D02*
X127792629Y-119361000D01*
X139955195Y-115695805D02*
X136989500Y-118661500D01*
X115433754Y-128137134D02*
X116705444Y-126865444D01*
X127254000Y-124333000D02*
X126984182Y-124333000D01*
X112989592Y-128856305D02*
X113708763Y-128137134D01*
X114476000Y-140765000D02*
X115905000Y-142194000D01*
X127792629Y-119361000D02*
X132226000Y-119361000D01*
X113491000Y-133110000D02*
X115200000Y-134819000D01*
X115200000Y-137085000D02*
X114101273Y-138183727D01*
X132226000Y-119361000D02*
X132969000Y-118618000D01*
X111719578Y-130126319D02*
X112989592Y-128856305D01*
D41*
%TO.N,/DCC/DCC_B*%
X134540000Y-124398000D02*
X135567000Y-125425000D01*
X134540000Y-122500000D02*
X134540000Y-124398000D01*
D40*
%TO.N,/D_bridge/AC_1*%
X106500000Y-119851500D02*
X109950000Y-119851500D01*
%TO.N,/D_bridge/AC_2*%
X106500000Y-115851500D02*
X110000000Y-115851500D01*
D39*
%TO.N,/atmega/reset*%
X120768287Y-130058906D02*
X120768287Y-129040713D01*
X137287000Y-125005500D02*
X138310305Y-125005500D01*
X135488594Y-128879944D02*
X136779000Y-127589538D01*
X120768287Y-129040713D02*
X121920000Y-127889000D01*
X124201000Y-128900000D02*
X129662000Y-128900000D01*
X129887056Y-128674944D02*
X132484944Y-128674944D01*
X129662000Y-128900000D02*
X129887056Y-128674944D01*
X123190000Y-127889000D02*
X124201000Y-128900000D01*
X136667000Y-125625500D02*
X137287000Y-125005500D01*
X136667000Y-126588538D02*
X136667000Y-125625500D01*
X136779000Y-127589538D02*
X136779000Y-126700538D01*
X136779000Y-126700538D02*
X136667000Y-126588538D01*
X134772056Y-128879944D02*
X135488594Y-128879944D01*
X138310305Y-125005500D02*
X140000000Y-123315805D01*
%TO.N,/DCC/DCC_TTL*%
X132637000Y-129300000D02*
X136167000Y-125770000D01*
D41*
X134540000Y-112090500D02*
X135810500Y-110820000D01*
D39*
X136167000Y-125770000D02*
X136167000Y-125141637D01*
X123403493Y-129300000D02*
X132637000Y-129300000D01*
X135177000Y-124151637D02*
X135177000Y-114087000D01*
X136167000Y-125141637D02*
X135177000Y-124151637D01*
D41*
X134540000Y-113450000D02*
X134540000Y-112090500D01*
D39*
X135177000Y-114087000D02*
X134540000Y-113450000D01*
%TO.N,/atmega/sw1*%
X114857000Y-151492500D02*
X115069000Y-151280500D01*
X115570000Y-153091500D02*
X115400500Y-152922000D01*
X115200527Y-165060805D02*
X115200527Y-156833473D01*
X114603000Y-138317000D02*
X114603000Y-139079000D01*
X115600000Y-133034122D02*
X115600000Y-137320000D01*
X115200527Y-173010805D02*
X115200527Y-165410000D01*
X116305000Y-149680182D02*
X116305000Y-141543000D01*
X116383705Y-132250417D02*
X115600000Y-133034122D01*
X114603000Y-138317000D02*
X115600000Y-137320000D01*
X115069000Y-151280500D02*
X115069000Y-150916182D01*
X115570000Y-156464000D02*
X115570000Y-153091500D01*
X115069000Y-150916182D02*
X116305000Y-149680182D01*
X115200527Y-156833473D02*
X115570000Y-156464000D01*
X116305000Y-141543000D02*
X115492000Y-140730000D01*
%TO.N,/atmega/sw2*%
X116000000Y-137671062D02*
X116000000Y-133765493D01*
X116370000Y-156895213D02*
X116000527Y-157264685D01*
X116586000Y-154482500D02*
X116586000Y-154940000D01*
X117484527Y-164935805D02*
X125434527Y-164935805D01*
X116605000Y-164137657D02*
X117403148Y-164935805D01*
X116370000Y-155156000D02*
X116370000Y-156895213D01*
X116705000Y-140800000D02*
X116254000Y-140349000D01*
X115365000Y-138825000D02*
X115365000Y-138327938D01*
X115365000Y-138327938D02*
X116010938Y-137682000D01*
X116000000Y-133765493D02*
X116949390Y-132816103D01*
X116560750Y-154457250D02*
X116586000Y-154482500D01*
X116010938Y-137682000D02*
X116000000Y-137671062D01*
X116605000Y-163791315D02*
X116605000Y-164137657D01*
X116000527Y-157264685D02*
X116000527Y-163186841D01*
X115619000Y-151144000D02*
X116705000Y-150058000D01*
X116586000Y-154940000D02*
X116370000Y-155156000D01*
X116705000Y-150058000D02*
X116705000Y-140800000D01*
X116000527Y-163186841D02*
X116605000Y-163791315D01*
%TO.N,/atmega/sw3*%
X116602500Y-152891500D02*
X115970000Y-153524000D01*
X116205000Y-170641278D02*
X117484527Y-171920805D01*
X117105000Y-150255000D02*
X117105000Y-140184000D01*
X115970000Y-153524000D02*
X115970000Y-156729527D01*
X115970000Y-156729527D02*
X115600527Y-157099000D01*
X116466000Y-138004756D02*
X116466000Y-135350103D01*
X116076878Y-138393878D02*
X116466000Y-138004756D01*
X116635000Y-151492500D02*
X116635000Y-150725000D01*
X116635000Y-152891500D02*
X116602500Y-152891500D01*
X115600527Y-157099000D02*
X115600527Y-163352527D01*
X116466000Y-135350103D02*
X119000000Y-132816103D01*
X117484527Y-171920805D02*
X125434527Y-171920805D01*
X115600527Y-163352527D02*
X116205000Y-163957000D01*
X117105000Y-140184000D02*
X116889000Y-139968000D01*
X116205000Y-163957000D02*
X116205000Y-170641278D01*
X116635000Y-150725000D02*
X117105000Y-150255000D01*
%TO.N,/atmega/sw4*%
X117355500Y-139206000D02*
X117505000Y-139355500D01*
X128220527Y-163091805D02*
X128577722Y-163449000D01*
X117270000Y-153430000D02*
X117270000Y-155243000D01*
X130751722Y-163449000D02*
X132270527Y-164967805D01*
X119565685Y-132230685D02*
X118667000Y-131332000D01*
X120904000Y-158877000D02*
X125984000Y-158877000D01*
X117016000Y-135881282D02*
X117016000Y-137428000D01*
X128220527Y-161113527D02*
X128220527Y-163091805D01*
X117270000Y-155243000D02*
X120904000Y-158877000D01*
X128577722Y-163449000D02*
X130751722Y-163449000D01*
X125984000Y-158877000D02*
X128220527Y-161113527D01*
X119028290Y-133868992D02*
X117016000Y-135881282D01*
X117505000Y-150655000D02*
X117270000Y-150890000D01*
X132270527Y-173042805D02*
X132270527Y-165092805D01*
X117505000Y-139355500D02*
X117505000Y-150655000D01*
%TO.N,/atmega/sw5*%
X117664378Y-136010015D02*
X120826000Y-132848393D01*
X121069686Y-158477000D02*
X117905000Y-155312314D01*
X120826000Y-132848393D02*
X120826000Y-132379361D01*
X117905000Y-138544244D02*
X118018622Y-138430622D01*
X117905000Y-155312314D02*
X117905000Y-152891500D01*
X126149686Y-158477000D02*
X121069686Y-158477000D01*
X117664378Y-136806378D02*
X117664378Y-136010015D01*
X129295527Y-161622841D02*
X126149686Y-158477000D01*
X129295527Y-162141805D02*
X137245527Y-162141805D01*
X117905000Y-151492500D02*
X117905000Y-138544244D01*
X120826000Y-132379361D02*
X120131371Y-131684732D01*
%TO.N,/atmega/MOSI*%
X139952805Y-120775805D02*
X138980000Y-119803000D01*
X117729000Y-125595444D02*
X116466556Y-125595444D01*
X138980000Y-119803000D02*
X135768500Y-119803000D01*
X135768500Y-119803000D02*
X135726500Y-119761000D01*
X115189000Y-126873000D02*
X114188268Y-126873000D01*
X126450500Y-122936000D02*
X126450500Y-121268814D01*
X116466556Y-125595444D02*
X115189000Y-126873000D01*
X114188268Y-126873000D02*
X113555278Y-126240010D01*
X126450500Y-121268814D02*
X127958314Y-119761000D01*
X127958314Y-119761000D02*
X133096000Y-119761000D01*
%TO.N,/atmega/MISO*%
X127000000Y-121285000D02*
X127000000Y-123571000D01*
X139955195Y-118235805D02*
X138938000Y-119253000D01*
X132868182Y-120311000D02*
X132718182Y-120161000D01*
X117094000Y-126144944D02*
X116482742Y-126144944D01*
X138938000Y-119253000D02*
X136525000Y-119253000D01*
X132718182Y-120161000D02*
X128124000Y-120161000D01*
X115327536Y-127300150D02*
X113484047Y-127300150D01*
X133731000Y-119903818D02*
X133323818Y-120311000D01*
X116482742Y-126144944D02*
X115327536Y-127300150D01*
X133731000Y-119211500D02*
X133731000Y-119903818D01*
X133323818Y-120311000D02*
X132868182Y-120311000D01*
X128124000Y-120161000D02*
X127000000Y-121285000D01*
%TO.N,/atmega/bus2.pin1*%
X129122686Y-131580186D02*
X129848814Y-131580186D01*
X127665694Y-128027880D02*
X125527814Y-125890000D01*
X128192000Y-130649500D02*
X129122686Y-131580186D01*
X123982000Y-125890000D02*
X123066305Y-126805695D01*
X125527814Y-125890000D02*
X123982000Y-125890000D01*
X127665694Y-128239306D02*
X127665694Y-128027880D01*
X130967000Y-144587000D02*
X132920000Y-146540000D01*
X129848814Y-131580186D02*
X130967000Y-132698372D01*
X130967000Y-132698372D02*
X130967000Y-144587000D01*
D44*
X132920000Y-146540000D02*
X132920000Y-149332000D01*
D39*
%TO.N,/atmega/bus2.pin2*%
X123144122Y-125490000D02*
X122394112Y-126240010D01*
X129483814Y-130649500D02*
X131367000Y-132532686D01*
X132930500Y-141214500D02*
X131367000Y-139651000D01*
X125693500Y-125490000D02*
X123144122Y-125490000D01*
X131367000Y-139651000D02*
X131367000Y-132532686D01*
D44*
X132920000Y-144000000D02*
X132920000Y-141225000D01*
D39*
X128498750Y-128295250D02*
X125693500Y-125490000D01*
X129483814Y-130649500D02*
X129081000Y-130649500D01*
%TO.N,/atmega/bus3.pin1*%
X108014500Y-141197500D02*
X108014500Y-142116500D01*
D44*
X108025000Y-144000000D02*
X108025000Y-142127000D01*
D39*
X104335000Y-138590000D02*
X104335000Y-130738674D01*
X104443000Y-138698000D02*
X104335000Y-138590000D01*
X104335000Y-130738674D02*
X111888675Y-123185000D01*
X108014500Y-142116500D02*
X108025000Y-142127000D01*
X114349000Y-121934000D02*
X116037493Y-121934000D01*
X113098000Y-123185000D02*
X114349000Y-121934000D01*
X111888675Y-123185000D02*
X113098000Y-123185000D01*
X116037493Y-121934000D02*
X116949390Y-122845897D01*
%TO.N,/atmega/bus3.pin2*%
X115889250Y-122917128D02*
X114396344Y-122917128D01*
X114396344Y-122917128D02*
X114277972Y-123035500D01*
X104095000Y-148478640D02*
X105716860Y-150100500D01*
X107239500Y-150100500D02*
X108014500Y-149325500D01*
X111047000Y-123204000D02*
X111047000Y-123460989D01*
X101795000Y-132712988D02*
X101795000Y-136558000D01*
X101795000Y-136558000D02*
X103554000Y-138317000D01*
X104095000Y-141144000D02*
X104095000Y-148478640D01*
X103554000Y-140603000D02*
X104095000Y-141144000D01*
X101795000Y-132712988D02*
X111047000Y-123460989D01*
D44*
X108025000Y-146540000D02*
X108025000Y-149315000D01*
D39*
X105716860Y-150100500D02*
X107239500Y-150100500D01*
%TO.N,/atmega/bus4.pin1*%
X105402000Y-130237360D02*
X112054360Y-123585000D01*
X105402000Y-131157640D02*
X105402000Y-130237360D01*
D44*
X108025000Y-133500000D02*
X108025000Y-130708000D01*
D39*
X108014500Y-130697500D02*
X107239500Y-131472500D01*
X105716860Y-131472500D02*
X105402000Y-131157640D01*
X114294381Y-123585000D02*
X115252334Y-124542953D01*
X112054360Y-123585000D02*
X114294381Y-123585000D01*
X107239500Y-131472500D02*
X105716860Y-131472500D01*
%TO.N,/atmega/bus4.pin2*%
X106729000Y-134744000D02*
X108025000Y-136040000D01*
X107557736Y-128647310D02*
X112220046Y-123985000D01*
X107557736Y-128858736D02*
X107557736Y-128647310D01*
D44*
X108025000Y-136040000D02*
X108025000Y-138815000D01*
D39*
X112220046Y-123985000D02*
X113563009Y-123985000D01*
X106729000Y-132022000D02*
X106729000Y-134744000D01*
X113563009Y-123985000D02*
X114686648Y-125108639D01*
D44*
%TO.N,/atmega/bus1.pin1*%
X133047000Y-135809000D02*
X133047000Y-138601000D01*
D39*
X129500000Y-130100000D02*
X124383131Y-130100000D01*
X131897000Y-132497000D02*
X129500000Y-130100000D01*
X122537751Y-130697000D02*
X121828427Y-129987676D01*
X133047000Y-135809000D02*
X131897000Y-134659000D01*
X123786131Y-130697000D02*
X122537751Y-130697000D01*
X131897000Y-134659000D02*
X131897000Y-132497000D01*
X124383131Y-130100000D02*
X123786131Y-130697000D01*
%TO.N,/atmega/bus1.pin2*%
X124217445Y-129700000D02*
X123855445Y-130062000D01*
X133057500Y-130483500D02*
X132274000Y-129700000D01*
X123855445Y-130062000D02*
X123034122Y-130062000D01*
X132274000Y-129700000D02*
X124217445Y-129700000D01*
D44*
X133047000Y-133269000D02*
X133047000Y-130494000D01*
D39*
X123034122Y-130062000D02*
X122394112Y-129421990D01*
%TO.N,+5V*%
X111600134Y-131377134D02*
X111500000Y-131477268D01*
X111500000Y-131477268D02*
X111500000Y-134587500D01*
X108544500Y-137555000D02*
X108544500Y-137517500D01*
X108544500Y-137517500D02*
X111474500Y-134587500D01*
X111500000Y-131658000D02*
X111500000Y-134587500D01*
X113555278Y-129421990D02*
X111600134Y-131377134D01*
X111474500Y-134587500D02*
X111500000Y-134587500D01*
X106235000Y-138825500D02*
X107505500Y-137555000D01*
X111555000Y-131332000D02*
X111174000Y-131332000D01*
X111600134Y-131377134D02*
X111555000Y-131332000D01*
%TD*%
%TA.AperFunction,Conductor*%
%TO.N,GND*%
G36*
X101005703Y-137713963D02*
G01*
X101012181Y-137719995D01*
X101695596Y-138403410D01*
X101729081Y-138464733D01*
X101724097Y-138534425D01*
X101692539Y-138577132D01*
X101694797Y-138579390D01*
X101689932Y-138584253D01*
X101669323Y-138600860D01*
X101665255Y-138603474D01*
X101665246Y-138603482D01*
X101632733Y-138641005D01*
X101626702Y-138647482D01*
X101595876Y-138678308D01*
X101592742Y-138683737D01*
X101579079Y-138702925D01*
X101571001Y-138712248D01*
X101571001Y-138712249D01*
X101553466Y-138750641D01*
X101548065Y-138761117D01*
X101529985Y-138792435D01*
X101529984Y-138792438D01*
X101526424Y-138805725D01*
X101519447Y-138825133D01*
X101511213Y-138843163D01*
X101506264Y-138877578D01*
X101503303Y-138892016D01*
X101495878Y-138919727D01*
X101495878Y-138940953D01*
X101494616Y-138958599D01*
X101490731Y-138985621D01*
X101494616Y-139012642D01*
X101495878Y-139030289D01*
X101495878Y-141024769D01*
X101529986Y-141152065D01*
X101545238Y-141178481D01*
X101595878Y-141266192D01*
X101595880Y-141266194D01*
X102784120Y-142454434D01*
X102817605Y-142515757D01*
X102812621Y-142585449D01*
X102770749Y-142641382D01*
X102714710Y-142662801D01*
X102715008Y-142664492D01*
X102709673Y-142665432D01*
X102481516Y-142726566D01*
X102481507Y-142726570D01*
X102267422Y-142826399D01*
X102267420Y-142826400D01*
X102073926Y-142961886D01*
X102073920Y-142961891D01*
X101906891Y-143128920D01*
X101906886Y-143128926D01*
X101771400Y-143322420D01*
X101771399Y-143322422D01*
X101671570Y-143536507D01*
X101671567Y-143536513D01*
X101614364Y-143749999D01*
X101614364Y-143750000D01*
X102511988Y-143750000D01*
X102479075Y-143807007D01*
X102445000Y-143934174D01*
X102445000Y-144065826D01*
X102479075Y-144192993D01*
X102511988Y-144250000D01*
X101614364Y-144250000D01*
X101671567Y-144463486D01*
X101671570Y-144463492D01*
X101771399Y-144677578D01*
X101906894Y-144871082D01*
X102073917Y-145038105D01*
X102260031Y-145168425D01*
X102303656Y-145223003D01*
X102310848Y-145292501D01*
X102279326Y-145354856D01*
X102260031Y-145371575D01*
X102073922Y-145501890D01*
X102073920Y-145501891D01*
X101906891Y-145668920D01*
X101906886Y-145668926D01*
X101771400Y-145862420D01*
X101771399Y-145862422D01*
X101671570Y-146076507D01*
X101671567Y-146076513D01*
X101614364Y-146289999D01*
X101614364Y-146290000D01*
X102511988Y-146290000D01*
X102479075Y-146347007D01*
X102445000Y-146474174D01*
X102445000Y-146605826D01*
X102479075Y-146732993D01*
X102511988Y-146790000D01*
X101614364Y-146790000D01*
X101671567Y-147003486D01*
X101671570Y-147003492D01*
X101771399Y-147217578D01*
X101906894Y-147411082D01*
X102073917Y-147578105D01*
X102267421Y-147713600D01*
X102481507Y-147813429D01*
X102481516Y-147813433D01*
X102695000Y-147870634D01*
X102695000Y-146973012D01*
X102752007Y-147005925D01*
X102879174Y-147040000D01*
X103010826Y-147040000D01*
X103137993Y-147005925D01*
X103195000Y-146973012D01*
X103195000Y-147870633D01*
X103408483Y-147813433D01*
X103408492Y-147813429D01*
X103568095Y-147739006D01*
X103637173Y-147728514D01*
X103700957Y-147757034D01*
X103739196Y-147815510D01*
X103744500Y-147851388D01*
X103744500Y-148524784D01*
X103766329Y-148606249D01*
X103768386Y-148613927D01*
X103768387Y-148613930D01*
X103814527Y-148693848D01*
X103814531Y-148693853D01*
X105294412Y-150173733D01*
X105327897Y-150235056D01*
X105322913Y-150304748D01*
X105282223Y-150359785D01*
X105274286Y-150365875D01*
X105258945Y-150378238D01*
X105254877Y-150380852D01*
X105254868Y-150380860D01*
X105222355Y-150418383D01*
X105216324Y-150424860D01*
X105185498Y-150455686D01*
X105182364Y-150461115D01*
X105168701Y-150480303D01*
X105160623Y-150489626D01*
X105160623Y-150489627D01*
X105143088Y-150528019D01*
X105137687Y-150538495D01*
X105119607Y-150569813D01*
X105119606Y-150569816D01*
X105116046Y-150583103D01*
X105109069Y-150602511D01*
X105100835Y-150620541D01*
X105095886Y-150654956D01*
X105092925Y-150669394D01*
X105085500Y-150697105D01*
X105085500Y-150718331D01*
X105084238Y-150735977D01*
X105080353Y-150763000D01*
X105084238Y-150790020D01*
X105085500Y-150807667D01*
X105085500Y-150828894D01*
X105092923Y-150856596D01*
X105095885Y-150871037D01*
X105100835Y-150905456D01*
X105100837Y-150905464D01*
X105109069Y-150923489D01*
X105116050Y-150942907D01*
X105119607Y-150956183D01*
X105119610Y-150956190D01*
X105137681Y-150987491D01*
X105143086Y-150997974D01*
X105160623Y-151036373D01*
X105168694Y-151045687D01*
X105182368Y-151064890D01*
X105185497Y-151070310D01*
X105185501Y-151070315D01*
X105216322Y-151101136D01*
X105222354Y-151107615D01*
X105254870Y-151145141D01*
X105254874Y-151145145D01*
X105258928Y-151147750D01*
X105279571Y-151164385D01*
X105299713Y-151184527D01*
X105333198Y-151245850D01*
X105328214Y-151315542D01*
X105286342Y-151371475D01*
X105279075Y-151376521D01*
X105268253Y-151383475D01*
X105268252Y-151383477D01*
X105268250Y-151383478D01*
X105268250Y-151383479D01*
X105246050Y-151409098D01*
X105174001Y-151492248D01*
X105174000Y-151492250D01*
X105114212Y-151623165D01*
X105093731Y-151765622D01*
X105114212Y-151908078D01*
X105174000Y-152038993D01*
X105174001Y-152038995D01*
X105268250Y-152147765D01*
X105389325Y-152225575D01*
X105389328Y-152225576D01*
X105389327Y-152225576D01*
X105527414Y-152266121D01*
X105527416Y-152266122D01*
X105527417Y-152266122D01*
X105671337Y-152266122D01*
X105671339Y-152266122D01*
X105712282Y-152254099D01*
X105782148Y-152254099D01*
X105834896Y-152285396D01*
X107747181Y-154197680D01*
X107780666Y-154259003D01*
X107783500Y-154285361D01*
X107783500Y-155966888D01*
X107804041Y-156043546D01*
X107807386Y-156056031D01*
X107807387Y-156056034D01*
X107853527Y-156135952D01*
X107853529Y-156135955D01*
X107853530Y-156135956D01*
X108944074Y-157226500D01*
X109998590Y-158281015D01*
X110032075Y-158342338D01*
X110030684Y-158400788D01*
X110021500Y-158435063D01*
X110021500Y-160097778D01*
X110001815Y-160164817D01*
X109985181Y-160185459D01*
X109968988Y-160201651D01*
X109915780Y-160310488D01*
X109911925Y-160336951D01*
X109905500Y-160381051D01*
X109905500Y-160381056D01*
X109905500Y-160490922D01*
X109899185Y-160522674D01*
X109901193Y-160523213D01*
X109873500Y-160626565D01*
X109873500Y-161980890D01*
X109853815Y-162047929D01*
X109848768Y-162055199D01*
X109830374Y-162079770D01*
X109830373Y-162079772D01*
X109830372Y-162079774D01*
X109782588Y-162207886D01*
X109782587Y-162207889D01*
X109776500Y-162264498D01*
X109776500Y-162713455D01*
X109756815Y-162780494D01*
X109740181Y-162801136D01*
X107754531Y-164786786D01*
X107754527Y-164786791D01*
X107708387Y-164866709D01*
X107708386Y-164866712D01*
X107684500Y-164955856D01*
X107684500Y-167360963D01*
X107664815Y-167428002D01*
X107654214Y-167442164D01*
X107609625Y-167493623D01*
X107609622Y-167493628D01*
X107549834Y-167624543D01*
X107529353Y-167767000D01*
X107549834Y-167909456D01*
X107609622Y-168040371D01*
X107609623Y-168040373D01*
X107703872Y-168149143D01*
X107824947Y-168226953D01*
X107824950Y-168226954D01*
X107824949Y-168226954D01*
X107963036Y-168267499D01*
X107963038Y-168267500D01*
X108110500Y-168267500D01*
X108177539Y-168287185D01*
X108223294Y-168339989D01*
X108234500Y-168391500D01*
X108234500Y-170364500D01*
X108214815Y-170431539D01*
X108162011Y-170477294D01*
X108110505Y-170488500D01*
X108087132Y-170488500D01*
X108087123Y-170488501D01*
X108027516Y-170494908D01*
X107892671Y-170545202D01*
X107892664Y-170545206D01*
X107777455Y-170631452D01*
X107777452Y-170631455D01*
X107691206Y-170746664D01*
X107691202Y-170746671D01*
X107640910Y-170881513D01*
X107640909Y-170881517D01*
X107634500Y-170941127D01*
X107634500Y-170941134D01*
X107634500Y-170941135D01*
X107634500Y-171686870D01*
X107634501Y-171686876D01*
X107640908Y-171746483D01*
X107691202Y-171881328D01*
X107691206Y-171881335D01*
X107777452Y-171996544D01*
X107777455Y-171996547D01*
X107892664Y-172082793D01*
X107892671Y-172082797D01*
X108027517Y-172133091D01*
X108027516Y-172133091D01*
X108034444Y-172133835D01*
X108087127Y-172139500D01*
X109082872Y-172139499D01*
X109142483Y-172133091D01*
X109277331Y-172082796D01*
X109358686Y-172021892D01*
X109424148Y-171997476D01*
X109492421Y-172012327D01*
X109541827Y-172061731D01*
X109556680Y-172130004D01*
X109556285Y-172134416D01*
X109550527Y-172187960D01*
X109550527Y-172551996D01*
X109530842Y-172619035D01*
X109478038Y-172664790D01*
X109408880Y-172674734D01*
X109352216Y-172651263D01*
X109277331Y-172595204D01*
X109277329Y-172595203D01*
X109277328Y-172595202D01*
X109142482Y-172544908D01*
X109142483Y-172544908D01*
X109082883Y-172538501D01*
X109082881Y-172538500D01*
X109082873Y-172538500D01*
X109082864Y-172538500D01*
X108087129Y-172538500D01*
X108087123Y-172538501D01*
X108027516Y-172544908D01*
X107892671Y-172595202D01*
X107892664Y-172595206D01*
X107777455Y-172681452D01*
X107777452Y-172681455D01*
X107691206Y-172796664D01*
X107691202Y-172796671D01*
X107640910Y-172931513D01*
X107640909Y-172931517D01*
X107634500Y-172991127D01*
X107634500Y-172991134D01*
X107634500Y-172991135D01*
X107634500Y-173736870D01*
X107634501Y-173736876D01*
X107640908Y-173796483D01*
X107691202Y-173931328D01*
X107691206Y-173931335D01*
X107777452Y-174046544D01*
X107777455Y-174046547D01*
X107892664Y-174132793D01*
X107892671Y-174132797D01*
X108027517Y-174183091D01*
X108027516Y-174183091D01*
X108034444Y-174183835D01*
X108087127Y-174189500D01*
X108863455Y-174189499D01*
X108930494Y-174209183D01*
X108951136Y-174225818D01*
X109884788Y-175159470D01*
X109884789Y-175159471D01*
X109884791Y-175159472D01*
X109891231Y-175163190D01*
X109964712Y-175205614D01*
X110053856Y-175229500D01*
X110053857Y-175229500D01*
X110146144Y-175229500D01*
X110159713Y-175229500D01*
X110226752Y-175249185D01*
X110272507Y-175301989D01*
X110275895Y-175310168D01*
X110291785Y-175352773D01*
X110291787Y-175352777D01*
X110375884Y-175465116D01*
X110390736Y-175476234D01*
X110432606Y-175532168D01*
X110437590Y-175601860D01*
X110404104Y-175663182D01*
X110342781Y-175696667D01*
X110316424Y-175699500D01*
X100924500Y-175699500D01*
X100857461Y-175679815D01*
X100811706Y-175627011D01*
X100800500Y-175575500D01*
X100800500Y-172378711D01*
X102149500Y-172378711D01*
X102149500Y-172621288D01*
X102181161Y-172861785D01*
X102243947Y-173096104D01*
X102282143Y-173188316D01*
X102336776Y-173320212D01*
X102458064Y-173530289D01*
X102458066Y-173530292D01*
X102458067Y-173530293D01*
X102605733Y-173722736D01*
X102605739Y-173722743D01*
X102777256Y-173894260D01*
X102777263Y-173894266D01*
X102871277Y-173966405D01*
X102969711Y-174041936D01*
X103179788Y-174163224D01*
X103403900Y-174256054D01*
X103638211Y-174318838D01*
X103818586Y-174342584D01*
X103878711Y-174350500D01*
X103878712Y-174350500D01*
X104121289Y-174350500D01*
X104169388Y-174344167D01*
X104361789Y-174318838D01*
X104596100Y-174256054D01*
X104820212Y-174163224D01*
X105030289Y-174041936D01*
X105222738Y-173894265D01*
X105394265Y-173722738D01*
X105541936Y-173530289D01*
X105663224Y-173320212D01*
X105756054Y-173096100D01*
X105818838Y-172861789D01*
X105850500Y-172621288D01*
X105850500Y-172378712D01*
X105818838Y-172138211D01*
X105756054Y-171903900D01*
X105663224Y-171679788D01*
X105541936Y-171469711D01*
X105394265Y-171277262D01*
X105394260Y-171277256D01*
X105222743Y-171105739D01*
X105222736Y-171105733D01*
X105030293Y-170958067D01*
X105030292Y-170958066D01*
X105030289Y-170958064D01*
X104820212Y-170836776D01*
X104820205Y-170836773D01*
X104596104Y-170743947D01*
X104361785Y-170681161D01*
X104121289Y-170649500D01*
X104121288Y-170649500D01*
X103878712Y-170649500D01*
X103878711Y-170649500D01*
X103638214Y-170681161D01*
X103403895Y-170743947D01*
X103179794Y-170836773D01*
X103179785Y-170836777D01*
X102969706Y-170958067D01*
X102777263Y-171105733D01*
X102777256Y-171105739D01*
X102605739Y-171277256D01*
X102605733Y-171277263D01*
X102458067Y-171469706D01*
X102336777Y-171679785D01*
X102336773Y-171679794D01*
X102243947Y-171903895D01*
X102181161Y-172138214D01*
X102149500Y-172378711D01*
X100800500Y-172378711D01*
X100800500Y-156487608D01*
X100820185Y-156420569D01*
X100872989Y-156374814D01*
X100942147Y-156364870D01*
X100963504Y-156369902D01*
X101131302Y-156425505D01*
X101131309Y-156425506D01*
X101234019Y-156435999D01*
X102983999Y-156435999D01*
X103484000Y-156435999D01*
X105233972Y-156435999D01*
X105233986Y-156435998D01*
X105336697Y-156425505D01*
X105503119Y-156370358D01*
X105503124Y-156370356D01*
X105652345Y-156278315D01*
X105776315Y-156154345D01*
X105868356Y-156005124D01*
X105868358Y-156005119D01*
X105923505Y-155838697D01*
X105923506Y-155838690D01*
X105933999Y-155735986D01*
X105934000Y-155735973D01*
X105934000Y-154936000D01*
X103484000Y-154936000D01*
X103484000Y-156435999D01*
X102983999Y-156435999D01*
X102984000Y-156435998D01*
X102984000Y-154436000D01*
X103484000Y-154436000D01*
X105933999Y-154436000D01*
X105933999Y-153636028D01*
X105933998Y-153636013D01*
X105923505Y-153533302D01*
X105868358Y-153366880D01*
X105868356Y-153366875D01*
X105776315Y-153217654D01*
X105652345Y-153093684D01*
X105503124Y-153001643D01*
X105503119Y-153001641D01*
X105336697Y-152946494D01*
X105336690Y-152946493D01*
X105233986Y-152936000D01*
X103484000Y-152936000D01*
X103484000Y-154436000D01*
X102984000Y-154436000D01*
X102984000Y-152936000D01*
X101234028Y-152936000D01*
X101234012Y-152936001D01*
X101131302Y-152946494D01*
X100963504Y-153002097D01*
X100893675Y-153004499D01*
X100833634Y-152968767D01*
X100802441Y-152906247D01*
X100800500Y-152884391D01*
X100800500Y-137807676D01*
X100820185Y-137740637D01*
X100872989Y-137694882D01*
X100942147Y-137684938D01*
X101005703Y-137713963D01*
G37*
%TD.AperFunction*%
%TA.AperFunction,Conductor*%
G36*
X109155495Y-168160185D02*
G01*
X109176137Y-168176819D01*
X112412681Y-171413363D01*
X112446166Y-171474686D01*
X112449000Y-171501044D01*
X112449000Y-174072050D01*
X112429315Y-174139089D01*
X112376511Y-174184844D01*
X112368335Y-174188231D01*
X112313221Y-174208788D01*
X112200884Y-174292884D01*
X112116789Y-174405219D01*
X112067748Y-174536700D01*
X112061500Y-174594809D01*
X112061500Y-175163190D01*
X112067748Y-175221299D01*
X112116789Y-175352780D01*
X112200884Y-175465116D01*
X112215736Y-175476234D01*
X112257606Y-175532168D01*
X112262590Y-175601860D01*
X112229104Y-175663182D01*
X112167781Y-175696667D01*
X112141424Y-175699500D01*
X111632576Y-175699500D01*
X111565537Y-175679815D01*
X111519782Y-175627011D01*
X111509838Y-175557853D01*
X111538863Y-175494297D01*
X111558264Y-175476234D01*
X111573116Y-175465116D01*
X111657212Y-175352778D01*
X111706251Y-175221299D01*
X111707937Y-175205614D01*
X111712499Y-175163190D01*
X111712500Y-175163173D01*
X111712500Y-174594826D01*
X111712499Y-174594809D01*
X111706251Y-174536700D01*
X111694121Y-174504181D01*
X111657212Y-174405222D01*
X111657209Y-174405218D01*
X111657209Y-174405217D01*
X111623858Y-174360666D01*
X111599440Y-174295202D01*
X111614291Y-174226929D01*
X111648813Y-174187088D01*
X111707717Y-174142991D01*
X111793877Y-174027898D01*
X111793881Y-174027891D01*
X111844123Y-173893184D01*
X111844125Y-173893177D01*
X111850526Y-173833649D01*
X111850527Y-173833632D01*
X111850527Y-173260805D01*
X110574527Y-173260805D01*
X110507488Y-173241120D01*
X110461733Y-173188316D01*
X110450527Y-173136805D01*
X110450527Y-172760805D01*
X110950527Y-172760805D01*
X111850527Y-172760805D01*
X111850527Y-172187977D01*
X111850526Y-172187960D01*
X111844125Y-172128432D01*
X111844123Y-172128425D01*
X111793881Y-171993718D01*
X111793877Y-171993711D01*
X111707717Y-171878617D01*
X111707714Y-171878614D01*
X111592620Y-171792454D01*
X111592613Y-171792450D01*
X111457906Y-171742208D01*
X111457899Y-171742206D01*
X111398371Y-171735805D01*
X110950527Y-171735805D01*
X110950527Y-172760805D01*
X110450527Y-172760805D01*
X110450527Y-171735805D01*
X110002682Y-171735805D01*
X109943154Y-171742206D01*
X109943147Y-171742208D01*
X109808440Y-171792450D01*
X109808437Y-171792452D01*
X109727317Y-171853179D01*
X109661853Y-171877596D01*
X109593580Y-171862744D01*
X109544174Y-171813339D01*
X109529322Y-171745066D01*
X109529717Y-171740656D01*
X109535499Y-171686880D01*
X109535500Y-171686873D01*
X109535499Y-170941128D01*
X109529091Y-170881517D01*
X109489945Y-170776562D01*
X109478797Y-170746671D01*
X109478793Y-170746664D01*
X109392547Y-170631455D01*
X109392544Y-170631452D01*
X109277335Y-170545206D01*
X109277328Y-170545202D01*
X109142482Y-170494908D01*
X109142483Y-170494908D01*
X109082883Y-170488501D01*
X109082881Y-170488500D01*
X109082873Y-170488500D01*
X109082865Y-170488500D01*
X109059500Y-170488500D01*
X108992461Y-170468815D01*
X108946706Y-170416011D01*
X108935500Y-170364500D01*
X108935500Y-168264500D01*
X108955185Y-168197461D01*
X109007989Y-168151706D01*
X109059500Y-168140500D01*
X109063039Y-168140500D01*
X109088456Y-168140500D01*
X109155495Y-168160185D01*
G37*
%TD.AperFunction*%
%TA.AperFunction,Conductor*%
G36*
X141146006Y-123801033D02*
G01*
X141189961Y-123855344D01*
X141199500Y-123903038D01*
X141199500Y-175575500D01*
X141179815Y-175642539D01*
X141127011Y-175688294D01*
X141075500Y-175699500D01*
X113457576Y-175699500D01*
X113390537Y-175679815D01*
X113344782Y-175627011D01*
X113334838Y-175557853D01*
X113363863Y-175494297D01*
X113383264Y-175476234D01*
X113398116Y-175465116D01*
X113482212Y-175352778D01*
X113531251Y-175221299D01*
X113532937Y-175205614D01*
X113537499Y-175163190D01*
X113537500Y-175163173D01*
X113537500Y-174594826D01*
X113537499Y-174594809D01*
X113531251Y-174536700D01*
X113516665Y-174497594D01*
X113482212Y-174405222D01*
X113482208Y-174405217D01*
X113441247Y-174350500D01*
X113398116Y-174292884D01*
X113285778Y-174208788D01*
X113230665Y-174188231D01*
X113174732Y-174146359D01*
X113150316Y-174080894D01*
X113150000Y-174072050D01*
X113150000Y-171258358D01*
X113150000Y-171258356D01*
X113126114Y-171169212D01*
X113089466Y-171105735D01*
X113079972Y-171089291D01*
X113079968Y-171089286D01*
X109671503Y-167680821D01*
X109638018Y-167619498D01*
X109636449Y-167610805D01*
X109620165Y-167497543D01*
X109560377Y-167366627D01*
X109466128Y-167257857D01*
X109345053Y-167180047D01*
X109345051Y-167180046D01*
X109345049Y-167180045D01*
X109345050Y-167180045D01*
X109206963Y-167139500D01*
X109206961Y-167139500D01*
X109063039Y-167139500D01*
X109059500Y-167139500D01*
X108992461Y-167119815D01*
X108946706Y-167067011D01*
X108935500Y-167015500D01*
X108935500Y-165883649D01*
X109550527Y-165883649D01*
X109556928Y-165943177D01*
X109556930Y-165943184D01*
X109607172Y-166077891D01*
X109607176Y-166077898D01*
X109693336Y-166192992D01*
X109693339Y-166192995D01*
X109808433Y-166279155D01*
X109808440Y-166279159D01*
X109943147Y-166329401D01*
X109943154Y-166329403D01*
X110002682Y-166335804D01*
X110002699Y-166335805D01*
X110450527Y-166335805D01*
X110950527Y-166335805D01*
X111398355Y-166335805D01*
X111398371Y-166335804D01*
X111457899Y-166329403D01*
X111457906Y-166329401D01*
X111592613Y-166279159D01*
X111592620Y-166279155D01*
X111707714Y-166192995D01*
X111707717Y-166192992D01*
X111793877Y-166077898D01*
X111793881Y-166077891D01*
X111844123Y-165943184D01*
X111844125Y-165943177D01*
X111850526Y-165883649D01*
X111850527Y-165883632D01*
X111850527Y-165310805D01*
X110950527Y-165310805D01*
X110950527Y-166335805D01*
X110450527Y-166335805D01*
X110450527Y-165310805D01*
X109550527Y-165310805D01*
X109550527Y-165883649D01*
X108935500Y-165883649D01*
X108935500Y-165280726D01*
X108955185Y-165213687D01*
X108971819Y-165193045D01*
X109364612Y-164800252D01*
X109425935Y-164766767D01*
X109495627Y-164771751D01*
X109539974Y-164800252D01*
X109550527Y-164810805D01*
X111850527Y-164810805D01*
X111850527Y-164237977D01*
X111850526Y-164237960D01*
X111844125Y-164178432D01*
X111844123Y-164178425D01*
X111793881Y-164043718D01*
X111793879Y-164043715D01*
X111759516Y-163997812D01*
X111735098Y-163932347D01*
X111749949Y-163864074D01*
X111799354Y-163814668D01*
X111858782Y-163799500D01*
X112407838Y-163799500D01*
X112407840Y-163799500D01*
X112496984Y-163775614D01*
X112576908Y-163729470D01*
X112614211Y-163692167D01*
X112675534Y-163658682D01*
X112687975Y-163657344D01*
X112687918Y-163656909D01*
X112695969Y-163655848D01*
X112695978Y-163655848D01*
X112785122Y-163631962D01*
X112786902Y-163630934D01*
X112787856Y-163630384D01*
X112800513Y-163623075D01*
X112865046Y-163585818D01*
X113771469Y-162679394D01*
X113817614Y-162599470D01*
X113841500Y-162510326D01*
X113841500Y-153705544D01*
X113861185Y-153638505D01*
X113877819Y-153617863D01*
X113958863Y-153536819D01*
X114020186Y-153503334D01*
X114046544Y-153500500D01*
X114071962Y-153500500D01*
X114071962Y-153500499D01*
X114210053Y-153459953D01*
X114331128Y-153382143D01*
X114425377Y-153273373D01*
X114485165Y-153142457D01*
X114505647Y-153000000D01*
X114485165Y-152857543D01*
X114483373Y-152851441D01*
X114483369Y-152781571D01*
X114521141Y-152722791D01*
X114584695Y-152693763D01*
X114602348Y-152692500D01*
X114784746Y-152692500D01*
X114851785Y-152712185D01*
X114897540Y-152764989D01*
X114907484Y-152834146D01*
X114904120Y-152857543D01*
X114894853Y-152922000D01*
X114896866Y-152936000D01*
X114915334Y-153064456D01*
X114961194Y-153164873D01*
X114975123Y-153195373D01*
X115069372Y-153304143D01*
X115162540Y-153364018D01*
X115208294Y-153416821D01*
X115219500Y-153468333D01*
X115219500Y-156267456D01*
X115199815Y-156334495D01*
X115183181Y-156355137D01*
X114920058Y-156618259D01*
X114920052Y-156618267D01*
X114884867Y-156679211D01*
X114884867Y-156679212D01*
X114873914Y-156698182D01*
X114873913Y-156698185D01*
X114850027Y-156787329D01*
X114850027Y-163911305D01*
X114830342Y-163978344D01*
X114777538Y-164024099D01*
X114726027Y-164035305D01*
X114525850Y-164035305D01*
X114452791Y-164049837D01*
X114452787Y-164049838D01*
X114369926Y-164105204D01*
X114314560Y-164188065D01*
X114314559Y-164188069D01*
X114300027Y-164261126D01*
X114300027Y-165860483D01*
X114314559Y-165933540D01*
X114314560Y-165933544D01*
X114314561Y-165933545D01*
X114369926Y-166016406D01*
X114452787Y-166071771D01*
X114452791Y-166071772D01*
X114525848Y-166086304D01*
X114525851Y-166086305D01*
X114525853Y-166086305D01*
X114726027Y-166086305D01*
X114793066Y-166105990D01*
X114838821Y-166158794D01*
X114850027Y-166210305D01*
X114850027Y-171861305D01*
X114830342Y-171928344D01*
X114777538Y-171974099D01*
X114726027Y-171985305D01*
X114525850Y-171985305D01*
X114452791Y-171999837D01*
X114452787Y-171999838D01*
X114369926Y-172055204D01*
X114314560Y-172138065D01*
X114314559Y-172138069D01*
X114300027Y-172211126D01*
X114300027Y-173810483D01*
X114314559Y-173883540D01*
X114314560Y-173883544D01*
X114314561Y-173883545D01*
X114369926Y-173966406D01*
X114452787Y-174021771D01*
X114452791Y-174021772D01*
X114525848Y-174036304D01*
X114525851Y-174036305D01*
X114525853Y-174036305D01*
X115875203Y-174036305D01*
X115875204Y-174036304D01*
X115948267Y-174021771D01*
X116031128Y-173966406D01*
X116086493Y-173883545D01*
X116090053Y-173865649D01*
X126620527Y-173865649D01*
X126626928Y-173925177D01*
X126626930Y-173925184D01*
X126677172Y-174059891D01*
X126677176Y-174059898D01*
X126763336Y-174174992D01*
X126763339Y-174174995D01*
X126878433Y-174261155D01*
X126878440Y-174261159D01*
X127013147Y-174311401D01*
X127013154Y-174311403D01*
X127072682Y-174317804D01*
X127072699Y-174317805D01*
X127520527Y-174317805D01*
X128020527Y-174317805D01*
X128468355Y-174317805D01*
X128468371Y-174317804D01*
X128527899Y-174311403D01*
X128527906Y-174311401D01*
X128662613Y-174261159D01*
X128662620Y-174261155D01*
X128777714Y-174174995D01*
X128777717Y-174174992D01*
X128863877Y-174059898D01*
X128863881Y-174059891D01*
X128914123Y-173925184D01*
X128914125Y-173925177D01*
X128920526Y-173865649D01*
X128920527Y-173865632D01*
X128920527Y-173292805D01*
X128020527Y-173292805D01*
X128020527Y-174317805D01*
X127520527Y-174317805D01*
X127520527Y-173292805D01*
X126620527Y-173292805D01*
X126620527Y-173865649D01*
X116090053Y-173865649D01*
X116101027Y-173810479D01*
X116101027Y-172211131D01*
X116101027Y-172211128D01*
X116101026Y-172211126D01*
X116086494Y-172138069D01*
X116086493Y-172138065D01*
X116084055Y-172134416D01*
X116031128Y-172055204D01*
X115948267Y-171999839D01*
X115948266Y-171999838D01*
X115948262Y-171999837D01*
X115875204Y-171985305D01*
X115875201Y-171985305D01*
X115675027Y-171985305D01*
X115607988Y-171965620D01*
X115562233Y-171912816D01*
X115551027Y-171861305D01*
X115551027Y-166210305D01*
X115570712Y-166143266D01*
X115623516Y-166097511D01*
X115675027Y-166086305D01*
X115730500Y-166086305D01*
X115797539Y-166105990D01*
X115843294Y-166158794D01*
X115854500Y-166210305D01*
X115854500Y-170687422D01*
X115869646Y-170743946D01*
X115869645Y-170743946D01*
X115869646Y-170743948D01*
X115878384Y-170776562D01*
X115878385Y-170776564D01*
X115924527Y-170856486D01*
X115924531Y-170856491D01*
X116422708Y-171354668D01*
X116456193Y-171415991D01*
X116459027Y-171442349D01*
X116459027Y-172595483D01*
X116473559Y-172668540D01*
X116473560Y-172668544D01*
X116473561Y-172668545D01*
X116528926Y-172751406D01*
X116590885Y-172792805D01*
X116611787Y-172806771D01*
X116611791Y-172806772D01*
X116684848Y-172821304D01*
X116684851Y-172821305D01*
X116684853Y-172821305D01*
X118284203Y-172821305D01*
X118284204Y-172821304D01*
X118357267Y-172806771D01*
X118440128Y-172751406D01*
X118495493Y-172668545D01*
X118510027Y-172595479D01*
X118510027Y-172395305D01*
X118529712Y-172328266D01*
X118582516Y-172282511D01*
X118634027Y-172271305D01*
X124285027Y-172271305D01*
X124352066Y-172290990D01*
X124397821Y-172343794D01*
X124409027Y-172395305D01*
X124409027Y-172595483D01*
X124423559Y-172668540D01*
X124423560Y-172668544D01*
X124423561Y-172668545D01*
X124478926Y-172751406D01*
X124540885Y-172792805D01*
X124561787Y-172806771D01*
X124561791Y-172806772D01*
X124634848Y-172821304D01*
X124634851Y-172821305D01*
X124634853Y-172821305D01*
X126234203Y-172821305D01*
X126234204Y-172821304D01*
X126307267Y-172806771D01*
X126390128Y-172751406D01*
X126393425Y-172746470D01*
X126447036Y-172701667D01*
X126516361Y-172692959D01*
X126579389Y-172723113D01*
X126616109Y-172782556D01*
X126617016Y-172789294D01*
X126620527Y-172792805D01*
X127520527Y-172792805D01*
X128020527Y-172792805D01*
X128920527Y-172792805D01*
X128920527Y-172219977D01*
X128920526Y-172219960D01*
X128914125Y-172160432D01*
X128914123Y-172160425D01*
X128863881Y-172025718D01*
X128863877Y-172025711D01*
X128777717Y-171910617D01*
X128777714Y-171910614D01*
X128662620Y-171824454D01*
X128662613Y-171824450D01*
X128527906Y-171774208D01*
X128527899Y-171774206D01*
X128468371Y-171767805D01*
X128020527Y-171767805D01*
X128020527Y-172792805D01*
X127520527Y-172792805D01*
X127520527Y-171767805D01*
X127072682Y-171767805D01*
X127013154Y-171774206D01*
X127013147Y-171774208D01*
X126878440Y-171824450D01*
X126878433Y-171824454D01*
X126763339Y-171910614D01*
X126683293Y-172017541D01*
X126627359Y-172059411D01*
X126557667Y-172064395D01*
X126496345Y-172030909D01*
X126462860Y-171969585D01*
X126460027Y-171943229D01*
X126460027Y-171246128D01*
X126460026Y-171246126D01*
X126445494Y-171173069D01*
X126445493Y-171173065D01*
X126442917Y-171169209D01*
X126390128Y-171090204D01*
X126307267Y-171034839D01*
X126307266Y-171034838D01*
X126307262Y-171034837D01*
X126234204Y-171020305D01*
X126234201Y-171020305D01*
X124634853Y-171020305D01*
X124634850Y-171020305D01*
X124561791Y-171034837D01*
X124561787Y-171034838D01*
X124478926Y-171090204D01*
X124423560Y-171173065D01*
X124423559Y-171173069D01*
X124409027Y-171246126D01*
X124409027Y-171446305D01*
X124389342Y-171513344D01*
X124336538Y-171559099D01*
X124285027Y-171570305D01*
X118634027Y-171570305D01*
X118566988Y-171550620D01*
X118521233Y-171497816D01*
X118510027Y-171446305D01*
X118510027Y-171246128D01*
X118510026Y-171246126D01*
X118495494Y-171173069D01*
X118495493Y-171173065D01*
X118492917Y-171169209D01*
X118440128Y-171090204D01*
X118357267Y-171034839D01*
X118357266Y-171034838D01*
X118357262Y-171034837D01*
X118284204Y-171020305D01*
X118284201Y-171020305D01*
X117131071Y-171020305D01*
X117064032Y-171000620D01*
X117043390Y-170983986D01*
X116591819Y-170532415D01*
X116558334Y-170471092D01*
X116555500Y-170444734D01*
X116555500Y-168694805D01*
X116575185Y-168627766D01*
X116627989Y-168582011D01*
X116679500Y-168570805D01*
X117234527Y-168570805D01*
X117734527Y-168570805D01*
X118307355Y-168570805D01*
X118307371Y-168570804D01*
X118366899Y-168564403D01*
X118366906Y-168564401D01*
X118501613Y-168514159D01*
X118501620Y-168514155D01*
X118616714Y-168427995D01*
X118616717Y-168427992D01*
X118702877Y-168312898D01*
X118702881Y-168312891D01*
X118753123Y-168178184D01*
X118753125Y-168178177D01*
X118759526Y-168118649D01*
X124159527Y-168118649D01*
X124165928Y-168178177D01*
X124165930Y-168178184D01*
X124216172Y-168312891D01*
X124216176Y-168312898D01*
X124302336Y-168427992D01*
X124302339Y-168427995D01*
X124417433Y-168514155D01*
X124417440Y-168514159D01*
X124552147Y-168564401D01*
X124552154Y-168564403D01*
X124611682Y-168570804D01*
X124611699Y-168570805D01*
X125184527Y-168570805D01*
X125684527Y-168570805D01*
X126257355Y-168570805D01*
X126257371Y-168570804D01*
X126316899Y-168564403D01*
X126316906Y-168564401D01*
X126451613Y-168514159D01*
X126451620Y-168514155D01*
X126566714Y-168427995D01*
X126566717Y-168427992D01*
X126652877Y-168312898D01*
X126652881Y-168312891D01*
X126703123Y-168178184D01*
X126703125Y-168178177D01*
X126709526Y-168118649D01*
X126709527Y-168118632D01*
X126709527Y-167670805D01*
X125684527Y-167670805D01*
X125684527Y-168570805D01*
X125184527Y-168570805D01*
X125184527Y-167670805D01*
X124159527Y-167670805D01*
X124159527Y-168118649D01*
X118759526Y-168118649D01*
X118759527Y-168118632D01*
X118759527Y-167670805D01*
X117734527Y-167670805D01*
X117734527Y-168570805D01*
X117234527Y-168570805D01*
X117234527Y-167170805D01*
X117734527Y-167170805D01*
X118759527Y-167170805D01*
X118759527Y-166722977D01*
X118759526Y-166722960D01*
X124159527Y-166722960D01*
X124159527Y-167170805D01*
X125184527Y-167170805D01*
X125684527Y-167170805D01*
X126709527Y-167170805D01*
X126709527Y-166722977D01*
X126709526Y-166722960D01*
X126703125Y-166663432D01*
X126703123Y-166663425D01*
X126652881Y-166528718D01*
X126652877Y-166528711D01*
X126566717Y-166413617D01*
X126566714Y-166413614D01*
X126451620Y-166327454D01*
X126451613Y-166327450D01*
X126316906Y-166277208D01*
X126316899Y-166277206D01*
X126257371Y-166270805D01*
X125684527Y-166270805D01*
X125684527Y-167170805D01*
X125184527Y-167170805D01*
X125184527Y-166270805D01*
X124611682Y-166270805D01*
X124552154Y-166277206D01*
X124552147Y-166277208D01*
X124417440Y-166327450D01*
X124417433Y-166327454D01*
X124302339Y-166413614D01*
X124302336Y-166413617D01*
X124216176Y-166528711D01*
X124216172Y-166528718D01*
X124165930Y-166663425D01*
X124165928Y-166663432D01*
X124159527Y-166722960D01*
X118759526Y-166722960D01*
X118753125Y-166663432D01*
X118753123Y-166663425D01*
X118702881Y-166528718D01*
X118702877Y-166528711D01*
X118616717Y-166413617D01*
X118616714Y-166413614D01*
X118501620Y-166327454D01*
X118501613Y-166327450D01*
X118366906Y-166277208D01*
X118366899Y-166277206D01*
X118307371Y-166270805D01*
X117734527Y-166270805D01*
X117734527Y-167170805D01*
X117234527Y-167170805D01*
X117234527Y-166270805D01*
X116679500Y-166270805D01*
X116612461Y-166251120D01*
X116566706Y-166198316D01*
X116555500Y-166146805D01*
X116555500Y-165960305D01*
X116575185Y-165893266D01*
X116627989Y-165847511D01*
X116679500Y-165836305D01*
X118284203Y-165836305D01*
X118284204Y-165836304D01*
X118357267Y-165821771D01*
X118440128Y-165766406D01*
X118495493Y-165683545D01*
X118510027Y-165610479D01*
X118510027Y-165410305D01*
X118529712Y-165343266D01*
X118582516Y-165297511D01*
X118634027Y-165286305D01*
X124285027Y-165286305D01*
X124352066Y-165305990D01*
X124397821Y-165358794D01*
X124409027Y-165410305D01*
X124409027Y-165610483D01*
X124423559Y-165683540D01*
X124423560Y-165683544D01*
X124423561Y-165683545D01*
X124478926Y-165766406D01*
X124561787Y-165821771D01*
X124561791Y-165821772D01*
X124634848Y-165836304D01*
X124634851Y-165836305D01*
X124634853Y-165836305D01*
X126234203Y-165836305D01*
X126234204Y-165836304D01*
X126307267Y-165821771D01*
X126390128Y-165766406D01*
X126393425Y-165761470D01*
X126447036Y-165716667D01*
X126516361Y-165707959D01*
X126579389Y-165738113D01*
X126616109Y-165797556D01*
X126620527Y-165830362D01*
X126620527Y-165915649D01*
X126626928Y-165975177D01*
X126626930Y-165975184D01*
X126677172Y-166109891D01*
X126677176Y-166109898D01*
X126763336Y-166224992D01*
X126763339Y-166224995D01*
X126878433Y-166311155D01*
X126878440Y-166311159D01*
X127013147Y-166361401D01*
X127013154Y-166361403D01*
X127072682Y-166367804D01*
X127072699Y-166367805D01*
X127520527Y-166367805D01*
X128020527Y-166367805D01*
X128468355Y-166367805D01*
X128468371Y-166367804D01*
X128527899Y-166361403D01*
X128527906Y-166361401D01*
X128662613Y-166311159D01*
X128662620Y-166311155D01*
X128777714Y-166224995D01*
X128777717Y-166224992D01*
X128863877Y-166109898D01*
X128863881Y-166109891D01*
X128914123Y-165975184D01*
X128914125Y-165975177D01*
X128920526Y-165915649D01*
X128920527Y-165915632D01*
X128920527Y-165342805D01*
X128020527Y-165342805D01*
X128020527Y-166367805D01*
X127520527Y-166367805D01*
X127520527Y-163817805D01*
X127072682Y-163817805D01*
X127013154Y-163824206D01*
X127013147Y-163824208D01*
X126878440Y-163874450D01*
X126878433Y-163874454D01*
X126763339Y-163960614D01*
X126763336Y-163960617D01*
X126677176Y-164075711D01*
X126677173Y-164075716D01*
X126651958Y-164143322D01*
X126610086Y-164199255D01*
X126544622Y-164223672D01*
X126476349Y-164208820D01*
X126432674Y-164168879D01*
X126390128Y-164105204D01*
X126307266Y-164049838D01*
X126307262Y-164049837D01*
X126234204Y-164035305D01*
X126234201Y-164035305D01*
X124634853Y-164035305D01*
X124634850Y-164035305D01*
X124561791Y-164049837D01*
X124561787Y-164049838D01*
X124478926Y-164105204D01*
X124423560Y-164188065D01*
X124423559Y-164188069D01*
X124409027Y-164261126D01*
X124409027Y-164461305D01*
X124389342Y-164528344D01*
X124336538Y-164574099D01*
X124285027Y-164585305D01*
X118634027Y-164585305D01*
X118566988Y-164565620D01*
X118521233Y-164512816D01*
X118510027Y-164461305D01*
X118510027Y-164261128D01*
X118510026Y-164261126D01*
X118495494Y-164188069D01*
X118495493Y-164188065D01*
X118440128Y-164105204D01*
X118357267Y-164049839D01*
X118357266Y-164049838D01*
X118357262Y-164049837D01*
X118284204Y-164035305D01*
X118284201Y-164035305D01*
X117079500Y-164035305D01*
X117012461Y-164015620D01*
X116966706Y-163962816D01*
X116955500Y-163911305D01*
X116955500Y-163745173D01*
X116955500Y-163745171D01*
X116931614Y-163656027D01*
X116903019Y-163606500D01*
X116903019Y-163606499D01*
X116903017Y-163606497D01*
X116902802Y-163606124D01*
X116885470Y-163576103D01*
X116885469Y-163576102D01*
X116885466Y-163576098D01*
X116387346Y-163077978D01*
X116353861Y-163016655D01*
X116351027Y-162990297D01*
X116351027Y-161664333D01*
X116370712Y-161597294D01*
X116423516Y-161551539D01*
X116492674Y-161541595D01*
X116518360Y-161548151D01*
X116602147Y-161579401D01*
X116602154Y-161579403D01*
X116661682Y-161585804D01*
X116661699Y-161585805D01*
X117234527Y-161585805D01*
X117734527Y-161585805D01*
X118307355Y-161585805D01*
X118307371Y-161585804D01*
X118366899Y-161579403D01*
X118366906Y-161579401D01*
X118501613Y-161529159D01*
X118501620Y-161529155D01*
X118616714Y-161442995D01*
X118616717Y-161442992D01*
X118702877Y-161327898D01*
X118702881Y-161327891D01*
X118753123Y-161193184D01*
X118753125Y-161193177D01*
X118759526Y-161133649D01*
X124159527Y-161133649D01*
X124165928Y-161193177D01*
X124165930Y-161193184D01*
X124216172Y-161327891D01*
X124216176Y-161327898D01*
X124302336Y-161442992D01*
X124302339Y-161442995D01*
X124417433Y-161529155D01*
X124417440Y-161529159D01*
X124552147Y-161579401D01*
X124552154Y-161579403D01*
X124611682Y-161585804D01*
X124611699Y-161585805D01*
X125184527Y-161585805D01*
X125684527Y-161585805D01*
X126257355Y-161585805D01*
X126257371Y-161585804D01*
X126316899Y-161579403D01*
X126316906Y-161579401D01*
X126451613Y-161529159D01*
X126451620Y-161529155D01*
X126566714Y-161442995D01*
X126566717Y-161442992D01*
X126652877Y-161327898D01*
X126652881Y-161327891D01*
X126703123Y-161193184D01*
X126703125Y-161193177D01*
X126709526Y-161133649D01*
X126709527Y-161133632D01*
X126709527Y-160685805D01*
X125684527Y-160685805D01*
X125684527Y-161585805D01*
X125184527Y-161585805D01*
X125184527Y-160685805D01*
X124159527Y-160685805D01*
X124159527Y-161133649D01*
X118759526Y-161133649D01*
X118759527Y-161133632D01*
X118759527Y-160685805D01*
X117734527Y-160685805D01*
X117734527Y-161585805D01*
X117234527Y-161585805D01*
X117234527Y-160185805D01*
X117734527Y-160185805D01*
X118759527Y-160185805D01*
X118759527Y-159737977D01*
X118759526Y-159737960D01*
X118753125Y-159678432D01*
X118753123Y-159678425D01*
X118702881Y-159543718D01*
X118702877Y-159543711D01*
X118616717Y-159428617D01*
X118616714Y-159428614D01*
X118501620Y-159342454D01*
X118501613Y-159342450D01*
X118366906Y-159292208D01*
X118366899Y-159292206D01*
X118307371Y-159285805D01*
X117734527Y-159285805D01*
X117734527Y-160185805D01*
X117234527Y-160185805D01*
X117234527Y-159285805D01*
X116661682Y-159285805D01*
X116602154Y-159292206D01*
X116602143Y-159292208D01*
X116518359Y-159323458D01*
X116448667Y-159328442D01*
X116387345Y-159294956D01*
X116353860Y-159233633D01*
X116351027Y-159207276D01*
X116351027Y-157461229D01*
X116370712Y-157394190D01*
X116387346Y-157373548D01*
X116493471Y-157267423D01*
X116650469Y-157110426D01*
X116696614Y-157030501D01*
X116702108Y-157009996D01*
X116720500Y-156941357D01*
X116720500Y-155455012D01*
X116740185Y-155387973D01*
X116792989Y-155342218D01*
X116862147Y-155332274D01*
X116925703Y-155361299D01*
X116951886Y-155393010D01*
X116989530Y-155458212D01*
X120688788Y-159157470D01*
X120688790Y-159157471D01*
X120688794Y-159157474D01*
X120755679Y-159196090D01*
X120755680Y-159196090D01*
X120768712Y-159203614D01*
X120857856Y-159227500D01*
X124205171Y-159227500D01*
X124272210Y-159247185D01*
X124317965Y-159299989D01*
X124327909Y-159369147D01*
X124304438Y-159425811D01*
X124216173Y-159543716D01*
X124216172Y-159543718D01*
X124165930Y-159678425D01*
X124165928Y-159678432D01*
X124159527Y-159737960D01*
X124159527Y-160185805D01*
X126745761Y-160185805D01*
X126812800Y-160205490D01*
X126833442Y-160222124D01*
X127833708Y-161222390D01*
X127867193Y-161283713D01*
X127870027Y-161310071D01*
X127870027Y-163137949D01*
X127878221Y-163168530D01*
X127891273Y-163217239D01*
X127893912Y-163227091D01*
X127940056Y-163307016D01*
X128239164Y-163606124D01*
X128272649Y-163667447D01*
X128267665Y-163737139D01*
X128225793Y-163793072D01*
X128160329Y-163817489D01*
X128151483Y-163817805D01*
X128020527Y-163817805D01*
X128020527Y-164842805D01*
X128920527Y-164842805D01*
X128920527Y-164269977D01*
X128920526Y-164269960D01*
X128914125Y-164210432D01*
X128914123Y-164210425D01*
X128863881Y-164075718D01*
X128863880Y-164075716D01*
X128805560Y-163997811D01*
X128781143Y-163932347D01*
X128795994Y-163864074D01*
X128845399Y-163814668D01*
X128904827Y-163799500D01*
X130555178Y-163799500D01*
X130622217Y-163819185D01*
X130642859Y-163835819D01*
X131333708Y-164526668D01*
X131367193Y-164587991D01*
X131370027Y-164614349D01*
X131370027Y-165892483D01*
X131384559Y-165965540D01*
X131384560Y-165965544D01*
X131384561Y-165965545D01*
X131439926Y-166048406D01*
X131496647Y-166086305D01*
X131522787Y-166103771D01*
X131522791Y-166103772D01*
X131595848Y-166118304D01*
X131595851Y-166118305D01*
X131595853Y-166118305D01*
X131796027Y-166118305D01*
X131863066Y-166137990D01*
X131908821Y-166190794D01*
X131920027Y-166242305D01*
X131920027Y-171893305D01*
X131900342Y-171960344D01*
X131847538Y-172006099D01*
X131796027Y-172017305D01*
X131595850Y-172017305D01*
X131522791Y-172031837D01*
X131522787Y-172031838D01*
X131439926Y-172087204D01*
X131384560Y-172170065D01*
X131384559Y-172170069D01*
X131370027Y-172243126D01*
X131370027Y-173842483D01*
X131384559Y-173915540D01*
X131384560Y-173915544D01*
X131384561Y-173915545D01*
X131439926Y-173998406D01*
X131522787Y-174053771D01*
X131522791Y-174053772D01*
X131595848Y-174068304D01*
X131595851Y-174068305D01*
X131595853Y-174068305D01*
X132945203Y-174068305D01*
X132945204Y-174068304D01*
X133018267Y-174053771D01*
X133101128Y-173998406D01*
X133156493Y-173915545D01*
X133171027Y-173842479D01*
X133171027Y-172378711D01*
X136149500Y-172378711D01*
X136149500Y-172621288D01*
X136181161Y-172861785D01*
X136243947Y-173096104D01*
X136282143Y-173188316D01*
X136336776Y-173320212D01*
X136458064Y-173530289D01*
X136458066Y-173530292D01*
X136458067Y-173530293D01*
X136605733Y-173722736D01*
X136605739Y-173722743D01*
X136777256Y-173894260D01*
X136777263Y-173894266D01*
X136871277Y-173966405D01*
X136969711Y-174041936D01*
X137179788Y-174163224D01*
X137403900Y-174256054D01*
X137638211Y-174318838D01*
X137818586Y-174342584D01*
X137878711Y-174350500D01*
X137878712Y-174350500D01*
X138121289Y-174350500D01*
X138169388Y-174344167D01*
X138361789Y-174318838D01*
X138596100Y-174256054D01*
X138820212Y-174163224D01*
X139030289Y-174041936D01*
X139222738Y-173894265D01*
X139394265Y-173722738D01*
X139541936Y-173530289D01*
X139663224Y-173320212D01*
X139756054Y-173096100D01*
X139818838Y-172861789D01*
X139850500Y-172621288D01*
X139850500Y-172378712D01*
X139818838Y-172138211D01*
X139756054Y-171903900D01*
X139663224Y-171679788D01*
X139541936Y-171469711D01*
X139394265Y-171277262D01*
X139394260Y-171277256D01*
X139222743Y-171105739D01*
X139222736Y-171105733D01*
X139030293Y-170958067D01*
X139030292Y-170958066D01*
X139030289Y-170958064D01*
X138820212Y-170836776D01*
X138820205Y-170836773D01*
X138596104Y-170743947D01*
X138361785Y-170681161D01*
X138121289Y-170649500D01*
X138121288Y-170649500D01*
X137878712Y-170649500D01*
X137878711Y-170649500D01*
X137638214Y-170681161D01*
X137403895Y-170743947D01*
X137179794Y-170836773D01*
X137179785Y-170836777D01*
X136969706Y-170958067D01*
X136777263Y-171105733D01*
X136777256Y-171105739D01*
X136605739Y-171277256D01*
X136605733Y-171277263D01*
X136458067Y-171469706D01*
X136336777Y-171679785D01*
X136336773Y-171679794D01*
X136243947Y-171903895D01*
X136181161Y-172138214D01*
X136149500Y-172378711D01*
X133171027Y-172378711D01*
X133171027Y-172243131D01*
X133171027Y-172243128D01*
X133171026Y-172243126D01*
X133156494Y-172170069D01*
X133156493Y-172170065D01*
X133101128Y-172087204D01*
X133018267Y-172031839D01*
X133018266Y-172031838D01*
X133018262Y-172031837D01*
X132945204Y-172017305D01*
X132945201Y-172017305D01*
X132745027Y-172017305D01*
X132677988Y-171997620D01*
X132632233Y-171944816D01*
X132621027Y-171893305D01*
X132621027Y-166242305D01*
X132640712Y-166175266D01*
X132693516Y-166129511D01*
X132745027Y-166118305D01*
X132945203Y-166118305D01*
X132945204Y-166118304D01*
X133018267Y-166103771D01*
X133101128Y-166048406D01*
X133156493Y-165965545D01*
X133171027Y-165892479D01*
X133171027Y-164293131D01*
X133171027Y-164293128D01*
X133171026Y-164293126D01*
X133156494Y-164220069D01*
X133156493Y-164220065D01*
X133101128Y-164137204D01*
X133018267Y-164081839D01*
X133018266Y-164081838D01*
X133018262Y-164081837D01*
X132945204Y-164067305D01*
X132945201Y-164067305D01*
X131917071Y-164067305D01*
X131850032Y-164047620D01*
X131829390Y-164030986D01*
X130966935Y-163168531D01*
X130966930Y-163168527D01*
X130887012Y-163122387D01*
X130887011Y-163122386D01*
X130887010Y-163122386D01*
X130797866Y-163098500D01*
X130797865Y-163098500D01*
X130398862Y-163098500D01*
X130331823Y-163078815D01*
X130286068Y-163026011D01*
X130276124Y-162956853D01*
X130295759Y-162905611D01*
X130301536Y-162896963D01*
X130306493Y-162889545D01*
X130321027Y-162816479D01*
X130321027Y-162616305D01*
X130340712Y-162549266D01*
X130393516Y-162503511D01*
X130445027Y-162492305D01*
X136096027Y-162492305D01*
X136163066Y-162511990D01*
X136208821Y-162564794D01*
X136220027Y-162616305D01*
X136220027Y-162816483D01*
X136234559Y-162889540D01*
X136234560Y-162889544D01*
X136234561Y-162889545D01*
X136289926Y-162972406D01*
X136368457Y-163024878D01*
X136372787Y-163027771D01*
X136372791Y-163027772D01*
X136445848Y-163042304D01*
X136445851Y-163042305D01*
X136445853Y-163042305D01*
X138045203Y-163042305D01*
X138045204Y-163042304D01*
X138118267Y-163027771D01*
X138201128Y-162972406D01*
X138256493Y-162889545D01*
X138271027Y-162816479D01*
X138271027Y-161467131D01*
X138271027Y-161467128D01*
X138271026Y-161467126D01*
X138256494Y-161394069D01*
X138256493Y-161394065D01*
X138212282Y-161327898D01*
X138201128Y-161311204D01*
X138145762Y-161274210D01*
X138118266Y-161255838D01*
X138118262Y-161255837D01*
X138045204Y-161241305D01*
X138045201Y-161241305D01*
X136445853Y-161241305D01*
X136445850Y-161241305D01*
X136372791Y-161255837D01*
X136372787Y-161255838D01*
X136289926Y-161311204D01*
X136234560Y-161394065D01*
X136234559Y-161394069D01*
X136220027Y-161467126D01*
X136220027Y-161667305D01*
X136200342Y-161734344D01*
X136147538Y-161780099D01*
X136096027Y-161791305D01*
X130445027Y-161791305D01*
X130377988Y-161771620D01*
X130332233Y-161718816D01*
X130321027Y-161667305D01*
X130321027Y-161467128D01*
X130321026Y-161467126D01*
X130306494Y-161394069D01*
X130306493Y-161394065D01*
X130262282Y-161327898D01*
X130251128Y-161311204D01*
X130195762Y-161274210D01*
X130168266Y-161255838D01*
X130168262Y-161255837D01*
X130095204Y-161241305D01*
X130095201Y-161241305D01*
X129461035Y-161241305D01*
X129393996Y-161221620D01*
X129373354Y-161204986D01*
X127984549Y-159816181D01*
X127951064Y-159754858D01*
X127956048Y-159685166D01*
X127997920Y-159629233D01*
X128063384Y-159604816D01*
X128072230Y-159604500D01*
X130596331Y-159604500D01*
X130596347Y-159604501D01*
X130603943Y-159604501D01*
X130762054Y-159604501D01*
X130762057Y-159604501D01*
X130914785Y-159563577D01*
X130964904Y-159534639D01*
X131051716Y-159484520D01*
X131163520Y-159372716D01*
X131163520Y-159372714D01*
X131173728Y-159362507D01*
X131173729Y-159362504D01*
X132196584Y-158339649D01*
X135970527Y-158339649D01*
X135976928Y-158399177D01*
X135976930Y-158399184D01*
X136027172Y-158533891D01*
X136027176Y-158533898D01*
X136113336Y-158648992D01*
X136113339Y-158648995D01*
X136228433Y-158735155D01*
X136228440Y-158735159D01*
X136363147Y-158785401D01*
X136363154Y-158785403D01*
X136422682Y-158791804D01*
X136422699Y-158791805D01*
X136995527Y-158791805D01*
X137495527Y-158791805D01*
X138068355Y-158791805D01*
X138068371Y-158791804D01*
X138127899Y-158785403D01*
X138127906Y-158785401D01*
X138262613Y-158735159D01*
X138262620Y-158735155D01*
X138377714Y-158648995D01*
X138377717Y-158648992D01*
X138463877Y-158533898D01*
X138463881Y-158533891D01*
X138514123Y-158399184D01*
X138514125Y-158399177D01*
X138520526Y-158339649D01*
X138520527Y-158339632D01*
X138520527Y-157891805D01*
X137495527Y-157891805D01*
X137495527Y-158791805D01*
X136995527Y-158791805D01*
X136995527Y-157891805D01*
X135970527Y-157891805D01*
X135970527Y-158339649D01*
X132196584Y-158339649D01*
X133592274Y-156943960D01*
X135970527Y-156943960D01*
X135970527Y-157391805D01*
X136995527Y-157391805D01*
X137495527Y-157391805D01*
X138520527Y-157391805D01*
X138520527Y-156943977D01*
X138520526Y-156943960D01*
X138514125Y-156884432D01*
X138514123Y-156884425D01*
X138463881Y-156749718D01*
X138463877Y-156749711D01*
X138377717Y-156634617D01*
X138377714Y-156634614D01*
X138262620Y-156548454D01*
X138262613Y-156548450D01*
X138127906Y-156498208D01*
X138127899Y-156498206D01*
X138068371Y-156491805D01*
X137495527Y-156491805D01*
X137495527Y-157391805D01*
X136995527Y-157391805D01*
X136995527Y-156491805D01*
X136422682Y-156491805D01*
X136363154Y-156498206D01*
X136363147Y-156498208D01*
X136228440Y-156548450D01*
X136228433Y-156548454D01*
X136113339Y-156634614D01*
X136113336Y-156634617D01*
X136027176Y-156749711D01*
X136027172Y-156749718D01*
X135976930Y-156884425D01*
X135976928Y-156884432D01*
X135970527Y-156943960D01*
X133592274Y-156943960D01*
X136790520Y-153745716D01*
X136869577Y-153608784D01*
X136910501Y-153456057D01*
X136910501Y-153297942D01*
X136910501Y-153290347D01*
X136910500Y-153290329D01*
X136910500Y-147659050D01*
X136930185Y-147592011D01*
X136982989Y-147546256D01*
X137052147Y-147536312D01*
X137115703Y-147565337D01*
X137122181Y-147571369D01*
X137128917Y-147578105D01*
X137322421Y-147713600D01*
X137536507Y-147813429D01*
X137536516Y-147813433D01*
X137750000Y-147870634D01*
X137750000Y-146973012D01*
X137807007Y-147005925D01*
X137934174Y-147040000D01*
X138065826Y-147040000D01*
X138192993Y-147005925D01*
X138250000Y-146973012D01*
X138250000Y-147870633D01*
X138463483Y-147813433D01*
X138463492Y-147813429D01*
X138677578Y-147713600D01*
X138871082Y-147578105D01*
X139038105Y-147411082D01*
X139173600Y-147217578D01*
X139273429Y-147003492D01*
X139273432Y-147003486D01*
X139330636Y-146790000D01*
X138433012Y-146790000D01*
X138465925Y-146732993D01*
X138500000Y-146605826D01*
X138500000Y-146474174D01*
X138465925Y-146347007D01*
X138433012Y-146290000D01*
X139330636Y-146290000D01*
X139330635Y-146289999D01*
X139273432Y-146076513D01*
X139273429Y-146076507D01*
X139173600Y-145862422D01*
X139173599Y-145862420D01*
X139038113Y-145668926D01*
X139038108Y-145668920D01*
X138871082Y-145501894D01*
X138684968Y-145371575D01*
X138641344Y-145316998D01*
X138634151Y-145247499D01*
X138665673Y-145185145D01*
X138684968Y-145168425D01*
X138871082Y-145038105D01*
X139038105Y-144871082D01*
X139173600Y-144677578D01*
X139273429Y-144463492D01*
X139273432Y-144463486D01*
X139330636Y-144250000D01*
X138433012Y-144250000D01*
X138465925Y-144192993D01*
X138500000Y-144065826D01*
X138500000Y-143934174D01*
X138465925Y-143807007D01*
X138433012Y-143750000D01*
X139330636Y-143750000D01*
X139330635Y-143749999D01*
X139273432Y-143536513D01*
X139273429Y-143536507D01*
X139173600Y-143322422D01*
X139173599Y-143322420D01*
X139038113Y-143128926D01*
X139038108Y-143128920D01*
X138871082Y-142961894D01*
X138677578Y-142826399D01*
X138463492Y-142726570D01*
X138463486Y-142726567D01*
X138250000Y-142669364D01*
X138250000Y-143566988D01*
X138192993Y-143534075D01*
X138065826Y-143500000D01*
X137934174Y-143500000D01*
X137807007Y-143534075D01*
X137750000Y-143566988D01*
X137750000Y-142669364D01*
X137749999Y-142669364D01*
X137536513Y-142726567D01*
X137536507Y-142726570D01*
X137322422Y-142826399D01*
X137322420Y-142826400D01*
X137132623Y-142959298D01*
X137066417Y-142981625D01*
X136998650Y-142964615D01*
X136950837Y-142913667D01*
X136937500Y-142857723D01*
X136937500Y-136828050D01*
X136957185Y-136761011D01*
X137009989Y-136715256D01*
X137079147Y-136705312D01*
X137142703Y-136734337D01*
X137149181Y-136740369D01*
X137255917Y-136847105D01*
X137449421Y-136982600D01*
X137663507Y-137082429D01*
X137663516Y-137082433D01*
X137877000Y-137139634D01*
X137877000Y-136242012D01*
X137934007Y-136274925D01*
X138061174Y-136309000D01*
X138192826Y-136309000D01*
X138319993Y-136274925D01*
X138377000Y-136242012D01*
X138377000Y-137139633D01*
X138590483Y-137082433D01*
X138590492Y-137082429D01*
X138804578Y-136982600D01*
X138998082Y-136847105D01*
X139165105Y-136680082D01*
X139300600Y-136486578D01*
X139400429Y-136272492D01*
X139400432Y-136272486D01*
X139457636Y-136059000D01*
X138560012Y-136059000D01*
X138592925Y-136001993D01*
X138627000Y-135874826D01*
X138627000Y-135743174D01*
X138592925Y-135616007D01*
X138560012Y-135559000D01*
X139457636Y-135559000D01*
X139457635Y-135558999D01*
X139400432Y-135345513D01*
X139400429Y-135345507D01*
X139300600Y-135131422D01*
X139300599Y-135131420D01*
X139165113Y-134937926D01*
X139165108Y-134937920D01*
X138998082Y-134770894D01*
X138811968Y-134640575D01*
X138768344Y-134585998D01*
X138761151Y-134516499D01*
X138792673Y-134454145D01*
X138811968Y-134437425D01*
X138998082Y-134307105D01*
X139165105Y-134140082D01*
X139300600Y-133946578D01*
X139400429Y-133732492D01*
X139400432Y-133732486D01*
X139457636Y-133519000D01*
X138560012Y-133519000D01*
X138592925Y-133461993D01*
X138627000Y-133334826D01*
X138627000Y-133203174D01*
X138592925Y-133076007D01*
X138560012Y-133019000D01*
X139457636Y-133019000D01*
X139457635Y-133018999D01*
X139400432Y-132805513D01*
X139400429Y-132805507D01*
X139300600Y-132591422D01*
X139300599Y-132591420D01*
X139165113Y-132397926D01*
X139165108Y-132397920D01*
X138998082Y-132230894D01*
X138804578Y-132095399D01*
X138590492Y-131995570D01*
X138590486Y-131995567D01*
X138377000Y-131938364D01*
X138377000Y-132835988D01*
X138319993Y-132803075D01*
X138192826Y-132769000D01*
X138061174Y-132769000D01*
X137934007Y-132803075D01*
X137877000Y-132835988D01*
X137877000Y-131938364D01*
X137876999Y-131938364D01*
X137663513Y-131995567D01*
X137663507Y-131995570D01*
X137449422Y-132095399D01*
X137449420Y-132095400D01*
X137255926Y-132230886D01*
X137255920Y-132230891D01*
X137088891Y-132397920D01*
X137088886Y-132397926D01*
X136953400Y-132591420D01*
X136953399Y-132591422D01*
X136853570Y-132805507D01*
X136853568Y-132805511D01*
X136844592Y-132839011D01*
X136808226Y-132898671D01*
X136745379Y-132929199D01*
X136676003Y-132920904D01*
X136622126Y-132876418D01*
X136613817Y-132862188D01*
X136552816Y-132739682D01*
X136526673Y-132687179D01*
X136448346Y-132583457D01*
X136403762Y-132524418D01*
X136253041Y-132387019D01*
X136253039Y-132387017D01*
X136079642Y-132279655D01*
X136079639Y-132279653D01*
X136079637Y-132279652D01*
X136079636Y-132279651D01*
X136079635Y-132279651D01*
X135953769Y-132230891D01*
X135889456Y-132205976D01*
X135688976Y-132168500D01*
X135485024Y-132168500D01*
X135284544Y-132205976D01*
X135284541Y-132205976D01*
X135284541Y-132205977D01*
X135094364Y-132279651D01*
X135094357Y-132279655D01*
X134920960Y-132387017D01*
X134920958Y-132387019D01*
X134770236Y-132524419D01*
X134766375Y-132528656D01*
X134765470Y-132527831D01*
X134714339Y-132565770D01*
X134644627Y-132570458D01*
X134583447Y-132536712D01*
X134550223Y-132475247D01*
X134547500Y-132449405D01*
X134547500Y-131365544D01*
X134567185Y-131298505D01*
X134583820Y-131277861D01*
X134616365Y-131245317D01*
X134677689Y-131211833D01*
X134704045Y-131209000D01*
X135179174Y-131209000D01*
X135179190Y-131208999D01*
X135237299Y-131202751D01*
X135251739Y-131197365D01*
X135368778Y-131153712D01*
X135481116Y-131069616D01*
X135565212Y-130957278D01*
X135614251Y-130825799D01*
X135615174Y-130817218D01*
X135620499Y-130767690D01*
X135620500Y-130767673D01*
X135620500Y-130292544D01*
X135640185Y-130225505D01*
X135656819Y-130204863D01*
X136602173Y-129259509D01*
X137567470Y-128294212D01*
X137613614Y-128214288D01*
X137614624Y-128210520D01*
X137637500Y-128125144D01*
X137637500Y-126836506D01*
X137657185Y-126769467D01*
X137688611Y-126736190D01*
X137691287Y-126734244D01*
X137691294Y-126734241D01*
X137783241Y-126642294D01*
X137842275Y-126526433D01*
X137857500Y-126430307D01*
X137857499Y-125970694D01*
X137857499Y-125970688D01*
X137842276Y-125874571D01*
X137842276Y-125874570D01*
X137842275Y-125874568D01*
X137842275Y-125874567D01*
X137783241Y-125758706D01*
X137783239Y-125758704D01*
X137783236Y-125758700D01*
X137715217Y-125690681D01*
X137681732Y-125629358D01*
X137686716Y-125559666D01*
X137715217Y-125515319D01*
X137783236Y-125447299D01*
X137783241Y-125447294D01*
X137795261Y-125423704D01*
X137843236Y-125372908D01*
X137905745Y-125356000D01*
X138356447Y-125356000D01*
X138356449Y-125356000D01*
X138445593Y-125332114D01*
X138466251Y-125320187D01*
X138525517Y-125285970D01*
X139449489Y-124361996D01*
X139510810Y-124328513D01*
X139580501Y-124333497D01*
X139581962Y-124334053D01*
X139675161Y-124370158D01*
X139697544Y-124378829D01*
X139898024Y-124416305D01*
X139898026Y-124416305D01*
X140101974Y-124416305D01*
X140101976Y-124416305D01*
X140302456Y-124378829D01*
X140492637Y-124305153D01*
X140666041Y-124197786D01*
X140816764Y-124060384D01*
X140939673Y-123897626D01*
X140962996Y-123850787D01*
X140964500Y-123847767D01*
X141012002Y-123796530D01*
X141079665Y-123779108D01*
X141146006Y-123801033D01*
G37*
%TD.AperFunction*%
%TA.AperFunction,Conductor*%
G36*
X110977703Y-158499186D02*
G01*
X110984181Y-158505218D01*
X112144181Y-159665218D01*
X112177666Y-159726541D01*
X112180500Y-159752899D01*
X112180500Y-160038778D01*
X112160815Y-160105817D01*
X112144181Y-160126459D01*
X112068988Y-160201651D01*
X112015780Y-160310488D01*
X112011925Y-160336951D01*
X112005500Y-160381051D01*
X112005500Y-160381055D01*
X112005500Y-160381056D01*
X112005500Y-160674950D01*
X112015779Y-160745506D01*
X112068989Y-160854349D01*
X112154651Y-160940011D01*
X112263488Y-160993219D01*
X112263489Y-160993219D01*
X112263491Y-160993220D01*
X112334051Y-161003500D01*
X112777948Y-161003499D01*
X112777950Y-161003499D01*
X112813228Y-160998359D01*
X112848509Y-160993220D01*
X112957347Y-160940012D01*
X112957347Y-160940011D01*
X112962039Y-160937718D01*
X113030912Y-160925958D01*
X113095210Y-160953301D01*
X113134517Y-161011066D01*
X113140500Y-161049118D01*
X113140500Y-161932227D01*
X113120815Y-161999266D01*
X113068011Y-162045021D01*
X112998853Y-162054965D01*
X112935297Y-162025940D01*
X112910962Y-161997324D01*
X112824575Y-161857271D01*
X112824572Y-161857267D01*
X112704732Y-161737427D01*
X112704728Y-161737424D01*
X112560492Y-161648457D01*
X112560481Y-161648452D01*
X112399606Y-161595144D01*
X112300322Y-161585000D01*
X112277000Y-161585000D01*
X112277000Y-162686000D01*
X112257315Y-162753039D01*
X112204511Y-162798794D01*
X112153000Y-162810000D01*
X111901000Y-162810000D01*
X111833961Y-162790315D01*
X111788206Y-162737511D01*
X111777000Y-162686000D01*
X111777000Y-161584999D01*
X111753693Y-161585000D01*
X111753674Y-161585001D01*
X111654392Y-161595144D01*
X111493518Y-161648452D01*
X111493507Y-161648457D01*
X111349271Y-161737424D01*
X111349267Y-161737427D01*
X111229424Y-161857270D01*
X111193649Y-161915270D01*
X111141701Y-161961993D01*
X111072738Y-161973214D01*
X111013802Y-161949438D01*
X110932230Y-161888374D01*
X110932223Y-161888370D01*
X110912165Y-161880889D01*
X110856232Y-161839017D01*
X110831816Y-161773552D01*
X110831500Y-161764708D01*
X110831500Y-161017221D01*
X110851185Y-160950182D01*
X110867814Y-160929544D01*
X110943012Y-160854347D01*
X110996220Y-160745509D01*
X111006500Y-160674949D01*
X111006499Y-160381052D01*
X110996220Y-160310491D01*
X110943012Y-160201653D01*
X110943010Y-160201651D01*
X110943010Y-160201650D01*
X110857350Y-160115990D01*
X110857347Y-160115988D01*
X110842037Y-160108503D01*
X110790456Y-160061374D01*
X110772500Y-159997104D01*
X110772500Y-158592899D01*
X110792185Y-158525860D01*
X110844989Y-158480105D01*
X110914147Y-158470161D01*
X110977703Y-158499186D01*
G37*
%TD.AperFunction*%
%TA.AperFunction,Conductor*%
G36*
X127638900Y-130470185D02*
G01*
X127684655Y-130522989D01*
X127694599Y-130592147D01*
X127686353Y-130649499D01*
X127706834Y-130791956D01*
X127766622Y-130922871D01*
X127766623Y-130922873D01*
X127860872Y-131031643D01*
X127981947Y-131109453D01*
X127981950Y-131109454D01*
X127981949Y-131109454D01*
X128120036Y-131149999D01*
X128120038Y-131150000D01*
X128120039Y-131150000D01*
X128145456Y-131150000D01*
X128212495Y-131169685D01*
X128233137Y-131186319D01*
X128907474Y-131860656D01*
X128907476Y-131860657D01*
X128907480Y-131860660D01*
X128975477Y-131899918D01*
X128975478Y-131899918D01*
X128987398Y-131906800D01*
X129076542Y-131930686D01*
X129076543Y-131930686D01*
X129168830Y-131930686D01*
X129652270Y-131930686D01*
X129719309Y-131950371D01*
X129739951Y-131967005D01*
X130580181Y-132807235D01*
X130613666Y-132868558D01*
X130616500Y-132894916D01*
X130616500Y-144633144D01*
X130640217Y-144721658D01*
X130640386Y-144722288D01*
X130665812Y-144766327D01*
X130686529Y-144802210D01*
X130686531Y-144802213D01*
X131783181Y-145898863D01*
X131816666Y-145960186D01*
X131819500Y-145986544D01*
X131819500Y-147414678D01*
X131834032Y-147487735D01*
X131834033Y-147487739D01*
X131834034Y-147487740D01*
X131889399Y-147570601D01*
X131945252Y-147607920D01*
X131972260Y-147625966D01*
X131972264Y-147625967D01*
X132045321Y-147640499D01*
X132045324Y-147640500D01*
X132045326Y-147640500D01*
X132475500Y-147640500D01*
X132542539Y-147660185D01*
X132588294Y-147712989D01*
X132599500Y-147764500D01*
X132599500Y-148528278D01*
X132579815Y-148595317D01*
X132527011Y-148641072D01*
X132518852Y-148644452D01*
X132454287Y-148668533D01*
X132444219Y-148672289D01*
X132331884Y-148756384D01*
X132247789Y-148868719D01*
X132198748Y-149000200D01*
X132192500Y-149058309D01*
X132192500Y-149626690D01*
X132198748Y-149684799D01*
X132232844Y-149776212D01*
X132247788Y-149816278D01*
X132331884Y-149928616D01*
X132444222Y-150012712D01*
X132530122Y-150044751D01*
X132575700Y-150061751D01*
X132633809Y-150067999D01*
X132633826Y-150068000D01*
X133227174Y-150068000D01*
X133227190Y-150067999D01*
X133285299Y-150061751D01*
X133306525Y-150053834D01*
X133416778Y-150012712D01*
X133529116Y-149928616D01*
X133613212Y-149816278D01*
X133662251Y-149684799D01*
X133664124Y-149667380D01*
X133668499Y-149626690D01*
X133668500Y-149626673D01*
X133668500Y-149058326D01*
X133668499Y-149058309D01*
X133662251Y-149000200D01*
X133640970Y-148943144D01*
X133613212Y-148868722D01*
X133529116Y-148756384D01*
X133445579Y-148693848D01*
X133416780Y-148672289D01*
X133416778Y-148672288D01*
X133321165Y-148636626D01*
X133265233Y-148594755D01*
X133240816Y-148529291D01*
X133240500Y-148520445D01*
X133240500Y-147764500D01*
X133260185Y-147697461D01*
X133312989Y-147651706D01*
X133364500Y-147640500D01*
X133794672Y-147640500D01*
X133794674Y-147640500D01*
X133811307Y-147637191D01*
X133880897Y-147643417D01*
X133936075Y-147686278D01*
X133959322Y-147752167D01*
X133959500Y-147758808D01*
X133959500Y-148943144D01*
X133965489Y-148965495D01*
X133977605Y-149010713D01*
X133977605Y-149010714D01*
X133983384Y-149032283D01*
X133983385Y-149032285D01*
X133983386Y-149032288D01*
X134000887Y-149062601D01*
X134017500Y-149124600D01*
X134017500Y-149626690D01*
X134023748Y-149684799D01*
X134057844Y-149776212D01*
X134072788Y-149816278D01*
X134156884Y-149928616D01*
X134269222Y-150012712D01*
X134355122Y-150044751D01*
X134400700Y-150061751D01*
X134458809Y-150067999D01*
X134458826Y-150068000D01*
X135052174Y-150068000D01*
X135052190Y-150067999D01*
X135110299Y-150061751D01*
X135131525Y-150053834D01*
X135241778Y-150012712D01*
X135354116Y-149928616D01*
X135438212Y-149816278D01*
X135469319Y-149732876D01*
X135511190Y-149676945D01*
X135576654Y-149652528D01*
X135644927Y-149667380D01*
X135694332Y-149716785D01*
X135709500Y-149776212D01*
X135709500Y-153076902D01*
X135689815Y-153143941D01*
X135673181Y-153164583D01*
X130782208Y-158055556D01*
X130720885Y-158089041D01*
X130651193Y-158084057D01*
X130595260Y-158042185D01*
X130570843Y-157976721D01*
X130570527Y-157967875D01*
X130570527Y-157891805D01*
X128020527Y-157891805D01*
X128020527Y-158279500D01*
X128000842Y-158346539D01*
X127948038Y-158392294D01*
X127896527Y-158403500D01*
X127896021Y-158403500D01*
X127828982Y-158383815D01*
X127808340Y-158367181D01*
X126906514Y-157465355D01*
X126906512Y-157465352D01*
X126787641Y-157346481D01*
X126787633Y-157346475D01*
X126662257Y-157274090D01*
X126662254Y-157274089D01*
X126650709Y-157267423D01*
X126497981Y-157226499D01*
X126339867Y-157226499D01*
X126332271Y-157226499D01*
X126332255Y-157226500D01*
X124091098Y-157226500D01*
X124024059Y-157206815D01*
X124003417Y-157190181D01*
X122611819Y-155798583D01*
X122578334Y-155737260D01*
X122575500Y-155710902D01*
X122575500Y-148148323D01*
X122575499Y-148148321D01*
X122560967Y-148075264D01*
X122560966Y-148075260D01*
X122527493Y-148025164D01*
X122505601Y-147992399D01*
X122422740Y-147937034D01*
X122422739Y-147937033D01*
X122422735Y-147937032D01*
X122349677Y-147922500D01*
X122349674Y-147922500D01*
X121749500Y-147922500D01*
X121682461Y-147902815D01*
X121636706Y-147850011D01*
X121625500Y-147798500D01*
X121625500Y-147268651D01*
X121645185Y-147201612D01*
X121697989Y-147155857D01*
X121767147Y-147145913D01*
X121788504Y-147150945D01*
X121899893Y-147187855D01*
X121999183Y-147197999D01*
X122022500Y-147197998D01*
X122022500Y-145247999D01*
X121999193Y-145248000D01*
X121999174Y-145248001D01*
X121899892Y-145258144D01*
X121739018Y-145311452D01*
X121739007Y-145311457D01*
X121594771Y-145400424D01*
X121594767Y-145400427D01*
X121474927Y-145520267D01*
X121474924Y-145520271D01*
X121385957Y-145664507D01*
X121385952Y-145664518D01*
X121366132Y-145724333D01*
X121326359Y-145781778D01*
X121261843Y-145808601D01*
X121193068Y-145796286D01*
X121160745Y-145773010D01*
X120128319Y-144740584D01*
X120094834Y-144679261D01*
X120092000Y-144652903D01*
X120092000Y-143149167D01*
X120111685Y-143082128D01*
X120164489Y-143036373D01*
X120233647Y-143026429D01*
X120297203Y-143055454D01*
X120303681Y-143061486D01*
X120350767Y-143108572D01*
X120350771Y-143108575D01*
X120495007Y-143197542D01*
X120495018Y-143197547D01*
X120655893Y-143250855D01*
X120755183Y-143260999D01*
X121278500Y-143260999D01*
X121301808Y-143260999D01*
X121301822Y-143260998D01*
X121401107Y-143250855D01*
X121561981Y-143197547D01*
X121561992Y-143197542D01*
X121706228Y-143108575D01*
X121706232Y-143108572D01*
X121826072Y-142988732D01*
X121826075Y-142988728D01*
X121915042Y-142844492D01*
X121915047Y-142844481D01*
X121935147Y-142783821D01*
X122238000Y-142783821D01*
X122238000Y-144743178D01*
X122252532Y-144816235D01*
X122252533Y-144816239D01*
X122252534Y-144816240D01*
X122307899Y-144899101D01*
X122362889Y-144935844D01*
X122407695Y-144989455D01*
X122418000Y-145038946D01*
X122418000Y-145129435D01*
X122443590Y-145224938D01*
X122443591Y-145224939D01*
X122443591Y-145224940D01*
X122456615Y-145247499D01*
X122492779Y-145310136D01*
X122493026Y-145310563D01*
X122493028Y-145310565D01*
X122496843Y-145315533D01*
X122522066Y-145380692D01*
X122522500Y-145391062D01*
X122522500Y-147197999D01*
X122545808Y-147197999D01*
X122545822Y-147197998D01*
X122645107Y-147187855D01*
X122805989Y-147134544D01*
X122811726Y-147131006D01*
X122879117Y-147112563D01*
X122945782Y-147133483D01*
X122964507Y-147148861D01*
X123139121Y-147323475D01*
X123224746Y-147372911D01*
X123320247Y-147398500D01*
X123320248Y-147398500D01*
X124907704Y-147398500D01*
X124934641Y-147402766D01*
X124934685Y-147402491D01*
X124985784Y-147410583D01*
X125035765Y-147418500D01*
X125377234Y-147418499D01*
X125377238Y-147418499D01*
X125422602Y-147411314D01*
X125491895Y-147420268D01*
X125545347Y-147465265D01*
X125565987Y-147532016D01*
X125566000Y-147533787D01*
X125566000Y-147798500D01*
X125546315Y-147865539D01*
X125493511Y-147911294D01*
X125442000Y-147922500D01*
X125300323Y-147922500D01*
X125227264Y-147937032D01*
X125227260Y-147937033D01*
X125144399Y-147992399D01*
X125089033Y-148075260D01*
X125089032Y-148075264D01*
X125074500Y-148148321D01*
X125074500Y-156397678D01*
X125089032Y-156470735D01*
X125089033Y-156470739D01*
X125089034Y-156470740D01*
X125144399Y-156553601D01*
X125227260Y-156608966D01*
X125227264Y-156608967D01*
X125300321Y-156623499D01*
X125300324Y-156623500D01*
X127945656Y-156623500D01*
X128012695Y-156643185D01*
X128058450Y-156695989D01*
X128068394Y-156765147D01*
X128061838Y-156790833D01*
X128026930Y-156884425D01*
X128026928Y-156884432D01*
X128020527Y-156943960D01*
X128020527Y-157391805D01*
X129045527Y-157391805D01*
X129545527Y-157391805D01*
X130570527Y-157391805D01*
X130570527Y-156943977D01*
X130570526Y-156943960D01*
X130564125Y-156884432D01*
X130564123Y-156884425D01*
X130513881Y-156749718D01*
X130513877Y-156749711D01*
X130427717Y-156634617D01*
X130427714Y-156634614D01*
X130312620Y-156548454D01*
X130312613Y-156548450D01*
X130177906Y-156498208D01*
X130177899Y-156498206D01*
X130118371Y-156491805D01*
X129545527Y-156491805D01*
X129545527Y-157391805D01*
X129045527Y-157391805D01*
X129045527Y-156491805D01*
X128472682Y-156491805D01*
X128413154Y-156498206D01*
X128413143Y-156498209D01*
X128342373Y-156524604D01*
X128272681Y-156529588D01*
X128211358Y-156496102D01*
X128177874Y-156434778D01*
X128176075Y-156403766D01*
X128175500Y-156403766D01*
X128175500Y-148148323D01*
X128175499Y-148148321D01*
X128160967Y-148075264D01*
X128160966Y-148075260D01*
X128127493Y-148025164D01*
X128105601Y-147992399D01*
X128022740Y-147937034D01*
X128022739Y-147937033D01*
X128022735Y-147937032D01*
X127949677Y-147922500D01*
X127949674Y-147922500D01*
X126891000Y-147922500D01*
X126823961Y-147902815D01*
X126778206Y-147850011D01*
X126767000Y-147798500D01*
X126767000Y-145478252D01*
X126767001Y-145478239D01*
X126767001Y-145342500D01*
X126786686Y-145275461D01*
X126839490Y-145229706D01*
X126891001Y-145218500D01*
X126956328Y-145218500D01*
X126956344Y-145218499D01*
X127015872Y-145212098D01*
X127015879Y-145212096D01*
X127150586Y-145161854D01*
X127150593Y-145161850D01*
X127265687Y-145075690D01*
X127265690Y-145075687D01*
X127351850Y-144960593D01*
X127351854Y-144960586D01*
X127402096Y-144825879D01*
X127402098Y-144825872D01*
X127408499Y-144766344D01*
X127408500Y-144766327D01*
X127408500Y-144013500D01*
X126477500Y-144013500D01*
X126410461Y-143993815D01*
X126364706Y-143941011D01*
X126353500Y-143889500D01*
X126353500Y-143637500D01*
X126373185Y-143570461D01*
X126425989Y-143524706D01*
X126477500Y-143513500D01*
X127408500Y-143513500D01*
X127408500Y-142760672D01*
X127408499Y-142760655D01*
X127402098Y-142701127D01*
X127402096Y-142701120D01*
X127351854Y-142566413D01*
X127351850Y-142566406D01*
X127265690Y-142451312D01*
X127265687Y-142451309D01*
X127150593Y-142365149D01*
X127150586Y-142365145D01*
X127015879Y-142314903D01*
X127015872Y-142314901D01*
X126956344Y-142308500D01*
X126872500Y-142308500D01*
X126805461Y-142288815D01*
X126759706Y-142236011D01*
X126748500Y-142184500D01*
X126748500Y-141836000D01*
X122648500Y-141836000D01*
X122648500Y-142236344D01*
X122654901Y-142295872D01*
X122654902Y-142295876D01*
X122690257Y-142390666D01*
X122695241Y-142460358D01*
X122661756Y-142521681D01*
X122600433Y-142555166D01*
X122574075Y-142558000D01*
X122463823Y-142558000D01*
X122390764Y-142572532D01*
X122390760Y-142572533D01*
X122307899Y-142627899D01*
X122252533Y-142710760D01*
X122252532Y-142710764D01*
X122238000Y-142783821D01*
X121935147Y-142783821D01*
X121968355Y-142683606D01*
X121978499Y-142584322D01*
X121978500Y-142584309D01*
X121978500Y-142536000D01*
X121278500Y-142536000D01*
X121278500Y-143260999D01*
X120755183Y-143260999D01*
X120778500Y-143260998D01*
X120778500Y-142036000D01*
X121278500Y-142036000D01*
X121978499Y-142036000D01*
X121978499Y-141987692D01*
X121978498Y-141987677D01*
X121968355Y-141888392D01*
X121915047Y-141727518D01*
X121915042Y-141727507D01*
X121826075Y-141583271D01*
X121826072Y-141583267D01*
X121783486Y-141540681D01*
X121750001Y-141479358D01*
X121754985Y-141409666D01*
X121783486Y-141365319D01*
X121812804Y-141336000D01*
X122648500Y-141336000D01*
X123673500Y-141336000D01*
X124173500Y-141336000D01*
X125223500Y-141336000D01*
X125723500Y-141336000D01*
X126748500Y-141336000D01*
X126748500Y-140631000D01*
X125723500Y-140631000D01*
X125723500Y-141336000D01*
X125223500Y-141336000D01*
X125223500Y-140631000D01*
X124173500Y-140631000D01*
X124173500Y-141336000D01*
X123673500Y-141336000D01*
X123673500Y-140631000D01*
X122648500Y-140631000D01*
X122648500Y-141336000D01*
X121812804Y-141336000D01*
X121826072Y-141322732D01*
X121826075Y-141322728D01*
X121915042Y-141178492D01*
X121915047Y-141178481D01*
X121968355Y-141017606D01*
X121978499Y-140918322D01*
X121978500Y-140918309D01*
X121978500Y-140870000D01*
X121278500Y-140870000D01*
X121278500Y-142036000D01*
X120778500Y-142036000D01*
X120778500Y-140494000D01*
X120798185Y-140426961D01*
X120850989Y-140381206D01*
X120902500Y-140370000D01*
X121978499Y-140370000D01*
X121978499Y-140321692D01*
X121978498Y-140321677D01*
X121968355Y-140222392D01*
X121915047Y-140061518D01*
X121915042Y-140061507D01*
X121826075Y-139917271D01*
X121826072Y-139917267D01*
X121706232Y-139797427D01*
X121706228Y-139797424D01*
X121555837Y-139704661D01*
X121556784Y-139703125D01*
X121511356Y-139663120D01*
X121492208Y-139595925D01*
X121497128Y-139562320D01*
X121512645Y-139508912D01*
X121514290Y-139488000D01*
X120609500Y-139488000D01*
X120542461Y-139468315D01*
X120496706Y-139415511D01*
X120485500Y-139364000D01*
X120485500Y-138433494D01*
X120985500Y-138433494D01*
X120985500Y-138988000D01*
X121514290Y-138988000D01*
X121512645Y-138967089D01*
X121467531Y-138811804D01*
X121385221Y-138672625D01*
X121385214Y-138672616D01*
X121270883Y-138558285D01*
X121270874Y-138558278D01*
X121131693Y-138475967D01*
X121131690Y-138475965D01*
X120985501Y-138433493D01*
X120985500Y-138433494D01*
X120485500Y-138433494D01*
X120466238Y-138419032D01*
X120464719Y-138419028D01*
X120406051Y-138381082D01*
X120377211Y-138317442D01*
X120376000Y-138300153D01*
X120376000Y-137032097D01*
X120395685Y-136965058D01*
X120412319Y-136944416D01*
X120531916Y-136824819D01*
X120593239Y-136791334D01*
X120619597Y-136788500D01*
X120698770Y-136788500D01*
X120729199Y-136785646D01*
X120729201Y-136785646D01*
X120805689Y-136758881D01*
X120857382Y-136740793D01*
X120966650Y-136660150D01*
X121047293Y-136550882D01*
X121073604Y-136475690D01*
X121092146Y-136422701D01*
X121092146Y-136422699D01*
X121095000Y-136392269D01*
X121095000Y-135733730D01*
X121092146Y-135703302D01*
X121092145Y-135703300D01*
X121051958Y-135588449D01*
X121045000Y-135547495D01*
X121045000Y-134927503D01*
X121051959Y-134886548D01*
X121081294Y-134802712D01*
X121092146Y-134771699D01*
X121095000Y-134741269D01*
X121095000Y-134082730D01*
X121444000Y-134082730D01*
X121444000Y-134741269D01*
X121446853Y-134771699D01*
X121446853Y-134771701D01*
X121487041Y-134886548D01*
X121491707Y-134899882D01*
X121569481Y-135005263D01*
X121572351Y-135009151D01*
X121668633Y-135080210D01*
X121710884Y-135135857D01*
X121719000Y-135179980D01*
X121719000Y-135295019D01*
X121699315Y-135362058D01*
X121668634Y-135394789D01*
X121572350Y-135465850D01*
X121491707Y-135575117D01*
X121491706Y-135575119D01*
X121446853Y-135703298D01*
X121446853Y-135703300D01*
X121444000Y-135733730D01*
X121444000Y-136392269D01*
X121446853Y-136422699D01*
X121446853Y-136422701D01*
X121491602Y-136550582D01*
X121491707Y-136550882D01*
X121572350Y-136660150D01*
X121681618Y-136740793D01*
X121697711Y-136746424D01*
X121809799Y-136785646D01*
X121840230Y-136788500D01*
X122317277Y-136788500D01*
X122384316Y-136808185D01*
X122395502Y-136821094D01*
X122408425Y-136792797D01*
X122461182Y-136756959D01*
X122461811Y-136756739D01*
X122507382Y-136740793D01*
X122616650Y-136660150D01*
X122697293Y-136550882D01*
X122707559Y-136521543D01*
X122748279Y-136464770D01*
X122813231Y-136439022D01*
X122824599Y-136438500D01*
X122975902Y-136438500D01*
X123042941Y-136458185D01*
X123088696Y-136510989D01*
X123098998Y-136577446D01*
X123084172Y-136699549D01*
X123084172Y-136699550D01*
X123103539Y-136859054D01*
X123092078Y-136927977D01*
X123045175Y-136979763D01*
X122980443Y-136998000D01*
X122502138Y-136998000D01*
X122435099Y-136978315D01*
X122423912Y-136965405D01*
X122410990Y-136993703D01*
X122386167Y-137015602D01*
X122307900Y-137067897D01*
X122252533Y-137150760D01*
X122252532Y-137150764D01*
X122238000Y-137223821D01*
X122238000Y-139183178D01*
X122252532Y-139256235D01*
X122252533Y-139256239D01*
X122252534Y-139256240D01*
X122307899Y-139339101D01*
X122382895Y-139389211D01*
X122390760Y-139394466D01*
X122390764Y-139394467D01*
X122463821Y-139408999D01*
X122463824Y-139409000D01*
X122574075Y-139409000D01*
X122641114Y-139428685D01*
X122686869Y-139481489D01*
X122696813Y-139550647D01*
X122690257Y-139576334D01*
X122654902Y-139671123D01*
X122654901Y-139671127D01*
X122648500Y-139730655D01*
X122648500Y-140131000D01*
X126748500Y-140131000D01*
X126748500Y-139730672D01*
X126748499Y-139730655D01*
X126742098Y-139671127D01*
X126742097Y-139671123D01*
X126706743Y-139576334D01*
X126701759Y-139506642D01*
X126735244Y-139445319D01*
X126796567Y-139411834D01*
X126822925Y-139409000D01*
X126933176Y-139409000D01*
X126933177Y-139408999D01*
X127006240Y-139394466D01*
X127089101Y-139339101D01*
X127144466Y-139256240D01*
X127159000Y-139183174D01*
X127159000Y-137223826D01*
X127159000Y-137223823D01*
X127158999Y-137223821D01*
X127144467Y-137150764D01*
X127144466Y-137150760D01*
X127089101Y-137067899D01*
X127031398Y-137029344D01*
X127006239Y-137012533D01*
X127006235Y-137012532D01*
X126933177Y-136998000D01*
X126933174Y-136998000D01*
X126596899Y-136998000D01*
X126529860Y-136978315D01*
X126509218Y-136961681D01*
X126006174Y-136458637D01*
X125972689Y-136397314D01*
X125977673Y-136327622D01*
X126006176Y-136283273D01*
X126024572Y-136264877D01*
X126112519Y-136119395D01*
X126163090Y-135957106D01*
X126169500Y-135886572D01*
X126169500Y-135805000D01*
X125143500Y-135805000D01*
X125076461Y-135785315D01*
X125030706Y-135732511D01*
X125019500Y-135681000D01*
X125019500Y-135305000D01*
X125519500Y-135305000D01*
X126169499Y-135305000D01*
X126169499Y-135223417D01*
X126163091Y-135152897D01*
X126163090Y-135152892D01*
X126112518Y-134990603D01*
X126024572Y-134845122D01*
X125904377Y-134724927D01*
X125758895Y-134636980D01*
X125758896Y-134636980D01*
X125596605Y-134586409D01*
X125596606Y-134586409D01*
X125526072Y-134580000D01*
X125519500Y-134580000D01*
X125519500Y-135305000D01*
X125019500Y-135305000D01*
X125019500Y-134580000D01*
X125019499Y-134579999D01*
X125012936Y-134580000D01*
X125012917Y-134580001D01*
X124942397Y-134586408D01*
X124942392Y-134586409D01*
X124780103Y-134636981D01*
X124634622Y-134724927D01*
X124514427Y-134845122D01*
X124426480Y-134990604D01*
X124426479Y-134990605D01*
X124421912Y-135005263D01*
X124383173Y-135063410D01*
X124319147Y-135091382D01*
X124250162Y-135080299D01*
X124203758Y-135042004D01*
X124193138Y-135027614D01*
X124141650Y-134957850D01*
X124032382Y-134877207D01*
X124032380Y-134877206D01*
X123904200Y-134832353D01*
X123873770Y-134829500D01*
X123873766Y-134829500D01*
X123365234Y-134829500D01*
X123365230Y-134829500D01*
X123334800Y-134832353D01*
X123334798Y-134832353D01*
X123206619Y-134877206D01*
X123206617Y-134877207D01*
X123097350Y-134957850D01*
X123016707Y-135067117D01*
X123016706Y-135067119D01*
X122971853Y-135195298D01*
X122971853Y-135195300D01*
X122969000Y-135225730D01*
X122969000Y-135563500D01*
X122949315Y-135630539D01*
X122896511Y-135676294D01*
X122845000Y-135687500D01*
X122824599Y-135687500D01*
X122757560Y-135667815D01*
X122711805Y-135615011D01*
X122707565Y-135604474D01*
X122697293Y-135575118D01*
X122616650Y-135465850D01*
X122540637Y-135409750D01*
X122520366Y-135394789D01*
X122478115Y-135339141D01*
X122470000Y-135295019D01*
X122470000Y-135179980D01*
X122489685Y-135112941D01*
X122520367Y-135080210D01*
X122591632Y-135027614D01*
X122616650Y-135009150D01*
X122697293Y-134899882D01*
X122729146Y-134808851D01*
X122742146Y-134771701D01*
X122742146Y-134771699D01*
X122745000Y-134741269D01*
X122745000Y-134082730D01*
X122742146Y-134052300D01*
X122742146Y-134052298D01*
X122697293Y-133924119D01*
X122697292Y-133924117D01*
X122616650Y-133814850D01*
X122507382Y-133734207D01*
X122507380Y-133734206D01*
X122379200Y-133689353D01*
X122348770Y-133686500D01*
X122348766Y-133686500D01*
X121840234Y-133686500D01*
X121840230Y-133686500D01*
X121809800Y-133689353D01*
X121809798Y-133689353D01*
X121681619Y-133734206D01*
X121681617Y-133734207D01*
X121572350Y-133814850D01*
X121491707Y-133924117D01*
X121491706Y-133924119D01*
X121446853Y-134052298D01*
X121446853Y-134052300D01*
X121444000Y-134082730D01*
X121095000Y-134082730D01*
X121092146Y-134052300D01*
X121092146Y-134052298D01*
X121047293Y-133924119D01*
X121047292Y-133924117D01*
X120966650Y-133814850D01*
X120857382Y-133734207D01*
X120857380Y-133734206D01*
X120731399Y-133690123D01*
X120674623Y-133649401D01*
X120648876Y-133584448D01*
X120662333Y-133515887D01*
X120684670Y-133485404D01*
X121106470Y-133063605D01*
X121152614Y-132983681D01*
X121155017Y-132974712D01*
X121176500Y-132894537D01*
X121176500Y-132333217D01*
X121152614Y-132244073D01*
X121152612Y-132244070D01*
X121150517Y-132236250D01*
X121151744Y-132235921D01*
X121145181Y-132174612D01*
X121176485Y-132112147D01*
X121198302Y-132093587D01*
X121227970Y-132073764D01*
X121227976Y-132073758D01*
X121227977Y-132073758D01*
X121651767Y-131649968D01*
X121651768Y-131649965D01*
X121651773Y-131649961D01*
X121693162Y-131588019D01*
X121693162Y-131588016D01*
X121694900Y-131585416D01*
X121729111Y-131551205D01*
X121731711Y-131549467D01*
X121731714Y-131549467D01*
X121793656Y-131508078D01*
X121793660Y-131508073D01*
X121793663Y-131508072D01*
X122217453Y-131084282D01*
X122217454Y-131084280D01*
X122217455Y-131084279D01*
X122217459Y-131084275D01*
X122233688Y-131059985D01*
X122287297Y-131015184D01*
X122356622Y-131006475D01*
X122398791Y-131021494D01*
X122402463Y-131023614D01*
X122491607Y-131047500D01*
X122491608Y-131047500D01*
X122491609Y-131047500D01*
X123832273Y-131047500D01*
X123832275Y-131047500D01*
X123921419Y-131023614D01*
X123929161Y-131019144D01*
X124001343Y-130977470D01*
X124491994Y-130486819D01*
X124553317Y-130453334D01*
X124579675Y-130450500D01*
X127571861Y-130450500D01*
X127638900Y-130470185D01*
G37*
%TD.AperFunction*%
%TA.AperFunction,Conductor*%
G36*
X113922900Y-140520185D02*
G01*
X113968655Y-140572989D01*
X113978599Y-140642147D01*
X113970353Y-140699499D01*
X113990834Y-140841956D01*
X114025704Y-140918309D01*
X114050623Y-140972873D01*
X114144872Y-141081643D01*
X114265947Y-141159453D01*
X114265950Y-141159454D01*
X114265949Y-141159454D01*
X114389639Y-141195772D01*
X114442386Y-141227068D01*
X115518181Y-142302863D01*
X115551666Y-142364186D01*
X115554500Y-142390544D01*
X115554500Y-148898456D01*
X115534815Y-148965495D01*
X115518181Y-148986137D01*
X114541137Y-149963181D01*
X114479814Y-149996666D01*
X114453456Y-149999500D01*
X114428036Y-149999500D01*
X114289949Y-150040045D01*
X114168873Y-150117856D01*
X114074623Y-150226626D01*
X114074622Y-150226628D01*
X114014834Y-150357543D01*
X113994353Y-150500000D01*
X114014834Y-150642456D01*
X114069885Y-150762999D01*
X114074623Y-150773373D01*
X114168872Y-150882143D01*
X114289947Y-150959953D01*
X114289950Y-150959954D01*
X114289949Y-150959954D01*
X114396780Y-150991322D01*
X114455558Y-151029096D01*
X114484584Y-151092651D01*
X114474641Y-151161810D01*
X114455561Y-151191500D01*
X114431623Y-151219127D01*
X114431622Y-151219128D01*
X114371834Y-151350043D01*
X114351353Y-151492500D01*
X114359599Y-151549853D01*
X114349655Y-151619012D01*
X114303900Y-151671816D01*
X114236861Y-151691500D01*
X113726108Y-151691500D01*
X113598812Y-151725608D01*
X113484686Y-151791500D01*
X113484683Y-151791502D01*
X112629502Y-152646683D01*
X112629500Y-152646686D01*
X112563608Y-152760812D01*
X112529500Y-152888108D01*
X112529500Y-152933507D01*
X112509815Y-153000546D01*
X112493181Y-153021188D01*
X112365188Y-153149181D01*
X112303865Y-153182666D01*
X112277507Y-153185500D01*
X108767676Y-153185500D01*
X108700637Y-153165815D01*
X108679995Y-153149181D01*
X106193495Y-150662681D01*
X106160010Y-150601358D01*
X106164994Y-150531666D01*
X106206866Y-150475733D01*
X106272330Y-150451316D01*
X106281176Y-150451000D01*
X107285642Y-150451000D01*
X107285644Y-150451000D01*
X107374788Y-150427114D01*
X107407028Y-150408500D01*
X107454712Y-150380970D01*
X107748363Y-150087319D01*
X107809686Y-150053834D01*
X107836044Y-150051000D01*
X108311174Y-150051000D01*
X108311190Y-150050999D01*
X108369299Y-150044751D01*
X108381916Y-150040045D01*
X108500778Y-149995712D01*
X108613116Y-149911616D01*
X108697212Y-149799278D01*
X108746251Y-149667799D01*
X108750671Y-149626690D01*
X108752499Y-149609690D01*
X108752500Y-149609673D01*
X108752500Y-149041326D01*
X108752499Y-149041309D01*
X108746251Y-148983200D01*
X108718496Y-148908787D01*
X108697212Y-148851722D01*
X108613116Y-148739384D01*
X108545612Y-148688851D01*
X108500780Y-148655289D01*
X108500778Y-148655288D01*
X108426163Y-148627458D01*
X108370233Y-148585588D01*
X108345816Y-148520124D01*
X108345500Y-148511278D01*
X108345500Y-147680975D01*
X108365185Y-147613936D01*
X108417989Y-147568181D01*
X108424689Y-147565355D01*
X108517637Y-147529348D01*
X108691041Y-147421981D01*
X108841764Y-147284579D01*
X108964673Y-147121821D01*
X109055582Y-146939250D01*
X109111397Y-146743083D01*
X109130215Y-146540000D01*
X109124115Y-146474174D01*
X109111397Y-146336917D01*
X109098048Y-146290000D01*
X109055582Y-146140750D01*
X109055159Y-146139901D01*
X108965672Y-145960186D01*
X108964673Y-145958179D01*
X108892359Y-145862420D01*
X108841762Y-145795418D01*
X108691041Y-145658019D01*
X108691039Y-145658017D01*
X108517642Y-145550655D01*
X108517635Y-145550651D01*
X108359880Y-145489537D01*
X108327456Y-145476976D01*
X108126976Y-145439500D01*
X107923024Y-145439500D01*
X107722544Y-145476976D01*
X107722541Y-145476976D01*
X107722541Y-145476977D01*
X107532364Y-145550651D01*
X107532357Y-145550655D01*
X107358960Y-145658017D01*
X107358958Y-145658019D01*
X107208236Y-145795419D01*
X107204375Y-145799656D01*
X107203470Y-145798831D01*
X107152339Y-145836770D01*
X107082627Y-145841458D01*
X107021447Y-145807712D01*
X106988223Y-145746247D01*
X106985500Y-145720405D01*
X106985500Y-145218808D01*
X107005185Y-145151769D01*
X107057989Y-145106014D01*
X107127147Y-145096070D01*
X107133665Y-145097185D01*
X107150326Y-145100500D01*
X107150328Y-145100500D01*
X108899676Y-145100500D01*
X108899677Y-145100499D01*
X108972740Y-145085966D01*
X109055601Y-145030601D01*
X109110966Y-144947740D01*
X109125500Y-144874674D01*
X109125500Y-143125326D01*
X109125500Y-143125323D01*
X109125499Y-143125321D01*
X109110967Y-143052264D01*
X109110966Y-143052260D01*
X109094515Y-143027639D01*
X109055601Y-142969399D01*
X108999744Y-142932077D01*
X108972739Y-142914033D01*
X108972735Y-142914032D01*
X108899677Y-142899500D01*
X108899674Y-142899500D01*
X108469500Y-142899500D01*
X108402461Y-142879815D01*
X108356706Y-142827011D01*
X108345500Y-142775500D01*
X108345500Y-142567657D01*
X108365185Y-142500618D01*
X108375780Y-142486462D01*
X108450377Y-142400373D01*
X108510165Y-142269457D01*
X108530647Y-142127000D01*
X108510165Y-141984543D01*
X108509522Y-141983136D01*
X108509302Y-141981608D01*
X108507667Y-141976038D01*
X108508468Y-141975802D01*
X108499578Y-141913981D01*
X108528600Y-141850424D01*
X108547999Y-141832361D01*
X108613116Y-141783616D01*
X108697212Y-141671278D01*
X108746251Y-141539799D01*
X108747366Y-141529427D01*
X108752499Y-141481690D01*
X108752500Y-141481673D01*
X108752500Y-140913326D01*
X108752499Y-140913309D01*
X108746251Y-140855200D01*
X108721190Y-140788011D01*
X108697212Y-140723722D01*
X108678563Y-140698810D01*
X108654146Y-140633348D01*
X108668997Y-140565075D01*
X108718401Y-140515669D01*
X108777830Y-140500500D01*
X113855861Y-140500500D01*
X113922900Y-140520185D01*
G37*
%TD.AperFunction*%
%TA.AperFunction,Conductor*%
G36*
X103195000Y-146106988D02*
G01*
X103137993Y-146074075D01*
X103010826Y-146040000D01*
X102879174Y-146040000D01*
X102752007Y-146074075D01*
X102695000Y-146106988D01*
X102695000Y-144433012D01*
X102752007Y-144465925D01*
X102879174Y-144500000D01*
X103010826Y-144500000D01*
X103137993Y-144465925D01*
X103195000Y-144433012D01*
X103195000Y-146106988D01*
G37*
%TD.AperFunction*%
%TA.AperFunction,Conductor*%
G36*
X138250000Y-146106988D02*
G01*
X138192993Y-146074075D01*
X138065826Y-146040000D01*
X137934174Y-146040000D01*
X137807007Y-146074075D01*
X137750000Y-146106988D01*
X137750000Y-144433012D01*
X137807007Y-144465925D01*
X137934174Y-144500000D01*
X138065826Y-144500000D01*
X138192993Y-144465925D01*
X138250000Y-144433012D01*
X138250000Y-146106988D01*
G37*
%TD.AperFunction*%
%TA.AperFunction,Conductor*%
G36*
X112055703Y-131651758D02*
G01*
X112068213Y-131664269D01*
X112087356Y-131686362D01*
X112102062Y-131703333D01*
X112223137Y-131781143D01*
X112223140Y-131781144D01*
X112223139Y-131781144D01*
X112361226Y-131821689D01*
X112361228Y-131821690D01*
X112361229Y-131821690D01*
X112386646Y-131821690D01*
X112453685Y-131841375D01*
X112474327Y-131858009D01*
X113104181Y-132487862D01*
X113137666Y-132549185D01*
X113140500Y-132575543D01*
X113140500Y-133156146D01*
X113151954Y-133198889D01*
X113151955Y-133198894D01*
X113164384Y-133245284D01*
X113164385Y-133245286D01*
X113164386Y-133245288D01*
X113172829Y-133259912D01*
X113210527Y-133325208D01*
X113210531Y-133325213D01*
X114813181Y-134927863D01*
X114846666Y-134989186D01*
X114849500Y-135015544D01*
X114849500Y-136888456D01*
X114829815Y-136955495D01*
X114813181Y-136976137D01*
X114142410Y-137646908D01*
X114081087Y-137680393D01*
X114054729Y-137683227D01*
X113997942Y-137683227D01*
X113859855Y-137723772D01*
X113738779Y-137801583D01*
X113644529Y-137910353D01*
X113644528Y-137910355D01*
X113584740Y-138041270D01*
X113564259Y-138183727D01*
X113584740Y-138326183D01*
X113644528Y-138457098D01*
X113644529Y-138457100D01*
X113738778Y-138565870D01*
X113859853Y-138643680D01*
X113859856Y-138643681D01*
X113859855Y-138643681D01*
X113958401Y-138672616D01*
X113996276Y-138683737D01*
X113997942Y-138684226D01*
X113997944Y-138684227D01*
X114040117Y-138684227D01*
X114107156Y-138703912D01*
X114152911Y-138756716D01*
X114162855Y-138825874D01*
X114152911Y-138859736D01*
X114144764Y-138877578D01*
X114117834Y-138936543D01*
X114097353Y-139079000D01*
X114117834Y-139221456D01*
X114164660Y-139323988D01*
X114174604Y-139393147D01*
X114145579Y-139456702D01*
X114086801Y-139494477D01*
X114051866Y-139499500D01*
X108795048Y-139499500D01*
X108728009Y-139479815D01*
X108682254Y-139427011D01*
X108672310Y-139357853D01*
X108693275Y-139307238D01*
X108692960Y-139307066D01*
X108694565Y-139304126D01*
X108695782Y-139301188D01*
X108697212Y-139299278D01*
X108746251Y-139167799D01*
X108746414Y-139166282D01*
X108752499Y-139109690D01*
X108752500Y-139109673D01*
X108752500Y-138541326D01*
X108752499Y-138541309D01*
X108746251Y-138483200D01*
X108722316Y-138419028D01*
X108697212Y-138351722D01*
X108678936Y-138327309D01*
X108664697Y-138308287D01*
X108613116Y-138239384D01*
X108613114Y-138239383D01*
X108607897Y-138232413D01*
X108583480Y-138166949D01*
X108598331Y-138098676D01*
X108647736Y-138049270D01*
X108672230Y-138039125D01*
X108754550Y-138014954D01*
X108754550Y-138014953D01*
X108754553Y-138014953D01*
X108875628Y-137937143D01*
X108969877Y-137828373D01*
X109029665Y-137697457D01*
X109050147Y-137555000D01*
X109050146Y-137554999D01*
X109051409Y-137546221D01*
X109053769Y-137546560D01*
X109069832Y-137491857D01*
X109086466Y-137471215D01*
X110351122Y-136206559D01*
X111643338Y-134914342D01*
X111669014Y-134894640D01*
X111715212Y-134867969D01*
X111780469Y-134802712D01*
X111826614Y-134722788D01*
X111850500Y-134633644D01*
X111850500Y-131745471D01*
X111870185Y-131678432D01*
X111922989Y-131632677D01*
X111992147Y-131622733D01*
X112055703Y-131651758D01*
G37*
%TD.AperFunction*%
%TA.AperFunction,Conductor*%
G36*
X109634995Y-130292685D02*
G01*
X109655637Y-130309319D01*
X111113181Y-131766863D01*
X111146666Y-131828186D01*
X111149500Y-131854544D01*
X111149500Y-134365455D01*
X111129815Y-134432494D01*
X111113181Y-134453136D01*
X109332601Y-136233715D01*
X109271278Y-136267200D01*
X109201586Y-136262216D01*
X109145653Y-136220344D01*
X109121236Y-136154880D01*
X109121448Y-136134603D01*
X109130215Y-136040000D01*
X109124115Y-135974174D01*
X109111397Y-135836917D01*
X109084724Y-135743174D01*
X109055582Y-135640750D01*
X109055159Y-135639901D01*
X109005415Y-135540000D01*
X108964673Y-135458179D01*
X108874780Y-135339141D01*
X108841762Y-135295418D01*
X108691041Y-135158019D01*
X108691039Y-135158017D01*
X108517642Y-135050655D01*
X108517635Y-135050651D01*
X108373734Y-134994904D01*
X108327456Y-134976976D01*
X108126976Y-134939500D01*
X107923024Y-134939500D01*
X107722544Y-134976976D01*
X107722541Y-134976976D01*
X107722541Y-134976977D01*
X107606963Y-135021752D01*
X107537339Y-135027614D01*
X107475599Y-134994904D01*
X107474488Y-134993806D01*
X107292863Y-134812181D01*
X107259378Y-134750858D01*
X107264362Y-134681166D01*
X107306234Y-134625233D01*
X107371698Y-134600816D01*
X107380544Y-134600500D01*
X108899676Y-134600500D01*
X108899677Y-134600499D01*
X108972740Y-134585966D01*
X109055601Y-134530601D01*
X109110966Y-134447740D01*
X109125500Y-134374674D01*
X109125500Y-132625326D01*
X109125500Y-132625323D01*
X109125499Y-132625321D01*
X109110967Y-132552264D01*
X109110966Y-132552260D01*
X109105808Y-132544541D01*
X109055601Y-132469399D01*
X108972740Y-132414034D01*
X108972739Y-132414033D01*
X108972735Y-132414032D01*
X108899677Y-132399500D01*
X108899674Y-132399500D01*
X108469500Y-132399500D01*
X108402461Y-132379815D01*
X108356706Y-132327011D01*
X108345500Y-132275500D01*
X108345500Y-131511722D01*
X108365185Y-131444683D01*
X108417989Y-131398928D01*
X108426147Y-131395547D01*
X108500778Y-131367712D01*
X108613116Y-131283616D01*
X108697212Y-131171278D01*
X108746251Y-131039799D01*
X108748469Y-131019170D01*
X108752499Y-130981690D01*
X108752500Y-130981673D01*
X108752500Y-130413326D01*
X108752499Y-130413318D01*
X108752170Y-130410252D01*
X108764578Y-130341493D01*
X108812189Y-130290357D01*
X108875460Y-130273000D01*
X109567956Y-130273000D01*
X109634995Y-130292685D01*
G37*
%TD.AperFunction*%
%TA.AperFunction,Conductor*%
G36*
X103195000Y-135606988D02*
G01*
X103137993Y-135574075D01*
X103010826Y-135540000D01*
X102879174Y-135540000D01*
X102752007Y-135574075D01*
X102695000Y-135606988D01*
X102695000Y-133933012D01*
X102752007Y-133965925D01*
X102879174Y-134000000D01*
X103010826Y-134000000D01*
X103137993Y-133965925D01*
X103195000Y-133933012D01*
X103195000Y-135606988D01*
G37*
%TD.AperFunction*%
%TA.AperFunction,Conductor*%
G36*
X138377000Y-135375988D02*
G01*
X138319993Y-135343075D01*
X138192826Y-135309000D01*
X138061174Y-135309000D01*
X137934007Y-135343075D01*
X137877000Y-135375988D01*
X137877000Y-133702012D01*
X137934007Y-133734925D01*
X138061174Y-133769000D01*
X138192826Y-133769000D01*
X138319993Y-133734925D01*
X138377000Y-133702012D01*
X138377000Y-135375988D01*
G37*
%TD.AperFunction*%
%TA.AperFunction,Conductor*%
G36*
X123975651Y-122665185D02*
G01*
X123996294Y-122681820D01*
X124036604Y-122722131D01*
X124036607Y-122722133D01*
X124036608Y-122722134D01*
X126830945Y-125516470D01*
X126830947Y-125516471D01*
X126830951Y-125516474D01*
X126897313Y-125554788D01*
X126897315Y-125554788D01*
X126910869Y-125562614D01*
X127000013Y-125586500D01*
X127000014Y-125586500D01*
X127092301Y-125586500D01*
X127360456Y-125586500D01*
X127427495Y-125606185D01*
X127448137Y-125622819D01*
X129938081Y-128112763D01*
X129971566Y-128174086D01*
X129966582Y-128243778D01*
X129924710Y-128299711D01*
X129859246Y-128324128D01*
X129850400Y-128324444D01*
X129840912Y-128324444D01*
X129757129Y-128346892D01*
X129757130Y-128346893D01*
X129751771Y-128348329D01*
X129751768Y-128348330D01*
X129671847Y-128394472D01*
X129671845Y-128394474D01*
X129553136Y-128513182D01*
X129491812Y-128546666D01*
X129465455Y-128549500D01*
X129110945Y-128549500D01*
X129043906Y-128529815D01*
X128998151Y-128477011D01*
X128988207Y-128407853D01*
X129004397Y-128295250D01*
X128983915Y-128152793D01*
X128924127Y-128021877D01*
X128829878Y-127913107D01*
X128708803Y-127835297D01*
X128708801Y-127835296D01*
X128708799Y-127835295D01*
X128708800Y-127835295D01*
X128570713Y-127794750D01*
X128570711Y-127794750D01*
X128545294Y-127794750D01*
X128478255Y-127775065D01*
X128457613Y-127758431D01*
X125908713Y-125209531D01*
X125908708Y-125209527D01*
X125828790Y-125163387D01*
X125828789Y-125163386D01*
X125828788Y-125163386D01*
X125739644Y-125139500D01*
X123143220Y-125139500D01*
X123076181Y-125119815D01*
X123030426Y-125067012D01*
X123013521Y-125029996D01*
X123013518Y-125029991D01*
X122975941Y-124983360D01*
X122924442Y-124931861D01*
X122924441Y-124931861D01*
X121828427Y-126027877D01*
X121085964Y-126770338D01*
X121085964Y-126770339D01*
X121137463Y-126821838D01*
X121184094Y-126859415D01*
X121184101Y-126859420D01*
X121314874Y-126919142D01*
X121314882Y-126919144D01*
X121457195Y-126939604D01*
X121527672Y-126929472D01*
X121596830Y-126939416D01*
X121633000Y-126964529D01*
X121861767Y-127193297D01*
X121895252Y-127254620D01*
X121890268Y-127324312D01*
X121848396Y-127380245D01*
X121809022Y-127399955D01*
X121709948Y-127429046D01*
X121588873Y-127506856D01*
X121494623Y-127615626D01*
X121494622Y-127615628D01*
X121434834Y-127746543D01*
X121418552Y-127859788D01*
X121389526Y-127923343D01*
X121383495Y-127929821D01*
X120487819Y-128825498D01*
X120487815Y-128825504D01*
X120443392Y-128902445D01*
X120443393Y-128902446D01*
X120441672Y-128905426D01*
X120417787Y-128994569D01*
X120417787Y-129861322D01*
X120398102Y-129928361D01*
X120381468Y-129949003D01*
X120308031Y-130022440D01*
X120308028Y-130022442D01*
X120264896Y-130086993D01*
X120230688Y-130121201D01*
X120166137Y-130164333D01*
X120166135Y-130164336D01*
X119742342Y-130588129D01*
X119699210Y-130652678D01*
X119665002Y-130686886D01*
X119651535Y-130695885D01*
X119601173Y-130729537D01*
X119600453Y-130730018D01*
X119269869Y-131060602D01*
X119208546Y-131094087D01*
X119138854Y-131089103D01*
X119088475Y-131054124D01*
X118998128Y-130949857D01*
X118877053Y-130872047D01*
X118877051Y-130872046D01*
X118877049Y-130872045D01*
X118877050Y-130872045D01*
X118738963Y-130831500D01*
X118738961Y-130831500D01*
X118595039Y-130831500D01*
X118595036Y-130831500D01*
X118456949Y-130872045D01*
X118335873Y-130949856D01*
X118241623Y-131058626D01*
X118241622Y-131058628D01*
X118181834Y-131189543D01*
X118161353Y-131332000D01*
X118181834Y-131474456D01*
X118235674Y-131592346D01*
X118241623Y-131605373D01*
X118335872Y-131714143D01*
X118377159Y-131740676D01*
X118422912Y-131793477D01*
X118432856Y-131862635D01*
X118403832Y-131926191D01*
X118397799Y-131932671D01*
X118062376Y-132268095D01*
X118001053Y-132301580D01*
X117931362Y-132296596D01*
X117887014Y-132268095D01*
X117480311Y-131861392D01*
X117480307Y-131861389D01*
X117480304Y-131861386D01*
X117430618Y-131828186D01*
X117415760Y-131818258D01*
X117381551Y-131784049D01*
X117360786Y-131752973D01*
X117338422Y-131719503D01*
X117338421Y-131719502D01*
X117338416Y-131719496D01*
X116914626Y-131295706D01*
X116914622Y-131295703D01*
X116914619Y-131295700D01*
X116852677Y-131254311D01*
X116850072Y-131252570D01*
X116815863Y-131218361D01*
X116809607Y-131208999D01*
X116772736Y-131153818D01*
X116772735Y-131153817D01*
X116772730Y-131153811D01*
X116542539Y-130923620D01*
X116509054Y-130862297D01*
X116507482Y-130818292D01*
X116517614Y-130747815D01*
X116497154Y-130605502D01*
X116497152Y-130605494D01*
X116437430Y-130474721D01*
X116437425Y-130474714D01*
X116399848Y-130428083D01*
X116348349Y-130376584D01*
X116348348Y-130376584D01*
X115252334Y-131472600D01*
X114509871Y-132215061D01*
X114509871Y-132215062D01*
X114561370Y-132266561D01*
X114608001Y-132304138D01*
X114608008Y-132304143D01*
X114738781Y-132363865D01*
X114738789Y-132363867D01*
X114881102Y-132384327D01*
X114951579Y-132374195D01*
X115020738Y-132384139D01*
X115056907Y-132409252D01*
X115287099Y-132639444D01*
X115287102Y-132639446D01*
X115287105Y-132639449D01*
X115289496Y-132641047D01*
X115290465Y-132642205D01*
X115291807Y-132643307D01*
X115291598Y-132643561D01*
X115334298Y-132694659D01*
X115343003Y-132763985D01*
X115322580Y-132811287D01*
X115323593Y-132811872D01*
X115290178Y-132869749D01*
X115290178Y-132869750D01*
X115273386Y-132898833D01*
X115249500Y-132987978D01*
X115249500Y-134073456D01*
X115229815Y-134140495D01*
X115177011Y-134186250D01*
X115107853Y-134196194D01*
X115044297Y-134167169D01*
X115037819Y-134161137D01*
X113877819Y-133001137D01*
X113844334Y-132939814D01*
X113841500Y-132913456D01*
X113841500Y-132332858D01*
X113841500Y-132332856D01*
X113817614Y-132243712D01*
X113813116Y-132235921D01*
X113771473Y-132163794D01*
X113771470Y-132163791D01*
X113771469Y-132163788D01*
X113706212Y-132098531D01*
X113348354Y-131740673D01*
X112969693Y-131362011D01*
X112936208Y-131300688D01*
X112934639Y-131291995D01*
X112918355Y-131178733D01*
X112858567Y-131047817D01*
X112764318Y-130939047D01*
X112753494Y-130932091D01*
X112707740Y-130879289D01*
X112697796Y-130810131D01*
X112726820Y-130746575D01*
X112732839Y-130740109D01*
X112974538Y-130498410D01*
X113035859Y-130464927D01*
X113105551Y-130469911D01*
X113161484Y-130511783D01*
X113165317Y-130517200D01*
X113166243Y-130518587D01*
X113166252Y-130518597D01*
X113590042Y-130942387D01*
X113590045Y-130942389D01*
X113590049Y-130942393D01*
X113612326Y-130957278D01*
X113654593Y-130985521D01*
X113688802Y-131019729D01*
X113690542Y-131022333D01*
X113722135Y-131069615D01*
X113731934Y-131084279D01*
X113731936Y-131084281D01*
X113962128Y-131314472D01*
X113995613Y-131375795D01*
X113997185Y-131419798D01*
X113987053Y-131490276D01*
X113987053Y-131490278D01*
X114007513Y-131632591D01*
X114007515Y-131632599D01*
X114067237Y-131763372D01*
X114067242Y-131763379D01*
X114104819Y-131810010D01*
X114156318Y-131861509D01*
X115252334Y-130765494D01*
X115994796Y-130023031D01*
X115943294Y-129971530D01*
X115896666Y-129933955D01*
X115896659Y-129933950D01*
X115765886Y-129874228D01*
X115765878Y-129874226D01*
X115623566Y-129853766D01*
X115623563Y-129853766D01*
X115553085Y-129863898D01*
X115483927Y-129853953D01*
X115447759Y-129828841D01*
X115217568Y-129598649D01*
X115217566Y-129598647D01*
X115213435Y-129595887D01*
X115155620Y-129557255D01*
X115153016Y-129555515D01*
X115118808Y-129521306D01*
X115089353Y-129477225D01*
X115075680Y-129456762D01*
X115075676Y-129456758D01*
X115075674Y-129456755D01*
X114718234Y-129099315D01*
X114684749Y-129037992D01*
X114689733Y-128968300D01*
X114731605Y-128912367D01*
X114797069Y-128887950D01*
X114805915Y-128887634D01*
X115857008Y-128887634D01*
X115857010Y-128887634D01*
X115946154Y-128863748D01*
X116026078Y-128817604D01*
X118839863Y-126003819D01*
X118901186Y-125970334D01*
X118927544Y-125967500D01*
X119001856Y-125967500D01*
X119105456Y-125967500D01*
X119172495Y-125987185D01*
X119193137Y-126003819D01*
X119213788Y-126024470D01*
X119293712Y-126070614D01*
X119382856Y-126094500D01*
X119382858Y-126094500D01*
X120463366Y-126094500D01*
X120530405Y-126114185D01*
X120576160Y-126166989D01*
X120582344Y-126183570D01*
X120583607Y-126187872D01*
X120643330Y-126318649D01*
X120643335Y-126318656D01*
X120680912Y-126365287D01*
X120732411Y-126416786D01*
X121481821Y-125667377D01*
X121494559Y-125623999D01*
X121511193Y-125603357D01*
X121757460Y-125357090D01*
X121818783Y-125323605D01*
X121826414Y-125322784D01*
X122570889Y-124578308D01*
X122519387Y-124526807D01*
X122471566Y-124488271D01*
X122431718Y-124430879D01*
X122429224Y-124361054D01*
X122464876Y-124300965D01*
X122478876Y-124289708D01*
X122481474Y-124287912D01*
X122497429Y-124274286D01*
X121857645Y-123634502D01*
X121824160Y-123573179D01*
X121829144Y-123503487D01*
X121857645Y-123459140D01*
X122035836Y-123280950D01*
X122097159Y-123247465D01*
X122166851Y-123252449D01*
X122211198Y-123280950D01*
X122850980Y-123920732D01*
X122850982Y-123920732D01*
X122864604Y-123904784D01*
X122864607Y-123904779D01*
X122942505Y-123763084D01*
X122942508Y-123763074D01*
X122982719Y-123606463D01*
X122982720Y-123606456D01*
X122982720Y-123444757D01*
X122982719Y-123444752D01*
X122942505Y-123288132D01*
X122864611Y-123146442D01*
X122864606Y-123146435D01*
X122840975Y-123118767D01*
X122840971Y-123118763D01*
X122579387Y-122857182D01*
X122545902Y-122795859D01*
X122550886Y-122726167D01*
X122592757Y-122670233D01*
X122658221Y-122645816D01*
X122667068Y-122645500D01*
X123908612Y-122645500D01*
X123975651Y-122665185D01*
G37*
%TD.AperFunction*%
%TA.AperFunction,Conductor*%
G36*
X113641539Y-110520185D02*
G01*
X113687294Y-110572989D01*
X113698500Y-110624500D01*
X113698500Y-110990551D01*
X113726829Y-111169410D01*
X113782787Y-111341636D01*
X113782788Y-111341639D01*
X113817474Y-111409712D01*
X113858491Y-111490212D01*
X113865006Y-111502997D01*
X113901055Y-111552615D01*
X113924535Y-111618421D01*
X113908709Y-111686475D01*
X113858604Y-111735170D01*
X113800737Y-111749500D01*
X112184108Y-111749500D01*
X112056814Y-111783608D01*
X112056811Y-111783609D01*
X111984307Y-111825470D01*
X111942689Y-111849498D01*
X111942683Y-111849502D01*
X109599502Y-114192683D01*
X109599500Y-114192686D01*
X109533608Y-114306812D01*
X109499500Y-114434108D01*
X109499500Y-114577000D01*
X109479815Y-114644039D01*
X109427011Y-114689794D01*
X109375500Y-114701000D01*
X108952129Y-114701000D01*
X108952123Y-114701001D01*
X108892516Y-114707408D01*
X108757671Y-114757702D01*
X108757664Y-114757706D01*
X108642455Y-114843952D01*
X108642452Y-114843955D01*
X108556206Y-114959164D01*
X108556202Y-114959171D01*
X108505908Y-115094017D01*
X108501578Y-115134297D01*
X108499501Y-115153623D01*
X108499500Y-115153635D01*
X108499500Y-115227000D01*
X108479815Y-115294039D01*
X108427011Y-115339794D01*
X108375500Y-115351000D01*
X108124499Y-115351000D01*
X108057460Y-115331315D01*
X108011705Y-115278511D01*
X108000499Y-115227000D01*
X108000499Y-115153629D01*
X108000498Y-115153623D01*
X108000497Y-115153616D01*
X107994091Y-115094017D01*
X107943796Y-114959169D01*
X107943795Y-114959168D01*
X107943793Y-114959164D01*
X107857547Y-114843955D01*
X107857544Y-114843952D01*
X107742335Y-114757706D01*
X107742328Y-114757702D01*
X107607482Y-114707408D01*
X107607483Y-114707408D01*
X107547883Y-114701001D01*
X107547881Y-114701000D01*
X107547873Y-114701000D01*
X107547865Y-114701000D01*
X105527674Y-114701000D01*
X105460635Y-114681315D01*
X105414880Y-114628511D01*
X105404936Y-114559353D01*
X105433961Y-114495797D01*
X105439979Y-114489333D01*
X109392494Y-110536819D01*
X109453817Y-110503334D01*
X109480175Y-110500500D01*
X113574500Y-110500500D01*
X113641539Y-110520185D01*
G37*
%TD.AperFunction*%
%TA.AperFunction,Conductor*%
G36*
X141142539Y-101820185D02*
G01*
X141188294Y-101872989D01*
X141199500Y-101924500D01*
X141199500Y-109183920D01*
X141179815Y-109250959D01*
X141127011Y-109296714D01*
X141057853Y-109306658D01*
X141032167Y-109300102D01*
X140957379Y-109272208D01*
X140957372Y-109272206D01*
X140897844Y-109265805D01*
X140250000Y-109265805D01*
X140250000Y-110182793D01*
X140192993Y-110149880D01*
X140065826Y-110115805D01*
X139934174Y-110115805D01*
X139807007Y-110149880D01*
X139750000Y-110182793D01*
X139750000Y-109265805D01*
X139102155Y-109265805D01*
X139042627Y-109272206D01*
X139042620Y-109272208D01*
X138907913Y-109322450D01*
X138907906Y-109322454D01*
X138792812Y-109408614D01*
X138792809Y-109408617D01*
X138706649Y-109523711D01*
X138706645Y-109523718D01*
X138656403Y-109658425D01*
X138656401Y-109658432D01*
X138650000Y-109717960D01*
X138650000Y-110365805D01*
X139566988Y-110365805D01*
X139534075Y-110422812D01*
X139500000Y-110549979D01*
X139500000Y-110681631D01*
X139534075Y-110808798D01*
X139566988Y-110865805D01*
X138717849Y-110865805D01*
X138650810Y-110846120D01*
X138630168Y-110829486D01*
X137502213Y-109701531D01*
X137502208Y-109701527D01*
X137422290Y-109655387D01*
X137422289Y-109655386D01*
X137422288Y-109655386D01*
X137333144Y-109631500D01*
X134777356Y-109631500D01*
X134688212Y-109655386D01*
X134688209Y-109655387D01*
X134608291Y-109701527D01*
X134608286Y-109701531D01*
X134251637Y-110058181D01*
X134190314Y-110091666D01*
X134163956Y-110094500D01*
X133688809Y-110094500D01*
X133630700Y-110100748D01*
X133499219Y-110149789D01*
X133386884Y-110233884D01*
X133302789Y-110346219D01*
X133253748Y-110477700D01*
X133247500Y-110535809D01*
X133247500Y-110975601D01*
X133227815Y-111042640D01*
X133211181Y-111063282D01*
X132909324Y-111365138D01*
X132848001Y-111398623D01*
X132778309Y-111393639D01*
X132722376Y-111351767D01*
X132697959Y-111286303D01*
X132705462Y-111234122D01*
X132706331Y-111231794D01*
X132732251Y-111162299D01*
X132737250Y-111115805D01*
X132738499Y-111104190D01*
X132738500Y-111104173D01*
X132738500Y-110535826D01*
X132738499Y-110535809D01*
X132732251Y-110477700D01*
X132717665Y-110438594D01*
X132683212Y-110346222D01*
X132599116Y-110233884D01*
X132531612Y-110183351D01*
X132486780Y-110149789D01*
X132486778Y-110149788D01*
X132460144Y-110139854D01*
X132355299Y-110100748D01*
X132297190Y-110094500D01*
X132297174Y-110094500D01*
X131703826Y-110094500D01*
X131703809Y-110094500D01*
X131645700Y-110100748D01*
X131514219Y-110149789D01*
X131401884Y-110233884D01*
X131317789Y-110346219D01*
X131268748Y-110477700D01*
X131262500Y-110535809D01*
X131262500Y-111104190D01*
X131268748Y-111162299D01*
X131317789Y-111293780D01*
X131344745Y-111329788D01*
X131401884Y-111406116D01*
X131514222Y-111490212D01*
X131544333Y-111501442D01*
X131600266Y-111543311D01*
X131624684Y-111608775D01*
X131625000Y-111617624D01*
X131625000Y-112014567D01*
X131605315Y-112081606D01*
X131588681Y-112102248D01*
X131499215Y-112191713D01*
X131499210Y-112191720D01*
X131439816Y-112308288D01*
X131424500Y-112404996D01*
X131424500Y-114495007D01*
X131439817Y-114591713D01*
X131439817Y-114591714D01*
X131464918Y-114640977D01*
X131489791Y-114689794D01*
X131499682Y-114709205D01*
X131512578Y-114777874D01*
X131486302Y-114842615D01*
X131429195Y-114882872D01*
X131389197Y-114889500D01*
X130659899Y-114889500D01*
X130592860Y-114869815D01*
X130572218Y-114853181D01*
X130071818Y-114352781D01*
X130038333Y-114291458D01*
X130035499Y-114265100D01*
X130035499Y-112404992D01*
X130020182Y-112308286D01*
X130020182Y-112308285D01*
X130013596Y-112295360D01*
X129960789Y-112191719D01*
X129960783Y-112191713D01*
X129955050Y-112183820D01*
X129957264Y-112182211D01*
X129930975Y-112134066D01*
X129935959Y-112064374D01*
X129939347Y-112056196D01*
X129941286Y-112051950D01*
X129945165Y-112043457D01*
X129965647Y-111901000D01*
X129945165Y-111758543D01*
X129928025Y-111721012D01*
X129918081Y-111651853D01*
X129947106Y-111588297D01*
X130005884Y-111550523D01*
X130040819Y-111545500D01*
X130472174Y-111545500D01*
X130472190Y-111545499D01*
X130530299Y-111539251D01*
X130661778Y-111490212D01*
X130774116Y-111406116D01*
X130858212Y-111293778D01*
X130907251Y-111162299D01*
X130912250Y-111115805D01*
X130913499Y-111104190D01*
X130913500Y-111104173D01*
X130913500Y-110535826D01*
X130913499Y-110535809D01*
X130907251Y-110477700D01*
X130892665Y-110438594D01*
X130858212Y-110346222D01*
X130774116Y-110233884D01*
X130706612Y-110183351D01*
X130661780Y-110149789D01*
X130661778Y-110149788D01*
X130635144Y-110139854D01*
X130530299Y-110100748D01*
X130472190Y-110094500D01*
X130472174Y-110094500D01*
X129878826Y-110094500D01*
X129878809Y-110094500D01*
X129820700Y-110100748D01*
X129689219Y-110149789D01*
X129576884Y-110233884D01*
X129492789Y-110346219D01*
X129443748Y-110477700D01*
X129437500Y-110535809D01*
X129437500Y-110975600D01*
X129417815Y-111042639D01*
X129401181Y-111063281D01*
X129229438Y-111235025D01*
X129159527Y-111304935D01*
X129159525Y-111304937D01*
X129159525Y-111304938D01*
X129138336Y-111341639D01*
X129110090Y-111390562D01*
X129087213Y-111475941D01*
X129087212Y-111475946D01*
X129084500Y-111486065D01*
X129084500Y-111523815D01*
X129064815Y-111590854D01*
X129054215Y-111605016D01*
X129034623Y-111627627D01*
X129034622Y-111627628D01*
X128974834Y-111758543D01*
X128954353Y-111901000D01*
X128974834Y-112043456D01*
X128974836Y-112043460D01*
X128980654Y-112056201D01*
X128990595Y-112125359D01*
X128964153Y-112183253D01*
X128964944Y-112183828D01*
X128962111Y-112187726D01*
X128961569Y-112188914D01*
X128960108Y-112190483D01*
X128959209Y-112191719D01*
X128899816Y-112308287D01*
X128884500Y-112404996D01*
X128884500Y-112645770D01*
X128864815Y-112712809D01*
X128812011Y-112758564D01*
X128742853Y-112768508D01*
X128679297Y-112739483D01*
X128672819Y-112733451D01*
X127171162Y-111231794D01*
X127137677Y-111170471D01*
X127134843Y-111144113D01*
X127134843Y-110736201D01*
X127134843Y-110736199D01*
X127110957Y-110647055D01*
X127083501Y-110599500D01*
X127064813Y-110567131D01*
X126535818Y-110038136D01*
X126502333Y-109976813D01*
X126499499Y-109950455D01*
X126499499Y-108402129D01*
X126499498Y-108402123D01*
X126499497Y-108402116D01*
X126493091Y-108342517D01*
X126442796Y-108207669D01*
X126442795Y-108207668D01*
X126442793Y-108207664D01*
X126356547Y-108092455D01*
X126356544Y-108092452D01*
X126241335Y-108006206D01*
X126241328Y-108006202D01*
X126106482Y-107955908D01*
X126106483Y-107955908D01*
X126046883Y-107949501D01*
X126046881Y-107949500D01*
X126046873Y-107949500D01*
X126046864Y-107949500D01*
X124651129Y-107949500D01*
X124651123Y-107949501D01*
X124591516Y-107955908D01*
X124456671Y-108006202D01*
X124456664Y-108006206D01*
X124341455Y-108092452D01*
X124341452Y-108092455D01*
X124255206Y-108207664D01*
X124255202Y-108207671D01*
X124204908Y-108342517D01*
X124198501Y-108402116D01*
X124198501Y-108402123D01*
X124198500Y-108402135D01*
X124198500Y-111597870D01*
X124198501Y-111597876D01*
X124204908Y-111657483D01*
X124255202Y-111792328D01*
X124255206Y-111792335D01*
X124341452Y-111907544D01*
X124341453Y-111907544D01*
X124341454Y-111907546D01*
X124347622Y-111912163D01*
X124366418Y-111926234D01*
X124408288Y-111982168D01*
X124413272Y-112051860D01*
X124379786Y-112113182D01*
X124318462Y-112146667D01*
X124292106Y-112149500D01*
X123696544Y-112149500D01*
X123629505Y-112129815D01*
X123608863Y-112113181D01*
X122949840Y-111454158D01*
X122916355Y-111392835D01*
X122919589Y-111328162D01*
X122971171Y-111169409D01*
X122974101Y-111150911D01*
X122999500Y-110990551D01*
X122999500Y-109009448D01*
X122983019Y-108905397D01*
X122971171Y-108830591D01*
X122915211Y-108658361D01*
X122915211Y-108658360D01*
X122886740Y-108602484D01*
X122832996Y-108497006D01*
X122764069Y-108402135D01*
X122726558Y-108350505D01*
X122726554Y-108350500D01*
X122598499Y-108222445D01*
X122598494Y-108222441D01*
X122451997Y-108116006D01*
X122451996Y-108116005D01*
X122451994Y-108116004D01*
X122400300Y-108089664D01*
X122290639Y-108033788D01*
X122290636Y-108033787D01*
X122118410Y-107977829D01*
X121939551Y-107949500D01*
X121939546Y-107949500D01*
X121758454Y-107949500D01*
X121758449Y-107949500D01*
X121579589Y-107977829D01*
X121407363Y-108033787D01*
X121407360Y-108033788D01*
X121246002Y-108116006D01*
X121099505Y-108222441D01*
X121099500Y-108222445D01*
X120971445Y-108350500D01*
X120971441Y-108350505D01*
X120865006Y-108497002D01*
X120782788Y-108658360D01*
X120782787Y-108658363D01*
X120726829Y-108830589D01*
X120698500Y-109009448D01*
X120698500Y-110990551D01*
X120726829Y-111169410D01*
X120782787Y-111341636D01*
X120782788Y-111341639D01*
X120817474Y-111409712D01*
X120858491Y-111490212D01*
X120865006Y-111502997D01*
X120971441Y-111649494D01*
X120971445Y-111649499D01*
X121099500Y-111777554D01*
X121099505Y-111777558D01*
X121212889Y-111859935D01*
X121246006Y-111883996D01*
X121339253Y-111931508D01*
X121407360Y-111966211D01*
X121407363Y-111966212D01*
X121456472Y-111982168D01*
X121579591Y-112022171D01*
X121662429Y-112035291D01*
X121758449Y-112050500D01*
X121758454Y-112050500D01*
X121939551Y-112050500D01*
X122026259Y-112036765D01*
X122118409Y-112022171D01*
X122290639Y-111966211D01*
X122329538Y-111946390D01*
X122398203Y-111933494D01*
X122462944Y-111959769D01*
X122473512Y-111969194D01*
X123284788Y-112780470D01*
X123284789Y-112780471D01*
X123284791Y-112780472D01*
X123324750Y-112803542D01*
X123364712Y-112826614D01*
X123453856Y-112850500D01*
X123453857Y-112850500D01*
X123546144Y-112850500D01*
X127181456Y-112850500D01*
X127248495Y-112870185D01*
X127269137Y-112886819D01*
X127645346Y-113263028D01*
X127678831Y-113324351D01*
X127673847Y-113394043D01*
X127631975Y-113449976D01*
X127624705Y-113455024D01*
X127497374Y-113536855D01*
X127497372Y-113536856D01*
X127497372Y-113536857D01*
X127481595Y-113555065D01*
X127403123Y-113645626D01*
X127403122Y-113645628D01*
X127343334Y-113776543D01*
X127327052Y-113889788D01*
X127298026Y-113953343D01*
X127291997Y-113959820D01*
X127270029Y-113981788D01*
X127228173Y-114054284D01*
X127228174Y-114054285D01*
X127223885Y-114061713D01*
X127223884Y-114061715D01*
X127200000Y-114150856D01*
X127200000Y-118653111D01*
X127180315Y-118720150D01*
X127163681Y-118740792D01*
X125141356Y-120763116D01*
X125080033Y-120796601D01*
X125010341Y-120791617D01*
X124954408Y-120749745D01*
X124930385Y-120688686D01*
X124926107Y-120648885D01*
X124889773Y-120551473D01*
X124878323Y-120520774D01*
X124817253Y-120439194D01*
X124792838Y-120373734D01*
X124807689Y-120305461D01*
X124851426Y-120259348D01*
X124909426Y-120223573D01*
X125029267Y-120103732D01*
X125029270Y-120103728D01*
X125118237Y-119959492D01*
X125118242Y-119959481D01*
X125171550Y-119798606D01*
X125181694Y-119699322D01*
X125181695Y-119699309D01*
X125181695Y-119676000D01*
X124080695Y-119676000D01*
X124013656Y-119656315D01*
X123967901Y-119603511D01*
X123956695Y-119552000D01*
X123956695Y-119176000D01*
X124456695Y-119176000D01*
X125181694Y-119176000D01*
X125181694Y-119152692D01*
X125181693Y-119152677D01*
X125171550Y-119053392D01*
X125118242Y-118892518D01*
X125118237Y-118892507D01*
X125029270Y-118748271D01*
X125029267Y-118748267D01*
X124909427Y-118628427D01*
X124909423Y-118628424D01*
X124765187Y-118539457D01*
X124765176Y-118539452D01*
X124604301Y-118486144D01*
X124505017Y-118476000D01*
X124456695Y-118476000D01*
X124456695Y-119176000D01*
X123956695Y-119176000D01*
X123956695Y-118476000D01*
X123956694Y-118475999D01*
X123908388Y-118476000D01*
X123908370Y-118476001D01*
X123809086Y-118486144D01*
X123686521Y-118526757D01*
X123616692Y-118529158D01*
X123556651Y-118493426D01*
X123530476Y-118450005D01*
X123481031Y-118308698D01*
X123385117Y-118156051D01*
X123257643Y-118028577D01*
X123257637Y-118028572D01*
X123162509Y-117968799D01*
X123116218Y-117916465D01*
X123105570Y-117847411D01*
X123110775Y-117824802D01*
X123159550Y-117677606D01*
X123169694Y-117578322D01*
X123169695Y-117578309D01*
X123169695Y-117530000D01*
X122469695Y-117530000D01*
X122469695Y-117815000D01*
X122581695Y-117815000D01*
X122648734Y-117834685D01*
X122694489Y-117887489D01*
X122705695Y-117939000D01*
X122705695Y-119184000D01*
X122686010Y-119251039D01*
X122633206Y-119296794D01*
X122581695Y-119308000D01*
X122329695Y-119308000D01*
X122262656Y-119288315D01*
X122216901Y-119235511D01*
X122205695Y-119184000D01*
X122205695Y-118298000D01*
X122093695Y-118298000D01*
X122026656Y-118278315D01*
X121980901Y-118225511D01*
X121969695Y-118174000D01*
X121969695Y-117030000D01*
X122469695Y-117030000D01*
X123169694Y-117030000D01*
X123169694Y-116981692D01*
X123169693Y-116981677D01*
X123159550Y-116882392D01*
X123106242Y-116721518D01*
X123106237Y-116721507D01*
X123017270Y-116577271D01*
X123017267Y-116577267D01*
X122897427Y-116457427D01*
X122897423Y-116457424D01*
X122753187Y-116368457D01*
X122753176Y-116368452D01*
X122592301Y-116315144D01*
X122493017Y-116305000D01*
X122469695Y-116305000D01*
X122469695Y-117030000D01*
X121969695Y-117030000D01*
X121969695Y-116304999D01*
X121946388Y-116305000D01*
X121946369Y-116305001D01*
X121847087Y-116315144D01*
X121686213Y-116368452D01*
X121686202Y-116368457D01*
X121541966Y-116457424D01*
X121541962Y-116457427D01*
X121422119Y-116577270D01*
X121386344Y-116635270D01*
X121334396Y-116681993D01*
X121265433Y-116693214D01*
X121206497Y-116669438D01*
X121124925Y-116608374D01*
X121124922Y-116608373D01*
X121124921Y-116608372D01*
X120996809Y-116560588D01*
X120996807Y-116560587D01*
X120996805Y-116560587D01*
X120940188Y-116554500D01*
X120399213Y-116554500D01*
X120399204Y-116554501D01*
X120342580Y-116560587D01*
X120214468Y-116608372D01*
X120105008Y-116690313D01*
X120023068Y-116799771D01*
X119975282Y-116927889D01*
X119969195Y-116984498D01*
X119969195Y-117575481D01*
X119969196Y-117575490D01*
X119975282Y-117632114D01*
X120006426Y-117715610D01*
X120023067Y-117760226D01*
X120088332Y-117847411D01*
X120105009Y-117869688D01*
X120151135Y-117904217D01*
X120193007Y-117960150D01*
X120197991Y-118029842D01*
X120164506Y-118091165D01*
X120122315Y-118118838D01*
X119983355Y-118173637D01*
X119983353Y-118173638D01*
X119862772Y-118265077D01*
X119771334Y-118385656D01*
X119715817Y-118526438D01*
X119709883Y-118575853D01*
X119705195Y-118614898D01*
X119705195Y-118614903D01*
X119705195Y-119453100D01*
X119685510Y-119520139D01*
X119668876Y-119540781D01*
X118769438Y-120440220D01*
X118699527Y-120510130D01*
X118699525Y-120510132D01*
X118699525Y-120510133D01*
X118687371Y-120531185D01*
X118650089Y-120595758D01*
X118646546Y-120608983D01*
X118635855Y-120648886D01*
X118628992Y-120674498D01*
X118628991Y-120674502D01*
X118624500Y-120691260D01*
X118624500Y-121391101D01*
X118604815Y-121458140D01*
X118588181Y-121478782D01*
X118223221Y-121843741D01*
X118173786Y-121929364D01*
X118173785Y-121929365D01*
X118163330Y-121968387D01*
X118150967Y-122014526D01*
X118150966Y-122014528D01*
X118148195Y-122024868D01*
X118148195Y-122024870D01*
X118148195Y-122320156D01*
X118148195Y-122419028D01*
X118152160Y-122433824D01*
X118173785Y-122514530D01*
X118206517Y-122571223D01*
X118219752Y-122594147D01*
X118223218Y-122600151D01*
X118223223Y-122600157D01*
X118275215Y-122652149D01*
X118308700Y-122713472D01*
X118303716Y-122783164D01*
X118275215Y-122827511D01*
X118062376Y-123040351D01*
X118001053Y-123073836D01*
X117931362Y-123068852D01*
X117887014Y-123040351D01*
X116737844Y-121891181D01*
X116694753Y-121862389D01*
X116675899Y-121849791D01*
X116675898Y-121849790D01*
X116675897Y-121849790D01*
X116675894Y-121849789D01*
X116578161Y-121830349D01*
X116578159Y-121830349D01*
X116535527Y-121838829D01*
X116519188Y-121842079D01*
X116449597Y-121835851D01*
X116407317Y-121808142D01*
X116252705Y-121653530D01*
X116252701Y-121653527D01*
X116172783Y-121607387D01*
X116172782Y-121607386D01*
X116172781Y-121607386D01*
X116083637Y-121583500D01*
X114302856Y-121583500D01*
X114213712Y-121607386D01*
X114213709Y-121607387D01*
X114133791Y-121653527D01*
X112989137Y-122798181D01*
X112927814Y-122831666D01*
X112901456Y-122834500D01*
X111842531Y-122834500D01*
X111756984Y-122857421D01*
X111756985Y-122857422D01*
X111753386Y-122858386D01*
X111673466Y-122904527D01*
X111673460Y-122904532D01*
X111647786Y-122930205D01*
X111586462Y-122963688D01*
X111516771Y-122958701D01*
X111466395Y-122923723D01*
X111378129Y-122821858D01*
X111378123Y-122821853D01*
X111294919Y-122768381D01*
X111249164Y-122715578D01*
X111239220Y-122646419D01*
X111268245Y-122582863D01*
X111327023Y-122545089D01*
X111329796Y-122544310D01*
X111445186Y-122513392D01*
X111559314Y-122447500D01*
X113018495Y-120988317D01*
X113079818Y-120954833D01*
X113106176Y-120951999D01*
X115047871Y-120951999D01*
X115047872Y-120951999D01*
X115107483Y-120945591D01*
X115242331Y-120895296D01*
X115357546Y-120809046D01*
X115443796Y-120693831D01*
X115494091Y-120558983D01*
X115500500Y-120499373D01*
X115500499Y-119103628D01*
X115494091Y-119044017D01*
X115487396Y-119026068D01*
X115443797Y-118909171D01*
X115443793Y-118909164D01*
X115357547Y-118793955D01*
X115357544Y-118793952D01*
X115242335Y-118707706D01*
X115242328Y-118707702D01*
X115107482Y-118657408D01*
X115107483Y-118657408D01*
X115047883Y-118651001D01*
X115047881Y-118651000D01*
X115047873Y-118651000D01*
X115047865Y-118651000D01*
X114624500Y-118651000D01*
X114557461Y-118631315D01*
X114511706Y-118578511D01*
X114500500Y-118527000D01*
X114500500Y-117125999D01*
X114520185Y-117058960D01*
X114572989Y-117013205D01*
X114624500Y-117001999D01*
X115047871Y-117001999D01*
X115047872Y-117001999D01*
X115107483Y-116995591D01*
X115242331Y-116945296D01*
X115357546Y-116859046D01*
X115443796Y-116743831D01*
X115494091Y-116608983D01*
X115500500Y-116549373D01*
X115500499Y-115409499D01*
X115520184Y-115342461D01*
X115572987Y-115296706D01*
X115624499Y-115285500D01*
X115791892Y-115285500D01*
X115858931Y-115305185D01*
X115904686Y-115357989D01*
X115908073Y-115366166D01*
X115926371Y-115415225D01*
X115926372Y-115415226D01*
X116008313Y-115524687D01*
X116117774Y-115606628D01*
X116245886Y-115654412D01*
X116302515Y-115660500D01*
X116843484Y-115660499D01*
X116900114Y-115654412D01*
X117028226Y-115606628D01*
X117109804Y-115545559D01*
X117175264Y-115521143D01*
X117243538Y-115535994D01*
X117289650Y-115579730D01*
X117325424Y-115637728D01*
X117325427Y-115637732D01*
X117445267Y-115757572D01*
X117445271Y-115757575D01*
X117589507Y-115846542D01*
X117589518Y-115846547D01*
X117750393Y-115899855D01*
X117849683Y-115909999D01*
X118373000Y-115909999D01*
X118396308Y-115909999D01*
X118396322Y-115909998D01*
X118495607Y-115899855D01*
X118656481Y-115846547D01*
X118656492Y-115846542D01*
X118800728Y-115757575D01*
X118800732Y-115757572D01*
X118920572Y-115637732D01*
X118920575Y-115637728D01*
X119009542Y-115493492D01*
X119009547Y-115493481D01*
X119062855Y-115332606D01*
X119072999Y-115233322D01*
X119073000Y-115233309D01*
X119073000Y-115185000D01*
X118373000Y-115185000D01*
X118373000Y-115909999D01*
X117849683Y-115909999D01*
X117873000Y-115909998D01*
X117873000Y-114685000D01*
X118373000Y-114685000D01*
X119072999Y-114685000D01*
X119072999Y-114636692D01*
X119072998Y-114636677D01*
X119062855Y-114537392D01*
X119009547Y-114376518D01*
X119009542Y-114376507D01*
X118920575Y-114232271D01*
X118920572Y-114232267D01*
X118800732Y-114112427D01*
X118800728Y-114112424D01*
X118656492Y-114023457D01*
X118656481Y-114023452D01*
X118495606Y-113970144D01*
X118396322Y-113960000D01*
X118373000Y-113960000D01*
X118373000Y-114685000D01*
X117873000Y-114685000D01*
X117873000Y-113959999D01*
X117849693Y-113960000D01*
X117849674Y-113960001D01*
X117750392Y-113970144D01*
X117589518Y-114023452D01*
X117589507Y-114023457D01*
X117445271Y-114112424D01*
X117445267Y-114112427D01*
X117325424Y-114232270D01*
X117289649Y-114290270D01*
X117237701Y-114336993D01*
X117168738Y-114348214D01*
X117109802Y-114324438D01*
X117028230Y-114263374D01*
X117028227Y-114263373D01*
X117028226Y-114263372D01*
X116900114Y-114215588D01*
X116900112Y-114215587D01*
X116900110Y-114215587D01*
X116843493Y-114209500D01*
X116302518Y-114209500D01*
X116302509Y-114209501D01*
X116245885Y-114215587D01*
X116117773Y-114263372D01*
X116008313Y-114345313D01*
X115926371Y-114454774D01*
X115908073Y-114503834D01*
X115866202Y-114559768D01*
X115800737Y-114584184D01*
X115791892Y-114584500D01*
X114870356Y-114584500D01*
X114781212Y-114608386D01*
X114781209Y-114608387D01*
X114701285Y-114654531D01*
X114691132Y-114664684D01*
X114629808Y-114698167D01*
X114603454Y-114701000D01*
X112952129Y-114701000D01*
X112952123Y-114701001D01*
X112892516Y-114707408D01*
X112757671Y-114757702D01*
X112757664Y-114757706D01*
X112642455Y-114843952D01*
X112642452Y-114843955D01*
X112556206Y-114959164D01*
X112556202Y-114959171D01*
X112505908Y-115094017D01*
X112501578Y-115134297D01*
X112499501Y-115153623D01*
X112499500Y-115153635D01*
X112499500Y-116549370D01*
X112499501Y-116549376D01*
X112505908Y-116608983D01*
X112556202Y-116743828D01*
X112556206Y-116743835D01*
X112642452Y-116859044D01*
X112642455Y-116859047D01*
X112757664Y-116945293D01*
X112757671Y-116945297D01*
X112759130Y-116945841D01*
X112892517Y-116995591D01*
X112952127Y-117002000D01*
X113375500Y-117001999D01*
X113442539Y-117021683D01*
X113488294Y-117074487D01*
X113499500Y-117125999D01*
X113499500Y-118527000D01*
X113479815Y-118594039D01*
X113427011Y-118639794D01*
X113375500Y-118651000D01*
X112952129Y-118651000D01*
X112952123Y-118651001D01*
X112892516Y-118657408D01*
X112757671Y-118707702D01*
X112757664Y-118707706D01*
X112642455Y-118793952D01*
X112642452Y-118793955D01*
X112556206Y-118909164D01*
X112556202Y-118909171D01*
X112505908Y-119044017D01*
X112500533Y-119094016D01*
X112499501Y-119103623D01*
X112499500Y-119103635D01*
X112499500Y-120040323D01*
X112479815Y-120107362D01*
X112463181Y-120128004D01*
X111081005Y-121510181D01*
X111019682Y-121543666D01*
X110993324Y-121546500D01*
X110170108Y-121546500D01*
X110042812Y-121580608D01*
X109928686Y-121646500D01*
X109928683Y-121646502D01*
X101012181Y-130563005D01*
X100950858Y-130596490D01*
X100881166Y-130591506D01*
X100825233Y-130549634D01*
X100800816Y-130484170D01*
X100800500Y-130475324D01*
X100800500Y-121162023D01*
X100820185Y-121094984D01*
X100872989Y-121049229D01*
X100942147Y-121039285D01*
X101005703Y-121068310D01*
X101012181Y-121074342D01*
X101031654Y-121093815D01*
X101180875Y-121185856D01*
X101180880Y-121185858D01*
X101347302Y-121241005D01*
X101347309Y-121241006D01*
X101450019Y-121251499D01*
X102249999Y-121251499D01*
X102750000Y-121251499D01*
X103549972Y-121251499D01*
X103549986Y-121251498D01*
X103652697Y-121241005D01*
X103819119Y-121185858D01*
X103819124Y-121185856D01*
X103968345Y-121093815D01*
X104092315Y-120969845D01*
X104184356Y-120820624D01*
X104184358Y-120820619D01*
X104239505Y-120654197D01*
X104239506Y-120654190D01*
X104249999Y-120551486D01*
X104250000Y-120551473D01*
X104250000Y-120101500D01*
X102750000Y-120101500D01*
X102750000Y-121251499D01*
X102249999Y-121251499D01*
X102250000Y-121251498D01*
X102250000Y-119601500D01*
X102750000Y-119601500D01*
X104249999Y-119601500D01*
X104249999Y-119151528D01*
X104249998Y-119151513D01*
X104239505Y-119048802D01*
X104184358Y-118882380D01*
X104184356Y-118882375D01*
X104092315Y-118733154D01*
X103968345Y-118609184D01*
X103819124Y-118517143D01*
X103819119Y-118517141D01*
X103652697Y-118461994D01*
X103652690Y-118461993D01*
X103549986Y-118451500D01*
X102750000Y-118451500D01*
X102750000Y-119601500D01*
X102250000Y-119601500D01*
X102250000Y-118451500D01*
X101450028Y-118451500D01*
X101450012Y-118451501D01*
X101347302Y-118461994D01*
X101180880Y-118517141D01*
X101180875Y-118517143D01*
X101031654Y-118609184D01*
X101012181Y-118628658D01*
X100950858Y-118662143D01*
X100881166Y-118657159D01*
X100825233Y-118615287D01*
X100800816Y-118549823D01*
X100800500Y-118540977D01*
X100800500Y-117162023D01*
X100820185Y-117094984D01*
X100872989Y-117049229D01*
X100942147Y-117039285D01*
X101005703Y-117068310D01*
X101012181Y-117074342D01*
X101031654Y-117093815D01*
X101180875Y-117185856D01*
X101180880Y-117185858D01*
X101347302Y-117241005D01*
X101347309Y-117241006D01*
X101450019Y-117251499D01*
X102249999Y-117251499D01*
X102250000Y-117251498D01*
X102250000Y-114451500D01*
X102750000Y-114451500D01*
X102750000Y-117251499D01*
X103549972Y-117251499D01*
X103549986Y-117251498D01*
X103652697Y-117241005D01*
X103819119Y-117185858D01*
X103819124Y-117185856D01*
X103968345Y-117093815D01*
X104087819Y-116974342D01*
X104149142Y-116940857D01*
X104218834Y-116945841D01*
X104274767Y-116987713D01*
X104299184Y-117053177D01*
X104299500Y-117062023D01*
X104299500Y-118085608D01*
X104299500Y-118217392D01*
X104304448Y-118235857D01*
X104333608Y-118344687D01*
X104357262Y-118385656D01*
X104399500Y-118458814D01*
X104399502Y-118458816D01*
X104966754Y-119026068D01*
X105000239Y-119087391D01*
X105002362Y-119126999D01*
X104999500Y-119153627D01*
X104999500Y-119153628D01*
X104999500Y-119153632D01*
X104999500Y-120549370D01*
X104999501Y-120549376D01*
X105005908Y-120608983D01*
X105056202Y-120743828D01*
X105056206Y-120743835D01*
X105142452Y-120859044D01*
X105142455Y-120859047D01*
X105257664Y-120945293D01*
X105257671Y-120945297D01*
X105392517Y-120995591D01*
X105392516Y-120995591D01*
X105399444Y-120996335D01*
X105452127Y-121002000D01*
X107547872Y-121001999D01*
X107607483Y-120995591D01*
X107742331Y-120945296D01*
X107857546Y-120859046D01*
X107943796Y-120743831D01*
X107994091Y-120608983D01*
X108000500Y-120549373D01*
X108000500Y-120476000D01*
X108020185Y-120408961D01*
X108072989Y-120363206D01*
X108124500Y-120352000D01*
X108375501Y-120352000D01*
X108442540Y-120371685D01*
X108488295Y-120424489D01*
X108499501Y-120476000D01*
X108499501Y-120499376D01*
X108505908Y-120558983D01*
X108556202Y-120693828D01*
X108556206Y-120693835D01*
X108642452Y-120809044D01*
X108642455Y-120809047D01*
X108757664Y-120895293D01*
X108757671Y-120895297D01*
X108892517Y-120945591D01*
X108892516Y-120945591D01*
X108899444Y-120946335D01*
X108952127Y-120952000D01*
X111047872Y-120951999D01*
X111107483Y-120945591D01*
X111242331Y-120895296D01*
X111357546Y-120809046D01*
X111443796Y-120693831D01*
X111494091Y-120558983D01*
X111500500Y-120499373D01*
X111500499Y-119103628D01*
X111494091Y-119044017D01*
X111487396Y-119026068D01*
X111443797Y-118909171D01*
X111443793Y-118909164D01*
X111357547Y-118793955D01*
X111357544Y-118793952D01*
X111242335Y-118707706D01*
X111242328Y-118707702D01*
X111107482Y-118657408D01*
X111107483Y-118657408D01*
X111047883Y-118651001D01*
X111047881Y-118651000D01*
X111047873Y-118651000D01*
X111047864Y-118651000D01*
X108952129Y-118651000D01*
X108952123Y-118651001D01*
X108892516Y-118657408D01*
X108757671Y-118707702D01*
X108757664Y-118707706D01*
X108642455Y-118793952D01*
X108642452Y-118793955D01*
X108556206Y-118909164D01*
X108556202Y-118909171D01*
X108505908Y-119044017D01*
X108500533Y-119094016D01*
X108499501Y-119103623D01*
X108499500Y-119103635D01*
X108499500Y-119227000D01*
X108479815Y-119294039D01*
X108427011Y-119339794D01*
X108375500Y-119351000D01*
X108124499Y-119351000D01*
X108057460Y-119331315D01*
X108011705Y-119278511D01*
X108000499Y-119227000D01*
X108000499Y-119153629D01*
X108000498Y-119153623D01*
X108000396Y-119152677D01*
X107994091Y-119094017D01*
X107984776Y-119069043D01*
X107943797Y-118959171D01*
X107943793Y-118959164D01*
X107857547Y-118843955D01*
X107857544Y-118843952D01*
X107742335Y-118757706D01*
X107742328Y-118757702D01*
X107607482Y-118707408D01*
X107607483Y-118707408D01*
X107547883Y-118701001D01*
X107547881Y-118701000D01*
X107547873Y-118701000D01*
X107547865Y-118701000D01*
X106108676Y-118701000D01*
X106041637Y-118681315D01*
X106020995Y-118664681D01*
X105336819Y-117980505D01*
X105303334Y-117919182D01*
X105300500Y-117892824D01*
X105300500Y-117123743D01*
X105320185Y-117056704D01*
X105372989Y-117010949D01*
X105437756Y-117000454D01*
X105452127Y-117002000D01*
X107547872Y-117001999D01*
X107607483Y-116995591D01*
X107742331Y-116945296D01*
X107857546Y-116859046D01*
X107943796Y-116743831D01*
X107994091Y-116608983D01*
X108000500Y-116549373D01*
X108000500Y-116476000D01*
X108020185Y-116408961D01*
X108072989Y-116363206D01*
X108124500Y-116352000D01*
X108375501Y-116352000D01*
X108442540Y-116371685D01*
X108488295Y-116424489D01*
X108499501Y-116476000D01*
X108499501Y-116549376D01*
X108505908Y-116608983D01*
X108556202Y-116743828D01*
X108556206Y-116743835D01*
X108642452Y-116859044D01*
X108642455Y-116859047D01*
X108757664Y-116945293D01*
X108757671Y-116945297D01*
X108892517Y-116995591D01*
X108892516Y-116995591D01*
X108899444Y-116996335D01*
X108952127Y-117002000D01*
X111047872Y-117001999D01*
X111107483Y-116995591D01*
X111242331Y-116945296D01*
X111357546Y-116859046D01*
X111443796Y-116743831D01*
X111494091Y-116608983D01*
X111500500Y-116549373D01*
X111500499Y-115153628D01*
X111494091Y-115094017D01*
X111443796Y-114959169D01*
X111443795Y-114959168D01*
X111443793Y-114959164D01*
X111357547Y-114843955D01*
X111357544Y-114843952D01*
X111242335Y-114757706D01*
X111242328Y-114757702D01*
X111107482Y-114707408D01*
X111107483Y-114707408D01*
X111047883Y-114701001D01*
X111047881Y-114701000D01*
X111047873Y-114701000D01*
X111047865Y-114701000D01*
X110806175Y-114701000D01*
X110739136Y-114681315D01*
X110693381Y-114628511D01*
X110683437Y-114559353D01*
X110712462Y-114495797D01*
X110718494Y-114489319D01*
X111507814Y-113700000D01*
X112420995Y-112786819D01*
X112482318Y-112753334D01*
X112508676Y-112750500D01*
X116315890Y-112750500D01*
X116315892Y-112750500D01*
X116443186Y-112716392D01*
X116557314Y-112650500D01*
X117427199Y-111780615D01*
X117488522Y-111747130D01*
X117558214Y-111752114D01*
X117594768Y-111775606D01*
X117595803Y-111774396D01*
X117599505Y-111777558D01*
X117712889Y-111859935D01*
X117746006Y-111883996D01*
X117839253Y-111931508D01*
X117907360Y-111966211D01*
X117907363Y-111966212D01*
X117956472Y-111982168D01*
X118079591Y-112022171D01*
X118162429Y-112035291D01*
X118258449Y-112050500D01*
X118258454Y-112050500D01*
X118439551Y-112050500D01*
X118526259Y-112036765D01*
X118618409Y-112022171D01*
X118790639Y-111966211D01*
X118951994Y-111883996D01*
X119098501Y-111777553D01*
X119226553Y-111649501D01*
X119332996Y-111502994D01*
X119415211Y-111341639D01*
X119471171Y-111169409D01*
X119491249Y-111042640D01*
X119499500Y-110990551D01*
X119499500Y-109009448D01*
X119483019Y-108905397D01*
X119471171Y-108830591D01*
X119415211Y-108658361D01*
X119415211Y-108658360D01*
X119386740Y-108602484D01*
X119332996Y-108497006D01*
X119264069Y-108402135D01*
X119226558Y-108350505D01*
X119226554Y-108350500D01*
X119098499Y-108222445D01*
X119098494Y-108222441D01*
X118951997Y-108116006D01*
X118951996Y-108116005D01*
X118951994Y-108116004D01*
X118900300Y-108089664D01*
X118790639Y-108033788D01*
X118790636Y-108033787D01*
X118618410Y-107977829D01*
X118439551Y-107949500D01*
X118439546Y-107949500D01*
X118258454Y-107949500D01*
X118258449Y-107949500D01*
X118079589Y-107977829D01*
X117907363Y-108033787D01*
X117907360Y-108033788D01*
X117746002Y-108116006D01*
X117599505Y-108222441D01*
X117599500Y-108222445D01*
X117471445Y-108350500D01*
X117471441Y-108350505D01*
X117365006Y-108497002D01*
X117282788Y-108658360D01*
X117282787Y-108658363D01*
X117226829Y-108830589D01*
X117198500Y-109009448D01*
X117198500Y-110542324D01*
X117178815Y-110609363D01*
X117162181Y-110630005D01*
X116079005Y-111713181D01*
X116017682Y-111746666D01*
X115991324Y-111749500D01*
X115897263Y-111749500D01*
X115830224Y-111729815D01*
X115784469Y-111677011D01*
X115774525Y-111607853D01*
X115796945Y-111552615D01*
X115817869Y-111523815D01*
X115832996Y-111502994D01*
X115915211Y-111341639D01*
X115971171Y-111169409D01*
X115991249Y-111042640D01*
X115999500Y-110990551D01*
X115999500Y-109009448D01*
X115983019Y-108905397D01*
X115971171Y-108830591D01*
X115915211Y-108658361D01*
X115915211Y-108658360D01*
X115886740Y-108602484D01*
X115832996Y-108497006D01*
X115764069Y-108402135D01*
X115726558Y-108350505D01*
X115726554Y-108350500D01*
X115598499Y-108222445D01*
X115598494Y-108222441D01*
X115451997Y-108116006D01*
X115451996Y-108116005D01*
X115451994Y-108116004D01*
X115400300Y-108089664D01*
X115290639Y-108033788D01*
X115290636Y-108033787D01*
X115118410Y-107977829D01*
X114939551Y-107949500D01*
X114939546Y-107949500D01*
X114758454Y-107949500D01*
X114758449Y-107949500D01*
X114579589Y-107977829D01*
X114407363Y-108033787D01*
X114407360Y-108033788D01*
X114246002Y-108116006D01*
X114099505Y-108222441D01*
X114099500Y-108222445D01*
X113971445Y-108350500D01*
X113971441Y-108350505D01*
X113865006Y-108497002D01*
X113782788Y-108658360D01*
X113782787Y-108658363D01*
X113726829Y-108830589D01*
X113698500Y-109009448D01*
X113698500Y-109375500D01*
X113678815Y-109442539D01*
X113626011Y-109488294D01*
X113574500Y-109499500D01*
X109155607Y-109499500D01*
X109028312Y-109533608D01*
X108914186Y-109599500D01*
X108914183Y-109599502D01*
X108858300Y-109655386D01*
X108821000Y-109692686D01*
X108820998Y-109692688D01*
X106653063Y-111860623D01*
X104475245Y-114038440D01*
X104475244Y-114038440D01*
X104475245Y-114038441D01*
X104399500Y-114114186D01*
X104333608Y-114228312D01*
X104299500Y-114355608D01*
X104299500Y-114640977D01*
X104279815Y-114708016D01*
X104227011Y-114753771D01*
X104157853Y-114763715D01*
X104094297Y-114734690D01*
X104087819Y-114728658D01*
X103968345Y-114609184D01*
X103819124Y-114517143D01*
X103819119Y-114517141D01*
X103652697Y-114461994D01*
X103652690Y-114461993D01*
X103549986Y-114451500D01*
X102750000Y-114451500D01*
X102250000Y-114451500D01*
X101450028Y-114451500D01*
X101450012Y-114451501D01*
X101347302Y-114461994D01*
X101180880Y-114517141D01*
X101180875Y-114517143D01*
X101031654Y-114609184D01*
X101012181Y-114628658D01*
X100950858Y-114662143D01*
X100881166Y-114657159D01*
X100825233Y-114615287D01*
X100800816Y-114549823D01*
X100800500Y-114540977D01*
X100800500Y-104878711D01*
X102149500Y-104878711D01*
X102149500Y-105121288D01*
X102181161Y-105361785D01*
X102243947Y-105596104D01*
X102336773Y-105820205D01*
X102336776Y-105820212D01*
X102458064Y-106030289D01*
X102458066Y-106030292D01*
X102458067Y-106030293D01*
X102605733Y-106222736D01*
X102605739Y-106222743D01*
X102777256Y-106394260D01*
X102777262Y-106394265D01*
X102969711Y-106541936D01*
X103179788Y-106663224D01*
X103403900Y-106756054D01*
X103638211Y-106818838D01*
X103818586Y-106842584D01*
X103878711Y-106850500D01*
X103878712Y-106850500D01*
X104121289Y-106850500D01*
X104169388Y-106844167D01*
X104361789Y-106818838D01*
X104596100Y-106756054D01*
X104820212Y-106663224D01*
X105030289Y-106541936D01*
X105222738Y-106394265D01*
X105394265Y-106222738D01*
X105541936Y-106030289D01*
X105663224Y-105820212D01*
X105756054Y-105596100D01*
X105818838Y-105361789D01*
X105850500Y-105121288D01*
X105850500Y-104878712D01*
X105850500Y-104878711D01*
X136149500Y-104878711D01*
X136149500Y-105121288D01*
X136181161Y-105361785D01*
X136243947Y-105596104D01*
X136336773Y-105820205D01*
X136336776Y-105820212D01*
X136458064Y-106030289D01*
X136458066Y-106030292D01*
X136458067Y-106030293D01*
X136605733Y-106222736D01*
X136605739Y-106222743D01*
X136777256Y-106394260D01*
X136777262Y-106394265D01*
X136969711Y-106541936D01*
X137179788Y-106663224D01*
X137403900Y-106756054D01*
X137638211Y-106818838D01*
X137818586Y-106842584D01*
X137878711Y-106850500D01*
X137878712Y-106850500D01*
X138121289Y-106850500D01*
X138169388Y-106844167D01*
X138361789Y-106818838D01*
X138596100Y-106756054D01*
X138820212Y-106663224D01*
X139030289Y-106541936D01*
X139222738Y-106394265D01*
X139394265Y-106222738D01*
X139541936Y-106030289D01*
X139663224Y-105820212D01*
X139756054Y-105596100D01*
X139818838Y-105361789D01*
X139850500Y-105121288D01*
X139850500Y-104878712D01*
X139818838Y-104638211D01*
X139756054Y-104403900D01*
X139663224Y-104179788D01*
X139541936Y-103969711D01*
X139394265Y-103777262D01*
X139394260Y-103777256D01*
X139222743Y-103605739D01*
X139222736Y-103605733D01*
X139030293Y-103458067D01*
X139030292Y-103458066D01*
X139030289Y-103458064D01*
X138820212Y-103336776D01*
X138820205Y-103336773D01*
X138596104Y-103243947D01*
X138361785Y-103181161D01*
X138121289Y-103149500D01*
X138121288Y-103149500D01*
X137878712Y-103149500D01*
X137878711Y-103149500D01*
X137638214Y-103181161D01*
X137403895Y-103243947D01*
X137179794Y-103336773D01*
X137179785Y-103336777D01*
X136969706Y-103458067D01*
X136777263Y-103605733D01*
X136777256Y-103605739D01*
X136605739Y-103777256D01*
X136605733Y-103777263D01*
X136458067Y-103969706D01*
X136336777Y-104179785D01*
X136336773Y-104179794D01*
X136243947Y-104403895D01*
X136181161Y-104638214D01*
X136149500Y-104878711D01*
X105850500Y-104878711D01*
X105818838Y-104638211D01*
X105756054Y-104403900D01*
X105663224Y-104179788D01*
X105541936Y-103969711D01*
X105394265Y-103777262D01*
X105394260Y-103777256D01*
X105222743Y-103605739D01*
X105222736Y-103605733D01*
X105030293Y-103458067D01*
X105030292Y-103458066D01*
X105030289Y-103458064D01*
X104820212Y-103336776D01*
X104820205Y-103336773D01*
X104596104Y-103243947D01*
X104361785Y-103181161D01*
X104121289Y-103149500D01*
X104121288Y-103149500D01*
X103878712Y-103149500D01*
X103878711Y-103149500D01*
X103638214Y-103181161D01*
X103403895Y-103243947D01*
X103179794Y-103336773D01*
X103179785Y-103336777D01*
X102969706Y-103458067D01*
X102777263Y-103605733D01*
X102777256Y-103605739D01*
X102605739Y-103777256D01*
X102605733Y-103777263D01*
X102458067Y-103969706D01*
X102336777Y-104179785D01*
X102336773Y-104179794D01*
X102243947Y-104403895D01*
X102181161Y-104638214D01*
X102149500Y-104878711D01*
X100800500Y-104878711D01*
X100800500Y-101924500D01*
X100820185Y-101857461D01*
X100872989Y-101811706D01*
X100924500Y-101800500D01*
X141075500Y-101800500D01*
X141142539Y-101820185D01*
G37*
%TD.AperFunction*%
%TA.AperFunction,Conductor*%
G36*
X120740390Y-124248580D02*
G01*
X120784737Y-124277081D01*
X120980253Y-124472597D01*
X121013738Y-124533920D01*
X121008754Y-124603612D01*
X120980253Y-124647959D01*
X120802062Y-124826150D01*
X120740739Y-124859635D01*
X120671047Y-124854651D01*
X120626700Y-124826150D01*
X120431184Y-124630634D01*
X120397699Y-124569311D01*
X120402683Y-124499619D01*
X120431184Y-124455272D01*
X120609375Y-124277081D01*
X120670698Y-124243596D01*
X120740390Y-124248580D01*
G37*
%TD.AperFunction*%
%TA.AperFunction,Conductor*%
G36*
X121441646Y-119830794D02*
G01*
X121458418Y-119851959D01*
X121526272Y-119959948D01*
X121653746Y-120087422D01*
X121806395Y-120183337D01*
X121812760Y-120185565D01*
X121869536Y-120226287D01*
X121895283Y-120291240D01*
X121881826Y-120359801D01*
X121846731Y-120401409D01*
X121762773Y-120465076D01*
X121756767Y-120472997D01*
X121700573Y-120514519D01*
X121630852Y-120519069D01*
X121569739Y-120485202D01*
X121552971Y-120464041D01*
X121485117Y-120356051D01*
X121357643Y-120228577D01*
X121204993Y-120132661D01*
X121198623Y-120130432D01*
X121141849Y-120089708D01*
X121116106Y-120024754D01*
X121129565Y-119956193D01*
X121164657Y-119914590D01*
X121248617Y-119850922D01*
X121254619Y-119843006D01*
X121310811Y-119801483D01*
X121380532Y-119796930D01*
X121441646Y-119830794D01*
G37*
%TD.AperFunction*%
%TA.AperFunction,Conductor*%
G36*
X137157495Y-110352185D02*
G01*
X137178137Y-110368819D01*
X138463181Y-111653863D01*
X138496666Y-111715186D01*
X138499500Y-111741544D01*
X138499500Y-112051950D01*
X138520831Y-112131559D01*
X138523385Y-112141092D01*
X138523387Y-112141096D01*
X138569527Y-112221013D01*
X138569531Y-112221018D01*
X138951422Y-112602909D01*
X138984907Y-112664232D01*
X138979923Y-112733924D01*
X138974745Y-112745854D01*
X138969419Y-112756550D01*
X138969419Y-112756551D01*
X138913602Y-112952722D01*
X138894785Y-113155804D01*
X138894785Y-113155805D01*
X138913602Y-113358887D01*
X138969417Y-113555052D01*
X138969422Y-113555065D01*
X139060327Y-113737626D01*
X139183237Y-113900386D01*
X139333958Y-114037785D01*
X139333960Y-114037787D01*
X139433141Y-114099197D01*
X139507363Y-114145153D01*
X139697544Y-114218829D01*
X139898024Y-114256305D01*
X139898026Y-114256305D01*
X140101974Y-114256305D01*
X140101976Y-114256305D01*
X140302456Y-114218829D01*
X140492637Y-114145153D01*
X140666041Y-114037786D01*
X140816764Y-113900384D01*
X140939673Y-113737626D01*
X140964500Y-113687767D01*
X141012002Y-113636530D01*
X141079665Y-113619108D01*
X141146006Y-113641033D01*
X141189961Y-113695344D01*
X141199500Y-113743038D01*
X141199500Y-115108571D01*
X141179815Y-115175610D01*
X141127011Y-115221365D01*
X141057853Y-115231309D01*
X140994297Y-115202284D01*
X140964500Y-115163843D01*
X140954839Y-115144441D01*
X140939673Y-115113984D01*
X140822764Y-114959171D01*
X140816762Y-114951223D01*
X140666041Y-114813824D01*
X140666039Y-114813822D01*
X140492642Y-114706460D01*
X140492635Y-114706456D01*
X140384808Y-114664684D01*
X140302456Y-114632781D01*
X140101976Y-114595305D01*
X139898024Y-114595305D01*
X139697544Y-114632781D01*
X139697541Y-114632781D01*
X139697541Y-114632782D01*
X139507364Y-114706456D01*
X139507357Y-114706460D01*
X139333960Y-114813822D01*
X139333958Y-114813824D01*
X139183237Y-114951223D01*
X139060327Y-115113983D01*
X138969422Y-115296544D01*
X138969417Y-115296557D01*
X138913602Y-115492722D01*
X138894785Y-115695804D01*
X138894785Y-115695805D01*
X138913602Y-115898887D01*
X138969598Y-116095687D01*
X138969012Y-116165555D01*
X138938013Y-116217303D01*
X136880637Y-118274681D01*
X136819314Y-118308166D01*
X136792956Y-118311000D01*
X136140395Y-118311000D01*
X136073356Y-118291315D01*
X136059188Y-118280710D01*
X136057632Y-118279362D01*
X136057628Y-118279357D01*
X135936553Y-118201547D01*
X135936551Y-118201546D01*
X135936549Y-118201545D01*
X135936550Y-118201545D01*
X135798463Y-118161000D01*
X135798461Y-118161000D01*
X135654539Y-118161000D01*
X135651500Y-118161000D01*
X135584461Y-118141315D01*
X135538706Y-118088511D01*
X135527500Y-118037000D01*
X135527500Y-114516043D01*
X136255000Y-114516043D01*
X136261065Y-114582792D01*
X136308929Y-114736396D01*
X136392163Y-114874080D01*
X136505919Y-114987836D01*
X136643607Y-115071072D01*
X136643606Y-115071072D01*
X136797197Y-115118932D01*
X136797207Y-115118935D01*
X136829999Y-115121914D01*
X136830000Y-115121914D01*
X137330000Y-115121914D01*
X137362792Y-115118935D01*
X137362802Y-115118932D01*
X137516392Y-115071072D01*
X137654080Y-114987836D01*
X137767836Y-114874080D01*
X137851070Y-114736396D01*
X137898934Y-114582792D01*
X137905000Y-114516043D01*
X137905000Y-113700000D01*
X137330000Y-113700000D01*
X137330000Y-115121914D01*
X136830000Y-115121914D01*
X136830000Y-113700000D01*
X136255000Y-113700000D01*
X136255000Y-114516043D01*
X135527500Y-114516043D01*
X135527500Y-114040858D01*
X135527500Y-114040856D01*
X135503614Y-113951712D01*
X135457470Y-113871788D01*
X135151818Y-113566136D01*
X135118333Y-113504813D01*
X135115499Y-113478455D01*
X135115499Y-112404992D01*
X135112167Y-112383956D01*
X136255000Y-112383956D01*
X136255000Y-113200000D01*
X136830000Y-113200000D01*
X137330000Y-113200000D01*
X137905000Y-113200000D01*
X137905000Y-112383956D01*
X137898934Y-112317207D01*
X137851070Y-112163603D01*
X137767836Y-112025919D01*
X137654080Y-111912163D01*
X137516396Y-111828929D01*
X137362794Y-111781066D01*
X137330000Y-111778085D01*
X137330000Y-113200000D01*
X136830000Y-113200000D01*
X136830000Y-111778085D01*
X136829999Y-111778085D01*
X136797205Y-111781066D01*
X136643603Y-111828929D01*
X136505919Y-111912163D01*
X136392163Y-112025919D01*
X136308929Y-112163603D01*
X136261065Y-112317207D01*
X136255000Y-112383956D01*
X135112167Y-112383956D01*
X135100182Y-112308286D01*
X135100182Y-112308285D01*
X135057733Y-112224974D01*
X135044837Y-112156305D01*
X135071113Y-112091564D01*
X135080527Y-112081008D01*
X135579718Y-111581819D01*
X135641041Y-111548334D01*
X135667399Y-111545500D01*
X136107174Y-111545500D01*
X136107190Y-111545499D01*
X136165299Y-111539251D01*
X136296778Y-111490212D01*
X136409116Y-111406116D01*
X136493212Y-111293778D01*
X136542251Y-111162299D01*
X136547250Y-111115805D01*
X136548499Y-111104190D01*
X136548500Y-111104173D01*
X136548500Y-110535826D01*
X136548499Y-110535809D01*
X136541422Y-110469990D01*
X136544781Y-110469628D01*
X136547769Y-110415107D01*
X136588703Y-110358484D01*
X136653752Y-110332980D01*
X136664656Y-110332500D01*
X137090456Y-110332500D01*
X137157495Y-110352185D01*
G37*
%TD.AperFunction*%
%TD*%
M02*
