%TF.GenerationSoftware,KiCad,Pcbnew,8.0.2*%
%TF.CreationDate,2024-09-07T15:44:48+02:00*%
%TF.ProjectId,OS-servoDriver,4f532d73-6572-4766-9f44-72697665722e,rev?*%
%TF.SameCoordinates,Original*%
%TF.FileFunction,Legend,Bot*%
%TF.FilePolarity,Positive*%
%FSLAX46Y46*%
G04 Gerber Fmt 4.6, Leading zero omitted, Abs format (unit mm)*
G04 Created by KiCad (PCBNEW 8.0.2) date 2024-09-07 15:44:48*
%MOMM*%
%LPD*%
G01*
G04 APERTURE LIST*
G04 Aperture macros list*
%AMRoundRect*
0 Rectangle with rounded corners*
0 $1 Rounding radius*
0 $2 $3 $4 $5 $6 $7 $8 $9 X,Y pos of 4 corners*
0 Add a 4 corners polygon primitive as box body*
4,1,4,$2,$3,$4,$5,$6,$7,$8,$9,$2,$3,0*
0 Add four circle primitives for the rounded corners*
1,1,$1+$1,$2,$3*
1,1,$1+$1,$4,$5*
1,1,$1+$1,$6,$7*
1,1,$1+$1,$8,$9*
0 Add four rect primitives between the rounded corners*
20,1,$1+$1,$2,$3,$4,$5,0*
20,1,$1+$1,$4,$5,$6,$7,0*
20,1,$1+$1,$6,$7,$8,$9,0*
20,1,$1+$1,$8,$9,$2,$3,0*%
G04 Aperture macros list end*
%ADD10C,0.150000*%
%ADD11C,0.000000*%
%ADD12O,1.800000X3.600000*%
%ADD13RoundRect,0.250000X0.650000X1.550000X-0.650000X1.550000X-0.650000X-1.550000X0.650000X-1.550000X0*%
%ADD14O,1.700000X1.700000*%
%ADD15R,1.700000X1.700000*%
%ADD16C,3.200000*%
G04 APERTURE END LIST*
D10*
X124288779Y-106810180D02*
X124288779Y-107810180D01*
X124288779Y-107810180D02*
X124526874Y-107810180D01*
X124526874Y-107810180D02*
X124669731Y-107762561D01*
X124669731Y-107762561D02*
X124764969Y-107667323D01*
X124764969Y-107667323D02*
X124812588Y-107572085D01*
X124812588Y-107572085D02*
X124860207Y-107381609D01*
X124860207Y-107381609D02*
X124860207Y-107238752D01*
X124860207Y-107238752D02*
X124812588Y-107048276D01*
X124812588Y-107048276D02*
X124764969Y-106953038D01*
X124764969Y-106953038D02*
X124669731Y-106857800D01*
X124669731Y-106857800D02*
X124526874Y-106810180D01*
X124526874Y-106810180D02*
X124288779Y-106810180D01*
X125860207Y-106905419D02*
X125812588Y-106857800D01*
X125812588Y-106857800D02*
X125669731Y-106810180D01*
X125669731Y-106810180D02*
X125574493Y-106810180D01*
X125574493Y-106810180D02*
X125431636Y-106857800D01*
X125431636Y-106857800D02*
X125336398Y-106953038D01*
X125336398Y-106953038D02*
X125288779Y-107048276D01*
X125288779Y-107048276D02*
X125241160Y-107238752D01*
X125241160Y-107238752D02*
X125241160Y-107381609D01*
X125241160Y-107381609D02*
X125288779Y-107572085D01*
X125288779Y-107572085D02*
X125336398Y-107667323D01*
X125336398Y-107667323D02*
X125431636Y-107762561D01*
X125431636Y-107762561D02*
X125574493Y-107810180D01*
X125574493Y-107810180D02*
X125669731Y-107810180D01*
X125669731Y-107810180D02*
X125812588Y-107762561D01*
X125812588Y-107762561D02*
X125860207Y-107714942D01*
X126860207Y-106905419D02*
X126812588Y-106857800D01*
X126812588Y-106857800D02*
X126669731Y-106810180D01*
X126669731Y-106810180D02*
X126574493Y-106810180D01*
X126574493Y-106810180D02*
X126431636Y-106857800D01*
X126431636Y-106857800D02*
X126336398Y-106953038D01*
X126336398Y-106953038D02*
X126288779Y-107048276D01*
X126288779Y-107048276D02*
X126241160Y-107238752D01*
X126241160Y-107238752D02*
X126241160Y-107381609D01*
X126241160Y-107381609D02*
X126288779Y-107572085D01*
X126288779Y-107572085D02*
X126336398Y-107667323D01*
X126336398Y-107667323D02*
X126431636Y-107762561D01*
X126431636Y-107762561D02*
X126574493Y-107810180D01*
X126574493Y-107810180D02*
X126669731Y-107810180D01*
X126669731Y-107810180D02*
X126812588Y-107762561D01*
X126812588Y-107762561D02*
X126860207Y-107714942D01*
X110969588Y-106429180D02*
X110398160Y-106429180D01*
X110683874Y-106429180D02*
X110683874Y-107429180D01*
X110683874Y-107429180D02*
X110588636Y-107286323D01*
X110588636Y-107286323D02*
X110493398Y-107191085D01*
X110493398Y-107191085D02*
X110398160Y-107143466D01*
X111541017Y-107000609D02*
X111445779Y-107048228D01*
X111445779Y-107048228D02*
X111398160Y-107095847D01*
X111398160Y-107095847D02*
X111350541Y-107191085D01*
X111350541Y-107191085D02*
X111350541Y-107238704D01*
X111350541Y-107238704D02*
X111398160Y-107333942D01*
X111398160Y-107333942D02*
X111445779Y-107381561D01*
X111445779Y-107381561D02*
X111541017Y-107429180D01*
X111541017Y-107429180D02*
X111731493Y-107429180D01*
X111731493Y-107429180D02*
X111826731Y-107381561D01*
X111826731Y-107381561D02*
X111874350Y-107333942D01*
X111874350Y-107333942D02*
X111921969Y-107238704D01*
X111921969Y-107238704D02*
X111921969Y-107191085D01*
X111921969Y-107191085D02*
X111874350Y-107095847D01*
X111874350Y-107095847D02*
X111826731Y-107048228D01*
X111826731Y-107048228D02*
X111731493Y-107000609D01*
X111731493Y-107000609D02*
X111541017Y-107000609D01*
X111541017Y-107000609D02*
X111445779Y-106952990D01*
X111445779Y-106952990D02*
X111398160Y-106905371D01*
X111398160Y-106905371D02*
X111350541Y-106810133D01*
X111350541Y-106810133D02*
X111350541Y-106619657D01*
X111350541Y-106619657D02*
X111398160Y-106524419D01*
X111398160Y-106524419D02*
X111445779Y-106476800D01*
X111445779Y-106476800D02*
X111541017Y-106429180D01*
X111541017Y-106429180D02*
X111731493Y-106429180D01*
X111731493Y-106429180D02*
X111826731Y-106476800D01*
X111826731Y-106476800D02*
X111874350Y-106524419D01*
X111874350Y-106524419D02*
X111921969Y-106619657D01*
X111921969Y-106619657D02*
X111921969Y-106810133D01*
X111921969Y-106810133D02*
X111874350Y-106905371D01*
X111874350Y-106905371D02*
X111826731Y-106952990D01*
X111826731Y-106952990D02*
X111731493Y-107000609D01*
X112207684Y-107429180D02*
X112541017Y-106429180D01*
X112541017Y-106429180D02*
X112874350Y-107429180D01*
X113969589Y-106429180D02*
X113969589Y-107429180D01*
X113969589Y-107429180D02*
X114207684Y-107429180D01*
X114207684Y-107429180D02*
X114350541Y-107381561D01*
X114350541Y-107381561D02*
X114445779Y-107286323D01*
X114445779Y-107286323D02*
X114493398Y-107191085D01*
X114493398Y-107191085D02*
X114541017Y-107000609D01*
X114541017Y-107000609D02*
X114541017Y-106857752D01*
X114541017Y-106857752D02*
X114493398Y-106667276D01*
X114493398Y-106667276D02*
X114445779Y-106572038D01*
X114445779Y-106572038D02*
X114350541Y-106476800D01*
X114350541Y-106476800D02*
X114207684Y-106429180D01*
X114207684Y-106429180D02*
X113969589Y-106429180D01*
X115541017Y-106524419D02*
X115493398Y-106476800D01*
X115493398Y-106476800D02*
X115350541Y-106429180D01*
X115350541Y-106429180D02*
X115255303Y-106429180D01*
X115255303Y-106429180D02*
X115112446Y-106476800D01*
X115112446Y-106476800D02*
X115017208Y-106572038D01*
X115017208Y-106572038D02*
X114969589Y-106667276D01*
X114969589Y-106667276D02*
X114921970Y-106857752D01*
X114921970Y-106857752D02*
X114921970Y-107000609D01*
X114921970Y-107000609D02*
X114969589Y-107191085D01*
X114969589Y-107191085D02*
X115017208Y-107286323D01*
X115017208Y-107286323D02*
X115112446Y-107381561D01*
X115112446Y-107381561D02*
X115255303Y-107429180D01*
X115255303Y-107429180D02*
X115350541Y-107429180D01*
X115350541Y-107429180D02*
X115493398Y-107381561D01*
X115493398Y-107381561D02*
X115541017Y-107333942D01*
X116683874Y-107476800D02*
X115826732Y-106191085D01*
X117017208Y-106429180D02*
X117017208Y-107429180D01*
X117017208Y-107429180D02*
X117255303Y-107429180D01*
X117255303Y-107429180D02*
X117398160Y-107381561D01*
X117398160Y-107381561D02*
X117493398Y-107286323D01*
X117493398Y-107286323D02*
X117541017Y-107191085D01*
X117541017Y-107191085D02*
X117588636Y-107000609D01*
X117588636Y-107000609D02*
X117588636Y-106857752D01*
X117588636Y-106857752D02*
X117541017Y-106667276D01*
X117541017Y-106667276D02*
X117493398Y-106572038D01*
X117493398Y-106572038D02*
X117398160Y-106476800D01*
X117398160Y-106476800D02*
X117255303Y-106429180D01*
X117255303Y-106429180D02*
X117017208Y-106429180D01*
X118588636Y-106524419D02*
X118541017Y-106476800D01*
X118541017Y-106476800D02*
X118398160Y-106429180D01*
X118398160Y-106429180D02*
X118302922Y-106429180D01*
X118302922Y-106429180D02*
X118160065Y-106476800D01*
X118160065Y-106476800D02*
X118064827Y-106572038D01*
X118064827Y-106572038D02*
X118017208Y-106667276D01*
X118017208Y-106667276D02*
X117969589Y-106857752D01*
X117969589Y-106857752D02*
X117969589Y-107000609D01*
X117969589Y-107000609D02*
X118017208Y-107191085D01*
X118017208Y-107191085D02*
X118064827Y-107286323D01*
X118064827Y-107286323D02*
X118160065Y-107381561D01*
X118160065Y-107381561D02*
X118302922Y-107429180D01*
X118302922Y-107429180D02*
X118398160Y-107429180D01*
X118398160Y-107429180D02*
X118541017Y-107381561D01*
X118541017Y-107381561D02*
X118588636Y-107333942D01*
X119588636Y-106524419D02*
X119541017Y-106476800D01*
X119541017Y-106476800D02*
X119398160Y-106429180D01*
X119398160Y-106429180D02*
X119302922Y-106429180D01*
X119302922Y-106429180D02*
X119160065Y-106476800D01*
X119160065Y-106476800D02*
X119064827Y-106572038D01*
X119064827Y-106572038D02*
X119017208Y-106667276D01*
X119017208Y-106667276D02*
X118969589Y-106857752D01*
X118969589Y-106857752D02*
X118969589Y-107000609D01*
X118969589Y-107000609D02*
X119017208Y-107191085D01*
X119017208Y-107191085D02*
X119064827Y-107286323D01*
X119064827Y-107286323D02*
X119160065Y-107381561D01*
X119160065Y-107381561D02*
X119302922Y-107429180D01*
X119302922Y-107429180D02*
X119398160Y-107429180D01*
X119398160Y-107429180D02*
X119541017Y-107381561D01*
X119541017Y-107381561D02*
X119588636Y-107333942D01*
D11*
%TO.C,G\u002A\u002A\u002A*%
G36*
X119937643Y-117154200D02*
G01*
X119776679Y-117154200D01*
X119776679Y-116413769D01*
X119937643Y-116413769D01*
X119937643Y-117154200D01*
G37*
G36*
X123028137Y-117154200D02*
G01*
X122867174Y-117154200D01*
X122867174Y-116413769D01*
X123028137Y-116413769D01*
X123028137Y-117154200D01*
G37*
G36*
X119900562Y-116154361D02*
G01*
X119931833Y-116212565D01*
X119933714Y-116229786D01*
X119920546Y-116273959D01*
X119861300Y-116284999D01*
X119807002Y-116279300D01*
X119758463Y-116243248D01*
X119764576Y-116173528D01*
X119788557Y-116141565D01*
X119844317Y-116128714D01*
X119900562Y-116154361D01*
G37*
G36*
X122991057Y-116154361D02*
G01*
X123022328Y-116212565D01*
X123024208Y-116229786D01*
X123011040Y-116273959D01*
X122951794Y-116284999D01*
X122897497Y-116279300D01*
X122848957Y-116243248D01*
X122855070Y-116173528D01*
X122879051Y-116141565D01*
X122934811Y-116128714D01*
X122991057Y-116154361D01*
G37*
G36*
X121802697Y-116682845D02*
G01*
X121873403Y-116709919D01*
X121901394Y-116752406D01*
X121899883Y-116762965D01*
X121874379Y-116785353D01*
X121808268Y-116796841D01*
X121689781Y-116800081D01*
X121590351Y-116798672D01*
X121520453Y-116791260D01*
X121490951Y-116774166D01*
X121488845Y-116743744D01*
X121490713Y-116737014D01*
X121533283Y-116698266D01*
X121612737Y-116676600D01*
X121709175Y-116671599D01*
X121802697Y-116682845D01*
G37*
G36*
X124348035Y-117154200D02*
G01*
X124267554Y-117154200D01*
X124242154Y-117153549D01*
X124210963Y-117143539D01*
X124194538Y-117110440D01*
X124188151Y-117040488D01*
X124187072Y-116919919D01*
X124186820Y-116887100D01*
X124174100Y-116726385D01*
X124139695Y-116619818D01*
X124080170Y-116560752D01*
X123992091Y-116542540D01*
X123970283Y-116542013D01*
X123912873Y-116525633D01*
X123897338Y-116478155D01*
X123904379Y-116450259D01*
X123952967Y-116417074D01*
X124032476Y-116415196D01*
X124124803Y-116447095D01*
X124167366Y-116463977D01*
X124187072Y-116447095D01*
X124207060Y-116425174D01*
X124267554Y-116413769D01*
X124348035Y-116413769D01*
X124348035Y-117154200D01*
G37*
G36*
X124913250Y-116124161D02*
G01*
X125051928Y-116125892D01*
X125140901Y-116130863D01*
X125190335Y-116140589D01*
X125210399Y-116156588D01*
X125211260Y-116180373D01*
X125198923Y-116207105D01*
X125148526Y-116233408D01*
X125047936Y-116246522D01*
X124895310Y-116256334D01*
X124895310Y-117154200D01*
X124734347Y-117154200D01*
X124734347Y-116252806D01*
X124589480Y-116252806D01*
X124579073Y-116252782D01*
X124493451Y-116247683D01*
X124454092Y-116228657D01*
X124444613Y-116188421D01*
X124446076Y-116169024D01*
X124458582Y-116148129D01*
X124492918Y-116134945D01*
X124559722Y-116127709D01*
X124669632Y-116124660D01*
X124833286Y-116124036D01*
X124913250Y-116124161D01*
G37*
G36*
X117767443Y-116428527D02*
G01*
X117871074Y-116489042D01*
X117936761Y-116599108D01*
X117967213Y-116761733D01*
X117972723Y-116870215D01*
X117965240Y-116942703D01*
X117937730Y-116996957D01*
X117883565Y-117056323D01*
X117849476Y-117088169D01*
X117763070Y-117140144D01*
X117658007Y-117154200D01*
X117556735Y-117140981D01*
X117465331Y-117100764D01*
X117410377Y-117043108D01*
X117405822Y-116977773D01*
X117417453Y-116950932D01*
X117440884Y-116938129D01*
X117486159Y-116972759D01*
X117487143Y-116973642D01*
X117576839Y-117017772D01*
X117678361Y-117018246D01*
X117762339Y-116974841D01*
X117772905Y-116962043D01*
X117803926Y-116879032D01*
X117812505Y-116770878D01*
X117798643Y-116666078D01*
X117762339Y-116593129D01*
X117761462Y-116592260D01*
X117677057Y-116549442D01*
X117575499Y-116550500D01*
X117486159Y-116595211D01*
X117457801Y-116619557D01*
X117427105Y-116628981D01*
X117405822Y-116590197D01*
X117407209Y-116532548D01*
X117456895Y-116473368D01*
X117543854Y-116430371D01*
X117653736Y-116413769D01*
X117767443Y-116428527D01*
G37*
G36*
X120439433Y-116428527D02*
G01*
X120543064Y-116489042D01*
X120608751Y-116599108D01*
X120639202Y-116761733D01*
X120644713Y-116870215D01*
X120637230Y-116942703D01*
X120609720Y-116996957D01*
X120555554Y-117056323D01*
X120521466Y-117088169D01*
X120435060Y-117140144D01*
X120329997Y-117154200D01*
X120228725Y-117140981D01*
X120137321Y-117100764D01*
X120082367Y-117043108D01*
X120077812Y-116977773D01*
X120089442Y-116950932D01*
X120112874Y-116938129D01*
X120158149Y-116972759D01*
X120159132Y-116973642D01*
X120248829Y-117017772D01*
X120350351Y-117018246D01*
X120434329Y-116974841D01*
X120437808Y-116971116D01*
X120472068Y-116895813D01*
X120484918Y-116783985D01*
X120484829Y-116774249D01*
X120470026Y-116664454D01*
X120434329Y-116593129D01*
X120433452Y-116592260D01*
X120349046Y-116549442D01*
X120247489Y-116550500D01*
X120158149Y-116595211D01*
X120129791Y-116619557D01*
X120099095Y-116628981D01*
X120077812Y-116590197D01*
X120079199Y-116532548D01*
X120128885Y-116473368D01*
X120215844Y-116430371D01*
X120325726Y-116413769D01*
X120439433Y-116428527D01*
G37*
G36*
X121155545Y-116135551D02*
G01*
X121275050Y-116185279D01*
X121353625Y-116264715D01*
X121385703Y-116363357D01*
X121365715Y-116470707D01*
X121288095Y-116576264D01*
X121269912Y-116592568D01*
X121188092Y-116653866D01*
X121119083Y-116689566D01*
X121089151Y-116700271D01*
X120997182Y-116759964D01*
X120944659Y-116838595D01*
X120938147Y-116921370D01*
X120984212Y-116993493D01*
X120994171Y-117000264D01*
X121075009Y-117018002D01*
X121197064Y-117009359D01*
X121346071Y-116975064D01*
X121394108Y-116971068D01*
X121419312Y-116998510D01*
X121403630Y-117048052D01*
X121346956Y-117104086D01*
X121274362Y-117135597D01*
X121150995Y-117152193D01*
X121018443Y-117142535D01*
X120904505Y-117106471D01*
X120835918Y-117051535D01*
X120776175Y-116949564D01*
X120757510Y-116847135D01*
X120783286Y-116747193D01*
X120863892Y-116658305D01*
X121004028Y-116572699D01*
X121081544Y-116529443D01*
X121180966Y-116449245D01*
X121218040Y-116372183D01*
X121191874Y-116299550D01*
X121189325Y-116296703D01*
X121130866Y-116266818D01*
X121047363Y-116253888D01*
X120967389Y-116259439D01*
X120919518Y-116284999D01*
X120878666Y-116315789D01*
X120829818Y-116304914D01*
X120806844Y-116253939D01*
X120806846Y-116253335D01*
X120836524Y-116184240D01*
X120919550Y-116139771D01*
X121048289Y-116124036D01*
X121155545Y-116135551D01*
G37*
G36*
X123831800Y-116933537D02*
G01*
X123817997Y-117029657D01*
X123763052Y-117102932D01*
X123715337Y-117125617D01*
X123611055Y-117143821D01*
X123454320Y-117147021D01*
X123215488Y-117142149D01*
X123224949Y-116886009D01*
X123382256Y-116886009D01*
X123387663Y-116923033D01*
X123420887Y-116986799D01*
X123462907Y-117012034D01*
X123541587Y-117024708D01*
X123617211Y-117011887D01*
X123661178Y-116974977D01*
X123663371Y-116917434D01*
X123611613Y-116872669D01*
X123500200Y-116842989D01*
X123429399Y-116834870D01*
X123391113Y-116846273D01*
X123382256Y-116886009D01*
X123224949Y-116886009D01*
X123226439Y-116845661D01*
X123229750Y-116772881D01*
X123245189Y-116618138D01*
X123275297Y-116514404D01*
X123326525Y-116452130D01*
X123405320Y-116421768D01*
X123518132Y-116413769D01*
X123553023Y-116414364D01*
X123685633Y-116431257D01*
X123770723Y-116469209D01*
X123800760Y-116525250D01*
X123800575Y-116529278D01*
X123782746Y-116552184D01*
X123726931Y-116558973D01*
X123620538Y-116551480D01*
X123522247Y-116544689D01*
X123448450Y-116551964D01*
X123411779Y-116577951D01*
X123389171Y-116624663D01*
X123390730Y-116681832D01*
X123438593Y-116703683D01*
X123500848Y-116709723D01*
X123611053Y-116736717D01*
X123714915Y-116776608D01*
X123783578Y-116819690D01*
X123802410Y-116842887D01*
X123826579Y-116917434D01*
X123831800Y-116933537D01*
G37*
G36*
X117285062Y-116684000D02*
G01*
X117289043Y-116855890D01*
X117284990Y-116886586D01*
X117251673Y-116999779D01*
X117186543Y-117080705D01*
X117173593Y-117090820D01*
X117085060Y-117131354D01*
X116974826Y-117151154D01*
X116859745Y-117151338D01*
X116756676Y-117133024D01*
X116682473Y-117097331D01*
X116653992Y-117045376D01*
X116654595Y-117038067D01*
X116674625Y-117016300D01*
X116732476Y-117009706D01*
X116840940Y-117016295D01*
X116916509Y-117020072D01*
X117040577Y-117003168D01*
X117113215Y-116950960D01*
X117136882Y-116862167D01*
X117136110Y-116847882D01*
X117123383Y-116822313D01*
X117084931Y-116807892D01*
X117007877Y-116801517D01*
X116879341Y-116800081D01*
X116621800Y-116800081D01*
X116621800Y-116701027D01*
X116633096Y-116645557D01*
X116782763Y-116645557D01*
X116798534Y-116656152D01*
X116862846Y-116667076D01*
X116959822Y-116671311D01*
X117032663Y-116669017D01*
X117107767Y-116659662D01*
X117136882Y-116645557D01*
X117119398Y-116602073D01*
X117054491Y-116559306D01*
X116959822Y-116542540D01*
X116885085Y-116552712D01*
X116811579Y-116590477D01*
X116782763Y-116645557D01*
X116633096Y-116645557D01*
X116639427Y-116614471D01*
X116706589Y-116513669D01*
X116808043Y-116441419D01*
X116926752Y-116413769D01*
X116991651Y-116417482D01*
X117133413Y-116461192D01*
X117232201Y-116551233D01*
X117269756Y-116645557D01*
X117285062Y-116684000D01*
G37*
G36*
X118730632Y-116414988D02*
G01*
X118754082Y-116425787D01*
X118768311Y-116457124D01*
X118775622Y-116519962D01*
X118778320Y-116625262D01*
X118778707Y-116783985D01*
X118778707Y-117154200D01*
X118698226Y-117154200D01*
X118664899Y-117152724D01*
X118638045Y-117139601D01*
X118624001Y-117101642D01*
X118618617Y-117025664D01*
X118617744Y-116898485D01*
X118617648Y-116859304D01*
X118614459Y-116742262D01*
X118603981Y-116669461D01*
X118582472Y-116624920D01*
X118546196Y-116592654D01*
X118528838Y-116581399D01*
X118439310Y-116547399D01*
X118361414Y-116551444D01*
X118315358Y-116593462D01*
X118313401Y-116599840D01*
X118304470Y-116665366D01*
X118298190Y-116771739D01*
X118295817Y-116899292D01*
X118295363Y-117004007D01*
X118291258Y-117089522D01*
X118279330Y-117134257D01*
X118255413Y-117151415D01*
X118215336Y-117154200D01*
X118210166Y-117154194D01*
X118173666Y-117150987D01*
X118151405Y-117133328D01*
X118139863Y-117088734D01*
X118135520Y-117004722D01*
X118134854Y-116868808D01*
X118140764Y-116704568D01*
X118164825Y-116566150D01*
X118211329Y-116476519D01*
X118284433Y-116428213D01*
X118388293Y-116413769D01*
X118402737Y-116414050D01*
X118491895Y-116427219D01*
X118550944Y-116454010D01*
X118586858Y-116478107D01*
X118608354Y-116454010D01*
X118635439Y-116428507D01*
X118700908Y-116413769D01*
X118730632Y-116414988D01*
G37*
G36*
X119602933Y-116684000D02*
G01*
X119606913Y-116855890D01*
X119602861Y-116886586D01*
X119569544Y-116999779D01*
X119504414Y-117080705D01*
X119491464Y-117090820D01*
X119402931Y-117131354D01*
X119292696Y-117151154D01*
X119177616Y-117151338D01*
X119074546Y-117133024D01*
X119000343Y-117097331D01*
X118971863Y-117045376D01*
X118972465Y-117038067D01*
X118992496Y-117016300D01*
X119050347Y-117009706D01*
X119158811Y-117016295D01*
X119234380Y-117020072D01*
X119358448Y-117003168D01*
X119431086Y-116950960D01*
X119454753Y-116862167D01*
X119453980Y-116847882D01*
X119441254Y-116822313D01*
X119402802Y-116807892D01*
X119325747Y-116801517D01*
X119197212Y-116800081D01*
X118939670Y-116800081D01*
X118939670Y-116701027D01*
X118950967Y-116645557D01*
X119100634Y-116645557D01*
X119116405Y-116656152D01*
X119180717Y-116667076D01*
X119277693Y-116671311D01*
X119350534Y-116669017D01*
X119425637Y-116659662D01*
X119454753Y-116645557D01*
X119437269Y-116602073D01*
X119372361Y-116559306D01*
X119277693Y-116542540D01*
X119202956Y-116552712D01*
X119129450Y-116590477D01*
X119100634Y-116645557D01*
X118950967Y-116645557D01*
X118957298Y-116614471D01*
X119024460Y-116513669D01*
X119125914Y-116441419D01*
X119244623Y-116413769D01*
X119309522Y-116417482D01*
X119451284Y-116461192D01*
X119550072Y-116551233D01*
X119587627Y-116645557D01*
X119602933Y-116684000D01*
G37*
G36*
X122625943Y-116414988D02*
G01*
X122649392Y-116425787D01*
X122663621Y-116457124D01*
X122670933Y-116519962D01*
X122673630Y-116625262D01*
X122674018Y-116783985D01*
X122674018Y-117154200D01*
X122593536Y-117154200D01*
X122560209Y-117152724D01*
X122533355Y-117139601D01*
X122519311Y-117101642D01*
X122513927Y-117025664D01*
X122513054Y-116898485D01*
X122512958Y-116859304D01*
X122509770Y-116742262D01*
X122499291Y-116669461D01*
X122477783Y-116624920D01*
X122441506Y-116592654D01*
X122424149Y-116581399D01*
X122334620Y-116547399D01*
X122256725Y-116551444D01*
X122210669Y-116593462D01*
X122208712Y-116599840D01*
X122199781Y-116665366D01*
X122193501Y-116771739D01*
X122191128Y-116899292D01*
X122190674Y-117004007D01*
X122186568Y-117089522D01*
X122174641Y-117134257D01*
X122150723Y-117151415D01*
X122110646Y-117154200D01*
X122105476Y-117154194D01*
X122068976Y-117150987D01*
X122046716Y-117133328D01*
X122035174Y-117088734D01*
X122030830Y-117004722D01*
X122030165Y-116868808D01*
X122036075Y-116704568D01*
X122060135Y-116566150D01*
X122106639Y-116476519D01*
X122179743Y-116428213D01*
X122283604Y-116413769D01*
X122298048Y-116414050D01*
X122387205Y-116427219D01*
X122446255Y-116454010D01*
X122482168Y-116478107D01*
X122503665Y-116454010D01*
X122530750Y-116428507D01*
X122596219Y-116413769D01*
X122625943Y-116414988D01*
G37*
G36*
X120865584Y-109386055D02*
G01*
X120972767Y-109408861D01*
X121073350Y-109432620D01*
X121190498Y-109458490D01*
X121273637Y-109474793D01*
X121395236Y-109496750D01*
X121533330Y-109529223D01*
X121620583Y-109562145D01*
X121651770Y-109582406D01*
X121659596Y-109615893D01*
X121630486Y-109679058D01*
X121600421Y-109738127D01*
X121554304Y-109834113D01*
X121500888Y-109948502D01*
X121447168Y-110065987D01*
X121400137Y-110171260D01*
X121366789Y-110249014D01*
X121354119Y-110283939D01*
X121363380Y-110291074D01*
X121412351Y-110297166D01*
X121452176Y-110303492D01*
X121525165Y-110337407D01*
X121540994Y-110349772D01*
X121561542Y-110379801D01*
X121553917Y-110425076D01*
X121517132Y-110506418D01*
X121477393Y-110590681D01*
X121428778Y-110697347D01*
X121378601Y-110809885D01*
X121333966Y-110912197D01*
X121301976Y-110988185D01*
X121289734Y-111021752D01*
X121302087Y-111029883D01*
X121353957Y-111046882D01*
X121370712Y-111051961D01*
X121419591Y-111085444D01*
X121432862Y-111145132D01*
X121410483Y-111240145D01*
X121352412Y-111379598D01*
X121293724Y-111507375D01*
X121235959Y-111633942D01*
X121192615Y-111729739D01*
X121151819Y-111820386D01*
X121094889Y-111946417D01*
X121036281Y-112075810D01*
X120987947Y-112175317D01*
X120931388Y-112265226D01*
X120889957Y-112292590D01*
X120863601Y-112257388D01*
X120852268Y-112159598D01*
X120855906Y-111999196D01*
X120859886Y-111929403D01*
X120868180Y-111780500D01*
X120877639Y-111607671D01*
X120886896Y-111435771D01*
X120906005Y-111077418D01*
X120821617Y-111056238D01*
X120816672Y-111054961D01*
X120776504Y-111037997D01*
X120755203Y-111005791D01*
X120751919Y-110946527D01*
X120765804Y-110848393D01*
X120796010Y-110699574D01*
X120800827Y-110676954D01*
X120830958Y-110525284D01*
X120844833Y-110422164D01*
X120842154Y-110355271D01*
X120822626Y-110312286D01*
X120785953Y-110280888D01*
X120783111Y-110279021D01*
X120753176Y-110256265D01*
X120733207Y-110227066D01*
X120721580Y-110179841D01*
X120716670Y-110103007D01*
X120716853Y-109984980D01*
X120720506Y-109814178D01*
X120721185Y-109787545D01*
X120726677Y-109633056D01*
X120733793Y-109504829D01*
X120741688Y-109415569D01*
X120749518Y-109377982D01*
X120784913Y-109375110D01*
X120865584Y-109386055D01*
G37*
G36*
X124081719Y-109159184D02*
G01*
X124002787Y-109308073D01*
X123897520Y-109500575D01*
X123764981Y-109738366D01*
X123604234Y-110023123D01*
X123414343Y-110356524D01*
X123194371Y-110740245D01*
X122943382Y-111175962D01*
X122660439Y-111665354D01*
X122611932Y-111749120D01*
X122395243Y-112123143D01*
X122187855Y-112480831D01*
X121992060Y-112818244D01*
X121810153Y-113131441D01*
X121644426Y-113416482D01*
X121497173Y-113669428D01*
X121370688Y-113886339D01*
X121267262Y-114063274D01*
X121189191Y-114196294D01*
X121138767Y-114281458D01*
X121118283Y-114314827D01*
X121078828Y-114339333D01*
X121004969Y-114347019D01*
X120995686Y-114344271D01*
X120975663Y-114330318D01*
X120948629Y-114301943D01*
X120912638Y-114255973D01*
X120865739Y-114189233D01*
X120805986Y-114098552D01*
X120731428Y-113980755D01*
X120640119Y-113832670D01*
X120530109Y-113651124D01*
X120399450Y-113432942D01*
X120246193Y-113174953D01*
X120068390Y-112873982D01*
X119864093Y-112526857D01*
X119631353Y-112130404D01*
X119368222Y-111681450D01*
X119119297Y-111255970D01*
X118858813Y-110809321D01*
X118629789Y-110414872D01*
X118431313Y-110071011D01*
X118262474Y-109776128D01*
X118122359Y-109528610D01*
X118010059Y-109326845D01*
X117924661Y-109169220D01*
X117900356Y-109122134D01*
X118170753Y-109122134D01*
X119578654Y-111527177D01*
X119748203Y-111816713D01*
X119952368Y-112165092D01*
X120145448Y-112494265D01*
X120325065Y-112800190D01*
X120488839Y-113078826D01*
X120634391Y-113326130D01*
X120759342Y-113538061D01*
X120861313Y-113710577D01*
X120937924Y-113839637D01*
X120986797Y-113921197D01*
X121005551Y-113951218D01*
X121019109Y-113934326D01*
X121062889Y-113866149D01*
X121134496Y-113749481D01*
X121231586Y-113588287D01*
X121351814Y-113386530D01*
X121492836Y-113148174D01*
X121652308Y-112877185D01*
X121827885Y-112577526D01*
X122017222Y-112253162D01*
X122217976Y-111908056D01*
X122427803Y-111546175D01*
X123831057Y-109122134D01*
X122415529Y-109113751D01*
X122123334Y-109112322D01*
X121712992Y-109111062D01*
X121272337Y-109110402D01*
X120820309Y-109110341D01*
X120375847Y-109110879D01*
X119957890Y-109112016D01*
X119585377Y-109113751D01*
X118170753Y-109122134D01*
X117900356Y-109122134D01*
X117865252Y-109054125D01*
X117830923Y-108979948D01*
X117820761Y-108945075D01*
X117829024Y-108864593D01*
X124170976Y-108864593D01*
X124170640Y-108961171D01*
X124164325Y-108985537D01*
X124135253Y-109052231D01*
X124100264Y-109122134D01*
X124081719Y-109159184D01*
G37*
G36*
X125409319Y-108553634D02*
G01*
X125340391Y-108677603D01*
X125253544Y-108830190D01*
X125147239Y-109014043D01*
X125019940Y-109231812D01*
X124870107Y-109486146D01*
X124696204Y-109779693D01*
X124496692Y-110115103D01*
X124270035Y-110495024D01*
X124014693Y-110922106D01*
X123729130Y-111398996D01*
X123411808Y-111928344D01*
X123348249Y-112034324D01*
X123084652Y-112473804D01*
X122830181Y-112897988D01*
X122586834Y-113303547D01*
X122356611Y-113687155D01*
X122141509Y-114045484D01*
X121943527Y-114375208D01*
X121764662Y-114673000D01*
X121606914Y-114935531D01*
X121472280Y-115159476D01*
X121362758Y-115341508D01*
X121280348Y-115478298D01*
X121227047Y-115566521D01*
X121204854Y-115602849D01*
X121156237Y-115653194D01*
X121073048Y-115667234D01*
X121067308Y-115665830D01*
X121050270Y-115655488D01*
X121027050Y-115633107D01*
X120995962Y-115595991D01*
X120955317Y-115541444D01*
X120903427Y-115466771D01*
X120838606Y-115369274D01*
X120759164Y-115246259D01*
X120663414Y-115095029D01*
X120549668Y-114912888D01*
X120416239Y-114697141D01*
X120261439Y-114445091D01*
X120083579Y-114154044D01*
X119880972Y-113821302D01*
X119651931Y-113444170D01*
X119394766Y-113019951D01*
X119107792Y-112545951D01*
X118789319Y-112019473D01*
X118746932Y-111949373D01*
X118405669Y-111384468D01*
X118097101Y-110872665D01*
X117820308Y-110412404D01*
X117574369Y-110002125D01*
X117358366Y-109640265D01*
X117171377Y-109325265D01*
X117012483Y-109055564D01*
X116880764Y-108829600D01*
X116775299Y-108645813D01*
X116695169Y-108502643D01*
X116682133Y-108478282D01*
X116951267Y-108478282D01*
X118742237Y-111440660D01*
X118951284Y-111786436D01*
X119195156Y-112189804D01*
X119431827Y-112581256D01*
X119658687Y-112956472D01*
X119873125Y-113311135D01*
X120072530Y-113640926D01*
X120254290Y-113941527D01*
X120415795Y-114208620D01*
X120554434Y-114437887D01*
X120667595Y-114625010D01*
X120752669Y-114765669D01*
X120807043Y-114855549D01*
X121080880Y-115308058D01*
X125178624Y-108478282D01*
X123121505Y-108469997D01*
X123040962Y-108469685D01*
X122586510Y-108468298D01*
X122086428Y-108467318D01*
X121556433Y-108466746D01*
X121012241Y-108466581D01*
X120469568Y-108466824D01*
X119944130Y-108467474D01*
X119451644Y-108468532D01*
X119007826Y-108469997D01*
X116951267Y-108478282D01*
X116682133Y-108478282D01*
X116639454Y-108398528D01*
X116607234Y-108331908D01*
X116597588Y-108301222D01*
X116605703Y-108220740D01*
X121055144Y-108212579D01*
X121651718Y-108211499D01*
X122217326Y-108210537D01*
X122724771Y-108209786D01*
X123177236Y-108209284D01*
X123577905Y-108209070D01*
X123929962Y-108209182D01*
X124236592Y-108209657D01*
X124500980Y-108210534D01*
X124726308Y-108211852D01*
X124915762Y-108213648D01*
X125072525Y-108215961D01*
X125199782Y-108218828D01*
X125300717Y-108222288D01*
X125378514Y-108226379D01*
X125436357Y-108231140D01*
X125477430Y-108236608D01*
X125504918Y-108242821D01*
X125522005Y-108249819D01*
X125531875Y-108257638D01*
X125537712Y-108266317D01*
X125538984Y-108270349D01*
X125536588Y-108290961D01*
X125523961Y-108326947D01*
X125499566Y-108380955D01*
X125461864Y-108455635D01*
X125449721Y-108478282D01*
X125409319Y-108553634D01*
G37*
G36*
X112327775Y-138143427D02*
G01*
X112327775Y-138446633D01*
X112024569Y-138446633D01*
X111721363Y-138446633D01*
X111721363Y-138143427D01*
X111721363Y-137840221D01*
X112024569Y-137840221D01*
X112327775Y-137840221D01*
X112327775Y-138143427D01*
G37*
G36*
X114753423Y-133292131D02*
G01*
X114753423Y-134201749D01*
X113843805Y-134201749D01*
X112934187Y-134201749D01*
X112934187Y-133292131D01*
X112934187Y-132382513D01*
X113843805Y-132382513D01*
X114753423Y-132382513D01*
X114753423Y-133292131D01*
G37*
G36*
X114753423Y-138143427D02*
G01*
X114753423Y-138446633D01*
X114450217Y-138446633D01*
X114147011Y-138446633D01*
X114147011Y-138143427D01*
X114147011Y-137840221D01*
X114450217Y-137840221D01*
X114753423Y-137840221D01*
X114753423Y-138143427D01*
G37*
G36*
X115359835Y-139962663D02*
G01*
X115359835Y-140265869D01*
X115056629Y-140265869D01*
X114753423Y-140265869D01*
X114753423Y-139962663D01*
X114753423Y-139659457D01*
X115056629Y-139659457D01*
X115359835Y-139659457D01*
X115359835Y-139962663D01*
G37*
G36*
X115966247Y-144813959D02*
G01*
X115966247Y-145117165D01*
X115663041Y-145117165D01*
X115359835Y-145117165D01*
X115359835Y-144813959D01*
X115359835Y-144510753D01*
X115663041Y-144510753D01*
X115966247Y-144510753D01*
X115966247Y-144813959D01*
G37*
G36*
X116572659Y-138749839D02*
G01*
X116572659Y-139053045D01*
X116269453Y-139053045D01*
X115966247Y-139053045D01*
X115966247Y-138749839D01*
X115966247Y-138446633D01*
X116269453Y-138446633D01*
X116572659Y-138446633D01*
X116572659Y-138749839D01*
G37*
G36*
X119604719Y-131472895D02*
G01*
X119604719Y-131776101D01*
X119301513Y-131776101D01*
X118998307Y-131776101D01*
X118998307Y-131472895D01*
X118998307Y-131169689D01*
X119301513Y-131169689D01*
X119604719Y-131169689D01*
X119604719Y-131472895D01*
G37*
G36*
X119604719Y-144510753D02*
G01*
X119604719Y-145117165D01*
X119301513Y-145117165D01*
X118998307Y-145117165D01*
X118998307Y-144510753D01*
X118998307Y-143904341D01*
X119301513Y-143904341D01*
X119604719Y-143904341D01*
X119604719Y-144510753D01*
G37*
G36*
X120817543Y-135414573D02*
G01*
X120817543Y-136627397D01*
X120514337Y-136627397D01*
X120211131Y-136627397D01*
X120211131Y-135414573D01*
X120211131Y-134201749D01*
X120514337Y-134201749D01*
X120817543Y-134201749D01*
X120817543Y-135414573D01*
G37*
G36*
X121423955Y-131472895D02*
G01*
X121423955Y-131776101D01*
X121120749Y-131776101D01*
X120817543Y-131776101D01*
X120817543Y-131472895D01*
X120817543Y-131169689D01*
X121120749Y-131169689D01*
X121423955Y-131169689D01*
X121423955Y-131472895D01*
G37*
G36*
X122030367Y-135414573D02*
G01*
X122030367Y-136020985D01*
X121727161Y-136020985D01*
X121423955Y-136020985D01*
X121423955Y-135414573D01*
X121423955Y-134808161D01*
X121727161Y-134808161D01*
X122030367Y-134808161D01*
X122030367Y-135414573D01*
G37*
G36*
X122030367Y-137537015D02*
G01*
X122030367Y-137840221D01*
X121727161Y-137840221D01*
X121423955Y-137840221D01*
X121423955Y-137537015D01*
X121423955Y-137233809D01*
X121727161Y-137233809D01*
X122030367Y-137233809D01*
X122030367Y-137537015D01*
G37*
G36*
X122636779Y-136930603D02*
G01*
X122636779Y-137233809D01*
X122333573Y-137233809D01*
X122030367Y-137233809D01*
X122030367Y-136930603D01*
X122030367Y-136627397D01*
X122333573Y-136627397D01*
X122636779Y-136627397D01*
X122636779Y-136930603D01*
G37*
G36*
X123243191Y-141781899D02*
G01*
X123243191Y-142085105D01*
X122939985Y-142085105D01*
X122636779Y-142085105D01*
X122636779Y-141781899D01*
X122636779Y-141478693D01*
X122939985Y-141478693D01*
X123243191Y-141478693D01*
X123243191Y-141781899D01*
G37*
G36*
X124456015Y-131776101D02*
G01*
X124456015Y-132382513D01*
X124152809Y-132382513D01*
X123849603Y-132382513D01*
X123849603Y-131776101D01*
X123849603Y-131169689D01*
X124152809Y-131169689D01*
X124456015Y-131169689D01*
X124456015Y-131776101D01*
G37*
G36*
X128094487Y-133292131D02*
G01*
X128094487Y-134201749D01*
X127184869Y-134201749D01*
X126275251Y-134201749D01*
X126275251Y-133292131D01*
X126275251Y-132382513D01*
X127184869Y-132382513D01*
X128094487Y-132382513D01*
X128094487Y-133292131D01*
G37*
G36*
X128094487Y-146633195D02*
G01*
X128094487Y-147542813D01*
X127184869Y-147542813D01*
X126275251Y-147542813D01*
X126275251Y-146633195D01*
X126275251Y-145723577D01*
X127184869Y-145723577D01*
X128094487Y-145723577D01*
X128094487Y-146633195D01*
G37*
G36*
X129307311Y-142388311D02*
G01*
X129307311Y-142691517D01*
X129004105Y-142691517D01*
X128700899Y-142691517D01*
X128700899Y-142388311D01*
X128700899Y-142085105D01*
X129004105Y-142085105D01*
X129307311Y-142085105D01*
X129307311Y-142388311D01*
G37*
G36*
X123849603Y-140569075D02*
G01*
X123849603Y-140872281D01*
X124152809Y-140872281D01*
X124456015Y-140872281D01*
X124456015Y-141478693D01*
X124456015Y-142085105D01*
X124152809Y-142085105D01*
X123849603Y-142085105D01*
X123849603Y-141781899D01*
X123849603Y-141478693D01*
X123546397Y-141478693D01*
X123243191Y-141478693D01*
X123243191Y-140872281D01*
X123243191Y-140265869D01*
X123546397Y-140265869D01*
X123849603Y-140265869D01*
X123849603Y-140569075D01*
G37*
G36*
X115966247Y-133292131D02*
G01*
X115966247Y-135414573D01*
X113843805Y-135414573D01*
X111721363Y-135414573D01*
X111721363Y-133292131D01*
X111721363Y-131810753D01*
X112362427Y-131810753D01*
X112362427Y-133292131D01*
X112362427Y-134773508D01*
X113843805Y-134773508D01*
X115325183Y-134773508D01*
X115325183Y-133292131D01*
X115325183Y-131810753D01*
X113843805Y-131810753D01*
X112362427Y-131810753D01*
X111721363Y-131810753D01*
X111721363Y-131169689D01*
X113843805Y-131169689D01*
X115966247Y-131169689D01*
X115966247Y-131810753D01*
X115966247Y-133292131D01*
G37*
G36*
X129307311Y-133292131D02*
G01*
X129307311Y-135414573D01*
X127184869Y-135414573D01*
X125062427Y-135414573D01*
X125062427Y-133292131D01*
X125062427Y-131810753D01*
X125703492Y-131810753D01*
X125703492Y-133292131D01*
X125703492Y-134773508D01*
X127184869Y-134773508D01*
X128666247Y-134773508D01*
X128666247Y-133292131D01*
X128666247Y-131810753D01*
X127184869Y-131810753D01*
X125703492Y-131810753D01*
X125062427Y-131810753D01*
X125062427Y-131169689D01*
X127184869Y-131169689D01*
X129307311Y-131169689D01*
X129307311Y-131810753D01*
X129307311Y-133292131D01*
G37*
G36*
X129307311Y-146633195D02*
G01*
X129307311Y-148755637D01*
X127184869Y-148755637D01*
X125062427Y-148755637D01*
X125062427Y-146633195D01*
X125062427Y-145151817D01*
X125703492Y-145151817D01*
X125703492Y-146633195D01*
X125703492Y-148114573D01*
X127184869Y-148114573D01*
X128666247Y-148114573D01*
X128666247Y-146633195D01*
X128666247Y-145151817D01*
X127184869Y-145151817D01*
X125703492Y-145151817D01*
X125062427Y-145151817D01*
X125062427Y-144510753D01*
X127184869Y-144510753D01*
X129307311Y-144510753D01*
X129307311Y-145151817D01*
X129307311Y-146633195D01*
G37*
G36*
X112934187Y-137233809D02*
G01*
X113540599Y-137233809D01*
X113540599Y-137537015D01*
X113540599Y-137840221D01*
X112934187Y-137840221D01*
X112327775Y-137840221D01*
X112327775Y-137537015D01*
X112327775Y-137233809D01*
X112934187Y-137233809D01*
G37*
G36*
X112934187Y-136324191D02*
G01*
X112934187Y-136627397D01*
X112630981Y-136627397D01*
X112327775Y-136627397D01*
X112327775Y-136930603D01*
X112327775Y-137233809D01*
X112024569Y-137233809D01*
X111721363Y-137233809D01*
X111721363Y-136627397D01*
X111721363Y-136020985D01*
X112327775Y-136020985D01*
X112934187Y-136020985D01*
X112934187Y-136324191D01*
G37*
G36*
X128700899Y-140569075D02*
G01*
X128700899Y-141478693D01*
X128397693Y-141478693D01*
X128094487Y-141478693D01*
X128094487Y-142388311D01*
X128094487Y-143297929D01*
X127791281Y-143297929D01*
X127488075Y-143297929D01*
X127488075Y-143601135D01*
X127488075Y-143904341D01*
X126881663Y-143904341D01*
X126275251Y-143904341D01*
X126275251Y-143601135D01*
X126275251Y-143297929D01*
X125972045Y-143297929D01*
X125668839Y-143297929D01*
X125668839Y-143601135D01*
X125668839Y-143904341D01*
X125365633Y-143904341D01*
X125062427Y-143904341D01*
X125062427Y-143601135D01*
X125062427Y-143297929D01*
X124759221Y-143297929D01*
X124456015Y-143297929D01*
X124456015Y-142994723D01*
X124456015Y-142691517D01*
X124759221Y-142691517D01*
X125062427Y-142691517D01*
X125062427Y-142994723D01*
X125062427Y-143297929D01*
X125365633Y-143297929D01*
X125668839Y-143297929D01*
X125668839Y-142994723D01*
X125668839Y-142691517D01*
X125365633Y-142691517D01*
X125062427Y-142691517D01*
X125062427Y-142388311D01*
X125062427Y-142085105D01*
X125668839Y-142085105D01*
X126275251Y-142085105D01*
X126275251Y-142691517D01*
X126275251Y-143297929D01*
X126881663Y-143297929D01*
X127488075Y-143297929D01*
X127488075Y-142994723D01*
X127488075Y-142691517D01*
X127184869Y-142691517D01*
X126881663Y-142691517D01*
X126881663Y-142085105D01*
X126881663Y-141478693D01*
X125972045Y-141478693D01*
X125062427Y-141478693D01*
X125062427Y-141175487D01*
X125062427Y-140872281D01*
X126275251Y-140872281D01*
X127488075Y-140872281D01*
X127488075Y-141175487D01*
X127488075Y-141478693D01*
X127791281Y-141478693D01*
X128094487Y-141478693D01*
X128094487Y-140872281D01*
X128094487Y-140265869D01*
X126578457Y-140265869D01*
X125062427Y-140265869D01*
X125062427Y-139962663D01*
X125062427Y-139659457D01*
X126881663Y-139659457D01*
X128700899Y-139659457D01*
X128700899Y-140569075D01*
G37*
G36*
X128397693Y-143297929D02*
G01*
X128700899Y-143297929D01*
X128700899Y-143601135D01*
X128700899Y-143904341D01*
X128397693Y-143904341D01*
X128094487Y-143904341D01*
X128094487Y-143601135D01*
X128094487Y-143297929D01*
X128397693Y-143297929D01*
G37*
G36*
X119604719Y-134808161D02*
G01*
X119604719Y-135414573D01*
X119604719Y-136627397D01*
X119907925Y-136627397D01*
X120211131Y-136627397D01*
X120211131Y-136930603D01*
X120211131Y-137233809D01*
X119907925Y-137233809D01*
X119604719Y-137233809D01*
X119604719Y-137537015D01*
X119604719Y-137840221D01*
X118998307Y-137840221D01*
X118391895Y-137840221D01*
X118391895Y-138143427D01*
X118391895Y-138446633D01*
X118695101Y-138446633D01*
X118998307Y-138446633D01*
X118998307Y-138749839D01*
X118998307Y-139053045D01*
X118391895Y-139053045D01*
X117785483Y-139053045D01*
X117785483Y-138143427D01*
X117785483Y-137233809D01*
X117179071Y-137233809D01*
X116572659Y-137233809D01*
X116572659Y-137537015D01*
X116572659Y-137840221D01*
X115966247Y-137840221D01*
X115359835Y-137840221D01*
X115359835Y-137537015D01*
X115359835Y-137233809D01*
X114753423Y-137233809D01*
X114147011Y-137233809D01*
X114147011Y-136930603D01*
X114147011Y-136627397D01*
X113843805Y-136627397D01*
X113540599Y-136627397D01*
X113540599Y-136324191D01*
X113540599Y-136020985D01*
X113843805Y-136020985D01*
X114147011Y-136020985D01*
X114147011Y-136324191D01*
X114147011Y-136627397D01*
X114753423Y-136627397D01*
X115359835Y-136627397D01*
X115359835Y-136324191D01*
X115359835Y-136020985D01*
X115663041Y-136020985D01*
X115966247Y-136020985D01*
X115966247Y-136324191D01*
X115966247Y-136627397D01*
X116572659Y-136627397D01*
X117179071Y-136627397D01*
X117179071Y-136324191D01*
X117179071Y-136020985D01*
X117482277Y-136020985D01*
X117785483Y-136020985D01*
X117785483Y-135414573D01*
X117785483Y-134808161D01*
X118391895Y-134808161D01*
X118391895Y-135111367D01*
X118391895Y-135414573D01*
X118695101Y-135414573D01*
X118998307Y-135414573D01*
X118998307Y-135111367D01*
X118998307Y-134808161D01*
X118695101Y-134808161D01*
X118391895Y-134808161D01*
X117785483Y-134808161D01*
X117482277Y-134808161D01*
X117179071Y-134808161D01*
X117179071Y-135111367D01*
X117179071Y-135414573D01*
X116875865Y-135414573D01*
X116572659Y-135414573D01*
X116572659Y-134504955D01*
X116572659Y-133595337D01*
X116875865Y-133595337D01*
X117179071Y-133595337D01*
X117179071Y-133292131D01*
X117179071Y-132988925D01*
X116875865Y-132988925D01*
X116572659Y-132988925D01*
X116572659Y-132079307D01*
X116572659Y-131169689D01*
X117482277Y-131169689D01*
X118391895Y-131169689D01*
X118391895Y-131472895D01*
X118391895Y-131776101D01*
X117785483Y-131776101D01*
X117179071Y-131776101D01*
X117179071Y-132382513D01*
X117179071Y-132988925D01*
X117482277Y-132988925D01*
X117785483Y-132988925D01*
X117785483Y-133595337D01*
X117785483Y-134201749D01*
X118391895Y-134201749D01*
X118998307Y-134201749D01*
X118998307Y-133898543D01*
X118998307Y-133595337D01*
X118695101Y-133595337D01*
X118391895Y-133595337D01*
X118391895Y-133292131D01*
X118391895Y-132988925D01*
X118088689Y-132988925D01*
X117785483Y-132988925D01*
X117785483Y-132685719D01*
X117785483Y-132382513D01*
X118088689Y-132382513D01*
X118391895Y-132382513D01*
X118391895Y-132685719D01*
X118391895Y-132988925D01*
X118695101Y-132988925D01*
X118998307Y-132988925D01*
X118998307Y-132685719D01*
X118998307Y-132382513D01*
X119604719Y-132382513D01*
X120211131Y-132382513D01*
X120211131Y-132079307D01*
X120211131Y-131776101D01*
X120514337Y-131776101D01*
X120817543Y-131776101D01*
X120817543Y-132079307D01*
X120817543Y-132382513D01*
X121423955Y-132382513D01*
X122030367Y-132382513D01*
X122030367Y-131776101D01*
X122030367Y-131169689D01*
X122636779Y-131169689D01*
X123243191Y-131169689D01*
X123243191Y-131472895D01*
X123243191Y-131776101D01*
X122939985Y-131776101D01*
X122636779Y-131776101D01*
X122636779Y-132079307D01*
X122636779Y-132382513D01*
X122939985Y-132382513D01*
X123243191Y-132382513D01*
X123243191Y-132685719D01*
X123243191Y-132988925D01*
X123849603Y-132988925D01*
X124456015Y-132988925D01*
X124456015Y-133292131D01*
X124456015Y-133595337D01*
X123849603Y-133595337D01*
X123243191Y-133595337D01*
X123243191Y-134504955D01*
X123243191Y-135414573D01*
X123546397Y-135414573D01*
X123849603Y-135414573D01*
X123849603Y-135111367D01*
X123849603Y-134808161D01*
X124152809Y-134808161D01*
X124456015Y-134808161D01*
X124456015Y-135414573D01*
X124456015Y-136020985D01*
X124152809Y-136020985D01*
X123849603Y-136020985D01*
X123849603Y-136627397D01*
X123849603Y-137233809D01*
X124152809Y-137233809D01*
X124456015Y-137233809D01*
X124456015Y-137537015D01*
X124456015Y-137840221D01*
X124152809Y-137840221D01*
X123849603Y-137840221D01*
X123849603Y-138143427D01*
X123849603Y-138446633D01*
X125062427Y-138446633D01*
X126275251Y-138446633D01*
X126275251Y-138143427D01*
X126275251Y-137840221D01*
X125668839Y-137840221D01*
X125062427Y-137840221D01*
X125062427Y-137537015D01*
X125062427Y-137233809D01*
X125668839Y-137233809D01*
X126275251Y-137233809D01*
X126275251Y-136930603D01*
X126275251Y-136627397D01*
X125668839Y-136627397D01*
X125062427Y-136627397D01*
X125062427Y-136930603D01*
X125062427Y-137233809D01*
X124759221Y-137233809D01*
X124456015Y-137233809D01*
X124456015Y-136627397D01*
X124456015Y-136020985D01*
X125365633Y-136020985D01*
X126275251Y-136020985D01*
X126275251Y-136324191D01*
X126275251Y-136627397D01*
X126578457Y-136627397D01*
X126881663Y-136627397D01*
X126881663Y-136324191D01*
X126881663Y-136020985D01*
X127488075Y-136020985D01*
X128094487Y-136020985D01*
X128094487Y-136324191D01*
X128094487Y-136627397D01*
X128397693Y-136627397D01*
X128700899Y-136627397D01*
X128700899Y-136324191D01*
X128700899Y-136020985D01*
X129004105Y-136020985D01*
X129307311Y-136020985D01*
X129307311Y-136930603D01*
X129307311Y-137840221D01*
X129004105Y-137840221D01*
X128700899Y-137840221D01*
X128700899Y-137537015D01*
X128700899Y-137233809D01*
X128397693Y-137233809D01*
X128094487Y-137233809D01*
X128094487Y-137537015D01*
X128094487Y-137840221D01*
X127791281Y-137840221D01*
X127488075Y-137840221D01*
X127488075Y-137233809D01*
X127488075Y-136627397D01*
X127184869Y-136627397D01*
X126881663Y-136627397D01*
X126881663Y-137537015D01*
X126881663Y-138446633D01*
X127791281Y-138446633D01*
X128700899Y-138446633D01*
X128700899Y-138749839D01*
X128700899Y-139053045D01*
X126578457Y-139053045D01*
X124456015Y-139053045D01*
X124456015Y-139659457D01*
X124456015Y-140265869D01*
X124152809Y-140265869D01*
X123849603Y-140265869D01*
X123849603Y-139659457D01*
X123849603Y-139053045D01*
X123546397Y-139053045D01*
X123243191Y-139053045D01*
X123243191Y-139356251D01*
X123243191Y-139659457D01*
X122939985Y-139659457D01*
X122636779Y-139659457D01*
X122636779Y-139962663D01*
X122636779Y-140265869D01*
X122030367Y-140265869D01*
X121423955Y-140265869D01*
X121423955Y-139659457D01*
X121423955Y-139356251D01*
X122030367Y-139356251D01*
X122030367Y-139659457D01*
X122333573Y-139659457D01*
X122636779Y-139659457D01*
X122636779Y-139356251D01*
X122636779Y-139053045D01*
X122333573Y-139053045D01*
X122030367Y-139053045D01*
X122030367Y-139356251D01*
X121423955Y-139356251D01*
X121423955Y-139053045D01*
X120817543Y-139053045D01*
X120211131Y-139053045D01*
X120211131Y-139356251D01*
X120211131Y-139659457D01*
X119907925Y-139659457D01*
X119604719Y-139659457D01*
X119604719Y-140265869D01*
X119604719Y-140569075D01*
X119604719Y-141478693D01*
X119907925Y-141478693D01*
X120211131Y-141478693D01*
X120211131Y-141175487D01*
X120211131Y-140872281D01*
X120817543Y-140872281D01*
X121423955Y-140872281D01*
X121423955Y-141175487D01*
X121423955Y-141478693D01*
X120817543Y-141478693D01*
X120211131Y-141478693D01*
X120211131Y-141781899D01*
X120211131Y-142085105D01*
X120817543Y-142085105D01*
X121423955Y-142085105D01*
X121423955Y-141781899D01*
X121423955Y-141478693D01*
X121727161Y-141478693D01*
X122030367Y-141478693D01*
X122030367Y-141781899D01*
X122030367Y-142085105D01*
X121727161Y-142085105D01*
X121423955Y-142085105D01*
X121423955Y-142388311D01*
X121423955Y-142691517D01*
X120817543Y-142691517D01*
X120211131Y-142691517D01*
X120211131Y-142994723D01*
X120211131Y-143297929D01*
X119907925Y-143297929D01*
X119604719Y-143297929D01*
X119604719Y-142388311D01*
X119604719Y-141478693D01*
X119301513Y-141478693D01*
X118998307Y-141478693D01*
X118998307Y-142388311D01*
X118998307Y-143297929D01*
X118695101Y-143297929D01*
X118391895Y-143297929D01*
X118391895Y-143601135D01*
X118391895Y-143904341D01*
X117785483Y-143904341D01*
X117179071Y-143904341D01*
X117179071Y-144207547D01*
X117179071Y-144510753D01*
X117482277Y-144510753D01*
X117785483Y-144510753D01*
X117785483Y-144813959D01*
X117785483Y-145117165D01*
X117482277Y-145117165D01*
X117179071Y-145117165D01*
X117179071Y-145723577D01*
X117179071Y-146329989D01*
X117482277Y-146329989D01*
X117785483Y-146329989D01*
X117785483Y-145723577D01*
X117785483Y-145117165D01*
X118088689Y-145117165D01*
X118391895Y-145117165D01*
X118391895Y-145420371D01*
X118391895Y-145723577D01*
X118695101Y-145723577D01*
X118998307Y-145723577D01*
X118998307Y-146026783D01*
X118998307Y-146329989D01*
X119301513Y-146329989D01*
X119604719Y-146329989D01*
X119604719Y-146026783D01*
X119604719Y-145723577D01*
X120211131Y-145723577D01*
X120817543Y-145723577D01*
X120817543Y-146633195D01*
X120817543Y-147542813D01*
X120514337Y-147542813D01*
X120211131Y-147542813D01*
X120211131Y-147239607D01*
X120211131Y-146936401D01*
X119604719Y-146936401D01*
X118998307Y-146936401D01*
X118998307Y-146633195D01*
X118998307Y-146329989D01*
X118391895Y-146329989D01*
X117785483Y-146329989D01*
X117785483Y-146633195D01*
X117785483Y-146936401D01*
X118088689Y-146936401D01*
X118391895Y-146936401D01*
X118391895Y-147239607D01*
X118391895Y-147542813D01*
X117785483Y-147542813D01*
X117179071Y-147542813D01*
X117179071Y-147846019D01*
X117179071Y-148149225D01*
X118391895Y-148149225D01*
X119604719Y-148149225D01*
X119604719Y-148452431D01*
X119604719Y-148755637D01*
X117482277Y-148755637D01*
X115359835Y-148755637D01*
X115359835Y-148452431D01*
X115359835Y-148149225D01*
X115663041Y-148149225D01*
X115966247Y-148149225D01*
X115966247Y-147846019D01*
X115966247Y-147542813D01*
X116269453Y-147542813D01*
X116572659Y-147542813D01*
X116572659Y-147239607D01*
X116572659Y-146936401D01*
X116269453Y-146936401D01*
X115966247Y-146936401D01*
X115966247Y-146633195D01*
X115966247Y-146329989D01*
X115359835Y-146329989D01*
X114753423Y-146329989D01*
X114753423Y-146633195D01*
X114753423Y-146936401D01*
X114147011Y-146936401D01*
X113540599Y-146936401D01*
X113540599Y-146633195D01*
X113540599Y-146329989D01*
X113843805Y-146329989D01*
X114147011Y-146329989D01*
X114147011Y-146026783D01*
X114147011Y-145723577D01*
X113843805Y-145723577D01*
X113540599Y-145723577D01*
X113540599Y-146026783D01*
X113540599Y-146329989D01*
X112934187Y-146329989D01*
X112327775Y-146329989D01*
X112327775Y-146936401D01*
X112327775Y-147542813D01*
X112630981Y-147542813D01*
X112934187Y-147542813D01*
X112934187Y-147239607D01*
X112934187Y-146936401D01*
X113237393Y-146936401D01*
X113540599Y-146936401D01*
X113540599Y-147239607D01*
X113540599Y-147542813D01*
X113237393Y-147542813D01*
X112934187Y-147542813D01*
X112934187Y-148149225D01*
X112934187Y-148755637D01*
X112630981Y-148755637D01*
X112327775Y-148755637D01*
X112327775Y-148149225D01*
X112327775Y-147542813D01*
X112024569Y-147542813D01*
X111721363Y-147542813D01*
X111721363Y-146329989D01*
X111721363Y-145117165D01*
X112024569Y-145117165D01*
X112327775Y-145117165D01*
X112934187Y-145117165D01*
X112934187Y-145723577D01*
X113237393Y-145723577D01*
X113540599Y-145723577D01*
X113540599Y-145117165D01*
X113540599Y-144510753D01*
X113237393Y-144510753D01*
X112934187Y-144510753D01*
X112934187Y-145117165D01*
X112327775Y-145117165D01*
X112327775Y-144813959D01*
X112327775Y-144510753D01*
X112024569Y-144510753D01*
X111721363Y-144510753D01*
X111721363Y-144207547D01*
X111721363Y-143904341D01*
X112327775Y-143904341D01*
X112934187Y-143904341D01*
X114753423Y-143904341D01*
X114753423Y-144813959D01*
X114753423Y-145723577D01*
X115663041Y-145723577D01*
X116572659Y-145723577D01*
X116572659Y-144813959D01*
X116572659Y-143904341D01*
X115663041Y-143904341D01*
X114753423Y-143904341D01*
X112934187Y-143904341D01*
X112934187Y-142994723D01*
X112934187Y-142085105D01*
X112630981Y-142085105D01*
X112327775Y-142085105D01*
X112327775Y-141175487D01*
X112327775Y-140265869D01*
X112024569Y-140265869D01*
X111721363Y-140265869D01*
X111721363Y-139659457D01*
X111721363Y-139053045D01*
X112327775Y-139053045D01*
X112934187Y-139053045D01*
X112934187Y-138749839D01*
X112934187Y-138446633D01*
X113540599Y-138446633D01*
X114147011Y-138446633D01*
X114147011Y-138749839D01*
X114147011Y-139053045D01*
X113843805Y-139053045D01*
X113540599Y-139053045D01*
X113540599Y-139659457D01*
X113540599Y-140265869D01*
X113237393Y-140265869D01*
X112934187Y-140265869D01*
X112934187Y-140872281D01*
X112934187Y-141478693D01*
X113237393Y-141478693D01*
X113540599Y-141478693D01*
X113540599Y-141175487D01*
X113540599Y-140872281D01*
X113843805Y-140872281D01*
X114147011Y-140872281D01*
X114147011Y-140569075D01*
X114147011Y-140265869D01*
X114450217Y-140265869D01*
X114753423Y-140265869D01*
X114753423Y-140569075D01*
X114753423Y-140872281D01*
X115056629Y-140872281D01*
X115359835Y-140872281D01*
X115359835Y-141478693D01*
X115359835Y-142085105D01*
X115056629Y-142085105D01*
X114753423Y-142085105D01*
X114753423Y-141781899D01*
X114753423Y-141478693D01*
X114450217Y-141478693D01*
X114147011Y-141478693D01*
X114147011Y-141781899D01*
X114147011Y-142085105D01*
X113843805Y-142085105D01*
X113540599Y-142085105D01*
X113540599Y-142691517D01*
X113540599Y-143297929D01*
X114147011Y-143297929D01*
X114753423Y-143297929D01*
X114753423Y-142994723D01*
X114753423Y-142691517D01*
X115359835Y-142691517D01*
X115966247Y-142691517D01*
X116572659Y-142691517D01*
X116572659Y-142994723D01*
X116572659Y-143297929D01*
X117179071Y-143297929D01*
X117785483Y-143297929D01*
X117785483Y-142994723D01*
X117785483Y-142691517D01*
X118088689Y-142691517D01*
X118391895Y-142691517D01*
X118391895Y-142085105D01*
X118391895Y-141478693D01*
X117785483Y-141478693D01*
X117179071Y-141478693D01*
X117179071Y-142085105D01*
X117179071Y-142691517D01*
X116875865Y-142691517D01*
X116572659Y-142691517D01*
X115966247Y-142691517D01*
X115966247Y-141781899D01*
X115966247Y-140872281D01*
X116269453Y-140872281D01*
X116572659Y-140872281D01*
X116572659Y-140569075D01*
X116572659Y-140265869D01*
X116269453Y-140265869D01*
X115966247Y-140265869D01*
X115966247Y-139962663D01*
X115966247Y-139659457D01*
X116269453Y-139659457D01*
X116572659Y-139659457D01*
X116572659Y-139962663D01*
X116572659Y-140265869D01*
X116875865Y-140265869D01*
X117179071Y-140265869D01*
X117785483Y-140265869D01*
X117785483Y-140569075D01*
X117785483Y-140872281D01*
X118391895Y-140872281D01*
X118998307Y-140872281D01*
X118998307Y-140569075D01*
X118998307Y-140265869D01*
X118391895Y-140265869D01*
X117785483Y-140265869D01*
X117179071Y-140265869D01*
X117179071Y-139659457D01*
X117179071Y-139053045D01*
X117482277Y-139053045D01*
X117785483Y-139053045D01*
X117785483Y-139356251D01*
X117785483Y-139659457D01*
X118391895Y-139659457D01*
X118998307Y-139659457D01*
X118998307Y-139356251D01*
X118998307Y-139053045D01*
X119604719Y-139053045D01*
X120211131Y-139053045D01*
X120211131Y-138749839D01*
X120211131Y-138446633D01*
X119907925Y-138446633D01*
X119604719Y-138446633D01*
X119604719Y-138143427D01*
X119604719Y-137840221D01*
X120514337Y-137840221D01*
X121423955Y-137840221D01*
X121423955Y-138143427D01*
X121423955Y-138446633D01*
X122333573Y-138446633D01*
X123243191Y-138446633D01*
X123243191Y-138143427D01*
X123243191Y-137840221D01*
X122939985Y-137840221D01*
X122636779Y-137840221D01*
X122636779Y-137537015D01*
X122636779Y-137233809D01*
X122939985Y-137233809D01*
X123243191Y-137233809D01*
X123243191Y-136324191D01*
X123243191Y-135414573D01*
X122939985Y-135414573D01*
X122636779Y-135414573D01*
X122636779Y-135111367D01*
X122636779Y-134808161D01*
X122333573Y-134808161D01*
X122030367Y-134808161D01*
X122030367Y-134201749D01*
X122030367Y-133595337D01*
X122333573Y-133595337D01*
X122636779Y-133595337D01*
X122636779Y-133292131D01*
X122636779Y-132988925D01*
X122030367Y-132988925D01*
X121423955Y-132988925D01*
X121423955Y-133292131D01*
X121423955Y-133595337D01*
X120817543Y-133595337D01*
X120211131Y-133595337D01*
X120211131Y-133898543D01*
X120211131Y-134201749D01*
X119907925Y-134201749D01*
X119604719Y-134201749D01*
X119604719Y-134808161D01*
G37*
G36*
X114147011Y-147542813D02*
G01*
X114753423Y-147542813D01*
X114753423Y-147846019D01*
X114753423Y-148149225D01*
X114450217Y-148149225D01*
X114147011Y-148149225D01*
X114147011Y-148452431D01*
X114147011Y-148755637D01*
X113843805Y-148755637D01*
X113540599Y-148755637D01*
X113540599Y-148149225D01*
X113540599Y-147542813D01*
X114147011Y-147542813D01*
G37*
G36*
X124456015Y-144813959D02*
G01*
X124456015Y-145723577D01*
X124152809Y-145723577D01*
X123849603Y-145723577D01*
X123849603Y-146026783D01*
X123849603Y-146329989D01*
X123546397Y-146329989D01*
X123243191Y-146329989D01*
X123243191Y-146633195D01*
X123243191Y-146936401D01*
X123546397Y-146936401D01*
X123849603Y-146936401D01*
X123849603Y-146633195D01*
X123849603Y-146329989D01*
X124152809Y-146329989D01*
X124456015Y-146329989D01*
X124456015Y-146936401D01*
X124456015Y-147542813D01*
X124152809Y-147542813D01*
X123849603Y-147542813D01*
X123849603Y-147846019D01*
X123849603Y-148149225D01*
X123546397Y-148149225D01*
X123243191Y-148149225D01*
X123243191Y-148452431D01*
X123243191Y-148755637D01*
X121727161Y-148755637D01*
X120211131Y-148755637D01*
X120211131Y-148452431D01*
X120211131Y-148149225D01*
X120514337Y-148149225D01*
X120817543Y-148149225D01*
X120817543Y-147846019D01*
X120817543Y-147542813D01*
X121120749Y-147542813D01*
X121423955Y-147542813D01*
X121423955Y-147846019D01*
X121423955Y-148149225D01*
X122030367Y-148149225D01*
X122636779Y-148149225D01*
X122636779Y-147239607D01*
X122636779Y-146329989D01*
X122333573Y-146329989D01*
X122030367Y-146329989D01*
X122030367Y-146633195D01*
X122030367Y-146936401D01*
X121727161Y-146936401D01*
X121423955Y-146936401D01*
X121423955Y-146026783D01*
X121423955Y-145117165D01*
X121727161Y-145117165D01*
X122030367Y-145117165D01*
X122030367Y-145420371D01*
X122030367Y-145723577D01*
X122333573Y-145723577D01*
X122636779Y-145723577D01*
X122636779Y-144510753D01*
X123243191Y-144510753D01*
X123243191Y-144813959D01*
X123243191Y-145117165D01*
X123546397Y-145117165D01*
X123849603Y-145117165D01*
X123849603Y-144813959D01*
X123849603Y-144510753D01*
X123546397Y-144510753D01*
X123243191Y-144510753D01*
X122636779Y-144510753D01*
X122636779Y-144207547D01*
X122636779Y-142691517D01*
X123243191Y-142691517D01*
X123849603Y-142691517D01*
X123849603Y-143297929D01*
X123849603Y-143904341D01*
X124152809Y-143904341D01*
X124456015Y-143904341D01*
X124456015Y-144510753D01*
X124456015Y-144813959D01*
G37*
G36*
X124152809Y-148149225D02*
G01*
X124456015Y-148149225D01*
X124456015Y-148452431D01*
X124456015Y-148755637D01*
X124152809Y-148755637D01*
X123849603Y-148755637D01*
X123849603Y-148452431D01*
X123849603Y-148149225D01*
X124152809Y-148149225D01*
G37*
G36*
X115056629Y-146936401D02*
G01*
X115359835Y-146936401D01*
X115359835Y-147239607D01*
X115359835Y-147542813D01*
X115056629Y-147542813D01*
X114753423Y-147542813D01*
X114753423Y-147239607D01*
X114753423Y-146936401D01*
X115056629Y-146936401D01*
G37*
G36*
X121423955Y-143601135D02*
G01*
X121423955Y-143904341D01*
X121727161Y-143904341D01*
X122030367Y-143904341D01*
X122030367Y-144207547D01*
X122030367Y-144510753D01*
X121727161Y-144510753D01*
X121423955Y-144510753D01*
X121423955Y-144813959D01*
X121423955Y-145117165D01*
X121120749Y-145117165D01*
X120817543Y-145117165D01*
X120817543Y-144207547D01*
X120817543Y-143297929D01*
X121120749Y-143297929D01*
X121423955Y-143297929D01*
X121423955Y-143601135D01*
G37*
G36*
X115966247Y-139356251D02*
G01*
X115966247Y-139659457D01*
X115663041Y-139659457D01*
X115359835Y-139659457D01*
X115359835Y-139356251D01*
X115359835Y-139053045D01*
X115663041Y-139053045D01*
X115966247Y-139053045D01*
X115966247Y-139356251D01*
G37*
%TD*%
%LPC*%
D12*
%TO.C,J101*%
X114849000Y-110000000D03*
X118349000Y-110000000D03*
X121849000Y-110000000D03*
D13*
X125349000Y-110000000D03*
%TD*%
D14*
%TO.C,J801*%
X138000000Y-144000000D03*
X138000000Y-146540000D03*
X135460000Y-144000000D03*
X135460000Y-146540000D03*
X132920000Y-144000000D03*
D15*
X132920000Y-146540000D03*
%TD*%
D14*
%TO.C,J1001*%
X102945000Y-136040000D03*
X102945000Y-133500000D03*
X105485000Y-136040000D03*
X105485000Y-133500000D03*
X108025000Y-136040000D03*
D15*
X108025000Y-133500000D03*
%TD*%
D14*
%TO.C,J701*%
X138127000Y-133269000D03*
X138127000Y-135809000D03*
X135587000Y-133269000D03*
X135587000Y-135809000D03*
X133047000Y-133269000D03*
D15*
X133047000Y-135809000D03*
%TD*%
D14*
%TO.C,J901*%
X102945000Y-146540000D03*
X102945000Y-144000000D03*
X105485000Y-146540000D03*
X105485000Y-144000000D03*
X108025000Y-146540000D03*
D15*
X108025000Y-144000000D03*
%TD*%
D14*
%TO.C,J201*%
X140000000Y-123315805D03*
X140000000Y-120775805D03*
X140000000Y-118235805D03*
X140000000Y-115695805D03*
X140000000Y-113155805D03*
D15*
X140000000Y-110615805D03*
%TD*%
D16*
%TO.C,REF\u002A\u002A*%
X104000000Y-105000000D03*
%TD*%
%TO.C,REF\u002A\u002A*%
X138000000Y-105000000D03*
%TD*%
%TO.C,REF\u002A\u002A*%
X138000000Y-172500000D03*
%TD*%
%TO.C,REF\u002A\u002A*%
X104000000Y-172500000D03*
%TD*%
%LPD*%
M02*
