%TF.GenerationSoftware,KiCad,Pcbnew,7.0.7*%
%TF.CreationDate,2024-02-24T14:04:37+01:00*%
%TF.ProjectId,Xnet,586e6574-2e6b-4696-9361-645f70636258,rev?*%
%TF.SameCoordinates,Original*%
%TF.FileFunction,Copper,L2,Bot*%
%TF.FilePolarity,Positive*%
%FSLAX46Y46*%
G04 Gerber Fmt 4.6, Leading zero omitted, Abs format (unit mm)*
G04 Created by KiCad (PCBNEW 7.0.7) date 2024-02-24 14:04:37*
%MOMM*%
%LPD*%
G01*
G04 APERTURE LIST*
%TA.AperFunction,ComponentPad*%
%ADD10C,1.600000*%
%TD*%
%TA.AperFunction,ComponentPad*%
%ADD11C,1.400000*%
%TD*%
%TA.AperFunction,ComponentPad*%
%ADD12O,1.400000X1.400000*%
%TD*%
%TA.AperFunction,ComponentPad*%
%ADD13R,1.700000X1.700000*%
%TD*%
%TA.AperFunction,ComponentPad*%
%ADD14O,1.700000X1.700000*%
%TD*%
%TA.AperFunction,ComponentPad*%
%ADD15R,1.520000X1.520000*%
%TD*%
%TA.AperFunction,ComponentPad*%
%ADD16C,1.520000*%
%TD*%
%TA.AperFunction,ComponentPad*%
%ADD17R,1.600000X1.600000*%
%TD*%
%TA.AperFunction,ComponentPad*%
%ADD18O,1.600000X1.600000*%
%TD*%
%TA.AperFunction,ViaPad*%
%ADD19C,0.800000*%
%TD*%
%TA.AperFunction,Conductor*%
%ADD20C,0.250000*%
%TD*%
G04 APERTURE END LIST*
D10*
%TO.P,C401,1*%
%TO.N,+5V*%
X138750000Y-95600000D03*
%TO.P,C401,2*%
%TO.N,GND*%
X136250000Y-95600000D03*
%TD*%
D11*
%TO.P,R401,1*%
%TO.N,Tx*%
X128500000Y-96500000D03*
D12*
%TO.P,R401,2*%
%TO.N,+5V*%
X128500000Y-88880000D03*
%TD*%
D13*
%TO.P,J403,1,Pin_1*%
%TO.N,+5V*%
X121500000Y-96650000D03*
D14*
%TO.P,J403,2,Pin_2*%
%TO.N,+12V*%
X121500000Y-99190000D03*
%TO.P,J403,3,Pin_3*%
%TO.N,dir*%
X121500000Y-101730000D03*
%TO.P,J403,4,Pin_4*%
%TO.N,Tx*%
X121500000Y-104270000D03*
%TO.P,J403,5,Pin_5*%
%TO.N,Rx*%
X121500000Y-106810000D03*
%TO.P,J403,6,Pin_6*%
%TO.N,GND*%
X121500000Y-109350000D03*
%TD*%
D15*
%TO.P,J402,1*%
%TO.N,unconnected-(J402-Pad1)*%
X142730000Y-112170000D03*
D16*
%TO.P,J402,2*%
%TO.N,GND*%
X145270000Y-110900000D03*
%TO.P,J402,3*%
%TO.N,/Xnet/B*%
X142730000Y-109630000D03*
%TO.P,J402,4*%
%TO.N,/Xnet/A*%
X145270000Y-108360000D03*
%TO.P,J402,5*%
%TO.N,+12V*%
X142730000Y-107090000D03*
%TO.P,J402,6*%
%TO.N,unconnected-(J402-Pad6)*%
X145270000Y-105820000D03*
%TD*%
D11*
%TO.P,R402,1*%
%TO.N,dir*%
X126000000Y-96500000D03*
D12*
%TO.P,R402,2*%
%TO.N,+5V*%
X126000000Y-88880000D03*
%TD*%
D11*
%TO.P,R403,1*%
%TO.N,Rx*%
X126000000Y-107190000D03*
D12*
%TO.P,R403,2*%
%TO.N,+5V*%
X126000000Y-114810000D03*
%TD*%
D15*
%TO.P,J401,1*%
%TO.N,unconnected-(J401-Pad1)*%
X142910000Y-97170000D03*
D16*
%TO.P,J401,2*%
%TO.N,GND*%
X145450000Y-95900000D03*
%TO.P,J401,3*%
%TO.N,/Xnet/B*%
X142910000Y-94630000D03*
%TO.P,J401,4*%
%TO.N,/Xnet/A*%
X145450000Y-93360000D03*
%TO.P,J401,5*%
%TO.N,+12V*%
X142910000Y-92090000D03*
%TO.P,J401,6*%
%TO.N,unconnected-(J401-Pad6)*%
X145450000Y-90820000D03*
%TD*%
D11*
%TO.P,R404,1*%
%TO.N,/Xnet/A*%
X128500000Y-114810000D03*
D12*
%TO.P,R404,2*%
%TO.N,/Xnet/B*%
X128500000Y-107190000D03*
%TD*%
D17*
%TO.P,U401,1,RO*%
%TO.N,Rx*%
X131700000Y-98900000D03*
D18*
%TO.P,U401,2,~{RE}*%
%TO.N,dir*%
X131700000Y-101440000D03*
%TO.P,U401,3,DE*%
X131700000Y-103980000D03*
%TO.P,U401,4,DI*%
%TO.N,Tx*%
X131700000Y-106520000D03*
%TO.P,U401,5,GND*%
%TO.N,GND*%
X139320000Y-106520000D03*
%TO.P,U401,6,A*%
%TO.N,/Xnet/A*%
X139320000Y-103980000D03*
%TO.P,U401,7,B*%
%TO.N,/Xnet/B*%
X139320000Y-101440000D03*
%TO.P,U401,8,VCC*%
%TO.N,+5V*%
X139320000Y-98900000D03*
%TD*%
D19*
%TO.N,/Xnet/B*%
X140500000Y-109500000D03*
%TO.N,+12V*%
X136000000Y-94000000D03*
X138000000Y-93500000D03*
X145000000Y-102500000D03*
%TD*%
D20*
%TO.N,+5V*%
X126000000Y-112188299D02*
X121811701Y-108000000D01*
X132030000Y-88880000D02*
X138750000Y-95600000D01*
X121028299Y-108000000D02*
X120325000Y-107296701D01*
X138750000Y-98330000D02*
X139320000Y-98900000D01*
X121500000Y-97528299D02*
X121500000Y-96650000D01*
X120325000Y-97825000D02*
X121500000Y-96650000D01*
X121811701Y-108000000D02*
X121028299Y-108000000D01*
X121500000Y-93380000D02*
X126000000Y-88880000D01*
X120325000Y-107296701D02*
X120325000Y-97825000D01*
X126000000Y-88880000D02*
X128500000Y-88880000D01*
X138750000Y-95600000D02*
X138750000Y-98330000D01*
X128500000Y-88880000D02*
X132030000Y-88880000D01*
X121500000Y-96650000D02*
X121500000Y-93380000D01*
X126000000Y-114810000D02*
X126000000Y-112188299D01*
%TO.N,/Xnet/B*%
X141825000Y-98935000D02*
X141825000Y-95715000D01*
X130810000Y-109500000D02*
X140500000Y-109500000D01*
X138195000Y-104445991D02*
X138854009Y-105105000D01*
X139320000Y-101440000D02*
X141825000Y-98935000D01*
X140895000Y-105105000D02*
X141000000Y-105000000D01*
X143815000Y-108545000D02*
X142730000Y-109630000D01*
X139320000Y-101440000D02*
X138195000Y-102565000D01*
X138854009Y-105105000D02*
X140895000Y-105105000D01*
X141000000Y-105000000D02*
X142174422Y-105000000D01*
X141825000Y-95715000D02*
X142910000Y-94630000D01*
X142174422Y-105000000D02*
X143815000Y-106640578D01*
X138195000Y-102565000D02*
X138195000Y-104445991D01*
X143815000Y-106640578D02*
X143815000Y-108545000D01*
X128500000Y-107190000D02*
X130810000Y-109500000D01*
%TO.N,/Xnet/A*%
X144000000Y-94810000D02*
X144000000Y-99300000D01*
X145270000Y-109365578D02*
X143920578Y-110715000D01*
X143920578Y-110715000D02*
X132595000Y-110715000D01*
X144980000Y-103980000D02*
X139320000Y-103980000D01*
X145270000Y-108360000D02*
X145270000Y-109365578D01*
X144000000Y-99300000D02*
X139320000Y-103980000D01*
X145450000Y-93360000D02*
X144000000Y-94810000D01*
X146355000Y-105355000D02*
X144980000Y-103980000D01*
X132595000Y-110715000D02*
X128500000Y-114810000D01*
X145270000Y-108360000D02*
X146355000Y-107275000D01*
X146355000Y-107275000D02*
X146355000Y-105355000D01*
%TO.N,+12V*%
X126690000Y-94000000D02*
X135500000Y-94000000D01*
X146805000Y-100695000D02*
X146805000Y-99305000D01*
X146805000Y-93180578D02*
X146805000Y-99305000D01*
X135500000Y-94000000D02*
X136000000Y-94000000D01*
X121500000Y-99190000D02*
X126690000Y-94000000D01*
X145714422Y-92090000D02*
X146805000Y-93180578D01*
X138000000Y-93500000D02*
X141500000Y-93500000D01*
X142910000Y-92090000D02*
X145714422Y-92090000D01*
X141500000Y-93500000D02*
X142910000Y-92090000D01*
X145000000Y-102500000D02*
X146805000Y-100695000D01*
%TO.N,Tx*%
X132315000Y-100315000D02*
X133000000Y-101000000D01*
X128500000Y-97950000D02*
X130865000Y-100315000D01*
X133000000Y-101000000D02*
X133000000Y-105220000D01*
X130865000Y-100315000D02*
X132315000Y-100315000D01*
X121500000Y-104270000D02*
X129450000Y-104270000D01*
X133000000Y-105220000D02*
X131700000Y-106520000D01*
X129450000Y-104270000D02*
X131700000Y-106520000D01*
X128500000Y-96500000D02*
X128500000Y-97950000D01*
%TO.N,dir*%
X126000000Y-96500000D02*
X126000000Y-101460000D01*
X131700000Y-101440000D02*
X131700000Y-103980000D01*
X129450000Y-101730000D02*
X131700000Y-103980000D01*
X126000000Y-101460000D02*
X126270000Y-101730000D01*
X126000000Y-101460000D02*
X126000000Y-101500000D01*
X121500000Y-101730000D02*
X125770000Y-101730000D01*
X126270000Y-101730000D02*
X129450000Y-101730000D01*
X125770000Y-101730000D02*
X126270000Y-101730000D01*
X126000000Y-101500000D02*
X125770000Y-101730000D01*
%TO.N,Rx*%
X121500000Y-106810000D02*
X125620000Y-106810000D01*
X131700000Y-98900000D02*
X133500000Y-100700000D01*
X131145000Y-107645000D02*
X129500000Y-106000000D01*
X129500000Y-106000000D02*
X127190000Y-106000000D01*
X132165991Y-107645000D02*
X131145000Y-107645000D01*
X133500000Y-106310991D02*
X132165991Y-107645000D01*
X125620000Y-106810000D02*
X126000000Y-107190000D01*
X133500000Y-100700000D02*
X133500000Y-106310991D01*
X127190000Y-106000000D02*
X126000000Y-107190000D01*
%TD*%
M02*
