%TF.GenerationSoftware,KiCad,Pcbnew,8.0.8*%
%TF.CreationDate,2025-05-20T23:19:57+02:00*%
%TF.ProjectId,LCD_LOCONET_SHIELD,4c43445f-4c4f-4434-9f4e-45545f534849,rev?*%
%TF.SameCoordinates,Original*%
%TF.FileFunction,Soldermask,Bot*%
%TF.FilePolarity,Negative*%
%FSLAX46Y46*%
G04 Gerber Fmt 4.6, Leading zero omitted, Abs format (unit mm)*
G04 Created by KiCad (PCBNEW 8.0.8) date 2025-05-20 23:19:57*
%MOMM*%
%LPD*%
G01*
G04 APERTURE LIST*
G04 Aperture macros list*
%AMRoundRect*
0 Rectangle with rounded corners*
0 $1 Rounding radius*
0 $2 $3 $4 $5 $6 $7 $8 $9 X,Y pos of 4 corners*
0 Add a 4 corners polygon primitive as box body*
4,1,4,$2,$3,$4,$5,$6,$7,$8,$9,$2,$3,0*
0 Add four circle primitives for the rounded corners*
1,1,$1+$1,$2,$3*
1,1,$1+$1,$4,$5*
1,1,$1+$1,$6,$7*
1,1,$1+$1,$8,$9*
0 Add four rect primitives between the rounded corners*
20,1,$1+$1,$2,$3,$4,$5,0*
20,1,$1+$1,$4,$5,$6,$7,0*
20,1,$1+$1,$6,$7,$8,$9,0*
20,1,$1+$1,$8,$9,$2,$3,0*%
G04 Aperture macros list end*
%ADD10C,2.000000*%
%ADD11C,2.800000*%
%ADD12R,1.879600X1.879600*%
%ADD13C,1.879600*%
%ADD14R,1.800000X1.800000*%
%ADD15C,1.800000*%
%ADD16R,1.560000X1.560000*%
%ADD17C,1.560000*%
%ADD18C,3.250000*%
%ADD19R,1.520000X1.520000*%
%ADD20C,1.520000*%
%ADD21R,2.000000X2.000000*%
%ADD22O,2.000000X2.000000*%
%ADD23C,1.400000*%
%ADD24O,1.400000X1.400000*%
%ADD25R,1.300000X1.300000*%
%ADD26C,1.300000*%
%ADD27RoundRect,0.250000X-0.450000X0.350000X-0.450000X-0.350000X0.450000X-0.350000X0.450000X0.350000X0*%
%ADD28C,1.600000*%
%ADD29R,1.600000X1.600000*%
%ADD30O,1.600000X1.600000*%
%ADD31RoundRect,0.500000X-1.500000X-0.500000X1.500000X-0.500000X1.500000X0.500000X-1.500000X0.500000X0*%
G04 APERTURE END LIST*
D10*
%TO.C,SW5*%
X120450000Y-168750000D03*
X120450000Y-162250000D03*
X124950000Y-168750000D03*
X124950000Y-162250000D03*
%TD*%
D11*
%TO.C,U3*%
X70500000Y-128016000D03*
X70500000Y-159016000D03*
X145500000Y-128016000D03*
X145500000Y-159016000D03*
D12*
X76000000Y-128016000D03*
D13*
X78540000Y-128016000D03*
X81080000Y-128016000D03*
X83620000Y-128016000D03*
X86160000Y-128016000D03*
X88700000Y-128016000D03*
X91240000Y-128016000D03*
X93780000Y-128016000D03*
X96320000Y-128016000D03*
X98860000Y-128016000D03*
X101400000Y-128016000D03*
X103940000Y-128016000D03*
X106480000Y-128016000D03*
X109020000Y-128016000D03*
X111560000Y-128016000D03*
X114100000Y-128016000D03*
%TD*%
D14*
%TO.C,D3*%
X88500000Y-176225000D03*
D15*
X88500000Y-178765000D03*
%TD*%
D14*
%TO.C,D4*%
X97000000Y-176225000D03*
D15*
X97000000Y-178765000D03*
%TD*%
D16*
%TO.C,RV1*%
X80351000Y-181403000D03*
D17*
X77851000Y-176403000D03*
X75351000Y-181403000D03*
%TD*%
D14*
%TO.C,D8*%
X131500000Y-176225000D03*
D15*
X131500000Y-178765000D03*
%TD*%
D14*
%TO.C,D5*%
X105500000Y-176225000D03*
D15*
X105500000Y-178765000D03*
%TD*%
D14*
%TO.C,D7*%
X123000000Y-176225000D03*
D15*
X123000000Y-178765000D03*
%TD*%
D10*
%TO.C,SW3*%
X103350000Y-168750000D03*
X103350000Y-162250000D03*
X107850000Y-168750000D03*
X107850000Y-162250000D03*
%TD*%
%TO.C,SW6*%
X129000000Y-168750000D03*
X129000000Y-162250000D03*
X133500000Y-168750000D03*
X133500000Y-162250000D03*
%TD*%
%TO.C,SW2*%
X94800000Y-168750000D03*
X94800000Y-162250000D03*
X99300000Y-168750000D03*
X99300000Y-162250000D03*
%TD*%
D14*
%TO.C,D6*%
X114500000Y-176225000D03*
D15*
X114500000Y-178765000D03*
%TD*%
D10*
%TO.C,SW4*%
X111900000Y-168750000D03*
X111900000Y-162250000D03*
X116400000Y-168750000D03*
X116400000Y-162250000D03*
%TD*%
%TO.C,SW1*%
X86250000Y-168750000D03*
X86250000Y-162250000D03*
X90750000Y-168750000D03*
X90750000Y-162250000D03*
%TD*%
D18*
%TO.C,J1*%
X122160000Y-192748000D03*
X112000000Y-192748000D03*
D19*
X120250000Y-183858000D03*
D20*
X118980000Y-186398000D03*
X117710000Y-183858000D03*
X116440000Y-186398000D03*
X115170000Y-183858000D03*
X113900000Y-186398000D03*
%TD*%
D21*
%TO.C,D1*%
X131445000Y-189103000D03*
D22*
X131445000Y-184023000D03*
%TD*%
D23*
%TO.C,R6*%
X98500000Y-150000000D03*
D24*
X98500000Y-142380000D03*
%TD*%
D25*
%TO.C,Q2*%
X119253000Y-134493000D03*
D26*
X120523000Y-133223000D03*
X119253000Y-131953000D03*
%TD*%
D23*
%TO.C,R2*%
X93350000Y-150000000D03*
D24*
X93350000Y-142380000D03*
%TD*%
D27*
%TO.C,R9*%
X84500000Y-176000000D03*
X84500000Y-178000000D03*
%TD*%
D25*
%TO.C,Q1*%
X85725000Y-153289000D03*
D26*
X84455000Y-154559000D03*
X85725000Y-155829000D03*
%TD*%
D28*
%TO.C,C1*%
X118707000Y-144394000D03*
X118707000Y-146894000D03*
%TD*%
D27*
%TO.C,R12*%
X111000000Y-176500000D03*
X111000000Y-178500000D03*
%TD*%
D23*
%TO.C,R7*%
X103505000Y-150114000D03*
D24*
X103505000Y-142494000D03*
%TD*%
D29*
%TO.C,U1*%
X115687000Y-149977000D03*
D30*
X113147000Y-149977000D03*
X110607000Y-149977000D03*
X108067000Y-149977000D03*
X108067000Y-142357000D03*
X110607000Y-142357000D03*
X113147000Y-142357000D03*
X115687000Y-142357000D03*
%TD*%
D23*
%TO.C,R3*%
X90805000Y-149987000D03*
D24*
X90805000Y-142367000D03*
%TD*%
D23*
%TO.C,R5*%
X85852000Y-149987000D03*
D24*
X85852000Y-142367000D03*
%TD*%
D21*
%TO.C,D2*%
X127295000Y-189103000D03*
D22*
X127295000Y-184023000D03*
%TD*%
D29*
%TO.C,A1*%
X102616000Y-172085000D03*
D30*
X105156000Y-172085000D03*
X107696000Y-172085000D03*
X110236000Y-172085000D03*
X112776000Y-172085000D03*
X115316000Y-172085000D03*
X117856000Y-172085000D03*
X120396000Y-172085000D03*
X125476000Y-172085000D03*
X128016000Y-172085000D03*
X130556000Y-172085000D03*
X133096000Y-172085000D03*
X135636000Y-172085000D03*
X138176000Y-172085000D03*
X138176000Y-123825000D03*
X135636000Y-123825000D03*
X133096000Y-123825000D03*
X130556000Y-123825000D03*
X128016000Y-123825000D03*
X125476000Y-123825000D03*
X122936000Y-123825000D03*
X120396000Y-123825000D03*
X116336000Y-123825000D03*
X113796000Y-123825000D03*
X111256000Y-123825000D03*
X108716000Y-123825000D03*
X106176000Y-123825000D03*
X103636000Y-123825000D03*
X101096000Y-123825000D03*
X98556000Y-123825000D03*
X96016000Y-123825000D03*
X93476000Y-123825000D03*
%TD*%
D27*
%TO.C,R11*%
X101500000Y-176500000D03*
X101500000Y-178500000D03*
%TD*%
D23*
%TO.C,R8*%
X100990000Y-149987000D03*
D24*
X100990000Y-142367000D03*
%TD*%
D27*
%TO.C,R10*%
X93000000Y-176500000D03*
X93000000Y-178500000D03*
%TD*%
D18*
%TO.C,J2*%
X106690000Y-192748000D03*
X96530000Y-192748000D03*
D19*
X104780000Y-183858000D03*
D20*
X103510000Y-186398000D03*
X102240000Y-183858000D03*
X100970000Y-186398000D03*
X99700000Y-183858000D03*
X98430000Y-186398000D03*
%TD*%
D31*
%TO.C,U2*%
X72000000Y-193248000D03*
X72000000Y-184248000D03*
X89500000Y-184248000D03*
X89500000Y-193248000D03*
%TD*%
D27*
%TO.C,R14*%
X128000000Y-176500000D03*
X128000000Y-178500000D03*
%TD*%
D23*
%TO.C,R4*%
X88265000Y-149987000D03*
D24*
X88265000Y-142367000D03*
%TD*%
D23*
%TO.C,R1*%
X96000000Y-142380000D03*
D24*
X96000000Y-150000000D03*
%TD*%
D27*
%TO.C,R13*%
X119000000Y-176500000D03*
X119000000Y-178500000D03*
%TD*%
M02*
