%TF.GenerationSoftware,KiCad,Pcbnew,7.0.7*%
%TF.CreationDate,2023-12-08T20:58:09+01:00*%
%TF.ProjectId,ledStrip,6c656453-7472-4697-902e-6b696361645f,rev?*%
%TF.SameCoordinates,Original*%
%TF.FileFunction,Soldermask,Top*%
%TF.FilePolarity,Negative*%
%FSLAX46Y46*%
G04 Gerber Fmt 4.6, Leading zero omitted, Abs format (unit mm)*
G04 Created by KiCad (PCBNEW 7.0.7) date 2023-12-08 20:58:09*
%MOMM*%
%LPD*%
G01*
G04 APERTURE LIST*
G04 Aperture macros list*
%AMRoundRect*
0 Rectangle with rounded corners*
0 $1 Rounding radius*
0 $2 $3 $4 $5 $6 $7 $8 $9 X,Y pos of 4 corners*
0 Add a 4 corners polygon primitive as box body*
4,1,4,$2,$3,$4,$5,$6,$7,$8,$9,$2,$3,0*
0 Add four circle primitives for the rounded corners*
1,1,$1+$1,$2,$3*
1,1,$1+$1,$4,$5*
1,1,$1+$1,$6,$7*
1,1,$1+$1,$8,$9*
0 Add four rect primitives between the rounded corners*
20,1,$1+$1,$2,$3,$4,$5,0*
20,1,$1+$1,$4,$5,$6,$7,0*
20,1,$1+$1,$6,$7,$8,$9,0*
20,1,$1+$1,$8,$9,$2,$3,0*%
G04 Aperture macros list end*
%ADD10RoundRect,0.250000X0.625000X-0.375000X0.625000X0.375000X-0.625000X0.375000X-0.625000X-0.375000X0*%
%ADD11RoundRect,0.250000X-0.650000X0.325000X-0.650000X-0.325000X0.650000X-0.325000X0.650000X0.325000X0*%
%ADD12RoundRect,0.112500X-0.112500X0.187500X-0.112500X-0.187500X0.112500X-0.187500X0.112500X0.187500X0*%
%ADD13RoundRect,0.237500X-0.250000X-0.237500X0.250000X-0.237500X0.250000X0.237500X-0.250000X0.237500X0*%
%ADD14RoundRect,0.112500X-0.187500X-0.112500X0.187500X-0.112500X0.187500X0.112500X-0.187500X0.112500X0*%
%ADD15R,1.200000X1.200000*%
%ADD16R,1.600000X1.500000*%
%ADD17RoundRect,0.381000X0.762000X0.381000X-0.762000X0.381000X-0.762000X-0.381000X0.762000X-0.381000X0*%
%ADD18RoundRect,0.112500X0.187500X0.112500X-0.187500X0.112500X-0.187500X-0.112500X0.187500X-0.112500X0*%
%ADD19RoundRect,0.381000X-0.762000X-0.381000X0.762000X-0.381000X0.762000X0.381000X-0.762000X0.381000X0*%
%ADD20RoundRect,0.225000X0.250000X-0.225000X0.250000X0.225000X-0.250000X0.225000X-0.250000X-0.225000X0*%
%ADD21RoundRect,0.112500X0.112500X-0.187500X0.112500X0.187500X-0.112500X0.187500X-0.112500X-0.187500X0*%
%ADD22RoundRect,0.250000X0.350000X0.450000X-0.350000X0.450000X-0.350000X-0.450000X0.350000X-0.450000X0*%
%ADD23RoundRect,0.250000X-0.850000X-0.350000X0.850000X-0.350000X0.850000X0.350000X-0.850000X0.350000X0*%
%ADD24RoundRect,0.249997X-2.950003X-2.650003X2.950003X-2.650003X2.950003X2.650003X-2.950003X2.650003X0*%
%ADD25RoundRect,0.237500X0.250000X0.237500X-0.250000X0.237500X-0.250000X-0.237500X0.250000X-0.237500X0*%
%ADD26RoundRect,0.237500X-0.237500X0.250000X-0.237500X-0.250000X0.237500X-0.250000X0.237500X0.250000X0*%
G04 APERTURE END LIST*
D10*
%TO.C,D7*%
X38000000Y-95900000D03*
X38000000Y-93100000D03*
%TD*%
D11*
%TO.C,C8*%
X76835000Y-93775000D03*
X76835000Y-96725000D03*
%TD*%
D12*
%TO.C,D3*%
X29000000Y-96000000D03*
X29000000Y-98100000D03*
%TD*%
D10*
%TO.C,D9*%
X68000000Y-96400000D03*
X68000000Y-93600000D03*
%TD*%
D13*
%TO.C,R7*%
X198587500Y-93000000D03*
X200412500Y-93000000D03*
%TD*%
D10*
%TO.C,D20*%
X233000000Y-96400000D03*
X233000000Y-93600000D03*
%TD*%
D14*
%TO.C,D1*%
X25201000Y-96381000D03*
X27301000Y-96381000D03*
%TD*%
D15*
%TO.C,RV1*%
X32744000Y-96022000D03*
D16*
X33744000Y-92772000D03*
D15*
X34744000Y-96022000D03*
%TD*%
D11*
%TO.C,C7*%
X74422000Y-93775000D03*
X74422000Y-96725000D03*
%TD*%
D10*
%TO.C,D8*%
X52578000Y-95900000D03*
X52578000Y-93100000D03*
%TD*%
D11*
%TO.C,C9*%
X79240000Y-93775000D03*
X79240000Y-96725000D03*
%TD*%
%TO.C,C6*%
X72009000Y-93775000D03*
X72009000Y-96725000D03*
%TD*%
D17*
%TO.C,J6*%
X55118000Y-96266000D03*
%TD*%
D11*
%TO.C,C4*%
X62801500Y-93345000D03*
X62801500Y-96295000D03*
%TD*%
D10*
%TO.C,D10*%
X83000000Y-96400000D03*
X83000000Y-93600000D03*
%TD*%
D13*
%TO.C,R6*%
X153587500Y-93000000D03*
X155412500Y-93000000D03*
%TD*%
D10*
%TO.C,D19*%
X218000000Y-96400000D03*
X218000000Y-93600000D03*
%TD*%
%TO.C,D16*%
X173000000Y-96400000D03*
X173000000Y-93600000D03*
%TD*%
D17*
%TO.C,J2*%
X19500000Y-90987000D03*
%TD*%
%TO.C,J5*%
X55118000Y-92710000D03*
%TD*%
D18*
%TO.C,D5*%
X58200000Y-98425000D03*
X56100000Y-98425000D03*
%TD*%
D19*
%TO.C,J3*%
X236500000Y-98987000D03*
%TD*%
D10*
%TO.C,D18*%
X203000000Y-96400000D03*
X203000000Y-93600000D03*
%TD*%
D20*
%TO.C,C1*%
X30950000Y-95873000D03*
X30950000Y-94323000D03*
%TD*%
D10*
%TO.C,D13*%
X128000000Y-96387000D03*
X128000000Y-93587000D03*
%TD*%
D21*
%TO.C,D4*%
X29000000Y-94600000D03*
X29000000Y-92500000D03*
%TD*%
D10*
%TO.C,D12*%
X113000000Y-96400000D03*
X113000000Y-93600000D03*
%TD*%
D14*
%TO.C,D2*%
X25201000Y-94250000D03*
X27301000Y-94250000D03*
%TD*%
D19*
%TO.C,J4*%
X236500000Y-90987000D03*
%TD*%
D10*
%TO.C,D14*%
X143000000Y-96400000D03*
X143000000Y-93600000D03*
%TD*%
D11*
%TO.C,C3*%
X60388500Y-93345000D03*
X60388500Y-96295000D03*
%TD*%
%TO.C,C5*%
X65214500Y-93345000D03*
X65214500Y-96295000D03*
%TD*%
D10*
%TO.C,D17*%
X188000000Y-96400000D03*
X188000000Y-93600000D03*
%TD*%
D13*
%TO.C,R4*%
X64008000Y-91567000D03*
X65833000Y-91567000D03*
%TD*%
D22*
%TO.C,R1*%
X54086000Y-98425000D03*
X52086000Y-98425000D03*
%TD*%
D23*
%TO.C,U1*%
X41000000Y-92335000D03*
D24*
X47300000Y-94615000D03*
D23*
X41000000Y-96895000D03*
%TD*%
D25*
%TO.C,R3*%
X24812000Y-91694000D03*
X22987000Y-91694000D03*
%TD*%
D10*
%TO.C,D15*%
X158000000Y-96400000D03*
X158000000Y-93600000D03*
%TD*%
%TO.C,D6*%
X23000000Y-96400000D03*
X23000000Y-93600000D03*
%TD*%
D26*
%TO.C,R5*%
X109272000Y-92409000D03*
X109272000Y-94234000D03*
%TD*%
D10*
%TO.C,D11*%
X98000000Y-96400000D03*
X98000000Y-93600000D03*
%TD*%
D17*
%TO.C,J1*%
X19500000Y-98987000D03*
%TD*%
D11*
%TO.C,C2*%
X57975500Y-93345000D03*
X57975500Y-96295000D03*
%TD*%
D25*
%TO.C,R2*%
X34656500Y-97905000D03*
X32831500Y-97905000D03*
%TD*%
M02*
