%TF.GenerationSoftware,KiCad,Pcbnew,8.0.2*%
%TF.CreationDate,2024-12-14T22:54:12+01:00*%
%TF.ProjectId,solenoidDecoder,736f6c65-6e6f-4696-9444-65636f646572,rev?*%
%TF.SameCoordinates,Original*%
%TF.FileFunction,Paste,Top*%
%TF.FilePolarity,Positive*%
%FSLAX46Y46*%
G04 Gerber Fmt 4.6, Leading zero omitted, Abs format (unit mm)*
G04 Created by KiCad (PCBNEW 8.0.2) date 2024-12-14 22:54:12*
%MOMM*%
%LPD*%
G01*
G04 APERTURE LIST*
G04 Aperture macros list*
%AMRoundRect*
0 Rectangle with rounded corners*
0 $1 Rounding radius*
0 $2 $3 $4 $5 $6 $7 $8 $9 X,Y pos of 4 corners*
0 Add a 4 corners polygon primitive as box body*
4,1,4,$2,$3,$4,$5,$6,$7,$8,$9,$2,$3,0*
0 Add four circle primitives for the rounded corners*
1,1,$1+$1,$2,$3*
1,1,$1+$1,$4,$5*
1,1,$1+$1,$6,$7*
1,1,$1+$1,$8,$9*
0 Add four rect primitives between the rounded corners*
20,1,$1+$1,$2,$3,$4,$5,0*
20,1,$1+$1,$4,$5,$6,$7,0*
20,1,$1+$1,$6,$7,$8,$9,0*
20,1,$1+$1,$8,$9,$2,$3,0*%
%AMRotRect*
0 Rectangle, with rotation*
0 The origin of the aperture is its center*
0 $1 length*
0 $2 width*
0 $3 Rotation angle, in degrees counterclockwise*
0 Add horizontal line*
21,1,$1,$2,0,0,$3*%
G04 Aperture macros list end*
%ADD10RoundRect,0.250000X0.450000X-0.325000X0.450000X0.325000X-0.450000X0.325000X-0.450000X-0.325000X0*%
%ADD11RoundRect,0.250000X0.312500X0.625000X-0.312500X0.625000X-0.312500X-0.625000X0.312500X-0.625000X0*%
%ADD12RoundRect,0.237500X-0.250000X-0.237500X0.250000X-0.237500X0.250000X0.237500X-0.250000X0.237500X0*%
%ADD13RoundRect,0.237500X0.250000X0.237500X-0.250000X0.237500X-0.250000X-0.237500X0.250000X-0.237500X0*%
%ADD14RoundRect,0.250000X0.650000X-1.000000X0.650000X1.000000X-0.650000X1.000000X-0.650000X-1.000000X0*%
%ADD15RoundRect,0.250000X-1.000000X-0.650000X1.000000X-0.650000X1.000000X0.650000X-1.000000X0.650000X0*%
%ADD16RoundRect,0.150000X-0.587500X-0.150000X0.587500X-0.150000X0.587500X0.150000X-0.587500X0.150000X0*%
%ADD17RoundRect,0.300000X-0.400000X-0.300000X0.400000X-0.300000X0.400000X0.300000X-0.400000X0.300000X0*%
%ADD18RoundRect,0.237500X-0.237500X0.250000X-0.237500X-0.250000X0.237500X-0.250000X0.237500X0.250000X0*%
%ADD19RoundRect,0.150000X0.587500X0.150000X-0.587500X0.150000X-0.587500X-0.150000X0.587500X-0.150000X0*%
%ADD20RoundRect,0.237500X0.237500X-0.250000X0.237500X0.250000X-0.237500X0.250000X-0.237500X-0.250000X0*%
%ADD21RoundRect,0.250000X-0.650000X1.000000X-0.650000X-1.000000X0.650000X-1.000000X0.650000X1.000000X0*%
%ADD22RoundRect,0.250000X-0.312500X-0.625000X0.312500X-0.625000X0.312500X0.625000X-0.312500X0.625000X0*%
%ADD23RoundRect,0.140000X-0.021213X0.219203X-0.219203X0.021213X0.021213X-0.219203X0.219203X-0.021213X0*%
%ADD24RotRect,1.600000X0.550000X135.000000*%
%ADD25RotRect,1.600000X0.550000X225.000000*%
%ADD26RoundRect,0.250000X0.650000X-0.412500X0.650000X0.412500X-0.650000X0.412500X-0.650000X-0.412500X0*%
%ADD27RoundRect,0.250000X1.000000X0.650000X-1.000000X0.650000X-1.000000X-0.650000X1.000000X-0.650000X0*%
%ADD28RoundRect,0.160000X0.197500X0.160000X-0.197500X0.160000X-0.197500X-0.160000X0.197500X-0.160000X0*%
%ADD29RoundRect,0.237500X-0.300000X-0.237500X0.300000X-0.237500X0.300000X0.237500X-0.300000X0.237500X0*%
%ADD30RoundRect,0.155000X0.155000X-0.212500X0.155000X0.212500X-0.155000X0.212500X-0.155000X-0.212500X0*%
%ADD31RoundRect,0.375000X0.375000X-0.625000X0.375000X0.625000X-0.375000X0.625000X-0.375000X-0.625000X0*%
%ADD32RoundRect,0.500000X1.400000X-0.500000X1.400000X0.500000X-1.400000X0.500000X-1.400000X-0.500000X0*%
%ADD33RoundRect,0.237500X0.237500X-0.300000X0.237500X0.300000X-0.237500X0.300000X-0.237500X-0.300000X0*%
%ADD34RoundRect,0.155000X0.212500X0.155000X-0.212500X0.155000X-0.212500X-0.155000X0.212500X-0.155000X0*%
%ADD35RoundRect,0.237500X-0.237500X0.300000X-0.237500X-0.300000X0.237500X-0.300000X0.237500X0.300000X0*%
%ADD36RoundRect,0.162500X1.012500X0.162500X-1.012500X0.162500X-1.012500X-0.162500X1.012500X-0.162500X0*%
%ADD37RoundRect,0.200000X0.300000X0.200000X-0.300000X0.200000X-0.300000X-0.200000X0.300000X-0.200000X0*%
%ADD38R,1.550000X1.300000*%
%ADD39RoundRect,0.112500X0.112500X-0.187500X0.112500X0.187500X-0.112500X0.187500X-0.112500X-0.187500X0*%
G04 APERTURE END LIST*
D10*
%TO.C,D4*%
X66839714Y-100994808D03*
X66839714Y-103044808D03*
%TD*%
D11*
%TO.C,R103*%
X66557305Y-54134103D03*
X63632305Y-54134103D03*
%TD*%
D12*
%TO.C,R22*%
X69966305Y-59167103D03*
X71791305Y-59167103D03*
%TD*%
D13*
%TO.C,R71*%
X49951305Y-59294103D03*
X48126305Y-59294103D03*
%TD*%
D12*
%TO.C,R41*%
X69966305Y-90818103D03*
X71791305Y-90818103D03*
%TD*%
D14*
%TO.C,D81*%
X45101805Y-43405103D03*
X45101805Y-39405103D03*
%TD*%
D15*
%TO.C,D501*%
X53700305Y-48072603D03*
X57700305Y-48072603D03*
%TD*%
D16*
%TO.C,Q42*%
X69941305Y-83899103D03*
X69941305Y-85799103D03*
X71816305Y-84849103D03*
%TD*%
D17*
%TO.C,Y1*%
X64187305Y-72864103D03*
X66387305Y-72864103D03*
X66387305Y-70964103D03*
X64187305Y-70964103D03*
%TD*%
D16*
%TO.C,Q21*%
X69941305Y-64313103D03*
X69941305Y-66213103D03*
X71816305Y-65263103D03*
%TD*%
D13*
%TO.C,R81*%
X49951305Y-44294103D03*
X48126305Y-44294103D03*
%TD*%
D12*
%TO.C,R21*%
X69966305Y-60818103D03*
X71791305Y-60818103D03*
%TD*%
D14*
%TO.C,D61*%
X45101805Y-73405103D03*
X45101805Y-69405103D03*
%TD*%
D11*
%TO.C,R104*%
X66557305Y-51848103D03*
X63632305Y-51848103D03*
%TD*%
D18*
%TO.C,R501*%
X58348305Y-52451603D03*
X58348305Y-54276603D03*
%TD*%
D19*
%TO.C,Q71*%
X49976305Y-55799103D03*
X49976305Y-53899103D03*
X48101305Y-54849103D03*
%TD*%
D20*
%TO.C,R3*%
X52611305Y-96276603D03*
X52611305Y-94451603D03*
%TD*%
D21*
%TO.C,D31*%
X74815805Y-76707103D03*
X74815805Y-80707103D03*
%TD*%
D13*
%TO.C,R63*%
X49951305Y-72643103D03*
X48126305Y-72643103D03*
%TD*%
D12*
%TO.C,R42*%
X69966305Y-89167103D03*
X71791305Y-89167103D03*
%TD*%
D14*
%TO.C,D22*%
X74815805Y-58405103D03*
X74815805Y-54405103D03*
%TD*%
D21*
%TO.C,D82*%
X45101805Y-46707103D03*
X45101805Y-50707103D03*
%TD*%
D12*
%TO.C,R11*%
X69966305Y-45818103D03*
X71791305Y-45818103D03*
%TD*%
D22*
%TO.C,R101*%
X53283805Y-51586103D03*
X56208805Y-51586103D03*
%TD*%
D21*
%TO.C,D11*%
X74815805Y-46707103D03*
X74815805Y-50707103D03*
%TD*%
D20*
%TO.C,R5*%
X66348714Y-95895603D03*
X66348714Y-94070603D03*
%TD*%
%TO.C,R4*%
X52611305Y-92720603D03*
X52611305Y-90895603D03*
%TD*%
D21*
%TO.C,D72*%
X45101805Y-61707103D03*
X45101805Y-65707103D03*
%TD*%
D15*
%TO.C,D503*%
X61200305Y-44572603D03*
X65200305Y-44572603D03*
%TD*%
D12*
%TO.C,R24*%
X69966305Y-57516103D03*
X71791305Y-57516103D03*
%TD*%
D14*
%TO.C,D51*%
X45101805Y-88405103D03*
X45101805Y-84405103D03*
%TD*%
D13*
%TO.C,R83*%
X49951305Y-42643103D03*
X48126305Y-42643103D03*
%TD*%
D16*
%TO.C,Q41*%
X69941305Y-94313103D03*
X69941305Y-96213103D03*
X71816305Y-95263103D03*
%TD*%
D19*
%TO.C,Q81*%
X49976305Y-40799103D03*
X49976305Y-38899103D03*
X48101305Y-39849103D03*
%TD*%
D12*
%TO.C,R14*%
X69966305Y-42516103D03*
X71791305Y-42516103D03*
%TD*%
D23*
%TO.C,C101*%
X54450716Y-62938692D03*
X53771894Y-63617514D03*
%TD*%
D13*
%TO.C,R53*%
X49951305Y-87643103D03*
X48126305Y-87643103D03*
%TD*%
D24*
%TO.C,U1*%
X58946610Y-73089206D03*
X59512295Y-72523520D03*
X60077981Y-71957835D03*
X60643666Y-71392150D03*
X61209352Y-70826464D03*
X61775037Y-70260779D03*
X62340722Y-69695093D03*
X62906408Y-69129408D03*
D25*
X62906408Y-67078798D03*
X62340722Y-66513113D03*
X61775037Y-65947427D03*
X61209352Y-65381742D03*
X60643666Y-64816056D03*
X60077981Y-64250371D03*
X59512295Y-63684686D03*
X58946610Y-63119000D03*
D24*
X56896000Y-63119000D03*
X56330315Y-63684686D03*
X55764629Y-64250371D03*
X55198944Y-64816056D03*
X54633258Y-65381742D03*
X54067573Y-65947427D03*
X53501888Y-66513113D03*
X52936202Y-67078798D03*
D25*
X52936202Y-69129408D03*
X53501888Y-69695093D03*
X54067573Y-70260779D03*
X54633258Y-70826464D03*
X55198944Y-71392150D03*
X55764629Y-71957835D03*
X56330315Y-72523520D03*
X56896000Y-73089206D03*
%TD*%
D21*
%TO.C,D41*%
X74815805Y-91707103D03*
X74815805Y-95707103D03*
%TD*%
D12*
%TO.C,R43*%
X69966305Y-92469103D03*
X71791305Y-92469103D03*
%TD*%
%TO.C,R13*%
X69966305Y-47469103D03*
X71791305Y-47469103D03*
%TD*%
%TO.C,R32*%
X69966305Y-74167103D03*
X71791305Y-74167103D03*
%TD*%
D26*
%TO.C,C303*%
X54619305Y-84398603D03*
X54619305Y-81273603D03*
%TD*%
D12*
%TO.C,R6*%
X63873214Y-98322103D03*
X65698214Y-98322103D03*
%TD*%
%TO.C,R23*%
X69966305Y-62469103D03*
X71791305Y-62469103D03*
%TD*%
D13*
%TO.C,R52*%
X49951305Y-90945103D03*
X48126305Y-90945103D03*
%TD*%
D27*
%TO.C,D504*%
X57700305Y-44572603D03*
X53700305Y-44572603D03*
%TD*%
D13*
%TO.C,R74*%
X49951305Y-62596103D03*
X48126305Y-62596103D03*
%TD*%
D12*
%TO.C,R44*%
X69966305Y-87516103D03*
X71791305Y-87516103D03*
%TD*%
D13*
%TO.C,R84*%
X49951305Y-47596103D03*
X48126305Y-47596103D03*
%TD*%
%TO.C,R54*%
X49951305Y-92596103D03*
X48126305Y-92596103D03*
%TD*%
%TO.C,R64*%
X49951305Y-77596103D03*
X48126305Y-77596103D03*
%TD*%
D19*
%TO.C,Q61*%
X49976305Y-70799103D03*
X49976305Y-68899103D03*
X48101305Y-69849103D03*
%TD*%
D28*
%TO.C,R2*%
X52438805Y-98195103D03*
X51243805Y-98195103D03*
%TD*%
D29*
%TO.C,C501*%
X58090805Y-50824103D03*
X59815805Y-50824103D03*
%TD*%
D22*
%TO.C,R102*%
X53283805Y-53872103D03*
X56208805Y-53872103D03*
%TD*%
D19*
%TO.C,Q72*%
X49976305Y-66213103D03*
X49976305Y-64313103D03*
X48101305Y-65263103D03*
%TD*%
%TO.C,Q52*%
X49976305Y-96213103D03*
X49976305Y-94313103D03*
X48101305Y-95263103D03*
%TD*%
D16*
%TO.C,Q11*%
X69941305Y-49313103D03*
X69941305Y-51213103D03*
X71816305Y-50263103D03*
%TD*%
D21*
%TO.C,D62*%
X45101805Y-76707103D03*
X45101805Y-80707103D03*
%TD*%
D13*
%TO.C,R82*%
X49951305Y-45945103D03*
X48126305Y-45945103D03*
%TD*%
D12*
%TO.C,R1*%
X69164805Y-99131103D03*
X67339805Y-99131103D03*
%TD*%
D13*
%TO.C,R62*%
X49951305Y-75945103D03*
X48126305Y-75945103D03*
%TD*%
D16*
%TO.C,Q12*%
X69941305Y-38899103D03*
X69941305Y-40799103D03*
X71816305Y-39849103D03*
%TD*%
D14*
%TO.C,D32*%
X74815805Y-73405103D03*
X74815805Y-69405103D03*
%TD*%
D13*
%TO.C,R72*%
X49951305Y-60945103D03*
X48126305Y-60945103D03*
%TD*%
D19*
%TO.C,Q51*%
X49976305Y-85799103D03*
X49976305Y-83899103D03*
X48101305Y-84849103D03*
%TD*%
D21*
%TO.C,D21*%
X74815805Y-61707103D03*
X74815805Y-65707103D03*
%TD*%
D20*
%TO.C,R502*%
X59969305Y-54276603D03*
X59969305Y-52451603D03*
%TD*%
D19*
%TO.C,Q82*%
X49976305Y-51213103D03*
X49976305Y-49313103D03*
X48101305Y-50263103D03*
%TD*%
D13*
%TO.C,R51*%
X49951305Y-89294103D03*
X48126305Y-89294103D03*
%TD*%
D12*
%TO.C,R34*%
X69966305Y-72516103D03*
X71791305Y-72516103D03*
%TD*%
D30*
%TO.C,C2*%
X67954305Y-72481603D03*
X67954305Y-71346603D03*
%TD*%
D19*
%TO.C,Q62*%
X49976305Y-81213103D03*
X49976305Y-79313103D03*
X48101305Y-80263103D03*
%TD*%
D31*
%TO.C,U301*%
X57272305Y-84081103D03*
X59572305Y-84081103D03*
D32*
X59572305Y-77781103D03*
D31*
X61872305Y-84081103D03*
%TD*%
D16*
%TO.C,Q32*%
X69941305Y-68899103D03*
X69941305Y-70799103D03*
X71816305Y-69849103D03*
%TD*%
D12*
%TO.C,R12*%
X69966305Y-44167103D03*
X71791305Y-44167103D03*
%TD*%
D33*
%TO.C,C301*%
X63890305Y-84587603D03*
X63890305Y-82862603D03*
%TD*%
D21*
%TO.C,D52*%
X45101805Y-91707103D03*
X45101805Y-95707103D03*
%TD*%
D10*
%TO.C,D2*%
X68998714Y-100994808D03*
X68998714Y-103044808D03*
%TD*%
D14*
%TO.C,D71*%
X45101805Y-58405103D03*
X45101805Y-54405103D03*
%TD*%
D34*
%TO.C,C1*%
X65981805Y-74327103D03*
X64846805Y-74327103D03*
%TD*%
D35*
%TO.C,C302*%
X55000305Y-77401603D03*
X55000305Y-79126603D03*
%TD*%
D14*
%TO.C,D12*%
X74815805Y-43405103D03*
X74815805Y-39405103D03*
%TD*%
D36*
%TO.C,U3*%
X63970305Y-96298103D03*
X63970305Y-93758103D03*
X63970305Y-91218103D03*
X63970305Y-88678103D03*
X54920305Y-88678103D03*
X54920305Y-91218103D03*
X54920305Y-93758103D03*
X54920305Y-96298103D03*
%TD*%
D37*
%TO.C,D301*%
X62282305Y-59079103D03*
X62282305Y-56539103D03*
X56132305Y-56539103D03*
X56132305Y-59079103D03*
%TD*%
D16*
%TO.C,Q22*%
X69941305Y-53899103D03*
X69941305Y-55799103D03*
X71816305Y-54849103D03*
%TD*%
D23*
%TO.C,C3*%
X62578716Y-71955692D03*
X61899894Y-72634514D03*
%TD*%
D13*
%TO.C,R61*%
X49951305Y-74294103D03*
X48126305Y-74294103D03*
%TD*%
D38*
%TO.C,SW1*%
X78996305Y-102941103D03*
X71046305Y-102941103D03*
X78996305Y-98441103D03*
X71046305Y-98441103D03*
%TD*%
D39*
%TO.C,D1*%
X66581305Y-92477103D03*
X66581305Y-90377103D03*
%TD*%
D13*
%TO.C,R73*%
X49951305Y-57643103D03*
X48126305Y-57643103D03*
%TD*%
D12*
%TO.C,R31*%
X69966305Y-75818103D03*
X71791305Y-75818103D03*
%TD*%
D27*
%TO.C,D502*%
X65200305Y-48072603D03*
X61200305Y-48072603D03*
%TD*%
D14*
%TO.C,D42*%
X74815805Y-88405103D03*
X74815805Y-84405103D03*
%TD*%
D12*
%TO.C,R33*%
X69966305Y-77469103D03*
X71791305Y-77469103D03*
%TD*%
D16*
%TO.C,Q31*%
X69941305Y-79313103D03*
X69941305Y-81213103D03*
X71816305Y-80263103D03*
%TD*%
M02*
