M48
; DRILL file {KiCad 7.0.7} date Tue Feb 20 00:19:48 2024
; FORMAT={-:-/ absolute / inch / decimal}
; #@! TF.CreationDate,2024-02-20T00:19:48+01:00
; #@! TF.GenerationSoftware,Kicad,Pcbnew,7.0.7
; #@! TF.FileFunction,Plated,1,2,PTH
FMAT,2
INCH
; #@! TA.AperFunction,Plated,PTH,ViaDrill
T1C0.0157
; #@! TA.AperFunction,Plated,PTH,ComponentDrill
T2C0.0394
; #@! TA.AperFunction,Plated,PTH,ComponentDrill
T3C0.0472
%
G90
G05
T1
X2.89Y-4.53
X2.97Y-4.09
X3.095Y-4.49
X3.185Y-4.405
X3.215Y-3.93
X3.23Y-4.365
X3.285Y-4.5
X3.35Y-4.43
X3.35Y-4.5
X3.485Y-4.43
X3.485Y-4.5
X3.555Y-4.49
X3.5822Y-3.584
X3.635Y-4.425
X3.6872Y-3.5772
X3.72Y-4.485
X3.77Y-3.935
X3.9Y-4.255
X4.125Y-4.29
X4.1974Y-4.5012
X4.2717Y-4.311
X4.495Y-4.455
X4.565Y-4.4
X4.645Y-4.525
X4.7273Y-4.3309
X4.815Y-4.115
X4.915Y-4.51
X4.92Y-4.115
T2
X3.8094Y-4.1678
X3.9094Y-4.1678
X4.0094Y-4.1678
T3
X3.2105Y-4.0333
X3.2105Y-4.1711
X4.6595Y-4.0289
X4.6595Y-4.1667
T0
M30
