%TF.GenerationSoftware,KiCad,Pcbnew,7.0.11*%
%TF.CreationDate,2024-05-04T00:10:21+02:00*%
%TF.ProjectId,OS-servoDriver_relay,4f532d73-6572-4766-9f44-72697665725f,rev?*%
%TF.SameCoordinates,Original*%
%TF.FileFunction,Legend,Bot*%
%TF.FilePolarity,Positive*%
%FSLAX46Y46*%
G04 Gerber Fmt 4.6, Leading zero omitted, Abs format (unit mm)*
G04 Created by KiCad (PCBNEW 7.0.11) date 2024-05-04 00:10:21*
%MOMM*%
%LPD*%
G01*
G04 APERTURE LIST*
%ADD10C,0.010000*%
%ADD11C,3.200000*%
%ADD12R,2.600000X2.600000*%
%ADD13C,2.600000*%
%ADD14R,1.700000X1.700000*%
%ADD15O,1.700000X1.700000*%
G04 APERTURE END LIST*
%TO.C,G\u002A\u002A\u002A*%
G36*
X207891313Y-119321426D02*
G01*
X207891313Y-119700369D01*
X207512370Y-119700369D01*
X207133427Y-119700369D01*
X207133427Y-119321426D01*
X207133427Y-118942483D01*
X207512370Y-118942483D01*
X207891313Y-118942483D01*
X207891313Y-119321426D01*
G37*
G36*
X213954399Y-121595083D02*
G01*
X213954399Y-122731912D01*
X212817570Y-122731912D01*
X211680741Y-122731912D01*
X211680741Y-121595083D01*
X211680741Y-120458255D01*
X212817570Y-120458255D01*
X213954399Y-120458255D01*
X213954399Y-121595083D01*
G37*
G36*
X197280912Y-121595083D02*
G01*
X197280912Y-122731912D01*
X196144083Y-122731912D01*
X195007255Y-122731912D01*
X195007255Y-121595083D01*
X195007255Y-120458255D01*
X196144083Y-120458255D01*
X197280912Y-120458255D01*
X197280912Y-121595083D01*
G37*
G36*
X195007255Y-125384512D02*
G01*
X195007255Y-125763455D01*
X194249369Y-125763455D01*
X193491483Y-125763455D01*
X193491483Y-125384512D01*
X193491483Y-125005569D01*
X194249369Y-125005569D01*
X195007255Y-125005569D01*
X195007255Y-125384512D01*
G37*
G36*
X207133427Y-126900284D02*
G01*
X207133427Y-127279226D01*
X206754484Y-127279226D01*
X206375541Y-127279226D01*
X206375541Y-126900284D01*
X206375541Y-126521341D01*
X206754484Y-126521341D01*
X207133427Y-126521341D01*
X207133427Y-126900284D01*
G37*
G36*
X201070341Y-127658169D02*
G01*
X201070341Y-128037112D01*
X200691398Y-128037112D01*
X200312455Y-128037112D01*
X200312455Y-127658169D01*
X200312455Y-127279226D01*
X200691398Y-127279226D01*
X201070341Y-127279226D01*
X201070341Y-127658169D01*
G37*
G36*
X201828226Y-128416055D02*
G01*
X201828226Y-128794998D01*
X201449284Y-128794998D01*
X201070341Y-128794998D01*
X201070341Y-128416055D01*
X201070341Y-128037112D01*
X201449284Y-128037112D01*
X201828226Y-128037112D01*
X201828226Y-128416055D01*
G37*
G36*
X199554569Y-128416055D02*
G01*
X199554569Y-128794998D01*
X198796683Y-128794998D01*
X198038798Y-128794998D01*
X198038798Y-128416055D01*
X198038798Y-128037112D01*
X198796683Y-128037112D01*
X199554569Y-128037112D01*
X199554569Y-128416055D01*
G37*
G36*
X194249369Y-129173941D02*
G01*
X194249369Y-129552884D01*
X193870426Y-129552884D01*
X193491483Y-129552884D01*
X193491483Y-129173941D01*
X193491483Y-128794998D01*
X193870426Y-128794998D01*
X194249369Y-128794998D01*
X194249369Y-129173941D01*
G37*
G36*
X200312455Y-129931827D02*
G01*
X200312455Y-130310769D01*
X198796683Y-130310769D01*
X197280912Y-130310769D01*
X197280912Y-129931827D01*
X197280912Y-129552884D01*
X198796683Y-129552884D01*
X200312455Y-129552884D01*
X200312455Y-129931827D01*
G37*
G36*
X210922856Y-131447598D02*
G01*
X210922856Y-131826541D01*
X210164970Y-131826541D01*
X209407084Y-131826541D01*
X209407084Y-131447598D01*
X209407084Y-131068655D01*
X210164970Y-131068655D01*
X210922856Y-131068655D01*
X210922856Y-131447598D01*
G37*
G36*
X194249369Y-131447598D02*
G01*
X194249369Y-131826541D01*
X193870426Y-131826541D01*
X193491483Y-131826541D01*
X193491483Y-131447598D01*
X193491483Y-131068655D01*
X193870426Y-131068655D01*
X194249369Y-131068655D01*
X194249369Y-131447598D01*
G37*
G36*
X203343998Y-135237027D02*
G01*
X203343998Y-135615970D01*
X202965055Y-135615970D01*
X202586112Y-135615970D01*
X202586112Y-135237027D01*
X202586112Y-134858084D01*
X202965055Y-134858084D01*
X203343998Y-134858084D01*
X203343998Y-135237027D01*
G37*
G36*
X210922856Y-135994913D02*
G01*
X210922856Y-136373856D01*
X210543913Y-136373856D01*
X210164970Y-136373856D01*
X210164970Y-135994913D01*
X210164970Y-135615970D01*
X210543913Y-135615970D01*
X210922856Y-135615970D01*
X210922856Y-135994913D01*
G37*
G36*
X204859769Y-136752798D02*
G01*
X204859769Y-137131741D01*
X204480827Y-137131741D01*
X204101884Y-137131741D01*
X204101884Y-136752798D01*
X204101884Y-136373856D01*
X204480827Y-136373856D01*
X204859769Y-136373856D01*
X204859769Y-136752798D01*
G37*
G36*
X202586112Y-137510684D02*
G01*
X202586112Y-137889627D01*
X202207169Y-137889627D01*
X201828226Y-137889627D01*
X201828226Y-137510684D01*
X201828226Y-137131741D01*
X202207169Y-137131741D01*
X202586112Y-137131741D01*
X202586112Y-137510684D01*
G37*
G36*
X197280912Y-138268570D02*
G01*
X197280912Y-139405399D01*
X196144083Y-139405399D01*
X195007255Y-139405399D01*
X195007255Y-138268570D01*
X195007255Y-137131741D01*
X196144083Y-137131741D01*
X197280912Y-137131741D01*
X197280912Y-138268570D01*
G37*
G36*
X202586112Y-140542227D02*
G01*
X202586112Y-140921170D01*
X202207169Y-140921170D01*
X201828226Y-140921170D01*
X201828226Y-140542227D01*
X201828226Y-140163284D01*
X202207169Y-140163284D01*
X202586112Y-140163284D01*
X202586112Y-140542227D01*
G37*
G36*
X207133427Y-125384512D02*
G01*
X207133427Y-125763455D01*
X206754484Y-125763455D01*
X206375541Y-125763455D01*
X206375541Y-126142398D01*
X206375541Y-126521341D01*
X205617655Y-126521341D01*
X204859769Y-126521341D01*
X204859769Y-126142398D01*
X204859769Y-125763455D01*
X205238712Y-125763455D01*
X205617655Y-125763455D01*
X205617655Y-125384512D01*
X205617655Y-125005569D01*
X206375541Y-125005569D01*
X207133427Y-125005569D01*
X207133427Y-125384512D01*
G37*
G36*
X210966163Y-118942483D02*
G01*
X212817570Y-118942483D01*
X215470170Y-118942483D01*
X215470170Y-121595083D01*
X215470170Y-124247683D01*
X212817570Y-124247683D01*
X210164970Y-124247683D01*
X210164970Y-121595083D01*
X210164970Y-119743677D01*
X210966163Y-119743677D01*
X210966163Y-121595083D01*
X210966163Y-123446490D01*
X212817570Y-123446490D01*
X214668977Y-123446490D01*
X214668977Y-121595083D01*
X214668977Y-119743677D01*
X212817570Y-119743677D01*
X210966163Y-119743677D01*
X210164970Y-119743677D01*
X210164970Y-118942483D01*
X210966163Y-118942483D01*
G37*
G36*
X194292677Y-118942483D02*
G01*
X196144083Y-118942483D01*
X198796683Y-118942483D01*
X198796683Y-121595083D01*
X198796683Y-124247683D01*
X196144083Y-124247683D01*
X193491483Y-124247683D01*
X193491483Y-121595083D01*
X193491483Y-119743677D01*
X194292677Y-119743677D01*
X194292677Y-121595083D01*
X194292677Y-123446490D01*
X196144083Y-123446490D01*
X197995490Y-123446490D01*
X197995490Y-121595083D01*
X197995490Y-119743677D01*
X196144083Y-119743677D01*
X194292677Y-119743677D01*
X193491483Y-119743677D01*
X193491483Y-118942483D01*
X194292677Y-118942483D01*
G37*
G36*
X194292677Y-135615970D02*
G01*
X196144083Y-135615970D01*
X198796683Y-135615970D01*
X198796683Y-138268570D01*
X198796683Y-140921170D01*
X196144083Y-140921170D01*
X193491483Y-140921170D01*
X193491483Y-138268570D01*
X193491483Y-136417163D01*
X194292677Y-136417163D01*
X194292677Y-138268570D01*
X194292677Y-140119977D01*
X196144083Y-140119977D01*
X197995490Y-140119977D01*
X197995490Y-138268570D01*
X197995490Y-136417163D01*
X196144083Y-136417163D01*
X194292677Y-136417163D01*
X193491483Y-136417163D01*
X193491483Y-135615970D01*
X194292677Y-135615970D01*
G37*
G36*
X201828226Y-139405399D02*
G01*
X201828226Y-140163284D01*
X201449284Y-140163284D01*
X201070341Y-140163284D01*
X201070341Y-140542227D01*
X201070341Y-140921170D01*
X200312455Y-140921170D01*
X199554569Y-140921170D01*
X199554569Y-140163284D01*
X199554569Y-139405399D01*
X199933512Y-139405399D01*
X200312455Y-139405399D01*
X200312455Y-139784342D01*
X200312455Y-140163284D01*
X200691398Y-140163284D01*
X201070341Y-140163284D01*
X201070341Y-139405399D01*
X201070341Y-138647513D01*
X201449284Y-138647513D01*
X201828226Y-138647513D01*
X201828226Y-139405399D01*
G37*
G36*
X209028141Y-123489798D02*
G01*
X209407084Y-123489798D01*
X209407084Y-123868740D01*
X209407084Y-124247683D01*
X209028141Y-124247683D01*
X208649198Y-124247683D01*
X208649198Y-124626626D01*
X208649198Y-125005569D01*
X208270255Y-125005569D01*
X207891313Y-125005569D01*
X207891313Y-124626626D01*
X207891313Y-124247683D01*
X208270255Y-124247683D01*
X208649198Y-124247683D01*
X208649198Y-123868740D01*
X208649198Y-123489798D01*
X209028141Y-123489798D01*
G37*
G36*
X206375541Y-120079312D02*
G01*
X206375541Y-120458255D01*
X207512370Y-120458255D01*
X208649198Y-120458255D01*
X208649198Y-120079312D01*
X208649198Y-119700369D01*
X209028141Y-119700369D01*
X209407084Y-119700369D01*
X209407084Y-120079312D01*
X209407084Y-120458255D01*
X209028141Y-120458255D01*
X208649198Y-120458255D01*
X208649198Y-120837197D01*
X208649198Y-121216140D01*
X208270255Y-121216140D01*
X207891313Y-121216140D01*
X207891313Y-121595083D01*
X207891313Y-121974026D01*
X207133427Y-121974026D01*
X206375541Y-121974026D01*
X206375541Y-123110855D01*
X206375541Y-124247683D01*
X205996598Y-124247683D01*
X205617655Y-124247683D01*
X205617655Y-122731912D01*
X205617655Y-121216140D01*
X205996598Y-121216140D01*
X206375541Y-121216140D01*
X206375541Y-120837197D01*
X206375541Y-120458255D01*
X205617655Y-120458255D01*
X204859769Y-120458255D01*
X204859769Y-122352969D01*
X204859769Y-124247683D01*
X204480827Y-124247683D01*
X204101884Y-124247683D01*
X204101884Y-121974026D01*
X204101884Y-119700369D01*
X205238712Y-119700369D01*
X206375541Y-119700369D01*
X206375541Y-120079312D01*
G37*
G36*
X209028141Y-121216140D02*
G01*
X209407084Y-121216140D01*
X209407084Y-121974026D01*
X209407084Y-122731912D01*
X209028141Y-122731912D01*
X208649198Y-122731912D01*
X208649198Y-123110855D01*
X208649198Y-123489798D01*
X208270255Y-123489798D01*
X207891313Y-123489798D01*
X207891313Y-123868740D01*
X207891313Y-124247683D01*
X207512370Y-124247683D01*
X207133427Y-124247683D01*
X207133427Y-123489798D01*
X207133427Y-122731912D01*
X207891313Y-122731912D01*
X208649198Y-122731912D01*
X208649198Y-121974026D01*
X208649198Y-121216140D01*
X209028141Y-121216140D01*
G37*
G36*
X203343998Y-122352969D02*
G01*
X203343998Y-125005569D01*
X204101884Y-125005569D01*
X204859769Y-125005569D01*
X204859769Y-125384512D01*
X204859769Y-125763455D01*
X204101884Y-125763455D01*
X203343998Y-125763455D01*
X203343998Y-126142398D01*
X203343998Y-126521341D01*
X203722941Y-126521341D01*
X204101884Y-126521341D01*
X204101884Y-126900284D01*
X204101884Y-127279226D01*
X203722941Y-127279226D01*
X203343998Y-127279226D01*
X203343998Y-127658169D01*
X203343998Y-128037112D01*
X203722941Y-128037112D01*
X204101884Y-128037112D01*
X204101884Y-127658169D01*
X204101884Y-127279226D01*
X204480827Y-127279226D01*
X204859769Y-127279226D01*
X204859769Y-128037112D01*
X204859769Y-128794998D01*
X204101884Y-128794998D01*
X203343998Y-128794998D01*
X203343998Y-129552884D01*
X203343998Y-130310769D01*
X202965055Y-130310769D01*
X202586112Y-130310769D01*
X202586112Y-130689712D01*
X202586112Y-131068655D01*
X202207169Y-131068655D01*
X201828226Y-131068655D01*
X201828226Y-131826541D01*
X201828226Y-132584427D01*
X202207169Y-132584427D01*
X202586112Y-132584427D01*
X202586112Y-132205484D01*
X202586112Y-131826541D01*
X202965055Y-131826541D01*
X203343998Y-131826541D01*
X203343998Y-131068655D01*
X203343998Y-130310769D01*
X203722941Y-130310769D01*
X204101884Y-130310769D01*
X204101884Y-130689712D01*
X204101884Y-131068655D01*
X204859769Y-131068655D01*
X205238712Y-131068655D01*
X206375541Y-131068655D01*
X206375541Y-130689712D01*
X206375541Y-130310769D01*
X205996598Y-130310769D01*
X205617655Y-130310769D01*
X205617655Y-129552884D01*
X205617655Y-128794998D01*
X205996598Y-128794998D01*
X206375541Y-128794998D01*
X206375541Y-129552884D01*
X206375541Y-130310769D01*
X206754484Y-130310769D01*
X207133427Y-130310769D01*
X207133427Y-129552884D01*
X207133427Y-128794998D01*
X207512370Y-128794998D01*
X207891313Y-128794998D01*
X207891313Y-129552884D01*
X207891313Y-130310769D01*
X208270255Y-130310769D01*
X208649198Y-130310769D01*
X208649198Y-130689712D01*
X208649198Y-131068655D01*
X207512370Y-131068655D01*
X206375541Y-131068655D01*
X206375541Y-131447598D01*
X206375541Y-131826541D01*
X207512370Y-131826541D01*
X208649198Y-131826541D01*
X208649198Y-132205484D01*
X208649198Y-132584427D01*
X209028141Y-132584427D01*
X209407084Y-132584427D01*
X209407084Y-133342313D01*
X209407084Y-134100198D01*
X209786027Y-134100198D01*
X210164970Y-134100198D01*
X210164970Y-133721255D01*
X210164970Y-133342313D01*
X210543913Y-133342313D01*
X210922856Y-133342313D01*
X210922856Y-133721255D01*
X210922856Y-134100198D01*
X211680741Y-134100198D01*
X212438627Y-134100198D01*
X212438627Y-133721255D01*
X212438627Y-133342313D01*
X211680741Y-133342313D01*
X210922856Y-133342313D01*
X210922856Y-132963370D01*
X210922856Y-132584427D01*
X211301798Y-132584427D01*
X211680741Y-132584427D01*
X211680741Y-132205484D01*
X211680741Y-131826541D01*
X212059684Y-131826541D01*
X212438627Y-131826541D01*
X212438627Y-131447598D01*
X212438627Y-131068655D01*
X212059684Y-131068655D01*
X211680741Y-131068655D01*
X211680741Y-130310769D01*
X211680741Y-129552884D01*
X212817570Y-129552884D01*
X213954399Y-129552884D01*
X213954399Y-129173941D01*
X213954399Y-128794998D01*
X214333342Y-128794998D01*
X214712284Y-128794998D01*
X214712284Y-128037112D01*
X214712284Y-127279226D01*
X213575456Y-127279226D01*
X212438627Y-127279226D01*
X212438627Y-127658169D01*
X212438627Y-128037112D01*
X212817570Y-128037112D01*
X213196513Y-128037112D01*
X213196513Y-128416055D01*
X213196513Y-128794998D01*
X212059684Y-128794998D01*
X210922856Y-128794998D01*
X210922856Y-129173941D01*
X210922856Y-129552884D01*
X209786027Y-129552884D01*
X208649198Y-129552884D01*
X208649198Y-129173941D01*
X208649198Y-128794998D01*
X209028141Y-128794998D01*
X209407084Y-128794998D01*
X209407084Y-128416055D01*
X209407084Y-128037112D01*
X209786027Y-128037112D01*
X210164970Y-128037112D01*
X210164970Y-128416055D01*
X210164970Y-128794998D01*
X210543913Y-128794998D01*
X210922856Y-128794998D01*
X210922856Y-128416055D01*
X210922856Y-128037112D01*
X211301798Y-128037112D01*
X211680741Y-128037112D01*
X211680741Y-127658169D01*
X211680741Y-127279226D01*
X209786027Y-127279226D01*
X207891313Y-127279226D01*
X207891313Y-126521341D01*
X207891313Y-125763455D01*
X208649198Y-125763455D01*
X209407084Y-125763455D01*
X210164970Y-125763455D01*
X210164970Y-126142398D01*
X210164970Y-126521341D01*
X210543913Y-126521341D01*
X210922856Y-126521341D01*
X210922856Y-126142398D01*
X210922856Y-125763455D01*
X210543913Y-125763455D01*
X210164970Y-125763455D01*
X209407084Y-125763455D01*
X209407084Y-125384512D01*
X209407084Y-125005569D01*
X210164970Y-125005569D01*
X210543913Y-125005569D01*
X211680741Y-125005569D01*
X211680741Y-125384512D01*
X211680741Y-125763455D01*
X212059684Y-125763455D01*
X212438627Y-125763455D01*
X212438627Y-126142398D01*
X212438627Y-126521341D01*
X212817570Y-126521341D01*
X213196513Y-126521341D01*
X213196513Y-126142398D01*
X213196513Y-125763455D01*
X212817570Y-125763455D01*
X212438627Y-125763455D01*
X212438627Y-125384512D01*
X212438627Y-125005569D01*
X213196513Y-125005569D01*
X213954399Y-125005569D01*
X213954399Y-125384512D01*
X213954399Y-125763455D01*
X214333342Y-125763455D01*
X214712284Y-125763455D01*
X214712284Y-125384512D01*
X214712284Y-125005569D01*
X215091227Y-125005569D01*
X215470170Y-125005569D01*
X215470170Y-125384512D01*
X215470170Y-125763455D01*
X215091227Y-125763455D01*
X214712284Y-125763455D01*
X214712284Y-126142398D01*
X214712284Y-126521341D01*
X215091227Y-126521341D01*
X215470170Y-126521341D01*
X215470170Y-128416055D01*
X215470170Y-130310769D01*
X215091227Y-130310769D01*
X214712284Y-130310769D01*
X214712284Y-129931827D01*
X214712284Y-129552884D01*
X214333342Y-129552884D01*
X213954399Y-129552884D01*
X213954399Y-129931827D01*
X213954399Y-130310769D01*
X213575456Y-130310769D01*
X213196513Y-130310769D01*
X213196513Y-131068655D01*
X213196513Y-131826541D01*
X212817570Y-131826541D01*
X212438627Y-131826541D01*
X212438627Y-132584427D01*
X212438627Y-133342313D01*
X212817570Y-133342313D01*
X213196513Y-133342313D01*
X213196513Y-132963370D01*
X213196513Y-132584427D01*
X213575456Y-132584427D01*
X213954399Y-132584427D01*
X213954399Y-133342313D01*
X213954399Y-134100198D01*
X214333342Y-134100198D01*
X214712284Y-134100198D01*
X214712284Y-132584427D01*
X214712284Y-131068655D01*
X215091227Y-131068655D01*
X215470170Y-131068655D01*
X215470170Y-133721255D01*
X215470170Y-136373856D01*
X215091227Y-136373856D01*
X214712284Y-136373856D01*
X214712284Y-135994913D01*
X214712284Y-135615970D01*
X214333342Y-135615970D01*
X213954399Y-135615970D01*
X213954399Y-135237027D01*
X213954399Y-134858084D01*
X213575456Y-134858084D01*
X213196513Y-134858084D01*
X213196513Y-135237027D01*
X213196513Y-135615970D01*
X212817570Y-135615970D01*
X212438627Y-135615970D01*
X212438627Y-136373856D01*
X212438627Y-137131741D01*
X212817570Y-137131741D01*
X213196513Y-137131741D01*
X213196513Y-136752798D01*
X213196513Y-136373856D01*
X213575456Y-136373856D01*
X213954399Y-136373856D01*
X213954399Y-136752798D01*
X213954399Y-137131741D01*
X213575456Y-137131741D01*
X213196513Y-137131741D01*
X213196513Y-137889627D01*
X213196513Y-138647513D01*
X212817570Y-138647513D01*
X212438627Y-138647513D01*
X212438627Y-139405399D01*
X212438627Y-140163284D01*
X213196513Y-140163284D01*
X213954399Y-140163284D01*
X213954399Y-139784342D01*
X213954399Y-139405399D01*
X214712284Y-139405399D01*
X215470170Y-139405399D01*
X215470170Y-139784342D01*
X215470170Y-140163284D01*
X214712284Y-140163284D01*
X213954399Y-140163284D01*
X213954399Y-140542227D01*
X213954399Y-140921170D01*
X212438627Y-140921170D01*
X210922856Y-140921170D01*
X210922856Y-140542227D01*
X210922856Y-140163284D01*
X210543913Y-140163284D01*
X210164970Y-140163284D01*
X210164970Y-140542227D01*
X210164970Y-140921170D01*
X209786027Y-140921170D01*
X209407084Y-140921170D01*
X209407084Y-140163284D01*
X209407084Y-139405399D01*
X210164970Y-139405399D01*
X210922856Y-139405399D01*
X211680741Y-139405399D01*
X211680741Y-139026456D01*
X211680741Y-138647513D01*
X212059684Y-138647513D01*
X212438627Y-138647513D01*
X212438627Y-138268570D01*
X212438627Y-137889627D01*
X212059684Y-137889627D01*
X211680741Y-137889627D01*
X211680741Y-138268570D01*
X211680741Y-138647513D01*
X210922856Y-138647513D01*
X210164970Y-138647513D01*
X210164970Y-139026456D01*
X210164970Y-139405399D01*
X209407084Y-139405399D01*
X208270255Y-139405399D01*
X207133427Y-139405399D01*
X207133427Y-139784342D01*
X207133427Y-140163284D01*
X205996598Y-140163284D01*
X204859769Y-140163284D01*
X204859769Y-140542227D01*
X204859769Y-140921170D01*
X204101884Y-140921170D01*
X203343998Y-140921170D01*
X203343998Y-140163284D01*
X203343998Y-139405399D01*
X202965055Y-139405399D01*
X202586112Y-139405399D01*
X202586112Y-138647513D01*
X202586112Y-137889627D01*
X202965055Y-137889627D01*
X203343998Y-137889627D01*
X203343998Y-138268570D01*
X203343998Y-138647513D01*
X204101884Y-138647513D01*
X204859769Y-138647513D01*
X204859769Y-139026456D01*
X204859769Y-139405399D01*
X205617655Y-139405399D01*
X206375541Y-139405399D01*
X206375541Y-139026456D01*
X206375541Y-138647513D01*
X205996598Y-138647513D01*
X205617655Y-138647513D01*
X205617655Y-138268570D01*
X205617655Y-137889627D01*
X205238712Y-137889627D01*
X204859769Y-137889627D01*
X204859769Y-137510684D01*
X204859769Y-137131741D01*
X205238712Y-137131741D01*
X205617655Y-137131741D01*
X205617655Y-136752798D01*
X205617655Y-136373856D01*
X206375541Y-136373856D01*
X207133427Y-136373856D01*
X207133427Y-136752798D01*
X207133427Y-137131741D01*
X206754484Y-137131741D01*
X206375541Y-137131741D01*
X206375541Y-137510684D01*
X206375541Y-137889627D01*
X206754484Y-137889627D01*
X207133427Y-137889627D01*
X207133427Y-138268570D01*
X207133427Y-138647513D01*
X207891313Y-138647513D01*
X208649198Y-138647513D01*
X208649198Y-137889627D01*
X208649198Y-137131741D01*
X208270255Y-137131741D01*
X207891313Y-137131741D01*
X207891313Y-136373856D01*
X207891313Y-135615970D01*
X206754484Y-135615970D01*
X205617655Y-135615970D01*
X205617655Y-135237027D01*
X205617655Y-134858084D01*
X205238712Y-134858084D01*
X204859769Y-134858084D01*
X204859769Y-135237027D01*
X204859769Y-135615970D01*
X204480827Y-135615970D01*
X204101884Y-135615970D01*
X204101884Y-135994913D01*
X204101884Y-136373856D01*
X203722941Y-136373856D01*
X203343998Y-136373856D01*
X203343998Y-135994913D01*
X203343998Y-135615970D01*
X203722941Y-135615970D01*
X204101884Y-135615970D01*
X204101884Y-135237027D01*
X204101884Y-134858084D01*
X204480827Y-134858084D01*
X204859769Y-134858084D01*
X204859769Y-134479141D01*
X204859769Y-134100198D01*
X204101884Y-134100198D01*
X203343998Y-134100198D01*
X203343998Y-133721255D01*
X203343998Y-133342313D01*
X203722941Y-133342313D01*
X204101884Y-133342313D01*
X204101884Y-132584427D01*
X204101884Y-131826541D01*
X204859769Y-131826541D01*
X204859769Y-132584427D01*
X204859769Y-133342313D01*
X205238712Y-133342313D01*
X205617655Y-133342313D01*
X205617655Y-132584427D01*
X206375541Y-132584427D01*
X206375541Y-133342313D01*
X206375541Y-134100198D01*
X207133427Y-134100198D01*
X207891313Y-134100198D01*
X207891313Y-134479141D01*
X207891313Y-134858084D01*
X208270255Y-134858084D01*
X208649198Y-134858084D01*
X209407084Y-134858084D01*
X209407084Y-135994913D01*
X209407084Y-137131741D01*
X210543913Y-137131741D01*
X211680741Y-137131741D01*
X211680741Y-135994913D01*
X211680741Y-134858084D01*
X210543913Y-134858084D01*
X209407084Y-134858084D01*
X208649198Y-134858084D01*
X208649198Y-134100198D01*
X208649198Y-133342313D01*
X208270255Y-133342313D01*
X207891313Y-133342313D01*
X207891313Y-132963370D01*
X207891313Y-132584427D01*
X207133427Y-132584427D01*
X206375541Y-132584427D01*
X205617655Y-132584427D01*
X205617655Y-131826541D01*
X205238712Y-131826541D01*
X204859769Y-131826541D01*
X204101884Y-131826541D01*
X203722941Y-131826541D01*
X203343998Y-131826541D01*
X203343998Y-132584427D01*
X203343998Y-133342313D01*
X202207169Y-133342313D01*
X201070341Y-133342313D01*
X201070341Y-134100198D01*
X201070341Y-134858084D01*
X201449284Y-134858084D01*
X201828226Y-134858084D01*
X201828226Y-135615970D01*
X201828226Y-136373856D01*
X201449284Y-136373856D01*
X201070341Y-136373856D01*
X201070341Y-137131741D01*
X201070341Y-137889627D01*
X200691398Y-137889627D01*
X200312455Y-137889627D01*
X200312455Y-138268570D01*
X200312455Y-138647513D01*
X199933512Y-138647513D01*
X199554569Y-138647513D01*
X199554569Y-138268570D01*
X199554569Y-137889627D01*
X199933512Y-137889627D01*
X200312455Y-137889627D01*
X200312455Y-137131741D01*
X200312455Y-136373856D01*
X199933512Y-136373856D01*
X199554569Y-136373856D01*
X199554569Y-135994913D01*
X199554569Y-135615970D01*
X199933512Y-135615970D01*
X200312455Y-135615970D01*
X200312455Y-134858084D01*
X200312455Y-134100198D01*
X199933512Y-134100198D01*
X199554569Y-134100198D01*
X199554569Y-133721255D01*
X199554569Y-133342313D01*
X198796683Y-133342313D01*
X198038798Y-133342313D01*
X198038798Y-133721255D01*
X198038798Y-134100198D01*
X198417740Y-134100198D01*
X198796683Y-134100198D01*
X198796683Y-134479141D01*
X198796683Y-134858084D01*
X197659855Y-134858084D01*
X196523026Y-134858084D01*
X196523026Y-134479141D01*
X196523026Y-134100198D01*
X196144083Y-134100198D01*
X195765140Y-134100198D01*
X195765140Y-134479141D01*
X195765140Y-134858084D01*
X194628312Y-134858084D01*
X193491483Y-134858084D01*
X193491483Y-133721255D01*
X193491483Y-132584427D01*
X193870426Y-132584427D01*
X194249369Y-132584427D01*
X194249369Y-133342313D01*
X194249369Y-134100198D01*
X195007255Y-134100198D01*
X195765140Y-134100198D01*
X195765140Y-133721255D01*
X195765140Y-133342313D01*
X196523026Y-133342313D01*
X197280912Y-133342313D01*
X197280912Y-132584427D01*
X197280912Y-131826541D01*
X198038798Y-131826541D01*
X198038798Y-132205484D01*
X198038798Y-132584427D01*
X198417740Y-132584427D01*
X198796683Y-132584427D01*
X198796683Y-132205484D01*
X198796683Y-131826541D01*
X198417740Y-131826541D01*
X198038798Y-131826541D01*
X197280912Y-131826541D01*
X196901969Y-131826541D01*
X196523026Y-131826541D01*
X196523026Y-132205484D01*
X196523026Y-132584427D01*
X196144083Y-132584427D01*
X195765140Y-132584427D01*
X195765140Y-132963370D01*
X195765140Y-133342313D01*
X195386197Y-133342313D01*
X195007255Y-133342313D01*
X195007255Y-132963370D01*
X195007255Y-132584427D01*
X195386197Y-132584427D01*
X195765140Y-132584427D01*
X195765140Y-132205484D01*
X195765140Y-131826541D01*
X195386197Y-131826541D01*
X195007255Y-131826541D01*
X195007255Y-131068655D01*
X195007255Y-130310769D01*
X194628312Y-130310769D01*
X194249369Y-130310769D01*
X194249369Y-129931827D01*
X194249369Y-129552884D01*
X194628312Y-129552884D01*
X195007255Y-129552884D01*
X195007255Y-128794998D01*
X195765140Y-128794998D01*
X196144083Y-128794998D01*
X196523026Y-128794998D01*
X196523026Y-129552884D01*
X196523026Y-130310769D01*
X196901969Y-130310769D01*
X197280912Y-130310769D01*
X197280912Y-130689712D01*
X197280912Y-131068655D01*
X198038798Y-131068655D01*
X198796683Y-131068655D01*
X200312455Y-131068655D01*
X200312455Y-130689712D01*
X200312455Y-130310769D01*
X200691398Y-130310769D01*
X201070341Y-130310769D01*
X201070341Y-130689712D01*
X201070341Y-131068655D01*
X201449284Y-131068655D01*
X201828226Y-131068655D01*
X201828226Y-129931827D01*
X201828226Y-128794998D01*
X202207169Y-128794998D01*
X202586112Y-128794998D01*
X202586112Y-127658169D01*
X202586112Y-126521341D01*
X202207169Y-126521341D01*
X201828226Y-126521341D01*
X201828226Y-126900284D01*
X201828226Y-127279226D01*
X201449284Y-127279226D01*
X201070341Y-127279226D01*
X201070341Y-126900284D01*
X201070341Y-126521341D01*
X199933512Y-126521341D01*
X198796683Y-126521341D01*
X198796683Y-126900284D01*
X198796683Y-127279226D01*
X198417740Y-127279226D01*
X198038798Y-127279226D01*
X198038798Y-127658169D01*
X198038798Y-128037112D01*
X197280912Y-128037112D01*
X196523026Y-128037112D01*
X196523026Y-127658169D01*
X196523026Y-127279226D01*
X196144083Y-127279226D01*
X195765140Y-127279226D01*
X195765140Y-128037112D01*
X195765140Y-128794998D01*
X195007255Y-128794998D01*
X195007255Y-128037112D01*
X194249369Y-128037112D01*
X193491483Y-128037112D01*
X193491483Y-127279226D01*
X193491483Y-126521341D01*
X193870426Y-126521341D01*
X194249369Y-126521341D01*
X194249369Y-126900284D01*
X194249369Y-127279226D01*
X194628312Y-127279226D01*
X195007255Y-127279226D01*
X195007255Y-126900284D01*
X195007255Y-126521341D01*
X195386197Y-126521341D01*
X195765140Y-126521341D01*
X195765140Y-125763455D01*
X195765140Y-125005569D01*
X196144083Y-125005569D01*
X196523026Y-125005569D01*
X196523026Y-125763455D01*
X196523026Y-126521341D01*
X197659855Y-126521341D01*
X198796683Y-126521341D01*
X198796683Y-126142398D01*
X198796683Y-125763455D01*
X199554569Y-125763455D01*
X200312455Y-125763455D01*
X201070341Y-125763455D01*
X201070341Y-125384512D01*
X201070341Y-125005569D01*
X201449284Y-125005569D01*
X201828226Y-125005569D01*
X201828226Y-125384512D01*
X201828226Y-125763455D01*
X202207169Y-125763455D01*
X202586112Y-125763455D01*
X202586112Y-124247683D01*
X202586112Y-122731912D01*
X202207169Y-122731912D01*
X201828226Y-122731912D01*
X201828226Y-123489798D01*
X201828226Y-124247683D01*
X201449284Y-124247683D01*
X201070341Y-124247683D01*
X201070341Y-123489798D01*
X201070341Y-122731912D01*
X200691398Y-122731912D01*
X200312455Y-122731912D01*
X200312455Y-123489798D01*
X200312455Y-124247683D01*
X200691398Y-124247683D01*
X201070341Y-124247683D01*
X201070341Y-124626626D01*
X201070341Y-125005569D01*
X200312455Y-125005569D01*
X199554569Y-125005569D01*
X199554569Y-125384512D01*
X199554569Y-125763455D01*
X198796683Y-125763455D01*
X198417740Y-125763455D01*
X198038798Y-125763455D01*
X198038798Y-125384512D01*
X198038798Y-125005569D01*
X198796683Y-125005569D01*
X199554569Y-125005569D01*
X199554569Y-123868740D01*
X199554569Y-122731912D01*
X199933512Y-122731912D01*
X200312455Y-122731912D01*
X200312455Y-122352969D01*
X200312455Y-121974026D01*
X201449284Y-121974026D01*
X202586112Y-121974026D01*
X202586112Y-120837197D01*
X202586112Y-119700369D01*
X202965055Y-119700369D01*
X203343998Y-119700369D01*
X203343998Y-122352969D01*
G37*
G36*
X214712284Y-137510684D02*
G01*
X214712284Y-137889627D01*
X215091227Y-137889627D01*
X215470170Y-137889627D01*
X215470170Y-138268570D01*
X215470170Y-138647513D01*
X214712284Y-138647513D01*
X213954399Y-138647513D01*
X213954399Y-139026456D01*
X213954399Y-139405399D01*
X213575456Y-139405399D01*
X213196513Y-139405399D01*
X213196513Y-139026456D01*
X213196513Y-138647513D01*
X213575456Y-138647513D01*
X213954399Y-138647513D01*
X213954399Y-137889627D01*
X213954399Y-137131741D01*
X214333342Y-137131741D01*
X214712284Y-137131741D01*
X214712284Y-137510684D01*
G37*
G36*
X207133427Y-128416055D02*
G01*
X207133427Y-128794998D01*
X206754484Y-128794998D01*
X206375541Y-128794998D01*
X206375541Y-128416055D01*
X206375541Y-128037112D01*
X206754484Y-128037112D01*
X207133427Y-128037112D01*
X207133427Y-128416055D01*
G37*
G36*
X201828226Y-119321426D02*
G01*
X201828226Y-119700369D01*
X201449284Y-119700369D01*
X201070341Y-119700369D01*
X201070341Y-120079312D01*
X201070341Y-120458255D01*
X201449284Y-120458255D01*
X201828226Y-120458255D01*
X201828226Y-120837197D01*
X201828226Y-121216140D01*
X201070341Y-121216140D01*
X200312455Y-121216140D01*
X200312455Y-121595083D01*
X200312455Y-121974026D01*
X199933512Y-121974026D01*
X199554569Y-121974026D01*
X199554569Y-121216140D01*
X199554569Y-120458255D01*
X199933512Y-120458255D01*
X200312455Y-120458255D01*
X200312455Y-120079312D01*
X200312455Y-119700369D01*
X199933512Y-119700369D01*
X199554569Y-119700369D01*
X199554569Y-119321426D01*
X199554569Y-118942483D01*
X200691398Y-118942483D01*
X201828226Y-118942483D01*
X201828226Y-119321426D01*
G37*
G36*
X185480200Y-127926826D02*
G01*
X184739769Y-127926826D01*
X184739769Y-127765863D01*
X185480200Y-127765863D01*
X185480200Y-127926826D01*
G37*
G36*
X185480200Y-131017321D02*
G01*
X184739769Y-131017321D01*
X184739769Y-130856357D01*
X185480200Y-130856357D01*
X185480200Y-131017321D01*
G37*
G36*
X184599959Y-127782960D02*
G01*
X184610999Y-127842206D01*
X184605300Y-127896503D01*
X184569248Y-127945043D01*
X184499528Y-127938930D01*
X184467565Y-127914949D01*
X184454714Y-127859189D01*
X184480361Y-127802943D01*
X184538565Y-127771672D01*
X184555786Y-127769792D01*
X184599959Y-127782960D01*
G37*
G36*
X184599959Y-130873454D02*
G01*
X184610999Y-130932700D01*
X184605300Y-130986998D01*
X184569248Y-131035537D01*
X184499528Y-131029424D01*
X184467565Y-131005443D01*
X184454714Y-130949683D01*
X184480361Y-130893438D01*
X184538565Y-130862167D01*
X184555786Y-130860286D01*
X184599959Y-130873454D01*
G37*
G36*
X185088965Y-128894117D02*
G01*
X185111353Y-128919621D01*
X185122841Y-128985732D01*
X185126081Y-129104219D01*
X185124672Y-129203649D01*
X185117260Y-129273547D01*
X185100166Y-129303049D01*
X185069744Y-129305155D01*
X185063014Y-129303287D01*
X185024266Y-129260717D01*
X185002600Y-129181263D01*
X184997599Y-129084825D01*
X185008845Y-128991303D01*
X185035919Y-128920597D01*
X185078406Y-128892606D01*
X185088965Y-128894117D01*
G37*
G36*
X184533105Y-125595077D02*
G01*
X184559408Y-125645474D01*
X184572522Y-125746064D01*
X184582334Y-125898690D01*
X185480200Y-125898690D01*
X185480200Y-126059653D01*
X184578806Y-126059653D01*
X184578806Y-126204520D01*
X184578782Y-126214927D01*
X184573683Y-126300549D01*
X184554657Y-126339908D01*
X184514421Y-126349387D01*
X184495024Y-126347924D01*
X184474129Y-126335418D01*
X184460945Y-126301082D01*
X184453709Y-126234278D01*
X184450660Y-126124368D01*
X184450036Y-125960714D01*
X184450161Y-125880750D01*
X184451892Y-125742072D01*
X184456863Y-125653099D01*
X184466589Y-125603665D01*
X184482588Y-125583601D01*
X184506373Y-125582740D01*
X184533105Y-125595077D01*
G37*
G36*
X185480200Y-126526446D02*
G01*
X185479549Y-126551846D01*
X185469539Y-126583037D01*
X185436440Y-126599462D01*
X185366488Y-126605849D01*
X185245919Y-126606928D01*
X185213100Y-126607180D01*
X185052385Y-126619900D01*
X184945818Y-126654305D01*
X184886752Y-126713830D01*
X184868540Y-126801909D01*
X184868013Y-126823717D01*
X184851633Y-126881127D01*
X184804155Y-126896662D01*
X184776259Y-126889621D01*
X184743074Y-126841033D01*
X184741196Y-126761524D01*
X184773095Y-126669197D01*
X184789977Y-126626634D01*
X184773095Y-126606928D01*
X184751174Y-126586940D01*
X184739769Y-126526446D01*
X184739769Y-126445965D01*
X185480200Y-126445965D01*
X185480200Y-126526446D01*
G37*
G36*
X185268703Y-132828760D02*
G01*
X185322957Y-132856270D01*
X185382323Y-132910435D01*
X185414169Y-132944524D01*
X185466144Y-133030930D01*
X185480200Y-133135993D01*
X185466981Y-133237265D01*
X185426764Y-133328669D01*
X185369108Y-133383623D01*
X185303773Y-133388178D01*
X185276932Y-133376547D01*
X185264129Y-133353116D01*
X185298759Y-133307841D01*
X185299642Y-133306857D01*
X185343772Y-133217161D01*
X185344246Y-133115639D01*
X185300841Y-133031661D01*
X185288043Y-133021095D01*
X185205032Y-132990074D01*
X185096878Y-132981495D01*
X184992078Y-132995357D01*
X184919129Y-133031661D01*
X184918260Y-133032538D01*
X184875442Y-133116943D01*
X184876500Y-133218501D01*
X184921211Y-133307841D01*
X184945557Y-133336199D01*
X184954981Y-133366895D01*
X184916197Y-133388178D01*
X184858548Y-133386791D01*
X184799368Y-133337105D01*
X184756371Y-133250146D01*
X184739769Y-133140264D01*
X184754527Y-133026557D01*
X184815042Y-132922926D01*
X184925108Y-132857239D01*
X185087733Y-132826787D01*
X185196215Y-132821277D01*
X185268703Y-132828760D01*
G37*
G36*
X185268703Y-130156770D02*
G01*
X185322957Y-130184280D01*
X185382323Y-130238446D01*
X185414169Y-130272534D01*
X185466144Y-130358940D01*
X185480200Y-130464003D01*
X185466981Y-130565275D01*
X185426764Y-130656679D01*
X185369108Y-130711633D01*
X185303773Y-130716188D01*
X185276932Y-130704558D01*
X185264129Y-130681126D01*
X185298759Y-130635851D01*
X185299642Y-130634868D01*
X185343772Y-130545171D01*
X185344246Y-130443649D01*
X185300841Y-130359671D01*
X185297116Y-130356192D01*
X185221813Y-130321932D01*
X185109985Y-130309082D01*
X185100249Y-130309171D01*
X184990454Y-130323974D01*
X184919129Y-130359671D01*
X184918260Y-130360548D01*
X184875442Y-130444954D01*
X184876500Y-130546511D01*
X184921211Y-130635851D01*
X184945557Y-130664209D01*
X184954981Y-130694905D01*
X184916197Y-130716188D01*
X184858548Y-130714801D01*
X184799368Y-130665115D01*
X184756371Y-130578156D01*
X184739769Y-130468274D01*
X184754527Y-130354567D01*
X184815042Y-130250936D01*
X184925108Y-130185249D01*
X185087733Y-130154798D01*
X185196215Y-130149287D01*
X185268703Y-130156770D01*
G37*
G36*
X185355657Y-126976003D02*
G01*
X185428932Y-127030948D01*
X185451617Y-127078663D01*
X185469821Y-127182945D01*
X185473021Y-127339680D01*
X185468149Y-127578512D01*
X185171661Y-127567561D01*
X185098881Y-127564250D01*
X184944138Y-127548811D01*
X184840404Y-127518703D01*
X184778130Y-127467475D01*
X184747768Y-127388680D01*
X184739769Y-127275868D01*
X184740364Y-127240977D01*
X184757257Y-127108367D01*
X184795209Y-127023277D01*
X184851250Y-126993240D01*
X184855278Y-126993425D01*
X184878184Y-127011254D01*
X184884973Y-127067069D01*
X184877480Y-127173462D01*
X184870689Y-127271753D01*
X184877964Y-127345550D01*
X184903951Y-127382221D01*
X184950663Y-127404829D01*
X185007832Y-127403270D01*
X185025486Y-127364601D01*
X185160870Y-127364601D01*
X185172273Y-127402887D01*
X185212009Y-127411744D01*
X185249033Y-127406337D01*
X185312799Y-127373113D01*
X185338034Y-127331093D01*
X185350708Y-127252413D01*
X185337887Y-127176789D01*
X185300977Y-127132822D01*
X185243434Y-127130629D01*
X185198669Y-127182387D01*
X185168989Y-127293800D01*
X185160870Y-127364601D01*
X185025486Y-127364601D01*
X185029683Y-127355407D01*
X185035723Y-127293152D01*
X185062717Y-127182947D01*
X185102608Y-127079085D01*
X185145690Y-127010422D01*
X185168887Y-126991590D01*
X185243434Y-126967421D01*
X185259537Y-126962200D01*
X185355657Y-126976003D01*
G37*
G36*
X185374052Y-129390370D02*
G01*
X185430086Y-129447044D01*
X185461597Y-129519638D01*
X185478193Y-129643005D01*
X185468535Y-129775557D01*
X185432471Y-129889495D01*
X185377535Y-129958082D01*
X185275564Y-130017825D01*
X185173135Y-130036490D01*
X185073193Y-130010714D01*
X184984305Y-129930108D01*
X184898699Y-129789972D01*
X184855443Y-129712456D01*
X184775245Y-129613034D01*
X184698183Y-129575960D01*
X184625550Y-129602126D01*
X184622703Y-129604675D01*
X184592818Y-129663134D01*
X184579888Y-129746637D01*
X184585439Y-129826611D01*
X184610999Y-129874482D01*
X184641789Y-129915334D01*
X184630914Y-129964182D01*
X184579939Y-129987156D01*
X184579335Y-129987154D01*
X184510240Y-129957476D01*
X184465771Y-129874450D01*
X184450036Y-129745711D01*
X184461551Y-129638455D01*
X184511279Y-129518950D01*
X184590715Y-129440375D01*
X184689357Y-129408297D01*
X184796707Y-129428285D01*
X184902264Y-129505905D01*
X184918568Y-129524088D01*
X184979866Y-129605908D01*
X185015566Y-129674917D01*
X185026271Y-129704849D01*
X185085964Y-129796818D01*
X185164595Y-129849341D01*
X185247370Y-129855853D01*
X185319493Y-129809788D01*
X185326264Y-129799829D01*
X185344002Y-129718991D01*
X185335359Y-129596936D01*
X185301064Y-129447929D01*
X185297068Y-129399892D01*
X185324510Y-129374688D01*
X185374052Y-129390370D01*
G37*
G36*
X185480200Y-128200464D02*
G01*
X185478724Y-128233791D01*
X185465601Y-128260645D01*
X185427642Y-128274689D01*
X185351664Y-128280073D01*
X185224485Y-128280946D01*
X185185304Y-128281042D01*
X185068262Y-128284230D01*
X184995461Y-128294709D01*
X184950920Y-128316217D01*
X184918654Y-128352494D01*
X184907399Y-128369851D01*
X184873399Y-128459380D01*
X184877444Y-128537275D01*
X184919462Y-128583331D01*
X184925840Y-128585288D01*
X184991366Y-128594219D01*
X185097739Y-128600499D01*
X185225292Y-128602872D01*
X185330007Y-128603326D01*
X185415522Y-128607432D01*
X185460257Y-128619359D01*
X185477415Y-128643277D01*
X185480200Y-128683354D01*
X185480194Y-128688524D01*
X185476987Y-128725024D01*
X185459328Y-128747284D01*
X185414734Y-128758826D01*
X185330722Y-128763170D01*
X185194808Y-128763835D01*
X185030568Y-128757925D01*
X184892150Y-128733865D01*
X184802519Y-128687361D01*
X184754213Y-128614257D01*
X184739769Y-128510396D01*
X184740050Y-128495952D01*
X184753219Y-128406795D01*
X184780010Y-128347745D01*
X184804107Y-128311832D01*
X184780010Y-128290335D01*
X184754507Y-128263250D01*
X184739769Y-128197781D01*
X184740988Y-128168057D01*
X184751787Y-128144608D01*
X184783124Y-128130379D01*
X184845962Y-128123067D01*
X184951262Y-128120370D01*
X185109985Y-128119982D01*
X185480200Y-128119982D01*
X185480200Y-128200464D01*
G37*
G36*
X185212586Y-131191139D02*
G01*
X185325779Y-131224456D01*
X185406705Y-131289586D01*
X185416820Y-131302536D01*
X185457354Y-131391069D01*
X185477154Y-131501304D01*
X185477338Y-131616384D01*
X185459024Y-131719454D01*
X185423331Y-131793657D01*
X185371376Y-131822137D01*
X185364067Y-131821535D01*
X185342300Y-131801504D01*
X185335706Y-131743653D01*
X185342295Y-131635189D01*
X185346072Y-131559620D01*
X185329168Y-131435552D01*
X185276960Y-131362914D01*
X185188167Y-131339247D01*
X185173882Y-131340020D01*
X185148313Y-131352746D01*
X185133892Y-131391198D01*
X185127517Y-131468253D01*
X185126081Y-131596788D01*
X185126081Y-131854330D01*
X185027027Y-131854330D01*
X184940471Y-131836702D01*
X184839669Y-131769540D01*
X184767419Y-131668086D01*
X184739769Y-131549377D01*
X184741661Y-131516307D01*
X184868540Y-131516307D01*
X184878712Y-131591044D01*
X184916477Y-131664550D01*
X184971557Y-131693366D01*
X184982152Y-131677595D01*
X184993076Y-131613283D01*
X184997311Y-131516307D01*
X184995017Y-131443466D01*
X184985662Y-131368363D01*
X184971557Y-131339247D01*
X184928073Y-131356731D01*
X184885306Y-131421639D01*
X184868540Y-131516307D01*
X184741661Y-131516307D01*
X184743482Y-131484478D01*
X184787192Y-131342716D01*
X184877233Y-131243928D01*
X184971557Y-131206373D01*
X185010000Y-131191067D01*
X185181890Y-131187087D01*
X185212586Y-131191139D01*
G37*
G36*
X185480200Y-132095774D02*
G01*
X185478724Y-132129101D01*
X185465601Y-132155955D01*
X185427642Y-132169999D01*
X185351664Y-132175383D01*
X185224485Y-132176256D01*
X185185304Y-132176352D01*
X185068262Y-132179541D01*
X184995461Y-132190019D01*
X184950920Y-132211528D01*
X184918654Y-132247804D01*
X184907399Y-132265162D01*
X184873399Y-132354690D01*
X184877444Y-132432586D01*
X184919462Y-132478642D01*
X184925840Y-132480599D01*
X184991366Y-132489530D01*
X185097739Y-132495810D01*
X185225292Y-132498183D01*
X185330007Y-132498637D01*
X185415522Y-132502742D01*
X185460257Y-132514670D01*
X185477415Y-132538587D01*
X185480200Y-132578664D01*
X185480194Y-132583834D01*
X185476987Y-132620334D01*
X185459328Y-132642595D01*
X185414734Y-132654137D01*
X185330722Y-132658480D01*
X185194808Y-132659146D01*
X185030568Y-132653236D01*
X184892150Y-132629175D01*
X184802519Y-132582671D01*
X184754213Y-132509567D01*
X184739769Y-132405707D01*
X184740050Y-132391263D01*
X184753219Y-132302105D01*
X184780010Y-132243056D01*
X184804107Y-132207142D01*
X184780010Y-132185646D01*
X184754507Y-132158561D01*
X184739769Y-132093092D01*
X184740988Y-132063368D01*
X184751787Y-132039918D01*
X184783124Y-132025689D01*
X184845962Y-132018378D01*
X184951262Y-132015680D01*
X185109985Y-132015293D01*
X185480200Y-132015293D01*
X185480200Y-132095774D01*
G37*
G36*
X185212586Y-133509010D02*
G01*
X185325779Y-133542327D01*
X185406705Y-133607457D01*
X185416820Y-133620407D01*
X185457354Y-133708940D01*
X185477154Y-133819174D01*
X185477338Y-133934255D01*
X185459024Y-134037324D01*
X185423331Y-134111527D01*
X185371376Y-134140008D01*
X185364067Y-134139405D01*
X185342300Y-134119375D01*
X185335706Y-134061524D01*
X185342295Y-133953060D01*
X185346072Y-133877491D01*
X185329168Y-133753423D01*
X185276960Y-133680785D01*
X185188167Y-133657118D01*
X185173882Y-133657890D01*
X185148313Y-133670617D01*
X185133892Y-133709069D01*
X185127517Y-133786123D01*
X185126081Y-133914659D01*
X185126081Y-134172200D01*
X185027027Y-134172200D01*
X184940471Y-134154573D01*
X184839669Y-134087411D01*
X184767419Y-133985957D01*
X184739769Y-133867248D01*
X184741661Y-133834178D01*
X184868540Y-133834178D01*
X184878712Y-133908915D01*
X184916477Y-133982421D01*
X184971557Y-134011237D01*
X184982152Y-133995466D01*
X184993076Y-133931154D01*
X184997311Y-133834178D01*
X184995017Y-133761337D01*
X184985662Y-133686233D01*
X184971557Y-133657118D01*
X184928073Y-133674602D01*
X184885306Y-133739509D01*
X184868540Y-133834178D01*
X184741661Y-133834178D01*
X184743482Y-133802349D01*
X184787192Y-133660587D01*
X184877233Y-133561799D01*
X184971557Y-133524244D01*
X185010000Y-133508938D01*
X185181890Y-133504957D01*
X185212586Y-133509010D01*
G37*
G36*
X178005058Y-129163514D02*
G01*
X178064127Y-129193579D01*
X178160113Y-129239696D01*
X178274502Y-129293112D01*
X178391987Y-129346832D01*
X178497260Y-129393863D01*
X178575014Y-129427211D01*
X178609939Y-129439881D01*
X178617074Y-129430620D01*
X178623166Y-129381649D01*
X178629492Y-129341824D01*
X178663407Y-129268835D01*
X178675772Y-129253006D01*
X178705801Y-129232458D01*
X178751076Y-129240083D01*
X178832418Y-129276868D01*
X178916681Y-129316607D01*
X179023347Y-129365222D01*
X179135885Y-129415399D01*
X179238197Y-129460034D01*
X179314185Y-129492024D01*
X179347752Y-129504266D01*
X179355883Y-129491913D01*
X179372882Y-129440043D01*
X179377961Y-129423288D01*
X179411444Y-129374409D01*
X179471132Y-129361138D01*
X179566145Y-129383517D01*
X179705598Y-129441588D01*
X179833375Y-129500276D01*
X179959942Y-129558041D01*
X180055739Y-129601385D01*
X180146386Y-129642181D01*
X180272417Y-129699111D01*
X180401810Y-129757719D01*
X180501317Y-129806053D01*
X180591226Y-129862612D01*
X180618590Y-129904043D01*
X180583388Y-129930399D01*
X180485598Y-129941732D01*
X180325196Y-129938094D01*
X180255403Y-129934114D01*
X180106500Y-129925820D01*
X179933671Y-129916361D01*
X179761771Y-129907104D01*
X179403418Y-129887995D01*
X179382238Y-129972383D01*
X179380961Y-129977328D01*
X179363997Y-130017496D01*
X179331791Y-130038797D01*
X179272527Y-130042081D01*
X179174393Y-130028196D01*
X179025574Y-129997990D01*
X179002954Y-129993173D01*
X178851284Y-129963042D01*
X178748164Y-129949167D01*
X178681271Y-129951846D01*
X178638286Y-129971374D01*
X178606888Y-130008047D01*
X178605021Y-130010889D01*
X178582265Y-130040824D01*
X178553066Y-130060793D01*
X178505841Y-130072420D01*
X178429007Y-130077330D01*
X178310980Y-130077147D01*
X178140178Y-130073494D01*
X178113545Y-130072815D01*
X177959056Y-130067323D01*
X177830829Y-130060207D01*
X177741569Y-130052312D01*
X177703982Y-130044482D01*
X177701110Y-130009087D01*
X177712055Y-129928416D01*
X177734861Y-129821233D01*
X177758620Y-129720650D01*
X177784490Y-129603502D01*
X177800793Y-129520363D01*
X177822750Y-129398764D01*
X177855223Y-129260670D01*
X177888145Y-129173417D01*
X177908406Y-129142230D01*
X177941893Y-129134404D01*
X178005058Y-129163514D01*
G37*
G36*
X177287171Y-126623360D02*
G01*
X177311537Y-126629675D01*
X177378231Y-126658747D01*
X177448134Y-126693736D01*
X177485184Y-126712281D01*
X177634073Y-126791213D01*
X177826575Y-126896480D01*
X178064366Y-127029019D01*
X178349123Y-127189766D01*
X178682524Y-127379657D01*
X179066245Y-127599629D01*
X179501962Y-127850618D01*
X179991354Y-128133561D01*
X180075120Y-128182068D01*
X180449143Y-128398757D01*
X180806831Y-128606145D01*
X181144244Y-128801940D01*
X181457441Y-128983847D01*
X181742482Y-129149574D01*
X181995428Y-129296827D01*
X182212339Y-129423312D01*
X182389274Y-129526738D01*
X182522294Y-129604809D01*
X182607458Y-129655233D01*
X182640827Y-129675717D01*
X182665333Y-129715172D01*
X182673019Y-129789031D01*
X182670271Y-129798314D01*
X182656318Y-129818337D01*
X182627943Y-129845371D01*
X182581973Y-129881362D01*
X182515233Y-129928261D01*
X182424552Y-129988014D01*
X182306755Y-130062572D01*
X182158670Y-130153881D01*
X181977124Y-130263891D01*
X181758942Y-130394550D01*
X181500953Y-130547807D01*
X181199982Y-130725610D01*
X180852857Y-130929907D01*
X180456404Y-131162647D01*
X180007450Y-131425778D01*
X179581970Y-131674703D01*
X179135321Y-131935187D01*
X178740872Y-132164211D01*
X178397011Y-132362687D01*
X178102128Y-132531526D01*
X177854610Y-132671641D01*
X177652845Y-132783941D01*
X177495220Y-132869339D01*
X177380125Y-132928748D01*
X177305948Y-132963077D01*
X177271075Y-132973239D01*
X177190593Y-132964976D01*
X177190593Y-129973691D01*
X177436341Y-129973691D01*
X177436879Y-130418153D01*
X177438016Y-130836110D01*
X177439751Y-131208623D01*
X177448134Y-132623247D01*
X179853177Y-131215346D01*
X180142713Y-131045797D01*
X180491092Y-130841632D01*
X180820265Y-130648552D01*
X181126190Y-130468935D01*
X181404826Y-130305161D01*
X181652130Y-130159609D01*
X181864061Y-130034658D01*
X182036577Y-129932687D01*
X182165637Y-129856076D01*
X182247197Y-129807203D01*
X182277218Y-129788449D01*
X182260326Y-129774891D01*
X182192149Y-129731111D01*
X182075481Y-129659504D01*
X181914287Y-129562414D01*
X181712530Y-129442186D01*
X181474174Y-129301164D01*
X181203185Y-129141692D01*
X180903526Y-128966115D01*
X180579162Y-128776778D01*
X180234056Y-128576024D01*
X179872175Y-128366197D01*
X177448134Y-126962943D01*
X177439751Y-128378471D01*
X177438322Y-128670666D01*
X177437062Y-129081008D01*
X177436402Y-129521663D01*
X177436341Y-129973691D01*
X177190593Y-129973691D01*
X177190593Y-126623024D01*
X177287171Y-126623360D01*
G37*
G36*
X176616961Y-125257412D02*
G01*
X176652947Y-125270039D01*
X176706955Y-125294434D01*
X176781635Y-125332136D01*
X176804282Y-125344279D01*
X176879634Y-125384681D01*
X177003603Y-125453609D01*
X177156190Y-125540456D01*
X177340043Y-125646761D01*
X177557812Y-125774060D01*
X177812146Y-125923893D01*
X178105693Y-126097796D01*
X178441103Y-126297308D01*
X178821024Y-126523965D01*
X179248106Y-126779307D01*
X179724996Y-127064870D01*
X180254344Y-127382192D01*
X180360324Y-127445751D01*
X180799804Y-127709348D01*
X181223988Y-127963819D01*
X181629547Y-128207166D01*
X182013155Y-128437389D01*
X182371484Y-128652491D01*
X182701208Y-128850473D01*
X182999000Y-129029338D01*
X183261531Y-129187086D01*
X183485476Y-129321720D01*
X183667508Y-129431242D01*
X183804298Y-129513652D01*
X183892521Y-129566953D01*
X183928849Y-129589146D01*
X183979194Y-129637763D01*
X183993234Y-129720952D01*
X183991830Y-129726692D01*
X183981488Y-129743730D01*
X183959107Y-129766950D01*
X183921991Y-129798038D01*
X183867444Y-129838683D01*
X183792771Y-129890573D01*
X183695274Y-129955394D01*
X183572259Y-130034836D01*
X183421029Y-130130586D01*
X183238888Y-130244332D01*
X183023141Y-130377761D01*
X182771091Y-130532561D01*
X182480044Y-130710421D01*
X182147302Y-130913028D01*
X181770170Y-131142069D01*
X181345951Y-131399234D01*
X180871951Y-131686208D01*
X180345473Y-132004681D01*
X180275373Y-132047068D01*
X179710468Y-132388331D01*
X179198665Y-132696899D01*
X178738404Y-132973692D01*
X178328125Y-133219631D01*
X177966265Y-133435634D01*
X177651265Y-133622623D01*
X177381564Y-133781517D01*
X177155600Y-133913236D01*
X176971813Y-134018701D01*
X176828643Y-134098831D01*
X176724528Y-134154546D01*
X176657908Y-134186766D01*
X176627222Y-134196412D01*
X176546740Y-134188297D01*
X176538658Y-129781759D01*
X176792581Y-129781759D01*
X176792824Y-130324432D01*
X176793474Y-130849870D01*
X176794532Y-131342356D01*
X176795997Y-131786174D01*
X176804282Y-133842733D01*
X179766660Y-132051763D01*
X180112436Y-131842716D01*
X180515804Y-131598844D01*
X180907256Y-131362173D01*
X181282472Y-131135313D01*
X181637135Y-130920875D01*
X181966926Y-130721470D01*
X182267527Y-130539710D01*
X182534620Y-130378205D01*
X182763887Y-130239566D01*
X182951010Y-130126405D01*
X183091669Y-130041331D01*
X183181549Y-129986957D01*
X183634058Y-129713120D01*
X176804282Y-125615376D01*
X176795997Y-127672495D01*
X176795685Y-127753038D01*
X176794298Y-128207490D01*
X176793318Y-128707572D01*
X176792746Y-129237567D01*
X176792581Y-129781759D01*
X176538658Y-129781759D01*
X176538579Y-129738856D01*
X176537499Y-129142282D01*
X176536537Y-128576674D01*
X176535786Y-128069229D01*
X176535284Y-127616764D01*
X176535070Y-127216095D01*
X176535182Y-126864038D01*
X176535657Y-126557408D01*
X176536534Y-126293020D01*
X176537852Y-126067692D01*
X176539648Y-125878238D01*
X176541961Y-125721475D01*
X176544828Y-125594218D01*
X176548288Y-125493283D01*
X176552379Y-125415486D01*
X176557140Y-125357643D01*
X176562608Y-125316570D01*
X176568821Y-125289082D01*
X176575819Y-125271995D01*
X176583638Y-125262125D01*
X176592317Y-125256288D01*
X176596349Y-125255016D01*
X176616961Y-125257412D01*
G37*
%TO.C,REF\u002A\u002A*%
D10*
X241130902Y-137725985D02*
X241371235Y-137728832D01*
X241563034Y-137733666D01*
X241690037Y-137740027D01*
X241735985Y-137747458D01*
X241720787Y-137795818D01*
X241679515Y-137893435D01*
X241678179Y-137896365D01*
X241651643Y-137947055D01*
X241615230Y-137981147D01*
X241551454Y-138001933D01*
X241442825Y-138012705D01*
X241271855Y-138016754D01*
X241021056Y-138017372D01*
X240861956Y-138018618D01*
X240562951Y-138031908D01*
X240343939Y-138062338D01*
X240193432Y-138113124D01*
X240099945Y-138187481D01*
X240051991Y-138288623D01*
X240048648Y-138302655D01*
X240046038Y-138492103D01*
X240130913Y-138639848D01*
X240301076Y-138741892D01*
X240350269Y-138760090D01*
X240459138Y-138801571D01*
X240509167Y-138822577D01*
X240502273Y-138865718D01*
X240464862Y-138959935D01*
X240403078Y-139047809D01*
X240286313Y-139087870D01*
X240202677Y-139075921D01*
X240033030Y-139002505D01*
X239874059Y-138883795D01*
X239764116Y-138744976D01*
X239738697Y-138686816D01*
X239696202Y-138466596D01*
X239713032Y-138232791D01*
X239787655Y-138031899D01*
X239843724Y-137948353D01*
X239924060Y-137863747D01*
X240026253Y-137803397D01*
X240165374Y-137763346D01*
X240356495Y-137739637D01*
X240614688Y-137728313D01*
X240955024Y-137725418D01*
X241130902Y-137725985D01*
G36*
X241130902Y-137725985D02*
G01*
X241371235Y-137728832D01*
X241563034Y-137733666D01*
X241690037Y-137740027D01*
X241735985Y-137747458D01*
X241720787Y-137795818D01*
X241679515Y-137893435D01*
X241678179Y-137896365D01*
X241651643Y-137947055D01*
X241615230Y-137981147D01*
X241551454Y-138001933D01*
X241442825Y-138012705D01*
X241271855Y-138016754D01*
X241021056Y-138017372D01*
X240861956Y-138018618D01*
X240562951Y-138031908D01*
X240343939Y-138062338D01*
X240193432Y-138113124D01*
X240099945Y-138187481D01*
X240051991Y-138288623D01*
X240048648Y-138302655D01*
X240046038Y-138492103D01*
X240130913Y-138639848D01*
X240301076Y-138741892D01*
X240350269Y-138760090D01*
X240459138Y-138801571D01*
X240509167Y-138822577D01*
X240502273Y-138865718D01*
X240464862Y-138959935D01*
X240403078Y-139047809D01*
X240286313Y-139087870D01*
X240202677Y-139075921D01*
X240033030Y-139002505D01*
X239874059Y-138883795D01*
X239764116Y-138744976D01*
X239738697Y-138686816D01*
X239696202Y-138466596D01*
X239713032Y-138232791D01*
X239787655Y-138031899D01*
X239843724Y-137948353D01*
X239924060Y-137863747D01*
X240026253Y-137803397D01*
X240165374Y-137763346D01*
X240356495Y-137739637D01*
X240614688Y-137728313D01*
X240955024Y-137725418D01*
X241130902Y-137725985D01*
G37*
X241735907Y-124563362D02*
X241691201Y-124680553D01*
X241648177Y-124768293D01*
X241592718Y-124825567D01*
X241507851Y-124858846D01*
X241376602Y-124874603D01*
X241181999Y-124879310D01*
X240907070Y-124879441D01*
X240687931Y-124880107D01*
X240477657Y-124884082D01*
X240334039Y-124893568D01*
X240239787Y-124910733D01*
X240177616Y-124937741D01*
X240130238Y-124976759D01*
X240063378Y-125072679D01*
X240038178Y-125233813D01*
X240101862Y-125393225D01*
X240110016Y-125403746D01*
X240147688Y-125436539D01*
X240208107Y-125460729D01*
X240306186Y-125478343D01*
X240456835Y-125491409D01*
X240674966Y-125501955D01*
X240975492Y-125512008D01*
X241780179Y-125536338D01*
X241687472Y-125743138D01*
X241594766Y-125949939D01*
X240860086Y-125949939D01*
X240660496Y-125949081D01*
X240382844Y-125941701D01*
X240176114Y-125923010D01*
X240023646Y-125888546D01*
X239908776Y-125833845D01*
X239814845Y-125754441D01*
X239725190Y-125645872D01*
X239634865Y-125489716D01*
X239575898Y-125243709D01*
X239601481Y-124996521D01*
X239708283Y-124769253D01*
X239892974Y-124583003D01*
X239950788Y-124544399D01*
X240016316Y-124512379D01*
X240098909Y-124489670D01*
X240214614Y-124474205D01*
X240379483Y-124463918D01*
X240609565Y-124456739D01*
X240920910Y-124450604D01*
X241784571Y-124435368D01*
X241735907Y-124563362D01*
G36*
X241735907Y-124563362D02*
G01*
X241691201Y-124680553D01*
X241648177Y-124768293D01*
X241592718Y-124825567D01*
X241507851Y-124858846D01*
X241376602Y-124874603D01*
X241181999Y-124879310D01*
X240907070Y-124879441D01*
X240687931Y-124880107D01*
X240477657Y-124884082D01*
X240334039Y-124893568D01*
X240239787Y-124910733D01*
X240177616Y-124937741D01*
X240130238Y-124976759D01*
X240063378Y-125072679D01*
X240038178Y-125233813D01*
X240101862Y-125393225D01*
X240110016Y-125403746D01*
X240147688Y-125436539D01*
X240208107Y-125460729D01*
X240306186Y-125478343D01*
X240456835Y-125491409D01*
X240674966Y-125501955D01*
X240975492Y-125512008D01*
X241780179Y-125536338D01*
X241687472Y-125743138D01*
X241594766Y-125949939D01*
X240860086Y-125949939D01*
X240660496Y-125949081D01*
X240382844Y-125941701D01*
X240176114Y-125923010D01*
X240023646Y-125888546D01*
X239908776Y-125833845D01*
X239814845Y-125754441D01*
X239725190Y-125645872D01*
X239634865Y-125489716D01*
X239575898Y-125243709D01*
X239601481Y-124996521D01*
X239708283Y-124769253D01*
X239892974Y-124583003D01*
X239950788Y-124544399D01*
X240016316Y-124512379D01*
X240098909Y-124489670D01*
X240214614Y-124474205D01*
X240379483Y-124463918D01*
X240609565Y-124456739D01*
X240920910Y-124450604D01*
X241784571Y-124435368D01*
X241735907Y-124563362D01*
G37*
X241553006Y-130726013D02*
X241690505Y-130738854D01*
X241735985Y-130759890D01*
X241722367Y-130823556D01*
X241681105Y-130931710D01*
X241669038Y-130957177D01*
X241641725Y-130996955D01*
X241596822Y-131024385D01*
X241518388Y-131042325D01*
X241390481Y-131053636D01*
X241197158Y-131061178D01*
X240922479Y-131067812D01*
X240842186Y-131069631D01*
X240588600Y-131076655D01*
X240411128Y-131085773D01*
X240292942Y-131099744D01*
X240217216Y-131121323D01*
X240167120Y-131153269D01*
X240125827Y-131198337D01*
X240053435Y-131331773D01*
X240039497Y-131495924D01*
X240094891Y-131642802D01*
X240209581Y-131748477D01*
X240373533Y-131789020D01*
X240418098Y-131790148D01*
X240498776Y-131812294D01*
X240511084Y-131877674D01*
X240463040Y-132005696D01*
X240447631Y-132035347D01*
X240357010Y-132115485D01*
X240222268Y-132117071D01*
X240035920Y-132040720D01*
X239934366Y-131970683D01*
X239790099Y-131791609D01*
X239708534Y-131570572D01*
X239697433Y-131334223D01*
X239764561Y-131109213D01*
X239773063Y-131093850D01*
X239870467Y-130968366D01*
X239995691Y-130856170D01*
X240023994Y-130836602D01*
X240090042Y-130799195D01*
X240168430Y-130772470D01*
X240276153Y-130754092D01*
X240430205Y-130741726D01*
X240647581Y-130733035D01*
X240945276Y-130725686D01*
X240995604Y-130724644D01*
X241321902Y-130721300D01*
X241553006Y-130726013D01*
G36*
X241553006Y-130726013D02*
G01*
X241690505Y-130738854D01*
X241735985Y-130759890D01*
X241722367Y-130823556D01*
X241681105Y-130931710D01*
X241669038Y-130957177D01*
X241641725Y-130996955D01*
X241596822Y-131024385D01*
X241518388Y-131042325D01*
X241390481Y-131053636D01*
X241197158Y-131061178D01*
X240922479Y-131067812D01*
X240842186Y-131069631D01*
X240588600Y-131076655D01*
X240411128Y-131085773D01*
X240292942Y-131099744D01*
X240217216Y-131121323D01*
X240167120Y-131153269D01*
X240125827Y-131198337D01*
X240053435Y-131331773D01*
X240039497Y-131495924D01*
X240094891Y-131642802D01*
X240209581Y-131748477D01*
X240373533Y-131789020D01*
X240418098Y-131790148D01*
X240498776Y-131812294D01*
X240511084Y-131877674D01*
X240463040Y-132005696D01*
X240447631Y-132035347D01*
X240357010Y-132115485D01*
X240222268Y-132117071D01*
X240035920Y-132040720D01*
X239934366Y-131970683D01*
X239790099Y-131791609D01*
X239708534Y-131570572D01*
X239697433Y-131334223D01*
X239764561Y-131109213D01*
X239773063Y-131093850D01*
X239870467Y-130968366D01*
X239995691Y-130856170D01*
X240023994Y-130836602D01*
X240090042Y-130799195D01*
X240168430Y-130772470D01*
X240276153Y-130754092D01*
X240430205Y-130741726D01*
X240647581Y-130733035D01*
X240945276Y-130725686D01*
X240995604Y-130724644D01*
X241321902Y-130721300D01*
X241553006Y-130726013D01*
G37*
X240435201Y-127361051D02*
X240780471Y-127361706D01*
X241091054Y-127363453D01*
X241354422Y-127366130D01*
X241558051Y-127369575D01*
X241689414Y-127373625D01*
X241735985Y-127378119D01*
X241735828Y-127379876D01*
X241718908Y-127439589D01*
X241682566Y-127548425D01*
X241629147Y-127701663D01*
X240943652Y-127701663D01*
X240674309Y-127702637D01*
X240478961Y-127707161D01*
X240346025Y-127717571D01*
X240257886Y-127736201D01*
X240196929Y-127765387D01*
X240145539Y-127807463D01*
X240118208Y-127836150D01*
X240042511Y-127991274D01*
X240049214Y-128162249D01*
X240138720Y-128318929D01*
X240160931Y-128341738D01*
X240207053Y-128378269D01*
X240268023Y-128403266D01*
X240360334Y-128418912D01*
X240500480Y-128427386D01*
X240704955Y-128430871D01*
X240990252Y-128431548D01*
X241134948Y-128431873D01*
X241372941Y-128433984D01*
X241563539Y-128437732D01*
X241690100Y-128442736D01*
X241735985Y-128448617D01*
X241735828Y-128450374D01*
X241718908Y-128510087D01*
X241682566Y-128618923D01*
X241629147Y-128772161D01*
X240940516Y-128772086D01*
X240879211Y-128771970D01*
X240559633Y-128765532D01*
X240317976Y-128745750D01*
X240137850Y-128707792D01*
X240002865Y-128646823D01*
X239896631Y-128558009D01*
X239802759Y-128436517D01*
X239743999Y-128318024D01*
X239698577Y-128128575D01*
X239695997Y-127942233D01*
X239740183Y-127798981D01*
X239746286Y-127788212D01*
X239745632Y-127754998D01*
X239694511Y-127732302D01*
X239577313Y-127715923D01*
X239378429Y-127701663D01*
X238970289Y-127677334D01*
X239103701Y-127361050D01*
X240419843Y-127361050D01*
X240435201Y-127361051D01*
G36*
X240435201Y-127361051D02*
G01*
X240780471Y-127361706D01*
X241091054Y-127363453D01*
X241354422Y-127366130D01*
X241558051Y-127369575D01*
X241689414Y-127373625D01*
X241735985Y-127378119D01*
X241735828Y-127379876D01*
X241718908Y-127439589D01*
X241682566Y-127548425D01*
X241629147Y-127701663D01*
X240943652Y-127701663D01*
X240674309Y-127702637D01*
X240478961Y-127707161D01*
X240346025Y-127717571D01*
X240257886Y-127736201D01*
X240196929Y-127765387D01*
X240145539Y-127807463D01*
X240118208Y-127836150D01*
X240042511Y-127991274D01*
X240049214Y-128162249D01*
X240138720Y-128318929D01*
X240160931Y-128341738D01*
X240207053Y-128378269D01*
X240268023Y-128403266D01*
X240360334Y-128418912D01*
X240500480Y-128427386D01*
X240704955Y-128430871D01*
X240990252Y-128431548D01*
X241134948Y-128431873D01*
X241372941Y-128433984D01*
X241563539Y-128437732D01*
X241690100Y-128442736D01*
X241735985Y-128448617D01*
X241735828Y-128450374D01*
X241718908Y-128510087D01*
X241682566Y-128618923D01*
X241629147Y-128772161D01*
X240940516Y-128772086D01*
X240879211Y-128771970D01*
X240559633Y-128765532D01*
X240317976Y-128745750D01*
X240137850Y-128707792D01*
X240002865Y-128646823D01*
X239896631Y-128558009D01*
X239802759Y-128436517D01*
X239743999Y-128318024D01*
X239698577Y-128128575D01*
X239695997Y-127942233D01*
X239740183Y-127798981D01*
X239746286Y-127788212D01*
X239745632Y-127754998D01*
X239694511Y-127732302D01*
X239577313Y-127715923D01*
X239378429Y-127701663D01*
X238970289Y-127677334D01*
X239103701Y-127361050D01*
X240419843Y-127361050D01*
X240435201Y-127361051D01*
G37*
X241590528Y-134229976D02*
X241625058Y-134265150D01*
X241701808Y-134362589D01*
X241726668Y-134460857D01*
X241715223Y-134607083D01*
X241707824Y-134666619D01*
X241692171Y-134820166D01*
X241685935Y-134927525D01*
X241686888Y-134959371D01*
X241697210Y-135090017D01*
X241715223Y-135247968D01*
X241721413Y-135298504D01*
X241723845Y-135425816D01*
X241685412Y-135518963D01*
X241590528Y-135625075D01*
X241436545Y-135779058D01*
X240564426Y-135779058D01*
X240306702Y-135777859D01*
X240060985Y-135774118D01*
X239866422Y-135768299D01*
X239738400Y-135760873D01*
X239692307Y-135752312D01*
X239692431Y-135750517D01*
X239715366Y-135688322D01*
X239765908Y-135583238D01*
X239839508Y-135440910D01*
X240605275Y-135427513D01*
X241371042Y-135414115D01*
X241371042Y-135122161D01*
X240531675Y-135108848D01*
X240303507Y-135104627D01*
X240059632Y-135098586D01*
X239866018Y-135092039D01*
X239738349Y-135085533D01*
X239692307Y-135079614D01*
X239692468Y-135077913D01*
X239709406Y-135018916D01*
X239745726Y-134910457D01*
X239799145Y-134757219D01*
X240536435Y-134756474D01*
X240664512Y-134755728D01*
X240913391Y-134750552D01*
X241121240Y-134741298D01*
X241269298Y-134728945D01*
X241338805Y-134714477D01*
X241375982Y-134662716D01*
X241387464Y-134557080D01*
X241371042Y-134440935D01*
X240531675Y-134427622D01*
X240318380Y-134422857D01*
X240065914Y-134412978D01*
X239867884Y-134400058D01*
X239738583Y-134385096D01*
X239692307Y-134369087D01*
X239706950Y-134306650D01*
X239748776Y-134199930D01*
X239805246Y-134075993D01*
X241436545Y-134075993D01*
X241590528Y-134229976D01*
G36*
X241590528Y-134229976D02*
G01*
X241625058Y-134265150D01*
X241701808Y-134362589D01*
X241726668Y-134460857D01*
X241715223Y-134607083D01*
X241707824Y-134666619D01*
X241692171Y-134820166D01*
X241685935Y-134927525D01*
X241686888Y-134959371D01*
X241697210Y-135090017D01*
X241715223Y-135247968D01*
X241721413Y-135298504D01*
X241723845Y-135425816D01*
X241685412Y-135518963D01*
X241590528Y-135625075D01*
X241436545Y-135779058D01*
X240564426Y-135779058D01*
X240306702Y-135777859D01*
X240060985Y-135774118D01*
X239866422Y-135768299D01*
X239738400Y-135760873D01*
X239692307Y-135752312D01*
X239692431Y-135750517D01*
X239715366Y-135688322D01*
X239765908Y-135583238D01*
X239839508Y-135440910D01*
X240605275Y-135427513D01*
X241371042Y-135414115D01*
X241371042Y-135122161D01*
X240531675Y-135108848D01*
X240303507Y-135104627D01*
X240059632Y-135098586D01*
X239866018Y-135092039D01*
X239738349Y-135085533D01*
X239692307Y-135079614D01*
X239692468Y-135077913D01*
X239709406Y-135018916D01*
X239745726Y-134910457D01*
X239799145Y-134757219D01*
X240536435Y-134756474D01*
X240664512Y-134755728D01*
X240913391Y-134750552D01*
X241121240Y-134741298D01*
X241269298Y-134728945D01*
X241338805Y-134714477D01*
X241375982Y-134662716D01*
X241387464Y-134557080D01*
X241371042Y-134440935D01*
X240531675Y-134427622D01*
X240318380Y-134422857D01*
X240065914Y-134412978D01*
X239867884Y-134400058D01*
X239738583Y-134385096D01*
X239692307Y-134369087D01*
X239706950Y-134306650D01*
X239748776Y-134199930D01*
X239805246Y-134075993D01*
X241436545Y-134075993D01*
X241590528Y-134229976D01*
G37*
X240718240Y-118845771D02*
X240953530Y-118848408D01*
X241117475Y-118857474D01*
X241231984Y-118876262D01*
X241318969Y-118908065D01*
X241400341Y-118956177D01*
X241417225Y-118968014D01*
X241550353Y-119093261D01*
X241650756Y-119235967D01*
X241683337Y-119309247D01*
X241737680Y-119572566D01*
X241702529Y-119832978D01*
X241582415Y-120072970D01*
X241381871Y-120275025D01*
X241355005Y-120292084D01*
X241199009Y-120347589D01*
X240981799Y-120384992D01*
X240730952Y-120403140D01*
X240474045Y-120400882D01*
X240238653Y-120377066D01*
X240052355Y-120330541D01*
X239928278Y-120270752D01*
X239735280Y-120102436D01*
X239615358Y-119874368D01*
X239576684Y-119612460D01*
X240032920Y-119612460D01*
X240036678Y-119657947D01*
X240105600Y-119785374D01*
X240260167Y-119869583D01*
X240498911Y-119910027D01*
X240820367Y-119906157D01*
X240841055Y-119904602D01*
X241018429Y-119881930D01*
X241130911Y-119841559D01*
X241207973Y-119773391D01*
X241280158Y-119659098D01*
X241283953Y-119546060D01*
X241200736Y-119429633D01*
X241178837Y-119409381D01*
X241113308Y-119369709D01*
X241018123Y-119346288D01*
X240870761Y-119335146D01*
X240648699Y-119332315D01*
X240440704Y-119337166D01*
X240242544Y-119361363D01*
X240117306Y-119411317D01*
X240051821Y-119493019D01*
X240032920Y-119612460D01*
X239576684Y-119612460D01*
X239574135Y-119595195D01*
X239576365Y-119520635D01*
X239622014Y-119301070D01*
X239737011Y-119120720D01*
X239935107Y-118955207D01*
X239949803Y-118945360D01*
X240028847Y-118900799D01*
X240118191Y-118871814D01*
X240239582Y-118855147D01*
X240414765Y-118847537D01*
X240648699Y-118845846D01*
X240665487Y-118845725D01*
X240718240Y-118845771D01*
G36*
X240718240Y-118845771D02*
G01*
X240953530Y-118848408D01*
X241117475Y-118857474D01*
X241231984Y-118876262D01*
X241318969Y-118908065D01*
X241400341Y-118956177D01*
X241417225Y-118968014D01*
X241550353Y-119093261D01*
X241650756Y-119235967D01*
X241683337Y-119309247D01*
X241737680Y-119572566D01*
X241702529Y-119832978D01*
X241582415Y-120072970D01*
X241381871Y-120275025D01*
X241355005Y-120292084D01*
X241199009Y-120347589D01*
X240981799Y-120384992D01*
X240730952Y-120403140D01*
X240474045Y-120400882D01*
X240238653Y-120377066D01*
X240052355Y-120330541D01*
X239928278Y-120270752D01*
X239735280Y-120102436D01*
X239615358Y-119874368D01*
X239576684Y-119612460D01*
X240032920Y-119612460D01*
X240036678Y-119657947D01*
X240105600Y-119785374D01*
X240260167Y-119869583D01*
X240498911Y-119910027D01*
X240820367Y-119906157D01*
X240841055Y-119904602D01*
X241018429Y-119881930D01*
X241130911Y-119841559D01*
X241207973Y-119773391D01*
X241280158Y-119659098D01*
X241283953Y-119546060D01*
X241200736Y-119429633D01*
X241178837Y-119409381D01*
X241113308Y-119369709D01*
X241018123Y-119346288D01*
X240870761Y-119335146D01*
X240648699Y-119332315D01*
X240440704Y-119337166D01*
X240242544Y-119361363D01*
X240117306Y-119411317D01*
X240051821Y-119493019D01*
X240032920Y-119612460D01*
X239576684Y-119612460D01*
X239574135Y-119595195D01*
X239576365Y-119520635D01*
X239622014Y-119301070D01*
X239737011Y-119120720D01*
X239935107Y-118955207D01*
X239949803Y-118945360D01*
X240028847Y-118900799D01*
X240118191Y-118871814D01*
X240239582Y-118855147D01*
X240414765Y-118847537D01*
X240648699Y-118845846D01*
X240665487Y-118845725D01*
X240718240Y-118845771D01*
G37*
X240853577Y-139381094D02*
X241109090Y-139392980D01*
X241296069Y-139424087D01*
X241434591Y-139481439D01*
X241544735Y-139572063D01*
X241646579Y-139702983D01*
X241692892Y-139786284D01*
X241724085Y-139919811D01*
X241721623Y-140107384D01*
X241711742Y-140212250D01*
X241681570Y-140338746D01*
X241615986Y-140439855D01*
X241493777Y-140557480D01*
X241475927Y-140573197D01*
X241338563Y-140678943D01*
X241218926Y-140729396D01*
X241077057Y-140742276D01*
X240868576Y-140742276D01*
X240923567Y-140596588D01*
X240987848Y-140490376D01*
X241138680Y-140398055D01*
X241186972Y-140378781D01*
X241323735Y-140271020D01*
X241392579Y-140124328D01*
X241386389Y-139964605D01*
X241298054Y-139817755D01*
X241242971Y-139767287D01*
X241159867Y-139721518D01*
X241084361Y-139735836D01*
X241006650Y-139818229D01*
X240916930Y-139976685D01*
X240805398Y-140219192D01*
X240587094Y-140717947D01*
X240370830Y-140731183D01*
X240209092Y-140725340D01*
X240004696Y-140651774D01*
X239892057Y-140558917D01*
X239766233Y-140366399D01*
X239702672Y-140138021D01*
X239703105Y-140117694D01*
X240032417Y-140117694D01*
X240108667Y-140293518D01*
X240146794Y-140342245D01*
X240233081Y-140401247D01*
X240318359Y-140376579D01*
X240409404Y-140264339D01*
X240512995Y-140060622D01*
X240528002Y-140026913D01*
X240597822Y-139865718D01*
X240646931Y-139745110D01*
X240665487Y-139689066D01*
X240651827Y-139680573D01*
X240568421Y-139677166D01*
X240434357Y-139689314D01*
X240303256Y-139719913D01*
X240138086Y-139815354D01*
X240045014Y-139953127D01*
X240032417Y-140117694D01*
X239703105Y-140117694D01*
X239707703Y-139901938D01*
X239787655Y-139686305D01*
X239818355Y-139638836D01*
X239913352Y-139529954D01*
X240033526Y-139455490D01*
X240196756Y-139409599D01*
X240420919Y-139386432D01*
X240568421Y-139383371D01*
X240723894Y-139380145D01*
X240853577Y-139381094D01*
G36*
X240853577Y-139381094D02*
G01*
X241109090Y-139392980D01*
X241296069Y-139424087D01*
X241434591Y-139481439D01*
X241544735Y-139572063D01*
X241646579Y-139702983D01*
X241692892Y-139786284D01*
X241724085Y-139919811D01*
X241721623Y-140107384D01*
X241711742Y-140212250D01*
X241681570Y-140338746D01*
X241615986Y-140439855D01*
X241493777Y-140557480D01*
X241475927Y-140573197D01*
X241338563Y-140678943D01*
X241218926Y-140729396D01*
X241077057Y-140742276D01*
X240868576Y-140742276D01*
X240923567Y-140596588D01*
X240987848Y-140490376D01*
X241138680Y-140398055D01*
X241186972Y-140378781D01*
X241323735Y-140271020D01*
X241392579Y-140124328D01*
X241386389Y-139964605D01*
X241298054Y-139817755D01*
X241242971Y-139767287D01*
X241159867Y-139721518D01*
X241084361Y-139735836D01*
X241006650Y-139818229D01*
X240916930Y-139976685D01*
X240805398Y-140219192D01*
X240587094Y-140717947D01*
X240370830Y-140731183D01*
X240209092Y-140725340D01*
X240004696Y-140651774D01*
X239892057Y-140558917D01*
X239766233Y-140366399D01*
X239702672Y-140138021D01*
X239703105Y-140117694D01*
X240032417Y-140117694D01*
X240108667Y-140293518D01*
X240146794Y-140342245D01*
X240233081Y-140401247D01*
X240318359Y-140376579D01*
X240409404Y-140264339D01*
X240512995Y-140060622D01*
X240528002Y-140026913D01*
X240597822Y-139865718D01*
X240646931Y-139745110D01*
X240665487Y-139689066D01*
X240651827Y-139680573D01*
X240568421Y-139677166D01*
X240434357Y-139689314D01*
X240303256Y-139719913D01*
X240138086Y-139815354D01*
X240045014Y-139953127D01*
X240032417Y-140117694D01*
X239703105Y-140117694D01*
X239707703Y-139901938D01*
X239787655Y-139686305D01*
X239818355Y-139638836D01*
X239913352Y-139529954D01*
X240033526Y-139455490D01*
X240196756Y-139409599D01*
X240420919Y-139386432D01*
X240568421Y-139383371D01*
X240723894Y-139380145D01*
X240853577Y-139381094D01*
G37*
X240903892Y-132376969D02*
X241162534Y-132404435D01*
X241356354Y-132464195D01*
X241504353Y-132563242D01*
X241625532Y-132708572D01*
X241695583Y-132847008D01*
X241734564Y-133079486D01*
X241691942Y-133311648D01*
X241573157Y-133521483D01*
X241383652Y-133686984D01*
X241348707Y-133706968D01*
X241287485Y-133733361D01*
X241209359Y-133752936D01*
X241100926Y-133766704D01*
X240948784Y-133775671D01*
X240739532Y-133780847D01*
X240459769Y-133783239D01*
X240096093Y-133783857D01*
X238967120Y-133784039D01*
X239033366Y-133625897D01*
X239051499Y-133584085D01*
X239092446Y-133517532D01*
X239154458Y-133479436D01*
X239262902Y-133458499D01*
X239443145Y-133443426D01*
X239604981Y-133429658D01*
X239711225Y-133411461D01*
X239750872Y-133385393D01*
X239740238Y-133346108D01*
X239702875Y-133245999D01*
X239693613Y-133067092D01*
X239702107Y-133019846D01*
X240040725Y-133019846D01*
X240051975Y-133189939D01*
X240145539Y-133337626D01*
X240182637Y-133369418D01*
X240252489Y-133408191D01*
X240350037Y-133430608D01*
X240498467Y-133440932D01*
X240720965Y-133443426D01*
X240898073Y-133442275D01*
X241058270Y-133435000D01*
X241161686Y-133417014D01*
X241231171Y-133383791D01*
X241289572Y-133330807D01*
X241300799Y-133318393D01*
X241383653Y-133158900D01*
X241375175Y-132990146D01*
X241275936Y-132832976D01*
X241224523Y-132786176D01*
X241156364Y-132747008D01*
X241062134Y-132725130D01*
X240918096Y-132715617D01*
X240700510Y-132713541D01*
X240534479Y-132714566D01*
X240372418Y-132721656D01*
X240267837Y-132739531D01*
X240197636Y-132772822D01*
X240138720Y-132826160D01*
X240112190Y-132857492D01*
X240040725Y-133019846D01*
X239702107Y-133019846D01*
X239728214Y-132874627D01*
X239802759Y-132708572D01*
X239871760Y-132617214D01*
X240006387Y-132499913D01*
X240178993Y-132424787D01*
X240408579Y-132384840D01*
X240700510Y-132373603D01*
X240714146Y-132373079D01*
X240903892Y-132376969D01*
G36*
X240903892Y-132376969D02*
G01*
X241162534Y-132404435D01*
X241356354Y-132464195D01*
X241504353Y-132563242D01*
X241625532Y-132708572D01*
X241695583Y-132847008D01*
X241734564Y-133079486D01*
X241691942Y-133311648D01*
X241573157Y-133521483D01*
X241383652Y-133686984D01*
X241348707Y-133706968D01*
X241287485Y-133733361D01*
X241209359Y-133752936D01*
X241100926Y-133766704D01*
X240948784Y-133775671D01*
X240739532Y-133780847D01*
X240459769Y-133783239D01*
X240096093Y-133783857D01*
X238967120Y-133784039D01*
X239033366Y-133625897D01*
X239051499Y-133584085D01*
X239092446Y-133517532D01*
X239154458Y-133479436D01*
X239262902Y-133458499D01*
X239443145Y-133443426D01*
X239604981Y-133429658D01*
X239711225Y-133411461D01*
X239750872Y-133385393D01*
X239740238Y-133346108D01*
X239702875Y-133245999D01*
X239693613Y-133067092D01*
X239702107Y-133019846D01*
X240040725Y-133019846D01*
X240051975Y-133189939D01*
X240145539Y-133337626D01*
X240182637Y-133369418D01*
X240252489Y-133408191D01*
X240350037Y-133430608D01*
X240498467Y-133440932D01*
X240720965Y-133443426D01*
X240898073Y-133442275D01*
X241058270Y-133435000D01*
X241161686Y-133417014D01*
X241231171Y-133383791D01*
X241289572Y-133330807D01*
X241300799Y-133318393D01*
X241383653Y-133158900D01*
X241375175Y-132990146D01*
X241275936Y-132832976D01*
X241224523Y-132786176D01*
X241156364Y-132747008D01*
X241062134Y-132725130D01*
X240918096Y-132715617D01*
X240700510Y-132713541D01*
X240534479Y-132714566D01*
X240372418Y-132721656D01*
X240267837Y-132739531D01*
X240197636Y-132772822D01*
X240138720Y-132826160D01*
X240112190Y-132857492D01*
X240040725Y-133019846D01*
X239702107Y-133019846D01*
X239728214Y-132874627D01*
X239802759Y-132708572D01*
X239871760Y-132617214D01*
X240006387Y-132499913D01*
X240178993Y-132424787D01*
X240408579Y-132384840D01*
X240700510Y-132373603D01*
X240714146Y-132373079D01*
X240903892Y-132376969D01*
G37*
X240896398Y-122560387D02*
X240974543Y-122569123D01*
X241252682Y-122634220D01*
X241464211Y-122751850D01*
X241626337Y-122930743D01*
X241633027Y-122940854D01*
X241728177Y-123168267D01*
X241736644Y-123405712D01*
X241664185Y-123634507D01*
X241516557Y-123835969D01*
X241299516Y-123991414D01*
X241294283Y-123994023D01*
X241159501Y-124045678D01*
X241006321Y-124083514D01*
X240862519Y-124103584D01*
X240755868Y-124101938D01*
X240714146Y-124074629D01*
X240716681Y-124050368D01*
X240762827Y-123934346D01*
X240847681Y-123802839D01*
X240945905Y-123690967D01*
X241032156Y-123633855D01*
X241149152Y-123574488D01*
X241255564Y-123452816D01*
X241298054Y-123311526D01*
X241285769Y-123259737D01*
X241223924Y-123157516D01*
X241138074Y-123068475D01*
X241060188Y-123030399D01*
X241059900Y-123030410D01*
X241024133Y-123073612D01*
X240959609Y-123188788D01*
X240875396Y-123358585D01*
X240780558Y-123565648D01*
X240780055Y-123566787D01*
X240679896Y-123791742D01*
X240607733Y-123942527D01*
X240552298Y-124033936D01*
X240502324Y-124080760D01*
X240446544Y-124097794D01*
X240373691Y-124099828D01*
X240199109Y-124081916D01*
X239961915Y-123993352D01*
X239775519Y-123845097D01*
X239646461Y-123653253D01*
X239581281Y-123433925D01*
X239585013Y-123269538D01*
X240037733Y-123269538D01*
X240044085Y-123410601D01*
X240130536Y-123541588D01*
X240190275Y-123593075D01*
X240235740Y-123605303D01*
X240279108Y-123555717D01*
X240344094Y-123432166D01*
X240345932Y-123428543D01*
X240415348Y-123282779D01*
X240470725Y-123152377D01*
X240494152Y-123069649D01*
X240462838Y-123036466D01*
X240355541Y-123030399D01*
X240222003Y-123055608D01*
X240100649Y-123143005D01*
X240037733Y-123269538D01*
X239585013Y-123269538D01*
X239586519Y-123203214D01*
X239668716Y-122977225D01*
X239834413Y-122772061D01*
X239998382Y-122658391D01*
X240232435Y-122576740D01*
X240355541Y-122563463D01*
X240527549Y-122544914D01*
X240896398Y-122560387D01*
G36*
X240896398Y-122560387D02*
G01*
X240974543Y-122569123D01*
X241252682Y-122634220D01*
X241464211Y-122751850D01*
X241626337Y-122930743D01*
X241633027Y-122940854D01*
X241728177Y-123168267D01*
X241736644Y-123405712D01*
X241664185Y-123634507D01*
X241516557Y-123835969D01*
X241299516Y-123991414D01*
X241294283Y-123994023D01*
X241159501Y-124045678D01*
X241006321Y-124083514D01*
X240862519Y-124103584D01*
X240755868Y-124101938D01*
X240714146Y-124074629D01*
X240716681Y-124050368D01*
X240762827Y-123934346D01*
X240847681Y-123802839D01*
X240945905Y-123690967D01*
X241032156Y-123633855D01*
X241149152Y-123574488D01*
X241255564Y-123452816D01*
X241298054Y-123311526D01*
X241285769Y-123259737D01*
X241223924Y-123157516D01*
X241138074Y-123068475D01*
X241060188Y-123030399D01*
X241059900Y-123030410D01*
X241024133Y-123073612D01*
X240959609Y-123188788D01*
X240875396Y-123358585D01*
X240780558Y-123565648D01*
X240780055Y-123566787D01*
X240679896Y-123791742D01*
X240607733Y-123942527D01*
X240552298Y-124033936D01*
X240502324Y-124080760D01*
X240446544Y-124097794D01*
X240373691Y-124099828D01*
X240199109Y-124081916D01*
X239961915Y-123993352D01*
X239775519Y-123845097D01*
X239646461Y-123653253D01*
X239581281Y-123433925D01*
X239585013Y-123269538D01*
X240037733Y-123269538D01*
X240044085Y-123410601D01*
X240130536Y-123541588D01*
X240190275Y-123593075D01*
X240235740Y-123605303D01*
X240279108Y-123555717D01*
X240344094Y-123432166D01*
X240345932Y-123428543D01*
X240415348Y-123282779D01*
X240470725Y-123152377D01*
X240494152Y-123069649D01*
X240462838Y-123036466D01*
X240355541Y-123030399D01*
X240222003Y-123055608D01*
X240100649Y-123143005D01*
X240037733Y-123269538D01*
X239585013Y-123269538D01*
X239586519Y-123203214D01*
X239668716Y-122977225D01*
X239834413Y-122772061D01*
X239998382Y-122658391D01*
X240232435Y-122576740D01*
X240355541Y-122563463D01*
X240527549Y-122544914D01*
X240896398Y-122560387D01*
G37*
X240497620Y-129220729D02*
X240431174Y-129329038D01*
X240293224Y-129414395D01*
X240264781Y-129423160D01*
X240119874Y-129517495D01*
X240041597Y-129659677D01*
X240038236Y-129822933D01*
X240118073Y-129980490D01*
X240138664Y-130004012D01*
X240228139Y-130082672D01*
X240306147Y-130095662D01*
X240382743Y-130036157D01*
X240467981Y-129897329D01*
X240571914Y-129672353D01*
X240578496Y-129657138D01*
X240694954Y-129407386D01*
X240798121Y-129236806D01*
X240901127Y-129131801D01*
X241017104Y-129078770D01*
X241159180Y-129064115D01*
X241316694Y-129083319D01*
X241518309Y-129180287D01*
X241663147Y-129350876D01*
X241706631Y-129474261D01*
X241730426Y-129648388D01*
X241725343Y-129817472D01*
X241689446Y-129938214D01*
X241680508Y-129951039D01*
X241618054Y-129985099D01*
X241507985Y-129961464D01*
X241421589Y-129920399D01*
X241385620Y-129854550D01*
X241387410Y-129729664D01*
X241377091Y-129556283D01*
X241305852Y-129442993D01*
X241173982Y-129404728D01*
X241170194Y-129404764D01*
X241093644Y-129427952D01*
X241023409Y-129506829D01*
X240942454Y-129660188D01*
X240844983Y-129868749D01*
X240791958Y-130006888D01*
X240795376Y-130086633D01*
X240865419Y-130123896D01*
X241012271Y-130134586D01*
X241246116Y-130134613D01*
X241390468Y-130135806D01*
X241568736Y-130141275D01*
X241690751Y-130150166D01*
X241735985Y-130161359D01*
X241735678Y-130164351D01*
X241711163Y-130229030D01*
X241659427Y-130336152D01*
X241582869Y-130484200D01*
X240893048Y-130466607D01*
X240847299Y-130465382D01*
X240526195Y-130451409D01*
X240284182Y-130426723D01*
X240105145Y-130386286D01*
X239972973Y-130325060D01*
X239871550Y-130238006D01*
X239784764Y-130120086D01*
X239783403Y-130117905D01*
X239712601Y-129927241D01*
X239700640Y-129706726D01*
X239744790Y-129494009D01*
X239842318Y-129326742D01*
X239918307Y-129253159D01*
X240145454Y-129111756D01*
X240393097Y-129064115D01*
X240563471Y-129064115D01*
X240497620Y-129220729D01*
G36*
X240497620Y-129220729D02*
G01*
X240431174Y-129329038D01*
X240293224Y-129414395D01*
X240264781Y-129423160D01*
X240119874Y-129517495D01*
X240041597Y-129659677D01*
X240038236Y-129822933D01*
X240118073Y-129980490D01*
X240138664Y-130004012D01*
X240228139Y-130082672D01*
X240306147Y-130095662D01*
X240382743Y-130036157D01*
X240467981Y-129897329D01*
X240571914Y-129672353D01*
X240578496Y-129657138D01*
X240694954Y-129407386D01*
X240798121Y-129236806D01*
X240901127Y-129131801D01*
X241017104Y-129078770D01*
X241159180Y-129064115D01*
X241316694Y-129083319D01*
X241518309Y-129180287D01*
X241663147Y-129350876D01*
X241706631Y-129474261D01*
X241730426Y-129648388D01*
X241725343Y-129817472D01*
X241689446Y-129938214D01*
X241680508Y-129951039D01*
X241618054Y-129985099D01*
X241507985Y-129961464D01*
X241421589Y-129920399D01*
X241385620Y-129854550D01*
X241387410Y-129729664D01*
X241377091Y-129556283D01*
X241305852Y-129442993D01*
X241173982Y-129404728D01*
X241170194Y-129404764D01*
X241093644Y-129427952D01*
X241023409Y-129506829D01*
X240942454Y-129660188D01*
X240844983Y-129868749D01*
X240791958Y-130006888D01*
X240795376Y-130086633D01*
X240865419Y-130123896D01*
X241012271Y-130134586D01*
X241246116Y-130134613D01*
X241390468Y-130135806D01*
X241568736Y-130141275D01*
X241690751Y-130150166D01*
X241735985Y-130161359D01*
X241735678Y-130164351D01*
X241711163Y-130229030D01*
X241659427Y-130336152D01*
X241582869Y-130484200D01*
X240893048Y-130466607D01*
X240847299Y-130465382D01*
X240526195Y-130451409D01*
X240284182Y-130426723D01*
X240105145Y-130386286D01*
X239972973Y-130325060D01*
X239871550Y-130238006D01*
X239784764Y-130120086D01*
X239783403Y-130117905D01*
X239712601Y-129927241D01*
X239700640Y-129706726D01*
X239744790Y-129494009D01*
X239842318Y-129326742D01*
X239918307Y-129253159D01*
X240145454Y-129111756D01*
X240393097Y-129064115D01*
X240563471Y-129064115D01*
X240497620Y-129220729D01*
G37*
X242211743Y-120703272D02*
X242348012Y-120717168D01*
X242428302Y-120742397D01*
X242462324Y-120781598D01*
X242459786Y-120837407D01*
X242430398Y-120912462D01*
X242383869Y-121009399D01*
X242373941Y-121030114D01*
X242325343Y-121116370D01*
X242267523Y-121161418D01*
X242171117Y-121178656D01*
X242006762Y-121181485D01*
X241711655Y-121181613D01*
X241711655Y-121485604D01*
X241703467Y-121672600D01*
X241670256Y-121819634D01*
X241603131Y-121941737D01*
X241596569Y-121950841D01*
X241485738Y-122074737D01*
X241351847Y-122160962D01*
X241176598Y-122215341D01*
X240941693Y-122243697D01*
X240628835Y-122251855D01*
X240400537Y-122250048D01*
X240227608Y-122241822D01*
X240107687Y-122223547D01*
X240017834Y-122191604D01*
X239935107Y-122142372D01*
X239871885Y-122097180D01*
X239701204Y-121933084D01*
X239608506Y-121747166D01*
X239579163Y-121513590D01*
X239581210Y-121494881D01*
X240032920Y-121494881D01*
X240038215Y-121552407D01*
X240090757Y-121651941D01*
X240207842Y-121717747D01*
X240399639Y-121754098D01*
X240676314Y-121765265D01*
X240720793Y-121765181D01*
X240921564Y-121760560D01*
X241052808Y-121745722D01*
X241138030Y-121716305D01*
X241200736Y-121667947D01*
X241203730Y-121664934D01*
X241284866Y-121546079D01*
X241276869Y-121430892D01*
X241178618Y-121300793D01*
X241145039Y-121268969D01*
X241076192Y-121222097D01*
X240986645Y-121195667D01*
X240850877Y-121183985D01*
X240643369Y-121181357D01*
X240517743Y-121183633D01*
X240289270Y-121208330D01*
X240139581Y-121264702D01*
X240057767Y-121358351D01*
X240032920Y-121494881D01*
X239581210Y-121494881D01*
X239608412Y-121246276D01*
X239713328Y-121015188D01*
X239898373Y-120832415D01*
X239917963Y-120818637D01*
X239970023Y-120786503D01*
X240029513Y-120761885D01*
X240109274Y-120743577D01*
X240222146Y-120730377D01*
X240380970Y-120721078D01*
X240598587Y-120714478D01*
X240643369Y-120713687D01*
X240887837Y-120709371D01*
X241261560Y-120704553D01*
X241369976Y-120703216D01*
X241732434Y-120698934D01*
X242009787Y-120698073D01*
X242211743Y-120703272D01*
G36*
X242211743Y-120703272D02*
G01*
X242348012Y-120717168D01*
X242428302Y-120742397D01*
X242462324Y-120781598D01*
X242459786Y-120837407D01*
X242430398Y-120912462D01*
X242383869Y-121009399D01*
X242373941Y-121030114D01*
X242325343Y-121116370D01*
X242267523Y-121161418D01*
X242171117Y-121178656D01*
X242006762Y-121181485D01*
X241711655Y-121181613D01*
X241711655Y-121485604D01*
X241703467Y-121672600D01*
X241670256Y-121819634D01*
X241603131Y-121941737D01*
X241596569Y-121950841D01*
X241485738Y-122074737D01*
X241351847Y-122160962D01*
X241176598Y-122215341D01*
X240941693Y-122243697D01*
X240628835Y-122251855D01*
X240400537Y-122250048D01*
X240227608Y-122241822D01*
X240107687Y-122223547D01*
X240017834Y-122191604D01*
X239935107Y-122142372D01*
X239871885Y-122097180D01*
X239701204Y-121933084D01*
X239608506Y-121747166D01*
X239579163Y-121513590D01*
X239581210Y-121494881D01*
X240032920Y-121494881D01*
X240038215Y-121552407D01*
X240090757Y-121651941D01*
X240207842Y-121717747D01*
X240399639Y-121754098D01*
X240676314Y-121765265D01*
X240720793Y-121765181D01*
X240921564Y-121760560D01*
X241052808Y-121745722D01*
X241138030Y-121716305D01*
X241200736Y-121667947D01*
X241203730Y-121664934D01*
X241284866Y-121546079D01*
X241276869Y-121430892D01*
X241178618Y-121300793D01*
X241145039Y-121268969D01*
X241076192Y-121222097D01*
X240986645Y-121195667D01*
X240850877Y-121183985D01*
X240643369Y-121181357D01*
X240517743Y-121183633D01*
X240289270Y-121208330D01*
X240139581Y-121264702D01*
X240057767Y-121358351D01*
X240032920Y-121494881D01*
X239581210Y-121494881D01*
X239608412Y-121246276D01*
X239713328Y-121015188D01*
X239898373Y-120832415D01*
X239917963Y-120818637D01*
X239970023Y-120786503D01*
X240029513Y-120761885D01*
X240109274Y-120743577D01*
X240222146Y-120730377D01*
X240380970Y-120721078D01*
X240598587Y-120714478D01*
X240643369Y-120713687D01*
X240887837Y-120709371D01*
X241261560Y-120704553D01*
X241369976Y-120703216D01*
X241732434Y-120698934D01*
X242009787Y-120698073D01*
X242211743Y-120703272D01*
G37*
X241284971Y-136074073D02*
X241472246Y-136155605D01*
X241624817Y-136309338D01*
X241689763Y-136433817D01*
X241735240Y-136674281D01*
X241729105Y-136807907D01*
X241695934Y-136931609D01*
X241626331Y-136979067D01*
X241511700Y-136961321D01*
X241496543Y-136956159D01*
X241416164Y-136915221D01*
X241385741Y-136847058D01*
X241387777Y-136717202D01*
X241390543Y-136625516D01*
X241366802Y-136518235D01*
X241295820Y-136444732D01*
X241208428Y-136402867D01*
X241116881Y-136398198D01*
X241116346Y-136398413D01*
X241066880Y-136452693D01*
X240994892Y-136568863D01*
X240914436Y-136719170D01*
X240839566Y-136875862D01*
X240784338Y-137011186D01*
X240762805Y-137097387D01*
X240783891Y-137110211D01*
X240883113Y-137126354D01*
X241045146Y-137137410D01*
X241249395Y-137141510D01*
X241390772Y-137142464D01*
X241568824Y-137146958D01*
X241690762Y-137154298D01*
X241735985Y-137163550D01*
X241720787Y-137211910D01*
X241679515Y-137309527D01*
X241623046Y-137433464D01*
X240898555Y-137433464D01*
X240712846Y-137432672D01*
X240430835Y-137425179D01*
X240221616Y-137406089D01*
X240069272Y-137370954D01*
X239957887Y-137315324D01*
X239871543Y-137234750D01*
X239794323Y-137124782D01*
X239730594Y-136984678D01*
X239692307Y-136725989D01*
X239696684Y-136607954D01*
X239723171Y-136503677D01*
X239789204Y-136406591D01*
X239912127Y-136281636D01*
X239998939Y-136201279D01*
X240111644Y-136117570D01*
X240217280Y-136079817D01*
X240351307Y-136071012D01*
X240570668Y-136071012D01*
X240493309Y-136220608D01*
X240399042Y-136339160D01*
X240272067Y-136420362D01*
X240237544Y-136434310D01*
X240103735Y-136540573D01*
X240036640Y-136688217D01*
X240043170Y-136849213D01*
X240130238Y-136995533D01*
X240200950Y-137057440D01*
X240291413Y-137093501D01*
X240371923Y-137054898D01*
X240452908Y-136934869D01*
X240544795Y-136726650D01*
X240557486Y-136695054D01*
X240640542Y-136505492D01*
X240722442Y-136342823D01*
X240787134Y-136239328D01*
X240902685Y-136135669D01*
X241087085Y-136066756D01*
X241284971Y-136074073D01*
G36*
X241284971Y-136074073D02*
G01*
X241472246Y-136155605D01*
X241624817Y-136309338D01*
X241689763Y-136433817D01*
X241735240Y-136674281D01*
X241729105Y-136807907D01*
X241695934Y-136931609D01*
X241626331Y-136979067D01*
X241511700Y-136961321D01*
X241496543Y-136956159D01*
X241416164Y-136915221D01*
X241385741Y-136847058D01*
X241387777Y-136717202D01*
X241390543Y-136625516D01*
X241366802Y-136518235D01*
X241295820Y-136444732D01*
X241208428Y-136402867D01*
X241116881Y-136398198D01*
X241116346Y-136398413D01*
X241066880Y-136452693D01*
X240994892Y-136568863D01*
X240914436Y-136719170D01*
X240839566Y-136875862D01*
X240784338Y-137011186D01*
X240762805Y-137097387D01*
X240783891Y-137110211D01*
X240883113Y-137126354D01*
X241045146Y-137137410D01*
X241249395Y-137141510D01*
X241390772Y-137142464D01*
X241568824Y-137146958D01*
X241690762Y-137154298D01*
X241735985Y-137163550D01*
X241720787Y-137211910D01*
X241679515Y-137309527D01*
X241623046Y-137433464D01*
X240898555Y-137433464D01*
X240712846Y-137432672D01*
X240430835Y-137425179D01*
X240221616Y-137406089D01*
X240069272Y-137370954D01*
X239957887Y-137315324D01*
X239871543Y-137234750D01*
X239794323Y-137124782D01*
X239730594Y-136984678D01*
X239692307Y-136725989D01*
X239696684Y-136607954D01*
X239723171Y-136503677D01*
X239789204Y-136406591D01*
X239912127Y-136281636D01*
X239998939Y-136201279D01*
X240111644Y-136117570D01*
X240217280Y-136079817D01*
X240351307Y-136071012D01*
X240570668Y-136071012D01*
X240493309Y-136220608D01*
X240399042Y-136339160D01*
X240272067Y-136420362D01*
X240237544Y-136434310D01*
X240103735Y-136540573D01*
X240036640Y-136688217D01*
X240043170Y-136849213D01*
X240130238Y-136995533D01*
X240200950Y-137057440D01*
X240291413Y-137093501D01*
X240371923Y-137054898D01*
X240452908Y-136934869D01*
X240544795Y-136726650D01*
X240557486Y-136695054D01*
X240640542Y-136505492D01*
X240722442Y-136342823D01*
X240787134Y-136239328D01*
X240902685Y-136135669D01*
X241087085Y-136066756D01*
X241284971Y-136074073D01*
G37*
X232728933Y-122361338D02*
X232734975Y-122392239D01*
X232766281Y-122556341D01*
X232808822Y-122783254D01*
X232857781Y-123047189D01*
X232908344Y-123322353D01*
X232928683Y-123430712D01*
X232978162Y-123672839D01*
X233024951Y-123874624D01*
X233064561Y-124017524D01*
X233092502Y-124082999D01*
X233138158Y-124112669D01*
X233258956Y-124166686D01*
X233415295Y-124221944D01*
X233473839Y-124241394D01*
X233666015Y-124312993D01*
X233893461Y-124405346D01*
X234118591Y-124503412D01*
X234236181Y-124555860D01*
X234411825Y-124630582D01*
X234543364Y-124681933D01*
X234608755Y-124701025D01*
X234613690Y-124699964D01*
X234683065Y-124663750D01*
X234816949Y-124582090D01*
X235002366Y-124463271D01*
X235226342Y-124315577D01*
X235475900Y-124147295D01*
X236288552Y-123593566D01*
X237017249Y-124321048D01*
X237087369Y-124391409D01*
X237297255Y-124606551D01*
X237478257Y-124798823D01*
X237620173Y-124956960D01*
X237712803Y-125069697D01*
X237745947Y-125125770D01*
X237720730Y-125186664D01*
X237648335Y-125314184D01*
X237537450Y-125493674D01*
X237396779Y-125711055D01*
X237235027Y-125952247D01*
X237075273Y-126189150D01*
X236934595Y-126402871D01*
X236823416Y-126577243D01*
X236750374Y-126698716D01*
X236724108Y-126753737D01*
X236724346Y-126756963D01*
X236750242Y-126830052D01*
X236810536Y-126959670D01*
X236893309Y-127120014D01*
X236894216Y-127121698D01*
X237000877Y-127334658D01*
X237052985Y-127480583D01*
X237053129Y-127571124D01*
X237003897Y-127617933D01*
X236955435Y-127637747D01*
X236825647Y-127691220D01*
X236626125Y-127773589D01*
X236367477Y-127880471D01*
X236060307Y-128007482D01*
X235715222Y-128150241D01*
X235342826Y-128304365D01*
X235004043Y-128444063D01*
X234656416Y-128586204D01*
X234345772Y-128711964D01*
X234082678Y-128817124D01*
X233877698Y-128897462D01*
X233741398Y-128948760D01*
X233684343Y-128966797D01*
X233632025Y-128932349D01*
X233544671Y-128836652D01*
X233443174Y-128701186D01*
X233177645Y-128375966D01*
X232838345Y-128084925D01*
X232465013Y-127871943D01*
X232068672Y-127738331D01*
X231660345Y-127685401D01*
X231251055Y-127714464D01*
X230851826Y-127826832D01*
X230473679Y-128023816D01*
X230127639Y-128306727D01*
X229992879Y-128454240D01*
X229754599Y-128807660D01*
X229599254Y-129185825D01*
X229523145Y-129577681D01*
X229522574Y-129972177D01*
X229593842Y-130358258D01*
X229733250Y-130724871D01*
X229937101Y-131060963D01*
X230201696Y-131355482D01*
X230523336Y-131597373D01*
X230898323Y-131775583D01*
X231322958Y-131879060D01*
X231527629Y-131898051D01*
X231971057Y-131871923D01*
X232391761Y-131754256D01*
X232782304Y-131548530D01*
X233135253Y-131258223D01*
X233443174Y-130886815D01*
X233540538Y-130756398D01*
X233628850Y-130658594D01*
X233684261Y-130621204D01*
X233732565Y-130636114D01*
X233861994Y-130684496D01*
X234061085Y-130762291D01*
X234319271Y-130865282D01*
X234625987Y-130989251D01*
X234970666Y-131129980D01*
X235342744Y-131283251D01*
X235679904Y-131422715D01*
X236028144Y-131566724D01*
X236339498Y-131695438D01*
X236603357Y-131804474D01*
X236809115Y-131889449D01*
X236946164Y-131945980D01*
X237003897Y-131969683D01*
X237004580Y-131969959D01*
X237053330Y-132017380D01*
X237052772Y-132108364D01*
X237000300Y-132254652D01*
X236893309Y-132467987D01*
X236884300Y-132484780D01*
X236803251Y-132643198D01*
X236745880Y-132768294D01*
X236724108Y-132834263D01*
X236749838Y-132888334D01*
X236822431Y-133009175D01*
X236933252Y-133183059D01*
X237073664Y-133396436D01*
X237235027Y-133635754D01*
X237393224Y-133871554D01*
X237534484Y-134089649D01*
X237646160Y-134270180D01*
X237719549Y-134399067D01*
X237745947Y-134462231D01*
X237742595Y-134472989D01*
X237689764Y-134547985D01*
X237580636Y-134676122D01*
X237425414Y-134846132D01*
X237234302Y-135046748D01*
X237017500Y-135266702D01*
X236289053Y-135993935D01*
X235455893Y-135427524D01*
X234622733Y-134861112D01*
X234250144Y-135033330D01*
X234249041Y-135033840D01*
X234011524Y-135137256D01*
X233747030Y-135242934D01*
X233512613Y-135328071D01*
X233474805Y-135340955D01*
X233299283Y-135405913D01*
X233162891Y-135464489D01*
X233092502Y-135505343D01*
X233082563Y-135521980D01*
X233049215Y-135621857D01*
X233006070Y-135791447D01*
X232957617Y-136012221D01*
X232908344Y-136265648D01*
X232894446Y-136341558D01*
X232843845Y-136616193D01*
X232796182Y-136872450D01*
X232756273Y-137084537D01*
X232728933Y-137226663D01*
X232678511Y-137482123D01*
X231614741Y-137482123D01*
X231483942Y-137482067D01*
X231164838Y-137480988D01*
X230926686Y-137477800D01*
X230757315Y-137471553D01*
X230644552Y-137461297D01*
X230576227Y-137446081D01*
X230540167Y-137424956D01*
X230524201Y-137396970D01*
X230517732Y-137369877D01*
X230494851Y-137259420D01*
X230459909Y-137083201D01*
X230416313Y-136859143D01*
X230367472Y-136605163D01*
X230316795Y-136339184D01*
X230267689Y-136079125D01*
X230223562Y-135842906D01*
X230187823Y-135648448D01*
X230163880Y-135513671D01*
X230155142Y-135456496D01*
X230149867Y-135452631D01*
X230081403Y-135421543D01*
X229950407Y-135367745D01*
X229778035Y-135300015D01*
X229545789Y-135206020D01*
X229277377Y-135090311D01*
X229040819Y-134981854D01*
X228987720Y-134956997D01*
X228821448Y-134887255D01*
X228693201Y-134845470D01*
X228627218Y-134839958D01*
X228622542Y-134842800D01*
X228553675Y-134887949D01*
X228419900Y-134977455D01*
X228234250Y-135102538D01*
X228009759Y-135254423D01*
X227759460Y-135424333D01*
X227475086Y-135615784D01*
X227254185Y-135759399D01*
X227092186Y-135857115D01*
X226979056Y-135914584D01*
X226904761Y-135937458D01*
X226859268Y-135931386D01*
X226855855Y-135929343D01*
X226789561Y-135874422D01*
X226668754Y-135762455D01*
X226505410Y-135604969D01*
X226311503Y-135413491D01*
X226099008Y-135199548D01*
X225883368Y-134977616D01*
X225680681Y-134760219D01*
X225543927Y-134600469D01*
X225469600Y-134494224D01*
X225454195Y-134437340D01*
X225457655Y-134429907D01*
X225504309Y-134351632D01*
X225595474Y-134209525D01*
X225722395Y-134016902D01*
X225876320Y-133787077D01*
X226048495Y-133533365D01*
X226613276Y-132706317D01*
X226443760Y-132332822D01*
X226438848Y-132321969D01*
X226339507Y-132092660D01*
X226240704Y-131849388D01*
X226163142Y-131643043D01*
X226162822Y-131642131D01*
X226102828Y-131478310D01*
X226052159Y-131352199D01*
X226021753Y-131291033D01*
X226020650Y-131290043D01*
X225958385Y-131269279D01*
X225816785Y-131235106D01*
X225611115Y-131190822D01*
X225356636Y-131139723D01*
X225068612Y-131085107D01*
X225058290Y-131083203D01*
X224764385Y-131028679D01*
X224498238Y-130978742D01*
X224276842Y-130936625D01*
X224117189Y-130905559D01*
X224036272Y-130888776D01*
X224031788Y-130887702D01*
X223997148Y-130876653D01*
X223971111Y-130854266D01*
X223952450Y-130808257D01*
X223939937Y-130726345D01*
X223932342Y-130596246D01*
X223928439Y-130405677D01*
X223926997Y-130142357D01*
X223926790Y-129794000D01*
X223926790Y-129750231D01*
X223927075Y-129412042D01*
X223928732Y-129157509D01*
X223932989Y-128974348D01*
X223941075Y-128850276D01*
X223954218Y-128773011D01*
X223973646Y-128730269D01*
X224000588Y-128709768D01*
X224036272Y-128699225D01*
X224037553Y-128698923D01*
X224121439Y-128681598D01*
X224283480Y-128650102D01*
X224506684Y-128607664D01*
X224774059Y-128557518D01*
X225068612Y-128502894D01*
X225092713Y-128498439D01*
X225378599Y-128443984D01*
X225629709Y-128393313D01*
X225830779Y-128349721D01*
X225966548Y-128316507D01*
X226021753Y-128296968D01*
X226021841Y-128296863D01*
X226052382Y-128235285D01*
X226103129Y-128108905D01*
X226163142Y-127944958D01*
X226166401Y-127935725D01*
X226245617Y-127726128D01*
X226344971Y-127482316D01*
X226443760Y-127255179D01*
X226613276Y-126881684D01*
X226048495Y-126054636D01*
X226008772Y-125996384D01*
X225839926Y-125746867D01*
X225691292Y-125524222D01*
X225571623Y-125341763D01*
X225489672Y-125212804D01*
X225454195Y-125150661D01*
X225462327Y-125108080D01*
X225525337Y-125011408D01*
X225650117Y-124862008D01*
X225840172Y-124655738D01*
X226099008Y-124388453D01*
X226122568Y-124364535D01*
X226333665Y-124152445D01*
X226524909Y-123964052D01*
X226684319Y-123810889D01*
X226799910Y-123704489D01*
X226859700Y-123656384D01*
X226859990Y-123656228D01*
X226905510Y-123650116D01*
X226979346Y-123672654D01*
X227091602Y-123729527D01*
X227252377Y-123826421D01*
X227471773Y-123969020D01*
X227759891Y-124163010D01*
X227808520Y-124196069D01*
X228054877Y-124363258D01*
X228272962Y-124510795D01*
X228449739Y-124629892D01*
X228572170Y-124711761D01*
X228627218Y-124747616D01*
X228638878Y-124750321D01*
X228725877Y-124733356D01*
X228867935Y-124682535D01*
X229040819Y-124606147D01*
X229266918Y-124502334D01*
X229535203Y-124386420D01*
X229778035Y-124287986D01*
X229840888Y-124263581D01*
X230001370Y-124199668D01*
X230113173Y-124152716D01*
X230155142Y-124131505D01*
X230158278Y-124108092D01*
X230176419Y-124002866D01*
X230207748Y-123830635D01*
X230248858Y-123609319D01*
X230296341Y-123356839D01*
X230346788Y-123091114D01*
X230396792Y-122830065D01*
X230442943Y-122591611D01*
X230481834Y-122393675D01*
X230510056Y-122254174D01*
X230524201Y-122191031D01*
X230528188Y-122180562D01*
X230549698Y-122155046D01*
X230595493Y-122136062D01*
X230677744Y-122122661D01*
X230808622Y-122113893D01*
X231000300Y-122108807D01*
X231264950Y-122106452D01*
X231614741Y-122105878D01*
X232678511Y-122105878D01*
X232728933Y-122361338D01*
G36*
X232728933Y-122361338D02*
G01*
X232734975Y-122392239D01*
X232766281Y-122556341D01*
X232808822Y-122783254D01*
X232857781Y-123047189D01*
X232908344Y-123322353D01*
X232928683Y-123430712D01*
X232978162Y-123672839D01*
X233024951Y-123874624D01*
X233064561Y-124017524D01*
X233092502Y-124082999D01*
X233138158Y-124112669D01*
X233258956Y-124166686D01*
X233415295Y-124221944D01*
X233473839Y-124241394D01*
X233666015Y-124312993D01*
X233893461Y-124405346D01*
X234118591Y-124503412D01*
X234236181Y-124555860D01*
X234411825Y-124630582D01*
X234543364Y-124681933D01*
X234608755Y-124701025D01*
X234613690Y-124699964D01*
X234683065Y-124663750D01*
X234816949Y-124582090D01*
X235002366Y-124463271D01*
X235226342Y-124315577D01*
X235475900Y-124147295D01*
X236288552Y-123593566D01*
X237017249Y-124321048D01*
X237087369Y-124391409D01*
X237297255Y-124606551D01*
X237478257Y-124798823D01*
X237620173Y-124956960D01*
X237712803Y-125069697D01*
X237745947Y-125125770D01*
X237720730Y-125186664D01*
X237648335Y-125314184D01*
X237537450Y-125493674D01*
X237396779Y-125711055D01*
X237235027Y-125952247D01*
X237075273Y-126189150D01*
X236934595Y-126402871D01*
X236823416Y-126577243D01*
X236750374Y-126698716D01*
X236724108Y-126753737D01*
X236724346Y-126756963D01*
X236750242Y-126830052D01*
X236810536Y-126959670D01*
X236893309Y-127120014D01*
X236894216Y-127121698D01*
X237000877Y-127334658D01*
X237052985Y-127480583D01*
X237053129Y-127571124D01*
X237003897Y-127617933D01*
X236955435Y-127637747D01*
X236825647Y-127691220D01*
X236626125Y-127773589D01*
X236367477Y-127880471D01*
X236060307Y-128007482D01*
X235715222Y-128150241D01*
X235342826Y-128304365D01*
X235004043Y-128444063D01*
X234656416Y-128586204D01*
X234345772Y-128711964D01*
X234082678Y-128817124D01*
X233877698Y-128897462D01*
X233741398Y-128948760D01*
X233684343Y-128966797D01*
X233632025Y-128932349D01*
X233544671Y-128836652D01*
X233443174Y-128701186D01*
X233177645Y-128375966D01*
X232838345Y-128084925D01*
X232465013Y-127871943D01*
X232068672Y-127738331D01*
X231660345Y-127685401D01*
X231251055Y-127714464D01*
X230851826Y-127826832D01*
X230473679Y-128023816D01*
X230127639Y-128306727D01*
X229992879Y-128454240D01*
X229754599Y-128807660D01*
X229599254Y-129185825D01*
X229523145Y-129577681D01*
X229522574Y-129972177D01*
X229593842Y-130358258D01*
X229733250Y-130724871D01*
X229937101Y-131060963D01*
X230201696Y-131355482D01*
X230523336Y-131597373D01*
X230898323Y-131775583D01*
X231322958Y-131879060D01*
X231527629Y-131898051D01*
X231971057Y-131871923D01*
X232391761Y-131754256D01*
X232782304Y-131548530D01*
X233135253Y-131258223D01*
X233443174Y-130886815D01*
X233540538Y-130756398D01*
X233628850Y-130658594D01*
X233684261Y-130621204D01*
X233732565Y-130636114D01*
X233861994Y-130684496D01*
X234061085Y-130762291D01*
X234319271Y-130865282D01*
X234625987Y-130989251D01*
X234970666Y-131129980D01*
X235342744Y-131283251D01*
X235679904Y-131422715D01*
X236028144Y-131566724D01*
X236339498Y-131695438D01*
X236603357Y-131804474D01*
X236809115Y-131889449D01*
X236946164Y-131945980D01*
X237003897Y-131969683D01*
X237004580Y-131969959D01*
X237053330Y-132017380D01*
X237052772Y-132108364D01*
X237000300Y-132254652D01*
X236893309Y-132467987D01*
X236884300Y-132484780D01*
X236803251Y-132643198D01*
X236745880Y-132768294D01*
X236724108Y-132834263D01*
X236749838Y-132888334D01*
X236822431Y-133009175D01*
X236933252Y-133183059D01*
X237073664Y-133396436D01*
X237235027Y-133635754D01*
X237393224Y-133871554D01*
X237534484Y-134089649D01*
X237646160Y-134270180D01*
X237719549Y-134399067D01*
X237745947Y-134462231D01*
X237742595Y-134472989D01*
X237689764Y-134547985D01*
X237580636Y-134676122D01*
X237425414Y-134846132D01*
X237234302Y-135046748D01*
X237017500Y-135266702D01*
X236289053Y-135993935D01*
X235455893Y-135427524D01*
X234622733Y-134861112D01*
X234250144Y-135033330D01*
X234249041Y-135033840D01*
X234011524Y-135137256D01*
X233747030Y-135242934D01*
X233512613Y-135328071D01*
X233474805Y-135340955D01*
X233299283Y-135405913D01*
X233162891Y-135464489D01*
X233092502Y-135505343D01*
X233082563Y-135521980D01*
X233049215Y-135621857D01*
X233006070Y-135791447D01*
X232957617Y-136012221D01*
X232908344Y-136265648D01*
X232894446Y-136341558D01*
X232843845Y-136616193D01*
X232796182Y-136872450D01*
X232756273Y-137084537D01*
X232728933Y-137226663D01*
X232678511Y-137482123D01*
X231614741Y-137482123D01*
X231483942Y-137482067D01*
X231164838Y-137480988D01*
X230926686Y-137477800D01*
X230757315Y-137471553D01*
X230644552Y-137461297D01*
X230576227Y-137446081D01*
X230540167Y-137424956D01*
X230524201Y-137396970D01*
X230517732Y-137369877D01*
X230494851Y-137259420D01*
X230459909Y-137083201D01*
X230416313Y-136859143D01*
X230367472Y-136605163D01*
X230316795Y-136339184D01*
X230267689Y-136079125D01*
X230223562Y-135842906D01*
X230187823Y-135648448D01*
X230163880Y-135513671D01*
X230155142Y-135456496D01*
X230149867Y-135452631D01*
X230081403Y-135421543D01*
X229950407Y-135367745D01*
X229778035Y-135300015D01*
X229545789Y-135206020D01*
X229277377Y-135090311D01*
X229040819Y-134981854D01*
X228987720Y-134956997D01*
X228821448Y-134887255D01*
X228693201Y-134845470D01*
X228627218Y-134839958D01*
X228622542Y-134842800D01*
X228553675Y-134887949D01*
X228419900Y-134977455D01*
X228234250Y-135102538D01*
X228009759Y-135254423D01*
X227759460Y-135424333D01*
X227475086Y-135615784D01*
X227254185Y-135759399D01*
X227092186Y-135857115D01*
X226979056Y-135914584D01*
X226904761Y-135937458D01*
X226859268Y-135931386D01*
X226855855Y-135929343D01*
X226789561Y-135874422D01*
X226668754Y-135762455D01*
X226505410Y-135604969D01*
X226311503Y-135413491D01*
X226099008Y-135199548D01*
X225883368Y-134977616D01*
X225680681Y-134760219D01*
X225543927Y-134600469D01*
X225469600Y-134494224D01*
X225454195Y-134437340D01*
X225457655Y-134429907D01*
X225504309Y-134351632D01*
X225595474Y-134209525D01*
X225722395Y-134016902D01*
X225876320Y-133787077D01*
X226048495Y-133533365D01*
X226613276Y-132706317D01*
X226443760Y-132332822D01*
X226438848Y-132321969D01*
X226339507Y-132092660D01*
X226240704Y-131849388D01*
X226163142Y-131643043D01*
X226162822Y-131642131D01*
X226102828Y-131478310D01*
X226052159Y-131352199D01*
X226021753Y-131291033D01*
X226020650Y-131290043D01*
X225958385Y-131269279D01*
X225816785Y-131235106D01*
X225611115Y-131190822D01*
X225356636Y-131139723D01*
X225068612Y-131085107D01*
X225058290Y-131083203D01*
X224764385Y-131028679D01*
X224498238Y-130978742D01*
X224276842Y-130936625D01*
X224117189Y-130905559D01*
X224036272Y-130888776D01*
X224031788Y-130887702D01*
X223997148Y-130876653D01*
X223971111Y-130854266D01*
X223952450Y-130808257D01*
X223939937Y-130726345D01*
X223932342Y-130596246D01*
X223928439Y-130405677D01*
X223926997Y-130142357D01*
X223926790Y-129794000D01*
X223926790Y-129750231D01*
X223927075Y-129412042D01*
X223928732Y-129157509D01*
X223932989Y-128974348D01*
X223941075Y-128850276D01*
X223954218Y-128773011D01*
X223973646Y-128730269D01*
X224000588Y-128709768D01*
X224036272Y-128699225D01*
X224037553Y-128698923D01*
X224121439Y-128681598D01*
X224283480Y-128650102D01*
X224506684Y-128607664D01*
X224774059Y-128557518D01*
X225068612Y-128502894D01*
X225092713Y-128498439D01*
X225378599Y-128443984D01*
X225629709Y-128393313D01*
X225830779Y-128349721D01*
X225966548Y-128316507D01*
X226021753Y-128296968D01*
X226021841Y-128296863D01*
X226052382Y-128235285D01*
X226103129Y-128108905D01*
X226163142Y-127944958D01*
X226166401Y-127935725D01*
X226245617Y-127726128D01*
X226344971Y-127482316D01*
X226443760Y-127255179D01*
X226613276Y-126881684D01*
X226048495Y-126054636D01*
X226008772Y-125996384D01*
X225839926Y-125746867D01*
X225691292Y-125524222D01*
X225571623Y-125341763D01*
X225489672Y-125212804D01*
X225454195Y-125150661D01*
X225462327Y-125108080D01*
X225525337Y-125011408D01*
X225650117Y-124862008D01*
X225840172Y-124655738D01*
X226099008Y-124388453D01*
X226122568Y-124364535D01*
X226333665Y-124152445D01*
X226524909Y-123964052D01*
X226684319Y-123810889D01*
X226799910Y-123704489D01*
X226859700Y-123656384D01*
X226859990Y-123656228D01*
X226905510Y-123650116D01*
X226979346Y-123672654D01*
X227091602Y-123729527D01*
X227252377Y-123826421D01*
X227471773Y-123969020D01*
X227759891Y-124163010D01*
X227808520Y-124196069D01*
X228054877Y-124363258D01*
X228272962Y-124510795D01*
X228449739Y-124629892D01*
X228572170Y-124711761D01*
X228627218Y-124747616D01*
X228638878Y-124750321D01*
X228725877Y-124733356D01*
X228867935Y-124682535D01*
X229040819Y-124606147D01*
X229266918Y-124502334D01*
X229535203Y-124386420D01*
X229778035Y-124287986D01*
X229840888Y-124263581D01*
X230001370Y-124199668D01*
X230113173Y-124152716D01*
X230155142Y-124131505D01*
X230158278Y-124108092D01*
X230176419Y-124002866D01*
X230207748Y-123830635D01*
X230248858Y-123609319D01*
X230296341Y-123356839D01*
X230346788Y-123091114D01*
X230396792Y-122830065D01*
X230442943Y-122591611D01*
X230481834Y-122393675D01*
X230510056Y-122254174D01*
X230524201Y-122191031D01*
X230528188Y-122180562D01*
X230549698Y-122155046D01*
X230595493Y-122136062D01*
X230677744Y-122122661D01*
X230808622Y-122113893D01*
X231000300Y-122108807D01*
X231264950Y-122106452D01*
X231614741Y-122105878D01*
X232678511Y-122105878D01*
X232728933Y-122361338D01*
G37*
%TD*%
%LPC*%
D11*
%TO.C,REF\u002A\u002A*%
X245500000Y-106000000D03*
%TD*%
D12*
%TO.C,J103*%
X197358000Y-153289000D03*
D13*
X202438000Y-153289000D03*
X207518000Y-153289000D03*
%TD*%
D14*
%TO.C,J901*%
X236220000Y-150749000D03*
D15*
X238760000Y-150749000D03*
X236220000Y-153289000D03*
X238760000Y-153289000D03*
X236220000Y-155829000D03*
X238760000Y-155829000D03*
%TD*%
D14*
%TO.C,J701*%
X188849000Y-150749000D03*
D15*
X191389000Y-150749000D03*
X188849000Y-153289000D03*
X191389000Y-153289000D03*
X188849000Y-155829000D03*
X191389000Y-155829000D03*
%TD*%
D11*
%TO.C,REF\u002A\u002A*%
X174500000Y-157000000D03*
%TD*%
D14*
%TO.C,J201*%
X247015000Y-117475000D03*
D15*
X247015000Y-120015000D03*
X247015000Y-122555000D03*
X247015000Y-125095000D03*
X247015000Y-127635000D03*
X247015000Y-130175000D03*
%TD*%
D14*
%TO.C,J801*%
X228727000Y-150749000D03*
D15*
X231267000Y-150749000D03*
X228727000Y-153289000D03*
X231267000Y-153289000D03*
X228727000Y-155829000D03*
X231267000Y-155829000D03*
%TD*%
D12*
%TO.C,J101*%
X205620000Y-109695000D03*
D13*
X200540000Y-109695000D03*
X195460000Y-109695000D03*
X190380000Y-109695000D03*
%TD*%
D11*
%TO.C,REF\u002A\u002A*%
X245500000Y-157000000D03*
%TD*%
D12*
%TO.C,J104*%
X212598000Y-153289000D03*
D13*
X217678000Y-153289000D03*
X222758000Y-153289000D03*
%TD*%
D11*
%TO.C,REF\u002A\u002A*%
X174500000Y-106000000D03*
%TD*%
%LPD*%
M02*
