%TF.GenerationSoftware,KiCad,Pcbnew,8.0.2*%
%TF.CreationDate,2024-07-29T23:59:12+02:00*%
%TF.ProjectId,latchingRelay,6c617463-6869-46e6-9752-656c61792e6b,rev?*%
%TF.SameCoordinates,Original*%
%TF.FileFunction,Legend,Top*%
%TF.FilePolarity,Positive*%
%FSLAX46Y46*%
G04 Gerber Fmt 4.6, Leading zero omitted, Abs format (unit mm)*
G04 Created by KiCad (PCBNEW 8.0.2) date 2024-07-29 23:59:12*
%MOMM*%
%LPD*%
G01*
G04 APERTURE LIST*
G04 Aperture macros list*
%AMRoundRect*
0 Rectangle with rounded corners*
0 $1 Rounding radius*
0 $2 $3 $4 $5 $6 $7 $8 $9 X,Y pos of 4 corners*
0 Add a 4 corners polygon primitive as box body*
4,1,4,$2,$3,$4,$5,$6,$7,$8,$9,$2,$3,0*
0 Add four circle primitives for the rounded corners*
1,1,$1+$1,$2,$3*
1,1,$1+$1,$4,$5*
1,1,$1+$1,$6,$7*
1,1,$1+$1,$8,$9*
0 Add four rect primitives between the rounded corners*
20,1,$1+$1,$2,$3,$4,$5,0*
20,1,$1+$1,$4,$5,$6,$7,0*
20,1,$1+$1,$6,$7,$8,$9,0*
20,1,$1+$1,$8,$9,$2,$3,0*%
G04 Aperture macros list end*
%ADD10C,0.150000*%
%ADD11C,0.120000*%
%ADD12C,3.200000*%
%ADD13RoundRect,0.250000X1.550000X-0.650000X1.550000X0.650000X-1.550000X0.650000X-1.550000X-0.650000X0*%
%ADD14O,3.600000X1.800000*%
%ADD15RoundRect,0.250000X0.350000X0.450000X-0.350000X0.450000X-0.350000X-0.450000X0.350000X-0.450000X0*%
%ADD16RoundRect,0.112500X0.187500X0.112500X-0.187500X0.112500X-0.187500X-0.112500X0.187500X-0.112500X0*%
%ADD17RoundRect,0.250000X-1.550000X0.650000X-1.550000X-0.650000X1.550000X-0.650000X1.550000X0.650000X0*%
%ADD18O,1.600000X2.300000*%
G04 APERTURE END LIST*
D10*
X155321000Y-85344000D02*
X155321000Y-82677000D01*
X155384500Y-94488000D02*
X155384500Y-92075000D01*
X157226000Y-85344000D02*
X155321000Y-85344000D01*
X156146500Y-95504000D02*
X155575000Y-94869000D01*
X155384500Y-99314000D02*
X155384500Y-96393000D01*
X157289500Y-99314000D02*
X155384500Y-99314000D01*
X155321000Y-80772000D02*
X155321000Y-78105000D01*
X157289500Y-95504000D02*
X156146500Y-95504000D01*
X156083000Y-81534000D02*
X155448000Y-82296000D01*
X157226000Y-81534000D02*
X156083000Y-81534000D01*
X155321000Y-78105000D02*
X157226000Y-78105000D01*
X155384500Y-92075000D02*
X157289500Y-92075000D01*
X149738094Y-82850068D02*
X149166666Y-82850068D01*
X149452380Y-81850068D02*
X149452380Y-82850068D01*
X148833332Y-81850068D02*
X148833332Y-82516735D01*
X148833332Y-82326259D02*
X148785713Y-82421497D01*
X148785713Y-82421497D02*
X148738094Y-82469116D01*
X148738094Y-82469116D02*
X148642856Y-82516735D01*
X148642856Y-82516735D02*
X148547618Y-82516735D01*
X147785713Y-81850068D02*
X147785713Y-82373878D01*
X147785713Y-82373878D02*
X147833332Y-82469116D01*
X147833332Y-82469116D02*
X147928570Y-82516735D01*
X147928570Y-82516735D02*
X148119046Y-82516735D01*
X148119046Y-82516735D02*
X148214284Y-82469116D01*
X147785713Y-81897688D02*
X147880951Y-81850068D01*
X147880951Y-81850068D02*
X148119046Y-81850068D01*
X148119046Y-81850068D02*
X148214284Y-81897688D01*
X148214284Y-81897688D02*
X148261903Y-81992926D01*
X148261903Y-81992926D02*
X148261903Y-82088164D01*
X148261903Y-82088164D02*
X148214284Y-82183402D01*
X148214284Y-82183402D02*
X148119046Y-82231021D01*
X148119046Y-82231021D02*
X147880951Y-82231021D01*
X147880951Y-82231021D02*
X147785713Y-82278640D01*
X147309522Y-81850068D02*
X147309522Y-82516735D01*
X147309522Y-82850068D02*
X147357141Y-82802449D01*
X147357141Y-82802449D02*
X147309522Y-82754830D01*
X147309522Y-82754830D02*
X147261903Y-82802449D01*
X147261903Y-82802449D02*
X147309522Y-82850068D01*
X147309522Y-82850068D02*
X147309522Y-82754830D01*
X146833332Y-82516735D02*
X146833332Y-81850068D01*
X146833332Y-82421497D02*
X146785713Y-82469116D01*
X146785713Y-82469116D02*
X146690475Y-82516735D01*
X146690475Y-82516735D02*
X146547618Y-82516735D01*
X146547618Y-82516735D02*
X146452380Y-82469116D01*
X146452380Y-82469116D02*
X146404761Y-82373878D01*
X146404761Y-82373878D02*
X146404761Y-81850068D01*
X145928570Y-82231021D02*
X145166666Y-82231021D01*
X144738094Y-81897688D02*
X144595237Y-81850068D01*
X144595237Y-81850068D02*
X144357142Y-81850068D01*
X144357142Y-81850068D02*
X144261904Y-81897688D01*
X144261904Y-81897688D02*
X144214285Y-81945307D01*
X144214285Y-81945307D02*
X144166666Y-82040545D01*
X144166666Y-82040545D02*
X144166666Y-82135783D01*
X144166666Y-82135783D02*
X144214285Y-82231021D01*
X144214285Y-82231021D02*
X144261904Y-82278640D01*
X144261904Y-82278640D02*
X144357142Y-82326259D01*
X144357142Y-82326259D02*
X144547618Y-82373878D01*
X144547618Y-82373878D02*
X144642856Y-82421497D01*
X144642856Y-82421497D02*
X144690475Y-82469116D01*
X144690475Y-82469116D02*
X144738094Y-82564354D01*
X144738094Y-82564354D02*
X144738094Y-82659592D01*
X144738094Y-82659592D02*
X144690475Y-82754830D01*
X144690475Y-82754830D02*
X144642856Y-82802449D01*
X144642856Y-82802449D02*
X144547618Y-82850068D01*
X144547618Y-82850068D02*
X144309523Y-82850068D01*
X144309523Y-82850068D02*
X144166666Y-82802449D01*
X143309523Y-81897688D02*
X143404761Y-81850068D01*
X143404761Y-81850068D02*
X143595237Y-81850068D01*
X143595237Y-81850068D02*
X143690475Y-81897688D01*
X143690475Y-81897688D02*
X143738094Y-81945307D01*
X143738094Y-81945307D02*
X143785713Y-82040545D01*
X143785713Y-82040545D02*
X143785713Y-82326259D01*
X143785713Y-82326259D02*
X143738094Y-82421497D01*
X143738094Y-82421497D02*
X143690475Y-82469116D01*
X143690475Y-82469116D02*
X143595237Y-82516735D01*
X143595237Y-82516735D02*
X143404761Y-82516735D01*
X143404761Y-82516735D02*
X143309523Y-82469116D01*
X142880951Y-81850068D02*
X142880951Y-82516735D01*
X142880951Y-82850068D02*
X142928570Y-82802449D01*
X142928570Y-82802449D02*
X142880951Y-82754830D01*
X142880951Y-82754830D02*
X142833332Y-82802449D01*
X142833332Y-82802449D02*
X142880951Y-82850068D01*
X142880951Y-82850068D02*
X142880951Y-82754830D01*
X142023809Y-81897688D02*
X142119047Y-81850068D01*
X142119047Y-81850068D02*
X142309523Y-81850068D01*
X142309523Y-81850068D02*
X142404761Y-81897688D01*
X142404761Y-81897688D02*
X142452380Y-81992926D01*
X142452380Y-81992926D02*
X142452380Y-82373878D01*
X142452380Y-82373878D02*
X142404761Y-82469116D01*
X142404761Y-82469116D02*
X142309523Y-82516735D01*
X142309523Y-82516735D02*
X142119047Y-82516735D01*
X142119047Y-82516735D02*
X142023809Y-82469116D01*
X142023809Y-82469116D02*
X141976190Y-82373878D01*
X141976190Y-82373878D02*
X141976190Y-82278640D01*
X141976190Y-82278640D02*
X142452380Y-82183402D01*
X141547618Y-82516735D02*
X141547618Y-81850068D01*
X141547618Y-82421497D02*
X141499999Y-82469116D01*
X141499999Y-82469116D02*
X141404761Y-82516735D01*
X141404761Y-82516735D02*
X141261904Y-82516735D01*
X141261904Y-82516735D02*
X141166666Y-82469116D01*
X141166666Y-82469116D02*
X141119047Y-82373878D01*
X141119047Y-82373878D02*
X141119047Y-81850068D01*
X140214285Y-81897688D02*
X140309523Y-81850068D01*
X140309523Y-81850068D02*
X140499999Y-81850068D01*
X140499999Y-81850068D02*
X140595237Y-81897688D01*
X140595237Y-81897688D02*
X140642856Y-81945307D01*
X140642856Y-81945307D02*
X140690475Y-82040545D01*
X140690475Y-82040545D02*
X140690475Y-82326259D01*
X140690475Y-82326259D02*
X140642856Y-82421497D01*
X140642856Y-82421497D02*
X140595237Y-82469116D01*
X140595237Y-82469116D02*
X140499999Y-82516735D01*
X140499999Y-82516735D02*
X140309523Y-82516735D01*
X140309523Y-82516735D02*
X140214285Y-82469116D01*
X139404761Y-81897688D02*
X139499999Y-81850068D01*
X139499999Y-81850068D02*
X139690475Y-81850068D01*
X139690475Y-81850068D02*
X139785713Y-81897688D01*
X139785713Y-81897688D02*
X139833332Y-81992926D01*
X139833332Y-81992926D02*
X139833332Y-82373878D01*
X139833332Y-82373878D02*
X139785713Y-82469116D01*
X139785713Y-82469116D02*
X139690475Y-82516735D01*
X139690475Y-82516735D02*
X139499999Y-82516735D01*
X139499999Y-82516735D02*
X139404761Y-82469116D01*
X139404761Y-82469116D02*
X139357142Y-82373878D01*
X139357142Y-82373878D02*
X139357142Y-82278640D01*
X139357142Y-82278640D02*
X139833332Y-82183402D01*
X147571428Y-80763934D02*
X147428571Y-80716315D01*
X147428571Y-80716315D02*
X147380952Y-80668696D01*
X147380952Y-80668696D02*
X147333333Y-80573458D01*
X147333333Y-80573458D02*
X147333333Y-80430601D01*
X147333333Y-80430601D02*
X147380952Y-80335363D01*
X147380952Y-80335363D02*
X147428571Y-80287744D01*
X147428571Y-80287744D02*
X147523809Y-80240124D01*
X147523809Y-80240124D02*
X147904761Y-80240124D01*
X147904761Y-80240124D02*
X147904761Y-81240124D01*
X147904761Y-81240124D02*
X147571428Y-81240124D01*
X147571428Y-81240124D02*
X147476190Y-81192505D01*
X147476190Y-81192505D02*
X147428571Y-81144886D01*
X147428571Y-81144886D02*
X147380952Y-81049648D01*
X147380952Y-81049648D02*
X147380952Y-80954410D01*
X147380952Y-80954410D02*
X147428571Y-80859172D01*
X147428571Y-80859172D02*
X147476190Y-80811553D01*
X147476190Y-80811553D02*
X147571428Y-80763934D01*
X147571428Y-80763934D02*
X147904761Y-80763934D01*
X146904761Y-80240124D02*
X146904761Y-80906791D01*
X146904761Y-81240124D02*
X146952380Y-81192505D01*
X146952380Y-81192505D02*
X146904761Y-81144886D01*
X146904761Y-81144886D02*
X146857142Y-81192505D01*
X146857142Y-81192505D02*
X146904761Y-81240124D01*
X146904761Y-81240124D02*
X146904761Y-81144886D01*
X146428571Y-80621077D02*
X145666667Y-80621077D01*
X145238095Y-80287744D02*
X145142857Y-80240124D01*
X145142857Y-80240124D02*
X144952381Y-80240124D01*
X144952381Y-80240124D02*
X144857143Y-80287744D01*
X144857143Y-80287744D02*
X144809524Y-80382982D01*
X144809524Y-80382982D02*
X144809524Y-80430601D01*
X144809524Y-80430601D02*
X144857143Y-80525839D01*
X144857143Y-80525839D02*
X144952381Y-80573458D01*
X144952381Y-80573458D02*
X145095238Y-80573458D01*
X145095238Y-80573458D02*
X145190476Y-80621077D01*
X145190476Y-80621077D02*
X145238095Y-80716315D01*
X145238095Y-80716315D02*
X145238095Y-80763934D01*
X145238095Y-80763934D02*
X145190476Y-80859172D01*
X145190476Y-80859172D02*
X145095238Y-80906791D01*
X145095238Y-80906791D02*
X144952381Y-80906791D01*
X144952381Y-80906791D02*
X144857143Y-80859172D01*
X144523809Y-80906791D02*
X144142857Y-80906791D01*
X144380952Y-81240124D02*
X144380952Y-80382982D01*
X144380952Y-80382982D02*
X144333333Y-80287744D01*
X144333333Y-80287744D02*
X144238095Y-80240124D01*
X144238095Y-80240124D02*
X144142857Y-80240124D01*
X143380952Y-80240124D02*
X143380952Y-80763934D01*
X143380952Y-80763934D02*
X143428571Y-80859172D01*
X143428571Y-80859172D02*
X143523809Y-80906791D01*
X143523809Y-80906791D02*
X143714285Y-80906791D01*
X143714285Y-80906791D02*
X143809523Y-80859172D01*
X143380952Y-80287744D02*
X143476190Y-80240124D01*
X143476190Y-80240124D02*
X143714285Y-80240124D01*
X143714285Y-80240124D02*
X143809523Y-80287744D01*
X143809523Y-80287744D02*
X143857142Y-80382982D01*
X143857142Y-80382982D02*
X143857142Y-80478220D01*
X143857142Y-80478220D02*
X143809523Y-80573458D01*
X143809523Y-80573458D02*
X143714285Y-80621077D01*
X143714285Y-80621077D02*
X143476190Y-80621077D01*
X143476190Y-80621077D02*
X143380952Y-80668696D01*
X142904761Y-80240124D02*
X142904761Y-81240124D01*
X142904761Y-80859172D02*
X142809523Y-80906791D01*
X142809523Y-80906791D02*
X142619047Y-80906791D01*
X142619047Y-80906791D02*
X142523809Y-80859172D01*
X142523809Y-80859172D02*
X142476190Y-80811553D01*
X142476190Y-80811553D02*
X142428571Y-80716315D01*
X142428571Y-80716315D02*
X142428571Y-80430601D01*
X142428571Y-80430601D02*
X142476190Y-80335363D01*
X142476190Y-80335363D02*
X142523809Y-80287744D01*
X142523809Y-80287744D02*
X142619047Y-80240124D01*
X142619047Y-80240124D02*
X142809523Y-80240124D01*
X142809523Y-80240124D02*
X142904761Y-80287744D01*
X141857142Y-80240124D02*
X141952380Y-80287744D01*
X141952380Y-80287744D02*
X141999999Y-80382982D01*
X141999999Y-80382982D02*
X141999999Y-81240124D01*
X141095237Y-80287744D02*
X141190475Y-80240124D01*
X141190475Y-80240124D02*
X141380951Y-80240124D01*
X141380951Y-80240124D02*
X141476189Y-80287744D01*
X141476189Y-80287744D02*
X141523808Y-80382982D01*
X141523808Y-80382982D02*
X141523808Y-80763934D01*
X141523808Y-80763934D02*
X141476189Y-80859172D01*
X141476189Y-80859172D02*
X141380951Y-80906791D01*
X141380951Y-80906791D02*
X141190475Y-80906791D01*
X141190475Y-80906791D02*
X141095237Y-80859172D01*
X141095237Y-80859172D02*
X141047618Y-80763934D01*
X141047618Y-80763934D02*
X141047618Y-80668696D01*
X141047618Y-80668696D02*
X141523808Y-80573458D01*
X146095238Y-78630180D02*
X146095238Y-79296847D01*
X146095238Y-79106371D02*
X146047619Y-79201609D01*
X146047619Y-79201609D02*
X146000000Y-79249228D01*
X146000000Y-79249228D02*
X145904762Y-79296847D01*
X145904762Y-79296847D02*
X145809524Y-79296847D01*
X145095238Y-78677800D02*
X145190476Y-78630180D01*
X145190476Y-78630180D02*
X145380952Y-78630180D01*
X145380952Y-78630180D02*
X145476190Y-78677800D01*
X145476190Y-78677800D02*
X145523809Y-78773038D01*
X145523809Y-78773038D02*
X145523809Y-79153990D01*
X145523809Y-79153990D02*
X145476190Y-79249228D01*
X145476190Y-79249228D02*
X145380952Y-79296847D01*
X145380952Y-79296847D02*
X145190476Y-79296847D01*
X145190476Y-79296847D02*
X145095238Y-79249228D01*
X145095238Y-79249228D02*
X145047619Y-79153990D01*
X145047619Y-79153990D02*
X145047619Y-79058752D01*
X145047619Y-79058752D02*
X145523809Y-78963514D01*
X144476190Y-78630180D02*
X144571428Y-78677800D01*
X144571428Y-78677800D02*
X144619047Y-78773038D01*
X144619047Y-78773038D02*
X144619047Y-79630180D01*
X143666666Y-78630180D02*
X143666666Y-79153990D01*
X143666666Y-79153990D02*
X143714285Y-79249228D01*
X143714285Y-79249228D02*
X143809523Y-79296847D01*
X143809523Y-79296847D02*
X143999999Y-79296847D01*
X143999999Y-79296847D02*
X144095237Y-79249228D01*
X143666666Y-78677800D02*
X143761904Y-78630180D01*
X143761904Y-78630180D02*
X143999999Y-78630180D01*
X143999999Y-78630180D02*
X144095237Y-78677800D01*
X144095237Y-78677800D02*
X144142856Y-78773038D01*
X144142856Y-78773038D02*
X144142856Y-78868276D01*
X144142856Y-78868276D02*
X144095237Y-78963514D01*
X144095237Y-78963514D02*
X143999999Y-79011133D01*
X143999999Y-79011133D02*
X143761904Y-79011133D01*
X143761904Y-79011133D02*
X143666666Y-79058752D01*
X143285713Y-79296847D02*
X143047618Y-78630180D01*
X142809523Y-79296847D02*
X143047618Y-78630180D01*
X143047618Y-78630180D02*
X143142856Y-78392085D01*
X143142856Y-78392085D02*
X143190475Y-78344466D01*
X143190475Y-78344466D02*
X143285713Y-78296847D01*
X155625800Y-100619160D02*
X155578180Y-100762017D01*
X155578180Y-100762017D02*
X155578180Y-101000112D01*
X155578180Y-101000112D02*
X155625800Y-101095350D01*
X155625800Y-101095350D02*
X155673419Y-101142969D01*
X155673419Y-101142969D02*
X155768657Y-101190588D01*
X155768657Y-101190588D02*
X155863895Y-101190588D01*
X155863895Y-101190588D02*
X155959133Y-101142969D01*
X155959133Y-101142969D02*
X156006752Y-101095350D01*
X156006752Y-101095350D02*
X156054371Y-101000112D01*
X156054371Y-101000112D02*
X156101990Y-100809636D01*
X156101990Y-100809636D02*
X156149609Y-100714398D01*
X156149609Y-100714398D02*
X156197228Y-100666779D01*
X156197228Y-100666779D02*
X156292466Y-100619160D01*
X156292466Y-100619160D02*
X156387704Y-100619160D01*
X156387704Y-100619160D02*
X156482942Y-100666779D01*
X156482942Y-100666779D02*
X156530561Y-100714398D01*
X156530561Y-100714398D02*
X156578180Y-100809636D01*
X156578180Y-100809636D02*
X156578180Y-101047731D01*
X156578180Y-101047731D02*
X156530561Y-101190588D01*
X137385419Y-88919207D02*
X137337800Y-88871588D01*
X137337800Y-88871588D02*
X137290180Y-88728731D01*
X137290180Y-88728731D02*
X137290180Y-88633493D01*
X137290180Y-88633493D02*
X137337800Y-88490636D01*
X137337800Y-88490636D02*
X137433038Y-88395398D01*
X137433038Y-88395398D02*
X137528276Y-88347779D01*
X137528276Y-88347779D02*
X137718752Y-88300160D01*
X137718752Y-88300160D02*
X137861609Y-88300160D01*
X137861609Y-88300160D02*
X138052085Y-88347779D01*
X138052085Y-88347779D02*
X138147323Y-88395398D01*
X138147323Y-88395398D02*
X138242561Y-88490636D01*
X138242561Y-88490636D02*
X138290180Y-88633493D01*
X138290180Y-88633493D02*
X138290180Y-88728731D01*
X138290180Y-88728731D02*
X138242561Y-88871588D01*
X138242561Y-88871588D02*
X138194942Y-88919207D01*
X155371800Y-76616160D02*
X155324180Y-76759017D01*
X155324180Y-76759017D02*
X155324180Y-76997112D01*
X155324180Y-76997112D02*
X155371800Y-77092350D01*
X155371800Y-77092350D02*
X155419419Y-77139969D01*
X155419419Y-77139969D02*
X155514657Y-77187588D01*
X155514657Y-77187588D02*
X155609895Y-77187588D01*
X155609895Y-77187588D02*
X155705133Y-77139969D01*
X155705133Y-77139969D02*
X155752752Y-77092350D01*
X155752752Y-77092350D02*
X155800371Y-76997112D01*
X155800371Y-76997112D02*
X155847990Y-76806636D01*
X155847990Y-76806636D02*
X155895609Y-76711398D01*
X155895609Y-76711398D02*
X155943228Y-76663779D01*
X155943228Y-76663779D02*
X156038466Y-76616160D01*
X156038466Y-76616160D02*
X156133704Y-76616160D01*
X156133704Y-76616160D02*
X156228942Y-76663779D01*
X156228942Y-76663779D02*
X156276561Y-76711398D01*
X156276561Y-76711398D02*
X156324180Y-76806636D01*
X156324180Y-76806636D02*
X156324180Y-77044731D01*
X156324180Y-77044731D02*
X156276561Y-77187588D01*
X134677800Y-95793160D02*
X134630180Y-95936017D01*
X134630180Y-95936017D02*
X134630180Y-96174112D01*
X134630180Y-96174112D02*
X134677800Y-96269350D01*
X134677800Y-96269350D02*
X134725419Y-96316969D01*
X134725419Y-96316969D02*
X134820657Y-96364588D01*
X134820657Y-96364588D02*
X134915895Y-96364588D01*
X134915895Y-96364588D02*
X135011133Y-96316969D01*
X135011133Y-96316969D02*
X135058752Y-96269350D01*
X135058752Y-96269350D02*
X135106371Y-96174112D01*
X135106371Y-96174112D02*
X135153990Y-95983636D01*
X135153990Y-95983636D02*
X135201609Y-95888398D01*
X135201609Y-95888398D02*
X135249228Y-95840779D01*
X135249228Y-95840779D02*
X135344466Y-95793160D01*
X135344466Y-95793160D02*
X135439704Y-95793160D01*
X135439704Y-95793160D02*
X135534942Y-95840779D01*
X135534942Y-95840779D02*
X135582561Y-95888398D01*
X135582561Y-95888398D02*
X135630180Y-95983636D01*
X135630180Y-95983636D02*
X135630180Y-96221731D01*
X135630180Y-96221731D02*
X135582561Y-96364588D01*
X134630180Y-81680207D02*
X135106371Y-81346874D01*
X134630180Y-81108779D02*
X135630180Y-81108779D01*
X135630180Y-81108779D02*
X135630180Y-81489731D01*
X135630180Y-81489731D02*
X135582561Y-81584969D01*
X135582561Y-81584969D02*
X135534942Y-81632588D01*
X135534942Y-81632588D02*
X135439704Y-81680207D01*
X135439704Y-81680207D02*
X135296847Y-81680207D01*
X135296847Y-81680207D02*
X135201609Y-81632588D01*
X135201609Y-81632588D02*
X135153990Y-81584969D01*
X135153990Y-81584969D02*
X135106371Y-81489731D01*
X135106371Y-81489731D02*
X135106371Y-81108779D01*
X156333819Y-90785792D02*
X155857628Y-91119125D01*
X156333819Y-91357220D02*
X155333819Y-91357220D01*
X155333819Y-91357220D02*
X155333819Y-90976268D01*
X155333819Y-90976268D02*
X155381438Y-90881030D01*
X155381438Y-90881030D02*
X155429057Y-90833411D01*
X155429057Y-90833411D02*
X155524295Y-90785792D01*
X155524295Y-90785792D02*
X155667152Y-90785792D01*
X155667152Y-90785792D02*
X155762390Y-90833411D01*
X155762390Y-90833411D02*
X155810009Y-90881030D01*
X155810009Y-90881030D02*
X155857628Y-90976268D01*
X155857628Y-90976268D02*
X155857628Y-91357220D01*
X156333819Y-85959792D02*
X155857628Y-86293125D01*
X156333819Y-86531220D02*
X155333819Y-86531220D01*
X155333819Y-86531220D02*
X155333819Y-86150268D01*
X155333819Y-86150268D02*
X155381438Y-86055030D01*
X155381438Y-86055030D02*
X155429057Y-86007411D01*
X155429057Y-86007411D02*
X155524295Y-85959792D01*
X155524295Y-85959792D02*
X155667152Y-85959792D01*
X155667152Y-85959792D02*
X155762390Y-86007411D01*
X155762390Y-86007411D02*
X155810009Y-86055030D01*
X155810009Y-86055030D02*
X155857628Y-86150268D01*
X155857628Y-86150268D02*
X155857628Y-86531220D01*
D11*
%TO.C,J102*%
X156400000Y-98700000D02*
X157000000Y-99000000D01*
X156400000Y-99300000D02*
X156400000Y-98700000D01*
X157000000Y-99000000D02*
X156400000Y-99300000D01*
X157690000Y-89440000D02*
X157690000Y-90950000D01*
X157690000Y-94450000D02*
X157690000Y-93050000D01*
X157690000Y-97950000D02*
X157690000Y-96550000D01*
X157690000Y-101560000D02*
X157690000Y-100050000D01*
X157690000Y-101560000D02*
X167110000Y-101560000D01*
X163800000Y-101560000D02*
X163800000Y-89440000D01*
X167110000Y-89440000D02*
X157690000Y-89440000D01*
X167110000Y-101560000D02*
X167110000Y-89440000D01*
%TO.C,R101*%
X143229064Y-94515000D02*
X142774936Y-94515000D01*
X143229064Y-95985000D02*
X142774936Y-95985000D01*
%TO.C,D101*%
X148422000Y-94400000D02*
X145762000Y-94400000D01*
X148422000Y-96100000D02*
X145762000Y-96100000D01*
X148422000Y-96100000D02*
X148422000Y-94400000D01*
%TO.C,J103*%
X156400000Y-84755000D02*
X157000000Y-85055000D01*
X156400000Y-85355000D02*
X156400000Y-84755000D01*
X157000000Y-85055000D02*
X156400000Y-85355000D01*
X157690000Y-75495000D02*
X157690000Y-77005000D01*
X157690000Y-80505000D02*
X157690000Y-79105000D01*
X157690000Y-84005000D02*
X157690000Y-82605000D01*
X157690000Y-87615000D02*
X157690000Y-86105000D01*
X157690000Y-87615000D02*
X167110000Y-87615000D01*
X163800000Y-87615000D02*
X163800000Y-75495000D01*
X167110000Y-75495000D02*
X157690000Y-75495000D01*
X167110000Y-87615000D02*
X167110000Y-75495000D01*
%TO.C,J101*%
X127029500Y-82514000D02*
X127029500Y-94634000D01*
X127029500Y-94634000D02*
X136449500Y-94634000D01*
X130339500Y-82514000D02*
X130339500Y-94634000D01*
X136449500Y-82514000D02*
X127029500Y-82514000D01*
X136449500Y-82514000D02*
X136449500Y-84024000D01*
X136449500Y-86124000D02*
X136449500Y-87524000D01*
X136449500Y-89624000D02*
X136449500Y-91024000D01*
X136449500Y-94634000D02*
X136449500Y-93124000D01*
X137139500Y-85074000D02*
X137739500Y-84774000D01*
X137739500Y-84774000D02*
X137739500Y-85374000D01*
X137739500Y-85374000D02*
X137139500Y-85074000D01*
%TO.C,K101*%
X138639000Y-83435000D02*
X153371000Y-83435000D01*
X138639000Y-93595000D02*
X138639000Y-83435000D01*
X140798000Y-87093000D02*
X141433000Y-87093000D01*
X140798000Y-90293000D02*
X141433000Y-90293000D01*
X140925000Y-87728000D02*
X140925000Y-89633000D01*
X140925000Y-87728000D02*
X141941000Y-87728000D01*
X140925000Y-88109000D02*
X141941000Y-88744000D01*
X140925000Y-89633000D02*
X141941000Y-89633000D01*
X141433000Y-87093000D02*
X141433000Y-87728000D01*
X141433000Y-90293000D02*
X141433000Y-89633000D01*
X141941000Y-89633000D02*
X141941000Y-87728000D01*
X153371000Y-83435000D02*
X153371000Y-93595000D01*
X153371000Y-93595000D02*
X138639000Y-93595000D01*
%TD*%
%LPC*%
D12*
%TO.C,REF\u002A\u002A*%
X152000000Y-98500000D03*
%TD*%
D13*
%TO.C,J102*%
X159000000Y-99000000D03*
D14*
X159000000Y-95500000D03*
X159000000Y-92000000D03*
%TD*%
D15*
%TO.C,R101*%
X144002000Y-95250000D03*
X142002000Y-95250000D03*
%TD*%
D16*
%TO.C,D101*%
X147862000Y-95250000D03*
X145762000Y-95250000D03*
%TD*%
D13*
%TO.C,J103*%
X159000000Y-85055000D03*
D14*
X159000000Y-81555000D03*
X159000000Y-78055000D03*
%TD*%
D17*
%TO.C,J101*%
X135139500Y-85074000D03*
D14*
X135139500Y-88574000D03*
X135139500Y-92074000D03*
%TD*%
D18*
%TO.C,K101*%
X140925000Y-92325000D03*
X143465000Y-92325000D03*
X146005000Y-92325000D03*
X148545000Y-92325000D03*
X151085000Y-92325000D03*
X151085000Y-84705000D03*
X148545000Y-84705000D03*
X146005000Y-84705000D03*
X143465000Y-84705000D03*
X140925000Y-84705000D03*
%TD*%
D12*
%TO.C,REF\u002A\u002A*%
X152000000Y-79000000D03*
%TD*%
%LPD*%
M02*
