%TF.GenerationSoftware,KiCad,Pcbnew,8.0.2*%
%TF.CreationDate,2024-12-08T22:50:30+01:00*%
%TF.ProjectId,front_panel,66726f6e-745f-4706-916e-656c2e6b6963,rev?*%
%TF.SameCoordinates,Original*%
%TF.FileFunction,Legend,Top*%
%TF.FilePolarity,Positive*%
%FSLAX46Y46*%
G04 Gerber Fmt 4.6, Leading zero omitted, Abs format (unit mm)*
G04 Created by KiCad (PCBNEW 8.0.2) date 2024-12-08 22:50:30*
%MOMM*%
%LPD*%
G01*
G04 APERTURE LIST*
%ADD10C,0.150000*%
%ADD11C,0.500000*%
%ADD12C,0.100000*%
%ADD13C,0.300000*%
%ADD14C,0.010000*%
%ADD15C,0.000000*%
%ADD16C,3.200000*%
G04 APERTURE END LIST*
D10*
X137630180Y-91285714D02*
X138630180Y-91285714D01*
X138630180Y-91285714D02*
X137915895Y-91619047D01*
X137915895Y-91619047D02*
X138630180Y-91952380D01*
X138630180Y-91952380D02*
X137630180Y-91952380D01*
X137630180Y-92428571D02*
X138630180Y-92428571D01*
X138011133Y-92523809D02*
X137630180Y-92809523D01*
X138296847Y-92809523D02*
X137915895Y-92428571D01*
X138534942Y-93190476D02*
X138582561Y-93238095D01*
X138582561Y-93238095D02*
X138630180Y-93333333D01*
X138630180Y-93333333D02*
X138630180Y-93571428D01*
X138630180Y-93571428D02*
X138582561Y-93666666D01*
X138582561Y-93666666D02*
X138534942Y-93714285D01*
X138534942Y-93714285D02*
X138439704Y-93761904D01*
X138439704Y-93761904D02*
X138344466Y-93761904D01*
X138344466Y-93761904D02*
X138201609Y-93714285D01*
X138201609Y-93714285D02*
X137630180Y-93142857D01*
X137630180Y-93142857D02*
X137630180Y-93761904D01*
D11*
X142893142Y-87857143D02*
X142893142Y-88428571D01*
X142893142Y-88428571D02*
X142750285Y-88714286D01*
X142750285Y-88714286D02*
X142464571Y-89000000D01*
X142464571Y-89000000D02*
X141893142Y-89142857D01*
X141893142Y-89142857D02*
X140893142Y-89142857D01*
X140893142Y-89142857D02*
X140321714Y-89000000D01*
X140321714Y-89000000D02*
X140036000Y-88714286D01*
X140036000Y-88714286D02*
X139893142Y-88428571D01*
X139893142Y-88428571D02*
X139893142Y-87857143D01*
X139893142Y-87857143D02*
X140036000Y-87571429D01*
X140036000Y-87571429D02*
X140321714Y-87285714D01*
X140321714Y-87285714D02*
X140893142Y-87142857D01*
X140893142Y-87142857D02*
X141893142Y-87142857D01*
X141893142Y-87142857D02*
X142464571Y-87285714D01*
X142464571Y-87285714D02*
X142750285Y-87571429D01*
X142750285Y-87571429D02*
X142893142Y-87857143D01*
X140036000Y-90285714D02*
X139893142Y-90714286D01*
X139893142Y-90714286D02*
X139893142Y-91428571D01*
X139893142Y-91428571D02*
X140036000Y-91714286D01*
X140036000Y-91714286D02*
X140178857Y-91857143D01*
X140178857Y-91857143D02*
X140464571Y-92000000D01*
X140464571Y-92000000D02*
X140750285Y-92000000D01*
X140750285Y-92000000D02*
X141036000Y-91857143D01*
X141036000Y-91857143D02*
X141178857Y-91714286D01*
X141178857Y-91714286D02*
X141321714Y-91428571D01*
X141321714Y-91428571D02*
X141464571Y-90857143D01*
X141464571Y-90857143D02*
X141607428Y-90571428D01*
X141607428Y-90571428D02*
X141750285Y-90428571D01*
X141750285Y-90428571D02*
X142036000Y-90285714D01*
X142036000Y-90285714D02*
X142321714Y-90285714D01*
X142321714Y-90285714D02*
X142607428Y-90428571D01*
X142607428Y-90428571D02*
X142750285Y-90571428D01*
X142750285Y-90571428D02*
X142893142Y-90857143D01*
X142893142Y-90857143D02*
X142893142Y-91571428D01*
X142893142Y-91571428D02*
X142750285Y-92000000D01*
X140036000Y-93142857D02*
X139893142Y-93571429D01*
X139893142Y-93571429D02*
X139893142Y-94285714D01*
X139893142Y-94285714D02*
X140036000Y-94571429D01*
X140036000Y-94571429D02*
X140178857Y-94714286D01*
X140178857Y-94714286D02*
X140464571Y-94857143D01*
X140464571Y-94857143D02*
X140750285Y-94857143D01*
X140750285Y-94857143D02*
X141036000Y-94714286D01*
X141036000Y-94714286D02*
X141178857Y-94571429D01*
X141178857Y-94571429D02*
X141321714Y-94285714D01*
X141321714Y-94285714D02*
X141464571Y-93714286D01*
X141464571Y-93714286D02*
X141607428Y-93428571D01*
X141607428Y-93428571D02*
X141750285Y-93285714D01*
X141750285Y-93285714D02*
X142036000Y-93142857D01*
X142036000Y-93142857D02*
X142321714Y-93142857D01*
X142321714Y-93142857D02*
X142607428Y-93285714D01*
X142607428Y-93285714D02*
X142750285Y-93428571D01*
X142750285Y-93428571D02*
X142893142Y-93714286D01*
X142893142Y-93714286D02*
X142893142Y-94428571D01*
X142893142Y-94428571D02*
X142750285Y-94857143D01*
X139893142Y-96142857D02*
X142893142Y-96142857D01*
X142893142Y-96142857D02*
X142893142Y-96857143D01*
X142893142Y-96857143D02*
X142750285Y-97285714D01*
X142750285Y-97285714D02*
X142464571Y-97571429D01*
X142464571Y-97571429D02*
X142178857Y-97714286D01*
X142178857Y-97714286D02*
X141607428Y-97857143D01*
X141607428Y-97857143D02*
X141178857Y-97857143D01*
X141178857Y-97857143D02*
X140607428Y-97714286D01*
X140607428Y-97714286D02*
X140321714Y-97571429D01*
X140321714Y-97571429D02*
X140036000Y-97285714D01*
X140036000Y-97285714D02*
X139893142Y-96857143D01*
X139893142Y-96857143D02*
X139893142Y-96142857D01*
D10*
X138690476Y-77915895D02*
X138214286Y-77915895D01*
X138785714Y-77630180D02*
X138452381Y-78630180D01*
X138452381Y-78630180D02*
X138119048Y-77630180D01*
X137357143Y-77630180D02*
X137357143Y-78630180D01*
X137357143Y-77677800D02*
X137452381Y-77630180D01*
X137452381Y-77630180D02*
X137642857Y-77630180D01*
X137642857Y-77630180D02*
X137738095Y-77677800D01*
X137738095Y-77677800D02*
X137785714Y-77725419D01*
X137785714Y-77725419D02*
X137833333Y-77820657D01*
X137833333Y-77820657D02*
X137833333Y-78106371D01*
X137833333Y-78106371D02*
X137785714Y-78201609D01*
X137785714Y-78201609D02*
X137738095Y-78249228D01*
X137738095Y-78249228D02*
X137642857Y-78296847D01*
X137642857Y-78296847D02*
X137452381Y-78296847D01*
X137452381Y-78296847D02*
X137357143Y-78249228D01*
X136452381Y-77630180D02*
X136452381Y-78630180D01*
X136452381Y-77677800D02*
X136547619Y-77630180D01*
X136547619Y-77630180D02*
X136738095Y-77630180D01*
X136738095Y-77630180D02*
X136833333Y-77677800D01*
X136833333Y-77677800D02*
X136880952Y-77725419D01*
X136880952Y-77725419D02*
X136928571Y-77820657D01*
X136928571Y-77820657D02*
X136928571Y-78106371D01*
X136928571Y-78106371D02*
X136880952Y-78201609D01*
X136880952Y-78201609D02*
X136833333Y-78249228D01*
X136833333Y-78249228D02*
X136738095Y-78296847D01*
X136738095Y-78296847D02*
X136547619Y-78296847D01*
X136547619Y-78296847D02*
X136452381Y-78249228D01*
X135976190Y-77630180D02*
X135976190Y-78296847D01*
X135976190Y-78106371D02*
X135928571Y-78201609D01*
X135928571Y-78201609D02*
X135880952Y-78249228D01*
X135880952Y-78249228D02*
X135785714Y-78296847D01*
X135785714Y-78296847D02*
X135690476Y-78296847D01*
X134976190Y-77677800D02*
X135071428Y-77630180D01*
X135071428Y-77630180D02*
X135261904Y-77630180D01*
X135261904Y-77630180D02*
X135357142Y-77677800D01*
X135357142Y-77677800D02*
X135404761Y-77773038D01*
X135404761Y-77773038D02*
X135404761Y-78153990D01*
X135404761Y-78153990D02*
X135357142Y-78249228D01*
X135357142Y-78249228D02*
X135261904Y-78296847D01*
X135261904Y-78296847D02*
X135071428Y-78296847D01*
X135071428Y-78296847D02*
X134976190Y-78249228D01*
X134976190Y-78249228D02*
X134928571Y-78153990D01*
X134928571Y-78153990D02*
X134928571Y-78058752D01*
X134928571Y-78058752D02*
X135404761Y-77963514D01*
X134547618Y-77677800D02*
X134452380Y-77630180D01*
X134452380Y-77630180D02*
X134261904Y-77630180D01*
X134261904Y-77630180D02*
X134166666Y-77677800D01*
X134166666Y-77677800D02*
X134119047Y-77773038D01*
X134119047Y-77773038D02*
X134119047Y-77820657D01*
X134119047Y-77820657D02*
X134166666Y-77915895D01*
X134166666Y-77915895D02*
X134261904Y-77963514D01*
X134261904Y-77963514D02*
X134404761Y-77963514D01*
X134404761Y-77963514D02*
X134499999Y-78011133D01*
X134499999Y-78011133D02*
X134547618Y-78106371D01*
X134547618Y-78106371D02*
X134547618Y-78153990D01*
X134547618Y-78153990D02*
X134499999Y-78249228D01*
X134499999Y-78249228D02*
X134404761Y-78296847D01*
X134404761Y-78296847D02*
X134261904Y-78296847D01*
X134261904Y-78296847D02*
X134166666Y-78249228D01*
X133738094Y-77677800D02*
X133642856Y-77630180D01*
X133642856Y-77630180D02*
X133452380Y-77630180D01*
X133452380Y-77630180D02*
X133357142Y-77677800D01*
X133357142Y-77677800D02*
X133309523Y-77773038D01*
X133309523Y-77773038D02*
X133309523Y-77820657D01*
X133309523Y-77820657D02*
X133357142Y-77915895D01*
X133357142Y-77915895D02*
X133452380Y-77963514D01*
X133452380Y-77963514D02*
X133595237Y-77963514D01*
X133595237Y-77963514D02*
X133690475Y-78011133D01*
X133690475Y-78011133D02*
X133738094Y-78106371D01*
X133738094Y-78106371D02*
X133738094Y-78153990D01*
X133738094Y-78153990D02*
X133690475Y-78249228D01*
X133690475Y-78249228D02*
X133595237Y-78296847D01*
X133595237Y-78296847D02*
X133452380Y-78296847D01*
X133452380Y-78296847D02*
X133357142Y-78249228D01*
X153690476Y-77915895D02*
X153214286Y-77915895D01*
X153785714Y-77630180D02*
X153452381Y-78630180D01*
X153452381Y-78630180D02*
X153119048Y-77630180D01*
X152357143Y-77630180D02*
X152357143Y-78630180D01*
X152357143Y-77677800D02*
X152452381Y-77630180D01*
X152452381Y-77630180D02*
X152642857Y-77630180D01*
X152642857Y-77630180D02*
X152738095Y-77677800D01*
X152738095Y-77677800D02*
X152785714Y-77725419D01*
X152785714Y-77725419D02*
X152833333Y-77820657D01*
X152833333Y-77820657D02*
X152833333Y-78106371D01*
X152833333Y-78106371D02*
X152785714Y-78201609D01*
X152785714Y-78201609D02*
X152738095Y-78249228D01*
X152738095Y-78249228D02*
X152642857Y-78296847D01*
X152642857Y-78296847D02*
X152452381Y-78296847D01*
X152452381Y-78296847D02*
X152357143Y-78249228D01*
X151452381Y-77630180D02*
X151452381Y-78630180D01*
X151452381Y-77677800D02*
X151547619Y-77630180D01*
X151547619Y-77630180D02*
X151738095Y-77630180D01*
X151738095Y-77630180D02*
X151833333Y-77677800D01*
X151833333Y-77677800D02*
X151880952Y-77725419D01*
X151880952Y-77725419D02*
X151928571Y-77820657D01*
X151928571Y-77820657D02*
X151928571Y-78106371D01*
X151928571Y-78106371D02*
X151880952Y-78201609D01*
X151880952Y-78201609D02*
X151833333Y-78249228D01*
X151833333Y-78249228D02*
X151738095Y-78296847D01*
X151738095Y-78296847D02*
X151547619Y-78296847D01*
X151547619Y-78296847D02*
X151452381Y-78249228D01*
X150976190Y-77630180D02*
X150976190Y-78296847D01*
X150976190Y-78106371D02*
X150928571Y-78201609D01*
X150928571Y-78201609D02*
X150880952Y-78249228D01*
X150880952Y-78249228D02*
X150785714Y-78296847D01*
X150785714Y-78296847D02*
X150690476Y-78296847D01*
X149976190Y-77677800D02*
X150071428Y-77630180D01*
X150071428Y-77630180D02*
X150261904Y-77630180D01*
X150261904Y-77630180D02*
X150357142Y-77677800D01*
X150357142Y-77677800D02*
X150404761Y-77773038D01*
X150404761Y-77773038D02*
X150404761Y-78153990D01*
X150404761Y-78153990D02*
X150357142Y-78249228D01*
X150357142Y-78249228D02*
X150261904Y-78296847D01*
X150261904Y-78296847D02*
X150071428Y-78296847D01*
X150071428Y-78296847D02*
X149976190Y-78249228D01*
X149976190Y-78249228D02*
X149928571Y-78153990D01*
X149928571Y-78153990D02*
X149928571Y-78058752D01*
X149928571Y-78058752D02*
X150404761Y-77963514D01*
X149547618Y-77677800D02*
X149452380Y-77630180D01*
X149452380Y-77630180D02*
X149261904Y-77630180D01*
X149261904Y-77630180D02*
X149166666Y-77677800D01*
X149166666Y-77677800D02*
X149119047Y-77773038D01*
X149119047Y-77773038D02*
X149119047Y-77820657D01*
X149119047Y-77820657D02*
X149166666Y-77915895D01*
X149166666Y-77915895D02*
X149261904Y-77963514D01*
X149261904Y-77963514D02*
X149404761Y-77963514D01*
X149404761Y-77963514D02*
X149499999Y-78011133D01*
X149499999Y-78011133D02*
X149547618Y-78106371D01*
X149547618Y-78106371D02*
X149547618Y-78153990D01*
X149547618Y-78153990D02*
X149499999Y-78249228D01*
X149499999Y-78249228D02*
X149404761Y-78296847D01*
X149404761Y-78296847D02*
X149261904Y-78296847D01*
X149261904Y-78296847D02*
X149166666Y-78249228D01*
X148738094Y-77677800D02*
X148642856Y-77630180D01*
X148642856Y-77630180D02*
X148452380Y-77630180D01*
X148452380Y-77630180D02*
X148357142Y-77677800D01*
X148357142Y-77677800D02*
X148309523Y-77773038D01*
X148309523Y-77773038D02*
X148309523Y-77820657D01*
X148309523Y-77820657D02*
X148357142Y-77915895D01*
X148357142Y-77915895D02*
X148452380Y-77963514D01*
X148452380Y-77963514D02*
X148595237Y-77963514D01*
X148595237Y-77963514D02*
X148690475Y-78011133D01*
X148690475Y-78011133D02*
X148738094Y-78106371D01*
X148738094Y-78106371D02*
X148738094Y-78153990D01*
X148738094Y-78153990D02*
X148690475Y-78249228D01*
X148690475Y-78249228D02*
X148595237Y-78296847D01*
X148595237Y-78296847D02*
X148452380Y-78296847D01*
X148452380Y-78296847D02*
X148357142Y-78249228D01*
X123690476Y-77915895D02*
X123214286Y-77915895D01*
X123785714Y-77630180D02*
X123452381Y-78630180D01*
X123452381Y-78630180D02*
X123119048Y-77630180D01*
X122357143Y-77630180D02*
X122357143Y-78630180D01*
X122357143Y-77677800D02*
X122452381Y-77630180D01*
X122452381Y-77630180D02*
X122642857Y-77630180D01*
X122642857Y-77630180D02*
X122738095Y-77677800D01*
X122738095Y-77677800D02*
X122785714Y-77725419D01*
X122785714Y-77725419D02*
X122833333Y-77820657D01*
X122833333Y-77820657D02*
X122833333Y-78106371D01*
X122833333Y-78106371D02*
X122785714Y-78201609D01*
X122785714Y-78201609D02*
X122738095Y-78249228D01*
X122738095Y-78249228D02*
X122642857Y-78296847D01*
X122642857Y-78296847D02*
X122452381Y-78296847D01*
X122452381Y-78296847D02*
X122357143Y-78249228D01*
X121452381Y-77630180D02*
X121452381Y-78630180D01*
X121452381Y-77677800D02*
X121547619Y-77630180D01*
X121547619Y-77630180D02*
X121738095Y-77630180D01*
X121738095Y-77630180D02*
X121833333Y-77677800D01*
X121833333Y-77677800D02*
X121880952Y-77725419D01*
X121880952Y-77725419D02*
X121928571Y-77820657D01*
X121928571Y-77820657D02*
X121928571Y-78106371D01*
X121928571Y-78106371D02*
X121880952Y-78201609D01*
X121880952Y-78201609D02*
X121833333Y-78249228D01*
X121833333Y-78249228D02*
X121738095Y-78296847D01*
X121738095Y-78296847D02*
X121547619Y-78296847D01*
X121547619Y-78296847D02*
X121452381Y-78249228D01*
X120976190Y-77630180D02*
X120976190Y-78296847D01*
X120976190Y-78106371D02*
X120928571Y-78201609D01*
X120928571Y-78201609D02*
X120880952Y-78249228D01*
X120880952Y-78249228D02*
X120785714Y-78296847D01*
X120785714Y-78296847D02*
X120690476Y-78296847D01*
X119976190Y-77677800D02*
X120071428Y-77630180D01*
X120071428Y-77630180D02*
X120261904Y-77630180D01*
X120261904Y-77630180D02*
X120357142Y-77677800D01*
X120357142Y-77677800D02*
X120404761Y-77773038D01*
X120404761Y-77773038D02*
X120404761Y-78153990D01*
X120404761Y-78153990D02*
X120357142Y-78249228D01*
X120357142Y-78249228D02*
X120261904Y-78296847D01*
X120261904Y-78296847D02*
X120071428Y-78296847D01*
X120071428Y-78296847D02*
X119976190Y-78249228D01*
X119976190Y-78249228D02*
X119928571Y-78153990D01*
X119928571Y-78153990D02*
X119928571Y-78058752D01*
X119928571Y-78058752D02*
X120404761Y-77963514D01*
X119547618Y-77677800D02*
X119452380Y-77630180D01*
X119452380Y-77630180D02*
X119261904Y-77630180D01*
X119261904Y-77630180D02*
X119166666Y-77677800D01*
X119166666Y-77677800D02*
X119119047Y-77773038D01*
X119119047Y-77773038D02*
X119119047Y-77820657D01*
X119119047Y-77820657D02*
X119166666Y-77915895D01*
X119166666Y-77915895D02*
X119261904Y-77963514D01*
X119261904Y-77963514D02*
X119404761Y-77963514D01*
X119404761Y-77963514D02*
X119499999Y-78011133D01*
X119499999Y-78011133D02*
X119547618Y-78106371D01*
X119547618Y-78106371D02*
X119547618Y-78153990D01*
X119547618Y-78153990D02*
X119499999Y-78249228D01*
X119499999Y-78249228D02*
X119404761Y-78296847D01*
X119404761Y-78296847D02*
X119261904Y-78296847D01*
X119261904Y-78296847D02*
X119166666Y-78249228D01*
X118738094Y-77677800D02*
X118642856Y-77630180D01*
X118642856Y-77630180D02*
X118452380Y-77630180D01*
X118452380Y-77630180D02*
X118357142Y-77677800D01*
X118357142Y-77677800D02*
X118309523Y-77773038D01*
X118309523Y-77773038D02*
X118309523Y-77820657D01*
X118309523Y-77820657D02*
X118357142Y-77915895D01*
X118357142Y-77915895D02*
X118452380Y-77963514D01*
X118452380Y-77963514D02*
X118595237Y-77963514D01*
X118595237Y-77963514D02*
X118690475Y-78011133D01*
X118690475Y-78011133D02*
X118738094Y-78106371D01*
X118738094Y-78106371D02*
X118738094Y-78153990D01*
X118738094Y-78153990D02*
X118690475Y-78249228D01*
X118690475Y-78249228D02*
X118595237Y-78296847D01*
X118595237Y-78296847D02*
X118452380Y-78296847D01*
X118452380Y-78296847D02*
X118357142Y-78249228D01*
X108690476Y-77915895D02*
X108214286Y-77915895D01*
X108785714Y-77630180D02*
X108452381Y-78630180D01*
X108452381Y-78630180D02*
X108119048Y-77630180D01*
X107357143Y-77630180D02*
X107357143Y-78630180D01*
X107357143Y-77677800D02*
X107452381Y-77630180D01*
X107452381Y-77630180D02*
X107642857Y-77630180D01*
X107642857Y-77630180D02*
X107738095Y-77677800D01*
X107738095Y-77677800D02*
X107785714Y-77725419D01*
X107785714Y-77725419D02*
X107833333Y-77820657D01*
X107833333Y-77820657D02*
X107833333Y-78106371D01*
X107833333Y-78106371D02*
X107785714Y-78201609D01*
X107785714Y-78201609D02*
X107738095Y-78249228D01*
X107738095Y-78249228D02*
X107642857Y-78296847D01*
X107642857Y-78296847D02*
X107452381Y-78296847D01*
X107452381Y-78296847D02*
X107357143Y-78249228D01*
X106452381Y-77630180D02*
X106452381Y-78630180D01*
X106452381Y-77677800D02*
X106547619Y-77630180D01*
X106547619Y-77630180D02*
X106738095Y-77630180D01*
X106738095Y-77630180D02*
X106833333Y-77677800D01*
X106833333Y-77677800D02*
X106880952Y-77725419D01*
X106880952Y-77725419D02*
X106928571Y-77820657D01*
X106928571Y-77820657D02*
X106928571Y-78106371D01*
X106928571Y-78106371D02*
X106880952Y-78201609D01*
X106880952Y-78201609D02*
X106833333Y-78249228D01*
X106833333Y-78249228D02*
X106738095Y-78296847D01*
X106738095Y-78296847D02*
X106547619Y-78296847D01*
X106547619Y-78296847D02*
X106452381Y-78249228D01*
X105976190Y-77630180D02*
X105976190Y-78296847D01*
X105976190Y-78106371D02*
X105928571Y-78201609D01*
X105928571Y-78201609D02*
X105880952Y-78249228D01*
X105880952Y-78249228D02*
X105785714Y-78296847D01*
X105785714Y-78296847D02*
X105690476Y-78296847D01*
X104976190Y-77677800D02*
X105071428Y-77630180D01*
X105071428Y-77630180D02*
X105261904Y-77630180D01*
X105261904Y-77630180D02*
X105357142Y-77677800D01*
X105357142Y-77677800D02*
X105404761Y-77773038D01*
X105404761Y-77773038D02*
X105404761Y-78153990D01*
X105404761Y-78153990D02*
X105357142Y-78249228D01*
X105357142Y-78249228D02*
X105261904Y-78296847D01*
X105261904Y-78296847D02*
X105071428Y-78296847D01*
X105071428Y-78296847D02*
X104976190Y-78249228D01*
X104976190Y-78249228D02*
X104928571Y-78153990D01*
X104928571Y-78153990D02*
X104928571Y-78058752D01*
X104928571Y-78058752D02*
X105404761Y-77963514D01*
X104547618Y-77677800D02*
X104452380Y-77630180D01*
X104452380Y-77630180D02*
X104261904Y-77630180D01*
X104261904Y-77630180D02*
X104166666Y-77677800D01*
X104166666Y-77677800D02*
X104119047Y-77773038D01*
X104119047Y-77773038D02*
X104119047Y-77820657D01*
X104119047Y-77820657D02*
X104166666Y-77915895D01*
X104166666Y-77915895D02*
X104261904Y-77963514D01*
X104261904Y-77963514D02*
X104404761Y-77963514D01*
X104404761Y-77963514D02*
X104499999Y-78011133D01*
X104499999Y-78011133D02*
X104547618Y-78106371D01*
X104547618Y-78106371D02*
X104547618Y-78153990D01*
X104547618Y-78153990D02*
X104499999Y-78249228D01*
X104499999Y-78249228D02*
X104404761Y-78296847D01*
X104404761Y-78296847D02*
X104261904Y-78296847D01*
X104261904Y-78296847D02*
X104166666Y-78249228D01*
X103738094Y-77677800D02*
X103642856Y-77630180D01*
X103642856Y-77630180D02*
X103452380Y-77630180D01*
X103452380Y-77630180D02*
X103357142Y-77677800D01*
X103357142Y-77677800D02*
X103309523Y-77773038D01*
X103309523Y-77773038D02*
X103309523Y-77820657D01*
X103309523Y-77820657D02*
X103357142Y-77915895D01*
X103357142Y-77915895D02*
X103452380Y-77963514D01*
X103452380Y-77963514D02*
X103595237Y-77963514D01*
X103595237Y-77963514D02*
X103690475Y-78011133D01*
X103690475Y-78011133D02*
X103738094Y-78106371D01*
X103738094Y-78106371D02*
X103738094Y-78153990D01*
X103738094Y-78153990D02*
X103690475Y-78249228D01*
X103690475Y-78249228D02*
X103595237Y-78296847D01*
X103595237Y-78296847D02*
X103452380Y-78296847D01*
X103452380Y-78296847D02*
X103357142Y-78249228D01*
X103309523Y-107584104D02*
X103785713Y-107584104D01*
X103214285Y-107869819D02*
X103547618Y-106869819D01*
X103547618Y-106869819D02*
X103880951Y-107869819D01*
X104642856Y-107869819D02*
X104642856Y-106869819D01*
X104642856Y-107822200D02*
X104547618Y-107869819D01*
X104547618Y-107869819D02*
X104357142Y-107869819D01*
X104357142Y-107869819D02*
X104261904Y-107822200D01*
X104261904Y-107822200D02*
X104214285Y-107774580D01*
X104214285Y-107774580D02*
X104166666Y-107679342D01*
X104166666Y-107679342D02*
X104166666Y-107393628D01*
X104166666Y-107393628D02*
X104214285Y-107298390D01*
X104214285Y-107298390D02*
X104261904Y-107250771D01*
X104261904Y-107250771D02*
X104357142Y-107203152D01*
X104357142Y-107203152D02*
X104547618Y-107203152D01*
X104547618Y-107203152D02*
X104642856Y-107250771D01*
X105547618Y-107869819D02*
X105547618Y-106869819D01*
X105547618Y-107822200D02*
X105452380Y-107869819D01*
X105452380Y-107869819D02*
X105261904Y-107869819D01*
X105261904Y-107869819D02*
X105166666Y-107822200D01*
X105166666Y-107822200D02*
X105119047Y-107774580D01*
X105119047Y-107774580D02*
X105071428Y-107679342D01*
X105071428Y-107679342D02*
X105071428Y-107393628D01*
X105071428Y-107393628D02*
X105119047Y-107298390D01*
X105119047Y-107298390D02*
X105166666Y-107250771D01*
X105166666Y-107250771D02*
X105261904Y-107203152D01*
X105261904Y-107203152D02*
X105452380Y-107203152D01*
X105452380Y-107203152D02*
X105547618Y-107250771D01*
X106023809Y-107869819D02*
X106023809Y-107203152D01*
X106023809Y-107393628D02*
X106071428Y-107298390D01*
X106071428Y-107298390D02*
X106119047Y-107250771D01*
X106119047Y-107250771D02*
X106214285Y-107203152D01*
X106214285Y-107203152D02*
X106309523Y-107203152D01*
X107023809Y-107822200D02*
X106928571Y-107869819D01*
X106928571Y-107869819D02*
X106738095Y-107869819D01*
X106738095Y-107869819D02*
X106642857Y-107822200D01*
X106642857Y-107822200D02*
X106595238Y-107726961D01*
X106595238Y-107726961D02*
X106595238Y-107346009D01*
X106595238Y-107346009D02*
X106642857Y-107250771D01*
X106642857Y-107250771D02*
X106738095Y-107203152D01*
X106738095Y-107203152D02*
X106928571Y-107203152D01*
X106928571Y-107203152D02*
X107023809Y-107250771D01*
X107023809Y-107250771D02*
X107071428Y-107346009D01*
X107071428Y-107346009D02*
X107071428Y-107441247D01*
X107071428Y-107441247D02*
X106595238Y-107536485D01*
X107452381Y-107822200D02*
X107547619Y-107869819D01*
X107547619Y-107869819D02*
X107738095Y-107869819D01*
X107738095Y-107869819D02*
X107833333Y-107822200D01*
X107833333Y-107822200D02*
X107880952Y-107726961D01*
X107880952Y-107726961D02*
X107880952Y-107679342D01*
X107880952Y-107679342D02*
X107833333Y-107584104D01*
X107833333Y-107584104D02*
X107738095Y-107536485D01*
X107738095Y-107536485D02*
X107595238Y-107536485D01*
X107595238Y-107536485D02*
X107500000Y-107488866D01*
X107500000Y-107488866D02*
X107452381Y-107393628D01*
X107452381Y-107393628D02*
X107452381Y-107346009D01*
X107452381Y-107346009D02*
X107500000Y-107250771D01*
X107500000Y-107250771D02*
X107595238Y-107203152D01*
X107595238Y-107203152D02*
X107738095Y-107203152D01*
X107738095Y-107203152D02*
X107833333Y-107250771D01*
X108261905Y-107822200D02*
X108357143Y-107869819D01*
X108357143Y-107869819D02*
X108547619Y-107869819D01*
X108547619Y-107869819D02*
X108642857Y-107822200D01*
X108642857Y-107822200D02*
X108690476Y-107726961D01*
X108690476Y-107726961D02*
X108690476Y-107679342D01*
X108690476Y-107679342D02*
X108642857Y-107584104D01*
X108642857Y-107584104D02*
X108547619Y-107536485D01*
X108547619Y-107536485D02*
X108404762Y-107536485D01*
X108404762Y-107536485D02*
X108309524Y-107488866D01*
X108309524Y-107488866D02*
X108261905Y-107393628D01*
X108261905Y-107393628D02*
X108261905Y-107346009D01*
X108261905Y-107346009D02*
X108309524Y-107250771D01*
X108309524Y-107250771D02*
X108404762Y-107203152D01*
X108404762Y-107203152D02*
X108547619Y-107203152D01*
X108547619Y-107203152D02*
X108642857Y-107250771D01*
X118309523Y-107584104D02*
X118785713Y-107584104D01*
X118214285Y-107869819D02*
X118547618Y-106869819D01*
X118547618Y-106869819D02*
X118880951Y-107869819D01*
X119642856Y-107869819D02*
X119642856Y-106869819D01*
X119642856Y-107822200D02*
X119547618Y-107869819D01*
X119547618Y-107869819D02*
X119357142Y-107869819D01*
X119357142Y-107869819D02*
X119261904Y-107822200D01*
X119261904Y-107822200D02*
X119214285Y-107774580D01*
X119214285Y-107774580D02*
X119166666Y-107679342D01*
X119166666Y-107679342D02*
X119166666Y-107393628D01*
X119166666Y-107393628D02*
X119214285Y-107298390D01*
X119214285Y-107298390D02*
X119261904Y-107250771D01*
X119261904Y-107250771D02*
X119357142Y-107203152D01*
X119357142Y-107203152D02*
X119547618Y-107203152D01*
X119547618Y-107203152D02*
X119642856Y-107250771D01*
X120547618Y-107869819D02*
X120547618Y-106869819D01*
X120547618Y-107822200D02*
X120452380Y-107869819D01*
X120452380Y-107869819D02*
X120261904Y-107869819D01*
X120261904Y-107869819D02*
X120166666Y-107822200D01*
X120166666Y-107822200D02*
X120119047Y-107774580D01*
X120119047Y-107774580D02*
X120071428Y-107679342D01*
X120071428Y-107679342D02*
X120071428Y-107393628D01*
X120071428Y-107393628D02*
X120119047Y-107298390D01*
X120119047Y-107298390D02*
X120166666Y-107250771D01*
X120166666Y-107250771D02*
X120261904Y-107203152D01*
X120261904Y-107203152D02*
X120452380Y-107203152D01*
X120452380Y-107203152D02*
X120547618Y-107250771D01*
X121023809Y-107869819D02*
X121023809Y-107203152D01*
X121023809Y-107393628D02*
X121071428Y-107298390D01*
X121071428Y-107298390D02*
X121119047Y-107250771D01*
X121119047Y-107250771D02*
X121214285Y-107203152D01*
X121214285Y-107203152D02*
X121309523Y-107203152D01*
X122023809Y-107822200D02*
X121928571Y-107869819D01*
X121928571Y-107869819D02*
X121738095Y-107869819D01*
X121738095Y-107869819D02*
X121642857Y-107822200D01*
X121642857Y-107822200D02*
X121595238Y-107726961D01*
X121595238Y-107726961D02*
X121595238Y-107346009D01*
X121595238Y-107346009D02*
X121642857Y-107250771D01*
X121642857Y-107250771D02*
X121738095Y-107203152D01*
X121738095Y-107203152D02*
X121928571Y-107203152D01*
X121928571Y-107203152D02*
X122023809Y-107250771D01*
X122023809Y-107250771D02*
X122071428Y-107346009D01*
X122071428Y-107346009D02*
X122071428Y-107441247D01*
X122071428Y-107441247D02*
X121595238Y-107536485D01*
X122452381Y-107822200D02*
X122547619Y-107869819D01*
X122547619Y-107869819D02*
X122738095Y-107869819D01*
X122738095Y-107869819D02*
X122833333Y-107822200D01*
X122833333Y-107822200D02*
X122880952Y-107726961D01*
X122880952Y-107726961D02*
X122880952Y-107679342D01*
X122880952Y-107679342D02*
X122833333Y-107584104D01*
X122833333Y-107584104D02*
X122738095Y-107536485D01*
X122738095Y-107536485D02*
X122595238Y-107536485D01*
X122595238Y-107536485D02*
X122500000Y-107488866D01*
X122500000Y-107488866D02*
X122452381Y-107393628D01*
X122452381Y-107393628D02*
X122452381Y-107346009D01*
X122452381Y-107346009D02*
X122500000Y-107250771D01*
X122500000Y-107250771D02*
X122595238Y-107203152D01*
X122595238Y-107203152D02*
X122738095Y-107203152D01*
X122738095Y-107203152D02*
X122833333Y-107250771D01*
X123261905Y-107822200D02*
X123357143Y-107869819D01*
X123357143Y-107869819D02*
X123547619Y-107869819D01*
X123547619Y-107869819D02*
X123642857Y-107822200D01*
X123642857Y-107822200D02*
X123690476Y-107726961D01*
X123690476Y-107726961D02*
X123690476Y-107679342D01*
X123690476Y-107679342D02*
X123642857Y-107584104D01*
X123642857Y-107584104D02*
X123547619Y-107536485D01*
X123547619Y-107536485D02*
X123404762Y-107536485D01*
X123404762Y-107536485D02*
X123309524Y-107488866D01*
X123309524Y-107488866D02*
X123261905Y-107393628D01*
X123261905Y-107393628D02*
X123261905Y-107346009D01*
X123261905Y-107346009D02*
X123309524Y-107250771D01*
X123309524Y-107250771D02*
X123404762Y-107203152D01*
X123404762Y-107203152D02*
X123547619Y-107203152D01*
X123547619Y-107203152D02*
X123642857Y-107250771D01*
X133309523Y-107584104D02*
X133785713Y-107584104D01*
X133214285Y-107869819D02*
X133547618Y-106869819D01*
X133547618Y-106869819D02*
X133880951Y-107869819D01*
X134642856Y-107869819D02*
X134642856Y-106869819D01*
X134642856Y-107822200D02*
X134547618Y-107869819D01*
X134547618Y-107869819D02*
X134357142Y-107869819D01*
X134357142Y-107869819D02*
X134261904Y-107822200D01*
X134261904Y-107822200D02*
X134214285Y-107774580D01*
X134214285Y-107774580D02*
X134166666Y-107679342D01*
X134166666Y-107679342D02*
X134166666Y-107393628D01*
X134166666Y-107393628D02*
X134214285Y-107298390D01*
X134214285Y-107298390D02*
X134261904Y-107250771D01*
X134261904Y-107250771D02*
X134357142Y-107203152D01*
X134357142Y-107203152D02*
X134547618Y-107203152D01*
X134547618Y-107203152D02*
X134642856Y-107250771D01*
X135547618Y-107869819D02*
X135547618Y-106869819D01*
X135547618Y-107822200D02*
X135452380Y-107869819D01*
X135452380Y-107869819D02*
X135261904Y-107869819D01*
X135261904Y-107869819D02*
X135166666Y-107822200D01*
X135166666Y-107822200D02*
X135119047Y-107774580D01*
X135119047Y-107774580D02*
X135071428Y-107679342D01*
X135071428Y-107679342D02*
X135071428Y-107393628D01*
X135071428Y-107393628D02*
X135119047Y-107298390D01*
X135119047Y-107298390D02*
X135166666Y-107250771D01*
X135166666Y-107250771D02*
X135261904Y-107203152D01*
X135261904Y-107203152D02*
X135452380Y-107203152D01*
X135452380Y-107203152D02*
X135547618Y-107250771D01*
X136023809Y-107869819D02*
X136023809Y-107203152D01*
X136023809Y-107393628D02*
X136071428Y-107298390D01*
X136071428Y-107298390D02*
X136119047Y-107250771D01*
X136119047Y-107250771D02*
X136214285Y-107203152D01*
X136214285Y-107203152D02*
X136309523Y-107203152D01*
X137023809Y-107822200D02*
X136928571Y-107869819D01*
X136928571Y-107869819D02*
X136738095Y-107869819D01*
X136738095Y-107869819D02*
X136642857Y-107822200D01*
X136642857Y-107822200D02*
X136595238Y-107726961D01*
X136595238Y-107726961D02*
X136595238Y-107346009D01*
X136595238Y-107346009D02*
X136642857Y-107250771D01*
X136642857Y-107250771D02*
X136738095Y-107203152D01*
X136738095Y-107203152D02*
X136928571Y-107203152D01*
X136928571Y-107203152D02*
X137023809Y-107250771D01*
X137023809Y-107250771D02*
X137071428Y-107346009D01*
X137071428Y-107346009D02*
X137071428Y-107441247D01*
X137071428Y-107441247D02*
X136595238Y-107536485D01*
X137452381Y-107822200D02*
X137547619Y-107869819D01*
X137547619Y-107869819D02*
X137738095Y-107869819D01*
X137738095Y-107869819D02*
X137833333Y-107822200D01*
X137833333Y-107822200D02*
X137880952Y-107726961D01*
X137880952Y-107726961D02*
X137880952Y-107679342D01*
X137880952Y-107679342D02*
X137833333Y-107584104D01*
X137833333Y-107584104D02*
X137738095Y-107536485D01*
X137738095Y-107536485D02*
X137595238Y-107536485D01*
X137595238Y-107536485D02*
X137500000Y-107488866D01*
X137500000Y-107488866D02*
X137452381Y-107393628D01*
X137452381Y-107393628D02*
X137452381Y-107346009D01*
X137452381Y-107346009D02*
X137500000Y-107250771D01*
X137500000Y-107250771D02*
X137595238Y-107203152D01*
X137595238Y-107203152D02*
X137738095Y-107203152D01*
X137738095Y-107203152D02*
X137833333Y-107250771D01*
X138261905Y-107822200D02*
X138357143Y-107869819D01*
X138357143Y-107869819D02*
X138547619Y-107869819D01*
X138547619Y-107869819D02*
X138642857Y-107822200D01*
X138642857Y-107822200D02*
X138690476Y-107726961D01*
X138690476Y-107726961D02*
X138690476Y-107679342D01*
X138690476Y-107679342D02*
X138642857Y-107584104D01*
X138642857Y-107584104D02*
X138547619Y-107536485D01*
X138547619Y-107536485D02*
X138404762Y-107536485D01*
X138404762Y-107536485D02*
X138309524Y-107488866D01*
X138309524Y-107488866D02*
X138261905Y-107393628D01*
X138261905Y-107393628D02*
X138261905Y-107346009D01*
X138261905Y-107346009D02*
X138309524Y-107250771D01*
X138309524Y-107250771D02*
X138404762Y-107203152D01*
X138404762Y-107203152D02*
X138547619Y-107203152D01*
X138547619Y-107203152D02*
X138642857Y-107250771D01*
X148309523Y-107584104D02*
X148785713Y-107584104D01*
X148214285Y-107869819D02*
X148547618Y-106869819D01*
X148547618Y-106869819D02*
X148880951Y-107869819D01*
X149642856Y-107869819D02*
X149642856Y-106869819D01*
X149642856Y-107822200D02*
X149547618Y-107869819D01*
X149547618Y-107869819D02*
X149357142Y-107869819D01*
X149357142Y-107869819D02*
X149261904Y-107822200D01*
X149261904Y-107822200D02*
X149214285Y-107774580D01*
X149214285Y-107774580D02*
X149166666Y-107679342D01*
X149166666Y-107679342D02*
X149166666Y-107393628D01*
X149166666Y-107393628D02*
X149214285Y-107298390D01*
X149214285Y-107298390D02*
X149261904Y-107250771D01*
X149261904Y-107250771D02*
X149357142Y-107203152D01*
X149357142Y-107203152D02*
X149547618Y-107203152D01*
X149547618Y-107203152D02*
X149642856Y-107250771D01*
X150547618Y-107869819D02*
X150547618Y-106869819D01*
X150547618Y-107822200D02*
X150452380Y-107869819D01*
X150452380Y-107869819D02*
X150261904Y-107869819D01*
X150261904Y-107869819D02*
X150166666Y-107822200D01*
X150166666Y-107822200D02*
X150119047Y-107774580D01*
X150119047Y-107774580D02*
X150071428Y-107679342D01*
X150071428Y-107679342D02*
X150071428Y-107393628D01*
X150071428Y-107393628D02*
X150119047Y-107298390D01*
X150119047Y-107298390D02*
X150166666Y-107250771D01*
X150166666Y-107250771D02*
X150261904Y-107203152D01*
X150261904Y-107203152D02*
X150452380Y-107203152D01*
X150452380Y-107203152D02*
X150547618Y-107250771D01*
X151023809Y-107869819D02*
X151023809Y-107203152D01*
X151023809Y-107393628D02*
X151071428Y-107298390D01*
X151071428Y-107298390D02*
X151119047Y-107250771D01*
X151119047Y-107250771D02*
X151214285Y-107203152D01*
X151214285Y-107203152D02*
X151309523Y-107203152D01*
X152023809Y-107822200D02*
X151928571Y-107869819D01*
X151928571Y-107869819D02*
X151738095Y-107869819D01*
X151738095Y-107869819D02*
X151642857Y-107822200D01*
X151642857Y-107822200D02*
X151595238Y-107726961D01*
X151595238Y-107726961D02*
X151595238Y-107346009D01*
X151595238Y-107346009D02*
X151642857Y-107250771D01*
X151642857Y-107250771D02*
X151738095Y-107203152D01*
X151738095Y-107203152D02*
X151928571Y-107203152D01*
X151928571Y-107203152D02*
X152023809Y-107250771D01*
X152023809Y-107250771D02*
X152071428Y-107346009D01*
X152071428Y-107346009D02*
X152071428Y-107441247D01*
X152071428Y-107441247D02*
X151595238Y-107536485D01*
X152452381Y-107822200D02*
X152547619Y-107869819D01*
X152547619Y-107869819D02*
X152738095Y-107869819D01*
X152738095Y-107869819D02*
X152833333Y-107822200D01*
X152833333Y-107822200D02*
X152880952Y-107726961D01*
X152880952Y-107726961D02*
X152880952Y-107679342D01*
X152880952Y-107679342D02*
X152833333Y-107584104D01*
X152833333Y-107584104D02*
X152738095Y-107536485D01*
X152738095Y-107536485D02*
X152595238Y-107536485D01*
X152595238Y-107536485D02*
X152500000Y-107488866D01*
X152500000Y-107488866D02*
X152452381Y-107393628D01*
X152452381Y-107393628D02*
X152452381Y-107346009D01*
X152452381Y-107346009D02*
X152500000Y-107250771D01*
X152500000Y-107250771D02*
X152595238Y-107203152D01*
X152595238Y-107203152D02*
X152738095Y-107203152D01*
X152738095Y-107203152D02*
X152833333Y-107250771D01*
X153261905Y-107822200D02*
X153357143Y-107869819D01*
X153357143Y-107869819D02*
X153547619Y-107869819D01*
X153547619Y-107869819D02*
X153642857Y-107822200D01*
X153642857Y-107822200D02*
X153690476Y-107726961D01*
X153690476Y-107726961D02*
X153690476Y-107679342D01*
X153690476Y-107679342D02*
X153642857Y-107584104D01*
X153642857Y-107584104D02*
X153547619Y-107536485D01*
X153547619Y-107536485D02*
X153404762Y-107536485D01*
X153404762Y-107536485D02*
X153309524Y-107488866D01*
X153309524Y-107488866D02*
X153261905Y-107393628D01*
X153261905Y-107393628D02*
X153261905Y-107346009D01*
X153261905Y-107346009D02*
X153309524Y-107250771D01*
X153309524Y-107250771D02*
X153404762Y-107203152D01*
X153404762Y-107203152D02*
X153547619Y-107203152D01*
X153547619Y-107203152D02*
X153642857Y-107250771D01*
D12*
X118627580Y-90000000D02*
X119294247Y-90000000D01*
X119199009Y-90000000D02*
X119246628Y-90047619D01*
X119246628Y-90047619D02*
X119294247Y-90142857D01*
X119294247Y-90142857D02*
X119294247Y-90285714D01*
X119294247Y-90285714D02*
X119246628Y-90380952D01*
X119246628Y-90380952D02*
X119151390Y-90428571D01*
X119151390Y-90428571D02*
X118627580Y-90428571D01*
X119151390Y-90428571D02*
X119246628Y-90476190D01*
X119246628Y-90476190D02*
X119294247Y-90571428D01*
X119294247Y-90571428D02*
X119294247Y-90714285D01*
X119294247Y-90714285D02*
X119246628Y-90809524D01*
X119246628Y-90809524D02*
X119151390Y-90857143D01*
X119151390Y-90857143D02*
X118627580Y-90857143D01*
X118627580Y-91761904D02*
X119151390Y-91761904D01*
X119151390Y-91761904D02*
X119246628Y-91714285D01*
X119246628Y-91714285D02*
X119294247Y-91619047D01*
X119294247Y-91619047D02*
X119294247Y-91428571D01*
X119294247Y-91428571D02*
X119246628Y-91333333D01*
X118675200Y-91761904D02*
X118627580Y-91666666D01*
X118627580Y-91666666D02*
X118627580Y-91428571D01*
X118627580Y-91428571D02*
X118675200Y-91333333D01*
X118675200Y-91333333D02*
X118770438Y-91285714D01*
X118770438Y-91285714D02*
X118865676Y-91285714D01*
X118865676Y-91285714D02*
X118960914Y-91333333D01*
X118960914Y-91333333D02*
X119008533Y-91428571D01*
X119008533Y-91428571D02*
X119008533Y-91666666D01*
X119008533Y-91666666D02*
X119056152Y-91761904D01*
X119294247Y-92238095D02*
X118627580Y-92238095D01*
X119199009Y-92238095D02*
X119246628Y-92285714D01*
X119246628Y-92285714D02*
X119294247Y-92380952D01*
X119294247Y-92380952D02*
X119294247Y-92523809D01*
X119294247Y-92523809D02*
X119246628Y-92619047D01*
X119246628Y-92619047D02*
X119151390Y-92666666D01*
X119151390Y-92666666D02*
X118627580Y-92666666D01*
X119294247Y-93571428D02*
X118627580Y-93571428D01*
X119294247Y-93142857D02*
X118770438Y-93142857D01*
X118770438Y-93142857D02*
X118675200Y-93190476D01*
X118675200Y-93190476D02*
X118627580Y-93285714D01*
X118627580Y-93285714D02*
X118627580Y-93428571D01*
X118627580Y-93428571D02*
X118675200Y-93523809D01*
X118675200Y-93523809D02*
X118722819Y-93571428D01*
X118627580Y-94476190D02*
X119151390Y-94476190D01*
X119151390Y-94476190D02*
X119246628Y-94428571D01*
X119246628Y-94428571D02*
X119294247Y-94333333D01*
X119294247Y-94333333D02*
X119294247Y-94142857D01*
X119294247Y-94142857D02*
X119246628Y-94047619D01*
X118675200Y-94476190D02*
X118627580Y-94380952D01*
X118627580Y-94380952D02*
X118627580Y-94142857D01*
X118627580Y-94142857D02*
X118675200Y-94047619D01*
X118675200Y-94047619D02*
X118770438Y-94000000D01*
X118770438Y-94000000D02*
X118865676Y-94000000D01*
X118865676Y-94000000D02*
X118960914Y-94047619D01*
X118960914Y-94047619D02*
X119008533Y-94142857D01*
X119008533Y-94142857D02*
X119008533Y-94380952D01*
X119008533Y-94380952D02*
X119056152Y-94476190D01*
X118627580Y-95095238D02*
X118675200Y-95000000D01*
X118675200Y-95000000D02*
X118770438Y-94952381D01*
X118770438Y-94952381D02*
X119627580Y-94952381D01*
D13*
X151190476Y-71123107D02*
X151380952Y-71218345D01*
X151380952Y-71218345D02*
X151476190Y-71313583D01*
X151476190Y-71313583D02*
X151571428Y-71504059D01*
X151571428Y-71504059D02*
X151571428Y-71599297D01*
X151571428Y-71599297D02*
X151476190Y-71789773D01*
X151476190Y-71789773D02*
X151380952Y-71885011D01*
X151380952Y-71885011D02*
X151190476Y-71980249D01*
X151190476Y-71980249D02*
X150809523Y-71980249D01*
X150809523Y-71980249D02*
X150619047Y-71885011D01*
X150619047Y-71885011D02*
X150523809Y-71789773D01*
X150523809Y-71789773D02*
X150428571Y-71599297D01*
X150428571Y-71599297D02*
X150428571Y-71504059D01*
X150428571Y-71504059D02*
X150523809Y-71313583D01*
X150523809Y-71313583D02*
X150619047Y-71218345D01*
X150619047Y-71218345D02*
X150809523Y-71123107D01*
X150809523Y-71123107D02*
X151190476Y-71123107D01*
X151190476Y-71123107D02*
X151380952Y-71027868D01*
X151380952Y-71027868D02*
X151476190Y-70932630D01*
X151476190Y-70932630D02*
X151571428Y-70742154D01*
X151571428Y-70742154D02*
X151571428Y-70361202D01*
X151571428Y-70361202D02*
X151476190Y-70170726D01*
X151476190Y-70170726D02*
X151380952Y-70075488D01*
X151380952Y-70075488D02*
X151190476Y-69980249D01*
X151190476Y-69980249D02*
X150809523Y-69980249D01*
X150809523Y-69980249D02*
X150619047Y-70075488D01*
X150619047Y-70075488D02*
X150523809Y-70170726D01*
X150523809Y-70170726D02*
X150428571Y-70361202D01*
X150428571Y-70361202D02*
X150428571Y-70742154D01*
X150428571Y-70742154D02*
X150523809Y-70932630D01*
X150523809Y-70932630D02*
X150619047Y-71027868D01*
X150619047Y-71027868D02*
X150809523Y-71123107D01*
X155238095Y-67331790D02*
X154285714Y-67331790D01*
X155428571Y-66760361D02*
X154761905Y-68760361D01*
X154761905Y-68760361D02*
X154095238Y-66760361D01*
X151904761Y-67522266D02*
X150380952Y-67522266D01*
X151142856Y-66760361D02*
X151142856Y-68284171D01*
X147238094Y-67807980D02*
X146952380Y-67712742D01*
X146952380Y-67712742D02*
X146857142Y-67617504D01*
X146857142Y-67617504D02*
X146761904Y-67427028D01*
X146761904Y-67427028D02*
X146761904Y-67141314D01*
X146761904Y-67141314D02*
X146857142Y-66950838D01*
X146857142Y-66950838D02*
X146952380Y-66855600D01*
X146952380Y-66855600D02*
X147142856Y-66760361D01*
X147142856Y-66760361D02*
X147904761Y-66760361D01*
X147904761Y-66760361D02*
X147904761Y-68760361D01*
X147904761Y-68760361D02*
X147238094Y-68760361D01*
X147238094Y-68760361D02*
X147047618Y-68665123D01*
X147047618Y-68665123D02*
X146952380Y-68569885D01*
X146952380Y-68569885D02*
X146857142Y-68379409D01*
X146857142Y-68379409D02*
X146857142Y-68188933D01*
X146857142Y-68188933D02*
X146952380Y-67998457D01*
X146952380Y-67998457D02*
X147047618Y-67903219D01*
X147047618Y-67903219D02*
X147238094Y-67807980D01*
X147238094Y-67807980D02*
X147904761Y-67807980D01*
X120619047Y-71980249D02*
X121000000Y-71980249D01*
X121000000Y-71980249D02*
X121190476Y-71885011D01*
X121190476Y-71885011D02*
X121285714Y-71789773D01*
X121285714Y-71789773D02*
X121476190Y-71504059D01*
X121476190Y-71504059D02*
X121571428Y-71123107D01*
X121571428Y-71123107D02*
X121571428Y-70361202D01*
X121571428Y-70361202D02*
X121476190Y-70170726D01*
X121476190Y-70170726D02*
X121380952Y-70075488D01*
X121380952Y-70075488D02*
X121190476Y-69980249D01*
X121190476Y-69980249D02*
X120809523Y-69980249D01*
X120809523Y-69980249D02*
X120619047Y-70075488D01*
X120619047Y-70075488D02*
X120523809Y-70170726D01*
X120523809Y-70170726D02*
X120428571Y-70361202D01*
X120428571Y-70361202D02*
X120428571Y-70837392D01*
X120428571Y-70837392D02*
X120523809Y-71027868D01*
X120523809Y-71027868D02*
X120619047Y-71123107D01*
X120619047Y-71123107D02*
X120809523Y-71218345D01*
X120809523Y-71218345D02*
X121190476Y-71218345D01*
X121190476Y-71218345D02*
X121380952Y-71123107D01*
X121380952Y-71123107D02*
X121476190Y-71027868D01*
X121476190Y-71027868D02*
X121571428Y-70837392D01*
X125238095Y-67331790D02*
X124285714Y-67331790D01*
X125428571Y-66760361D02*
X124761905Y-68760361D01*
X124761905Y-68760361D02*
X124095238Y-66760361D01*
X121904761Y-67522266D02*
X120380952Y-67522266D01*
X121142856Y-66760361D02*
X121142856Y-68284171D01*
X117238094Y-67807980D02*
X116952380Y-67712742D01*
X116952380Y-67712742D02*
X116857142Y-67617504D01*
X116857142Y-67617504D02*
X116761904Y-67427028D01*
X116761904Y-67427028D02*
X116761904Y-67141314D01*
X116761904Y-67141314D02*
X116857142Y-66950838D01*
X116857142Y-66950838D02*
X116952380Y-66855600D01*
X116952380Y-66855600D02*
X117142856Y-66760361D01*
X117142856Y-66760361D02*
X117904761Y-66760361D01*
X117904761Y-66760361D02*
X117904761Y-68760361D01*
X117904761Y-68760361D02*
X117238094Y-68760361D01*
X117238094Y-68760361D02*
X117047618Y-68665123D01*
X117047618Y-68665123D02*
X116952380Y-68569885D01*
X116952380Y-68569885D02*
X116857142Y-68379409D01*
X116857142Y-68379409D02*
X116857142Y-68188933D01*
X116857142Y-68188933D02*
X116952380Y-67998457D01*
X116952380Y-67998457D02*
X117047618Y-67903219D01*
X117047618Y-67903219D02*
X117238094Y-67807980D01*
X117238094Y-67807980D02*
X117904761Y-67807980D01*
X136666666Y-71980249D02*
X135333333Y-71980249D01*
X135333333Y-71980249D02*
X136190476Y-69980249D01*
X140238095Y-67331790D02*
X139285714Y-67331790D01*
X140428571Y-66760361D02*
X139761905Y-68760361D01*
X139761905Y-68760361D02*
X139095238Y-66760361D01*
X136904761Y-67522266D02*
X135380952Y-67522266D01*
X136142856Y-66760361D02*
X136142856Y-68284171D01*
X132238094Y-67807980D02*
X131952380Y-67712742D01*
X131952380Y-67712742D02*
X131857142Y-67617504D01*
X131857142Y-67617504D02*
X131761904Y-67427028D01*
X131761904Y-67427028D02*
X131761904Y-67141314D01*
X131761904Y-67141314D02*
X131857142Y-66950838D01*
X131857142Y-66950838D02*
X131952380Y-66855600D01*
X131952380Y-66855600D02*
X132142856Y-66760361D01*
X132142856Y-66760361D02*
X132904761Y-66760361D01*
X132904761Y-66760361D02*
X132904761Y-68760361D01*
X132904761Y-68760361D02*
X132238094Y-68760361D01*
X132238094Y-68760361D02*
X132047618Y-68665123D01*
X132047618Y-68665123D02*
X131952380Y-68569885D01*
X131952380Y-68569885D02*
X131857142Y-68379409D01*
X131857142Y-68379409D02*
X131857142Y-68188933D01*
X131857142Y-68188933D02*
X131952380Y-67998457D01*
X131952380Y-67998457D02*
X132047618Y-67903219D01*
X132047618Y-67903219D02*
X132238094Y-67807980D01*
X132238094Y-67807980D02*
X132904761Y-67807980D01*
X105523809Y-71980249D02*
X106476190Y-71980249D01*
X106476190Y-71980249D02*
X106571428Y-71027868D01*
X106571428Y-71027868D02*
X106476190Y-71123107D01*
X106476190Y-71123107D02*
X106285714Y-71218345D01*
X106285714Y-71218345D02*
X105809523Y-71218345D01*
X105809523Y-71218345D02*
X105619047Y-71123107D01*
X105619047Y-71123107D02*
X105523809Y-71027868D01*
X105523809Y-71027868D02*
X105428571Y-70837392D01*
X105428571Y-70837392D02*
X105428571Y-70361202D01*
X105428571Y-70361202D02*
X105523809Y-70170726D01*
X105523809Y-70170726D02*
X105619047Y-70075488D01*
X105619047Y-70075488D02*
X105809523Y-69980249D01*
X105809523Y-69980249D02*
X106285714Y-69980249D01*
X106285714Y-69980249D02*
X106476190Y-70075488D01*
X106476190Y-70075488D02*
X106571428Y-70170726D01*
X110238095Y-67331790D02*
X109285714Y-67331790D01*
X110428571Y-66760361D02*
X109761905Y-68760361D01*
X109761905Y-68760361D02*
X109095238Y-66760361D01*
X106904761Y-67522266D02*
X105380952Y-67522266D01*
X106142856Y-66760361D02*
X106142856Y-68284171D01*
X102238094Y-67807980D02*
X101952380Y-67712742D01*
X101952380Y-67712742D02*
X101857142Y-67617504D01*
X101857142Y-67617504D02*
X101761904Y-67427028D01*
X101761904Y-67427028D02*
X101761904Y-67141314D01*
X101761904Y-67141314D02*
X101857142Y-66950838D01*
X101857142Y-66950838D02*
X101952380Y-66855600D01*
X101952380Y-66855600D02*
X102142856Y-66760361D01*
X102142856Y-66760361D02*
X102904761Y-66760361D01*
X102904761Y-66760361D02*
X102904761Y-68760361D01*
X102904761Y-68760361D02*
X102238094Y-68760361D01*
X102238094Y-68760361D02*
X102047618Y-68665123D01*
X102047618Y-68665123D02*
X101952380Y-68569885D01*
X101952380Y-68569885D02*
X101857142Y-68379409D01*
X101857142Y-68379409D02*
X101857142Y-68188933D01*
X101857142Y-68188933D02*
X101952380Y-67998457D01*
X101952380Y-67998457D02*
X102047618Y-67903219D01*
X102047618Y-67903219D02*
X102238094Y-67807980D01*
X102238094Y-67807980D02*
X102904761Y-67807980D01*
X106380952Y-114186416D02*
X106380952Y-115519750D01*
X105904761Y-113424512D02*
X105428571Y-114853083D01*
X105428571Y-114853083D02*
X106666666Y-114853083D01*
X101761904Y-118168209D02*
X102714285Y-118168209D01*
X101571428Y-118739638D02*
X102238094Y-116739638D01*
X102238094Y-116739638D02*
X102904761Y-118739638D01*
X105095238Y-117977733D02*
X106619048Y-117977733D01*
X105857143Y-118739638D02*
X105857143Y-117215828D01*
X109761905Y-117692019D02*
X110047619Y-117787257D01*
X110047619Y-117787257D02*
X110142857Y-117882495D01*
X110142857Y-117882495D02*
X110238095Y-118072971D01*
X110238095Y-118072971D02*
X110238095Y-118358685D01*
X110238095Y-118358685D02*
X110142857Y-118549161D01*
X110142857Y-118549161D02*
X110047619Y-118644400D01*
X110047619Y-118644400D02*
X109857143Y-118739638D01*
X109857143Y-118739638D02*
X109095238Y-118739638D01*
X109095238Y-118739638D02*
X109095238Y-116739638D01*
X109095238Y-116739638D02*
X109761905Y-116739638D01*
X109761905Y-116739638D02*
X109952381Y-116834876D01*
X109952381Y-116834876D02*
X110047619Y-116930114D01*
X110047619Y-116930114D02*
X110142857Y-117120590D01*
X110142857Y-117120590D02*
X110142857Y-117311066D01*
X110142857Y-117311066D02*
X110047619Y-117501542D01*
X110047619Y-117501542D02*
X109952381Y-117596780D01*
X109952381Y-117596780D02*
X109761905Y-117692019D01*
X109761905Y-117692019D02*
X109095238Y-117692019D01*
X120333333Y-113519750D02*
X121571428Y-113519750D01*
X121571428Y-113519750D02*
X120904761Y-114281654D01*
X120904761Y-114281654D02*
X121190476Y-114281654D01*
X121190476Y-114281654D02*
X121380952Y-114376892D01*
X121380952Y-114376892D02*
X121476190Y-114472131D01*
X121476190Y-114472131D02*
X121571428Y-114662607D01*
X121571428Y-114662607D02*
X121571428Y-115138797D01*
X121571428Y-115138797D02*
X121476190Y-115329273D01*
X121476190Y-115329273D02*
X121380952Y-115424512D01*
X121380952Y-115424512D02*
X121190476Y-115519750D01*
X121190476Y-115519750D02*
X120619047Y-115519750D01*
X120619047Y-115519750D02*
X120428571Y-115424512D01*
X120428571Y-115424512D02*
X120333333Y-115329273D01*
X116761904Y-118168209D02*
X117714285Y-118168209D01*
X116571428Y-118739638D02*
X117238094Y-116739638D01*
X117238094Y-116739638D02*
X117904761Y-118739638D01*
X120095238Y-117977733D02*
X121619048Y-117977733D01*
X120857143Y-118739638D02*
X120857143Y-117215828D01*
X124761905Y-117692019D02*
X125047619Y-117787257D01*
X125047619Y-117787257D02*
X125142857Y-117882495D01*
X125142857Y-117882495D02*
X125238095Y-118072971D01*
X125238095Y-118072971D02*
X125238095Y-118358685D01*
X125238095Y-118358685D02*
X125142857Y-118549161D01*
X125142857Y-118549161D02*
X125047619Y-118644400D01*
X125047619Y-118644400D02*
X124857143Y-118739638D01*
X124857143Y-118739638D02*
X124095238Y-118739638D01*
X124095238Y-118739638D02*
X124095238Y-116739638D01*
X124095238Y-116739638D02*
X124761905Y-116739638D01*
X124761905Y-116739638D02*
X124952381Y-116834876D01*
X124952381Y-116834876D02*
X125047619Y-116930114D01*
X125047619Y-116930114D02*
X125142857Y-117120590D01*
X125142857Y-117120590D02*
X125142857Y-117311066D01*
X125142857Y-117311066D02*
X125047619Y-117501542D01*
X125047619Y-117501542D02*
X124952381Y-117596780D01*
X124952381Y-117596780D02*
X124761905Y-117692019D01*
X124761905Y-117692019D02*
X124095238Y-117692019D01*
X135428571Y-113710226D02*
X135523809Y-113614988D01*
X135523809Y-113614988D02*
X135714285Y-113519750D01*
X135714285Y-113519750D02*
X136190476Y-113519750D01*
X136190476Y-113519750D02*
X136380952Y-113614988D01*
X136380952Y-113614988D02*
X136476190Y-113710226D01*
X136476190Y-113710226D02*
X136571428Y-113900702D01*
X136571428Y-113900702D02*
X136571428Y-114091178D01*
X136571428Y-114091178D02*
X136476190Y-114376892D01*
X136476190Y-114376892D02*
X135333333Y-115519750D01*
X135333333Y-115519750D02*
X136571428Y-115519750D01*
X131761904Y-118168209D02*
X132714285Y-118168209D01*
X131571428Y-118739638D02*
X132238094Y-116739638D01*
X132238094Y-116739638D02*
X132904761Y-118739638D01*
X135095238Y-117977733D02*
X136619048Y-117977733D01*
X135857143Y-118739638D02*
X135857143Y-117215828D01*
X139761905Y-117692019D02*
X140047619Y-117787257D01*
X140047619Y-117787257D02*
X140142857Y-117882495D01*
X140142857Y-117882495D02*
X140238095Y-118072971D01*
X140238095Y-118072971D02*
X140238095Y-118358685D01*
X140238095Y-118358685D02*
X140142857Y-118549161D01*
X140142857Y-118549161D02*
X140047619Y-118644400D01*
X140047619Y-118644400D02*
X139857143Y-118739638D01*
X139857143Y-118739638D02*
X139095238Y-118739638D01*
X139095238Y-118739638D02*
X139095238Y-116739638D01*
X139095238Y-116739638D02*
X139761905Y-116739638D01*
X139761905Y-116739638D02*
X139952381Y-116834876D01*
X139952381Y-116834876D02*
X140047619Y-116930114D01*
X140047619Y-116930114D02*
X140142857Y-117120590D01*
X140142857Y-117120590D02*
X140142857Y-117311066D01*
X140142857Y-117311066D02*
X140047619Y-117501542D01*
X140047619Y-117501542D02*
X139952381Y-117596780D01*
X139952381Y-117596780D02*
X139761905Y-117692019D01*
X139761905Y-117692019D02*
X139095238Y-117692019D01*
X151571428Y-115519750D02*
X150428571Y-115519750D01*
X150999999Y-115519750D02*
X150999999Y-113519750D01*
X150999999Y-113519750D02*
X150809523Y-113805464D01*
X150809523Y-113805464D02*
X150619047Y-113995940D01*
X150619047Y-113995940D02*
X150428571Y-114091178D01*
X146761904Y-118168209D02*
X147714285Y-118168209D01*
X146571428Y-118739638D02*
X147238094Y-116739638D01*
X147238094Y-116739638D02*
X147904761Y-118739638D01*
X150095238Y-117977733D02*
X151619048Y-117977733D01*
X150857143Y-118739638D02*
X150857143Y-117215828D01*
X154761905Y-117692019D02*
X155047619Y-117787257D01*
X155047619Y-117787257D02*
X155142857Y-117882495D01*
X155142857Y-117882495D02*
X155238095Y-118072971D01*
X155238095Y-118072971D02*
X155238095Y-118358685D01*
X155238095Y-118358685D02*
X155142857Y-118549161D01*
X155142857Y-118549161D02*
X155047619Y-118644400D01*
X155047619Y-118644400D02*
X154857143Y-118739638D01*
X154857143Y-118739638D02*
X154095238Y-118739638D01*
X154095238Y-118739638D02*
X154095238Y-116739638D01*
X154095238Y-116739638D02*
X154761905Y-116739638D01*
X154761905Y-116739638D02*
X154952381Y-116834876D01*
X154952381Y-116834876D02*
X155047619Y-116930114D01*
X155047619Y-116930114D02*
X155142857Y-117120590D01*
X155142857Y-117120590D02*
X155142857Y-117311066D01*
X155142857Y-117311066D02*
X155047619Y-117501542D01*
X155047619Y-117501542D02*
X154952381Y-117596780D01*
X154952381Y-117596780D02*
X154761905Y-117692019D01*
X154761905Y-117692019D02*
X154095238Y-117692019D01*
D10*
X160130180Y-75336779D02*
X160796847Y-75336779D01*
X160701609Y-75336779D02*
X160749228Y-75384398D01*
X160749228Y-75384398D02*
X160796847Y-75479636D01*
X160796847Y-75479636D02*
X160796847Y-75622493D01*
X160796847Y-75622493D02*
X160749228Y-75717731D01*
X160749228Y-75717731D02*
X160653990Y-75765350D01*
X160653990Y-75765350D02*
X160130180Y-75765350D01*
X160653990Y-75765350D02*
X160749228Y-75812969D01*
X160749228Y-75812969D02*
X160796847Y-75908207D01*
X160796847Y-75908207D02*
X160796847Y-76051064D01*
X160796847Y-76051064D02*
X160749228Y-76146303D01*
X160749228Y-76146303D02*
X160653990Y-76193922D01*
X160653990Y-76193922D02*
X160130180Y-76193922D01*
X160130180Y-77098683D02*
X160653990Y-77098683D01*
X160653990Y-77098683D02*
X160749228Y-77051064D01*
X160749228Y-77051064D02*
X160796847Y-76955826D01*
X160796847Y-76955826D02*
X160796847Y-76765350D01*
X160796847Y-76765350D02*
X160749228Y-76670112D01*
X160177800Y-77098683D02*
X160130180Y-77003445D01*
X160130180Y-77003445D02*
X160130180Y-76765350D01*
X160130180Y-76765350D02*
X160177800Y-76670112D01*
X160177800Y-76670112D02*
X160273038Y-76622493D01*
X160273038Y-76622493D02*
X160368276Y-76622493D01*
X160368276Y-76622493D02*
X160463514Y-76670112D01*
X160463514Y-76670112D02*
X160511133Y-76765350D01*
X160511133Y-76765350D02*
X160511133Y-77003445D01*
X160511133Y-77003445D02*
X160558752Y-77098683D01*
X160130180Y-77479636D02*
X160796847Y-78003445D01*
X160796847Y-77479636D02*
X160130180Y-78003445D01*
X160130180Y-79670112D02*
X160130180Y-79098684D01*
X160130180Y-79384398D02*
X161130180Y-79384398D01*
X161130180Y-79384398D02*
X160987323Y-79289160D01*
X160987323Y-79289160D02*
X160892085Y-79193922D01*
X160892085Y-79193922D02*
X160844466Y-79098684D01*
X160130180Y-80146303D02*
X160130180Y-80336779D01*
X160130180Y-80336779D02*
X160177800Y-80432017D01*
X160177800Y-80432017D02*
X160225419Y-80479636D01*
X160225419Y-80479636D02*
X160368276Y-80574874D01*
X160368276Y-80574874D02*
X160558752Y-80622493D01*
X160558752Y-80622493D02*
X160939704Y-80622493D01*
X160939704Y-80622493D02*
X161034942Y-80574874D01*
X161034942Y-80574874D02*
X161082561Y-80527255D01*
X161082561Y-80527255D02*
X161130180Y-80432017D01*
X161130180Y-80432017D02*
X161130180Y-80241541D01*
X161130180Y-80241541D02*
X161082561Y-80146303D01*
X161082561Y-80146303D02*
X161034942Y-80098684D01*
X161034942Y-80098684D02*
X160939704Y-80051065D01*
X160939704Y-80051065D02*
X160701609Y-80051065D01*
X160701609Y-80051065D02*
X160606371Y-80098684D01*
X160606371Y-80098684D02*
X160558752Y-80146303D01*
X160558752Y-80146303D02*
X160511133Y-80241541D01*
X160511133Y-80241541D02*
X160511133Y-80432017D01*
X160511133Y-80432017D02*
X160558752Y-80527255D01*
X160558752Y-80527255D02*
X160606371Y-80574874D01*
X160606371Y-80574874D02*
X160701609Y-80622493D01*
X161130180Y-80908208D02*
X160130180Y-81241541D01*
X160130180Y-81241541D02*
X161130180Y-81574874D01*
X160130180Y-82670113D02*
X161130180Y-82670113D01*
X161130180Y-82670113D02*
X161130180Y-82908208D01*
X161130180Y-82908208D02*
X161082561Y-83051065D01*
X161082561Y-83051065D02*
X160987323Y-83146303D01*
X160987323Y-83146303D02*
X160892085Y-83193922D01*
X160892085Y-83193922D02*
X160701609Y-83241541D01*
X160701609Y-83241541D02*
X160558752Y-83241541D01*
X160558752Y-83241541D02*
X160368276Y-83193922D01*
X160368276Y-83193922D02*
X160273038Y-83146303D01*
X160273038Y-83146303D02*
X160177800Y-83051065D01*
X160177800Y-83051065D02*
X160130180Y-82908208D01*
X160130180Y-82908208D02*
X160130180Y-82670113D01*
X160225419Y-84241541D02*
X160177800Y-84193922D01*
X160177800Y-84193922D02*
X160130180Y-84051065D01*
X160130180Y-84051065D02*
X160130180Y-83955827D01*
X160130180Y-83955827D02*
X160177800Y-83812970D01*
X160177800Y-83812970D02*
X160273038Y-83717732D01*
X160273038Y-83717732D02*
X160368276Y-83670113D01*
X160368276Y-83670113D02*
X160558752Y-83622494D01*
X160558752Y-83622494D02*
X160701609Y-83622494D01*
X160701609Y-83622494D02*
X160892085Y-83670113D01*
X160892085Y-83670113D02*
X160987323Y-83717732D01*
X160987323Y-83717732D02*
X161082561Y-83812970D01*
X161082561Y-83812970D02*
X161130180Y-83955827D01*
X161130180Y-83955827D02*
X161130180Y-84051065D01*
X161130180Y-84051065D02*
X161082561Y-84193922D01*
X161082561Y-84193922D02*
X161034942Y-84241541D01*
X160130180Y-85574875D02*
X160177800Y-85479637D01*
X160177800Y-85479637D02*
X160225419Y-85432018D01*
X160225419Y-85432018D02*
X160320657Y-85384399D01*
X160320657Y-85384399D02*
X160606371Y-85384399D01*
X160606371Y-85384399D02*
X160701609Y-85432018D01*
X160701609Y-85432018D02*
X160749228Y-85479637D01*
X160749228Y-85479637D02*
X160796847Y-85574875D01*
X160796847Y-85574875D02*
X160796847Y-85717732D01*
X160796847Y-85717732D02*
X160749228Y-85812970D01*
X160749228Y-85812970D02*
X160701609Y-85860589D01*
X160701609Y-85860589D02*
X160606371Y-85908208D01*
X160606371Y-85908208D02*
X160320657Y-85908208D01*
X160320657Y-85908208D02*
X160225419Y-85860589D01*
X160225419Y-85860589D02*
X160177800Y-85812970D01*
X160177800Y-85812970D02*
X160130180Y-85717732D01*
X160130180Y-85717732D02*
X160130180Y-85574875D01*
X160130180Y-86336780D02*
X160796847Y-86336780D01*
X160606371Y-86336780D02*
X160701609Y-86384399D01*
X160701609Y-86384399D02*
X160749228Y-86432018D01*
X160749228Y-86432018D02*
X160796847Y-86527256D01*
X160796847Y-86527256D02*
X160796847Y-86622494D01*
X160130180Y-87717733D02*
X161130180Y-87717733D01*
X161130180Y-87717733D02*
X161130180Y-87955828D01*
X161130180Y-87955828D02*
X161082561Y-88098685D01*
X161082561Y-88098685D02*
X160987323Y-88193923D01*
X160987323Y-88193923D02*
X160892085Y-88241542D01*
X160892085Y-88241542D02*
X160701609Y-88289161D01*
X160701609Y-88289161D02*
X160558752Y-88289161D01*
X160558752Y-88289161D02*
X160368276Y-88241542D01*
X160368276Y-88241542D02*
X160273038Y-88193923D01*
X160273038Y-88193923D02*
X160177800Y-88098685D01*
X160177800Y-88098685D02*
X160130180Y-87955828D01*
X160130180Y-87955828D02*
X160130180Y-87717733D01*
X160225419Y-89289161D02*
X160177800Y-89241542D01*
X160177800Y-89241542D02*
X160130180Y-89098685D01*
X160130180Y-89098685D02*
X160130180Y-89003447D01*
X160130180Y-89003447D02*
X160177800Y-88860590D01*
X160177800Y-88860590D02*
X160273038Y-88765352D01*
X160273038Y-88765352D02*
X160368276Y-88717733D01*
X160368276Y-88717733D02*
X160558752Y-88670114D01*
X160558752Y-88670114D02*
X160701609Y-88670114D01*
X160701609Y-88670114D02*
X160892085Y-88717733D01*
X160892085Y-88717733D02*
X160987323Y-88765352D01*
X160987323Y-88765352D02*
X161082561Y-88860590D01*
X161082561Y-88860590D02*
X161130180Y-89003447D01*
X161130180Y-89003447D02*
X161130180Y-89098685D01*
X161130180Y-89098685D02*
X161082561Y-89241542D01*
X161082561Y-89241542D02*
X161034942Y-89289161D01*
X160225419Y-90289161D02*
X160177800Y-90241542D01*
X160177800Y-90241542D02*
X160130180Y-90098685D01*
X160130180Y-90098685D02*
X160130180Y-90003447D01*
X160130180Y-90003447D02*
X160177800Y-89860590D01*
X160177800Y-89860590D02*
X160273038Y-89765352D01*
X160273038Y-89765352D02*
X160368276Y-89717733D01*
X160368276Y-89717733D02*
X160558752Y-89670114D01*
X160558752Y-89670114D02*
X160701609Y-89670114D01*
X160701609Y-89670114D02*
X160892085Y-89717733D01*
X160892085Y-89717733D02*
X160987323Y-89765352D01*
X160987323Y-89765352D02*
X161082561Y-89860590D01*
X161082561Y-89860590D02*
X161130180Y-90003447D01*
X161130180Y-90003447D02*
X161130180Y-90098685D01*
X161130180Y-90098685D02*
X161082561Y-90241542D01*
X161082561Y-90241542D02*
X161034942Y-90289161D01*
D13*
X162260361Y-94173558D02*
X164260361Y-94173558D01*
X164260361Y-94173558D02*
X164260361Y-94649748D01*
X164260361Y-94649748D02*
X164165123Y-94935463D01*
X164165123Y-94935463D02*
X163974647Y-95125939D01*
X163974647Y-95125939D02*
X163784171Y-95221177D01*
X163784171Y-95221177D02*
X163403219Y-95316415D01*
X163403219Y-95316415D02*
X163117504Y-95316415D01*
X163117504Y-95316415D02*
X162736552Y-95221177D01*
X162736552Y-95221177D02*
X162546076Y-95125939D01*
X162546076Y-95125939D02*
X162355600Y-94935463D01*
X162355600Y-94935463D02*
X162260361Y-94649748D01*
X162260361Y-94649748D02*
X162260361Y-94173558D01*
X162450838Y-97316415D02*
X162355600Y-97221177D01*
X162355600Y-97221177D02*
X162260361Y-96935463D01*
X162260361Y-96935463D02*
X162260361Y-96744987D01*
X162260361Y-96744987D02*
X162355600Y-96459272D01*
X162355600Y-96459272D02*
X162546076Y-96268796D01*
X162546076Y-96268796D02*
X162736552Y-96173558D01*
X162736552Y-96173558D02*
X163117504Y-96078320D01*
X163117504Y-96078320D02*
X163403219Y-96078320D01*
X163403219Y-96078320D02*
X163784171Y-96173558D01*
X163784171Y-96173558D02*
X163974647Y-96268796D01*
X163974647Y-96268796D02*
X164165123Y-96459272D01*
X164165123Y-96459272D02*
X164260361Y-96744987D01*
X164260361Y-96744987D02*
X164260361Y-96935463D01*
X164260361Y-96935463D02*
X164165123Y-97221177D01*
X164165123Y-97221177D02*
X164069885Y-97316415D01*
X162450838Y-99316415D02*
X162355600Y-99221177D01*
X162355600Y-99221177D02*
X162260361Y-98935463D01*
X162260361Y-98935463D02*
X162260361Y-98744987D01*
X162260361Y-98744987D02*
X162355600Y-98459272D01*
X162355600Y-98459272D02*
X162546076Y-98268796D01*
X162546076Y-98268796D02*
X162736552Y-98173558D01*
X162736552Y-98173558D02*
X163117504Y-98078320D01*
X163117504Y-98078320D02*
X163403219Y-98078320D01*
X163403219Y-98078320D02*
X163784171Y-98173558D01*
X163784171Y-98173558D02*
X163974647Y-98268796D01*
X163974647Y-98268796D02*
X164165123Y-98459272D01*
X164165123Y-98459272D02*
X164260361Y-98744987D01*
X164260361Y-98744987D02*
X164260361Y-98935463D01*
X164260361Y-98935463D02*
X164165123Y-99221177D01*
X164165123Y-99221177D02*
X164069885Y-99316415D01*
X162260361Y-85673558D02*
X164260361Y-85673558D01*
X164260361Y-85673558D02*
X164260361Y-86435463D01*
X164260361Y-86435463D02*
X164165123Y-86625939D01*
X164165123Y-86625939D02*
X164069885Y-86721177D01*
X164069885Y-86721177D02*
X163879409Y-86816415D01*
X163879409Y-86816415D02*
X163593695Y-86816415D01*
X163593695Y-86816415D02*
X163403219Y-86721177D01*
X163403219Y-86721177D02*
X163307980Y-86625939D01*
X163307980Y-86625939D02*
X163212742Y-86435463D01*
X163212742Y-86435463D02*
X163212742Y-85673558D01*
X164260361Y-88054510D02*
X164260361Y-88435463D01*
X164260361Y-88435463D02*
X164165123Y-88625939D01*
X164165123Y-88625939D02*
X163974647Y-88816415D01*
X163974647Y-88816415D02*
X163593695Y-88911653D01*
X163593695Y-88911653D02*
X162927028Y-88911653D01*
X162927028Y-88911653D02*
X162546076Y-88816415D01*
X162546076Y-88816415D02*
X162355600Y-88625939D01*
X162355600Y-88625939D02*
X162260361Y-88435463D01*
X162260361Y-88435463D02*
X162260361Y-88054510D01*
X162260361Y-88054510D02*
X162355600Y-87864034D01*
X162355600Y-87864034D02*
X162546076Y-87673558D01*
X162546076Y-87673558D02*
X162927028Y-87578320D01*
X162927028Y-87578320D02*
X163593695Y-87578320D01*
X163593695Y-87578320D02*
X163974647Y-87673558D01*
X163974647Y-87673558D02*
X164165123Y-87864034D01*
X164165123Y-87864034D02*
X164260361Y-88054510D01*
X164260361Y-89578320D02*
X162260361Y-90054510D01*
X162260361Y-90054510D02*
X163688933Y-90435463D01*
X163688933Y-90435463D02*
X162260361Y-90816415D01*
X162260361Y-90816415D02*
X164260361Y-91292606D01*
D14*
%TO.C,REF\u002A\u002A*%
X103034387Y-97260588D02*
X103189303Y-97267382D01*
X103303976Y-97281607D01*
X103387449Y-97305638D01*
X103448764Y-97341848D01*
X103496966Y-97392612D01*
X103530607Y-97442739D01*
X103575381Y-97563275D01*
X103585479Y-97703557D01*
X103559982Y-97835690D01*
X103544731Y-97870585D01*
X103478765Y-97953877D01*
X103383382Y-98025103D01*
X103281594Y-98069153D01*
X103231413Y-98076322D01*
X103161353Y-98052285D01*
X103124283Y-97999561D01*
X103101836Y-97943031D01*
X103097700Y-97917146D01*
X103127717Y-97904542D01*
X103193039Y-97879654D01*
X103222555Y-97868735D01*
X103324652Y-97807508D01*
X103375577Y-97718861D01*
X103374011Y-97605193D01*
X103372006Y-97596774D01*
X103343233Y-97536088D01*
X103287141Y-97491474D01*
X103196837Y-97461002D01*
X103065429Y-97442744D01*
X102886026Y-97434771D01*
X102790567Y-97434023D01*
X102640087Y-97433652D01*
X102537505Y-97431223D01*
X102472328Y-97424760D01*
X102434062Y-97412288D01*
X102412215Y-97391833D01*
X102396293Y-97361419D01*
X102395491Y-97359661D01*
X102370728Y-97301091D01*
X102361609Y-97272075D01*
X102389178Y-97267616D01*
X102465380Y-97263799D01*
X102580459Y-97260899D01*
X102724659Y-97259191D01*
X102830186Y-97258851D01*
X103034387Y-97260588D01*
G36*
X103034387Y-97260588D02*
G01*
X103189303Y-97267382D01*
X103303976Y-97281607D01*
X103387449Y-97305638D01*
X103448764Y-97341848D01*
X103496966Y-97392612D01*
X103530607Y-97442739D01*
X103575381Y-97563275D01*
X103585479Y-97703557D01*
X103559982Y-97835690D01*
X103544731Y-97870585D01*
X103478765Y-97953877D01*
X103383382Y-98025103D01*
X103281594Y-98069153D01*
X103231413Y-98076322D01*
X103161353Y-98052285D01*
X103124283Y-97999561D01*
X103101836Y-97943031D01*
X103097700Y-97917146D01*
X103127717Y-97904542D01*
X103193039Y-97879654D01*
X103222555Y-97868735D01*
X103324652Y-97807508D01*
X103375577Y-97718861D01*
X103374011Y-97605193D01*
X103372006Y-97596774D01*
X103343233Y-97536088D01*
X103287141Y-97491474D01*
X103196837Y-97461002D01*
X103065429Y-97442744D01*
X102886026Y-97434771D01*
X102790567Y-97434023D01*
X102640087Y-97433652D01*
X102537505Y-97431223D01*
X102472328Y-97424760D01*
X102434062Y-97412288D01*
X102412215Y-97391833D01*
X102396293Y-97361419D01*
X102395491Y-97359661D01*
X102370728Y-97301091D01*
X102361609Y-97272075D01*
X102389178Y-97267616D01*
X102465380Y-97263799D01*
X102580459Y-97260899D01*
X102724659Y-97259191D01*
X102830186Y-97258851D01*
X103034387Y-97260588D01*
G37*
X102850654Y-89293962D02*
X103037461Y-89297643D01*
X103175510Y-89301950D01*
X103274432Y-89308123D01*
X103343855Y-89317402D01*
X103393410Y-89331027D01*
X103432727Y-89350239D01*
X103467416Y-89373402D01*
X103578230Y-89485152D01*
X103642311Y-89621513D01*
X103657661Y-89769825D01*
X103622281Y-89917429D01*
X103568086Y-90011123D01*
X103514293Y-90076264D01*
X103457934Y-90123907D01*
X103389013Y-90156728D01*
X103297532Y-90177406D01*
X103173494Y-90188620D01*
X103006902Y-90193049D01*
X102887149Y-90193563D01*
X102446341Y-90193563D01*
X102390717Y-90069483D01*
X102335093Y-89945402D01*
X102817905Y-89930805D01*
X102998221Y-89924773D01*
X103129099Y-89918445D01*
X103219489Y-89910606D01*
X103278336Y-89900037D01*
X103314587Y-89885523D01*
X103337190Y-89865848D01*
X103342083Y-89859535D01*
X103380294Y-89763888D01*
X103365173Y-89667207D01*
X103325057Y-89609655D01*
X103296630Y-89586245D01*
X103259328Y-89570039D01*
X103202777Y-89559741D01*
X103116606Y-89554049D01*
X102990442Y-89551664D01*
X102858958Y-89551264D01*
X102694001Y-89551186D01*
X102577239Y-89548361D01*
X102498490Y-89538907D01*
X102447569Y-89518940D01*
X102414294Y-89484576D01*
X102388480Y-89431932D01*
X102361656Y-89361617D01*
X102332458Y-89284820D01*
X102850654Y-89293962D01*
G36*
X102850654Y-89293962D02*
G01*
X103037461Y-89297643D01*
X103175510Y-89301950D01*
X103274432Y-89308123D01*
X103343855Y-89317402D01*
X103393410Y-89331027D01*
X103432727Y-89350239D01*
X103467416Y-89373402D01*
X103578230Y-89485152D01*
X103642311Y-89621513D01*
X103657661Y-89769825D01*
X103622281Y-89917429D01*
X103568086Y-90011123D01*
X103514293Y-90076264D01*
X103457934Y-90123907D01*
X103389013Y-90156728D01*
X103297532Y-90177406D01*
X103173494Y-90188620D01*
X103006902Y-90193049D01*
X102887149Y-90193563D01*
X102446341Y-90193563D01*
X102390717Y-90069483D01*
X102335093Y-89945402D01*
X102817905Y-89930805D01*
X102998221Y-89924773D01*
X103129099Y-89918445D01*
X103219489Y-89910606D01*
X103278336Y-89900037D01*
X103314587Y-89885523D01*
X103337190Y-89865848D01*
X103342083Y-89859535D01*
X103380294Y-89763888D01*
X103365173Y-89667207D01*
X103325057Y-89609655D01*
X103296630Y-89586245D01*
X103259328Y-89570039D01*
X103202777Y-89559741D01*
X103116606Y-89554049D01*
X102990442Y-89551664D01*
X102858958Y-89551264D01*
X102694001Y-89551186D01*
X102577239Y-89548361D01*
X102498490Y-89538907D01*
X102447569Y-89518940D01*
X102414294Y-89484576D01*
X102388480Y-89431932D01*
X102361656Y-89361617D01*
X102332458Y-89284820D01*
X102850654Y-89293962D01*
G37*
X102805838Y-93058386D02*
X102836035Y-93059011D01*
X103014651Y-93063421D01*
X103145077Y-93068635D01*
X103237508Y-93076055D01*
X103302142Y-93087082D01*
X103349175Y-93103117D01*
X103388804Y-93125561D01*
X103405785Y-93137302D01*
X103480920Y-93204619D01*
X103539362Y-93279910D01*
X103544464Y-93289128D01*
X103584740Y-93424133D01*
X103578080Y-93565943D01*
X103529141Y-93698565D01*
X103442581Y-93806010D01*
X103381648Y-93848032D01*
X103269839Y-93893843D01*
X103188994Y-93892891D01*
X103134622Y-93844808D01*
X103125376Y-93827017D01*
X103096550Y-93750204D01*
X103103935Y-93710976D01*
X103152342Y-93697689D01*
X103179080Y-93697012D01*
X103277452Y-93672686D01*
X103346266Y-93609281D01*
X103379502Y-93521154D01*
X103371139Y-93422663D01*
X103327704Y-93342602D01*
X103302928Y-93315561D01*
X103272871Y-93296394D01*
X103227435Y-93283446D01*
X103156524Y-93275064D01*
X103050040Y-93269593D01*
X102897888Y-93265378D01*
X102849713Y-93264287D01*
X102684905Y-93260307D01*
X102568912Y-93255781D01*
X102492167Y-93248995D01*
X102445107Y-93238231D01*
X102418165Y-93221773D01*
X102401777Y-93197906D01*
X102394537Y-93182626D01*
X102369780Y-93117733D01*
X102361609Y-93079534D01*
X102388897Y-93066912D01*
X102471397Y-93059208D01*
X102610059Y-93056380D01*
X102805838Y-93058386D01*
G36*
X102805838Y-93058386D02*
G01*
X102836035Y-93059011D01*
X103014651Y-93063421D01*
X103145077Y-93068635D01*
X103237508Y-93076055D01*
X103302142Y-93087082D01*
X103349175Y-93103117D01*
X103388804Y-93125561D01*
X103405785Y-93137302D01*
X103480920Y-93204619D01*
X103539362Y-93279910D01*
X103544464Y-93289128D01*
X103584740Y-93424133D01*
X103578080Y-93565943D01*
X103529141Y-93698565D01*
X103442581Y-93806010D01*
X103381648Y-93848032D01*
X103269839Y-93893843D01*
X103188994Y-93892891D01*
X103134622Y-93844808D01*
X103125376Y-93827017D01*
X103096550Y-93750204D01*
X103103935Y-93710976D01*
X103152342Y-93697689D01*
X103179080Y-93697012D01*
X103277452Y-93672686D01*
X103346266Y-93609281D01*
X103379502Y-93521154D01*
X103371139Y-93422663D01*
X103327704Y-93342602D01*
X103302928Y-93315561D01*
X103272871Y-93296394D01*
X103227435Y-93283446D01*
X103156524Y-93275064D01*
X103050040Y-93269593D01*
X102897888Y-93265378D01*
X102849713Y-93264287D01*
X102684905Y-93260307D01*
X102568912Y-93255781D01*
X102492167Y-93248995D01*
X102445107Y-93238231D01*
X102418165Y-93221773D01*
X102401777Y-93197906D01*
X102394537Y-93182626D01*
X102369780Y-93117733D01*
X102361609Y-93079534D01*
X102388897Y-93066912D01*
X102471397Y-93059208D01*
X102610059Y-93056380D01*
X102805838Y-93058386D01*
G37*
X103553934Y-95143558D02*
X103579030Y-95207590D01*
X103587816Y-95245052D01*
X103560050Y-95254657D01*
X103482470Y-95263635D01*
X103363652Y-95271386D01*
X103212172Y-95277314D01*
X103084195Y-95280173D01*
X102580575Y-95288161D01*
X102570722Y-95357848D01*
X102577611Y-95421229D01*
X102599917Y-95452286D01*
X102641621Y-95460967D01*
X102730456Y-95468378D01*
X102855166Y-95473931D01*
X103004493Y-95477036D01*
X103081339Y-95477484D01*
X103523713Y-95477931D01*
X103555765Y-95569874D01*
X103577557Y-95634949D01*
X103587719Y-95670347D01*
X103587816Y-95671368D01*
X103560191Y-95674920D01*
X103483589Y-95678823D01*
X103367421Y-95682751D01*
X103221096Y-95686376D01*
X103084195Y-95688908D01*
X102580575Y-95696897D01*
X102580575Y-95872069D01*
X103040035Y-95880107D01*
X103499495Y-95888146D01*
X103543656Y-95973543D01*
X103573981Y-96036593D01*
X103587742Y-96073910D01*
X103587816Y-96074987D01*
X103560160Y-96080124D01*
X103483347Y-96084579D01*
X103366609Y-96088071D01*
X103219179Y-96090315D01*
X103064545Y-96091035D01*
X102541273Y-96091035D01*
X102448883Y-95998645D01*
X102391953Y-95934978D01*
X102368893Y-95879089D01*
X102370353Y-95802702D01*
X102374066Y-95772380D01*
X102384874Y-95677610D01*
X102391067Y-95599222D01*
X102391639Y-95580115D01*
X102387898Y-95515699D01*
X102378506Y-95423571D01*
X102374066Y-95387850D01*
X102367199Y-95300114D01*
X102382115Y-95241153D01*
X102428165Y-95182690D01*
X102448883Y-95161585D01*
X102541273Y-95069195D01*
X103520053Y-95069195D01*
X103553934Y-95143558D01*
G36*
X103553934Y-95143558D02*
G01*
X103579030Y-95207590D01*
X103587816Y-95245052D01*
X103560050Y-95254657D01*
X103482470Y-95263635D01*
X103363652Y-95271386D01*
X103212172Y-95277314D01*
X103084195Y-95280173D01*
X102580575Y-95288161D01*
X102570722Y-95357848D01*
X102577611Y-95421229D01*
X102599917Y-95452286D01*
X102641621Y-95460967D01*
X102730456Y-95468378D01*
X102855166Y-95473931D01*
X103004493Y-95477036D01*
X103081339Y-95477484D01*
X103523713Y-95477931D01*
X103555765Y-95569874D01*
X103577557Y-95634949D01*
X103587719Y-95670347D01*
X103587816Y-95671368D01*
X103560191Y-95674920D01*
X103483589Y-95678823D01*
X103367421Y-95682751D01*
X103221096Y-95686376D01*
X103084195Y-95688908D01*
X102580575Y-95696897D01*
X102580575Y-95872069D01*
X103040035Y-95880107D01*
X103499495Y-95888146D01*
X103543656Y-95973543D01*
X103573981Y-96036593D01*
X103587742Y-96073910D01*
X103587816Y-96074987D01*
X103560160Y-96080124D01*
X103483347Y-96084579D01*
X103366609Y-96088071D01*
X103219179Y-96090315D01*
X103064545Y-96091035D01*
X102541273Y-96091035D01*
X102448883Y-95998645D01*
X102391953Y-95934978D01*
X102368893Y-95879089D01*
X102370353Y-95802702D01*
X102374066Y-95772380D01*
X102384874Y-95677610D01*
X102391067Y-95599222D01*
X102391639Y-95580115D01*
X102387898Y-95515699D01*
X102378506Y-95423571D01*
X102374066Y-95387850D01*
X102367199Y-95300114D01*
X102382115Y-95241153D01*
X102428165Y-95182690D01*
X102448883Y-95161585D01*
X102541273Y-95069195D01*
X103520053Y-95069195D01*
X103553934Y-95143558D01*
G37*
X103981003Y-91135115D02*
X104021027Y-91230000D01*
X103776143Y-91244598D01*
X103656812Y-91253154D01*
X103586494Y-91262981D01*
X103555821Y-91276599D01*
X103555429Y-91296527D01*
X103559090Y-91302989D01*
X103585602Y-91388940D01*
X103584054Y-91500745D01*
X103556801Y-91614414D01*
X103521545Y-91685510D01*
X103465222Y-91758405D01*
X103401481Y-91811693D01*
X103320490Y-91848275D01*
X103212414Y-91871050D01*
X103067420Y-91882919D01*
X102875674Y-91886782D01*
X102838891Y-91886851D01*
X102425712Y-91886897D01*
X102393661Y-91794954D01*
X102371856Y-91729652D01*
X102361703Y-91693824D01*
X102361609Y-91692770D01*
X102389140Y-91689242D01*
X102465077Y-91686239D01*
X102579435Y-91683990D01*
X102722231Y-91682724D01*
X102809049Y-91682529D01*
X102980227Y-91682123D01*
X103102912Y-91680032D01*
X103187000Y-91674947D01*
X103242386Y-91665560D01*
X103278968Y-91650561D01*
X103306641Y-91628642D01*
X103319968Y-91614957D01*
X103373672Y-91520949D01*
X103377693Y-91418364D01*
X103332275Y-91325290D01*
X103315877Y-91308078D01*
X103285043Y-91282832D01*
X103248469Y-91265320D01*
X103195585Y-91254142D01*
X103115823Y-91247896D01*
X102998615Y-91245182D01*
X102837009Y-91244598D01*
X102425712Y-91244598D01*
X102393661Y-91152655D01*
X102371856Y-91087353D01*
X102361703Y-91051525D01*
X102361609Y-91050471D01*
X102389552Y-91047775D01*
X102468370Y-91045345D01*
X102590547Y-91043278D01*
X102748568Y-91041671D01*
X102934917Y-91040623D01*
X103142080Y-91040231D01*
X103151294Y-91040230D01*
X103940980Y-91040230D01*
X103981003Y-91135115D01*
G36*
X103981003Y-91135115D02*
G01*
X104021027Y-91230000D01*
X103776143Y-91244598D01*
X103656812Y-91253154D01*
X103586494Y-91262981D01*
X103555821Y-91276599D01*
X103555429Y-91296527D01*
X103559090Y-91302989D01*
X103585602Y-91388940D01*
X103584054Y-91500745D01*
X103556801Y-91614414D01*
X103521545Y-91685510D01*
X103465222Y-91758405D01*
X103401481Y-91811693D01*
X103320490Y-91848275D01*
X103212414Y-91871050D01*
X103067420Y-91882919D01*
X102875674Y-91886782D01*
X102838891Y-91886851D01*
X102425712Y-91886897D01*
X102393661Y-91794954D01*
X102371856Y-91729652D01*
X102361703Y-91693824D01*
X102361609Y-91692770D01*
X102389140Y-91689242D01*
X102465077Y-91686239D01*
X102579435Y-91683990D01*
X102722231Y-91682724D01*
X102809049Y-91682529D01*
X102980227Y-91682123D01*
X103102912Y-91680032D01*
X103187000Y-91674947D01*
X103242386Y-91665560D01*
X103278968Y-91650561D01*
X103306641Y-91628642D01*
X103319968Y-91614957D01*
X103373672Y-91520949D01*
X103377693Y-91418364D01*
X103332275Y-91325290D01*
X103315877Y-91308078D01*
X103285043Y-91282832D01*
X103248469Y-91265320D01*
X103195585Y-91254142D01*
X103115823Y-91247896D01*
X102998615Y-91245182D01*
X102837009Y-91244598D01*
X102425712Y-91244598D01*
X102393661Y-91152655D01*
X102371856Y-91087353D01*
X102361703Y-91051525D01*
X102361609Y-91050471D01*
X102389552Y-91047775D01*
X102468370Y-91045345D01*
X102590547Y-91043278D01*
X102748568Y-91041671D01*
X102934917Y-91040623D01*
X103142080Y-91040231D01*
X103151294Y-91040230D01*
X103940980Y-91040230D01*
X103981003Y-91135115D01*
G37*
X103013981Y-85931107D02*
X103154341Y-85932122D01*
X103259451Y-85936688D01*
X103332286Y-85946688D01*
X103385892Y-85964079D01*
X103433319Y-85990816D01*
X103442136Y-85996724D01*
X103560993Y-86096032D01*
X103629992Y-86204242D01*
X103657381Y-86335981D01*
X103658719Y-86380717D01*
X103633985Y-86548221D01*
X103562032Y-86685061D01*
X103446234Y-86786051D01*
X103371787Y-86821925D01*
X103260008Y-86849839D01*
X103118773Y-86864129D01*
X102964629Y-86865484D01*
X102814121Y-86854595D01*
X102683795Y-86832153D01*
X102590197Y-86798850D01*
X102574078Y-86788615D01*
X102453751Y-86667382D01*
X102381683Y-86523387D01*
X102360592Y-86367139D01*
X102363874Y-86351236D01*
X102632828Y-86351236D01*
X102635105Y-86419059D01*
X102678416Y-86487635D01*
X102724654Y-86528535D01*
X102792143Y-86552758D01*
X102898567Y-86566361D01*
X102910980Y-86567294D01*
X103103853Y-86569616D01*
X103247100Y-86545350D01*
X103339840Y-86494824D01*
X103381193Y-86418368D01*
X103383448Y-86391076D01*
X103372107Y-86319411D01*
X103332816Y-86270390D01*
X103257674Y-86240418D01*
X103138778Y-86225899D01*
X103013981Y-86222989D01*
X102880744Y-86224687D01*
X102792326Y-86231372D01*
X102735215Y-86245425D01*
X102695898Y-86269229D01*
X102682759Y-86281379D01*
X102632828Y-86351236D01*
X102363874Y-86351236D01*
X102393198Y-86209148D01*
X102412747Y-86165180D01*
X102472988Y-86079556D01*
X102552865Y-86004408D01*
X102562996Y-85997306D01*
X102611819Y-85968439D01*
X102664010Y-85949357D01*
X102732715Y-85938084D01*
X102831082Y-85932645D01*
X102972256Y-85931062D01*
X103003908Y-85931035D01*
X103013981Y-85931107D01*
G36*
X103013981Y-85931107D02*
G01*
X103154341Y-85932122D01*
X103259451Y-85936688D01*
X103332286Y-85946688D01*
X103385892Y-85964079D01*
X103433319Y-85990816D01*
X103442136Y-85996724D01*
X103560993Y-86096032D01*
X103629992Y-86204242D01*
X103657381Y-86335981D01*
X103658719Y-86380717D01*
X103633985Y-86548221D01*
X103562032Y-86685061D01*
X103446234Y-86786051D01*
X103371787Y-86821925D01*
X103260008Y-86849839D01*
X103118773Y-86864129D01*
X102964629Y-86865484D01*
X102814121Y-86854595D01*
X102683795Y-86832153D01*
X102590197Y-86798850D01*
X102574078Y-86788615D01*
X102453751Y-86667382D01*
X102381683Y-86523387D01*
X102360592Y-86367139D01*
X102363874Y-86351236D01*
X102632828Y-86351236D01*
X102635105Y-86419059D01*
X102678416Y-86487635D01*
X102724654Y-86528535D01*
X102792143Y-86552758D01*
X102898567Y-86566361D01*
X102910980Y-86567294D01*
X103103853Y-86569616D01*
X103247100Y-86545350D01*
X103339840Y-86494824D01*
X103381193Y-86418368D01*
X103383448Y-86391076D01*
X103372107Y-86319411D01*
X103332816Y-86270390D01*
X103257674Y-86240418D01*
X103138778Y-86225899D01*
X103013981Y-86222989D01*
X102880744Y-86224687D01*
X102792326Y-86231372D01*
X102735215Y-86245425D01*
X102695898Y-86269229D01*
X102682759Y-86281379D01*
X102632828Y-86351236D01*
X102363874Y-86351236D01*
X102393198Y-86209148D01*
X102412747Y-86165180D01*
X102472988Y-86079556D01*
X102552865Y-86004408D01*
X102562996Y-85997306D01*
X102611819Y-85968439D01*
X102664010Y-85949357D01*
X102732715Y-85938084D01*
X102831082Y-85932645D01*
X102972256Y-85931062D01*
X103003908Y-85931035D01*
X103013981Y-85931107D01*
G37*
X103062147Y-98253622D02*
X103150649Y-98255459D01*
X103285147Y-98269359D01*
X103383084Y-98296894D01*
X103455189Y-98341572D01*
X103512187Y-98406901D01*
X103530607Y-98435383D01*
X103578578Y-98564763D01*
X103581597Y-98706412D01*
X103543460Y-98843439D01*
X103467966Y-98958950D01*
X103400383Y-99014664D01*
X103277745Y-99058804D01*
X103180702Y-99062309D01*
X103050944Y-99054368D01*
X102919961Y-98755115D01*
X102853042Y-98609611D01*
X102799210Y-98514537D01*
X102752584Y-98465101D01*
X102707280Y-98456511D01*
X102657418Y-98483972D01*
X102624368Y-98514253D01*
X102571367Y-98602363D01*
X102567653Y-98698196D01*
X102608959Y-98786212D01*
X102691017Y-98850869D01*
X102719992Y-98862433D01*
X102810491Y-98917825D01*
X102849060Y-98981553D01*
X102882054Y-99068966D01*
X102756966Y-99068966D01*
X102671844Y-99061238D01*
X102600062Y-99030966D01*
X102517644Y-98967518D01*
X102506934Y-98958088D01*
X102433609Y-98887513D01*
X102394258Y-98826847D01*
X102376155Y-98750950D01*
X102370226Y-98688030D01*
X102368749Y-98575487D01*
X102387465Y-98495370D01*
X102415253Y-98445390D01*
X102421749Y-98437039D01*
X103003908Y-98437039D01*
X103015042Y-98470666D01*
X103044507Y-98543030D01*
X103086399Y-98639747D01*
X103095403Y-98659973D01*
X103157558Y-98782203D01*
X103212185Y-98849547D01*
X103263351Y-98864348D01*
X103315124Y-98828947D01*
X103338000Y-98799711D01*
X103383750Y-98694216D01*
X103376192Y-98595476D01*
X103320349Y-98512812D01*
X103221247Y-98455548D01*
X103142586Y-98437188D01*
X103062147Y-98429899D01*
X103012104Y-98431944D01*
X103003908Y-98437039D01*
X102421749Y-98437039D01*
X102476359Y-98366838D01*
X102542446Y-98312463D01*
X102625559Y-98278052D01*
X102737746Y-98259388D01*
X102891054Y-98252256D01*
X102968864Y-98251687D01*
X103062147Y-98253622D01*
G36*
X103062147Y-98253622D02*
G01*
X103150649Y-98255459D01*
X103285147Y-98269359D01*
X103383084Y-98296894D01*
X103455189Y-98341572D01*
X103512187Y-98406901D01*
X103530607Y-98435383D01*
X103578578Y-98564763D01*
X103581597Y-98706412D01*
X103543460Y-98843439D01*
X103467966Y-98958950D01*
X103400383Y-99014664D01*
X103277745Y-99058804D01*
X103180702Y-99062309D01*
X103050944Y-99054368D01*
X102919961Y-98755115D01*
X102853042Y-98609611D01*
X102799210Y-98514537D01*
X102752584Y-98465101D01*
X102707280Y-98456511D01*
X102657418Y-98483972D01*
X102624368Y-98514253D01*
X102571367Y-98602363D01*
X102567653Y-98698196D01*
X102608959Y-98786212D01*
X102691017Y-98850869D01*
X102719992Y-98862433D01*
X102810491Y-98917825D01*
X102849060Y-98981553D01*
X102882054Y-99068966D01*
X102756966Y-99068966D01*
X102671844Y-99061238D01*
X102600062Y-99030966D01*
X102517644Y-98967518D01*
X102506934Y-98958088D01*
X102433609Y-98887513D01*
X102394258Y-98826847D01*
X102376155Y-98750950D01*
X102370226Y-98688030D01*
X102368749Y-98575487D01*
X102387465Y-98495370D01*
X102415253Y-98445390D01*
X102421749Y-98437039D01*
X103003908Y-98437039D01*
X103015042Y-98470666D01*
X103044507Y-98543030D01*
X103086399Y-98639747D01*
X103095403Y-98659973D01*
X103157558Y-98782203D01*
X103212185Y-98849547D01*
X103263351Y-98864348D01*
X103315124Y-98828947D01*
X103338000Y-98799711D01*
X103383750Y-98694216D01*
X103376192Y-98595476D01*
X103320349Y-98512812D01*
X103221247Y-98455548D01*
X103142586Y-98437188D01*
X103062147Y-98429899D01*
X103012104Y-98431944D01*
X103003908Y-98437039D01*
X102421749Y-98437039D01*
X102476359Y-98366838D01*
X102542446Y-98312463D01*
X102625559Y-98278052D01*
X102737746Y-98259388D01*
X102891054Y-98252256D01*
X102968864Y-98251687D01*
X103062147Y-98253622D01*
G37*
X102982894Y-94047761D02*
X103158053Y-94054504D01*
X103295805Y-94078472D01*
X103399368Y-94123548D01*
X103480144Y-94193928D01*
X103521545Y-94248743D01*
X103566272Y-94348376D01*
X103587033Y-94463855D01*
X103581475Y-94571199D01*
X103559057Y-94631264D01*
X103552677Y-94654835D01*
X103576465Y-94670477D01*
X103640212Y-94681395D01*
X103737313Y-94689655D01*
X103845459Y-94698699D01*
X103910525Y-94711261D01*
X103947732Y-94734119D01*
X103972301Y-94774051D01*
X103983181Y-94799138D01*
X104022928Y-94894023D01*
X103345545Y-94893914D01*
X103127339Y-94893543D01*
X102959481Y-94892108D01*
X102833930Y-94889002D01*
X102742645Y-94883622D01*
X102677585Y-94875362D01*
X102630709Y-94863616D01*
X102593976Y-94847781D01*
X102573009Y-94835790D01*
X102459306Y-94736490D01*
X102388035Y-94610588D01*
X102371210Y-94518940D01*
X102573008Y-94518940D01*
X102622721Y-94614636D01*
X102629457Y-94622084D01*
X102664498Y-94653874D01*
X102706189Y-94673808D01*
X102768238Y-94684600D01*
X102864356Y-94688965D01*
X102970621Y-94689655D01*
X103104120Y-94688159D01*
X103193178Y-94681964D01*
X103251707Y-94668514D01*
X103293618Y-94645251D01*
X103315877Y-94626175D01*
X103372015Y-94537563D01*
X103378765Y-94435508D01*
X103335886Y-94338095D01*
X103319968Y-94319296D01*
X103284618Y-94287293D01*
X103242498Y-94267318D01*
X103179749Y-94256593D01*
X103082513Y-94252339D01*
X102982894Y-94251724D01*
X102852343Y-94252970D01*
X102765920Y-94258678D01*
X102709382Y-94271804D01*
X102668486Y-94295306D01*
X102637638Y-94323386D01*
X102578095Y-94417688D01*
X102573008Y-94518940D01*
X102371210Y-94518940D01*
X102362462Y-94471291D01*
X102385850Y-94331805D01*
X102427881Y-94248743D01*
X102500589Y-94161545D01*
X102589388Y-94102117D01*
X102705680Y-94066261D01*
X102860865Y-94049781D01*
X102974713Y-94047447D01*
X102982894Y-94047761D01*
G36*
X102982894Y-94047761D02*
G01*
X103158053Y-94054504D01*
X103295805Y-94078472D01*
X103399368Y-94123548D01*
X103480144Y-94193928D01*
X103521545Y-94248743D01*
X103566272Y-94348376D01*
X103587033Y-94463855D01*
X103581475Y-94571199D01*
X103559057Y-94631264D01*
X103552677Y-94654835D01*
X103576465Y-94670477D01*
X103640212Y-94681395D01*
X103737313Y-94689655D01*
X103845459Y-94698699D01*
X103910525Y-94711261D01*
X103947732Y-94734119D01*
X103972301Y-94774051D01*
X103983181Y-94799138D01*
X104022928Y-94894023D01*
X103345545Y-94893914D01*
X103127339Y-94893543D01*
X102959481Y-94892108D01*
X102833930Y-94889002D01*
X102742645Y-94883622D01*
X102677585Y-94875362D01*
X102630709Y-94863616D01*
X102593976Y-94847781D01*
X102573009Y-94835790D01*
X102459306Y-94736490D01*
X102388035Y-94610588D01*
X102371210Y-94518940D01*
X102573008Y-94518940D01*
X102622721Y-94614636D01*
X102629457Y-94622084D01*
X102664498Y-94653874D01*
X102706189Y-94673808D01*
X102768238Y-94684600D01*
X102864356Y-94688965D01*
X102970621Y-94689655D01*
X103104120Y-94688159D01*
X103193178Y-94681964D01*
X103251707Y-94668514D01*
X103293618Y-94645251D01*
X103315877Y-94626175D01*
X103372015Y-94537563D01*
X103378765Y-94435508D01*
X103335886Y-94338095D01*
X103319968Y-94319296D01*
X103284618Y-94287293D01*
X103242498Y-94267318D01*
X103179749Y-94256593D01*
X103082513Y-94252339D01*
X102982894Y-94251724D01*
X102852343Y-94252970D01*
X102765920Y-94258678D01*
X102709382Y-94271804D01*
X102668486Y-94295306D01*
X102637638Y-94323386D01*
X102578095Y-94417688D01*
X102573008Y-94518940D01*
X102371210Y-94518940D01*
X102362462Y-94471291D01*
X102385850Y-94331805D01*
X102427881Y-94248743D01*
X102500589Y-94161545D01*
X102589388Y-94102117D01*
X102705680Y-94066261D01*
X102860865Y-94049781D01*
X102974713Y-94047447D01*
X102982894Y-94047761D01*
G37*
X103189876Y-88161678D02*
X103263739Y-88169644D01*
X103404171Y-88218634D01*
X103502553Y-88286836D01*
X103601970Y-88409935D01*
X103651289Y-88545528D01*
X103654432Y-88683955D01*
X103615324Y-88815552D01*
X103537889Y-88930658D01*
X103426051Y-89019611D01*
X103283735Y-89072749D01*
X103178985Y-89083497D01*
X103135274Y-89082276D01*
X103101806Y-89072056D01*
X103071821Y-89043961D01*
X103038560Y-88989116D01*
X102995262Y-88898645D01*
X102935167Y-88763672D01*
X102934866Y-88762989D01*
X102877963Y-88638751D01*
X102827435Y-88536873D01*
X102788720Y-88467767D01*
X102786751Y-88465389D01*
X103106709Y-88465389D01*
X103120765Y-88515026D01*
X103153991Y-88593267D01*
X103195641Y-88680726D01*
X103196744Y-88682899D01*
X103235735Y-88757030D01*
X103261756Y-88786781D01*
X103289035Y-88779445D01*
X103324879Y-88748553D01*
X103376749Y-88669960D01*
X103380561Y-88585323D01*
X103342811Y-88509403D01*
X103269999Y-88456965D01*
X103189876Y-88441839D01*
X103125497Y-88445479D01*
X103106709Y-88465389D01*
X102786751Y-88465389D01*
X102767260Y-88441846D01*
X102767087Y-88441839D01*
X102720356Y-88464685D01*
X102668846Y-88518109D01*
X102631739Y-88579442D01*
X102624368Y-88610515D01*
X102649862Y-88695289D01*
X102713709Y-88768293D01*
X102783906Y-88803913D01*
X102835657Y-88838180D01*
X102894591Y-88905303D01*
X102945504Y-88984208D01*
X102973191Y-89053821D01*
X102974713Y-89068377D01*
X102949679Y-89084763D01*
X102885689Y-89085750D01*
X102799407Y-89073708D01*
X102707499Y-89051007D01*
X102626631Y-89020014D01*
X102623491Y-89018448D01*
X102493266Y-88925181D01*
X102404689Y-88804304D01*
X102361214Y-88667027D01*
X102366294Y-88524560D01*
X102423384Y-88388112D01*
X102427398Y-88382045D01*
X102524674Y-88274710D01*
X102651591Y-88204132D01*
X102818474Y-88165074D01*
X102865361Y-88159832D01*
X103086671Y-88150548D01*
X103189876Y-88161678D01*
G36*
X103189876Y-88161678D02*
G01*
X103263739Y-88169644D01*
X103404171Y-88218634D01*
X103502553Y-88286836D01*
X103601970Y-88409935D01*
X103651289Y-88545528D01*
X103654432Y-88683955D01*
X103615324Y-88815552D01*
X103537889Y-88930658D01*
X103426051Y-89019611D01*
X103283735Y-89072749D01*
X103178985Y-89083497D01*
X103135274Y-89082276D01*
X103101806Y-89072056D01*
X103071821Y-89043961D01*
X103038560Y-88989116D01*
X102995262Y-88898645D01*
X102935167Y-88763672D01*
X102934866Y-88762989D01*
X102877963Y-88638751D01*
X102827435Y-88536873D01*
X102788720Y-88467767D01*
X102786751Y-88465389D01*
X103106709Y-88465389D01*
X103120765Y-88515026D01*
X103153991Y-88593267D01*
X103195641Y-88680726D01*
X103196744Y-88682899D01*
X103235735Y-88757030D01*
X103261756Y-88786781D01*
X103289035Y-88779445D01*
X103324879Y-88748553D01*
X103376749Y-88669960D01*
X103380561Y-88585323D01*
X103342811Y-88509403D01*
X103269999Y-88456965D01*
X103189876Y-88441839D01*
X103125497Y-88445479D01*
X103106709Y-88465389D01*
X102786751Y-88465389D01*
X102767260Y-88441846D01*
X102767087Y-88441839D01*
X102720356Y-88464685D01*
X102668846Y-88518109D01*
X102631739Y-88579442D01*
X102624368Y-88610515D01*
X102649862Y-88695289D01*
X102713709Y-88768293D01*
X102783906Y-88803913D01*
X102835657Y-88838180D01*
X102894591Y-88905303D01*
X102945504Y-88984208D01*
X102973191Y-89053821D01*
X102974713Y-89068377D01*
X102949679Y-89084763D01*
X102885689Y-89085750D01*
X102799407Y-89073708D01*
X102707499Y-89051007D01*
X102626631Y-89020014D01*
X102623491Y-89018448D01*
X102493266Y-88925181D01*
X102404689Y-88804304D01*
X102361214Y-88667027D01*
X102366294Y-88524560D01*
X102423384Y-88388112D01*
X102427398Y-88382045D01*
X102524674Y-88274710D01*
X102651591Y-88204132D01*
X102818474Y-88165074D01*
X102865361Y-88159832D01*
X103086671Y-88150548D01*
X103189876Y-88161678D01*
G37*
X103315928Y-92090653D02*
X103452216Y-92175495D01*
X103497809Y-92219645D01*
X103556326Y-92320005D01*
X103582816Y-92447635D01*
X103575640Y-92579944D01*
X103533158Y-92694343D01*
X103532342Y-92695652D01*
X103480270Y-92766403D01*
X103419416Y-92818636D01*
X103340113Y-92855371D01*
X103232691Y-92879634D01*
X103087483Y-92894445D01*
X102894821Y-92902829D01*
X102867372Y-92903564D01*
X102453479Y-92914120D01*
X102407544Y-92825291D01*
X102376502Y-92761018D01*
X102361794Y-92722210D01*
X102361609Y-92720415D01*
X102388750Y-92713700D01*
X102461959Y-92708365D01*
X102568919Y-92705083D01*
X102655531Y-92704368D01*
X102795838Y-92704351D01*
X102883949Y-92697937D01*
X102925975Y-92675580D01*
X102928025Y-92627732D01*
X102896210Y-92544849D01*
X102837728Y-92419713D01*
X102789155Y-92327697D01*
X102747014Y-92280371D01*
X102701084Y-92266458D01*
X102698811Y-92266437D01*
X102619689Y-92289395D01*
X102576945Y-92357370D01*
X102570754Y-92461398D01*
X102571828Y-92536330D01*
X102550247Y-92575839D01*
X102498409Y-92600478D01*
X102432368Y-92614659D01*
X102394896Y-92594223D01*
X102389533Y-92586528D01*
X102367994Y-92514083D01*
X102364945Y-92412633D01*
X102379222Y-92308157D01*
X102405312Y-92234125D01*
X102492215Y-92131772D01*
X102613184Y-92073591D01*
X102707692Y-92062069D01*
X102792938Y-92070862D01*
X102862524Y-92102680D01*
X102924328Y-92165684D01*
X102986228Y-92268031D01*
X103056103Y-92417882D01*
X103060052Y-92427012D01*
X103122412Y-92561997D01*
X103173554Y-92645294D01*
X103219512Y-92680997D01*
X103266317Y-92673203D01*
X103320002Y-92626007D01*
X103332356Y-92611894D01*
X103380259Y-92517359D01*
X103378242Y-92419406D01*
X103331276Y-92334097D01*
X103244331Y-92277496D01*
X103227266Y-92272237D01*
X103144496Y-92221023D01*
X103104628Y-92156037D01*
X103065118Y-92062069D01*
X103167342Y-92062069D01*
X103315928Y-92090653D01*
G36*
X103315928Y-92090653D02*
G01*
X103452216Y-92175495D01*
X103497809Y-92219645D01*
X103556326Y-92320005D01*
X103582816Y-92447635D01*
X103575640Y-92579944D01*
X103533158Y-92694343D01*
X103532342Y-92695652D01*
X103480270Y-92766403D01*
X103419416Y-92818636D01*
X103340113Y-92855371D01*
X103232691Y-92879634D01*
X103087483Y-92894445D01*
X102894821Y-92902829D01*
X102867372Y-92903564D01*
X102453479Y-92914120D01*
X102407544Y-92825291D01*
X102376502Y-92761018D01*
X102361794Y-92722210D01*
X102361609Y-92720415D01*
X102388750Y-92713700D01*
X102461959Y-92708365D01*
X102568919Y-92705083D01*
X102655531Y-92704368D01*
X102795838Y-92704351D01*
X102883949Y-92697937D01*
X102925975Y-92675580D01*
X102928025Y-92627732D01*
X102896210Y-92544849D01*
X102837728Y-92419713D01*
X102789155Y-92327697D01*
X102747014Y-92280371D01*
X102701084Y-92266458D01*
X102698811Y-92266437D01*
X102619689Y-92289395D01*
X102576945Y-92357370D01*
X102570754Y-92461398D01*
X102571828Y-92536330D01*
X102550247Y-92575839D01*
X102498409Y-92600478D01*
X102432368Y-92614659D01*
X102394896Y-92594223D01*
X102389533Y-92586528D01*
X102367994Y-92514083D01*
X102364945Y-92412633D01*
X102379222Y-92308157D01*
X102405312Y-92234125D01*
X102492215Y-92131772D01*
X102613184Y-92073591D01*
X102707692Y-92062069D01*
X102792938Y-92070862D01*
X102862524Y-92102680D01*
X102924328Y-92165684D01*
X102986228Y-92268031D01*
X103056103Y-92417882D01*
X103060052Y-92427012D01*
X103122412Y-92561997D01*
X103173554Y-92645294D01*
X103219512Y-92680997D01*
X103266317Y-92673203D01*
X103320002Y-92626007D01*
X103332356Y-92611894D01*
X103380259Y-92517359D01*
X103378242Y-92419406D01*
X103331276Y-92334097D01*
X103244331Y-92277496D01*
X103227266Y-92272237D01*
X103144496Y-92221023D01*
X103104628Y-92156037D01*
X103065118Y-92062069D01*
X103167342Y-92062069D01*
X103315928Y-92090653D01*
G37*
X102363740Y-87042960D02*
X102581215Y-87045529D01*
X102646264Y-87046332D01*
X102870498Y-87049222D01*
X103017179Y-87051812D01*
X103044048Y-87052287D01*
X103174618Y-87056247D01*
X103269913Y-87061826D01*
X103337636Y-87069746D01*
X103385493Y-87080731D01*
X103421187Y-87095501D01*
X103452422Y-87114782D01*
X103464176Y-87123049D01*
X103575203Y-87232712D01*
X103638153Y-87371365D01*
X103655703Y-87531754D01*
X103638097Y-87671900D01*
X103582478Y-87783450D01*
X103480069Y-87881908D01*
X103442136Y-87909023D01*
X103392500Y-87938562D01*
X103338588Y-87957728D01*
X103266636Y-87968693D01*
X103162878Y-87973629D01*
X103025899Y-87974713D01*
X102838185Y-87969818D01*
X102697242Y-87952804D01*
X102592092Y-87920177D01*
X102511757Y-87868442D01*
X102445259Y-87794104D01*
X102441322Y-87788642D01*
X102401047Y-87715380D01*
X102381120Y-87627160D01*
X102377796Y-87551247D01*
X102632280Y-87551247D01*
X102680962Y-87622560D01*
X102682759Y-87624368D01*
X102720382Y-87653383D01*
X102771516Y-87671033D01*
X102850262Y-87679936D01*
X102970724Y-87682709D01*
X102997412Y-87682759D01*
X103163417Y-87676058D01*
X103278495Y-87654248D01*
X103348746Y-87614765D01*
X103380271Y-87555044D01*
X103383448Y-87520528D01*
X103368540Y-87438611D01*
X103319452Y-87382421D01*
X103229638Y-87348598D01*
X103092555Y-87333780D01*
X103017179Y-87332414D01*
X102892674Y-87333991D01*
X102811213Y-87341000D01*
X102757485Y-87356858D01*
X102716177Y-87384981D01*
X102696029Y-87404075D01*
X102637079Y-87482135D01*
X102632280Y-87551247D01*
X102377796Y-87551247D01*
X102376207Y-87514962D01*
X102376207Y-87332567D01*
X102199143Y-87332491D01*
X102100530Y-87330793D01*
X102042686Y-87320450D01*
X102007994Y-87293422D01*
X101978836Y-87241668D01*
X101972879Y-87229239D01*
X101944961Y-87171077D01*
X101927328Y-87126044D01*
X101925806Y-87092559D01*
X101946219Y-87069038D01*
X101994393Y-87053900D01*
X102076154Y-87045563D01*
X102197328Y-87042444D01*
X102363740Y-87042960D01*
G36*
X102363740Y-87042960D02*
G01*
X102581215Y-87045529D01*
X102646264Y-87046332D01*
X102870498Y-87049222D01*
X103017179Y-87051812D01*
X103044048Y-87052287D01*
X103174618Y-87056247D01*
X103269913Y-87061826D01*
X103337636Y-87069746D01*
X103385493Y-87080731D01*
X103421187Y-87095501D01*
X103452422Y-87114782D01*
X103464176Y-87123049D01*
X103575203Y-87232712D01*
X103638153Y-87371365D01*
X103655703Y-87531754D01*
X103638097Y-87671900D01*
X103582478Y-87783450D01*
X103480069Y-87881908D01*
X103442136Y-87909023D01*
X103392500Y-87938562D01*
X103338588Y-87957728D01*
X103266636Y-87968693D01*
X103162878Y-87973629D01*
X103025899Y-87974713D01*
X102838185Y-87969818D01*
X102697242Y-87952804D01*
X102592092Y-87920177D01*
X102511757Y-87868442D01*
X102445259Y-87794104D01*
X102441322Y-87788642D01*
X102401047Y-87715380D01*
X102381120Y-87627160D01*
X102377796Y-87551247D01*
X102632280Y-87551247D01*
X102680962Y-87622560D01*
X102682759Y-87624368D01*
X102720382Y-87653383D01*
X102771516Y-87671033D01*
X102850262Y-87679936D01*
X102970724Y-87682709D01*
X102997412Y-87682759D01*
X103163417Y-87676058D01*
X103278495Y-87654248D01*
X103348746Y-87614765D01*
X103380271Y-87555044D01*
X103383448Y-87520528D01*
X103368540Y-87438611D01*
X103319452Y-87382421D01*
X103229638Y-87348598D01*
X103092555Y-87333780D01*
X103017179Y-87332414D01*
X102892674Y-87333991D01*
X102811213Y-87341000D01*
X102757485Y-87356858D01*
X102716177Y-87384981D01*
X102696029Y-87404075D01*
X102637079Y-87482135D01*
X102632280Y-87551247D01*
X102377796Y-87551247D01*
X102376207Y-87514962D01*
X102376207Y-87332567D01*
X102199143Y-87332491D01*
X102100530Y-87330793D01*
X102042686Y-87320450D01*
X102007994Y-87293422D01*
X101978836Y-87241668D01*
X101972879Y-87229239D01*
X101944961Y-87171077D01*
X101927328Y-87126044D01*
X101925806Y-87092559D01*
X101946219Y-87069038D01*
X101994393Y-87053900D01*
X102076154Y-87045563D01*
X102197328Y-87042444D01*
X102363740Y-87042960D01*
G37*
X102861589Y-96305001D02*
X102930920Y-96367197D01*
X102969735Y-96429294D01*
X103018875Y-96526895D01*
X103068708Y-96640632D01*
X103076323Y-96659590D01*
X103131455Y-96784521D01*
X103180046Y-96856539D01*
X103228353Y-96879700D01*
X103282630Y-96858064D01*
X103325057Y-96820920D01*
X103377298Y-96733127D01*
X103381216Y-96636530D01*
X103340959Y-96547944D01*
X103260674Y-96484186D01*
X103239960Y-96475817D01*
X103163775Y-96427096D01*
X103107215Y-96355965D01*
X103060799Y-96266207D01*
X103192416Y-96266207D01*
X103272832Y-96271490D01*
X103336214Y-96294142D01*
X103403837Y-96344367D01*
X103455924Y-96392582D01*
X103529678Y-96467554D01*
X103569298Y-96525806D01*
X103585190Y-96588372D01*
X103587816Y-96659193D01*
X103564844Y-96814406D01*
X103526607Y-96898469D01*
X103480274Y-96964450D01*
X103428468Y-97012794D01*
X103361637Y-97046172D01*
X103270231Y-97067253D01*
X103144699Y-97078707D01*
X102975492Y-97083203D01*
X102864067Y-97083678D01*
X102429373Y-97083678D01*
X102395491Y-97009316D01*
X102370728Y-96950746D01*
X102361609Y-96921730D01*
X102388743Y-96916179D01*
X102461906Y-96911775D01*
X102568737Y-96909078D01*
X102653563Y-96908506D01*
X102776113Y-96906046D01*
X102873332Y-96899412D01*
X102932866Y-96889726D01*
X102945517Y-96882032D01*
X102932598Y-96830311D01*
X102899461Y-96749117D01*
X102854539Y-96655102D01*
X102806265Y-96564917D01*
X102763072Y-96495215D01*
X102733392Y-96462648D01*
X102733071Y-96462519D01*
X102678143Y-96465320D01*
X102625708Y-96490439D01*
X102583119Y-96534541D01*
X102568874Y-96598909D01*
X102570534Y-96653921D01*
X102571755Y-96731835D01*
X102553502Y-96772732D01*
X102505274Y-96797295D01*
X102496180Y-96800392D01*
X102427402Y-96811040D01*
X102385640Y-96782565D01*
X102365737Y-96708344D01*
X102362056Y-96628168D01*
X102389342Y-96483890D01*
X102428310Y-96409203D01*
X102519852Y-96316963D01*
X102632218Y-96268043D01*
X102750949Y-96263654D01*
X102861589Y-96305001D01*
G36*
X102861589Y-96305001D02*
G01*
X102930920Y-96367197D01*
X102969735Y-96429294D01*
X103018875Y-96526895D01*
X103068708Y-96640632D01*
X103076323Y-96659590D01*
X103131455Y-96784521D01*
X103180046Y-96856539D01*
X103228353Y-96879700D01*
X103282630Y-96858064D01*
X103325057Y-96820920D01*
X103377298Y-96733127D01*
X103381216Y-96636530D01*
X103340959Y-96547944D01*
X103260674Y-96484186D01*
X103239960Y-96475817D01*
X103163775Y-96427096D01*
X103107215Y-96355965D01*
X103060799Y-96266207D01*
X103192416Y-96266207D01*
X103272832Y-96271490D01*
X103336214Y-96294142D01*
X103403837Y-96344367D01*
X103455924Y-96392582D01*
X103529678Y-96467554D01*
X103569298Y-96525806D01*
X103585190Y-96588372D01*
X103587816Y-96659193D01*
X103564844Y-96814406D01*
X103526607Y-96898469D01*
X103480274Y-96964450D01*
X103428468Y-97012794D01*
X103361637Y-97046172D01*
X103270231Y-97067253D01*
X103144699Y-97078707D01*
X102975492Y-97083203D01*
X102864067Y-97083678D01*
X102429373Y-97083678D01*
X102395491Y-97009316D01*
X102370728Y-96950746D01*
X102361609Y-96921730D01*
X102388743Y-96916179D01*
X102461906Y-96911775D01*
X102568737Y-96909078D01*
X102653563Y-96908506D01*
X102776113Y-96906046D01*
X102873332Y-96899412D01*
X102932866Y-96889726D01*
X102945517Y-96882032D01*
X102932598Y-96830311D01*
X102899461Y-96749117D01*
X102854539Y-96655102D01*
X102806265Y-96564917D01*
X102763072Y-96495215D01*
X102733392Y-96462648D01*
X102733071Y-96462519D01*
X102678143Y-96465320D01*
X102625708Y-96490439D01*
X102583119Y-96534541D01*
X102568874Y-96598909D01*
X102570534Y-96653921D01*
X102571755Y-96731835D01*
X102553502Y-96772732D01*
X102505274Y-96797295D01*
X102496180Y-96800392D01*
X102427402Y-96811040D01*
X102385640Y-96782565D01*
X102365737Y-96708344D01*
X102362056Y-96628168D01*
X102389342Y-96483890D01*
X102428310Y-96409203D01*
X102519852Y-96316963D01*
X102632218Y-96268043D01*
X102750949Y-96263654D01*
X102861589Y-96305001D01*
G37*
X108644230Y-87887471D02*
X108803020Y-87888884D01*
X108918027Y-87891936D01*
X108996554Y-87897197D01*
X109045904Y-87905237D01*
X109073381Y-87916627D01*
X109086287Y-87931937D01*
X109088680Y-87938218D01*
X109097167Y-87976104D01*
X109114100Y-88059805D01*
X109137434Y-88178567D01*
X109165125Y-88321639D01*
X109195127Y-88478268D01*
X109225396Y-88637703D01*
X109253885Y-88789191D01*
X109278551Y-88921981D01*
X109297349Y-89025319D01*
X109308233Y-89088455D01*
X109310115Y-89102503D01*
X109335296Y-89115230D01*
X109402378Y-89143400D01*
X109498667Y-89181748D01*
X109536379Y-89196391D01*
X109682079Y-89255452D01*
X109843049Y-89325000D01*
X109978709Y-89387288D01*
X110082439Y-89433121D01*
X110167674Y-89463613D01*
X110219874Y-89473792D01*
X110226870Y-89472169D01*
X110259898Y-89450657D01*
X110333357Y-89401535D01*
X110439423Y-89330077D01*
X110570274Y-89241555D01*
X110718088Y-89141241D01*
X110747266Y-89121406D01*
X110920137Y-89005012D01*
X111051774Y-88919452D01*
X111148239Y-88861316D01*
X111215592Y-88827192D01*
X111259894Y-88813669D01*
X111287206Y-88817336D01*
X111287380Y-88817430D01*
X111323254Y-88846293D01*
X111392609Y-88910133D01*
X111488255Y-89002031D01*
X111603001Y-89115067D01*
X111729659Y-89242321D01*
X111743795Y-89256672D01*
X111899097Y-89417043D01*
X112013130Y-89540805D01*
X112087998Y-89630445D01*
X112125804Y-89688448D01*
X112130683Y-89713996D01*
X112109397Y-89751282D01*
X112060227Y-89828657D01*
X111988425Y-89938133D01*
X111899245Y-90071720D01*
X111797937Y-90221430D01*
X111774103Y-90256382D01*
X111435235Y-90752610D01*
X111536944Y-90976707D01*
X111596217Y-91112989D01*
X111655830Y-91259276D01*
X111703360Y-91385035D01*
X111705315Y-91390575D01*
X111741323Y-91488943D01*
X111771771Y-91564771D01*
X111790095Y-91601718D01*
X111790148Y-91601780D01*
X111823271Y-91613504D01*
X111904733Y-91633432D01*
X112025375Y-91659587D01*
X112176041Y-91689990D01*
X112347572Y-91722663D01*
X112362033Y-91725336D01*
X112538765Y-91758110D01*
X112699190Y-91788198D01*
X112833112Y-91813661D01*
X112930337Y-91832559D01*
X112980668Y-91842953D01*
X112981437Y-91843135D01*
X113002847Y-91849461D01*
X113019012Y-91861761D01*
X113030669Y-91887406D01*
X113038555Y-91933765D01*
X113043407Y-92008208D01*
X113045961Y-92118105D01*
X113046955Y-92270825D01*
X113047126Y-92473738D01*
X113047126Y-92500000D01*
X113047002Y-92709014D01*
X113046137Y-92867006D01*
X113043795Y-92981347D01*
X113039238Y-93059407D01*
X113031730Y-93108554D01*
X113020534Y-93136159D01*
X113004912Y-93149592D01*
X112984127Y-93156221D01*
X112981437Y-93156865D01*
X112932887Y-93166935D01*
X112837095Y-93185575D01*
X112704257Y-93210845D01*
X112544569Y-93240807D01*
X112368226Y-93273522D01*
X112362033Y-93274664D01*
X112189218Y-93307433D01*
X112036531Y-93338093D01*
X111913129Y-93364664D01*
X111828169Y-93385167D01*
X111790810Y-93397626D01*
X111790148Y-93398220D01*
X111771905Y-93434919D01*
X111741503Y-93510586D01*
X111705507Y-93608878D01*
X111705315Y-93609425D01*
X111658778Y-93733233D01*
X111599496Y-93879196D01*
X111539891Y-94016781D01*
X111536944Y-94023293D01*
X111435235Y-94247390D01*
X111774103Y-94743619D01*
X111877408Y-94895846D01*
X111969763Y-95033741D01*
X112045916Y-95149315D01*
X112100615Y-95234579D01*
X112128607Y-95281544D01*
X112130683Y-95286004D01*
X112121440Y-95320134D01*
X112076844Y-95383881D01*
X111994791Y-95479731D01*
X111873179Y-95610169D01*
X111743795Y-95743328D01*
X111616298Y-95871694D01*
X111499954Y-95986581D01*
X111401948Y-96081073D01*
X111329464Y-96148253D01*
X111289687Y-96181206D01*
X111287639Y-96182432D01*
X111260344Y-96186074D01*
X111215766Y-96172350D01*
X111147888Y-96137869D01*
X111050689Y-96079239D01*
X110918149Y-95993070D01*
X110747524Y-95878200D01*
X110597345Y-95776254D01*
X110462650Y-95685123D01*
X110351260Y-95610073D01*
X110270995Y-95556369D01*
X110229675Y-95529280D01*
X110226870Y-95527574D01*
X110187279Y-95530882D01*
X110110331Y-95555953D01*
X110010568Y-95597798D01*
X109978709Y-95612712D01*
X109836774Y-95677786D01*
X109675727Y-95747212D01*
X109536379Y-95803609D01*
X109432956Y-95844247D01*
X109354358Y-95876526D01*
X109313280Y-95895178D01*
X109310115Y-95897497D01*
X109304872Y-95931803D01*
X109290506Y-96012669D01*
X109269063Y-96129343D01*
X109242587Y-96271075D01*
X109213123Y-96427110D01*
X109182717Y-96586698D01*
X109153412Y-96739085D01*
X109127255Y-96873521D01*
X109106290Y-96979252D01*
X109092561Y-97045526D01*
X109088680Y-97061782D01*
X109079100Y-97078573D01*
X109057464Y-97091249D01*
X109016469Y-97100378D01*
X108948811Y-97106531D01*
X108847188Y-97110280D01*
X108704297Y-97112192D01*
X108512835Y-97112840D01*
X108434355Y-97112874D01*
X107796094Y-97112874D01*
X107765840Y-96959598D01*
X107749436Y-96874322D01*
X107725491Y-96747070D01*
X107696893Y-96593315D01*
X107666533Y-96428534D01*
X107658194Y-96382989D01*
X107628630Y-96230932D01*
X107599558Y-96098468D01*
X107573671Y-95996714D01*
X107553663Y-95936788D01*
X107547699Y-95926805D01*
X107505466Y-95902293D01*
X107423630Y-95867148D01*
X107318317Y-95828173D01*
X107295632Y-95820442D01*
X107154982Y-95769360D01*
X106996286Y-95705954D01*
X106853775Y-95643904D01*
X106853114Y-95643598D01*
X106629560Y-95540267D01*
X105629768Y-96219961D01*
X105192700Y-95783621D01*
X105062619Y-95651649D01*
X104947952Y-95531279D01*
X104854819Y-95429273D01*
X104789342Y-95352391D01*
X104757643Y-95307393D01*
X104755632Y-95300938D01*
X104771471Y-95263040D01*
X104815504Y-95185708D01*
X104882510Y-95077389D01*
X104967266Y-94946532D01*
X105062184Y-94805052D01*
X105159002Y-94661461D01*
X105243249Y-94533435D01*
X105309742Y-94429105D01*
X105353298Y-94356600D01*
X105368736Y-94324158D01*
X105355672Y-94284576D01*
X105321250Y-94209519D01*
X105272620Y-94114468D01*
X105267215Y-94104392D01*
X105203020Y-93976391D01*
X105171537Y-93888618D01*
X105171202Y-93834028D01*
X105200452Y-93805575D01*
X105200862Y-93805410D01*
X105235502Y-93791188D01*
X105317731Y-93757269D01*
X105441186Y-93706284D01*
X105599502Y-93640862D01*
X105786314Y-93563634D01*
X105995258Y-93477229D01*
X106197554Y-93393551D01*
X106420800Y-93301588D01*
X106627608Y-93217150D01*
X106811638Y-93142769D01*
X106966549Y-93080974D01*
X107086004Y-93034297D01*
X107163661Y-93005268D01*
X107192644Y-92996322D01*
X107225890Y-93018756D01*
X107278877Y-93077439D01*
X107337296Y-93155689D01*
X107522048Y-93378534D01*
X107733818Y-93552718D01*
X107968144Y-93676154D01*
X108220566Y-93746754D01*
X108486623Y-93762431D01*
X108609425Y-93751036D01*
X108864207Y-93688950D01*
X109089199Y-93582023D01*
X109282183Y-93436889D01*
X109440939Y-93260178D01*
X109563250Y-93058522D01*
X109646895Y-92838554D01*
X109689656Y-92606906D01*
X109689313Y-92370209D01*
X109643648Y-92135095D01*
X109550441Y-91908196D01*
X109407473Y-91696144D01*
X109326617Y-91607636D01*
X109118993Y-91437889D01*
X108892105Y-91319699D01*
X108652567Y-91252278D01*
X108406993Y-91234840D01*
X108161997Y-91266598D01*
X107924192Y-91346765D01*
X107700193Y-91474555D01*
X107496613Y-91649180D01*
X107337296Y-91844312D01*
X107276398Y-91925591D01*
X107223985Y-91983009D01*
X107192594Y-92003678D01*
X107158361Y-91992856D01*
X107076581Y-91962077D01*
X106953593Y-91913874D01*
X106795737Y-91850778D01*
X106609351Y-91775322D01*
X106400774Y-91690038D01*
X106197504Y-91606219D01*
X105974067Y-91513745D01*
X105767016Y-91428089D01*
X105582714Y-91351882D01*
X105427525Y-91287753D01*
X105307812Y-91238332D01*
X105229939Y-91206248D01*
X105200862Y-91194359D01*
X105171323Y-91166274D01*
X105171409Y-91111949D01*
X105202674Y-91024395D01*
X105266671Y-90896619D01*
X105267215Y-90895608D01*
X105316879Y-90799402D01*
X105353055Y-90721631D01*
X105368592Y-90677777D01*
X105368736Y-90675842D01*
X105352976Y-90642829D01*
X105309150Y-90569946D01*
X105242443Y-90465322D01*
X105158036Y-90337090D01*
X105062184Y-90194948D01*
X104965133Y-90050233D01*
X104880730Y-89919804D01*
X104814199Y-89812110D01*
X104770762Y-89735598D01*
X104755632Y-89699062D01*
X104775518Y-89665418D01*
X104831097Y-89597776D01*
X104916246Y-89502893D01*
X105024847Y-89387530D01*
X105150779Y-89258445D01*
X105192851Y-89216229D01*
X105630069Y-88779739D01*
X106117660Y-89111977D01*
X106267395Y-89212946D01*
X106401780Y-89301562D01*
X106513031Y-89372854D01*
X106593361Y-89421850D01*
X106634986Y-89443578D01*
X106637947Y-89444215D01*
X106677182Y-89432760D01*
X106756105Y-89401949D01*
X106861491Y-89357116D01*
X106932046Y-89325647D01*
X107067124Y-89266808D01*
X107203591Y-89211396D01*
X107318897Y-89168436D01*
X107354023Y-89156766D01*
X107447826Y-89123611D01*
X107520306Y-89091201D01*
X107547699Y-89073399D01*
X107564464Y-89034114D01*
X107588230Y-88948374D01*
X107616303Y-88827303D01*
X107645991Y-88682027D01*
X107658194Y-88617012D01*
X107688532Y-88451913D01*
X107717907Y-88293552D01*
X107743431Y-88157404D01*
X107762215Y-88058943D01*
X107765840Y-88040402D01*
X107796094Y-87887127D01*
X108434355Y-87887127D01*
X108644230Y-87887471D01*
G36*
X108644230Y-87887471D02*
G01*
X108803020Y-87888884D01*
X108918027Y-87891936D01*
X108996554Y-87897197D01*
X109045904Y-87905237D01*
X109073381Y-87916627D01*
X109086287Y-87931937D01*
X109088680Y-87938218D01*
X109097167Y-87976104D01*
X109114100Y-88059805D01*
X109137434Y-88178567D01*
X109165125Y-88321639D01*
X109195127Y-88478268D01*
X109225396Y-88637703D01*
X109253885Y-88789191D01*
X109278551Y-88921981D01*
X109297349Y-89025319D01*
X109308233Y-89088455D01*
X109310115Y-89102503D01*
X109335296Y-89115230D01*
X109402378Y-89143400D01*
X109498667Y-89181748D01*
X109536379Y-89196391D01*
X109682079Y-89255452D01*
X109843049Y-89325000D01*
X109978709Y-89387288D01*
X110082439Y-89433121D01*
X110167674Y-89463613D01*
X110219874Y-89473792D01*
X110226870Y-89472169D01*
X110259898Y-89450657D01*
X110333357Y-89401535D01*
X110439423Y-89330077D01*
X110570274Y-89241555D01*
X110718088Y-89141241D01*
X110747266Y-89121406D01*
X110920137Y-89005012D01*
X111051774Y-88919452D01*
X111148239Y-88861316D01*
X111215592Y-88827192D01*
X111259894Y-88813669D01*
X111287206Y-88817336D01*
X111287380Y-88817430D01*
X111323254Y-88846293D01*
X111392609Y-88910133D01*
X111488255Y-89002031D01*
X111603001Y-89115067D01*
X111729659Y-89242321D01*
X111743795Y-89256672D01*
X111899097Y-89417043D01*
X112013130Y-89540805D01*
X112087998Y-89630445D01*
X112125804Y-89688448D01*
X112130683Y-89713996D01*
X112109397Y-89751282D01*
X112060227Y-89828657D01*
X111988425Y-89938133D01*
X111899245Y-90071720D01*
X111797937Y-90221430D01*
X111774103Y-90256382D01*
X111435235Y-90752610D01*
X111536944Y-90976707D01*
X111596217Y-91112989D01*
X111655830Y-91259276D01*
X111703360Y-91385035D01*
X111705315Y-91390575D01*
X111741323Y-91488943D01*
X111771771Y-91564771D01*
X111790095Y-91601718D01*
X111790148Y-91601780D01*
X111823271Y-91613504D01*
X111904733Y-91633432D01*
X112025375Y-91659587D01*
X112176041Y-91689990D01*
X112347572Y-91722663D01*
X112362033Y-91725336D01*
X112538765Y-91758110D01*
X112699190Y-91788198D01*
X112833112Y-91813661D01*
X112930337Y-91832559D01*
X112980668Y-91842953D01*
X112981437Y-91843135D01*
X113002847Y-91849461D01*
X113019012Y-91861761D01*
X113030669Y-91887406D01*
X113038555Y-91933765D01*
X113043407Y-92008208D01*
X113045961Y-92118105D01*
X113046955Y-92270825D01*
X113047126Y-92473738D01*
X113047126Y-92500000D01*
X113047002Y-92709014D01*
X113046137Y-92867006D01*
X113043795Y-92981347D01*
X113039238Y-93059407D01*
X113031730Y-93108554D01*
X113020534Y-93136159D01*
X113004912Y-93149592D01*
X112984127Y-93156221D01*
X112981437Y-93156865D01*
X112932887Y-93166935D01*
X112837095Y-93185575D01*
X112704257Y-93210845D01*
X112544569Y-93240807D01*
X112368226Y-93273522D01*
X112362033Y-93274664D01*
X112189218Y-93307433D01*
X112036531Y-93338093D01*
X111913129Y-93364664D01*
X111828169Y-93385167D01*
X111790810Y-93397626D01*
X111790148Y-93398220D01*
X111771905Y-93434919D01*
X111741503Y-93510586D01*
X111705507Y-93608878D01*
X111705315Y-93609425D01*
X111658778Y-93733233D01*
X111599496Y-93879196D01*
X111539891Y-94016781D01*
X111536944Y-94023293D01*
X111435235Y-94247390D01*
X111774103Y-94743619D01*
X111877408Y-94895846D01*
X111969763Y-95033741D01*
X112045916Y-95149315D01*
X112100615Y-95234579D01*
X112128607Y-95281544D01*
X112130683Y-95286004D01*
X112121440Y-95320134D01*
X112076844Y-95383881D01*
X111994791Y-95479731D01*
X111873179Y-95610169D01*
X111743795Y-95743328D01*
X111616298Y-95871694D01*
X111499954Y-95986581D01*
X111401948Y-96081073D01*
X111329464Y-96148253D01*
X111289687Y-96181206D01*
X111287639Y-96182432D01*
X111260344Y-96186074D01*
X111215766Y-96172350D01*
X111147888Y-96137869D01*
X111050689Y-96079239D01*
X110918149Y-95993070D01*
X110747524Y-95878200D01*
X110597345Y-95776254D01*
X110462650Y-95685123D01*
X110351260Y-95610073D01*
X110270995Y-95556369D01*
X110229675Y-95529280D01*
X110226870Y-95527574D01*
X110187279Y-95530882D01*
X110110331Y-95555953D01*
X110010568Y-95597798D01*
X109978709Y-95612712D01*
X109836774Y-95677786D01*
X109675727Y-95747212D01*
X109536379Y-95803609D01*
X109432956Y-95844247D01*
X109354358Y-95876526D01*
X109313280Y-95895178D01*
X109310115Y-95897497D01*
X109304872Y-95931803D01*
X109290506Y-96012669D01*
X109269063Y-96129343D01*
X109242587Y-96271075D01*
X109213123Y-96427110D01*
X109182717Y-96586698D01*
X109153412Y-96739085D01*
X109127255Y-96873521D01*
X109106290Y-96979252D01*
X109092561Y-97045526D01*
X109088680Y-97061782D01*
X109079100Y-97078573D01*
X109057464Y-97091249D01*
X109016469Y-97100378D01*
X108948811Y-97106531D01*
X108847188Y-97110280D01*
X108704297Y-97112192D01*
X108512835Y-97112840D01*
X108434355Y-97112874D01*
X107796094Y-97112874D01*
X107765840Y-96959598D01*
X107749436Y-96874322D01*
X107725491Y-96747070D01*
X107696893Y-96593315D01*
X107666533Y-96428534D01*
X107658194Y-96382989D01*
X107628630Y-96230932D01*
X107599558Y-96098468D01*
X107573671Y-95996714D01*
X107553663Y-95936788D01*
X107547699Y-95926805D01*
X107505466Y-95902293D01*
X107423630Y-95867148D01*
X107318317Y-95828173D01*
X107295632Y-95820442D01*
X107154982Y-95769360D01*
X106996286Y-95705954D01*
X106853775Y-95643904D01*
X106853114Y-95643598D01*
X106629560Y-95540267D01*
X105629768Y-96219961D01*
X105192700Y-95783621D01*
X105062619Y-95651649D01*
X104947952Y-95531279D01*
X104854819Y-95429273D01*
X104789342Y-95352391D01*
X104757643Y-95307393D01*
X104755632Y-95300938D01*
X104771471Y-95263040D01*
X104815504Y-95185708D01*
X104882510Y-95077389D01*
X104967266Y-94946532D01*
X105062184Y-94805052D01*
X105159002Y-94661461D01*
X105243249Y-94533435D01*
X105309742Y-94429105D01*
X105353298Y-94356600D01*
X105368736Y-94324158D01*
X105355672Y-94284576D01*
X105321250Y-94209519D01*
X105272620Y-94114468D01*
X105267215Y-94104392D01*
X105203020Y-93976391D01*
X105171537Y-93888618D01*
X105171202Y-93834028D01*
X105200452Y-93805575D01*
X105200862Y-93805410D01*
X105235502Y-93791188D01*
X105317731Y-93757269D01*
X105441186Y-93706284D01*
X105599502Y-93640862D01*
X105786314Y-93563634D01*
X105995258Y-93477229D01*
X106197554Y-93393551D01*
X106420800Y-93301588D01*
X106627608Y-93217150D01*
X106811638Y-93142769D01*
X106966549Y-93080974D01*
X107086004Y-93034297D01*
X107163661Y-93005268D01*
X107192644Y-92996322D01*
X107225890Y-93018756D01*
X107278877Y-93077439D01*
X107337296Y-93155689D01*
X107522048Y-93378534D01*
X107733818Y-93552718D01*
X107968144Y-93676154D01*
X108220566Y-93746754D01*
X108486623Y-93762431D01*
X108609425Y-93751036D01*
X108864207Y-93688950D01*
X109089199Y-93582023D01*
X109282183Y-93436889D01*
X109440939Y-93260178D01*
X109563250Y-93058522D01*
X109646895Y-92838554D01*
X109689656Y-92606906D01*
X109689313Y-92370209D01*
X109643648Y-92135095D01*
X109550441Y-91908196D01*
X109407473Y-91696144D01*
X109326617Y-91607636D01*
X109118993Y-91437889D01*
X108892105Y-91319699D01*
X108652567Y-91252278D01*
X108406993Y-91234840D01*
X108161997Y-91266598D01*
X107924192Y-91346765D01*
X107700193Y-91474555D01*
X107496613Y-91649180D01*
X107337296Y-91844312D01*
X107276398Y-91925591D01*
X107223985Y-91983009D01*
X107192594Y-92003678D01*
X107158361Y-91992856D01*
X107076581Y-91962077D01*
X106953593Y-91913874D01*
X106795737Y-91850778D01*
X106609351Y-91775322D01*
X106400774Y-91690038D01*
X106197504Y-91606219D01*
X105974067Y-91513745D01*
X105767016Y-91428089D01*
X105582714Y-91351882D01*
X105427525Y-91287753D01*
X105307812Y-91238332D01*
X105229939Y-91206248D01*
X105200862Y-91194359D01*
X105171323Y-91166274D01*
X105171409Y-91111949D01*
X105202674Y-91024395D01*
X105266671Y-90896619D01*
X105267215Y-90895608D01*
X105316879Y-90799402D01*
X105353055Y-90721631D01*
X105368592Y-90677777D01*
X105368736Y-90675842D01*
X105352976Y-90642829D01*
X105309150Y-90569946D01*
X105242443Y-90465322D01*
X105158036Y-90337090D01*
X105062184Y-90194948D01*
X104965133Y-90050233D01*
X104880730Y-89919804D01*
X104814199Y-89812110D01*
X104770762Y-89735598D01*
X104755632Y-89699062D01*
X104775518Y-89665418D01*
X104831097Y-89597776D01*
X104916246Y-89502893D01*
X105024847Y-89387530D01*
X105150779Y-89258445D01*
X105192851Y-89216229D01*
X105630069Y-88779739D01*
X106117660Y-89111977D01*
X106267395Y-89212946D01*
X106401780Y-89301562D01*
X106513031Y-89372854D01*
X106593361Y-89421850D01*
X106634986Y-89443578D01*
X106637947Y-89444215D01*
X106677182Y-89432760D01*
X106756105Y-89401949D01*
X106861491Y-89357116D01*
X106932046Y-89325647D01*
X107067124Y-89266808D01*
X107203591Y-89211396D01*
X107318897Y-89168436D01*
X107354023Y-89156766D01*
X107447826Y-89123611D01*
X107520306Y-89091201D01*
X107547699Y-89073399D01*
X107564464Y-89034114D01*
X107588230Y-88948374D01*
X107616303Y-88827303D01*
X107645991Y-88682027D01*
X107658194Y-88617012D01*
X107688532Y-88451913D01*
X107717907Y-88293552D01*
X107743431Y-88157404D01*
X107762215Y-88058943D01*
X107765840Y-88040402D01*
X107796094Y-87887127D01*
X108434355Y-87887127D01*
X108644230Y-87887471D01*
G37*
D15*
%TO.C,G\u002A\u002A\u002A*%
G36*
X145150738Y-90826370D02*
G01*
X145256038Y-90829067D01*
X145318876Y-90836379D01*
X145350213Y-90850608D01*
X145361012Y-90874057D01*
X145362231Y-90903781D01*
X145347493Y-90969250D01*
X145321990Y-90996335D01*
X145297893Y-91017832D01*
X145321990Y-91053745D01*
X145348781Y-91112795D01*
X145361950Y-91201952D01*
X145362231Y-91216396D01*
X145347787Y-91320257D01*
X145299481Y-91393361D01*
X145209850Y-91439865D01*
X145071432Y-91463925D01*
X144907192Y-91469835D01*
X144771278Y-91469170D01*
X144687266Y-91464826D01*
X144642672Y-91453284D01*
X144625013Y-91431024D01*
X144621806Y-91394524D01*
X144621800Y-91389354D01*
X144624585Y-91349277D01*
X144641743Y-91325359D01*
X144686478Y-91313432D01*
X144771993Y-91309326D01*
X144876708Y-91308872D01*
X145004261Y-91306499D01*
X145110634Y-91300219D01*
X145176160Y-91291288D01*
X145182538Y-91289331D01*
X145224556Y-91243275D01*
X145228601Y-91165380D01*
X145194601Y-91075851D01*
X145183346Y-91058494D01*
X145151080Y-91022217D01*
X145106539Y-91000709D01*
X145033738Y-90990230D01*
X144916696Y-90987042D01*
X144877515Y-90986946D01*
X144750336Y-90986073D01*
X144674358Y-90980689D01*
X144636399Y-90966645D01*
X144623276Y-90939791D01*
X144621800Y-90906464D01*
X144621800Y-90825982D01*
X144992015Y-90825982D01*
X145150738Y-90826370D01*
G37*
G36*
X145066081Y-91626597D02*
G01*
X145093155Y-91697303D01*
X145104401Y-91790825D01*
X145099400Y-91887263D01*
X145077734Y-91966717D01*
X145038986Y-92009287D01*
X145032256Y-92011155D01*
X145001834Y-92009049D01*
X144984740Y-91979547D01*
X144977328Y-91909649D01*
X144975919Y-91810219D01*
X144979159Y-91691732D01*
X144990647Y-91625621D01*
X145013035Y-91600117D01*
X145023594Y-91598606D01*
X145066081Y-91626597D01*
G37*
G36*
X145563435Y-93568167D02*
G01*
X145621639Y-93599438D01*
X145647286Y-93655683D01*
X145634435Y-93711443D01*
X145602472Y-93735424D01*
X145532752Y-93741537D01*
X145496700Y-93692998D01*
X145491001Y-93638700D01*
X145502041Y-93579454D01*
X145546214Y-93566286D01*
X145563435Y-93568167D01*
G37*
G36*
X145563435Y-90477672D02*
G01*
X145621639Y-90508943D01*
X145647286Y-90565189D01*
X145634435Y-90620949D01*
X145602472Y-90644930D01*
X145532752Y-90651043D01*
X145496700Y-90602503D01*
X145491001Y-90548206D01*
X145502041Y-90488960D01*
X145546214Y-90475792D01*
X145563435Y-90477672D01*
G37*
G36*
X145092000Y-96214938D02*
G01*
X145130443Y-96230244D01*
X145224767Y-96267799D01*
X145314808Y-96366587D01*
X145358518Y-96508349D01*
X145362231Y-96573248D01*
X145334581Y-96691957D01*
X145262331Y-96793411D01*
X145161529Y-96860573D01*
X145074973Y-96878200D01*
X144975919Y-96878200D01*
X144975919Y-96620659D01*
X144975020Y-96540178D01*
X145104689Y-96540178D01*
X145108924Y-96637154D01*
X145119848Y-96701466D01*
X145130443Y-96717237D01*
X145185523Y-96688421D01*
X145223288Y-96614915D01*
X145233460Y-96540178D01*
X145216694Y-96445509D01*
X145173927Y-96380602D01*
X145130443Y-96363118D01*
X145116338Y-96392233D01*
X145106983Y-96467337D01*
X145104689Y-96540178D01*
X144975020Y-96540178D01*
X144974483Y-96492123D01*
X144968108Y-96415069D01*
X144953687Y-96376617D01*
X144928118Y-96363890D01*
X144913833Y-96363118D01*
X144825040Y-96386785D01*
X144772832Y-96459423D01*
X144755928Y-96583491D01*
X144759705Y-96659060D01*
X144766294Y-96767524D01*
X144759700Y-96825375D01*
X144737933Y-96845405D01*
X144730624Y-96846008D01*
X144678669Y-96817527D01*
X144642976Y-96743324D01*
X144624662Y-96640255D01*
X144624846Y-96525174D01*
X144644646Y-96414940D01*
X144685180Y-96326407D01*
X144695295Y-96313457D01*
X144776221Y-96248327D01*
X144889414Y-96215010D01*
X144920110Y-96210957D01*
X145092000Y-96214938D01*
G37*
G36*
X152193594Y-91848230D02*
G01*
X152213855Y-91879417D01*
X152246777Y-91966670D01*
X152279250Y-92104764D01*
X152301207Y-92226363D01*
X152317510Y-92309502D01*
X152343380Y-92426650D01*
X152367139Y-92527233D01*
X152389945Y-92634416D01*
X152400890Y-92715087D01*
X152398018Y-92750482D01*
X152360431Y-92758312D01*
X152271171Y-92766207D01*
X152142944Y-92773323D01*
X151988455Y-92778815D01*
X151961822Y-92779494D01*
X151791020Y-92783147D01*
X151672993Y-92783330D01*
X151596159Y-92778420D01*
X151548934Y-92766793D01*
X151519735Y-92746824D01*
X151496979Y-92716889D01*
X151495112Y-92714047D01*
X151463714Y-92677374D01*
X151420729Y-92657846D01*
X151353836Y-92655167D01*
X151250716Y-92669042D01*
X151099046Y-92699173D01*
X151076426Y-92703990D01*
X150927607Y-92734196D01*
X150829473Y-92748081D01*
X150770209Y-92744797D01*
X150738003Y-92723496D01*
X150721039Y-92683328D01*
X150719762Y-92678383D01*
X150698582Y-92593995D01*
X150340229Y-92613104D01*
X150168329Y-92622361D01*
X149995500Y-92631820D01*
X149846597Y-92640114D01*
X149776804Y-92644094D01*
X149616402Y-92647732D01*
X149518612Y-92636399D01*
X149483410Y-92610043D01*
X149510774Y-92568612D01*
X149600683Y-92512053D01*
X149700190Y-92463719D01*
X149829583Y-92405111D01*
X149955614Y-92348181D01*
X150046261Y-92307385D01*
X150142058Y-92264041D01*
X150268625Y-92206276D01*
X150396402Y-92147588D01*
X150535855Y-92089517D01*
X150630868Y-92067138D01*
X150690556Y-92080409D01*
X150724039Y-92129288D01*
X150729118Y-92146043D01*
X150746117Y-92197913D01*
X150754248Y-92210266D01*
X150787815Y-92198024D01*
X150863803Y-92166034D01*
X150966115Y-92121399D01*
X151078653Y-92071222D01*
X151185319Y-92022607D01*
X151269582Y-91982868D01*
X151350924Y-91946083D01*
X151396199Y-91938458D01*
X151426228Y-91959006D01*
X151438593Y-91974835D01*
X151472508Y-92047824D01*
X151478834Y-92087649D01*
X151484926Y-92136620D01*
X151492061Y-92145881D01*
X151526986Y-92133211D01*
X151604740Y-92099863D01*
X151710013Y-92052832D01*
X151827498Y-91999112D01*
X151941887Y-91945696D01*
X152037873Y-91899579D01*
X152096942Y-91869514D01*
X152160107Y-91840404D01*
X152193594Y-91848230D01*
G37*
G36*
X145092000Y-93897067D02*
G01*
X145130443Y-93912373D01*
X145224767Y-93949928D01*
X145314808Y-94048716D01*
X145358518Y-94190478D01*
X145362231Y-94255377D01*
X145334581Y-94374086D01*
X145262331Y-94475540D01*
X145161529Y-94542702D01*
X145074973Y-94560330D01*
X144975919Y-94560330D01*
X144975919Y-94302788D01*
X144975020Y-94222307D01*
X145104689Y-94222307D01*
X145108924Y-94319283D01*
X145119848Y-94383595D01*
X145130443Y-94399366D01*
X145185523Y-94370550D01*
X145223288Y-94297044D01*
X145233460Y-94222307D01*
X145216694Y-94127639D01*
X145173927Y-94062731D01*
X145130443Y-94045247D01*
X145116338Y-94074363D01*
X145106983Y-94149466D01*
X145104689Y-94222307D01*
X144975020Y-94222307D01*
X144974483Y-94174253D01*
X144968108Y-94097198D01*
X144953687Y-94058746D01*
X144928118Y-94046020D01*
X144913833Y-94045247D01*
X144825040Y-94068914D01*
X144772832Y-94141552D01*
X144755928Y-94265620D01*
X144759705Y-94341189D01*
X144766294Y-94449653D01*
X144759700Y-94507504D01*
X144737933Y-94527535D01*
X144730624Y-94528137D01*
X144678669Y-94499657D01*
X144642976Y-94425454D01*
X144624662Y-94322384D01*
X144624846Y-94207304D01*
X144644646Y-94097069D01*
X144685180Y-94008536D01*
X144695295Y-93995586D01*
X144776221Y-93930456D01*
X144889414Y-93897139D01*
X144920110Y-93893087D01*
X145092000Y-93897067D01*
G37*
G36*
X145362231Y-90632826D02*
G01*
X144621800Y-90632826D01*
X144621800Y-90471863D01*
X145362231Y-90471863D01*
X145362231Y-90632826D01*
G37*
G36*
X144804932Y-92105892D02*
G01*
X144800936Y-92153929D01*
X144766641Y-92302936D01*
X144757998Y-92424991D01*
X144775736Y-92505829D01*
X144782507Y-92515788D01*
X144854630Y-92561853D01*
X144937405Y-92555341D01*
X145016036Y-92502818D01*
X145075729Y-92410849D01*
X145086434Y-92380917D01*
X145122134Y-92311908D01*
X145183432Y-92230088D01*
X145199736Y-92211905D01*
X145305293Y-92134285D01*
X145412643Y-92114297D01*
X145511285Y-92146375D01*
X145590721Y-92224950D01*
X145640449Y-92344455D01*
X145651964Y-92451711D01*
X145636229Y-92580450D01*
X145591760Y-92663476D01*
X145522665Y-92693154D01*
X145522061Y-92693156D01*
X145471086Y-92670182D01*
X145460211Y-92621334D01*
X145491001Y-92580482D01*
X145516561Y-92532611D01*
X145522112Y-92452637D01*
X145509182Y-92369134D01*
X145479297Y-92310675D01*
X145476450Y-92308126D01*
X145403817Y-92281960D01*
X145326755Y-92319034D01*
X145246557Y-92418456D01*
X145203301Y-92495972D01*
X145117695Y-92636108D01*
X145028807Y-92716714D01*
X144928865Y-92742490D01*
X144826436Y-92723825D01*
X144724465Y-92664082D01*
X144669529Y-92595495D01*
X144633465Y-92481557D01*
X144623807Y-92349005D01*
X144640403Y-92225638D01*
X144671914Y-92153044D01*
X144727948Y-92096370D01*
X144777490Y-92080688D01*
X144804932Y-92105892D01*
G37*
G36*
X145619412Y-88289601D02*
G01*
X145635411Y-88309665D01*
X145645137Y-88359099D01*
X145650108Y-88448072D01*
X145651839Y-88586750D01*
X145651964Y-88666714D01*
X145651340Y-88830368D01*
X145648291Y-88940278D01*
X145641055Y-89007082D01*
X145627871Y-89041418D01*
X145606976Y-89053924D01*
X145587579Y-89055387D01*
X145547343Y-89045908D01*
X145528317Y-89006549D01*
X145523218Y-88920927D01*
X145523194Y-88910520D01*
X145523194Y-88765653D01*
X144621800Y-88765653D01*
X144621800Y-88604690D01*
X145519666Y-88604690D01*
X145529478Y-88452064D01*
X145542592Y-88351474D01*
X145568895Y-88301077D01*
X145595627Y-88288740D01*
X145619412Y-88289601D01*
G37*
G36*
X145362231Y-93723321D02*
G01*
X144621800Y-93723321D01*
X144621800Y-93562357D01*
X145362231Y-93562357D01*
X145362231Y-93723321D01*
G37*
G36*
X145362231Y-89232446D02*
G01*
X145350826Y-89292940D01*
X145328905Y-89312928D01*
X145312023Y-89332634D01*
X145328905Y-89375197D01*
X145360804Y-89467524D01*
X145358926Y-89547033D01*
X145325741Y-89595621D01*
X145297845Y-89602662D01*
X145250367Y-89587127D01*
X145233987Y-89529717D01*
X145233460Y-89507909D01*
X145215248Y-89419830D01*
X145156182Y-89360305D01*
X145049615Y-89325900D01*
X144888900Y-89313180D01*
X144856081Y-89312928D01*
X144735512Y-89311849D01*
X144665560Y-89305462D01*
X144632461Y-89289037D01*
X144622451Y-89257846D01*
X144621800Y-89232446D01*
X144621800Y-89151965D01*
X145362231Y-89151965D01*
X145362231Y-89232446D01*
G37*
G36*
X145014267Y-92860798D02*
G01*
X145176892Y-92891249D01*
X145286958Y-92956936D01*
X145347473Y-93060567D01*
X145362231Y-93174274D01*
X145345629Y-93284156D01*
X145302632Y-93371115D01*
X145243452Y-93420801D01*
X145185803Y-93422188D01*
X145147019Y-93400905D01*
X145156443Y-93370209D01*
X145180789Y-93341851D01*
X145225500Y-93252511D01*
X145226558Y-93150954D01*
X145183740Y-93066548D01*
X145182871Y-93065671D01*
X145111546Y-93029974D01*
X145001751Y-93015171D01*
X144992015Y-93015082D01*
X144880187Y-93027932D01*
X144804884Y-93062192D01*
X144801159Y-93065671D01*
X144757754Y-93149649D01*
X144758228Y-93251171D01*
X144802358Y-93340868D01*
X144803241Y-93341851D01*
X144837871Y-93387126D01*
X144825068Y-93410558D01*
X144798227Y-93422188D01*
X144732892Y-93417633D01*
X144675236Y-93362679D01*
X144635019Y-93271275D01*
X144621800Y-93170003D01*
X144635856Y-93064940D01*
X144687831Y-92978534D01*
X144719677Y-92944446D01*
X144779043Y-92890280D01*
X144833297Y-92862770D01*
X144905785Y-92855287D01*
X145014267Y-92860798D01*
G37*
G36*
X145014267Y-95532787D02*
G01*
X145176892Y-95563239D01*
X145286958Y-95628926D01*
X145347473Y-95732557D01*
X145362231Y-95846264D01*
X145345629Y-95956146D01*
X145302632Y-96043105D01*
X145243452Y-96092791D01*
X145185803Y-96094178D01*
X145147019Y-96072895D01*
X145156443Y-96042199D01*
X145180789Y-96013841D01*
X145225500Y-95924501D01*
X145226558Y-95822943D01*
X145183740Y-95738538D01*
X145182871Y-95737661D01*
X145109922Y-95701357D01*
X145005122Y-95687495D01*
X144896968Y-95696074D01*
X144813957Y-95727095D01*
X144801159Y-95737661D01*
X144757754Y-95821639D01*
X144758228Y-95923161D01*
X144802358Y-96012857D01*
X144803241Y-96013841D01*
X144837871Y-96059116D01*
X144825068Y-96082547D01*
X144798227Y-96094178D01*
X144732892Y-96089623D01*
X144675236Y-96034669D01*
X144635019Y-95943265D01*
X144621800Y-95841993D01*
X144635856Y-95736930D01*
X144687831Y-95650524D01*
X144719677Y-95616435D01*
X144779043Y-95562270D01*
X144833297Y-95534760D01*
X144905785Y-95527277D01*
X145014267Y-95532787D01*
G37*
G36*
X145150738Y-94721680D02*
G01*
X145256038Y-94724378D01*
X145318876Y-94731689D01*
X145350213Y-94745918D01*
X145361012Y-94769368D01*
X145362231Y-94799092D01*
X145347493Y-94864561D01*
X145321990Y-94891646D01*
X145297893Y-94913142D01*
X145321990Y-94949056D01*
X145348781Y-95008105D01*
X145361950Y-95097263D01*
X145362231Y-95111707D01*
X145347787Y-95215567D01*
X145299481Y-95288671D01*
X145209850Y-95335175D01*
X145071432Y-95359236D01*
X144907192Y-95365146D01*
X144771278Y-95364480D01*
X144687266Y-95360137D01*
X144642672Y-95348595D01*
X144625013Y-95326334D01*
X144621806Y-95289834D01*
X144621800Y-95284664D01*
X144624585Y-95244587D01*
X144641743Y-95220670D01*
X144686478Y-95208742D01*
X144771993Y-95204637D01*
X144876708Y-95204183D01*
X145004261Y-95201810D01*
X145110634Y-95195530D01*
X145176160Y-95186599D01*
X145182538Y-95184642D01*
X145224556Y-95138586D01*
X145228601Y-95060690D01*
X145194601Y-94971162D01*
X145183346Y-94953804D01*
X145151080Y-94917528D01*
X145106539Y-94896019D01*
X145033738Y-94885541D01*
X144916696Y-94882352D01*
X144877515Y-94882256D01*
X144750336Y-94881383D01*
X144674358Y-94875999D01*
X144636399Y-94861955D01*
X144623276Y-94835101D01*
X144621800Y-94801774D01*
X144621800Y-94721293D01*
X144992015Y-94721293D01*
X145150738Y-94721680D01*
G37*
G36*
X144858566Y-89673421D02*
G01*
X144933113Y-89697590D01*
X144956310Y-89716422D01*
X144999392Y-89785085D01*
X145039283Y-89888947D01*
X145066277Y-89999152D01*
X145072317Y-90061407D01*
X145094168Y-90109270D01*
X145151337Y-90110829D01*
X145198049Y-90088221D01*
X145224036Y-90051550D01*
X145231311Y-89977753D01*
X145224520Y-89879462D01*
X145217027Y-89773069D01*
X145223816Y-89717254D01*
X145246722Y-89699425D01*
X145250750Y-89699240D01*
X145306791Y-89729277D01*
X145344743Y-89814367D01*
X145361636Y-89946977D01*
X145362231Y-89981868D01*
X145354232Y-90094680D01*
X145323870Y-90173475D01*
X145261596Y-90224703D01*
X145157862Y-90254811D01*
X145003119Y-90270250D01*
X144930339Y-90273561D01*
X144633851Y-90284512D01*
X144628979Y-90045680D01*
X144630761Y-89958413D01*
X144751292Y-89958413D01*
X144763966Y-90037093D01*
X144789201Y-90079113D01*
X144852967Y-90112337D01*
X144889991Y-90117744D01*
X144929727Y-90108887D01*
X144941130Y-90070601D01*
X144933011Y-89999800D01*
X144903331Y-89888387D01*
X144858566Y-89836629D01*
X144801023Y-89838822D01*
X144764113Y-89882789D01*
X144751292Y-89958413D01*
X144630761Y-89958413D01*
X144632179Y-89888945D01*
X144650383Y-89784663D01*
X144673068Y-89736948D01*
X144746343Y-89682003D01*
X144842463Y-89668200D01*
X144858566Y-89673421D01*
G37*
G36*
X153509683Y-87962288D02*
G01*
X153518362Y-87968125D01*
X153526181Y-87977995D01*
X153533179Y-87995082D01*
X153539392Y-88022570D01*
X153544860Y-88063643D01*
X153549621Y-88121486D01*
X153553712Y-88199283D01*
X153557172Y-88300218D01*
X153560039Y-88427475D01*
X153562352Y-88584238D01*
X153564148Y-88773692D01*
X153565466Y-88999020D01*
X153566343Y-89263408D01*
X153566818Y-89570038D01*
X153566930Y-89922095D01*
X153566716Y-90322764D01*
X153566214Y-90775229D01*
X153565463Y-91282674D01*
X153564501Y-91848282D01*
X153563421Y-92444856D01*
X153555260Y-96894297D01*
X153474778Y-96902412D01*
X153444092Y-96892766D01*
X153377472Y-96860546D01*
X153273357Y-96804831D01*
X153130187Y-96724701D01*
X152946400Y-96619236D01*
X152720436Y-96487517D01*
X152450735Y-96328623D01*
X152135735Y-96141634D01*
X151773875Y-95925631D01*
X151363596Y-95679692D01*
X150903335Y-95402899D01*
X150391532Y-95094331D01*
X149826627Y-94753068D01*
X149756527Y-94710681D01*
X149230049Y-94392208D01*
X148756049Y-94105234D01*
X148331830Y-93848069D01*
X147954698Y-93619028D01*
X147621956Y-93416421D01*
X147330909Y-93238561D01*
X147078859Y-93083761D01*
X146863112Y-92950332D01*
X146680971Y-92836586D01*
X146529741Y-92740836D01*
X146406726Y-92661394D01*
X146309229Y-92596573D01*
X146234556Y-92544683D01*
X146180009Y-92504038D01*
X146142893Y-92472950D01*
X146120512Y-92449730D01*
X146110170Y-92432692D01*
X146108766Y-92426952D01*
X146110088Y-92419120D01*
X146467942Y-92419120D01*
X146920451Y-92692957D01*
X147010331Y-92747331D01*
X147150990Y-92832405D01*
X147338113Y-92945566D01*
X147567380Y-93084205D01*
X147834473Y-93245710D01*
X148135074Y-93427470D01*
X148464865Y-93626875D01*
X148819528Y-93841313D01*
X149194744Y-94068173D01*
X149586196Y-94304844D01*
X149989564Y-94548716D01*
X150335340Y-94757763D01*
X153297718Y-96548733D01*
X153306003Y-94492174D01*
X153307468Y-94048356D01*
X153308526Y-93555870D01*
X153309176Y-93030432D01*
X153309419Y-92487759D01*
X153309254Y-91943567D01*
X153308682Y-91413572D01*
X153307702Y-90913490D01*
X153306315Y-90459038D01*
X153306003Y-90378495D01*
X153297718Y-88321376D01*
X146467942Y-92419120D01*
X146110088Y-92419120D01*
X146122806Y-92343763D01*
X146173151Y-92295146D01*
X146209479Y-92272953D01*
X146297702Y-92219652D01*
X146434492Y-92137242D01*
X146616524Y-92027720D01*
X146840469Y-91893086D01*
X147103000Y-91735338D01*
X147400792Y-91556473D01*
X147730516Y-91358491D01*
X148088845Y-91143389D01*
X148472453Y-90913166D01*
X148878012Y-90669819D01*
X149302196Y-90415348D01*
X149741676Y-90151751D01*
X149847656Y-90088192D01*
X150377004Y-89770870D01*
X150853894Y-89485307D01*
X151280976Y-89229965D01*
X151660897Y-89003308D01*
X151996307Y-88803796D01*
X152289854Y-88629893D01*
X152544188Y-88480060D01*
X152761957Y-88352761D01*
X152945810Y-88246456D01*
X153098397Y-88159609D01*
X153222366Y-88090681D01*
X153297718Y-88050279D01*
X153320365Y-88038136D01*
X153395045Y-88000434D01*
X153449053Y-87976039D01*
X153485039Y-87963412D01*
X153505651Y-87961016D01*
X153509683Y-87962288D01*
G37*
G36*
X152911407Y-95670976D02*
G01*
X152830925Y-95679239D01*
X152796052Y-95669077D01*
X152721875Y-95634748D01*
X152606780Y-95575339D01*
X152449155Y-95489941D01*
X152247390Y-95377641D01*
X151999872Y-95237526D01*
X151704989Y-95068687D01*
X151361128Y-94870211D01*
X150966679Y-94641187D01*
X150520030Y-94380703D01*
X150094550Y-94131778D01*
X149645596Y-93868647D01*
X149249143Y-93635907D01*
X148902018Y-93431610D01*
X148601047Y-93253807D01*
X148343058Y-93100550D01*
X148124876Y-92969891D01*
X147943330Y-92859881D01*
X147795245Y-92768572D01*
X147677448Y-92694014D01*
X147586767Y-92634261D01*
X147520027Y-92587362D01*
X147474057Y-92551371D01*
X147445682Y-92524337D01*
X147431729Y-92504314D01*
X147428981Y-92495031D01*
X147429042Y-92494449D01*
X147824782Y-92494449D01*
X147854803Y-92513203D01*
X147936363Y-92562076D01*
X148065423Y-92638687D01*
X148237939Y-92740658D01*
X148449870Y-92865609D01*
X148697174Y-93011161D01*
X148975810Y-93174935D01*
X149281735Y-93354552D01*
X149610908Y-93547632D01*
X149959287Y-93751797D01*
X150248823Y-93921346D01*
X152653866Y-95329247D01*
X152662249Y-93914623D01*
X152663984Y-93542110D01*
X152665121Y-93124153D01*
X152665659Y-92679691D01*
X152665598Y-92227663D01*
X152664938Y-91787008D01*
X152663678Y-91376666D01*
X152662249Y-91084471D01*
X152653866Y-89668943D01*
X150229825Y-91072197D01*
X149867944Y-91282024D01*
X149522838Y-91482778D01*
X149198474Y-91672115D01*
X148898815Y-91847692D01*
X148627826Y-92007164D01*
X148389470Y-92148186D01*
X148187713Y-92268414D01*
X148026519Y-92365504D01*
X147909851Y-92437111D01*
X147841674Y-92480891D01*
X147824782Y-92494449D01*
X147429042Y-92494449D01*
X147436667Y-92421172D01*
X147461173Y-92381717D01*
X147494542Y-92361233D01*
X147579706Y-92310809D01*
X147712726Y-92232738D01*
X147889661Y-92129312D01*
X148106572Y-92002827D01*
X148359518Y-91855574D01*
X148644559Y-91689847D01*
X148957756Y-91507940D01*
X149295169Y-91312145D01*
X149652857Y-91104757D01*
X150026880Y-90888068D01*
X150110646Y-90839561D01*
X150600038Y-90556618D01*
X151035755Y-90305629D01*
X151419476Y-90085657D01*
X151752877Y-89895766D01*
X152037634Y-89735019D01*
X152275425Y-89602480D01*
X152467927Y-89497213D01*
X152616816Y-89418281D01*
X152653866Y-89399736D01*
X152723769Y-89364747D01*
X152790463Y-89335675D01*
X152814829Y-89329360D01*
X152911407Y-89329024D01*
X152911407Y-95670976D01*
G37*
G36*
X127256264Y-96465030D02*
G01*
X128006405Y-97215170D01*
X127256264Y-97965311D01*
X126506124Y-98715452D01*
X125755983Y-97965311D01*
X125232415Y-97441743D01*
X125005842Y-97215170D01*
X125458988Y-97215170D01*
X125982556Y-97738738D01*
X126506124Y-98262305D01*
X127029691Y-97738738D01*
X127553258Y-97215170D01*
X127029691Y-96691603D01*
X126506123Y-96168035D01*
X125982556Y-96691602D01*
X125458988Y-97215170D01*
X125005842Y-97215170D01*
X125755983Y-96465030D01*
X126506124Y-95714889D01*
X127256264Y-96465030D01*
G37*
G36*
X125113005Y-88320645D02*
G01*
X125434494Y-88642134D01*
X125327331Y-88749296D01*
X125220168Y-88856460D01*
X125327331Y-88963623D01*
X125434493Y-89070785D01*
X125541657Y-88963622D01*
X125648820Y-88856459D01*
X125970308Y-89177948D01*
X126291797Y-89499437D01*
X126184635Y-89606600D01*
X126077471Y-89713763D01*
X125970308Y-89606600D01*
X125863146Y-89499438D01*
X125755983Y-89606600D01*
X125648820Y-89713763D01*
X125863146Y-89928089D01*
X126077472Y-90142415D01*
X126184635Y-90035252D01*
X126291797Y-89928089D01*
X126398960Y-90035252D01*
X126506123Y-90142415D01*
X126720449Y-89928089D01*
X126934775Y-89713762D01*
X126827612Y-89606600D01*
X126720450Y-89499437D01*
X126827612Y-89392274D01*
X126934775Y-89285111D01*
X127041938Y-89392274D01*
X127149101Y-89499437D01*
X127363427Y-89285111D01*
X127577752Y-89070785D01*
X127470590Y-88963623D01*
X127363427Y-88856460D01*
X127470590Y-88749296D01*
X127577753Y-88642134D01*
X127684916Y-88749296D01*
X127792079Y-88856459D01*
X127684916Y-88963622D01*
X127577752Y-89070785D01*
X127684916Y-89177949D01*
X127792079Y-89285111D01*
X127577753Y-89499437D01*
X127363427Y-89713763D01*
X127470590Y-89820926D01*
X127577753Y-89928089D01*
X127363428Y-90142415D01*
X127149101Y-90356741D01*
X127041938Y-90249578D01*
X126934775Y-90142415D01*
X126720449Y-90356741D01*
X126506124Y-90571066D01*
X126827612Y-90892555D01*
X127149101Y-91214044D01*
X126934775Y-91428370D01*
X126720449Y-91642697D01*
X126827612Y-91749859D01*
X126934775Y-91857023D01*
X127149101Y-91642697D01*
X127363428Y-91428370D01*
X127256264Y-91321207D01*
X127149101Y-91214044D01*
X127256264Y-91106882D01*
X127363427Y-90999719D01*
X127577753Y-91214045D01*
X127792079Y-91428370D01*
X127899242Y-91321207D01*
X128006405Y-91214044D01*
X127899242Y-91106882D01*
X127792079Y-90999719D01*
X127899242Y-90892556D01*
X128006405Y-90785393D01*
X127899242Y-90678229D01*
X127792079Y-90571066D01*
X127899242Y-90463904D01*
X128006405Y-90356741D01*
X128113567Y-90463904D01*
X128220731Y-90571067D01*
X128113568Y-90678230D01*
X128006405Y-90785393D01*
X128113568Y-90892555D01*
X128220731Y-90999718D01*
X128113567Y-91106882D01*
X128006405Y-91214044D01*
X128113567Y-91321207D01*
X128220731Y-91428370D01*
X128327894Y-91321208D01*
X128435057Y-91214044D01*
X128756546Y-91535533D01*
X129078035Y-91857022D01*
X129292360Y-91642697D01*
X129506687Y-91428370D01*
X129613849Y-91535533D01*
X129721012Y-91642696D01*
X129935338Y-91428370D01*
X130149664Y-91214044D01*
X129935338Y-90999719D01*
X129721012Y-90785393D01*
X129613849Y-90892555D01*
X129506686Y-90999719D01*
X129399523Y-90892556D01*
X129292360Y-90785393D01*
X129185197Y-90892555D01*
X129078034Y-90999718D01*
X129185198Y-91106882D01*
X129292360Y-91214044D01*
X129185197Y-91321208D01*
X129078034Y-91428370D01*
X128863708Y-91214044D01*
X128649383Y-90999719D01*
X128756545Y-90892556D01*
X128863709Y-90785393D01*
X128756545Y-90678229D01*
X128649383Y-90571066D01*
X128756545Y-90463904D01*
X128863708Y-90356741D01*
X128970871Y-90463904D01*
X129078034Y-90571067D01*
X129185198Y-90463904D01*
X129292360Y-90356741D01*
X129399523Y-90463904D01*
X129506686Y-90571066D01*
X129613849Y-90463904D01*
X129721012Y-90356740D01*
X129506687Y-90142415D01*
X129292360Y-89928089D01*
X129185197Y-90035252D01*
X129078034Y-90142415D01*
X128863709Y-89928089D01*
X128649383Y-89713763D01*
X128542220Y-89820926D01*
X128435056Y-89928089D01*
X128327894Y-89820927D01*
X128220730Y-89713763D01*
X128435056Y-89499437D01*
X128649383Y-89285111D01*
X128756546Y-89392274D01*
X128863709Y-89499437D01*
X129078034Y-89285111D01*
X129292360Y-89070785D01*
X129506687Y-89285111D01*
X129721012Y-89499437D01*
X129613849Y-89606600D01*
X129506686Y-89713763D01*
X129828175Y-90035252D01*
X130149664Y-90356741D01*
X130042501Y-90463904D01*
X129935338Y-90571066D01*
X130256827Y-90892555D01*
X130578316Y-91214044D01*
X130792642Y-90999719D01*
X131006968Y-90785393D01*
X131114131Y-90892555D01*
X131221294Y-90999719D01*
X131114131Y-91106882D01*
X131006968Y-91214045D01*
X131114131Y-91321208D01*
X131221293Y-91428370D01*
X131114131Y-91535533D01*
X131006968Y-91642696D01*
X130899805Y-91535533D01*
X130792642Y-91428370D01*
X130685479Y-91535534D01*
X130578316Y-91642697D01*
X130792642Y-91857022D01*
X131006968Y-92071348D01*
X130899805Y-92178511D01*
X130792642Y-92285675D01*
X130899804Y-92392837D01*
X131006967Y-92500000D01*
X131114131Y-92392837D01*
X131221293Y-92285674D01*
X131114131Y-92178511D01*
X131006968Y-92071348D01*
X131114131Y-91964186D01*
X131221294Y-91857022D01*
X131328457Y-91964185D01*
X131435619Y-92071348D01*
X131542782Y-91964185D01*
X131649945Y-91857022D01*
X131542782Y-91749859D01*
X131435619Y-91642697D01*
X131542783Y-91535533D01*
X131649946Y-91428370D01*
X131757108Y-91535533D01*
X131864271Y-91642696D01*
X131757108Y-91749859D01*
X131649945Y-91857022D01*
X131757108Y-91964186D01*
X131864271Y-92071348D01*
X131757108Y-92178511D01*
X131649946Y-92285674D01*
X131757108Y-92392837D01*
X131864272Y-92500000D01*
X131971435Y-92392837D01*
X132078597Y-92285675D01*
X131971434Y-92178511D01*
X131864271Y-92071348D01*
X131971435Y-91964185D01*
X132078597Y-91857022D01*
X132185760Y-91964185D01*
X132292924Y-92071348D01*
X132185761Y-92178511D01*
X132078597Y-92285675D01*
X132292923Y-92500000D01*
X132507249Y-92714326D01*
X132400086Y-92821489D01*
X132292924Y-92928652D01*
X132078597Y-92714325D01*
X131864272Y-92500000D01*
X131757108Y-92607163D01*
X131649946Y-92714326D01*
X131864271Y-92928652D01*
X132078597Y-93142978D01*
X131971435Y-93250141D01*
X131864271Y-93357304D01*
X131757108Y-93250141D01*
X131649945Y-93142978D01*
X131542782Y-93250141D01*
X131435619Y-93357303D01*
X131328457Y-93250141D01*
X131221294Y-93142978D01*
X131435619Y-92928652D01*
X131649946Y-92714326D01*
X131542782Y-92607163D01*
X131435619Y-92500000D01*
X131542782Y-92392837D01*
X131649946Y-92285674D01*
X131542783Y-92178511D01*
X131435619Y-92071348D01*
X131328456Y-92178511D01*
X131221293Y-92285674D01*
X131328457Y-92392837D01*
X131435619Y-92500000D01*
X131221293Y-92714326D01*
X131006968Y-92928652D01*
X131114131Y-93035814D01*
X131221294Y-93142978D01*
X131114131Y-93250141D01*
X131006968Y-93357304D01*
X130899804Y-93250141D01*
X130792642Y-93142978D01*
X130899804Y-93035815D01*
X131006968Y-92928652D01*
X130899805Y-92821489D01*
X130792642Y-92714325D01*
X130578315Y-92928652D01*
X130363990Y-93142977D01*
X130471153Y-93250141D01*
X130578316Y-93357303D01*
X130471153Y-93464467D01*
X130363990Y-93571630D01*
X130471153Y-93678792D01*
X130578316Y-93785956D01*
X130685479Y-93678793D01*
X130792642Y-93571630D01*
X130899805Y-93678792D01*
X131006968Y-93785955D01*
X131114131Y-93678792D01*
X131221293Y-93571630D01*
X131328457Y-93678793D01*
X131435619Y-93785956D01*
X130792642Y-94428934D01*
X130149664Y-95071911D01*
X130042501Y-94964749D01*
X129935338Y-94857585D01*
X130256827Y-94536096D01*
X130578315Y-94214607D01*
X130471153Y-94107445D01*
X130363990Y-94000282D01*
X130256827Y-94107445D01*
X130149664Y-94214607D01*
X130042501Y-94107444D01*
X129935338Y-94000281D01*
X129828175Y-94107445D01*
X129721012Y-94214607D01*
X129828175Y-94321770D01*
X129935338Y-94428934D01*
X129828176Y-94536096D01*
X129721012Y-94643260D01*
X129828175Y-94750422D01*
X129935338Y-94857585D01*
X129721012Y-95071911D01*
X129506686Y-95286237D01*
X129613849Y-95393400D01*
X129721012Y-95500563D01*
X128970872Y-96250704D01*
X128220731Y-97000844D01*
X128113568Y-96893682D01*
X128006405Y-96786518D01*
X128113567Y-96679355D01*
X128220730Y-96572193D01*
X128113567Y-96465030D01*
X128006405Y-96357867D01*
X127899242Y-96465030D01*
X127792079Y-96572193D01*
X127577753Y-96357866D01*
X127363427Y-96143540D01*
X127470590Y-96036377D01*
X127577752Y-95929215D01*
X127792079Y-96143541D01*
X128006405Y-96357867D01*
X128220731Y-96143541D01*
X128435057Y-95929215D01*
X128220731Y-95714889D01*
X128006405Y-95500562D01*
X128113567Y-95393400D01*
X128220730Y-95286237D01*
X128542219Y-95607726D01*
X128863708Y-95929215D01*
X128970872Y-95822051D01*
X129078034Y-95714889D01*
X128970872Y-95607726D01*
X128863709Y-95500563D01*
X129185198Y-95179074D01*
X129506687Y-94857585D01*
X129399523Y-94750422D01*
X129292360Y-94643259D01*
X129399523Y-94536096D01*
X129506686Y-94428934D01*
X129399523Y-94321771D01*
X129292360Y-94214607D01*
X129613849Y-93893118D01*
X129935338Y-93571630D01*
X129721012Y-93357304D01*
X129506686Y-93142978D01*
X129399523Y-93250141D01*
X129292360Y-93357303D01*
X129185198Y-93250141D01*
X129078035Y-93142978D01*
X129185198Y-93035815D01*
X129292360Y-92928652D01*
X129185197Y-92821489D01*
X129078034Y-92714326D01*
X128863709Y-92928652D01*
X128649383Y-93142978D01*
X128542220Y-93035815D01*
X128435056Y-92928652D01*
X128327894Y-93035814D01*
X128220730Y-93142978D01*
X128113567Y-93035815D01*
X128006405Y-92928652D01*
X127792079Y-93142978D01*
X127577753Y-93357304D01*
X127792079Y-93571630D01*
X128006405Y-93785956D01*
X127792079Y-94000281D01*
X127577753Y-94214607D01*
X127792079Y-94428934D01*
X128006405Y-94643259D01*
X127899242Y-94750422D01*
X127792079Y-94857585D01*
X127684916Y-94750422D01*
X127577753Y-94643260D01*
X127256264Y-94964749D01*
X126934775Y-95286238D01*
X127041938Y-95393400D01*
X127149101Y-95500563D01*
X127470590Y-95179074D01*
X127792079Y-94857585D01*
X127899241Y-94964748D01*
X128006405Y-95071911D01*
X127899242Y-95179074D01*
X127792079Y-95286237D01*
X127899242Y-95393400D01*
X128006405Y-95500562D01*
X127899241Y-95607726D01*
X127792079Y-95714889D01*
X127684916Y-95607726D01*
X127577753Y-95500563D01*
X127363427Y-95714889D01*
X127149101Y-95929215D01*
X126720450Y-95500563D01*
X126291797Y-95071911D01*
X126184634Y-95179074D01*
X126077471Y-95286237D01*
X126184635Y-95393400D01*
X126291797Y-95500563D01*
X126184635Y-95607726D01*
X126077472Y-95714889D01*
X125970309Y-95607726D01*
X125863146Y-95500562D01*
X125970308Y-95393400D01*
X126077471Y-95286237D01*
X125970308Y-95179074D01*
X125863146Y-95071911D01*
X126184635Y-94750422D01*
X126506124Y-94428934D01*
X126720449Y-94643259D01*
X126934775Y-94857585D01*
X127041938Y-94750422D01*
X127149101Y-94643259D01*
X126934775Y-94428933D01*
X126720450Y-94214607D01*
X126613286Y-94321771D01*
X126506124Y-94428934D01*
X126184635Y-94107445D01*
X125863146Y-93785956D01*
X125970308Y-93678793D01*
X126077472Y-93571630D01*
X126291797Y-93785955D01*
X126506124Y-94000281D01*
X126613286Y-93893118D01*
X126720449Y-93785956D01*
X126934775Y-94000282D01*
X127149101Y-94214607D01*
X127256264Y-94107444D01*
X127363427Y-94000281D01*
X127149101Y-93785956D01*
X126934775Y-93571630D01*
X127041938Y-93464467D01*
X127149101Y-93357303D01*
X126934775Y-93142977D01*
X126827612Y-93035814D01*
X126720450Y-92928652D01*
X127149101Y-92928652D01*
X127256264Y-93035815D01*
X127363427Y-93142978D01*
X127470590Y-93035815D01*
X127577753Y-92928652D01*
X127470590Y-92821489D01*
X127363427Y-92714325D01*
X127256263Y-92821489D01*
X127149101Y-92928652D01*
X126720450Y-92928652D01*
X126506124Y-92714325D01*
X126613286Y-92607163D01*
X126720449Y-92500000D01*
X126827612Y-92607163D01*
X126934775Y-92714326D01*
X127041938Y-92607163D01*
X127149101Y-92500000D01*
X127041938Y-92392837D01*
X126934775Y-92285674D01*
X126827612Y-92392837D01*
X126720449Y-92500000D01*
X126613286Y-92392837D01*
X126506124Y-92285675D01*
X126613286Y-92178512D01*
X126720450Y-92071348D01*
X127149101Y-92071348D01*
X127256263Y-92178511D01*
X127363427Y-92285675D01*
X127363428Y-92285674D01*
X127792079Y-92285674D01*
X128006405Y-92500000D01*
X128220731Y-92714326D01*
X128327894Y-92607163D01*
X128435057Y-92500000D01*
X128542220Y-92607163D01*
X128649383Y-92714325D01*
X128863708Y-92500000D01*
X129292360Y-92500000D01*
X129613849Y-92821489D01*
X129935338Y-93142978D01*
X130256827Y-92821489D01*
X130578316Y-92500000D01*
X130256827Y-92178511D01*
X129935338Y-91857022D01*
X129613849Y-92178511D01*
X129292360Y-92500000D01*
X128863708Y-92500000D01*
X129078034Y-92285674D01*
X128970872Y-92178511D01*
X128863709Y-92071348D01*
X128756546Y-92178511D01*
X128649383Y-92285675D01*
X128435056Y-92071348D01*
X128220730Y-91857022D01*
X128006405Y-92071348D01*
X127792079Y-92285674D01*
X127363428Y-92285674D01*
X127577753Y-92071348D01*
X127792079Y-91857022D01*
X127684916Y-91749859D01*
X127577753Y-91642696D01*
X127363427Y-91857022D01*
X127149101Y-92071348D01*
X126720450Y-92071348D01*
X126613286Y-91964185D01*
X126506124Y-91857022D01*
X126613286Y-91749859D01*
X126720449Y-91642697D01*
X126613286Y-91535534D01*
X126506123Y-91428370D01*
X126613286Y-91321207D01*
X126720449Y-91214044D01*
X126613286Y-91106882D01*
X126506124Y-90999719D01*
X126398961Y-91106882D01*
X126291797Y-91214045D01*
X126398960Y-91321208D01*
X126506123Y-91428370D01*
X126398960Y-91535533D01*
X126291797Y-91642696D01*
X126077472Y-91428370D01*
X125863146Y-91214044D01*
X125970308Y-91106882D01*
X126077471Y-90999719D01*
X125863145Y-90785393D01*
X125648820Y-90571067D01*
X125541657Y-90678230D01*
X125434494Y-90785393D01*
X125648820Y-90999718D01*
X125863146Y-91214044D01*
X125648820Y-91428370D01*
X125434494Y-91642696D01*
X125541657Y-91749859D01*
X125648820Y-91857022D01*
X125434494Y-92071348D01*
X125220168Y-92285675D01*
X125327331Y-92392837D01*
X125434493Y-92500000D01*
X125541657Y-92392837D01*
X125648820Y-92285674D01*
X125863146Y-92500000D01*
X126077472Y-92714326D01*
X126184635Y-92607163D01*
X126291798Y-92500000D01*
X126398961Y-92607163D01*
X126506124Y-92714325D01*
X126398960Y-92821489D01*
X126291797Y-92928652D01*
X126398960Y-93035814D01*
X126506124Y-93142978D01*
X126291797Y-93357304D01*
X126077472Y-93571630D01*
X125970308Y-93464466D01*
X125863146Y-93357303D01*
X125970308Y-93250141D01*
X126077471Y-93142978D01*
X125863146Y-92928652D01*
X125648820Y-92714326D01*
X125541657Y-92821489D01*
X125434494Y-92928652D01*
X125541657Y-93035814D01*
X125648820Y-93142978D01*
X125541657Y-93250141D01*
X125434494Y-93357304D01*
X125327331Y-93250141D01*
X125220168Y-93142978D01*
X125113005Y-93250141D01*
X125005842Y-93357304D01*
X125113004Y-93464467D01*
X125220168Y-93571630D01*
X125327331Y-93464467D01*
X125434494Y-93357304D01*
X125648820Y-93571630D01*
X125863146Y-93785956D01*
X125648820Y-94000282D01*
X125434494Y-94214607D01*
X125541657Y-94321770D01*
X125648820Y-94428933D01*
X125434493Y-94643259D01*
X125220168Y-94857585D01*
X125327331Y-94964748D01*
X125434494Y-95071911D01*
X125541657Y-94964748D01*
X125648820Y-94857585D01*
X125755982Y-94964748D01*
X125863146Y-95071911D01*
X125755983Y-95179074D01*
X125648820Y-95286237D01*
X125755983Y-95393400D01*
X125863146Y-95500562D01*
X125755982Y-95607726D01*
X125648820Y-95714889D01*
X125755983Y-95822052D01*
X125863146Y-95929215D01*
X125755983Y-96036377D01*
X125648820Y-96143541D01*
X125541657Y-96036378D01*
X125434493Y-95929215D01*
X125327331Y-96036377D01*
X125220168Y-96143540D01*
X125005842Y-95929215D01*
X124791516Y-95714889D01*
X124898679Y-95607726D01*
X125005842Y-95500563D01*
X125113004Y-95607726D01*
X125220168Y-95714889D01*
X125327331Y-95607726D01*
X125434494Y-95500563D01*
X125113005Y-95179074D01*
X124791516Y-94857585D01*
X125005842Y-94643259D01*
X125220168Y-94428934D01*
X125113004Y-94321770D01*
X125005842Y-94214607D01*
X125113004Y-94107445D01*
X125220168Y-94000281D01*
X125113005Y-93893118D01*
X125005842Y-93785956D01*
X124898679Y-93893119D01*
X124791516Y-94000282D01*
X124684353Y-93893118D01*
X124577190Y-93785956D01*
X124255701Y-94107445D01*
X123934212Y-94428934D01*
X124148538Y-94643260D01*
X124362864Y-94857585D01*
X124255701Y-94964748D01*
X124148538Y-95071911D01*
X123934213Y-94857585D01*
X123719887Y-94643259D01*
X123612723Y-94750422D01*
X123505560Y-94857585D01*
X123719887Y-95071911D01*
X123934212Y-95286237D01*
X124041375Y-95179074D01*
X124148538Y-95071911D01*
X124255701Y-95179073D01*
X124362865Y-95286237D01*
X124148538Y-95500563D01*
X123934212Y-95714889D01*
X123827049Y-95607726D01*
X123719886Y-95500563D01*
X123612723Y-95607726D01*
X123505560Y-95714889D01*
X123076909Y-95286237D01*
X122648257Y-94857585D01*
X122862583Y-94643260D01*
X123076909Y-94428934D01*
X123184072Y-94536096D01*
X123291234Y-94643259D01*
X123398397Y-94536096D01*
X123505560Y-94428933D01*
X123398398Y-94321770D01*
X123291235Y-94214607D01*
X123184072Y-94321771D01*
X123076909Y-94428934D01*
X122969745Y-94321770D01*
X122862583Y-94214607D01*
X122755420Y-94321770D01*
X122648256Y-94428934D01*
X122541094Y-94321771D01*
X122433930Y-94214607D01*
X122326768Y-94321770D01*
X122219605Y-94428933D01*
X122112442Y-94321770D01*
X122005279Y-94214607D01*
X122112442Y-94107445D01*
X122219605Y-94000282D01*
X122326768Y-94107445D01*
X122433930Y-94214607D01*
X122541094Y-94107444D01*
X122648256Y-94000281D01*
X122541094Y-93893118D01*
X122433931Y-93785956D01*
X122648257Y-93571630D01*
X122862583Y-93357304D01*
X122969745Y-93464467D01*
X123076908Y-93571630D01*
X122862583Y-93785955D01*
X122648256Y-94000281D01*
X122755420Y-94107445D01*
X122862583Y-94214607D01*
X123076908Y-94000282D01*
X123505560Y-94000282D01*
X123612723Y-94107445D01*
X123719886Y-94214607D01*
X123827049Y-94107444D01*
X123934212Y-94000281D01*
X123827049Y-93893118D01*
X123719887Y-93785956D01*
X123612724Y-93893118D01*
X123505560Y-94000282D01*
X123076908Y-94000282D01*
X123184072Y-93893118D01*
X123505560Y-93571630D01*
X123291234Y-93357303D01*
X123076909Y-93142978D01*
X123076910Y-93142977D01*
X123505560Y-93142977D01*
X123612724Y-93250141D01*
X123719887Y-93357303D01*
X123827049Y-93250141D01*
X123934212Y-93142978D01*
X124041375Y-93250141D01*
X124148538Y-93357304D01*
X124041376Y-93464467D01*
X123934213Y-93571630D01*
X124041376Y-93678792D01*
X124148538Y-93785955D01*
X124255701Y-93678792D01*
X124362864Y-93571630D01*
X124255701Y-93464467D01*
X124148538Y-93357304D01*
X124362865Y-93142978D01*
X124577190Y-92928652D01*
X124684353Y-93035815D01*
X124791515Y-93142978D01*
X124684353Y-93250141D01*
X124577190Y-93357303D01*
X124684353Y-93464467D01*
X124791516Y-93571630D01*
X124898679Y-93464467D01*
X125005842Y-93357304D01*
X124898679Y-93250141D01*
X124791515Y-93142978D01*
X124898679Y-93035814D01*
X125005842Y-92928652D01*
X124898679Y-92821489D01*
X124791516Y-92714326D01*
X124684353Y-92821489D01*
X124577190Y-92928652D01*
X124470027Y-92821489D01*
X124362864Y-92714326D01*
X124148538Y-92928652D01*
X123934212Y-93142978D01*
X123827049Y-93035815D01*
X123719886Y-92928652D01*
X123612723Y-93035814D01*
X123505560Y-93142977D01*
X123076910Y-93142977D01*
X123398398Y-92821489D01*
X123719887Y-92500000D01*
X123505560Y-92285674D01*
X123291235Y-92071348D01*
X123398398Y-91964186D01*
X123505560Y-91857023D01*
X123719886Y-92071348D01*
X123934212Y-92285675D01*
X123827049Y-92392837D01*
X123719887Y-92500000D01*
X123827049Y-92607163D01*
X123934212Y-92714325D01*
X124148538Y-92500000D01*
X124362864Y-92285674D01*
X124470027Y-92392837D01*
X124577190Y-92500000D01*
X124684353Y-92392837D01*
X124791516Y-92285674D01*
X124898679Y-92392837D01*
X125005842Y-92500000D01*
X125113005Y-92392837D01*
X125220168Y-92285675D01*
X125113004Y-92178511D01*
X125005842Y-92071348D01*
X125113005Y-91964185D01*
X125220168Y-91857022D01*
X125113005Y-91749859D01*
X125005842Y-91642696D01*
X124791515Y-91857022D01*
X124577190Y-92071348D01*
X124470027Y-91964185D01*
X124362865Y-91857022D01*
X124684353Y-91535533D01*
X125005842Y-91214044D01*
X125113005Y-91321207D01*
X125220168Y-91428370D01*
X125327331Y-91321207D01*
X125434493Y-91214044D01*
X125220168Y-90999719D01*
X125005842Y-90785393D01*
X125113004Y-90678230D01*
X125220168Y-90571066D01*
X125113005Y-90463904D01*
X125005842Y-90356741D01*
X124898679Y-90463904D01*
X124791516Y-90571067D01*
X124684353Y-90463904D01*
X124577190Y-90356741D01*
X124684353Y-90249578D01*
X124791516Y-90142415D01*
X125220168Y-90142415D01*
X125327331Y-90249578D01*
X125434493Y-90356741D01*
X125541657Y-90249578D01*
X125648820Y-90142415D01*
X125541657Y-90035252D01*
X125434494Y-89928089D01*
X125327331Y-90035252D01*
X125220168Y-90142415D01*
X124791516Y-90142415D01*
X124684353Y-90035252D01*
X124577190Y-89928089D01*
X124684353Y-89820926D01*
X124791515Y-89713763D01*
X124898679Y-89820927D01*
X125005842Y-89928089D01*
X125220168Y-89713763D01*
X125434494Y-89499437D01*
X125220168Y-89285111D01*
X125005842Y-89070785D01*
X124898679Y-89177949D01*
X124791516Y-89285111D01*
X124898679Y-89392274D01*
X125005842Y-89499437D01*
X124898679Y-89606600D01*
X124791515Y-89713763D01*
X124684353Y-89606600D01*
X124577190Y-89499438D01*
X124470027Y-89606600D01*
X124362865Y-89713763D01*
X124148538Y-89499437D01*
X123934212Y-89285111D01*
X124041375Y-89177948D01*
X124148538Y-89070785D01*
X124362864Y-89285111D01*
X124577190Y-89499438D01*
X124684353Y-89392274D01*
X124791516Y-89285111D01*
X124684353Y-89177948D01*
X124577190Y-89070785D01*
X124684353Y-88963623D01*
X124791516Y-88856459D01*
X124898679Y-88963622D01*
X125005842Y-89070785D01*
X125113005Y-88963623D01*
X125220168Y-88856460D01*
X125005842Y-88642134D01*
X124791515Y-88427807D01*
X124577190Y-88642133D01*
X124362864Y-88856459D01*
X124255701Y-88749296D01*
X124148538Y-88642134D01*
X124470027Y-88320645D01*
X124791516Y-87999156D01*
X125113005Y-88320645D01*
G37*
G36*
X124684353Y-95179074D02*
G01*
X124791515Y-95286237D01*
X124684353Y-95393400D01*
X124577190Y-95500562D01*
X124684353Y-95607726D01*
X124791516Y-95714889D01*
X124577190Y-95929215D01*
X124362864Y-96143541D01*
X124470027Y-96250704D01*
X124577190Y-96357867D01*
X124470027Y-96465030D01*
X124362865Y-96572193D01*
X124255701Y-96465029D01*
X124148538Y-96357866D01*
X124255701Y-96250704D01*
X124362864Y-96143541D01*
X124255701Y-96036378D01*
X124148538Y-95929215D01*
X124362864Y-95714889D01*
X124577190Y-95500562D01*
X124470027Y-95393400D01*
X124362865Y-95286237D01*
X124470027Y-95179074D01*
X124577190Y-95071911D01*
X124684353Y-95179074D01*
G37*
G36*
X128542220Y-90463904D02*
G01*
X128649383Y-90571066D01*
X128542219Y-90678230D01*
X128435056Y-90785393D01*
X128327894Y-90678230D01*
X128220731Y-90571067D01*
X128327894Y-90463904D01*
X128435057Y-90356741D01*
X128542220Y-90463904D01*
G37*
G36*
X127684917Y-90463904D02*
G01*
X127792079Y-90571066D01*
X127684916Y-90678230D01*
X127577753Y-90785393D01*
X127470590Y-90678230D01*
X127363427Y-90571066D01*
X127470590Y-90463904D01*
X127577753Y-90356740D01*
X127684917Y-90463904D01*
G37*
G36*
X128113567Y-89606600D02*
G01*
X128220730Y-89713763D01*
X128113567Y-89820926D01*
X128006405Y-89928089D01*
X127899242Y-89820926D01*
X127792079Y-89713763D01*
X127899242Y-89606600D01*
X128006405Y-89499438D01*
X128113567Y-89606600D01*
G37*
G36*
X123827049Y-89177948D02*
G01*
X123934212Y-89285111D01*
X123719886Y-89499437D01*
X123505560Y-89713762D01*
X123612724Y-89820926D01*
X123719887Y-89928089D01*
X123612723Y-90035252D01*
X123505560Y-90142415D01*
X123719887Y-90356741D01*
X123934212Y-90571066D01*
X123827049Y-90678229D01*
X123719886Y-90785393D01*
X123934212Y-90999719D01*
X124148538Y-91214045D01*
X124041376Y-91321208D01*
X123934213Y-91428370D01*
X124148538Y-91642696D01*
X124362865Y-91857022D01*
X124255701Y-91964186D01*
X124148538Y-92071348D01*
X123827049Y-91749859D01*
X123505560Y-91428370D01*
X123398398Y-91535533D01*
X123291234Y-91642697D01*
X123184072Y-91535534D01*
X123076908Y-91428370D01*
X122969745Y-91535533D01*
X122862583Y-91642696D01*
X122755420Y-91535533D01*
X122648257Y-91428370D01*
X122862583Y-91214045D01*
X123076909Y-90999719D01*
X123291234Y-91214044D01*
X123505560Y-91428370D01*
X123612723Y-91321208D01*
X123719887Y-91214044D01*
X123505560Y-90999718D01*
X123291235Y-90785393D01*
X123184072Y-90892556D01*
X123076909Y-90999719D01*
X122862583Y-90785393D01*
X122648256Y-90571066D01*
X122541094Y-90678229D01*
X122433930Y-90785393D01*
X122541094Y-90892556D01*
X122648256Y-90999719D01*
X122541094Y-91106882D01*
X122433931Y-91214044D01*
X122219605Y-90999718D01*
X122005279Y-90785393D01*
X122326768Y-90463904D01*
X122648257Y-90142415D01*
X122969746Y-90463904D01*
X123291235Y-90785393D01*
X123398398Y-90678230D01*
X123505560Y-90571067D01*
X123398397Y-90463904D01*
X123291234Y-90356741D01*
X123398398Y-90249578D01*
X123505560Y-90142415D01*
X123398398Y-90035252D01*
X123291234Y-89928089D01*
X123184072Y-90035251D01*
X123076908Y-90142415D01*
X122969745Y-90035252D01*
X122862583Y-89928089D01*
X123291235Y-89499437D01*
X123719887Y-89070785D01*
X123827049Y-89177948D01*
G37*
G36*
X125113005Y-96465030D02*
G01*
X125220168Y-96572193D01*
X125113005Y-96679355D01*
X125005842Y-96786519D01*
X124898679Y-96679356D01*
X124791515Y-96572193D01*
X124898679Y-96465029D01*
X125005842Y-96357866D01*
X125113005Y-96465030D01*
G37*
G36*
X128970872Y-88749296D02*
G01*
X129078034Y-88856459D01*
X128970872Y-88963622D01*
X128863708Y-89070785D01*
X128756545Y-88963623D01*
X128649383Y-88856460D01*
X128756546Y-88749296D01*
X128863709Y-88642134D01*
X128970872Y-88749296D01*
G37*
G36*
X128435056Y-88213481D02*
G01*
X128649383Y-88427807D01*
X128542220Y-88534970D01*
X128435056Y-88642134D01*
X128542219Y-88749296D01*
X128649383Y-88856460D01*
X128435057Y-89070785D01*
X128220731Y-89285111D01*
X128113567Y-89177948D01*
X128006405Y-89070785D01*
X128220731Y-88856459D01*
X128435056Y-88642134D01*
X128327894Y-88534971D01*
X128220730Y-88427807D01*
X128113567Y-88534970D01*
X128006405Y-88642133D01*
X127899242Y-88534970D01*
X127792079Y-88427807D01*
X128006405Y-88213482D01*
X128220731Y-87999156D01*
X128435056Y-88213481D01*
G37*
G36*
X122541094Y-91749859D02*
G01*
X123291234Y-92500000D01*
X122541094Y-93250141D01*
X121790953Y-94000281D01*
X121040813Y-93250141D01*
X120517245Y-92726573D01*
X120290672Y-92500000D01*
X120743818Y-92500000D01*
X121267386Y-93023567D01*
X121790953Y-93547135D01*
X122314520Y-93023567D01*
X122838088Y-92500000D01*
X122314520Y-91976433D01*
X121790953Y-91452865D01*
X121267386Y-91976433D01*
X120743818Y-92500000D01*
X120290672Y-92500000D01*
X121040813Y-91749859D01*
X121790953Y-90999719D01*
X122541094Y-91749859D01*
G37*
G36*
X127256264Y-87034689D02*
G01*
X128006405Y-87784830D01*
X127256264Y-88534970D01*
X126506124Y-89285111D01*
X125755983Y-88534970D01*
X125232416Y-88011403D01*
X125005842Y-87784830D01*
X125458988Y-87784830D01*
X125982556Y-88308398D01*
X126506123Y-88831965D01*
X127029691Y-88308397D01*
X127553258Y-87784830D01*
X127029691Y-87261262D01*
X126506124Y-86737695D01*
X125982556Y-87261262D01*
X125458988Y-87784830D01*
X125005842Y-87784830D01*
X125755983Y-87034689D01*
X126506124Y-86284548D01*
X127256264Y-87034689D01*
G37*
G36*
X126827612Y-96893682D02*
G01*
X127149101Y-97215170D01*
X126827612Y-97536659D01*
X126506124Y-97858148D01*
X126184635Y-97536659D01*
X125863146Y-97215170D01*
X126184635Y-96893682D01*
X126506124Y-96572193D01*
X126827612Y-96893682D01*
G37*
G36*
X128756546Y-94964748D02*
G01*
X128863709Y-95071911D01*
X128756545Y-95179074D01*
X128649383Y-95286237D01*
X128542220Y-95179074D01*
X128435056Y-95071911D01*
X128542219Y-94964748D01*
X128649383Y-94857585D01*
X128756546Y-94964748D01*
G37*
G36*
X128435056Y-93357304D02*
G01*
X128649383Y-93571630D01*
X128542220Y-93678793D01*
X128435057Y-93785956D01*
X128649383Y-94000281D01*
X128863709Y-94214607D01*
X128542220Y-94536096D01*
X128220731Y-94857585D01*
X128113567Y-94750422D01*
X128006405Y-94643259D01*
X128113567Y-94536096D01*
X128220731Y-94428933D01*
X128113568Y-94321770D01*
X128006405Y-94214607D01*
X128113568Y-94107445D01*
X128220731Y-94000282D01*
X128113567Y-93893118D01*
X128006405Y-93785956D01*
X128113567Y-93678793D01*
X128220731Y-93571630D01*
X128113568Y-93464467D01*
X128006405Y-93357303D01*
X128113567Y-93250141D01*
X128220730Y-93142978D01*
X128435056Y-93357304D01*
G37*
G36*
X129399523Y-93464466D02*
G01*
X129506687Y-93571630D01*
X129399523Y-93678793D01*
X129292360Y-93785956D01*
X129185197Y-93678792D01*
X129078034Y-93571630D01*
X129185197Y-93464467D01*
X129292360Y-93357303D01*
X129399523Y-93464466D01*
G37*
G36*
X130042501Y-92392837D02*
G01*
X130149664Y-92500000D01*
X130042501Y-92607163D01*
X129935338Y-92714325D01*
X129828176Y-92607163D01*
X129721013Y-92500000D01*
X129828176Y-92392837D01*
X129935338Y-92285675D01*
X130042501Y-92392837D01*
G37*
G36*
X126827612Y-93464467D02*
G01*
X126934775Y-93571630D01*
X126827612Y-93678792D01*
X126720449Y-93785956D01*
X126613286Y-93678793D01*
X126506123Y-93571630D01*
X126613286Y-93464466D01*
X126720449Y-93357303D01*
X126827612Y-93464467D01*
G37*
G36*
X126398961Y-91749859D02*
G01*
X126506124Y-91857022D01*
X126398960Y-91964186D01*
X126291797Y-92071348D01*
X126398960Y-92178511D01*
X126506124Y-92285675D01*
X126398961Y-92392837D01*
X126291798Y-92500000D01*
X126077472Y-92285674D01*
X125863146Y-92071348D01*
X126077471Y-91857022D01*
X126291797Y-91642696D01*
X126398961Y-91749859D01*
G37*
G36*
X124898679Y-94107445D02*
G01*
X125005842Y-94214607D01*
X124791516Y-94428933D01*
X124577190Y-94643259D01*
X124470027Y-94536096D01*
X124362865Y-94428934D01*
X124577191Y-94214607D01*
X124791516Y-94000282D01*
X124898679Y-94107445D01*
G37*
G36*
X124470027Y-89820926D02*
G01*
X124577190Y-89928089D01*
X124470027Y-90035252D01*
X124362864Y-90142415D01*
X124470027Y-90249578D01*
X124577190Y-90356741D01*
X124470027Y-90463904D01*
X124362865Y-90571066D01*
X124470027Y-90678229D01*
X124577191Y-90785393D01*
X124470027Y-90892556D01*
X124362865Y-90999719D01*
X124470027Y-91106882D01*
X124577190Y-91214044D01*
X124470027Y-91321207D01*
X124362864Y-91428370D01*
X124255701Y-91321208D01*
X124148538Y-91214045D01*
X124255702Y-91106882D01*
X124362865Y-90999719D01*
X124255701Y-90892555D01*
X124148538Y-90785393D01*
X124255701Y-90678230D01*
X124362865Y-90571066D01*
X124148538Y-90356740D01*
X123934213Y-90142415D01*
X124148538Y-89928089D01*
X124362865Y-89713763D01*
X124470027Y-89820926D01*
G37*
G36*
X124898679Y-90678230D02*
G01*
X125005842Y-90785393D01*
X124898679Y-90892555D01*
X124791516Y-90999718D01*
X124684353Y-90892555D01*
X124577191Y-90785393D01*
X124684353Y-90678230D01*
X124791516Y-90571067D01*
X124898679Y-90678230D01*
G37*
G36*
X122112442Y-92178511D02*
G01*
X122433931Y-92500000D01*
X122112442Y-92821489D01*
X121790953Y-93142978D01*
X121469464Y-92821489D01*
X121147975Y-92500000D01*
X121469464Y-92178511D01*
X121790953Y-91857022D01*
X122112442Y-92178511D01*
G37*
G36*
X126827612Y-87463341D02*
G01*
X127149101Y-87784830D01*
X126827612Y-88106318D01*
X126506124Y-88427807D01*
X126184635Y-88106318D01*
X125863146Y-87784830D01*
X126184635Y-87463341D01*
X126506124Y-87141852D01*
X126827612Y-87463341D01*
G37*
%TD*%
G36*
X140943039Y-108519685D02*
G01*
X140988794Y-108572489D01*
X141000000Y-108624000D01*
X141000000Y-112376000D01*
X140980315Y-112443039D01*
X140927511Y-112488794D01*
X140876000Y-112500000D01*
X131124000Y-112500000D01*
X131056961Y-112480315D01*
X131011206Y-112427511D01*
X131000000Y-112376000D01*
X131000000Y-108624000D01*
X131019685Y-108556961D01*
X131072489Y-108511206D01*
X131124000Y-108500000D01*
X140876000Y-108500000D01*
X140943039Y-108519685D01*
G37*
G36*
X155943039Y-108519685D02*
G01*
X155988794Y-108572489D01*
X156000000Y-108624000D01*
X156000000Y-112376000D01*
X155980315Y-112443039D01*
X155927511Y-112488794D01*
X155876000Y-112500000D01*
X146124000Y-112500000D01*
X146056961Y-112480315D01*
X146011206Y-112427511D01*
X146000000Y-112376000D01*
X146000000Y-108624000D01*
X146019685Y-108556961D01*
X146072489Y-108511206D01*
X146124000Y-108500000D01*
X155876000Y-108500000D01*
X155943039Y-108519685D01*
G37*
G36*
X125943039Y-108519685D02*
G01*
X125988794Y-108572489D01*
X126000000Y-108624000D01*
X126000000Y-112376000D01*
X125980315Y-112443039D01*
X125927511Y-112488794D01*
X125876000Y-112500000D01*
X116124000Y-112500000D01*
X116056961Y-112480315D01*
X116011206Y-112427511D01*
X116000000Y-112376000D01*
X116000000Y-108624000D01*
X116019685Y-108556961D01*
X116072489Y-108511206D01*
X116124000Y-108500000D01*
X125876000Y-108500000D01*
X125943039Y-108519685D01*
G37*
G36*
X110943039Y-108519685D02*
G01*
X110988794Y-108572489D01*
X111000000Y-108624000D01*
X111000000Y-112376000D01*
X110980315Y-112443039D01*
X110927511Y-112488794D01*
X110876000Y-112500000D01*
X101124000Y-112500000D01*
X101056961Y-112480315D01*
X101011206Y-112427511D01*
X101000000Y-112376000D01*
X101000000Y-108624000D01*
X101019685Y-108556961D01*
X101072489Y-108511206D01*
X101124000Y-108500000D01*
X110876000Y-108500000D01*
X110943039Y-108519685D01*
G37*
G36*
X110943039Y-73019685D02*
G01*
X110988794Y-73072489D01*
X111000000Y-73124000D01*
X111000000Y-76876000D01*
X110980315Y-76943039D01*
X110927511Y-76988794D01*
X110876000Y-77000000D01*
X101124000Y-77000000D01*
X101056961Y-76980315D01*
X101011206Y-76927511D01*
X101000000Y-76876000D01*
X101000000Y-73124000D01*
X101019685Y-73056961D01*
X101072489Y-73011206D01*
X101124000Y-73000000D01*
X110876000Y-73000000D01*
X110943039Y-73019685D01*
G37*
G36*
X125943039Y-73019685D02*
G01*
X125988794Y-73072489D01*
X126000000Y-73124000D01*
X126000000Y-76876000D01*
X125980315Y-76943039D01*
X125927511Y-76988794D01*
X125876000Y-77000000D01*
X116124000Y-77000000D01*
X116056961Y-76980315D01*
X116011206Y-76927511D01*
X116000000Y-76876000D01*
X116000000Y-73124000D01*
X116019685Y-73056961D01*
X116072489Y-73011206D01*
X116124000Y-73000000D01*
X125876000Y-73000000D01*
X125943039Y-73019685D01*
G37*
G36*
X155943039Y-73019685D02*
G01*
X155988794Y-73072489D01*
X156000000Y-73124000D01*
X156000000Y-76876000D01*
X155980315Y-76943039D01*
X155927511Y-76988794D01*
X155876000Y-77000000D01*
X146124000Y-77000000D01*
X146056961Y-76980315D01*
X146011206Y-76927511D01*
X146000000Y-76876000D01*
X146000000Y-73124000D01*
X146019685Y-73056961D01*
X146072489Y-73011206D01*
X146124000Y-73000000D01*
X155876000Y-73000000D01*
X155943039Y-73019685D01*
G37*
G36*
X140943039Y-73019685D02*
G01*
X140988794Y-73072489D01*
X141000000Y-73124000D01*
X141000000Y-76876000D01*
X140980315Y-76943039D01*
X140927511Y-76988794D01*
X140876000Y-77000000D01*
X131124000Y-77000000D01*
X131056961Y-76980315D01*
X131011206Y-76927511D01*
X131000000Y-76876000D01*
X131000000Y-73124000D01*
X131019685Y-73056961D01*
X131072489Y-73011206D01*
X131124000Y-73000000D01*
X140876000Y-73000000D01*
X140943039Y-73019685D01*
G37*
%LPC*%
D16*
%TO.C,REF\u002A\u002A*%
X161500000Y-69000000D03*
%TD*%
%TO.C,REF\u002A\u002A*%
X95500000Y-69000000D03*
%TD*%
%TO.C,REF\u002A\u002A*%
X161500000Y-116500000D03*
%TD*%
%TO.C,REF\u002A\u002A*%
X95500000Y-116500000D03*
%TD*%
%LPD*%
M02*
