%TF.GenerationSoftware,KiCad,Pcbnew,7.0.10*%
%TF.CreationDate,2024-01-30T15:52:27+01:00*%
%TF.ProjectId,BloX_ABC_MkII,426c6f58-5f41-4424-935f-4d6b49492e6b,rev?*%
%TF.SameCoordinates,Original*%
%TF.FileFunction,Copper,L2,Bot*%
%TF.FilePolarity,Positive*%
%FSLAX46Y46*%
G04 Gerber Fmt 4.6, Leading zero omitted, Abs format (unit mm)*
G04 Created by KiCad (PCBNEW 7.0.10) date 2024-01-30 15:52:27*
%MOMM*%
%LPD*%
G01*
G04 APERTURE LIST*
G04 Aperture macros list*
%AMRoundRect*
0 Rectangle with rounded corners*
0 $1 Rounding radius*
0 $2 $3 $4 $5 $6 $7 $8 $9 X,Y pos of 4 corners*
0 Add a 4 corners polygon primitive as box body*
4,1,4,$2,$3,$4,$5,$6,$7,$8,$9,$2,$3,0*
0 Add four circle primitives for the rounded corners*
1,1,$1+$1,$2,$3*
1,1,$1+$1,$4,$5*
1,1,$1+$1,$6,$7*
1,1,$1+$1,$8,$9*
0 Add four rect primitives between the rounded corners*
20,1,$1+$1,$2,$3,$4,$5,0*
20,1,$1+$1,$4,$5,$6,$7,0*
20,1,$1+$1,$6,$7,$8,$9,0*
20,1,$1+$1,$8,$9,$2,$3,0*%
G04 Aperture macros list end*
%TA.AperFunction,ComponentPad*%
%ADD10O,1.800000X3.600000*%
%TD*%
%TA.AperFunction,ComponentPad*%
%ADD11RoundRect,0.250000X0.650000X1.550000X-0.650000X1.550000X-0.650000X-1.550000X0.650000X-1.550000X0*%
%TD*%
%TA.AperFunction,ComponentPad*%
%ADD12O,1.700000X1.700000*%
%TD*%
%TA.AperFunction,ComponentPad*%
%ADD13R,1.700000X1.700000*%
%TD*%
%TA.AperFunction,ComponentPad*%
%ADD14O,3.600000X1.800000*%
%TD*%
%TA.AperFunction,ComponentPad*%
%ADD15RoundRect,0.250000X1.550000X-0.650000X1.550000X0.650000X-1.550000X0.650000X-1.550000X-0.650000X0*%
%TD*%
%TA.AperFunction,ComponentPad*%
%ADD16RoundRect,0.250000X-1.550000X0.650000X-1.550000X-0.650000X1.550000X-0.650000X1.550000X0.650000X0*%
%TD*%
%TA.AperFunction,ComponentPad*%
%ADD17O,1.000000X1.000000*%
%TD*%
%TA.AperFunction,ComponentPad*%
%ADD18R,1.000000X1.000000*%
%TD*%
%TA.AperFunction,ViaPad*%
%ADD19C,0.500000*%
%TD*%
%TA.AperFunction,ViaPad*%
%ADD20C,0.800000*%
%TD*%
%TA.AperFunction,Conductor*%
%ADD21C,0.200000*%
%TD*%
%TA.AperFunction,Conductor*%
%ADD22C,0.700000*%
%TD*%
%TA.AperFunction,Conductor*%
%ADD23C,0.500000*%
%TD*%
G04 APERTURE END LIST*
D10*
%TO.P,J103,4,Pin_4*%
%TO.N,/ring_left*%
X84695000Y-67500000D03*
%TO.P,J103,3,Pin_3*%
%TO.N,/ring_right*%
X88195000Y-67500000D03*
%TO.P,J103,2,Pin_2*%
%TO.N,/CS1/TRACK*%
X91695000Y-67500000D03*
D11*
%TO.P,J103,1,Pin_1*%
%TO.N,/CS2/TRACK*%
X95195000Y-67500000D03*
%TD*%
%TO.P,J802,1,Pin_1*%
%TO.N,VCC*%
X124195000Y-67432500D03*
D10*
%TO.P,J802,2,Pin_2*%
%TO.N,/signals/green_amp*%
X120695000Y-67432500D03*
%TO.P,J802,3,Pin_3*%
%TO.N,/signals/yellow_amp*%
X117195000Y-67432500D03*
%TO.P,J802,4,Pin_4*%
%TO.N,/signals/red_amp*%
X113695000Y-67432500D03*
%TD*%
D12*
%TO.P,J801,6,Pin_6*%
%TO.N,GND*%
X105500000Y-67040000D03*
%TO.P,J801,5,Pin_5*%
X102960000Y-67040000D03*
%TO.P,J801,4,Pin_4*%
%TO.N,+5VA*%
X105500000Y-64500000D03*
%TO.P,J801,3,Pin_3*%
X102960000Y-64500000D03*
%TO.P,J801,2,Pin_2*%
%TO.N,/CPU/main*%
X105500000Y-61960000D03*
D13*
%TO.P,J801,1,Pin_1*%
%TO.N,/CPU/dist*%
X102960000Y-61960000D03*
%TD*%
D14*
%TO.P,J102,4,Pin_4*%
%TO.N,/ring_right*%
X127067500Y-98195000D03*
%TO.P,J102,3,Pin_3*%
%TO.N,/ring_left*%
X127067500Y-101695000D03*
%TO.P,J102,2,Pin_2*%
%TO.N,/up+*%
X127067500Y-105195000D03*
D15*
%TO.P,J102,1,Pin_1*%
%TO.N,/up-*%
X127067500Y-108695000D03*
%TD*%
D16*
%TO.P,J101,1,Pin_1*%
%TO.N,/ring_left*%
X82432500Y-98305000D03*
D14*
%TO.P,J101,2,Pin_2*%
%TO.N,/ring_right*%
X82432500Y-101805000D03*
%TO.P,J101,3,Pin_3*%
%TO.N,/downline*%
X82432500Y-105305000D03*
%TO.P,J101,4,Pin_4*%
%TO.N,GND*%
X82432500Y-108805000D03*
%TD*%
D17*
%TO.P,U201,6*%
%TO.N,/CPU/MISO*%
X107735000Y-114375000D03*
%TO.P,U201,5*%
%TO.N,+5V*%
X107735000Y-115645000D03*
%TO.P,U201,4*%
%TO.N,/CPU/SCK*%
X109005000Y-114375000D03*
%TO.P,U201,3*%
%TO.N,/CPU/MOSI*%
X109005000Y-115645000D03*
%TO.P,U201,2*%
%TO.N,/CPU/reset*%
X110275000Y-114375000D03*
D18*
%TO.P,U201,1*%
%TO.N,GND*%
X110275000Y-115645000D03*
%TD*%
D19*
%TO.N,GND*%
X89408000Y-104267000D03*
X123825000Y-73406000D03*
X121539000Y-70485000D03*
X123952000Y-83947000D03*
X123825000Y-76581000D03*
X114681000Y-86360000D03*
X116459000Y-82042000D03*
X118491000Y-81788000D03*
X119761000Y-78613000D03*
X118745000Y-76835000D03*
X113411000Y-77724000D03*
X113538000Y-84201000D03*
X109474000Y-84201000D03*
X109220000Y-77851000D03*
X105791000Y-83947000D03*
X105537000Y-78359000D03*
X102489000Y-76327000D03*
X97028000Y-76708000D03*
X96901000Y-78359000D03*
X89154000Y-74803000D03*
X91948000Y-69977000D03*
X87122000Y-70485000D03*
X90424000Y-65024000D03*
X93472000Y-67437000D03*
X104013000Y-68707000D03*
X101346000Y-68580000D03*
X100457000Y-65786000D03*
X105791000Y-69215000D03*
X108712000Y-71501000D03*
X115189000Y-71247000D03*
X127762000Y-71247000D03*
X127635000Y-75184000D03*
X130556000Y-76835000D03*
X132842000Y-76962000D03*
X133350000Y-81026000D03*
X130429000Y-80518000D03*
X133477000Y-79756000D03*
X133604000Y-84582000D03*
X131445000Y-84582000D03*
X130175000Y-84582000D03*
X111887000Y-113665000D03*
X111887000Y-115316000D03*
X111887000Y-116332000D03*
X119507000Y-104013000D03*
X92329000Y-99568000D03*
X92075000Y-97155000D03*
X97536000Y-93853000D03*
X96012000Y-95885000D03*
X95377000Y-90932000D03*
X96393000Y-92329000D03*
X95758000Y-99314000D03*
X96647000Y-98425000D03*
X100965000Y-107442000D03*
X102743000Y-109220000D03*
X97282000Y-102743000D03*
X96774000Y-104648000D03*
X99187000Y-107188000D03*
X98044000Y-108204000D03*
X102108000Y-111379000D03*
X104648000Y-113538000D03*
X113157000Y-102616000D03*
X115570000Y-101981000D03*
X118237000Y-101981000D03*
X119126000Y-106045000D03*
X116967000Y-106172000D03*
X82804000Y-112141000D03*
X83312000Y-110998000D03*
X81534000Y-110871000D03*
X82423000Y-106934000D03*
X86233000Y-94234000D03*
X95885000Y-72898000D03*
X98679000Y-72898000D03*
X97282000Y-74041000D03*
X99695000Y-78994000D03*
X99822000Y-76835000D03*
X101600000Y-72898000D03*
X103886000Y-72771000D03*
%TO.N,VCC*%
X107738000Y-70866000D03*
X103574314Y-71812686D03*
%TO.N,/CPU/main*%
X99750000Y-87757000D03*
X99949000Y-93091000D03*
X99731750Y-101001753D03*
X99695000Y-102511692D03*
%TO.N,/CPU/dist*%
X98813909Y-101353909D03*
X98806000Y-102511692D03*
%TO.N,/CPU/main*%
X105918000Y-74295000D03*
X107188000Y-71501000D03*
%TO.N,/CPU/dist*%
X105226002Y-73787000D03*
X106553000Y-70866000D03*
%TO.N,/ABC/TTL*%
X95927566Y-114342566D03*
X94488000Y-112903000D03*
X90297000Y-101981000D03*
X92710000Y-100711000D03*
%TO.N,/CPU/S2*%
X93472000Y-111142956D03*
X93345000Y-112242956D03*
X92194091Y-102623909D03*
X94234000Y-101219000D03*
X103779934Y-76667058D03*
X106553000Y-76581000D03*
%TO.N,/CPU/S1*%
X91014690Y-102404795D03*
X92717909Y-101592091D03*
%TO.N,/CPU/upline*%
X94107000Y-113623000D03*
X95250000Y-114935000D03*
X98806000Y-116163000D03*
X103505000Y-115095000D03*
X110825000Y-112522000D03*
X109725000Y-112522000D03*
%TO.N,+5V*%
X103358692Y-101961692D03*
X104765696Y-103241696D03*
%TO.N,VCC*%
X90343202Y-89869798D03*
X91567000Y-88900000D03*
%TO.N,+5VA*%
X81407000Y-68900000D03*
X81407000Y-66675000D03*
%TO.N,+5V*%
X79756000Y-66800000D03*
X79629000Y-68961000D03*
%TO.N,/downline*%
X86783000Y-105410000D03*
%TO.N,/CPU/SCK*%
X105537000Y-116595000D03*
X105664000Y-114545000D03*
%TO.N,/CPU/MOSI*%
X104775000Y-116195000D03*
X100203000Y-113030000D03*
%TO.N,/CPU/MISO*%
X100293961Y-114006678D03*
X104479000Y-115095000D03*
D20*
%TO.N,/CPU/red*%
X123510962Y-99303516D03*
X126905678Y-96280813D03*
%TO.N,/CPU/yellow*%
X122522996Y-99458204D03*
X125994883Y-95867949D03*
%TO.N,/CPU/green*%
X121539000Y-99280000D03*
X125949000Y-94869000D03*
%TO.N,GND*%
X131572000Y-82296000D03*
X131572000Y-78613000D03*
X131572000Y-75057000D03*
%TO.N,VCC*%
X97790000Y-82733950D03*
%TO.N,/ring_right*%
X79375000Y-97409000D03*
%TO.N,GND*%
X89408000Y-100457000D03*
X89281000Y-96520000D03*
X87884000Y-90932000D03*
X87630000Y-92583000D03*
X89281000Y-92583000D03*
X87884000Y-96520000D03*
X88011000Y-98425000D03*
%TO.N,VCC*%
X86313500Y-83058000D03*
X94820950Y-82733950D03*
%TO.N,GND*%
X91520500Y-85852000D03*
X90504500Y-85852000D03*
X89488500Y-81407000D03*
X86059500Y-80391000D03*
X84027500Y-81280000D03*
X91520500Y-81407000D03*
X97362500Y-84328000D03*
X95965500Y-85471000D03*
X86440500Y-86360000D03*
X90504500Y-81407000D03*
X87710500Y-86614000D03*
X89488500Y-85852000D03*
X90541000Y-104226000D03*
X95367000Y-104861000D03*
X92446000Y-106258000D03*
%TD*%
D21*
%TO.N,/CPU/upline*%
X94107000Y-113792000D02*
X94107000Y-113623000D01*
X95250000Y-114935000D02*
X94107000Y-113792000D01*
%TO.N,/CPU/main*%
X99750000Y-92892000D02*
X99949000Y-93091000D01*
X99750000Y-87757000D02*
X99750000Y-92892000D01*
%TO.N,VCC*%
X107188000Y-70316000D02*
X107738000Y-70866000D01*
X103574314Y-71812686D02*
X105071000Y-70316000D01*
X105071000Y-70316000D02*
X107188000Y-70316000D01*
%TO.N,/CPU/S2*%
X103865992Y-76581000D02*
X106553000Y-76581000D01*
X103779934Y-76667058D02*
X103865992Y-76581000D01*
D22*
%TO.N,VCC*%
X97790000Y-82733950D02*
X94820950Y-82733950D01*
D21*
%TO.N,/CPU/main*%
X99695000Y-101038503D02*
X99731750Y-101001753D01*
X99695000Y-102511692D02*
X99695000Y-101038503D01*
%TO.N,/CPU/dist*%
X98806000Y-101361818D02*
X98813909Y-101353909D01*
X98806000Y-102511692D02*
X98806000Y-101361818D01*
%TO.N,/CPU/main*%
X107188000Y-73025000D02*
X105918000Y-74295000D01*
X107188000Y-71501000D02*
X107188000Y-73025000D01*
%TO.N,/CPU/dist*%
X106553000Y-72460002D02*
X105226002Y-73787000D01*
X106553000Y-70866000D02*
X106553000Y-72460002D01*
%TO.N,/ABC/TTL*%
X94488000Y-112903000D02*
X95927566Y-114342566D01*
X91567000Y-100711000D02*
X90297000Y-101981000D01*
X92710000Y-100711000D02*
X91567000Y-100711000D01*
%TO.N,/CPU/S1*%
X92448091Y-101592091D02*
X92717909Y-101592091D01*
X91635387Y-102404795D02*
X92448091Y-101592091D01*
X91014690Y-102404795D02*
X91635387Y-102404795D01*
%TO.N,/CPU/S2*%
X93868818Y-101219000D02*
X94234000Y-101219000D01*
X92463909Y-102623909D02*
X93868818Y-101219000D01*
X92194091Y-102623909D02*
X92463909Y-102623909D01*
X93472000Y-111142956D02*
X93472000Y-112115956D01*
X93472000Y-112115956D02*
X93345000Y-112242956D01*
%TO.N,/CPU/upline*%
X102437000Y-116163000D02*
X98806000Y-116163000D01*
X103505000Y-115095000D02*
X102437000Y-116163000D01*
%TO.N,/CPU/MOSI*%
X100779678Y-113606678D02*
X100203000Y-113030000D01*
X103446677Y-113606678D02*
X100779678Y-113606678D01*
X105029000Y-114867182D02*
X104706818Y-114545000D01*
X104706818Y-114545000D02*
X104385000Y-114545000D01*
X105029000Y-115941000D02*
X105029000Y-114867182D01*
X104385000Y-114545000D02*
X103446677Y-113606678D01*
X104775000Y-116195000D02*
X105029000Y-115941000D01*
%TO.N,/CPU/MISO*%
X103280992Y-114006678D02*
X100293961Y-114006678D01*
X104479000Y-115095000D02*
X104369314Y-115095000D01*
X104369314Y-115095000D02*
X103280992Y-114006678D01*
%TO.N,/CPU/SCK*%
X105537000Y-114672000D02*
X105664000Y-114545000D01*
X105537000Y-116595000D02*
X105537000Y-114672000D01*
%TO.N,/CPU/upline*%
X110825000Y-112522000D02*
X109725000Y-112522000D01*
%TO.N,+5V*%
X104765696Y-103241696D02*
X104638696Y-103241696D01*
X104638696Y-103241696D02*
X103358692Y-101961692D01*
%TO.N,VCC*%
X91313000Y-88900000D02*
X90343202Y-89869798D01*
X91567000Y-88900000D02*
X91313000Y-88900000D01*
D23*
%TO.N,+5VA*%
X81407000Y-66675000D02*
X81407000Y-68900000D01*
D21*
%TO.N,+5V*%
X79756000Y-68834000D02*
X79756000Y-66800000D01*
X79629000Y-68961000D02*
X79756000Y-68834000D01*
%TO.N,/downline*%
X86678000Y-105305000D02*
X86783000Y-105410000D01*
X82432500Y-105305000D02*
X86678000Y-105305000D01*
%TO.N,/CPU/red*%
X123510962Y-98439410D02*
X123510962Y-99303516D01*
X123510962Y-98439410D02*
X125236372Y-96714000D01*
X126472491Y-96714000D02*
X125236372Y-96714000D01*
X126905678Y-96280813D02*
X126472491Y-96714000D01*
%TO.N,/CPU/yellow*%
X122522996Y-98861690D02*
X122522996Y-99458204D01*
X125070686Y-96314000D02*
X122522996Y-98861690D01*
X125548832Y-96314000D02*
X125070686Y-96314000D01*
X125994883Y-95867949D02*
X125548832Y-96314000D01*
%TO.N,/CPU/green*%
X125949000Y-94869000D02*
X125949000Y-94870000D01*
X125949000Y-94870000D02*
X121539000Y-99280000D01*
D23*
%TO.N,/ring_right*%
X79375000Y-98747500D02*
X82432500Y-101805000D01*
X79375000Y-97409000D02*
X79375000Y-98747500D01*
D22*
%TO.N,VCC*%
X86313500Y-83058000D02*
X94496900Y-83058000D01*
X94496900Y-83058000D02*
X94820950Y-82733950D01*
%TD*%
%TA.AperFunction,Conductor*%
%TO.N,GND*%
G36*
X105040507Y-66830156D02*
G01*
X105000000Y-66968111D01*
X105000000Y-67111889D01*
X105040507Y-67249844D01*
X105066314Y-67290000D01*
X103393686Y-67290000D01*
X103419493Y-67249844D01*
X103460000Y-67111889D01*
X103460000Y-66968111D01*
X103419493Y-66830156D01*
X103393686Y-66790000D01*
X105066314Y-66790000D01*
X105040507Y-66830156D01*
G37*
%TD.AperFunction*%
%TA.AperFunction,Conductor*%
G36*
X134642539Y-59820185D02*
G01*
X134688294Y-59872989D01*
X134699500Y-59924500D01*
X134699500Y-118575500D01*
X134679815Y-118642539D01*
X134627011Y-118688294D01*
X134575500Y-118699500D01*
X74924500Y-118699500D01*
X74857461Y-118679815D01*
X74811706Y-118627011D01*
X74800500Y-118575500D01*
X74800500Y-115567763D01*
X76145787Y-115567763D01*
X76175413Y-115837013D01*
X76175415Y-115837024D01*
X76243926Y-116099082D01*
X76243928Y-116099088D01*
X76349870Y-116348390D01*
X76453408Y-116518043D01*
X76490979Y-116579605D01*
X76490986Y-116579615D01*
X76664253Y-116787819D01*
X76664259Y-116787824D01*
X76754158Y-116868373D01*
X76865998Y-116968582D01*
X77091910Y-117118044D01*
X77337176Y-117233020D01*
X77337183Y-117233022D01*
X77337185Y-117233023D01*
X77596557Y-117311057D01*
X77596564Y-117311058D01*
X77596569Y-117311060D01*
X77864561Y-117350500D01*
X77864566Y-117350500D01*
X78067629Y-117350500D01*
X78067631Y-117350500D01*
X78067636Y-117350499D01*
X78067648Y-117350499D01*
X78105191Y-117347750D01*
X78270156Y-117335677D01*
X78382758Y-117310593D01*
X78534546Y-117276782D01*
X78534548Y-117276781D01*
X78534553Y-117276780D01*
X78787558Y-117180014D01*
X79023777Y-117047441D01*
X79238177Y-116881888D01*
X79426186Y-116686881D01*
X79583799Y-116466579D01*
X79693927Y-116252379D01*
X79707649Y-116225690D01*
X79707651Y-116225684D01*
X79707656Y-116225675D01*
X79729038Y-116163000D01*
X98300353Y-116163000D01*
X98320834Y-116305456D01*
X98369163Y-116411279D01*
X98380623Y-116436373D01*
X98474872Y-116545143D01*
X98595947Y-116622953D01*
X98595950Y-116622954D01*
X98595949Y-116622954D01*
X98734036Y-116663499D01*
X98734038Y-116663500D01*
X98734039Y-116663500D01*
X98877962Y-116663500D01*
X98877962Y-116663499D01*
X99016053Y-116622953D01*
X99137128Y-116545143D01*
X99137136Y-116545133D01*
X99138688Y-116543790D01*
X99140572Y-116542929D01*
X99144589Y-116540348D01*
X99144960Y-116540925D01*
X99202243Y-116514763D01*
X99219895Y-116513500D01*
X102387789Y-116513500D01*
X102413234Y-116516138D01*
X102422315Y-116518043D01*
X102448627Y-116514763D01*
X102451123Y-116514452D01*
X102464764Y-116513605D01*
X102466026Y-116513500D01*
X102466040Y-116513500D01*
X102474071Y-116512159D01*
X102485014Y-116510334D01*
X102490063Y-116509597D01*
X102538393Y-116503573D01*
X102538399Y-116503569D01*
X102545456Y-116501468D01*
X102552377Y-116499092D01*
X102552381Y-116499092D01*
X102595216Y-116475909D01*
X102599729Y-116473586D01*
X102643484Y-116452198D01*
X102643486Y-116452195D01*
X102649461Y-116447929D01*
X102655256Y-116443419D01*
X102655255Y-116443419D01*
X102655258Y-116443418D01*
X102688254Y-116407572D01*
X102691756Y-116403924D01*
X103463863Y-115631819D01*
X103525186Y-115598334D01*
X103551544Y-115595500D01*
X103576962Y-115595500D01*
X103576962Y-115595499D01*
X103715053Y-115554953D01*
X103836128Y-115477143D01*
X103898287Y-115405406D01*
X103957064Y-115367632D01*
X104026934Y-115367632D01*
X104085712Y-115405406D01*
X104085713Y-115405407D01*
X104147698Y-115476943D01*
X104147872Y-115477143D01*
X104268947Y-115554953D01*
X104268950Y-115554954D01*
X104268949Y-115554954D01*
X104404013Y-115594612D01*
X104462792Y-115632386D01*
X104491817Y-115695941D01*
X104481874Y-115765100D01*
X104450287Y-115807297D01*
X104443877Y-115812851D01*
X104349623Y-115921626D01*
X104349622Y-115921628D01*
X104289834Y-116052543D01*
X104269353Y-116195000D01*
X104289834Y-116337456D01*
X104348802Y-116466575D01*
X104349623Y-116468373D01*
X104443872Y-116577143D01*
X104564947Y-116654953D01*
X104564950Y-116654954D01*
X104564949Y-116654954D01*
X104703036Y-116695499D01*
X104703038Y-116695500D01*
X104703039Y-116695500D01*
X104846961Y-116695500D01*
X104907621Y-116677689D01*
X104977491Y-116677689D01*
X105036269Y-116715463D01*
X105055350Y-116745154D01*
X105111623Y-116868373D01*
X105205872Y-116977143D01*
X105326947Y-117054953D01*
X105326950Y-117054954D01*
X105326949Y-117054954D01*
X105465036Y-117095499D01*
X105465038Y-117095500D01*
X105465039Y-117095500D01*
X105608962Y-117095500D01*
X105608962Y-117095499D01*
X105747053Y-117054953D01*
X105868128Y-116977143D01*
X105962377Y-116868373D01*
X106022165Y-116737457D01*
X106042647Y-116595000D01*
X106022165Y-116452543D01*
X105962377Y-116321627D01*
X105962374Y-116321623D01*
X105917786Y-116270164D01*
X105888762Y-116206608D01*
X105887500Y-116188963D01*
X105887500Y-115645002D01*
X106979751Y-115645002D01*
X106998685Y-115813056D01*
X107054545Y-115972694D01*
X107054547Y-115972697D01*
X107144518Y-116115884D01*
X107144523Y-116115890D01*
X107264109Y-116235476D01*
X107264115Y-116235481D01*
X107407302Y-116325452D01*
X107407305Y-116325454D01*
X107407309Y-116325455D01*
X107407310Y-116325456D01*
X107441607Y-116337457D01*
X107566943Y-116381314D01*
X107734997Y-116400249D01*
X107735000Y-116400249D01*
X107735003Y-116400249D01*
X107903056Y-116381314D01*
X107903059Y-116381313D01*
X108062690Y-116325456D01*
X108062692Y-116325454D01*
X108062694Y-116325454D01*
X108062697Y-116325452D01*
X108205884Y-116235481D01*
X108205885Y-116235480D01*
X108205890Y-116235477D01*
X108282319Y-116159048D01*
X108343642Y-116125563D01*
X108413334Y-116130547D01*
X108457681Y-116159048D01*
X108534109Y-116235476D01*
X108534115Y-116235481D01*
X108677302Y-116325452D01*
X108677305Y-116325454D01*
X108677309Y-116325455D01*
X108677310Y-116325456D01*
X108711607Y-116337457D01*
X108836943Y-116381314D01*
X109004997Y-116400249D01*
X109005000Y-116400249D01*
X109005003Y-116400249D01*
X109173052Y-116381314D01*
X109173052Y-116381313D01*
X109173059Y-116381313D01*
X109209537Y-116368548D01*
X109279311Y-116364986D01*
X109339939Y-116399714D01*
X109349755Y-116411279D01*
X109417809Y-116502187D01*
X109417812Y-116502190D01*
X109532906Y-116588350D01*
X109532913Y-116588354D01*
X109667620Y-116638596D01*
X109667627Y-116638598D01*
X109727155Y-116644999D01*
X109727172Y-116645000D01*
X110025000Y-116645000D01*
X110025000Y-115893938D01*
X110106115Y-115957072D01*
X110216595Y-115995000D01*
X110304005Y-115995000D01*
X110390216Y-115980614D01*
X110492947Y-115925019D01*
X110520581Y-115895000D01*
X110525000Y-115895000D01*
X110525000Y-116645000D01*
X110822828Y-116645000D01*
X110822844Y-116644999D01*
X110882372Y-116638598D01*
X110882379Y-116638596D01*
X111017086Y-116588354D01*
X111017093Y-116588350D01*
X111132187Y-116502190D01*
X111132190Y-116502187D01*
X111218350Y-116387093D01*
X111218354Y-116387086D01*
X111268596Y-116252379D01*
X111268598Y-116252372D01*
X111274999Y-116192844D01*
X111275000Y-116192827D01*
X111275000Y-115895000D01*
X110525000Y-115895000D01*
X110520581Y-115895000D01*
X110572060Y-115839079D01*
X110618982Y-115732108D01*
X110628628Y-115615698D01*
X110616489Y-115567763D01*
X129645787Y-115567763D01*
X129675413Y-115837013D01*
X129675415Y-115837024D01*
X129743926Y-116099082D01*
X129743928Y-116099088D01*
X129849870Y-116348390D01*
X129953408Y-116518043D01*
X129990979Y-116579605D01*
X129990986Y-116579615D01*
X130164253Y-116787819D01*
X130164259Y-116787824D01*
X130254158Y-116868373D01*
X130365998Y-116968582D01*
X130591910Y-117118044D01*
X130837176Y-117233020D01*
X130837183Y-117233022D01*
X130837185Y-117233023D01*
X131096557Y-117311057D01*
X131096564Y-117311058D01*
X131096569Y-117311060D01*
X131364561Y-117350500D01*
X131364566Y-117350500D01*
X131567629Y-117350500D01*
X131567631Y-117350500D01*
X131567636Y-117350499D01*
X131567648Y-117350499D01*
X131605191Y-117347750D01*
X131770156Y-117335677D01*
X131882758Y-117310593D01*
X132034546Y-117276782D01*
X132034548Y-117276781D01*
X132034553Y-117276780D01*
X132287558Y-117180014D01*
X132523777Y-117047441D01*
X132738177Y-116881888D01*
X132926186Y-116686881D01*
X133083799Y-116466579D01*
X133193927Y-116252379D01*
X133207649Y-116225690D01*
X133207651Y-116225684D01*
X133207656Y-116225675D01*
X133295118Y-115969305D01*
X133344319Y-115702933D01*
X133354212Y-115432235D01*
X133324586Y-115162982D01*
X133256072Y-114900912D01*
X133150130Y-114651610D01*
X133009018Y-114420390D01*
X132971246Y-114375002D01*
X132835746Y-114212180D01*
X132835740Y-114212175D01*
X132634002Y-114031418D01*
X132408092Y-113881957D01*
X132408090Y-113881956D01*
X132162824Y-113766980D01*
X132162819Y-113766978D01*
X132162814Y-113766976D01*
X131903442Y-113688942D01*
X131903428Y-113688939D01*
X131787791Y-113671921D01*
X131635439Y-113649500D01*
X131432369Y-113649500D01*
X131432351Y-113649500D01*
X131229844Y-113664323D01*
X131229831Y-113664325D01*
X130965453Y-113723217D01*
X130965446Y-113723220D01*
X130712439Y-113819987D01*
X130476226Y-113952557D01*
X130476224Y-113952558D01*
X130476223Y-113952559D01*
X130413893Y-114000688D01*
X130261822Y-114118112D01*
X130073822Y-114313109D01*
X130073816Y-114313116D01*
X129916202Y-114533419D01*
X129916199Y-114533424D01*
X129792350Y-114774309D01*
X129792343Y-114774327D01*
X129704884Y-115030685D01*
X129704881Y-115030699D01*
X129685464Y-115135821D01*
X129666692Y-115237457D01*
X129655681Y-115297068D01*
X129655680Y-115297075D01*
X129645787Y-115567763D01*
X110616489Y-115567763D01*
X110599953Y-115502462D01*
X110536064Y-115404673D01*
X110523636Y-115395000D01*
X111275000Y-115395000D01*
X111275000Y-115097172D01*
X111274999Y-115097155D01*
X111268598Y-115037627D01*
X111268596Y-115037620D01*
X111218354Y-114902913D01*
X111218350Y-114902906D01*
X111132190Y-114787812D01*
X111132187Y-114787809D01*
X111041279Y-114719755D01*
X110999408Y-114663822D01*
X110994424Y-114594130D01*
X110998542Y-114579555D01*
X111011313Y-114543059D01*
X111011314Y-114543052D01*
X111030249Y-114375002D01*
X111030249Y-114374997D01*
X111011314Y-114206943D01*
X110967928Y-114082953D01*
X110955456Y-114047310D01*
X110955455Y-114047309D01*
X110955454Y-114047305D01*
X110955452Y-114047302D01*
X110865481Y-113904115D01*
X110865476Y-113904109D01*
X110745890Y-113784523D01*
X110745884Y-113784518D01*
X110602697Y-113694547D01*
X110602694Y-113694545D01*
X110443056Y-113638685D01*
X110275003Y-113619751D01*
X110274997Y-113619751D01*
X110106943Y-113638685D01*
X109947305Y-113694545D01*
X109947302Y-113694547D01*
X109804115Y-113784518D01*
X109804109Y-113784523D01*
X109727681Y-113860952D01*
X109666358Y-113894437D01*
X109596666Y-113889453D01*
X109552319Y-113860952D01*
X109475890Y-113784523D01*
X109475884Y-113784518D01*
X109332697Y-113694547D01*
X109332694Y-113694545D01*
X109173056Y-113638685D01*
X109005003Y-113619751D01*
X109004997Y-113619751D01*
X108836943Y-113638685D01*
X108677305Y-113694545D01*
X108677302Y-113694547D01*
X108534115Y-113784518D01*
X108534109Y-113784523D01*
X108457681Y-113860952D01*
X108396358Y-113894437D01*
X108326666Y-113889453D01*
X108282319Y-113860952D01*
X108205890Y-113784523D01*
X108205884Y-113784518D01*
X108062697Y-113694547D01*
X108062694Y-113694545D01*
X107903056Y-113638685D01*
X107735003Y-113619751D01*
X107734997Y-113619751D01*
X107566943Y-113638685D01*
X107407305Y-113694545D01*
X107407302Y-113694547D01*
X107264115Y-113784518D01*
X107264109Y-113784523D01*
X107144523Y-113904109D01*
X107144518Y-113904115D01*
X107054547Y-114047302D01*
X107054545Y-114047305D01*
X106998685Y-114206943D01*
X106979751Y-114374997D01*
X106979751Y-114375002D01*
X106998685Y-114543056D01*
X107054545Y-114702694D01*
X107054547Y-114702697D01*
X107144518Y-114845884D01*
X107144523Y-114845890D01*
X107220952Y-114922319D01*
X107254437Y-114983642D01*
X107249453Y-115053334D01*
X107220952Y-115097681D01*
X107144523Y-115174109D01*
X107144518Y-115174115D01*
X107054547Y-115317302D01*
X107054545Y-115317305D01*
X106998685Y-115476943D01*
X106979751Y-115644997D01*
X106979751Y-115645002D01*
X105887500Y-115645002D01*
X105887500Y-115064020D01*
X105907185Y-114996981D01*
X105944459Y-114959705D01*
X105995128Y-114927143D01*
X106089377Y-114818373D01*
X106149165Y-114687457D01*
X106169647Y-114545000D01*
X106149165Y-114402543D01*
X106089377Y-114271627D01*
X105995128Y-114162857D01*
X105874053Y-114085047D01*
X105874051Y-114085046D01*
X105874049Y-114085045D01*
X105874050Y-114085045D01*
X105735963Y-114044500D01*
X105735961Y-114044500D01*
X105592039Y-114044500D01*
X105592036Y-114044500D01*
X105453949Y-114085045D01*
X105332873Y-114162856D01*
X105238623Y-114271626D01*
X105238622Y-114271628D01*
X105215783Y-114321639D01*
X105170028Y-114374443D01*
X105102989Y-114394127D01*
X105035949Y-114374442D01*
X105015308Y-114357808D01*
X104989455Y-114331955D01*
X104973329Y-114312098D01*
X104968255Y-114304331D01*
X104945342Y-114286497D01*
X104935066Y-114277422D01*
X104934127Y-114276627D01*
X104934125Y-114276625D01*
X104918469Y-114265447D01*
X104914362Y-114262385D01*
X104908656Y-114257943D01*
X104875944Y-114232483D01*
X104875942Y-114232482D01*
X104869458Y-114228973D01*
X104862885Y-114225759D01*
X104816227Y-114211868D01*
X104811350Y-114210306D01*
X104765302Y-114194498D01*
X104758105Y-114193297D01*
X104750769Y-114192382D01*
X104702150Y-114194394D01*
X104697025Y-114194500D01*
X104581544Y-114194500D01*
X104514505Y-114174815D01*
X104493863Y-114158181D01*
X103729316Y-113393636D01*
X103713190Y-113373779D01*
X103708114Y-113366009D01*
X103687068Y-113349628D01*
X103685203Y-113348176D01*
X103674948Y-113339119D01*
X103673982Y-113338301D01*
X103658320Y-113327119D01*
X103654222Y-113324064D01*
X103627636Y-113303371D01*
X103615801Y-113294159D01*
X103609332Y-113290658D01*
X103602744Y-113287437D01*
X103556086Y-113273546D01*
X103551209Y-113271984D01*
X103505161Y-113256176D01*
X103497964Y-113254975D01*
X103490628Y-113254060D01*
X103442009Y-113256072D01*
X103436884Y-113256178D01*
X100976222Y-113256178D01*
X100909183Y-113236493D01*
X100888541Y-113219859D01*
X100739503Y-113070821D01*
X100706018Y-113009498D01*
X100704449Y-113000805D01*
X100688165Y-112887543D01*
X100628377Y-112756627D01*
X100534128Y-112647857D01*
X100413053Y-112570047D01*
X100413051Y-112570046D01*
X100413049Y-112570045D01*
X100413050Y-112570045D01*
X100274963Y-112529500D01*
X100274961Y-112529500D01*
X100131039Y-112529500D01*
X100131036Y-112529500D01*
X99992949Y-112570045D01*
X99871873Y-112647856D01*
X99777623Y-112756626D01*
X99777622Y-112756628D01*
X99717834Y-112887543D01*
X99697353Y-113030000D01*
X99717834Y-113172456D01*
X99763288Y-113271984D01*
X99777623Y-113303373D01*
X99871872Y-113412143D01*
X99871874Y-113412144D01*
X99871873Y-113412144D01*
X99928122Y-113448293D01*
X99973876Y-113501097D01*
X99983820Y-113570255D01*
X99954795Y-113633810D01*
X99868586Y-113733300D01*
X99868583Y-113733306D01*
X99808795Y-113864221D01*
X99788314Y-114006678D01*
X99808795Y-114149134D01*
X99864736Y-114271626D01*
X99868584Y-114280051D01*
X99962833Y-114388821D01*
X100083908Y-114466631D01*
X100083911Y-114466632D01*
X100083910Y-114466632D01*
X100146546Y-114485023D01*
X100219357Y-114506402D01*
X100221997Y-114507177D01*
X100221999Y-114507178D01*
X100222000Y-114507178D01*
X100365923Y-114507178D01*
X100365923Y-114507177D01*
X100504014Y-114466631D01*
X100625089Y-114388821D01*
X100625097Y-114388811D01*
X100626649Y-114387468D01*
X100628533Y-114386607D01*
X100632550Y-114384026D01*
X100632921Y-114384603D01*
X100690204Y-114358441D01*
X100707856Y-114357178D01*
X103084448Y-114357178D01*
X103151487Y-114376863D01*
X103172129Y-114393497D01*
X103258421Y-114479789D01*
X103291906Y-114541112D01*
X103286922Y-114610804D01*
X103245050Y-114666737D01*
X103237780Y-114671785D01*
X103173874Y-114712855D01*
X103079623Y-114821626D01*
X103079622Y-114821628D01*
X103019834Y-114952543D01*
X103003552Y-115065788D01*
X102974526Y-115129343D01*
X102968495Y-115135821D01*
X102328137Y-115776181D01*
X102266814Y-115809666D01*
X102240456Y-115812500D01*
X99219895Y-115812500D01*
X99152856Y-115792815D01*
X99138688Y-115782210D01*
X99137132Y-115780862D01*
X99137128Y-115780857D01*
X99016053Y-115703047D01*
X99016051Y-115703046D01*
X99016049Y-115703045D01*
X99016050Y-115703045D01*
X98877963Y-115662500D01*
X98877961Y-115662500D01*
X98734039Y-115662500D01*
X98734036Y-115662500D01*
X98595949Y-115703045D01*
X98474873Y-115780856D01*
X98380623Y-115889626D01*
X98380622Y-115889628D01*
X98320834Y-116020543D01*
X98300353Y-116163000D01*
X79729038Y-116163000D01*
X79795118Y-115969305D01*
X79844319Y-115702933D01*
X79854212Y-115432235D01*
X79824586Y-115162982D01*
X79756072Y-114900912D01*
X79650130Y-114651610D01*
X79509018Y-114420390D01*
X79471246Y-114375002D01*
X79335746Y-114212180D01*
X79335740Y-114212175D01*
X79134002Y-114031418D01*
X78908092Y-113881957D01*
X78908090Y-113881956D01*
X78662824Y-113766980D01*
X78662819Y-113766978D01*
X78662814Y-113766976D01*
X78403442Y-113688942D01*
X78403428Y-113688939D01*
X78287791Y-113671921D01*
X78135439Y-113649500D01*
X77932369Y-113649500D01*
X77932351Y-113649500D01*
X77729844Y-113664323D01*
X77729831Y-113664325D01*
X77465453Y-113723217D01*
X77465446Y-113723220D01*
X77212439Y-113819987D01*
X76976226Y-113952557D01*
X76976224Y-113952558D01*
X76976223Y-113952559D01*
X76913893Y-114000688D01*
X76761822Y-114118112D01*
X76573822Y-114313109D01*
X76573816Y-114313116D01*
X76416202Y-114533419D01*
X76416199Y-114533424D01*
X76292350Y-114774309D01*
X76292343Y-114774327D01*
X76204884Y-115030685D01*
X76204881Y-115030699D01*
X76185464Y-115135821D01*
X76166692Y-115237457D01*
X76155681Y-115297068D01*
X76155680Y-115297075D01*
X76145787Y-115567763D01*
X74800500Y-115567763D01*
X74800500Y-113623000D01*
X93601353Y-113623000D01*
X93621834Y-113765456D01*
X93675039Y-113881956D01*
X93681623Y-113896373D01*
X93775872Y-114005143D01*
X93896947Y-114082953D01*
X93896949Y-114082953D01*
X93900630Y-114085319D01*
X93921272Y-114101954D01*
X94713495Y-114894177D01*
X94746980Y-114955500D01*
X94748552Y-114964210D01*
X94764834Y-115077456D01*
X94791489Y-115135821D01*
X94824623Y-115208373D01*
X94918872Y-115317143D01*
X95039947Y-115394953D01*
X95039950Y-115394954D01*
X95039949Y-115394954D01*
X95147107Y-115426417D01*
X95166919Y-115432235D01*
X95178036Y-115435499D01*
X95178038Y-115435500D01*
X95178039Y-115435500D01*
X95321962Y-115435500D01*
X95321962Y-115435499D01*
X95460053Y-115394953D01*
X95581128Y-115317143D01*
X95675377Y-115208373D01*
X95735165Y-115077457D01*
X95753574Y-114949419D01*
X95782599Y-114885863D01*
X95841377Y-114848089D01*
X95876312Y-114843066D01*
X95999528Y-114843066D01*
X95999528Y-114843065D01*
X96137619Y-114802519D01*
X96258694Y-114724709D01*
X96352943Y-114615939D01*
X96412731Y-114485023D01*
X96433213Y-114342566D01*
X96412731Y-114200109D01*
X96352943Y-114069193D01*
X96258694Y-113960423D01*
X96137619Y-113882613D01*
X96137617Y-113882612D01*
X96137615Y-113882611D01*
X96137616Y-113882611D01*
X95999529Y-113842066D01*
X95999527Y-113842066D01*
X95974109Y-113842066D01*
X95907070Y-113822381D01*
X95886428Y-113805747D01*
X95024503Y-112943821D01*
X94991018Y-112882498D01*
X94989449Y-112873805D01*
X94973165Y-112760543D01*
X94913377Y-112629627D01*
X94820118Y-112522000D01*
X109219353Y-112522000D01*
X109239834Y-112664456D01*
X109283716Y-112760543D01*
X109299623Y-112795373D01*
X109393872Y-112904143D01*
X109514947Y-112981953D01*
X109514950Y-112981954D01*
X109514949Y-112981954D01*
X109608758Y-113009498D01*
X109651673Y-113022099D01*
X109653036Y-113022499D01*
X109653038Y-113022500D01*
X109653039Y-113022500D01*
X109796962Y-113022500D01*
X109796962Y-113022499D01*
X109935053Y-112981953D01*
X110056128Y-112904143D01*
X110056136Y-112904133D01*
X110057688Y-112902790D01*
X110059572Y-112901929D01*
X110063589Y-112899348D01*
X110063960Y-112899925D01*
X110121243Y-112873763D01*
X110138895Y-112872500D01*
X110411105Y-112872500D01*
X110478144Y-112892185D01*
X110492312Y-112902790D01*
X110493866Y-112904137D01*
X110493872Y-112904143D01*
X110614947Y-112981953D01*
X110614950Y-112981954D01*
X110614949Y-112981954D01*
X110708758Y-113009498D01*
X110751673Y-113022099D01*
X110753036Y-113022499D01*
X110753038Y-113022500D01*
X110753039Y-113022500D01*
X110896962Y-113022500D01*
X110896962Y-113022499D01*
X111035053Y-112981953D01*
X111156128Y-112904143D01*
X111250377Y-112795373D01*
X111310165Y-112664457D01*
X111330647Y-112522000D01*
X111310165Y-112379543D01*
X111250377Y-112248627D01*
X111156128Y-112139857D01*
X111035053Y-112062047D01*
X111035051Y-112062046D01*
X111035049Y-112062045D01*
X111035050Y-112062045D01*
X110896963Y-112021500D01*
X110896961Y-112021500D01*
X110753039Y-112021500D01*
X110753036Y-112021500D01*
X110614949Y-112062045D01*
X110493876Y-112139854D01*
X110493874Y-112139855D01*
X110493872Y-112139857D01*
X110493870Y-112139858D01*
X110492312Y-112141210D01*
X110490427Y-112142070D01*
X110486411Y-112144652D01*
X110486039Y-112144074D01*
X110428757Y-112170237D01*
X110411105Y-112171500D01*
X110138895Y-112171500D01*
X110071856Y-112151815D01*
X110057688Y-112141210D01*
X110056132Y-112139862D01*
X110056128Y-112139857D01*
X109935053Y-112062047D01*
X109935051Y-112062046D01*
X109935049Y-112062045D01*
X109935050Y-112062045D01*
X109796963Y-112021500D01*
X109796961Y-112021500D01*
X109653039Y-112021500D01*
X109653036Y-112021500D01*
X109514949Y-112062045D01*
X109393873Y-112139856D01*
X109393872Y-112139856D01*
X109393872Y-112139857D01*
X109390218Y-112144074D01*
X109299623Y-112248626D01*
X109299622Y-112248628D01*
X109239834Y-112379543D01*
X109219353Y-112522000D01*
X94820118Y-112522000D01*
X94819128Y-112520857D01*
X94698053Y-112443047D01*
X94698051Y-112443046D01*
X94698049Y-112443045D01*
X94698050Y-112443045D01*
X94559963Y-112402500D01*
X94559961Y-112402500D01*
X94416039Y-112402500D01*
X94416036Y-112402500D01*
X94277949Y-112443045D01*
X94156873Y-112520856D01*
X94062623Y-112629626D01*
X94062622Y-112629628D01*
X94002834Y-112760543D01*
X93982353Y-112903000D01*
X93999476Y-113022099D01*
X93989532Y-113091257D01*
X93943777Y-113144061D01*
X93911676Y-113158721D01*
X93896949Y-113163045D01*
X93775873Y-113240856D01*
X93681623Y-113349626D01*
X93681622Y-113349628D01*
X93621834Y-113480543D01*
X93601353Y-113623000D01*
X74800500Y-113623000D01*
X74800500Y-112242956D01*
X92839353Y-112242956D01*
X92859834Y-112385412D01*
X92867638Y-112402500D01*
X92919623Y-112516329D01*
X93013872Y-112625099D01*
X93134947Y-112702909D01*
X93134950Y-112702910D01*
X93134949Y-112702910D01*
X93273036Y-112743455D01*
X93273038Y-112743456D01*
X93273039Y-112743456D01*
X93416962Y-112743456D01*
X93416962Y-112743455D01*
X93555053Y-112702909D01*
X93676128Y-112625099D01*
X93770377Y-112516329D01*
X93830165Y-112385413D01*
X93850647Y-112242956D01*
X93830165Y-112100499D01*
X93827666Y-112091988D01*
X93830004Y-112091301D01*
X93822500Y-112056739D01*
X93822500Y-111548991D01*
X93842185Y-111481952D01*
X93852782Y-111467793D01*
X93897377Y-111416329D01*
X93957165Y-111285413D01*
X93977647Y-111142956D01*
X93957165Y-111000499D01*
X93897377Y-110869583D01*
X93803128Y-110760813D01*
X93682053Y-110683003D01*
X93682051Y-110683002D01*
X93682049Y-110683001D01*
X93682050Y-110683001D01*
X93543963Y-110642456D01*
X93543961Y-110642456D01*
X93400039Y-110642456D01*
X93400036Y-110642456D01*
X93261949Y-110683001D01*
X93140873Y-110760812D01*
X93046623Y-110869582D01*
X93046622Y-110869584D01*
X92986834Y-111000499D01*
X92966353Y-111142956D01*
X92986834Y-111285412D01*
X93046622Y-111416327D01*
X93046623Y-111416329D01*
X93091213Y-111467789D01*
X93120238Y-111531344D01*
X93121500Y-111548991D01*
X93121500Y-111723935D01*
X93101815Y-111790974D01*
X93064540Y-111828250D01*
X93013873Y-111860812D01*
X93013866Y-111860818D01*
X92919625Y-111969578D01*
X92919622Y-111969584D01*
X92859834Y-112100499D01*
X92839353Y-112242956D01*
X74800500Y-112242956D01*
X74800500Y-108555000D01*
X80153082Y-108555000D01*
X81886618Y-108555000D01*
X81847944Y-108648369D01*
X81827323Y-108805000D01*
X81847944Y-108961631D01*
X81886618Y-109055000D01*
X80154234Y-109055000D01*
X80189025Y-109216433D01*
X80277883Y-109437562D01*
X80402833Y-109640494D01*
X80560280Y-109819389D01*
X80560286Y-109819396D01*
X80745694Y-109969102D01*
X80745704Y-109969109D01*
X80953748Y-110085331D01*
X81178447Y-110164722D01*
X81178461Y-110164726D01*
X81413332Y-110204999D01*
X81413343Y-110205000D01*
X82182500Y-110205000D01*
X82182500Y-109350881D01*
X82275869Y-109389556D01*
X82393177Y-109405000D01*
X82471823Y-109405000D01*
X82589131Y-109389556D01*
X82682500Y-109350881D01*
X82682500Y-110205000D01*
X83391972Y-110205000D01*
X83391991Y-110204999D01*
X83569950Y-110189852D01*
X83569953Y-110189851D01*
X83800578Y-110129802D01*
X84017741Y-110031639D01*
X84017744Y-110031637D01*
X84215188Y-109898187D01*
X84215190Y-109898185D01*
X84387236Y-109733293D01*
X84528950Y-109541683D01*
X84603981Y-109392870D01*
X125017000Y-109392870D01*
X125017001Y-109392876D01*
X125023408Y-109452483D01*
X125073702Y-109587328D01*
X125073706Y-109587335D01*
X125159952Y-109702544D01*
X125159955Y-109702547D01*
X125275164Y-109788793D01*
X125275171Y-109788797D01*
X125410017Y-109839091D01*
X125410016Y-109839091D01*
X125416944Y-109839835D01*
X125469627Y-109845500D01*
X128665372Y-109845499D01*
X128724983Y-109839091D01*
X128859831Y-109788796D01*
X128975046Y-109702546D01*
X129061296Y-109587331D01*
X129111591Y-109452483D01*
X129118000Y-109392873D01*
X129117999Y-107997128D01*
X129111591Y-107937517D01*
X129061296Y-107802669D01*
X129061295Y-107802668D01*
X129061293Y-107802664D01*
X128975047Y-107687455D01*
X128975044Y-107687452D01*
X128859835Y-107601206D01*
X128859828Y-107601202D01*
X128724982Y-107550908D01*
X128724983Y-107550908D01*
X128665383Y-107544501D01*
X128665381Y-107544500D01*
X128665373Y-107544500D01*
X128665364Y-107544500D01*
X125469629Y-107544500D01*
X125469623Y-107544501D01*
X125410016Y-107550908D01*
X125275171Y-107601202D01*
X125275164Y-107601206D01*
X125159955Y-107687452D01*
X125159952Y-107687455D01*
X125073706Y-107802664D01*
X125073702Y-107802671D01*
X125023408Y-107937517D01*
X125017001Y-107997116D01*
X125017001Y-107997123D01*
X125017000Y-107997135D01*
X125017000Y-109392870D01*
X84603981Y-109392870D01*
X84636242Y-109328884D01*
X84706024Y-109101020D01*
X84711918Y-109055000D01*
X82978382Y-109055000D01*
X83017056Y-108961631D01*
X83037677Y-108805000D01*
X83017056Y-108648369D01*
X82978382Y-108555000D01*
X84710766Y-108555000D01*
X84710765Y-108554999D01*
X84675974Y-108393566D01*
X84587116Y-108172437D01*
X84462166Y-107969505D01*
X84304719Y-107790610D01*
X84304713Y-107790603D01*
X84119305Y-107640897D01*
X84119295Y-107640890D01*
X83911251Y-107524668D01*
X83686552Y-107445277D01*
X83686538Y-107445273D01*
X83451667Y-107405000D01*
X82682500Y-107405000D01*
X82682500Y-108259118D01*
X82589131Y-108220444D01*
X82471823Y-108205000D01*
X82393177Y-108205000D01*
X82275869Y-108220444D01*
X82182500Y-108259118D01*
X82182500Y-107405000D01*
X81473008Y-107405000D01*
X81295049Y-107420147D01*
X81295046Y-107420148D01*
X81064421Y-107480197D01*
X80847258Y-107578360D01*
X80847255Y-107578362D01*
X80649811Y-107711812D01*
X80649809Y-107711814D01*
X80477763Y-107876706D01*
X80336049Y-108068316D01*
X80228757Y-108281115D01*
X80158975Y-108508979D01*
X80153082Y-108555000D01*
X74800500Y-108555000D01*
X74800500Y-105411610D01*
X80382000Y-105411610D01*
X80421179Y-105621198D01*
X80498202Y-105820019D01*
X80610448Y-106001302D01*
X80754093Y-106158872D01*
X80924246Y-106287367D01*
X81115106Y-106382403D01*
X81115108Y-106382403D01*
X81115111Y-106382405D01*
X81320190Y-106440756D01*
X81479306Y-106455500D01*
X81479310Y-106455500D01*
X83385690Y-106455500D01*
X83385694Y-106455500D01*
X83544810Y-106440756D01*
X83749889Y-106382405D01*
X83749893Y-106382403D01*
X83749894Y-106382403D01*
X83940753Y-106287367D01*
X83940753Y-106287366D01*
X83940755Y-106287366D01*
X84110907Y-106158872D01*
X84254552Y-106001302D01*
X84366798Y-105820019D01*
X84399848Y-105734706D01*
X84442421Y-105679305D01*
X84508188Y-105655714D01*
X84515475Y-105655500D01*
X86276842Y-105655500D01*
X86343881Y-105675185D01*
X86370553Y-105698295D01*
X86451872Y-105792143D01*
X86572947Y-105869953D01*
X86572950Y-105869954D01*
X86572949Y-105869954D01*
X86711036Y-105910499D01*
X86711038Y-105910500D01*
X86711039Y-105910500D01*
X86854962Y-105910500D01*
X86854962Y-105910499D01*
X86993053Y-105869953D01*
X87114128Y-105792143D01*
X87208377Y-105683373D01*
X87268165Y-105552457D01*
X87288647Y-105410000D01*
X87273063Y-105301610D01*
X125017000Y-105301610D01*
X125056179Y-105511198D01*
X125056180Y-105511200D01*
X125122878Y-105683371D01*
X125133202Y-105710019D01*
X125245448Y-105891302D01*
X125345725Y-106001300D01*
X125389093Y-106048872D01*
X125559246Y-106177367D01*
X125750106Y-106272403D01*
X125750108Y-106272403D01*
X125750111Y-106272405D01*
X125955190Y-106330756D01*
X126114306Y-106345500D01*
X126114310Y-106345500D01*
X128020690Y-106345500D01*
X128020694Y-106345500D01*
X128179810Y-106330756D01*
X128384889Y-106272405D01*
X128384893Y-106272403D01*
X128384894Y-106272403D01*
X128575753Y-106177367D01*
X128575753Y-106177366D01*
X128575755Y-106177366D01*
X128745907Y-106048872D01*
X128889552Y-105891302D01*
X129001798Y-105710019D01*
X129078821Y-105511198D01*
X129118000Y-105301610D01*
X129118000Y-105088390D01*
X129078821Y-104878802D01*
X129001798Y-104679981D01*
X128889552Y-104498698D01*
X128745907Y-104341128D01*
X128745906Y-104341127D01*
X128575753Y-104212632D01*
X128384893Y-104117596D01*
X128179810Y-104059244D01*
X128020694Y-104044500D01*
X126114306Y-104044500D01*
X125987013Y-104056295D01*
X125955189Y-104059244D01*
X125750107Y-104117596D01*
X125750105Y-104117596D01*
X125559246Y-104212632D01*
X125389093Y-104341127D01*
X125245447Y-104498699D01*
X125133202Y-104679980D01*
X125133201Y-104679982D01*
X125057538Y-104875294D01*
X125056179Y-104878802D01*
X125017000Y-105088390D01*
X125017000Y-105301610D01*
X87273063Y-105301610D01*
X87268165Y-105267543D01*
X87208377Y-105136627D01*
X87114128Y-105027857D01*
X86993053Y-104950047D01*
X86993051Y-104950046D01*
X86993049Y-104950045D01*
X86993050Y-104950045D01*
X86854963Y-104909500D01*
X86854961Y-104909500D01*
X86711039Y-104909500D01*
X86711036Y-104909500D01*
X86574886Y-104949477D01*
X86539952Y-104954500D01*
X84515475Y-104954500D01*
X84448436Y-104934815D01*
X84402681Y-104882011D01*
X84399848Y-104875294D01*
X84366798Y-104789982D01*
X84366797Y-104789980D01*
X84298689Y-104679982D01*
X84254552Y-104608698D01*
X84110907Y-104451128D01*
X83965245Y-104341128D01*
X83940753Y-104322632D01*
X83749893Y-104227596D01*
X83544810Y-104169244D01*
X83385694Y-104154500D01*
X81479306Y-104154500D01*
X81352013Y-104166295D01*
X81320189Y-104169244D01*
X81115107Y-104227596D01*
X81115105Y-104227596D01*
X80924246Y-104322632D01*
X80754093Y-104451127D01*
X80610447Y-104608699D01*
X80498202Y-104789980D01*
X80498201Y-104789982D01*
X80421180Y-104988799D01*
X80421179Y-104988802D01*
X80382000Y-105198390D01*
X80382000Y-105411610D01*
X74800500Y-105411610D01*
X74800500Y-97409000D01*
X78719722Y-97409000D01*
X78738762Y-97565818D01*
X78794780Y-97713523D01*
X78794780Y-97713524D01*
X78852550Y-97797217D01*
X78874433Y-97863571D01*
X78874500Y-97867657D01*
X78874500Y-98680358D01*
X78871667Y-98706706D01*
X78870641Y-98711427D01*
X78870641Y-98711429D01*
X78870641Y-98711430D01*
X78874184Y-98760961D01*
X78874500Y-98769808D01*
X78874500Y-98783297D01*
X78876420Y-98796654D01*
X78877365Y-98805446D01*
X78880909Y-98854986D01*
X78882593Y-98859500D01*
X78889148Y-98885182D01*
X78889834Y-98889955D01*
X78910457Y-98935112D01*
X78913845Y-98943290D01*
X78931203Y-98989829D01*
X78934096Y-98993694D01*
X78947617Y-99016483D01*
X78949619Y-99020867D01*
X78949622Y-99020872D01*
X78949623Y-99020873D01*
X78982144Y-99058404D01*
X78987688Y-99065285D01*
X78995779Y-99076093D01*
X79005333Y-99085647D01*
X79011353Y-99092114D01*
X79043872Y-99129643D01*
X79043874Y-99129645D01*
X79047928Y-99132250D01*
X79068571Y-99148885D01*
X80726033Y-100806347D01*
X80759518Y-100867670D01*
X80754534Y-100937362D01*
X80729990Y-100977566D01*
X80610447Y-101108699D01*
X80498202Y-101289980D01*
X80498201Y-101289982D01*
X80462104Y-101383161D01*
X80421179Y-101488802D01*
X80382000Y-101698390D01*
X80382000Y-101911610D01*
X80421179Y-102121198D01*
X80441386Y-102173359D01*
X80466551Y-102238319D01*
X80498202Y-102320019D01*
X80610448Y-102501302D01*
X80749787Y-102654149D01*
X80754093Y-102658872D01*
X80924246Y-102787367D01*
X81115106Y-102882403D01*
X81115108Y-102882403D01*
X81115111Y-102882405D01*
X81320190Y-102940756D01*
X81479306Y-102955500D01*
X81479310Y-102955500D01*
X83385690Y-102955500D01*
X83385694Y-102955500D01*
X83544810Y-102940756D01*
X83749889Y-102882405D01*
X83749893Y-102882403D01*
X83749894Y-102882403D01*
X83940753Y-102787367D01*
X83940753Y-102787366D01*
X83940755Y-102787366D01*
X84110907Y-102658872D01*
X84254552Y-102501302D01*
X84366798Y-102320019D01*
X84443821Y-102121198D01*
X84470029Y-101981000D01*
X89791353Y-101981000D01*
X89811834Y-102123456D01*
X89851366Y-102210017D01*
X89871623Y-102254373D01*
X89965872Y-102363143D01*
X90086947Y-102440953D01*
X90086950Y-102440954D01*
X90086949Y-102440954D01*
X90225036Y-102481499D01*
X90225038Y-102481500D01*
X90225039Y-102481500D01*
X90368961Y-102481500D01*
X90380966Y-102477974D01*
X90450834Y-102477973D01*
X90509614Y-102515745D01*
X90528697Y-102545439D01*
X90529525Y-102547252D01*
X90589313Y-102678168D01*
X90683562Y-102786938D01*
X90804637Y-102864748D01*
X90804640Y-102864749D01*
X90804639Y-102864749D01*
X90903699Y-102893835D01*
X90939432Y-102904327D01*
X90942726Y-102905294D01*
X90942728Y-102905295D01*
X90942729Y-102905295D01*
X91086652Y-102905295D01*
X91086652Y-102905294D01*
X91211934Y-102868509D01*
X91224740Y-102864749D01*
X91224740Y-102864748D01*
X91224743Y-102864748D01*
X91345818Y-102786938D01*
X91345826Y-102786928D01*
X91347378Y-102785585D01*
X91349262Y-102784724D01*
X91353279Y-102782143D01*
X91353650Y-102782720D01*
X91410933Y-102756558D01*
X91428585Y-102755295D01*
X91586176Y-102755295D01*
X91611621Y-102757933D01*
X91620702Y-102759838D01*
X91620708Y-102759837D01*
X91630973Y-102760263D01*
X91630806Y-102764279D01*
X91679901Y-102772241D01*
X91731874Y-102818938D01*
X91739164Y-102832578D01*
X91753884Y-102864809D01*
X91768714Y-102897282D01*
X91862963Y-103006052D01*
X91984038Y-103083862D01*
X91984041Y-103083863D01*
X91984040Y-103083863D01*
X92122127Y-103124408D01*
X92122129Y-103124409D01*
X92122130Y-103124409D01*
X92266053Y-103124409D01*
X92266053Y-103124408D01*
X92404144Y-103083862D01*
X92525219Y-103006052D01*
X92537801Y-102991530D01*
X92572495Y-102963678D01*
X92579288Y-102960001D01*
X92579290Y-102960001D01*
X92622125Y-102936818D01*
X92626638Y-102934495D01*
X92670393Y-102913107D01*
X92670395Y-102913104D01*
X92676370Y-102908838D01*
X92682165Y-102904328D01*
X92682164Y-102904328D01*
X92682167Y-102904327D01*
X92715163Y-102868481D01*
X92718665Y-102864833D01*
X93071806Y-102511692D01*
X98300353Y-102511692D01*
X98320834Y-102654148D01*
X98379552Y-102782720D01*
X98380623Y-102785065D01*
X98474872Y-102893835D01*
X98595947Y-102971645D01*
X98595950Y-102971646D01*
X98595949Y-102971646D01*
X98734036Y-103012191D01*
X98734038Y-103012192D01*
X98734039Y-103012192D01*
X98877962Y-103012192D01*
X98877962Y-103012191D01*
X99016053Y-102971645D01*
X99137128Y-102893835D01*
X99156788Y-102871145D01*
X99215564Y-102833372D01*
X99285434Y-102833372D01*
X99344210Y-102871143D01*
X99363872Y-102893835D01*
X99363873Y-102893836D01*
X99381704Y-102905295D01*
X99484947Y-102971645D01*
X99484950Y-102971646D01*
X99484949Y-102971646D01*
X99623036Y-103012191D01*
X99623038Y-103012192D01*
X99623039Y-103012192D01*
X99766962Y-103012192D01*
X99766962Y-103012191D01*
X99905053Y-102971645D01*
X100026128Y-102893835D01*
X100120377Y-102785065D01*
X100180165Y-102654149D01*
X100200647Y-102511692D01*
X100180165Y-102369235D01*
X100120377Y-102238319D01*
X100120374Y-102238315D01*
X100075786Y-102186856D01*
X100046762Y-102123300D01*
X100045500Y-102105655D01*
X100045500Y-101961692D01*
X102853045Y-101961692D01*
X102873526Y-102104148D01*
X102911298Y-102186856D01*
X102933315Y-102235065D01*
X103027564Y-102343835D01*
X103148639Y-102421645D01*
X103148642Y-102421646D01*
X103148641Y-102421646D01*
X103286728Y-102462191D01*
X103286730Y-102462192D01*
X103286731Y-102462192D01*
X103312148Y-102462192D01*
X103379187Y-102481877D01*
X103399829Y-102498511D01*
X104260557Y-103359239D01*
X104285670Y-103395407D01*
X104340318Y-103515067D01*
X104340319Y-103515069D01*
X104434568Y-103623839D01*
X104555643Y-103701649D01*
X104555646Y-103701650D01*
X104555645Y-103701650D01*
X104693732Y-103742195D01*
X104693734Y-103742196D01*
X104693735Y-103742196D01*
X104837658Y-103742196D01*
X104837658Y-103742195D01*
X104975749Y-103701649D01*
X105096824Y-103623839D01*
X105191073Y-103515069D01*
X105250861Y-103384153D01*
X105271343Y-103241696D01*
X105250861Y-103099239D01*
X105191073Y-102968323D01*
X105096824Y-102859553D01*
X104975749Y-102781743D01*
X104975747Y-102781742D01*
X104975745Y-102781741D01*
X104975746Y-102781741D01*
X104837659Y-102741196D01*
X104837657Y-102741196D01*
X104693735Y-102741196D01*
X104685240Y-102741196D01*
X104618201Y-102721511D01*
X104597559Y-102704877D01*
X103895195Y-102002513D01*
X103861710Y-101941190D01*
X103860141Y-101932497D01*
X103843857Y-101819235D01*
X103835808Y-101801610D01*
X125017000Y-101801610D01*
X125056179Y-102011198D01*
X125133202Y-102210019D01*
X125245448Y-102391302D01*
X125327674Y-102481499D01*
X125389093Y-102548872D01*
X125559246Y-102677367D01*
X125750106Y-102772403D01*
X125750108Y-102772403D01*
X125750111Y-102772405D01*
X125955190Y-102830756D01*
X126114306Y-102845500D01*
X126114310Y-102845500D01*
X128020690Y-102845500D01*
X128020694Y-102845500D01*
X128179810Y-102830756D01*
X128384889Y-102772405D01*
X128384893Y-102772403D01*
X128384894Y-102772403D01*
X128575753Y-102677367D01*
X128575753Y-102677366D01*
X128575755Y-102677366D01*
X128745907Y-102548872D01*
X128889552Y-102391302D01*
X129001798Y-102210019D01*
X129078821Y-102011198D01*
X129118000Y-101801610D01*
X129118000Y-101588390D01*
X129078821Y-101378802D01*
X129001798Y-101179981D01*
X128889552Y-100998698D01*
X128745907Y-100841128D01*
X128744629Y-100840163D01*
X128575753Y-100712632D01*
X128384893Y-100617596D01*
X128179810Y-100559244D01*
X128020694Y-100544500D01*
X126114306Y-100544500D01*
X125987013Y-100556295D01*
X125955189Y-100559244D01*
X125750107Y-100617596D01*
X125750105Y-100617596D01*
X125559246Y-100712632D01*
X125389093Y-100841127D01*
X125245447Y-100998699D01*
X125133202Y-101179980D01*
X125133201Y-101179982D01*
X125062899Y-101361456D01*
X125056179Y-101378802D01*
X125017000Y-101588390D01*
X125017000Y-101801610D01*
X103835808Y-101801610D01*
X103784069Y-101688319D01*
X103689820Y-101579549D01*
X103568745Y-101501739D01*
X103568743Y-101501738D01*
X103568741Y-101501737D01*
X103568742Y-101501737D01*
X103430655Y-101461192D01*
X103430653Y-101461192D01*
X103286731Y-101461192D01*
X103286728Y-101461192D01*
X103148641Y-101501737D01*
X103027565Y-101579548D01*
X102933315Y-101688318D01*
X102933314Y-101688320D01*
X102873526Y-101819235D01*
X102853045Y-101961692D01*
X100045500Y-101961692D01*
X100045500Y-101450200D01*
X100065185Y-101383161D01*
X100075780Y-101369005D01*
X100157127Y-101275126D01*
X100216915Y-101144210D01*
X100237397Y-101001753D01*
X100216915Y-100859296D01*
X100157127Y-100728380D01*
X100062878Y-100619610D01*
X99941803Y-100541800D01*
X99941801Y-100541799D01*
X99941799Y-100541798D01*
X99941800Y-100541798D01*
X99803713Y-100501253D01*
X99803711Y-100501253D01*
X99659789Y-100501253D01*
X99659786Y-100501253D01*
X99521699Y-100541798D01*
X99400623Y-100619609D01*
X99306373Y-100728379D01*
X99243281Y-100866529D01*
X99197525Y-100919332D01*
X99130486Y-100939016D01*
X99063448Y-100919332D01*
X99023959Y-100893954D01*
X98885872Y-100853409D01*
X98885870Y-100853409D01*
X98741948Y-100853409D01*
X98741945Y-100853409D01*
X98603858Y-100893954D01*
X98482782Y-100971765D01*
X98388532Y-101080535D01*
X98388531Y-101080537D01*
X98328743Y-101211452D01*
X98308262Y-101353909D01*
X98328743Y-101496365D01*
X98388531Y-101627280D01*
X98388532Y-101627282D01*
X98425212Y-101669613D01*
X98454238Y-101733168D01*
X98455500Y-101750816D01*
X98455500Y-102105655D01*
X98435815Y-102172694D01*
X98425214Y-102186856D01*
X98380625Y-102238315D01*
X98380622Y-102238320D01*
X98320834Y-102369235D01*
X98300353Y-102511692D01*
X93071806Y-102511692D01*
X93881102Y-101702396D01*
X93942423Y-101668913D01*
X94012115Y-101673897D01*
X94020290Y-101677284D01*
X94023945Y-101678953D01*
X94162036Y-101719499D01*
X94162038Y-101719500D01*
X94162039Y-101719500D01*
X94305962Y-101719500D01*
X94305962Y-101719499D01*
X94444053Y-101678953D01*
X94565128Y-101601143D01*
X94659377Y-101492373D01*
X94719165Y-101361457D01*
X94739647Y-101219000D01*
X94719165Y-101076543D01*
X94659377Y-100945627D01*
X94565128Y-100836857D01*
X94444053Y-100759047D01*
X94444051Y-100759046D01*
X94444049Y-100759045D01*
X94444050Y-100759045D01*
X94305963Y-100718500D01*
X94305961Y-100718500D01*
X94162039Y-100718500D01*
X94162036Y-100718500D01*
X94023949Y-100759045D01*
X94023948Y-100759045D01*
X93902866Y-100836860D01*
X93899055Y-100840163D01*
X93838274Y-100868750D01*
X93820813Y-100871664D01*
X93815741Y-100872403D01*
X93767423Y-100878426D01*
X93760402Y-100880516D01*
X93753435Y-100882908D01*
X93710630Y-100906072D01*
X93706079Y-100908415D01*
X93662331Y-100929803D01*
X93656384Y-100934047D01*
X93650556Y-100938584D01*
X93617598Y-100974386D01*
X93614051Y-100978083D01*
X93297874Y-101294260D01*
X93236551Y-101327745D01*
X93166859Y-101322761D01*
X93116480Y-101287782D01*
X93064838Y-101228184D01*
X93035813Y-101164628D01*
X93045757Y-101095470D01*
X93064836Y-101065781D01*
X93122964Y-100998699D01*
X93135374Y-100984377D01*
X93135374Y-100984375D01*
X93135377Y-100984373D01*
X93195165Y-100853457D01*
X93215647Y-100711000D01*
X93195165Y-100568543D01*
X93135377Y-100437627D01*
X93041128Y-100328857D01*
X92920053Y-100251047D01*
X92920051Y-100251046D01*
X92920049Y-100251045D01*
X92920050Y-100251045D01*
X92781963Y-100210500D01*
X92781961Y-100210500D01*
X92638039Y-100210500D01*
X92638036Y-100210500D01*
X92499949Y-100251045D01*
X92378876Y-100328854D01*
X92378874Y-100328855D01*
X92378872Y-100328857D01*
X92378870Y-100328858D01*
X92377312Y-100330210D01*
X92375427Y-100331070D01*
X92371411Y-100333652D01*
X92371039Y-100333074D01*
X92313757Y-100359237D01*
X92296105Y-100360500D01*
X91616206Y-100360500D01*
X91590761Y-100357861D01*
X91590016Y-100357704D01*
X91581685Y-100355958D01*
X91581684Y-100355958D01*
X91552884Y-100359548D01*
X91539181Y-100360398D01*
X91537962Y-100360499D01*
X91518990Y-100363665D01*
X91513923Y-100364403D01*
X91465605Y-100370426D01*
X91458584Y-100372516D01*
X91451617Y-100374908D01*
X91408812Y-100398072D01*
X91404261Y-100400415D01*
X91360513Y-100421803D01*
X91354566Y-100426047D01*
X91348738Y-100430584D01*
X91315780Y-100466386D01*
X91312233Y-100470083D01*
X90338137Y-101444181D01*
X90276814Y-101477666D01*
X90250456Y-101480500D01*
X90225036Y-101480500D01*
X90086949Y-101521045D01*
X89965873Y-101598856D01*
X89871623Y-101707626D01*
X89871622Y-101707628D01*
X89811834Y-101838543D01*
X89791353Y-101981000D01*
X84470029Y-101981000D01*
X84483000Y-101911610D01*
X84483000Y-101698390D01*
X84443821Y-101488802D01*
X84366798Y-101289981D01*
X84254552Y-101108698D01*
X84110907Y-100951128D01*
X84103623Y-100945627D01*
X83940753Y-100822632D01*
X83749893Y-100727596D01*
X83544810Y-100669244D01*
X83385694Y-100654500D01*
X83385690Y-100654500D01*
X82041176Y-100654500D01*
X81974137Y-100634815D01*
X81953495Y-100618181D01*
X81002494Y-99667180D01*
X80969009Y-99605857D01*
X80973993Y-99536165D01*
X81015865Y-99480232D01*
X81081329Y-99455815D01*
X81090149Y-99455499D01*
X84030372Y-99455499D01*
X84089983Y-99449091D01*
X84224831Y-99398796D01*
X84340046Y-99312546D01*
X84364410Y-99280000D01*
X120883722Y-99280000D01*
X120902762Y-99436818D01*
X120940440Y-99536165D01*
X120958780Y-99584523D01*
X121048517Y-99714530D01*
X121166760Y-99819283D01*
X121166762Y-99819284D01*
X121306634Y-99892696D01*
X121460014Y-99930500D01*
X121460015Y-99930500D01*
X121617985Y-99930500D01*
X121771365Y-99892696D01*
X121865776Y-99843144D01*
X121934281Y-99829419D01*
X121999334Y-99854911D01*
X122025448Y-99882499D01*
X122032513Y-99892734D01*
X122150756Y-99997487D01*
X122150758Y-99997488D01*
X122290630Y-100070900D01*
X122444010Y-100108704D01*
X122444011Y-100108704D01*
X122601981Y-100108704D01*
X122755361Y-100070900D01*
X122895236Y-99997487D01*
X123013479Y-99892734D01*
X123013481Y-99892730D01*
X123013483Y-99892729D01*
X123018453Y-99887120D01*
X123020828Y-99889224D01*
X123063866Y-99854286D01*
X123133308Y-99846567D01*
X123169357Y-99858878D01*
X123194044Y-99871835D01*
X123278597Y-99916212D01*
X123380850Y-99941414D01*
X123431976Y-99954016D01*
X123431977Y-99954016D01*
X123589947Y-99954016D01*
X123743327Y-99916212D01*
X123788062Y-99892733D01*
X123883202Y-99842799D01*
X124001445Y-99738046D01*
X124091182Y-99608039D01*
X124147199Y-99460334D01*
X124166240Y-99303516D01*
X124162463Y-99272405D01*
X124147199Y-99146697D01*
X124120420Y-99076088D01*
X124091182Y-98998993D01*
X124001445Y-98868986D01*
X123903234Y-98781979D01*
X123866109Y-98722792D01*
X123861462Y-98689165D01*
X123861462Y-98635954D01*
X123881147Y-98568915D01*
X123897781Y-98548273D01*
X124357664Y-98088390D01*
X124974341Y-97471712D01*
X125035662Y-97438229D01*
X125105354Y-97443213D01*
X125161287Y-97485085D01*
X125185704Y-97550549D01*
X125170852Y-97618822D01*
X125167448Y-97624672D01*
X125133201Y-97679982D01*
X125056180Y-97878799D01*
X125056179Y-97878802D01*
X125017000Y-98088390D01*
X125017000Y-98301610D01*
X125056179Y-98511198D01*
X125081479Y-98576505D01*
X125131921Y-98706714D01*
X125133202Y-98710019D01*
X125245448Y-98891302D01*
X125389093Y-99048872D01*
X125559246Y-99177367D01*
X125750106Y-99272403D01*
X125750108Y-99272403D01*
X125750111Y-99272405D01*
X125955190Y-99330756D01*
X126114306Y-99345500D01*
X126114310Y-99345500D01*
X128020690Y-99345500D01*
X128020694Y-99345500D01*
X128179810Y-99330756D01*
X128384889Y-99272405D01*
X128384893Y-99272403D01*
X128384894Y-99272403D01*
X128575753Y-99177367D01*
X128575753Y-99177366D01*
X128575755Y-99177366D01*
X128745907Y-99048872D01*
X128889552Y-98891302D01*
X129001798Y-98710019D01*
X129078821Y-98511198D01*
X129118000Y-98301610D01*
X129118000Y-98088390D01*
X129078821Y-97878802D01*
X129001798Y-97679981D01*
X128889552Y-97498698D01*
X128745907Y-97341128D01*
X128745906Y-97341127D01*
X128575753Y-97212632D01*
X128384893Y-97117596D01*
X128179810Y-97059244D01*
X128020694Y-97044500D01*
X128020690Y-97044500D01*
X127350743Y-97044500D01*
X127283704Y-97024815D01*
X127237949Y-96972011D01*
X127228005Y-96902853D01*
X127257030Y-96839297D01*
X127272573Y-96825373D01*
X127272304Y-96825069D01*
X127277916Y-96820096D01*
X127277918Y-96820096D01*
X127396161Y-96715343D01*
X127485898Y-96585336D01*
X127541915Y-96437631D01*
X127560956Y-96280813D01*
X127541915Y-96123995D01*
X127485898Y-95976290D01*
X127396161Y-95846283D01*
X127277918Y-95741530D01*
X127277916Y-95741529D01*
X127277915Y-95741528D01*
X127138043Y-95668116D01*
X126984664Y-95630313D01*
X126984663Y-95630313D01*
X126826693Y-95630313D01*
X126826692Y-95630313D01*
X126726469Y-95655015D01*
X126656667Y-95651946D01*
X126599605Y-95611625D01*
X126580853Y-95578588D01*
X126575103Y-95563427D01*
X126575103Y-95563426D01*
X126485366Y-95433419D01*
X126485365Y-95433417D01*
X126483487Y-95431754D01*
X126482506Y-95430190D01*
X126480392Y-95427804D01*
X126480788Y-95427452D01*
X126446360Y-95372565D01*
X126447127Y-95302699D01*
X126463661Y-95268501D01*
X126529220Y-95173523D01*
X126585237Y-95025818D01*
X126604278Y-94869000D01*
X126585237Y-94712182D01*
X126529220Y-94564477D01*
X126439483Y-94434470D01*
X126321240Y-94329717D01*
X126321238Y-94329716D01*
X126321237Y-94329715D01*
X126181365Y-94256303D01*
X126027986Y-94218500D01*
X126027985Y-94218500D01*
X125870015Y-94218500D01*
X125870014Y-94218500D01*
X125716634Y-94256303D01*
X125576762Y-94329715D01*
X125458516Y-94434471D01*
X125368781Y-94564475D01*
X125368780Y-94564476D01*
X125312762Y-94712181D01*
X125293722Y-94868999D01*
X125293722Y-94869000D01*
X125303832Y-94952273D01*
X125292371Y-95021196D01*
X125268417Y-95054899D01*
X121728274Y-98595042D01*
X121666951Y-98628527D01*
X121625721Y-98628004D01*
X121625430Y-98630404D01*
X121617985Y-98629500D01*
X121460015Y-98629500D01*
X121460014Y-98629500D01*
X121306634Y-98667303D01*
X121166762Y-98740715D01*
X121048516Y-98845471D01*
X120958781Y-98975475D01*
X120958780Y-98975476D01*
X120902762Y-99123181D01*
X120883722Y-99279999D01*
X120883722Y-99280000D01*
X84364410Y-99280000D01*
X84426296Y-99197331D01*
X84476591Y-99062483D01*
X84483000Y-99002873D01*
X84482999Y-97607128D01*
X84476591Y-97547517D01*
X84453305Y-97485085D01*
X84426297Y-97412671D01*
X84426293Y-97412664D01*
X84340047Y-97297455D01*
X84340044Y-97297452D01*
X84224835Y-97211206D01*
X84224828Y-97211202D01*
X84089982Y-97160908D01*
X84089983Y-97160908D01*
X84030383Y-97154501D01*
X84030381Y-97154500D01*
X84030373Y-97154500D01*
X84030364Y-97154500D01*
X80834629Y-97154500D01*
X80834623Y-97154501D01*
X80775016Y-97160908D01*
X80640171Y-97211202D01*
X80640164Y-97211206D01*
X80524955Y-97297452D01*
X80524952Y-97297455D01*
X80438706Y-97412664D01*
X80438702Y-97412671D01*
X80388408Y-97547517D01*
X80386441Y-97565818D01*
X80382001Y-97607123D01*
X80382000Y-97607135D01*
X80382000Y-98747324D01*
X80362315Y-98814363D01*
X80309511Y-98860118D01*
X80240353Y-98870062D01*
X80176797Y-98841037D01*
X80170319Y-98835005D01*
X79911819Y-98576505D01*
X79878334Y-98515182D01*
X79875500Y-98488824D01*
X79875500Y-97867657D01*
X79895185Y-97800618D01*
X79897450Y-97797217D01*
X79955219Y-97713524D01*
X79955220Y-97713523D01*
X80011237Y-97565818D01*
X80030278Y-97409000D01*
X80011237Y-97252182D01*
X79996238Y-97212634D01*
X79976621Y-97160908D01*
X79955220Y-97104477D01*
X79865483Y-96974470D01*
X79747240Y-96869717D01*
X79747238Y-96869716D01*
X79747237Y-96869715D01*
X79607365Y-96796303D01*
X79453986Y-96758500D01*
X79453985Y-96758500D01*
X79296015Y-96758500D01*
X79296014Y-96758500D01*
X79142634Y-96796303D01*
X79002762Y-96869715D01*
X79002760Y-96869717D01*
X78904550Y-96956723D01*
X78884516Y-96974471D01*
X78794781Y-97104475D01*
X78794780Y-97104476D01*
X78738762Y-97252181D01*
X78719722Y-97408999D01*
X78719722Y-97409000D01*
X74800500Y-97409000D01*
X74800500Y-89869798D01*
X89837555Y-89869798D01*
X89858036Y-90012254D01*
X89917824Y-90143169D01*
X89917825Y-90143171D01*
X90012074Y-90251941D01*
X90133149Y-90329751D01*
X90133152Y-90329752D01*
X90133151Y-90329752D01*
X90271238Y-90370297D01*
X90271240Y-90370298D01*
X90271241Y-90370298D01*
X90415164Y-90370298D01*
X90415164Y-90370297D01*
X90553255Y-90329751D01*
X90674330Y-90251941D01*
X90768579Y-90143171D01*
X90828367Y-90012255D01*
X90844649Y-89899006D01*
X90873672Y-89835454D01*
X90879691Y-89828989D01*
X91298571Y-89410109D01*
X91359892Y-89376626D01*
X91421185Y-89378815D01*
X91495038Y-89400500D01*
X91495039Y-89400500D01*
X91638962Y-89400500D01*
X91638962Y-89400499D01*
X91777053Y-89359953D01*
X91898128Y-89282143D01*
X91992377Y-89173373D01*
X92052165Y-89042457D01*
X92072647Y-88900000D01*
X92052165Y-88757543D01*
X91992377Y-88626627D01*
X91898128Y-88517857D01*
X91777053Y-88440047D01*
X91777051Y-88440046D01*
X91777049Y-88440045D01*
X91777050Y-88440045D01*
X91638963Y-88399500D01*
X91638961Y-88399500D01*
X91495039Y-88399500D01*
X91495036Y-88399500D01*
X91356949Y-88440045D01*
X91235872Y-88517856D01*
X91235871Y-88517857D01*
X91209316Y-88548502D01*
X91174627Y-88576349D01*
X91154816Y-88587071D01*
X91150257Y-88589418D01*
X91106510Y-88610805D01*
X91100566Y-88615047D01*
X91094738Y-88619584D01*
X91061780Y-88655386D01*
X91058233Y-88659083D01*
X90384339Y-89332979D01*
X90323016Y-89366464D01*
X90296658Y-89369298D01*
X90271238Y-89369298D01*
X90133151Y-89409843D01*
X90012075Y-89487654D01*
X89917825Y-89596424D01*
X89917824Y-89596426D01*
X89858036Y-89727341D01*
X89837555Y-89869798D01*
X74800500Y-89869798D01*
X74800500Y-87757000D01*
X99244353Y-87757000D01*
X99264834Y-87899456D01*
X99324622Y-88030371D01*
X99324623Y-88030373D01*
X99369213Y-88081833D01*
X99398238Y-88145388D01*
X99399500Y-88163035D01*
X99399500Y-92842788D01*
X99396861Y-92868232D01*
X99394957Y-92877311D01*
X99394957Y-92877316D01*
X99398548Y-92906121D01*
X99399396Y-92919795D01*
X99399499Y-92921032D01*
X99402666Y-92940015D01*
X99403403Y-92945077D01*
X99409426Y-92993390D01*
X99411524Y-93000435D01*
X99413907Y-93007377D01*
X99413908Y-93007381D01*
X99413909Y-93007382D01*
X99428408Y-93034174D01*
X99440628Y-93082432D01*
X99442091Y-93082222D01*
X99463834Y-93233456D01*
X99523622Y-93364371D01*
X99523623Y-93364373D01*
X99617872Y-93473143D01*
X99738947Y-93550953D01*
X99738950Y-93550954D01*
X99738949Y-93550954D01*
X99877036Y-93591499D01*
X99877038Y-93591500D01*
X99877039Y-93591500D01*
X100020962Y-93591500D01*
X100020962Y-93591499D01*
X100159053Y-93550953D01*
X100280128Y-93473143D01*
X100374377Y-93364373D01*
X100434165Y-93233457D01*
X100454647Y-93091000D01*
X100434165Y-92948543D01*
X100374377Y-92817627D01*
X100280128Y-92708857D01*
X100159053Y-92631047D01*
X100159052Y-92631046D01*
X100157461Y-92630024D01*
X100111706Y-92577220D01*
X100100500Y-92525708D01*
X100100500Y-88163035D01*
X100120185Y-88095996D01*
X100130782Y-88081837D01*
X100175377Y-88030373D01*
X100235165Y-87899457D01*
X100255647Y-87757000D01*
X100235165Y-87614543D01*
X100175377Y-87483627D01*
X100081128Y-87374857D01*
X99960053Y-87297047D01*
X99960051Y-87297046D01*
X99960049Y-87297045D01*
X99960050Y-87297045D01*
X99821963Y-87256500D01*
X99821961Y-87256500D01*
X99678039Y-87256500D01*
X99678036Y-87256500D01*
X99539949Y-87297045D01*
X99418873Y-87374856D01*
X99324623Y-87483626D01*
X99324622Y-87483628D01*
X99264834Y-87614543D01*
X99244353Y-87757000D01*
X74800500Y-87757000D01*
X74800500Y-83058000D01*
X85658222Y-83058000D01*
X85677262Y-83214818D01*
X85699417Y-83273234D01*
X85733280Y-83362523D01*
X85823017Y-83492530D01*
X85941260Y-83597283D01*
X85941262Y-83597284D01*
X86081134Y-83670696D01*
X86234514Y-83708500D01*
X86234515Y-83708500D01*
X86392485Y-83708500D01*
X86545865Y-83670696D01*
X86552877Y-83668037D01*
X86553569Y-83669862D01*
X86599666Y-83658500D01*
X94449413Y-83658500D01*
X94465597Y-83659560D01*
X94496900Y-83663682D01*
X94496901Y-83663682D01*
X94549154Y-83656802D01*
X94653662Y-83643044D01*
X94799741Y-83582536D01*
X94925182Y-83486282D01*
X94944409Y-83461223D01*
X94955083Y-83449050D01*
X95033367Y-83370766D01*
X95094689Y-83337284D01*
X95121046Y-83334450D01*
X97503834Y-83334450D01*
X97549930Y-83345812D01*
X97550623Y-83343987D01*
X97557634Y-83346646D01*
X97711014Y-83384450D01*
X97711015Y-83384450D01*
X97868985Y-83384450D01*
X98022365Y-83346646D01*
X98031150Y-83342035D01*
X98162240Y-83273233D01*
X98280483Y-83168480D01*
X98370220Y-83038473D01*
X98426237Y-82890768D01*
X98445278Y-82733950D01*
X98431864Y-82623470D01*
X98426237Y-82577131D01*
X98404082Y-82518715D01*
X98370220Y-82429427D01*
X98280483Y-82299420D01*
X98162240Y-82194667D01*
X98162238Y-82194666D01*
X98162237Y-82194665D01*
X98022365Y-82121253D01*
X97868986Y-82083450D01*
X97868985Y-82083450D01*
X97711015Y-82083450D01*
X97711014Y-82083450D01*
X97557634Y-82121253D01*
X97550623Y-82123913D01*
X97549930Y-82122087D01*
X97503834Y-82133450D01*
X95107116Y-82133450D01*
X95061019Y-82122087D01*
X95060327Y-82123913D01*
X95053315Y-82121253D01*
X94899936Y-82083450D01*
X94899935Y-82083450D01*
X94741965Y-82083450D01*
X94741964Y-82083450D01*
X94588584Y-82121253D01*
X94448712Y-82194665D01*
X94330466Y-82299421D01*
X94258322Y-82403940D01*
X94204039Y-82447930D01*
X94156272Y-82457500D01*
X86599666Y-82457500D01*
X86553569Y-82446137D01*
X86552877Y-82447963D01*
X86545865Y-82445303D01*
X86392486Y-82407500D01*
X86392485Y-82407500D01*
X86234515Y-82407500D01*
X86234514Y-82407500D01*
X86081134Y-82445303D01*
X85941262Y-82518715D01*
X85823016Y-82623471D01*
X85733281Y-82753475D01*
X85733280Y-82753476D01*
X85677262Y-82901181D01*
X85658222Y-83057999D01*
X85658222Y-83058000D01*
X74800500Y-83058000D01*
X74800500Y-76667058D01*
X103274287Y-76667058D01*
X103294768Y-76809514D01*
X103315254Y-76854371D01*
X103354557Y-76940431D01*
X103448806Y-77049201D01*
X103569881Y-77127011D01*
X103569884Y-77127012D01*
X103569883Y-77127012D01*
X103707970Y-77167557D01*
X103707972Y-77167558D01*
X103707973Y-77167558D01*
X103851896Y-77167558D01*
X103851896Y-77167557D01*
X103989987Y-77127011D01*
X104111062Y-77049201D01*
X104175966Y-76974296D01*
X104234744Y-76936523D01*
X104269679Y-76931500D01*
X106139105Y-76931500D01*
X106206144Y-76951185D01*
X106220312Y-76961790D01*
X106221866Y-76963137D01*
X106221872Y-76963143D01*
X106342947Y-77040953D01*
X106342950Y-77040954D01*
X106342949Y-77040954D01*
X106481036Y-77081499D01*
X106481038Y-77081500D01*
X106481039Y-77081500D01*
X106624962Y-77081500D01*
X106624962Y-77081499D01*
X106763053Y-77040953D01*
X106884128Y-76963143D01*
X106978377Y-76854373D01*
X107038165Y-76723457D01*
X107058647Y-76581000D01*
X107038165Y-76438543D01*
X106978377Y-76307627D01*
X106884128Y-76198857D01*
X106763053Y-76121047D01*
X106763051Y-76121046D01*
X106763049Y-76121045D01*
X106763050Y-76121045D01*
X106624963Y-76080500D01*
X106624961Y-76080500D01*
X106481039Y-76080500D01*
X106481036Y-76080500D01*
X106342949Y-76121045D01*
X106221876Y-76198854D01*
X106221874Y-76198855D01*
X106221872Y-76198857D01*
X106221870Y-76198858D01*
X106220312Y-76200210D01*
X106218427Y-76201070D01*
X106214411Y-76203652D01*
X106214039Y-76203074D01*
X106156757Y-76229237D01*
X106139105Y-76230500D01*
X104062800Y-76230500D01*
X103995761Y-76210815D01*
X103995760Y-76210815D01*
X103989985Y-76207103D01*
X103851897Y-76166558D01*
X103851895Y-76166558D01*
X103707973Y-76166558D01*
X103707970Y-76166558D01*
X103569883Y-76207103D01*
X103448807Y-76284914D01*
X103354557Y-76393684D01*
X103354556Y-76393686D01*
X103294768Y-76524601D01*
X103274287Y-76667058D01*
X74800500Y-76667058D01*
X74800500Y-71812686D01*
X103068667Y-71812686D01*
X103089148Y-71955142D01*
X103148936Y-72086057D01*
X103148937Y-72086059D01*
X103243186Y-72194829D01*
X103364261Y-72272639D01*
X103364264Y-72272640D01*
X103364263Y-72272640D01*
X103502350Y-72313185D01*
X103502352Y-72313186D01*
X103502353Y-72313186D01*
X103646276Y-72313186D01*
X103646276Y-72313185D01*
X103784367Y-72272639D01*
X103905442Y-72194829D01*
X103999691Y-72086059D01*
X104059479Y-71955143D01*
X104075761Y-71841894D01*
X104104784Y-71778342D01*
X104110803Y-71771877D01*
X105179863Y-70702819D01*
X105241186Y-70669334D01*
X105267544Y-70666500D01*
X105932933Y-70666500D01*
X105999972Y-70686185D01*
X106045727Y-70738989D01*
X106055671Y-70808147D01*
X106047353Y-70866000D01*
X106067834Y-71008456D01*
X106127622Y-71139371D01*
X106127623Y-71139373D01*
X106172213Y-71190833D01*
X106201238Y-71254388D01*
X106202500Y-71272035D01*
X106202500Y-72263458D01*
X106182815Y-72330497D01*
X106166181Y-72351139D01*
X105267139Y-73250181D01*
X105205816Y-73283666D01*
X105179458Y-73286500D01*
X105154038Y-73286500D01*
X105015951Y-73327045D01*
X104894875Y-73404856D01*
X104800625Y-73513626D01*
X104800624Y-73513628D01*
X104740836Y-73644543D01*
X104720355Y-73787000D01*
X104740836Y-73929456D01*
X104800624Y-74060371D01*
X104800625Y-74060373D01*
X104894874Y-74169143D01*
X105015949Y-74246953D01*
X105015952Y-74246954D01*
X105015951Y-74246954D01*
X105154038Y-74287499D01*
X105154040Y-74287500D01*
X105303828Y-74287500D01*
X105370867Y-74307185D01*
X105416622Y-74359989D01*
X105426566Y-74393854D01*
X105432834Y-74437456D01*
X105492622Y-74568371D01*
X105492623Y-74568373D01*
X105586872Y-74677143D01*
X105707947Y-74754953D01*
X105707950Y-74754954D01*
X105707949Y-74754954D01*
X105846036Y-74795499D01*
X105846038Y-74795500D01*
X105846039Y-74795500D01*
X105989962Y-74795500D01*
X105989962Y-74795499D01*
X106128053Y-74754953D01*
X106249128Y-74677143D01*
X106343377Y-74568373D01*
X106403165Y-74437457D01*
X106419447Y-74324208D01*
X106448470Y-74260656D01*
X106454489Y-74254191D01*
X107401046Y-73307634D01*
X107420902Y-73291511D01*
X107428669Y-73286437D01*
X107446496Y-73263531D01*
X107455551Y-73253279D01*
X107456365Y-73252316D01*
X107456375Y-73252307D01*
X107467576Y-73236616D01*
X107470572Y-73232597D01*
X107500517Y-73194126D01*
X107500519Y-73194118D01*
X107504013Y-73187661D01*
X107507235Y-73181070D01*
X107507239Y-73181066D01*
X107521133Y-73134393D01*
X107522679Y-73129567D01*
X107538500Y-73083488D01*
X107538500Y-73083482D01*
X107539706Y-73076256D01*
X107540617Y-73068952D01*
X107538606Y-73020332D01*
X107538500Y-73015207D01*
X107538500Y-71907035D01*
X107558185Y-71839996D01*
X107568782Y-71825837D01*
X107613377Y-71774373D01*
X107673165Y-71643457D01*
X107693647Y-71501000D01*
X107693647Y-71500999D01*
X107693647Y-71492131D01*
X107696972Y-71492131D01*
X107704634Y-71438954D01*
X107750405Y-71386164D01*
X107801666Y-71371120D01*
X107801184Y-71367762D01*
X107809956Y-71366500D01*
X107809961Y-71366500D01*
X107948053Y-71325953D01*
X108069128Y-71248143D01*
X108163377Y-71139373D01*
X108223165Y-71008457D01*
X108243647Y-70866000D01*
X108223165Y-70723543D01*
X108163377Y-70592627D01*
X108069128Y-70483857D01*
X107948053Y-70406047D01*
X107948051Y-70406046D01*
X107948049Y-70406045D01*
X107948050Y-70406045D01*
X107809963Y-70365500D01*
X107809961Y-70365500D01*
X107784544Y-70365500D01*
X107717505Y-70345815D01*
X107696863Y-70329181D01*
X107470637Y-70102955D01*
X107454511Y-70083098D01*
X107449437Y-70075331D01*
X107426524Y-70057497D01*
X107416248Y-70048422D01*
X107415309Y-70047627D01*
X107415307Y-70047625D01*
X107399651Y-70036447D01*
X107395544Y-70033385D01*
X107387085Y-70026801D01*
X107357126Y-70003483D01*
X107357124Y-70003482D01*
X107350640Y-69999973D01*
X107344067Y-69996759D01*
X107297409Y-69982868D01*
X107292532Y-69981306D01*
X107246484Y-69965498D01*
X107239287Y-69964297D01*
X107231951Y-69963382D01*
X107183332Y-69965394D01*
X107178207Y-69965500D01*
X105120211Y-69965500D01*
X105094765Y-69962861D01*
X105085685Y-69960957D01*
X105085684Y-69960957D01*
X105085683Y-69960957D01*
X105056877Y-69964548D01*
X105043196Y-69965397D01*
X105041966Y-69965499D01*
X105022989Y-69968665D01*
X105017926Y-69969402D01*
X104969611Y-69975425D01*
X104962566Y-69977522D01*
X104955617Y-69979908D01*
X104912804Y-70003077D01*
X104908252Y-70005420D01*
X104864517Y-70026801D01*
X104858515Y-70031085D01*
X104852743Y-70035579D01*
X104819769Y-70071398D01*
X104816222Y-70075095D01*
X103615451Y-71275867D01*
X103554128Y-71309352D01*
X103527770Y-71312186D01*
X103502350Y-71312186D01*
X103364263Y-71352731D01*
X103243187Y-71430542D01*
X103148937Y-71539312D01*
X103148936Y-71539314D01*
X103089148Y-71670229D01*
X103068667Y-71812686D01*
X74800500Y-71812686D01*
X74800500Y-68961000D01*
X79123353Y-68961000D01*
X79143834Y-69103456D01*
X79168508Y-69157483D01*
X79203623Y-69234373D01*
X79297872Y-69343143D01*
X79418947Y-69420953D01*
X79418950Y-69420954D01*
X79418949Y-69420954D01*
X79557036Y-69461499D01*
X79557038Y-69461500D01*
X79557039Y-69461500D01*
X79700962Y-69461500D01*
X79700962Y-69461499D01*
X79820856Y-69426296D01*
X79839050Y-69420954D01*
X79839050Y-69420953D01*
X79839053Y-69420953D01*
X79960128Y-69343143D01*
X80054377Y-69234373D01*
X80114165Y-69103457D01*
X80134647Y-68961000D01*
X80125876Y-68899999D01*
X80901353Y-68899999D01*
X80906500Y-68935798D01*
X80921834Y-69042456D01*
X80949693Y-69103457D01*
X80981623Y-69173373D01*
X81075872Y-69282143D01*
X81196947Y-69359953D01*
X81196950Y-69359954D01*
X81196949Y-69359954D01*
X81335036Y-69400499D01*
X81335038Y-69400500D01*
X81335039Y-69400500D01*
X81478962Y-69400500D01*
X81478962Y-69400499D01*
X81617053Y-69359953D01*
X81738128Y-69282143D01*
X81832377Y-69173373D01*
X81892165Y-69042457D01*
X81907500Y-68935799D01*
X81907500Y-68935798D01*
X81912647Y-68900000D01*
X81908762Y-68872977D01*
X81907500Y-68855331D01*
X81907500Y-68453194D01*
X83544500Y-68453194D01*
X83559244Y-68612310D01*
X83580672Y-68687622D01*
X83617596Y-68817392D01*
X83617596Y-68817394D01*
X83712632Y-69008253D01*
X83784527Y-69103456D01*
X83841128Y-69178407D01*
X83998698Y-69322052D01*
X84179981Y-69434298D01*
X84378802Y-69511321D01*
X84588390Y-69550500D01*
X84588392Y-69550500D01*
X84801608Y-69550500D01*
X84801610Y-69550500D01*
X85011198Y-69511321D01*
X85210019Y-69434298D01*
X85391302Y-69322052D01*
X85548872Y-69178407D01*
X85677366Y-69008255D01*
X85710978Y-68940753D01*
X85772403Y-68817394D01*
X85772403Y-68817393D01*
X85772405Y-68817389D01*
X85830756Y-68612310D01*
X85845500Y-68453194D01*
X87044500Y-68453194D01*
X87059244Y-68612310D01*
X87080672Y-68687622D01*
X87117596Y-68817392D01*
X87117596Y-68817394D01*
X87212632Y-69008253D01*
X87284527Y-69103456D01*
X87341128Y-69178407D01*
X87498698Y-69322052D01*
X87679981Y-69434298D01*
X87878802Y-69511321D01*
X88088390Y-69550500D01*
X88088392Y-69550500D01*
X88301608Y-69550500D01*
X88301610Y-69550500D01*
X88511198Y-69511321D01*
X88710019Y-69434298D01*
X88891302Y-69322052D01*
X89048872Y-69178407D01*
X89177366Y-69008255D01*
X89210978Y-68940753D01*
X89272403Y-68817394D01*
X89272403Y-68817393D01*
X89272405Y-68817389D01*
X89330756Y-68612310D01*
X89345500Y-68453194D01*
X90544500Y-68453194D01*
X90559244Y-68612310D01*
X90580672Y-68687622D01*
X90617596Y-68817392D01*
X90617596Y-68817394D01*
X90712632Y-69008253D01*
X90784527Y-69103456D01*
X90841128Y-69178407D01*
X90998698Y-69322052D01*
X91179981Y-69434298D01*
X91378802Y-69511321D01*
X91588390Y-69550500D01*
X91588392Y-69550500D01*
X91801608Y-69550500D01*
X91801610Y-69550500D01*
X92011198Y-69511321D01*
X92210019Y-69434298D01*
X92391302Y-69322052D01*
X92548872Y-69178407D01*
X92609691Y-69097870D01*
X94044500Y-69097870D01*
X94044501Y-69097876D01*
X94050908Y-69157483D01*
X94101202Y-69292328D01*
X94101206Y-69292335D01*
X94187452Y-69407544D01*
X94187455Y-69407547D01*
X94302664Y-69493793D01*
X94302671Y-69493797D01*
X94437517Y-69544091D01*
X94437516Y-69544091D01*
X94444444Y-69544835D01*
X94497127Y-69550500D01*
X95892872Y-69550499D01*
X95952483Y-69544091D01*
X96087331Y-69493796D01*
X96202546Y-69407546D01*
X96288796Y-69292331D01*
X96339091Y-69157483D01*
X96345500Y-69097873D01*
X96345500Y-68385694D01*
X112544500Y-68385694D01*
X112555990Y-68509688D01*
X112559244Y-68544810D01*
X112617596Y-68749892D01*
X112617596Y-68749894D01*
X112712632Y-68940753D01*
X112835501Y-69103456D01*
X112841128Y-69110907D01*
X112998698Y-69254552D01*
X113179981Y-69366798D01*
X113378802Y-69443821D01*
X113588390Y-69483000D01*
X113588392Y-69483000D01*
X113801608Y-69483000D01*
X113801610Y-69483000D01*
X114011198Y-69443821D01*
X114210019Y-69366798D01*
X114391302Y-69254552D01*
X114548872Y-69110907D01*
X114677366Y-68940755D01*
X114738793Y-68817392D01*
X114772403Y-68749894D01*
X114772403Y-68749893D01*
X114772405Y-68749889D01*
X114830756Y-68544810D01*
X114845500Y-68385694D01*
X116044500Y-68385694D01*
X116055990Y-68509688D01*
X116059244Y-68544810D01*
X116117596Y-68749892D01*
X116117596Y-68749894D01*
X116212632Y-68940753D01*
X116335501Y-69103456D01*
X116341128Y-69110907D01*
X116498698Y-69254552D01*
X116679981Y-69366798D01*
X116878802Y-69443821D01*
X117088390Y-69483000D01*
X117088392Y-69483000D01*
X117301608Y-69483000D01*
X117301610Y-69483000D01*
X117511198Y-69443821D01*
X117710019Y-69366798D01*
X117891302Y-69254552D01*
X118048872Y-69110907D01*
X118177366Y-68940755D01*
X118238793Y-68817392D01*
X118272403Y-68749894D01*
X118272403Y-68749893D01*
X118272405Y-68749889D01*
X118330756Y-68544810D01*
X118345500Y-68385694D01*
X119544500Y-68385694D01*
X119555990Y-68509688D01*
X119559244Y-68544810D01*
X119617596Y-68749892D01*
X119617596Y-68749894D01*
X119712632Y-68940753D01*
X119835501Y-69103456D01*
X119841128Y-69110907D01*
X119998698Y-69254552D01*
X120179981Y-69366798D01*
X120378802Y-69443821D01*
X120588390Y-69483000D01*
X120588392Y-69483000D01*
X120801608Y-69483000D01*
X120801610Y-69483000D01*
X121011198Y-69443821D01*
X121210019Y-69366798D01*
X121391302Y-69254552D01*
X121548872Y-69110907D01*
X121609691Y-69030370D01*
X123044500Y-69030370D01*
X123044501Y-69030376D01*
X123050908Y-69089983D01*
X123101202Y-69224828D01*
X123101206Y-69224835D01*
X123187452Y-69340044D01*
X123187455Y-69340047D01*
X123302664Y-69426293D01*
X123302671Y-69426297D01*
X123437517Y-69476591D01*
X123437516Y-69476591D01*
X123444444Y-69477335D01*
X123497127Y-69483000D01*
X124892872Y-69482999D01*
X124952483Y-69476591D01*
X125087331Y-69426296D01*
X125202546Y-69340046D01*
X125288796Y-69224831D01*
X125339091Y-69089983D01*
X125345500Y-69030373D01*
X125345499Y-65834628D01*
X125339091Y-65775017D01*
X125335940Y-65766570D01*
X125288797Y-65640171D01*
X125288793Y-65640164D01*
X125202547Y-65524955D01*
X125202544Y-65524952D01*
X125087335Y-65438706D01*
X125087328Y-65438702D01*
X124952482Y-65388408D01*
X124952483Y-65388408D01*
X124892883Y-65382001D01*
X124892881Y-65382000D01*
X124892873Y-65382000D01*
X124892864Y-65382000D01*
X123497129Y-65382000D01*
X123497123Y-65382001D01*
X123437516Y-65388408D01*
X123302671Y-65438702D01*
X123302664Y-65438706D01*
X123187455Y-65524952D01*
X123187452Y-65524955D01*
X123101206Y-65640164D01*
X123101202Y-65640171D01*
X123050908Y-65775017D01*
X123045901Y-65821593D01*
X123044501Y-65834623D01*
X123044500Y-65834635D01*
X123044500Y-69030370D01*
X121609691Y-69030370D01*
X121677366Y-68940755D01*
X121738793Y-68817392D01*
X121772403Y-68749894D01*
X121772403Y-68749893D01*
X121772405Y-68749889D01*
X121830756Y-68544810D01*
X121845500Y-68385694D01*
X121845500Y-66479306D01*
X121830756Y-66320190D01*
X121772405Y-66115111D01*
X121772403Y-66115106D01*
X121772403Y-66115105D01*
X121677367Y-65924246D01*
X121548872Y-65754093D01*
X121497950Y-65707671D01*
X121391302Y-65610448D01*
X121210019Y-65498202D01*
X121210017Y-65498201D01*
X121084306Y-65449501D01*
X121011198Y-65421179D01*
X120801610Y-65382000D01*
X120588390Y-65382000D01*
X120378802Y-65421179D01*
X120378799Y-65421179D01*
X120378799Y-65421180D01*
X120179982Y-65498201D01*
X120179980Y-65498202D01*
X119998699Y-65610447D01*
X119841127Y-65754093D01*
X119712632Y-65924246D01*
X119617596Y-66115105D01*
X119617596Y-66115107D01*
X119617595Y-66115111D01*
X119559244Y-66320190D01*
X119544500Y-66479306D01*
X119544500Y-68385694D01*
X118345500Y-68385694D01*
X118345500Y-66479306D01*
X118330756Y-66320190D01*
X118272405Y-66115111D01*
X118272403Y-66115106D01*
X118272403Y-66115105D01*
X118177367Y-65924246D01*
X118048872Y-65754093D01*
X117997950Y-65707671D01*
X117891302Y-65610448D01*
X117710019Y-65498202D01*
X117710017Y-65498201D01*
X117584306Y-65449501D01*
X117511198Y-65421179D01*
X117301610Y-65382000D01*
X117088390Y-65382000D01*
X116878802Y-65421179D01*
X116878799Y-65421179D01*
X116878799Y-65421180D01*
X116679982Y-65498201D01*
X116679980Y-65498202D01*
X116498699Y-65610447D01*
X116341127Y-65754093D01*
X116212632Y-65924246D01*
X116117596Y-66115105D01*
X116117596Y-66115107D01*
X116117595Y-66115111D01*
X116059244Y-66320190D01*
X116044500Y-66479306D01*
X116044500Y-68385694D01*
X114845500Y-68385694D01*
X114845500Y-66479306D01*
X114830756Y-66320190D01*
X114772405Y-66115111D01*
X114772403Y-66115106D01*
X114772403Y-66115105D01*
X114677367Y-65924246D01*
X114548872Y-65754093D01*
X114497950Y-65707671D01*
X114391302Y-65610448D01*
X114210019Y-65498202D01*
X114210017Y-65498201D01*
X114084306Y-65449501D01*
X114011198Y-65421179D01*
X113801610Y-65382000D01*
X113588390Y-65382000D01*
X113378802Y-65421179D01*
X113378799Y-65421179D01*
X113378799Y-65421180D01*
X113179982Y-65498201D01*
X113179980Y-65498202D01*
X112998699Y-65610447D01*
X112841127Y-65754093D01*
X112712632Y-65924246D01*
X112617596Y-66115105D01*
X112617596Y-66115107D01*
X112617595Y-66115111D01*
X112559244Y-66320190D01*
X112544500Y-66479306D01*
X112544500Y-68385694D01*
X96345500Y-68385694D01*
X96345499Y-67290000D01*
X101629364Y-67290000D01*
X101686567Y-67503486D01*
X101686570Y-67503492D01*
X101786399Y-67717578D01*
X101921894Y-67911082D01*
X102088917Y-68078105D01*
X102282421Y-68213600D01*
X102496507Y-68313429D01*
X102496516Y-68313433D01*
X102710000Y-68370634D01*
X102710000Y-67475501D01*
X102817685Y-67524680D01*
X102924237Y-67540000D01*
X102995763Y-67540000D01*
X103102315Y-67524680D01*
X103210000Y-67475501D01*
X103210000Y-68370633D01*
X103423483Y-68313433D01*
X103423492Y-68313429D01*
X103637578Y-68213600D01*
X103831082Y-68078105D01*
X103998105Y-67911082D01*
X104128425Y-67724968D01*
X104183002Y-67681344D01*
X104252501Y-67674151D01*
X104314855Y-67705673D01*
X104331575Y-67724968D01*
X104461894Y-67911082D01*
X104628917Y-68078105D01*
X104822421Y-68213600D01*
X105036507Y-68313429D01*
X105036516Y-68313433D01*
X105250000Y-68370634D01*
X105250000Y-67475501D01*
X105357685Y-67524680D01*
X105464237Y-67540000D01*
X105535763Y-67540000D01*
X105642315Y-67524680D01*
X105750000Y-67475501D01*
X105750000Y-68370633D01*
X105963483Y-68313433D01*
X105963492Y-68313429D01*
X106177578Y-68213600D01*
X106371082Y-68078105D01*
X106538105Y-67911082D01*
X106673600Y-67717578D01*
X106773429Y-67503492D01*
X106773432Y-67503486D01*
X106830636Y-67290000D01*
X105933686Y-67290000D01*
X105959493Y-67249844D01*
X106000000Y-67111889D01*
X106000000Y-66968111D01*
X105959493Y-66830156D01*
X105933686Y-66790000D01*
X106830636Y-66790000D01*
X106830635Y-66789999D01*
X106773432Y-66576513D01*
X106773429Y-66576507D01*
X106673600Y-66362422D01*
X106673599Y-66362420D01*
X106538113Y-66168926D01*
X106538108Y-66168920D01*
X106371082Y-66001894D01*
X106177578Y-65866399D01*
X105963492Y-65766570D01*
X105963477Y-65766564D01*
X105924414Y-65756097D01*
X105864754Y-65719732D01*
X105834226Y-65656885D01*
X105842521Y-65587509D01*
X105887007Y-65533632D01*
X105911710Y-65520698D01*
X105992637Y-65489348D01*
X106166041Y-65381981D01*
X106316764Y-65244579D01*
X106439673Y-65081821D01*
X106530582Y-64899250D01*
X106586397Y-64703083D01*
X106605215Y-64500000D01*
X106586397Y-64296917D01*
X106530582Y-64100750D01*
X106439673Y-63918179D01*
X106316764Y-63755421D01*
X106316762Y-63755418D01*
X106166041Y-63618019D01*
X106166039Y-63618017D01*
X105992642Y-63510655D01*
X105992635Y-63510651D01*
X105885894Y-63469300D01*
X105802456Y-63436976D01*
X105601976Y-63399500D01*
X105398024Y-63399500D01*
X105197544Y-63436976D01*
X105197541Y-63436976D01*
X105197541Y-63436977D01*
X105007364Y-63510651D01*
X105007357Y-63510655D01*
X104833960Y-63618017D01*
X104833958Y-63618019D01*
X104683237Y-63755418D01*
X104560327Y-63918178D01*
X104469422Y-64100739D01*
X104469417Y-64100752D01*
X104413602Y-64296917D01*
X104394785Y-64499999D01*
X104394785Y-64500000D01*
X104413602Y-64703082D01*
X104469417Y-64899247D01*
X104469422Y-64899260D01*
X104560327Y-65081821D01*
X104683237Y-65244581D01*
X104833958Y-65381980D01*
X104833960Y-65381982D01*
X104925567Y-65438702D01*
X105007363Y-65489348D01*
X105088283Y-65520696D01*
X105143685Y-65563269D01*
X105167276Y-65629035D01*
X105151565Y-65697116D01*
X105101542Y-65745895D01*
X105075586Y-65756097D01*
X105036519Y-65766565D01*
X105036507Y-65766570D01*
X104822422Y-65866399D01*
X104822420Y-65866400D01*
X104628926Y-66001886D01*
X104628920Y-66001891D01*
X104461891Y-66168920D01*
X104461890Y-66168922D01*
X104331575Y-66355031D01*
X104276998Y-66398655D01*
X104207499Y-66405848D01*
X104145145Y-66374326D01*
X104128425Y-66355031D01*
X103998109Y-66168922D01*
X103998108Y-66168920D01*
X103831082Y-66001894D01*
X103637578Y-65866399D01*
X103423492Y-65766570D01*
X103423477Y-65766564D01*
X103384414Y-65756097D01*
X103324754Y-65719732D01*
X103294226Y-65656885D01*
X103302521Y-65587509D01*
X103347007Y-65533632D01*
X103371710Y-65520698D01*
X103452637Y-65489348D01*
X103626041Y-65381981D01*
X103776764Y-65244579D01*
X103899673Y-65081821D01*
X103990582Y-64899250D01*
X104046397Y-64703083D01*
X104065215Y-64500000D01*
X104046397Y-64296917D01*
X103990582Y-64100750D01*
X103899673Y-63918179D01*
X103776764Y-63755421D01*
X103776762Y-63755418D01*
X103626041Y-63618019D01*
X103626039Y-63618017D01*
X103452642Y-63510655D01*
X103452635Y-63510651D01*
X103345894Y-63469300D01*
X103262456Y-63436976D01*
X103061976Y-63399500D01*
X102858024Y-63399500D01*
X102657544Y-63436976D01*
X102657541Y-63436976D01*
X102657541Y-63436977D01*
X102467364Y-63510651D01*
X102467357Y-63510655D01*
X102293960Y-63618017D01*
X102293958Y-63618019D01*
X102143237Y-63755418D01*
X102020327Y-63918178D01*
X101929422Y-64100739D01*
X101929417Y-64100752D01*
X101873602Y-64296917D01*
X101854785Y-64499999D01*
X101854785Y-64500000D01*
X101873602Y-64703082D01*
X101929417Y-64899247D01*
X101929422Y-64899260D01*
X102020327Y-65081821D01*
X102143237Y-65244581D01*
X102293958Y-65381980D01*
X102293960Y-65381982D01*
X102385567Y-65438702D01*
X102467363Y-65489348D01*
X102548283Y-65520696D01*
X102603685Y-65563269D01*
X102627276Y-65629035D01*
X102611565Y-65697116D01*
X102561542Y-65745895D01*
X102535586Y-65756097D01*
X102496519Y-65766565D01*
X102496507Y-65766570D01*
X102282422Y-65866399D01*
X102282420Y-65866400D01*
X102088926Y-66001886D01*
X102088920Y-66001891D01*
X101921891Y-66168920D01*
X101921886Y-66168926D01*
X101786400Y-66362420D01*
X101786399Y-66362422D01*
X101686570Y-66576507D01*
X101686567Y-66576513D01*
X101629364Y-66789999D01*
X101629364Y-66790000D01*
X102526314Y-66790000D01*
X102500507Y-66830156D01*
X102460000Y-66968111D01*
X102460000Y-67111889D01*
X102500507Y-67249844D01*
X102526314Y-67290000D01*
X101629364Y-67290000D01*
X96345499Y-67290000D01*
X96345499Y-65902128D01*
X96339091Y-65842517D01*
X96336151Y-65834635D01*
X96288797Y-65707671D01*
X96288793Y-65707664D01*
X96202547Y-65592455D01*
X96202544Y-65592452D01*
X96087335Y-65506206D01*
X96087328Y-65506202D01*
X95952482Y-65455908D01*
X95952483Y-65455908D01*
X95892883Y-65449501D01*
X95892881Y-65449500D01*
X95892873Y-65449500D01*
X95892864Y-65449500D01*
X94497129Y-65449500D01*
X94497123Y-65449501D01*
X94437516Y-65455908D01*
X94302671Y-65506202D01*
X94302664Y-65506206D01*
X94187455Y-65592452D01*
X94187452Y-65592455D01*
X94101206Y-65707664D01*
X94101202Y-65707671D01*
X94050908Y-65842517D01*
X94048341Y-65866399D01*
X94044501Y-65902123D01*
X94044500Y-65902135D01*
X94044500Y-69097870D01*
X92609691Y-69097870D01*
X92677366Y-69008255D01*
X92710978Y-68940753D01*
X92772403Y-68817394D01*
X92772403Y-68817393D01*
X92772405Y-68817389D01*
X92830756Y-68612310D01*
X92845500Y-68453194D01*
X92845500Y-66546806D01*
X92830756Y-66387690D01*
X92772405Y-66182611D01*
X92772403Y-66182606D01*
X92772403Y-66182605D01*
X92677367Y-65991746D01*
X92548872Y-65821593D01*
X92488515Y-65766570D01*
X92391302Y-65677948D01*
X92210019Y-65565702D01*
X92210017Y-65565701D01*
X92093844Y-65520696D01*
X92011198Y-65488679D01*
X91801610Y-65449500D01*
X91588390Y-65449500D01*
X91378802Y-65488679D01*
X91378799Y-65488679D01*
X91378799Y-65488680D01*
X91179982Y-65565701D01*
X91179980Y-65565702D01*
X90998699Y-65677947D01*
X90841127Y-65821593D01*
X90712632Y-65991746D01*
X90617596Y-66182605D01*
X90617596Y-66182607D01*
X90578450Y-66320190D01*
X90559244Y-66387690D01*
X90544500Y-66546806D01*
X90544500Y-68453194D01*
X89345500Y-68453194D01*
X89345500Y-66546806D01*
X89330756Y-66387690D01*
X89272405Y-66182611D01*
X89272403Y-66182606D01*
X89272403Y-66182605D01*
X89177367Y-65991746D01*
X89048872Y-65821593D01*
X88988515Y-65766570D01*
X88891302Y-65677948D01*
X88710019Y-65565702D01*
X88710017Y-65565701D01*
X88593844Y-65520696D01*
X88511198Y-65488679D01*
X88301610Y-65449500D01*
X88088390Y-65449500D01*
X87878802Y-65488679D01*
X87878799Y-65488679D01*
X87878799Y-65488680D01*
X87679982Y-65565701D01*
X87679980Y-65565702D01*
X87498699Y-65677947D01*
X87341127Y-65821593D01*
X87212632Y-65991746D01*
X87117596Y-66182605D01*
X87117596Y-66182607D01*
X87078450Y-66320190D01*
X87059244Y-66387690D01*
X87044500Y-66546806D01*
X87044500Y-68453194D01*
X85845500Y-68453194D01*
X85845500Y-66546806D01*
X85830756Y-66387690D01*
X85772405Y-66182611D01*
X85772403Y-66182606D01*
X85772403Y-66182605D01*
X85677367Y-65991746D01*
X85548872Y-65821593D01*
X85488515Y-65766570D01*
X85391302Y-65677948D01*
X85210019Y-65565702D01*
X85210017Y-65565701D01*
X85093844Y-65520696D01*
X85011198Y-65488679D01*
X84801610Y-65449500D01*
X84588390Y-65449500D01*
X84378802Y-65488679D01*
X84378799Y-65488679D01*
X84378799Y-65488680D01*
X84179982Y-65565701D01*
X84179980Y-65565702D01*
X83998699Y-65677947D01*
X83841127Y-65821593D01*
X83712632Y-65991746D01*
X83617596Y-66182605D01*
X83617596Y-66182607D01*
X83578450Y-66320190D01*
X83559244Y-66387690D01*
X83544500Y-66546806D01*
X83544500Y-68453194D01*
X81907500Y-68453194D01*
X81907500Y-66719667D01*
X81908762Y-66702020D01*
X81912647Y-66675000D01*
X81904993Y-66621768D01*
X81892165Y-66532543D01*
X81867852Y-66479306D01*
X81832379Y-66401630D01*
X81832376Y-66401626D01*
X81829802Y-66398655D01*
X81738128Y-66292857D01*
X81617053Y-66215047D01*
X81617051Y-66215046D01*
X81617049Y-66215045D01*
X81617050Y-66215045D01*
X81478963Y-66174500D01*
X81478961Y-66174500D01*
X81335039Y-66174500D01*
X81335036Y-66174500D01*
X81196949Y-66215045D01*
X81075873Y-66292856D01*
X80981623Y-66401626D01*
X80981620Y-66401630D01*
X80921836Y-66532539D01*
X80921834Y-66532548D01*
X80909007Y-66621766D01*
X80909007Y-66621767D01*
X80901353Y-66674999D01*
X80905238Y-66702020D01*
X80906500Y-66719667D01*
X80906500Y-68855331D01*
X80905238Y-68872977D01*
X80901353Y-68899999D01*
X80125876Y-68899999D01*
X80114165Y-68818543D01*
X80111666Y-68810032D01*
X80114004Y-68809345D01*
X80106500Y-68774783D01*
X80106500Y-67206035D01*
X80126185Y-67138996D01*
X80136782Y-67124837D01*
X80181377Y-67073373D01*
X80241165Y-66942457D01*
X80261647Y-66800000D01*
X80241165Y-66657543D01*
X80181377Y-66526627D01*
X80087128Y-66417857D01*
X79966053Y-66340047D01*
X79966051Y-66340046D01*
X79966049Y-66340045D01*
X79966050Y-66340045D01*
X79827963Y-66299500D01*
X79827961Y-66299500D01*
X79684039Y-66299500D01*
X79684036Y-66299500D01*
X79545949Y-66340045D01*
X79424873Y-66417856D01*
X79330623Y-66526626D01*
X79330622Y-66526628D01*
X79270834Y-66657543D01*
X79250353Y-66800000D01*
X79270834Y-66942456D01*
X79330622Y-67073371D01*
X79330623Y-67073373D01*
X79375213Y-67124833D01*
X79404238Y-67188388D01*
X79405500Y-67206035D01*
X79405500Y-68441979D01*
X79385815Y-68509018D01*
X79348540Y-68546294D01*
X79297873Y-68578856D01*
X79297866Y-68578862D01*
X79203625Y-68687622D01*
X79203622Y-68687628D01*
X79143834Y-68818543D01*
X79123353Y-68961000D01*
X74800500Y-68961000D01*
X74800500Y-63067763D01*
X76145787Y-63067763D01*
X76175413Y-63337013D01*
X76175415Y-63337024D01*
X76243926Y-63599082D01*
X76243928Y-63599088D01*
X76349870Y-63848390D01*
X76392462Y-63918179D01*
X76490979Y-64079605D01*
X76490986Y-64079615D01*
X76664253Y-64287819D01*
X76664259Y-64287824D01*
X76769240Y-64381887D01*
X76865998Y-64468582D01*
X77091910Y-64618044D01*
X77337176Y-64733020D01*
X77337183Y-64733022D01*
X77337185Y-64733023D01*
X77596557Y-64811057D01*
X77596564Y-64811058D01*
X77596569Y-64811060D01*
X77864561Y-64850500D01*
X77864566Y-64850500D01*
X78067629Y-64850500D01*
X78067631Y-64850500D01*
X78067636Y-64850499D01*
X78067648Y-64850499D01*
X78105191Y-64847750D01*
X78270156Y-64835677D01*
X78382758Y-64810593D01*
X78534546Y-64776782D01*
X78534548Y-64776781D01*
X78534553Y-64776780D01*
X78787558Y-64680014D01*
X79023777Y-64547441D01*
X79238177Y-64381888D01*
X79426186Y-64186881D01*
X79583799Y-63966579D01*
X79692363Y-63755421D01*
X79707649Y-63725690D01*
X79707651Y-63725684D01*
X79707656Y-63725675D01*
X79795118Y-63469305D01*
X79844319Y-63202933D01*
X79849259Y-63067763D01*
X129645787Y-63067763D01*
X129675413Y-63337013D01*
X129675415Y-63337024D01*
X129743926Y-63599082D01*
X129743928Y-63599088D01*
X129849870Y-63848390D01*
X129892462Y-63918179D01*
X129990979Y-64079605D01*
X129990986Y-64079615D01*
X130164253Y-64287819D01*
X130164259Y-64287824D01*
X130269240Y-64381887D01*
X130365998Y-64468582D01*
X130591910Y-64618044D01*
X130837176Y-64733020D01*
X130837183Y-64733022D01*
X130837185Y-64733023D01*
X131096557Y-64811057D01*
X131096564Y-64811058D01*
X131096569Y-64811060D01*
X131364561Y-64850500D01*
X131364566Y-64850500D01*
X131567629Y-64850500D01*
X131567631Y-64850500D01*
X131567636Y-64850499D01*
X131567648Y-64850499D01*
X131605191Y-64847750D01*
X131770156Y-64835677D01*
X131882758Y-64810593D01*
X132034546Y-64776782D01*
X132034548Y-64776781D01*
X132034553Y-64776780D01*
X132287558Y-64680014D01*
X132523777Y-64547441D01*
X132738177Y-64381888D01*
X132926186Y-64186881D01*
X133083799Y-63966579D01*
X133192363Y-63755421D01*
X133207649Y-63725690D01*
X133207651Y-63725684D01*
X133207656Y-63725675D01*
X133295118Y-63469305D01*
X133344319Y-63202933D01*
X133354212Y-62932235D01*
X133324586Y-62662982D01*
X133256072Y-62400912D01*
X133150130Y-62151610D01*
X133009018Y-61920390D01*
X132919747Y-61813119D01*
X132835746Y-61712180D01*
X132835740Y-61712175D01*
X132634002Y-61531418D01*
X132408092Y-61381957D01*
X132400031Y-61378178D01*
X132162824Y-61266980D01*
X132162819Y-61266978D01*
X132162814Y-61266976D01*
X131903442Y-61188942D01*
X131903428Y-61188939D01*
X131787791Y-61171921D01*
X131635439Y-61149500D01*
X131432369Y-61149500D01*
X131432351Y-61149500D01*
X131229844Y-61164323D01*
X131229831Y-61164325D01*
X130965453Y-61223217D01*
X130965446Y-61223220D01*
X130712439Y-61319987D01*
X130476226Y-61452557D01*
X130261822Y-61618112D01*
X130073822Y-61813109D01*
X130073816Y-61813116D01*
X129916202Y-62033419D01*
X129916199Y-62033424D01*
X129792350Y-62274309D01*
X129792343Y-62274327D01*
X129704884Y-62530685D01*
X129704881Y-62530699D01*
X129655681Y-62797068D01*
X129655680Y-62797075D01*
X129645787Y-63067763D01*
X79849259Y-63067763D01*
X79854212Y-62932235D01*
X79843478Y-62834678D01*
X101859500Y-62834678D01*
X101874032Y-62907735D01*
X101874033Y-62907739D01*
X101874034Y-62907740D01*
X101929399Y-62990601D01*
X102012260Y-63045966D01*
X102012264Y-63045967D01*
X102085321Y-63060499D01*
X102085324Y-63060500D01*
X102085326Y-63060500D01*
X103834676Y-63060500D01*
X103834677Y-63060499D01*
X103907740Y-63045966D01*
X103990601Y-62990601D01*
X104045966Y-62907740D01*
X104060500Y-62834674D01*
X104060500Y-61960000D01*
X104394785Y-61960000D01*
X104413602Y-62163082D01*
X104469417Y-62359247D01*
X104469422Y-62359260D01*
X104560327Y-62541821D01*
X104683237Y-62704581D01*
X104833958Y-62841980D01*
X104833960Y-62841982D01*
X104933141Y-62903392D01*
X105007363Y-62949348D01*
X105197544Y-63023024D01*
X105398024Y-63060500D01*
X105398026Y-63060500D01*
X105601974Y-63060500D01*
X105601976Y-63060500D01*
X105802456Y-63023024D01*
X105992637Y-62949348D01*
X106166041Y-62841981D01*
X106316764Y-62704579D01*
X106439673Y-62541821D01*
X106530582Y-62359250D01*
X106586397Y-62163083D01*
X106605215Y-61960000D01*
X106591604Y-61813116D01*
X106586397Y-61756917D01*
X106546903Y-61618112D01*
X106530582Y-61560750D01*
X106515976Y-61531418D01*
X106441554Y-61381957D01*
X106439673Y-61378179D01*
X106355700Y-61266980D01*
X106316762Y-61215418D01*
X106166041Y-61078019D01*
X106166039Y-61078017D01*
X105992642Y-60970655D01*
X105992635Y-60970651D01*
X105886150Y-60929399D01*
X105802456Y-60896976D01*
X105601976Y-60859500D01*
X105398024Y-60859500D01*
X105197544Y-60896976D01*
X105197541Y-60896976D01*
X105197541Y-60896977D01*
X105007364Y-60970651D01*
X105007357Y-60970655D01*
X104833960Y-61078017D01*
X104833958Y-61078019D01*
X104683237Y-61215418D01*
X104560327Y-61378178D01*
X104469422Y-61560739D01*
X104469417Y-61560752D01*
X104413602Y-61756917D01*
X104394785Y-61959999D01*
X104394785Y-61960000D01*
X104060500Y-61960000D01*
X104060500Y-61085326D01*
X104060500Y-61085323D01*
X104060499Y-61085321D01*
X104045967Y-61012264D01*
X104045966Y-61012260D01*
X103990601Y-60929399D01*
X103907740Y-60874034D01*
X103907739Y-60874033D01*
X103907735Y-60874032D01*
X103834677Y-60859500D01*
X103834674Y-60859500D01*
X102085326Y-60859500D01*
X102085323Y-60859500D01*
X102012264Y-60874032D01*
X102012260Y-60874033D01*
X101929399Y-60929399D01*
X101874033Y-61012260D01*
X101874032Y-61012264D01*
X101859500Y-61085321D01*
X101859500Y-62834678D01*
X79843478Y-62834678D01*
X79824586Y-62662982D01*
X79756072Y-62400912D01*
X79650130Y-62151610D01*
X79509018Y-61920390D01*
X79419747Y-61813119D01*
X79335746Y-61712180D01*
X79335740Y-61712175D01*
X79134002Y-61531418D01*
X78908092Y-61381957D01*
X78900031Y-61378178D01*
X78662824Y-61266980D01*
X78662819Y-61266978D01*
X78662814Y-61266976D01*
X78403442Y-61188942D01*
X78403428Y-61188939D01*
X78287791Y-61171921D01*
X78135439Y-61149500D01*
X77932369Y-61149500D01*
X77932351Y-61149500D01*
X77729844Y-61164323D01*
X77729831Y-61164325D01*
X77465453Y-61223217D01*
X77465446Y-61223220D01*
X77212439Y-61319987D01*
X76976226Y-61452557D01*
X76761822Y-61618112D01*
X76573822Y-61813109D01*
X76573816Y-61813116D01*
X76416202Y-62033419D01*
X76416199Y-62033424D01*
X76292350Y-62274309D01*
X76292343Y-62274327D01*
X76204884Y-62530685D01*
X76204881Y-62530699D01*
X76155681Y-62797068D01*
X76155680Y-62797075D01*
X76145787Y-63067763D01*
X74800500Y-63067763D01*
X74800500Y-59924500D01*
X74820185Y-59857461D01*
X74872989Y-59811706D01*
X74924500Y-59800500D01*
X134575500Y-59800500D01*
X134642539Y-59820185D01*
G37*
%TD.AperFunction*%
%TD*%
M02*
