%TF.GenerationSoftware,KiCad,Pcbnew,7.0.11*%
%TF.CreationDate,2024-03-26T21:49:53+01:00*%
%TF.ProjectId,led_color_test,6c65645f-636f-46c6-9f72-5f746573742e,rev?*%
%TF.SameCoordinates,Original*%
%TF.FileFunction,Legend,Top*%
%TF.FilePolarity,Positive*%
%FSLAX46Y46*%
G04 Gerber Fmt 4.6, Leading zero omitted, Abs format (unit mm)*
G04 Created by KiCad (PCBNEW 7.0.11) date 2024-03-26 21:49:53*
%MOMM*%
%LPD*%
G01*
G04 APERTURE LIST*
G04 Aperture macros list*
%AMRoundRect*
0 Rectangle with rounded corners*
0 $1 Rounding radius*
0 $2 $3 $4 $5 $6 $7 $8 $9 X,Y pos of 4 corners*
0 Add a 4 corners polygon primitive as box body*
4,1,4,$2,$3,$4,$5,$6,$7,$8,$9,$2,$3,0*
0 Add four circle primitives for the rounded corners*
1,1,$1+$1,$2,$3*
1,1,$1+$1,$4,$5*
1,1,$1+$1,$6,$7*
1,1,$1+$1,$8,$9*
0 Add four rect primitives between the rounded corners*
20,1,$1+$1,$2,$3,$4,$5,0*
20,1,$1+$1,$4,$5,$6,$7,0*
20,1,$1+$1,$6,$7,$8,$9,0*
20,1,$1+$1,$8,$9,$2,$3,0*%
G04 Aperture macros list end*
%ADD10C,0.150000*%
%ADD11C,0.075000*%
%ADD12C,0.120000*%
%ADD13RoundRect,0.250000X-0.250000X-0.750000X0.250000X-0.750000X0.250000X0.750000X-0.250000X0.750000X0*%
%ADD14RoundRect,0.250000X0.450000X-0.350000X0.450000X0.350000X-0.450000X0.350000X-0.450000X-0.350000X0*%
%ADD15RoundRect,0.250000X0.625000X-0.375000X0.625000X0.375000X-0.625000X0.375000X-0.625000X-0.375000X0*%
G04 APERTURE END LIST*
D10*
X112119048Y-64573866D02*
X112880953Y-64573866D01*
X106119048Y-64573866D02*
X106880953Y-64573866D01*
X106500000Y-64954819D02*
X106500000Y-64192914D01*
D11*
X112502409Y-69108333D02*
X112264314Y-69274999D01*
X112502409Y-69394047D02*
X112002409Y-69394047D01*
X112002409Y-69394047D02*
X112002409Y-69203571D01*
X112002409Y-69203571D02*
X112026219Y-69155952D01*
X112026219Y-69155952D02*
X112050028Y-69132142D01*
X112050028Y-69132142D02*
X112097647Y-69108333D01*
X112097647Y-69108333D02*
X112169076Y-69108333D01*
X112169076Y-69108333D02*
X112216695Y-69132142D01*
X112216695Y-69132142D02*
X112240504Y-69155952D01*
X112240504Y-69155952D02*
X112264314Y-69203571D01*
X112264314Y-69203571D02*
X112264314Y-69394047D01*
X112002409Y-68679761D02*
X112002409Y-68774999D01*
X112002409Y-68774999D02*
X112026219Y-68822618D01*
X112026219Y-68822618D02*
X112050028Y-68846428D01*
X112050028Y-68846428D02*
X112121457Y-68894047D01*
X112121457Y-68894047D02*
X112216695Y-68917856D01*
X112216695Y-68917856D02*
X112407171Y-68917856D01*
X112407171Y-68917856D02*
X112454790Y-68894047D01*
X112454790Y-68894047D02*
X112478600Y-68870237D01*
X112478600Y-68870237D02*
X112502409Y-68822618D01*
X112502409Y-68822618D02*
X112502409Y-68727380D01*
X112502409Y-68727380D02*
X112478600Y-68679761D01*
X112478600Y-68679761D02*
X112454790Y-68655952D01*
X112454790Y-68655952D02*
X112407171Y-68632142D01*
X112407171Y-68632142D02*
X112288123Y-68632142D01*
X112288123Y-68632142D02*
X112240504Y-68655952D01*
X112240504Y-68655952D02*
X112216695Y-68679761D01*
X112216695Y-68679761D02*
X112192885Y-68727380D01*
X112192885Y-68727380D02*
X112192885Y-68822618D01*
X112192885Y-68822618D02*
X112216695Y-68870237D01*
X112216695Y-68870237D02*
X112240504Y-68894047D01*
X112240504Y-68894047D02*
X112288123Y-68917856D01*
X109552409Y-69108333D02*
X109314314Y-69274999D01*
X109552409Y-69394047D02*
X109052409Y-69394047D01*
X109052409Y-69394047D02*
X109052409Y-69203571D01*
X109052409Y-69203571D02*
X109076219Y-69155952D01*
X109076219Y-69155952D02*
X109100028Y-69132142D01*
X109100028Y-69132142D02*
X109147647Y-69108333D01*
X109147647Y-69108333D02*
X109219076Y-69108333D01*
X109219076Y-69108333D02*
X109266695Y-69132142D01*
X109266695Y-69132142D02*
X109290504Y-69155952D01*
X109290504Y-69155952D02*
X109314314Y-69203571D01*
X109314314Y-69203571D02*
X109314314Y-69394047D01*
X109052409Y-68655952D02*
X109052409Y-68894047D01*
X109052409Y-68894047D02*
X109290504Y-68917856D01*
X109290504Y-68917856D02*
X109266695Y-68894047D01*
X109266695Y-68894047D02*
X109242885Y-68846428D01*
X109242885Y-68846428D02*
X109242885Y-68727380D01*
X109242885Y-68727380D02*
X109266695Y-68679761D01*
X109266695Y-68679761D02*
X109290504Y-68655952D01*
X109290504Y-68655952D02*
X109338123Y-68632142D01*
X109338123Y-68632142D02*
X109457171Y-68632142D01*
X109457171Y-68632142D02*
X109504790Y-68655952D01*
X109504790Y-68655952D02*
X109528600Y-68679761D01*
X109528600Y-68679761D02*
X109552409Y-68727380D01*
X109552409Y-68727380D02*
X109552409Y-68846428D01*
X109552409Y-68846428D02*
X109528600Y-68894047D01*
X109528600Y-68894047D02*
X109504790Y-68917856D01*
X106602409Y-69108333D02*
X106364314Y-69274999D01*
X106602409Y-69394047D02*
X106102409Y-69394047D01*
X106102409Y-69394047D02*
X106102409Y-69203571D01*
X106102409Y-69203571D02*
X106126219Y-69155952D01*
X106126219Y-69155952D02*
X106150028Y-69132142D01*
X106150028Y-69132142D02*
X106197647Y-69108333D01*
X106197647Y-69108333D02*
X106269076Y-69108333D01*
X106269076Y-69108333D02*
X106316695Y-69132142D01*
X106316695Y-69132142D02*
X106340504Y-69155952D01*
X106340504Y-69155952D02*
X106364314Y-69203571D01*
X106364314Y-69203571D02*
X106364314Y-69394047D01*
X106269076Y-68679761D02*
X106602409Y-68679761D01*
X106078600Y-68798809D02*
X106435742Y-68917856D01*
X106435742Y-68917856D02*
X106435742Y-68608333D01*
D10*
X112714819Y-75138094D02*
X111714819Y-75138094D01*
X111714819Y-75138094D02*
X111714819Y-74899999D01*
X111714819Y-74899999D02*
X111762438Y-74757142D01*
X111762438Y-74757142D02*
X111857676Y-74661904D01*
X111857676Y-74661904D02*
X111952914Y-74614285D01*
X111952914Y-74614285D02*
X112143390Y-74566666D01*
X112143390Y-74566666D02*
X112286247Y-74566666D01*
X112286247Y-74566666D02*
X112476723Y-74614285D01*
X112476723Y-74614285D02*
X112571961Y-74661904D01*
X112571961Y-74661904D02*
X112667200Y-74757142D01*
X112667200Y-74757142D02*
X112714819Y-74899999D01*
X112714819Y-74899999D02*
X112714819Y-75138094D01*
X111714819Y-73709523D02*
X111714819Y-73899999D01*
X111714819Y-73899999D02*
X111762438Y-73995237D01*
X111762438Y-73995237D02*
X111810057Y-74042856D01*
X111810057Y-74042856D02*
X111952914Y-74138094D01*
X111952914Y-74138094D02*
X112143390Y-74185713D01*
X112143390Y-74185713D02*
X112524342Y-74185713D01*
X112524342Y-74185713D02*
X112619580Y-74138094D01*
X112619580Y-74138094D02*
X112667200Y-74090475D01*
X112667200Y-74090475D02*
X112714819Y-73995237D01*
X112714819Y-73995237D02*
X112714819Y-73804761D01*
X112714819Y-73804761D02*
X112667200Y-73709523D01*
X112667200Y-73709523D02*
X112619580Y-73661904D01*
X112619580Y-73661904D02*
X112524342Y-73614285D01*
X112524342Y-73614285D02*
X112286247Y-73614285D01*
X112286247Y-73614285D02*
X112191009Y-73661904D01*
X112191009Y-73661904D02*
X112143390Y-73709523D01*
X112143390Y-73709523D02*
X112095771Y-73804761D01*
X112095771Y-73804761D02*
X112095771Y-73995237D01*
X112095771Y-73995237D02*
X112143390Y-74090475D01*
X112143390Y-74090475D02*
X112191009Y-74138094D01*
X112191009Y-74138094D02*
X112286247Y-74185713D01*
X109324819Y-75138094D02*
X108324819Y-75138094D01*
X108324819Y-75138094D02*
X108324819Y-74899999D01*
X108324819Y-74899999D02*
X108372438Y-74757142D01*
X108372438Y-74757142D02*
X108467676Y-74661904D01*
X108467676Y-74661904D02*
X108562914Y-74614285D01*
X108562914Y-74614285D02*
X108753390Y-74566666D01*
X108753390Y-74566666D02*
X108896247Y-74566666D01*
X108896247Y-74566666D02*
X109086723Y-74614285D01*
X109086723Y-74614285D02*
X109181961Y-74661904D01*
X109181961Y-74661904D02*
X109277200Y-74757142D01*
X109277200Y-74757142D02*
X109324819Y-74899999D01*
X109324819Y-74899999D02*
X109324819Y-75138094D01*
X108324819Y-73661904D02*
X108324819Y-74138094D01*
X108324819Y-74138094D02*
X108801009Y-74185713D01*
X108801009Y-74185713D02*
X108753390Y-74138094D01*
X108753390Y-74138094D02*
X108705771Y-74042856D01*
X108705771Y-74042856D02*
X108705771Y-73804761D01*
X108705771Y-73804761D02*
X108753390Y-73709523D01*
X108753390Y-73709523D02*
X108801009Y-73661904D01*
X108801009Y-73661904D02*
X108896247Y-73614285D01*
X108896247Y-73614285D02*
X109134342Y-73614285D01*
X109134342Y-73614285D02*
X109229580Y-73661904D01*
X109229580Y-73661904D02*
X109277200Y-73709523D01*
X109277200Y-73709523D02*
X109324819Y-73804761D01*
X109324819Y-73804761D02*
X109324819Y-74042856D01*
X109324819Y-74042856D02*
X109277200Y-74138094D01*
X109277200Y-74138094D02*
X109229580Y-74185713D01*
X105934819Y-75138094D02*
X104934819Y-75138094D01*
X104934819Y-75138094D02*
X104934819Y-74899999D01*
X104934819Y-74899999D02*
X104982438Y-74757142D01*
X104982438Y-74757142D02*
X105077676Y-74661904D01*
X105077676Y-74661904D02*
X105172914Y-74614285D01*
X105172914Y-74614285D02*
X105363390Y-74566666D01*
X105363390Y-74566666D02*
X105506247Y-74566666D01*
X105506247Y-74566666D02*
X105696723Y-74614285D01*
X105696723Y-74614285D02*
X105791961Y-74661904D01*
X105791961Y-74661904D02*
X105887200Y-74757142D01*
X105887200Y-74757142D02*
X105934819Y-74899999D01*
X105934819Y-74899999D02*
X105934819Y-75138094D01*
X105268152Y-73709523D02*
X105934819Y-73709523D01*
X104887200Y-73947618D02*
X105601485Y-74185713D01*
X105601485Y-74185713D02*
X105601485Y-73566666D01*
D12*
%TO.C,R6*%
X112865000Y-69527064D02*
X112865000Y-69072936D01*
X114335000Y-69527064D02*
X114335000Y-69072936D01*
%TO.C,R5*%
X109915000Y-69527064D02*
X109915000Y-69072936D01*
X111385000Y-69527064D02*
X111385000Y-69072936D01*
%TO.C,R4*%
X106965000Y-69527064D02*
X106965000Y-69072936D01*
X108435000Y-69527064D02*
X108435000Y-69072936D01*
%TO.C,D6*%
X112945000Y-76685000D02*
X115215000Y-76685000D01*
X112945000Y-72800000D02*
X112945000Y-76685000D01*
X115215000Y-76685000D02*
X115215000Y-72800000D01*
%TO.C,D5*%
X109555000Y-76685000D02*
X111825000Y-76685000D01*
X109555000Y-72800000D02*
X109555000Y-76685000D01*
X111825000Y-76685000D02*
X111825000Y-72800000D01*
%TO.C,D4*%
X106165000Y-76685000D02*
X108435000Y-76685000D01*
X106165000Y-72800000D02*
X106165000Y-76685000D01*
X108435000Y-76685000D02*
X108435000Y-72800000D01*
%TD*%
%LPC*%
D13*
%TO.C,-*%
X110500000Y-65000000D03*
%TD*%
%TO.C,+*%
X108140000Y-65000000D03*
%TD*%
D14*
%TO.C,R6*%
X113600000Y-70300000D03*
X113600000Y-68300000D03*
%TD*%
%TO.C,R5*%
X110650000Y-70300000D03*
X110650000Y-68300000D03*
%TD*%
%TO.C,R4*%
X107700000Y-70300000D03*
X107700000Y-68300000D03*
%TD*%
D15*
%TO.C,D6*%
X114080000Y-75800000D03*
X114080000Y-73000000D03*
%TD*%
%TO.C,D5*%
X110690000Y-75800000D03*
X110690000Y-73000000D03*
%TD*%
%TO.C,D4*%
X107300000Y-75800000D03*
X107300000Y-73000000D03*
%TD*%
%LPD*%
M02*
