%TF.GenerationSoftware,KiCad,Pcbnew,8.0.2*%
%TF.CreationDate,2024-10-12T15:49:16+02:00*%
%TF.ProjectId,OS-RelayDecoder-4,4f532d52-656c-4617-9944-65636f646572,rev?*%
%TF.SameCoordinates,Original*%
%TF.FileFunction,Soldermask,Bot*%
%TF.FilePolarity,Negative*%
%FSLAX46Y46*%
G04 Gerber Fmt 4.6, Leading zero omitted, Abs format (unit mm)*
G04 Created by KiCad (PCBNEW 8.0.2) date 2024-10-12 15:49:16*
%MOMM*%
%LPD*%
G01*
G04 APERTURE LIST*
G04 Aperture macros list*
%AMRoundRect*
0 Rectangle with rounded corners*
0 $1 Rounding radius*
0 $2 $3 $4 $5 $6 $7 $8 $9 X,Y pos of 4 corners*
0 Add a 4 corners polygon primitive as box body*
4,1,4,$2,$3,$4,$5,$6,$7,$8,$9,$2,$3,0*
0 Add four circle primitives for the rounded corners*
1,1,$1+$1,$2,$3*
1,1,$1+$1,$4,$5*
1,1,$1+$1,$6,$7*
1,1,$1+$1,$8,$9*
0 Add four rect primitives between the rounded corners*
20,1,$1+$1,$2,$3,$4,$5,0*
20,1,$1+$1,$4,$5,$6,$7,0*
20,1,$1+$1,$6,$7,$8,$9,0*
20,1,$1+$1,$8,$9,$2,$3,0*%
G04 Aperture macros list end*
%ADD10RoundRect,0.250000X1.550000X-0.650000X1.550000X0.650000X-1.550000X0.650000X-1.550000X-0.650000X0*%
%ADD11O,3.600000X1.800000*%
%ADD12C,3.200000*%
%ADD13RoundRect,0.250000X-1.550000X0.650000X-1.550000X-0.650000X1.550000X-0.650000X1.550000X0.650000X0*%
%ADD14C,2.200000*%
%ADD15R,1.700000X1.700000*%
%ADD16O,1.700000X1.700000*%
%ADD17RoundRect,0.250000X0.650000X1.550000X-0.650000X1.550000X-0.650000X-1.550000X0.650000X-1.550000X0*%
%ADD18O,1.800000X3.600000*%
G04 APERTURE END LIST*
D10*
%TO.C,J301*%
X74000000Y-113500000D03*
D11*
X74000000Y-110000000D03*
X74000000Y-106500000D03*
%TD*%
D12*
%TO.C,H103*%
X78500000Y-134500000D03*
%TD*%
D10*
%TO.C,J302*%
X74000000Y-127500000D03*
D11*
X74000000Y-124000000D03*
X74000000Y-120500000D03*
%TD*%
D13*
%TO.C,J501*%
X35500000Y-120500000D03*
D11*
X35500000Y-124000000D03*
X35500000Y-127500000D03*
%TD*%
D14*
%TO.C,J702*%
X60000000Y-132000000D03*
X60000000Y-134500000D03*
X56500000Y-132000000D03*
X56500000Y-134500000D03*
X53000000Y-132000000D03*
X53000000Y-134500000D03*
X49500000Y-132000000D03*
X49500000Y-134500000D03*
%TD*%
D15*
%TO.C,J202*%
X67460000Y-67000000D03*
D16*
X70000000Y-67000000D03*
X72540000Y-67000000D03*
X75080000Y-67000000D03*
X77620000Y-67000000D03*
X80160000Y-67000000D03*
%TD*%
D10*
%TO.C,J401*%
X74000000Y-86000000D03*
D11*
X74000000Y-82500000D03*
X74000000Y-79000000D03*
%TD*%
D17*
%TO.C,J701*%
X60000000Y-73036500D03*
D18*
X56500000Y-73036500D03*
X53000000Y-73036500D03*
X49500000Y-73036500D03*
%TD*%
D12*
%TO.C,H102*%
X78500000Y-72500000D03*
%TD*%
D13*
%TO.C,J502*%
X35500000Y-106500000D03*
D11*
X35500000Y-110000000D03*
X35500000Y-113500000D03*
%TD*%
D12*
%TO.C,H101*%
X31000000Y-72000000D03*
%TD*%
%TO.C,H104*%
X31000000Y-134500000D03*
%TD*%
D13*
%TO.C,J203*%
X35500000Y-79000000D03*
D11*
X35500000Y-82500000D03*
X35500000Y-86000000D03*
%TD*%
D10*
%TO.C,J402*%
X74000000Y-100000000D03*
D11*
X74000000Y-96500000D03*
X74000000Y-93000000D03*
%TD*%
D13*
%TO.C,J201*%
X35500000Y-93000000D03*
D11*
X35500000Y-96500000D03*
X35500000Y-100000000D03*
%TD*%
M02*
