M48
; DRILL file {KiCad 8.0.2} date 2024-10-12T15:49:16+0200
; FORMAT={-:-/ absolute / inch / decimal}
; #@! TF.CreationDate,2024-10-12T15:49:16+02:00
; #@! TF.GenerationSoftware,Kicad,Pcbnew,8.0.2
; #@! TF.FileFunction,Plated,1,2,PTH
FMAT,2
INCH
; #@! TA.AperFunction,Plated,PTH,ViaDrill
T1C0.0118
; #@! TA.AperFunction,Plated,PTH,ViaDrill
T2C0.0157
; #@! TA.AperFunction,Plated,PTH,ComponentDrill
T3C0.0394
; #@! TA.AperFunction,Plated,PTH,ComponentDrill
T4C0.0472
%
G90
G05
T1
X1.12Y-3.325
X1.125Y-3.945
X1.125Y-4.335
X1.125Y-4.66
X1.125Y-4.96
X1.135Y-3.65
X1.165Y-5.14
X1.17Y-3.0
X1.23Y-2.61
X1.335Y-5.4
X1.4Y-2.88
X1.57Y-5.315
X1.62Y-5.225
X1.67Y-5.315
X1.715Y-2.75
X1.75Y-2.88
X1.75Y-3.255
X1.75Y-4.2
X1.75Y-4.365
X1.765Y-4.27
X1.81Y-5.215
X1.825Y-5.0559
X1.825Y-5.31
X1.83Y-5.1504
X1.845Y-4.225
X1.86Y-3.13
X1.865Y-4.115
X1.865Y-5.172
X1.865Y-5.255
X1.8717Y-5.0559
X1.885Y-4.235
X1.895Y-3.295
X1.895Y-3.405
X1.9Y-3.13
X1.905Y-4.395
X1.935Y-4.025
X1.935Y-4.895
X1.94Y-3.215
X1.94Y-4.51
X1.945Y-3.085
X1.955Y-4.85
X1.975Y-4.28
X1.975Y-4.4
X1.98Y-2.62
X1.98Y-3.11
X1.98Y-4.195
X1.995Y-4.5295
X1.995Y-4.5728
X2.0Y-5.395
X2.005Y-3.775
X2.005Y-4.03
X2.005Y-4.325
X2.015Y-4.485
X2.0197Y-4.6897
X2.025Y-3.37
X2.025Y-3.52
X2.045Y-4.175
X2.05Y-3.25
X2.05Y-3.61
X2.075Y-4.13
X2.09Y-5.105
X2.095Y-4.7567
X2.095Y-4.955
X2.1Y-5.035
X2.105Y-4.29
X2.11Y-4.695
X2.135Y-4.885
X2.14Y-3.445
X2.145Y-4.605
X2.1495Y-3.3033
X2.15Y-3.22
X2.15Y-5.13
X2.155Y-2.795
X2.155Y-3.09
X2.155Y-3.635
X2.18Y-4.695
X2.185Y-3.03
X2.185Y-4.6506
X2.195Y-4.19
X2.205Y-5.39
X2.215Y-4.94
X2.23Y-4.6073
X2.235Y-4.24
X2.25Y-3.26
X2.255Y-3.655
X2.2553Y-3.8033
X2.26Y-3.445
X2.26Y-3.8467
X2.27Y-4.055
X2.29Y-5.245
X2.295Y-2.86
X2.295Y-3.17
X2.295Y-5.11
X2.3004Y-3.9546
X2.305Y-4.0
X2.305Y-4.305
X2.305Y-4.355
X2.33Y-3.86
X2.3355Y-4.6895
X2.35Y-3.005
X2.3524Y-4.4291
X2.36Y-3.825
X2.36Y-3.885
X2.365Y-4.065
X2.3682Y-4.4745
X2.375Y-4.125
X2.38Y-3.38
X2.4Y-3.27
X2.4Y-4.9
X2.4016Y-4.4094
X2.4016Y-4.7047
X2.405Y-3.685
X2.415Y-3.86
X2.42Y-4.98
X2.435Y-3.565
X2.4414Y-4.3878
X2.455Y-2.73
X2.455Y-3.86
X2.455Y-3.99
X2.465Y-4.985
X2.47Y-3.015
X2.51Y-5.375
X2.53Y-3.14
X2.53Y-4.04
X2.535Y-2.605
X2.55Y-3.735
X2.55Y-3.825
X2.56Y-3.985
X2.565Y-4.1132
X2.575Y-2.905
X2.595Y-4.0915
X2.6Y-4.1663
X2.615Y-4.025
X2.635Y-3.395
X2.635Y-4.1663
X2.655Y-2.84
X2.66Y-3.71
X2.66Y-3.93
X2.67Y-3.08
X2.6772Y-3.563
X2.685Y-4.08
X2.7Y-2.765
X2.7Y-3.805
X2.725Y-3.69
X2.77Y-3.87
X2.815Y-3.08
X2.82Y-5.37
X2.84Y-4.06
X2.955Y-5.21
X3.03Y-2.94
X3.035Y-2.73
X3.105Y-5.085
X3.13Y-4.145
X3.13Y-4.41
X3.135Y-3.82
X3.135Y-4.69
X3.135Y-4.945
X3.14Y-3.1
X3.145Y-3.295
X3.145Y-3.565
X3.19Y-2.73
X3.19Y-2.97
T2
X2.0815Y-4.5339
X2.1065Y-4.3439
X2.1615Y-4.4589
X2.5311Y-2.9911
X2.5704Y-2.9519
X2.5887Y-3.0337
X2.6222Y-3.0003
X2.9416Y-3.0003
X2.9685Y-3.04
X3.0551Y-3.005
X3.0551Y-3.045
T3
X2.6559Y-2.6378
X2.7559Y-2.6378
X2.8559Y-2.6378
X2.9559Y-2.6378
X3.0559Y-2.6378
X3.1559Y-2.6378
T4
X1.3976Y-3.1102
X1.3976Y-3.248
X1.3976Y-3.3858
X1.3976Y-3.6614
X1.3976Y-3.7992
X1.3976Y-3.937
X1.3976Y-4.1929
X1.3976Y-4.3307
X1.3976Y-4.4685
X1.3976Y-4.7441
X1.3976Y-4.8819
X1.3976Y-5.0197
X1.9488Y-2.8755
X1.9488Y-5.1969
X1.9488Y-5.2953
X2.0866Y-2.8755
X2.0866Y-5.1969
X2.0866Y-5.2953
X2.2244Y-2.8755
X2.2244Y-5.1969
X2.2244Y-5.2953
X2.3622Y-2.8755
X2.3622Y-5.1969
X2.3622Y-5.2953
X2.9134Y-3.1102
X2.9134Y-3.248
X2.9134Y-3.3858
X2.9134Y-3.6614
X2.9134Y-3.7992
X2.9134Y-3.937
X2.9134Y-4.1929
X2.9134Y-4.3307
X2.9134Y-4.4685
X2.9134Y-4.7441
X2.9134Y-4.8819
X2.9134Y-5.0197
M30
