%TF.GenerationSoftware,KiCad,Pcbnew,8.0.2*%
%TF.CreationDate,2024-10-12T15:49:16+02:00*%
%TF.ProjectId,OS-RelayDecoder-4,4f532d52-656c-4617-9944-65636f646572,rev?*%
%TF.SameCoordinates,Original*%
%TF.FileFunction,Other,Comment*%
%FSLAX46Y46*%
G04 Gerber Fmt 4.6, Leading zero omitted, Abs format (unit mm)*
G04 Created by KiCad (PCBNEW 8.0.2) date 2024-10-12 15:49:16*
%MOMM*%
%LPD*%
G01*
G04 APERTURE LIST*
%ADD10C,0.030000*%
%ADD11C,0.150000*%
G04 APERTURE END LIST*
D10*
X37492047Y-133168963D02*
X37492047Y-132968963D01*
X37492047Y-132968963D02*
X37606332Y-133168963D01*
X37606332Y-133168963D02*
X37606332Y-132968963D01*
X37730142Y-133168963D02*
X37711094Y-133159440D01*
X37711094Y-133159440D02*
X37701571Y-133149916D01*
X37701571Y-133149916D02*
X37692047Y-133130868D01*
X37692047Y-133130868D02*
X37692047Y-133073725D01*
X37692047Y-133073725D02*
X37701571Y-133054678D01*
X37701571Y-133054678D02*
X37711094Y-133045154D01*
X37711094Y-133045154D02*
X37730142Y-133035630D01*
X37730142Y-133035630D02*
X37758713Y-133035630D01*
X37758713Y-133035630D02*
X37777761Y-133045154D01*
X37777761Y-133045154D02*
X37787285Y-133054678D01*
X37787285Y-133054678D02*
X37796809Y-133073725D01*
X37796809Y-133073725D02*
X37796809Y-133130868D01*
X37796809Y-133130868D02*
X37787285Y-133149916D01*
X37787285Y-133149916D02*
X37777761Y-133159440D01*
X37777761Y-133159440D02*
X37758713Y-133168963D01*
X37758713Y-133168963D02*
X37730142Y-133168963D01*
X38101570Y-133064201D02*
X38034904Y-133064201D01*
X38034904Y-133168963D02*
X38034904Y-132968963D01*
X38034904Y-132968963D02*
X38130142Y-132968963D01*
X38206333Y-133149916D02*
X38215856Y-133159440D01*
X38215856Y-133159440D02*
X38206333Y-133168963D01*
X38206333Y-133168963D02*
X38196809Y-133159440D01*
X38196809Y-133159440D02*
X38206333Y-133149916D01*
X38206333Y-133149916D02*
X38206333Y-133168963D01*
X38415856Y-133149916D02*
X38406332Y-133159440D01*
X38406332Y-133159440D02*
X38377761Y-133168963D01*
X38377761Y-133168963D02*
X38358713Y-133168963D01*
X38358713Y-133168963D02*
X38330142Y-133159440D01*
X38330142Y-133159440D02*
X38311094Y-133140392D01*
X38311094Y-133140392D02*
X38301571Y-133121344D01*
X38301571Y-133121344D02*
X38292047Y-133083249D01*
X38292047Y-133083249D02*
X38292047Y-133054678D01*
X38292047Y-133054678D02*
X38301571Y-133016582D01*
X38301571Y-133016582D02*
X38311094Y-132997535D01*
X38311094Y-132997535D02*
X38330142Y-132978487D01*
X38330142Y-132978487D02*
X38358713Y-132968963D01*
X38358713Y-132968963D02*
X38377761Y-132968963D01*
X38377761Y-132968963D02*
X38406332Y-132978487D01*
X38406332Y-132978487D02*
X38415856Y-132988011D01*
X38587285Y-133035630D02*
X38587285Y-133168963D01*
X38501571Y-133035630D02*
X38501571Y-133140392D01*
X38501571Y-133140392D02*
X38511094Y-133159440D01*
X38511094Y-133159440D02*
X38530142Y-133168963D01*
X38530142Y-133168963D02*
X38558713Y-133168963D01*
X38558713Y-133168963D02*
X38577761Y-133159440D01*
X38577761Y-133159440D02*
X38587285Y-133149916D01*
X38806332Y-133035630D02*
X38882523Y-133035630D01*
X38834904Y-132968963D02*
X38834904Y-133140392D01*
X38834904Y-133140392D02*
X38844427Y-133159440D01*
X38844427Y-133159440D02*
X38863475Y-133168963D01*
X38863475Y-133168963D02*
X38882523Y-133168963D01*
X38949190Y-133168963D02*
X38949190Y-133035630D01*
X38949190Y-133073725D02*
X38958713Y-133054678D01*
X38958713Y-133054678D02*
X38968237Y-133045154D01*
X38968237Y-133045154D02*
X38987285Y-133035630D01*
X38987285Y-133035630D02*
X39006332Y-133035630D01*
X39158714Y-133168963D02*
X39158714Y-133064201D01*
X39158714Y-133064201D02*
X39149190Y-133045154D01*
X39149190Y-133045154D02*
X39130142Y-133035630D01*
X39130142Y-133035630D02*
X39092047Y-133035630D01*
X39092047Y-133035630D02*
X39073000Y-133045154D01*
X39158714Y-133159440D02*
X39139666Y-133168963D01*
X39139666Y-133168963D02*
X39092047Y-133168963D01*
X39092047Y-133168963D02*
X39073000Y-133159440D01*
X39073000Y-133159440D02*
X39063476Y-133140392D01*
X39063476Y-133140392D02*
X39063476Y-133121344D01*
X39063476Y-133121344D02*
X39073000Y-133102297D01*
X39073000Y-133102297D02*
X39092047Y-133092773D01*
X39092047Y-133092773D02*
X39139666Y-133092773D01*
X39139666Y-133092773D02*
X39158714Y-133083249D01*
X39339666Y-133159440D02*
X39320618Y-133168963D01*
X39320618Y-133168963D02*
X39282523Y-133168963D01*
X39282523Y-133168963D02*
X39263475Y-133159440D01*
X39263475Y-133159440D02*
X39253952Y-133149916D01*
X39253952Y-133149916D02*
X39244428Y-133130868D01*
X39244428Y-133130868D02*
X39244428Y-133073725D01*
X39244428Y-133073725D02*
X39253952Y-133054678D01*
X39253952Y-133054678D02*
X39263475Y-133045154D01*
X39263475Y-133045154D02*
X39282523Y-133035630D01*
X39282523Y-133035630D02*
X39320618Y-133035630D01*
X39320618Y-133035630D02*
X39339666Y-133045154D01*
X39425381Y-133168963D02*
X39425381Y-132968963D01*
X39444428Y-133092773D02*
X39501571Y-133168963D01*
X39501571Y-133035630D02*
X39425381Y-133111820D01*
X39577762Y-133159440D02*
X39596809Y-133168963D01*
X39596809Y-133168963D02*
X39634905Y-133168963D01*
X39634905Y-133168963D02*
X39653952Y-133159440D01*
X39653952Y-133159440D02*
X39663476Y-133140392D01*
X39663476Y-133140392D02*
X39663476Y-133130868D01*
X39663476Y-133130868D02*
X39653952Y-133111820D01*
X39653952Y-133111820D02*
X39634905Y-133102297D01*
X39634905Y-133102297D02*
X39606333Y-133102297D01*
X39606333Y-133102297D02*
X39587286Y-133092773D01*
X39587286Y-133092773D02*
X39577762Y-133073725D01*
X39577762Y-133073725D02*
X39577762Y-133064201D01*
X39577762Y-133064201D02*
X39587286Y-133045154D01*
X39587286Y-133045154D02*
X39606333Y-133035630D01*
X39606333Y-133035630D02*
X39634905Y-133035630D01*
X39634905Y-133035630D02*
X39653952Y-133045154D01*
X37358715Y-133568963D02*
X37358715Y-133368963D01*
X37473000Y-133568963D02*
X37387286Y-133454678D01*
X37473000Y-133368963D02*
X37358715Y-133483249D01*
X37558715Y-133464201D02*
X37625381Y-133464201D01*
X37653953Y-133568963D02*
X37558715Y-133568963D01*
X37558715Y-133568963D02*
X37558715Y-133368963D01*
X37558715Y-133368963D02*
X37653953Y-133368963D01*
X37739667Y-133464201D02*
X37806333Y-133464201D01*
X37834905Y-133568963D02*
X37739667Y-133568963D01*
X37739667Y-133568963D02*
X37739667Y-133368963D01*
X37739667Y-133368963D02*
X37834905Y-133368963D01*
X37920619Y-133568963D02*
X37920619Y-133368963D01*
X37920619Y-133368963D02*
X37996809Y-133368963D01*
X37996809Y-133368963D02*
X38015857Y-133378487D01*
X38015857Y-133378487D02*
X38025380Y-133388011D01*
X38025380Y-133388011D02*
X38034904Y-133407059D01*
X38034904Y-133407059D02*
X38034904Y-133435630D01*
X38034904Y-133435630D02*
X38025380Y-133454678D01*
X38025380Y-133454678D02*
X38015857Y-133464201D01*
X38015857Y-133464201D02*
X37996809Y-133473725D01*
X37996809Y-133473725D02*
X37920619Y-133473725D01*
X38120619Y-133492773D02*
X38273000Y-133492773D01*
X38406333Y-133368963D02*
X38444428Y-133368963D01*
X38444428Y-133368963D02*
X38463476Y-133378487D01*
X38463476Y-133378487D02*
X38482523Y-133397535D01*
X38482523Y-133397535D02*
X38492047Y-133435630D01*
X38492047Y-133435630D02*
X38492047Y-133502297D01*
X38492047Y-133502297D02*
X38482523Y-133540392D01*
X38482523Y-133540392D02*
X38463476Y-133559440D01*
X38463476Y-133559440D02*
X38444428Y-133568963D01*
X38444428Y-133568963D02*
X38406333Y-133568963D01*
X38406333Y-133568963D02*
X38387285Y-133559440D01*
X38387285Y-133559440D02*
X38368238Y-133540392D01*
X38368238Y-133540392D02*
X38358714Y-133502297D01*
X38358714Y-133502297D02*
X38358714Y-133435630D01*
X38358714Y-133435630D02*
X38368238Y-133397535D01*
X38368238Y-133397535D02*
X38387285Y-133378487D01*
X38387285Y-133378487D02*
X38406333Y-133368963D01*
X38577762Y-133368963D02*
X38577762Y-133530868D01*
X38577762Y-133530868D02*
X38587285Y-133549916D01*
X38587285Y-133549916D02*
X38596809Y-133559440D01*
X38596809Y-133559440D02*
X38615857Y-133568963D01*
X38615857Y-133568963D02*
X38653952Y-133568963D01*
X38653952Y-133568963D02*
X38673000Y-133559440D01*
X38673000Y-133559440D02*
X38682523Y-133549916D01*
X38682523Y-133549916D02*
X38692047Y-133530868D01*
X38692047Y-133530868D02*
X38692047Y-133368963D01*
X38758714Y-133368963D02*
X38873000Y-133368963D01*
X38815857Y-133568963D02*
X38815857Y-133368963D01*
X39073000Y-133368963D02*
X39206333Y-133368963D01*
X39206333Y-133368963D02*
X39073000Y-133568963D01*
X39073000Y-133568963D02*
X39206333Y-133568963D01*
X39320619Y-133368963D02*
X39358714Y-133368963D01*
X39358714Y-133368963D02*
X39377762Y-133378487D01*
X39377762Y-133378487D02*
X39396809Y-133397535D01*
X39396809Y-133397535D02*
X39406333Y-133435630D01*
X39406333Y-133435630D02*
X39406333Y-133502297D01*
X39406333Y-133502297D02*
X39396809Y-133540392D01*
X39396809Y-133540392D02*
X39377762Y-133559440D01*
X39377762Y-133559440D02*
X39358714Y-133568963D01*
X39358714Y-133568963D02*
X39320619Y-133568963D01*
X39320619Y-133568963D02*
X39301571Y-133559440D01*
X39301571Y-133559440D02*
X39282524Y-133540392D01*
X39282524Y-133540392D02*
X39273000Y-133502297D01*
X39273000Y-133502297D02*
X39273000Y-133435630D01*
X39273000Y-133435630D02*
X39282524Y-133397535D01*
X39282524Y-133397535D02*
X39301571Y-133378487D01*
X39301571Y-133378487D02*
X39320619Y-133368963D01*
X39492048Y-133568963D02*
X39492048Y-133368963D01*
X39492048Y-133368963D02*
X39606333Y-133568963D01*
X39606333Y-133568963D02*
X39606333Y-133368963D01*
X39701572Y-133464201D02*
X39768238Y-133464201D01*
X39796810Y-133568963D02*
X39701572Y-133568963D01*
X39701572Y-133568963D02*
X39701572Y-133368963D01*
X39701572Y-133368963D02*
X39796810Y-133368963D01*
X42492047Y-133168963D02*
X42492047Y-132968963D01*
X42492047Y-132968963D02*
X42606332Y-133168963D01*
X42606332Y-133168963D02*
X42606332Y-132968963D01*
X42730142Y-133168963D02*
X42711094Y-133159440D01*
X42711094Y-133159440D02*
X42701571Y-133149916D01*
X42701571Y-133149916D02*
X42692047Y-133130868D01*
X42692047Y-133130868D02*
X42692047Y-133073725D01*
X42692047Y-133073725D02*
X42701571Y-133054678D01*
X42701571Y-133054678D02*
X42711094Y-133045154D01*
X42711094Y-133045154D02*
X42730142Y-133035630D01*
X42730142Y-133035630D02*
X42758713Y-133035630D01*
X42758713Y-133035630D02*
X42777761Y-133045154D01*
X42777761Y-133045154D02*
X42787285Y-133054678D01*
X42787285Y-133054678D02*
X42796809Y-133073725D01*
X42796809Y-133073725D02*
X42796809Y-133130868D01*
X42796809Y-133130868D02*
X42787285Y-133149916D01*
X42787285Y-133149916D02*
X42777761Y-133159440D01*
X42777761Y-133159440D02*
X42758713Y-133168963D01*
X42758713Y-133168963D02*
X42730142Y-133168963D01*
X43101570Y-133064201D02*
X43034904Y-133064201D01*
X43034904Y-133168963D02*
X43034904Y-132968963D01*
X43034904Y-132968963D02*
X43130142Y-132968963D01*
X43206333Y-133149916D02*
X43215856Y-133159440D01*
X43215856Y-133159440D02*
X43206333Y-133168963D01*
X43206333Y-133168963D02*
X43196809Y-133159440D01*
X43196809Y-133159440D02*
X43206333Y-133149916D01*
X43206333Y-133149916D02*
X43206333Y-133168963D01*
X43415856Y-133149916D02*
X43406332Y-133159440D01*
X43406332Y-133159440D02*
X43377761Y-133168963D01*
X43377761Y-133168963D02*
X43358713Y-133168963D01*
X43358713Y-133168963D02*
X43330142Y-133159440D01*
X43330142Y-133159440D02*
X43311094Y-133140392D01*
X43311094Y-133140392D02*
X43301571Y-133121344D01*
X43301571Y-133121344D02*
X43292047Y-133083249D01*
X43292047Y-133083249D02*
X43292047Y-133054678D01*
X43292047Y-133054678D02*
X43301571Y-133016582D01*
X43301571Y-133016582D02*
X43311094Y-132997535D01*
X43311094Y-132997535D02*
X43330142Y-132978487D01*
X43330142Y-132978487D02*
X43358713Y-132968963D01*
X43358713Y-132968963D02*
X43377761Y-132968963D01*
X43377761Y-132968963D02*
X43406332Y-132978487D01*
X43406332Y-132978487D02*
X43415856Y-132988011D01*
X43587285Y-133035630D02*
X43587285Y-133168963D01*
X43501571Y-133035630D02*
X43501571Y-133140392D01*
X43501571Y-133140392D02*
X43511094Y-133159440D01*
X43511094Y-133159440D02*
X43530142Y-133168963D01*
X43530142Y-133168963D02*
X43558713Y-133168963D01*
X43558713Y-133168963D02*
X43577761Y-133159440D01*
X43577761Y-133159440D02*
X43587285Y-133149916D01*
X43806332Y-133035630D02*
X43882523Y-133035630D01*
X43834904Y-132968963D02*
X43834904Y-133140392D01*
X43834904Y-133140392D02*
X43844427Y-133159440D01*
X43844427Y-133159440D02*
X43863475Y-133168963D01*
X43863475Y-133168963D02*
X43882523Y-133168963D01*
X43949190Y-133168963D02*
X43949190Y-133035630D01*
X43949190Y-133073725D02*
X43958713Y-133054678D01*
X43958713Y-133054678D02*
X43968237Y-133045154D01*
X43968237Y-133045154D02*
X43987285Y-133035630D01*
X43987285Y-133035630D02*
X44006332Y-133035630D01*
X44158714Y-133168963D02*
X44158714Y-133064201D01*
X44158714Y-133064201D02*
X44149190Y-133045154D01*
X44149190Y-133045154D02*
X44130142Y-133035630D01*
X44130142Y-133035630D02*
X44092047Y-133035630D01*
X44092047Y-133035630D02*
X44073000Y-133045154D01*
X44158714Y-133159440D02*
X44139666Y-133168963D01*
X44139666Y-133168963D02*
X44092047Y-133168963D01*
X44092047Y-133168963D02*
X44073000Y-133159440D01*
X44073000Y-133159440D02*
X44063476Y-133140392D01*
X44063476Y-133140392D02*
X44063476Y-133121344D01*
X44063476Y-133121344D02*
X44073000Y-133102297D01*
X44073000Y-133102297D02*
X44092047Y-133092773D01*
X44092047Y-133092773D02*
X44139666Y-133092773D01*
X44139666Y-133092773D02*
X44158714Y-133083249D01*
X44339666Y-133159440D02*
X44320618Y-133168963D01*
X44320618Y-133168963D02*
X44282523Y-133168963D01*
X44282523Y-133168963D02*
X44263475Y-133159440D01*
X44263475Y-133159440D02*
X44253952Y-133149916D01*
X44253952Y-133149916D02*
X44244428Y-133130868D01*
X44244428Y-133130868D02*
X44244428Y-133073725D01*
X44244428Y-133073725D02*
X44253952Y-133054678D01*
X44253952Y-133054678D02*
X44263475Y-133045154D01*
X44263475Y-133045154D02*
X44282523Y-133035630D01*
X44282523Y-133035630D02*
X44320618Y-133035630D01*
X44320618Y-133035630D02*
X44339666Y-133045154D01*
X44425381Y-133168963D02*
X44425381Y-132968963D01*
X44444428Y-133092773D02*
X44501571Y-133168963D01*
X44501571Y-133035630D02*
X44425381Y-133111820D01*
X44577762Y-133159440D02*
X44596809Y-133168963D01*
X44596809Y-133168963D02*
X44634905Y-133168963D01*
X44634905Y-133168963D02*
X44653952Y-133159440D01*
X44653952Y-133159440D02*
X44663476Y-133140392D01*
X44663476Y-133140392D02*
X44663476Y-133130868D01*
X44663476Y-133130868D02*
X44653952Y-133111820D01*
X44653952Y-133111820D02*
X44634905Y-133102297D01*
X44634905Y-133102297D02*
X44606333Y-133102297D01*
X44606333Y-133102297D02*
X44587286Y-133092773D01*
X44587286Y-133092773D02*
X44577762Y-133073725D01*
X44577762Y-133073725D02*
X44577762Y-133064201D01*
X44577762Y-133064201D02*
X44587286Y-133045154D01*
X44587286Y-133045154D02*
X44606333Y-133035630D01*
X44606333Y-133035630D02*
X44634905Y-133035630D01*
X44634905Y-133035630D02*
X44653952Y-133045154D01*
X42358715Y-133568963D02*
X42358715Y-133368963D01*
X42473000Y-133568963D02*
X42387286Y-133454678D01*
X42473000Y-133368963D02*
X42358715Y-133483249D01*
X42558715Y-133464201D02*
X42625381Y-133464201D01*
X42653953Y-133568963D02*
X42558715Y-133568963D01*
X42558715Y-133568963D02*
X42558715Y-133368963D01*
X42558715Y-133368963D02*
X42653953Y-133368963D01*
X42739667Y-133464201D02*
X42806333Y-133464201D01*
X42834905Y-133568963D02*
X42739667Y-133568963D01*
X42739667Y-133568963D02*
X42739667Y-133368963D01*
X42739667Y-133368963D02*
X42834905Y-133368963D01*
X42920619Y-133568963D02*
X42920619Y-133368963D01*
X42920619Y-133368963D02*
X42996809Y-133368963D01*
X42996809Y-133368963D02*
X43015857Y-133378487D01*
X43015857Y-133378487D02*
X43025380Y-133388011D01*
X43025380Y-133388011D02*
X43034904Y-133407059D01*
X43034904Y-133407059D02*
X43034904Y-133435630D01*
X43034904Y-133435630D02*
X43025380Y-133454678D01*
X43025380Y-133454678D02*
X43015857Y-133464201D01*
X43015857Y-133464201D02*
X42996809Y-133473725D01*
X42996809Y-133473725D02*
X42920619Y-133473725D01*
X43120619Y-133492773D02*
X43273000Y-133492773D01*
X43406333Y-133368963D02*
X43444428Y-133368963D01*
X43444428Y-133368963D02*
X43463476Y-133378487D01*
X43463476Y-133378487D02*
X43482523Y-133397535D01*
X43482523Y-133397535D02*
X43492047Y-133435630D01*
X43492047Y-133435630D02*
X43492047Y-133502297D01*
X43492047Y-133502297D02*
X43482523Y-133540392D01*
X43482523Y-133540392D02*
X43463476Y-133559440D01*
X43463476Y-133559440D02*
X43444428Y-133568963D01*
X43444428Y-133568963D02*
X43406333Y-133568963D01*
X43406333Y-133568963D02*
X43387285Y-133559440D01*
X43387285Y-133559440D02*
X43368238Y-133540392D01*
X43368238Y-133540392D02*
X43358714Y-133502297D01*
X43358714Y-133502297D02*
X43358714Y-133435630D01*
X43358714Y-133435630D02*
X43368238Y-133397535D01*
X43368238Y-133397535D02*
X43387285Y-133378487D01*
X43387285Y-133378487D02*
X43406333Y-133368963D01*
X43577762Y-133368963D02*
X43577762Y-133530868D01*
X43577762Y-133530868D02*
X43587285Y-133549916D01*
X43587285Y-133549916D02*
X43596809Y-133559440D01*
X43596809Y-133559440D02*
X43615857Y-133568963D01*
X43615857Y-133568963D02*
X43653952Y-133568963D01*
X43653952Y-133568963D02*
X43673000Y-133559440D01*
X43673000Y-133559440D02*
X43682523Y-133549916D01*
X43682523Y-133549916D02*
X43692047Y-133530868D01*
X43692047Y-133530868D02*
X43692047Y-133368963D01*
X43758714Y-133368963D02*
X43873000Y-133368963D01*
X43815857Y-133568963D02*
X43815857Y-133368963D01*
X44073000Y-133368963D02*
X44206333Y-133368963D01*
X44206333Y-133368963D02*
X44073000Y-133568963D01*
X44073000Y-133568963D02*
X44206333Y-133568963D01*
X44320619Y-133368963D02*
X44358714Y-133368963D01*
X44358714Y-133368963D02*
X44377762Y-133378487D01*
X44377762Y-133378487D02*
X44396809Y-133397535D01*
X44396809Y-133397535D02*
X44406333Y-133435630D01*
X44406333Y-133435630D02*
X44406333Y-133502297D01*
X44406333Y-133502297D02*
X44396809Y-133540392D01*
X44396809Y-133540392D02*
X44377762Y-133559440D01*
X44377762Y-133559440D02*
X44358714Y-133568963D01*
X44358714Y-133568963D02*
X44320619Y-133568963D01*
X44320619Y-133568963D02*
X44301571Y-133559440D01*
X44301571Y-133559440D02*
X44282524Y-133540392D01*
X44282524Y-133540392D02*
X44273000Y-133502297D01*
X44273000Y-133502297D02*
X44273000Y-133435630D01*
X44273000Y-133435630D02*
X44282524Y-133397535D01*
X44282524Y-133397535D02*
X44301571Y-133378487D01*
X44301571Y-133378487D02*
X44320619Y-133368963D01*
X44492048Y-133568963D02*
X44492048Y-133368963D01*
X44492048Y-133368963D02*
X44606333Y-133568963D01*
X44606333Y-133568963D02*
X44606333Y-133368963D01*
X44701572Y-133464201D02*
X44768238Y-133464201D01*
X44796810Y-133568963D02*
X44701572Y-133568963D01*
X44701572Y-133568963D02*
X44701572Y-133368963D01*
X44701572Y-133368963D02*
X44796810Y-133368963D01*
D11*
%TO.C,H103*%
X81700000Y-134500000D02*
G75*
G02*
X75300000Y-134500000I-3200000J0D01*
G01*
X75300000Y-134500000D02*
G75*
G02*
X81700000Y-134500000I3200000J0D01*
G01*
%TO.C,H102*%
X81700000Y-72500000D02*
G75*
G02*
X75300000Y-72500000I-3200000J0D01*
G01*
X75300000Y-72500000D02*
G75*
G02*
X81700000Y-72500000I3200000J0D01*
G01*
%TO.C,H101*%
X34200000Y-72000000D02*
G75*
G02*
X27800000Y-72000000I-3200000J0D01*
G01*
X27800000Y-72000000D02*
G75*
G02*
X34200000Y-72000000I3200000J0D01*
G01*
%TO.C,H104*%
X34200000Y-134500000D02*
G75*
G02*
X27800000Y-134500000I-3200000J0D01*
G01*
X27800000Y-134500000D02*
G75*
G02*
X34200000Y-134500000I3200000J0D01*
G01*
%TD*%
M02*
