%TF.GenerationSoftware,KiCad,Pcbnew,7.0.7*%
%TF.CreationDate,2023-09-06T14:49:37+02:00*%
%TF.ProjectId,keerlusRelais,6b656572-6c75-4735-9265-6c6169732e6b,rev?*%
%TF.SameCoordinates,Original*%
%TF.FileFunction,Copper,L1,Top*%
%TF.FilePolarity,Positive*%
%FSLAX46Y46*%
G04 Gerber Fmt 4.6, Leading zero omitted, Abs format (unit mm)*
G04 Created by KiCad (PCBNEW 7.0.7) date 2023-09-06 14:49:37*
%MOMM*%
%LPD*%
G01*
G04 APERTURE LIST*
G04 Aperture macros list*
%AMRoundRect*
0 Rectangle with rounded corners*
0 $1 Rounding radius*
0 $2 $3 $4 $5 $6 $7 $8 $9 X,Y pos of 4 corners*
0 Add a 4 corners polygon primitive as box body*
4,1,4,$2,$3,$4,$5,$6,$7,$8,$9,$2,$3,0*
0 Add four circle primitives for the rounded corners*
1,1,$1+$1,$2,$3*
1,1,$1+$1,$4,$5*
1,1,$1+$1,$6,$7*
1,1,$1+$1,$8,$9*
0 Add four rect primitives between the rounded corners*
20,1,$1+$1,$2,$3,$4,$5,0*
20,1,$1+$1,$4,$5,$6,$7,0*
20,1,$1+$1,$6,$7,$8,$9,0*
20,1,$1+$1,$8,$9,$2,$3,0*%
%AMFreePoly0*
4,1,9,3.862500,-0.866500,0.737500,-0.866500,0.737500,-0.450000,-0.737500,-0.450000,-0.737500,0.450000,0.737500,0.450000,0.737500,0.866500,3.862500,0.866500,3.862500,-0.866500,3.862500,-0.866500,$1*%
G04 Aperture macros list end*
%TA.AperFunction,ComponentPad*%
%ADD10R,2.600000X2.600000*%
%TD*%
%TA.AperFunction,ComponentPad*%
%ADD11C,2.600000*%
%TD*%
%TA.AperFunction,SMDPad,CuDef*%
%ADD12RoundRect,0.237500X-0.237500X0.250000X-0.237500X-0.250000X0.237500X-0.250000X0.237500X0.250000X0*%
%TD*%
%TA.AperFunction,ComponentPad*%
%ADD13R,1.700000X1.700000*%
%TD*%
%TA.AperFunction,ComponentPad*%
%ADD14O,1.700000X1.700000*%
%TD*%
%TA.AperFunction,SMDPad,CuDef*%
%ADD15RoundRect,0.225000X-0.250000X0.225000X-0.250000X-0.225000X0.250000X-0.225000X0.250000X0.225000X0*%
%TD*%
%TA.AperFunction,SMDPad,CuDef*%
%ADD16R,0.800000X1.800000*%
%TD*%
%TA.AperFunction,SMDPad,CuDef*%
%ADD17RoundRect,0.237500X0.237500X-0.250000X0.237500X0.250000X-0.237500X0.250000X-0.237500X-0.250000X0*%
%TD*%
%TA.AperFunction,SMDPad,CuDef*%
%ADD18RoundRect,0.150000X-0.587500X-0.150000X0.587500X-0.150000X0.587500X0.150000X-0.587500X0.150000X0*%
%TD*%
%TA.AperFunction,SMDPad,CuDef*%
%ADD19RoundRect,0.250000X0.650000X-0.325000X0.650000X0.325000X-0.650000X0.325000X-0.650000X-0.325000X0*%
%TD*%
%TA.AperFunction,SMDPad,CuDef*%
%ADD20R,1.000000X0.800000*%
%TD*%
%TA.AperFunction,SMDPad,CuDef*%
%ADD21R,0.900000X1.300000*%
%TD*%
%TA.AperFunction,SMDPad,CuDef*%
%ADD22FreePoly0,90.000000*%
%TD*%
%TA.AperFunction,SMDPad,CuDef*%
%ADD23RoundRect,0.112500X0.112500X-0.187500X0.112500X0.187500X-0.112500X0.187500X-0.112500X-0.187500X0*%
%TD*%
%TA.AperFunction,SMDPad,CuDef*%
%ADD24RoundRect,0.250000X-0.325000X-0.650000X0.325000X-0.650000X0.325000X0.650000X-0.325000X0.650000X0*%
%TD*%
%TA.AperFunction,ViaPad*%
%ADD25C,0.800000*%
%TD*%
%TA.AperFunction,Conductor*%
%ADD26C,0.250000*%
%TD*%
%TA.AperFunction,Conductor*%
%ADD27C,0.300000*%
%TD*%
%TA.AperFunction,Conductor*%
%ADD28C,0.700000*%
%TD*%
G04 APERTURE END LIST*
D10*
%TO.P,J1,1,Pin_1*%
%TO.N,/DCC_A_IN*%
X187706000Y-81280000D03*
D11*
%TO.P,J1,2,Pin_2*%
%TO.N,/DCC_B_IN*%
X187706000Y-76200000D03*
%TD*%
D12*
%TO.P,R2,1*%
%TO.N,Net-(Q2-B)*%
X173482000Y-58015500D03*
%TO.P,R2,2*%
%TO.N,Net-(J3-Pin_1)*%
X173482000Y-59840500D03*
%TD*%
D10*
%TO.P,J2,1,Pin_1*%
%TO.N,/DCC_A_OUT*%
X187706000Y-71120000D03*
D11*
%TO.P,J2,2,Pin_2*%
%TO.N,/DCC_B_OUT*%
X187706000Y-66040000D03*
%TD*%
D13*
%TO.P,J3,1,Pin_1*%
%TO.N,Net-(J3-Pin_1)*%
X179070000Y-79883000D03*
D14*
%TO.P,J3,2,Pin_2*%
%TO.N,+12V*%
X179070000Y-77343000D03*
%TO.P,J3,3,Pin_3*%
%TO.N,GND*%
X179070000Y-74803000D03*
%TD*%
D15*
%TO.P,C3,1*%
%TO.N,GND*%
X170307000Y-88620000D03*
%TO.P,C3,2*%
%TO.N,+12V*%
X170307000Y-90170000D03*
%TD*%
D16*
%TO.P,K1,1*%
%TO.N,+12V*%
X179070000Y-63500000D03*
%TO.P,K1,2*%
%TO.N,/DCC_A_IN*%
X175870000Y-63500000D03*
%TO.P,K1,3*%
%TO.N,/DCC_B_OUT*%
X173670000Y-63500000D03*
%TO.P,K1,4*%
%TO.N,/DCC_B_IN*%
X171470000Y-63500000D03*
%TO.P,K1,5*%
%TO.N,/DCC_A_IN*%
X171470000Y-70500000D03*
%TO.P,K1,6*%
%TO.N,/DCC_A_OUT*%
X173670000Y-70500000D03*
%TO.P,K1,7*%
%TO.N,/DCC_B_IN*%
X175870000Y-70500000D03*
%TO.P,K1,8*%
%TO.N,Net-(D2-A)*%
X179070000Y-70500000D03*
%TD*%
D17*
%TO.P,R1,1*%
%TO.N,+12V*%
X183896000Y-59817000D03*
%TO.P,R1,2*%
%TO.N,Net-(Q1-B)*%
X183896000Y-57992000D03*
%TD*%
D18*
%TO.P,Q2,1,B*%
%TO.N,Net-(Q2-B)*%
X175592500Y-57978000D03*
%TO.P,Q2,2,E*%
%TO.N,GND*%
X175592500Y-59878000D03*
%TO.P,Q2,3,C*%
%TO.N,Net-(Q1-B)*%
X177467500Y-58928000D03*
%TD*%
D19*
%TO.P,C4,1*%
%TO.N,Net-(J3-Pin_1)*%
X171196000Y-60022000D03*
%TO.P,C4,2*%
%TO.N,GND*%
X171196000Y-57072000D03*
%TD*%
D15*
%TO.P,C1,1*%
%TO.N,GND*%
X177292000Y-88633000D03*
%TO.P,C1,2*%
%TO.N,VCC*%
X177292000Y-90183000D03*
%TD*%
D20*
%TO.P,D1,1,+*%
%TO.N,VCC*%
X179932000Y-86868000D03*
%TO.P,D1,2,-*%
%TO.N,GND*%
X179932000Y-89408000D03*
%TO.P,D1,3*%
%TO.N,/DCC_A_IN*%
X186082000Y-89408000D03*
%TO.P,D1,4*%
%TO.N,/DCC_B_IN*%
X186082000Y-86868000D03*
%TD*%
D21*
%TO.P,U1,1,OUT*%
%TO.N,+12V*%
X172294000Y-89976500D03*
D22*
%TO.P,U1,2,GND*%
%TO.N,GND*%
X173794000Y-89889000D03*
D21*
%TO.P,U1,3,IN*%
%TO.N,VCC*%
X175294000Y-89976500D03*
%TD*%
D23*
%TO.P,D2,1,K*%
%TO.N,+12V*%
X186055000Y-59851000D03*
%TO.P,D2,2,A*%
%TO.N,Net-(D2-A)*%
X186055000Y-57751000D03*
%TD*%
D24*
%TO.P,C2,1*%
%TO.N,+12V*%
X170483000Y-84328000D03*
%TO.P,C2,2*%
%TO.N,GND*%
X173433000Y-84328000D03*
%TD*%
D18*
%TO.P,Q1,1,B*%
%TO.N,Net-(Q1-B)*%
X179910500Y-57978000D03*
%TO.P,Q1,2,E*%
%TO.N,GND*%
X179910500Y-59878000D03*
%TO.P,Q1,3,C*%
%TO.N,Net-(D2-A)*%
X181785500Y-58928000D03*
%TD*%
D25*
%TO.N,GND*%
X185801000Y-62357000D03*
X175260000Y-83058000D03*
X171323000Y-81280000D03*
X172212000Y-87757000D03*
X178562000Y-60833000D03*
X171958000Y-84328000D03*
X176276000Y-80645000D03*
X184404000Y-77089000D03*
X190754000Y-83312000D03*
X183769000Y-88138000D03*
X175768000Y-84836000D03*
X175387000Y-61341000D03*
X172085000Y-86487000D03*
X170561000Y-74803000D03*
X173228000Y-56388000D03*
X190627000Y-66802000D03*
X181229000Y-89408000D03*
X177419000Y-87122000D03*
X193294000Y-61468000D03*
X172339000Y-61468000D03*
X170942000Y-86995000D03*
X177546000Y-60325000D03*
X175514000Y-86741000D03*
X183642000Y-82804000D03*
X184912000Y-56388000D03*
X180467000Y-65532000D03*
X181229000Y-75565000D03*
X191262000Y-77089000D03*
X171196000Y-58547000D03*
X179197000Y-83566000D03*
X175387000Y-88519000D03*
X178689000Y-56515000D03*
X188341000Y-89916000D03*
X178943000Y-88265000D03*
X172466000Y-66167000D03*
%TO.N,+12V*%
X177673000Y-66040000D03*
X176219602Y-72192398D03*
%TO.N,/DCC_A_IN*%
X177546000Y-68905500D03*
X176276000Y-65405000D03*
X174525101Y-66774899D03*
%TO.N,Net-(D2-A)*%
X177841523Y-64811523D03*
X177927000Y-70739000D03*
%TD*%
D26*
%TO.N,VCC*%
X181991000Y-90043000D02*
X181991000Y-88773000D01*
X177292000Y-90183000D02*
X178321000Y-90183000D01*
X178689000Y-90551000D02*
X181483000Y-90551000D01*
X180208000Y-86990000D02*
X179981500Y-86990000D01*
X178321000Y-90183000D02*
X178689000Y-90551000D01*
X177292000Y-90183000D02*
X175500500Y-90183000D01*
X175500500Y-90183000D02*
X175294000Y-89976500D01*
X181483000Y-90551000D02*
X181991000Y-90043000D01*
X181991000Y-88773000D02*
X180208000Y-86990000D01*
D27*
%TO.N,GND*%
X179981500Y-89535000D02*
X181102000Y-89535000D01*
X179981500Y-88541500D02*
X179981500Y-89535000D01*
X179705000Y-88265000D02*
X179981500Y-88541500D01*
X178943000Y-88265000D02*
X179705000Y-88265000D01*
X179981500Y-89535000D02*
X178943000Y-89535000D01*
X181102000Y-89535000D02*
X181229000Y-89408000D01*
X178816000Y-89408000D02*
X178435000Y-89027000D01*
X178943000Y-89535000D02*
X178816000Y-89408000D01*
%TO.N,+12V*%
X179324000Y-81915000D02*
X180270000Y-80969000D01*
X176219602Y-74492602D02*
X179070000Y-77343000D01*
X169482000Y-89345000D02*
X170307000Y-90170000D01*
X170483000Y-84328000D02*
X170483000Y-84152000D01*
X169482000Y-85329000D02*
X169482000Y-89345000D01*
X170483000Y-84152000D02*
X172720000Y-81915000D01*
X176219602Y-72192398D02*
X176219602Y-74492602D01*
X172720000Y-81915000D02*
X179324000Y-81915000D01*
D26*
X170500500Y-89976500D02*
X170307000Y-90170000D01*
X172294000Y-89976500D02*
X170500500Y-89976500D01*
D27*
X170483000Y-84328000D02*
X169482000Y-85329000D01*
X180270000Y-80969000D02*
X180270000Y-78543000D01*
X186055000Y-59851000D02*
X183930000Y-59851000D01*
X179070000Y-63500000D02*
X179070000Y-64643000D01*
X180270000Y-78543000D02*
X179070000Y-77343000D01*
X183930000Y-59851000D02*
X183896000Y-59817000D01*
X183896000Y-59817000D02*
X183896000Y-61468000D01*
X181864000Y-63500000D02*
X179070000Y-63500000D01*
X183896000Y-61468000D02*
X181864000Y-63500000D01*
X179070000Y-64643000D02*
X177673000Y-66040000D01*
D28*
%TO.N,/DCC_A_OUT*%
X176214000Y-67956000D02*
X173670000Y-70500000D01*
X187706000Y-71120000D02*
X184542000Y-67956000D01*
X184542000Y-67956000D02*
X176214000Y-67956000D01*
%TO.N,/DCC_B_OUT*%
X186690000Y-67056000D02*
X176149000Y-67056000D01*
X187706000Y-66040000D02*
X186690000Y-67056000D01*
X176149000Y-67056000D02*
X173670000Y-64577000D01*
X173670000Y-64577000D02*
X173670000Y-63500000D01*
%TO.N,/DCC_B_IN*%
X170942000Y-72136000D02*
X174498000Y-72136000D01*
X187706000Y-76200000D02*
X183769000Y-72263000D01*
X175870000Y-70764000D02*
X175870000Y-70500000D01*
X186082000Y-85090000D02*
X186082000Y-86868000D01*
X170520000Y-71714000D02*
X170942000Y-72136000D01*
X185574500Y-84582500D02*
X186082000Y-85090000D01*
X183769000Y-72263000D02*
X177633000Y-72263000D01*
X174498000Y-72136000D02*
X175870000Y-70764000D01*
X170520000Y-64450000D02*
X170520000Y-71714000D01*
X187706000Y-76200000D02*
X185574500Y-78331500D01*
X177633000Y-72263000D02*
X175870000Y-70500000D01*
X171470000Y-63500000D02*
X170520000Y-64450000D01*
X185574500Y-78331500D02*
X185574500Y-84582500D01*
%TO.N,/DCC_A_IN*%
X175870000Y-63500000D02*
X175870000Y-64999000D01*
X189556000Y-75433704D02*
X189556000Y-79430000D01*
X177595500Y-68856000D02*
X181634792Y-68856000D01*
X187706000Y-81280000D02*
X187706000Y-87784000D01*
X175870000Y-64999000D02*
X176276000Y-65405000D01*
X177546000Y-68905500D02*
X177595500Y-68856000D01*
X187128792Y-74350000D02*
X188472296Y-74350000D01*
X188472296Y-74350000D02*
X189556000Y-75433704D01*
X174525101Y-66774899D02*
X171470000Y-69830000D01*
X187706000Y-87784000D02*
X186082000Y-89408000D01*
X189556000Y-79430000D02*
X187706000Y-81280000D01*
X171470000Y-69830000D02*
X171470000Y-70500000D01*
X181634792Y-68856000D02*
X187128792Y-74350000D01*
D27*
%TO.N,Net-(D2-A)*%
X178848000Y-61722000D02*
X180340000Y-61722000D01*
X178166000Y-70500000D02*
X177927000Y-70739000D01*
X177841523Y-64811523D02*
X177841523Y-62728477D01*
X179070000Y-70500000D02*
X178166000Y-70500000D01*
X181785500Y-60276500D02*
X181785500Y-58928000D01*
X184278350Y-58928000D02*
X185455350Y-57751000D01*
X185455350Y-57751000D02*
X186055000Y-57751000D01*
X177841523Y-62728477D02*
X178848000Y-61722000D01*
X180340000Y-61722000D02*
X181785500Y-60276500D01*
X181785500Y-58928000D02*
X184278350Y-58928000D01*
%TO.N,Net-(J3-Pin_1)*%
X179070000Y-79883000D02*
X177699050Y-79883000D01*
X171377500Y-59840500D02*
X171196000Y-60022000D01*
X169820000Y-61398000D02*
X171196000Y-60022000D01*
X173482000Y-59840500D02*
X171377500Y-59840500D01*
X177699050Y-79883000D02*
X169820000Y-72003949D01*
X169820000Y-72003949D02*
X169820000Y-61398000D01*
%TO.N,Net-(Q1-B)*%
X183896000Y-57992000D02*
X179924500Y-57992000D01*
X179924500Y-57992000D02*
X179910500Y-57978000D01*
X178562000Y-58928000D02*
X179512000Y-57978000D01*
X179512000Y-57978000D02*
X179910500Y-57978000D01*
X177467500Y-58928000D02*
X178562000Y-58928000D01*
%TO.N,Net-(Q2-B)*%
X173519500Y-57978000D02*
X173482000Y-58015500D01*
X175592500Y-57978000D02*
X173519500Y-57978000D01*
%TD*%
%TA.AperFunction,Conductor*%
%TO.N,GND*%
G36*
X170316585Y-55820185D02*
G01*
X170362340Y-55872989D01*
X170372284Y-55942147D01*
X170343259Y-56005703D01*
X170288551Y-56042206D01*
X170226878Y-56062642D01*
X170226875Y-56062643D01*
X170077654Y-56154684D01*
X169953684Y-56278654D01*
X169861643Y-56427875D01*
X169861641Y-56427880D01*
X169806494Y-56594302D01*
X169806493Y-56594309D01*
X169796000Y-56697013D01*
X169796000Y-56822000D01*
X172595999Y-56822000D01*
X172595999Y-56697028D01*
X172595998Y-56697013D01*
X172585505Y-56594302D01*
X172530358Y-56427880D01*
X172530356Y-56427875D01*
X172438315Y-56278654D01*
X172314345Y-56154684D01*
X172165124Y-56062643D01*
X172165119Y-56062641D01*
X172103449Y-56042206D01*
X172046004Y-56002433D01*
X172019181Y-55937918D01*
X172031496Y-55869142D01*
X172079039Y-55817942D01*
X172142453Y-55800500D01*
X194075500Y-55800500D01*
X194142539Y-55820185D01*
X194188294Y-55872989D01*
X194199500Y-55924500D01*
X194199500Y-91075500D01*
X194179815Y-91142539D01*
X194127011Y-91188294D01*
X194075500Y-91199500D01*
X182032206Y-91199500D01*
X181965167Y-91179815D01*
X181919412Y-91127011D01*
X181909468Y-91057853D01*
X181936657Y-90996465D01*
X181950224Y-90980065D01*
X181954125Y-90975777D01*
X182379815Y-90550087D01*
X182392180Y-90540183D01*
X182392006Y-90539973D01*
X182398012Y-90535003D01*
X182398018Y-90535000D01*
X182445999Y-90483904D01*
X182467134Y-90462770D01*
X182471463Y-90457187D01*
X182475242Y-90452763D01*
X182507586Y-90418321D01*
X182517423Y-90400424D01*
X182528097Y-90384174D01*
X182540613Y-90368041D01*
X182559372Y-90324689D01*
X182561933Y-90319462D01*
X182584695Y-90278060D01*
X182589774Y-90258274D01*
X182596072Y-90239882D01*
X182604181Y-90221145D01*
X182611568Y-90174501D01*
X182612748Y-90168794D01*
X182624500Y-90123030D01*
X182624500Y-90102609D01*
X182626027Y-90083209D01*
X182629219Y-90063057D01*
X182624772Y-90016019D01*
X182624500Y-90010224D01*
X182624500Y-88856631D01*
X182626239Y-88840880D01*
X182625968Y-88840855D01*
X182626700Y-88833099D01*
X182626702Y-88833092D01*
X182624500Y-88763028D01*
X182624500Y-88733144D01*
X182623614Y-88726141D01*
X182623157Y-88720322D01*
X182621674Y-88673111D01*
X182615976Y-88653499D01*
X182612033Y-88634466D01*
X182609474Y-88614203D01*
X182592085Y-88570286D01*
X182590196Y-88564766D01*
X182577018Y-88519407D01*
X182566626Y-88501835D01*
X182558066Y-88484362D01*
X182550552Y-88465383D01*
X182522794Y-88427179D01*
X182519587Y-88422296D01*
X182496347Y-88383000D01*
X182495542Y-88381638D01*
X182481108Y-88367204D01*
X182468471Y-88352409D01*
X182456472Y-88335893D01*
X182456470Y-88335890D01*
X182420073Y-88305781D01*
X182415751Y-88301847D01*
X180976819Y-86862914D01*
X180943334Y-86801591D01*
X180940500Y-86775233D01*
X180940500Y-86419362D01*
X180940499Y-86419345D01*
X180937157Y-86388270D01*
X180933989Y-86358799D01*
X180919512Y-86319986D01*
X180883420Y-86223220D01*
X180882889Y-86221796D01*
X180795261Y-86104739D01*
X180678204Y-86017111D01*
X180678203Y-86017111D01*
X180541203Y-85966011D01*
X180480654Y-85959500D01*
X180480638Y-85959500D01*
X179383362Y-85959500D01*
X179383345Y-85959500D01*
X179322797Y-85966011D01*
X179322795Y-85966011D01*
X179185795Y-86017111D01*
X179068739Y-86104739D01*
X178981111Y-86221795D01*
X178930011Y-86358795D01*
X178930011Y-86358797D01*
X178923500Y-86419345D01*
X178923500Y-87316654D01*
X178930011Y-87377202D01*
X178930011Y-87377204D01*
X178981110Y-87514203D01*
X178981111Y-87514204D01*
X179068739Y-87631261D01*
X179185796Y-87718889D01*
X179322799Y-87769989D01*
X179350050Y-87772918D01*
X179383345Y-87776499D01*
X179383362Y-87776500D01*
X180047234Y-87776500D01*
X180114273Y-87796185D01*
X180134915Y-87812819D01*
X180623746Y-88301650D01*
X180657231Y-88362973D01*
X180652247Y-88432665D01*
X180610375Y-88488598D01*
X180544911Y-88513015D01*
X180522810Y-88512621D01*
X180479828Y-88508000D01*
X180182000Y-88508000D01*
X180182000Y-89158000D01*
X180932000Y-89158000D01*
X180932000Y-88960172D01*
X180931999Y-88960158D01*
X180927379Y-88917191D01*
X180939783Y-88848431D01*
X180987393Y-88797293D01*
X181055092Y-88780013D01*
X181121386Y-88802077D01*
X181138349Y-88816253D01*
X181321181Y-88999085D01*
X181354666Y-89060408D01*
X181357500Y-89086766D01*
X181357499Y-89729233D01*
X181337814Y-89796273D01*
X181321181Y-89816914D01*
X181256912Y-89881182D01*
X181195592Y-89914666D01*
X181169233Y-89917500D01*
X181056000Y-89917500D01*
X180988961Y-89897815D01*
X180943206Y-89845011D01*
X180932000Y-89793500D01*
X180932000Y-89658000D01*
X178932000Y-89658000D01*
X178898494Y-89691506D01*
X178837170Y-89724990D01*
X178767479Y-89720005D01*
X178725931Y-89694218D01*
X178696322Y-89666414D01*
X178696319Y-89666412D01*
X178678431Y-89656578D01*
X178662170Y-89645897D01*
X178646039Y-89633384D01*
X178602693Y-89614627D01*
X178597445Y-89612056D01*
X178570251Y-89597106D01*
X178556060Y-89589305D01*
X178552660Y-89588432D01*
X178536287Y-89584228D01*
X178517881Y-89577926D01*
X178499144Y-89569818D01*
X178499146Y-89569818D01*
X178452496Y-89562430D01*
X178446781Y-89561246D01*
X178426612Y-89556068D01*
X178401032Y-89549500D01*
X178401030Y-89549500D01*
X178380616Y-89549500D01*
X178361217Y-89547973D01*
X178341058Y-89544780D01*
X178341057Y-89544780D01*
X178294034Y-89549225D01*
X178288196Y-89549500D01*
X178220489Y-89549500D01*
X178153450Y-89529815D01*
X178123218Y-89502405D01*
X178121287Y-89499964D01*
X178121285Y-89499960D01*
X178110999Y-89489674D01*
X178077512Y-89428352D01*
X178082494Y-89358660D01*
X178111001Y-89314304D01*
X178114573Y-89310731D01*
X178203542Y-89166492D01*
X178203547Y-89166481D01*
X178206357Y-89158000D01*
X178932000Y-89158000D01*
X179682000Y-89158000D01*
X179682000Y-88508000D01*
X179384155Y-88508000D01*
X179324627Y-88514401D01*
X179324620Y-88514403D01*
X179189913Y-88564645D01*
X179189906Y-88564649D01*
X179074812Y-88650809D01*
X179074809Y-88650812D01*
X178988649Y-88765906D01*
X178988645Y-88765913D01*
X178938403Y-88900620D01*
X178938401Y-88900627D01*
X178932000Y-88960155D01*
X178932000Y-89158000D01*
X178206357Y-89158000D01*
X178256855Y-89005606D01*
X178267000Y-88906319D01*
X178267000Y-88883000D01*
X176317001Y-88883000D01*
X176313100Y-88886900D01*
X176297316Y-88940656D01*
X176244512Y-88986411D01*
X176175354Y-88996355D01*
X176114390Y-88968513D01*
X176114360Y-88968554D01*
X176114175Y-88968415D01*
X176111798Y-88967330D01*
X176107996Y-88963790D01*
X176107262Y-88963240D01*
X176107261Y-88963239D01*
X175990204Y-88875611D01*
X175980402Y-88871955D01*
X175853203Y-88824511D01*
X175792654Y-88818000D01*
X175792638Y-88818000D01*
X174795362Y-88818000D01*
X174795345Y-88818000D01*
X174734797Y-88824511D01*
X174734795Y-88824511D01*
X174597795Y-88875611D01*
X174480739Y-88963239D01*
X174393111Y-89080295D01*
X174342011Y-89217295D01*
X174342011Y-89217297D01*
X174335500Y-89277845D01*
X174335500Y-90675154D01*
X174342011Y-90735702D01*
X174342011Y-90735704D01*
X174389711Y-90863589D01*
X174393111Y-90872704D01*
X174480739Y-90989761D01*
X174480740Y-90989762D01*
X174486054Y-90996860D01*
X174484407Y-90998092D01*
X174512282Y-91049142D01*
X174507298Y-91118834D01*
X174465426Y-91174767D01*
X174399962Y-91199184D01*
X174391116Y-91199500D01*
X173196884Y-91199500D01*
X173129845Y-91179815D01*
X173084090Y-91127011D01*
X173074146Y-91057853D01*
X173101986Y-90996890D01*
X173101946Y-90996860D01*
X173102085Y-90996673D01*
X173103171Y-90994297D01*
X173106709Y-90990497D01*
X173107258Y-90989762D01*
X173107261Y-90989761D01*
X173194889Y-90872704D01*
X173245989Y-90735701D01*
X173249591Y-90702192D01*
X173252499Y-90675154D01*
X173252499Y-90675147D01*
X173252500Y-90675138D01*
X173252500Y-89277862D01*
X173252499Y-89277852D01*
X173252499Y-89277845D01*
X173249157Y-89246770D01*
X173245989Y-89217299D01*
X173243826Y-89211500D01*
X173197302Y-89086766D01*
X173194889Y-89080296D01*
X173107261Y-88963239D01*
X172990204Y-88875611D01*
X172980402Y-88871955D01*
X172853203Y-88824511D01*
X172792654Y-88818000D01*
X172792638Y-88818000D01*
X171795362Y-88818000D01*
X171795345Y-88818000D01*
X171734797Y-88824511D01*
X171734795Y-88824511D01*
X171597795Y-88875611D01*
X171556775Y-88906319D01*
X171480739Y-88963239D01*
X171480737Y-88963240D01*
X171480311Y-88963560D01*
X171414847Y-88987977D01*
X171346574Y-88973125D01*
X171297168Y-88923720D01*
X171283955Y-88871955D01*
X171282000Y-88870000D01*
X170264500Y-88870000D01*
X170197461Y-88850315D01*
X170151706Y-88797511D01*
X170140500Y-88746000D01*
X170140500Y-88383000D01*
X176317000Y-88383000D01*
X177042000Y-88383000D01*
X177042000Y-87683000D01*
X177542000Y-87683000D01*
X177542000Y-88383000D01*
X178266999Y-88383000D01*
X178266999Y-88359692D01*
X178266998Y-88359677D01*
X178256855Y-88260392D01*
X178203547Y-88099518D01*
X178203542Y-88099507D01*
X178114575Y-87955271D01*
X178114572Y-87955267D01*
X177994732Y-87835427D01*
X177994728Y-87835424D01*
X177850492Y-87746457D01*
X177850481Y-87746452D01*
X177689606Y-87693144D01*
X177590322Y-87683000D01*
X177542000Y-87683000D01*
X177042000Y-87683000D01*
X177041999Y-87682999D01*
X176993693Y-87683000D01*
X176993675Y-87683001D01*
X176894392Y-87693144D01*
X176733518Y-87746452D01*
X176733507Y-87746457D01*
X176589271Y-87835424D01*
X176589267Y-87835427D01*
X176469427Y-87955267D01*
X176469424Y-87955271D01*
X176380457Y-88099507D01*
X176380452Y-88099518D01*
X176327144Y-88260393D01*
X176317000Y-88359677D01*
X176317000Y-88383000D01*
X170140500Y-88383000D01*
X170140500Y-88369999D01*
X170556999Y-88369999D01*
X170557000Y-88370000D01*
X171281999Y-88370000D01*
X171281999Y-88346692D01*
X171281998Y-88346677D01*
X171271855Y-88247392D01*
X171218547Y-88086518D01*
X171218542Y-88086507D01*
X171129575Y-87942271D01*
X171129572Y-87942267D01*
X171009732Y-87822427D01*
X171009728Y-87822424D01*
X170865492Y-87733457D01*
X170865481Y-87733452D01*
X170704606Y-87680144D01*
X170605322Y-87670000D01*
X170557000Y-87670000D01*
X170556999Y-88369999D01*
X170140500Y-88369999D01*
X170140500Y-85860499D01*
X170160185Y-85793460D01*
X170212989Y-85747705D01*
X170264500Y-85736499D01*
X170858537Y-85736499D01*
X170858544Y-85736499D01*
X170962426Y-85725887D01*
X171130738Y-85670115D01*
X171281652Y-85577030D01*
X171407030Y-85451652D01*
X171500115Y-85300738D01*
X171555887Y-85132426D01*
X171566500Y-85028545D01*
X171566500Y-84578000D01*
X172358001Y-84578000D01*
X172358001Y-85027986D01*
X172368494Y-85130697D01*
X172423641Y-85297119D01*
X172423643Y-85297124D01*
X172515684Y-85446345D01*
X172639654Y-85570315D01*
X172788875Y-85662356D01*
X172788880Y-85662358D01*
X172955302Y-85717505D01*
X172955309Y-85717506D01*
X173058019Y-85727999D01*
X173182999Y-85727999D01*
X173183000Y-85727998D01*
X173183000Y-84578000D01*
X173683000Y-84578000D01*
X173683000Y-85727999D01*
X173807972Y-85727999D01*
X173807986Y-85727998D01*
X173910697Y-85717505D01*
X174077119Y-85662358D01*
X174077124Y-85662356D01*
X174226345Y-85570315D01*
X174350315Y-85446345D01*
X174442356Y-85297124D01*
X174442358Y-85297119D01*
X174497505Y-85130697D01*
X174497506Y-85130690D01*
X174507999Y-85027986D01*
X174508000Y-85027973D01*
X174508000Y-84578000D01*
X173683000Y-84578000D01*
X173183000Y-84578000D01*
X172358001Y-84578000D01*
X171566500Y-84578000D01*
X171566499Y-84051120D01*
X171586183Y-83984082D01*
X171602813Y-83963445D01*
X172160916Y-83405343D01*
X172222236Y-83371860D01*
X172291928Y-83376844D01*
X172347861Y-83418716D01*
X172372278Y-83484180D01*
X172369847Y-83518982D01*
X172368494Y-83525301D01*
X172358000Y-83628013D01*
X172358000Y-84078000D01*
X173183000Y-84078000D01*
X173183000Y-82928000D01*
X173683000Y-82928000D01*
X173683000Y-84078000D01*
X174507999Y-84078000D01*
X174507999Y-83628028D01*
X174507998Y-83628013D01*
X174497505Y-83525302D01*
X174442358Y-83358880D01*
X174442356Y-83358875D01*
X174350315Y-83209654D01*
X174226345Y-83085684D01*
X174077124Y-82993643D01*
X174077119Y-82993641D01*
X173910697Y-82938494D01*
X173910690Y-82938493D01*
X173807986Y-82928000D01*
X173683000Y-82928000D01*
X173183000Y-82928000D01*
X173058027Y-82928000D01*
X173058012Y-82928001D01*
X172955295Y-82938494D01*
X172948977Y-82939847D01*
X172879303Y-82934628D01*
X172823511Y-82892568D01*
X172799315Y-82827022D01*
X172814397Y-82758799D01*
X172835341Y-82730918D01*
X172956443Y-82609816D01*
X173017764Y-82576334D01*
X173044122Y-82573500D01*
X179237609Y-82573500D01*
X179253746Y-82575281D01*
X179253768Y-82575054D01*
X179261534Y-82575788D01*
X179261536Y-82575787D01*
X179261537Y-82575788D01*
X179334342Y-82573500D01*
X179365432Y-82573500D01*
X179372822Y-82572566D01*
X179378651Y-82572107D01*
X179427831Y-82570562D01*
X179448583Y-82564532D01*
X179467621Y-82560590D01*
X179489064Y-82557882D01*
X179534834Y-82539760D01*
X179540348Y-82537873D01*
X179566875Y-82530165D01*
X179587600Y-82524145D01*
X179606196Y-82513146D01*
X179623664Y-82504589D01*
X179643756Y-82496635D01*
X179683582Y-82467698D01*
X179688441Y-82464506D01*
X179730807Y-82439453D01*
X179746090Y-82424168D01*
X179760873Y-82411542D01*
X179778357Y-82398841D01*
X179809731Y-82360914D01*
X179813645Y-82356613D01*
X180674543Y-81495715D01*
X180687214Y-81485566D01*
X180687068Y-81485389D01*
X180693074Y-81480419D01*
X180693080Y-81480416D01*
X180742945Y-81427314D01*
X180764927Y-81405333D01*
X180769495Y-81399442D01*
X180773282Y-81395008D01*
X180806972Y-81359133D01*
X180817380Y-81340200D01*
X180828059Y-81323942D01*
X180841304Y-81306868D01*
X180860852Y-81261691D01*
X180863409Y-81256472D01*
X180887124Y-81213337D01*
X180892495Y-81192413D01*
X180898796Y-81174009D01*
X180907380Y-81154176D01*
X180912733Y-81120372D01*
X180915078Y-81105569D01*
X180916263Y-81099844D01*
X180917183Y-81096261D01*
X180928500Y-81052188D01*
X180928500Y-81030580D01*
X180930027Y-81011180D01*
X180933406Y-80989848D01*
X180928772Y-80940833D01*
X180928500Y-80935039D01*
X180928500Y-78629386D01*
X180930282Y-78613249D01*
X180930054Y-78613228D01*
X180930787Y-78605466D01*
X180930788Y-78605463D01*
X180928499Y-78532657D01*
X180928500Y-78501568D01*
X180927566Y-78494175D01*
X180927107Y-78488344D01*
X180926533Y-78470088D01*
X180925562Y-78439169D01*
X180919535Y-78418426D01*
X180915590Y-78399377D01*
X180912882Y-78377936D01*
X180894763Y-78332172D01*
X180892876Y-78326665D01*
X180879145Y-78279400D01*
X180868148Y-78260807D01*
X180859591Y-78243340D01*
X180851635Y-78223244D01*
X180845590Y-78214924D01*
X180822705Y-78183425D01*
X180819495Y-78178539D01*
X180794453Y-78136195D01*
X180794452Y-78136193D01*
X180794450Y-78136191D01*
X180794447Y-78136187D01*
X180779178Y-78120918D01*
X180766541Y-78106122D01*
X180753843Y-78088644D01*
X180753840Y-78088641D01*
X180715914Y-78057267D01*
X180711592Y-78053333D01*
X180426207Y-77767948D01*
X180392722Y-77706625D01*
X180393683Y-77649826D01*
X180414561Y-77567380D01*
X180414563Y-77567371D01*
X180414564Y-77567368D01*
X180433156Y-77343000D01*
X180414564Y-77118632D01*
X180359296Y-76900384D01*
X180268860Y-76694209D01*
X180145722Y-76505732D01*
X180145719Y-76505729D01*
X180145715Y-76505723D01*
X179993243Y-76340097D01*
X179993238Y-76340092D01*
X179815577Y-76201812D01*
X179815577Y-76201811D01*
X179772303Y-76178393D01*
X179722713Y-76129173D01*
X179707605Y-76060957D01*
X179731775Y-75995401D01*
X179760198Y-75967763D01*
X179941079Y-75841108D01*
X180108105Y-75674082D01*
X180243600Y-75480578D01*
X180343429Y-75266492D01*
X180343432Y-75266486D01*
X180400636Y-75053000D01*
X179683347Y-75053000D01*
X179616308Y-75033315D01*
X179570553Y-74980511D01*
X179560609Y-74911353D01*
X179564369Y-74894067D01*
X179570000Y-74874888D01*
X179570000Y-74731111D01*
X179564369Y-74711933D01*
X179564370Y-74642064D01*
X179602145Y-74583286D01*
X179665701Y-74554262D01*
X179683347Y-74553000D01*
X180400636Y-74553000D01*
X180400635Y-74552999D01*
X180343432Y-74339513D01*
X180343429Y-74339507D01*
X180243600Y-74125422D01*
X180243599Y-74125420D01*
X180108113Y-73931926D01*
X180108108Y-73931920D01*
X179941082Y-73764894D01*
X179747578Y-73629399D01*
X179533492Y-73529570D01*
X179533486Y-73529567D01*
X179320000Y-73472364D01*
X179320000Y-74190698D01*
X179300315Y-74257737D01*
X179247511Y-74303492D01*
X179178355Y-74313436D01*
X179105766Y-74303000D01*
X179105763Y-74303000D01*
X179034237Y-74303000D01*
X179034233Y-74303000D01*
X178961645Y-74313436D01*
X178892487Y-74303492D01*
X178839684Y-74257736D01*
X178820000Y-74190698D01*
X178820000Y-73472364D01*
X178819999Y-73472364D01*
X178606513Y-73529567D01*
X178606507Y-73529570D01*
X178392422Y-73629399D01*
X178392420Y-73629400D01*
X178198926Y-73764886D01*
X178198920Y-73764891D01*
X178031891Y-73931920D01*
X178031886Y-73931926D01*
X177896400Y-74125420D01*
X177896399Y-74125422D01*
X177796570Y-74339507D01*
X177796567Y-74339513D01*
X177739364Y-74552999D01*
X177739364Y-74553000D01*
X178456653Y-74553000D01*
X178523692Y-74572685D01*
X178569447Y-74625489D01*
X178579391Y-74694647D01*
X178575631Y-74711933D01*
X178570000Y-74731111D01*
X178570000Y-74874888D01*
X178575631Y-74894067D01*
X178575630Y-74963936D01*
X178537855Y-75022714D01*
X178474299Y-75051738D01*
X178456653Y-75053000D01*
X177762622Y-75053000D01*
X177695583Y-75033315D01*
X177674941Y-75016681D01*
X176914421Y-74256161D01*
X176880936Y-74194838D01*
X176878102Y-74168480D01*
X176878102Y-73017554D01*
X176897787Y-72950515D01*
X176950591Y-72904760D01*
X177019749Y-72894816D01*
X177077139Y-72918836D01*
X177104210Y-72939415D01*
X177136061Y-72965018D01*
X177167912Y-72990621D01*
X177168191Y-72990800D01*
X177187561Y-73002813D01*
X177187787Y-73002949D01*
X177261963Y-73037267D01*
X177335204Y-73073591D01*
X177335533Y-73073712D01*
X177356975Y-73081260D01*
X177357260Y-73081355D01*
X177357263Y-73081357D01*
X177437074Y-73098925D01*
X177516419Y-73118657D01*
X177516422Y-73118657D01*
X177516788Y-73118707D01*
X177539312Y-73121465D01*
X177539632Y-73121499D01*
X177539633Y-73121500D01*
X177539634Y-73121500D01*
X177621382Y-73121500D01*
X177703086Y-73123713D01*
X177703086Y-73123712D01*
X177703091Y-73123713D01*
X177703388Y-73123688D01*
X177726407Y-73121500D01*
X183362035Y-73121500D01*
X183429074Y-73141185D01*
X183449716Y-73157819D01*
X185921630Y-75629732D01*
X185955115Y-75691055D01*
X185954840Y-75745006D01*
X185912684Y-75929703D01*
X185892429Y-76199995D01*
X185892429Y-76200004D01*
X185912684Y-76470296D01*
X185954840Y-76654992D01*
X185950567Y-76724731D01*
X185921630Y-76770266D01*
X184993907Y-77697989D01*
X184990204Y-77701403D01*
X184947562Y-77737624D01*
X184947558Y-77737628D01*
X184947558Y-77737629D01*
X184898082Y-77802712D01*
X184887862Y-77815427D01*
X184846879Y-77866412D01*
X184846746Y-77866620D01*
X184834670Y-77886089D01*
X184834547Y-77886293D01*
X184800225Y-77960478D01*
X184763909Y-78033704D01*
X184763802Y-78033995D01*
X184756225Y-78055516D01*
X184756142Y-78055765D01*
X184738568Y-78135606D01*
X184718842Y-78214924D01*
X184718817Y-78215111D01*
X184716013Y-78238006D01*
X184716000Y-78238132D01*
X184716000Y-78319899D01*
X184713786Y-78401591D01*
X184713808Y-78401853D01*
X184716000Y-78424906D01*
X184715999Y-84545089D01*
X184715794Y-84550122D01*
X184711254Y-84605880D01*
X184722290Y-84686879D01*
X184731128Y-84768138D01*
X184731193Y-84768437D01*
X184736414Y-84790711D01*
X184736462Y-84790906D01*
X184764648Y-84867629D01*
X184764649Y-84867629D01*
X184790752Y-84945100D01*
X184790753Y-84945101D01*
X184790863Y-84945340D01*
X184800728Y-84965927D01*
X184800857Y-84966187D01*
X184800859Y-84966190D01*
X184844879Y-85035060D01*
X184887024Y-85105105D01*
X184887025Y-85105106D01*
X184887027Y-85105109D01*
X184887233Y-85105380D01*
X184901267Y-85123332D01*
X184901429Y-85123533D01*
X184959250Y-85181354D01*
X184984075Y-85207560D01*
X185015442Y-85240674D01*
X185015445Y-85240676D01*
X185015448Y-85240679D01*
X185015680Y-85240876D01*
X185033497Y-85255600D01*
X185187181Y-85409284D01*
X185220666Y-85470607D01*
X185223500Y-85496965D01*
X185223500Y-86057107D01*
X185203815Y-86124146D01*
X185198767Y-86131417D01*
X185131112Y-86221793D01*
X185131111Y-86221793D01*
X185080011Y-86358795D01*
X185080011Y-86358797D01*
X185073500Y-86419345D01*
X185073500Y-87316654D01*
X185080011Y-87377202D01*
X185080011Y-87377204D01*
X185131110Y-87514203D01*
X185131111Y-87514204D01*
X185218739Y-87631261D01*
X185335796Y-87718889D01*
X185472799Y-87769989D01*
X185500050Y-87772918D01*
X185533345Y-87776499D01*
X185533362Y-87776500D01*
X186200035Y-87776500D01*
X186267074Y-87796185D01*
X186312829Y-87848989D01*
X186322773Y-87918147D01*
X186293748Y-87981703D01*
X186287716Y-87988181D01*
X185812717Y-88463181D01*
X185751394Y-88496666D01*
X185725036Y-88499500D01*
X185533345Y-88499500D01*
X185472797Y-88506011D01*
X185472795Y-88506011D01*
X185335795Y-88557111D01*
X185218739Y-88644739D01*
X185131111Y-88761795D01*
X185080011Y-88898795D01*
X185080011Y-88898797D01*
X185073500Y-88959345D01*
X185073500Y-89856654D01*
X185080011Y-89917202D01*
X185080011Y-89917204D01*
X185116877Y-90016042D01*
X185131111Y-90054204D01*
X185218739Y-90171261D01*
X185335796Y-90258889D01*
X185472799Y-90309989D01*
X185500050Y-90312918D01*
X185533345Y-90316499D01*
X185533362Y-90316500D01*
X186630638Y-90316500D01*
X186630654Y-90316499D01*
X186657692Y-90313591D01*
X186691201Y-90309989D01*
X186828204Y-90258889D01*
X186945261Y-90171261D01*
X187032889Y-90054204D01*
X187078555Y-89931768D01*
X187083988Y-89917204D01*
X187083988Y-89917203D01*
X187083989Y-89917201D01*
X187087591Y-89883692D01*
X187090499Y-89856654D01*
X187090500Y-89856637D01*
X187090500Y-89664963D01*
X187110185Y-89597924D01*
X187126814Y-89577286D01*
X188286613Y-88417487D01*
X188290282Y-88414106D01*
X188332942Y-88377871D01*
X188382417Y-88312787D01*
X188433621Y-88249087D01*
X188433622Y-88249083D01*
X188433799Y-88248808D01*
X188445761Y-88229523D01*
X188445943Y-88229220D01*
X188445949Y-88229213D01*
X188480270Y-88155029D01*
X188516591Y-88081796D01*
X188516591Y-88081792D01*
X188516688Y-88081532D01*
X188521536Y-88067763D01*
X189145787Y-88067763D01*
X189175413Y-88337013D01*
X189175415Y-88337024D01*
X189243926Y-88599082D01*
X189243928Y-88599088D01*
X189349870Y-88848390D01*
X189479263Y-89060408D01*
X189490979Y-89079605D01*
X189490986Y-89079615D01*
X189664253Y-89287819D01*
X189664259Y-89287824D01*
X189743317Y-89358660D01*
X189865998Y-89468582D01*
X190091910Y-89618044D01*
X190337176Y-89733020D01*
X190337183Y-89733022D01*
X190337185Y-89733023D01*
X190596557Y-89811057D01*
X190596564Y-89811058D01*
X190596569Y-89811060D01*
X190864561Y-89850500D01*
X190864566Y-89850500D01*
X191067636Y-89850500D01*
X191119133Y-89846730D01*
X191270156Y-89835677D01*
X191382758Y-89810593D01*
X191534546Y-89776782D01*
X191534548Y-89776781D01*
X191534553Y-89776780D01*
X191787558Y-89680014D01*
X192023777Y-89547441D01*
X192238177Y-89381888D01*
X192426186Y-89186881D01*
X192583799Y-88966579D01*
X192679719Y-88780013D01*
X192707649Y-88725690D01*
X192707651Y-88725684D01*
X192707656Y-88725675D01*
X192795118Y-88469305D01*
X192844319Y-88202933D01*
X192854212Y-87932235D01*
X192824586Y-87662982D01*
X192756072Y-87400912D01*
X192650130Y-87151610D01*
X192509018Y-86920390D01*
X192507845Y-86918981D01*
X192335746Y-86712180D01*
X192335740Y-86712175D01*
X192134002Y-86531418D01*
X191908092Y-86381957D01*
X191908090Y-86381956D01*
X191662824Y-86266980D01*
X191662819Y-86266978D01*
X191662814Y-86266976D01*
X191403442Y-86188942D01*
X191403428Y-86188939D01*
X191287791Y-86171921D01*
X191135439Y-86149500D01*
X190932369Y-86149500D01*
X190932364Y-86149500D01*
X190729844Y-86164323D01*
X190729831Y-86164325D01*
X190465453Y-86223217D01*
X190465446Y-86223220D01*
X190212439Y-86319987D01*
X189976226Y-86452557D01*
X189761822Y-86618112D01*
X189573822Y-86813109D01*
X189573816Y-86813116D01*
X189416202Y-87033419D01*
X189416199Y-87033424D01*
X189292350Y-87274309D01*
X189292343Y-87274327D01*
X189204884Y-87530685D01*
X189204881Y-87530699D01*
X189155681Y-87797068D01*
X189155680Y-87797075D01*
X189145787Y-88067763D01*
X188521536Y-88067763D01*
X188524223Y-88060133D01*
X188524354Y-88059742D01*
X188524357Y-88059737D01*
X188541925Y-87979925D01*
X188561657Y-87900581D01*
X188561657Y-87900574D01*
X188561704Y-87900232D01*
X188564456Y-87877766D01*
X188564498Y-87877374D01*
X188564500Y-87877367D01*
X188564499Y-87795617D01*
X188565193Y-87769989D01*
X188566713Y-87713916D01*
X188566684Y-87713557D01*
X188564500Y-87690599D01*
X188564500Y-83212500D01*
X188584185Y-83145461D01*
X188636989Y-83099706D01*
X188688500Y-83088500D01*
X189054638Y-83088500D01*
X189054654Y-83088499D01*
X189081692Y-83085591D01*
X189115201Y-83081989D01*
X189123293Y-83078971D01*
X189129768Y-83076555D01*
X189252204Y-83030889D01*
X189369261Y-82943261D01*
X189456889Y-82826204D01*
X189507989Y-82689201D01*
X189511591Y-82655692D01*
X189514499Y-82628654D01*
X189514500Y-82628637D01*
X189514500Y-80736963D01*
X189534185Y-80669924D01*
X189550815Y-80649286D01*
X190136613Y-80063487D01*
X190140282Y-80060106D01*
X190182942Y-80023871D01*
X190232417Y-79958787D01*
X190283621Y-79895087D01*
X190283625Y-79895078D01*
X190283839Y-79894744D01*
X190295757Y-79875532D01*
X190295950Y-79875211D01*
X190330274Y-79801021D01*
X190348140Y-79764996D01*
X190366590Y-79727797D01*
X190366591Y-79727789D01*
X190366758Y-79727336D01*
X190374221Y-79706138D01*
X190374353Y-79705744D01*
X190374357Y-79705737D01*
X190391931Y-79625893D01*
X190411656Y-79546581D01*
X190411656Y-79546575D01*
X190411699Y-79546265D01*
X190414473Y-79523611D01*
X190414500Y-79523367D01*
X190414500Y-79441600D01*
X190416713Y-79359910D01*
X190416695Y-79359700D01*
X190414500Y-79336593D01*
X190414500Y-75471117D01*
X190414705Y-75466083D01*
X190416362Y-75445723D01*
X190419245Y-75410319D01*
X190408209Y-75329324D01*
X190399372Y-75248064D01*
X190399371Y-75248062D01*
X190399371Y-75248058D01*
X190399288Y-75247682D01*
X190394126Y-75225658D01*
X190394035Y-75225289D01*
X190365850Y-75148574D01*
X190365849Y-75148573D01*
X190339748Y-75071104D01*
X190339743Y-75071096D01*
X190339616Y-75070820D01*
X190329810Y-75050356D01*
X190329638Y-75050008D01*
X190285621Y-74981144D01*
X190245632Y-74914683D01*
X190243476Y-74911099D01*
X190243474Y-74911097D01*
X190243274Y-74910834D01*
X190229269Y-74892920D01*
X190229076Y-74892680D01*
X190229072Y-74892673D01*
X190171249Y-74834850D01*
X190115058Y-74775530D01*
X190115054Y-74775527D01*
X190115053Y-74775526D01*
X190114832Y-74775339D01*
X190097001Y-74760602D01*
X189870433Y-74534034D01*
X189105792Y-73769394D01*
X189102389Y-73765702D01*
X189066167Y-73723057D01*
X189033625Y-73698320D01*
X189001083Y-73673582D01*
X188937383Y-73622379D01*
X188937381Y-73622378D01*
X188937146Y-73622227D01*
X188917741Y-73610190D01*
X188917509Y-73610051D01*
X188843317Y-73575725D01*
X188806094Y-73557265D01*
X188770093Y-73539410D01*
X188770091Y-73539409D01*
X188770088Y-73539408D01*
X188769821Y-73539310D01*
X188748285Y-73531727D01*
X188748030Y-73531641D01*
X188668189Y-73514068D01*
X188588871Y-73494342D01*
X188588683Y-73494317D01*
X188565815Y-73491516D01*
X188565666Y-73491500D01*
X188565663Y-73491500D01*
X188483898Y-73491500D01*
X188481337Y-73491430D01*
X188402204Y-73489286D01*
X188401907Y-73489311D01*
X188378889Y-73491500D01*
X187535756Y-73491500D01*
X187468717Y-73471815D01*
X187448075Y-73455181D01*
X187133075Y-73140181D01*
X187099590Y-73078858D01*
X187104574Y-73009166D01*
X187146446Y-72953233D01*
X187211910Y-72928816D01*
X187220756Y-72928500D01*
X189054638Y-72928500D01*
X189054654Y-72928499D01*
X189081692Y-72925591D01*
X189115201Y-72921989D01*
X189123647Y-72918839D01*
X189161393Y-72904760D01*
X189252204Y-72870889D01*
X189369261Y-72783261D01*
X189456889Y-72666204D01*
X189507989Y-72529201D01*
X189511591Y-72495692D01*
X189514499Y-72468654D01*
X189514500Y-72468637D01*
X189514500Y-69771362D01*
X189514499Y-69771345D01*
X189510503Y-69734185D01*
X189507989Y-69710799D01*
X189456889Y-69573796D01*
X189369261Y-69456739D01*
X189252204Y-69369111D01*
X189115203Y-69318011D01*
X189054654Y-69311500D01*
X189054638Y-69311500D01*
X187162965Y-69311500D01*
X187095926Y-69291815D01*
X187075284Y-69275181D01*
X185926283Y-68126181D01*
X185892798Y-68064858D01*
X185897782Y-67995166D01*
X185939654Y-67939233D01*
X186005118Y-67914816D01*
X186013964Y-67914500D01*
X186652590Y-67914500D01*
X186657624Y-67914705D01*
X186680094Y-67916534D01*
X186713385Y-67919245D01*
X186794379Y-67908209D01*
X186875640Y-67899372D01*
X186875645Y-67899370D01*
X186876062Y-67899278D01*
X186897958Y-67894148D01*
X186898399Y-67894037D01*
X186898410Y-67894036D01*
X186975129Y-67865850D01*
X187052600Y-67839748D01*
X187052604Y-67839745D01*
X187052945Y-67839588D01*
X187073333Y-67829817D01*
X187073678Y-67829645D01*
X187073690Y-67829641D01*
X187122458Y-67798468D01*
X187189545Y-67778948D01*
X187225789Y-67784456D01*
X187302442Y-67808101D01*
X187570472Y-67848500D01*
X187570473Y-67848500D01*
X187841527Y-67848500D01*
X187841528Y-67848500D01*
X187899594Y-67839748D01*
X188109553Y-67808102D01*
X188109554Y-67808101D01*
X188109558Y-67808101D01*
X188368572Y-67728206D01*
X188612786Y-67610599D01*
X188836743Y-67457907D01*
X189035442Y-67273542D01*
X189204443Y-67061621D01*
X189339971Y-66826879D01*
X189438999Y-66574559D01*
X189499315Y-66310299D01*
X189499316Y-66310289D01*
X189519571Y-66040004D01*
X189519571Y-66039995D01*
X189499316Y-65769710D01*
X189499315Y-65769705D01*
X189499315Y-65769701D01*
X189438999Y-65505441D01*
X189339971Y-65253121D01*
X189204443Y-65018379D01*
X189035442Y-64806458D01*
X188836743Y-64622093D01*
X188612786Y-64469401D01*
X188612780Y-64469398D01*
X188612779Y-64469397D01*
X188612778Y-64469396D01*
X188368574Y-64351795D01*
X188368576Y-64351795D01*
X188109559Y-64271899D01*
X188109553Y-64271897D01*
X187841535Y-64231500D01*
X187841528Y-64231500D01*
X187570472Y-64231500D01*
X187570464Y-64231500D01*
X187302446Y-64271897D01*
X187302440Y-64271899D01*
X187043427Y-64351794D01*
X186799219Y-64469398D01*
X186575256Y-64622093D01*
X186376560Y-64806456D01*
X186376558Y-64806458D01*
X186207557Y-65018379D01*
X186072029Y-65253120D01*
X185973003Y-65505435D01*
X185972997Y-65505454D01*
X185912684Y-65769705D01*
X185912683Y-65769710D01*
X185892429Y-66039995D01*
X185892429Y-66040001D01*
X185894245Y-66064232D01*
X185879626Y-66132556D01*
X185830389Y-66182129D01*
X185770592Y-66197500D01*
X178746121Y-66197500D01*
X178679082Y-66177815D01*
X178633327Y-66125011D01*
X178623383Y-66055853D01*
X178652408Y-65992297D01*
X178658440Y-65985819D01*
X178874558Y-65769701D01*
X179474544Y-65169714D01*
X179487211Y-65159568D01*
X179487065Y-65159392D01*
X179493071Y-65154421D01*
X179493080Y-65154416D01*
X179542960Y-65101298D01*
X179564926Y-65079333D01*
X179569488Y-65073451D01*
X179573280Y-65069010D01*
X179606972Y-65033133D01*
X179617375Y-65014208D01*
X179628061Y-64997940D01*
X179641304Y-64980869D01*
X179660850Y-64935699D01*
X179663421Y-64930453D01*
X179687933Y-64885866D01*
X179722283Y-64846338D01*
X179833261Y-64763261D01*
X179920889Y-64646204D01*
X179971989Y-64509201D01*
X179976268Y-64469397D01*
X179978499Y-64448654D01*
X179978500Y-64448637D01*
X179978500Y-64282500D01*
X179998185Y-64215461D01*
X180050989Y-64169706D01*
X180102500Y-64158500D01*
X181777609Y-64158500D01*
X181793746Y-64160281D01*
X181793768Y-64160054D01*
X181801534Y-64160788D01*
X181801536Y-64160787D01*
X181801537Y-64160788D01*
X181874342Y-64158500D01*
X181905432Y-64158500D01*
X181912822Y-64157566D01*
X181918651Y-64157107D01*
X181967831Y-64155562D01*
X181988583Y-64149532D01*
X182007621Y-64145590D01*
X182029064Y-64142882D01*
X182074834Y-64124760D01*
X182080348Y-64122873D01*
X182106875Y-64115165D01*
X182127600Y-64109145D01*
X182146196Y-64098146D01*
X182163664Y-64089589D01*
X182183756Y-64081635D01*
X182223582Y-64052698D01*
X182228441Y-64049506D01*
X182270807Y-64024453D01*
X182286090Y-64009168D01*
X182300873Y-63996542D01*
X182318357Y-63983841D01*
X182349731Y-63945914D01*
X182353645Y-63941613D01*
X184300543Y-61994715D01*
X184313214Y-61984566D01*
X184313068Y-61984389D01*
X184319074Y-61979419D01*
X184319080Y-61979416D01*
X184368945Y-61926314D01*
X184390927Y-61904333D01*
X184395495Y-61898442D01*
X184399282Y-61894008D01*
X184432972Y-61858133D01*
X184443380Y-61839200D01*
X184454059Y-61822942D01*
X184467304Y-61805868D01*
X184486852Y-61760691D01*
X184489409Y-61755472D01*
X184513124Y-61712337D01*
X184518495Y-61691413D01*
X184524796Y-61673009D01*
X184533380Y-61653176D01*
X184538733Y-61619372D01*
X184541078Y-61604569D01*
X184542263Y-61598844D01*
X184554500Y-61551188D01*
X184554500Y-61529580D01*
X184556027Y-61510180D01*
X184559406Y-61488848D01*
X184554775Y-61439854D01*
X184554500Y-61434017D01*
X184554500Y-60751650D01*
X184574185Y-60684611D01*
X184594822Y-60661848D01*
X184594239Y-60661265D01*
X184709685Y-60545819D01*
X184771008Y-60512334D01*
X184797366Y-60509500D01*
X185485997Y-60509500D01*
X185553036Y-60529185D01*
X185556992Y-60531982D01*
X185558859Y-60533086D01*
X185693911Y-60612956D01*
X185711417Y-60618042D01*
X185844577Y-60656729D01*
X185844580Y-60656729D01*
X185844582Y-60656730D01*
X185856314Y-60657653D01*
X185879778Y-60659500D01*
X185879780Y-60659500D01*
X186230222Y-60659500D01*
X186247819Y-60658115D01*
X186265418Y-60656730D01*
X186265420Y-60656729D01*
X186265422Y-60656729D01*
X186330988Y-60637680D01*
X186416089Y-60612956D01*
X186551141Y-60533086D01*
X186662086Y-60422141D01*
X186741956Y-60287089D01*
X186774186Y-60176151D01*
X186785729Y-60136422D01*
X186785730Y-60136416D01*
X186788500Y-60101222D01*
X186788500Y-59600778D01*
X186785730Y-59565583D01*
X186785729Y-59565577D01*
X186741957Y-59414915D01*
X186741956Y-59414912D01*
X186741956Y-59414911D01*
X186662086Y-59279859D01*
X186662084Y-59279857D01*
X186662081Y-59279853D01*
X186551146Y-59168918D01*
X186551137Y-59168911D01*
X186446297Y-59106909D01*
X186416089Y-59089044D01*
X186416088Y-59089043D01*
X186416087Y-59089043D01*
X186416084Y-59089042D01*
X186342842Y-59067763D01*
X189145787Y-59067763D01*
X189175413Y-59337013D01*
X189175415Y-59337024D01*
X189241235Y-59588788D01*
X189243928Y-59599088D01*
X189349870Y-59848390D01*
X189421998Y-59966575D01*
X189490979Y-60079605D01*
X189490986Y-60079615D01*
X189664253Y-60287819D01*
X189664259Y-60287824D01*
X189769240Y-60381887D01*
X189865998Y-60468582D01*
X190091910Y-60618044D01*
X190337176Y-60733020D01*
X190337183Y-60733022D01*
X190337185Y-60733023D01*
X190596557Y-60811057D01*
X190596564Y-60811058D01*
X190596569Y-60811060D01*
X190864561Y-60850500D01*
X190864566Y-60850500D01*
X191067636Y-60850500D01*
X191119133Y-60846730D01*
X191270156Y-60835677D01*
X191394209Y-60808043D01*
X191534546Y-60776782D01*
X191534548Y-60776781D01*
X191534553Y-60776780D01*
X191787558Y-60680014D01*
X192023777Y-60547441D01*
X192238177Y-60381888D01*
X192426186Y-60186881D01*
X192583799Y-59966579D01*
X192657787Y-59822669D01*
X192707649Y-59725690D01*
X192707651Y-59725684D01*
X192707656Y-59725675D01*
X192795118Y-59469305D01*
X192844319Y-59202933D01*
X192854212Y-58932235D01*
X192824586Y-58662982D01*
X192756072Y-58400912D01*
X192650130Y-58151610D01*
X192509018Y-57920390D01*
X192487256Y-57894240D01*
X192335746Y-57712180D01*
X192335740Y-57712175D01*
X192134002Y-57531418D01*
X191908092Y-57381957D01*
X191908090Y-57381956D01*
X191662824Y-57266980D01*
X191662819Y-57266978D01*
X191662814Y-57266976D01*
X191403442Y-57188942D01*
X191403428Y-57188939D01*
X191287791Y-57171921D01*
X191135439Y-57149500D01*
X190932369Y-57149500D01*
X190932364Y-57149500D01*
X190729844Y-57164323D01*
X190729831Y-57164325D01*
X190465453Y-57223217D01*
X190465446Y-57223220D01*
X190212439Y-57319987D01*
X189976226Y-57452557D01*
X189976224Y-57452558D01*
X189976223Y-57452559D01*
X189913893Y-57500688D01*
X189761822Y-57618112D01*
X189573822Y-57813109D01*
X189573816Y-57813116D01*
X189416202Y-58033419D01*
X189416199Y-58033424D01*
X189292350Y-58274309D01*
X189292343Y-58274327D01*
X189204884Y-58530685D01*
X189204881Y-58530699D01*
X189195234Y-58582928D01*
X189157110Y-58789334D01*
X189155681Y-58797068D01*
X189155680Y-58797075D01*
X189145787Y-59067763D01*
X186342842Y-59067763D01*
X186265422Y-59045270D01*
X186265416Y-59045269D01*
X186230222Y-59042500D01*
X186230220Y-59042500D01*
X185879780Y-59042500D01*
X185879778Y-59042500D01*
X185844583Y-59045269D01*
X185844577Y-59045270D01*
X185693915Y-59089042D01*
X185693912Y-59089043D01*
X185552144Y-59172885D01*
X185550926Y-59170826D01*
X185496956Y-59192015D01*
X185485997Y-59192500D01*
X185244472Y-59192500D01*
X185177433Y-59172815D01*
X185131678Y-59120011D01*
X185121734Y-59050853D01*
X185150759Y-58987297D01*
X185156791Y-58980819D01*
X185252944Y-58884666D01*
X185588391Y-58549217D01*
X185649712Y-58515734D01*
X185710665Y-58517824D01*
X185844577Y-58556729D01*
X185844580Y-58556729D01*
X185844582Y-58556730D01*
X185856314Y-58557653D01*
X185879778Y-58559500D01*
X185879780Y-58559500D01*
X186230222Y-58559500D01*
X186247819Y-58558115D01*
X186265418Y-58556730D01*
X186265420Y-58556729D01*
X186265422Y-58556729D01*
X186355017Y-58530699D01*
X186416089Y-58512956D01*
X186551141Y-58433086D01*
X186662086Y-58322141D01*
X186741956Y-58187089D01*
X186782224Y-58048487D01*
X186785729Y-58036422D01*
X186785730Y-58036416D01*
X186785966Y-58033424D01*
X186788500Y-58001220D01*
X186788500Y-57500780D01*
X186785730Y-57465582D01*
X186781946Y-57452559D01*
X186744239Y-57322770D01*
X186741956Y-57314911D01*
X186662086Y-57179859D01*
X186662084Y-57179857D01*
X186662081Y-57179853D01*
X186551146Y-57068918D01*
X186551137Y-57068911D01*
X186445500Y-57006438D01*
X186416089Y-56989044D01*
X186416088Y-56989043D01*
X186416087Y-56989043D01*
X186416084Y-56989042D01*
X186265422Y-56945270D01*
X186265416Y-56945269D01*
X186230222Y-56942500D01*
X186230220Y-56942500D01*
X185879780Y-56942500D01*
X185879778Y-56942500D01*
X185844583Y-56945269D01*
X185844577Y-56945270D01*
X185693915Y-56989042D01*
X185693912Y-56989043D01*
X185552144Y-57072885D01*
X185550597Y-57070269D01*
X185498717Y-57090612D01*
X185491707Y-57091032D01*
X185448274Y-57092397D01*
X185445008Y-57092500D01*
X185413916Y-57092500D01*
X185406522Y-57093433D01*
X185400704Y-57093891D01*
X185351523Y-57095437D01*
X185351513Y-57095439D01*
X185330772Y-57101464D01*
X185311732Y-57105407D01*
X185290296Y-57108116D01*
X185290281Y-57108119D01*
X185244528Y-57126233D01*
X185239004Y-57128124D01*
X185191752Y-57141854D01*
X185191744Y-57141857D01*
X185173153Y-57152852D01*
X185155688Y-57161408D01*
X185135597Y-57169363D01*
X185135592Y-57169366D01*
X185095777Y-57198292D01*
X185090895Y-57201499D01*
X185048540Y-57226549D01*
X185033266Y-57241823D01*
X185018478Y-57254454D01*
X185000993Y-57267158D01*
X185000990Y-57267162D01*
X184969616Y-57305084D01*
X184965684Y-57309405D01*
X184938948Y-57336141D01*
X184877625Y-57369626D01*
X184807933Y-57364642D01*
X184752000Y-57322770D01*
X184745734Y-57313566D01*
X184722658Y-57276154D01*
X184599346Y-57152842D01*
X184599342Y-57152839D01*
X184450928Y-57061295D01*
X184450922Y-57061292D01*
X184450920Y-57061291D01*
X184356301Y-57029938D01*
X184285382Y-57006438D01*
X184183214Y-56996000D01*
X183608794Y-56996000D01*
X183608778Y-56996001D01*
X183506617Y-57006438D01*
X183341082Y-57061290D01*
X183341071Y-57061295D01*
X183192657Y-57152839D01*
X183069339Y-57276156D01*
X183064864Y-57281817D01*
X183063486Y-57280727D01*
X183018357Y-57321320D01*
X182964764Y-57333500D01*
X180985877Y-57333500D01*
X180918838Y-57313815D01*
X180909876Y-57307479D01*
X180904805Y-57303545D01*
X180761601Y-57218855D01*
X180761596Y-57218853D01*
X180601835Y-57172438D01*
X180601829Y-57172437D01*
X180564505Y-57169500D01*
X180564502Y-57169500D01*
X179256498Y-57169500D01*
X179256495Y-57169500D01*
X179219170Y-57172437D01*
X179219164Y-57172438D01*
X179059403Y-57218853D01*
X179059398Y-57218855D01*
X178916196Y-57303544D01*
X178916187Y-57303551D01*
X178798551Y-57421187D01*
X178798544Y-57421196D01*
X178713855Y-57564398D01*
X178713853Y-57564403D01*
X178667438Y-57724164D01*
X178667437Y-57724170D01*
X178664500Y-57761495D01*
X178664499Y-57842878D01*
X178644814Y-57909918D01*
X178628180Y-57930558D01*
X178425691Y-58133047D01*
X178364368Y-58166532D01*
X178303416Y-58164443D01*
X178158829Y-58122437D01*
X178121505Y-58119500D01*
X178121502Y-58119500D01*
X176962500Y-58119500D01*
X176895461Y-58099815D01*
X176849706Y-58047011D01*
X176838500Y-57995500D01*
X176838500Y-57761495D01*
X176835562Y-57724170D01*
X176835561Y-57724164D01*
X176789146Y-57564403D01*
X176789145Y-57564399D01*
X176704453Y-57421193D01*
X176704451Y-57421191D01*
X176704448Y-57421187D01*
X176586812Y-57303551D01*
X176586803Y-57303544D01*
X176443601Y-57218855D01*
X176443596Y-57218853D01*
X176283835Y-57172438D01*
X176283829Y-57172437D01*
X176246505Y-57169500D01*
X176246502Y-57169500D01*
X174938498Y-57169500D01*
X174938495Y-57169500D01*
X174901170Y-57172437D01*
X174901164Y-57172438D01*
X174741403Y-57218853D01*
X174741398Y-57218855D01*
X174600416Y-57302232D01*
X174537295Y-57319500D01*
X174379866Y-57319500D01*
X174312827Y-57299815D01*
X174292185Y-57283181D01*
X174185346Y-57176342D01*
X174185342Y-57176339D01*
X174036928Y-57084795D01*
X174036922Y-57084792D01*
X174036920Y-57084791D01*
X174036917Y-57084790D01*
X173871382Y-57029938D01*
X173769214Y-57019500D01*
X173194794Y-57019500D01*
X173194778Y-57019501D01*
X173092617Y-57029938D01*
X172927082Y-57084790D01*
X172927071Y-57084795D01*
X172778657Y-57176339D01*
X172669314Y-57285682D01*
X172607991Y-57319166D01*
X172581633Y-57322000D01*
X171446000Y-57322000D01*
X171446000Y-58146999D01*
X171895972Y-58146999D01*
X171895986Y-58146998D01*
X171998697Y-58136505D01*
X172165119Y-58081358D01*
X172165130Y-58081353D01*
X172309403Y-57992364D01*
X172376795Y-57973923D01*
X172443459Y-57994845D01*
X172488228Y-58048487D01*
X172498500Y-58097901D01*
X172498500Y-58315204D01*
X172498501Y-58315221D01*
X172508938Y-58417382D01*
X172563790Y-58582917D01*
X172563795Y-58582928D01*
X172655339Y-58731342D01*
X172655342Y-58731346D01*
X172764314Y-58840318D01*
X172797799Y-58901641D01*
X172792815Y-58971333D01*
X172764315Y-59015680D01*
X172655339Y-59124656D01*
X172650864Y-59130317D01*
X172649486Y-59129227D01*
X172604357Y-59169820D01*
X172550764Y-59182000D01*
X172455044Y-59182000D01*
X172388005Y-59162315D01*
X172367363Y-59145681D01*
X172319653Y-59097971D01*
X172319653Y-59097970D01*
X172319652Y-59097970D01*
X172186241Y-59015681D01*
X172168740Y-59004886D01*
X172168735Y-59004884D01*
X172000427Y-58949113D01*
X171896545Y-58938500D01*
X170495462Y-58938500D01*
X170495446Y-58938501D01*
X170391572Y-58949113D01*
X170223264Y-59004884D01*
X170223259Y-59004886D01*
X170072346Y-59097971D01*
X169946971Y-59223346D01*
X169853886Y-59374259D01*
X169853884Y-59374264D01*
X169798113Y-59542572D01*
X169787500Y-59646447D01*
X169787500Y-60397537D01*
X169787502Y-60397557D01*
X169790938Y-60431196D01*
X169778168Y-60499888D01*
X169755261Y-60531477D01*
X169512180Y-60774558D01*
X169450857Y-60808043D01*
X169381165Y-60803059D01*
X169325232Y-60761187D01*
X169300815Y-60695723D01*
X169300499Y-60686877D01*
X169300500Y-58322146D01*
X169300500Y-57322000D01*
X169796001Y-57322000D01*
X169796001Y-57446986D01*
X169806494Y-57549697D01*
X169861641Y-57716119D01*
X169861643Y-57716124D01*
X169953684Y-57865345D01*
X170077654Y-57989315D01*
X170226875Y-58081356D01*
X170226880Y-58081358D01*
X170393302Y-58136505D01*
X170393309Y-58136506D01*
X170496019Y-58146999D01*
X170945999Y-58146999D01*
X170946000Y-58146998D01*
X170946000Y-57322000D01*
X169796001Y-57322000D01*
X169300500Y-57322000D01*
X169300499Y-55924500D01*
X169320185Y-55857461D01*
X169372989Y-55811706D01*
X169424500Y-55800500D01*
X170249546Y-55800500D01*
X170316585Y-55820185D01*
G37*
%TD.AperFunction*%
%TA.AperFunction,Conductor*%
G36*
X169505703Y-72621358D02*
G01*
X169512181Y-72627390D01*
X177172330Y-80287540D01*
X177182480Y-80300208D01*
X177182656Y-80300064D01*
X177187630Y-80306076D01*
X177240735Y-80355946D01*
X177262711Y-80377922D01*
X177268601Y-80382491D01*
X177273044Y-80386286D01*
X177308914Y-80419970D01*
X177308916Y-80419971D01*
X177308917Y-80419972D01*
X177327853Y-80430382D01*
X177344099Y-80441053D01*
X177361182Y-80454304D01*
X177406357Y-80473853D01*
X177411578Y-80476410D01*
X177454713Y-80500124D01*
X177474893Y-80505305D01*
X177475636Y-80505496D01*
X177494047Y-80511800D01*
X177513873Y-80520380D01*
X177562502Y-80528081D01*
X177568195Y-80529261D01*
X177615862Y-80541500D01*
X177615863Y-80541500D01*
X177618336Y-80542135D01*
X177678374Y-80577873D01*
X177709560Y-80640396D01*
X177711499Y-80662238D01*
X177711499Y-80781637D01*
X177711500Y-80781654D01*
X177718011Y-80842202D01*
X177718011Y-80842204D01*
X177769110Y-80979204D01*
X177769111Y-80979204D01*
X177823746Y-81052188D01*
X177828239Y-81058189D01*
X177852656Y-81123653D01*
X177837804Y-81191926D01*
X177788399Y-81241332D01*
X177728972Y-81256500D01*
X172806391Y-81256500D01*
X172790248Y-81254717D01*
X172790227Y-81254945D01*
X172782465Y-81254211D01*
X172782463Y-81254211D01*
X172709640Y-81256500D01*
X172678568Y-81256500D01*
X172678564Y-81256500D01*
X172678554Y-81256501D01*
X172671167Y-81257434D01*
X172665350Y-81257891D01*
X172616174Y-81259437D01*
X172616163Y-81259439D01*
X172595422Y-81265464D01*
X172576382Y-81269407D01*
X172554946Y-81272116D01*
X172554931Y-81272119D01*
X172509178Y-81290233D01*
X172503654Y-81292124D01*
X172456399Y-81305855D01*
X172437808Y-81316850D01*
X172420339Y-81325408D01*
X172400246Y-81333364D01*
X172400245Y-81333364D01*
X172400244Y-81333365D01*
X172390830Y-81340205D01*
X172360433Y-81362289D01*
X172355550Y-81365496D01*
X172313192Y-81390546D01*
X172297913Y-81405826D01*
X172283127Y-81418455D01*
X172265643Y-81431159D01*
X172265641Y-81431161D01*
X172265640Y-81431162D01*
X172234271Y-81469078D01*
X172230339Y-81473399D01*
X170820557Y-82883181D01*
X170759234Y-82916666D01*
X170732876Y-82919500D01*
X170107462Y-82919500D01*
X170107446Y-82919501D01*
X170003572Y-82930113D01*
X169835264Y-82985884D01*
X169835259Y-82985886D01*
X169684346Y-83078971D01*
X169558970Y-83204347D01*
X169558967Y-83204351D01*
X169530038Y-83251253D01*
X169478090Y-83297978D01*
X169409128Y-83309199D01*
X169345046Y-83281356D01*
X169306190Y-83223287D01*
X169300500Y-83186156D01*
X169300500Y-72715071D01*
X169320185Y-72648032D01*
X169372989Y-72602277D01*
X169442147Y-72592333D01*
X169505703Y-72621358D01*
G37*
%TD.AperFunction*%
%TA.AperFunction,Conductor*%
G36*
X174600416Y-58653768D02*
G01*
X174616003Y-58662986D01*
X174741399Y-58737145D01*
X174783530Y-58749385D01*
X174901164Y-58783561D01*
X174901167Y-58783561D01*
X174901169Y-58783562D01*
X174910501Y-58784296D01*
X174938495Y-58786500D01*
X174938498Y-58786500D01*
X176097500Y-58786500D01*
X176164539Y-58806185D01*
X176210294Y-58858989D01*
X176221500Y-58910500D01*
X176221500Y-58954000D01*
X176201815Y-59021039D01*
X176149011Y-59066794D01*
X176097500Y-59078000D01*
X175842500Y-59078000D01*
X175842500Y-59628000D01*
X176482469Y-59628000D01*
X176545587Y-59645266D01*
X176616399Y-59687145D01*
X176616401Y-59687145D01*
X176616402Y-59687146D01*
X176776164Y-59733561D01*
X176776167Y-59733561D01*
X176776169Y-59733562D01*
X176785501Y-59734296D01*
X176813495Y-59736500D01*
X176813498Y-59736500D01*
X178121505Y-59736500D01*
X178143899Y-59734737D01*
X178158831Y-59733562D01*
X178158833Y-59733561D01*
X178158835Y-59733561D01*
X178215408Y-59717125D01*
X178318601Y-59687145D01*
X178456689Y-59605479D01*
X178515912Y-59588273D01*
X178572342Y-59586500D01*
X178583103Y-59586500D01*
X178650142Y-59606185D01*
X178674158Y-59626328D01*
X178675704Y-59628000D01*
X179660500Y-59628000D01*
X179660500Y-59078000D01*
X179642622Y-59078000D01*
X179575583Y-59058315D01*
X179529828Y-59005511D01*
X179519884Y-58936353D01*
X179548909Y-58872797D01*
X179554941Y-58866319D01*
X179598441Y-58822819D01*
X179659764Y-58789334D01*
X179686122Y-58786500D01*
X180415500Y-58786500D01*
X180482539Y-58806185D01*
X180528294Y-58858989D01*
X180539500Y-58910500D01*
X180539500Y-58954000D01*
X180519815Y-59021039D01*
X180467011Y-59066794D01*
X180415500Y-59078000D01*
X180160500Y-59078000D01*
X180160500Y-60678000D01*
X180163460Y-60680960D01*
X180220417Y-60697685D01*
X180266172Y-60750489D01*
X180276116Y-60819647D01*
X180247091Y-60883203D01*
X180241059Y-60889681D01*
X180103559Y-61027181D01*
X180042236Y-61060666D01*
X180015878Y-61063500D01*
X178934391Y-61063500D01*
X178918253Y-61061718D01*
X178918232Y-61061946D01*
X178910465Y-61061211D01*
X178837658Y-61063500D01*
X178806566Y-61063500D01*
X178799172Y-61064433D01*
X178793354Y-61064891D01*
X178744169Y-61066437D01*
X178723419Y-61072465D01*
X178704380Y-61076407D01*
X178682944Y-61079116D01*
X178682937Y-61079117D01*
X178682936Y-61079118D01*
X178682934Y-61079118D01*
X178682933Y-61079119D01*
X178637169Y-61097237D01*
X178631642Y-61099129D01*
X178584403Y-61112853D01*
X178584399Y-61112854D01*
X178565803Y-61123852D01*
X178548338Y-61132408D01*
X178528247Y-61140363D01*
X178528242Y-61140366D01*
X178488425Y-61169294D01*
X178483543Y-61172500D01*
X178441191Y-61197548D01*
X178425917Y-61212823D01*
X178411127Y-61225455D01*
X178393644Y-61238157D01*
X178393640Y-61238162D01*
X178362266Y-61276084D01*
X178358334Y-61280406D01*
X177436976Y-62201762D01*
X177424308Y-62211912D01*
X177424454Y-62212088D01*
X177418443Y-62217060D01*
X177368576Y-62270163D01*
X177346595Y-62292144D01*
X177342015Y-62298046D01*
X177338231Y-62302475D01*
X177304552Y-62338342D01*
X177304547Y-62338349D01*
X177294141Y-62357277D01*
X177283465Y-62373531D01*
X177270218Y-62390610D01*
X177250673Y-62435774D01*
X177248103Y-62441020D01*
X177224399Y-62484138D01*
X177219025Y-62505066D01*
X177212726Y-62523464D01*
X177204142Y-62543302D01*
X177196446Y-62591897D01*
X177195261Y-62597620D01*
X177183023Y-62645286D01*
X177183023Y-62666890D01*
X177181497Y-62686285D01*
X177178117Y-62707628D01*
X177182748Y-62756620D01*
X177183023Y-62762458D01*
X177183023Y-64137531D01*
X177163338Y-64204570D01*
X177151173Y-64220503D01*
X177102482Y-64274580D01*
X177009887Y-64434960D01*
X176959320Y-64483176D01*
X176890713Y-64496399D01*
X176825848Y-64470431D01*
X176785320Y-64413517D01*
X176778500Y-64372960D01*
X176778500Y-62551362D01*
X176778499Y-62551345D01*
X176774887Y-62517755D01*
X176771989Y-62490799D01*
X176769505Y-62484140D01*
X176734620Y-62390610D01*
X176720889Y-62353796D01*
X176633261Y-62236739D01*
X176516204Y-62149111D01*
X176379203Y-62098011D01*
X176318654Y-62091500D01*
X176318638Y-62091500D01*
X175421362Y-62091500D01*
X175421345Y-62091500D01*
X175360797Y-62098011D01*
X175360795Y-62098011D01*
X175223795Y-62149111D01*
X175106739Y-62236739D01*
X175019111Y-62353795D01*
X174968011Y-62490795D01*
X174968011Y-62490797D01*
X174961500Y-62551345D01*
X174961500Y-64355035D01*
X174941815Y-64422074D01*
X174889011Y-64467829D01*
X174819853Y-64477773D01*
X174756297Y-64448748D01*
X174749819Y-64442716D01*
X174614819Y-64307716D01*
X174581334Y-64246393D01*
X174578500Y-64220035D01*
X174578500Y-62551362D01*
X174578499Y-62551345D01*
X174574887Y-62517755D01*
X174571989Y-62490799D01*
X174569505Y-62484140D01*
X174534620Y-62390610D01*
X174520889Y-62353796D01*
X174433261Y-62236739D01*
X174316204Y-62149111D01*
X174179203Y-62098011D01*
X174118654Y-62091500D01*
X174118638Y-62091500D01*
X173221362Y-62091500D01*
X173221345Y-62091500D01*
X173160797Y-62098011D01*
X173160795Y-62098011D01*
X173023795Y-62149111D01*
X172906739Y-62236739D01*
X172819111Y-62353795D01*
X172768011Y-62490795D01*
X172768011Y-62490797D01*
X172761500Y-62551345D01*
X172761500Y-64448654D01*
X172768010Y-64509201D01*
X172804658Y-64607455D01*
X172811341Y-64634049D01*
X172817789Y-64681378D01*
X172826627Y-64762637D01*
X172826693Y-64762937D01*
X172831914Y-64785211D01*
X172831962Y-64785406D01*
X172854348Y-64846338D01*
X172860149Y-64862129D01*
X172886252Y-64939600D01*
X172886253Y-64939601D01*
X172886363Y-64939840D01*
X172896228Y-64960427D01*
X172896357Y-64960687D01*
X172901388Y-64968558D01*
X172940379Y-65029560D01*
X172982524Y-65099605D01*
X172982525Y-65099606D01*
X172982527Y-65099609D01*
X172982733Y-65099880D01*
X172996767Y-65117832D01*
X172996929Y-65118033D01*
X173054750Y-65175854D01*
X173079575Y-65202060D01*
X173110942Y-65235174D01*
X173110945Y-65235176D01*
X173110948Y-65235179D01*
X173111180Y-65235376D01*
X173128997Y-65250100D01*
X173859582Y-65980685D01*
X173893067Y-66042008D01*
X173888083Y-66111700D01*
X173864051Y-66151338D01*
X173786061Y-66237954D01*
X173709690Y-66370232D01*
X173689984Y-66395912D01*
X171590181Y-68495715D01*
X171528858Y-68529200D01*
X171459166Y-68524216D01*
X171403233Y-68482344D01*
X171378816Y-68416880D01*
X171378500Y-68408034D01*
X171378500Y-65032500D01*
X171398185Y-64965461D01*
X171450989Y-64919706D01*
X171502500Y-64908500D01*
X171918638Y-64908500D01*
X171918654Y-64908499D01*
X171945692Y-64905591D01*
X171979201Y-64901989D01*
X172116204Y-64850889D01*
X172233261Y-64763261D01*
X172320889Y-64646204D01*
X172371989Y-64509201D01*
X172376268Y-64469397D01*
X172378499Y-64448654D01*
X172378500Y-64448637D01*
X172378500Y-62551362D01*
X172378499Y-62551345D01*
X172374887Y-62517755D01*
X172371989Y-62490799D01*
X172369505Y-62484140D01*
X172334620Y-62390610D01*
X172320889Y-62353796D01*
X172233261Y-62236739D01*
X172116204Y-62149111D01*
X171979203Y-62098011D01*
X171918654Y-62091500D01*
X171918638Y-62091500D01*
X171021362Y-62091500D01*
X171021345Y-62091500D01*
X170960797Y-62098011D01*
X170960795Y-62098011D01*
X170823795Y-62149111D01*
X170706737Y-62236740D01*
X170701765Y-62243383D01*
X170645830Y-62285253D01*
X170576138Y-62290235D01*
X170514816Y-62256749D01*
X170481333Y-62195425D01*
X170478500Y-62169070D01*
X170478500Y-61722121D01*
X170498185Y-61655082D01*
X170514815Y-61634444D01*
X171007441Y-61141817D01*
X171068764Y-61108333D01*
X171095122Y-61105499D01*
X171896537Y-61105499D01*
X171896544Y-61105499D01*
X172000426Y-61094887D01*
X172168738Y-61039115D01*
X172319652Y-60946030D01*
X172445030Y-60820652D01*
X172538115Y-60669738D01*
X172538115Y-60669736D01*
X172541906Y-60663591D01*
X172543824Y-60664774D01*
X172582761Y-60620533D01*
X172649950Y-60601366D01*
X172716836Y-60621566D01*
X172736675Y-60637680D01*
X172778653Y-60679657D01*
X172778657Y-60679660D01*
X172927071Y-60771204D01*
X172927074Y-60771205D01*
X172927080Y-60771209D01*
X173092619Y-60826062D01*
X173194787Y-60836500D01*
X173769212Y-60836499D01*
X173871381Y-60826062D01*
X174036920Y-60771209D01*
X174185346Y-60679658D01*
X174308658Y-60556346D01*
X174342858Y-60500898D01*
X174394803Y-60454176D01*
X174463766Y-60442953D01*
X174527848Y-60470796D01*
X174536076Y-60478316D01*
X174603438Y-60545678D01*
X174603447Y-60545685D01*
X174744803Y-60629282D01*
X174744806Y-60629283D01*
X174902504Y-60675099D01*
X174902510Y-60675100D01*
X174939356Y-60678000D01*
X175342500Y-60678000D01*
X175342500Y-60128000D01*
X175842500Y-60128000D01*
X175842500Y-60678000D01*
X176245644Y-60678000D01*
X176282489Y-60675100D01*
X176282495Y-60675099D01*
X176440193Y-60629283D01*
X176440196Y-60629282D01*
X176581552Y-60545685D01*
X176581561Y-60545678D01*
X176697678Y-60429561D01*
X176697685Y-60429552D01*
X176781281Y-60288198D01*
X176827100Y-60130486D01*
X176827295Y-60128001D01*
X178675704Y-60128001D01*
X178675899Y-60130486D01*
X178721718Y-60288198D01*
X178805314Y-60429552D01*
X178805321Y-60429561D01*
X178921438Y-60545678D01*
X178921447Y-60545685D01*
X179062803Y-60629282D01*
X179062806Y-60629283D01*
X179220504Y-60675099D01*
X179220510Y-60675100D01*
X179257356Y-60678000D01*
X179660500Y-60678000D01*
X179660500Y-60128000D01*
X178675705Y-60128000D01*
X178675704Y-60128001D01*
X176827295Y-60128001D01*
X176827295Y-60128000D01*
X175842500Y-60128000D01*
X175342500Y-60128000D01*
X175342500Y-59078000D01*
X174939356Y-59078000D01*
X174902510Y-59080899D01*
X174902504Y-59080900D01*
X174744806Y-59126716D01*
X174744803Y-59126717D01*
X174603447Y-59210314D01*
X174603437Y-59210322D01*
X174564688Y-59249071D01*
X174503365Y-59282556D01*
X174433673Y-59277570D01*
X174377740Y-59235698D01*
X174371470Y-59226486D01*
X174308660Y-59124657D01*
X174308657Y-59124653D01*
X174199685Y-59015681D01*
X174166200Y-58954358D01*
X174171184Y-58884666D01*
X174199685Y-58840319D01*
X174253504Y-58786500D01*
X174308658Y-58731346D01*
X174330827Y-58695403D01*
X174382775Y-58648679D01*
X174436366Y-58636500D01*
X174537295Y-58636500D01*
X174600416Y-58653768D01*
G37*
%TD.AperFunction*%
%TD*%
M02*
