%TF.GenerationSoftware,KiCad,Pcbnew,8.0.2*%
%TF.CreationDate,2024-10-24T00:19:12+02:00*%
%TF.ProjectId,sidePanel,73696465-5061-46e6-956c-2e6b69636164,rev?*%
%TF.SameCoordinates,Original*%
%TF.FileFunction,Legend,Top*%
%TF.FilePolarity,Positive*%
%FSLAX46Y46*%
G04 Gerber Fmt 4.6, Leading zero omitted, Abs format (unit mm)*
G04 Created by KiCad (PCBNEW 8.0.2) date 2024-10-24 00:19:12*
%MOMM*%
%LPD*%
G01*
G04 APERTURE LIST*
G04 Aperture macros list*
%AMRotRect*
0 Rectangle, with rotation*
0 The origin of the aperture is its center*
0 $1 length*
0 $2 width*
0 $3 Rotation angle, in degrees counterclockwise*
0 Add horizontal line*
21,1,$1,$2,0,0,$3*%
G04 Aperture macros list end*
%ADD10C,0.100000*%
%ADD11R,1.500000X1.500000*%
%ADD12RotRect,1.500000X1.500000X278.000000*%
%ADD13RotRect,1.500000X1.500000X352.000000*%
G04 APERTURE END LIST*
D10*
X137463884Y-104107752D02*
X137463884Y-104964895D01*
X137463884Y-104964895D02*
X137416265Y-105060133D01*
X137416265Y-105060133D02*
X137321027Y-105107752D01*
X137321027Y-105107752D02*
X137273408Y-105107752D01*
X137463884Y-103774419D02*
X137416265Y-103822038D01*
X137416265Y-103822038D02*
X137463884Y-103869657D01*
X137463884Y-103869657D02*
X137511503Y-103822038D01*
X137511503Y-103822038D02*
X137463884Y-103774419D01*
X137463884Y-103774419D02*
X137463884Y-103869657D01*
X138082931Y-104774419D02*
X137987693Y-104726800D01*
X137987693Y-104726800D02*
X137940074Y-104631561D01*
X137940074Y-104631561D02*
X137940074Y-103774419D01*
X138892455Y-104726800D02*
X138797217Y-104774419D01*
X138797217Y-104774419D02*
X138606741Y-104774419D01*
X138606741Y-104774419D02*
X138511503Y-104726800D01*
X138511503Y-104726800D02*
X138463884Y-104679180D01*
X138463884Y-104679180D02*
X138416265Y-104583942D01*
X138416265Y-104583942D02*
X138416265Y-104298228D01*
X138416265Y-104298228D02*
X138463884Y-104202990D01*
X138463884Y-104202990D02*
X138511503Y-104155371D01*
X138511503Y-104155371D02*
X138606741Y-104107752D01*
X138606741Y-104107752D02*
X138797217Y-104107752D01*
X138797217Y-104107752D02*
X138892455Y-104155371D01*
X139321027Y-104107752D02*
X139321027Y-104964895D01*
X139321027Y-104964895D02*
X139273408Y-105060133D01*
X139273408Y-105060133D02*
X139178170Y-105107752D01*
X139178170Y-105107752D02*
X139130551Y-105107752D01*
X139321027Y-103774419D02*
X139273408Y-103822038D01*
X139273408Y-103822038D02*
X139321027Y-103869657D01*
X139321027Y-103869657D02*
X139368646Y-103822038D01*
X139368646Y-103822038D02*
X139321027Y-103774419D01*
X139321027Y-103774419D02*
X139321027Y-103869657D01*
X139940074Y-104774419D02*
X139844836Y-104726800D01*
X139844836Y-104726800D02*
X139797217Y-104631561D01*
X139797217Y-104631561D02*
X139797217Y-103774419D01*
X140749598Y-104726800D02*
X140654360Y-104774419D01*
X140654360Y-104774419D02*
X140463884Y-104774419D01*
X140463884Y-104774419D02*
X140368646Y-104726800D01*
X140368646Y-104726800D02*
X140321027Y-104679180D01*
X140321027Y-104679180D02*
X140273408Y-104583942D01*
X140273408Y-104583942D02*
X140273408Y-104298228D01*
X140273408Y-104298228D02*
X140321027Y-104202990D01*
X140321027Y-104202990D02*
X140368646Y-104155371D01*
X140368646Y-104155371D02*
X140463884Y-104107752D01*
X140463884Y-104107752D02*
X140654360Y-104107752D01*
X140654360Y-104107752D02*
X140749598Y-104155371D01*
X141178170Y-104107752D02*
X141178170Y-104964895D01*
X141178170Y-104964895D02*
X141130551Y-105060133D01*
X141130551Y-105060133D02*
X141035313Y-105107752D01*
X141035313Y-105107752D02*
X140987694Y-105107752D01*
X141178170Y-103774419D02*
X141130551Y-103822038D01*
X141130551Y-103822038D02*
X141178170Y-103869657D01*
X141178170Y-103869657D02*
X141225789Y-103822038D01*
X141225789Y-103822038D02*
X141178170Y-103774419D01*
X141178170Y-103774419D02*
X141178170Y-103869657D01*
X141797217Y-104774419D02*
X141701979Y-104726800D01*
X141701979Y-104726800D02*
X141654360Y-104631561D01*
X141654360Y-104631561D02*
X141654360Y-103774419D01*
X142606741Y-104726800D02*
X142511503Y-104774419D01*
X142511503Y-104774419D02*
X142321027Y-104774419D01*
X142321027Y-104774419D02*
X142225789Y-104726800D01*
X142225789Y-104726800D02*
X142178170Y-104679180D01*
X142178170Y-104679180D02*
X142130551Y-104583942D01*
X142130551Y-104583942D02*
X142130551Y-104298228D01*
X142130551Y-104298228D02*
X142178170Y-104202990D01*
X142178170Y-104202990D02*
X142225789Y-104155371D01*
X142225789Y-104155371D02*
X142321027Y-104107752D01*
X142321027Y-104107752D02*
X142511503Y-104107752D01*
X142511503Y-104107752D02*
X142606741Y-104155371D01*
X143035313Y-104107752D02*
X143035313Y-104964895D01*
X143035313Y-104964895D02*
X142987694Y-105060133D01*
X142987694Y-105060133D02*
X142892456Y-105107752D01*
X142892456Y-105107752D02*
X142844837Y-105107752D01*
X143035313Y-103774419D02*
X142987694Y-103822038D01*
X142987694Y-103822038D02*
X143035313Y-103869657D01*
X143035313Y-103869657D02*
X143082932Y-103822038D01*
X143082932Y-103822038D02*
X143035313Y-103774419D01*
X143035313Y-103774419D02*
X143035313Y-103869657D01*
X143654360Y-104774419D02*
X143559122Y-104726800D01*
X143559122Y-104726800D02*
X143511503Y-104631561D01*
X143511503Y-104631561D02*
X143511503Y-103774419D01*
X144463884Y-104726800D02*
X144368646Y-104774419D01*
X144368646Y-104774419D02*
X144178170Y-104774419D01*
X144178170Y-104774419D02*
X144082932Y-104726800D01*
X144082932Y-104726800D02*
X144035313Y-104679180D01*
X144035313Y-104679180D02*
X143987694Y-104583942D01*
X143987694Y-104583942D02*
X143987694Y-104298228D01*
X143987694Y-104298228D02*
X144035313Y-104202990D01*
X144035313Y-104202990D02*
X144082932Y-104155371D01*
X144082932Y-104155371D02*
X144178170Y-104107752D01*
X144178170Y-104107752D02*
X144368646Y-104107752D01*
X144368646Y-104107752D02*
X144463884Y-104155371D01*
%LPC*%
D11*
%TO.C,REF\u002A\u002A*%
X143598000Y-106457000D03*
%TD*%
D12*
%TO.C,REF\u002A\u002A*%
X132930000Y-93757000D03*
%TD*%
D11*
%TO.C,REF\u002A\u002A*%
X138391000Y-106457000D03*
%TD*%
D13*
%TO.C,REF\u002A\u002A*%
X149186000Y-93630000D03*
%TD*%
%LPD*%
M02*
