%TF.GenerationSoftware,KiCad,Pcbnew,7.0.7*%
%TF.CreationDate,2023-10-02T21:32:42+02:00*%
%TF.ProjectId,circuitBreaker2.0,63697263-7569-4744-9272-65616b657232,rev?*%
%TF.SameCoordinates,Original*%
%TF.FileFunction,Legend,Top*%
%TF.FilePolarity,Positive*%
%FSLAX46Y46*%
G04 Gerber Fmt 4.6, Leading zero omitted, Abs format (unit mm)*
G04 Created by KiCad (PCBNEW 7.0.7) date 2023-10-02 21:32:42*
%MOMM*%
%LPD*%
G01*
G04 APERTURE LIST*
G04 Aperture macros list*
%AMRoundRect*
0 Rectangle with rounded corners*
0 $1 Rounding radius*
0 $2 $3 $4 $5 $6 $7 $8 $9 X,Y pos of 4 corners*
0 Add a 4 corners polygon primitive as box body*
4,1,4,$2,$3,$4,$5,$6,$7,$8,$9,$2,$3,0*
0 Add four circle primitives for the rounded corners*
1,1,$1+$1,$2,$3*
1,1,$1+$1,$4,$5*
1,1,$1+$1,$6,$7*
1,1,$1+$1,$8,$9*
0 Add four rect primitives between the rounded corners*
20,1,$1+$1,$2,$3,$4,$5,0*
20,1,$1+$1,$4,$5,$6,$7,0*
20,1,$1+$1,$6,$7,$8,$9,0*
20,1,$1+$1,$8,$9,$2,$3,0*%
%AMFreePoly0*
4,1,9,3.862500,-0.866500,0.737500,-0.866500,0.737500,-0.450000,-0.737500,-0.450000,-0.737500,0.450000,0.737500,0.450000,0.737500,0.866500,3.862500,0.866500,3.862500,-0.866500,3.862500,-0.866500,$1*%
%AMFreePoly1*
4,1,14,0.334644,0.085355,0.385355,0.034644,0.400000,-0.000711,0.400000,-0.050000,0.385355,-0.085355,0.350000,-0.100000,-0.350000,-0.100000,-0.385355,-0.085355,-0.400000,-0.050000,-0.400000,0.050000,-0.385355,0.085355,-0.350000,0.100000,0.299289,0.100000,0.334644,0.085355,0.334644,0.085355,$1*%
%AMFreePoly2*
4,1,14,0.385355,0.085355,0.400000,0.050000,0.400000,0.000711,0.385355,-0.034644,0.334644,-0.085355,0.299289,-0.100000,-0.350000,-0.100000,-0.385355,-0.085355,-0.400000,-0.050000,-0.400000,0.050000,-0.385355,0.085355,-0.350000,0.100000,0.350000,0.100000,0.385355,0.085355,0.385355,0.085355,$1*%
%AMFreePoly3*
4,1,14,0.085355,0.385355,0.100000,0.350000,0.100000,-0.350000,0.085355,-0.385355,0.050000,-0.400000,-0.050000,-0.400000,-0.085355,-0.385355,-0.100000,-0.350000,-0.100000,0.299289,-0.085355,0.334644,-0.034644,0.385355,0.000711,0.400000,0.050000,0.400000,0.085355,0.385355,0.085355,0.385355,$1*%
%AMFreePoly4*
4,1,14,0.034644,0.385355,0.085355,0.334644,0.100000,0.299289,0.100000,-0.350000,0.085355,-0.385355,0.050000,-0.400000,-0.050000,-0.400000,-0.085355,-0.385355,-0.100000,-0.350000,-0.100000,0.350000,-0.085355,0.385355,-0.050000,0.400000,-0.000711,0.400000,0.034644,0.385355,0.034644,0.385355,$1*%
%AMFreePoly5*
4,1,14,0.385355,0.085355,0.400000,0.050000,0.400000,-0.050000,0.385355,-0.085355,0.350000,-0.100000,-0.299289,-0.100000,-0.334644,-0.085355,-0.385355,-0.034644,-0.400000,0.000711,-0.400000,0.050000,-0.385355,0.085355,-0.350000,0.100000,0.350000,0.100000,0.385355,0.085355,0.385355,0.085355,$1*%
%AMFreePoly6*
4,1,14,0.385355,0.085355,0.400000,0.050000,0.400000,-0.050000,0.385355,-0.085355,0.350000,-0.100000,-0.350000,-0.100000,-0.385355,-0.085355,-0.400000,-0.050000,-0.400000,-0.000711,-0.385355,0.034644,-0.334644,0.085355,-0.299289,0.100000,0.350000,0.100000,0.385355,0.085355,0.385355,0.085355,$1*%
%AMFreePoly7*
4,1,14,0.085355,0.385355,0.100000,0.350000,0.100000,-0.299289,0.085355,-0.334644,0.034644,-0.385355,-0.000711,-0.400000,-0.050000,-0.400000,-0.085355,-0.385355,-0.100000,-0.350000,-0.100000,0.350000,-0.085355,0.385355,-0.050000,0.400000,0.050000,0.400000,0.085355,0.385355,0.085355,0.385355,$1*%
%AMFreePoly8*
4,1,14,0.085355,0.385355,0.100000,0.350000,0.100000,-0.350000,0.085355,-0.385355,0.050000,-0.400000,0.000711,-0.400000,-0.034644,-0.385355,-0.085355,-0.334644,-0.100000,-0.299289,-0.100000,0.350000,-0.085355,0.385355,-0.050000,0.400000,0.050000,0.400000,0.085355,0.385355,0.085355,0.385355,$1*%
G04 Aperture macros list end*
%ADD10C,0.150000*%
%ADD11C,0.075000*%
%ADD12C,0.120000*%
%ADD13R,1.200000X1.200000*%
%ADD14R,1.500000X1.600000*%
%ADD15RoundRect,0.237500X-0.237500X0.250000X-0.237500X-0.250000X0.237500X-0.250000X0.237500X0.250000X0*%
%ADD16R,2.600000X2.600000*%
%ADD17C,2.600000*%
%ADD18RoundRect,0.250000X0.325000X0.450000X-0.325000X0.450000X-0.325000X-0.450000X0.325000X-0.450000X0*%
%ADD19RoundRect,0.250000X0.650000X-1.000000X0.650000X1.000000X-0.650000X1.000000X-0.650000X-1.000000X0*%
%ADD20RoundRect,0.250000X-0.312500X-0.625000X0.312500X-0.625000X0.312500X0.625000X-0.312500X0.625000X0*%
%ADD21RoundRect,0.250000X0.412500X0.650000X-0.412500X0.650000X-0.412500X-0.650000X0.412500X-0.650000X0*%
%ADD22RoundRect,0.140000X-0.140000X-0.170000X0.140000X-0.170000X0.140000X0.170000X-0.140000X0.170000X0*%
%ADD23RoundRect,0.237500X0.250000X0.237500X-0.250000X0.237500X-0.250000X-0.237500X0.250000X-0.237500X0*%
%ADD24RoundRect,0.250000X-1.000000X-0.650000X1.000000X-0.650000X1.000000X0.650000X-1.000000X0.650000X0*%
%ADD25C,3.200000*%
%ADD26RoundRect,0.250000X-0.650000X1.000000X-0.650000X-1.000000X0.650000X-1.000000X0.650000X1.000000X0*%
%ADD27RoundRect,0.250000X0.312500X0.625000X-0.312500X0.625000X-0.312500X-0.625000X0.312500X-0.625000X0*%
%ADD28RoundRect,0.250000X0.475000X-0.250000X0.475000X0.250000X-0.475000X0.250000X-0.475000X-0.250000X0*%
%ADD29RoundRect,0.250000X-0.350000X0.850000X-0.350000X-0.850000X0.350000X-0.850000X0.350000X0.850000X0*%
%ADD30RoundRect,0.249997X-2.650003X2.950003X-2.650003X-2.950003X2.650003X-2.950003X2.650003X2.950003X0*%
%ADD31RoundRect,0.112500X0.112500X-0.187500X0.112500X0.187500X-0.112500X0.187500X-0.112500X-0.187500X0*%
%ADD32RoundRect,0.140000X0.140000X0.170000X-0.140000X0.170000X-0.140000X-0.170000X0.140000X-0.170000X0*%
%ADD33R,1.000000X1.000000*%
%ADD34O,1.000000X1.000000*%
%ADD35R,0.900000X1.300000*%
%ADD36FreePoly0,90.000000*%
%ADD37RoundRect,0.237500X0.237500X-0.300000X0.237500X0.300000X-0.237500X0.300000X-0.237500X-0.300000X0*%
%ADD38FreePoly1,270.000000*%
%ADD39RoundRect,0.050000X-0.050000X0.350000X-0.050000X-0.350000X0.050000X-0.350000X0.050000X0.350000X0*%
%ADD40FreePoly2,270.000000*%
%ADD41FreePoly3,270.000000*%
%ADD42RoundRect,0.050000X-0.350000X0.050000X-0.350000X-0.050000X0.350000X-0.050000X0.350000X0.050000X0*%
%ADD43FreePoly4,270.000000*%
%ADD44FreePoly5,270.000000*%
%ADD45FreePoly6,270.000000*%
%ADD46FreePoly7,270.000000*%
%ADD47FreePoly8,270.000000*%
%ADD48R,1.700000X1.700000*%
G04 APERTURE END LIST*
D10*
X142617819Y-77260220D02*
X141617819Y-77260220D01*
X142617819Y-76784030D02*
X141617819Y-76784030D01*
X141617819Y-76784030D02*
X142617819Y-76212602D01*
X142617819Y-76212602D02*
X141617819Y-76212602D01*
D11*
X110039090Y-66462389D02*
X109634328Y-66462389D01*
X109634328Y-66462389D02*
X109586709Y-66486199D01*
X109586709Y-66486199D02*
X109562900Y-66510008D01*
X109562900Y-66510008D02*
X109539090Y-66557627D01*
X109539090Y-66557627D02*
X109539090Y-66652865D01*
X109539090Y-66652865D02*
X109562900Y-66700484D01*
X109562900Y-66700484D02*
X109586709Y-66724294D01*
X109586709Y-66724294D02*
X109634328Y-66748103D01*
X109634328Y-66748103D02*
X110039090Y-66748103D01*
X109539090Y-66986199D02*
X110039090Y-66986199D01*
X110039090Y-66986199D02*
X110039090Y-67105247D01*
X110039090Y-67105247D02*
X110015280Y-67176675D01*
X110015280Y-67176675D02*
X109967661Y-67224294D01*
X109967661Y-67224294D02*
X109920042Y-67248104D01*
X109920042Y-67248104D02*
X109824804Y-67271913D01*
X109824804Y-67271913D02*
X109753376Y-67271913D01*
X109753376Y-67271913D02*
X109658138Y-67248104D01*
X109658138Y-67248104D02*
X109610519Y-67224294D01*
X109610519Y-67224294D02*
X109562900Y-67176675D01*
X109562900Y-67176675D02*
X109539090Y-67105247D01*
X109539090Y-67105247D02*
X109539090Y-66986199D01*
X109539090Y-67486199D02*
X110039090Y-67486199D01*
X110039090Y-67486199D02*
X110039090Y-67676675D01*
X110039090Y-67676675D02*
X110015280Y-67724294D01*
X110015280Y-67724294D02*
X109991471Y-67748104D01*
X109991471Y-67748104D02*
X109943852Y-67771913D01*
X109943852Y-67771913D02*
X109872423Y-67771913D01*
X109872423Y-67771913D02*
X109824804Y-67748104D01*
X109824804Y-67748104D02*
X109800995Y-67724294D01*
X109800995Y-67724294D02*
X109777185Y-67676675D01*
X109777185Y-67676675D02*
X109777185Y-67486199D01*
X109539090Y-67986199D02*
X110039090Y-67986199D01*
X114123705Y-69121280D02*
X114171324Y-69145090D01*
X114171324Y-69145090D02*
X114242753Y-69145090D01*
X114242753Y-69145090D02*
X114314181Y-69121280D01*
X114314181Y-69121280D02*
X114361800Y-69073661D01*
X114361800Y-69073661D02*
X114385610Y-69026042D01*
X114385610Y-69026042D02*
X114409419Y-68930804D01*
X114409419Y-68930804D02*
X114409419Y-68859376D01*
X114409419Y-68859376D02*
X114385610Y-68764138D01*
X114385610Y-68764138D02*
X114361800Y-68716519D01*
X114361800Y-68716519D02*
X114314181Y-68668900D01*
X114314181Y-68668900D02*
X114242753Y-68645090D01*
X114242753Y-68645090D02*
X114195134Y-68645090D01*
X114195134Y-68645090D02*
X114123705Y-68668900D01*
X114123705Y-68668900D02*
X114099896Y-68692709D01*
X114099896Y-68692709D02*
X114099896Y-68859376D01*
X114099896Y-68859376D02*
X114195134Y-68859376D01*
X113885610Y-68645090D02*
X113885610Y-69145090D01*
X113885610Y-69145090D02*
X113599896Y-68645090D01*
X113599896Y-68645090D02*
X113599896Y-69145090D01*
X113361800Y-68645090D02*
X113361800Y-69145090D01*
X113361800Y-69145090D02*
X113242752Y-69145090D01*
X113242752Y-69145090D02*
X113171324Y-69121280D01*
X113171324Y-69121280D02*
X113123705Y-69073661D01*
X113123705Y-69073661D02*
X113099895Y-69026042D01*
X113099895Y-69026042D02*
X113076086Y-68930804D01*
X113076086Y-68930804D02*
X113076086Y-68859376D01*
X113076086Y-68859376D02*
X113099895Y-68764138D01*
X113099895Y-68764138D02*
X113123705Y-68716519D01*
X113123705Y-68716519D02*
X113171324Y-68668900D01*
X113171324Y-68668900D02*
X113242752Y-68645090D01*
X113242752Y-68645090D02*
X113361800Y-68645090D01*
D10*
X98412180Y-66821255D02*
X98412180Y-67011731D01*
X98412180Y-67011731D02*
X98364561Y-67106969D01*
X98364561Y-67106969D02*
X98269323Y-67202207D01*
X98269323Y-67202207D02*
X98078847Y-67249826D01*
X98078847Y-67249826D02*
X97745514Y-67249826D01*
X97745514Y-67249826D02*
X97555038Y-67202207D01*
X97555038Y-67202207D02*
X97459800Y-67106969D01*
X97459800Y-67106969D02*
X97412180Y-67011731D01*
X97412180Y-67011731D02*
X97412180Y-66821255D01*
X97412180Y-66821255D02*
X97459800Y-66726017D01*
X97459800Y-66726017D02*
X97555038Y-66630779D01*
X97555038Y-66630779D02*
X97745514Y-66583160D01*
X97745514Y-66583160D02*
X98078847Y-66583160D01*
X98078847Y-66583160D02*
X98269323Y-66630779D01*
X98269323Y-66630779D02*
X98364561Y-66726017D01*
X98364561Y-66726017D02*
X98412180Y-66821255D01*
X98412180Y-67678398D02*
X97602657Y-67678398D01*
X97602657Y-67678398D02*
X97507419Y-67726017D01*
X97507419Y-67726017D02*
X97459800Y-67773636D01*
X97459800Y-67773636D02*
X97412180Y-67868874D01*
X97412180Y-67868874D02*
X97412180Y-68059350D01*
X97412180Y-68059350D02*
X97459800Y-68154588D01*
X97459800Y-68154588D02*
X97507419Y-68202207D01*
X97507419Y-68202207D02*
X97602657Y-68249826D01*
X97602657Y-68249826D02*
X98412180Y-68249826D01*
X98412180Y-68583160D02*
X98412180Y-69154588D01*
X97412180Y-68868874D02*
X98412180Y-68868874D01*
D11*
X114796191Y-70458409D02*
X114629525Y-70220314D01*
X114510477Y-70458409D02*
X114510477Y-69958409D01*
X114510477Y-69958409D02*
X114700953Y-69958409D01*
X114700953Y-69958409D02*
X114748572Y-69982219D01*
X114748572Y-69982219D02*
X114772382Y-70006028D01*
X114772382Y-70006028D02*
X114796191Y-70053647D01*
X114796191Y-70053647D02*
X114796191Y-70125076D01*
X114796191Y-70125076D02*
X114772382Y-70172695D01*
X114772382Y-70172695D02*
X114748572Y-70196504D01*
X114748572Y-70196504D02*
X114700953Y-70220314D01*
X114700953Y-70220314D02*
X114510477Y-70220314D01*
X114939049Y-69958409D02*
X115105715Y-70458409D01*
X115105715Y-70458409D02*
X115272382Y-69958409D01*
X115700953Y-70458409D02*
X115415239Y-70458409D01*
X115558096Y-70458409D02*
X115558096Y-69958409D01*
X115558096Y-69958409D02*
X115510477Y-70029838D01*
X115510477Y-70029838D02*
X115462858Y-70077457D01*
X115462858Y-70077457D02*
X115415239Y-70101266D01*
X116010476Y-69958409D02*
X116058095Y-69958409D01*
X116058095Y-69958409D02*
X116105714Y-69982219D01*
X116105714Y-69982219D02*
X116129524Y-70006028D01*
X116129524Y-70006028D02*
X116153333Y-70053647D01*
X116153333Y-70053647D02*
X116177143Y-70148885D01*
X116177143Y-70148885D02*
X116177143Y-70267933D01*
X116177143Y-70267933D02*
X116153333Y-70363171D01*
X116153333Y-70363171D02*
X116129524Y-70410790D01*
X116129524Y-70410790D02*
X116105714Y-70434600D01*
X116105714Y-70434600D02*
X116058095Y-70458409D01*
X116058095Y-70458409D02*
X116010476Y-70458409D01*
X116010476Y-70458409D02*
X115962857Y-70434600D01*
X115962857Y-70434600D02*
X115939048Y-70410790D01*
X115939048Y-70410790D02*
X115915238Y-70363171D01*
X115915238Y-70363171D02*
X115891429Y-70267933D01*
X115891429Y-70267933D02*
X115891429Y-70148885D01*
X115891429Y-70148885D02*
X115915238Y-70053647D01*
X115915238Y-70053647D02*
X115939048Y-70006028D01*
X115939048Y-70006028D02*
X115962857Y-69982219D01*
X115962857Y-69982219D02*
X116010476Y-69958409D01*
X116653333Y-70458409D02*
X116367619Y-70458409D01*
X116510476Y-70458409D02*
X116510476Y-69958409D01*
X116510476Y-69958409D02*
X116462857Y-70029838D01*
X116462857Y-70029838D02*
X116415238Y-70077457D01*
X116415238Y-70077457D02*
X116367619Y-70101266D01*
X105461523Y-72289590D02*
X105628189Y-72527685D01*
X105747237Y-72289590D02*
X105747237Y-72789590D01*
X105747237Y-72789590D02*
X105556761Y-72789590D01*
X105556761Y-72789590D02*
X105509142Y-72765780D01*
X105509142Y-72765780D02*
X105485332Y-72741971D01*
X105485332Y-72741971D02*
X105461523Y-72694352D01*
X105461523Y-72694352D02*
X105461523Y-72622923D01*
X105461523Y-72622923D02*
X105485332Y-72575304D01*
X105485332Y-72575304D02*
X105509142Y-72551495D01*
X105509142Y-72551495D02*
X105556761Y-72527685D01*
X105556761Y-72527685D02*
X105747237Y-72527685D01*
X104985332Y-72289590D02*
X105271046Y-72289590D01*
X105128189Y-72289590D02*
X105128189Y-72789590D01*
X105128189Y-72789590D02*
X105175808Y-72718161D01*
X105175808Y-72718161D02*
X105223427Y-72670542D01*
X105223427Y-72670542D02*
X105271046Y-72646733D01*
X104509142Y-72289590D02*
X104794856Y-72289590D01*
X104651999Y-72289590D02*
X104651999Y-72789590D01*
X104651999Y-72789590D02*
X104699618Y-72718161D01*
X104699618Y-72718161D02*
X104747237Y-72670542D01*
X104747237Y-72670542D02*
X104794856Y-72646733D01*
X104199619Y-72789590D02*
X104152000Y-72789590D01*
X104152000Y-72789590D02*
X104104381Y-72765780D01*
X104104381Y-72765780D02*
X104080571Y-72741971D01*
X104080571Y-72741971D02*
X104056762Y-72694352D01*
X104056762Y-72694352D02*
X104032952Y-72599114D01*
X104032952Y-72599114D02*
X104032952Y-72480066D01*
X104032952Y-72480066D02*
X104056762Y-72384828D01*
X104056762Y-72384828D02*
X104080571Y-72337209D01*
X104080571Y-72337209D02*
X104104381Y-72313400D01*
X104104381Y-72313400D02*
X104152000Y-72289590D01*
X104152000Y-72289590D02*
X104199619Y-72289590D01*
X104199619Y-72289590D02*
X104247238Y-72313400D01*
X104247238Y-72313400D02*
X104271047Y-72337209D01*
X104271047Y-72337209D02*
X104294857Y-72384828D01*
X104294857Y-72384828D02*
X104318666Y-72480066D01*
X104318666Y-72480066D02*
X104318666Y-72599114D01*
X104318666Y-72599114D02*
X104294857Y-72694352D01*
X104294857Y-72694352D02*
X104271047Y-72741971D01*
X104271047Y-72741971D02*
X104247238Y-72765780D01*
X104247238Y-72765780D02*
X104199619Y-72789590D01*
X145052409Y-73658856D02*
X145409552Y-73658856D01*
X145409552Y-73658856D02*
X145480980Y-73682665D01*
X145480980Y-73682665D02*
X145528600Y-73730284D01*
X145528600Y-73730284D02*
X145552409Y-73801713D01*
X145552409Y-73801713D02*
X145552409Y-73849332D01*
X145552409Y-73158856D02*
X145552409Y-73444570D01*
X145552409Y-73301713D02*
X145052409Y-73301713D01*
X145052409Y-73301713D02*
X145123838Y-73349332D01*
X145123838Y-73349332D02*
X145171457Y-73396951D01*
X145171457Y-73396951D02*
X145195266Y-73444570D01*
X145052409Y-72849333D02*
X145052409Y-72801714D01*
X145052409Y-72801714D02*
X145076219Y-72754095D01*
X145076219Y-72754095D02*
X145100028Y-72730285D01*
X145100028Y-72730285D02*
X145147647Y-72706476D01*
X145147647Y-72706476D02*
X145242885Y-72682666D01*
X145242885Y-72682666D02*
X145361933Y-72682666D01*
X145361933Y-72682666D02*
X145457171Y-72706476D01*
X145457171Y-72706476D02*
X145504790Y-72730285D01*
X145504790Y-72730285D02*
X145528600Y-72754095D01*
X145528600Y-72754095D02*
X145552409Y-72801714D01*
X145552409Y-72801714D02*
X145552409Y-72849333D01*
X145552409Y-72849333D02*
X145528600Y-72896952D01*
X145528600Y-72896952D02*
X145504790Y-72920761D01*
X145504790Y-72920761D02*
X145457171Y-72944571D01*
X145457171Y-72944571D02*
X145361933Y-72968380D01*
X145361933Y-72968380D02*
X145242885Y-72968380D01*
X145242885Y-72968380D02*
X145147647Y-72944571D01*
X145147647Y-72944571D02*
X145100028Y-72920761D01*
X145100028Y-72920761D02*
X145076219Y-72896952D01*
X145076219Y-72896952D02*
X145052409Y-72849333D01*
X145052409Y-72516000D02*
X145052409Y-72206476D01*
X145052409Y-72206476D02*
X145242885Y-72373143D01*
X145242885Y-72373143D02*
X145242885Y-72301714D01*
X145242885Y-72301714D02*
X145266695Y-72254095D01*
X145266695Y-72254095D02*
X145290504Y-72230286D01*
X145290504Y-72230286D02*
X145338123Y-72206476D01*
X145338123Y-72206476D02*
X145457171Y-72206476D01*
X145457171Y-72206476D02*
X145504790Y-72230286D01*
X145504790Y-72230286D02*
X145528600Y-72254095D01*
X145528600Y-72254095D02*
X145552409Y-72301714D01*
X145552409Y-72301714D02*
X145552409Y-72444571D01*
X145552409Y-72444571D02*
X145528600Y-72492190D01*
X145528600Y-72492190D02*
X145504790Y-72516000D01*
X100500762Y-67664409D02*
X100500762Y-67164409D01*
X100500762Y-67164409D02*
X100619810Y-67164409D01*
X100619810Y-67164409D02*
X100691238Y-67188219D01*
X100691238Y-67188219D02*
X100738857Y-67235838D01*
X100738857Y-67235838D02*
X100762667Y-67283457D01*
X100762667Y-67283457D02*
X100786476Y-67378695D01*
X100786476Y-67378695D02*
X100786476Y-67450123D01*
X100786476Y-67450123D02*
X100762667Y-67545361D01*
X100762667Y-67545361D02*
X100738857Y-67592980D01*
X100738857Y-67592980D02*
X100691238Y-67640600D01*
X100691238Y-67640600D02*
X100619810Y-67664409D01*
X100619810Y-67664409D02*
X100500762Y-67664409D01*
X101262667Y-67664409D02*
X100976953Y-67664409D01*
X101119810Y-67664409D02*
X101119810Y-67164409D01*
X101119810Y-67164409D02*
X101072191Y-67235838D01*
X101072191Y-67235838D02*
X101024572Y-67283457D01*
X101024572Y-67283457D02*
X100976953Y-67307266D01*
X101738857Y-67664409D02*
X101453143Y-67664409D01*
X101596000Y-67664409D02*
X101596000Y-67164409D01*
X101596000Y-67164409D02*
X101548381Y-67235838D01*
X101548381Y-67235838D02*
X101500762Y-67283457D01*
X101500762Y-67283457D02*
X101453143Y-67307266D01*
X102215047Y-67664409D02*
X101929333Y-67664409D01*
X102072190Y-67664409D02*
X102072190Y-67164409D01*
X102072190Y-67164409D02*
X102024571Y-67235838D01*
X102024571Y-67235838D02*
X101976952Y-67283457D01*
X101976952Y-67283457D02*
X101929333Y-67307266D01*
X135727409Y-73218237D02*
X135227409Y-73218237D01*
X135227409Y-73218237D02*
X135227409Y-73099189D01*
X135227409Y-73099189D02*
X135251219Y-73027761D01*
X135251219Y-73027761D02*
X135298838Y-72980142D01*
X135298838Y-72980142D02*
X135346457Y-72956332D01*
X135346457Y-72956332D02*
X135441695Y-72932523D01*
X135441695Y-72932523D02*
X135513123Y-72932523D01*
X135513123Y-72932523D02*
X135608361Y-72956332D01*
X135608361Y-72956332D02*
X135655980Y-72980142D01*
X135655980Y-72980142D02*
X135703600Y-73027761D01*
X135703600Y-73027761D02*
X135727409Y-73099189D01*
X135727409Y-73099189D02*
X135727409Y-73218237D01*
X135727409Y-72456332D02*
X135727409Y-72742046D01*
X135727409Y-72599189D02*
X135227409Y-72599189D01*
X135227409Y-72599189D02*
X135298838Y-72646808D01*
X135298838Y-72646808D02*
X135346457Y-72694427D01*
X135346457Y-72694427D02*
X135370266Y-72742046D01*
X135227409Y-72146809D02*
X135227409Y-72099190D01*
X135227409Y-72099190D02*
X135251219Y-72051571D01*
X135251219Y-72051571D02*
X135275028Y-72027761D01*
X135275028Y-72027761D02*
X135322647Y-72003952D01*
X135322647Y-72003952D02*
X135417885Y-71980142D01*
X135417885Y-71980142D02*
X135536933Y-71980142D01*
X135536933Y-71980142D02*
X135632171Y-72003952D01*
X135632171Y-72003952D02*
X135679790Y-72027761D01*
X135679790Y-72027761D02*
X135703600Y-72051571D01*
X135703600Y-72051571D02*
X135727409Y-72099190D01*
X135727409Y-72099190D02*
X135727409Y-72146809D01*
X135727409Y-72146809D02*
X135703600Y-72194428D01*
X135703600Y-72194428D02*
X135679790Y-72218237D01*
X135679790Y-72218237D02*
X135632171Y-72242047D01*
X135632171Y-72242047D02*
X135536933Y-72265856D01*
X135536933Y-72265856D02*
X135417885Y-72265856D01*
X135417885Y-72265856D02*
X135322647Y-72242047D01*
X135322647Y-72242047D02*
X135275028Y-72218237D01*
X135275028Y-72218237D02*
X135251219Y-72194428D01*
X135251219Y-72194428D02*
X135227409Y-72146809D01*
X135727409Y-71742047D02*
X135727409Y-71646809D01*
X135727409Y-71646809D02*
X135703600Y-71599190D01*
X135703600Y-71599190D02*
X135679790Y-71575381D01*
X135679790Y-71575381D02*
X135608361Y-71527762D01*
X135608361Y-71527762D02*
X135513123Y-71503952D01*
X135513123Y-71503952D02*
X135322647Y-71503952D01*
X135322647Y-71503952D02*
X135275028Y-71527762D01*
X135275028Y-71527762D02*
X135251219Y-71551571D01*
X135251219Y-71551571D02*
X135227409Y-71599190D01*
X135227409Y-71599190D02*
X135227409Y-71694428D01*
X135227409Y-71694428D02*
X135251219Y-71742047D01*
X135251219Y-71742047D02*
X135275028Y-71765857D01*
X135275028Y-71765857D02*
X135322647Y-71789666D01*
X135322647Y-71789666D02*
X135441695Y-71789666D01*
X135441695Y-71789666D02*
X135489314Y-71765857D01*
X135489314Y-71765857D02*
X135513123Y-71742047D01*
X135513123Y-71742047D02*
X135536933Y-71694428D01*
X135536933Y-71694428D02*
X135536933Y-71599190D01*
X135536933Y-71599190D02*
X135513123Y-71551571D01*
X135513123Y-71551571D02*
X135489314Y-71527762D01*
X135489314Y-71527762D02*
X135441695Y-71503952D01*
X115289409Y-74346523D02*
X115051314Y-74513189D01*
X115289409Y-74632237D02*
X114789409Y-74632237D01*
X114789409Y-74632237D02*
X114789409Y-74441761D01*
X114789409Y-74441761D02*
X114813219Y-74394142D01*
X114813219Y-74394142D02*
X114837028Y-74370332D01*
X114837028Y-74370332D02*
X114884647Y-74346523D01*
X114884647Y-74346523D02*
X114956076Y-74346523D01*
X114956076Y-74346523D02*
X115003695Y-74370332D01*
X115003695Y-74370332D02*
X115027504Y-74394142D01*
X115027504Y-74394142D02*
X115051314Y-74441761D01*
X115051314Y-74441761D02*
X115051314Y-74632237D01*
X115289409Y-73870332D02*
X115289409Y-74156046D01*
X115289409Y-74013189D02*
X114789409Y-74013189D01*
X114789409Y-74013189D02*
X114860838Y-74060808D01*
X114860838Y-74060808D02*
X114908457Y-74108427D01*
X114908457Y-74108427D02*
X114932266Y-74156046D01*
X114789409Y-73560809D02*
X114789409Y-73513190D01*
X114789409Y-73513190D02*
X114813219Y-73465571D01*
X114813219Y-73465571D02*
X114837028Y-73441761D01*
X114837028Y-73441761D02*
X114884647Y-73417952D01*
X114884647Y-73417952D02*
X114979885Y-73394142D01*
X114979885Y-73394142D02*
X115098933Y-73394142D01*
X115098933Y-73394142D02*
X115194171Y-73417952D01*
X115194171Y-73417952D02*
X115241790Y-73441761D01*
X115241790Y-73441761D02*
X115265600Y-73465571D01*
X115265600Y-73465571D02*
X115289409Y-73513190D01*
X115289409Y-73513190D02*
X115289409Y-73560809D01*
X115289409Y-73560809D02*
X115265600Y-73608428D01*
X115265600Y-73608428D02*
X115241790Y-73632237D01*
X115241790Y-73632237D02*
X115194171Y-73656047D01*
X115194171Y-73656047D02*
X115098933Y-73679856D01*
X115098933Y-73679856D02*
X114979885Y-73679856D01*
X114979885Y-73679856D02*
X114884647Y-73656047D01*
X114884647Y-73656047D02*
X114837028Y-73632237D01*
X114837028Y-73632237D02*
X114813219Y-73608428D01*
X114813219Y-73608428D02*
X114789409Y-73560809D01*
X114789409Y-73227476D02*
X114789409Y-72894143D01*
X114789409Y-72894143D02*
X115289409Y-73108428D01*
X99619523Y-74369209D02*
X99643332Y-74345400D01*
X99643332Y-74345400D02*
X99714761Y-74321590D01*
X99714761Y-74321590D02*
X99762380Y-74321590D01*
X99762380Y-74321590D02*
X99833808Y-74345400D01*
X99833808Y-74345400D02*
X99881427Y-74393019D01*
X99881427Y-74393019D02*
X99905237Y-74440638D01*
X99905237Y-74440638D02*
X99929046Y-74535876D01*
X99929046Y-74535876D02*
X99929046Y-74607304D01*
X99929046Y-74607304D02*
X99905237Y-74702542D01*
X99905237Y-74702542D02*
X99881427Y-74750161D01*
X99881427Y-74750161D02*
X99833808Y-74797780D01*
X99833808Y-74797780D02*
X99762380Y-74821590D01*
X99762380Y-74821590D02*
X99714761Y-74821590D01*
X99714761Y-74821590D02*
X99643332Y-74797780D01*
X99643332Y-74797780D02*
X99619523Y-74773971D01*
X99429046Y-74773971D02*
X99405237Y-74797780D01*
X99405237Y-74797780D02*
X99357618Y-74821590D01*
X99357618Y-74821590D02*
X99238570Y-74821590D01*
X99238570Y-74821590D02*
X99190951Y-74797780D01*
X99190951Y-74797780D02*
X99167142Y-74773971D01*
X99167142Y-74773971D02*
X99143332Y-74726352D01*
X99143332Y-74726352D02*
X99143332Y-74678733D01*
X99143332Y-74678733D02*
X99167142Y-74607304D01*
X99167142Y-74607304D02*
X99452856Y-74321590D01*
X99452856Y-74321590D02*
X99143332Y-74321590D01*
X98833809Y-74821590D02*
X98786190Y-74821590D01*
X98786190Y-74821590D02*
X98738571Y-74797780D01*
X98738571Y-74797780D02*
X98714761Y-74773971D01*
X98714761Y-74773971D02*
X98690952Y-74726352D01*
X98690952Y-74726352D02*
X98667142Y-74631114D01*
X98667142Y-74631114D02*
X98667142Y-74512066D01*
X98667142Y-74512066D02*
X98690952Y-74416828D01*
X98690952Y-74416828D02*
X98714761Y-74369209D01*
X98714761Y-74369209D02*
X98738571Y-74345400D01*
X98738571Y-74345400D02*
X98786190Y-74321590D01*
X98786190Y-74321590D02*
X98833809Y-74321590D01*
X98833809Y-74321590D02*
X98881428Y-74345400D01*
X98881428Y-74345400D02*
X98905237Y-74369209D01*
X98905237Y-74369209D02*
X98929047Y-74416828D01*
X98929047Y-74416828D02*
X98952856Y-74512066D01*
X98952856Y-74512066D02*
X98952856Y-74631114D01*
X98952856Y-74631114D02*
X98929047Y-74726352D01*
X98929047Y-74726352D02*
X98905237Y-74773971D01*
X98905237Y-74773971D02*
X98881428Y-74797780D01*
X98881428Y-74797780D02*
X98833809Y-74821590D01*
X98500476Y-74821590D02*
X98190952Y-74821590D01*
X98190952Y-74821590D02*
X98357619Y-74631114D01*
X98357619Y-74631114D02*
X98286190Y-74631114D01*
X98286190Y-74631114D02*
X98238571Y-74607304D01*
X98238571Y-74607304D02*
X98214762Y-74583495D01*
X98214762Y-74583495D02*
X98190952Y-74535876D01*
X98190952Y-74535876D02*
X98190952Y-74416828D01*
X98190952Y-74416828D02*
X98214762Y-74369209D01*
X98214762Y-74369209D02*
X98238571Y-74345400D01*
X98238571Y-74345400D02*
X98286190Y-74321590D01*
X98286190Y-74321590D02*
X98429047Y-74321590D01*
X98429047Y-74321590D02*
X98476666Y-74345400D01*
X98476666Y-74345400D02*
X98500476Y-74369209D01*
X113740476Y-72188790D02*
X113716667Y-72212600D01*
X113716667Y-72212600D02*
X113645238Y-72236409D01*
X113645238Y-72236409D02*
X113597619Y-72236409D01*
X113597619Y-72236409D02*
X113526191Y-72212600D01*
X113526191Y-72212600D02*
X113478572Y-72164980D01*
X113478572Y-72164980D02*
X113454762Y-72117361D01*
X113454762Y-72117361D02*
X113430953Y-72022123D01*
X113430953Y-72022123D02*
X113430953Y-71950695D01*
X113430953Y-71950695D02*
X113454762Y-71855457D01*
X113454762Y-71855457D02*
X113478572Y-71807838D01*
X113478572Y-71807838D02*
X113526191Y-71760219D01*
X113526191Y-71760219D02*
X113597619Y-71736409D01*
X113597619Y-71736409D02*
X113645238Y-71736409D01*
X113645238Y-71736409D02*
X113716667Y-71760219D01*
X113716667Y-71760219D02*
X113740476Y-71784028D01*
X114216667Y-72236409D02*
X113930953Y-72236409D01*
X114073810Y-72236409D02*
X114073810Y-71736409D01*
X114073810Y-71736409D02*
X114026191Y-71807838D01*
X114026191Y-71807838D02*
X113978572Y-71855457D01*
X113978572Y-71855457D02*
X113930953Y-71879266D01*
X114526190Y-71736409D02*
X114573809Y-71736409D01*
X114573809Y-71736409D02*
X114621428Y-71760219D01*
X114621428Y-71760219D02*
X114645238Y-71784028D01*
X114645238Y-71784028D02*
X114669047Y-71831647D01*
X114669047Y-71831647D02*
X114692857Y-71926885D01*
X114692857Y-71926885D02*
X114692857Y-72045933D01*
X114692857Y-72045933D02*
X114669047Y-72141171D01*
X114669047Y-72141171D02*
X114645238Y-72188790D01*
X114645238Y-72188790D02*
X114621428Y-72212600D01*
X114621428Y-72212600D02*
X114573809Y-72236409D01*
X114573809Y-72236409D02*
X114526190Y-72236409D01*
X114526190Y-72236409D02*
X114478571Y-72212600D01*
X114478571Y-72212600D02*
X114454762Y-72188790D01*
X114454762Y-72188790D02*
X114430952Y-72141171D01*
X114430952Y-72141171D02*
X114407143Y-72045933D01*
X114407143Y-72045933D02*
X114407143Y-71926885D01*
X114407143Y-71926885D02*
X114430952Y-71831647D01*
X114430952Y-71831647D02*
X114454762Y-71784028D01*
X114454762Y-71784028D02*
X114478571Y-71760219D01*
X114478571Y-71760219D02*
X114526190Y-71736409D01*
X115169047Y-72236409D02*
X114883333Y-72236409D01*
X115026190Y-72236409D02*
X115026190Y-71736409D01*
X115026190Y-71736409D02*
X114978571Y-71807838D01*
X114978571Y-71807838D02*
X114930952Y-71855457D01*
X114930952Y-71855457D02*
X114883333Y-71879266D01*
X112343476Y-71220409D02*
X112176810Y-70982314D01*
X112057762Y-71220409D02*
X112057762Y-70720409D01*
X112057762Y-70720409D02*
X112248238Y-70720409D01*
X112248238Y-70720409D02*
X112295857Y-70744219D01*
X112295857Y-70744219D02*
X112319667Y-70768028D01*
X112319667Y-70768028D02*
X112343476Y-70815647D01*
X112343476Y-70815647D02*
X112343476Y-70887076D01*
X112343476Y-70887076D02*
X112319667Y-70934695D01*
X112319667Y-70934695D02*
X112295857Y-70958504D01*
X112295857Y-70958504D02*
X112248238Y-70982314D01*
X112248238Y-70982314D02*
X112057762Y-70982314D01*
X112819667Y-71220409D02*
X112533953Y-71220409D01*
X112676810Y-71220409D02*
X112676810Y-70720409D01*
X112676810Y-70720409D02*
X112629191Y-70791838D01*
X112629191Y-70791838D02*
X112581572Y-70839457D01*
X112581572Y-70839457D02*
X112533953Y-70863266D01*
X113129190Y-70720409D02*
X113176809Y-70720409D01*
X113176809Y-70720409D02*
X113224428Y-70744219D01*
X113224428Y-70744219D02*
X113248238Y-70768028D01*
X113248238Y-70768028D02*
X113272047Y-70815647D01*
X113272047Y-70815647D02*
X113295857Y-70910885D01*
X113295857Y-70910885D02*
X113295857Y-71029933D01*
X113295857Y-71029933D02*
X113272047Y-71125171D01*
X113272047Y-71125171D02*
X113248238Y-71172790D01*
X113248238Y-71172790D02*
X113224428Y-71196600D01*
X113224428Y-71196600D02*
X113176809Y-71220409D01*
X113176809Y-71220409D02*
X113129190Y-71220409D01*
X113129190Y-71220409D02*
X113081571Y-71196600D01*
X113081571Y-71196600D02*
X113057762Y-71172790D01*
X113057762Y-71172790D02*
X113033952Y-71125171D01*
X113033952Y-71125171D02*
X113010143Y-71029933D01*
X113010143Y-71029933D02*
X113010143Y-70910885D01*
X113010143Y-70910885D02*
X113033952Y-70815647D01*
X113033952Y-70815647D02*
X113057762Y-70768028D01*
X113057762Y-70768028D02*
X113081571Y-70744219D01*
X113081571Y-70744219D02*
X113129190Y-70720409D01*
X113533952Y-71220409D02*
X113629190Y-71220409D01*
X113629190Y-71220409D02*
X113676809Y-71196600D01*
X113676809Y-71196600D02*
X113700618Y-71172790D01*
X113700618Y-71172790D02*
X113748237Y-71101361D01*
X113748237Y-71101361D02*
X113772047Y-71006123D01*
X113772047Y-71006123D02*
X113772047Y-70815647D01*
X113772047Y-70815647D02*
X113748237Y-70768028D01*
X113748237Y-70768028D02*
X113724428Y-70744219D01*
X113724428Y-70744219D02*
X113676809Y-70720409D01*
X113676809Y-70720409D02*
X113581571Y-70720409D01*
X113581571Y-70720409D02*
X113533952Y-70744219D01*
X113533952Y-70744219D02*
X113510142Y-70768028D01*
X113510142Y-70768028D02*
X113486333Y-70815647D01*
X113486333Y-70815647D02*
X113486333Y-70934695D01*
X113486333Y-70934695D02*
X113510142Y-70982314D01*
X113510142Y-70982314D02*
X113533952Y-71006123D01*
X113533952Y-71006123D02*
X113581571Y-71029933D01*
X113581571Y-71029933D02*
X113676809Y-71029933D01*
X113676809Y-71029933D02*
X113724428Y-71006123D01*
X113724428Y-71006123D02*
X113748237Y-70982314D01*
X113748237Y-70982314D02*
X113772047Y-70934695D01*
X106605790Y-67742523D02*
X106629600Y-67766332D01*
X106629600Y-67766332D02*
X106653409Y-67837761D01*
X106653409Y-67837761D02*
X106653409Y-67885380D01*
X106653409Y-67885380D02*
X106629600Y-67956808D01*
X106629600Y-67956808D02*
X106581980Y-68004427D01*
X106581980Y-68004427D02*
X106534361Y-68028237D01*
X106534361Y-68028237D02*
X106439123Y-68052046D01*
X106439123Y-68052046D02*
X106367695Y-68052046D01*
X106367695Y-68052046D02*
X106272457Y-68028237D01*
X106272457Y-68028237D02*
X106224838Y-68004427D01*
X106224838Y-68004427D02*
X106177219Y-67956808D01*
X106177219Y-67956808D02*
X106153409Y-67885380D01*
X106153409Y-67885380D02*
X106153409Y-67837761D01*
X106153409Y-67837761D02*
X106177219Y-67766332D01*
X106177219Y-67766332D02*
X106201028Y-67742523D01*
X106653409Y-67266332D02*
X106653409Y-67552046D01*
X106653409Y-67409189D02*
X106153409Y-67409189D01*
X106153409Y-67409189D02*
X106224838Y-67456808D01*
X106224838Y-67456808D02*
X106272457Y-67504427D01*
X106272457Y-67504427D02*
X106296266Y-67552046D01*
X106153409Y-66956809D02*
X106153409Y-66909190D01*
X106153409Y-66909190D02*
X106177219Y-66861571D01*
X106177219Y-66861571D02*
X106201028Y-66837761D01*
X106201028Y-66837761D02*
X106248647Y-66813952D01*
X106248647Y-66813952D02*
X106343885Y-66790142D01*
X106343885Y-66790142D02*
X106462933Y-66790142D01*
X106462933Y-66790142D02*
X106558171Y-66813952D01*
X106558171Y-66813952D02*
X106605790Y-66837761D01*
X106605790Y-66837761D02*
X106629600Y-66861571D01*
X106629600Y-66861571D02*
X106653409Y-66909190D01*
X106653409Y-66909190D02*
X106653409Y-66956809D01*
X106653409Y-66956809D02*
X106629600Y-67004428D01*
X106629600Y-67004428D02*
X106605790Y-67028237D01*
X106605790Y-67028237D02*
X106558171Y-67052047D01*
X106558171Y-67052047D02*
X106462933Y-67075856D01*
X106462933Y-67075856D02*
X106343885Y-67075856D01*
X106343885Y-67075856D02*
X106248647Y-67052047D01*
X106248647Y-67052047D02*
X106201028Y-67028237D01*
X106201028Y-67028237D02*
X106177219Y-67004428D01*
X106177219Y-67004428D02*
X106153409Y-66956809D01*
X106320076Y-66361571D02*
X106653409Y-66361571D01*
X106129600Y-66480619D02*
X106486742Y-66599666D01*
X106486742Y-66599666D02*
X106486742Y-66290143D01*
X140654762Y-70481409D02*
X140654762Y-69981409D01*
X140654762Y-69981409D02*
X140773810Y-69981409D01*
X140773810Y-69981409D02*
X140845238Y-70005219D01*
X140845238Y-70005219D02*
X140892857Y-70052838D01*
X140892857Y-70052838D02*
X140916667Y-70100457D01*
X140916667Y-70100457D02*
X140940476Y-70195695D01*
X140940476Y-70195695D02*
X140940476Y-70267123D01*
X140940476Y-70267123D02*
X140916667Y-70362361D01*
X140916667Y-70362361D02*
X140892857Y-70409980D01*
X140892857Y-70409980D02*
X140845238Y-70457600D01*
X140845238Y-70457600D02*
X140773810Y-70481409D01*
X140773810Y-70481409D02*
X140654762Y-70481409D01*
X141416667Y-70481409D02*
X141130953Y-70481409D01*
X141273810Y-70481409D02*
X141273810Y-69981409D01*
X141273810Y-69981409D02*
X141226191Y-70052838D01*
X141226191Y-70052838D02*
X141178572Y-70100457D01*
X141178572Y-70100457D02*
X141130953Y-70124266D01*
X141726190Y-69981409D02*
X141773809Y-69981409D01*
X141773809Y-69981409D02*
X141821428Y-70005219D01*
X141821428Y-70005219D02*
X141845238Y-70029028D01*
X141845238Y-70029028D02*
X141869047Y-70076647D01*
X141869047Y-70076647D02*
X141892857Y-70171885D01*
X141892857Y-70171885D02*
X141892857Y-70290933D01*
X141892857Y-70290933D02*
X141869047Y-70386171D01*
X141869047Y-70386171D02*
X141845238Y-70433790D01*
X141845238Y-70433790D02*
X141821428Y-70457600D01*
X141821428Y-70457600D02*
X141773809Y-70481409D01*
X141773809Y-70481409D02*
X141726190Y-70481409D01*
X141726190Y-70481409D02*
X141678571Y-70457600D01*
X141678571Y-70457600D02*
X141654762Y-70433790D01*
X141654762Y-70433790D02*
X141630952Y-70386171D01*
X141630952Y-70386171D02*
X141607143Y-70290933D01*
X141607143Y-70290933D02*
X141607143Y-70171885D01*
X141607143Y-70171885D02*
X141630952Y-70076647D01*
X141630952Y-70076647D02*
X141654762Y-70029028D01*
X141654762Y-70029028D02*
X141678571Y-70005219D01*
X141678571Y-70005219D02*
X141726190Y-69981409D01*
X142059523Y-69981409D02*
X142392856Y-69981409D01*
X142392856Y-69981409D02*
X142178571Y-70481409D01*
X127026590Y-75608762D02*
X127526590Y-75608762D01*
X127526590Y-75608762D02*
X127526590Y-75727810D01*
X127526590Y-75727810D02*
X127502780Y-75799238D01*
X127502780Y-75799238D02*
X127455161Y-75846857D01*
X127455161Y-75846857D02*
X127407542Y-75870667D01*
X127407542Y-75870667D02*
X127312304Y-75894476D01*
X127312304Y-75894476D02*
X127240876Y-75894476D01*
X127240876Y-75894476D02*
X127145638Y-75870667D01*
X127145638Y-75870667D02*
X127098019Y-75846857D01*
X127098019Y-75846857D02*
X127050400Y-75799238D01*
X127050400Y-75799238D02*
X127026590Y-75727810D01*
X127026590Y-75727810D02*
X127026590Y-75608762D01*
X127026590Y-76370667D02*
X127026590Y-76084953D01*
X127026590Y-76227810D02*
X127526590Y-76227810D01*
X127526590Y-76227810D02*
X127455161Y-76180191D01*
X127455161Y-76180191D02*
X127407542Y-76132572D01*
X127407542Y-76132572D02*
X127383733Y-76084953D01*
X127526590Y-76680190D02*
X127526590Y-76727809D01*
X127526590Y-76727809D02*
X127502780Y-76775428D01*
X127502780Y-76775428D02*
X127478971Y-76799238D01*
X127478971Y-76799238D02*
X127431352Y-76823047D01*
X127431352Y-76823047D02*
X127336114Y-76846857D01*
X127336114Y-76846857D02*
X127217066Y-76846857D01*
X127217066Y-76846857D02*
X127121828Y-76823047D01*
X127121828Y-76823047D02*
X127074209Y-76799238D01*
X127074209Y-76799238D02*
X127050400Y-76775428D01*
X127050400Y-76775428D02*
X127026590Y-76727809D01*
X127026590Y-76727809D02*
X127026590Y-76680190D01*
X127026590Y-76680190D02*
X127050400Y-76632571D01*
X127050400Y-76632571D02*
X127074209Y-76608762D01*
X127074209Y-76608762D02*
X127121828Y-76584952D01*
X127121828Y-76584952D02*
X127217066Y-76561143D01*
X127217066Y-76561143D02*
X127336114Y-76561143D01*
X127336114Y-76561143D02*
X127431352Y-76584952D01*
X127431352Y-76584952D02*
X127478971Y-76608762D01*
X127478971Y-76608762D02*
X127502780Y-76632571D01*
X127502780Y-76632571D02*
X127526590Y-76680190D01*
X127312304Y-77132571D02*
X127336114Y-77084952D01*
X127336114Y-77084952D02*
X127359923Y-77061142D01*
X127359923Y-77061142D02*
X127407542Y-77037333D01*
X127407542Y-77037333D02*
X127431352Y-77037333D01*
X127431352Y-77037333D02*
X127478971Y-77061142D01*
X127478971Y-77061142D02*
X127502780Y-77084952D01*
X127502780Y-77084952D02*
X127526590Y-77132571D01*
X127526590Y-77132571D02*
X127526590Y-77227809D01*
X127526590Y-77227809D02*
X127502780Y-77275428D01*
X127502780Y-77275428D02*
X127478971Y-77299237D01*
X127478971Y-77299237D02*
X127431352Y-77323047D01*
X127431352Y-77323047D02*
X127407542Y-77323047D01*
X127407542Y-77323047D02*
X127359923Y-77299237D01*
X127359923Y-77299237D02*
X127336114Y-77275428D01*
X127336114Y-77275428D02*
X127312304Y-77227809D01*
X127312304Y-77227809D02*
X127312304Y-77132571D01*
X127312304Y-77132571D02*
X127288495Y-77084952D01*
X127288495Y-77084952D02*
X127264685Y-77061142D01*
X127264685Y-77061142D02*
X127217066Y-77037333D01*
X127217066Y-77037333D02*
X127121828Y-77037333D01*
X127121828Y-77037333D02*
X127074209Y-77061142D01*
X127074209Y-77061142D02*
X127050400Y-77084952D01*
X127050400Y-77084952D02*
X127026590Y-77132571D01*
X127026590Y-77132571D02*
X127026590Y-77227809D01*
X127026590Y-77227809D02*
X127050400Y-77275428D01*
X127050400Y-77275428D02*
X127074209Y-77299237D01*
X127074209Y-77299237D02*
X127121828Y-77323047D01*
X127121828Y-77323047D02*
X127217066Y-77323047D01*
X127217066Y-77323047D02*
X127264685Y-77299237D01*
X127264685Y-77299237D02*
X127288495Y-77275428D01*
X127288495Y-77275428D02*
X127312304Y-77227809D01*
X135154762Y-70727409D02*
X135154762Y-70227409D01*
X135154762Y-70227409D02*
X135273810Y-70227409D01*
X135273810Y-70227409D02*
X135345238Y-70251219D01*
X135345238Y-70251219D02*
X135392857Y-70298838D01*
X135392857Y-70298838D02*
X135416667Y-70346457D01*
X135416667Y-70346457D02*
X135440476Y-70441695D01*
X135440476Y-70441695D02*
X135440476Y-70513123D01*
X135440476Y-70513123D02*
X135416667Y-70608361D01*
X135416667Y-70608361D02*
X135392857Y-70655980D01*
X135392857Y-70655980D02*
X135345238Y-70703600D01*
X135345238Y-70703600D02*
X135273810Y-70727409D01*
X135273810Y-70727409D02*
X135154762Y-70727409D01*
X135916667Y-70727409D02*
X135630953Y-70727409D01*
X135773810Y-70727409D02*
X135773810Y-70227409D01*
X135773810Y-70227409D02*
X135726191Y-70298838D01*
X135726191Y-70298838D02*
X135678572Y-70346457D01*
X135678572Y-70346457D02*
X135630953Y-70370266D01*
X136226190Y-70227409D02*
X136273809Y-70227409D01*
X136273809Y-70227409D02*
X136321428Y-70251219D01*
X136321428Y-70251219D02*
X136345238Y-70275028D01*
X136345238Y-70275028D02*
X136369047Y-70322647D01*
X136369047Y-70322647D02*
X136392857Y-70417885D01*
X136392857Y-70417885D02*
X136392857Y-70536933D01*
X136392857Y-70536933D02*
X136369047Y-70632171D01*
X136369047Y-70632171D02*
X136345238Y-70679790D01*
X136345238Y-70679790D02*
X136321428Y-70703600D01*
X136321428Y-70703600D02*
X136273809Y-70727409D01*
X136273809Y-70727409D02*
X136226190Y-70727409D01*
X136226190Y-70727409D02*
X136178571Y-70703600D01*
X136178571Y-70703600D02*
X136154762Y-70679790D01*
X136154762Y-70679790D02*
X136130952Y-70632171D01*
X136130952Y-70632171D02*
X136107143Y-70536933D01*
X136107143Y-70536933D02*
X136107143Y-70417885D01*
X136107143Y-70417885D02*
X136130952Y-70322647D01*
X136130952Y-70322647D02*
X136154762Y-70275028D01*
X136154762Y-70275028D02*
X136178571Y-70251219D01*
X136178571Y-70251219D02*
X136226190Y-70227409D01*
X136821428Y-70227409D02*
X136726190Y-70227409D01*
X136726190Y-70227409D02*
X136678571Y-70251219D01*
X136678571Y-70251219D02*
X136654761Y-70275028D01*
X136654761Y-70275028D02*
X136607142Y-70346457D01*
X136607142Y-70346457D02*
X136583333Y-70441695D01*
X136583333Y-70441695D02*
X136583333Y-70632171D01*
X136583333Y-70632171D02*
X136607142Y-70679790D01*
X136607142Y-70679790D02*
X136630952Y-70703600D01*
X136630952Y-70703600D02*
X136678571Y-70727409D01*
X136678571Y-70727409D02*
X136773809Y-70727409D01*
X136773809Y-70727409D02*
X136821428Y-70703600D01*
X136821428Y-70703600D02*
X136845237Y-70679790D01*
X136845237Y-70679790D02*
X136869047Y-70632171D01*
X136869047Y-70632171D02*
X136869047Y-70513123D01*
X136869047Y-70513123D02*
X136845237Y-70465504D01*
X136845237Y-70465504D02*
X136821428Y-70441695D01*
X136821428Y-70441695D02*
X136773809Y-70417885D01*
X136773809Y-70417885D02*
X136678571Y-70417885D01*
X136678571Y-70417885D02*
X136630952Y-70441695D01*
X136630952Y-70441695D02*
X136607142Y-70465504D01*
X136607142Y-70465504D02*
X136583333Y-70513123D01*
X115289409Y-76886523D02*
X115051314Y-77053189D01*
X115289409Y-77172237D02*
X114789409Y-77172237D01*
X114789409Y-77172237D02*
X114789409Y-76981761D01*
X114789409Y-76981761D02*
X114813219Y-76934142D01*
X114813219Y-76934142D02*
X114837028Y-76910332D01*
X114837028Y-76910332D02*
X114884647Y-76886523D01*
X114884647Y-76886523D02*
X114956076Y-76886523D01*
X114956076Y-76886523D02*
X115003695Y-76910332D01*
X115003695Y-76910332D02*
X115027504Y-76934142D01*
X115027504Y-76934142D02*
X115051314Y-76981761D01*
X115051314Y-76981761D02*
X115051314Y-77172237D01*
X115289409Y-76410332D02*
X115289409Y-76696046D01*
X115289409Y-76553189D02*
X114789409Y-76553189D01*
X114789409Y-76553189D02*
X114860838Y-76600808D01*
X114860838Y-76600808D02*
X114908457Y-76648427D01*
X114908457Y-76648427D02*
X114932266Y-76696046D01*
X114789409Y-76100809D02*
X114789409Y-76053190D01*
X114789409Y-76053190D02*
X114813219Y-76005571D01*
X114813219Y-76005571D02*
X114837028Y-75981761D01*
X114837028Y-75981761D02*
X114884647Y-75957952D01*
X114884647Y-75957952D02*
X114979885Y-75934142D01*
X114979885Y-75934142D02*
X115098933Y-75934142D01*
X115098933Y-75934142D02*
X115194171Y-75957952D01*
X115194171Y-75957952D02*
X115241790Y-75981761D01*
X115241790Y-75981761D02*
X115265600Y-76005571D01*
X115265600Y-76005571D02*
X115289409Y-76053190D01*
X115289409Y-76053190D02*
X115289409Y-76100809D01*
X115289409Y-76100809D02*
X115265600Y-76148428D01*
X115265600Y-76148428D02*
X115241790Y-76172237D01*
X115241790Y-76172237D02*
X115194171Y-76196047D01*
X115194171Y-76196047D02*
X115098933Y-76219856D01*
X115098933Y-76219856D02*
X114979885Y-76219856D01*
X114979885Y-76219856D02*
X114884647Y-76196047D01*
X114884647Y-76196047D02*
X114837028Y-76172237D01*
X114837028Y-76172237D02*
X114813219Y-76148428D01*
X114813219Y-76148428D02*
X114789409Y-76100809D01*
X114789409Y-75505571D02*
X114789409Y-75600809D01*
X114789409Y-75600809D02*
X114813219Y-75648428D01*
X114813219Y-75648428D02*
X114837028Y-75672238D01*
X114837028Y-75672238D02*
X114908457Y-75719857D01*
X114908457Y-75719857D02*
X115003695Y-75743666D01*
X115003695Y-75743666D02*
X115194171Y-75743666D01*
X115194171Y-75743666D02*
X115241790Y-75719857D01*
X115241790Y-75719857D02*
X115265600Y-75696047D01*
X115265600Y-75696047D02*
X115289409Y-75648428D01*
X115289409Y-75648428D02*
X115289409Y-75553190D01*
X115289409Y-75553190D02*
X115265600Y-75505571D01*
X115265600Y-75505571D02*
X115241790Y-75481762D01*
X115241790Y-75481762D02*
X115194171Y-75457952D01*
X115194171Y-75457952D02*
X115075123Y-75457952D01*
X115075123Y-75457952D02*
X115027504Y-75481762D01*
X115027504Y-75481762D02*
X115003695Y-75505571D01*
X115003695Y-75505571D02*
X114979885Y-75553190D01*
X114979885Y-75553190D02*
X114979885Y-75648428D01*
X114979885Y-75648428D02*
X115003695Y-75696047D01*
X115003695Y-75696047D02*
X115027504Y-75719857D01*
X115027504Y-75719857D02*
X115075123Y-75743666D01*
X111890523Y-73630209D02*
X111914332Y-73606400D01*
X111914332Y-73606400D02*
X111985761Y-73582590D01*
X111985761Y-73582590D02*
X112033380Y-73582590D01*
X112033380Y-73582590D02*
X112104808Y-73606400D01*
X112104808Y-73606400D02*
X112152427Y-73654019D01*
X112152427Y-73654019D02*
X112176237Y-73701638D01*
X112176237Y-73701638D02*
X112200046Y-73796876D01*
X112200046Y-73796876D02*
X112200046Y-73868304D01*
X112200046Y-73868304D02*
X112176237Y-73963542D01*
X112176237Y-73963542D02*
X112152427Y-74011161D01*
X112152427Y-74011161D02*
X112104808Y-74058780D01*
X112104808Y-74058780D02*
X112033380Y-74082590D01*
X112033380Y-74082590D02*
X111985761Y-74082590D01*
X111985761Y-74082590D02*
X111914332Y-74058780D01*
X111914332Y-74058780D02*
X111890523Y-74034971D01*
X111700046Y-74034971D02*
X111676237Y-74058780D01*
X111676237Y-74058780D02*
X111628618Y-74082590D01*
X111628618Y-74082590D02*
X111509570Y-74082590D01*
X111509570Y-74082590D02*
X111461951Y-74058780D01*
X111461951Y-74058780D02*
X111438142Y-74034971D01*
X111438142Y-74034971D02*
X111414332Y-73987352D01*
X111414332Y-73987352D02*
X111414332Y-73939733D01*
X111414332Y-73939733D02*
X111438142Y-73868304D01*
X111438142Y-73868304D02*
X111723856Y-73582590D01*
X111723856Y-73582590D02*
X111414332Y-73582590D01*
X111104809Y-74082590D02*
X111057190Y-74082590D01*
X111057190Y-74082590D02*
X111009571Y-74058780D01*
X111009571Y-74058780D02*
X110985761Y-74034971D01*
X110985761Y-74034971D02*
X110961952Y-73987352D01*
X110961952Y-73987352D02*
X110938142Y-73892114D01*
X110938142Y-73892114D02*
X110938142Y-73773066D01*
X110938142Y-73773066D02*
X110961952Y-73677828D01*
X110961952Y-73677828D02*
X110985761Y-73630209D01*
X110985761Y-73630209D02*
X111009571Y-73606400D01*
X111009571Y-73606400D02*
X111057190Y-73582590D01*
X111057190Y-73582590D02*
X111104809Y-73582590D01*
X111104809Y-73582590D02*
X111152428Y-73606400D01*
X111152428Y-73606400D02*
X111176237Y-73630209D01*
X111176237Y-73630209D02*
X111200047Y-73677828D01*
X111200047Y-73677828D02*
X111223856Y-73773066D01*
X111223856Y-73773066D02*
X111223856Y-73892114D01*
X111223856Y-73892114D02*
X111200047Y-73987352D01*
X111200047Y-73987352D02*
X111176237Y-74034971D01*
X111176237Y-74034971D02*
X111152428Y-74058780D01*
X111152428Y-74058780D02*
X111104809Y-74082590D01*
X110461952Y-73582590D02*
X110747666Y-73582590D01*
X110604809Y-73582590D02*
X110604809Y-74082590D01*
X110604809Y-74082590D02*
X110652428Y-74011161D01*
X110652428Y-74011161D02*
X110700047Y-73963542D01*
X110700047Y-73963542D02*
X110747666Y-73939733D01*
X119866971Y-75891190D02*
X119890780Y-75843571D01*
X119890780Y-75843571D02*
X119938400Y-75795952D01*
X119938400Y-75795952D02*
X120009828Y-75724524D01*
X120009828Y-75724524D02*
X120033638Y-75676905D01*
X120033638Y-75676905D02*
X120033638Y-75629286D01*
X119914590Y-75653095D02*
X119938400Y-75605476D01*
X119938400Y-75605476D02*
X119986019Y-75557857D01*
X119986019Y-75557857D02*
X120081257Y-75534048D01*
X120081257Y-75534048D02*
X120247923Y-75534048D01*
X120247923Y-75534048D02*
X120343161Y-75557857D01*
X120343161Y-75557857D02*
X120390780Y-75605476D01*
X120390780Y-75605476D02*
X120414590Y-75653095D01*
X120414590Y-75653095D02*
X120414590Y-75748333D01*
X120414590Y-75748333D02*
X120390780Y-75795952D01*
X120390780Y-75795952D02*
X120343161Y-75843571D01*
X120343161Y-75843571D02*
X120247923Y-75867381D01*
X120247923Y-75867381D02*
X120081257Y-75867381D01*
X120081257Y-75867381D02*
X119986019Y-75843571D01*
X119986019Y-75843571D02*
X119938400Y-75795952D01*
X119938400Y-75795952D02*
X119914590Y-75748333D01*
X119914590Y-75748333D02*
X119914590Y-75653095D01*
X119914590Y-76343572D02*
X119914590Y-76057858D01*
X119914590Y-76200715D02*
X120414590Y-76200715D01*
X120414590Y-76200715D02*
X120343161Y-76153096D01*
X120343161Y-76153096D02*
X120295542Y-76105477D01*
X120295542Y-76105477D02*
X120271733Y-76057858D01*
X120414590Y-76653095D02*
X120414590Y-76700714D01*
X120414590Y-76700714D02*
X120390780Y-76748333D01*
X120390780Y-76748333D02*
X120366971Y-76772143D01*
X120366971Y-76772143D02*
X120319352Y-76795952D01*
X120319352Y-76795952D02*
X120224114Y-76819762D01*
X120224114Y-76819762D02*
X120105066Y-76819762D01*
X120105066Y-76819762D02*
X120009828Y-76795952D01*
X120009828Y-76795952D02*
X119962209Y-76772143D01*
X119962209Y-76772143D02*
X119938400Y-76748333D01*
X119938400Y-76748333D02*
X119914590Y-76700714D01*
X119914590Y-76700714D02*
X119914590Y-76653095D01*
X119914590Y-76653095D02*
X119938400Y-76605476D01*
X119938400Y-76605476D02*
X119962209Y-76581667D01*
X119962209Y-76581667D02*
X120009828Y-76557857D01*
X120009828Y-76557857D02*
X120105066Y-76534048D01*
X120105066Y-76534048D02*
X120224114Y-76534048D01*
X120224114Y-76534048D02*
X120319352Y-76557857D01*
X120319352Y-76557857D02*
X120366971Y-76581667D01*
X120366971Y-76581667D02*
X120390780Y-76605476D01*
X120390780Y-76605476D02*
X120414590Y-76653095D01*
X120366971Y-77010238D02*
X120390780Y-77034047D01*
X120390780Y-77034047D02*
X120414590Y-77081666D01*
X120414590Y-77081666D02*
X120414590Y-77200714D01*
X120414590Y-77200714D02*
X120390780Y-77248333D01*
X120390780Y-77248333D02*
X120366971Y-77272142D01*
X120366971Y-77272142D02*
X120319352Y-77295952D01*
X120319352Y-77295952D02*
X120271733Y-77295952D01*
X120271733Y-77295952D02*
X120200304Y-77272142D01*
X120200304Y-77272142D02*
X119914590Y-76986428D01*
X119914590Y-76986428D02*
X119914590Y-77295952D01*
X112819762Y-74268409D02*
X112819762Y-73768409D01*
X112819762Y-73768409D02*
X112938810Y-73768409D01*
X112938810Y-73768409D02*
X113010238Y-73792219D01*
X113010238Y-73792219D02*
X113057857Y-73839838D01*
X113057857Y-73839838D02*
X113081667Y-73887457D01*
X113081667Y-73887457D02*
X113105476Y-73982695D01*
X113105476Y-73982695D02*
X113105476Y-74054123D01*
X113105476Y-74054123D02*
X113081667Y-74149361D01*
X113081667Y-74149361D02*
X113057857Y-74196980D01*
X113057857Y-74196980D02*
X113010238Y-74244600D01*
X113010238Y-74244600D02*
X112938810Y-74268409D01*
X112938810Y-74268409D02*
X112819762Y-74268409D01*
X113581667Y-74268409D02*
X113295953Y-74268409D01*
X113438810Y-74268409D02*
X113438810Y-73768409D01*
X113438810Y-73768409D02*
X113391191Y-73839838D01*
X113391191Y-73839838D02*
X113343572Y-73887457D01*
X113343572Y-73887457D02*
X113295953Y-73911266D01*
X114057857Y-74268409D02*
X113772143Y-74268409D01*
X113915000Y-74268409D02*
X113915000Y-73768409D01*
X113915000Y-73768409D02*
X113867381Y-73839838D01*
X113867381Y-73839838D02*
X113819762Y-73887457D01*
X113819762Y-73887457D02*
X113772143Y-73911266D01*
X114367380Y-73768409D02*
X114414999Y-73768409D01*
X114414999Y-73768409D02*
X114462618Y-73792219D01*
X114462618Y-73792219D02*
X114486428Y-73816028D01*
X114486428Y-73816028D02*
X114510237Y-73863647D01*
X114510237Y-73863647D02*
X114534047Y-73958885D01*
X114534047Y-73958885D02*
X114534047Y-74077933D01*
X114534047Y-74077933D02*
X114510237Y-74173171D01*
X114510237Y-74173171D02*
X114486428Y-74220790D01*
X114486428Y-74220790D02*
X114462618Y-74244600D01*
X114462618Y-74244600D02*
X114414999Y-74268409D01*
X114414999Y-74268409D02*
X114367380Y-74268409D01*
X114367380Y-74268409D02*
X114319761Y-74244600D01*
X114319761Y-74244600D02*
X114295952Y-74220790D01*
X114295952Y-74220790D02*
X114272142Y-74173171D01*
X114272142Y-74173171D02*
X114248333Y-74077933D01*
X114248333Y-74077933D02*
X114248333Y-73958885D01*
X114248333Y-73958885D02*
X114272142Y-73863647D01*
X114272142Y-73863647D02*
X114295952Y-73816028D01*
X114295952Y-73816028D02*
X114319761Y-73792219D01*
X114319761Y-73792219D02*
X114367380Y-73768409D01*
X96471590Y-71620143D02*
X96114447Y-71620143D01*
X96114447Y-71620143D02*
X96043019Y-71596334D01*
X96043019Y-71596334D02*
X95995400Y-71548715D01*
X95995400Y-71548715D02*
X95971590Y-71477286D01*
X95971590Y-71477286D02*
X95971590Y-71429667D01*
X95971590Y-72120143D02*
X95971590Y-71834429D01*
X95971590Y-71977286D02*
X96471590Y-71977286D01*
X96471590Y-71977286D02*
X96400161Y-71929667D01*
X96400161Y-71929667D02*
X96352542Y-71882048D01*
X96352542Y-71882048D02*
X96328733Y-71834429D01*
X96471590Y-72429666D02*
X96471590Y-72477285D01*
X96471590Y-72477285D02*
X96447780Y-72524904D01*
X96447780Y-72524904D02*
X96423971Y-72548714D01*
X96423971Y-72548714D02*
X96376352Y-72572523D01*
X96376352Y-72572523D02*
X96281114Y-72596333D01*
X96281114Y-72596333D02*
X96162066Y-72596333D01*
X96162066Y-72596333D02*
X96066828Y-72572523D01*
X96066828Y-72572523D02*
X96019209Y-72548714D01*
X96019209Y-72548714D02*
X95995400Y-72524904D01*
X95995400Y-72524904D02*
X95971590Y-72477285D01*
X95971590Y-72477285D02*
X95971590Y-72429666D01*
X95971590Y-72429666D02*
X95995400Y-72382047D01*
X95995400Y-72382047D02*
X96019209Y-72358238D01*
X96019209Y-72358238D02*
X96066828Y-72334428D01*
X96066828Y-72334428D02*
X96162066Y-72310619D01*
X96162066Y-72310619D02*
X96281114Y-72310619D01*
X96281114Y-72310619D02*
X96376352Y-72334428D01*
X96376352Y-72334428D02*
X96423971Y-72358238D01*
X96423971Y-72358238D02*
X96447780Y-72382047D01*
X96447780Y-72382047D02*
X96471590Y-72429666D01*
X96304923Y-73024904D02*
X95971590Y-73024904D01*
X96495400Y-72905856D02*
X96138257Y-72786809D01*
X96138257Y-72786809D02*
X96138257Y-73096332D01*
X116280476Y-72569790D02*
X116256667Y-72593600D01*
X116256667Y-72593600D02*
X116185238Y-72617409D01*
X116185238Y-72617409D02*
X116137619Y-72617409D01*
X116137619Y-72617409D02*
X116066191Y-72593600D01*
X116066191Y-72593600D02*
X116018572Y-72545980D01*
X116018572Y-72545980D02*
X115994762Y-72498361D01*
X115994762Y-72498361D02*
X115970953Y-72403123D01*
X115970953Y-72403123D02*
X115970953Y-72331695D01*
X115970953Y-72331695D02*
X115994762Y-72236457D01*
X115994762Y-72236457D02*
X116018572Y-72188838D01*
X116018572Y-72188838D02*
X116066191Y-72141219D01*
X116066191Y-72141219D02*
X116137619Y-72117409D01*
X116137619Y-72117409D02*
X116185238Y-72117409D01*
X116185238Y-72117409D02*
X116256667Y-72141219D01*
X116256667Y-72141219D02*
X116280476Y-72165028D01*
X116756667Y-72617409D02*
X116470953Y-72617409D01*
X116613810Y-72617409D02*
X116613810Y-72117409D01*
X116613810Y-72117409D02*
X116566191Y-72188838D01*
X116566191Y-72188838D02*
X116518572Y-72236457D01*
X116518572Y-72236457D02*
X116470953Y-72260266D01*
X117066190Y-72117409D02*
X117113809Y-72117409D01*
X117113809Y-72117409D02*
X117161428Y-72141219D01*
X117161428Y-72141219D02*
X117185238Y-72165028D01*
X117185238Y-72165028D02*
X117209047Y-72212647D01*
X117209047Y-72212647D02*
X117232857Y-72307885D01*
X117232857Y-72307885D02*
X117232857Y-72426933D01*
X117232857Y-72426933D02*
X117209047Y-72522171D01*
X117209047Y-72522171D02*
X117185238Y-72569790D01*
X117185238Y-72569790D02*
X117161428Y-72593600D01*
X117161428Y-72593600D02*
X117113809Y-72617409D01*
X117113809Y-72617409D02*
X117066190Y-72617409D01*
X117066190Y-72617409D02*
X117018571Y-72593600D01*
X117018571Y-72593600D02*
X116994762Y-72569790D01*
X116994762Y-72569790D02*
X116970952Y-72522171D01*
X116970952Y-72522171D02*
X116947143Y-72426933D01*
X116947143Y-72426933D02*
X116947143Y-72307885D01*
X116947143Y-72307885D02*
X116970952Y-72212647D01*
X116970952Y-72212647D02*
X116994762Y-72165028D01*
X116994762Y-72165028D02*
X117018571Y-72141219D01*
X117018571Y-72141219D02*
X117066190Y-72117409D01*
X117399523Y-72117409D02*
X117709047Y-72117409D01*
X117709047Y-72117409D02*
X117542380Y-72307885D01*
X117542380Y-72307885D02*
X117613809Y-72307885D01*
X117613809Y-72307885D02*
X117661428Y-72331695D01*
X117661428Y-72331695D02*
X117685237Y-72355504D01*
X117685237Y-72355504D02*
X117709047Y-72403123D01*
X117709047Y-72403123D02*
X117709047Y-72522171D01*
X117709047Y-72522171D02*
X117685237Y-72569790D01*
X117685237Y-72569790D02*
X117661428Y-72593600D01*
X117661428Y-72593600D02*
X117613809Y-72617409D01*
X117613809Y-72617409D02*
X117470952Y-72617409D01*
X117470952Y-72617409D02*
X117423333Y-72593600D01*
X117423333Y-72593600D02*
X117399523Y-72569790D01*
X116407476Y-71982409D02*
X116240810Y-71744314D01*
X116121762Y-71982409D02*
X116121762Y-71482409D01*
X116121762Y-71482409D02*
X116312238Y-71482409D01*
X116312238Y-71482409D02*
X116359857Y-71506219D01*
X116359857Y-71506219D02*
X116383667Y-71530028D01*
X116383667Y-71530028D02*
X116407476Y-71577647D01*
X116407476Y-71577647D02*
X116407476Y-71649076D01*
X116407476Y-71649076D02*
X116383667Y-71696695D01*
X116383667Y-71696695D02*
X116359857Y-71720504D01*
X116359857Y-71720504D02*
X116312238Y-71744314D01*
X116312238Y-71744314D02*
X116121762Y-71744314D01*
X116883667Y-71982409D02*
X116597953Y-71982409D01*
X116740810Y-71982409D02*
X116740810Y-71482409D01*
X116740810Y-71482409D02*
X116693191Y-71553838D01*
X116693191Y-71553838D02*
X116645572Y-71601457D01*
X116645572Y-71601457D02*
X116597953Y-71625266D01*
X117193190Y-71482409D02*
X117240809Y-71482409D01*
X117240809Y-71482409D02*
X117288428Y-71506219D01*
X117288428Y-71506219D02*
X117312238Y-71530028D01*
X117312238Y-71530028D02*
X117336047Y-71577647D01*
X117336047Y-71577647D02*
X117359857Y-71672885D01*
X117359857Y-71672885D02*
X117359857Y-71791933D01*
X117359857Y-71791933D02*
X117336047Y-71887171D01*
X117336047Y-71887171D02*
X117312238Y-71934790D01*
X117312238Y-71934790D02*
X117288428Y-71958600D01*
X117288428Y-71958600D02*
X117240809Y-71982409D01*
X117240809Y-71982409D02*
X117193190Y-71982409D01*
X117193190Y-71982409D02*
X117145571Y-71958600D01*
X117145571Y-71958600D02*
X117121762Y-71934790D01*
X117121762Y-71934790D02*
X117097952Y-71887171D01*
X117097952Y-71887171D02*
X117074143Y-71791933D01*
X117074143Y-71791933D02*
X117074143Y-71672885D01*
X117074143Y-71672885D02*
X117097952Y-71577647D01*
X117097952Y-71577647D02*
X117121762Y-71530028D01*
X117121762Y-71530028D02*
X117145571Y-71506219D01*
X117145571Y-71506219D02*
X117193190Y-71482409D01*
X117645571Y-71696695D02*
X117597952Y-71672885D01*
X117597952Y-71672885D02*
X117574142Y-71649076D01*
X117574142Y-71649076D02*
X117550333Y-71601457D01*
X117550333Y-71601457D02*
X117550333Y-71577647D01*
X117550333Y-71577647D02*
X117574142Y-71530028D01*
X117574142Y-71530028D02*
X117597952Y-71506219D01*
X117597952Y-71506219D02*
X117645571Y-71482409D01*
X117645571Y-71482409D02*
X117740809Y-71482409D01*
X117740809Y-71482409D02*
X117788428Y-71506219D01*
X117788428Y-71506219D02*
X117812237Y-71530028D01*
X117812237Y-71530028D02*
X117836047Y-71577647D01*
X117836047Y-71577647D02*
X117836047Y-71601457D01*
X117836047Y-71601457D02*
X117812237Y-71649076D01*
X117812237Y-71649076D02*
X117788428Y-71672885D01*
X117788428Y-71672885D02*
X117740809Y-71696695D01*
X117740809Y-71696695D02*
X117645571Y-71696695D01*
X117645571Y-71696695D02*
X117597952Y-71720504D01*
X117597952Y-71720504D02*
X117574142Y-71744314D01*
X117574142Y-71744314D02*
X117550333Y-71791933D01*
X117550333Y-71791933D02*
X117550333Y-71887171D01*
X117550333Y-71887171D02*
X117574142Y-71934790D01*
X117574142Y-71934790D02*
X117597952Y-71958600D01*
X117597952Y-71958600D02*
X117645571Y-71982409D01*
X117645571Y-71982409D02*
X117740809Y-71982409D01*
X117740809Y-71982409D02*
X117788428Y-71958600D01*
X117788428Y-71958600D02*
X117812237Y-71934790D01*
X117812237Y-71934790D02*
X117836047Y-71887171D01*
X117836047Y-71887171D02*
X117836047Y-71791933D01*
X117836047Y-71791933D02*
X117812237Y-71744314D01*
X117812237Y-71744314D02*
X117788428Y-71720504D01*
X117788428Y-71720504D02*
X117740809Y-71696695D01*
X110585142Y-73124590D02*
X110585142Y-72719828D01*
X110585142Y-72719828D02*
X110561332Y-72672209D01*
X110561332Y-72672209D02*
X110537523Y-72648400D01*
X110537523Y-72648400D02*
X110489904Y-72624590D01*
X110489904Y-72624590D02*
X110394666Y-72624590D01*
X110394666Y-72624590D02*
X110347047Y-72648400D01*
X110347047Y-72648400D02*
X110323237Y-72672209D01*
X110323237Y-72672209D02*
X110299428Y-72719828D01*
X110299428Y-72719828D02*
X110299428Y-73124590D01*
X110085141Y-73076971D02*
X110061332Y-73100780D01*
X110061332Y-73100780D02*
X110013713Y-73124590D01*
X110013713Y-73124590D02*
X109894665Y-73124590D01*
X109894665Y-73124590D02*
X109847046Y-73100780D01*
X109847046Y-73100780D02*
X109823237Y-73076971D01*
X109823237Y-73076971D02*
X109799427Y-73029352D01*
X109799427Y-73029352D02*
X109799427Y-72981733D01*
X109799427Y-72981733D02*
X109823237Y-72910304D01*
X109823237Y-72910304D02*
X110108951Y-72624590D01*
X110108951Y-72624590D02*
X109799427Y-72624590D01*
X109489904Y-73124590D02*
X109442285Y-73124590D01*
X109442285Y-73124590D02*
X109394666Y-73100780D01*
X109394666Y-73100780D02*
X109370856Y-73076971D01*
X109370856Y-73076971D02*
X109347047Y-73029352D01*
X109347047Y-73029352D02*
X109323237Y-72934114D01*
X109323237Y-72934114D02*
X109323237Y-72815066D01*
X109323237Y-72815066D02*
X109347047Y-72719828D01*
X109347047Y-72719828D02*
X109370856Y-72672209D01*
X109370856Y-72672209D02*
X109394666Y-72648400D01*
X109394666Y-72648400D02*
X109442285Y-72624590D01*
X109442285Y-72624590D02*
X109489904Y-72624590D01*
X109489904Y-72624590D02*
X109537523Y-72648400D01*
X109537523Y-72648400D02*
X109561332Y-72672209D01*
X109561332Y-72672209D02*
X109585142Y-72719828D01*
X109585142Y-72719828D02*
X109608951Y-72815066D01*
X109608951Y-72815066D02*
X109608951Y-72934114D01*
X109608951Y-72934114D02*
X109585142Y-73029352D01*
X109585142Y-73029352D02*
X109561332Y-73076971D01*
X109561332Y-73076971D02*
X109537523Y-73100780D01*
X109537523Y-73100780D02*
X109489904Y-73124590D01*
X108847047Y-72624590D02*
X109132761Y-72624590D01*
X108989904Y-72624590D02*
X108989904Y-73124590D01*
X108989904Y-73124590D02*
X109037523Y-73053161D01*
X109037523Y-73053161D02*
X109085142Y-73005542D01*
X109085142Y-73005542D02*
X109132761Y-72981733D01*
X104954790Y-73861523D02*
X104978600Y-73885332D01*
X104978600Y-73885332D02*
X105002409Y-73956761D01*
X105002409Y-73956761D02*
X105002409Y-74004380D01*
X105002409Y-74004380D02*
X104978600Y-74075808D01*
X104978600Y-74075808D02*
X104930980Y-74123427D01*
X104930980Y-74123427D02*
X104883361Y-74147237D01*
X104883361Y-74147237D02*
X104788123Y-74171046D01*
X104788123Y-74171046D02*
X104716695Y-74171046D01*
X104716695Y-74171046D02*
X104621457Y-74147237D01*
X104621457Y-74147237D02*
X104573838Y-74123427D01*
X104573838Y-74123427D02*
X104526219Y-74075808D01*
X104526219Y-74075808D02*
X104502409Y-74004380D01*
X104502409Y-74004380D02*
X104502409Y-73956761D01*
X104502409Y-73956761D02*
X104526219Y-73885332D01*
X104526219Y-73885332D02*
X104550028Y-73861523D01*
X104550028Y-73671046D02*
X104526219Y-73647237D01*
X104526219Y-73647237D02*
X104502409Y-73599618D01*
X104502409Y-73599618D02*
X104502409Y-73480570D01*
X104502409Y-73480570D02*
X104526219Y-73432951D01*
X104526219Y-73432951D02*
X104550028Y-73409142D01*
X104550028Y-73409142D02*
X104597647Y-73385332D01*
X104597647Y-73385332D02*
X104645266Y-73385332D01*
X104645266Y-73385332D02*
X104716695Y-73409142D01*
X104716695Y-73409142D02*
X105002409Y-73694856D01*
X105002409Y-73694856D02*
X105002409Y-73385332D01*
X104502409Y-73075809D02*
X104502409Y-73028190D01*
X104502409Y-73028190D02*
X104526219Y-72980571D01*
X104526219Y-72980571D02*
X104550028Y-72956761D01*
X104550028Y-72956761D02*
X104597647Y-72932952D01*
X104597647Y-72932952D02*
X104692885Y-72909142D01*
X104692885Y-72909142D02*
X104811933Y-72909142D01*
X104811933Y-72909142D02*
X104907171Y-72932952D01*
X104907171Y-72932952D02*
X104954790Y-72956761D01*
X104954790Y-72956761D02*
X104978600Y-72980571D01*
X104978600Y-72980571D02*
X105002409Y-73028190D01*
X105002409Y-73028190D02*
X105002409Y-73075809D01*
X105002409Y-73075809D02*
X104978600Y-73123428D01*
X104978600Y-73123428D02*
X104954790Y-73147237D01*
X104954790Y-73147237D02*
X104907171Y-73171047D01*
X104907171Y-73171047D02*
X104811933Y-73194856D01*
X104811933Y-73194856D02*
X104692885Y-73194856D01*
X104692885Y-73194856D02*
X104597647Y-73171047D01*
X104597647Y-73171047D02*
X104550028Y-73147237D01*
X104550028Y-73147237D02*
X104526219Y-73123428D01*
X104526219Y-73123428D02*
X104502409Y-73075809D01*
X104550028Y-72718666D02*
X104526219Y-72694857D01*
X104526219Y-72694857D02*
X104502409Y-72647238D01*
X104502409Y-72647238D02*
X104502409Y-72528190D01*
X104502409Y-72528190D02*
X104526219Y-72480571D01*
X104526219Y-72480571D02*
X104550028Y-72456762D01*
X104550028Y-72456762D02*
X104597647Y-72432952D01*
X104597647Y-72432952D02*
X104645266Y-72432952D01*
X104645266Y-72432952D02*
X104716695Y-72456762D01*
X104716695Y-72456762D02*
X105002409Y-72742476D01*
X105002409Y-72742476D02*
X105002409Y-72432952D01*
X110140857Y-71609409D02*
X110140857Y-72014171D01*
X110140857Y-72014171D02*
X110164667Y-72061790D01*
X110164667Y-72061790D02*
X110188476Y-72085600D01*
X110188476Y-72085600D02*
X110236095Y-72109409D01*
X110236095Y-72109409D02*
X110331333Y-72109409D01*
X110331333Y-72109409D02*
X110378952Y-72085600D01*
X110378952Y-72085600D02*
X110402762Y-72061790D01*
X110402762Y-72061790D02*
X110426571Y-72014171D01*
X110426571Y-72014171D02*
X110426571Y-71609409D01*
X110926572Y-72109409D02*
X110640858Y-72109409D01*
X110783715Y-72109409D02*
X110783715Y-71609409D01*
X110783715Y-71609409D02*
X110736096Y-71680838D01*
X110736096Y-71680838D02*
X110688477Y-71728457D01*
X110688477Y-71728457D02*
X110640858Y-71752266D01*
X111236095Y-71609409D02*
X111283714Y-71609409D01*
X111283714Y-71609409D02*
X111331333Y-71633219D01*
X111331333Y-71633219D02*
X111355143Y-71657028D01*
X111355143Y-71657028D02*
X111378952Y-71704647D01*
X111378952Y-71704647D02*
X111402762Y-71799885D01*
X111402762Y-71799885D02*
X111402762Y-71918933D01*
X111402762Y-71918933D02*
X111378952Y-72014171D01*
X111378952Y-72014171D02*
X111355143Y-72061790D01*
X111355143Y-72061790D02*
X111331333Y-72085600D01*
X111331333Y-72085600D02*
X111283714Y-72109409D01*
X111283714Y-72109409D02*
X111236095Y-72109409D01*
X111236095Y-72109409D02*
X111188476Y-72085600D01*
X111188476Y-72085600D02*
X111164667Y-72061790D01*
X111164667Y-72061790D02*
X111140857Y-72014171D01*
X111140857Y-72014171D02*
X111117048Y-71918933D01*
X111117048Y-71918933D02*
X111117048Y-71799885D01*
X111117048Y-71799885D02*
X111140857Y-71704647D01*
X111140857Y-71704647D02*
X111164667Y-71657028D01*
X111164667Y-71657028D02*
X111188476Y-71633219D01*
X111188476Y-71633219D02*
X111236095Y-71609409D01*
X111878952Y-72109409D02*
X111593238Y-72109409D01*
X111736095Y-72109409D02*
X111736095Y-71609409D01*
X111736095Y-71609409D02*
X111688476Y-71680838D01*
X111688476Y-71680838D02*
X111640857Y-71728457D01*
X111640857Y-71728457D02*
X111593238Y-71752266D01*
D12*
%TO.C,RV101*%
X115129000Y-66145000D02*
X115129000Y-66845000D01*
X115629000Y-67745000D02*
X115629000Y-68145000D01*
X115829000Y-66145000D02*
X115129000Y-66145000D01*
X116729000Y-66345000D02*
X119629000Y-66345000D01*
X116729000Y-69545000D02*
X119629000Y-69545000D01*
X119629000Y-66345000D02*
X119629000Y-66945000D01*
X119629000Y-69545000D02*
X119629000Y-68945000D01*
%TO.C,R110*%
X105424500Y-70103276D02*
X105424500Y-70612724D01*
X104379500Y-70103276D02*
X104379500Y-70612724D01*
%TO.C,J103*%
X152965000Y-77385000D02*
X153705000Y-77385000D01*
X153705000Y-77385000D02*
X153705000Y-76885000D01*
X143544000Y-77145000D02*
X153465000Y-77145000D01*
X143544000Y-77145000D02*
X143544000Y-66865000D01*
X146504000Y-77145000D02*
X146504000Y-66865000D01*
X151405000Y-77145000D02*
X151405000Y-66865000D01*
X152905000Y-77145000D02*
X152905000Y-66865000D01*
X153465000Y-77145000D02*
X153465000Y-66865000D01*
X149828000Y-70692000D02*
X149874000Y-70739000D01*
X150044000Y-70499000D02*
X150079000Y-70534000D01*
X147530000Y-68395000D02*
X147566000Y-68430000D01*
X147736000Y-68190000D02*
X147782000Y-68237000D01*
X143544000Y-66865000D02*
X153465000Y-66865000D01*
X148121001Y-76079999D02*
G75*
G03*
X149488042Y-76080426I684000J1534992D01*
G01*
X147270001Y-73861001D02*
G75*
G03*
X147269574Y-75228042I1534992J-684000D01*
G01*
X150339999Y-75229000D02*
G75*
G03*
X150485252Y-74516195I-1535000J683999D01*
G01*
X150484999Y-74545000D02*
G75*
G03*
X150339755Y-73861682I-1679999J0D01*
G01*
X149489000Y-73010000D02*
G75*
G03*
X148121958Y-73009574I-684000J-1535000D01*
G01*
X150485000Y-69465000D02*
G75*
G03*
X150485000Y-69465000I-1680000J0D01*
G01*
%TO.C,D111*%
X106000000Y-68143000D02*
X106000000Y-66223000D01*
X106000000Y-66223000D02*
X103140000Y-66223000D01*
X103140000Y-68143000D02*
X106000000Y-68143000D01*
%TO.C,D109*%
X131572000Y-77551000D02*
X134872000Y-77551000D01*
X131572000Y-77551000D02*
X131572000Y-72041000D01*
X134872000Y-77551000D02*
X134872000Y-72041000D01*
%TO.C,R107*%
X116874936Y-72933500D02*
X118329064Y-72933500D01*
X116874936Y-74753500D02*
X118329064Y-74753500D01*
%TO.C,C203*%
X101549252Y-77237000D02*
X100126748Y-77237000D01*
X101549252Y-75417000D02*
X100126748Y-75417000D01*
%TO.C,C101*%
X115462164Y-70633000D02*
X115677836Y-70633000D01*
X115462164Y-71353000D02*
X115677836Y-71353000D01*
%TO.C,R109*%
X112776724Y-70372500D02*
X112267276Y-70372500D01*
X112776724Y-69327500D02*
X112267276Y-69327500D01*
%TO.C,C104*%
X108350164Y-66696000D02*
X108565836Y-66696000D01*
X108350164Y-67416000D02*
X108565836Y-67416000D01*
%TO.C,D107*%
X135427000Y-66549000D02*
X135427000Y-69849000D01*
X135427000Y-66549000D02*
X140937000Y-66549000D01*
X135427000Y-69849000D02*
X140937000Y-69849000D01*
%TO.C,D108*%
X131062000Y-70531000D02*
X127762000Y-70531000D01*
X131062000Y-70531000D02*
X131062000Y-76041000D01*
X127762000Y-70531000D02*
X127762000Y-76041000D01*
%TO.C,D106*%
X127934000Y-66549000D02*
X127934000Y-69849000D01*
X127934000Y-66549000D02*
X133444000Y-66549000D01*
X127934000Y-69849000D02*
X133444000Y-69849000D01*
%TO.C,R106*%
X118329064Y-77237000D02*
X116874936Y-77237000D01*
X118329064Y-75417000D02*
X116874936Y-75417000D01*
%TO.C,C201*%
X110723000Y-76230252D02*
X110723000Y-75707748D01*
X112193000Y-76230252D02*
X112193000Y-75707748D01*
%TO.C,Q102*%
X127402000Y-69456000D02*
X127132000Y-69456000D01*
X127132000Y-69456000D02*
X127132000Y-66626000D01*
X120772000Y-69456000D02*
X120772000Y-68356000D01*
X120502000Y-69456000D02*
X120772000Y-69456000D01*
X127402000Y-75876000D02*
X127402000Y-69456000D01*
X120502000Y-75876000D02*
X120502000Y-69456000D01*
%TO.C,D110*%
X112894000Y-77640000D02*
X114594000Y-77640000D01*
X112894000Y-77640000D02*
X112894000Y-74980000D01*
X114594000Y-77640000D02*
X114594000Y-74980000D01*
%TO.C,J104*%
X87035000Y-66497000D02*
X86295000Y-66497000D01*
X86295000Y-66497000D02*
X86295000Y-66997000D01*
X96456000Y-66737000D02*
X86535000Y-66737000D01*
X96456000Y-66737000D02*
X96456000Y-77017000D01*
X93496000Y-66737000D02*
X93496000Y-77017000D01*
X88595000Y-66737000D02*
X88595000Y-77017000D01*
X87095000Y-66737000D02*
X87095000Y-77017000D01*
X86535000Y-66737000D02*
X86535000Y-77017000D01*
X90172000Y-73190000D02*
X90126000Y-73143000D01*
X89956000Y-73383000D02*
X89921000Y-73348000D01*
X92470000Y-75487000D02*
X92434000Y-75452000D01*
X92264000Y-75692000D02*
X92218000Y-75645000D01*
X96456000Y-77017000D02*
X86535000Y-77017000D01*
X91878999Y-67802001D02*
G75*
G03*
X90511958Y-67801574I-684000J-1534992D01*
G01*
X92729999Y-70020999D02*
G75*
G03*
X92730426Y-68653958I-1534992J684000D01*
G01*
X89660001Y-68653000D02*
G75*
G03*
X89514748Y-69365805I1535000J-683999D01*
G01*
X89515001Y-69337000D02*
G75*
G03*
X89660245Y-70020318I1679999J0D01*
G01*
X90511000Y-70872000D02*
G75*
G03*
X91878042Y-70872426I684000J1535000D01*
G01*
X92875000Y-74417000D02*
G75*
G03*
X92875000Y-74417000I-1680000J0D01*
G01*
%TO.C,C103*%
X118880836Y-72369000D02*
X118665164Y-72369000D01*
X118880836Y-71649000D02*
X118665164Y-71649000D01*
%TO.C,R108*%
X118618724Y-71134500D02*
X118109276Y-71134500D01*
X118618724Y-70089500D02*
X118109276Y-70089500D01*
%TO.C,J105*%
X114298000Y-66708000D02*
X114298000Y-67818000D01*
X113538000Y-66708000D02*
X114298000Y-66708000D01*
X112778000Y-66708000D02*
X110303000Y-66708000D01*
X112778000Y-66708000D02*
X112778000Y-67254529D01*
X110303000Y-66708000D02*
X110303000Y-67510470D01*
X110303000Y-68125530D02*
X110303000Y-68928000D01*
X112778000Y-68381471D02*
X112778000Y-68928000D01*
X112778000Y-68928000D02*
X110303000Y-68928000D01*
%TO.C,U201*%
X105566000Y-77257000D02*
X105566000Y-76117000D01*
X105336000Y-76117000D02*
X105566000Y-76117000D01*
X105336000Y-76117000D02*
X105336000Y-73397000D01*
X110056000Y-76117000D02*
X109826000Y-76117000D01*
X105336000Y-73397000D02*
X106646000Y-73397000D01*
X108746000Y-73397000D02*
X110056000Y-73397000D01*
X110056000Y-73397000D02*
X110056000Y-76117000D01*
%TO.C,C202*%
X103836000Y-76115267D02*
X103836000Y-75822733D01*
X104856000Y-76115267D02*
X104856000Y-75822733D01*
%TO.C,U101*%
X106721000Y-68293000D02*
X107171000Y-68293000D01*
X109941000Y-68743000D02*
X109941000Y-68293000D01*
X106721000Y-68743000D02*
X106721000Y-68293000D01*
X109941000Y-71063000D02*
X109941000Y-71513000D01*
X106721000Y-71063000D02*
X106721000Y-71513000D01*
X109941000Y-71513000D02*
X109491000Y-71513000D01*
X106721000Y-71513000D02*
X107171000Y-71513000D01*
%TD*%
%LPC*%
D13*
%TO.C,RV101*%
X115929000Y-66945000D03*
D14*
X119179000Y-67945000D03*
D13*
X115929000Y-68945000D03*
%TD*%
D15*
%TO.C,R110*%
X104902000Y-69445500D03*
X104902000Y-71270500D03*
%TD*%
D16*
%TO.C,J103*%
X148805000Y-74545000D03*
D17*
X148805000Y-69465000D03*
%TD*%
D18*
%TO.C,D111*%
X105165000Y-67183000D03*
X103115000Y-67183000D03*
%TD*%
D19*
%TO.C,D109*%
X133222000Y-76041000D03*
X133222000Y-72041000D03*
%TD*%
D20*
%TO.C,R107*%
X116139500Y-73843500D03*
X119064500Y-73843500D03*
%TD*%
D21*
%TO.C,C203*%
X102400500Y-76327000D03*
X99275500Y-76327000D03*
%TD*%
D22*
%TO.C,C101*%
X115090000Y-70993000D03*
X116050000Y-70993000D03*
%TD*%
D23*
%TO.C,R109*%
X113434500Y-69850000D03*
X111609500Y-69850000D03*
%TD*%
D22*
%TO.C,C104*%
X107978000Y-67056000D03*
X108938000Y-67056000D03*
%TD*%
D24*
%TO.C,D107*%
X136937000Y-68199000D03*
X140937000Y-68199000D03*
%TD*%
D25*
%TO.C,REF\u002A\u002A*%
X139000000Y-74500000D03*
%TD*%
D26*
%TO.C,D108*%
X129412000Y-72041000D03*
X129412000Y-76041000D03*
%TD*%
D24*
%TO.C,D106*%
X129444000Y-68199000D03*
X133444000Y-68199000D03*
%TD*%
D27*
%TO.C,R106*%
X119064500Y-76327000D03*
X116139500Y-76327000D03*
%TD*%
D28*
%TO.C,C201*%
X111458000Y-76919000D03*
X111458000Y-75019000D03*
%TD*%
D29*
%TO.C,Q102*%
X126232000Y-67726000D03*
D30*
X123952000Y-74026000D03*
D29*
X121672000Y-67726000D03*
%TD*%
D31*
%TO.C,D110*%
X113744000Y-77080000D03*
X113744000Y-74980000D03*
%TD*%
D25*
%TO.C,REF\u002A\u002A*%
X100711000Y-71247000D03*
%TD*%
D16*
%TO.C,J104*%
X91195000Y-69337000D03*
D17*
X91195000Y-74417000D03*
%TD*%
D32*
%TO.C,C103*%
X119253000Y-72009000D03*
X118293000Y-72009000D03*
%TD*%
D23*
%TO.C,R108*%
X119276500Y-70612000D03*
X117451500Y-70612000D03*
%TD*%
D33*
%TO.C,J105*%
X113538000Y-67818000D03*
D34*
X112268000Y-67818000D03*
X110998000Y-67818000D03*
%TD*%
D35*
%TO.C,U201*%
X106196000Y-76707000D03*
D36*
X107696000Y-76619500D03*
D35*
X109196000Y-76707000D03*
%TD*%
D37*
%TO.C,C202*%
X104346000Y-76831500D03*
X104346000Y-75106500D03*
%TD*%
D38*
%TO.C,U101*%
X109131000Y-68453000D03*
D39*
X108731000Y-68453000D03*
X108331000Y-68453000D03*
X107931000Y-68453000D03*
D40*
X107531000Y-68453000D03*
D41*
X106881000Y-69103000D03*
D42*
X106881000Y-69503000D03*
X106881000Y-69903000D03*
X106881000Y-70303000D03*
D43*
X106881000Y-70703000D03*
D44*
X107531000Y-71353000D03*
D39*
X107931000Y-71353000D03*
X108331000Y-71353000D03*
X108731000Y-71353000D03*
D45*
X109131000Y-71353000D03*
D46*
X109781000Y-70703000D03*
D42*
X109781000Y-70303000D03*
X109781000Y-69903000D03*
X109781000Y-69503000D03*
D47*
X109781000Y-69103000D03*
D48*
X108331000Y-69903000D03*
%TD*%
%LPD*%
M02*
